<?xml version="1.0" encoding="utf-8"?>
<!-- Generator: Adobe Illustrator 26.2.1, SVG Export Plug-In . SVG Version: 6.00 Build 0)  -->
<svg version="1.1" xmlns="http://www.w3.org/2000/svg" xmlns:xlink="http://www.w3.org/1999/xlink" x="0px" y="0px" viewBox="0 0 150 86" style="enable-background:new 0 0 150 86;" xml:space="preserve">
<style type="text/css">
.st0{fill:none;stroke:#000000;}
.st1{fill:none;stroke:#000000;stroke-width:2;}
.st2{fill:none;stroke:#000000;stroke-width:2;stroke-linecap:round;stroke-linejoin:round;stroke-miterlimit:4.001;}
.st3{fill:#D4AB7E;}
.st4{fill:none;stroke:#000000;stroke-width:1.5;stroke-linecap:round;stroke-linejoin:round;}
.st5{fill:#EDDACE;}
.st6{fill:none;stroke:#000;stroke-width:2;stroke-linecap:round;stroke-linejoin:round;stroke-miterlimit:4.001;}
.st7{fill:none;stroke:#000;stroke-width:2;stroke-linecap:round;stroke-linejoin:round;stroke-miterlimit:4.001;}
.st8{fill:none;stroke:#000000;stroke-width:1.5004;stroke-linecap:round;stroke-linejoin:round;stroke-miterlimit:4.001;}
    
      
.bear {position:relative;animation:bear both linear infinite 7s; }
@keyframes bear {
0% {transform:translate(-42%,0) rotate(0deg);}
8% {transform:translate(-35%,0) rotate(0deg);}
16% {transform:translate(-37%,0) rotate(0deg);}
24% {transform:translate(-25%,0) rotate(0deg);}
32% {transform:translate(-25%,0) rotate(0deg);}
50% {transform:translate(-0%,0) rotate(0deg);}
100% {transform:translate(0,0) rotate(0deg);}
}
    
     
.arm01 {position:relative;animation:arm both linear infinite 1.9s;   transform-origin:86% 53%;}   
@keyframes arm{
0% {transform:rotate(-1deg);}
50% {transform:rotate(6deg);}
100% {transform:rotate(-1deg);}
}
    
.arm02 {position:relative;animation:arm2 both linear infinite 1.9s 0.2s;   transform-origin:76% 54%;}
@keyframes arm2{
0% {transform:rotate(4deg);}
50% {transform:rotate(-5deg);}
100% {transform:rotate(4deg);}
}
   
    
.body {position:relative;animation:body both linear infinite 1.9s 0.2s;   transform-origin:86% 50%;}
@keyframes body{
0% {transform:rotate(1deg);}
50% {transform:rotate(-3deg);}
100% {transform:rotate(1deg);}
}
    
    
.head {position:relative;animation:head both linear infinite 1.9s 0.2s;   transform-origin:76% 27%;}
@keyframes head {
0% {transform:rotate(-2deg);}
50% {transform:rotate(10deg);}
100% {transform:rotate(-2deg);}
}
   
    
.a1 {position:relative;animation:fade both linear infinite 1.9s;}
.a2 {position:relative;animation:fade both linear infinite 1.9s 0.4s;}
@keyframes fade {
0% {opacity:0;}
30% {opacity:1;}
60% {opacity:1;}
90% {opacity:0;}
100% {opacity:0;}
}
    
   
.line {animation:brush both infinite linear 7s;stroke-dasharray:140;stroke-dashoffset:140;}	

@keyframes brush {
0% {stroke-dashoffset:140;}
8% {stroke-dashoffset:128;}
16% {stroke-dashoffset:120;}
22% {stroke-dashoffset:115;}
34% {stroke-dashoffset:110;}
50% {stroke-dashoffset:55;}
100% {stroke-dashoffset:55;}
} 
    
    
.st7 {position:relative;animation:st7 both linear infinite 1.9s 0.2s;   transform-origin:80% 50%;}
@keyframes st7{
0% {transform:rotate(0deg);}
50% {transform:rotate(10deg);}
100% {transform:rotate(0deg);}
}
</style>
<g id="line">
	<g id="그룹_115038">
		<g id="사각형_21610" transform="translate(1.873 5.807) rotate(22)">
			<path d="M12.3,28L12.3,28c0.6,0,1,0.4,1,1l0,3c0,0.6-0.4,1-1,1l0,0c-0.6,0-1-0.4-1-1l0-3C11.3,28.4,11.8,28,12.3,28z"/>
			<path class="st0" d="M12.3,28.5L12.3,28.5c0.3,0,0.5,0.2,0.5,0.5l0,3c0,0.3-0.2,0.5-0.5,0.5l0,0c-0.3,0-0.5-0.2-0.5-0.5l0-3
				C11.8,28.7,12,28.5,12.3,28.5z"/>
		</g>
		<g id="사각형_21611" transform="translate(2.309 7.212) rotate(-10)">
			<path d="M-4.2,29.7L-4.2,29.7c0.6,0,1,0.4,1,1l0,3c0,0.6-0.4,1-1,1l0,0c-0.6,0-1-0.4-1-1l0-3C-5.2,30.2-4.8,29.7-4.2,29.7z"/>
			<path class="st0" d="M-4.2,30.2L-4.2,30.2c0.3,0,0.5,0.2,0.5,0.5l0,3c0,0.3-0.2,0.5-0.5,0.5l0,0c-0.3,0-0.5-0.2-0.5-0.5l0-3
				C-4.7,30.5-4.5,30.2-4.2,30.2z"/>
		</g>
		<path id="사각형_21467" d="M1.5,36.2v-0.9c0-0.9,0.7-1.5,1.5-1.5l0,0c0.9,0,1.5,0.7,1.5,1.5v0.9c0,0.9-0.7,1.5-1.5,1.5l0,0
			C2.2,37.7,1.5,37,1.5,36.2z"/>
		<path id="패스_39632" class="st1 line" d="M3,36c0,0,4.4-2.3,7.1,0s5.8,5.9,18.3,0.6s12.5-5.4,25.1,0.4s13.8,2.4,17.2,1.5"/>
	</g>
</g>
    
<g class="bear">
    <g id="line2">
	   <path class="st2" d="M70.7,38.5c4.5-1.5,9-2.1,12-1c0,0,8.8,4.1,14.1,4"/>
    </g>
    <g id="arm01" class="arm02">
        <g id="팔2">
            <g>
                <path id="패스_39642" class="st3" d="M94.3,41.9c-6.2,0-10-0.5-15.1-3.7c-2.6-1.6-6.9-5.8-10.1-5.9c-6.5-0.1-3.4,6.2,0,9
                    c3.6,3.1,7.7,5.3,12.2,6.7c3.1,1,6.3,2.2,9.5,2.3"/>
                <path id="패스_39643" class="st4" d="M94.3,41.9c-6.2,0-10-0.5-15.1-3.7c-2.6-1.6-6.9-5.8-10.1-5.9c-6.5-0.1-3.4,6.2,0,9
                    c3.6,3.1,7.7,5.3,12.2,6.7c3.1,1,6.3,2.2,9.5,2.3"/>
            </g>
        </g>
    </g>
    <g id="body_00000015344409383502475200000002540881623747644801_" class="body">
        <g id="body">
            <path id="패스_39633" class="st3" d="M93.1,41.8c-5.1,8.4-3.4,13.8-0.8,22.5c1.3,4.3-3.9,29.5,4.9,15.9
                c2.4-3.5,0.9-14.7,5.4-13.5c-0.6,4.9-1.4,18.8,4.6,16.7c6.5-9.4,4.9-15.6,7.4-25.5c2.7-10.9,3.6-15.2,1.6-26.6
                c-0.9-3.7-2.3-7.3-4.3-10.5"/>
            <path id="패스_39634" class="st4" d="M93.1,41.8c-5.1,8.4-3.4,13.8-0.8,22.5c1.3,4.3-3.9,29.5,4.9,15.9
                c2.4-3.5,0.9-14.7,5.4-13.5c-0.6,4.9-1.4,18.8,4.6,16.7c6.5-9.4,4.9-15.6,7.4-25.5c2.7-10.9,3.6-15.2,1.6-26.6
                c-0.9-3.7-2.3-7.3-4.3-10.5"/>
        </g>
    </g>
    <g id="head_00000111160092797894963380000014176651768547135620_" class="head">
        <g id="head">
            <g>
                <path id="패스_39635" class="st3" d="M81.1,22.1c-1.3,0.9-3,0.5-3.9-0.8c-0.4-0.7-0.6-1.5-0.4-2.2c0.9-2.7,4.3-2.6,5.8-0.9
                    c1.1-1.5,1.7-3.5,3.1-5c1.6-1.4,3.4-2.5,5.4-3.2c3.3-1.3,6.9-1.5,10.3-0.6c-1.5-2.1,1.7-4.6,3.7-4c2.5,0.7,2.1,3.5,0.2,4.8
                    c1.2,1.5,3.1,2.5,4.3,4.3c1.6,2.1,2.6,4.5,2.9,7.1c0.5,4.8-0.5,9.3-4,12.9C103,40.2,93.6,44.7,86.6,39c-5-4.1-6.3-10.8-5.7-16.7"
                    />
                <path id="패스_39636" class="st4" d="M81.1,22.1c-1.3,0.9-3,0.5-3.9-0.8c-0.4-0.7-0.6-1.5-0.4-2.2c0.9-2.7,4.3-2.6,5.8-0.9
                    c1.1-1.5,1.7-3.5,3.1-5c1.6-1.4,3.4-2.5,5.4-3.2c3.3-1.3,6.9-1.5,10.3-0.6c-1.5-2.1,1.7-4.6,3.7-4c2.5,0.7,2.1,3.5,0.2,4.8
                    c1.2,1.5,3.1,2.5,4.3,4.3c1.6,2.1,2.6,4.5,2.9,7.1c0.5,4.8-0.5,9.3-4,12.9C103,40.2,93.6,44.7,86.6,39c-5-4.1-6.3-10.8-5.7-16.7"
                    />
                <path id="패스_39637" d="M91.8,20.2c0.2,0.3,0.1,0.7-0.1,0.9c-0.3,0.2-0.7,0.1-0.9-0.1s-0.1-0.7,0.1-0.9l0,0
                    C91.2,19.8,91.6,19.9,91.8,20.2"/>
                <path id="패스_39638" d="M97.3,16.3c0.2,0.3,0.1,0.7-0.2,0.8l0,0c-0.3,0.2-0.6,0-0.8-0.3c-0.2-0.3,0-0.6,0.3-0.8
                    C96.8,15.9,97.1,16,97.3,16.3"/>
                <path id="패스_39639" class="st5" d="M98.7,32.8c-2.4,1.5-5.6-1.5-6.8-3.3c-1.9-2.9-1-5.5,1.3-8.1c2.2-2.5,4.9-3.9,8-2.2
                    c1.8,1,4.3,3.5,4.7,5.7c0.6,3.5-4,7.7-7.2,8.1"/>
                <path id="패스_39640" d="M95.5,20.8c-1.8,2.1,2.1,5.1,2.3,2.2C97.8,22,96.7,19.8,95.5,20.8"/>
                <path id="패스_39641" d="M95.6,27.6c2.1,0.2,4.1-1,5-2.9c-1.5-0.3-4.1,1.5-4.9,2.7"/>
            </g>
        </g>
    </g>
    <g id="line3">
        <path class="st6" d="M88.1,39.7c0,0,3.4,1.9,8.7,1.8c0,0,4.9,1.4,21.7-5.1"/>
    </g>
    <g id="line4">
        <path class="st7" d="M118.6,36.3c0,0,8.9-4,14.8,1.9c0,0,6.7,5.1,10.6,12.3"/>
    </g>
    <g id="arm02" class="arm01">
        <g id="팔">
            <g>
                <path id="패스_39644_00000093142204721033586800000015946493728101826747_" class="st3" d="M114.5,42.2c-6.2,0-10-0.5-15.1-3.7
                    c-2.6-1.6-6.9-5.8-10.1-5.9c-6.5-0.1-3.4,6.2,0,9c3.6,3.1,7.7,5.3,12.2,6.7c3.1,1,6.3,2.2,9.5,2.3"/>
                <path id="패스_39645_00000114776873160134398600000009792818864362500774_" class="st4" d="M113.9,42c-6.2,0-10-0.5-15.1-3.7
                    c-2.6-1.6-6.9-5.8-10.1-5.9c-6.5-0.1-3.4,6.2,0,9c3.6,3.1,7.7,5.3,12.2,6.7c3.1,1,6.3,2.2,9.6,2.3"/>
            </g>
        </g>
    </g>
    <g id="aa">
        <g id="bk">
            <path id="패스_39617" class="st8 a1" d="M112.8,12.4c2.3,2.8,3.9,6,4.7,9.6"/>
            <path id="패스_39618" class="st8 a2" d="M114.1,7.9c0,0,5.9,5.5,8.2,18.2"/>
        </g>
    </g>
</g>
</svg>
