<?xml version="1.0" encoding="utf-8"?>
<!-- Generator: Adobe Illustrator 26.2.1, SVG Export Plug-In . SVG Version: 6.00 Build 0)  -->
<svg version="1.1" xmlns="http://www.w3.org/2000/svg" xmlns:xlink="http://www.w3.org/1999/xlink" x="0px" y="0px" viewBox="0 0 150 85.4" style="enable-background:new 0 0 150 85.4;" xml:space="preserve">
<style type="text/css">
.st0{fill:none;stroke:#000000;}
.st1{fill:none;stroke:#000000;stroke-width:2;}
.st2{fill:#D4AB7E;}
.st3{fill:none;stroke:#040405;stroke-width:1.5;stroke-linecap:round;stroke-linejoin:round;}
.st4{fill:none;stroke:#000000;stroke-width:2;stroke-linecap:round;stroke-linejoin:round;stroke-miterlimit:4.001;}
.st5{fill:none;stroke:#000000;stroke-width:1.5;stroke-linecap:round;stroke-linejoin:round;}
.st6{fill:#040405;}
.st7{fill:#EDDACE;}
.st8{fill:none;stroke:#040506;stroke-linecap:round;stroke-linejoin:round;}
.st9{fill:none;stroke:#000;stroke-width:1.5;stroke-miterlimit:10;}
.st10{fill:none;stroke:#000;stroke-width:2;stroke-linecap:round;stroke-linejoin:round;stroke-miterlimit:4.001;}
.st11{fill:none;stroke:#000;stroke-width:2;stroke-linecap:round;stroke-linejoin:round;stroke-miterlimit:4.001;}
.st12{fill:none;stroke:#000000;stroke-width:1.5004;stroke-linecap:round;stroke-linejoin:round;stroke-miterlimit:4.001;}
    
.bear {position:relative;animation:bear both linear infinite 5s; }
@keyframes bear {
0% {transform:translate(-42%,0) rotate(0deg);}
8% {transform:translate(-35%,0) rotate(0deg);}
16% {transform:translate(-37%,0) rotate(0deg);}
24% {transform:translate(-25%,0) rotate(0deg);}
32% {transform:translate(-25%,0) rotate(0deg);}
50% {transform:translate(-0%,0) rotate(0deg);}
100% {transform:translate(0,0) rotate(0deg);}
}
    
.hand {position:relative;animation:hand both linear infinite 1.5s 0.2s;   transform-origin:76% 54%;}
@keyframes hand {
0% {transform:rotate(0deg);}
50% {transform:rotate(-4deg);}
100% {transform:rotate(0deg);}
}
   
.arm01 {position:relative;animation:arm both linear infinite 1.5s;   transform-origin:86% 53%;}   
@keyframes arm{
0% {transform:rotate(-1deg);}
50% {transform:rotate(1deg);}
100% {transform:rotate(-1deg);}
}
    
.arm02 {position:relative;animation:arm2 both linear infinite 1.5s 0.2s;   transform-origin:76% 54%;}
@keyframes arm2{
0% {transform:rotate(0deg);}
50% {transform:rotate(-4deg);}
100% {transform:rotate(0deg);}
}
   
.body {position:relative;animation:body both linear infinite 1.5s 0.2s;   transform-origin:86% 50%;}
@keyframes body{
0% {transform:rotate(1deg);}
50% {transform:rotate(-3deg);}
100% {transform:rotate(1deg);}
}
    
.head {position:relative;animation:head both linear infinite 1.5s 0.2s;   transform-origin:76% 27%;}
@keyframes head {
0% {transform:rotate(-2deg);}
50% {transform:rotate(10deg);}
100% {transform:rotate(-2deg);}
}
    
.a1 {position:relative;animation:fade both linear infinite 1.5s;}
.a2 {position:relative;animation:fade both linear infinite 1.5s 0.4s;}
@keyframes fade {
0% {opacity:0;}
30% {opacity:1;}
60% {opacity:1;}
90% {opacity:0;}
100% {opacity:0;}
}
    
.line {animation:brush both infinite linear 5s;stroke-dasharray:140;stroke-dashoffset:140;}	
@keyframes brush {
0% {stroke-dashoffset:140;}
9% {stroke-dashoffset:120;}
15% {stroke-dashoffset:120;}  
23% {stroke-dashoffset:111;}
32% {stroke-dashoffset:111;}  
39% {stroke-dashoffset:85;}
59% {stroke-dashoffset:65;}
60% {stroke-dashoffset:55;}
100% {stroke-dashoffset:55;}
} 
    
.st11 {position:relative;animation:st11 both linear infinite 1.5s;   transform-origin:80% 47%;}
@keyframes st11{
0% {transform:rotate(0deg);}
50% {transform:rotate(15deg);}
100% {transform:rotate(0deg);}
}
</style>
<g id="line">
	<g id="그룹_115038">
		<g id="사각형_21610" transform="translate(1.873 5.807) rotate(22)">
			<path d="M13.4,30.8L13.4,30.8c0.6,0,1,0.4,1,1l0,3c0,0.6-0.4,1-1,1l0,0c-0.6,0-1-0.4-1-1l0-3C12.4,31.2,12.9,30.8,13.4,30.8z"/>
			<path class="st0" d="M13.4,31.3L13.4,31.3c0.3,0,0.5,0.2,0.5,0.5l0,3c0,0.3-0.2,0.5-0.5,0.5l0,0c-0.3,0-0.5-0.2-0.5-0.5l0-3
				C12.9,31.5,13.1,31.3,13.4,31.3z"/>
		</g>
		<g id="사각형_21611" transform="translate(2.309 7.212) rotate(-10)">
			<path d="M-4.7,32.7L-4.7,32.7c0.6,0,1,0.4,1,1l0,3c0,0.6-0.4,1-1,1l0,0c-0.6,0-1-0.4-1-1l0-3C-5.7,33.2-5.3,32.7-4.7,32.7z"/>
			<path class="st0" d="M-4.7,33.2L-4.7,33.2c0.3,0,0.5,0.2,0.5,0.5l0,3c0,0.3-0.2,0.5-0.5,0.5l0,0c-0.3,0-0.5-0.2-0.5-0.5l0-3
				C-5.2,33.5-5,33.2-4.7,33.2z"/>
		</g>
		<path id="사각형_21467" d="M1.5,39.2v-0.9c0-0.9,0.7-1.5,1.5-1.5l0,0c0.9,0,1.5,0.7,1.5,1.5v0.9c0,0.9-0.7,1.5-1.5,1.5l0,0
			C2.2,40.7,1.5,40,1.5,39.2z"/>
		<path id="패스_39632" class="st1 line" d="M3,39c0,0,4.4-2.3,7.1,0s5.8,5.9,18.3,0.6s12.5-5.4,25.1,0.4c8,2.7,17.1-2.6,17-2.5"/>
	</g>
</g>
    
<g class="bear">
<g id="arm01_00000008835554379431848220000009571900433810571957_" class="arm02">
	<g>
		<path id="패스_39666" class="st2" d="M94,42.6c-5.9,0-9.4-0.5-14.2-3.3c-2.5-1.4-6.5-5.2-9.5-5.3c-6.1-0.1-3.2,5.5,0,8.1
			c3.4,2.7,7.3,4.8,11.5,6c3,0.9,5.9,2,9,2.1"/>
		<path id="패스_39667" class="st3" d="M94,42.6c-5.9,0-9.4-0.5-14.2-3.3c-2.5-1.4-6.5-5.2-9.5-5.3c-6.1-0.1-3.2,5.5,0,8.1
			c3.4,2.7,7.3,4.8,11.5,6c3,0.9,5.9,2,9,2.1"/>
	</g>
</g>
<g id="line2">
	<path class="st4" d="M70.9,36.5c3.7-2.9,8.7-2.1,11.8-1c0,0,8.8,4.1,14.1,4"/>
</g>
<g id="body_00000015344409383502475200000002540881623747644801_" class="body">
	<g id="body">
		<path id="패스_39633" class="st2" d="M93.1,41.8c-5.1,8.4-3.4,13.8-0.8,22.5c1.3,4.3-3.9,29.5,4.9,15.9
			c2.4-3.5,0.9-14.7,5.4-13.5c-0.6,4.9-1.4,18.8,4.6,16.7c6.5-9.4,4.9-15.6,7.4-25.5c2.7-10.9,3.6-15.2,1.6-26.6
			c-0.9-3.7-2.3-7.3-4.3-10.5"/>
		<path id="패스_39634" class="st5" d="M93.1,41.8c-5.1,8.4-3.4,13.8-0.8,22.5c1.3,4.3-3.9,29.5,4.9,15.9
			c2.4-3.5,0.9-14.7,5.4-13.5c-0.6,4.9-1.4,18.8,4.6,16.7c6.5-9.4,4.9-15.6,7.4-25.5c2.7-10.9,3.6-15.2,1.6-26.6
			c-0.9-3.7-2.3-7.3-4.3-10.5"/>
	</g>
</g>
<g id="head" class="head">
	<g>
		<path id="패스_39660_00000173857621932986248890000004018264440501836441_" class="st2" d="M81,22.1c-1.3,0.9-3,0.5-3.9-0.8
			c-0.4-0.7-0.6-1.5-0.4-2.2c0.9-2.7,4.3-2.6,5.8-0.9c1.1-1.5,1.7-3.5,3.1-5c1.6-1.4,3.4-2.5,5.4-3.2c3.3-1.3,6.9-1.5,10.3-0.6
			c-1.5-2.1,1.7-4.6,3.7-4c2.5,0.7,2.1,3.5,0.2,4.8c1.2,1.5,3.1,2.5,4.3,4.3c1.6,2.1,2.6,4.5,2.9,7.1c0.5,4.8-0.5,9.3-4,12.9
			C103,40.2,93.6,44.6,86.7,39c-5-4.1-6.3-10.8-5.7-16.7"/>
		<path id="패스_39661_00000102513544316289577140000000108832072597312675_" class="st3" d="M81,22.1c-1.3,0.9-3,0.5-3.9-0.8
			c-0.4-0.7-0.6-1.5-0.4-2.2c0.9-2.7,4.3-2.6,5.8-0.9c1.1-1.5,1.7-3.5,3.1-5c1.6-1.4,3.4-2.5,5.4-3.2c3.3-1.3,6.9-1.5,10.3-0.6
			c-1.5-2.1,1.7-4.6,3.7-4c2.5,0.7,2.1,3.5,0.2,4.8c1.2,1.5,3.1,2.5,4.3,4.3c1.6,2.1,2.6,4.5,2.9,7.1c0.5,4.8-0.5,9.3-4,12.9
			C103,40.2,93.6,44.6,86.7,39c-5-4.1-6.3-10.8-5.7-16.7"/>
		<path id="패스_39662_00000060028509039174105140000004008598227821985453_" class="st6" d="M91.9,20c0.3,0.4,0.2,1-0.2,1.3
			c-0.4,0.3-1,0.2-1.3-0.2s-0.2-1,0.2-1.3c0,0,0,0,0,0c0,0,0,0,0.1,0C91.1,19.5,91.7,19.6,91.9,20"/>
		<path id="패스_39663_00000045603216548454140970000014488123008319438724_" class="st6" d="M97.4,16.2c0.3,0.4,0.1,1-0.3,1.3h0
			c-0.4,0.2-1,0.1-1.2-0.4s-0.1-1,0.4-1.2C96.7,15.6,97.2,15.7,97.4,16.2"/>
		<path id="패스_39664_00000170236333101724736040000005196638437042984125_" class="st7" d="M98.6,32.9c-2.4,1.5-5.6-1.5-6.8-3.3
			c-1.9-2.9-1-5.5,1.3-8.1c2.2-2.5,4.9-3.9,8-2.2c1.8,1,4.3,3.5,4.7,5.7c0.6,3.5-4,7.7-7.2,8.1"/>
		<path id="패스_39665_00000046318011225085703090000017119256395407235211_" class="st6" d="M95.4,20.8c-1.8,2.1,2.1,5.1,2.3,2.2
			C97.7,22.1,96.7,19.8,95.4,20.8"/>
		<path id="패스_39676_00000056391420865549387560000004415699776035327413_" class="st8" d="M96.3,26.6c0,0,1.9,1.1,2.8-1.6"/>
	</g>
</g>
<g id="hand" class="hand">
	<g>
		<path id="패스_39674" class="st2" d="M73.6,35.6c0.4,1.6-1,3.2-3,3.7s-4-0.4-4.4-1.9s1-3.2,3-3.7S73.3,34.1,73.6,35.6"/>
		<path id="패스_39675" class="st9" d="M73.6,35.6c0.4,1.6-1,3.2-3,3.7s-4-0.4-4.4-1.9s1-3.2,3-3.7S73.3,34.1,73.6,35.6z"/>
	</g>
</g>
<g id="line3">
	<path class="st10" d="M88.1,39.7c0,0,3.4,1.9,8.7,1.8c0,0,4.9,1.4,21.7-5.1"/>
</g>
<g id="line4">
	<path class="st11" d="M118.6,36.3c0,0,9-2.2,14.8,1.9c0,0,8.2,5.4,9.8,12.2"/>
</g>
<g id="arm02" class="arm01">
	<g id="팔">
		<g>
			<path id="패스_39644_00000093142204721033586800000015946493728101826747_" class="st2" d="M114.5,42.2c-6.2,0-10-0.5-15.1-3.7
				c-2.6-1.6-6.9-5.8-10.1-5.9c-6.5-0.1-3.4,6.2,0,9c3.6,3.1,7.7,5.3,12.2,6.7c3.1,1,6.3,2.2,9.5,2.3"/>
			<path id="패스_39645_00000114776873160134398600000009792818864362500774_" class="st5" d="M113.9,42c-6.2,0-10-0.5-15.1-3.7
				c-2.6-1.6-6.9-5.8-10.1-5.9c-6.5-0.1-3.4,6.2,0,9c3.6,3.1,7.7,5.3,12.2,6.7c3.1,1,6.3,2.2,9.6,2.3"/>
		</g>
	</g>
</g>
<g id="aa">
	<g id="bk">
		<path id="패스_39617" class="st12 a1" d="M112.8,12.4c2.3,2.8,3.9,6,4.7,9.6"/>
		<path id="패스_39618" class="st12 a2" d="M114.1,7.9c0,0,5.9,5.5,8.2,18.2"/>
	</g>
</g>
</g>
</svg>
