<svg xmlns="http://www.w3.org/2000/svg" xmlns:xlink="http://www.w3.org/1999/xlink" width="70" height="70" viewBox="0 0 70 70">
  <defs>
    <linearGradient id="linear-gradient" x2="1" y2="1" gradientUnits="objectBoundingBox">
      <stop offset="0" stop-color="#86e3ce"/>
      <stop offset="1" stop-color="#d0e6a5"/>
    </linearGradient>
    <filter id="Rectangle_21758" x="20.133" y="18.426" width="26" height="27" filterUnits="userSpaceOnUse">
      <feOffset dx="2" dy="4" input="SourceAlpha"/>
      <feGaussianBlur stdDeviation="2" result="blur"/>
      <feFlood flood-opacity="0.161"/>
      <feComposite operator="in" in2="blur"/>
      <feComposite in="SourceGraphic"/>
    </filter>
    <filter id="Union_187" x="12.631" y="17.925" width="48.738" height="42.15" filterUnits="userSpaceOnUse">
      <feOffset dx="2" dy="4" input="SourceAlpha"/>
      <feGaussianBlur stdDeviation="2" result="blur-2"/>
      <feFlood flood-opacity="0.161"/>
      <feComposite operator="in" in2="blur-2"/>
      <feComposite in="SourceGraphic"/>
    </filter>
    <clipPath id="clip-path">
      <rect id="Rectangle_21758-2" data-name="Rectangle 21758" width="15" height="16" transform="translate(7.736 0.074)" fill="#fff" stroke="#707070" stroke-width="1"/>
    </clipPath>
    <linearGradient id="linear-gradient-4" x2="1" y2="1" gradientUnits="objectBoundingBox">
      <stop offset="0" stop-color="#fff"/>
      <stop offset="1" stop-color="#d9ffef"/>
    </linearGradient>
    <filter id="Rectangle_19794" x="23.537" y="16.852" width="14.867" height="19.3" filterUnits="userSpaceOnUse">
      <feOffset input="SourceAlpha"/>
      <feGaussianBlur stdDeviation="1" result="blur-3"/>
      <feFlood flood-color="#349263" flood-opacity="0.302"/>
      <feComposite operator="in" in2="blur-3"/>
      <feComposite in="SourceGraphic"/>
    </filter>
    <linearGradient id="linear-gradient-5" x2="1" y2="1" gradientUnits="objectBoundingBox">
      <stop offset="0" stop-color="#2cb5b9"/>
      <stop offset="1" stop-color="#128d8d"/>
    </linearGradient>
    <filter id="Path_36267" x="27.388" y="23.926" width="28.982" height="28.982" filterUnits="userSpaceOnUse">
      <feOffset input="SourceAlpha"/>
      <feGaussianBlur stdDeviation="1" result="blur-4"/>
      <feFlood flood-color="#00b1ff" flood-opacity="0.129"/>
      <feComposite operator="in" in2="blur-4"/>
      <feComposite in="SourceGraphic"/>
    </filter>
  </defs>
  <g id="_10" data-name="10" transform="translate(-1228 -665)">
    <g id="icon">

      <g id="Group_115777" data-name="Group 115777" transform="translate(10730 14367)">
        <rect id="Rectangle_21757" data-name="Rectangle 21757" width="44" height="44" transform="translate(-9489 -13689)" fill="none"/>
        <g id="Group_115775" data-name="Group 115775" transform="translate(0.001)">
          <g id="icon_box" transform="translate(-10041.225 -13298.539)">
            <g id="Group_109448" data-name="Group 109448" transform="translate(555.119 -383.609)">
              <g transform="matrix(1, 0, 0, 1, -15.9, -19.85)" filter="url(#Union_187)">
                <path id="Union_187-2" data-name="Union 187" d="M9437.106,13731.3a2,2,0,0,1-2-2v-26.146a2,2,0,0,1,2-2h26.146a2,2,0,0,1,2,2v8.089a8.994,8.994,0,0,1,2.178,4.9,9.517,9.517,0,0,1-1.168,5.789l-.372.655.534.53,4.879,4.883a1.84,1.84,0,0,1-2.6,2.6l-3.449-3.45v2.15a2,2,0,0,1-2,2Z" transform="translate(-9418.47 -13681.22)" fill="url(#linear-gradient)"/>
              </g>
            </g>
          </g>
          <g id="icon_box-2" data-name="icon_box" transform="translate(-10041.225 -13298.539)">
            <g id="Group_109448-2" data-name="Group 109448" transform="translate(555.119 -383.609)">
              <rect id="Rectangle_19793" data-name="Rectangle 19793" width="30.148" height="30.148" rx="2" transform="translate(0.736 0.074)" fill="url(#linear-gradient)"/>
              <g id="Mask_Group_112045" data-name="Mask Group 112045" clip-path="url(#clip-path)">
                <g transform="matrix(1, 0, 0, 1, -15.9, -19.85)" filter="url(#Rectangle_19794)">
                  <path id="Rectangle_19794-2" data-name="Rectangle 19794" d="M0,0H8.867a0,0,0,0,1,0,0V11.3a2,2,0,0,1-2,2H2a2,2,0,0,1-2-2V0A0,0,0,0,1,0,0Z" transform="translate(26.54 19.85)" fill="url(#linear-gradient-4)"/>
                </g>
              </g>
              <g id="Group_109446" data-name="Group 109446" transform="translate(14.491 7.075)">
                <g id="Group_109447" data-name="Group 109447" transform="translate(0 0)">
                  <g transform="matrix(1, 0, 0, 1, -30.39, -26.93)" filter="url(#Path_36267)">
                    <path id="Path_36267-2" data-name="Path 36267" d="M23.444,23.444a1.843,1.843,0,0,1-2.6,0l-4.883-4.882-.531-.532-.653.371a9.505,9.505,0,0,1-5.791,1.169A9,9,0,0,1,3.65,16.982,9.334,9.334,0,0,1,3.8,3.8a9.334,9.334,0,0,1,13.182-.15,9,9,0,0,1,2.588,5.334A9.505,9.505,0,0,1,18.4,14.776l-.371.653.532.531,4.882,4.883a1.843,1.843,0,0,1,0,2.6M6.409,6.409a5.526,5.526,0,1,0,7.813,7.813A5.526,5.526,0,1,0,6.409,6.409" transform="translate(29.39 25.93)" fill="url(#linear-gradient-5)"/>
                  </g>
                </g>
              </g>
            </g>
          </g>
        </g>
      </g>
    </g>
  </g>
</svg>
