<svg xmlns="http://www.w3.org/2000/svg" xmlns:xlink="http://www.w3.org/1999/xlink" width="16.767" height="16.658" viewBox="0 0 16.767 16.658">
  <defs>
    <clipPath id="clip-path">
      <rect id="사각형_20571" data-name="사각형 20571" width="16.767" height="16.658" fill="none" stroke="#ffc508" stroke-width="1"/>
    </clipPath>
  </defs>
  <g id="그룹_112528" data-name="그룹 112528" transform="translate(0 0)">
    <g id="그룹_112527" data-name="그룹 112527" transform="translate(0 0)" clip-path="url(#clip-path)">
      <g id="패스_37297" data-name="패스 37297" transform="translate(-7.453 -6.937)" fill="none" stroke-linecap="round" stroke-linejoin="round" stroke-miterlimit="10">
        <path d="M23.455,22.927,17.648,17.02l-1.732-.73v-.974l1.06-.075.738,1.78,5.775,5.871a24.585,24.585,0,0,1-2.308-9.452,15.1,15.1,0,0,1-7.136-4.029l-3.935,3.9a12.243,12.243,0,0,1,3.961,7.162A20.859,20.859,0,0,1,23.455,22.927Z" stroke="none"/>
        <path d="M 19.42688369750977 20.25569152832031 L 17.07550048828125 17.86320304870605 L 15.52775859832764 17.2105598449707 C 15.15719890594482 17.0543098449707 14.91629886627197 16.69128036499023 14.91629886627197 16.28912925720215 L 14.91629886627197 15.3154296875 C 14.91629886627197 14.79070949554443 15.32186889648438 14.35522937774658 15.84526920318604 14.31795978546143 L 16.90522956848145 14.24247932434082 C 17.33450508117676 14.21190929412842 17.73524856567383 14.45945835113525 17.90004920959473 14.8570499420166 L 18.56318664550781 16.45695495605469 L 20.98997116088867 18.92408180236816 C 20.60402488708496 17.4094123840332 20.39336585998535 15.91589546203613 20.24227714538574 14.22216510772705 C 17.94974136352539 13.55373191833496 15.87756061553955 12.40531063079834 14.06361675262451 10.7981595993042 L 11.509934425354 13.33121299743652 C 13.19799613952637 15.15684509277344 14.25025081634521 16.81351280212402 14.88803577423096 19.52035713195801 C 16.42766571044922 19.62591171264648 17.88420295715332 19.82881927490234 19.42688369750977 20.25569152832031 M 23.4547290802002 22.92731857299805 C 19.89605903625488 21.12184906005859 17.34585952758789 20.63455963134766 14.06984901428223 20.47431945800781 C 13.4462194442749 17.26186943054199 12.3807487487793 15.62504959106445 10.10899925231934 13.3123197555542 L 14.04410934448242 9.408999443054199 C 16.00009918212891 11.35159969329834 18.37849998474121 12.75330924987793 21.18035888671875 13.43840980529785 C 21.45355987548828 16.93350982666016 21.89198875427246 19.43774032592773 23.48861885070801 22.89027976989746 L 17.71386909484863 17.01952934265137 L 16.97625923156738 15.23994922637939 L 15.91629886627197 15.3154296875 L 15.91629886627197 16.28912925720215 L 17.64843940734863 17.01952934265137 L 23.4547290802002 22.92731857299805 Z" stroke="none" fill="#ffc508"/>
      </g>
      <g id="패스_37298" data-name="패스 37298" transform="translate(-0.531 -0.502)" fill="#ffc508" stroke-linecap="round" stroke-linejoin="round" stroke-miterlimit="10">
        <path d="M 2.809586763381958 5.572520732879639 L 1.43876588344574 4.258722305297852 L 4.407168388366699 1.36088228225708 L 5.81040096282959 2.586722373962402 L 2.809586763381958 5.572520732879639 Z" stroke="none"/>
        <path d="M 4.425992965698242 2.041252613067627 L 2.157918930053711 4.255411624908447 L 2.803040981292725 4.873698234558105 L 5.077619552612305 2.610501766204834 L 4.425992965698242 2.041252613067627 M 4.388332366943359 0.6805129051208496 L 6.543182849884033 2.562952995300293 L 2.816132545471191 6.271352767944336 L 0.7196025848388672 4.262032508850098 L 4.388332366943359 0.6805129051208496 Z" stroke="none" fill="#ffc508"/>
      </g>
    </g>
  </g>
</svg>
