<svg xmlns="http://www.w3.org/2000/svg" xmlns:xlink="http://www.w3.org/1999/xlink" width="70" height="70" viewBox="0 0 70 70">
  <defs>
    <filter id="Union_166" x="8.543" y="10.84" width="57.056" height="57.055" filterUnits="userSpaceOnUse">
      <feOffset dx="3" dy="6" input="SourceAlpha"/>
      <feGaussianBlur stdDeviation="4" result="blur"/>
      <feFlood flood-opacity="0.161"/>
      <feComposite operator="in" in2="blur"/>
      <feComposite in="SourceGraphic"/>
    </filter>
    <linearGradient id="linear-gradient" x1="0.54" y1="0.018" x2="0.308" y2="1.033" gradientUnits="objectBoundingBox">
      <stop offset="0" stop-color="#ffcfcf"/>
      <stop offset="1" stop-color="#e88080"/>
    </linearGradient>
    <linearGradient id="linear-gradient-2" x1="0.806" y1="0.038" x2="0.071" y2="1.002" gradientUnits="objectBoundingBox">
      <stop offset="0" stop-color="#ff628c"/>
      <stop offset="1" stop-color="#f42664"/>
    </linearGradient>
    <linearGradient id="linear-gradient-5" x1="0.691" y1="0.047" x2="0.5" y2="0.637" xlink:href="#linear-gradient-2"/>
    <linearGradient id="linear-gradient-6" x1="0.817" y1="0.04" x2="0.239" y2="1" gradientUnits="objectBoundingBox">
      <stop offset="0" stop-color="#ffc508"/>
      <stop offset="1" stop-color="#feaf11"/>
    </linearGradient>
    <linearGradient id="linear-gradient-7" x1="0.5" y1="0.114" x2="0.5" y2="1" gradientUnits="objectBoundingBox">
      <stop offset="0" stop-color="#ffdeac"/>
      <stop offset="1" stop-color="#ffc561"/>
    </linearGradient>
    <linearGradient id="linear-gradient-8" x1="0.5" y1="0.436" x2="0.5" y2="1" gradientUnits="objectBoundingBox">
      <stop offset="0" stop-color="#1e1e1e"/>
      <stop offset="1" stop-color="#5a5858"/>
    </linearGradient>
    <linearGradient id="linear-gradient-9" x1="0.931" y1="0.051" x2="0.053" y2="0.956" gradientUnits="objectBoundingBox">
      <stop offset="0" stop-color="#ffb300"/>
      <stop offset="1" stop-color="#fea711"/>
    </linearGradient>
  </defs>
  <g id="icon" transform="translate(-1120 -665)">
    <rect id="area" width="70" height="70" rx="16" transform="translate(1120 665)" fill="#5055b1" opacity="0"/>
    <g id="icon-2" data-name="icon" transform="translate(18862.463 19761.461)">
      <rect id="Rectangle_20391" data-name="Rectangle 20391" width="44" height="44" transform="translate(-17729.463 -19083.461)" fill="none"/>
      <g id="Group_111991" data-name="Group 111991" transform="translate(-17724.557 -19079.121)">
        <g transform="matrix(1, 0, 0, 1, -17.91, -17.34)" filter="url(#Union_166)">
          <path id="Union_166-2" data-name="Union 166" d="M0,29.883l.024-1.829a19.017,19.017,0,0,1,2.135,1.841A18.935,18.935,0,0,1,4,32.031l-1.829.024H2.142A2.138,2.138,0,0,1,0,29.883Zm2.161.012A19.156,19.156,0,0,0,.025,28.053l.023-1.738a1.11,1.11,0,0,1,.328-.777l1.56-1.56.012.009.212-.212,6.666-6.666-7.1-7.6A1.8,1.8,0,0,1,1.791,7L5.74,3.054a1.807,1.807,0,0,1,2.509-.066l7.6,7.1,5.17-5.17-.011-.011L25.278.636a2.171,2.171,0,0,1,3.071,0l3.071,3.069a2.171,2.171,0,0,1,0,3.071l-4.271,4.272-.01-.01L22.176,16l2.775,2.593.042-.042a1.9,1.9,0,0,1,.3.359l.945.883,0,0-.46.46.836,2.684-4.982,4.933-2.641-.829-.457.457-.006,0-.882-.945a1.852,1.852,0,0,1-.359-.3l.042-.042-2.593-2.775L8.278,29.9l-.211.212.009.012L6.517,31.679a1.117,1.117,0,0,1-.778.329L4,32.03A19.228,19.228,0,0,0,2.161,29.895Zm24.912.486L25.22,28.529l2.045-2.045,2.2,2.2a.474.474,0,0,1-.011.669.487.487,0,0,1-.1.077l-1.714,1.013a.483.483,0,0,1-.246.068A.455.455,0,0,1,27.073,30.381Zm-4.354-1.4-.657-.658,5-5,.658.658a.908.908,0,0,1,.033,1.283L24,29.018a.86.86,0,0,1-.612.249A.953.953,0,0,1,22.719,28.985Z" transform="translate(18.04 17.34)" fill="#fff" stroke="rgba(0,0,0,0)" stroke-miterlimit="10" stroke-width="1"/>
        </g>
        <g id="Group_110149" data-name="Group 110149" transform="translate(0 8.835) rotate(-45)">
          <g id="Group_110150" data-name="Group 110150" transform="translate(0 0)">
            <path id="Path_37399" data-name="Path 37399" d="M.884,2.073H6.191a.97.97,0,0,0,.884-1.037V0H0V1.037A.97.97,0,0,0,.884,2.073" transform="translate(1.912 31.39)" fill="url(#linear-gradient)"/>
            <path id="Path_37400" data-name="Path 37400" d="M.358,3.419l1.928.552a.49.49,0,0,0,.606-.5V0H0V2.919a.513.513,0,0,0,.358.5" transform="translate(4.004 33.463)" fill="url(#linear-gradient-2)"/>
            <path id="Path_37401" data-name="Path 37401" d="M0,27.329.838,1.792A1.837,1.837,0,0,1,2.658,0H8.241a1.839,1.839,0,0,1,1.822,1.792L10.9,27.329v.006H0l0-.006" transform="translate(0)" fill="url(#linear-gradient-2)"/>
            <path id="Path_37402" data-name="Path 37402" d="M8.966,4.728,1.91,4.7.191.989A2.312,2.312,0,0,1,0,0H10.9a2.312,2.312,0,0,1-.19.989Z" transform="translate(0.001 26.726)" fill="url(#linear-gradient)"/>
          </g>
        </g>
        <g id="Group_110132" data-name="Group 110132" transform="translate(0.136 0)">
          <path id="Path_37331" data-name="Path 37331" d="M28.755,6.777a2.171,2.171,0,0,0,0-3.071L25.684.636a2.171,2.171,0,0,0-3.071,0L18.342,4.906l6.142,6.142Z" transform="translate(2.664 0)" fill="url(#linear-gradient-5)"/>
          <path id="Path_37333" data-name="Path 37333" d="M23.079-3.851,2.493,16.735l-.224.224A28.938,28.938,0,0,1,5.553,19.8,28.792,28.792,0,0,1,8.389,23.08l.223-.224L29.2,2.269Z" transform="translate(-0.334 7.041)" fill="url(#linear-gradient-6)"/>
          <path id="Path_37334" data-name="Path 37334" d="M4,30.672l1.737-.023a1.115,1.115,0,0,0,.777-.328l1.559-1.559a28.863,28.863,0,0,0-2.845-3.295,28.868,28.868,0,0,0-3.3-2.846L.379,24.18a1.115,1.115,0,0,0-.328.777L.028,26.7a19.136,19.136,0,0,1,2.136,1.841A19.134,19.134,0,0,1,4,30.672" transform="translate(-0.004 1.358)" fill="url(#linear-gradient-7)"/>
          <path id="Path_37335" data-name="Path 37335" d="M2.171,31.4,4,31.377a19.047,19.047,0,0,0-1.841-2.136A19.06,19.06,0,0,0,.024,27.4L0,29.229A2.138,2.138,0,0,0,2.171,31.4" transform="translate(0 0.654)" fill="url(#linear-gradient-8)"/>
          <path id="패스_37407" data-name="패스 37407" d="M-.172,17.224a.826.826,0,0,1-.586-.243.828.828,0,0,1,0-1.171L15.81-.757a.828.828,0,0,1,1.171,0,.828.828,0,0,1,0,1.171L.414,16.981A.826.826,0,0,1-.172,17.224Z" transform="translate(7.471 8.498)" fill="url(#linear-gradient-9)"/>
        </g>
      </g>
    </g>
  </g>
</svg>
