<svg xmlns="http://www.w3.org/2000/svg" xmlns:xlink="http://www.w3.org/1999/xlink" width="70" height="70" viewBox="0 0 70 70">
  <defs>
    <linearGradient id="linear-gradient" y1="0.044" x2="1" y2="1" gradientUnits="objectBoundingBox">
      <stop offset="0" stop-color="#ffafc4"/>
      <stop offset="1" stop-color="#f6467d"/>
    </linearGradient>
    <filter id="Rectangle_20438" x="15.999" y="18" width="42" height="42" filterUnits="userSpaceOnUse">
      <feOffset dx="2" dy="4" input="SourceAlpha"/>
      <feGaussianBlur stdDeviation="2" result="blur"/>
      <feFlood flood-opacity="0.161"/>
      <feComposite operator="in" in2="blur"/>
      <feComposite in="SourceGraphic"/>
    </filter>
    <linearGradient id="linear-gradient-2" x1="0.21" y1="0.081" x2="0.832" y2="0.897" gradientUnits="objectBoundingBox">
      <stop offset="0" stop-color="#fff"/>
      <stop offset="1" stop-color="#ffc3e3"/>
    </linearGradient>
    <filter id="Ellipse_690" x="22.096" y="22.097" width="25.807" height="25.807" filterUnits="userSpaceOnUse">
      <feOffset input="SourceAlpha"/>
      <feGaussianBlur stdDeviation="1" result="blur-2"/>
      <feFlood flood-color="#f94478" flood-opacity="0.302"/>
      <feComposite operator="in" in2="blur-2"/>
      <feComposite in="SourceGraphic"/>
    </filter>
    <linearGradient id="linear-gradient-3" x1="0.21" y1="0.081" x2="0.832" y2="0.897" gradientUnits="objectBoundingBox">
      <stop offset="0" stop-color="#f89eb7"/>
      <stop offset="1" stop-color="#f85084"/>
    </linearGradient>
  </defs>
  <g id="icon" transform="translate(-592 -665)">
    <rect id="area" width="70" height="70" rx="16" transform="translate(592 665)" fill="#5055b1" opacity="0"/>
    <g id="Group_112020" data-name="Group 112020" transform="translate(11042.999 7892)">
      <rect id="Rectangle_21435" data-name="Rectangle 21435" width="44" height="44" transform="translate(-10437.999 -7214)" fill="#fff" opacity="0"/>
      <g transform="matrix(1, 0, 0, 1, -10451, -7227)" filter="url(#Rectangle_20438)">
        <rect id="Rectangle_20438-2" data-name="Rectangle 20438" width="30" height="30" rx="2" transform="translate(20 20)" fill="url(#linear-gradient)"/>
      </g>
      <g id="Group_112018" data-name="Group 112018" transform="translate(-10425.903 -7201.903)">
        <g transform="matrix(1, 0, 0, 1, -25.1, -25.1)" filter="url(#Ellipse_690)">
          <circle id="Ellipse_690-2" data-name="Ellipse 690" cx="9.904" cy="9.904" r="9.904" transform="translate(25.1 25.1)" fill="url(#linear-gradient-2)"/>
        </g>
        <circle id="Ellipse_691" data-name="Ellipse 691" cx="4.046" cy="4.046" r="4.046" transform="translate(5.859 5.858)" fill="url(#linear-gradient-3)"/>
      </g>
      <path id="Path_37338" data-name="Path 37338" d="M78.176,85.343v1.034a.581.581,0,1,0,1.162,0V85.343a.581.581,0,1,0-1.162,0M76.82,86.377V85.343a.581.581,0,1,0-1.163,0v1.034a.581.581,0,1,0,1.163,0m-2.519,0V85.343a.581.581,0,1,0-1.163,0v1.034a.581.581,0,1,0,1.163,0" transform="translate(-10482.952 -7265.582)" fill="#fff"/>
    </g>
  </g>
</svg>
