<svg xmlns="http://www.w3.org/2000/svg" xmlns:xlink="http://www.w3.org/1999/xlink" width="70" height="70.846" viewBox="0 0 70 70.846">
  <defs>
    <filter id="패스_37378" x="8.154" y="11.154" width="59.692" height="59.692" filterUnits="userSpaceOnUse">
      <feOffset dx="3" dy="6" input="SourceAlpha"/>
      <feGaussianBlur stdDeviation="4" result="blur"/>
      <feFlood flood-opacity="0.161"/>
      <feComposite operator="in" in2="blur"/>
      <feComposite in="SourceGraphic"/>
    </filter>
    <clipPath id="clip-path">
      <path id="패스_40470" data-name="패스 40470" d="M17.84,0a17.85,17.85,0,0,0,0,35.7c.27,0,.55-.01.82-.02l7.21-7.21,2.63-2.63,7.17-7.17c.01-.27.02-.55.02-.82A17.854,17.854,0,0,0,17.84,0Z" fill="none"/>
    </clipPath>
    <linearGradient id="linear-gradient" x1="0.282" y1="0.029" x2="0.166" y2="0.769" gradientUnits="objectBoundingBox">
      <stop offset="0" stop-color="#81c5ff"/>
      <stop offset="1" stop-color="#3aa5ff"/>
    </linearGradient>
    <clipPath id="clip-path-2">
      <path id="패스_40472" data-name="패스 40472" d="M20.62,21.86a1.146,1.146,0,0,1-.6-.66,1.8,1.8,0,0,1,.32-1.79,1.928,1.928,0,0,1,.3-.27,1.289,1.289,0,0,1,.33-.17.993.993,0,0,1,.68.01,1.116,1.116,0,0,1,.63.63,1.032,1.032,0,0,1,.11.39,1.906,1.906,0,0,1-.02.63,1.713,1.713,0,0,1-.26.63.71.71,0,0,1-.1.14,1.833,1.833,0,0,1-.32.3,1.163,1.163,0,0,1-.35.18.916.916,0,0,1-.331.061.976.976,0,0,1-.389-.081m-7.6-2.06a1.146,1.146,0,0,1-.6-.66,1.819,1.819,0,0,1,.32-1.79,1.928,1.928,0,0,1,.3-.27,1.544,1.544,0,0,1,.34-.17,1.056,1.056,0,0,1,.68.01,1.16,1.16,0,0,1,.62.63,1.356,1.356,0,0,1,.12.39,2.224,2.224,0,0,1-.03.63,1.713,1.713,0,0,1-.26.63.71.71,0,0,1-.1.14,1.833,1.833,0,0,1-.32.3,1.163,1.163,0,0,1-.35.18.887.887,0,0,1-.33.062.985.985,0,0,1-.39-.082M11.51,5.13a1.194,1.194,0,0,0-.55.15,2.28,2.28,0,0,0-.55.47,7.46,7.46,0,0,0-1,1.55,29.052,29.052,0,0,0-1.98,5.64,24.792,24.792,0,0,1-1.3,3.42l-4.34,9.3A17.862,17.862,0,0,0,17.84,35.7c.27,0,.55-.01.82-.02l9.84-9.82v-.02l-.04-3.51a24.629,24.629,0,0,1,.6-3.62,29.241,29.241,0,0,0,1.11-5.87c.01-.17.02-.34.02-.51v-.15a7.722,7.722,0,0,0-.1-1.18,2.064,2.064,0,0,0-.25-.68,1.074,1.074,0,0,0-.59-.5.076.076,0,0,0-.05-.02h-.02a2.019,2.019,0,0,0-.65-.04c-.25.03-.5.07-.74.12a10.285,10.285,0,0,0-1.87.63,7.155,7.155,0,0,0-3.09,2.43l-.29-.16q-.225-.12-.42-.24a6.577,6.577,0,0,0-.74-.4,11.994,11.994,0,0,0-1.97-.66,11.246,11.246,0,0,0-2-.4c-.32-.03-.61-.03-.92-.03h-.77A7.078,7.078,0,0,0,14.27,7.4a10.194,10.194,0,0,0-1.31-1.47,5.6,5.6,0,0,0-.59-.48,1.756,1.756,0,0,0-.58-.29h-.01l-.06-.02c-.05,0-.1-.01-.16-.01Z" fill="none"/>
    </clipPath>
    <linearGradient id="linear-gradient-2" x1="0.155" y1="0.308" x2="0.26" y2="1.059" gradientUnits="objectBoundingBox">
      <stop offset="0" stop-color="#fff"/>
      <stop offset="1" stop-color="#dceeff"/>
    </linearGradient>
    <linearGradient id="linear-gradient-3" x1="0.5" x2="0.5" y2="0.816" gradientUnits="objectBoundingBox">
      <stop offset="0" stop-color="#9aa5ae"/>
      <stop offset="1" stop-color="#afb9c1"/>
    </linearGradient>
    <linearGradient id="linear-gradient-5" x1="0.188" x2="0.838" y2="1" gradientUnits="objectBoundingBox">
      <stop offset="0" stop-color="#5a5858"/>
      <stop offset="1" stop-color="#1e1e1e"/>
    </linearGradient>
    <linearGradient id="linear-gradient-7" x1="0.438" y1="0.141" x2="0.818" y2="0.941" xlink:href="#linear-gradient-5"/>
    <linearGradient id="linear-gradient-9" x1="0.209" y1="0" x2="0.722" y2="0.919" xlink:href="#linear-gradient-5"/>
    <linearGradient id="linear-gradient-11" x1="0.346" y1="0.211" x2="0.594" y2="0.573" gradientUnits="objectBoundingBox">
      <stop offset="0" stop-color="#a9d3f9"/>
      <stop offset="1" stop-color="#dbeeff"/>
    </linearGradient>
    <clipPath id="clip-path-3">
      <path id="패스_37377" data-name="패스 37377" d="M71.006,73.6l9.817-9.817A17.864,17.864,0,0,0,63.785,80.823Z" transform="translate(-63.785 -63.786)" fill="#eee"/>
    </clipPath>
  </defs>
  <g id="그룹_115538" data-name="그룹 115538" transform="translate(3976 13515)">
 
    <g transform="matrix(1, 0, 0, 1, -3976, -13515)" filter="url(#패스_37378)">
      <path id="패스_37378-2" data-name="패스 37378" d="M17.846,0a17.846,17.846,0,1,0,0,35.692c.273,0,.544-.008.815-.02l7.209-7.209,9.8-9.8c.012-.27.02-.542.02-.815A17.846,17.846,0,0,0,17.846,0" transform="translate(17.15 17.15)" fill="#cecece"/>
    </g>
    <g id="그룹_115535" data-name="그룹 115535" transform="translate(-3958.924 -13497.854)">
      <g id="그룹_115534" data-name="그룹 115534" clip-path="url(#clip-path)">
        <rect id="사각형_21692" data-name="사각형 21692" width="50.19" height="50.188" transform="translate(-17.439 21.658) rotate(-51.158)" fill="url(#linear-gradient)"/>
      </g>
    </g>
    <g id="그룹_115537" data-name="그룹 115537" transform="translate(-3958.924 -13497.854)">
      <g id="그룹_115536" data-name="그룹 115536" clip-path="url(#clip-path-2)">
        <path id="패스_40471" data-name="패스 40471" d="M-10.007,12.155,8.316,48.725l33.671-20.05L23.664-7.9Z" fill="url(#linear-gradient-2)"/>
      </g>
    </g>
    <rect id="사각형_20388" data-name="사각형 20388" width="44" height="44" transform="translate(-3963 -13502)" fill="none"/>
    <path id="패스_37365" data-name="패스 37365" d="M56.431,74.836h0L56.2,75.7Z" transform="translate(-3998.603 -13550.789)" fill="#f4f5f7"/>
    <path id="패스_37367" data-name="패스 37367" d="M87.125,44.241c.147,2.111,1.464-4.96,1.339-5.822-.1-.69-3.631.536-4.193,2.631.742.337,2.737,1.5,2.855,3.191" transform="translate(-4018.467 -13524.893)" opacity="0.7" fill="url(#linear-gradient-3)"/>
    <path id="패스_37368" data-name="패스 37368" d="M32.7,28.279c.947-1.4,3.258-1.416,4.069-1.337.562-2.1-1.883-4.921-2.315-4.374-.54.684-2.937,7.466-1.753,5.711" transform="translate(-3981.754 -13513.765)" opacity="0.7" fill="url(#linear-gradient-3)"/>
    <path id="패스_37369" data-name="패스 37369" d="M70.439,65.823a1.27,1.27,0,0,0-.112-.391A1.135,1.135,0,0,0,69.7,64.8a.983.983,0,0,0-.681-.007,1.317,1.317,0,0,0-.336.169,1.625,1.625,0,0,0-.3.271,1.816,1.816,0,0,0-.383.758,1.8,1.8,0,0,0,.061,1.034,1.159,1.159,0,0,0,.6.661.958.958,0,0,0,.719.018,1.364,1.364,0,0,0,.352-.179,1.677,1.677,0,0,0,.319-.3.77.77,0,0,0,.1-.144,1.285,1.285,0,0,0,.127-.222,1.849,1.849,0,0,0,.132-.4,1.982,1.982,0,0,0,.023-.628" transform="translate(-4006.924 -13543.646)" fill="url(#linear-gradient-5)"/>
    <path id="패스_37370" data-name="패스 37370" d="M44.529,58.761a1.278,1.278,0,0,0-.112-.391,1.135,1.135,0,0,0-.626-.631.983.983,0,0,0-.681-.007,1.32,1.32,0,0,0-.336.169,1.624,1.624,0,0,0-.3.271,1.816,1.816,0,0,0-.383.758,1.8,1.8,0,0,0,.061,1.034,1.159,1.159,0,0,0,.6.661.958.958,0,0,0,.719.018,1.364,1.364,0,0,0,.353-.179,1.678,1.678,0,0,0,.319-.3.769.769,0,0,0,.1-.144,1.283,1.283,0,0,0,.126-.222,1.821,1.821,0,0,0,.132-.4,1.976,1.976,0,0,0,.023-.629" transform="translate(-3988.593 -13538.649)" fill="url(#linear-gradient-5)"/>
    <path id="패스_37371" data-name="패스 37371" d="M55.786,73.206a.686.686,0,0,0,.45-.057.446.446,0,0,0,.241-.232.063.063,0,0,0,0-.052.243.243,0,0,0-.083-.078,2.444,2.444,0,0,0-.956-.256.238.238,0,0,0-.111.026.063.063,0,0,0-.03.043.446.446,0,0,0,.092.321.68.68,0,0,0,.381.282l.021,0" transform="translate(-3997.959 -13549.157)" fill="#1c1f22"/>
    <path id="패스_37374" data-name="패스 37374" d="M51.715,75.446a.162.162,0,0,1-.073-.307l1.237-.619.3-.909a.162.162,0,0,1,.308.1l-.346,1.037-1.357.679a.164.164,0,0,1-.073.017" transform="translate(-3995.604 -13549.382)" fill="url(#linear-gradient-7)"/>
    <path id="패스_37375" data-name="패스 37375" d="M56.526,77.96a.162.162,0,0,1-.132-.068l-.811-1.135a.162.162,0,0,1,.264-.189l.811,1.135a.162.162,0,0,1-.132.257" transform="translate(-3998.306 -13551.408)" fill="url(#linear-gradient-7)"/>
    <path id="패스_37372" data-name="패스 37372" d="M55.786,73.206a.686.686,0,0,0,.45-.057.446.446,0,0,0,.241-.232.063.063,0,0,0,0-.052.243.243,0,0,0-.083-.078,2.444,2.444,0,0,0-.956-.256.238.238,0,0,0-.111.026.063.063,0,0,0-.03.043.446.446,0,0,0,.092.321.68.68,0,0,0,.381.282Z" transform="translate(-3997.959 -13549.158)" fill="url(#linear-gradient-9)"/>
    <path id="패스_37372_-_윤곽선" data-name="패스 37372 - 윤곽선" d="M55.827,73.519a1.04,1.04,0,0,1-.212-.022.453.453,0,0,1-.052-.01,1.073,1.073,0,0,1-.611-.446.826.826,0,0,1-.146-.646.461.461,0,0,1,.208-.28.614.614,0,0,1,.3-.083h.051a2.252,2.252,0,0,1,.563.093,2.032,2.032,0,0,1,.579.228.622.622,0,0,1,.216.221.46.46,0,0,1,.04.347.825.825,0,0,1-.449.486A1.105,1.105,0,0,1,55.827,73.519Z" transform="translate(-3997.858 -13549.057)" fill="url(#linear-gradient-9)"/>
    <path id="패스_37373" data-name="패스 37373" d="M71.006,73.6l9.817-9.817A17.864,17.864,0,0,0,63.785,80.823Z" transform="translate(-4003.998 -13542.998)" fill="url(#linear-gradient-11)"/>
    <g id="마스크_그룹_110094" data-name="마스크 그룹 110094" transform="translate(-3940.212 -13479.212)" clip-path="url(#clip-path-3)">
      <path id="패스_37376" data-name="패스 37376" d="M71.006,73.6l9.817-9.817A17.864,17.864,0,0,0,63.785,80.823Z" transform="translate(-62.988 -62.989)" fill="none" stroke="#8db1cf" stroke-linecap="round" stroke-width="0.5" stroke-dasharray="1 2"/>
    </g>
  </g>
</svg>
