<svg xmlns="http://www.w3.org/2000/svg" width="32" height="24" viewBox="0 0 32 24">
  <g id="livelogo" transform="translate(20252.246 18513.75)">
    <rect id="사각형_21751" data-name="사각형 21751" width="32" height="24" transform="translate(-20252.246 -18513.75)" fill="none"/>
    <g id="livelogo-2" data-name="livelogo" transform="translate(-20251.145 -18511.605)">
      <path id="패스_42528" data-name="패스 42528" d="M326.909,22.685a.823.823,0,0,1-.821-.871l.057-5.161a2.106,2.106,0,0,0-.462-1.393,1.5,1.5,0,0,0-1.13-.428l-3.044.479a.805.805,0,0,1-.149.014.822.822,0,0,1-.82-.87l.063-6.73a1.121,1.121,0,0,1,.912-1.074L338.26,4.014A.8.8,0,0,1,338.409,4a.822.822,0,0,1,.82.871l-.022,2.383a3.674,3.674,0,0,0,1.581,3.356,5.41,5.41,0,0,0,2.829.7,6.972,6.972,0,0,0,1.116-.083l3.6-.57a.8.8,0,0,1,.148-.014.824.824,0,0,1,.809.67.833.833,0,0,1,.013.2l-.067,6.724a1.118,1.118,0,0,1-.914,1.071l-21.269,3.362a.8.8,0,0,1-.148.014" transform="translate(-319.716 -3.178)"/>
      <path id="패스_42529" data-name="패스 42529" d="M337.614,3.411a.616.616,0,0,1,.6.5.627.627,0,0,1,.01.153l-.023,2.393V6.47c0,3.716,2.933,4.249,4.616,4.249a7.134,7.134,0,0,0,1.153-.086l3.6-.569a.618.618,0,0,1,.732.643l-.068,6.734a.918.918,0,0,1-.747.872L326.23,21.673a.6.6,0,0,1-.116.011.618.618,0,0,1-.616-.654l.057-5.17s.112-2.029-1.813-2.029h0l-3.061.482a.616.616,0,0,1-.731-.642l.063-6.74a.92.92,0,0,1,.745-.875L337.5,3.422a.63.63,0,0,1,.117-.011m0-.411h0a1.039,1.039,0,0,0-.187.017L320.694,5.651h-.014A1.324,1.324,0,0,0,319.6,6.919l-.063,6.74a1.027,1.027,0,0,0,1.212,1.059l3.022-.476a1.282,1.282,0,0,1,.967.365,1.9,1.9,0,0,1,.405,1.23v.018l-.057,5.162a1.029,1.029,0,0,0,1.027,1.078,1.046,1.046,0,0,0,.186-.017l21.257-3.36h.012a1.321,1.321,0,0,0,1.082-1.262l.068-6.735a1.028,1.028,0,0,0-1.212-1.061l-3.595.568a6.819,6.819,0,0,1-1.089.081c-1.918,0-4.205-.666-4.205-3.838V6.459l.022-2.382A1.026,1.026,0,0,0,337.614,3" transform="translate(-318.921 -2.384)" stroke="#000" stroke-width="1"/>
      <path id="패스_42530" data-name="패스 42530" d="M323.909,19.685a.823.823,0,0,1-.821-.871l.057-5.161a2.107,2.107,0,0,0-.462-1.393,1.5,1.5,0,0,0-1.13-.428l-3.044.479a.8.8,0,0,1-.149.014.822.822,0,0,1-.82-.87l.063-6.73a1.121,1.121,0,0,1,.912-1.074L335.26,1.014A.805.805,0,0,1,335.409,1a.822.822,0,0,1,.82.871l-.022,2.383a3.675,3.675,0,0,0,1.581,3.356,5.41,5.41,0,0,0,2.829.7,6.97,6.97,0,0,0,1.116-.083l3.6-.57a.8.8,0,0,1,.148-.014.824.824,0,0,1,.809.67.833.833,0,0,1,.013.2l-.067,6.724a1.118,1.118,0,0,1-.915,1.071l-21.269,3.362a.8.8,0,0,1-.148.014" transform="translate(-317.332 -0.795)" fill="#ca121f"/>
      <path id="패스_42531" data-name="패스 42531" d="M334.614.411a.616.616,0,0,1,.6.5.627.627,0,0,1,.01.153l-.022,2.393V3.47c0,3.716,2.933,4.249,4.616,4.249a7.132,7.132,0,0,0,1.153-.086l3.6-.569a.619.619,0,0,1,.733.643l-.068,6.734a.918.918,0,0,1-.747.872L323.23,18.673a.6.6,0,0,1-.116.011.618.618,0,0,1-.616-.654l.057-5.17s.112-2.029-1.813-2.029h0l-3.061.482a.616.616,0,0,1-.721-.489.6.6,0,0,1-.01-.153l.063-6.74a.92.92,0,0,1,.745-.875L334.5.422a.63.63,0,0,1,.117-.011m0-.411h0a1.038,1.038,0,0,0-.187.017L317.694,2.651h-.014A1.324,1.324,0,0,0,316.6,3.919l-.063,6.74a1.027,1.027,0,0,0,1.212,1.059l3.022-.476a1.282,1.282,0,0,1,.967.365,1.9,1.9,0,0,1,.405,1.23v.018l-.057,5.162a1.029,1.029,0,0,0,1.213,1.061l21.257-3.36h.012a1.321,1.321,0,0,0,1.082-1.262l.068-6.735a1.028,1.028,0,0,0-1.212-1.061l-3.595.568a6.821,6.821,0,0,1-1.089.081c-1.918,0-4.205-.666-4.205-3.838V3.459l.022-2.382A1.026,1.026,0,0,0,334.614,0" transform="translate(-316.537 0)" stroke="#000" stroke-width="1"/>
      <path id="패스_42532" data-name="패스 42532" d="M343.07,14.967l4.427-2.215s1.563-7.933,1.563-2.721,5.769,4.163,5.769,4.163l3.6-.569a.618.618,0,0,1,.732.643L359.094,21a.918.918,0,0,1-.747.872l-21.263,3.361a.618.618,0,0,1-.732-.643l.057-5.17s.112-2.029-1.813-2.029c-2.026,0,1.536-1.9,1.536-1.9Z" transform="translate(-330.391 -6.561)" fill="#070303"/>
      <path id="패스_42533" data-name="패스 42533" d="M361.17,55.93l-.043,4.363-.954.15.017-1.772-1.887.3-.017,1.772-.954.15.043-4.363.954-.15-.017,1.729,1.887-.3.017-1.729Z" transform="translate(-348.952 -44.44)" fill="#fff"/>
      <path id="패스_42534" data-name="패스 42534" d="M409.916,49.21l-1.389.218-.034,3.5-.954.15.034-3.5-1.389.218.008-.862,3.733-.585Z" transform="translate(-387.767 -38.416)" fill="#fff"/>
      <path id="패스_42535" data-name="패스 42535" d="M431.073,45.894l-1.389.217-.034,3.5-.954.149.034-3.5-1.389.218.008-.862,3.733-.585Z" transform="translate(-404.579 -35.782)" fill="#fff"/>
      <path id="패스_42536" data-name="패스 42536" d="M382.417,56.873l-1.742-1.508a1.447,1.447,0,0,1,.02-2.02,1.417,1.417,0,0,1,1.978-.31l.03.026.03-.035a1.413,1.413,0,0,1,1.978-.3,1.447,1.447,0,0,1-.02,2.006l-2.041,2.347Z" transform="translate(-367.181 -41.67)" fill="#ca121f"/>
      <path id="패스_42537" data-name="패스 42537" d="M336.01,10.268,319.271,12.9a.616.616,0,0,1-.722-.489.626.626,0,0,1-.01-.153l.063-6.74a.92.92,0,0,1,.745-.874l16.739-2.635a.616.616,0,0,1,.731.642l-.063,6.74a.92.92,0,0,1-.746.874" transform="translate(-318.128 -1.589)" fill="#ca121f"/>
      <path id="패스_42538" data-name="패스 42538" d="M331.939,22.893l-.031,3.28,1.989-.313-.008.807-2.878.453.039-4.087Z" transform="translate(-328.038 -18.19)" fill="#fff"/>
      <path id="패스_42539" data-name="패스 42539" d="M348.139,20.343,348.1,24.43l-.889.14.038-4.087Z" transform="translate(-340.91 -16.164)" fill="#fff"/>
      <path id="패스_42540" data-name="패스 42540" d="M357.779,16.89l-1.612,4.335-.958.151-1.535-3.839,1.007-.158,1.057,2.838,1.108-3.179Z" transform="translate(-346.045 -13.42)" fill="#fff"/>
      <path id="패스_42541" data-name="패스 42541" d="M375.455,14.781l2.961-.466-.007.792-2.072.326-.008.833,1.9-.3-.007.792-1.9.3-.008.877,2.116-.333-.007.793-3.006.473Z" transform="translate(-363.321 -11.374)" fill="#fff"/>
      <path id="패스_42542" data-name="패스 42542" d="M393.314,15.866l-.606.1-.2-2.7,1.055-.166Zm.207.864a.62.62,0,0,1-.523.608.419.419,0,0,1-.513-.445.625.625,0,0,1,.523-.612.422.422,0,0,1,.513.45" transform="translate(-376.882 -10.407)" fill="#fff"/>
    </g>
  </g>
</svg>
