<svg xmlns="http://www.w3.org/2000/svg" xmlns:xlink="http://www.w3.org/1999/xlink" width="70" height="70" viewBox="0 0 70 70">
  <defs>
    <linearGradient id="linear-gradient" x1="1" y1="0.335" x2="0.054" y2="0.842" gradientUnits="objectBoundingBox">
      <stop offset="0" stop-color="#f8fbfe"/>
      <stop offset="1" stop-color="#d9eeff"/>
    </linearGradient>
    <filter id="Union_152" x="12.818" y="17.82" width="49.816" height="40.363" filterUnits="userSpaceOnUse">
      <feOffset dx="2" dy="4" input="SourceAlpha"/>
      <feGaussianBlur stdDeviation="2" result="blur"/>
      <feFlood flood-opacity="0.161"/>
      <feComposite operator="in" in2="blur"/>
      <feComposite in="SourceGraphic"/>
    </filter>
    <linearGradient id="linear-gradient-2" x1="1" y1="0.335" x2="0.054" y2="0.842" gradientUnits="objectBoundingBox">
      <stop offset="0" stop-color="#f8fbfe"/>
      <stop offset="1" stop-color="#80c6ff"/>
    </linearGradient>
    <linearGradient id="linear-gradient-3" x1="0.008" y1="0.696" x2="0.993" y2="0.298" gradientUnits="objectBoundingBox">
      <stop offset="0" stop-color="#81c5ff"/>
      <stop offset="1" stop-color="#3aa5ff"/>
    </linearGradient>
    <filter id="Rectangle_19729" x="18" y="19.82" width="25.999" height="23.635" filterUnits="userSpaceOnUse">
      <feOffset input="SourceAlpha"/>
      <feGaussianBlur stdDeviation="0.5" result="blur-2"/>
      <feFlood flood-color="#fff" flood-opacity="0.161" result="color"/>
      <feComposite operator="out" in="SourceGraphic" in2="blur-2"/>
      <feComposite operator="in" in="color"/>
      <feComposite operator="in" in2="SourceGraphic"/>
    </filter>
    <linearGradient id="linear-gradient-4" x1="1" y1="0.335" x2="0.054" y2="0.842" gradientUnits="objectBoundingBox">
      <stop offset="0" stop-color="#51afff"/>
      <stop offset="1" stop-color="#1494ff"/>
    </linearGradient>
    <linearGradient id="linear-gradient-5" x1="0.135" y1="0.138" x2="0.77" y2="0.91" gradientUnits="objectBoundingBox">
      <stop offset="0" stop-color="#555353"/>
      <stop offset="1" stop-color="#1e1e1e"/>
    </linearGradient>
    <linearGradient id="linear-gradient-7" x1="0.135" y1="0.138" x2="0.77" y2="0.91" gradientUnits="objectBoundingBox">
      <stop offset="0" stop-color="#fff"/>
      <stop offset="1" stop-color="#dbeeff"/>
    </linearGradient>
    <linearGradient id="linear-gradient-9" x1="1" y1="0.335" x2="0.054" y2="0.842" gradientUnits="objectBoundingBox">
      <stop offset="0" stop-color="#535151"/>
      <stop offset="1" stop-color="#212121"/>
    </linearGradient>
    <linearGradient id="linear-gradient-10" x1="0.267" y1="0.22" x2="0.754" y2="0.918" gradientUnits="objectBoundingBox">
      <stop offset="0" stop-color="#fff"/>
      <stop offset="1" stop-color="#d5ecff"/>
    </linearGradient>
    <filter id="Polygon_33" x="20.908" y="20.365" width="20.181" height="18.999" filterUnits="userSpaceOnUse">
      <feOffset input="SourceAlpha"/>
      <feGaussianBlur stdDeviation="1" result="blur-3"/>
      <feFlood flood-color="#003e72" flood-opacity="0.302"/>
      <feComposite operator="in" in2="blur-3"/>
      <feComposite in="SourceGraphic"/>
    </filter>
  </defs>
  <g id="icon" transform="translate(-1228 -665)">
    <rect id="area" width="70" height="70" rx="16" transform="translate(1228 665)" fill="#5055b1" opacity="0"/>
    <g id="icon-2" data-name="icon" transform="translate(19056.148 19765.15)">
      <rect id="Rectangle_20392" data-name="Rectangle 20392" width="44" height="44" transform="translate(-17815.148 -19087.148)" fill="none"/>
      <g id="Group_110057" data-name="Group 110057" transform="translate(-18702.33 -19983.33)">
        <g transform="matrix(1, 0, 0, 1, 874.18, 883.18)" filter="url(#Union_152)">
          <path id="Union_152-2" data-name="Union 152" d="M22.454,23.636H13a4.727,4.727,0,0,1-9.454,0H1a1,1,0,0,1-1-1v-.364a1,1,0,0,1,1-1h.182V2a2,2,0,0,1,2-2h22a2,2,0,0,1,2,2V9.455h7.454a2,2,0,0,1,2,2v9.818h.182a1,1,0,0,1,1,1v.364a1,1,0,0,1-1,1H31.908a4.727,4.727,0,0,1-9.454,0Z" transform="translate(16.82 19.82)" fill="url(#linear-gradient)"/>
        </g>
        <path id="Rectangle_19731" data-name="Rectangle 19731" d="M0,0H9.454a0,0,0,0,1,0,0V14.181a0,0,0,0,1,0,0H2a2,2,0,0,1-2-2V0A0,0,0,0,1,0,0Z" transform="translate(927.635 926.635) rotate(180)" stroke="rgba(0,0,0,0)" stroke-miterlimit="10" stroke-width="1" fill="url(#linear-gradient-2)"/>
        <g data-type="innerShadowGroup">
          <path id="Rectangle_19729-2" data-name="Rectangle 19729" d="M0,0H26a0,0,0,0,1,0,0V21.635a2,2,0,0,1-2,2H2a2,2,0,0,1-2-2V0A0,0,0,0,1,0,0Z" transform="translate(918.181 926.635) rotate(180)" fill="url(#linear-gradient-3)"/>
          <g transform="matrix(1, 0, 0, 1, 874.18, 883.18)" filter="url(#Rectangle_19729)">
            <path id="Rectangle_19729-3" data-name="Rectangle 19729" d="M0,0H26a0,0,0,0,1,0,0V21.635a2,2,0,0,1-2,2H2a2,2,0,0,1-2-2V0A0,0,0,0,1,0,0Z" transform="translate(44 43.46) rotate(180)" fill="#fff"/>
          </g>
        </g>
        <rect id="Rectangle_19732" data-name="Rectangle 19732" width="37.816" height="2.364" rx="1" transform="translate(928.816 926.635) rotate(180)" stroke="rgba(0,0,0,0)" stroke-miterlimit="10" stroke-width="1" fill="url(#linear-gradient-4)"/>
        <circle id="Ellipse_648" data-name="Ellipse 648" cx="4.727" cy="4.727" r="4.727" transform="translate(913.454 921.908)" fill="url(#linear-gradient-5)"/>
        <circle id="Ellipse_649" data-name="Ellipse 649" cx="4.727" cy="4.727" r="4.727" transform="translate(894.546 921.908)" fill="url(#linear-gradient-5)"/>
        <circle id="Ellipse_650" data-name="Ellipse 650" cx="2.364" cy="2.364" r="2.364" transform="translate(915.817 924.272)" fill="url(#linear-gradient-7)"/>
        <circle id="Ellipse_651" data-name="Ellipse 651" cx="2.364" cy="2.364" r="2.364" transform="translate(896.909 924.272)" fill="url(#linear-gradient-7)"/>
        <path id="Rectangle_19733" data-name="Rectangle 19733" d="M1,0H7.091a0,0,0,0,1,0,0V3.545a0,0,0,0,1,0,0H1a1,1,0,0,1-1-1V1A1,1,0,0,1,1,0Z" transform="translate(920.544 914.818)" stroke="rgba(0,0,0,0)" stroke-miterlimit="10" stroke-width="1" fill="url(#linear-gradient-9)"/>
        <g transform="matrix(1, 0, 0, 1, 874.18, 883.18)" filter="url(#Polygon_33)">
          <path id="Polygon_33-2" data-name="Polygon 33" d="M6.371,1.475a.8.8,0,0,1,1.438,0l1.217,2.5a.8.8,0,0,0,.623.444l2.789.338a.8.8,0,0,1,.44,1.388L10.869,7.959a.8.8,0,0,0-.248.749l.524,2.639a.8.8,0,0,1-1.16.862L7.466,10.873a.8.8,0,0,0-.75,0L4.2,12.21a.8.8,0,0,1-1.16-.862L3.56,8.709a.8.8,0,0,0-.248-.749L1.3,6.142a.8.8,0,0,1,.44-1.388l2.789-.338a.8.8,0,0,0,.623-.444Z" transform="translate(23.91 23.37)" fill="url(#linear-gradient-10)"/>
        </g>
      </g>
    </g>
  </g>
</svg>
