<svg xmlns="http://www.w3.org/2000/svg" xmlns:xlink="http://www.w3.org/1999/xlink" width="70" height="70" viewBox="0 0 70 70">
  <defs>
    <filter id="Path_37344" x="24.83" y="24.182" width="20.341" height="24.122" filterUnits="userSpaceOnUse">
      <feOffset input="SourceAlpha"/>
      <feGaussianBlur stdDeviation="1.5" result="blur"/>
      <feFlood flood-color="#f38339"/>
      <feComposite operator="in" in2="blur"/>
      <feComposite in="SourceGraphic"/>
    </filter>
    <linearGradient id="linear-gradient" x1="0.108" x2="0.771" y2="0.905" gradientUnits="objectBoundingBox">
      <stop offset="0" stop-color="#ffbda5"/>
      <stop offset="1" stop-color="#ed6603"/>
    </linearGradient>
    <filter id="Path_36216" x="13.297" y="16.976" width="47.408" height="44.337" filterUnits="userSpaceOnUse">
      <feOffset dx="2" dy="4" input="SourceAlpha"/>
      <feGaussianBlur stdDeviation="2" result="blur-2"/>
      <feFlood flood-opacity="0.161"/>
      <feComposite operator="in" in2="blur-2"/>
      <feComposite in="SourceGraphic"/>
    </filter>
    <linearGradient id="linear-gradient-2" x1="0.192" x2="0.776" y2="1" gradientUnits="objectBoundingBox">
      <stop offset="0" stop-color="#fff"/>
      <stop offset="1" stop-color="#ffc4dd"/>
    </linearGradient>
    <filter id="Path_36217" x="34.896" y="25.004" width="16.522" height="16.197" filterUnits="userSpaceOnUse">
      <feOffset input="SourceAlpha"/>
      <feGaussianBlur stdDeviation="1.5" result="blur-3"/>
      <feFlood flood-color="#f38339"/>
      <feComposite operator="in" in2="blur-3"/>
      <feComposite in="SourceGraphic"/>
    </filter>
    <clipPath id="clip-path">
      <g transform="matrix(1, 0, 0, 1, 0, 0)" filter="url(#Path_37344)">
        <path id="Path_37344-2" data-name="Path 37344" d="M0,15.12c0,.046,0-1.075,0-1.03h11.33c0-.045.005-.089.005-.135,0-4.7-2.54-7.1-5.671-7.1S0,9.259,0,13.955M5.67,0a2.9,2.9,0,1,0,2.9,2.9A2.9,2.9,0,0,0,5.67,0Z" fill="none"/>
      </g>
    </clipPath>
    <linearGradient id="linear-gradient-3" x2="1" y2="1" gradientUnits="objectBoundingBox">
      <stop offset="0" stop-color="#fff"/>
      <stop offset="1" stop-color="#ffe5f0"/>
    </linearGradient>
    <linearGradient id="linear-gradient-4" x1="0.267" y1="0.22" x2="0.754" y2="0.918" gradientUnits="objectBoundingBox">
      <stop offset="0" stop-color="#fff"/>
      <stop offset="1" stop-color="#ffdaea"/>
    </linearGradient>
    <filter id="Polygon_33" x="18.785" y="21.018" width="16.122" height="15.085" filterUnits="userSpaceOnUse">
      <feOffset input="SourceAlpha"/>
      <feGaussianBlur stdDeviation="1" result="blur-4"/>
      <feFlood flood-color="#fa9b55"/>
      <feComposite operator="in" in2="blur-4"/>
      <feComposite in="SourceGraphic"/>
    </filter>
  </defs>
  <g id="icon" transform="translate(-803 -665)">
    <rect id="area" width="70" height="70" rx="16" transform="translate(803 665)" fill="#5055b1" opacity="0"/>
    <g id="Group_112105" data-name="Group 112105" transform="translate(22390 19656.146)">
      <rect id="Rectangle_3449" data-name="Rectangle 3449" width="44" height="44" transform="translate(-21574 -18978.146)" fill="#fff" opacity="0"/>
      <g id="Group_1811" data-name="Group 1811" transform="translate(-21569.703 -18972.17)">
        <g id="Group_1664" data-name="Group 1664" transform="translate(0 0)">
          <g id="Group_1665" data-name="Group 1665">
            <g transform="matrix(1, 0, 0, 1, -17.3, -18.98)" filter="url(#Path_36216)">
              <path id="Path_36216-2" data-name="Path 36216" d="M30.853,1.534C24.094-1.036,19.888,6.423,18.7,7.8,17.52,6.423,13.314-1.036,6.556,1.534-1.508,4.6-3.325,21.861,18.7,33.331v.007l.006,0,0,0v-.007C40.734,21.861,38.916,4.6,30.853,1.534Z" transform="translate(16.3 17.98)" fill="url(#linear-gradient)"/>
            </g>
            <g transform="matrix(1, 0, 0, 1, -17.3, -18.98)" filter="url(#Path_36217)">
              <path id="Path_36217-2" data-name="Path 36217" d="M5.1.091C3.947-.348,3.229.927,3.026,1.163,2.824.927,2.1-.348.95.091-.429.615-.739,3.566,3.025,5.527h0C6.792,3.566,6.481.615,5.1.091Z" transform="translate(41.2 29.5) rotate(19)" fill="url(#linear-gradient-2)"/>
            </g>
            <g id="Group_112042" data-name="Group 112042" transform="translate(12.034 9.706)">
              <g id="Group_112041" data-name="Group 112041" clip-path="url(#clip-path)">
                <rect id="Rectangle_20448" data-name="Rectangle 20448" width="11.341" height="15.255" transform="translate(0 0)" fill="url(#linear-gradient-3)"/>
              </g>
            </g>
            <g transform="matrix(1, 0, 0, 1, -17.3, -18.98)" filter="url(#Polygon_33)">
              <path id="Polygon_33-2" data-name="Polygon 33" d="M4.3.7a.4.4,0,0,1,.712,0l.944,1.849a.4.4,0,0,0,.31.215l2.144.248a.4.4,0,0,1,.215.7L7.1,5.031a.4.4,0,0,0-.13.384l.4,1.927A.4.4,0,0,1,6.8,7.78L4.841,6.788a.4.4,0,0,0-.361,0L2.522,7.78a.4.4,0,0,1-.572-.438l.4-1.927a.4.4,0,0,0-.13-.384L.69,3.711a.4.4,0,0,1,.215-.7l2.144-.248a.4.4,0,0,0,.31-.215Z" transform="matrix(0.99, -0.1, 0.1, 0.99, 21.79, 24.99)" fill="url(#linear-gradient-4)"/>
            </g>
          </g>
        </g>
      </g>
    </g>
  </g>
</svg>
