<svg xmlns="http://www.w3.org/2000/svg" xmlns:xlink="http://www.w3.org/1999/xlink" width="70" height="70" viewBox="0 0 70 70">
  <defs>
    <linearGradient id="linear-gradient" x1="0.657" y1="-0.031" x2="-0.079" y2="3.222" gradientUnits="objectBoundingBox">
      <stop offset="0" stop-color="#01cd5c"/>
      <stop offset="1" stop-color="#60ffa7"/>
    </linearGradient>
    <filter id="Subtraction_21" x="14.279" y="18.66" width="45.415" height="26.62" filterUnits="userSpaceOnUse">
      <feOffset dx="2" dy="4" input="SourceAlpha"/>
      <feGaussianBlur stdDeviation="2" result="blur"/>
      <feFlood flood-opacity="0.161"/>
      <feComposite operator="in" in2="blur"/>
      <feComposite in="SourceGraphic"/>
    </filter>
    <clipPath id="clip-path">
      <rect id="Rectangle_20522" data-name="Rectangle 20522" width="21.992" height="4.014" fill="#fff"/>
    </clipPath>
    <linearGradient id="linear-gradient-2" x1="-0.134" y1="1.218" x2="1.31" y2="-0.195" gradientUnits="objectBoundingBox">
      <stop offset="0" stop-color="#ff628c"/>
      <stop offset="1" stop-color="#f42664"/>
    </linearGradient>
    <filter id="Subtraction_21-2" x="10.925" y="26.494" width="52.122" height="33.291" filterUnits="userSpaceOnUse">
      <feOffset dx="2" dy="4" input="SourceAlpha"/>
      <feGaussianBlur stdDeviation="2" result="blur-2"/>
      <feFlood flood-opacity="0.161"/>
      <feComposite operator="in" in2="blur-2"/>
      <feComposite in="SourceGraphic"/>
    </filter>
    <clipPath id="clip-path-2">
      <rect id="Rectangle_20522-2" data-name="Rectangle 20522" width="26.405" height="4.82" fill="#fff"/>
    </clipPath>
  </defs>
  <g id="icon" transform="translate(-486 -665)">
    <rect id="area" width="70" height="70" rx="16" transform="translate(486 665)" fill="#5055b1" opacity="0"/>
    <g id="icon-2" data-name="icon" transform="translate(7636.799 18050.641)">
      <g id="Group_112323" data-name="Group 112323" transform="translate(-7135.874 -17363.98)">
        <g id="Group_112321" data-name="Group 112321" transform="translate(3.354 -1)">
          <g id="Group_112180" data-name="Group 112180" transform="translate(0 0)">
            <g transform="matrix(1, 0, 0, 1, -18.28, -20.66)" filter="url(#Subtraction_21)">
              <path id="Subtraction_21-3" data-name="Subtraction 21" d="M31.415,14.62H2a2,2,0,0,1-2-2V10.308c.078.008.161.012.246.012a2.457,2.457,0,0,0,0-4.915c-.082,0-.164,0-.246.012V2A2,2,0,0,1,2,0H31.415a2,2,0,0,1,2,2V12.619A2,2,0,0,1,31.415,14.62Z" transform="translate(51.69 35.28) rotate(180)" fill="url(#linear-gradient)"/>
            </g>
          </g>
          <g id="Group_112181" data-name="Group 112181" transform="translate(4.454 5.303)">
            <g id="Group_112181-2" data-name="Group 112181" clip-path="url(#clip-path)">
              <path id="Path_38128" data-name="Path 38128" d="M1.67,0a2.341,2.341,0,0,1,.657.082A1.654,1.654,0,0,1,2.8.3a.288.288,0,0,1,.137.214A.348.348,0,0,1,2.87.745a.331.331,0,0,1-.186.137.277.277,0,0,1-.23-.038A1.362,1.362,0,0,0,2.1.693,1.806,1.806,0,0,0,1.654.646a.858.858,0,0,0-.7.3,1.593,1.593,0,0,0-.246,1v.115a1.641,1.641,0,0,0,.235.994.851.851,0,0,0,.717.3A1.639,1.639,0,0,0,2.138,3.3a1.548,1.548,0,0,0,.4-.189.3.3,0,0,1,.433.077.348.348,0,0,1,.066.252.325.325,0,0,1-.148.23,1.72,1.72,0,0,1-.55.257,2.579,2.579,0,0,1-.693.088A2.036,2.036,0,0,1,.95,3.9a1.271,1.271,0,0,1-.515-.34,1.535,1.535,0,0,1-.323-.589A2.887,2.887,0,0,1,0,2.119V1.895a2.887,2.887,0,0,1,.112-.857A1.515,1.515,0,0,1,.438.449,1.285,1.285,0,0,1,.964.11,2.126,2.126,0,0,1,1.67,0" transform="translate(0 0)" fill="#fff"/>
              <path id="Path_38129" data-name="Path 38129" d="M1.676,0a2.144,2.144,0,0,1,.712.11,1.285,1.285,0,0,1,.526.34,1.515,1.515,0,0,1,.326.589,2.887,2.887,0,0,1,.112.857v.225a2.887,2.887,0,0,1-.112.857,1.515,1.515,0,0,1-.326.589,1.285,1.285,0,0,1-.526.34,2.144,2.144,0,0,1-.712.11A2.144,2.144,0,0,1,.964,3.9a1.285,1.285,0,0,1-.526-.34,1.515,1.515,0,0,1-.326-.589A2.887,2.887,0,0,1,0,2.119V1.895a2.887,2.887,0,0,1,.112-.857A1.515,1.515,0,0,1,.438.449,1.285,1.285,0,0,1,.964.11,2.144,2.144,0,0,1,1.676,0m0,.641a1.232,1.232,0,0,0-.422.066.692.692,0,0,0-.3.216.992.992,0,0,0-.183.4,2.736,2.736,0,0,0-.06.624v.115a2.736,2.736,0,0,0,.06.624.992.992,0,0,0,.183.4.692.692,0,0,0,.3.216,1.232,1.232,0,0,0,.422.066A1.232,1.232,0,0,0,2.1,3.308a.692.692,0,0,0,.3-.216.992.992,0,0,0,.183-.4,2.736,2.736,0,0,0,.06-.624V1.95a2.736,2.736,0,0,0-.06-.624A.992.992,0,0,0,2.4.923.692.692,0,0,0,2.1.706,1.232,1.232,0,0,0,1.676.641" transform="translate(3.603 0)" fill="#fff"/>
              <path id="Path_38130" data-name="Path 38130" d="M.35,0A.426.426,0,0,1,.6.071.259.259,0,0,1,.7.3v2.01A2.081,2.081,0,0,0,.75,2.8.805.805,0,0,0,.9,3.124a.551.551,0,0,0,.26.175,1.2,1.2,0,0,0,.372.052A1.2,1.2,0,0,0,1.906,3.3a.551.551,0,0,0,.26-.175A.805.805,0,0,0,2.316,2.8a2.081,2.081,0,0,0,.049-.49V.3a.259.259,0,0,1,.1-.23.462.462,0,0,1,.493,0,.259.259,0,0,1,.1.23v2a2.751,2.751,0,0,1-.1.81,1.242,1.242,0,0,1-.3.517A1.092,1.092,0,0,1,2.19,3.9a2.378,2.378,0,0,1-.657.082A2.378,2.378,0,0,1,.876,3.9,1.092,1.092,0,0,1,.4,3.628,1.242,1.242,0,0,1,.1,3.11,2.751,2.751,0,0,1,0,2.3V.3A.259.259,0,0,1,.1.071.426.426,0,0,1,.35,0" transform="translate(7.623 0.027)" fill="#fff"/>
              <path id="Path_38131" data-name="Path 38131" d="M1.49,0A1.941,1.941,0,0,1,2.1.085,1.147,1.147,0,0,1,2.519.32a.93.93,0,0,1,.244.359,1.249,1.249,0,0,1,.079.449V1.2a1.277,1.277,0,0,1-.082.457,1.011,1.011,0,0,1-.252.378,1.245,1.245,0,0,1-.422.257,1.678,1.678,0,0,1-.6.1H.7V3.625a.259.259,0,0,1-.1.23.426.426,0,0,1-.246.071A.426.426,0,0,1,.1,3.855a.259.259,0,0,1-.1-.23V.455A.491.491,0,0,1,.1.1.521.521,0,0,1,.465,0ZM.7,1.8h.7a.968.968,0,0,0,.542-.131.531.531,0,0,0,.2-.476v-.06A.629.629,0,0,0,2.086.865.417.417,0,0,0,1.947.7.562.562,0,0,0,1.73.611,1.427,1.427,0,0,0,1.457.586H.7Z" transform="translate(11.505 0.06)" fill="#fff"/>
              <path id="Path_38132" data-name="Path 38132" d="M1.676,0a2.144,2.144,0,0,1,.712.11,1.285,1.285,0,0,1,.526.34,1.515,1.515,0,0,1,.326.589,2.887,2.887,0,0,1,.112.857v.225a2.887,2.887,0,0,1-.112.857,1.515,1.515,0,0,1-.326.589,1.285,1.285,0,0,1-.526.34,2.144,2.144,0,0,1-.712.11A2.144,2.144,0,0,1,.964,3.9a1.285,1.285,0,0,1-.526-.34,1.515,1.515,0,0,1-.326-.589A2.887,2.887,0,0,1,0,2.119V1.895a2.887,2.887,0,0,1,.112-.857A1.515,1.515,0,0,1,.438.449,1.285,1.285,0,0,1,.964.11,2.144,2.144,0,0,1,1.676,0m0,.641a1.232,1.232,0,0,0-.422.066.692.692,0,0,0-.3.216.992.992,0,0,0-.183.4,2.736,2.736,0,0,0-.06.624v.115a2.736,2.736,0,0,0,.06.624.992.992,0,0,0,.183.4.692.692,0,0,0,.3.216,1.232,1.232,0,0,0,.422.066A1.232,1.232,0,0,0,2.1,3.308a.692.692,0,0,0,.3-.216.992.992,0,0,0,.183-.4,2.736,2.736,0,0,0,.06-.624V1.95a2.736,2.736,0,0,0-.06-.624A.992.992,0,0,0,2.4.923.692.692,0,0,0,2.1.706,1.232,1.232,0,0,0,1.676.641" transform="translate(14.84 0)" fill="#fff"/>
              <path id="Path_38133" data-name="Path 38133" d="M2.738,0a.384.384,0,0,1,.225.068.245.245,0,0,1,.1.216v3.2a.491.491,0,0,1-.1.356.521.521,0,0,1-.364.1.841.841,0,0,1-.175-.016.35.35,0,0,1-.148-.074.815.815,0,0,1-.148-.167q-.077-.11-.181-.3L.909,1.533q-.082-.148-.148-.3A2.226,2.226,0,0,1,.646.9V3.675a.245.245,0,0,1-.1.216.384.384,0,0,1-.225.068A.384.384,0,0,1,.1,3.891.245.245,0,0,1,0,3.675V.476A.491.491,0,0,1,.1.12a.521.521,0,0,1,.364-.1A.841.841,0,0,1,.641.038.353.353,0,0,1,.789.112.815.815,0,0,1,.936.279q.077.11.181.3L2.152,2.426q.082.148.148.3a2.228,2.228,0,0,1,.115.334V.285a.245.245,0,0,1,.1-.216A.384.384,0,0,1,2.738,0" transform="translate(18.931 0.027)" fill="#fff"/>
            </g>
          </g>
        </g>
        <g id="Group_112322" data-name="Group 112322" transform="translate(0.001 6.834)">
          <g id="Group_112180-2" data-name="Group 112180" transform="translate(0 0)">
            <g transform="matrix(1, 0, 0, 1, -14.93, -28.49)" filter="url(#Subtraction_21-2)">
              <path id="Subtraction_21-4" data-name="Subtraction 21" d="M38.122,21.291H2a2,2,0,0,1-2-2v-5.42c.095.009.194.015.3.015a2.95,2.95,0,1,0,0-5.9c-.1,0-.2,0-.3.015V2A2,2,0,0,1,2,0H38.122a2,2,0,0,1,2,2V19.292A2,2,0,0,1,38.122,21.291Z" transform="translate(55.05 49.79) rotate(180)" fill="url(#linear-gradient-2)"/>
            </g>
          </g>
          <g id="Group_112181-3" data-name="Group 112181" transform="translate(5.348 8.235)">
            <g id="Group_112181-4" data-name="Group 112181" clip-path="url(#clip-path-2)">
              <path id="Path_38128-2" data-name="Path 38128" d="M2.005,0a2.811,2.811,0,0,1,.789.1A1.986,1.986,0,0,1,3.36.355a.345.345,0,0,1,.164.256.417.417,0,0,1-.079.283.4.4,0,0,1-.224.164.333.333,0,0,1-.276-.046A1.635,1.635,0,0,0,2.518.832,2.169,2.169,0,0,0,1.986.776a1.03,1.03,0,0,0-.842.358,1.912,1.912,0,0,0-.3,1.207v.138a1.97,1.97,0,0,0,.283,1.193,1.021,1.021,0,0,0,.861.365,1.968,1.968,0,0,0,.575-.076,1.858,1.858,0,0,0,.477-.227.357.357,0,0,1,.519.092.418.418,0,0,1,.079.3.39.39,0,0,1-.178.276,2.065,2.065,0,0,1-.661.309,3.1,3.1,0,0,1-.832.105,2.445,2.445,0,0,1-.832-.132A1.526,1.526,0,0,1,.523,4.28a1.843,1.843,0,0,1-.388-.707A3.467,3.467,0,0,1,0,2.545v-.27A3.467,3.467,0,0,1,.135,1.246,1.819,1.819,0,0,1,.526.539,1.543,1.543,0,0,1,1.157.132,2.552,2.552,0,0,1,2.005,0" transform="translate(0 0)" fill="#fff"/>
              <path id="Path_38129-2" data-name="Path 38129" d="M2.012,0a2.574,2.574,0,0,1,.855.132A1.543,1.543,0,0,1,3.5.539a1.819,1.819,0,0,1,.391.707,3.467,3.467,0,0,1,.135,1.029v.27a3.467,3.467,0,0,1-.135,1.029A1.819,1.819,0,0,1,3.5,4.28a1.543,1.543,0,0,1-.631.408,2.574,2.574,0,0,1-.855.132,2.574,2.574,0,0,1-.855-.132A1.543,1.543,0,0,1,.526,4.28a1.819,1.819,0,0,1-.391-.707A3.467,3.467,0,0,1,0,2.545v-.27A3.467,3.467,0,0,1,.135,1.246,1.819,1.819,0,0,1,.526.539,1.543,1.543,0,0,1,1.157.132,2.574,2.574,0,0,1,2.012,0m0,.769a1.48,1.48,0,0,0-.506.079.83.83,0,0,0-.365.26,1.191,1.191,0,0,0-.22.483,3.285,3.285,0,0,0-.072.75v.138a3.285,3.285,0,0,0,.072.75,1.191,1.191,0,0,0,.22.483.83.83,0,0,0,.365.26,1.48,1.48,0,0,0,.506.079,1.48,1.48,0,0,0,.506-.079.83.83,0,0,0,.365-.26,1.191,1.191,0,0,0,.22-.483,3.285,3.285,0,0,0,.072-.75V2.341a3.285,3.285,0,0,0-.072-.75,1.191,1.191,0,0,0-.22-.483.83.83,0,0,0-.365-.26A1.48,1.48,0,0,0,2.012.769" transform="translate(4.326 0)" fill="#fff"/>
              <path id="Path_38130-2" data-name="Path 38130" d="M.421,0a.511.511,0,0,1,.3.085A.311.311,0,0,1,.842.362V2.775A2.5,2.5,0,0,0,.9,3.363a.967.967,0,0,0,.181.388.661.661,0,0,0,.312.21,1.439,1.439,0,0,0,.447.062,1.439,1.439,0,0,0,.447-.062.661.661,0,0,0,.312-.21.967.967,0,0,0,.181-.388,2.5,2.5,0,0,0,.059-.588V.362A.311.311,0,0,1,2.965.085a.555.555,0,0,1,.592,0,.311.311,0,0,1,.125.276v2.4a3.3,3.3,0,0,1-.122.973,1.491,1.491,0,0,1-.355.621,1.311,1.311,0,0,1-.575.332,2.855,2.855,0,0,1-.789.1,2.855,2.855,0,0,1-.789-.1,1.311,1.311,0,0,1-.575-.332,1.491,1.491,0,0,1-.355-.621A3.3,3.3,0,0,1,0,2.762V.362A.311.311,0,0,1,.125.085.511.511,0,0,1,.421,0" transform="translate(9.153 0.033)" fill="#fff"/>
              <path id="Path_38131-2" data-name="Path 38131" d="M1.788,0a2.33,2.33,0,0,1,.733.1,1.377,1.377,0,0,1,.5.283,1.117,1.117,0,0,1,.293.431,1.5,1.5,0,0,1,.1.539v.092a1.533,1.533,0,0,1-.1.549,1.214,1.214,0,0,1-.3.454,1.5,1.5,0,0,1-.506.309,2.014,2.014,0,0,1-.717.115H.842V4.353a.311.311,0,0,1-.125.276.511.511,0,0,1-.3.085.511.511,0,0,1-.3-.085A.311.311,0,0,1,0,4.353V.546A.589.589,0,0,1,.122.118.625.625,0,0,1,.559,0ZM.842,2.163h.835a1.162,1.162,0,0,0,.651-.158.637.637,0,0,0,.237-.572V1.361a.756.756,0,0,0-.059-.322.5.5,0,0,0-.168-.2.675.675,0,0,0-.26-.105A1.714,1.714,0,0,0,1.749.7H.842Z" transform="translate(13.814 0.072)" fill="#fff"/>
              <path id="Path_38132-2" data-name="Path 38132" d="M2.012,0a2.574,2.574,0,0,1,.855.132A1.543,1.543,0,0,1,3.5.539a1.819,1.819,0,0,1,.391.707,3.467,3.467,0,0,1,.135,1.029v.27a3.467,3.467,0,0,1-.135,1.029A1.819,1.819,0,0,1,3.5,4.28a1.543,1.543,0,0,1-.631.408,2.574,2.574,0,0,1-.855.132,2.574,2.574,0,0,1-.855-.132A1.543,1.543,0,0,1,.526,4.28a1.819,1.819,0,0,1-.391-.707A3.467,3.467,0,0,1,0,2.545v-.27A3.467,3.467,0,0,1,.135,1.246,1.819,1.819,0,0,1,.526.539,1.543,1.543,0,0,1,1.157.132,2.574,2.574,0,0,1,2.012,0m0,.769a1.48,1.48,0,0,0-.506.079.83.83,0,0,0-.365.26,1.191,1.191,0,0,0-.22.483,3.285,3.285,0,0,0-.072.75v.138a3.285,3.285,0,0,0,.072.75,1.191,1.191,0,0,0,.22.483.83.83,0,0,0,.365.26,1.48,1.48,0,0,0,.506.079,1.48,1.48,0,0,0,.506-.079.83.83,0,0,0,.365-.26,1.191,1.191,0,0,0,.22-.483,3.285,3.285,0,0,0,.072-.75V2.341a3.285,3.285,0,0,0-.072-.75,1.191,1.191,0,0,0-.22-.483.83.83,0,0,0-.365-.26A1.48,1.48,0,0,0,2.012.769" transform="translate(17.818 0)" fill="#fff"/>
              <path id="Path_38133-2" data-name="Path 38133" d="M3.288,0a.461.461,0,0,1,.27.082.294.294,0,0,1,.118.26v3.84a.589.589,0,0,1-.122.427.625.625,0,0,1-.437.118,1.01,1.01,0,0,1-.21-.02.421.421,0,0,1-.178-.089.979.979,0,0,1-.178-.2q-.092-.132-.217-.355L1.091,1.841q-.1-.178-.178-.355a2.673,2.673,0,0,1-.138-.4V4.412a.294.294,0,0,1-.118.26.461.461,0,0,1-.27.082.461.461,0,0,1-.27-.082A.294.294,0,0,1,0,4.412V.572A.589.589,0,0,1,.122.145.625.625,0,0,1,.559.026a1.01,1.01,0,0,1,.21.02A.424.424,0,0,1,.947.135a.979.979,0,0,1,.178.2q.092.132.217.355L2.584,2.913q.1.178.178.355a2.675,2.675,0,0,1,.138.4V.342a.294.294,0,0,1,.118-.26A.461.461,0,0,1,3.288,0" transform="translate(22.73 0.033)" fill="#fff"/>
            </g>
          </g>
        </g>
      </g>
      <rect id="Rectangle_20616" data-name="Rectangle 20616" width="44" height="44" transform="translate(-7137.798 -17372.641)" fill="none"/>
    </g>
  </g>
</svg>
