<svg xmlns="http://www.w3.org/2000/svg" xmlns:xlink="http://www.w3.org/1999/xlink" width="70" height="70.846" viewBox="0 0 70 70.846">
  <defs>
    <filter id="Path_37378" x="8.154" y="11.154" width="59.692" height="59.692" filterUnits="userSpaceOnUse">
      <feOffset dx="3" dy="6" input="SourceAlpha"/>
      <feGaussianBlur stdDeviation="4" result="blur"/>
      <feFlood flood-opacity="0.161"/>
      <feComposite operator="in" in2="blur"/>
      <feComposite in="SourceGraphic"/>
    </filter>
    <linearGradient id="linear-gradient" x1="0.191" y1="0.101" x2="0.716" y2="0.753" gradientUnits="objectBoundingBox">
      <stop offset="0" stop-color="#81c5ff"/>
      <stop offset="1" stop-color="#3aa5ff"/>
    </linearGradient>
    <filter id="Path_37364" x="8.154" y="11.154" width="59.692" height="59.692" filterUnits="userSpaceOnUse">
      <feOffset dx="3" dy="6" input="SourceAlpha"/>
      <feGaussianBlur stdDeviation="4" result="blur-2"/>
      <feFlood flood-opacity="0.161"/>
      <feComposite operator="in" in2="blur-2"/>
      <feComposite in="SourceGraphic"/>
    </filter>
    <clipPath id="clip-path">
      <g transform="matrix(1, 0, 0, 1, 0, 0)" filter="url(#Path_37378)">
        <path id="Path_37378-2" data-name="Path 37378" d="M17.846,0a17.846,17.846,0,1,0,0,35.692c.273,0,.544-.008.815-.02l7.209-7.209,9.8-9.8c.012-.27.02-.542.02-.815A17.846,17.846,0,0,0,17.846,0" fill="#cecece"/>
      </g>
    </clipPath>
    <linearGradient id="linear-gradient-2" x1="0.438" y1="0.329" x2="0.789" y2="0.774" gradientUnits="objectBoundingBox">
      <stop offset="0" stop-color="#fff"/>
      <stop offset="1" stop-color="#dbeeff"/>
    </linearGradient>
    <linearGradient id="linear-gradient-3" x1="0.5" x2="0.5" y2="0.816" gradientUnits="objectBoundingBox">
      <stop offset="0" stop-color="#9aa5ae"/>
      <stop offset="1" stop-color="#afb9c1"/>
    </linearGradient>
    <linearGradient id="linear-gradient-5" x1="0.188" x2="0.838" y2="1" gradientUnits="objectBoundingBox">
      <stop offset="0" stop-color="#5a5858"/>
      <stop offset="1" stop-color="#1e1e1e"/>
    </linearGradient>
    <linearGradient id="linear-gradient-7" x1="0.346" y1="0.211" x2="0.594" y2="0.573" gradientUnits="objectBoundingBox">
      <stop offset="0" stop-color="#a9d3f9"/>
      <stop offset="1" stop-color="#dbeeff"/>
    </linearGradient>
    <linearGradient id="linear-gradient-8" x1="0.438" y1="0.141" x2="0.818" y2="0.941" xlink:href="#linear-gradient-5"/>
    <linearGradient id="linear-gradient-9" x1="0.209" y1="0" x2="0.722" y2="0.919" xlink:href="#linear-gradient-5"/>
    <clipPath id="clip-path-2">
      <path id="Path_37377" data-name="Path 37377" d="M71.006,73.6l9.817-9.817A17.864,17.864,0,0,0,63.785,80.823Z" transform="translate(-63.785 -63.786)" fill="#eee"/>
    </clipPath>
  </defs>
  <g id="icon" transform="translate(-909 -665)">
    <rect id="area" width="70" height="70" rx="16" transform="translate(909 665)" fill="#5055b1" opacity="0"/>
    <g id="icon-2" data-name="icon" transform="translate(18507.906 19850.906)">
      <rect id="Rectangle_20388" data-name="Rectangle 20388" width="44" height="44" transform="translate(-17585.906 -19172.906)" fill="none"/>
      <g id="Group_111987" data-name="Group 111987" transform="translate(-17581.752 -19168.752)">
        <g id="Group_110142" data-name="Group 110142" transform="translate(0 0)">
          <g transform="matrix(1, 0, 0, 1, -17.15, -17.15)" filter="url(#Path_37364)">
            <path id="Path_37364-2" data-name="Path 37364" d="M17.846,0a17.846,17.846,0,1,0,0,35.692c.273,0,.544-.008.815-.02l7.209-7.209,9.8-9.8c.012-.27.02-.542.02-.815A17.846,17.846,0,0,0,17.846,0" transform="translate(17.15 17.15)" fill="url(#linear-gradient)"/>
          </g>
          <g id="Mask_Group_110095" data-name="Mask Group 110095" clip-path="url(#clip-path)">
            <path id="Path_37366" data-name="Path 37366" d="M33.547,23.386A2.214,2.214,0,0,0,33.3,22.7a1.124,1.124,0,0,0-.588-.5.522.522,0,0,0-.052-.017H32.65l-.008,0h0a1.982,1.982,0,0,0-.651-.035,5.718,5.718,0,0,0-.746.119,9.949,9.949,0,0,0-1.864.625,7.132,7.132,0,0,0-3.09,2.437L26,25.168c-.155-.087-.292-.167-.422-.243-.25-.147-.471-.276-.738-.4a12.579,12.579,0,0,0-1.968-.662h0a11.759,11.759,0,0,0-2-.4c-.327-.029-.613-.028-.927-.027-.138,0-.282,0-.437,0l-.329,0a7.113,7.113,0,0,0-1.455-3.652,9.908,9.908,0,0,0-1.3-1.471,5.68,5.68,0,0,0-.587-.476,1.98,1.98,0,0,0-.581-.294h0l-.008,0h-.008l-.054-.011a1.128,1.128,0,0,0-.76.14,2.214,2.214,0,0,0-.557.467,7.408,7.408,0,0,0-.993,1.552,28.412,28.412,0,0,0-1.981,5.635A25.585,25.585,0,0,1,9.6,28.75l-4.715,10.1c2.727,6.373,8.251,10.028,15.633,10.028.274,0,.545-.008.816-.02l10.628-10.61-.041-3.533a25.475,25.475,0,0,1,.6-3.618,28.415,28.415,0,0,0,1.109-5.868,7.4,7.4,0,0,0-.082-1.84M18.231,30.962a1.831,1.831,0,0,1-.132.4,1.293,1.293,0,0,1-.126.222.768.768,0,0,1-.1.144,1.668,1.668,0,0,1-.319.3,1.363,1.363,0,0,1-.352.179.961.961,0,0,1-.719-.017,1.16,1.16,0,0,1-.6-.66,1.807,1.807,0,0,1,.321-1.789,1.613,1.613,0,0,1,.3-.27,1.312,1.312,0,0,1,.336-.169.985.985,0,0,1,.681.007,1.135,1.135,0,0,1,.626.63,1.282,1.282,0,0,1,.112.39,1.985,1.985,0,0,1-.023.627m7.592,2.065a1.825,1.825,0,0,1-.132.4,1.3,1.3,0,0,1-.126.222.768.768,0,0,1-.1.144,1.66,1.66,0,0,1-.319.3,1.363,1.363,0,0,1-.352.179.963.963,0,0,1-.719-.018,1.159,1.159,0,0,1-.6-.66,1.807,1.807,0,0,1,.321-1.789,1.613,1.613,0,0,1,.3-.27,1.3,1.3,0,0,1,.336-.168.985.985,0,0,1,.681.007,1.135,1.135,0,0,1,.626.629,1.273,1.273,0,0,1,.111.39,1.975,1.975,0,0,1-.023.627" transform="translate(-3.452 -12.372)" fill="url(#linear-gradient-2)"/>
          </g>
          <path id="Path_37365" data-name="Path 37365" d="M56.431,74.836h0L56.2,75.7Z" transform="translate(-39.757 -52.943)" fill="#f4f5f7"/>
          <path id="Path_37367" data-name="Path 37367" d="M87.125,44.241c.147,2.111,1.464-4.96,1.339-5.822-.1-.69-3.631.536-4.193,2.631.742.337,2.737,1.5,2.855,3.191" transform="translate(-59.622 -27.047)" opacity="0.7" fill="url(#linear-gradient-3)"/>
          <path id="Path_37368" data-name="Path 37368" d="M32.7,28.279c.947-1.4,3.258-1.416,4.069-1.337.562-2.1-1.883-4.921-2.315-4.374-.54.684-2.937,7.466-1.753,5.711" transform="translate(-22.908 -15.919)" opacity="0.7" fill="url(#linear-gradient-3)"/>
          <path id="Path_37369" data-name="Path 37369" d="M70.439,65.823a1.27,1.27,0,0,0-.112-.391A1.135,1.135,0,0,0,69.7,64.8a.983.983,0,0,0-.681-.007,1.317,1.317,0,0,0-.336.169,1.625,1.625,0,0,0-.3.271,1.816,1.816,0,0,0-.383.758,1.8,1.8,0,0,0,.061,1.034,1.159,1.159,0,0,0,.6.661.958.958,0,0,0,.719.018,1.364,1.364,0,0,0,.352-.179,1.677,1.677,0,0,0,.319-.3.77.77,0,0,0,.1-.144,1.285,1.285,0,0,0,.127-.222,1.849,1.849,0,0,0,.132-.4,1.982,1.982,0,0,0,.023-.628" transform="translate(-48.078 -45.8)" fill="url(#linear-gradient-5)"/>
          <path id="Path_37370" data-name="Path 37370" d="M44.529,58.761a1.278,1.278,0,0,0-.112-.391,1.135,1.135,0,0,0-.626-.631.983.983,0,0,0-.681-.007,1.32,1.32,0,0,0-.336.169,1.624,1.624,0,0,0-.3.271,1.816,1.816,0,0,0-.383.758,1.8,1.8,0,0,0,.061,1.034,1.159,1.159,0,0,0,.6.661.958.958,0,0,0,.719.018,1.364,1.364,0,0,0,.353-.179,1.678,1.678,0,0,0,.319-.3.769.769,0,0,0,.1-.144,1.283,1.283,0,0,0,.126-.222,1.821,1.821,0,0,0,.132-.4,1.976,1.976,0,0,0,.023-.629" transform="translate(-29.748 -40.804)" fill="url(#linear-gradient-5)"/>
          <path id="Path_37371" data-name="Path 37371" d="M55.786,73.206a.686.686,0,0,0,.45-.057.446.446,0,0,0,.241-.232.063.063,0,0,0,0-.052.243.243,0,0,0-.083-.078,2.444,2.444,0,0,0-.956-.256.238.238,0,0,0-.111.026.063.063,0,0,0-.03.043.446.446,0,0,0,.092.321.68.68,0,0,0,.381.282l.021,0" transform="translate(-39.114 -51.312)" fill="#1c1f22"/>
          <path id="Path_37373" data-name="Path 37373" d="M71.006,73.6l9.817-9.817A17.864,17.864,0,0,0,63.785,80.823Z" transform="translate(-45.152 -45.152)" fill="url(#linear-gradient-7)"/>
          <path id="Union_168" data-name="Union 168" d="M2.142,2.363,1.41,1.34.234,1.93a.189.189,0,0,1-.072.014.166.166,0,0,1-.144-.091.157.157,0,0,1,.074-.214l1.235-.62.305-.91a.161.161,0,0,1,.305.105l-.3.891L2.4,2.173a.162.162,0,0,1-.039.229.166.166,0,0,1-.091.028A.156.156,0,0,1,2.142,2.363Z" transform="translate(14.796 21.966)" fill="url(#linear-gradient-8)"/>
          <path id="Union_167" data-name="Union 167" d="M.832,1.468A.307.307,0,0,1,.775,1.46a1.1,1.1,0,0,1-.61-.448A.833.833,0,0,1,.017.366.481.481,0,0,1,.228.086.564.564,0,0,1,.526,0,.215.215,0,0,1,.577,0a2.23,2.23,0,0,1,.564.095,2.093,2.093,0,0,1,.578.228.663.663,0,0,1,.215.22.446.446,0,0,1,.038.349.824.824,0,0,1-.448.486,1.075,1.075,0,0,1-.692.091Z" transform="translate(15.775 20.818)" fill="url(#linear-gradient-9)"/>
          <g id="Mask_Group_110094" data-name="Mask Group 110094" transform="translate(18.633 18.634)" clip-path="url(#clip-path-2)">
            <path id="Path_37376" data-name="Path 37376" d="M71.006,73.6l9.817-9.817A17.864,17.864,0,0,0,63.785,80.823Z" transform="translate(-62.988 -62.989)" fill="none" stroke="#8db1cf" stroke-linecap="round" stroke-width="0.5" stroke-dasharray="1 2"/>
          </g>
        </g>
      </g>
    </g>
  </g>
</svg>
