<?xml version="1.0" encoding="utf-8"?>
<!-- Generator: Adobe Illustrator 26.2.1, SVG Export Plug-In . SVG Version: 6.00 Build 0)  -->
<svg xmlns="http://www.w3.org/2000/svg" xmlns:xlink="http://www.w3.org/1999/xlink" width="230" height="136" viewBox="0 0 230 136">
<style type="text/css">
.st0{fill:#FC6271;}
.st1{fill:#FFFFFF;}
.st2{fill:#FF6271;}
.st3{fill:#FFDFE2;}
.st4{fill:#D0F4F1;}
.st5{fill:none;stroke:#A9D2FA;stroke-width:2.001;stroke-linecap:round;stroke-linejoin:round;stroke-miterlimit:4.0021;}

#hottracks1 {transform: translateX(1px) translateY(9px); animation:hottracks1 linear both infinite 3s;}
#hottracks2 {transform: translateX(36px) translateY(4px); animation:hottracks2 linear both infinite 3s;}
#hottracks3 {transform: translateX(69px) translateY(11px); animation:hottracks3 linear both infinite 3s;}
#hottracks4 {transform: translateX(102px) translateY(7px); animation:hottracks4 linear both infinite 3s;}
@keyframes hottracks1 {
0% {transform: translateX(1px) translateY(9px) }
10% {transform: translateX(1px) translateY(-15px)}
30% {transform: translateX(1px) translateY(9px)}
100% {transform: translateX(1px) translateY(9px)}
}
@keyframes hottracks2 {
0% {transform: translateX(36px) translateY(4px);}
5% {transform: translateX(36px) translateY(4px);}
20% {transform: translateX(36px) translateY(-12px);}
35% {transform: translateX(36px) translateY(4px);}
100% {transform: translateX(36px) translateY(4px);}
}
@keyframes hottracks3 {
0% {transform: translateX(69px) translateY(11px)}
15% {transform: translateX(69px) translateY(11px)}
25% {transform: translateX(69px) translateY(-3px)}
40% {transform: translateX(69px) translateY(11px)}
100% {transform: translateX(69px) translateY(11px)}
}
@keyframes hottracks4 {
0% {transform: translateX(102px) translateY(7px)}
20% {transform: translateX(102px) translateY(7px)}
30% {transform: translateX(102px) translateY(-3px)}
40% {transform: translateX(102px) translateY(9px)}
50% {transform: translateX(102px) translateY(7px)}
100% {transform: translateX(102px) translateY(7px)}
}

#tube {transform-origin: 9% 14.5%; transform: rotate(0); animation:tube linear both infinite 4s;}
@keyframes tube {
0% {transform: rotate(0)}
100% {transform: rotate(360deg)}
}

#water1 {animation:water1 both linear infinite 3s;}
#water2 {animation:water2 both linear infinite 3s;}
@keyframes water1 {
0% {opacity:0}
38% {opacity:0}
43% {opacity:1}
90% {opacity:1}
100% {opacity:0}
}
@keyframes water2 {
0% {opacity:0}
45% {opacity:0}
55% {opacity:1}
90% {opacity:1}
100% {opacity:0}
}

#cool1 {animation:cool1 both infinite linear 3s;stroke-dasharray:350;stroke-dashoffset:350;}	
#cool2 {animation:cool2 both infinite linear 3s;stroke-dasharray:100;stroke-dashoffset:100;}	
#cool3 {animation:cool3 both infinite linear 3s;stroke-dasharray:150;stroke-dashoffset:150;}	
@keyframes cool1 {
0% {stroke-dashoffset:350;}
35% {stroke-dashoffset: 0;}
90% {stroke-dashoffset: 0; opacity:1}
100% {stroke-dashoffset:0; opacity:0}
}
@keyframes cool2 {
0% {stroke-dashoffset:100;}
10% {stroke-dashoffset:100;}
30% {stroke-dashoffset:0;}
90% {stroke-dashoffset:0; opacity:1 }
100% {stroke-dashoffset:0; opacity:0 }
}
@keyframes cool3 {
0% {stroke-dashoffset:150}
30% {stroke-dashoffset:150}
45% {stroke-dashoffset:0;}
90% {stroke-dashoffset:0; opacity:1 }
100% {stroke-dashoffset:0; opacity:0 }
}
</style>
<g id="LOGO" transform="translate(55.677 43.805)">
	<g id="logo" transform="translate(-2.318 17.37)">
		<g id="hottracks1" transform="translate(1.279 8.954)">
			<path id="Path_36273" class="st0" d="M17.8,29.8c1.2,1.2,4.3,4.3,6.9,6.9h6.1l-13-13l-13,13h6.1C13.3,34.2,16.4,31.1,17.8,29.8"
				/>
			<path id="Path_39723" class="st0" d="M16.9,6.3h2.4v-4h-7V0H7.5v2.4H0.5v4h2.4C-1,10.2-0.9,16.5,3,20.3s10.1,3.7,13.9-0.2
				C20.7,16.3,20.7,10.1,16.9,6.3 M9.9,18.9c-3.1,0-5.7-2.5-5.7-5.7c0-3.1,2.5-5.7,5.7-5.7s5.7,2.5,5.7,5.7c0,0,0,0,0,0
				C15.5,16.3,13,18.9,9.9,18.9"/>
			<path id="Path_39724" class="st0" d="M28,11.2h3.4v-4H28V1.8h-4.8v21.1H28V11.2z"/>
			<path id="Path_39854" class="st1" d="M6.2,5.3c-1.6,0.8-3,2-4,3.6C2,9.2,2.1,9.6,2.4,9.8C2.8,10,3.2,9.9,3.4,9.6
				C3.5,9.4,3.6,9.2,3.7,9l0.1-0.1c0,0,0.1-0.1,0.1-0.1l0.1-0.1L4,8.6C4.3,8.3,4.6,8,4.9,7.8C5,7.7,5,7.6,5.1,7.6
				c0,0,0.1-0.1,0.1-0.1c0,0,0.1-0.1,0.1-0.1s0.1-0.1,0.1-0.1l0.1-0.1c0.1-0.1,0.2-0.1,0.2-0.2c0.3-0.2,0.7-0.4,1.1-0.6
				c0.3-0.2,0.4-0.6,0.2-0.9C6.9,5.2,6.5,5.1,6.2,5.3"/>
			<path id="Path_39855" class="st1" d="M25.6,17.9v2.7c0,0.4,0.3,0.7,0.7,0.7c0.4,0,0.7-0.3,0.7-0.7c0,0,0,0,0-0.1v-2.7
				c0-0.4-0.3-0.7-0.7-0.7C26,17.1,25.6,17.4,25.6,17.9C25.6,17.8,25.6,17.8,25.6,17.9"/>
			<path id="Path_39858" class="st1" d="M15.8,28.6c0.7-0.5,1.3-1.1,1.9-1.7c0.3-0.3,0.3-0.7,0-1c-0.3-0.3-0.7-0.3-1,0
				c-0.6,0.6-1.3,1.2-1.9,1.7c-0.1,0.1-0.2,0.3-0.2,0.5c0,0.2,0.1,0.4,0.2,0.5c0.1,0.1,0.3,0.2,0.5,0.2
				C15.5,28.8,15.7,28.8,15.8,28.6"/>
		</g>
		<g id="hottracks2" transform="translate(36.199 4.233)">
			<rect id="Rectangle_3417" x="0" y="28.7" class="st0" width="28.8" height="4"/>
			<path id="Path_39725" class="st0" d="M3.5,0h21.4v3.7h-17v4.5h17v3.7h-17v4.9h17v3.7H3.5V0z"/>
			<path id="Path_39856" class="st1" d="M8.2,0.6H4.8C4.4,0.7,4.1,1,4.1,1.3C4.1,1.7,4.4,2,4.8,2h3.4c0.4,0,0.7-0.3,0.7-0.7
				C8.9,1,8.6,0.7,8.2,0.6"/>
			<path id="Path_39857" class="st1" d="M4.1,1.8v2c0,0.4,0.3,0.7,0.7,0.7c0.4,0,0.7-0.3,0.7-0.7c0,0,0,0,0-0.1v-2
				c0-0.4-0.3-0.7-0.7-0.7C4.4,1.1,4.1,1.3,4.1,1.8C4.1,1.7,4.1,1.8,4.1,1.8"/>
			<path id="Path_39859" class="st1" d="M1.3,30.7h3.4c0.4,0,0.7-0.3,0.7-0.7c0-0.4-0.3-0.6-0.7-0.7H1.3c-0.4,0-0.7,0.3-0.7,0.7
				C0.5,30.3,0.8,30.6,1.3,30.7C1.2,30.7,1.2,30.7,1.3,30.7"/>
		</g>
		<g id="hottracks3" transform="translate(69.212 10.742)">
			<path id="Path_36269" class="st0" d="M22.7,0v5.5h-2.3V0h-4.1v21.1h4.1V9.5h2.3v11.6h4.1V0H22.7z"/>
			<path id="Path_36270" class="st0" d="M3.3,27h18.8v7.9h4.8V23H3.3V27z"/>
			<path id="Path_36271" class="st0" d="M4.3,15.5v-3.8h9.5V0H0v4h9.4v3.8H0v11.7h13.8v-4H4.3z"/>
			<path id="Path_39860" class="st1" d="M1,1.8h2.8c0.4,0,0.7-0.3,0.7-0.7c0-0.4-0.3-0.6-0.7-0.7H1c-0.4,0-0.7,0.3-0.7,0.7
				C0.3,1.5,0.6,1.8,1,1.8"/>
			<path id="Path_39861" class="st1" d="M9.8,18.4h1.7c0.4,0,0.7-0.3,0.7-0.7c0-0.4-0.3-0.7-0.7-0.7c0,0,0,0-0.1,0H9.8
				c-0.4,0-0.7,0.3-0.7,0.7C9.2,18.1,9.5,18.4,9.8,18.4"/>
			<path id="Path_39864" class="st1" d="M25,31.7c0,0.4,0,0.8,0,1.2l0-0.2c0,0.1,0,0.1,0,0.2c0-0.1,0-0.1,0.1-0.2c0,0,0,0,0,0.1
				c0,0,0.1-0.1,0.1-0.1c0,0,0,0,0,0l0.1-0.1c0,0,0,0-0.1,0l0.2-0.1c0,0-0.1,0-0.1,0c0.1,0,0.1,0,0.2,0c-0.3,0-0.5,0-0.8,0h-0.8
				c-0.4,0-0.7,0.3-0.7,0.7c0,0.4,0.3,0.7,0.7,0.7c0,0,0,0,0.1,0h0.9c0.4,0,0.8,0,1.1-0.1c0.4-0.2,0.5-0.7,0.5-1.2
				c0-0.3,0-0.6,0-0.9c0-0.2-0.1-0.4-0.2-0.5c-0.3-0.3-0.7-0.3-1,0C25.1,31.4,25,31.5,25,31.7"/>
		</g>
		<g id="hottracks4" transform="translate(101.691 6.426)">
			<path id="Path_36274" class="st0" d="M13.8,8.7l7.9,13.7h5L13.8,0L1,22.4h5C8.3,18.2,12.1,11.7,13.8,8.7"/>
			<rect id="Rectangle_21622" x="0" y="29" class="st0" width="28.8" height="4"/>
			<path id="Path_39865" class="st1" d="M12,3.5c-0.8,1.3-1.5,2.7-2.1,4.1c-0.2,0.3-0.1,0.7,0.3,0.9c0.3,0.2,0.7,0.1,0.9-0.2
				c0.7-1.4,1.4-2.7,2.1-4.1c0.2-0.3,0.1-0.7-0.3-0.9C12.6,3.1,12.2,3.2,12,3.5"/>
			<path id="Path_39866" class="st1" d="M26.6,29.9c0,0.4,0,0.8,0,1.2l0-0.2c0,0.1,0,0.1,0,0.2c0-0.1,0-0.1,0.1-0.2c0,0,0,0,0,0.1
				c0,0,0.1-0.1,0.1-0.1c0,0,0,0,0,0l0.1-0.1c0,0,0,0-0.1,0l0.2-0.1c0,0-0.1,0-0.1,0c0.1,0,0.1,0,0.2,0c-0.3,0-0.5,0-0.8,0h-0.8
				c-0.4,0-0.7,0.3-0.7,0.7c0,0.4,0.3,0.6,0.7,0.7h0.9c0.4,0,0.8,0,1.1-0.1c0.4-0.3,0.5-0.7,0.5-1.2c0-0.3,0-0.6,0-0.9
				c0-0.2-0.1-0.4-0.2-0.5c-0.3-0.3-0.7-0.3-1,0C26.7,29.6,26.6,29.8,26.6,29.9"/>
		</g>
	</g>
	<g id="Tube" transform="translate(130.694 22.251)">
		<g id="tube">
			<path id="Path_39875_00000087390539216586414720000000271262829816360887_" class="st2" d="M28.1,1.8c-10-4.5-21.8-0.1-26.3,9.9
				S1.7,33.4,11.6,38c10,4.5,21.8,0.1,26.3-9.9C42.5,18.1,38.1,6.3,28.1,1.8C28.1,1.8,28.1,1.8,28.1,1.8 M16.7,26.8
				c-3.8-1.7-5.5-6.3-3.8-10.1S19.2,11.2,23,13c3.8,1.7,5.5,6.3,3.8,10.1C25.1,26.9,20.5,28.5,16.7,26.8
				C16.7,26.8,16.7,26.8,16.7,26.8"/>
			<path id="Path_39876_00000080169814465167537730000017277080796200464516_" class="st3" d="M20.6,39.7L22,27.2
				c-2.5,0.7-5.3,0.1-7.2-1.6l-5.7,11c0.8,0.5,1.7,1,2.6,1.4C14.5,39.3,17.5,39.9,20.6,39.7"/>
			<path id="Path_39877_00000039117156564850232050000015068419799827033481_" class="st3" d="M36.4,8.8c-3.6,2-6.9,4.4-10,7.1
				c1.1,1.8,1.4,3.9,0.8,5.9l12.4,0.2C40.2,17.4,39,12.7,36.4,8.8"/>
			<path id="Path_39878_00000048462234176497052830000004392061917898135444_" class="st3" d="M12.4,18.5c0.4-2.4,2.1-4.5,4.3-5.5
				L11.2,2C7,4,3.7,7.4,1.8,11.6c-0.4,0.9-0.7,1.8-1,2.7C4.9,14.9,8.9,16.3,12.4,18.5"/>
			<path id="Path_39879_00000068638903985906397010000000955847965193640886_" class="st1" d="M15.7,2.6c-2.6,0.4-5,1.6-6.8,3.5
				C8.3,6.7,7.9,7.4,7.5,8.1C7.2,8.7,8,9.2,8.3,8.6c1.2-2.3,3.3-4,5.8-4.7c0.6-0.2,1.2-0.3,1.9-0.4c0.3-0.1,0.4-0.3,0.3-0.6
				C16.3,2.6,16,2.5,15.7,2.6"/>
			<path id="Path_39880_00000057140338615936219770000008602459187688210564_" class="st1" d="M5.8,10.9c-0.7,0.8-1.1,1.8-1,2.9
				c0,0.3,0.2,0.5,0.5,0.5c0.3,0,0.5-0.2,0.5-0.5c0,0,0,0,0-0.1c0-0.1,0-0.2,0-0.3c0-0.1,0-0.1,0-0.2c0-0.1,0-0.1,0,0
				c0,0,0-0.1,0-0.1c0-0.2,0.1-0.4,0.2-0.6c0-0.1,0-0.1,0.1-0.2c0-0.1,0-0.1,0,0l0-0.1c0-0.1,0.1-0.2,0.1-0.3c0-0.1,0.1-0.2,0.2-0.3
				c0,0,0.1-0.1,0.1-0.1c-0.1,0.1,0-0.1,0.1-0.1c0.2-0.2,0.2-0.5,0-0.7C6.3,10.7,6,10.7,5.8,10.9"/>
			<path id="Path_39881_00000060741397493062396380000009020213201953416843_" class="st1" d="M19.2,36.6c1.3,0.3,2.6,0.2,3.8-0.2
				c1.5-0.4,2.8-0.9,4.2-1.6c0.7-0.4,1.4-0.8,2-1.3c0.2-0.1,0.3-0.4,0.2-0.7c-0.1-0.2-0.4-0.3-0.7-0.2c-1.1,0.8-2.3,1.5-3.5,2
				c-1.2,0.5-2.5,0.9-3.9,1c-0.6,0.1-1.2,0-1.8-0.1c-0.3-0.1-0.5,0.1-0.6,0.4C18.8,36.3,18.9,36.5,19.2,36.6"/>
		</g>
	</g>
	<g id="Water" transform="translate(117.463 13.108) rotate(-14)">
		<path id="water1" class="st4" d="M3.3,11.3c-0.1,0.4-0.4,0.7-0.8,0.6c-0.2,0-0.4-0.1-0.5-0.3C0.3,9.3-0.3,6.4,0.2,3.6
			c1.6-6.5,8.4-3.2,5.9,1C4.8,6.7,3.9,9,3.3,11.3"/>	
		<path id="water2" class="st4" d="M7.3,14.5c-0.6,0.4-1.3,0.2-1.7-0.4c-0.2-0.3-0.2-0.7-0.2-1c0.9-3.4,3.1-8.5,8.2-11.2
			c10.1-5.3,13.5,7.1,5.4,8.7C14.2,11.6,10,12.8,7.3,14.5"/>
	</g>
	<g id="Cool" transform="matrix(0.995, 0.105, -0.105, 0.995, -46.038, -43.805)">
		<path id="cool1" class="st5" d="M24.6,35C10.3,40,0.1,60.4,2.7,74.3c0.7,4.5,3.1,8.5,6.6,11.3c3.6,2.7,8.6,3.5,12.6,1.6
			c1.4-0.7,2.6-1.6,3.7-2.7c3-2.9,5.1-6.7,6.1-10.8"/>
		<path id="cool2" class="st5" d="M35.8,59.3c-3,3.3-4.4,7.7-4,12.1c0,0.5,0.2,0.9,0.4,1.3c0.5,0.5,1.3,0.7,2,0.6
			c4.5-0.5,7-6,6.6-10.5c0-1.2-0.4-2.3-1.2-3.2c-0.8-0.9-2.2-0.9-3-0.1c0,0,0,0,0,0c6-3.2,11.3-7.5,15.7-12.6
			c-0.9,1.9-1.5,3.9-1.8,5.9c-0.4,2.6-0.1,5.7,2.1,7.1c1.8,1,4.1,0.8,5.7-0.5c1.5-1.3,2.5-3.2,2.8-5.2c0.4-2.1,0.2-4.4-1.2-5.9
			s-4.3-1.7-5.4,0"/>
		<path id="cool3" class="st5" d="M61,50.1c1.9,1.8,4.9,2.7,7.2,1.4c2.1-1.2,2.9-3.8,3.4-6.2c0.6-2.8,1-5.6,1.3-8.5
			c0.4-4.3,2.5-37.9-5.9-34.4C64.1,3.6,64,9.8,64,12.3c0,8.2,0.4,18.4,6.1,25c2.9,3.4,6.1,5.6,10.7,4.8c5.3-1.1,9.9-4.2,12.9-8.7
			c4.1-5.9,5.6-13.3,6.5-20.5"/>
	</g>
</g>
</svg>
