<svg xmlns="http://www.w3.org/2000/svg" xmlns:xlink="http://www.w3.org/1999/xlink" width="53" height="53" viewBox="0 0 53 53">
  <defs>
    <clipPath id="clip-path">
      <rect id="사각형_3412" data-name="사각형 3412" width="23.653" height="19.225" fill="none"/>
    </clipPath>
  </defs>
  <g id="트위터" transform="translate(-1778 -889.001)">
    <circle id="타원_37" data-name="타원 37" cx="26.5" cy="26.5" r="26.5" transform="translate(1778 889.001)" fill="#55c3f1"/>
    <g id="icon_twitter" transform="translate(1792.906 905.564)">
      <g id="그룹_1781" data-name="그룹 1781" clip-path="url(#clip-path)">
        <path id="패스_36263" data-name="패스 36263" d="M7.439,19.225A13.715,13.715,0,0,0,21.248,5.415c0-.21,0-.419-.014-.627a9.835,9.835,0,0,0,2.42-2.513,9.726,9.726,0,0,1-2.786.764A4.885,4.885,0,0,0,23,.355,9.772,9.772,0,0,1,19.92,1.534a4.853,4.853,0,0,0-8.394,3.318A4.977,4.977,0,0,0,11.65,5.96a13.791,13.791,0,0,1-10-5.071,4.856,4.856,0,0,0,1.5,6.478,4.817,4.817,0,0,1-2.2-.608c0,.022,0,.041,0,.062a4.854,4.854,0,0,0,3.892,4.758,4.863,4.863,0,0,1-1.277.171,4.808,4.808,0,0,1-.913-.089,4.86,4.86,0,0,0,4.533,3.372,9.734,9.734,0,0,1-6.028,2.077A9.837,9.837,0,0,1,0,17.043a13.723,13.723,0,0,0,7.439,2.181" fill="#fff"/>
      </g>
    </g>
  </g>
</svg>
