<svg xmlns="http://www.w3.org/2000/svg" xmlns:xlink="http://www.w3.org/1999/xlink" width="53" height="53" viewBox="0 0 53 53">
  <defs>
    <clipPath id="clip-path">
      <rect id="사각형_3819" data-name="사각형 3819" width="16.403" height="31" fill="#fff"/>
    </clipPath>
  </defs>
  <g id="그룹_109428" data-name="그룹 109428" transform="translate(-292 -299)">
    <g id="더보기" transform="translate(20)">
      <rect id="사각형_295" data-name="사각형 295" width="53" height="53" rx="26.5" transform="translate(272 299)" fill="#b98dff"/>
    </g>
    <g id="그룹_109425" data-name="그룹 109425" transform="translate(335.158 317) rotate(90)">
      <g id="그룹_109425-2" data-name="그룹 109425" transform="translate(0 1.158)" clip-path="url(#clip-path)">
        <path id="패스_36689" data-name="패스 36689" d="M10.634,8.758a6.921,6.921,0,0,1,.9.065V5.769A5.769,5.769,0,1,0,0,5.769v9.453a5.769,5.769,0,0,0,11.538,0v-1.7a2.382,2.382,0,0,0-2.085.132v1.565a3.684,3.684,0,0,1-7.368,0V5.769a3.684,3.684,0,0,1,7.368,0v3.1a6.974,6.974,0,0,1,1.181-.107" transform="translate(0 0)" fill="#fff"/>
        <path id="패스_36690" data-name="패스 36690" d="M16.155,19.811l-.04-.006c-.12-.015-.225-.024-.328-.034-.139-.009-.278-.02-.419-.02-.162,0-.322.01-.48.024s-.319.038-.489.066l-.258.044A5.769,5.769,0,0,0,9.6,25.521v1.691a2.333,2.333,0,0,0,2.086-.133V25.521a3.679,3.679,0,0,1,1.251-2.76v-.095l.59-.331a3.728,3.728,0,0,1,.879-.365l.075-.02a3.3,3.3,0,0,1,.348-.067l.1-.017a3.8,3.8,0,0,1,.39-.025c.014,0,.028,0,.043,0,.121,0,.241.007.358.019a3.693,3.693,0,0,1,1.128.295l.674.274v.117a3.679,3.679,0,0,1,1.529,2.981v9.451a3.684,3.684,0,1,1-7.367,0v-3.1a6.788,6.788,0,0,1-1.18.112h0a7,7,0,0,1-.9-.066v3.053a5.769,5.769,0,1,0,11.538,0V25.521a5.766,5.766,0,0,0-4.982-5.71" transform="translate(-4.734 -9.741)" fill="#fff"/>
      </g>
    </g>
  </g>
</svg>
