<svg xmlns="http://www.w3.org/2000/svg" width="53" height="53" viewBox="0 0 53 53">
  <g id="라인" transform="translate(-198 -201)">
    <circle id="Bg" cx="26.5" cy="26.5" r="26.5" transform="translate(198 201)" fill="#00c300"/>
    <path id="logo" d="M373.551,139.951a.5.5,0,0,1-.4-.156,1.108,1.108,0,0,1-.077-.835l.006-.035c.039-.228.212-1.28.213-1.289a2.926,2.926,0,0,0-.048-1.361c-.165-.414-.808-.633-1.317-.743a15.989,15.989,0,0,1-8.951-4.122,11.011,11.011,0,0,1-3.56-7.935c0-6.738,6.711-12.22,14.96-12.22s14.96,5.482,14.96,12.22a10.966,10.966,0,0,1-3.208,7.519,37.219,37.219,0,0,1-6.454,5.482,39.922,39.922,0,0,1-5.3,3.262A2.251,2.251,0,0,1,373.551,139.951Zm7.033-20.031a.788.788,0,0,0-.784.789v5.984a.788.788,0,0,0,.784.79h2.973a.79.79,0,0,0,0-1.58h-2.187v-1.412h2.187a.79.79,0,0,0,0-1.58h-2.187V121.5h2.187a.789.789,0,0,0,0-1.579Zm-6.3,3.072,0,0,3.044,4.173a.783.783,0,0,0,1.412-.474V120.71a.784.784,0,1,0-1.568,0v3.7l-3.047-4.176a.783.783,0,0,0-1.412.474v5.984a.785.785,0,1,0,1.569,0v-3.7Zm-3.481-3.072a.788.788,0,0,0-.784.789v5.984a.784.784,0,1,0,1.567,0V120.71A.787.787,0,0,0,370.808,119.921Zm-5.263,0a.788.788,0,0,0-.784.789v5.984a.788.788,0,0,0,.784.79h2.973a.79.79,0,0,0,0-1.58h-2.188V120.71A.788.788,0,0,0,365.545,119.921Z" transform="translate(-149.874 101.746)" fill="#fff"/>
  </g>
</svg>
