<svg xmlns="http://www.w3.org/2000/svg" width="53" height="53" viewBox="0 0 53 53">
  <g id="밴드" transform="translate(-268 -201)">
    <circle id="Bg" cx="26.5" cy="26.5" r="26.5" transform="translate(268 201)" fill="#e60022"/>
    <path id="pinterest-p-brands" d="M10.628,6.5C5.283,6.5,0,10.064,0,15.831c0,3.668,2.063,5.752,3.313,5.752.516,0,.813-1.438.813-1.844,0-.485-1.235-1.516-1.235-3.532a7.041,7.041,0,0,1,7.315-7.158c3.548,0,6.174,2.016,6.174,5.72,0,2.766-1.11,7.955-4.7,7.955a2.313,2.313,0,0,1-2.407-2.282c0-1.969,1.375-3.876,1.375-5.908,0-3.449-4.892-2.824-4.892,1.344a6.121,6.121,0,0,0,.5,2.641c-.719,3.095-2.188,7.705-2.188,10.894,0,.985.141,1.954.234,2.938.177.2.089.177.359.078,2.626-3.595,2.532-4.3,3.72-9a4.226,4.226,0,0,0,3.61,1.876c5.533,0,8.018-5.392,8.018-10.253C20.006,9.876,15.536,6.5,10.628,6.5Z" transform="translate(284.497 207.999)" fill="#fff"/>
  </g>
</svg>
