<svg xmlns="http://www.w3.org/2000/svg" width="53" height="53" viewBox="0 0 53 53">
  <g id="카카오톡" transform="translate(-49 -201)">
    <circle id="Bg" cx="26.5" cy="26.5" r="26.5" transform="translate(49 201)" fill="#fae100"/>
    <g id="logo" transform="translate(9.51 144.555)">
      <path id="패스_13717" data-name="패스 13717" d="M66.864,69.741c-7.761,0-14.052,4.973-14.052,11.109,0,3.993,2.665,7.494,6.667,9.452-.294,1.1-1.065,3.975-1.218,4.59-.191.764.279.754.588.55.242-.161,3.85-2.616,5.408-3.675a17.762,17.762,0,0,0,2.609.192c7.761,0,14.052-4.973,14.052-11.109S74.625,69.741,66.864,69.741" transform="translate(0 0)" fill="#2a1617"/>
    </g>
  </g>
</svg>
