<svg xmlns="http://www.w3.org/2000/svg" xmlns:xlink="http://www.w3.org/1999/xlink" width="379" height="287.997" viewBox="0 0 379 287.997">
  <defs>
    <filter id="빼기_7" x="0" y="0" width="379" height="287.997" filterUnits="userSpaceOnUse">
      <feOffset dx="3" dy="3" input="SourceAlpha"/>
      <feGaussianBlur result="blur"/>
      <feFlood flood-color="#eaeaea"/>
      <feComposite operator="in" in2="blur"/>
      <feComposite in="SourceGraphic"/>
    </filter>
  </defs>
  <g id="그룹_112942" data-name="그룹 112942" transform="translate(-5922 4742.999)">
    <g transform="matrix(1, 0, 0, 1, 5922, -4743)" filter="url(#빼기_7)">
      <g id="빼기_7-2" data-name="빼기 7" transform="translate(-20141 -16011)" fill="#fff">
        <path d="M 20504.998046875 16294.998046875 L 20153 16294.998046875 C 20146.935546875 16294.998046875 20142.001953125 16290.064453125 20142.001953125 16284 L 20142.001953125 16241.9541015625 C 20142.333984375 16241.984375 20142.66796875 16241.9990234375 20143.001953125 16241.9990234375 C 20149.06640625 16241.9990234375 20154 16237.064453125 20154 16231 C 20154 16224.935546875 20149.06640625 16220.0009765625 20143.001953125 16220.0009765625 C 20142.66796875 16220.0009765625 20142.333984375 16220.015625 20142.001953125 16220.0458984375 L 20142.001953125 16022.9990234375 C 20142.001953125 16016.9345703125 20146.935546875 16012.0009765625 20153 16012.0009765625 L 20504.998046875 16012.0009765625 C 20507.9375 16012.0009765625 20510.701171875 16013.1455078125 20512.779296875 16015.22265625 C 20514.857421875 16017.2998046875 20516.001953125 16020.0615234375 20516.001953125 16022.9990234375 L 20516.001953125 16220.0458984375 C 20510.400390625 16220.5537109375 20505.998046875 16225.2734375 20505.998046875 16231 C 20505.998046875 16236.728515625 20510.400390625 16241.447265625 20516.001953125 16241.9541015625 L 20516.001953125 16284 C 20516.001953125 16286.9375 20514.857421875 16289.69921875 20512.779296875 16291.7763671875 C 20510.701171875 16293.853515625 20507.9375 16294.998046875 20504.998046875 16294.998046875 Z" stroke="none"/>
        <path d="M 20504.998046875 16293.998046875 C 20507.669921875 16293.998046875 20510.18359375 16292.9580078125 20512.072265625 16291.0693359375 C 20513.9609375 16289.1806640625 20515.001953125 16286.669921875 20515.001953125 16284 L 20515.001953125 16242.83203125 C 20509.33203125 16241.8779296875 20504.998046875 16236.935546875 20504.998046875 16231 C 20504.998046875 16225.0654296875 20509.33203125 16220.123046875 20515.001953125 16219.16796875 L 20515.001953125 16022.9990234375 C 20515.001953125 16020.3291015625 20513.9609375 16017.818359375 20512.072265625 16015.9306640625 C 20510.18359375 16014.041015625 20507.669921875 16013.0009765625 20504.998046875 16013.0009765625 L 20153 16013.0009765625 C 20147.486328125 16013.0009765625 20143.001953125 16017.486328125 20143.001953125 16022.9990234375 L 20143.001953125 16219.0009765625 C 20149.6171875 16219.0009765625 20155 16224.3837890625 20155 16231 C 20155 16237.6162109375 20149.6171875 16242.9990234375 20143.001953125 16242.9990234375 L 20143.001953125 16284 C 20143.001953125 16289.5126953125 20147.486328125 16293.998046875 20153 16293.998046875 L 20504.998046875 16293.998046875 M 20504.998046875 16295.998046875 L 20153 16295.998046875 C 20146.384765625 16295.998046875 20141.001953125 16290.6162109375 20141.001953125 16284 L 20141.001953125 16240.7998046875 C 20141.654296875 16240.931640625 20142.326171875 16240.9990234375 20143.001953125 16240.9990234375 C 20148.515625 16240.9990234375 20153 16236.513671875 20153 16231 C 20153 16225.486328125 20148.515625 16221.0009765625 20143.001953125 16221.0009765625 C 20142.326171875 16221.0009765625 20141.65234375 16221.068359375 20141.001953125 16221.201171875 L 20141.001953125 16022.9990234375 C 20141.001953125 16016.3828125 20146.384765625 16011.0009765625 20153 16011.0009765625 L 20504.998046875 16011.0009765625 C 20508.205078125 16011.0009765625 20511.21875 16012.2490234375 20513.486328125 16014.515625 C 20515.75390625 16016.7822265625 20517.001953125 16019.794921875 20517.001953125 16022.9990234375 L 20517.001953125 16221.0009765625 C 20511.484375 16221.001953125 20506.998046875 16225.4873046875 20506.998046875 16231 C 20506.998046875 16236.513671875 20511.484375 16240.9990234375 20517.001953125 16240.9990234375 L 20517.001953125 16284 C 20517.001953125 16287.2041015625 20515.75390625 16290.216796875 20513.486328125 16292.4833984375 C 20511.21875 16294.75 20508.205078125 16295.998046875 20504.998046875 16295.998046875 Z" stroke="none" fill="#eaeaea"/>
      </g>
    </g>
    <path id="빼기_6" data-name="빼기 6" d="M20505,16084h-352a12.012,12.012,0,0,1-12-12v-41a11.942,11.942,0,0,1,.2-2.162,10,10,0,0,0,11.8-9.837h352a12.145,12.145,0,0,1,2,.166,9.957,9.957,0,0,0,9.836,9.832,12.134,12.134,0,0,1,.166,2v41a12,12,0,0,1-12,12Z" transform="translate(-14219.002 -20542)" fill="#f2f2f2"/>
    <g id="빼기_5" data-name="빼기 5" transform="translate(-14219.002 -20752)" fill="none">
      <path d="M20505,16294h-352a12.012,12.012,0,0,1-12-12v-43.2a10,10,0,1,0,0-19.6V16021a12.012,12.012,0,0,1,12-12h352a12,12,0,0,1,12,12v198a10,10,0,1,0,0,20v43a12,12,0,0,1-12,12Z" stroke="none"/>
      <path d="M 20504.998046875 16291.9990234375 C 20507.669921875 16291.9990234375 20510.18359375 16290.958984375 20512.072265625 16289.0703125 C 20513.9609375 16287.181640625 20515.001953125 16284.6708984375 20515.001953125 16282.0009765625 L 20515.001953125 16240.833984375 C 20509.33203125 16239.8798828125 20504.998046875 16234.9365234375 20504.998046875 16229.0009765625 C 20504.998046875 16223.06640625 20509.33203125 16218.1240234375 20515.001953125 16217.1689453125 L 20515.001953125 16021 C 20515.001953125 16018.330078125 20513.9609375 16015.8193359375 20512.072265625 16013.9306640625 C 20510.18359375 16012.0419921875 20507.669921875 16011.001953125 20504.998046875 16011.001953125 L 20153 16011.001953125 C 20147.486328125 16011.001953125 20143.001953125 16015.4873046875 20143.001953125 16021 L 20143.001953125 16217.001953125 C 20149.6171875 16217.001953125 20155 16222.384765625 20155 16229.0009765625 C 20155 16235.6181640625 20149.6171875 16241.0009765625 20143.001953125 16241.0009765625 L 20143.001953125 16282.0009765625 C 20143.001953125 16287.513671875 20147.486328125 16291.9990234375 20153 16291.9990234375 L 20504.998046875 16291.9990234375 M 20504.998046875 16293.9990234375 L 20153 16293.9990234375 C 20146.384765625 16293.9990234375 20141.001953125 16288.6171875 20141.001953125 16282.0009765625 L 20141.001953125 16238.80078125 C 20141.65625 16238.93359375 20142.328125 16239.0009765625 20143.001953125 16239.0009765625 C 20148.515625 16239.0009765625 20153 16234.5146484375 20153 16229.0009765625 C 20153 16223.4873046875 20148.515625 16219.001953125 20143.001953125 16219.001953125 C 20142.33203125 16219.001953125 20141.658203125 16219.0693359375 20141.001953125 16219.2021484375 L 20141.001953125 16021 C 20141.001953125 16014.3837890625 20146.384765625 16009.001953125 20153 16009.001953125 L 20504.998046875 16009.001953125 C 20508.205078125 16009.001953125 20511.21875 16010.25 20513.486328125 16012.5166015625 C 20515.75390625 16014.783203125 20517.001953125 16017.7958984375 20517.001953125 16021 L 20517.001953125 16219.001953125 C 20511.484375 16219.0029296875 20506.998046875 16223.48828125 20506.998046875 16229.0009765625 C 20506.998046875 16234.5146484375 20511.484375 16239.0009765625 20517.001953125 16239.0009765625 L 20517.001953125 16282.0009765625 C 20517.001953125 16285.205078125 20515.75390625 16288.2177734375 20513.486328125 16290.484375 C 20511.21875 16292.7509765625 20508.205078125 16293.9990234375 20504.998046875 16293.9990234375 Z" stroke="none" fill="#eaeaea"/>
    </g>
    <path id="패스_37909" data-name="패스 37909" d="M0,0H353" transform="translate(5934.498 -4523)" fill="none" stroke="#eaeaea" stroke-width="2" stroke-dasharray="2 2"/>
    <g id="그룹_112919" data-name="그룹 112919" transform="translate(5530.5 -6951.5)" opacity="0.5">
      <path id="icon_download_h10" d="M20816.8,19244a.8.8,0,1,1,0-1.607h14.4a.8.8,0,0,1,0,1.607Zm6.629-3.2-4.793-4.8a.8.8,0,0,1,1.133-1.141l3.43,3.434v-9.492a.8.8,0,1,1,1.6,0v9.492l3.428-3.434a.8.8,0,0,1,1.135,1.141l-4.793,4.8a.85.85,0,0,1-.574.236A.839.839,0,0,1,20823.43,19240.8Z" transform="translate(-20275.996 -16774.5)"/>
    </g>
    <text id="다이어리_신상_할인_쿠폰" data-name="다이어리 신상 할인 쿠폰" transform="translate(5962 -4650.998)" font-size="20" font-family="NotoSansCJKkr-Bold, Noto Sans CJK KR" font-weight="700" letter-spacing="-0.01em" opacity="0"><tspan x="0" y="0">다이어리 신상 할인 쿠폰</tspan></text>
    <text id="_20_" data-name="20%" transform="translate(5962 -4712.998)" font-size="30" font-family="Roboto-Bold, Roboto" font-weight="700" letter-spacing="-0.01em" opacity="0"><tspan x="0" y="31">20%</tspan></text>
    <text id="_1만원_이상_구매_시_사용_가능_만료일자_:_2021.11.25" data-name="1만원 이상 구매 시 사용 가능
만료일자 : 2021.11.25" transform="translate(5962 -4634.998)" font-size="14" font-family="NotoSansCJKkr-Regular, Noto Sans CJK KR" letter-spacing="-0.01em" opacity="0"><tspan x="0" y="16">1만원 이상 구매 시 사용 가능</tspan><tspan x="0" y="38">만료일자 : 2021.11.25</tspan></text>
    <text id="_쿠폰을_다운받으면_자동으로_적용됩니다." data-name="* 쿠폰을 다운받으면 자동으로 적용됩니다." transform="translate(5962 -4580.998)" font-size="12" font-family="NotoSansCJKkr-Regular, Noto Sans CJK KR" letter-spacing="-0.01em" opacity="0"><tspan x="0" y="14">* 쿠폰을 다운받으면 자동으로 적용됩니다.</tspan></text>
  </g>
</svg>
