<svg xmlns="http://www.w3.org/2000/svg" width="18.001" height="18" viewBox="0 0 18.001 18">
  <g id="icon" transform="translate(-586 -438.014)">
    <g id="heart" transform="translate(586 439.971)" fill="none">
      <path d="M5.118,0a5.375,5.375,0,0,1,3.8,1.631.049.049,0,0,0,.067,0A5.375,5.375,0,0,1,12.8,0,4.814,4.814,0,0,1,13.3.026c5.121.524,5.652,6.648,3.176,8.911L10.2,14.472a1.872,1.872,0,0,1-2.477,0L1.433,8.938C-1.042,6.674-.512.55,4.61.026A4.814,4.814,0,0,1,5.118,0Z" stroke="none"/>
      <path d="M 5.118329048156738 0.9999980926513672 C 4.97714900970459 0.9999980926513672 4.845229148864746 1.006708145141602 4.711328506469727 1.02089786529541 C 2.392658233642578 1.258018493652344 1.543558120727539 2.813898086547852 1.243799209594727 3.72022819519043 C 0.7108802795410156 5.331508636474609 1.079702377319336 7.252448558807373 2.101494789123535 8.193593978881836 L 8.378438949584961 13.72013854980469 C 8.539618492126465 13.86166858673096 8.745048522949219 13.93960857391357 8.956889152526855 13.93960857391357 C 9.16873836517334 13.93960857391357 9.374188423156738 13.86165809631348 9.534368515014648 13.72100830078125 L 15.81230163574219 8.193595886230469 C 16.83408355712891 7.252449989318848 17.20291709899902 5.33151912689209 16.66999816894531 3.720237731933594 C 16.3702278137207 2.813898086547852 15.52113914489746 1.258018493652344 13.19876861572266 1.02051830291748 C 13.06856918334961 1.006708145141602 12.93663883209229 0.9999980926513672 12.79544830322266 0.9999980926513672 C 11.66539859771729 0.9999980926513672 10.53804874420166 1.485808372497559 9.699628829956055 2.335738182067871 C 9.504768371582031 2.53168773651123 9.234048843383789 2.644067764282227 8.956878662109375 2.644067764282227 C 8.679288864135742 2.644067764282227 8.408288955688477 2.531397819519043 8.210978507995605 2.332518577575684 C 7.376439094543457 1.485688209533691 6.249208450317383 0.9999980926513672 5.118329048156738 0.9999980926513672 M 5.118329048156738 -1.9073486328125e-06 C 6.537768363952637 -1.9073486328125e-06 7.909648895263672 0.6020784378051758 8.923238754272461 1.630608558654785 C 8.941057205200195 1.648567199707031 8.97271728515625 1.648547172546387 8.990549087524414 1.630608558654785 C 10.0051383972168 0.6020784378051758 11.37502861022949 -1.9073486328125e-06 12.79544830322266 -1.9073486328125e-06 C 12.96468925476074 -1.9073486328125e-06 13.13396835327148 0.008038520812988281 13.30420875549316 0.02608776092529297 C 18.42555809020996 0.5498285293579102 18.95612907409668 6.673788070678711 16.48056793212891 8.937587738037109 L 10.19518852233887 14.47155857086182 C 9.484458923339844 15.09561729431152 8.429349899291992 15.0956392288208 7.718618392944336 14.47155857086182 L 1.433229446411133 8.937587738037109 C -1.042331695556641 6.673788070678711 -0.5117721557617188 0.5498285293579102 4.609588623046875 0.02608776092529297 C 4.779829025268555 0.008038520812988281 4.949098587036133 -1.9073486328125e-06 5.118329048156738 -1.9073486328125e-06 Z" stroke="none" fill="#000"/>
    </g>
    <g id="Rectangle_992" data-name="Rectangle 992" transform="translate(586.001 438.014)" fill="none" stroke="#000" stroke-width="1" opacity="0">
      <rect width="18" height="18" stroke="none"/>
      <rect x="0.5" y="0.5" width="17" height="17" fill="none"/>
    </g>
  </g>
</svg>
