<?xml version="1.0" encoding="utf-8"?>
<!-- Generator: Adobe Illustrator 26.3.1, SVG Export Plug-In . SVG Version: 6.00 Build 0)  -->
<svg version="1.1" id="Layer_1" xmlns="http://www.w3.org/2000/svg" xmlns:xlink="http://www.w3.org/1999/xlink" x="0px" y="0px"
	 viewBox="0 0 20 20" style="enable-background:new 0 0 20 20;" xml:space="preserve">
<style type="text/css">
	.st0{fill:none;}
	.st1{opacity:0;}
	.st2{fill:none;stroke:#000000;}
</style>
<g id="icon" transform="translate(-586 -438.014)">
	<g id="heart" transform="translate(586 439.971)">
		<path class="st0" d="M6.1,0c1.4,0,2.8,0.6,3.8,1.6c0,0,0,0,0.1,0c1-1,2.4-1.6,3.8-1.6c0.2,0,0.3,0,0.5,0c5.1,0.5,5.7,6.6,3.2,8.9
			l-6.3,5.5c-0.7,0.6-1.8,0.6-2.5,0L2.4,8.9C0,6.7,0.5,0.6,5.6,0C5.8,0,5.9,0,6.1,0z"/>
		<path d="M6.1,1C6,1,5.8,1,5.7,1C3.4,1.3,2.5,2.8,2.2,3.7C1.7,5.3,2.1,7.3,3.1,8.2l6.3,5.5c0.2,0.1,0.4,0.2,0.6,0.2
			c0.2,0,0.4-0.1,0.6-0.2l6.3-5.5c1-0.9,1.4-2.9,0.9-4.5c-0.3-0.9-1.1-2.5-3.5-2.7c-0.1,0-0.3,0-0.4,0c-1.1,0-2.3,0.5-3.1,1.3
			c-0.2,0.2-0.5,0.3-0.7,0.3c-0.3,0-0.5-0.1-0.7-0.3C8.4,1.5,7.2,1,6.1,1 M6.1,0c1.4,0,2.8,0.6,3.8,1.6c0,0,0,0,0.1,0
			c1-1,2.4-1.6,3.8-1.6c0.2,0,0.3,0,0.5,0c5.1,0.5,5.7,6.6,3.2,8.9l-6.3,5.5c-0.7,0.6-1.8,0.6-2.5,0L2.4,8.9C0,6.7,0.5,0.5,5.6,0
			C5.8,0,5.9,0,6.1,0z"/>
	</g>
	<g id="Rectangle_992" transform="translate(586.001 438.014)" class="st1">
		<rect x="1" class="st0" width="18" height="18"/>
		<rect x="1.5" y="0.5" class="st2" width="17" height="17"/>
	</g>
</g>
</svg>
