<?xml version="1.0" encoding="utf-8"?>
<!-- Generator: Adobe Illustrator 26.2.1, SVG Export Plug-In . SVG Version: 6.00 Build 0)  -->
<svg version="1.1" xmlns="http://www.w3.org/2000/svg" xmlns:xlink="http://www.w3.org/1999/xlink" x="0px" y="0px" viewBox="0 0 1200  571" style="enable-background:new 0 0 1200  571;" xml:space="preserve">
<style type="text/css">
.st0{opacity:0.15;fill:#FFFFFF;}
.star {animation:star infinite 2.0s;}
.s1 {transform-origin:2.5% 31.5%;animation-delay:0.2s;}
.s2 {transform-origin:9.2% 21%;animation-delay:0.4s;}
.s3 {transform-origin:86% 63%;animation-delay:0.2s;}
.s4 {transform-origin:95% 80%;animation-delay:0.6s;}
	
@keyframes star {
0% {transform:scale(1);opacity:0.15;}	
55% {transform:scale(0.7);opacity:0;}
100% {transform:scale(1);opacity:0.15;}
}
</style>
<g id="Layer_1">
	<polygon class="st0 star s1" points="50.3,180.4 49.1,174.1 29.7,176.7 40.5,161.1 37.1,158.7 27.1,173.9 22,141.9 17.6,143.5 22.2,176 
		6.8,163.2 4.7,166.7 18.9,178.1 0,180.7 1.4,185.5 20.7,183.5 9.8,199.9 12.7,201.4 23.6,185.6 28.4,219.1 34.1,218 29,186.3 
		43.5,197.9 44.8,194.9 30,182.5 	"/>
	<polygon class="st0 star s2" points="156.3,80.8 155,68.2 116.3,70 140.2,41.1 134,35.7 111.5,64.1 106.9,0 98.1,2.3 101.6,67.5 73.3,39.4 
		68.5,46 94.6,71 56.9,72.8 58.8,82.6 97.3,81.9 73,112.5 78.3,116 102.6,86.6 106.3,153.7 117.8,152.5 113.3,88.8 139.9,114.3 
		143,108.5 115.8,81.6 	"/>
	<polygon class="st0 star s3" points="1058.9,357.9 1030,356.2 1050,336.6 1045.9,332.1 1026.8,351.4 1028.5,303.4 1021.7,304.4 
		1019.2,353.2 1000.3,330.1 996.2,334.6 1013.7,355.3 985.5,353.7 986.1,361.1 1014.9,363.6 994.4,384.5 998,387.5 1018.5,367.5 
		1015.9,417.8 1024.6,417.8 1026.2,370 1044,391 1046.8,387 1028.7,364.8 1058.9,367.4 	"/>
	<polygon class="st0 star s4" points="1193.5,472.3 1145.8,469.6 1178.8,437.2 1172,429.7 1140.6,461.7 1143.3,382.3 1132.2,384.1 
		1128,464.5 1096.9,426.4 1090.1,433.9 1119,468 1072.4,465.3 1073.5,477.6 1120.9,481.7 1087.1,516.2 1093.1,521.2 1126.8,488.2 
		1122.6,571.1 1136.9,571.1 1139.6,492.3 1169,527 1173.5,520.3 1143.7,483.7 1193.5,488 	"/>
</g>
</svg>
