<svg xmlns="http://www.w3.org/2000/svg" xmlns:xlink="http://www.w3.org/1999/xlink" width="56.163" height="60.138" viewBox="0 0 56.163 60.138">
  <defs>
    <filter id="합치기_173" x="0" y="1.617" width="50.495" height="58.521" filterUnits="userSpaceOnUse">
      <feOffset dx="3" dy="6" input="SourceAlpha"/>
      <feGaussianBlur stdDeviation="4" result="blur"/>
      <feFlood flood-opacity="0.161"/>
      <feComposite operator="in" in2="blur"/>
      <feComposite in="SourceGraphic"/>
    </filter>
    <linearGradient id="linear-gradient" x1="0.065" y1="0.022" x2="0.852" y2="0.943" gradientUnits="objectBoundingBox">
      <stop offset="0" stop-color="#f5f5f5"/>
      <stop offset="1" stop-color="#faf4f6"/>
    </linearGradient>
    <linearGradient id="linear-gradient-2" x1="1" y1="-0.145" x2="0" y2="1" gradientUnits="objectBoundingBox">
      <stop offset="0" stop-color="#0a0a0a"/>
      <stop offset="1" stop-color="#848484"/>
    </linearGradient>
    <filter id="합치기_166" x="8.498" y="0" width="47.666" height="47.665" filterUnits="userSpaceOnUse">
      <feOffset input="SourceAlpha"/>
      <feGaussianBlur stdDeviation="4" result="blur-2"/>
      <feFlood flood-opacity="0.161"/>
      <feComposite operator="in" in2="blur-2"/>
      <feComposite in="SourceGraphic"/>
    </filter>
    <linearGradient id="linear-gradient-4" x1="0.691" y1="0.047" x2="0.5" y2="0.637" gradientUnits="objectBoundingBox">
      <stop offset="0" stop-color="#ff628c"/>
      <stop offset="1" stop-color="#f42664"/>
    </linearGradient>
    <linearGradient id="linear-gradient-5" x1="0.817" y1="0.04" x2="0.239" y2="1" gradientUnits="objectBoundingBox">
      <stop offset="0" stop-color="#ffc508"/>
      <stop offset="1" stop-color="#feaf11"/>
    </linearGradient>
    <linearGradient id="linear-gradient-6" x1="0.5" y1="0.114" x2="0.5" y2="1" gradientUnits="objectBoundingBox">
      <stop offset="0" stop-color="#ffdeac"/>
      <stop offset="1" stop-color="#ffc561"/>
    </linearGradient>
    <linearGradient id="linear-gradient-7" x1="0.5" y1="0.436" x2="0.5" y2="1" gradientUnits="objectBoundingBox">
      <stop offset="0" stop-color="#1e1e1e"/>
      <stop offset="1" stop-color="#5a5858"/>
    </linearGradient>
    <linearGradient id="linear-gradient-8" x1="0.931" y1="0.051" x2="0.053" y2="0.956" gradientUnits="objectBoundingBox">
      <stop offset="0" stop-color="#ffb300"/>
      <stop offset="1" stop-color="#fea711"/>
    </linearGradient>
  </defs>
  <g id="그룹_113118" data-name="그룹 113118" transform="translate(-1560.002 -883.657)">
    <rect id="사각형_20594" data-name="사각형 20594" width="40" height="40" transform="translate(1566 888)" fill="#fff"/>
    <g id="그룹_113118-2" data-name="그룹 113118" transform="translate(0 0.157)">
      <g id="icon" transform="translate(1569.285 892.192)">
        <g id="그룹_1934" data-name="그룹 1934" transform="translate(0 -0.727)">
          <g transform="matrix(1, 0, 0, 1, -9.28, -7.97)" filter="url(#합치기_173)">
            <path id="합치기_173-2" data-name="합치기 173" d="M2,0H22.495a4,4,0,0,1,4,4V30.521a4,4,0,0,1-4,4H2a2,2,0,0,1-2-2V2A2,2,0,0,1,2,0Z" transform="translate(9 7.62)" fill="#fff"/>
          </g>
          <rect id="사각형_19900" data-name="사각형 19900" width="27" height="35" rx="2" transform="translate(-0.285 -0.623)" fill="url(#linear-gradient)"/>
          <rect id="사각형_19902" data-name="사각형 19902" width="2" height="6" rx="1" transform="translate(9.715 5.378) rotate(90)" fill="url(#linear-gradient-2)"/>
          <rect id="사각형_19903" data-name="사각형 19903" width="2" height="9" rx="1" transform="translate(12.715 9.378) rotate(90)" fill="url(#linear-gradient-2)"/>
        </g>
      </g>
      <g id="그룹_111991" data-name="그룹 111991" transform="translate(1580.863 896)">
        <g transform="matrix(1, 0, 0, 1, -20.86, -12.5)" filter="url(#합치기_166)">
          <path id="합치기_166-2" data-name="합치기 166" d="M0,21.129l.017-1.294a13.634,13.634,0,0,1,1.51,1.3,13.624,13.624,0,0,1,1.3,1.51l-1.294.017H1.515A1.512,1.512,0,0,1,0,21.129Zm1.527.008a13.5,13.5,0,0,0-1.509-1.3l.016-1.228a.789.789,0,0,1,.232-.55l1.1-1.1.009.006.15-.15L14.861,3.478l-.008-.008L17.873.45a1.534,1.534,0,0,1,2.171,0l2.171,2.171a1.534,1.534,0,0,1,0,2.171L19.2,7.812l-.007-.007L5.853,21.139l-.149.15.006.008-1.1,1.1a.789.789,0,0,1-.55.232l-1.229.016A13.557,13.557,0,0,0,1.527,21.138Z" transform="translate(21 12.5)" fill="#fff" stroke="rgba(0,0,0,0)" stroke-miterlimit="10" stroke-width="1"/>
        </g>
        <g id="그룹_110132" data-name="그룹 110132" transform="translate(0.136 0)">
          <path id="패스_37331" data-name="패스 37331" d="M25.7,4.791a1.535,1.535,0,0,0,0-2.171L23.533.45a1.535,1.535,0,0,0-2.171,0l-3.02,3.02,4.342,4.342Z" transform="translate(-3.49 0)" fill="url(#linear-gradient-4)"/>
          <path id="패스_37333" data-name="패스 37333" d="M16.983-3.851,2.428,10.7l-.159.159a20.461,20.461,0,0,1,2.322,2.005A20.358,20.358,0,0,1,6.6,15.191l.158-.159L21.311.476Z" transform="translate(-0.901 6.107)" fill="url(#linear-gradient-5)"/>
          <path id="패스_37334" data-name="패스 37334" d="M2.84,28.314,4.069,28.3a.788.788,0,0,0,.55-.232l1.1-1.1a20.408,20.408,0,0,0-2.012-2.33,20.411,20.411,0,0,0-2.33-2.012l-1.1,1.1a.788.788,0,0,0-.232.55L.028,25.5a13.53,13.53,0,0,1,1.51,1.3,13.529,13.529,0,0,1,1.3,1.51" transform="translate(-0.011 -5.666)" fill="url(#linear-gradient-6)"/>
          <path id="패스_37335" data-name="패스 37335" d="M1.535,30.229l1.294-.017a13.468,13.468,0,0,0-1.3-1.51,13.477,13.477,0,0,0-1.51-1.3L0,28.694a1.511,1.511,0,0,0,1.535,1.535" transform="translate(0 -7.564)" fill="url(#linear-gradient-7)"/>
          <path id="패스_37407" data-name="패스 37407" d="M-.414,11.885a.584.584,0,0,1-.414-.172.586.586,0,0,1,0-.828L10.886-.828a.586.586,0,0,1,.828,0,.586.586,0,0,1,0,.828L0,11.714A.584.584,0,0,1-.414,11.885Z" transform="translate(5.576 6.301)" fill="url(#linear-gradient-8)"/>
        </g>
      </g>
    </g>
  </g>
</svg>
