<svg xmlns="http://www.w3.org/2000/svg" xmlns:xlink="http://www.w3.org/1999/xlink" width="65" height="67" viewBox="0 0 65 67">
  <defs>
    <filter id="Union_175" x="1" y="6" width="64" height="61" filterUnits="userSpaceOnUse">
      <feOffset dx="3" dy="6" input="SourceAlpha"/>
      <feGaussianBlur stdDeviation="4" result="blur"/>
      <feFlood flood-opacity="0.161"/>
      <feComposite operator="in" in2="blur"/>
      <feComposite in="SourceGraphic"/>
    </filter>
    <linearGradient id="linear-gradient" x1="0.01" y1="0.021" x2="0.972" y2="0.97" gradientUnits="objectBoundingBox">
      <stop offset="0" stop-color="#ffafc4"/>
      <stop offset="1" stop-color="#f6467d"/>
    </linearGradient>
    <linearGradient id="linear-gradient-2" x1="1" y1="1" x2="0.036" y2="0.037" gradientUnits="objectBoundingBox">
      <stop offset="0" stop-color="#f85084"/>
      <stop offset="1" stop-color="#f89eb7"/>
    </linearGradient>
    <filter id="inquiry" x="10" y="28" width="41" height="17" filterUnits="userSpaceOnUse">
      <feOffset input="SourceAlpha"/>
      <feGaussianBlur stdDeviation="1" result="blur-2"/>
      <feFlood flood-color="#f96793" flood-opacity="0.557"/>
      <feComposite operator="in" in2="blur-2"/>
      <feComposite in="SourceGraphic"/>
    </filter>
  </defs>
  <g id="Group_113208" data-name="Group 113208" transform="translate(-623 -765)">
    <g id="Group_113111" data-name="Group 113111" transform="translate(-54 -61)">
      <g id="icon" transform="translate(18275 19923.523)">
        <rect id="Rectangle_20394" data-name="Rectangle 20394" width="40" height="40" transform="translate(-17588 -19087.523)" fill="none"/>
        <g id="Group_111995" data-name="Group 111995" transform="translate(-17587.578 -19086.672)">
          <g transform="matrix(1, 0, 0, 1, -10.42, -10.85)" filter="url(#Union_175)">
            <path id="Union_175-2" data-name="Union 175" d="M2,37a2,2,0,0,1-2-2V13.629a2,2,0,0,1,2-2H38a2,2,0,0,1,2,2V35a2,2,0,0,1-2,2ZM20.512,6.192a3.1,3.1,0,0,1,0-6.192h.029a3.1,3.1,0,0,1,0,6.192Z" transform="translate(10 12)" fill="#fff"/>
          </g>
          <g id="Polygon_40" data-name="Polygon 40" transform="translate(3.578 2.149)" fill="none">
            <path d="M16.5,0,33,13H0Z" stroke="none"/>
            <path d="M 16.5 1.27308464050293 L 2.885068893432617 12 L 30.11493110656738 12 L 16.5 1.27308464050293 M 16.5 0 L 33 13 L 0 13 L 16.5 0 Z" stroke="none" fill="#5a5858"/>
          </g>
          <rect id="Rectangle_20397" data-name="Rectangle 20397" width="40" height="25" rx="2" transform="translate(-0.422 13.149)" fill="url(#linear-gradient)"/>
          <rect id="Rectangle_20398" data-name="Rectangle 20398" width="7" height="7" rx="3.5" transform="translate(16.578 0.149)" fill="url(#linear-gradient-2)"/>
          <rect id="Rectangle_20399" data-name="Rectangle 20399" width="3" height="3" rx="1.5" transform="translate(18.578 2.149)" fill="#fff"/>
        </g>
      </g>
      <g transform="matrix(1, 0, 0, 1, 677, 826)" filter="url(#inquiry)">
        <text id="inquiry-2" data-name="inquiry" transform="translate(13 40)" fill="#fff" font-size="9" font-family="Roboto-Bold, Roboto" font-weight="700" letter-spacing="-0.01em"><tspan x="0" y="0">INQUIRY</tspan></text>
      </g>
    </g>
    <rect id="Rectangle_20650" data-name="Rectangle 20650" width="60" height="60" transform="translate(623 765)" opacity="0"/>
  </g>
</svg>
