<svg xmlns="http://www.w3.org/2000/svg" width="80" height="80" viewBox="0 0 80 80">
  <g id="그룹_112459" data-name="그룹 112459" transform="translate(-1591.723 202.105)">
    <g id="그룹_112455" data-name="그룹 112455" transform="translate(1596.826 -190.907)">
      <g id="그룹_112435" data-name="그룹 112435" transform="translate(0)">
        <path id="패스_38225" data-name="패스 38225" d="M74.728,44.65H53.391l3.036-14.782H71.691Z" transform="translate(-7.66 -0.303)" fill="#fec211" stroke="#707070" stroke-width="1.5"/>
        <g id="그룹_112426" data-name="그룹 112426" transform="translate(45.731 29.565)">
          <g id="그룹_112436" data-name="그룹 112436">
            <path id="패스_38226" data-name="패스 38226" d="M74.728,44.65H53.391l3.036-14.782H71.691Z" transform="translate(-53.391 -29.868)" fill="none" stroke="#000" stroke-linecap="round" stroke-linejoin="round" stroke-width="1.5"/>
          </g>
        </g>
        <path id="패스_38227" data-name="패스 38227" d="M50.331,44.65H28.994l3.036-14.782H47.294Z" transform="translate(-4.599 -0.303)" fill="#fec211" stroke="#707070" stroke-width="1.5"/>
        <g id="그룹_112428" data-name="그룹 112428" transform="translate(24.395 29.565)">
          <g id="그룹_112440" data-name="그룹 112440">
            <path id="패스_38228" data-name="패스 38228" d="M50.331,44.65H28.994l3.036-14.782H47.294Z" transform="translate(-28.994 -29.868)" fill="none" stroke="#000" stroke-linecap="round" stroke-linejoin="round" stroke-width="1.5"/>
          </g>
        </g>
        <path id="패스_38229" data-name="패스 38229" d="M50.331,15.882H28.994L32.031,1.1H47.294Z" transform="translate(-4.599 -1.1)" fill="#fec211" stroke="#707070" stroke-width="1.5"/>
        <g id="그룹_112430" data-name="그룹 112430" transform="translate(24.395 0)">
          <g id="그룹_112439" data-name="그룹 112439">
            <path id="패스_38230" data-name="패스 38230" d="M50.331,15.882H28.994L32.031,1.1H47.294Z" transform="translate(-28.994 -1.1)" fill="none" stroke="#000" stroke-linecap="round" stroke-linejoin="round" stroke-width="1.5"/>
          </g>
        </g>
        <path id="패스_38231" data-name="패스 38231" d="M25.934,44.65H4.6L7.634,29.868H22.9Z" transform="translate(-1.539 -0.303)" fill="#fec211" stroke="#707070" stroke-width="1.5"/>
        <g id="그룹_112432" data-name="그룹 112432" transform="translate(3.059 29.565)">
          <g id="그룹_112438" data-name="그룹 112438">
            <path id="패스_38232" data-name="패스 38232" d="M25.934,44.65H4.6L7.634,29.868H22.9Z" transform="translate(-4.597 -29.868)" fill="none" stroke="#000" stroke-linecap="round" stroke-linejoin="round" stroke-width="1.5"/>
          </g>
        </g>
        <path id="패스_38233" data-name="패스 38233" d="M62.529,30.266H41.193l3.036-14.782H59.493Z" transform="translate(-6.129 -0.702)" fill="#fec211" stroke="#707070" stroke-width="1.5"/>
        <path id="패스_38234" data-name="패스 38234" d="M62.529,30.266H41.193l3.036-14.782H59.493Z" transform="translate(-6.129 -0.702)" fill="none" stroke="#000" stroke-linecap="round" stroke-linejoin="round" stroke-width="1.5"/>
        <path id="패스_38235" data-name="패스 38235" d="M38.132,30.266H16.8l3.036-14.782H35.1Z" transform="translate(-3.069 -0.702)" fill="#fec211" stroke="#707070" stroke-width="1.5"/>
        <path id="패스_38236" data-name="패스 38236" d="M38.132,30.266H16.8l3.036-14.782H35.1Z" transform="translate(-3.069 -0.702)" fill="none" stroke="#000" stroke-linecap="round" stroke-linejoin="round" stroke-width="1.5"/>
        <path id="패스_38237" data-name="패스 38237" d="M1.1,44.252h0Z" transform="translate(-1.1 0.095)" fill="#fff" stroke="#707070" stroke-width="1.5"/>
        <g id="그룹_112434" data-name="그룹 112434" transform="translate(0 44.347)">
          <g id="그룹_112437" data-name="그룹 112437">
            <line id="선_304" data-name="선 304" x2="70.127" fill="none" stroke="#000" stroke-linecap="round" stroke-linejoin="round" stroke-width="1.5"/>
          </g>
        </g>
      </g>
      <g id="그룹_112449" data-name="그룹 112449" transform="translate(1.784 49.54)">
        <path id="패스_38238" data-name="패스 38238" d="M5.023,2.412v0Z" transform="translate(-1.6 -1.1)" fill="none" stroke="#000" stroke-width="1.5"/>
        <g id="그룹_112442" data-name="그룹 112442" transform="translate(3.423 0)">
          <g id="그룹_112451" data-name="그룹 112451" transform="translate(0 0)">
            <line id="선_305" data-name="선 305" y2="1.312" fill="none" stroke="#000" stroke-linecap="round" stroke-linejoin="round" stroke-width="1.5"/>
          </g>
        </g>
        <path id="패스_38239" data-name="패스 38239" d="M1.1,5.023h0Z" transform="translate(-1.1 -1.6)" fill="none" stroke="#000" stroke-width="1.5"/>
        <g id="그룹_112444" data-name="그룹 112444" transform="translate(0 3.423)">
          <g id="그룹_112452" data-name="그룹 112452" transform="translate(0)">
            <line id="선_306" data-name="선 306" x2="1.312" fill="none" stroke="#000" stroke-linecap="round" stroke-linejoin="round" stroke-width="1.5"/>
          </g>
        </g>
        <path id="패스_38240" data-name="패스 38240" d="M5.023,8.755v0Z" transform="translate(-1.6 -1.908)" fill="none" stroke="#000" stroke-width="1.5"/>
        <g id="그룹_112446" data-name="그룹 112446" transform="translate(3.423 5.535)">
          <g id="그룹_112453" data-name="그룹 112453" transform="translate(0 0)">
            <line id="선_307" data-name="선 307" y1="1.312" fill="none" stroke="#000" stroke-linecap="round" stroke-linejoin="round" stroke-width="1.5"/>
          </g>
        </g>
        <path id="패스_38241" data-name="패스 38241" d="M7.443,5.023h0Z" transform="translate(-1.908 -1.6)" fill="none" stroke="#000" stroke-width="1.5"/>
        <g id="그룹_112448" data-name="그룹 112448" transform="translate(5.535 3.423)">
          <g id="그룹_112450" data-name="그룹 112450" transform="translate(0)">
            <line id="선_308" data-name="선 308" x1="1.312" fill="none" stroke="#000" stroke-linecap="round" stroke-linejoin="round" stroke-width="1.5"/>
          </g>
        </g>
      </g>
      <g id="그룹_112454" data-name="그룹 112454" transform="translate(57.496 0)">
        <path id="패스_38238-2" data-name="패스 38238" d="M5.023,2.412v0Z" transform="translate(-1.6 -1.1)" fill="none" stroke="#000" stroke-width="1.5"/>
        <g id="그룹_112442-2" data-name="그룹 112442" transform="translate(3.423 0)">
          <g id="그룹_112451-2" data-name="그룹 112451">
            <line id="선_305-2" data-name="선 305" y2="1.312" fill="none" stroke="#000" stroke-linecap="round" stroke-linejoin="round" stroke-width="1.5"/>
          </g>
        </g>
        <path id="패스_38239-2" data-name="패스 38239" d="M1.1,5.023h0Z" transform="translate(-1.1 -1.6)" fill="none" stroke="#000" stroke-width="1.5"/>
        <g id="그룹_112444-2" data-name="그룹 112444" transform="translate(0 3.423)">
          <g id="그룹_112452-2" data-name="그룹 112452" transform="translate(0)">
            <line id="선_306-2" data-name="선 306" x2="1.312" fill="none" stroke="#000" stroke-linecap="round" stroke-linejoin="round" stroke-width="1.5"/>
          </g>
        </g>
        <path id="패스_38240-2" data-name="패스 38240" d="M5.023,8.755v0Z" transform="translate(-1.6 -1.908)" fill="none" stroke="#000" stroke-width="1.5"/>
        <g id="그룹_112446-2" data-name="그룹 112446" transform="translate(3.423 5.535)">
          <g id="그룹_112453-2" data-name="그룹 112453" transform="translate(0 0)">
            <line id="선_307-2" data-name="선 307" y1="1.312" fill="none" stroke="#000" stroke-linecap="round" stroke-linejoin="round" stroke-width="1.5"/>
          </g>
        </g>
        <path id="패스_38241-2" data-name="패스 38241" d="M7.443,5.023h0Z" transform="translate(-1.908 -1.6)" fill="none" stroke="#000" stroke-width="1.5"/>
        <g id="그룹_112448-2" data-name="그룹 112448" transform="translate(5.535 3.423)">
          <g id="그룹_112450-2" data-name="그룹 112450" transform="translate(0)">
            <line id="선_308-2" data-name="선 308" x1="1.312" fill="none" stroke="#000" stroke-linecap="round" stroke-linejoin="round" stroke-width="1.5"/>
          </g>
        </g>
      </g>
      <g id="그룹_112460" data-name="그룹 112460" transform="translate(38.241 33.869)">
        <path id="패스_38224" data-name="패스 38224" d="M67.282,50.575a10.79,10.79,0,1,1-10.791-10.79A10.79,10.79,0,0,1,67.282,50.575Z" transform="translate(-45.701 -39.785)" fill="#fff" stroke="#000" stroke-linecap="round" stroke-linejoin="round" stroke-width="1.5"/>
        <line id="선_303" data-name="선 303" x2="4.485" y2="4.485" transform="translate(18.193 18.915)" fill="none" stroke="#000" stroke-linecap="round" stroke-width="1.5"/>
        <g id="그룹_112456" data-name="그룹 112456" transform="translate(5.296 7.058)">
          <g id="그룹_112458" data-name="그룹 112458" transform="translate(0)">
            <path id="패스_38242" data-name="패스 38242" d="M5,0A.99.99,0,0,1,5.6.212a1.177,1.177,0,0,1,.4.744L7.122,6.472h.055L8.263.737A.822.822,0,0,1,8.655.094.92.92,0,0,1,9.28.031a.828.828,0,0,1,.529.392,1.038,1.038,0,0,1,.062.768l-1.4,6.252a1.449,1.449,0,0,1-.44.823,1.212,1.212,0,0,1-.784.243,1.216,1.216,0,0,1-.79-.251,1.382,1.382,0,0,1-.433-.8L4.991,2.648H4.936L3.891,7.459a1.382,1.382,0,0,1-.433.8,1.216,1.216,0,0,1-.79.251,1.216,1.216,0,0,1-.791-.251,1.382,1.382,0,0,1-.433-.8L.042,1.238A1.08,1.08,0,0,1,.111.447.84.84,0,0,1,.675.031a1.058,1.058,0,0,1,.674.063.846.846,0,0,1,.412.689l.99,5.688h.055L3.987.987A1.211,1.211,0,0,1,4.393.22,1.013,1.013,0,0,1,5,0" transform="translate(0.537 0)"/>
            <line id="선_309" data-name="선 309" x2="10.988" transform="translate(0 3.732)" fill="none" stroke="#000" stroke-linecap="round" stroke-width="1.5"/>
          </g>
        </g>
      </g>
    </g>
    <rect id="사각형_20554" data-name="사각형 20554" width="80" height="80" transform="translate(1591.723 -202.105)" fill="none"/>
  </g>
</svg>
