<svg xmlns="http://www.w3.org/2000/svg" xmlns:xlink="http://www.w3.org/1999/xlink" width="60" height="60" viewBox="0 0 60 60">
  <defs>
    <linearGradient id="linear-gradient" y1="-0.437" x2="1.08" y2="1" gradientUnits="objectBoundingBox">
      <stop offset="0" stop-color="#f7f7f7"/>
      <stop offset="1" stop-color="#e5e5e5"/>
    </linearGradient>
    <filter id="Union_176" x="6" y="14.001" width="51.695" height="44.882" filterUnits="userSpaceOnUse">
      <feOffset dx="2" dy="4" input="SourceAlpha"/>
      <feGaussianBlur stdDeviation="2" result="blur"/>
      <feFlood flood-opacity="0.161"/>
      <feComposite operator="in" in2="blur"/>
      <feComposite in="SourceGraphic"/>
    </filter>
    <linearGradient id="linear-gradient-3" x1="0.5" x2="0.5" y2="1" gradientUnits="objectBoundingBox">
      <stop offset="0" stop-color="#ff9bb0"/>
      <stop offset="1" stop-color="#fa4d71"/>
    </linearGradient>
    <filter id="Path_37921" x="7" y="13" width="16.41" height="20.655" filterUnits="userSpaceOnUse">
      <feOffset input="SourceAlpha"/>
      <feGaussianBlur stdDeviation="1" result="blur-2"/>
      <feFlood flood-opacity="0.161"/>
      <feComposite operator="in" in2="blur-2"/>
      <feComposite in="SourceGraphic"/>
    </filter>
    <linearGradient id="linear-gradient-4" x1="0.5" x2="0.5" y2="1" gradientUnits="objectBoundingBox">
      <stop offset="0" stop-color="#b9c9ff"/>
      <stop offset="1" stop-color="#6c7dff"/>
    </linearGradient>
    <filter id="Path_37923" x="16.2" y="13" width="15.501" height="20.655" filterUnits="userSpaceOnUse">
      <feOffset input="SourceAlpha"/>
      <feGaussianBlur stdDeviation="1" result="blur-3"/>
      <feFlood flood-opacity="0.161"/>
      <feComposite operator="in" in2="blur-3"/>
      <feComposite in="SourceGraphic"/>
    </filter>
    <filter id="Path_37925" x="33.923" y="13" width="16.41" height="20.655" filterUnits="userSpaceOnUse">
      <feOffset input="SourceAlpha"/>
      <feGaussianBlur stdDeviation="1" result="blur-4"/>
      <feFlood flood-opacity="0.161"/>
      <feComposite operator="in" in2="blur-4"/>
      <feComposite in="SourceGraphic"/>
    </filter>
    <filter id="Path_37927" x="25.664" y="13" width="15.468" height="20.655" filterUnits="userSpaceOnUse">
      <feOffset input="SourceAlpha"/>
      <feGaussianBlur stdDeviation="1" result="blur-5"/>
      <feFlood flood-opacity="0.161"/>
      <feComposite operator="in" in2="blur-5"/>
      <feComposite in="SourceGraphic"/>
    </filter>
    <linearGradient id="linear-gradient-7" x1="0.088" y1="0.079" x2="0.881" y2="0.898" gradientUnits="objectBoundingBox">
      <stop offset="0" stop-color="#ff8989"/>
      <stop offset="1" stop-color="#fc3535"/>
    </linearGradient>
    <linearGradient id="linear-gradient-8" x2="1" y2="1" gradientUnits="objectBoundingBox">
      <stop offset="0" stop-color="#bababa"/>
      <stop offset="1" stop-color="#898781"/>
    </linearGradient>
    <filter id="Rectangle_20542" x="20.523" y="30.996" width="16.13" height="18.791" filterUnits="userSpaceOnUse">
      <feOffset input="SourceAlpha"/>
      <feGaussianBlur stdDeviation="1" result="blur-6"/>
      <feFlood flood-opacity="0.051"/>
      <feComposite operator="in" in2="blur-6"/>
      <feComposite in="SourceGraphic"/>
    </filter>
  </defs>
  <g id="Group_113206" data-name="Group 113206" transform="translate(-1008 -765)">
    <g id="icon" transform="translate(18706 20018)">
      <rect id="Rectangle_20384" data-name="Rectangle 20384" width="40" height="40" transform="translate(-17688 -19243)" fill="none"/>
      <g id="Group_113125" data-name="Group 113125" transform="translate(-17688 -19237)">
        <g id="Group_112032" data-name="Group 112032">
          <g transform="matrix(1, 0, 0, 1, -10, -16)" filter="url(#Union_176)">
            <path id="Union_176-2" data-name="Union 176" d="M16821.619,7529.335h-24.2a.564.564,0,0,1-.574-.524V7513.2c-2.484-.041-4.486-1.647-4.5-3.666v0h.008c1.627-4.6,3.207-8.478,3.207-8.478s.76-2.509,3.07-2.509h4.127l-1.209,10.954,1.209-10.954h8.289v0h8.219l1.205,10.954h0l-1.2-10.954h4.123c2.311,0,3.07,2.509,3.07,2.509s1.482,3.625,3.205,8.478h.01c-.018,2.029-2.039,3.641-4.541,3.667v6.492a5.984,5.984,0,0,1,.992-.083,5.91,5.91,0,1,1-4.514,9.724Zm8.063-19.8v0Z" transform="translate(-16782.35 -7482.55)" fill="url(#linear-gradient)"/>
          </g>
          <path id="Path_37917" data-name="Path 37917" d="M127.5,221H100.273a.574.574,0,0,0-.572.539v18.771a.562.562,0,0,0,.572.525h9l.088-11.135a.573.573,0,0,1,.572-.539h8.083a.505.505,0,0,1,.492.539l-.088,11.135h9.08a.493.493,0,0,0,.492-.525V221.539A.505.505,0,0,0,127.5,221" transform="translate(-95.197 -210.046)" fill="url(#linear-gradient)"/>
          <g transform="matrix(1, 0, 0, 1, -10, -16)" filter="url(#Path_37921)">
            <path id="Path_37921-2" data-name="Path 37921" d="M25.41,15H21.284c-2.31,0-3.071,2.513-3.071,2.513s-1.581,3.877-3.207,8.478H15A.04.04,0,0,1,15,26s0-.009,0-.009h0c.014,2.045,2.068,3.664,4.6,3.664s4.585-1.62,4.6-3.664h0Z" transform="translate(-5 1)" fill="url(#linear-gradient-3)"/>
          </g>
          <g transform="matrix(1, 0, 0, 1, -10, -16)" filter="url(#Path_37923)">
            <path id="Path_37923-2" data-name="Path 37923" d="M189.232,15l-1.207,10.99h0a.057.057,0,0,1,0,.007V25.99h0c.015,2.045,2.23,3.664,4.762,3.664s4.691-1.62,4.706-3.664h.033V15Z" transform="translate(-168.82 1)" fill="url(#linear-gradient-4)"/>
          </g>
          <g transform="matrix(1, 0, 0, 1, -10, -16)" filter="url(#Path_37925)">
            <path id="Path_37925-2" data-name="Path 37925" d="M521.316,15h4.126c2.31,0,3.071,2.513,3.071,2.513s1.48,3.622,3.207,8.478h.007a.037.037,0,0,0,0,.009s0-.009,0-.009h0c-.014,2.045-2.068,3.664-4.6,3.664s-4.585-1.62-4.6-3.664h0Z" transform="translate(-484.39 1)" fill="url(#linear-gradient-4)"/>
          </g>
          <g transform="matrix(1, 0, 0, 1, -10, -16)" filter="url(#Path_37927)">
            <path id="Path_37927-2" data-name="Path 37927" d="M374.265,15l1.207,10.99h0a.061.061,0,0,0,0,.007V25.99h0c-.015,2.045-2.23,3.664-4.762,3.664s-4.691-1.62-4.706-3.664h.037V15Z" transform="translate(-337.34 1)" fill="url(#linear-gradient-3)"/>
          </g>
          <g id="Group_112413" data-name="Group 112413" transform="translate(27.875 21.063)">
            <circle id="Ellipse_679" data-name="Ellipse 679" cx="5.909" cy="5.909" r="5.909" transform="translate(0)" fill="url(#linear-gradient-7)"/>
            <line id="Line_286" data-name="Line 286" x2="4.481" transform="translate(3.691 5.859)" fill="none" stroke="#fff" stroke-linecap="round" stroke-width="1.5"/>
            <line id="Line_287" data-name="Line 287" x2="4.481" transform="translate(5.932 3.618) rotate(90)" fill="none" stroke="#fff" stroke-linecap="round" stroke-width="1.5"/>
          </g>
          <g transform="matrix(1, 0, 0, 1, -10, -16)" filter="url(#Rectangle_20542)">
            <path id="Rectangle_20542-2" data-name="Rectangle 20542" d="M1,0H9.13a1,1,0,0,1,1,1V12.791a0,0,0,0,1,0,0H0a0,0,0,0,1,0,0V1A1,1,0,0,1,1,0Z" transform="translate(23.52 34)" fill="url(#linear-gradient-8)"/>
          </g>
        </g>
      </g>
    </g>
    <rect id="Rectangle_20652" data-name="Rectangle 20652" width="60" height="60" transform="translate(1008 765)" opacity="0"/>
  </g>
</svg>
