<svg xmlns="http://www.w3.org/2000/svg" xmlns:xlink="http://www.w3.org/1999/xlink" width="994" height="173" viewBox="0 0 994 173">
  <defs>
    <clipPath id="clip-path">
      <rect id="사각형_20591" data-name="사각형 20591" width="993" height="173" rx="12" transform="translate(-10 42)" fill="#fff" stroke="#707070" stroke-width="1"/>
    </clipPath>
    <clipPath id="clip-path-2">
      <rect id="사각형_20639" data-name="사각형 20639" width="78.429" height="60.165" rx="3" transform="translate(2.912 11.621)" fill="#fff"/>
    </clipPath>
    <clipPath id="clip-path-3">
      <rect id="사각형_20640" data-name="사각형 20640" width="84.254" height="12.291" rx="3" transform="translate(0 7.781)" fill="#ffbe27" stroke="#000" stroke-width="2"/>
    </clipPath>
  </defs>
  <g id="그룹_113204" data-name="그룹 113204" transform="translate(10 18)">
    <g id="그룹_113203" data-name="그룹 113203">
      <rect id="box" width="994" height="173" rx="12" transform="translate(-10 -18)" fill="#fffbe8"/>
      <g id="마스크_그룹_110097" data-name="마스크 그룹 110097" transform="translate(0 -60)" clip-path="url(#clip-path)">
        <g id="pt" transform="translate(-10 41.715)" opacity="0.15">
          <g id="그룹_466" data-name="그룹 466" transform="translate(998.896 32.196) rotate(90)">
            <path id="패스_13832" data-name="패스 13832" d="M0,0V998.9" transform="translate(286.898 0)" fill="none" stroke="#ffcc91" stroke-width="1"/>
            <path id="패스_13833" data-name="패스 13833" d="M0,0V998.9" transform="translate(318.775 0)" fill="none" stroke="#ffcc91" stroke-width="1"/>
            <line id="선_27" data-name="선 27" y2="998.896" transform="translate(0 0)" fill="none" stroke="#ffcc91" stroke-width="1"/>
            <path id="패스_13640" data-name="패스 13640" d="M0,0" transform="translate(318.775 998.896)" fill="none" stroke="#ffcc91" stroke-width="1"/>
            <line id="선_28" data-name="선 28" y2="998.896" transform="translate(31.878 0)" fill="none" stroke="#ffcc91" stroke-width="1"/>
            <line id="선_29" data-name="선 29" y2="998.896" transform="translate(63.755 0)" fill="none" stroke="#ffcc91" stroke-width="1"/>
            <line id="선_30" data-name="선 30" y2="998.896" transform="translate(95.633 0)" fill="none" stroke="#ffcc91" stroke-width="1"/>
            <line id="선_31" data-name="선 31" y2="998.896" transform="translate(127.51 0)" fill="none" stroke="#ffcc91" stroke-width="1"/>
            <line id="선_32" data-name="선 32" y2="998.896" transform="translate(159.388 0)" fill="none" stroke="#ffcc91" stroke-width="1"/>
            <line id="선_33" data-name="선 33" y2="998.896" transform="translate(191.265 0)" fill="none" stroke="#ffcc91" stroke-width="1"/>
            <line id="선_34" data-name="선 34" y2="998.896" transform="translate(223.143 0)" fill="none" stroke="#ffcc91" stroke-width="1"/>
            <line id="선_35" data-name="선 35" y2="998.896" transform="translate(255.02 0)" fill="none" stroke="#ffcc91" stroke-width="1"/>
          </g>
          <line id="선_918" data-name="선 918" y2="350.972" fill="none" stroke="#ffcc91" stroke-width="1"/>
          <line id="선_919" data-name="선 919" y2="350.972" transform="translate(318.775)" fill="none" stroke="#ffcc91" stroke-width="1"/>
          <line id="선_920" data-name="선 920" y2="350.972" transform="translate(31.877)" fill="none" stroke="#ffcc91" stroke-width="1"/>
          <line id="선_921" data-name="선 921" y2="350.972" transform="translate(350.652)" fill="none" stroke="#ffcc91" stroke-width="1"/>
          <line id="선_922" data-name="선 922" y2="350.972" transform="translate(63.756)" fill="none" stroke="#ffcc91" stroke-width="1"/>
          <line id="선_923" data-name="선 923" y2="350.972" transform="translate(382.531)" fill="none" stroke="#ffcc91" stroke-width="1"/>
          <line id="선_924" data-name="선 924" y2="350.972" transform="translate(95.633)" fill="none" stroke="#ffcc91" stroke-width="1"/>
          <line id="선_925" data-name="선 925" y2="350.972" transform="translate(414.408)" fill="none" stroke="#ffcc91" stroke-width="1"/>
          <line id="선_950" data-name="선 950" y2="350.972" transform="translate(733.186)" fill="none" stroke="#ffcc91" stroke-width="1"/>
          <line id="선_926" data-name="선 926" y2="350.972" transform="translate(127.51)" fill="none" stroke="#ffcc91" stroke-width="1"/>
          <line id="선_927" data-name="선 927" y2="350.972" transform="translate(446.285)" fill="none" stroke="#ffcc91" stroke-width="1"/>
          <line id="선_949" data-name="선 949" y2="350.972" transform="translate(765.063)" fill="none" stroke="#ffcc91" stroke-width="1"/>
          <line id="선_928" data-name="선 928" y2="350.972" transform="translate(159.387)" fill="none" stroke="#ffcc91" stroke-width="1"/>
          <line id="선_929" data-name="선 929" y2="350.972" transform="translate(478.164)" fill="none" stroke="#ffcc91" stroke-width="1"/>
          <line id="선_948" data-name="선 948" y2="350.972" transform="translate(796.941)" fill="none" stroke="#ffcc91" stroke-width="1"/>
          <line id="선_930" data-name="선 930" y2="350.972" transform="translate(191.266)" fill="none" stroke="#ffcc91" stroke-width="1"/>
          <line id="선_931" data-name="선 931" y2="350.972" transform="translate(510.041)" fill="none" stroke="#ffcc91" stroke-width="1"/>
          <line id="선_941" data-name="선 941" y2="350.972" transform="translate(828.818)" fill="none" stroke="#ffcc91" stroke-width="1"/>
          <line id="선_932" data-name="선 932" y2="350.972" transform="translate(223.143)" fill="none" stroke="#ffcc91" stroke-width="1"/>
          <line id="선_933" data-name="선 933" y2="350.972" transform="translate(541.918)" fill="none" stroke="#ffcc91" stroke-width="1"/>
          <line id="선_942" data-name="선 942" y2="350.972" transform="translate(860.695)" fill="none" stroke="#ffcc91" stroke-width="1"/>
          <line id="선_934" data-name="선 934" y2="350.972" transform="translate(255.02)" fill="none" stroke="#ffcc91" stroke-width="1"/>
          <line id="선_935" data-name="선 935" y2="350.972" transform="translate(573.797)" fill="none" stroke="#ffcc91" stroke-width="1"/>
          <line id="선_943" data-name="선 943" y2="350.972" transform="translate(892.574)" fill="none" stroke="#ffcc91" stroke-width="1"/>
          <line id="선_936" data-name="선 936" y2="350.972" transform="translate(286.898)" fill="none" stroke="#ffcc91" stroke-width="1"/>
          <line id="선_937" data-name="선 937" y2="350.972" transform="translate(605.674)" fill="none" stroke="#ffcc91" stroke-width="1"/>
          <line id="선_944" data-name="선 944" y2="350.972" transform="translate(924.451)" fill="none" stroke="#ffcc91" stroke-width="1"/>
          <line id="선_938" data-name="선 938" y2="350.972" transform="translate(637.551)" fill="none" stroke="#ffcc91" stroke-width="1"/>
          <line id="선_945" data-name="선 945" y2="350.972" transform="translate(956.328)" fill="none" stroke="#ffcc91" stroke-width="1"/>
          <line id="선_939" data-name="선 939" y2="350.972" transform="translate(669.428)" fill="none" stroke="#ffcc91" stroke-width="1"/>
          <line id="선_946" data-name="선 946" y2="350.972" transform="translate(988.205)" fill="none" stroke="#ffcc91" stroke-width="1"/>
          <line id="선_940" data-name="선 940" y2="350.972" transform="translate(701.307)" fill="none" stroke="#ffcc91" stroke-width="1"/>
          <line id="선_947" data-name="선 947" y2="350.972" transform="translate(1020.084)" fill="none" stroke="#ffcc91" stroke-width="1"/>
        </g>
      </g>
    </g>
    <g id="그룹_113201" data-name="그룹 113201" transform="translate(-576 -412)">
      <g id="그룹_113162" data-name="그룹 113162" transform="translate(1462.365 450.787)">
        <g id="합치기_177" data-name="합치기 177" transform="translate(-19220.998 20678.002)" fill="#e7ff31">
          <path d="M 19208.6328125 -20614.7890625 C 19206.068359375 -20614.7890625 19203.580078125 -20615.291015625 19201.23828125 -20616.28125 C 19198.974609375 -20617.23828125 19196.943359375 -20618.609375 19195.197265625 -20620.353515625 C 19193.453125 -20622.099609375 19192.08203125 -20624.130859375 19191.125 -20626.39453125 C 19190.134765625 -20628.736328125 19189.6328125 -20631.224609375 19189.6328125 -20633.7890625 C 19189.6328125 -20636.22265625 19190.087890625 -20638.59375 19190.984375 -20640.837890625 L 19191.8515625 -20643.00390625 L 19189.685546875 -20642.13671875 C 19187.44140625 -20641.240234375 19185.0703125 -20640.78515625 19182.63671875 -20640.78515625 C 19180.072265625 -20640.78515625 19177.583984375 -20641.287109375 19175.2421875 -20642.27734375 C 19172.978515625 -20643.234375 19170.947265625 -20644.60546875 19169.201171875 -20646.349609375 C 19167.45703125 -20648.095703125 19166.0859375 -20650.126953125 19165.12890625 -20652.390625 C 19164.138671875 -20654.732421875 19163.63671875 -20657.220703125 19163.63671875 -20659.78515625 C 19163.63671875 -20662.3515625 19164.138671875 -20664.83984375 19165.12890625 -20667.181640625 C 19166.0859375 -20669.4453125 19167.45703125 -20671.478515625 19169.201171875 -20673.22265625 C 19170.947265625 -20674.96875 19172.978515625 -20676.33984375 19175.2421875 -20677.296875 C 19177.583984375 -20678.287109375 19180.072265625 -20678.7890625 19182.63671875 -20678.7890625 C 19183.671875 -20678.7890625 19184.716796875 -20678.703125 19185.7421875 -20678.537109375 L 19187.71875 -20678.21484375 L 19186.791015625 -20679.986328125 C 19185.37890625 -20682.68359375 19184.6328125 -20685.7265625 19184.6328125 -20688.78515625 C 19184.6328125 -20691.349609375 19185.134765625 -20693.837890625 19186.125 -20696.181640625 C 19187.08203125 -20698.443359375 19188.453125 -20700.4765625 19190.197265625 -20702.22265625 C 19191.943359375 -20703.96875 19193.9765625 -20705.337890625 19196.23828125 -20706.294921875 C 19198.580078125 -20707.287109375 19201.068359375 -20707.7890625 19203.6328125 -20707.7890625 C 19207.47265625 -20707.7890625 19211.169921875 -20706.650390625 19214.330078125 -20704.494140625 C 19217.4140625 -20702.388671875 19219.794921875 -20699.458984375 19221.212890625 -20696.017578125 L 19221.720703125 -20694.783203125 L 19222.76171875 -20695.619140625 C 19224.412109375 -20696.94140625 19226.251953125 -20697.970703125 19228.234375 -20698.6796875 C 19230.283203125 -20699.4140625 19232.435546875 -20699.78515625 19234.634765625 -20699.78515625 C 19237.19921875 -20699.78515625 19239.6875 -20699.283203125 19242.029296875 -20698.29296875 C 19244.291015625 -20697.3359375 19246.322265625 -20695.96484375 19248.068359375 -20694.220703125 C 19249.8125 -20692.474609375 19251.18359375 -20690.443359375 19252.140625 -20688.181640625 C 19253.130859375 -20685.83984375 19253.6328125 -20683.3515625 19253.6328125 -20680.787109375 C 19253.6328125 -20675.068359375 19251.091796875 -20669.70703125 19246.662109375 -20666.078125 L 19245.51953125 -20665.142578125 L 19246.810546875 -20664.4296875 C 19249.736328125 -20662.8125 19252.1953125 -20660.4453125 19253.921875 -20657.58203125 C 19255.697265625 -20654.634765625 19256.63671875 -20651.25 19256.63671875 -20647.7890625 C 19256.63671875 -20645.22265625 19256.134765625 -20642.734375 19255.14453125 -20640.392578125 C 19254.1875 -20638.12890625 19252.81640625 -20636.095703125 19251.0703125 -20634.3515625 C 19249.326171875 -20632.60546875 19247.29296875 -20631.234375 19245.029296875 -20630.27734375 C 19242.6875 -20629.287109375 19240.19921875 -20628.78515625 19237.6328125 -20628.78515625 C 19234.544921875 -20628.78515625 19231.478515625 -20629.544921875 19228.76171875 -20630.98046875 L 19227.560546875 -20631.615234375 L 19227.3125 -20630.279296875 C 19226.509765625 -20625.98046875 19224.2109375 -20622.056640625 19220.841796875 -20619.228515625 C 19219.166015625 -20617.822265625 19217.283203125 -20616.7265625 19215.2421875 -20615.96875 C 19213.130859375 -20615.185546875 19210.90625 -20614.7890625 19208.6328125 -20614.7890625 Z" stroke="none"/>
          <path d="M 19208.6328125 -20615.7890625 C 19210.787109375 -20615.7890625 19212.89453125 -20616.166015625 19214.89453125 -20616.90625 C 19216.828125 -20617.623046875 19218.611328125 -20618.662109375 19220.19921875 -20619.994140625 C 19223.392578125 -20622.673828125 19225.568359375 -20626.390625 19226.328125 -20630.462890625 L 19226.828125 -20633.134765625 L 19229.23046875 -20631.86328125 C 19231.837890625 -20630.484375 19234.666015625 -20629.78515625 19237.6328125 -20629.78515625 C 19242.44140625 -20629.78515625 19246.962890625 -20631.658203125 19250.36328125 -20635.05859375 C 19253.763671875 -20638.458984375 19255.63671875 -20642.98046875 19255.63671875 -20647.7890625 C 19255.63671875 -20651.06640625 19254.748046875 -20654.275390625 19253.064453125 -20657.06640625 C 19251.4296875 -20659.779296875 19249.099609375 -20662.0234375 19246.328125 -20663.5546875 L 19243.744140625 -20664.982421875 L 19246.02734375 -20666.8515625 C 19250.224609375 -20670.2890625 19252.6328125 -20675.369140625 19252.6328125 -20680.787109375 C 19252.6328125 -20685.59375 19250.759765625 -20690.11328125 19247.361328125 -20693.513671875 C 19243.9609375 -20696.912109375 19239.44140625 -20698.78515625 19234.634765625 -20698.78515625 C 19232.55078125 -20698.78515625 19230.51171875 -20698.43359375 19228.5703125 -20697.73828125 C 19226.693359375 -20697.06640625 19224.951171875 -20696.091796875 19223.388671875 -20694.837890625 L 19221.3046875 -20693.16796875 L 19220.287109375 -20695.63671875 C 19218.9453125 -20698.896484375 19216.689453125 -20701.673828125 19213.765625 -20703.66796875 C 19210.7734375 -20705.7109375 19207.26953125 -20706.7890625 19203.6328125 -20706.7890625 C 19198.826171875 -20706.7890625 19194.3046875 -20704.916015625 19190.90625 -20701.515625 C 19187.505859375 -20698.11328125 19185.6328125 -20693.59375 19185.6328125 -20688.78515625 C 19185.6328125 -20685.845703125 19186.3203125 -20683.04296875 19187.67578125 -20680.451171875 L 19189.53125 -20676.904296875 L 19185.58203125 -20677.548828125 C 19184.609375 -20677.708984375 19183.6171875 -20677.7890625 19182.63671875 -20677.7890625 C 19177.828125 -20677.7890625 19173.30859375 -20675.916015625 19169.91015625 -20672.515625 C 19166.509765625 -20669.115234375 19164.63671875 -20664.59375 19164.63671875 -20659.78515625 C 19164.63671875 -20654.978515625 19166.509765625 -20650.45703125 19169.908203125 -20647.056640625 C 19173.30859375 -20643.658203125 19177.830078125 -20641.78515625 19182.63671875 -20641.78515625 C 19184.943359375 -20641.78515625 19187.189453125 -20642.216796875 19189.314453125 -20643.06640625 L 19193.646484375 -20644.798828125 L 19191.9140625 -20640.466796875 C 19191.064453125 -20638.341796875 19190.6328125 -20636.095703125 19190.6328125 -20633.7890625 C 19190.6328125 -20628.982421875 19192.505859375 -20624.4609375 19195.904296875 -20621.060546875 C 19199.3046875 -20617.662109375 19203.826171875 -20615.7890625 19208.6328125 -20615.7890625 M 19208.6328125 -20613.7890625 C 19197.587890625 -20613.7890625 19188.6328125 -20622.744140625 19188.6328125 -20633.7890625 C 19188.6328125 -20636.41015625 19189.138671875 -20638.9140625 19190.056640625 -20641.208984375 C 19187.76171875 -20640.291015625 19185.2578125 -20639.78515625 19182.63671875 -20639.78515625 C 19171.591796875 -20639.78515625 19162.63671875 -20648.740234375 19162.63671875 -20659.78515625 C 19162.63671875 -20670.833984375 19171.591796875 -20679.7890625 19182.63671875 -20679.7890625 C 19183.748046875 -20679.7890625 19184.83984375 -20679.697265625 19185.904296875 -20679.5234375 C 19184.455078125 -20682.29296875 19183.6328125 -20685.443359375 19183.6328125 -20688.78515625 C 19183.6328125 -20699.830078125 19192.587890625 -20708.7890625 19203.6328125 -20708.7890625 C 19211.984375 -20708.7890625 19219.140625 -20703.669921875 19222.13671875 -20696.3984375 C 19225.560546875 -20699.14453125 19229.90625 -20700.78515625 19234.634765625 -20700.78515625 C 19245.677734375 -20700.78515625 19254.6328125 -20691.830078125 19254.6328125 -20680.787109375 C 19254.6328125 -20674.546875 19251.7734375 -20668.97265625 19247.294921875 -20665.3046875 C 19253.4609375 -20661.8984375 19257.63671875 -20655.33203125 19257.63671875 -20647.7890625 C 19257.63671875 -20636.740234375 19248.681640625 -20627.78515625 19237.6328125 -20627.78515625 C 19234.259765625 -20627.78515625 19231.083984375 -20628.62109375 19228.294921875 -20630.095703125 C 19226.5625 -20620.814453125 19218.419921875 -20613.7890625 19208.6328125 -20613.7890625 Z" stroke="none" fill="#000"/>
        </g>
        <text id="GIFT_packing" data-name="GIFT 
packing" transform="matrix(0.951, 0.309, -0.309, 0.951, -4.578, 9.925)" font-size="13" font-family="GmarketSansBold, Gmarket Sans" letter-spacing="-0.01em" font-weight="700"><tspan x="-17.661" y="0">GIFT</tspan><tspan x="-34.457" y="17">PACKING</tspan></text>
      </g>
      <g id="그룹_113152" data-name="그룹 113152" transform="translate(1318.82 456.514)">
        <path id="사각형_20598" data-name="사각형 20598" d="M3,0H49.062a3,3,0,0,1,3,3V36.258a3,3,0,0,1-3,3H0a0,0,0,0,1,0,0V3A3,3,0,0,1,3,0Z" transform="translate(80.613 42.076)" fill="#eaeaea" stroke="#000" stroke-width="2"/>
        <path id="패스_38277" data-name="패스 38277" d="M72.191,61.068s-8.72-11.954-12.934-7.331c0,0-2.445,6.691-1.189,10.223,0,0,3.884.389,13.661-.46.82-.072.462-2.432.462-2.432" transform="translate(33.029 -29.642)" fill="#ffa62c" stroke="#000" stroke-linecap="round" stroke-width="2"/>
        <path id="패스_38294" data-name="패스 38294" d="M82.02,66.766S67.38,46.7,60.308,54.458c0,0-4.1,11.233-2,17.162,0,0,6.52.653,22.933-.773,1.376-.121.776-4.082.776-4.082" transform="translate(-42.718 -52.674)" fill="#ff4b55" stroke="#000" stroke-width="2"/>
        <path id="패스_38279" data-name="패스 38279" d="M26.348,61.068s8.72-11.954,12.934-7.331c0,0,2.445,6.691,1.188,10.223,0,0-3.883.389-13.66-.46-.819-.072-.463-2.432-.463-2.432" transform="translate(81.578 -29.642)" fill="#ffa62c" stroke="#000" stroke-linecap="round" stroke-width="2"/>
        <path id="패스_38293" data-name="패스 38293" d="M26.4,66.766S41.04,46.7,48.114,54.458c0,0,4.1,11.233,1.994,17.162,0,0-6.518.653-22.931-.773-1.374-.121-.777-4.082-.777-4.082" transform="translate(17.444 -52.674)" fill="#ff4b55" stroke="#000" stroke-width="2"/>
        <rect id="사각형_20601" data-name="사각형 20601" width="57.402" height="13.961" rx="3" transform="translate(77.942 34.086)" fill="#eaeaea" stroke="#000" stroke-width="2"/>
        <rect id="사각형_20605" data-name="사각형 20605" width="11.008" height="46.928" transform="translate(101.072 34.406)" fill="#ffa62c" stroke="#000" stroke-width="2"/>
        <g id="그룹_113151" data-name="그룹 113151" transform="translate(0 9.546)">
          <g id="그룹_113153" data-name="그룹 113153">
            <rect id="사각형_20607" data-name="사각형 20607" width="7.008" height="5.251" rx="2" transform="translate(103.139 19.226)" fill="#ffa62c" stroke="#000" stroke-width="2"/>
            <rect id="사각형_20609" data-name="사각형 20609" width="9.52" height="7.781" rx="2" transform="translate(36.874)" fill="#ff4b55" stroke="#000" stroke-width="2"/>
            <rect id="사각형_20611" data-name="사각형 20611" width="78.429" height="60.165" rx="3" transform="translate(2.912 11.622)" fill="#ffbe27" stroke="#000" stroke-width="2"/>
            <g id="마스크_그룹_110100" data-name="마스크 그룹 110100" opacity="0.2" clip-path="url(#clip-path-2)">
              <path id="합치기_182" data-name="합치기 182" d="M19441.486-20631.9a4.842,4.842,0,0,1,4.848-4.836,4.84,4.84,0,0,1,4.848,4.836,4.841,4.841,0,0,1-4.848,4.838A4.844,4.844,0,0,1,19441.486-20631.9Zm-12.457,0a4.838,4.838,0,0,1,4.842-4.836,4.838,4.838,0,0,1,4.848,4.836,4.84,4.84,0,0,1-4.848,4.838A4.84,4.84,0,0,1,19429.029-20631.9Zm-12.461,0a4.838,4.838,0,0,1,4.848-4.836,4.838,4.838,0,0,1,4.842,4.836,4.84,4.84,0,0,1-4.842,4.838A4.84,4.84,0,0,1,19416.568-20631.9Zm-12.467,0a4.843,4.843,0,0,1,4.852-4.836,4.842,4.842,0,0,1,4.848,4.836,4.844,4.844,0,0,1-4.848,4.838A4.845,4.845,0,0,1,19404.1-20631.9Zm-12.457,0a4.838,4.838,0,0,1,4.848-4.836,4.837,4.837,0,0,1,4.842,4.836,4.839,4.839,0,0,1-4.842,4.838A4.84,4.84,0,0,1,19391.645-20631.9Zm-12.467,0a4.842,4.842,0,0,1,4.848-4.836,4.84,4.84,0,0,1,4.848,4.836,4.841,4.841,0,0,1-4.848,4.838A4.844,4.844,0,0,1,19379.178-20631.9Zm-12.691,0a4.84,4.84,0,0,1,4.848-4.836,4.842,4.842,0,0,1,4.848,4.836,4.844,4.844,0,0,1-4.848,4.838A4.841,4.841,0,0,1,19366.486-20631.9Zm-12.455,0a4.837,4.837,0,0,1,4.842-4.836,4.84,4.84,0,0,1,4.848,4.836,4.841,4.841,0,0,1-4.848,4.838A4.839,4.839,0,0,1,19354.031-20631.9Zm-12.463,0a4.84,4.84,0,0,1,4.848-4.836,4.837,4.837,0,0,1,4.842,4.836,4.839,4.839,0,0,1-4.842,4.838A4.841,4.841,0,0,1,19341.568-20631.9Zm-12.467,0a4.842,4.842,0,0,1,4.848-4.836,4.84,4.84,0,0,1,4.848,4.836,4.841,4.841,0,0,1-4.848,4.838A4.844,4.844,0,0,1,19329.1-20631.9Zm-12.461,0a4.843,4.843,0,0,1,4.852-4.836,4.837,4.837,0,0,1,4.842,4.836,4.839,4.839,0,0,1-4.842,4.838A4.845,4.845,0,0,1,19316.641-20631.9Zm-12.463,0a4.842,4.842,0,0,1,4.848-4.836,4.842,4.842,0,0,1,4.848,4.836,4.844,4.844,0,0,1-4.848,4.838A4.844,4.844,0,0,1,19304.178-20631.9Zm137.309-12.441a4.843,4.843,0,0,1,4.848-4.836,4.841,4.841,0,0,1,4.848,4.836,4.841,4.841,0,0,1-4.848,4.838A4.844,4.844,0,0,1,19441.486-20644.34Zm-12.457,0a4.84,4.84,0,0,1,4.842-4.836,4.84,4.84,0,0,1,4.848,4.836,4.84,4.84,0,0,1-4.848,4.838A4.84,4.84,0,0,1,19429.029-20644.34Zm-12.461,0a4.84,4.84,0,0,1,4.848-4.836,4.84,4.84,0,0,1,4.842,4.836,4.84,4.84,0,0,1-4.842,4.838A4.84,4.84,0,0,1,19416.568-20644.34Zm-12.467,0a4.844,4.844,0,0,1,4.852-4.836,4.843,4.843,0,0,1,4.848,4.836,4.844,4.844,0,0,1-4.848,4.838A4.845,4.845,0,0,1,19404.1-20644.34Zm-12.457,0a4.84,4.84,0,0,1,4.848-4.836,4.838,4.838,0,0,1,4.842,4.836,4.839,4.839,0,0,1-4.842,4.838A4.84,4.84,0,0,1,19391.645-20644.34Zm-12.467,0a4.843,4.843,0,0,1,4.848-4.836,4.841,4.841,0,0,1,4.848,4.836,4.841,4.841,0,0,1-4.848,4.838A4.844,4.844,0,0,1,19379.178-20644.34Zm-12.691,0a4.841,4.841,0,0,1,4.848-4.836,4.843,4.843,0,0,1,4.848,4.836,4.844,4.844,0,0,1-4.848,4.838A4.841,4.841,0,0,1,19366.486-20644.34Zm-12.455,0a4.838,4.838,0,0,1,4.842-4.836,4.841,4.841,0,0,1,4.848,4.836,4.841,4.841,0,0,1-4.848,4.838A4.839,4.839,0,0,1,19354.031-20644.34Zm-12.463,0a4.841,4.841,0,0,1,4.848-4.836,4.838,4.838,0,0,1,4.842,4.836,4.839,4.839,0,0,1-4.842,4.838A4.841,4.841,0,0,1,19341.568-20644.34Zm-12.467,0a4.843,4.843,0,0,1,4.848-4.836,4.841,4.841,0,0,1,4.848,4.836,4.841,4.841,0,0,1-4.848,4.838A4.844,4.844,0,0,1,19329.1-20644.34Zm-12.461,0a4.844,4.844,0,0,1,4.852-4.836,4.838,4.838,0,0,1,4.842,4.836,4.839,4.839,0,0,1-4.842,4.838A4.845,4.845,0,0,1,19316.641-20644.34Zm-12.463,0a4.843,4.843,0,0,1,4.848-4.836,4.843,4.843,0,0,1,4.848,4.836,4.844,4.844,0,0,1-4.848,4.838A4.844,4.844,0,0,1,19304.178-20644.34Zm137.309-12.439a4.844,4.844,0,0,1,4.848-4.838,4.841,4.841,0,0,1,4.848,4.838,4.843,4.843,0,0,1-4.848,4.836A4.846,4.846,0,0,1,19441.486-20656.779Zm-12.457,0a4.84,4.84,0,0,1,4.842-4.838,4.84,4.84,0,0,1,4.848,4.838,4.842,4.842,0,0,1-4.848,4.836A4.842,4.842,0,0,1,19429.029-20656.779Zm-12.461,0a4.84,4.84,0,0,1,4.848-4.838,4.84,4.84,0,0,1,4.842,4.838,4.842,4.842,0,0,1-4.842,4.836A4.842,4.842,0,0,1,19416.568-20656.779Zm-12.467,0a4.845,4.845,0,0,1,4.852-4.838,4.844,4.844,0,0,1,4.848,4.838,4.846,4.846,0,0,1-4.848,4.836A4.847,4.847,0,0,1,19404.1-20656.779Zm-12.457,0a4.84,4.84,0,0,1,4.848-4.838,4.839,4.839,0,0,1,4.842,4.838,4.841,4.841,0,0,1-4.842,4.836A4.842,4.842,0,0,1,19391.645-20656.779Zm-12.467,0a4.844,4.844,0,0,1,4.848-4.838,4.841,4.841,0,0,1,4.848,4.838,4.843,4.843,0,0,1-4.848,4.836A4.846,4.846,0,0,1,19379.178-20656.779Zm-12.691,0a4.841,4.841,0,0,1,4.848-4.838,4.844,4.844,0,0,1,4.848,4.838,4.846,4.846,0,0,1-4.848,4.836A4.843,4.843,0,0,1,19366.486-20656.779Zm-12.455,0a4.839,4.839,0,0,1,4.842-4.838,4.841,4.841,0,0,1,4.848,4.838,4.843,4.843,0,0,1-4.848,4.836A4.841,4.841,0,0,1,19354.031-20656.779Zm-12.463,0a4.841,4.841,0,0,1,4.848-4.838,4.839,4.839,0,0,1,4.842,4.838,4.841,4.841,0,0,1-4.842,4.836A4.843,4.843,0,0,1,19341.568-20656.779Zm-12.467,0a4.844,4.844,0,0,1,4.848-4.838,4.841,4.841,0,0,1,4.848,4.838,4.843,4.843,0,0,1-4.848,4.836A4.846,4.846,0,0,1,19329.1-20656.779Zm-12.461,0a4.845,4.845,0,0,1,4.852-4.838,4.839,4.839,0,0,1,4.842,4.838,4.841,4.841,0,0,1-4.842,4.836A4.847,4.847,0,0,1,19316.641-20656.779Zm-12.463,0a4.844,4.844,0,0,1,4.848-4.838,4.844,4.844,0,0,1,4.848,4.838,4.846,4.846,0,0,1-4.848,4.836A4.846,4.846,0,0,1,19304.178-20656.779Zm137.309-12.441a4.847,4.847,0,0,1,4.848-4.842,4.845,4.845,0,0,1,4.848,4.842,4.843,4.843,0,0,1-4.848,4.836A4.846,4.846,0,0,1,19441.486-20669.221Zm-12.457,0a4.843,4.843,0,0,1,4.842-4.842,4.843,4.843,0,0,1,4.848,4.842,4.842,4.842,0,0,1-4.848,4.836A4.842,4.842,0,0,1,19429.029-20669.221Zm-12.461,0a4.843,4.843,0,0,1,4.848-4.842,4.843,4.843,0,0,1,4.842,4.842,4.842,4.842,0,0,1-4.842,4.836A4.842,4.842,0,0,1,19416.568-20669.221Zm-12.467,0a4.848,4.848,0,0,1,4.852-4.842,4.847,4.847,0,0,1,4.848,4.842,4.846,4.846,0,0,1-4.848,4.836A4.847,4.847,0,0,1,19404.1-20669.221Zm-12.457,0a4.843,4.843,0,0,1,4.848-4.842,4.842,4.842,0,0,1,4.842,4.842,4.841,4.841,0,0,1-4.842,4.836A4.842,4.842,0,0,1,19391.645-20669.221Zm-12.467,0a4.847,4.847,0,0,1,4.848-4.842,4.845,4.845,0,0,1,4.848,4.842,4.843,4.843,0,0,1-4.848,4.836A4.846,4.846,0,0,1,19379.178-20669.221Zm-12.691,0a4.845,4.845,0,0,1,4.848-4.842,4.847,4.847,0,0,1,4.848,4.842,4.846,4.846,0,0,1-4.848,4.836A4.843,4.843,0,0,1,19366.486-20669.221Zm-12.455,0a4.842,4.842,0,0,1,4.842-4.842,4.845,4.845,0,0,1,4.848,4.842,4.843,4.843,0,0,1-4.848,4.836A4.841,4.841,0,0,1,19354.031-20669.221Zm-12.463,0a4.845,4.845,0,0,1,4.848-4.842,4.842,4.842,0,0,1,4.842,4.842,4.841,4.841,0,0,1-4.842,4.836A4.843,4.843,0,0,1,19341.568-20669.221Zm-12.467,0a4.847,4.847,0,0,1,4.848-4.842,4.845,4.845,0,0,1,4.848,4.842,4.843,4.843,0,0,1-4.848,4.836A4.846,4.846,0,0,1,19329.1-20669.221Zm-12.461,0a4.848,4.848,0,0,1,4.852-4.842,4.842,4.842,0,0,1,4.842,4.842,4.841,4.841,0,0,1-4.842,4.836A4.847,4.847,0,0,1,19316.641-20669.221Zm-12.463,0a4.847,4.847,0,0,1,4.848-4.842,4.847,4.847,0,0,1,4.848,4.842,4.846,4.846,0,0,1-4.848,4.836A4.846,4.846,0,0,1,19304.178-20669.221Zm137.309-12.68a4.844,4.844,0,0,1,4.848-4.838,4.841,4.841,0,0,1,4.848,4.838,4.841,4.841,0,0,1-4.848,4.836A4.843,4.843,0,0,1,19441.486-20681.9Zm-12.457,0a4.84,4.84,0,0,1,4.842-4.838,4.84,4.84,0,0,1,4.848,4.838,4.84,4.84,0,0,1-4.848,4.836A4.84,4.84,0,0,1,19429.029-20681.9Zm-12.461,0a4.84,4.84,0,0,1,4.848-4.838,4.84,4.84,0,0,1,4.842,4.838,4.84,4.84,0,0,1-4.842,4.836A4.84,4.84,0,0,1,19416.568-20681.9Zm-12.467,0a4.845,4.845,0,0,1,4.852-4.838,4.844,4.844,0,0,1,4.848,4.838,4.843,4.843,0,0,1-4.848,4.836A4.844,4.844,0,0,1,19404.1-20681.9Zm-12.457,0a4.84,4.84,0,0,1,4.848-4.838,4.839,4.839,0,0,1,4.842,4.838,4.838,4.838,0,0,1-4.842,4.836A4.84,4.84,0,0,1,19391.645-20681.9Zm-12.467,0a4.844,4.844,0,0,1,4.848-4.838,4.841,4.841,0,0,1,4.848,4.838,4.841,4.841,0,0,1-4.848,4.836A4.843,4.843,0,0,1,19379.178-20681.9Zm-12.691,0a4.841,4.841,0,0,1,4.848-4.838,4.844,4.844,0,0,1,4.848,4.838,4.843,4.843,0,0,1-4.848,4.836A4.841,4.841,0,0,1,19366.486-20681.9Zm-12.455,0a4.839,4.839,0,0,1,4.842-4.838,4.841,4.841,0,0,1,4.848,4.838,4.841,4.841,0,0,1-4.848,4.836A4.838,4.838,0,0,1,19354.031-20681.9Zm-12.463,0a4.841,4.841,0,0,1,4.848-4.838,4.839,4.839,0,0,1,4.842,4.838,4.838,4.838,0,0,1-4.842,4.836A4.841,4.841,0,0,1,19341.568-20681.9Zm-12.467,0a4.844,4.844,0,0,1,4.848-4.838,4.841,4.841,0,0,1,4.848,4.838,4.841,4.841,0,0,1-4.848,4.836A4.843,4.843,0,0,1,19329.1-20681.9Zm-12.461,0a4.845,4.845,0,0,1,4.852-4.838,4.839,4.839,0,0,1,4.842,4.838,4.838,4.838,0,0,1-4.842,4.836A4.844,4.844,0,0,1,19316.641-20681.9Zm-12.463,0a4.844,4.844,0,0,1,4.848-4.838,4.844,4.844,0,0,1,4.848,4.838,4.843,4.843,0,0,1-4.848,4.836A4.843,4.843,0,0,1,19304.178-20681.9Zm137.309-12.436a4.845,4.845,0,0,1,4.848-4.844,4.843,4.843,0,0,1,4.848,4.844,4.838,4.838,0,0,1-4.848,4.83A4.841,4.841,0,0,1,19441.486-20694.336Zm-12.457,0a4.841,4.841,0,0,1,4.842-4.844,4.841,4.841,0,0,1,4.848,4.844,4.837,4.837,0,0,1-4.848,4.83A4.837,4.837,0,0,1,19429.029-20694.336Zm-12.461,0a4.841,4.841,0,0,1,4.848-4.844,4.841,4.841,0,0,1,4.842,4.844,4.837,4.837,0,0,1-4.842,4.83A4.837,4.837,0,0,1,19416.568-20694.336Zm-12.467,0a4.846,4.846,0,0,1,4.852-4.844,4.845,4.845,0,0,1,4.848,4.844,4.841,4.841,0,0,1-4.848,4.83A4.842,4.842,0,0,1,19404.1-20694.336Zm-12.457,0a4.841,4.841,0,0,1,4.848-4.844,4.84,4.84,0,0,1,4.842,4.844,4.836,4.836,0,0,1-4.842,4.83A4.837,4.837,0,0,1,19391.645-20694.336Zm-12.467,0a4.845,4.845,0,0,1,4.848-4.844,4.843,4.843,0,0,1,4.848,4.844,4.838,4.838,0,0,1-4.848,4.83A4.841,4.841,0,0,1,19379.178-20694.336Zm-12.691,0a4.843,4.843,0,0,1,4.848-4.844,4.845,4.845,0,0,1,4.848,4.844,4.841,4.841,0,0,1-4.848,4.83A4.838,4.838,0,0,1,19366.486-20694.336Zm-12.455,0a4.84,4.84,0,0,1,4.842-4.844,4.843,4.843,0,0,1,4.848,4.844,4.838,4.838,0,0,1-4.848,4.83A4.836,4.836,0,0,1,19354.031-20694.336Zm-12.463,0a4.843,4.843,0,0,1,4.848-4.844,4.84,4.84,0,0,1,4.842,4.844,4.836,4.836,0,0,1-4.842,4.83A4.838,4.838,0,0,1,19341.568-20694.336Zm-12.467,0a4.845,4.845,0,0,1,4.848-4.844,4.843,4.843,0,0,1,4.848,4.844,4.838,4.838,0,0,1-4.848,4.83A4.841,4.841,0,0,1,19329.1-20694.336Zm-12.461,0a4.846,4.846,0,0,1,4.852-4.844,4.84,4.84,0,0,1,4.842,4.844,4.836,4.836,0,0,1-4.842,4.83A4.842,4.842,0,0,1,19316.641-20694.336Zm-12.463,0a4.845,4.845,0,0,1,4.848-4.844,4.845,4.845,0,0,1,4.848,4.844,4.841,4.841,0,0,1-4.848,4.83A4.841,4.841,0,0,1,19304.178-20694.336Zm137.309-12.441a4.847,4.847,0,0,1,4.848-4.842,4.845,4.845,0,0,1,4.848,4.842,4.843,4.843,0,0,1-4.848,4.836A4.846,4.846,0,0,1,19441.486-20706.777Zm-12.457,0a4.843,4.843,0,0,1,4.842-4.842,4.843,4.843,0,0,1,4.848,4.842,4.842,4.842,0,0,1-4.848,4.836A4.842,4.842,0,0,1,19429.029-20706.777Zm-12.461,0a4.843,4.843,0,0,1,4.848-4.842,4.843,4.843,0,0,1,4.842,4.842,4.842,4.842,0,0,1-4.842,4.836A4.842,4.842,0,0,1,19416.568-20706.777Zm-12.467,0a4.848,4.848,0,0,1,4.852-4.842,4.847,4.847,0,0,1,4.848,4.842,4.846,4.846,0,0,1-4.848,4.836A4.847,4.847,0,0,1,19404.1-20706.777Zm-12.457,0a4.843,4.843,0,0,1,4.848-4.842,4.842,4.842,0,0,1,4.842,4.842,4.841,4.841,0,0,1-4.842,4.836A4.842,4.842,0,0,1,19391.645-20706.777Zm-12.467,0a4.847,4.847,0,0,1,4.848-4.842,4.845,4.845,0,0,1,4.848,4.842,4.843,4.843,0,0,1-4.848,4.836A4.846,4.846,0,0,1,19379.178-20706.777Zm-12.691,0a4.845,4.845,0,0,1,4.848-4.842,4.847,4.847,0,0,1,4.848,4.842,4.846,4.846,0,0,1-4.848,4.836A4.843,4.843,0,0,1,19366.486-20706.777Zm-12.455,0a4.842,4.842,0,0,1,4.842-4.842,4.845,4.845,0,0,1,4.848,4.842,4.843,4.843,0,0,1-4.848,4.836A4.841,4.841,0,0,1,19354.031-20706.777Zm-12.463,0a4.845,4.845,0,0,1,4.848-4.842,4.842,4.842,0,0,1,4.842,4.842,4.841,4.841,0,0,1-4.842,4.836A4.843,4.843,0,0,1,19341.568-20706.777Zm-12.467,0a4.847,4.847,0,0,1,4.848-4.842,4.845,4.845,0,0,1,4.848,4.842,4.843,4.843,0,0,1-4.848,4.836A4.846,4.846,0,0,1,19329.1-20706.777Zm-12.461,0a4.848,4.848,0,0,1,4.852-4.842,4.842,4.842,0,0,1,4.842,4.842,4.841,4.841,0,0,1-4.842,4.836A4.847,4.847,0,0,1,19316.641-20706.777Zm-12.463,0a4.847,4.847,0,0,1,4.848-4.842,4.847,4.847,0,0,1,4.848,4.842,4.846,4.846,0,0,1-4.848,4.836A4.846,4.846,0,0,1,19304.178-20706.777Zm137.309-12.447a4.846,4.846,0,0,1,4.848-4.836,4.843,4.843,0,0,1,4.848,4.836,4.846,4.846,0,0,1-4.848,4.844A4.849,4.849,0,0,1,19441.486-20719.225Zm-12.457,0a4.842,4.842,0,0,1,4.842-4.836,4.842,4.842,0,0,1,4.848,4.836,4.845,4.845,0,0,1-4.848,4.844A4.845,4.845,0,0,1,19429.029-20719.225Zm-12.461,0a4.842,4.842,0,0,1,4.848-4.836,4.842,4.842,0,0,1,4.842,4.836,4.845,4.845,0,0,1-4.842,4.844A4.845,4.845,0,0,1,19416.568-20719.225Zm-12.467,0a4.847,4.847,0,0,1,4.852-4.836,4.846,4.846,0,0,1,4.848,4.836,4.849,4.849,0,0,1-4.848,4.844A4.85,4.85,0,0,1,19404.1-20719.225Zm-12.457,0a4.842,4.842,0,0,1,4.848-4.836,4.841,4.841,0,0,1,4.842,4.836,4.844,4.844,0,0,1-4.842,4.844A4.845,4.845,0,0,1,19391.645-20719.225Zm-12.467,0a4.846,4.846,0,0,1,4.848-4.836,4.843,4.843,0,0,1,4.848,4.836,4.846,4.846,0,0,1-4.848,4.844A4.849,4.849,0,0,1,19379.178-20719.225Zm-12.691,0a4.843,4.843,0,0,1,4.848-4.836,4.846,4.846,0,0,1,4.848,4.836,4.849,4.849,0,0,1-4.848,4.844A4.846,4.846,0,0,1,19366.486-20719.225Zm-12.455,0a4.841,4.841,0,0,1,4.842-4.836,4.843,4.843,0,0,1,4.848,4.836,4.846,4.846,0,0,1-4.848,4.844A4.844,4.844,0,0,1,19354.031-20719.225Zm-12.463,0a4.843,4.843,0,0,1,4.848-4.836,4.841,4.841,0,0,1,4.842,4.836,4.844,4.844,0,0,1-4.842,4.844A4.846,4.846,0,0,1,19341.568-20719.225Zm-12.467,0a4.846,4.846,0,0,1,4.848-4.836,4.843,4.843,0,0,1,4.848,4.836,4.846,4.846,0,0,1-4.848,4.844A4.849,4.849,0,0,1,19329.1-20719.225Zm-12.461,0a4.847,4.847,0,0,1,4.852-4.836,4.841,4.841,0,0,1,4.842,4.836,4.844,4.844,0,0,1-4.842,4.844A4.85,4.85,0,0,1,19316.641-20719.225Zm-12.463,0a4.846,4.846,0,0,1,4.848-4.836,4.846,4.846,0,0,1,4.848,4.836,4.849,4.849,0,0,1-4.848,4.844A4.849,4.849,0,0,1,19304.178-20719.225Z" transform="matrix(0.914, -0.407, 0.407, 0.914, -9258.205, 26813.119)" fill="#fff"/>
            </g>
            <path id="사각형_20612" data-name="사각형 20612" d="M2.349,0H76.08a2.349,2.349,0,0,1,2.349,2.349V57.815a2.35,2.35,0,0,1-2.35,2.35H2.35A2.35,2.35,0,0,1,0,57.815V2.349A2.349,2.349,0,0,1,2.349,0Z" transform="translate(2.912 11.622)" fill="none" stroke="#000" stroke-linecap="round" stroke-linejoin="round" stroke-width="2"/>
            <rect id="사각형_20614" data-name="사각형 20614" width="15.061" height="51.714" transform="translate(33.887 20.074)" fill="none" stroke="#000" stroke-linecap="round" stroke-linejoin="round" stroke-width="2"/>
            <rect id="사각형_20615" data-name="사각형 20615" width="84.254" height="12.291" rx="3" transform="translate(0 7.782)" fill="#ffbe27" stroke="#000" stroke-width="2"/>
            <g id="마스크_그룹_110101" data-name="마스크 그룹 110101" opacity="0.2" clip-path="url(#clip-path-3)">
              <path id="합치기_187" data-name="합치기 187" d="M19441.486-20631.9a4.842,4.842,0,0,1,4.848-4.836,4.84,4.84,0,0,1,4.848,4.836,4.841,4.841,0,0,1-4.848,4.838A4.844,4.844,0,0,1,19441.486-20631.9Zm-12.457,0a4.838,4.838,0,0,1,4.842-4.836,4.838,4.838,0,0,1,4.848,4.836,4.84,4.84,0,0,1-4.848,4.838A4.84,4.84,0,0,1,19429.029-20631.9Zm-12.461,0a4.838,4.838,0,0,1,4.848-4.836,4.838,4.838,0,0,1,4.842,4.836,4.84,4.84,0,0,1-4.842,4.838A4.84,4.84,0,0,1,19416.568-20631.9Zm-12.467,0a4.843,4.843,0,0,1,4.852-4.836,4.842,4.842,0,0,1,4.848,4.836,4.844,4.844,0,0,1-4.848,4.838A4.845,4.845,0,0,1,19404.1-20631.9Zm-12.457,0a4.838,4.838,0,0,1,4.848-4.836,4.837,4.837,0,0,1,4.842,4.836,4.839,4.839,0,0,1-4.842,4.838A4.84,4.84,0,0,1,19391.645-20631.9Zm-12.467,0a4.842,4.842,0,0,1,4.848-4.836,4.84,4.84,0,0,1,4.848,4.836,4.841,4.841,0,0,1-4.848,4.838A4.844,4.844,0,0,1,19379.178-20631.9Zm-12.691,0a4.84,4.84,0,0,1,4.848-4.836,4.842,4.842,0,0,1,4.848,4.836,4.844,4.844,0,0,1-4.848,4.838A4.841,4.841,0,0,1,19366.486-20631.9Zm-12.455,0a4.837,4.837,0,0,1,4.842-4.836,4.84,4.84,0,0,1,4.848,4.836,4.841,4.841,0,0,1-4.848,4.838A4.839,4.839,0,0,1,19354.031-20631.9Zm-12.463,0a4.84,4.84,0,0,1,4.848-4.836,4.837,4.837,0,0,1,4.842,4.836,4.839,4.839,0,0,1-4.842,4.838A4.841,4.841,0,0,1,19341.568-20631.9Zm-12.467,0a4.842,4.842,0,0,1,4.848-4.836,4.84,4.84,0,0,1,4.848,4.836,4.841,4.841,0,0,1-4.848,4.838A4.844,4.844,0,0,1,19329.1-20631.9Zm-12.461,0a4.843,4.843,0,0,1,4.852-4.836,4.837,4.837,0,0,1,4.842,4.836,4.839,4.839,0,0,1-4.842,4.838A4.845,4.845,0,0,1,19316.641-20631.9Zm-12.463,0a4.842,4.842,0,0,1,4.848-4.836,4.842,4.842,0,0,1,4.848,4.836,4.844,4.844,0,0,1-4.848,4.838A4.844,4.844,0,0,1,19304.178-20631.9Zm137.309-12.441a4.843,4.843,0,0,1,4.848-4.836,4.841,4.841,0,0,1,4.848,4.836,4.841,4.841,0,0,1-4.848,4.838A4.844,4.844,0,0,1,19441.486-20644.34Zm-12.457,0a4.84,4.84,0,0,1,4.842-4.836,4.84,4.84,0,0,1,4.848,4.836,4.84,4.84,0,0,1-4.848,4.838A4.84,4.84,0,0,1,19429.029-20644.34Zm-12.461,0a4.84,4.84,0,0,1,4.848-4.836,4.84,4.84,0,0,1,4.842,4.836,4.84,4.84,0,0,1-4.842,4.838A4.84,4.84,0,0,1,19416.568-20644.34Zm-12.467,0a4.844,4.844,0,0,1,4.852-4.836,4.843,4.843,0,0,1,4.848,4.836,4.844,4.844,0,0,1-4.848,4.838A4.845,4.845,0,0,1,19404.1-20644.34Zm-12.457,0a4.84,4.84,0,0,1,4.848-4.836,4.838,4.838,0,0,1,4.842,4.836,4.839,4.839,0,0,1-4.842,4.838A4.84,4.84,0,0,1,19391.645-20644.34Zm-12.467,0a4.843,4.843,0,0,1,4.848-4.836,4.841,4.841,0,0,1,4.848,4.836,4.841,4.841,0,0,1-4.848,4.838A4.844,4.844,0,0,1,19379.178-20644.34Zm-12.691,0a4.841,4.841,0,0,1,4.848-4.836,4.843,4.843,0,0,1,4.848,4.836,4.844,4.844,0,0,1-4.848,4.838A4.841,4.841,0,0,1,19366.486-20644.34Zm-12.455,0a4.838,4.838,0,0,1,4.842-4.836,4.841,4.841,0,0,1,4.848,4.836,4.841,4.841,0,0,1-4.848,4.838A4.839,4.839,0,0,1,19354.031-20644.34Zm-12.463,0a4.841,4.841,0,0,1,4.848-4.836,4.838,4.838,0,0,1,4.842,4.836,4.839,4.839,0,0,1-4.842,4.838A4.841,4.841,0,0,1,19341.568-20644.34Zm-12.467,0a4.843,4.843,0,0,1,4.848-4.836,4.841,4.841,0,0,1,4.848,4.836,4.841,4.841,0,0,1-4.848,4.838A4.844,4.844,0,0,1,19329.1-20644.34Zm-12.461,0a4.844,4.844,0,0,1,4.852-4.836,4.838,4.838,0,0,1,4.842,4.836,4.839,4.839,0,0,1-4.842,4.838A4.845,4.845,0,0,1,19316.641-20644.34Zm-12.463,0a4.843,4.843,0,0,1,4.848-4.836,4.843,4.843,0,0,1,4.848,4.836,4.844,4.844,0,0,1-4.848,4.838A4.844,4.844,0,0,1,19304.178-20644.34Zm137.309-12.439a4.844,4.844,0,0,1,4.848-4.838,4.841,4.841,0,0,1,4.848,4.838,4.843,4.843,0,0,1-4.848,4.836A4.846,4.846,0,0,1,19441.486-20656.779Zm-12.457,0a4.84,4.84,0,0,1,4.842-4.838,4.84,4.84,0,0,1,4.848,4.838,4.842,4.842,0,0,1-4.848,4.836A4.842,4.842,0,0,1,19429.029-20656.779Zm-12.461,0a4.84,4.84,0,0,1,4.848-4.838,4.84,4.84,0,0,1,4.842,4.838,4.842,4.842,0,0,1-4.842,4.836A4.842,4.842,0,0,1,19416.568-20656.779Zm-12.467,0a4.845,4.845,0,0,1,4.852-4.838,4.844,4.844,0,0,1,4.848,4.838,4.846,4.846,0,0,1-4.848,4.836A4.847,4.847,0,0,1,19404.1-20656.779Zm-12.457,0a4.84,4.84,0,0,1,4.848-4.838,4.839,4.839,0,0,1,4.842,4.838,4.841,4.841,0,0,1-4.842,4.836A4.842,4.842,0,0,1,19391.645-20656.779Zm-12.467,0a4.844,4.844,0,0,1,4.848-4.838,4.841,4.841,0,0,1,4.848,4.838,4.843,4.843,0,0,1-4.848,4.836A4.846,4.846,0,0,1,19379.178-20656.779Zm-12.691,0a4.841,4.841,0,0,1,4.848-4.838,4.844,4.844,0,0,1,4.848,4.838,4.846,4.846,0,0,1-4.848,4.836A4.843,4.843,0,0,1,19366.486-20656.779Zm-12.455,0a4.839,4.839,0,0,1,4.842-4.838,4.841,4.841,0,0,1,4.848,4.838,4.843,4.843,0,0,1-4.848,4.836A4.841,4.841,0,0,1,19354.031-20656.779Zm-12.463,0a4.841,4.841,0,0,1,4.848-4.838,4.839,4.839,0,0,1,4.842,4.838,4.841,4.841,0,0,1-4.842,4.836A4.843,4.843,0,0,1,19341.568-20656.779Zm-12.467,0a4.844,4.844,0,0,1,4.848-4.838,4.841,4.841,0,0,1,4.848,4.838,4.843,4.843,0,0,1-4.848,4.836A4.846,4.846,0,0,1,19329.1-20656.779Zm-12.461,0a4.845,4.845,0,0,1,4.852-4.838,4.839,4.839,0,0,1,4.842,4.838,4.841,4.841,0,0,1-4.842,4.836A4.847,4.847,0,0,1,19316.641-20656.779Zm-12.463,0a4.844,4.844,0,0,1,4.848-4.838,4.844,4.844,0,0,1,4.848,4.838,4.846,4.846,0,0,1-4.848,4.836A4.846,4.846,0,0,1,19304.178-20656.779Zm137.309-12.441a4.847,4.847,0,0,1,4.848-4.842,4.845,4.845,0,0,1,4.848,4.842,4.843,4.843,0,0,1-4.848,4.836A4.846,4.846,0,0,1,19441.486-20669.221Zm-12.457,0a4.843,4.843,0,0,1,4.842-4.842,4.843,4.843,0,0,1,4.848,4.842,4.842,4.842,0,0,1-4.848,4.836A4.842,4.842,0,0,1,19429.029-20669.221Zm-12.461,0a4.843,4.843,0,0,1,4.848-4.842,4.843,4.843,0,0,1,4.842,4.842,4.842,4.842,0,0,1-4.842,4.836A4.842,4.842,0,0,1,19416.568-20669.221Zm-12.467,0a4.848,4.848,0,0,1,4.852-4.842,4.847,4.847,0,0,1,4.848,4.842,4.846,4.846,0,0,1-4.848,4.836A4.847,4.847,0,0,1,19404.1-20669.221Zm-12.457,0a4.843,4.843,0,0,1,4.848-4.842,4.842,4.842,0,0,1,4.842,4.842,4.841,4.841,0,0,1-4.842,4.836A4.842,4.842,0,0,1,19391.645-20669.221Zm-12.467,0a4.847,4.847,0,0,1,4.848-4.842,4.845,4.845,0,0,1,4.848,4.842,4.843,4.843,0,0,1-4.848,4.836A4.846,4.846,0,0,1,19379.178-20669.221Zm-12.691,0a4.845,4.845,0,0,1,4.848-4.842,4.847,4.847,0,0,1,4.848,4.842,4.846,4.846,0,0,1-4.848,4.836A4.843,4.843,0,0,1,19366.486-20669.221Zm-12.455,0a4.842,4.842,0,0,1,4.842-4.842,4.845,4.845,0,0,1,4.848,4.842,4.843,4.843,0,0,1-4.848,4.836A4.841,4.841,0,0,1,19354.031-20669.221Zm-12.463,0a4.845,4.845,0,0,1,4.848-4.842,4.842,4.842,0,0,1,4.842,4.842,4.841,4.841,0,0,1-4.842,4.836A4.843,4.843,0,0,1,19341.568-20669.221Zm-12.467,0a4.847,4.847,0,0,1,4.848-4.842,4.845,4.845,0,0,1,4.848,4.842,4.843,4.843,0,0,1-4.848,4.836A4.846,4.846,0,0,1,19329.1-20669.221Zm-12.461,0a4.848,4.848,0,0,1,4.852-4.842,4.842,4.842,0,0,1,4.842,4.842,4.841,4.841,0,0,1-4.842,4.836A4.847,4.847,0,0,1,19316.641-20669.221Zm-12.463,0a4.847,4.847,0,0,1,4.848-4.842,4.847,4.847,0,0,1,4.848,4.842,4.846,4.846,0,0,1-4.848,4.836A4.846,4.846,0,0,1,19304.178-20669.221Zm137.309-12.68a4.844,4.844,0,0,1,4.848-4.838,4.841,4.841,0,0,1,4.848,4.838,4.841,4.841,0,0,1-4.848,4.836A4.843,4.843,0,0,1,19441.486-20681.9Zm-12.457,0a4.84,4.84,0,0,1,4.842-4.838,4.84,4.84,0,0,1,4.848,4.838,4.84,4.84,0,0,1-4.848,4.836A4.84,4.84,0,0,1,19429.029-20681.9Zm-12.461,0a4.84,4.84,0,0,1,4.848-4.838,4.84,4.84,0,0,1,4.842,4.838,4.84,4.84,0,0,1-4.842,4.836A4.84,4.84,0,0,1,19416.568-20681.9Zm-12.467,0a4.845,4.845,0,0,1,4.852-4.838,4.844,4.844,0,0,1,4.848,4.838,4.843,4.843,0,0,1-4.848,4.836A4.844,4.844,0,0,1,19404.1-20681.9Zm-12.457,0a4.84,4.84,0,0,1,4.848-4.838,4.839,4.839,0,0,1,4.842,4.838,4.838,4.838,0,0,1-4.842,4.836A4.84,4.84,0,0,1,19391.645-20681.9Zm-12.467,0a4.844,4.844,0,0,1,4.848-4.838,4.841,4.841,0,0,1,4.848,4.838,4.841,4.841,0,0,1-4.848,4.836A4.843,4.843,0,0,1,19379.178-20681.9Zm-12.691,0a4.841,4.841,0,0,1,4.848-4.838,4.844,4.844,0,0,1,4.848,4.838,4.843,4.843,0,0,1-4.848,4.836A4.841,4.841,0,0,1,19366.486-20681.9Zm-12.455,0a4.839,4.839,0,0,1,4.842-4.838,4.841,4.841,0,0,1,4.848,4.838,4.841,4.841,0,0,1-4.848,4.836A4.838,4.838,0,0,1,19354.031-20681.9Zm-12.463,0a4.841,4.841,0,0,1,4.848-4.838,4.839,4.839,0,0,1,4.842,4.838,4.838,4.838,0,0,1-4.842,4.836A4.841,4.841,0,0,1,19341.568-20681.9Zm-12.467,0a4.844,4.844,0,0,1,4.848-4.838,4.841,4.841,0,0,1,4.848,4.838,4.841,4.841,0,0,1-4.848,4.836A4.843,4.843,0,0,1,19329.1-20681.9Zm-12.461,0a4.845,4.845,0,0,1,4.852-4.838,4.839,4.839,0,0,1,4.842,4.838,4.838,4.838,0,0,1-4.842,4.836A4.844,4.844,0,0,1,19316.641-20681.9Zm-12.463,0a4.844,4.844,0,0,1,4.848-4.838,4.844,4.844,0,0,1,4.848,4.838,4.843,4.843,0,0,1-4.848,4.836A4.843,4.843,0,0,1,19304.178-20681.9Zm137.309-12.436a4.845,4.845,0,0,1,4.848-4.844,4.843,4.843,0,0,1,4.848,4.844,4.838,4.838,0,0,1-4.848,4.83A4.841,4.841,0,0,1,19441.486-20694.336Zm-12.457,0a4.841,4.841,0,0,1,4.842-4.844,4.841,4.841,0,0,1,4.848,4.844,4.837,4.837,0,0,1-4.848,4.83A4.837,4.837,0,0,1,19429.029-20694.336Zm-12.461,0a4.841,4.841,0,0,1,4.848-4.844,4.841,4.841,0,0,1,4.842,4.844,4.837,4.837,0,0,1-4.842,4.83A4.837,4.837,0,0,1,19416.568-20694.336Zm-12.467,0a4.846,4.846,0,0,1,4.852-4.844,4.845,4.845,0,0,1,4.848,4.844,4.841,4.841,0,0,1-4.848,4.83A4.842,4.842,0,0,1,19404.1-20694.336Zm-12.457,0a4.841,4.841,0,0,1,4.848-4.844,4.84,4.84,0,0,1,4.842,4.844,4.836,4.836,0,0,1-4.842,4.83A4.837,4.837,0,0,1,19391.645-20694.336Zm-12.467,0a4.845,4.845,0,0,1,4.848-4.844,4.843,4.843,0,0,1,4.848,4.844,4.838,4.838,0,0,1-4.848,4.83A4.841,4.841,0,0,1,19379.178-20694.336Zm-12.691,0a4.843,4.843,0,0,1,4.848-4.844,4.845,4.845,0,0,1,4.848,4.844,4.841,4.841,0,0,1-4.848,4.83A4.838,4.838,0,0,1,19366.486-20694.336Zm-12.455,0a4.84,4.84,0,0,1,4.842-4.844,4.843,4.843,0,0,1,4.848,4.844,4.838,4.838,0,0,1-4.848,4.83A4.836,4.836,0,0,1,19354.031-20694.336Zm-12.463,0a4.843,4.843,0,0,1,4.848-4.844,4.84,4.84,0,0,1,4.842,4.844,4.836,4.836,0,0,1-4.842,4.83A4.838,4.838,0,0,1,19341.568-20694.336Zm-12.467,0a4.845,4.845,0,0,1,4.848-4.844,4.843,4.843,0,0,1,4.848,4.844,4.838,4.838,0,0,1-4.848,4.83A4.841,4.841,0,0,1,19329.1-20694.336Zm-12.461,0a4.846,4.846,0,0,1,4.852-4.844,4.84,4.84,0,0,1,4.842,4.844,4.836,4.836,0,0,1-4.842,4.83A4.842,4.842,0,0,1,19316.641-20694.336Zm-12.463,0a4.845,4.845,0,0,1,4.848-4.844,4.845,4.845,0,0,1,4.848,4.844,4.841,4.841,0,0,1-4.848,4.83A4.841,4.841,0,0,1,19304.178-20694.336Zm137.309-12.441a4.847,4.847,0,0,1,4.848-4.842,4.845,4.845,0,0,1,4.848,4.842,4.843,4.843,0,0,1-4.848,4.836A4.846,4.846,0,0,1,19441.486-20706.777Zm-12.457,0a4.843,4.843,0,0,1,4.842-4.842,4.843,4.843,0,0,1,4.848,4.842,4.842,4.842,0,0,1-4.848,4.836A4.842,4.842,0,0,1,19429.029-20706.777Zm-12.461,0a4.843,4.843,0,0,1,4.848-4.842,4.843,4.843,0,0,1,4.842,4.842,4.842,4.842,0,0,1-4.842,4.836A4.842,4.842,0,0,1,19416.568-20706.777Zm-12.467,0a4.848,4.848,0,0,1,4.852-4.842,4.847,4.847,0,0,1,4.848,4.842,4.846,4.846,0,0,1-4.848,4.836A4.847,4.847,0,0,1,19404.1-20706.777Zm-12.457,0a4.843,4.843,0,0,1,4.848-4.842,4.842,4.842,0,0,1,4.842,4.842,4.841,4.841,0,0,1-4.842,4.836A4.842,4.842,0,0,1,19391.645-20706.777Zm-12.467,0a4.847,4.847,0,0,1,4.848-4.842,4.845,4.845,0,0,1,4.848,4.842,4.843,4.843,0,0,1-4.848,4.836A4.846,4.846,0,0,1,19379.178-20706.777Zm-12.691,0a4.845,4.845,0,0,1,4.848-4.842,4.847,4.847,0,0,1,4.848,4.842,4.846,4.846,0,0,1-4.848,4.836A4.843,4.843,0,0,1,19366.486-20706.777Zm-12.455,0a4.842,4.842,0,0,1,4.842-4.842,4.845,4.845,0,0,1,4.848,4.842,4.843,4.843,0,0,1-4.848,4.836A4.841,4.841,0,0,1,19354.031-20706.777Zm-12.463,0a4.845,4.845,0,0,1,4.848-4.842,4.842,4.842,0,0,1,4.842,4.842,4.841,4.841,0,0,1-4.842,4.836A4.843,4.843,0,0,1,19341.568-20706.777Zm-12.467,0a4.847,4.847,0,0,1,4.848-4.842,4.845,4.845,0,0,1,4.848,4.842,4.843,4.843,0,0,1-4.848,4.836A4.846,4.846,0,0,1,19329.1-20706.777Zm-12.461,0a4.848,4.848,0,0,1,4.852-4.842,4.842,4.842,0,0,1,4.842,4.842,4.841,4.841,0,0,1-4.842,4.836A4.847,4.847,0,0,1,19316.641-20706.777Zm-12.463,0a4.847,4.847,0,0,1,4.848-4.842,4.847,4.847,0,0,1,4.848,4.842,4.846,4.846,0,0,1-4.848,4.836A4.846,4.846,0,0,1,19304.178-20706.777Zm137.309-12.447a4.846,4.846,0,0,1,4.848-4.836,4.843,4.843,0,0,1,4.848,4.836,4.846,4.846,0,0,1-4.848,4.844A4.849,4.849,0,0,1,19441.486-20719.225Zm-12.457,0a4.842,4.842,0,0,1,4.842-4.836,4.842,4.842,0,0,1,4.848,4.836,4.845,4.845,0,0,1-4.848,4.844A4.845,4.845,0,0,1,19429.029-20719.225Zm-12.461,0a4.842,4.842,0,0,1,4.848-4.836,4.842,4.842,0,0,1,4.842,4.836,4.845,4.845,0,0,1-4.842,4.844A4.845,4.845,0,0,1,19416.568-20719.225Zm-12.467,0a4.847,4.847,0,0,1,4.852-4.836,4.846,4.846,0,0,1,4.848,4.836,4.849,4.849,0,0,1-4.848,4.844A4.85,4.85,0,0,1,19404.1-20719.225Zm-12.457,0a4.842,4.842,0,0,1,4.848-4.836,4.841,4.841,0,0,1,4.842,4.836,4.844,4.844,0,0,1-4.842,4.844A4.845,4.845,0,0,1,19391.645-20719.225Zm-12.467,0a4.846,4.846,0,0,1,4.848-4.836,4.843,4.843,0,0,1,4.848,4.836,4.846,4.846,0,0,1-4.848,4.844A4.849,4.849,0,0,1,19379.178-20719.225Zm-12.691,0a4.843,4.843,0,0,1,4.848-4.836,4.846,4.846,0,0,1,4.848,4.836,4.849,4.849,0,0,1-4.848,4.844A4.846,4.846,0,0,1,19366.486-20719.225Zm-12.455,0a4.841,4.841,0,0,1,4.842-4.836,4.843,4.843,0,0,1,4.848,4.836,4.846,4.846,0,0,1-4.848,4.844A4.844,4.844,0,0,1,19354.031-20719.225Zm-12.463,0a4.843,4.843,0,0,1,4.848-4.836,4.841,4.841,0,0,1,4.842,4.836,4.844,4.844,0,0,1-4.842,4.844A4.846,4.846,0,0,1,19341.568-20719.225Zm-12.467,0a4.846,4.846,0,0,1,4.848-4.836,4.843,4.843,0,0,1,4.848,4.836,4.846,4.846,0,0,1-4.848,4.844A4.849,4.849,0,0,1,19329.1-20719.225Zm-12.461,0a4.847,4.847,0,0,1,4.852-4.836,4.841,4.841,0,0,1,4.842,4.836,4.844,4.844,0,0,1-4.842,4.844A4.85,4.85,0,0,1,19316.641-20719.225Zm-12.463,0a4.846,4.846,0,0,1,4.848-4.836,4.846,4.846,0,0,1,4.848,4.836,4.849,4.849,0,0,1-4.848,4.844A4.849,4.849,0,0,1,19304.178-20719.225Z" transform="matrix(0.914, -0.407, 0.407, 0.914, -9258.205, 26813.119)" fill="#fff"/>
            </g>
            <rect id="사각형_20641" data-name="사각형 20641" width="84.254" height="12.291" rx="3" transform="translate(0 7.781)" fill="none" stroke="#000" stroke-width="2"/>
            <rect id="사각형_20613" data-name="사각형 20613" width="15.061" height="64.005" transform="translate(33.887 7.783)" fill="#ff4b55" stroke="#000" stroke-width="2"/>
          </g>
        </g>
      </g>
      <circle id="타원_694" data-name="타원 694" cx="4" cy="4" r="4" transform="translate(1473 515)" fill="#ffe65c"/>
      <circle id="타원_695" data-name="타원 695" cx="2.5" cy="2.5" r="2.5" transform="translate(1487 509)" fill="#ffe65c"/>
      <g id="그룹_113163" data-name="그룹 113163" transform="translate(1)">
        <circle id="타원_696" data-name="타원 696" cx="15" cy="15" r="15" transform="translate(1273 494)" fill="#ff747c"/>
        <path id="패스_38313" data-name="패스 38313" d="M6.752,15.391c3.063-1.88,8.237-2,9.584-5.939,1.283-3.761-3.762-6.493-6.513-2.817l-.174-.06c.058-4.59-5.611-5.494-6.881-1.731-1.335,3.949,2.7,7.191,3.985,10.547" transform="translate(1275.92 506.104) rotate(-31)" fill="#fff"/>
      </g>
    </g>
  </g>
</svg>
