<svg xmlns="http://www.w3.org/2000/svg" xmlns:xlink="http://www.w3.org/1999/xlink" width="51.453" height="45.795" viewBox="0 0 51.453 45.795">
  <defs>
    <linearGradient id="linear-gradient" x1="1" y1="0.335" x2="0.054" y2="0.842" gradientUnits="objectBoundingBox">
      <stop offset="0" stop-color="#f8fbfe"/>
      <stop offset="1" stop-color="#d9eeff"/>
    </linearGradient>
    <filter id="합치기_152" x="0" y="4.205" width="51.453" height="41.59" filterUnits="userSpaceOnUse">
      <feOffset dx="2" dy="4" input="SourceAlpha"/>
      <feGaussianBlur stdDeviation="2" result="blur"/>
      <feFlood flood-opacity="0.161"/>
      <feComposite operator="in" in2="blur"/>
      <feComposite in="SourceGraphic"/>
    </filter>
    <linearGradient id="linear-gradient-2" x1="1" y1="0.335" x2="0.054" y2="0.842" gradientUnits="objectBoundingBox">
      <stop offset="0" stop-color="#f8fbfe"/>
      <stop offset="1" stop-color="#80c6ff"/>
    </linearGradient>
    <linearGradient id="linear-gradient-3" x1="0.008" y1="0.696" x2="0.993" y2="0.298" gradientUnits="objectBoundingBox">
      <stop offset="0" stop-color="#81c5ff"/>
      <stop offset="1" stop-color="#3aa5ff"/>
    </linearGradient>
    <filter id="사각형_19729" x="5.234" y="6.205" width="27.124" height="24.658" filterUnits="userSpaceOnUse">
      <feOffset input="SourceAlpha"/>
      <feGaussianBlur stdDeviation="0.5" result="blur-2"/>
      <feFlood flood-color="#fff" flood-opacity="0.161" result="color"/>
      <feComposite operator="out" in="SourceGraphic" in2="blur-2"/>
      <feComposite operator="in" in="color"/>
      <feComposite operator="in" in2="SourceGraphic"/>
    </filter>
    <linearGradient id="linear-gradient-4" x1="1" y1="0.335" x2="0.054" y2="0.842" gradientUnits="objectBoundingBox">
      <stop offset="0" stop-color="#51afff"/>
      <stop offset="1" stop-color="#1494ff"/>
    </linearGradient>
    <linearGradient id="linear-gradient-5" x1="0.135" y1="0.138" x2="0.77" y2="0.91" gradientUnits="objectBoundingBox">
      <stop offset="0" stop-color="#555353"/>
      <stop offset="1" stop-color="#1e1e1e"/>
    </linearGradient>
    <linearGradient id="linear-gradient-7" x1="0.135" y1="0.138" x2="0.77" y2="0.91" gradientUnits="objectBoundingBox">
      <stop offset="0" stop-color="#fff"/>
      <stop offset="1" stop-color="#dbeeff"/>
    </linearGradient>
    <linearGradient id="linear-gradient-9" x1="1" y1="0.335" x2="0.054" y2="0.842" gradientUnits="objectBoundingBox">
      <stop offset="0" stop-color="#535151"/>
      <stop offset="1" stop-color="#212121"/>
    </linearGradient>
    <linearGradient id="linear-gradient-10" x1="0.267" y1="0.22" x2="0.754" y2="0.918" gradientUnits="objectBoundingBox">
      <stop offset="0" stop-color="#fff"/>
      <stop offset="1" stop-color="#d5ecff"/>
    </linearGradient>
    <filter id="다각형_33" x="8.399" y="6.904" width="20.795" height="19.562" filterUnits="userSpaceOnUse">
      <feOffset input="SourceAlpha"/>
      <feGaussianBlur stdDeviation="1" result="blur-3"/>
      <feFlood flood-color="#003e72" flood-opacity="0.302"/>
      <feComposite operator="in" in2="blur-3"/>
      <feComposite in="SourceGraphic"/>
    </filter>
  </defs>
  <g id="icon" transform="translate(17816.149 19086.148)">
    <rect id="사각형_20392" data-name="사각형 20392" width="40" height="40" transform="translate(-17812.148 -19086.148)" fill="none"/>
    <g id="그룹_110057" data-name="그룹 110057" transform="translate(-18703.148 -19982.943)">
      <g transform="matrix(1, 0, 0, 1, 887, 896.79)" filter="url(#합치기_152)">
        <path id="합치기_152-2" data-name="합치기 152" d="M23.425,24.658H13.562a4.932,4.932,0,1,1-9.863,0H1a1,1,0,0,1-1-1v-.466a1,1,0,0,1,1-1h.232V2a2,2,0,0,1,2-2H26.357a2,2,0,0,1,2,2V9.864h7.863a2,2,0,0,1,2,2V22.192h.233a1,1,0,0,1,1,1v.466a1,1,0,0,1-1,1H33.288a4.932,4.932,0,1,1-9.863,0Z" transform="translate(4 6.2)" fill="url(#linear-gradient)"/>
      </g>
      <path id="사각형_19731" data-name="사각형 19731" d="M0,0H9.863a0,0,0,0,1,0,0V14.795a0,0,0,0,1,0,0H2a2,2,0,0,1-2-2V0A0,0,0,0,1,0,0Z" transform="translate(929.22 927.658) rotate(180)" stroke="rgba(0,0,0,0)" stroke-miterlimit="10" stroke-width="1" fill="url(#linear-gradient-2)"/>
      <g data-type="innerShadowGroup">
        <path id="사각형_19729-2" data-name="사각형 19729" d="M0,0H27.124a0,0,0,0,1,0,0V22.658a2,2,0,0,1-2,2H2a2,2,0,0,1-2-2V0A0,0,0,0,1,0,0Z" transform="translate(919.357 927.658) rotate(180)" fill="url(#linear-gradient-3)"/>
        <g transform="matrix(1, 0, 0, 1, 887, 896.79)" filter="url(#사각형_19729)">
          <path id="사각형_19729-3" data-name="사각형 19729" d="M0,0H27.124a0,0,0,0,1,0,0V22.658a2,2,0,0,1-2,2H2a2,2,0,0,1-2-2V0A0,0,0,0,1,0,0Z" transform="translate(32.36 30.86) rotate(180)" fill="#fff"/>
        </g>
      </g>
      <rect id="사각형_19732" data-name="사각형 19732" width="39.453" height="2.466" rx="1" transform="translate(930.453 927.658) rotate(180)" stroke="rgba(0,0,0,0)" stroke-miterlimit="10" stroke-width="1" fill="url(#linear-gradient-4)"/>
      <circle id="타원_648" data-name="타원 648" cx="4.932" cy="4.932" r="4.932" transform="translate(914.425 922.727)" fill="url(#linear-gradient-5)"/>
      <circle id="타원_649" data-name="타원 649" cx="4.932" cy="4.932" r="4.932" transform="translate(894.699 922.727)" fill="url(#linear-gradient-5)"/>
      <circle id="타원_650" data-name="타원 650" cx="2.466" cy="2.466" r="2.466" transform="translate(916.891 925.192)" fill="url(#linear-gradient-7)"/>
      <circle id="타원_651" data-name="타원 651" cx="2.466" cy="2.466" r="2.466" transform="translate(897.165 925.192)" fill="url(#linear-gradient-7)"/>
      <path id="사각형_19733" data-name="사각형 19733" d="M1,0H7.4a0,0,0,0,1,0,0V3.7a0,0,0,0,1,0,0H1a1,1,0,0,1-1-1V1A1,1,0,0,1,1,0Z" transform="translate(921.823 915.329)" stroke="rgba(0,0,0,0)" stroke-miterlimit="10" stroke-width="1" fill="url(#linear-gradient-9)"/>
      <g transform="matrix(1, 0, 0, 1, 887, 896.79)" filter="url(#다각형_33)">
        <path id="다각형_33-2" data-name="다각형 33" d="M6.678,1.475a.8.8,0,0,1,1.438,0L9.426,4.161a.8.8,0,0,0,.623.444l3,.364a.8.8,0,0,1,.44,1.388l-2.168,1.96a.8.8,0,0,0-.248.749l.565,2.844a.8.8,0,0,1-1.16.862L7.772,11.335a.8.8,0,0,0-.75,0L4.313,12.772a.8.8,0,0,1-1.16-.862l.565-2.844a.8.8,0,0,0-.248-.749L1.3,6.357a.8.8,0,0,1,.44-1.388l3-.364a.8.8,0,0,0,.623-.444Z" transform="translate(11.4 9.9)" fill="url(#linear-gradient-10)"/>
      </g>
    </g>
  </g>
</svg>
