<svg xmlns="http://www.w3.org/2000/svg" xmlns:xlink="http://www.w3.org/1999/xlink" width="60" height="60" viewBox="0 0 60 60">
  <defs>
    <clipPath id="clip-path">
      <rect id="사각형_20774" data-name="사각형 20774" width="56.172" height="12.037" transform="translate(0 0)" fill="#fff" stroke="#707070" stroke-width="1"/>
    </clipPath>
  </defs>
  <g id="그룹_113120" data-name="그룹 113120" transform="translate(2195 12515)">
    <rect id="사각형_20775" data-name="사각형 20775" width="60" height="60" transform="translate(-2195 -12515)" fill="none"/>
    <g id="그룹_113089" data-name="그룹 113089" transform="translate(-0.087 -2.636)">
      <g id="그룹_113086" data-name="그룹 113086" transform="translate(-2193.154 -12505.77)">
        <g id="마스크_그룹_110097" data-name="마스크 그룹 110097" transform="translate(0.154 0)" clip-path="url(#clip-path)">
          <g id="그룹_113084" data-name="그룹 113084" transform="matrix(0.966, 0.259, -0.259, 0.966, 5.398, 1.471)">
            <path id="빼기_3" data-name="빼기 3" d="M54.867,22.592H1.614A1.615,1.615,0,0,1,0,20.979V14.928A3.635,3.635,0,0,0,3.631,11.3,3.635,3.635,0,0,0,0,7.666V1.614A1.615,1.615,0,0,1,1.614,0H54.867a1.615,1.615,0,0,1,1.614,1.614V7.666a3.631,3.631,0,1,0,0,7.262v6.051A1.615,1.615,0,0,1,54.867,22.592Z" transform="translate(0 0)" fill="#49b7f5" stroke="#000" stroke-width="2.5"/>
            <path id="패스_38829" data-name="패스 38829" d="M4.539,3.789A1.97,1.97,0,0,1,3.875,5.2,2.33,2.33,0,0,1,2.3,5.72,2.1,2.1,0,0,1,.614,5,2.955,2.955,0,0,1,0,3.021v-.34A3.337,3.337,0,0,1,.283,1.266,2.12,2.12,0,0,1,1.092.327,2.266,2.266,0,0,1,2.313,0,2.27,2.27,0,0,1,3.866.516a2.117,2.117,0,0,1,.681,1.449H3.4a1.163,1.163,0,0,0-.3-.782A1.112,1.112,0,0,0,2.313.941a.975.975,0,0,0-.858.411,2.3,2.3,0,0,0-.293,1.275v.421a2.466,2.466,0,0,0,.273,1.319.957.957,0,0,0,.862.417,1.132,1.132,0,0,0,.793-.243,1.1,1.1,0,0,0,.3-.751Zm5.248-.8A3.361,3.361,0,0,1,9.5,4.428a2.189,2.189,0,0,1-.832.956,2.3,2.3,0,0,1-1.241.336,2.316,2.316,0,0,1-1.235-.333,2.21,2.21,0,0,1-.841-.95,3.265,3.265,0,0,1-.3-1.421V2.742a3.343,3.343,0,0,1,.3-1.447,2.207,2.207,0,0,1,.837-.96A2.3,2.3,0,0,1,7.416,0,2.3,2.3,0,0,1,8.653.335a2.206,2.206,0,0,1,.837.96,3.334,3.334,0,0,1,.3,1.444ZM8.625,2.734A2.343,2.343,0,0,0,8.311,1.4,1.022,1.022,0,0,0,7.416.948a1.022,1.022,0,0,0-.891.449,2.316,2.316,0,0,0-.317,1.317v.271a2.372,2.372,0,0,0,.314,1.323,1.019,1.019,0,0,0,.9.47,1.01,1.01,0,0,0,.887-.453,2.358,2.358,0,0,0,.314-1.321ZM14.756.076V3.744a1.877,1.877,0,0,1-.572,1.445,2.2,2.2,0,0,1-1.562.532A2.229,2.229,0,0,1,11.074,5.2a1.845,1.845,0,0,1-.585-1.419V.076h1.147V3.751a1.061,1.061,0,0,0,.262.8,1.006,1.006,0,0,0,.725.25q.967,0,.983-1.017V.076Zm2.01,3.606V5.644H15.619V.076h2.172a2.513,2.513,0,0,1,1.1.229,1.691,1.691,0,0,1,.732.652,1.818,1.818,0,0,1,.256.962,1.6,1.6,0,0,1-.56,1.291,2.333,2.333,0,0,1-1.551.472Zm0-.929h1.025a1.008,1.008,0,0,0,.694-.214.779.779,0,0,0,.239-.612.918.918,0,0,0-.241-.662.9.9,0,0,0-.665-.26H16.766Zm8.4.233a3.361,3.361,0,0,1-.291,1.442,2.189,2.189,0,0,1-.832.956,2.458,2.458,0,0,1-2.476,0,2.21,2.21,0,0,1-.841-.95,3.265,3.265,0,0,1-.3-1.421V2.742a3.343,3.343,0,0,1,.3-1.447,2.206,2.206,0,0,1,.837-.96,2.454,2.454,0,0,1,2.474,0,2.206,2.206,0,0,1,.837.96,3.334,3.334,0,0,1,.3,1.444ZM24,2.734A2.343,2.343,0,0,0,23.689,1.4,1.108,1.108,0,0,0,21.9,1.4a2.316,2.316,0,0,0-.317,1.317v.271A2.372,2.372,0,0,0,21.9,4.309a1.1,1.1,0,0,0,1.79.017A2.358,2.358,0,0,0,24,3.006Zm6.445,2.91H29.3L27.067,1.981V5.644H25.92V.076h1.147L29.3,3.747V.076h1.143Z" transform="translate(17.157 8.436)" fill="#f0adb8"/>
            <path id="패스_38831" data-name="패스 38831" d="M0,0V22.593" transform="translate(10.702 0.403)" fill="#f0adb8" stroke="#000" stroke-linecap="round" stroke-width="2.5" stroke-dasharray="1 4"/>
          </g>
        </g>
        <g id="그룹_113083" data-name="그룹 113083" transform="translate(0 12.619)">
          <path id="빼기_3-2" data-name="빼기 3" d="M54.867,22.592H1.614A1.615,1.615,0,0,1,0,20.979V14.928A3.635,3.635,0,0,0,3.631,11.3,3.635,3.635,0,0,0,0,7.666V1.614A1.615,1.615,0,0,1,1.614,0H54.867a1.615,1.615,0,0,1,1.614,1.614V7.666a3.631,3.631,0,1,0,0,7.262v6.051A1.615,1.615,0,0,1,54.867,22.592Z" transform="translate(0 0)" fill="#f476ec" stroke="#000" stroke-width="2.5"/>
          <path id="패스_38829-2" data-name="패스 38829" d="M-34.566-10.625a1.97,1.97,0,0,1-.663,1.415,2.33,2.33,0,0,1-1.577.516,2.1,2.1,0,0,1-1.684-.721,2.955,2.955,0,0,1-.614-1.979v-.34a3.337,3.337,0,0,1,.283-1.415,2.12,2.12,0,0,1,.809-.939,2.265,2.265,0,0,1,1.222-.327,2.27,2.27,0,0,1,1.552.516,2.117,2.117,0,0,1,.681,1.449h-1.147a1.163,1.163,0,0,0-.3-.782,1.112,1.112,0,0,0-.786-.243.975.975,0,0,0-.858.411,2.3,2.3,0,0,0-.293,1.275v.421a2.466,2.466,0,0,0,.273,1.319.957.957,0,0,0,.862.417,1.132,1.132,0,0,0,.793-.243,1.1,1.1,0,0,0,.3-.751Zm5.248-.8a3.361,3.361,0,0,1-.291,1.442,2.189,2.189,0,0,1-.832.956,2.3,2.3,0,0,1-1.241.336,2.316,2.316,0,0,1-1.235-.333,2.21,2.21,0,0,1-.841-.95,3.265,3.265,0,0,1-.3-1.421v-.275a3.343,3.343,0,0,1,.3-1.447,2.207,2.207,0,0,1,.837-.96,2.3,2.3,0,0,1,1.237-.335,2.3,2.3,0,0,1,1.237.335,2.206,2.206,0,0,1,.837.96,3.334,3.334,0,0,1,.3,1.444Zm-1.162-.252a2.343,2.343,0,0,0-.314-1.331,1.022,1.022,0,0,0-.895-.455,1.022,1.022,0,0,0-.891.449A2.316,2.316,0,0,0-32.9-11.7v.271a2.372,2.372,0,0,0,.314,1.323,1.019,1.019,0,0,0,.9.47,1.01,1.01,0,0,0,.887-.453,2.358,2.358,0,0,0,.314-1.321Zm6.132-2.658v3.667a1.877,1.877,0,0,1-.572,1.445,2.2,2.2,0,0,1-1.562.532A2.229,2.229,0,0,1-28.03-9.21a1.845,1.845,0,0,1-.585-1.419v-3.709h1.147v3.675a1.061,1.061,0,0,0,.262.8,1.006,1.006,0,0,0,.725.25q.967,0,.983-1.017v-3.705Zm2.01,3.606V-8.77h-1.147v-5.568h2.172a2.513,2.513,0,0,1,1.1.229,1.691,1.691,0,0,1,.732.652,1.818,1.818,0,0,1,.256.962,1.6,1.6,0,0,1-.56,1.291,2.333,2.333,0,0,1-1.551.472Zm0-.929h1.025a1.008,1.008,0,0,0,.694-.214.779.779,0,0,0,.239-.612.918.918,0,0,0-.241-.662.9.9,0,0,0-.665-.26h-1.052Zm8.4.233a3.361,3.361,0,0,1-.291,1.442,2.189,2.189,0,0,1-.832.956,2.3,2.3,0,0,1-1.241.336,2.316,2.316,0,0,1-1.235-.333,2.21,2.21,0,0,1-.841-.95,3.265,3.265,0,0,1-.3-1.421v-.275a3.343,3.343,0,0,1,.3-1.447,2.206,2.206,0,0,1,.837-.96,2.3,2.3,0,0,1,1.237-.335,2.3,2.3,0,0,1,1.237.335,2.206,2.206,0,0,1,.837.96,3.334,3.334,0,0,1,.3,1.444ZM-15.1-11.68a2.343,2.343,0,0,0-.314-1.331,1.022,1.022,0,0,0-.895-.455,1.022,1.022,0,0,0-.891.449,2.316,2.316,0,0,0-.317,1.317v.271a2.372,2.372,0,0,0,.314,1.323,1.019,1.019,0,0,0,.9.47,1.01,1.01,0,0,0,.887-.453,2.358,2.358,0,0,0,.314-1.321Zm6.445,2.91H-9.8l-2.233-3.663V-8.77h-1.147v-5.568h1.147L-9.8-10.667v-3.671h1.143Z" transform="translate(56.262 22.85)"/>
          <path id="패스_38831-2" data-name="패스 38831" d="M0,0V22.593" transform="translate(10.702 0.403)" fill="none" stroke="#000" stroke-linecap="round" stroke-width="2.5" stroke-dasharray="1 4"/>
        </g>
        <g id="그룹_113085" data-name="그룹 113085" transform="translate(20.62 31.57)">
          <g id="타원_722" data-name="타원 722" transform="translate(0 0)" fill="#68f48b" stroke="#000" stroke-linecap="round" stroke-linejoin="round" stroke-width="2.5">
            <circle cx="7.621" cy="7.621" r="7.621" stroke="none"/>
            <circle cx="7.621" cy="7.621" r="8.871" fill="none"/>
          </g>
          <path id="패스_38832" data-name="패스 38832" d="M-2189.5-12424.312l2.32,2.319,4.073-4.074" transform="translate(2193.922 12431.65)" fill="none" stroke="#000" stroke-linecap="round" stroke-linejoin="round" stroke-width="2.5"/>
        </g>
      </g>
    </g>
    <path id="패스_38835" data-name="패스 38835" d="M23.925,7.826l.01,0h-.021C23.655,7.687,20.741,6.064,19.663,1c-1.142,5.05-4.078,6.636-4.338,6.768H15.3l.009,0-.009.006h.02c.259.136,3.174,1.757,4.253,6.822,1.142-5.051,4.076-6.635,4.336-6.767h.021l-.01-.007" transform="translate(-2162.246 -12507.071)" fill="#fdef72" stroke="#000" stroke-linecap="round" stroke-linejoin="round" stroke-width="2.5"/>
    <path id="패스_38836" data-name="패스 38836" d="M22.341,6.571l.008,0h-.017c-.211-.11-2.59-1.435-3.469-5.568-.932,4.122-3.328,5.416-3.541,5.524H15.3l.007,0-.007,0h.017c.211.111,2.59,1.434,3.471,5.568.932-4.122,3.327-5.415,3.539-5.523h.017l-.008-.006" transform="translate(-2171.084 -12513.686)" fill="#fdef72" stroke="#000" stroke-linecap="round" stroke-linejoin="round" stroke-width="2.5"/>
  </g>
</svg>
