<svg xmlns="http://www.w3.org/2000/svg" width="60" height="60" viewBox="0 0 60 60">
  <g id="그룹_113121" data-name="그룹 113121" transform="translate(1939 12418)">
    <rect id="사각형_20776" data-name="사각형 20776" width="60" height="60" transform="translate(-1939 -12418)" fill="none"/>
    <g id="그룹_113116" data-name="그룹 113116" transform="translate(2.795 2.81)">
      <g id="그룹_113111" data-name="그룹 113111" transform="translate(-1907.214 -12416.754)">
        <g id="그룹_113114" data-name="그룹 113114" transform="translate(0 0)">
          <path id="패스_38839" data-name="패스 38839" d="M6.833,12.665a.975.975,0,0,1-.983-.767l-.374-1.5A3.036,3.036,0,0,0,3.263,8.19L1.768,7.816a1.013,1.013,0,0,1,0-1.967l1.494-.374A3.034,3.034,0,0,0,5.475,3.264l.374-1.5a1.013,1.013,0,0,1,1.967,0l.374,1.5A3.034,3.034,0,0,0,10.4,5.475l1.494.374a1.013,1.013,0,0,1,0,1.967L10.4,8.19A3.036,3.036,0,0,0,8.19,10.4l-.374,1.5a.975.975,0,0,1-.983.767" transform="translate(-1 -1)" fill="#49b7f5" stroke="#000" stroke-width="2.5"/>
        </g>
      </g>
      <g id="그룹_113108" data-name="그룹 113108" transform="translate(-1935.252 -12414.282)">
        <g id="타원_723" data-name="타원 723" transform="translate(0.457 0.472)" fill="#fdef72" stroke="#000" stroke-width="2.5">
          <circle cx="23" cy="23" r="23" stroke="none"/>
          <circle cx="23" cy="23" r="21.75" fill="none"/>
        </g>
        <g id="그룹_113098" data-name="그룹 113098" transform="translate(14.83 28.605)">
          <g id="그룹_113099" data-name="그룹 113099" transform="translate(0 0)">
            <path id="패스_38837" data-name="패스 38837" d="M18,1A8.5,8.5,0,1,1,1,1Z" transform="translate(-1 -1)" fill="#ed88b5" stroke="#000" stroke-miterlimit="10" stroke-width="2.5"/>
          </g>
        </g>
        <g id="그룹_113101" data-name="그룹 113101" transform="translate(7.545 13.091)">
          <g id="그룹_113102" data-name="그룹 113102" transform="translate(0 0)">
            <path id="패스_38838" data-name="패스 38838" d="M13.728,4.311a3.319,3.319,0,0,1-.967,2.343l-5.4,5.4L2.679,7.364l-.71-.71A3.313,3.313,0,0,1,6.655,1.968l.71.706.706-.706a3.312,3.312,0,0,1,5.658,2.343Z" transform="translate(-1 -0.999)" fill="#f44d44" stroke="#000" stroke-miterlimit="10" stroke-width="2"/>
          </g>
        </g>
        <g id="그룹_113103" data-name="그룹 113103" transform="translate(26.389 13.091)">
          <g id="그룹_113102-2" data-name="그룹 113102" transform="translate(0 0)">
            <path id="패스_38838-2" data-name="패스 38838" d="M13.728,4.311a3.319,3.319,0,0,1-.967,2.343l-5.4,5.4L2.679,7.364l-.71-.71A3.313,3.313,0,0,1,6.655,1.968l.71.706.706-.706a3.312,3.312,0,0,1,5.658,2.343Z" transform="translate(-1 -0.999)" fill="#f44d44" stroke="#000" stroke-miterlimit="10" stroke-width="2"/>
          </g>
        </g>
      </g>
      <g id="그룹_113109" data-name="그룹 113109" transform="translate(-1937.458 -12388.671)">
        <g id="그룹_113112" data-name="그룹 113112" transform="translate(0 0)">
          <path id="패스_38839-2" data-name="패스 38839" d="M6.833,12.665a.975.975,0,0,1-.983-.767l-.374-1.5A3.036,3.036,0,0,0,3.263,8.19L1.768,7.816a1.013,1.013,0,0,1,0-1.967l1.494-.374A3.034,3.034,0,0,0,5.475,3.264l.374-1.5a1.013,1.013,0,0,1,1.967,0l.374,1.5A3.034,3.034,0,0,0,10.4,5.475l1.494.374a1.013,1.013,0,0,1,0,1.967L10.4,8.19A3.036,3.036,0,0,0,8.19,10.4l-.374,1.5a.975.975,0,0,1-.983.767" transform="translate(-1 -1)" fill="#68f48b" stroke="#000" stroke-width="2.5"/>
        </g>
      </g>
      <g id="그룹_113110" data-name="그룹 113110" transform="translate(-1900.677 -12380.604)">
        <g id="그룹_113113" data-name="그룹 113113" transform="translate(0 0)">
          <path id="패스_38839-3" data-name="패스 38839" d="M6.833,12.665a.975.975,0,0,1-.983-.767l-.374-1.5A3.036,3.036,0,0,0,3.263,8.19L1.768,7.816a1.013,1.013,0,0,1,0-1.967l1.494-.374A3.034,3.034,0,0,0,5.475,3.264l.374-1.5a1.013,1.013,0,0,1,1.967,0l.374,1.5A3.034,3.034,0,0,0,10.4,5.475l1.494.374a1.013,1.013,0,0,1,0,1.967L10.4,8.19A3.036,3.036,0,0,0,8.19,10.4l-.374,1.5a.975.975,0,0,1-.983.767" transform="translate(-1 -1)" fill="#f476ec" stroke="#000" stroke-width="2.5"/>
        </g>
      </g>
    </g>
  </g>
</svg>
