<svg xmlns="http://www.w3.org/2000/svg" width="60" height="60" viewBox="0 0 60 60">
  <g id="icon" transform="translate(-158 -128)">
    <rect id="Rectangle_20383" data-name="Rectangle 20383" width="60" height="60" transform="translate(158 128)" fill="#fff" opacity="0"/>
    <g id="Group_112021" data-name="Group 112021">
      <g id="Rectangle_20383-2" data-name="Rectangle 20383" transform="translate(158 128)" fill="#fff" stroke="#000" stroke-width="1.2" opacity="0">
        <rect width="60" height="60" stroke="none"/>
        <rect x="0.6" y="0.6" width="58.8" height="58.8" fill="none"/>
      </g>
      <g id="Group_112397" data-name="Group 112397" transform="translate(164 134.793)">
        <g id="Group_112399" data-name="Group 112399" transform="translate(0 0)">
          <path id="Path_38183" data-name="Path 38183" d="M517.2,15s2.046-.219,2.117,4.668v3.9h-7.408l-3.334-8.454Z" transform="translate(-472.387 -13.933)" fill="#7582f0" stroke="#000" stroke-linecap="round" stroke-linejoin="round" stroke-width="1.2"/>
          <path id="Path_38184" data-name="Path 38184" d="M505.387,10.707h-7.408a1.067,1.067,0,0,1-.993-.676l-3.334-8.454A1.067,1.067,0,0,1,494.63.118L503.23,0l.079,0a2.51,2.51,0,0,1,1.961,1.062,7.814,7.814,0,0,1,1.184,4.66c0,.005,0,.01,0,.016v3.9a1.067,1.067,0,0,1-1.067,1.067m-6.682-2.135h5.615V5.744c-.042-2.776-.757-3.577-1.024-3.577h-.011l-7.08.08Z" transform="translate(-458.455 0.001)" fill="none"/>
          <path id="Path_38185" data-name="Path 38185" d="M46.125,53.9a11.511,11.511,0,0,0,6.914-7.666C54.54,41.26,54,34.4,54,25.473c0-9.5,4.845-10,4.845-10H27.72s-4.845.468-4.845,9.973c0,8.924.54,15.844-.961,20.815A11.471,11.471,0,0,1,15,53.9Z" transform="translate(-13.934 -14.37)" fill="#f7f7f7" stroke="#000" stroke-linecap="round" stroke-linejoin="round" stroke-width="1.2"/>
          <path id="Path_38186" data-name="Path 38186" d="M32.192,41.032H1.068a1.067,1.067,0,0,1-.432-2.043A10.451,10.451,0,0,0,6.96,32.018c1.123-3.719,1.054-8.649.966-14.89-.025-1.792-.051-3.645-.051-5.616C7.875,1.156,13.447.5,13.684.476q.051,0,.1,0H44.911A1.084,1.084,0,0,1,46,1.5a1.049,1.049,0,0,1-.969,1.1,3.425,3.425,0,0,0-1.874,1.232c-.922,1.074-2.022,3.282-2.022,7.709,0,1.958.026,3.8.051,5.584.09,6.4.161,11.448-1.057,15.483a12.6,12.6,0,0,1-7.5,8.333,1.068,1.068,0,0,1-.432.091M4.915,38.9H31.963a10.419,10.419,0,0,0,6.121-6.907c1.122-3.718,1.054-8.624.966-14.836-.025-1.79-.051-3.641-.051-5.614,0-4.669,1.133-7.372,2.4-8.935H13.869a3.462,3.462,0,0,0-1.839,1.213c-.921,1.067-2.019,3.268-2.019,7.693,0,1.956.026,3.8.051,5.586.09,6.426.161,11.5-1.057,15.537A12.317,12.317,0,0,1,4.915,38.9" transform="translate(0 -0.437)" fill="none"/>
          <g id="Group_112411" data-name="Group 112411" transform="translate(0 -0.132)">
            <path id="Path_38187" data-name="Path 38187" d="M214.2,153.944H199.465a.756.756,0,1,1,0-1.473H214.2a.756.756,0,1,1,0,1.473" transform="translate(-183.134 -140.264)"/>
            <path id="Path_38188" data-name="Path 38188" d="M214.2,233.944H199.465a.756.756,0,1,1,0-1.473H214.2a.756.756,0,1,1,0,1.473" transform="translate(-183.134 -215.264)"/>
            <path id="Path_38189" data-name="Path 38189" d="M214.2,314.944H199.465a.756.756,0,1,1,0-1.473H214.2a.756.756,0,1,1,0,1.473" transform="translate(-183.134 -291.264)"/>
            <path id="Path_38190" data-name="Path 38190" d="M214.2,394.944H199.465a.756.756,0,1,1,0-1.473H214.2a.756.756,0,1,1,0,1.473" transform="translate(-183.134 -366.262)"/>
          </g>
          <path id="Path_38191" data-name="Path 38191" d="M175.917,366.45l-2.756-8.146.207-.207,8.14,2.75" transform="translate(-160.839 -332.615)" fill="#f7f7f7" stroke="#000" stroke-linejoin="round" stroke-width="1.2"/>
          <path id="Path_38193" data-name="Path 38193" d="M221.024,411.127l-9.374-9.374a.814.814,0,0,1-.079-1.151l4.47-4.47a.931.931,0,0,1,1.249-.019l9.373,9.374Z" transform="translate(-196.326 -367.712)" fill="#fec211" stroke="#000" stroke-width="1.2"/>
          <path id="Path_38195" data-name="Path 38195" d="M352.714,530.858l2.758,2.758a.839.839,0,0,1-.1,1.171l-4.47,4.47a.72.72,0,0,1-1.074,0l-2.758-2.758Z" transform="translate(-322.376 -493.082)" fill="#f06a86" stroke="#000" stroke-width="1.2"/>
          <path id="Path_38197" data-name="Path 38197" d="M260.229,444.166a.752.752,0,0,1-.534-.221l-4.708-4.708a.755.755,0,0,1,1.067-1.067l4.708,4.708a.755.755,0,0,1-.534,1.288" transform="translate(-235.349 -405.496)"/>
          <path id="Path_38213" data-name="Path 38213" d="M174.005,360.655l-.844-2.494.063-.064,2.492.842" transform="translate(-160.311 -332.054)"/>
        </g>
      </g>
    </g>
  </g>
</svg>
