<svg xmlns="http://www.w3.org/2000/svg" width="18" height="18" viewBox="0 0 18 18">
  <g id="icon_alarm" transform="translate(-3.441 -3.168)">
    <path id="패스_37897" data-name="패스 37897" d="M13.1,11.947a.515.515,0,0,0,.509-.519V10.91A1.029,1.029,0,0,0,12.59,9.872h-.341V5.536A5.49,5.49,0,0,0,6.806,0,5.491,5.491,0,0,0,1.361,5.536V9.872H1.021a1.038,1.038,0,0,0,0,2.076H13.1Z" transform="translate(5.381 4.773)" fill="#ffc508"/>
    <path id="icon" d="M-1272.477-720.707h-2.264a2.262,2.262,0,0,1-2.259-2.26,2.264,2.264,0,0,1,1.291-2.041v-2.972a6.462,6.462,0,0,1,6.455-6.455,6.462,6.462,0,0,1,6.454,6.455v2.972a2.262,2.262,0,0,1,1.291,2.041v.484a1.777,1.777,0,0,1-1.774,1.775h-2.749a3.231,3.231,0,0,1-3.222,3.053A3.231,3.231,0,0,1-1272.477-720.707Zm3.223,1.762a1.938,1.938,0,0,0,1.928-1.762h-3.857A1.939,1.939,0,0,0-1269.254-718.945Zm5.97-3.053a.484.484,0,0,0,.483-.484v-.484a.968.968,0,0,0-.968-.968h-.323v-4.045a5.164,5.164,0,0,0-5.163-5.164,5.164,5.164,0,0,0-5.164,5.164v4.045h-.323a.968.968,0,0,0-.968.968.968.968,0,0,0,.968.969h11.458Z" transform="translate(1281.441 738.603)"/>
    <rect id="사각형_3192" data-name="사각형 3192" width="18" height="18" transform="translate(3.441 3.167)" opacity="0"/>
  </g>
</svg>
