<svg xmlns="http://www.w3.org/2000/svg" xmlns:xlink="http://www.w3.org/1999/xlink" width="24" height="24" viewBox="0 0 24 24">
  <defs>
    <clipPath id="clip-path">
      <rect id="사각형_20679" data-name="사각형 20679" width="24" height="24" fill="none"/>
    </clipPath>
  </defs>
  <g id="그룹_112788" data-name="그룹 112788" clip-path="url(#clip-path)">
    <path id="패스_38527" data-name="패스 38527" d="M24,12A12,12,0,1,1,12,0,12,12,0,0,1,24,12" transform="translate(0 0.009)" fill="#fbc300"/>
    <path id="패스_38528" data-name="패스 38528" d="M109.447,156.818a.452.452,0,0,1,.355.73,3.228,3.228,0,0,1-5.028.062.451.451,0,1,1,.7-.575,2.325,2.325,0,0,0,3.622-.045.451.451,0,0,1,.355-.173" transform="translate(-95.284 -142.748)"/>
    <path id="패스_38529" data-name="패스 38529" d="M70.786,89.607a.351.351,0,0,0-.112-.624,2.108,2.108,0,0,0-2.437,1.084.351.351,0,0,0,.628.316,1.406,1.406,0,0,1,1.625-.722.351.351,0,0,0,.3-.053" transform="translate(-62.084 -80.927)"/>
    <path id="패스_38530" data-name="패스 38530" d="M169.112,89.607a.351.351,0,0,1,.112-.624,2.108,2.108,0,0,1,2.437,1.084.351.351,0,0,1-.628.316,1.386,1.386,0,0,0-.438-.51,1.4,1.4,0,0,0-1.187-.212.35.35,0,0,1-.3-.053" transform="translate(-153.814 -80.927)"/>
    <path id="패스_38531" data-name="패스 38531" d="M78.222,111.924a1.09,1.09,0,1,1,1.087,1.171,1.131,1.131,0,0,1-1.087-1.171" transform="translate(-71.208 -100.813)"/>
    <path id="패스_38532" data-name="패스 38532" d="M167.352,111.924a1.09,1.09,0,1,0-1.087,1.171,1.131,1.131,0,0,0,1.087-1.171" transform="translate(-150.366 -100.813)"/>
  </g>
</svg>
