<svg xmlns="http://www.w3.org/2000/svg" width="55.777" height="47.745" viewBox="0 0 55.777 47.745">
  <g id="Group_109499" data-name="Group 109499" transform="translate(0 -2.94)">
    <path id="Path_36581" data-name="Path 36581" d="M4.333,53.639l.758-1.556c.415-.855,1.636-3.788.11-6.035A13.77,13.77,0,0,1,0,35.548c0-8.44,8.582-15.307,19.132-15.307s19.132,6.867,19.132,15.307S29.682,50.854,19.132,50.854a23.938,23.938,0,0,1-4.245-.377A15.649,15.649,0,0,1,6,53.637Zm14.8-31.263c-9.429,0-17.1,5.909-17.1,13.171a11.676,11.676,0,0,0,4.541,8.919l.177.19a7.576,7.576,0,0,1,.811,6.686,13.183,13.183,0,0,0,6.414-2.826l.367-.317.467.094a21.941,21.941,0,0,0,4.322.426c9.429,0,17.1-5.908,17.1-13.171s-7.671-13.171-17.1-13.171" transform="translate(0 -2.954)"/>
    <path id="Path_36582" data-name="Path 36582" d="M53.367,27.217l-1.356,0a12.76,12.76,0,0,1-7.245-2.575,19.525,19.525,0,0,1-3.459.307v-1.74a17.9,17.9,0,0,0,3.522-.347l.381-.077.3.258a10.736,10.736,0,0,0,5.226,2.3A6.176,6.176,0,0,1,51.4,19.9l.145-.155a9.512,9.512,0,0,0,3.7-7.268c0-5.919-6.251-10.734-13.936-10.734S27.372,6.555,27.372,12.474H25.716C25.716,5.6,32.71,0,41.307,0S56.9,5.6,56.9,12.474a11.218,11.218,0,0,1-4.239,8.557c-1.244,1.833-.249,4.221.09,4.918Z" transform="translate(-1.272 3.09)" stroke="#000" stroke-width="0.3"/>
    <rect id="Rectangle_19653" data-name="Rectangle 19653" width="2.609" height="2.135" transform="translate(12.515 32.365)" fill="#da2128"/>
    <rect id="Rectangle_19654" data-name="Rectangle 19654" width="2.609" height="2.135" transform="translate(17.828 32.365)" fill="#da2128"/>
    <rect id="Rectangle_19655" data-name="Rectangle 19655" width="2.609" height="2.135" transform="translate(23.139 32.365)" fill="#da2128"/>
    <rect id="Rectangle_19656" data-name="Rectangle 19656" width="2.609" height="2.135" transform="translate(33.418 14.766)" fill="#767676"/>
    <rect id="Rectangle_19657" data-name="Rectangle 19657" width="2.609" height="2.135" transform="translate(38.73 14.766)" fill="#767676"/>
    <rect id="Rectangle_19658" data-name="Rectangle 19658" width="2.609" height="2.135" transform="translate(44.043 14.766)" fill="#767676"/>
  </g>
</svg>
