<svg xmlns="http://www.w3.org/2000/svg" xmlns:xlink="http://www.w3.org/1999/xlink" width="24" height="24" viewBox="0 0 24 24">
  <defs>
    <clipPath id="clip-path">
      <ellipse id="타원_715" data-name="타원 715" cx="12" cy="12" rx="12" ry="12" fill="none"/>
    </clipPath>
    <linearGradient id="linear-gradient" y1="1" x2="0.004" y2="1" gradientUnits="objectBoundingBox">
      <stop offset="0" stop-color="#fbc300"/>
      <stop offset="1" stop-color="#ff3657"/>
    </linearGradient>
    <clipPath id="clip-path-2">
      <rect id="사각형_20677" data-name="사각형 20677" width="24" height="24" fill="none"/>
    </clipPath>
  </defs>
  <g id="그룹_112784" data-name="그룹 112784" transform="translate(0 0.008)">
    <g id="그룹_112781" data-name="그룹 112781" transform="translate(0 -0.008)">
      <g id="그룹_112780" data-name="그룹 112780" clip-path="url(#clip-path)">
        <rect id="사각형_20676" data-name="사각형 20676" width="24" height="24" transform="translate(0 0)" fill="url(#linear-gradient)"/>
      </g>
    </g>
    <g id="그룹_112783" data-name="그룹 112783" transform="translate(0 -0.008)">
      <g id="그룹_112782" data-name="그룹 112782" clip-path="url(#clip-path-2)">
        <path id="패스_38513" data-name="패스 38513" d="M100.342,169.577a8.963,8.963,0,0,1,1.342-.215c.447-.04.895-.06,1.342-.061s.895.016,1.342.057a8.392,8.392,0,0,1,1.342.219.259.259,0,0,1,0,.5,8.409,8.409,0,0,1-1.342.219c-.447.041-.895.059-1.342.057s-.895-.021-1.342-.061a8.961,8.961,0,0,1-1.342-.215.259.259,0,0,1,0-.5" transform="translate(-91.166 -154.112)"/>
        <path id="패스_38514" data-name="패스 38514" d="M79.66,132.615a.8.8,0,1,1,.8.8.8.8,0,0,1-.8-.8" transform="translate(-72.517 -119.984)"/>
        <path id="패스_38515" data-name="패스 38515" d="M58.671,117.929a11.205,11.205,0,0,1-5.271-1.221.452.452,0,0,1,.454-.781,10.629,10.629,0,0,0,5.178,1.093.452.452,0,0,1,.028.9c-.131,0-.261.006-.389.006" transform="translate(-48.407 -105.469)"/>
        <path id="패스_38516" data-name="패스 38516" d="M168.546,132.615a.8.8,0,1,0-.8.8.8.8,0,0,0,.8-.8" transform="translate(-151.971 -119.984)"/>
        <path id="패스_38517" data-name="패스 38517" d="M141.657,117.932c-.128,0-.257,0-.389-.006a.452.452,0,1,1,.028-.9,10.629,10.629,0,0,0,5.178-1.093.452.452,0,0,1,.453.781,11.207,11.207,0,0,1-5.271,1.221" transform="translate(-128.202 -105.471)"/>
      </g>
    </g>
  </g>
</svg>
