<svg xmlns="http://www.w3.org/2000/svg" width="140" height="140" viewBox="0 0 140 140">
  <g id="icon_error" transform="translate(11622.453 18592.453)">
    <rect id="Rectangle_20372" data-name="Rectangle 20372" width="140" height="140" transform="translate(-11622.453 -18592.453)" fill="none"/>
    <g id="Group_111944" data-name="Group 111944" transform="translate(-11609.922 -18585.453)">
      <g id="Group_111945" data-name="Group 111945" transform="translate(0 0)">
        <path id="Path_37877" data-name="Path 37877" d="M107.15,1H9.783A8.784,8.784,0,0,0,1,9.784V93.478a8.784,8.784,0,0,0,8.784,8.784H107.15a8.784,8.784,0,0,0,8.784-8.784V9.784A8.784,8.784,0,0,0,107.15,1" transform="translate(-0.999 -1)" fill="#fff"/>
        <rect id="Rectangle_20377" data-name="Rectangle 20377" width="114.935" height="101.262" rx="6" transform="translate(0.001 0)" fill="none" stroke="#231815" stroke-miterlimit="10" stroke-width="2"/>
        <line id="Line_234" data-name="Line 234" x2="114.935" transform="translate(0.001 18.195)" fill="none" stroke="#231815" stroke-miterlimit="10" stroke-width="2"/>
        <path id="Path_37878" data-name="Path 37878" d="M12.82,9.648A2.468,2.468,0,1,1,10.351,7.18,2.468,2.468,0,0,1,12.82,9.648" transform="translate(-0.324 -0.394)" fill="#231815"/>
        <path id="Path_37879" data-name="Path 37879" d="M20.757,9.648A2.468,2.468,0,1,1,18.288,7.18a2.468,2.468,0,0,1,2.468,2.468" transform="translate(0.454 -0.394)" fill="#231815"/>
        <path id="Path_37880" data-name="Path 37880" d="M28.694,9.648A2.468,2.468,0,1,1,26.225,7.18a2.468,2.468,0,0,1,2.468,2.468" transform="translate(1.232 -0.394)" fill="#231815"/>
        <path id="Path_37881" data-name="Path 37881" d="M65.338,70.693H45.754a1.1,1.1,0,0,0-.776.322L31.13,84.863a1.1,1.1,0,0,0-.322.776v19.584a1.1,1.1,0,0,0,.322.776l13.848,13.848a1.1,1.1,0,0,0,.776.322H65.338a1.1,1.1,0,0,0,.776-.322L79.963,106a1.1,1.1,0,0,0,.322-.776V85.639a1.1,1.1,0,0,0-.322-.776L66.115,71.015a1.1,1.1,0,0,0-.776-.322" transform="translate(1.923 5.831)" fill="#fff"/>
        <path id="Path_37882" data-name="Path 37882" d="M65.338,70.693H45.754a1.1,1.1,0,0,0-.776.322L31.13,84.863a1.1,1.1,0,0,0-.322.776v19.584a1.1,1.1,0,0,0,.322.776l13.848,13.848a1.1,1.1,0,0,0,.776.322H65.338a1.1,1.1,0,0,0,.776-.322L79.963,106a1.1,1.1,0,0,0,.322-.776V85.639a1.1,1.1,0,0,0-.322-.776L66.115,71.015A1.1,1.1,0,0,0,65.338,70.693Z" transform="translate(1.923 5.831)" fill="none" stroke="#da2128" stroke-miterlimit="10" stroke-width="2"/>
        <path id="Path_37883" data-name="Path 37883" d="M66.333,85.965l-3.572-3.572a.73.73,0,0,0-1.031,0l-6.793,6.793a.729.729,0,0,1-1.032,0l-6.793-6.793a.73.73,0,0,0-1.031,0l-3.572,3.572a.73.73,0,0,0,0,1.031L49.3,93.79a.728.728,0,0,1,0,1.031l-6.793,6.793a.73.73,0,0,0,0,1.031l3.572,3.572a.728.728,0,0,0,1.031,0L53.9,99.424a.729.729,0,0,1,1.032,0l6.793,6.793a.728.728,0,0,0,1.031,0l3.572-3.572a.73.73,0,0,0,0-1.031l-6.793-6.793a.728.728,0,0,1,0-1.031L66.333,87a.73.73,0,0,0,0-1.031" transform="translate(3.048 6.956)" fill="#fff"/>
        <g id="Path_37884" data-name="Path 37884" transform="translate(4.711 8.619)" fill="none" stroke-miterlimit="10">
          <path d="M63.036,85.446l-3.082-3.082a.63.63,0,0,0-.89,0L53.2,88.226a.629.629,0,0,1-.891,0L46.45,82.364a.63.63,0,0,0-.89,0l-3.082,3.082a.63.63,0,0,0,0,.89L48.341,92.2a.628.628,0,0,1,0,.89L42.479,98.95a.63.63,0,0,0,0,.89l3.082,3.082a.628.628,0,0,0,.89,0l5.862-5.862a.629.629,0,0,1,.891,0l5.862,5.862a.628.628,0,0,0,.89,0l3.082-3.082a.63.63,0,0,0,0-.89l-5.862-5.862a.628.628,0,0,1,0-.89l5.862-5.863A.63.63,0,0,0,63.036,85.446Z" stroke="none"/>
          <path d="M 46.00565719604492 82.17974090576172 C 45.8445930480957 82.17974090576172 45.68352508544922 82.2410888671875 45.56083297729492 82.36379241943359 L 42.47880172729492 85.44584655761719 C 42.23340225219727 85.69123840332031 42.23340225219727 86.09009552001953 42.47880172729492 86.33547973632812 L 48.34063339233398 92.19828796386719 C 48.58697128295898 92.44364929199219 48.58697128295898 92.84156799316406 48.34063339233398 93.087890625 L 42.47880172729492 98.94975280761719 C 42.23340225219727 99.19515991210938 42.23340225219727 99.59400939941406 42.47880172729492 99.83940124511719 L 45.56083297729492 102.9214477539062 C 45.80621719360352 103.1677856445312 46.2050895690918 103.1677856445312 46.45048141479492 102.9214477539062 L 52.31232070922852 97.05958557128906 C 52.55865097045898 96.81327819824219 52.95659255981445 96.81327819824219 53.20292282104492 97.05958557128906 L 59.06476211547852 102.9214477539062 C 59.31015777587891 103.1677856445312 59.70903778076172 103.1677856445312 59.95441055297852 102.9214477539062 L 63.03645324707031 99.83940124511719 C 63.28184127807617 99.59400939941406 63.28184127807617 99.19515991210938 63.03645324707031 98.94975280761719 L 57.17461013793945 93.087890625 C 56.92827224731445 92.84156799316406 56.92827224731445 92.44364929199219 57.17461013793945 92.19828796386719 L 63.03645324707031 86.33547973632812 C 63.28184127807617 86.09009552001953 63.28184127807617 85.69123840332031 63.03645324707031 85.44584655761719 L 59.95441055297852 82.36379241943359 C 59.70903396606445 82.11838531494141 59.31015396118164 82.11837768554688 59.06476211547852 82.36379241943359 L 53.20292282104492 88.22564697265625 C 52.95659255981445 88.47196960449219 52.55865097045898 88.47196960449219 52.31232070922852 88.22564697265625 L 46.45048141479492 82.36379241943359 C 46.32778549194336 82.2410888671875 46.16672134399414 82.17974090576172 46.00565719604492 82.17974090576172 M 46.00565338134766 80.17974090576172 C 46.70804214477539 80.17974090576172 47.36826324462891 80.45314025878906 47.86469268798828 80.94957733154297 L 52.75762176513672 85.84251403808594 L 57.65054321289062 80.94957733154297 C 58.14692306518555 80.45315551757812 58.80716323852539 80.17974090576172 59.50959014892578 80.17974090576172 C 60.21201324462891 80.17974090576172 60.87225341796875 80.45315551757812 61.36868286132812 80.94963073730469 L 64.45066833496094 84.03163909912109 C 64.94709777832031 84.52806854248047 65.22048950195312 85.18828582763672 65.22048950195312 85.89067077636719 C 65.22048950195312 86.59307098388672 64.94709014892578 87.25328826904297 64.45063018798828 87.74971771240234 L 59.55815887451172 92.64301300048828 L 64.45066833496094 97.53553771972656 C 65.47572326660156 98.56067657470703 65.47570037841797 100.2285766601562 64.45066070556641 101.2536087036133 L 61.36863327026367 104.3356628417969 C 60.87466049194336 104.8315658569336 60.21346282958984 105.106201171875 59.50959014892578 105.106201171875 C 58.80572128295898 105.106201171875 58.14451217651367 104.8315658569336 57.64779281616211 104.3329010009766 L 52.75761795043945 99.44271850585938 L 47.86470031738281 104.3356628417969 C 47.37066268920898 104.8315887451172 46.70948028564453 105.106201171875 46.00565338134766 105.106201171875 C 45.30178070068359 105.106201171875 44.64058303833008 104.8315658569336 44.14385986328125 104.3329010009766 L 41.06458282470703 101.2536087036133 C 40.56816101074219 100.757209777832 40.29475402832031 100.0969772338867 40.29475402832031 99.39457702636719 C 40.29475402832031 98.69222259521484 40.56813812255859 98.03199768066406 41.06455993652344 97.53556823730469 L 45.95709228515625 92.64300537109375 L 41.06446838378906 87.74958038330078 C 40.56816864013672 87.25331878662109 40.29475402832031 86.59307861328125 40.29475402832031 85.89067077636719 C 40.29475402832031 85.18827056884766 40.56816101074219 84.52803802490234 41.06462097167969 84.03160858154297 L 44.14661026000977 80.94957733154297 C 44.64299011230469 80.45315551757812 45.30323028564453 80.17974090576172 46.00565338134766 80.17974090576172 Z" stroke="none" fill="#da2128"/>
        </g>
        <circle id="Ellipse_677" data-name="Ellipse 677" cx="3.017" cy="3.017" r="3.017" transform="translate(40.971 39.867)"/>
        <circle id="Ellipse_678" data-name="Ellipse 678" cx="3.017" cy="3.017" r="3.017" transform="translate(67.932 39.867)"/>
        <path id="Path_37885" data-name="Path 37885" d="M43.588,59.293a12.361,12.361,0,0,1,21.411,0" transform="translate(3.175 4.107)" fill="none" stroke="#231815" stroke-linecap="round" stroke-miterlimit="10" stroke-width="2"/>
      </g>
    </g>
  </g>
</svg>
