<?xml version="1.0" encoding="utf-8"?>
<!-- Generator: Adobe Illustrator 26.1.0, SVG Export Plug-In . SVG Version: 6.00 Build 0)  -->
<svg version="1.1" id="Layer_1" xmlns="http://www.w3.org/2000/svg" xmlns:xlink="http://www.w3.org/1999/xlink" x="0px" y="0px"
	 viewBox="0 0 14 14" style="enable-background:new 0 0 14 14;" xml:space="preserve">
<style type="text/css">
	.st0{filter:url(#Union_78);}
	.st1{fill:#FFC508;}
	.st2{filter:url(#Union_162);}
	.st3{fill:none;}
</style>
<filter  filterUnits="userSpaceOnUse" height="41.779" id="Union_78" width="44" x="0" y="0">
	<feOffset  dy="5" input="SourceAlpha"></feOffset>
	<feGaussianBlur  result="blur" stdDeviation="5"></feGaussianBlur>
	<feFlood  flood-color="#555" flood-opacity="0.102"></feFlood>
	<feComposite  in2="blur" operator="in"></feComposite>
	<feComposite  in="SourceGraphic" operator="over"></feComposite>
</filter>
<filter  filterUnits="userSpaceOnUse" height="41.779" id="Union_162" width="44" x="0" y="0">
	<feOffset  dy="5" input="SourceAlpha"></feOffset>
	<feGaussianBlur  result="blur-2" stdDeviation="5"></feGaussianBlur>
	<feFlood  flood-color="#555" flood-opacity="0.102"></feFlood>
	<feComposite  in2="blur-2" operator="in"></feComposite>
	<feComposite  in="SourceGraphic" operator="over"></feComposite>
</filter>
<g id="Group_112571" transform="translate(-0.334 -1.627)">
	<g id="icon" transform="translate(15.334 11.627)">
		<g transform="matrix(1, 0, 0, 1, -15, -10)" class="st0">
			<path id="Union_78-2_00000130637557646009676750000005333298388314012548_" class="st1" d="M11.9,12.9l-2.4-0.6
				c-0.1,0-0.2-0.1-0.2-0.1c-0.3,0-0.5,0.1-0.8,0.1H5.5C2.5,12.2,0,9.7,0,6.6s2.5-5.5,5.5-5.5h2.9c3.1,0,5.5,2.5,5.5,5.5
				c0,1.3-0.4,2.5-1.3,3.5l0.4,1.5c0.1,0.5-0.2,1.1-0.7,1.2c-0.1,0-0.2,0-0.3,0C12.1,12.9,12,12.9,11.9,12.9z"/>
		</g>
		<g transform="matrix(1, 0, 0, 1, -15, -10)" class="st2">
			<g id="Union_162-2_00000061449543328822428850000009769934889254842795_" transform="translate(15 10)">
				<path d="M-2.8,1.9l-0.5-2L-3-0.5c0.7-0.8,1-1.8,1-2.9c0-2.5-2-4.5-4.5-4.5h-2.9c-2.5,0-4.5,2-4.5,4.5c0,2.5,2,4.5,4.5,4.5h2.9
					c0.2,0,0.5,0,0.7-0.1l0.3-0.1l0.3,0.2c0,0,0,0,0,0L-2.8,1.9 M-2.8,2.9c-0.1,0-0.2,0-0.3,0l-2.4-0.6c-0.1,0-0.2-0.1-0.2-0.1
					c-0.3,0-0.5,0.1-0.8,0.1h-2.9c-3.1,0-5.5-2.5-5.5-5.5c0-3.1,2.5-5.5,5.5-5.5h2.9C-3.5-8.9-1-6.4-1-3.4C-1-2-1.5-0.8-2.3,0.1
					l0.4,1.5C-1.7,2.3-2.2,2.9-2.8,2.9z"/>
			</g>
		</g>
		<rect id="Rectangle_3093" x="-10.6" y="-4.5" width="5.2" height="0.7"/>
		<rect id="Rectangle_3094" x="-10.6" y="-2.3" width="5.2" height="0.7"/>
	</g>
	<rect id="Rectangle_20549" x="0.3" y="1.6" class="st3" width="14" height="14"/>
</g>
</svg>
