<svg xmlns="http://www.w3.org/2000/svg" width="56.133" height="56" viewBox="0 0 56.133 56">
  <g id="그룹_112746" data-name="그룹 112746" transform="translate(12857.066 19435)">
    <g id="그룹_109431" data-name="그룹 109431" transform="translate(-12856.066 -19426.584)">
      <g id="그룹_109427" data-name="그룹 109427">
        <g id="그룹_109428" data-name="그룹 109428" transform="translate(0 0)">
          <rect id="사각형_19659" data-name="사각형 19659" width="54.133" height="39.17" rx="2" transform="translate(0)" fill="none" stroke="#000" stroke-miterlimit="10" stroke-width="2"/>
          <line id="선_170" data-name="선 170" x1="54.133" transform="translate(0 7.922)" fill="none" stroke="#000" stroke-miterlimit="10" stroke-width="2"/>
          <g id="그룹_109429" data-name="그룹 109429" transform="translate(16.586 12.447)">
            <path id="패스_36583" data-name="패스 36583" d="M48.245,50.459h2.278a.4.4,0,0,0,.39-.327l.331-1.874.359-.1a8.388,8.388,0,0,0,1.992-.825l.323-.186,1.561,1.09a.4.4,0,0,0,.507-.044L57.6,46.583a.4.4,0,0,0,.044-.508L56.7,44.722a.4.4,0,0,1-.02-.424l.574-1.006a.392.392,0,0,0,.039-.092l.3-1.114a.4.4,0,0,1,.314-.286l1.63-.289a.4.4,0,0,0,.327-.391V38.841a.4.4,0,0,0-.328-.39l-1.626-.287a.4.4,0,0,1-.314-.286l-.3-1.116a.4.4,0,0,0-.039-.093l-.577-1.006a.4.4,0,0,1,.019-.425l.948-1.354a.4.4,0,0,0-.044-.507l-1.614-1.614a.4.4,0,0,0-.508-.044l-1.56,1.092-.323-.184a8.36,8.36,0,0,0-1.992-.823l-.362-.1-.331-1.879a.4.4,0,0,0-.39-.328H48.245a.4.4,0,0,0-.39.328l-.33,1.877-.36.1a8.389,8.389,0,0,0-1.992.826l-.324.186-1.56-1.095a.4.4,0,0,0-.508.044l-1.61,1.612a.4.4,0,0,0-.044.508l1.094,1.561-.186.324a8.375,8.375,0,0,0-.829,1.992l-.1.36-1.874.33a.4.4,0,0,0-.328.39V41.12a.4.4,0,0,0,.327.391l1.63.289a.4.4,0,0,1,.314.286l.3,1.115a.391.391,0,0,0,.039.093l.577,1.007a.4.4,0,0,1-.02.425l-.947,1.35a.4.4,0,0,0,.044.508l1.61,1.611a.4.4,0,0,0,.507.044l1.56-1.089.322.183a8.488,8.488,0,0,0,1.995.827l.359.1.331,1.874A.4.4,0,0,0,48.245,50.459Z" transform="translate(-38.904 -29.5)" fill="none" stroke="#da2128" stroke-miterlimit="10" stroke-width="2"/>
            <ellipse id="타원_275" data-name="타원 275" cx="4.025" cy="4.025" rx="4.025" ry="4.025" transform="translate(6.455 6.597)" fill="none" stroke="#da2128" stroke-miterlimit="10" stroke-width="2"/>
          </g>
        </g>
      </g>
      <circle id="타원_276" data-name="타원 276" cx="0.967" cy="0.967" r="0.967" transform="translate(3.383 3.383)"/>
      <circle id="타원_277" data-name="타원 277" cx="0.967" cy="0.967" r="0.967" transform="translate(6.284 3.383)"/>
      <circle id="타원_278" data-name="타원 278" cx="0.967" cy="0.967" r="0.967" transform="translate(9.183 3.383)"/>
    </g>
    <rect id="사각형_19660" data-name="사각형 19660" width="56" height="56" transform="translate(-12857 -19435)" fill="none"/>
  </g>
</svg>
