<svg xmlns="http://www.w3.org/2000/svg" width="12" height="12" viewBox="0 0 12 12">
  <g id="con" transform="translate(-1002)">
    <g id="icon" transform="translate(416)">
      <g id="heart" transform="translate(586 1.305)" fill="none">
        <path d="M3.412,0A3.583,3.583,0,0,1,5.949,1.087a.033.033,0,0,0,.045,0A3.583,3.583,0,0,1,8.53,0a3.209,3.209,0,0,1,.339.017c3.414.349,3.768,4.432,2.118,5.941L6.8,9.648a1.248,1.248,0,0,1-1.651,0L.955,5.958C-.695,4.449-.341.367,3.073.017A3.209,3.209,0,0,1,3.412,0Z" stroke="none"/>
        <path d="M 3.412164688110352 1.000003814697266 C 3.32984447479248 1.000003814697266 3.253414154052734 1.003863334655762 3.174734115600586 1.012203216552734 C 1.883913993835449 1.144213676452637 1.358843803405762 1.940243721008301 1.145673751831055 2.584783554077148 C 0.8345890045166016 3.525322437286377 1.044892311096191 4.678165912628174 1.62415599822998 5.214665412902832 L 5.805484294891357 8.896123886108398 C 5.865214347839355 8.948563575744629 5.928544044494629 8.959573745727539 5.971164226531982 8.959573745727539 C 6.013784408569336 8.959573745727539 6.077124118804932 8.948563575744629 6.135854244232178 8.896993637084961 L 10.31817245483398 5.214664936065674 C 10.89743614196777 4.678165912628174 11.10773944854736 3.525322437286377 10.79665374755859 2.584783554077148 C 10.5834846496582 1.940243721008301 10.05841445922852 1.144213676452637 8.763833999633789 1.011813163757324 C 8.68891429901123 1.003863334655762 8.612483978271484 1.000003814697266 8.530154228210449 1.000003814697266 C 7.865394115447998 1.000003814697266 7.200334072113037 1.287703514099121 6.70307445526123 1.791783332824707 C 6.511014461517334 1.985133171081543 6.24424409866333 2.096023559570312 5.97115421295166 2.096023559570312 C 5.698074340820312 2.096023559570312 5.431304454803467 1.985133171081543 5.236464023590088 1.788963317871094 C 4.742344379425049 1.28757381439209 4.077414035797119 1.000003814697266 3.412164688110352 1.000003814697266 M 3.412164688110352 3.814697265625e-06 C 4.358434200286865 3.814697265625e-06 5.273004055023193 0.4013738632202148 5.948724269866943 1.087053298950195 C 5.960604190826416 1.099024772644043 5.981714248657227 1.099013328552246 5.993594169616699 1.087053298950195 C 6.669984340667725 0.4013738632202148 7.583224296569824 3.814697265625e-06 8.530154228210449 3.814697265625e-06 C 8.642984390258789 3.814697265625e-06 8.755824089050293 0.005353927612304688 8.86932373046875 0.01739406585693359 C 12.28350448608398 0.3665437698364258 12.63720417022705 4.449113368988037 10.98685455322266 5.958293437957764 L 6.796674251556396 9.647543907165527 C 6.322863578796387 10.06357383728027 5.619463443756104 10.06358337402344 5.145664215087891 9.647543907165527 L 0.9554738998413086 5.958293437957764 C -0.6948757171630859 4.449113368988037 -0.3411760330200195 0.3665437698364258 3.073003768920898 0.01739406585693359 C 3.186504364013672 0.005353927612304688 3.299344062805176 3.814697265625e-06 3.412164688110352 3.814697265625e-06 Z" stroke="none" fill="#fff"/>
      </g>
      <g id="사각형_992" data-name="사각형 992" transform="translate(586.009)" fill="none" stroke="#fff" stroke-width="1" opacity="0">
        <rect width="11.99" height="12" stroke="none"/>
        <rect x="0.5" y="0.5" width="10.99" height="11" fill="none"/>
      </g>
    </g>
  </g>
</svg>
