<svg xmlns="http://www.w3.org/2000/svg" width="44" height="44" viewBox="0 0 44 44">
  <g id="그룹_109460" data-name="그룹 109460" transform="translate(-0.456 -0.455)">
    <g id="그룹_109458" data-name="그룹 109458" transform="translate(5.282 5.062)">
      <g id="그룹_109459" data-name="그룹 109459" transform="translate(0 0)">
        <g id="pen" transform="translate(3.058)">
          <path id="패스_36297" data-name="패스 36297" d="M24.611,15.261,18.348,27.505A.413.413,0,0,1,18,27.73L1.971,28.5a.413.413,0,0,1-.433-.394.239.239,0,0,1,0-.04L2.306,12.03a.417.417,0,0,1,.225-.349L14.776,5.426Z" transform="translate(-1.537 -0.264)" fill="#31ff88"/>
          <path id="패스_36298" data-name="패스 36298" d="M24.611,15.261,18.348,27.505A.413.413,0,0,1,18,27.73L1.971,28.5a.413.413,0,0,1-.433-.394.239.239,0,0,1,0-.04L2.306,12.03a.417.417,0,0,1,.225-.349L14.776,5.426Z" transform="translate(-1.537 -0.264)" fill="none" stroke="#000" stroke-width="1.5"/>
          <path id="패스_36299" data-name="패스 36299" d="M14.178,14.375a3.669,3.669,0,1,1-5.192,0,3.671,3.671,0,0,1,5.192,0" transform="translate(-0.876 0.553)" fill="#fff" stroke="#707070" stroke-width="1.5"/>
          <path id="패스_36300" data-name="패스 36300" d="M14.178,14.375a3.669,3.669,0,1,1-5.192,0,3.671,3.671,0,0,1,5.192,0" transform="translate(-0.876 0.553)" fill="none" stroke="#000" stroke-width="1.5"/>
          <path id="패스_36301" data-name="패스 36301" d="M28.436,10.022a.414.414,0,0,1,0,.585l-5.5,5.5L13.2,6.374l5.5-5.5a.412.412,0,0,1,.585,0Z" transform="translate(-0.327 -0.75)" fill="#fff" stroke="#707070" stroke-width="1.5"/>
          <path id="패스_36302" data-name="패스 36302" d="M28.436,10.022a.414.414,0,0,1,0,.585l-5.5,5.5L13.2,6.374l5.5-5.5a.412.412,0,0,1,.585,0Z" transform="translate(-0.327 -0.75)" fill="none" stroke="#000" stroke-width="1.5"/>
          <line id="선_130" data-name="선 130" x1="7.919" y2="7.919" transform="translate(0.196 20.116)" fill="none" stroke="#000" stroke-width="1.5"/>
        </g>
        <line id="선_131" data-name="선 131" x2="34.346" transform="translate(0 34.785)" fill="none" stroke="#000" stroke-linecap="round" stroke-width="1.5"/>
      </g>
    </g>
    <rect id="사각형_19799" data-name="사각형 19799" width="44" height="44" transform="translate(0.456 0.455)" fill="none"/>
  </g>
</svg>
