<svg id="그룹_112779" data-name="그룹 112779" xmlns="http://www.w3.org/2000/svg" width="24" height="24" viewBox="0 0 24 24">
  <path id="패스_38506" data-name="패스 38506" d="M24,12A12,12,0,1,1,12,0,12,12,0,0,1,24,12" transform="translate(0 0.001)" fill="#fbc300"/>
  <path id="패스_38507" data-name="패스 38507" d="M175.433,173.533a.238.238,0,0,1,.429,0l.967,1.984a1.374,1.374,0,1,1-2.321,0Z" transform="translate(-158.665 -157.847)" fill="#1179ff"/>
  <path id="패스_38508" data-name="패스 38508" d="M105.121,163.84a.452.452,0,0,1-.355-.731,3.228,3.228,0,0,1,5.028-.062.451.451,0,1,1-.7.575,2.325,2.325,0,0,0-3.622.045.451.451,0,0,1-.355.173" transform="translate(-95.284 -147.359)"/>
  <path id="패스_38509" data-name="패스 38509" d="M70.786,94.663a.351.351,0,0,0-.112-.624,2.109,2.109,0,0,0-2.437,1.084.351.351,0,0,0,.628.316,1.406,1.406,0,0,1,1.625-.722.351.351,0,0,0,.3-.053" transform="translate(-62.084 -85.538)"/>
  <path id="패스_38510" data-name="패스 38510" d="M169.112,94.663a.351.351,0,0,1,.112-.624,2.109,2.109,0,0,1,2.437,1.084.351.351,0,0,1-.628.316,1.386,1.386,0,0,0-.438-.51,1.4,1.4,0,0,0-1.187-.212.35.35,0,0,1-.3-.053" transform="translate(-153.814 -85.538)"/>
  <path id="패스_38511" data-name="패스 38511" d="M78.222,116.98a1.09,1.09,0,1,1,1.087,1.171,1.131,1.131,0,0,1-1.087-1.171" transform="translate(-71.208 -105.424)"/>
  <path id="패스_38512" data-name="패스 38512" d="M167.352,116.98a1.09,1.09,0,1,0-1.087,1.171,1.131,1.131,0,0,0,1.087-1.171" transform="translate(-150.366 -105.424)"/>
</svg>
