<svg id="그룹_112775" data-name="그룹 112775" xmlns="http://www.w3.org/2000/svg" width="24" height="24" viewBox="0 0 24 24">
  <g id="그룹_112776" data-name="그룹 112776">
    <path id="패스_38500" data-name="패스 38500" d="M24,12A12,12,0,1,1,12,0,12,12,0,0,1,24,12" transform="translate(0 0.001)" fill="#fbc300"/>
    <path id="패스_38501" data-name="패스 38501" d="M113.728,159.674c0,1.691-.983,3.062-2.2,3.062s-2.2-1.371-2.2-3.062.983-3.062,2.2-3.062,2.2,1.371,2.2,3.062" transform="translate(-99.533 -142.568)"/>
    <path id="패스_38502" data-name="패스 38502" d="M80.627,89.876a.3.3,0,0,1-.235-.5,1.821,1.821,0,0,1,2.257-.462.3.3,0,0,1-.282.537,1.214,1.214,0,0,0-1.5.308.3.3,0,0,1-.235.112" transform="translate(-73.121 -80.756)"/>
    <path id="패스_38503" data-name="패스 38503" d="M161.766,89.876a.3.3,0,0,0,.235-.5,1.821,1.821,0,0,0-2.257-.462.3.3,0,0,0,.282.537,1.214,1.214,0,0,1,1.5.308.3.3,0,0,0,.235.112" transform="translate(-145.272 -80.756)"/>
    <path id="패스_38504" data-name="패스 38504" d="M84.67,120.372c-.111.838-.67,1.456-1.248,1.379s-.957-.818-.846-1.657.67-1.456,1.248-1.379.957.818.846,1.657" transform="translate(-75.154 -108.064)"/>
    <path id="패스_38505" data-name="패스 38505" d="M161.325,120.372c.111.838.67,1.456,1.248,1.379s.957-.818.846-1.657-.67-1.456-1.248-1.379-.957.818-.846,1.657" transform="translate(-146.841 -108.064)"/>
  </g>
</svg>
