<svg xmlns="http://www.w3.org/2000/svg" width="56" height="56" viewBox="0 0 56 56">
  <g id="icon" transform="translate(13049 18470)">
    <rect id="사각형_20333" data-name="사각형 20333" width="56" height="56" transform="translate(-13049 -18470)" fill="none"/>
    <g id="그룹_111861" data-name="그룹 111861" transform="translate(-13049 -18467.66)">
      <g id="사각형_20330" data-name="사각형 20330" transform="translate(1.867 8.389)" fill="#fff" stroke="#000" stroke-width="2">
        <rect width="52.267" height="32.667" rx="2" stroke="none"/>
        <rect x="1" y="1" width="50.267" height="30.667" rx="1" fill="none"/>
      </g>
      <g id="사각형_20331" data-name="사각형 20331" transform="translate(0 42.922)" fill="#fff" stroke="#000" stroke-width="2">
        <rect width="56" height="8.4" rx="4.2" stroke="none"/>
        <rect x="1" y="1" width="54" height="6.4" rx="3.2" fill="none"/>
      </g>
      <g id="그룹_111860" data-name="그룹 111860" transform="translate(14.009)">
        <path id="패스_36583" data-name="패스 36583" d="M51.374,57.48h3.041a.528.528,0,0,0,.521-.437l.442-2.5.48-.13a11.2,11.2,0,0,0,2.66-1.1l.431-.248,2.084,1.456a.53.53,0,0,0,.677-.059l2.154-2.152a.529.529,0,0,0,.059-.678l-1.265-1.808a.529.529,0,0,1-.027-.566l.766-1.342a.529.529,0,0,0,.052-.123l.4-1.488a.528.528,0,0,1,.419-.382l2.176-.386a.53.53,0,0,0,.437-.522V41.969a.528.528,0,0,0-.437-.52l-2.17-.383a.53.53,0,0,1-.419-.382l-.4-1.49a.536.536,0,0,0-.052-.124l-.77-1.344a.53.53,0,0,1,.025-.567l1.266-1.808a.529.529,0,0,0-.059-.677L61.711,32.52a.53.53,0,0,0-.678-.059l-2.082,1.457-.431-.246a11.16,11.16,0,0,0-2.659-1.1l-.483-.128-.442-2.508a.529.529,0,0,0-.521-.437H51.374a.529.529,0,0,0-.521.437l-.441,2.506-.48.13a11.2,11.2,0,0,0-2.66,1.1l-.433.249-2.083-1.462a.529.529,0,0,0-.678.059l-2.149,2.152a.529.529,0,0,0-.059.678l1.46,2.084-.249.432a11.181,11.181,0,0,0-1.107,2.66l-.13.48-2.5.441a.528.528,0,0,0-.437.52v3.043a.53.53,0,0,0,.437.522l2.176.386a.528.528,0,0,1,.419.382l.4,1.489a.521.521,0,0,0,.052.124l.77,1.345a.529.529,0,0,1-.026.567l-1.264,1.8a.528.528,0,0,0,.059.678l2.15,2.15a.529.529,0,0,0,.677.059l2.082-1.454.43.245a11.33,11.33,0,0,0,2.663,1.1l.48.13.442,2.5A.528.528,0,0,0,51.374,57.48Z" transform="translate(-38.904 -29.5)" fill="#fff" stroke="#da2128" stroke-miterlimit="10" stroke-width="2"/>
        <circle id="타원_275" data-name="타원 275" cx="5.655" cy="5.655" r="5.655" transform="translate(8.336 8.333)" fill="#fff" stroke="#da2128" stroke-miterlimit="10" stroke-width="2"/>
      </g>
      <g id="사각형_20332" data-name="사각형 20332" transform="translate(22.4 42.922)" fill="#fff" stroke="#000" stroke-width="2">
        <path d="M0,0H11.2a0,0,0,0,1,0,0V2.667a2,2,0,0,1-2,2H2a2,2,0,0,1-2-2V0A0,0,0,0,1,0,0Z" stroke="none"/>
        <path d="M1,1h9.2a0,0,0,0,1,0,0V2.667a1,1,0,0,1-1,1H2a1,1,0,0,1-1-1V1A0,0,0,0,1,1,1Z" fill="none"/>
      </g>
    </g>
  </g>
</svg>
