<svg xmlns="http://www.w3.org/2000/svg" width="24" height="24" viewBox="0 0 24 24">
  <g id="Group_110141" data-name="Group 110141" transform="translate(-0.034 -0.034)">
    <g id="txt" transform="translate(3.322 2.292)">
      <g id="shopping-bag" transform="translate(0 0)">
        <path id="패스_69" data-name="패스 69" d="M1.989,0H15.911A9.047,9.047,0,0,1,17.9.11V.884a9.047,9.047,0,0,1-1.989.11H1.989A9.047,9.047,0,0,1,0,.884V.11A9.047,9.047,0,0,1,1.989,0Z" transform="translate(0 7.946)"/>
        <path id="Path_70" data-name="Path 70" d="M17.544-.3l3.922,2.983L25.5-.3" transform="translate(-12.573 0.792)" fill="#fff"/>
        <path id="패스_70_-_윤곽선" data-name="패스 70 - 윤곽선" d="M21.76,3.085l-.6,0L17.241.1a.5.5,0,0,1-.095-.7.5.5,0,0,1,.7-.095l3.625,2.758L25.2-.7a.5.5,0,0,1,.7.1.5.5,0,0,1-.1.7Z" transform="translate(-12.571 0.795)"/>
        <path id="패스_71" data-name="패스 71" d="M24.494,17.622H23.5V2.7h.994Z" transform="translate(-15.047 0.278)"/>
        <path id="사각형_377" data-name="사각형 377" d="M1.489-.5H15.411A1.932,1.932,0,0,1,17.4,1.365V11.62a2.9,2.9,0,0,1-2.983,2.8H2.483A2.9,2.9,0,0,1-.5,11.62V1.365A1.932,1.932,0,0,1,1.489-.5ZM14.417,13.485a1.932,1.932,0,0,0,1.989-1.865V1.365a.966.966,0,0,0-.994-.932H1.489a.966.966,0,0,0-.994.932V11.62a1.932,1.932,0,0,0,1.989,1.865Z" transform="translate(0.5 3.483)"/>
        <rect id="Rectangle_3276" data-name="Rectangle 3276" width="16" height="18" transform="translate(0.712 0.743)" fill="#fff" opacity="0"/>
      </g>
    </g>
    <rect id="Rectangle_20429" data-name="Rectangle 20429" width="24" height="24" transform="translate(0.034 0.034)" fill="none"/>
  </g>
</svg>
