<svg id="그룹_112770" data-name="그룹 112770" xmlns="http://www.w3.org/2000/svg" width="24" height="24" viewBox="0 0 24 24">
  <g id="그룹_112771" data-name="그룹 112771">
    <path id="패스_38489" data-name="패스 38489" d="M24,12A12,12,0,1,1,12,0,12,12,0,0,1,24,12" transform="translate(0 0.001)" fill="#fbc300"/>
    <path id="패스_38490" data-name="패스 38490" d="M70.207,97.361A.452.452,0,0,1,70,96.511l1.44-.763-1.449-.737a.452.452,0,1,1,.409-.8l2.224,1.131a.451.451,0,0,1,.007.8l-2.208,1.171a.449.449,0,0,1-.211.053" transform="translate(-63.485 -85.713)"/>
    <path id="패스_38491" data-name="패스 38491" d="M165.273,97.36a.449.449,0,0,1-.211-.053l-2.208-1.171a.451.451,0,0,1,.007-.8l2.224-1.131a.451.451,0,0,1,.409.8l-1.449.737,1.44.763a.452.452,0,0,1-.212.851" transform="translate(-148.033 -85.712)"/>
    <path id="패스_38492" data-name="패스 38492" d="M79.772,150.892a5.792,5.792,0,0,0,.627-2.437H68.77a5.79,5.79,0,0,0,.664,2.507,13.348,13.348,0,0,1,10.338-.07" transform="translate(-62.603 -135.143)"/>
    <path id="패스_38493" data-name="패스 38493" d="M81.331,168.589a5.817,5.817,0,0,0,5.188-3.182,13.348,13.348,0,0,0-10.338.07,5.815,5.815,0,0,0,5.15,3.113" transform="translate(-69.35 -149.658)" fill="#ff3657"/>
  </g>
</svg>
