<svg xmlns="http://www.w3.org/2000/svg" width="20" height="20" viewBox="0 0 20 20">
  <g id="icon_good_p_nor" transform="translate(11698 9400.581)">
    <rect id="area" width="20" height="20" transform="translate(-11698 -9400.581)" fill="none"/>
    <g id="Union_97" data-name="Union 97" transform="translate(-12479 -8388)" fill="#fff" stroke-miterlimit="10">
      <path d="M 796.0009765625 -995.0825805664062 L 788.2783203125 -995.0825805664062 C 788.1570434570312 -995.0825805664062 788.1025390625 -995.1051635742188 788.090576171875 -995.1171264648438 C 787.9982299804688 -995.2098388671875 787.9996948242188 -995.6776123046875 788.0006713867188 -995.9871215820312 L 788.0009765625 -996.1257934570312 L 788.0424194335938 -1003.674560546875 L 790.3217163085938 -1009.019897460938 L 790.323974609375 -1009.020446777344 L 790.3275146484375 -1009.021484375 C 790.3275146484375 -1009.021484375 790.3275146484375 -1009.021484375 790.3275146484375 -1009.021484375 C 790.3275756835938 -1009.021484375 790.563720703125 -1009.082336425781 790.8916015625 -1009.082336425781 C 791.2286987304688 -1009.082336425781 791.7105712890625 -1009.015563964844 792.0916748046875 -1008.697570800781 C 792.5587158203125 -1008.307006835938 792.7767944335938 -1007.638061523438 792.7394409179688 -1006.709655761719 C 792.7114868164062 -1006.037353515625 792.6945190429688 -1005.420104980469 792.68896484375 -1004.875671386719 L 792.6838989257812 -1004.37060546875 L 793.18896484375 -1004.37060546875 L 797.0009765625 -1004.37060546875 C 797.53125 -1004.37060546875 797.9691162109375 -1003.93994140625 798.0008544921875 -1003.39013671875 L 798.001953125 -1003.370544433594 L 797.9983520507812 -1003.318359375 L 797.000732421875 -996.1224365234375 L 796.9957275390625 -996.086669921875 L 796.9959716796875 -996.050537109375 C 796.9974975585938 -995.8106079101562 796.8934326171875 -995.5673828125 796.7103881835938 -995.3831787109375 C 796.517822265625 -995.1893310546875 796.265869140625 -995.0825805664062 796.0009765625 -995.0825805664062 Z" stroke="none"/>
      <path d="M 790.8916015625 -1008.582336425781 L 790.8916015625 -1008.582336425781 C 790.81103515625 -1008.582336425781 790.7373046875 -1008.577758789062 790.674072265625 -1008.571533203125 L 788.5418701171875 -1003.571044921875 L 788.5006713867188 -995.9855346679688 C 788.5003051757812 -995.8659057617188 788.4998168945312 -995.7124633789062 788.5047607421875 -995.5825805664062 L 796.0009765625 -995.5825805664062 C 796.1773681640625 -995.5825805664062 796.2989501953125 -995.678466796875 796.355712890625 -995.735595703125 C 796.445556640625 -995.8259887695312 796.4967041015625 -995.9396362304688 796.4959716796875 -996.04736328125 L 796.4955444335938 -996.1195678710938 L 796.5054321289062 -996.1911010742188 L 797.5009155273438 -1003.372680664062 C 797.4793701171875 -1003.652770996094 797.2630615234375 -1003.87060546875 797.0009765625 -1003.87060546875 L 792.1788330078125 -1003.87060546875 L 792.1890258789062 -1004.880676269531 C 792.194580078125 -1005.430358886719 792.211669921875 -1006.052917480469 792.2398071289062 -1006.729736328125 C 792.2706298828125 -1007.495056152344 792.1127319335938 -1008.028198242188 791.7713623046875 -1008.313659667969 C 791.5576782226562 -1008.491943359375 791.26171875 -1008.582275390625 790.8916015625 -1008.582336425781 M 790.8916015625 -1009.582336425781 C 791.3401489257812 -1009.582336425781 791.9271850585938 -1009.486022949219 792.4119873046875 -1009.081481933594 C 793.0050048828125 -1008.585632324219 793.282958984375 -1007.781066894531 793.239013671875 -1006.689514160156 C 793.208984375 -1005.96728515625 793.1939697265625 -1005.366516113281 793.18896484375 -1004.87060546875 L 797.0040283203125 -1004.87060546875 C 797.7960205078125 -1004.87060546875 798.4530029296875 -1004.233764648438 798.5 -1003.4189453125 L 798.5029296875 -1003.367553710938 L 798.4959716796875 -1003.266723632812 L 797.4959716796875 -996.0537719726562 C 797.5009765625 -995.2749633789062 796.8280029296875 -994.5825805664062 796.0009765625 -994.5825805664062 L 788.2783203125 -994.5825805664062 C 787.4512939453125 -994.5825805664062 787.5009765625 -995.2749633789062 787.5009765625 -996.1257934570312 L 787.54296875 -1003.778015136719 L 789.9579467773438 -1009.441589355469 L 790.1939697265625 -1009.503295898438 C 790.2181396484375 -1009.510009765625 790.5028686523438 -1009.582336425781 790.8916015625 -1009.582336425781 Z" stroke="none" fill="#5055b1"/>
    </g>
    <g id="Rectangle_3109" data-name="Rectangle 3109" transform="translate(-11696 -9392.582)" fill="#fff" stroke="#5055b1" stroke-width="1">
      <path d="M2,0H5.5a0,0,0,0,1,0,0V10a0,0,0,0,1,0,0H2A2,2,0,0,1,0,8V2A2,2,0,0,1,2,0Z" stroke="none"/>
      <path d="M2,.5H5a0,0,0,0,1,0,0v9a0,0,0,0,1,0,0H2A1.5,1.5,0,0,1,.5,8V2A1.5,1.5,0,0,1,2,.5Z" fill="none"/>
    </g>
  </g>
</svg>
