<svg xmlns="http://www.w3.org/2000/svg" width="17" height="18.999" viewBox="0 0 17 18.999">
  <g id="icon_spo" transform="translate(0)">
    <path id="패스_13719" data-name="패스 13719" d="M7145.5-258a5,5,0,0,1-5-5v-5a3,3,0,0,1,3-3h1v-1.5a4.5,4.5,0,0,1,4.5-4.5,4.5,4.5,0,0,1,4.5,4.5v1.5h1a3,3,0,0,1,3,3v5a5,5,0,0,1-5,5Zm-4-10v5a4,4,0,0,0,4,4h7a4,4,0,0,0,4-4v-5a2,2,0,0,0-2-2h-11A2,2,0,0,0,7141.5-268Zm11-3v-1.5a3.5,3.5,0,0,0-3.5-3.5,3.5,3.5,0,0,0-3.5,3.5v1.5Zm-4,9v-2.085a1.5,1.5,0,0,1-1-1.415,1.5,1.5,0,0,1,1.5-1.5,1.5,1.5,0,0,1,1.5,1.5,1.5,1.5,0,0,1-1,1.415V-262Zm0-3.5a.5.5,0,0,0,.5.5.5.5,0,0,0,.5-.5.5.5,0,0,0-.5-.5A.5.5,0,0,0,7148.5-265.5Z" transform="translate(-7140.498 277)" fill="#767675"/>
  </g>
</svg>
