<svg xmlns="http://www.w3.org/2000/svg" width="40" height="40" viewBox="0 0 40 40">
  <g id="icon" transform="translate(9 11)">
    <g id="tb" transform="translate(-9 -11)">
      <g id="img" fill="#fff" stroke="#ddd" stroke-width="1">
        <circle cx="20" cy="20" r="20" stroke="none"/>
        <circle cx="20" cy="20" r="19.5" fill="none"/>
      </g>
    </g>
    <g id="Group_112443" data-name="Group 112443">
      <path id="Path_36171" data-name="Path 36171" d="M21.114,4.849A2.259,2.259,0,0,1,19.375,8.3a2.865,2.865,0,0,1-.314.017A2.589,2.589,0,0,1,16.37,5.843a2.588,2.588,0,0,1-2.691,2.475,2.589,2.589,0,0,1-2.691-2.475,2.59,2.59,0,0,1-2.7,2.475A2.589,2.589,0,0,1,5.6,5.843,2.589,2.589,0,0,1,2.907,8.318,2.865,2.865,0,0,1,2.593,8.3,2.26,2.26,0,0,1,.852,4.85L1.6,3.683,3.255,1.1A1.355,1.355,0,0,1,4.4.5H17.567a1.357,1.357,0,0,1,1.147.6L20.369,3.69Z" transform="translate(0.017 -0.026)" fill="none" stroke="#000" stroke-linecap="round" stroke-linejoin="round" stroke-width="1"/>
      <path id="Path_36172" data-name="Path 36172" d="M18.952,8.75v9.237H2.859V8.75" transform="translate(0.095 -0.461)" fill="none" stroke="#000" stroke-linecap="round" stroke-linejoin="round" stroke-width="1"/>
      <line id="Line_124" data-name="Line 124" x2="20.967" transform="translate(0.517 17.525)" fill="none" stroke="#000" stroke-linecap="round" stroke-linejoin="round" stroke-width="1"/>
      <path id="Path_36173" data-name="Path 36173" d="M8.365,18.125v-4.6a2.273,2.273,0,0,1,2.361-2.158A2.477,2.477,0,0,1,12.39,12a2.081,2.081,0,0,1,.69,1.526v4.6" transform="translate(0.277 -0.598)" fill="none" stroke="#000" stroke-linecap="round" stroke-linejoin="round" stroke-width="1"/>
      <line id="Line_125" data-name="Line 125" y2="5.265" transform="translate(11 0.552)" fill="none" stroke="#000" stroke-linecap="round" stroke-linejoin="round" stroke-width="1"/>
      <line id="Line_126" data-name="Line 126" x1="1.033" y1="5.344" transform="translate(15.353 0.473)" fill="none" stroke="#000" stroke-linecap="round" stroke-linejoin="round" stroke-width="1"/>
      <line id="Line_127" data-name="Line 127" y1="5.344" x2="1.033" transform="translate(5.614 0.473)" fill="none" stroke="#000" stroke-linecap="round" stroke-linejoin="round" stroke-width="1"/>
    </g>
  </g>
</svg>
