<svg xmlns="http://www.w3.org/2000/svg" width="36" height="36" viewBox="0 0 36 36">
  <g id="icon_box" transform="translate(-554 388)">
    <rect id="사각형_19795" data-name="사각형 19795" width="36" height="36" transform="translate(554 -388)" fill="none"/>
    <g id="그룹_109448" data-name="그룹 109448" transform="translate(555.119 -383.609)">
      <g id="사각형_19793" data-name="사각형 19793" fill="#da2128" stroke="#000" stroke-width="1.2">
        <rect width="27.219" height="27.219" rx="2" stroke="none"/>
        <rect x="0.6" y="0.6" width="26.019" height="26.019" rx="1.4" fill="none"/>
      </g>
      <g id="사각형_19794" data-name="사각형 19794" transform="translate(9.607)" fill="#fff" stroke="#000" stroke-width="1.2">
        <path d="M0,0H8.006a0,0,0,0,1,0,0V10.008a2,2,0,0,1-2,2H2a2,2,0,0,1-2-2V0A0,0,0,0,1,0,0Z" stroke="none"/>
        <path d="M.6.6H7.406a0,0,0,0,1,0,0v9.408a1.4,1.4,0,0,1-1.4,1.4H2a1.4,1.4,0,0,1-1.4-1.4V.6A0,0,0,0,1,.6.6Z" fill="none"/>
      </g>
      <g id="그룹_109446" data-name="그룹 109446" transform="translate(13.083 5.579)">
        <g id="그룹_109447" data-name="그룹 109447" transform="translate(0 0)">
          <path id="패스_36267" data-name="패스 36267" d="M21.263,21.263a1.664,1.664,0,0,1-2.349,0l-4.408-4.407-.479-.48-.59.335a8.582,8.582,0,0,1-5.228,1.055,8.127,8.127,0,0,1-4.816-2.337,8.427,8.427,0,0,1,.135-11.9,8.427,8.427,0,0,1,11.9-.135,8.127,8.127,0,0,1,2.337,4.816,8.582,8.582,0,0,1-1.055,5.228l-.335.59.48.479,4.407,4.408a1.664,1.664,0,0,1,0,2.349M5.884,5.884a4.989,4.989,0,1,0,7.054,7.054A4.989,4.989,0,1,0,5.884,5.884" transform="translate(-0.999 -0.999)" fill="#fff" stroke="#000" stroke-width="1.2"/>
        </g>
      </g>
    </g>
  </g>
</svg>
