<svg xmlns="http://www.w3.org/2000/svg" width="44" height="44" viewBox="0 0 44 44">
  <g id="icon" transform="translate(-5.666 -6)">
    <g id="icon_gift" transform="translate(5.908 5.908)">
      <g id="그룹_109462" data-name="그룹 109462" transform="translate(4.269 4.896)">
        <g id="그룹_109463" data-name="그룹 109463">
          <path id="패스_36303" data-name="패스 36303" d="M15.063,10.661H5.424A1.877,1.877,0,0,1,3.609,8.307L5.3,1.9A1.878,1.878,0,0,1,7.985.717l7.952,4.189a1.875,1.875,0,0,1,1,1.659v2.22a1.875,1.875,0,0,1-1.876,1.876" transform="translate(2.645 -0.501)" fill="#fff" stroke="#707070" stroke-width="1.5"/>
          <path id="패스_36304" data-name="패스 36304" d="M15.063,10.661H5.424A1.877,1.877,0,0,1,3.609,8.307L5.3,1.9A1.878,1.878,0,0,1,7.985.717l7.952,4.189a1.875,1.875,0,0,1,1,1.659v2.22A1.875,1.875,0,0,1,15.063,10.661Z" transform="translate(2.645 -0.501)" fill="none" stroke="#000" stroke-miterlimit="10" stroke-width="1.5"/>
          <path id="패스_36305" data-name="패스 36305" d="M10.2,10.661H19.84a1.877,1.877,0,0,0,1.815-2.354L19.968,1.9A1.878,1.878,0,0,0,17.279.717L9.327,4.906a1.875,1.875,0,0,0-1,1.659v2.22A1.875,1.875,0,0,0,10.2,10.661" transform="translate(7.579 -0.501)" fill="#fff" stroke="#707070" stroke-width="1.5"/>
          <path id="패스_36306" data-name="패스 36306" d="M10.2,10.661H19.84a1.877,1.877,0,0,0,1.815-2.354L19.968,1.9A1.878,1.878,0,0,0,17.279.717L9.327,4.906a1.875,1.875,0,0,0-1,1.659v2.22A1.875,1.875,0,0,0,10.2,10.661Z" transform="translate(7.579 -0.501)" fill="none" stroke="#000" stroke-miterlimit="10" stroke-width="1.5"/>
          <path id="패스_36307" data-name="패스 36307" d="M11.551,9.258H9.736A1.877,1.877,0,0,1,7.86,7.382V3.737A1.879,1.879,0,0,1,9.736,1.859h1.815a1.877,1.877,0,0,1,1.876,1.878V7.382a1.875,1.875,0,0,1-1.876,1.876" transform="translate(7.099 0.902)" fill="#fff" stroke="#707070" stroke-width="1.5"/>
          <path id="사각형_19800" data-name="사각형 19800" d="M.923,0H4.644a.923.923,0,0,1,.923.923V6.475a.924.924,0,0,1-.924.924H.923A.923.923,0,0,1,0,6.476V.923A.923.923,0,0,1,.923,0Z" transform="translate(14.959 2.76)" fill="none" stroke="#000" stroke-miterlimit="10" stroke-width="1.5"/>
          <path id="패스_36308" data-name="패스 36308" d="M35.383,10.023H1.517A1.015,1.015,0,0,1,.5,9.007V4.535A1.015,1.015,0,0,1,1.517,3.519H35.383A1.017,1.017,0,0,1,36.4,4.535V9.007a1.017,1.017,0,0,1-1.016,1.016" transform="translate(-0.5 2.616)" fill="#ff89ff"/>
          <path id="패스_36309" data-name="패스 36309" d="M30.891,28.47H3.668c-1.124,0-2.033-1.187-2.033-2.65V6.719H32.923v19.1c0,1.463-.913,2.65-2.033,2.65" transform="translate(0.671 5.921)" fill="#ff89ff"/>
          <rect id="사각형_19802" data-name="사각형 19802" width="7.923" height="28.257" transform="translate(13.781 6.135)" fill="#fff"/>
          <path id="패스_36310" data-name="패스 36310" d="M30.891,28.47H3.668c-1.124,0-2.033-1.187-2.033-2.65V6.719H32.923v19.1C32.923,27.283,32.011,28.47,30.891,28.47Z" transform="translate(0.671 5.921)" fill="none" stroke="#000" stroke-miterlimit="10" stroke-width="1.5"/>
          <line id="선_132" data-name="선 132" y2="28.206" transform="translate(13.781 5.77)" fill="none" stroke="#000" stroke-width="1.5"/>
          <line id="선_133" data-name="선 133" y2="28.206" transform="translate(21.705 5.77)" fill="none" stroke="#000" stroke-width="1.5"/>
          <rect id="사각형_19801" data-name="사각형 19801" width="35.898" height="6.504" rx="0.5" transform="translate(0 6.135)" fill="none" stroke="#000" stroke-miterlimit="10" stroke-width="1.5"/>
        </g>
      </g>
      <rect id="사각형_19803" data-name="사각형 19803" width="44" height="44" transform="translate(-0.242 0.092)" fill="none"/>
    </g>
  </g>
</svg>
