<svg xmlns="http://www.w3.org/2000/svg" width="14" height="14.002" viewBox="0 0 14 14.002">
  <g id="icon_reviews_h14" transform="translate(-20.334 -9.516)">
    <g id="icon" transform="translate(21.334 11.518)">
      <rect id="Rectangle_809" data-name="Rectangle 809" width="13" height="1" transform="translate(-0.996 11)" fill="#ffc508"/>
      <path id="Path_38214" data-name="Path 38214" d="M.21,6.091a.5.5,0,0,1-.053.062A.521.521,0,0,0,0,6.526v1.5a.528.528,0,0,0,.526.526h1.5A.521.521,0,0,0,2.4,8.392a.5.5,0,0,1,.062-.053L8.4,2.4a.524.524,0,0,0,0-.744L6.9.155A.522.522,0,0,0,6.532,0a.516.516,0,0,0-.371.154Z" transform="translate(1.72 -0.277)" fill="#ffc508"/>
      <path id="패스_113" data-name="패스 113" d="M-50.467,1210.01H-51.78a1.4,1.4,0,0,1-1.4-1.4V1207.3a1.39,1.39,0,0,1,.358-.935.469.469,0,0,1,.053-.063l5.275-5.275a1.391,1.391,0,0,1,.991-.411,1.394,1.394,0,0,1,.992.411l1.319,1.318a1.394,1.394,0,0,1,.411.993,1.391,1.391,0,0,1-.412.991l-5.275,5.275a.457.457,0,0,1-.063.053A1.391,1.391,0,0,1-50.467,1210.01Zm-1.59-3.1a.479.479,0,0,1-.047.054.459.459,0,0,0-.138.328v1.312a.463.463,0,0,0,.463.462h1.312a.458.458,0,0,0,.328-.137.482.482,0,0,1,.055-.047l5.226-5.226a.458.458,0,0,0,.136-.326.46.46,0,0,0-.136-.328l-1.319-1.318a.46.46,0,0,0-.327-.136.458.458,0,0,0-.326.135Z" transform="translate(54.48 -1201.311)" fill="#ffc508"/>
    </g>
    <g id="Rectangle_3080" data-name="Rectangle 3080" transform="translate(20.334 9.516)" fill="#fff" stroke="#707070" stroke-width="1" opacity="0">
      <rect width="14" height="14" stroke="none"/>
      <rect x="0.5" y="0.5" width="13" height="13" fill="none"/>
    </g>
  </g>
</svg>
