<svg xmlns="http://www.w3.org/2000/svg" width="60" height="60" viewBox="0 0 60 60">
  <g id="icon" transform="translate(5870 19452)">
    <g id="Group_112410" data-name="Group 112410" transform="translate(-11.195 34.085)">
      <g id="Group_112408" data-name="Group 112408" transform="translate(-5852.442 -19460.842)">
        <g id="Group_112409" data-name="Group 112409" transform="translate(0 0)">
          <g id="Rectangle_20540" data-name="Rectangle 20540" transform="translate(1.34 21.316)" fill="#fec211" stroke="#000" stroke-width="1.2">
            <rect width="7.433" height="6.503" rx="2" stroke="none"/>
            <rect x="0.6" y="0.6" width="6.233" height="5.303" rx="1.4" fill="none"/>
          </g>
          <g id="Rectangle_20541" data-name="Rectangle 20541" transform="translate(38.503 21.316)" fill="#fec211" stroke="#000" stroke-width="1.2">
            <rect width="7.433" height="6.503" rx="2" stroke="none"/>
            <rect x="0.6" y="0.6" width="6.233" height="5.303" rx="1.4" fill="none"/>
          </g>
          <path id="Path_38209" data-name="Path 38209" d="M24,36.449H6.7A1.056,1.056,0,0,1,5.651,35.4v-16.2A1.056,1.056,0,0,1,6.7,18.141H24a1.056,1.056,0,0,1,1.053,1.053V35.4A1.056,1.056,0,0,1,24,36.449" transform="translate(-1.42 -18.141)" fill="none"/>
          <path id="Path_38211" data-name="Path 38211" d="M42.438,36.449h-17.3A1.056,1.056,0,0,1,24.085,35.4v-16.2a1.056,1.056,0,0,1,1.053-1.053h17.3a1.056,1.056,0,0,1,1.053,1.053V35.4a1.056,1.056,0,0,1-1.053,1.053" transform="translate(-0.448 -18.141)" fill="none"/>
          <rect id="Rectangle_20535" data-name="Rectangle 20535" width="47.275" height="4.542" rx="1" transform="translate(0 18.307)" fill="#7582f0" stroke="#231815" stroke-linecap="round" stroke-linejoin="round" stroke-width="1.2"/>
        </g>
      </g>
      <g id="Group_112412" data-name="Group 112412" transform="translate(-5848.211 -19479.15)">
        <rect id="Rectangle_20532" data-name="Rectangle 20532" width="19.406" height="18.308" rx="1" transform="translate(9.703)" fill="#f2f2f2"/>
        <path id="Path_38208" data-name="Path 38208" d="M26.933.752v7.79A1.056,1.056,0,0,1,25.88,9.6H22.564a1.056,1.056,0,0,1-1.053-1.053V.752" transform="translate(-4.815 -0.75)" fill="#f06a86" stroke="#231815" stroke-linecap="round" stroke-linejoin="round" stroke-width="1.2"/>
        <rect id="Rectangle_20533" data-name="Rectangle 20533" width="19.406" height="18.308" rx="1" transform="translate(0 18.308)" fill="#f2f2f2" stroke="#231815" stroke-linecap="round" stroke-linejoin="round" stroke-width="1.2"/>
        <path id="Path_38210" data-name="Path 38210" d="M17.716,18.143v7.79a1.056,1.056,0,0,1-1.053,1.053H13.347a1.056,1.056,0,0,1-1.053-1.053v-7.79" transform="translate(-5.301 0.167)" fill="#f06a86" stroke="#231815" stroke-linecap="round" stroke-linejoin="round" stroke-width="1.2"/>
        <rect id="Rectangle_20534" data-name="Rectangle 20534" width="19.406" height="18.308" rx="1" transform="translate(19.405 18.308)" fill="#f2f2f2"/>
        <path id="Path_38212" data-name="Path 38212" d="M36.15,18.143v7.79A1.056,1.056,0,0,1,35.1,26.986H31.781a1.056,1.056,0,0,1-1.053-1.053v-7.79" transform="translate(-4.329 0.167)" fill="#f06a86" stroke="#231815" stroke-linecap="round" stroke-linejoin="round" stroke-width="1.2"/>
        <rect id="Rectangle_20536" data-name="Rectangle 20536" width="19.406" height="18.308" rx="1" transform="translate(9.703)" fill="none" stroke="#231815" stroke-linecap="round" stroke-linejoin="round" stroke-width="1.2"/>
        <rect id="Rectangle_20537" data-name="Rectangle 20537" width="19.406" height="18.308" rx="1" transform="translate(0 18.31)" fill="none" stroke="#231815" stroke-linecap="round" stroke-linejoin="round" stroke-width="1.2"/>
        <rect id="Rectangle_20538" data-name="Rectangle 20538" width="19.406" height="18.308" rx="1" transform="translate(19.405 18.31)" fill="none" stroke="#231815" stroke-linecap="round" stroke-linejoin="round" stroke-width="1.2"/>
      </g>
    </g>
    <rect id="Rectangle_20539" data-name="Rectangle 20539" width="60" height="60" transform="translate(-5870 -19452)" fill="none"/>
  </g>
</svg>
