<svg xmlns="http://www.w3.org/2000/svg" width="34.231" height="62.737" viewBox="0 0 34.231 62.737">
  <g id="Group_109768" data-name="Group 109768" transform="translate(0.6 0.6)">
    <path id="Path_37072" data-name="Path 37072" d="M102.683,123.3H98.816a1.341,1.341,0,0,0-1.341,1.341v22.321a1.341,1.341,0,0,0,1.341,1.341h3.867a1.341,1.341,0,0,0,1.341-1.341V124.645a1.341,1.341,0,0,0-1.341-1.341" transform="translate(-84.234 -86.77)" fill="#9262ff" stroke="#000" stroke-width="1.2"/>
    <rect id="Rectangle_19814" data-name="Rectangle 19814" width="4.252" height="8.695" transform="translate(14.389 27.838)" fill="#fff" stroke="#000" stroke-linecap="round" stroke-linejoin="round" stroke-width="1.2"/>
    <path id="Path_37073" data-name="Path 37073" d="M69.846,1.5A16.515,16.515,0,1,0,86.362,18.016,16.515,16.515,0,0,0,69.846,1.5m0,29.037A12.521,12.521,0,1,1,82.368,18.016,12.521,12.521,0,0,1,69.846,30.538" transform="translate(-53.331 -1.501)" fill="#d8d1cb"/>
    <path id="Path_37074" data-name="Path 37074" d="M69.846,1.5A16.515,16.515,0,1,0,86.362,18.016,16.515,16.515,0,0,0,69.846,1.5Zm0,29.037A12.521,12.521,0,1,1,82.368,18.016,12.521,12.521,0,0,1,69.846,30.538Z" transform="translate(-53.331 -1.501)" fill="none" stroke="#000" stroke-linecap="round" stroke-linejoin="round" stroke-width="1.2"/>
    <path id="Path_37075" data-name="Path 37075" d="M79.168,14.816A12.521,12.521,0,1,0,91.69,27.337,12.521,12.521,0,0,0,79.168,14.816" transform="translate(-62.653 -10.822)" fill="#fff"/>
    <circle id="Ellipse_337" data-name="Ellipse 337" cx="12.521" cy="12.521" r="12.521" transform="translate(3.994 3.994)" fill="none" stroke="#000" stroke-linecap="round" stroke-linejoin="round" stroke-width="1.2"/>
    <path id="Path_37088" data-name="Path 37088" d="M96.745,22.3A67.347,67.347,0,0,0,89.634,33.4c-2.256-4.662-4.353-6.487-4.642-6.724a2.011,2.011,0,1,0-2.57,3.093c.028.024,2.818,2.481,5.273,9.454a2.071,2.071,0,0,0,1.933,1.412c.045,0,.09,0,.134,0a2.016,2.016,0,0,0,1.787-1.444c.02-.069,1.788-5.9,8.379-14.425A2.013,2.013,0,0,0,96.745,22.3" transform="translate(-78.781 18.178) rotate(-21)" fill="#fc3f4b"/>
    <path id="Path_37089" data-name="Path 37089" d="M96.745,22.3A67.347,67.347,0,0,0,89.634,33.4c-2.256-4.662-4.353-6.487-4.642-6.724a2.011,2.011,0,1,0-2.57,3.093c.028.024,2.818,2.481,5.273,9.454a2.071,2.071,0,0,0,1.933,1.412c.045,0,.09,0,.134,0a2.016,2.016,0,0,0,1.787-1.444c.02-.069,1.788-5.9,8.379-14.425A2.013,2.013,0,0,0,96.745,22.3Z" transform="translate(-78.781 18.178) rotate(-21)" fill="none" stroke="#000" stroke-linecap="round" stroke-linejoin="round" stroke-width="1.2"/>
  </g>
</svg>
