<?xml version="1.0" encoding="utf-8"?>
<!-- Generator: Adobe Illustrator 26.1.0, SVG Export Plug-In . SVG Version: 6.00 Build 0)  -->
<svg version="1.1" id="Layer_1" xmlns="http://www.w3.org/2000/svg" xmlns:xlink="http://www.w3.org/1999/xlink" x="0px" y="0px" viewBox="0 0 226 226" style="enable-background:new 0 0 226 226;" xml:space="preserve">
<style type="text/css">
.st0{fill:#FFFFFF;}
.st1{fill:none;}
.st2{enable-background:new;}
.st3{fill:#DA2128;}
.st4{fill:none;stroke:#000000;stroke-width:2;}
</style>
<path class="st0" d="M12,0h202c6.6,0,12,5.4,12,12v202c0,6.6-5.4,12-12,12H12c-6.6,0-12-5.4-12-12V12C0,5.4,5.4,0,12,0z"/>
<path class="st1" d="M12,0.5h202c6.4,0,11.5,5.1,11.5,11.5v202c0,6.4-5.1,11.5-11.5,11.5H12c-6.4,0-11.5-5.1-11.5-11.5V12
	C0.5,5.6,5.6,0.5,12,0.5z"/>
<g class="st2">
	<path d="M74.5,133.5h2.6v-7.9H75v-1.2c1.1-0.2,1.9-0.5,2.6-0.9h1.4v9.9h2.3v1.5h-6.7V133.5z"/>
	<path d="M83,134l1-1.1c0.4,0.5,1.2,0.9,1.8,0.9c1.5,0,2.8-1.2,2.8-4.5c-0.7,0.9-1.7,1.4-2.6,1.4c-2,0-3.3-1.2-3.3-3.5
		c0-2.3,1.6-3.7,3.5-3.7c2.3,0,4.1,1.8,4.1,5.6c0,4.5-2.1,6.3-4.4,6.3C84.6,135.2,83.6,134.7,83,134z M86.4,129.3
		c0.7,0,1.6-0.4,2.2-1.4c-0.2-2.1-1.1-3.1-2.3-3.1c-1,0-1.8,0.8-1.8,2.3C84.5,128.5,85.2,129.3,86.4,129.3z"/>
	<path d="M96.3,125.6c0,2.3,0.9,4.8,2.8,6l-0.9,1.3c-1.3-0.8-2.2-2.2-2.7-3.8c-0.5,1.8-1.5,3.3-2.8,4.1l-1-1.2c2-1.2,3-3.8,3-6.3
		v-2.6h1.6V125.6z M99.7,122.1h1.6v13.5h-1.6v-7.4h-2.1v-1.3h2.1V122.1z M104.2,121.8v14.5h-1.6v-14.5H104.2z"/>
	<path d="M117.8,127.9c0,3.1-1.6,5.1-3.7,5.1c-2.1,0-3.7-2-3.7-5.1c0-3.1,1.6-5.1,3.7-5.1C116.2,122.8,117.8,124.8,117.8,127.9z
		 M111.9,127.9c0,2.3,0.9,3.6,2.1,3.6c1.3,0,2.1-1.4,2.1-3.6c0-2.2-0.9-3.6-2.1-3.6C112.8,124.3,111.9,125.7,111.9,127.9z
		 M121.7,121.8v14.5h-1.7v-14.5H121.7z"/>
	<path d="M132,129.7c-1.6-0.6-2.7-1.7-3.3-3c-0.6,1.6-1.8,2.8-3.5,3.4l-0.9-1.3c2.3-0.8,3.5-2.8,3.5-4.8v-1.4h1.7v1.6
		c0,1.9,1.2,3.6,3.4,4.3L132,129.7z M135.9,133.5c0,1.7-1.8,2.7-4.8,2.7c-3,0-4.8-1-4.8-2.7c0-1.7,1.8-2.7,4.8-2.7
		C134,130.8,135.9,131.8,135.9,133.5z M134.2,133.5c0-0.9-1.2-1.4-3.2-1.4c-2,0-3.2,0.5-3.2,1.4c0,0.9,1.2,1.4,3.2,1.4
		C133.1,134.9,134.2,134.4,134.2,133.5z M137.7,125.3v1.4h-2v3.7h-1.6v-8.7h1.6v3.6H137.7z"/>
	<path d="M146.2,129.8h-6.8V123h6.8V129.8z M144.6,124.3h-3.5v4.2h3.5V124.3z M142.8,134.6h8.1v1.3h-9.7v-4.6h1.7V134.6z
		 M152.3,126.1v1.4h-2v4.9h-1.6v-10.6h1.6v4.3H152.3z"/>
</g>
<g class="st2">
	<path d="M81.4,154.2h-5.8v6H74v-6h-5.7v-1.4h9.4c0.4-2,0.4-3.5,0.4-4.9h-8.2v-1.3h9.9v1.3c0,1.4,0,2.9-0.4,4.9h2V154.2z"/>
	<path d="M83.4,147.4h5.6v9.1h-5.6V147.4z M84.9,155.2h2.5v-6.5h-2.5V155.2z M95.2,145.8v14.4h-1.6v-7.5H92v6.8h-1.6v-13.5H92v5.4
		h1.6v-5.6H95.2z"/>
	<path d="M108.3,147.3c0,4.2-1.8,7.9-6.5,10.3l-0.9-1.3c3.5-1.8,5.4-4.4,5.8-7.7h-5.1v-1.3H108.3z M114.3,152.9h-2.2v7.4h-1.6v-14.5
		h1.6v5.7h2.2V152.9z"/>
	<path d="M128.5,152.4v1.3h-13.1v-1.3H128.5z M126.9,157.5c0,1.7-1.9,2.7-5,2.7c-3.1,0-5-1-5-2.7c0-1.7,1.9-2.7,5-2.7
		C125.1,154.9,126.9,155.8,126.9,157.5z M127,150.9h-9.9v-4.9h1.6v3.6h8.2V150.9z M125.3,157.5c0-0.9-1.2-1.4-3.3-1.4
		c-2.1,0-3.3,0.5-3.3,1.4c0,0.9,1.2,1.4,3.3,1.4C124.1,158.9,125.3,158.4,125.3,157.5z"/>
	<path d="M134.4,148.1h2.7v1.3H130v-1.3h2.7v-1.9h1.6V148.1z M136.7,153.6c0,2-1.3,3.4-3.1,3.4c-1.8,0-3.1-1.4-3.1-3.4
		c0-2,1.3-3.4,3.1-3.4C135.4,150.3,136.7,151.6,136.7,153.6z M135.2,153.6c0-1.2-0.7-2-1.7-2s-1.7,0.8-1.7,2s0.7,2,1.7,2
		S135.2,154.8,135.2,153.6z M142.3,145.8v14.5h-1.6v-7.1h-1.5v6.4h-1.5v-13.5h1.5v5.7h1.5v-6H142.3z"/>
	<path d="M157.7,157.1v1.3h-13.1v-1.3h3.1v-3.8c-1.2-0.6-1.8-1.7-1.8-3c0-2.3,2.2-3.8,5.3-3.8c3.1,0,5.3,1.5,5.3,3.8
		c0,1.3-0.7,2.3-1.8,3v3.8H157.7z M147.4,150.4c0,1.5,1.5,2.5,3.7,2.5c2.2,0,3.7-1,3.7-2.5c0-1.5-1.5-2.5-3.7-2.5
		C148.9,147.9,147.4,148.9,147.4,150.4z M149.3,157.1h3.6V154c-0.6,0.1-1.2,0.2-1.8,0.2s-1.3-0.1-1.8-0.2V157.1z"/>
</g>
<g id="Ellipse_336" transform="translate(-7026.105 -19497.105)">
	<circle class="st3" cx="7139.1" cy="19581.1" r="22"/>
	<circle class="st4" cx="7139.1" cy="19581.1" r="21"/>
</g>
<g class="st2">
	<path class="st0" d="M109.8,92H107V81.1l-3.4,1v-2.3l5.9-2.1h0.3V92z"/>
	<path class="st0" d="M120,86.3c-0.7,0.7-1.6,1.1-2.6,1.1c-1.3,0-2.3-0.4-3-1.3c-0.8-0.9-1.1-2-1.1-3.5c0-0.9,0.2-1.8,0.6-2.6
		c0.4-0.8,1-1.4,1.7-1.8s1.5-0.6,2.5-0.6c0.9,0,1.8,0.2,2.5,0.7s1.3,1.1,1.7,2s0.6,1.9,0.6,3v1c0,2.4-0.6,4.2-1.8,5.6
		s-2.8,2.1-5,2.2l-0.7,0v-2.4l0.6,0C118.5,89.7,119.8,88.5,120,86.3z M118.2,85.2c0.5,0,0.8-0.1,1.2-0.4s0.6-0.5,0.7-0.8v-1.2
		c0-1-0.2-1.7-0.5-2.2s-0.9-0.8-1.5-0.8c-0.6,0-1,0.3-1.4,0.8s-0.5,1.2-0.5,1.9c0,0.8,0.2,1.4,0.5,1.9S117.5,85.2,118.2,85.2z"/>
</g>
</svg>
