<svg xmlns="http://www.w3.org/2000/svg" xmlns:xlink="http://www.w3.org/1999/xlink" width="128.001" height="57" viewBox="0 0 128.001 57">
  <defs>
    <filter id="합치기_148" x="0" y="0" width="128.001" height="57" filterUnits="userSpaceOnUse">
      <feOffset dy="1" input="SourceAlpha"/>
      <feGaussianBlur result="blur"/>
      <feFlood/>
      <feComposite operator="in" in2="blur"/>
      <feComposite in="SourceGraphic"/>
    </filter>
  </defs>
  <g id="말풍선" transform="translate(157.738 44.635) rotate(180)">
    <g transform="matrix(-1, 0, 0, -1, 157.74, 44.64)" filter="url(#합치기_148)">
      <g id="합치기_148-2" data-name="합치기 148" transform="translate(79.74 47.64) rotate(180)" fill="#d4ff1a">
        <path d="M 51.73920059204102 46.63520050048828 L -12.26069736480713 46.63520050048828 C -15.40526390075684 46.63520050048828 -18.48541450500488 46.09978485107422 -21.41558074951172 45.04384994506836 C -24.24736404418945 44.02334976196289 -26.87539672851562 42.54169845581055 -29.22668075561523 40.64004898071289 C -31.55774688720703 38.75476455688477 -33.54716491699219 36.51369857788086 -35.13966369628906 33.97913360595703 C -36.76137924194336 31.39805030822754 -37.92386245727539 28.58616638183594 -38.59481430053711 25.6215991973877 L -38.67891311645508 25.2500171661377 L -38.98892974853516 25.02858352661133 L -46.54108810424805 19.6343994140625 L -38.98844909667969 14.23986625671387 L -38.67846298217773 14.01846599578857 L -38.5943489074707 13.64694976806641 C -37.92317962646484 10.68268299102783 -36.76053237915039 7.871099472045898 -35.13874816894531 5.290283203125 C -33.54616546630859 2.755949735641479 -31.55674743652344 0.5150997042655945 -29.22574806213379 -1.37000036239624 C -26.87451362609863 -3.271483659744263 -24.24659729003906 -4.753000259399414 -21.41498184204102 -5.773383617401123 C -18.48496437072754 -6.829233646392822 -15.40503120422363 -7.36460018157959 -12.26069736480713 -7.36460018157959 L 51.73920059204102 -7.36460018157959 C 55.38456726074219 -7.36460018157959 58.92038726806641 -6.650866985321045 62.24842071533203 -5.243216991424561 C 65.46343231201172 -3.88336706161499 68.35102081298828 -1.936416983604431 70.83097076416016 0.5435330271720886 C 73.31092071533203 3.023483037948608 75.25786590576172 5.91106653213501 76.61772155761719 9.126083374023438 C 78.02536773681641 12.45411682128906 78.73910522460938 15.98993301391602 78.73910522460938 19.63529968261719 C 78.73910522460938 23.28066635131836 78.02536773681641 26.81648254394531 76.61772155761719 30.14451599121094 C 75.25786590576172 33.35953140258789 73.31092071533203 36.24711608886719 70.83097076416016 38.72706604003906 C 68.35102081298828 41.20701599121094 65.46343231201172 43.15396499633789 62.24842071533203 44.51381683349609 C 58.92038726806641 45.92146682739258 55.38456726074219 46.63520050048828 51.73920059204102 46.63520050048828 Z" stroke="none"/>
        <path d="M 51.73920822143555 45.63520812988281 C 55.25002670288086 45.63520812988281 58.65476989746094 44.94804382324219 61.85886001586914 43.59280776977539 C 64.95468139648438 42.28339004516602 67.73542785644531 40.40840911865234 70.12386322021484 38.01997375488281 C 72.51229858398438 35.63151931762695 74.38728332519531 32.85077285766602 75.69670104980469 29.75497245788574 C 77.05193328857422 26.55086326599121 77.73909759521484 23.1461181640625 77.73909759521484 19.63529968261719 C 77.73909759521484 16.12448120117188 77.05193328857422 12.71973609924316 75.69670104980469 9.515626907348633 C 74.38728332519531 6.419826984405518 72.51229858398438 3.639081478118896 70.12386322021484 1.250645160675049 C 67.73542785644531 -1.137791275978088 64.95468139648438 -3.012773036956787 61.85887908935547 -4.32219123840332 C 58.65476989746094 -5.677427768707275 55.25002670288086 -6.364591121673584 51.73920822143555 -6.364591121673584 L -12.26070213317871 -6.364591121673584 C -15.2891206741333 -6.364591121673584 -18.2549934387207 -5.849154949188232 -21.07595634460449 -4.832609176635742 C -23.80228424072266 -3.850154876708984 -26.33270263671875 -2.42355489730835 -28.59693908691406 -0.5924457907676697 C -30.84208488464355 1.223245143890381 -32.75819396972656 3.381499767303467 -34.29204940795898 5.822354316711426 C -35.85351943969727 8.307190895080566 -36.97288513183594 11.01406288146973 -37.61904907226562 13.86779022216797 L -37.78728485107422 14.61080837249756 L -44.82056427001953 19.63440704345703 L -37.78768539428711 24.65769958496094 L -37.61948394775391 25.40086364746094 C -36.97357559204102 28.25486373901367 -35.85435485839844 30.96202659606934 -34.29293823242188 33.44711685180664 C -32.75917434692383 35.88821029663086 -30.84306526184082 38.04666519165039 -28.59784698486328 39.8625373840332 C -26.33357429504395 41.69380950927734 -23.80304718017578 43.12053680419922 -21.07655715942383 44.10308074951172 C -18.25543022155762 45.11971664428711 -15.28935718536377 45.63520812988281 -12.26070213317871 45.63520812988281 L 51.73920822143555 45.63520812988281 M 51.73920822143555 47.63520812988281 L -12.26070213317871 47.63520812988281 C -25.59142875671387 47.63520812988281 -36.74637603759766 38.31919097900391 -39.57015609741211 25.84233665466309 L -48.26159286499023 19.63440895080566 L -39.56966400146484 13.42611789703369 C -36.74490356445312 0.9506087899208069 -25.59048461914062 -8.364591598510742 -12.26070213317871 -8.364591598510742 L 51.73920822143555 -8.364591598510742 C 67.20301055908203 -8.364591598510742 79.73909759521484 4.171499729156494 79.73909759521484 19.63529968261719 C 79.73909759521484 35.09909820556641 67.20301055908203 47.63520812988281 51.73920822143555 47.63520812988281 Z" stroke="none" fill="#000"/>
      </g>
    </g>
  </g>
</svg>
