<?xml version="1.0" encoding="utf-8"?>
<!-- Generator: Adobe Illustrator 26.2.1, SVG Export Plug-In . SVG Version: 6.00 Build 0)  -->
<svg version="1.1" id="Layer_1" xmlns="http://www.w3.org/2000/svg" xmlns:xlink="http://www.w3.org/1999/xlink" x="0px" y="0px" viewBox="0 0 1200 617" style="enable-background:new 0 0 1200 617;" xml:space="preserve">
<style type="text/css">
.st0{fill:#DBE6FF;}
.star {position:relative;  animation:star infinite 2.0s;}
.s1 {transform-origin:2.5% 31.5%;animation-delay:0.2s;}
.s2 {transform-origin:9.2% 21%;animation-delay:0.4s;}
.s3 {transform-origin:86% 63%;animation-delay:0.2s;}
.s4 {transform-origin:95% 80%;animation-delay:0.6s;}
	
@keyframes star {
0% {transform:scale(1);opacity:1;}	
55% {transform:scale(0.7);opacity:0.6;}
100% {transform:scale(1);opacity:1;}
}
</style>
<polygon class="st0 star s1" points="65.1,201.2 63.8,194.2 42.2,197.1 54.1,179.8 50.4,177 39.2,194 33.5,158.3 28.7,160.1 33.8,196.4 
	16.6,182.1 14.2,186 30.1,198.8 9,201.6 10.6,207 32.1,204.7 20,223.1 23.1,224.8 35.3,207.1 40.6,244.5 47.1,243.3 41.4,207.8 
	57.5,220.8 59,217.4 42.5,203.6 "/>
<polygon class="st0 star s2" points="183.4,90.2 181.9,76 138.8,78.1 165.4,45.9 158.6,39.8 133.4,71.5 128.3,0 118.4,2.6 122.4,75.3 
	90.8,43.9 85.4,51.3 114.6,79.2 72.4,81.3 74.6,92.1 117.6,91.4 90.5,125.5 96.4,129.4 123.5,96.6 127.6,171.5 140.5,170.1 
	135.4,99.1 165.1,127.5 168.5,121.1 138.2,91 "/>
<polygon class="st0 star s3" points="1040.5,379.3 1008.2,377.5 1030.5,355.6 1025.9,350.5 1004.7,372.1 1006.5,318.5 999,319.7 
	996.2,374.1 975.1,348.3 970.5,353.3 990.1,376.4 958.5,374.6 959.3,382.9 991.4,385.7 968.5,409 972.6,412.4 995.4,390.1 
	992.5,446.1 1002.2,446.1 1004,392.9 1023.9,416.3 1026.9,411.8 1006.7,387 1040.5,390 "/>
<polygon class="st0 star s4" points="1190.7,507 1137.4,503.9 1174.3,467.8 1166.7,459.5 1131.7,495.1 1134.7,406.6 1122.2,408.5 
	1117.6,498.3 1082.9,455.7 1075.3,464.1 1107.6,502.2 1055.5,499.2 1056.7,512.8 1109.7,517.5 1071.9,555.9 1078.7,561.5 
	1116.3,524.7 1111.5,617.2 1127.5,617.2 1130.5,529.3 1163.3,568 1168.4,560.6 1135,519.7 1190.7,524.5 "/>
</svg>
