<svg xmlns="http://www.w3.org/2000/svg" width="24" height="24" viewBox="0 0 24 24">
  <g id="Group_115843" data-name="Group 115843" transform="translate(0 0)">
    <g id="Group_116422" data-name="Group 116422" transform="translate(0 0)">
      <g id="Ellipse_791" data-name="Ellipse 791" fill="#f46d3e" stroke="#000" stroke-width="1">
        <circle cx="12" cy="12" r="12" stroke="none"/>
        <circle cx="12" cy="12" r="11.5" fill="none"/>
      </g>
      <path id="Path_52414" data-name="Path 52414" d="M49.213,27.027c-.381,1.218-1.085,2.082-1.572,1.929s-.573-1.263-.192-2.481,1.085-2.082,1.572-1.929.573,1.263.192,2.481" transform="translate(-38.079 -19.784)"/>
      <path id="Path_52415" data-name="Path 52415" d="M80.5,36.819c-.381,1.218-1.085,2.082-1.572,1.929s-.573-1.263-.192-2.481,1.085-2.082,1.572-1.929.573,1.264.192,2.481" transform="translate(-63.317 -27.681)"/>
      <path id="Path_52416" data-name="Path 52416" d="M32.2,46.028l-.024.078h0a6.208,6.208,0,0,0,4.1,7.709c.146.046.293.086.44.122h0a6.21,6.21,0,0,0,5.612-1.47v0a6.168,6.168,0,0,0,1.7-2.649h0l.024-.078" transform="translate(-25.738 -37.125)" fill="none" stroke="#000" stroke-linecap="round" stroke-linejoin="round" stroke-width="1"/>
    </g>
  </g>
</svg>
