<svg xmlns="http://www.w3.org/2000/svg" xmlns:xlink="http://www.w3.org/1999/xlink" width="56" height="56" viewBox="0 0 56 56">
  <defs>
    <linearGradient id="linear-gradient" x1="1" y1="0.829" x2="-0.086" y2="0.336" gradientUnits="objectBoundingBox">
      <stop offset="0" stop-color="#f42664"/>
      <stop offset="1" stop-color="#ea8bae"/>
    </linearGradient>
    <filter id="Ellipse_709" x="0" y="0" width="56" height="56" filterUnits="userSpaceOnUse">
      <feOffset dx="2" dy="4" input="SourceAlpha"/>
      <feGaussianBlur stdDeviation="2" result="blur"/>
      <feFlood flood-opacity="0.161"/>
      <feComposite operator="in" in2="blur"/>
      <feComposite in="SourceGraphic"/>
    </filter>
    <linearGradient id="linear-gradient-2" x1="0.13" y1="0.173" x2="0.835" y2="0.89" gradientUnits="objectBoundingBox">
      <stop offset="0" stop-color="#ffe4ee"/>
      <stop offset="1" stop-color="#ffc8dd"/>
    </linearGradient>
    <filter id="Ellipse_710">
      <feOffset input="SourceAlpha"/>
      <feGaussianBlur stdDeviation="1" result="blur-2"/>
      <feFlood flood-color="#7e5d00" flood-opacity="0.4" result="color"/>
      <feComposite operator="out" in="SourceGraphic" in2="blur-2"/>
      <feComposite operator="in" in="color"/>
      <feComposite operator="in" in2="SourceGraphic"/>
    </filter>
    <linearGradient id="linear-gradient-3" x1="-0.912" y1="0.5" x2="0.339" y2="1.17" gradientUnits="objectBoundingBox">
      <stop offset="0" stop-color="#eb7fa5"/>
      <stop offset="1" stop-color="#f3356f"/>
    </linearGradient>
    <filter id="Path_38181" x="12.32" y="13.144" width="18.803" height="25.712" filterUnits="userSpaceOnUse">
      <feOffset dx="2" dy="2" input="SourceAlpha"/>
      <feGaussianBlur stdDeviation="2" result="blur-3"/>
      <feFlood flood-color="#c71875" flood-opacity="0.11"/>
      <feComposite operator="in" in2="blur-3"/>
      <feComposite in="SourceGraphic"/>
    </filter>
    <filter id="Path_38182" x="21.799" y="13.051" width="21.881" height="25.896" filterUnits="userSpaceOnUse">
      <feOffset dx="2" dy="2" input="SourceAlpha"/>
      <feGaussianBlur stdDeviation="2" result="blur-4"/>
      <feFlood flood-color="#c71875" flood-opacity="0.11"/>
      <feComposite operator="in" in2="blur-4"/>
      <feComposite in="SourceGraphic"/>
    </filter>
  </defs>
  <g id="Group_112392" data-name="Group 112392" transform="translate(5136.406 18602.406)">
    <rect id="Rectangle_20521" data-name="Rectangle 20521" width="48" height="48" transform="translate(-5134.406 -18602.406)" fill="none"/>
    <g id="Group_112168" data-name="Group 112168" transform="translate(-5132.387 -18600.387)">
      <g transform="matrix(1, 0, 0, 1, -4.02, -2.02)" filter="url(#Ellipse_709)">
        <circle id="Ellipse_709-2" data-name="Ellipse 709" cx="22" cy="22" r="22" transform="translate(4 2)" fill="url(#linear-gradient)"/>
      </g>
      <g data-type="innerShadowGroup">
        <circle id="Ellipse_710-2" data-name="Ellipse 710" cx="18" cy="18" r="18" transform="translate(3.98 3.98)" fill="url(#linear-gradient-2)"/>
        <g transform="matrix(1, 0, 0, 1, -4.02, -2.02)" filter="url(#Ellipse_710)">
          <circle id="Ellipse_710-3" data-name="Ellipse 710" cx="18" cy="18" r="18" transform="translate(8 6)" fill="#fff"/>
        </g>
      </g>
      <g id="Group_112392-2" data-name="Group 112392" transform="translate(12.3 15.032)">
        <g id="Group_112393" data-name="Group 112393" transform="translate(0 0)">
          <g transform="matrix(1, 0, 0, 1, -16.32, -17.05)" filter="url(#Path_38181)">
            <path id="Path_38181-2" data-name="Path 38181" d="M4.6.181a5.192,5.192,0,0,0-.868.385L.631,2.29a1.144,1.144,0,0,0-.608.819,1.4,1.4,0,0,0,.153.938,1.408,1.408,0,0,0,.742.663,1.209,1.209,0,0,0,1.059-.116L4,3.435v9.1a1.086,1.086,0,0,0,.448.959,1.657,1.657,0,0,0,.955.278,1.657,1.657,0,0,0,.955-.278,1.086,1.086,0,0,0,.448-.959V1.3A1.083,1.083,0,0,0,6.355.339,2.057,2.057,0,0,0,4.6.181" transform="translate(16.32 17.08)" fill="url(#linear-gradient-3)"/>
          </g>
          <g transform="matrix(1, 0, 0, 1, -16.32, -17.05)" filter="url(#Path_38182)">
            <path id="Path_38182-2" data-name="Path 38182" d="M15.813,3.463a5.043,5.043,0,0,0-.874-1.853,3.946,3.946,0,0,0-1.557-1.2A5.6,5.6,0,0,0,11.127,0,5.761,5.761,0,0,0,9.076.345a4.474,4.474,0,0,0-1.554.967,4.2,4.2,0,0,0-.979,1.462,4.81,4.81,0,0,0-.338,1.8v.275a5.326,5.326,0,0,0,.3,1.829,3.974,3.974,0,0,0,.866,1.412,3.88,3.88,0,0,0,1.373.9,5.233,5.233,0,0,0,3.572.012,3.482,3.482,0,0,0,.94-.5,6.317,6.317,0,0,1-.2,1.072,3,3,0,0,1-.5,1.03,1.672,1.672,0,0,1-.736.533,3.063,3.063,0,0,1-1.057.17,5.319,5.319,0,0,1-2-.367A1.261,1.261,0,0,0,7.746,10.9a1.206,1.206,0,0,0-.646.7,1.466,1.466,0,0,0-.081.912,1.269,1.269,0,0,0,.62.746,4.6,4.6,0,0,0,1.294.466,7.979,7.979,0,0,0,1.68.17,7.435,7.435,0,0,0,2.212-.313,3.788,3.788,0,0,0,1.766-1.169,5.778,5.778,0,0,0,1.111-2.29,14.452,14.452,0,0,0,.383-3.644v-.66a9.493,9.493,0,0,0-.273-2.357m-2.55,1.166v.183a2.45,2.45,0,0,1-.125.788,1.659,1.659,0,0,1-.377.62,1.845,1.845,0,0,1-.669.422,2.835,2.835,0,0,1-1,.159,2.248,2.248,0,0,1-1.616-.493,2.1,2.1,0,0,1-.5-1.551v-.11a2.022,2.022,0,0,1,.545-1.532,2.319,2.319,0,0,1,1.664-.53,2.107,2.107,0,0,1,1.56.527,2.084,2.084,0,0,1,.521,1.517" transform="translate(19.59 17.05)" fill="url(#linear-gradient-3)"/>
          </g>
        </g>
      </g>
    </g>
  </g>
</svg>
