<svg xmlns="http://www.w3.org/2000/svg" width="43.4" height="34" viewBox="0 0 43.4 34">
  <g id="그룹_112282" data-name="그룹 112282" transform="translate(1 1)">
    <g id="그룹_112283" data-name="그룹 112283">
      <path id="패스_38141" data-name="패스 38141" d="M22.238,16.744c0,.607-.022,1.2-.076,1.8v.005c-.5,6.34-3.655,11.486-7.782,12.994a7.172,7.172,0,0,1-2.511.456C6.142,31.994,1.5,25.166,1.5,16.744S6.142,1.5,11.869,1.5,22.238,8.322,22.238,16.744" transform="translate(-1.5 -1.5)" fill="#fff"/>
      <path id="패스_38142" data-name="패스 38142" d="M22.238,16.744c0,.607-.022,1.2-.076,1.8v.005c-.5,6.34-3.655,11.486-7.782,12.994a7.172,7.172,0,0,1-2.511.456C6.142,31.994,1.5,25.166,1.5,16.744S6.142,1.5,11.869,1.5,22.238,8.322,22.238,16.744Z" transform="translate(-1.5 -1.5)" fill="none" stroke="#000" stroke-linecap="round" stroke-linejoin="round" stroke-width="2"/>
      <path id="패스_38143" data-name="패스 38143" d="M29.311,26.773v.005c-.5,6.34-3.655,11.486-7.782,12.994-2.554-1.3-4.409-5.244-4.409-9.913,0-5.727,2.793-10.369,6.237-10.369,2.8,0,5.168,3.064,5.955,7.283" transform="translate(-8.649 -9.735)"/>
      <path id="패스_38144" data-name="패스 38144" d="M29.311,26.773v.005c-.5,6.34-3.655,11.486-7.782,12.994-2.554-1.3-4.409-5.244-4.409-9.913,0-5.727,2.793-10.369,6.237-10.369C26.155,19.49,28.525,22.554,29.311,26.773Z" transform="translate(-8.649 -9.735)" fill="none" stroke="#000" stroke-linecap="round" stroke-linejoin="round" stroke-width="2"/>
      <path id="패스_38145" data-name="패스 38145" d="M39.6,16.744c0,.607.022,1.2.076,1.8v.005c.5,6.34,3.655,11.486,7.782,12.994a7.172,7.172,0,0,0,2.511.456c5.727,0,10.369-6.828,10.369-15.25S55.7,1.5,49.969,1.5,39.6,8.322,39.6,16.744" transform="translate(-18.938 -1.5)" fill="#fff"/>
      <path id="패스_38146" data-name="패스 38146" d="M39.6,16.744c0,.607.022,1.2.076,1.8v.005c.5,6.34,3.655,11.486,7.782,12.994a7.172,7.172,0,0,0,2.511.456c5.727,0,10.369-6.828,10.369-15.25S55.7,1.5,49.969,1.5,39.6,8.322,39.6,16.744Z" transform="translate(-18.938 -1.5)" fill="none" stroke="#000" stroke-linecap="round" stroke-linejoin="round" stroke-width="2"/>
      <path id="패스_38147" data-name="패스 38147" d="M39.74,26.773v.005c.5,6.34,3.655,11.486,7.782,12.994,2.554-1.3,4.409-5.244,4.409-9.913,0-5.727-2.793-10.369-6.237-10.369-2.8,0-5.168,3.064-5.955,7.283" transform="translate(-19.002 -9.735)"/>
      <path id="패스_38148" data-name="패스 38148" d="M39.74,26.773v.005c.5,6.34,3.655,11.486,7.782,12.994,2.554-1.3,4.409-5.244,4.409-9.913,0-5.727-2.793-10.369-6.237-10.369C42.9,19.49,40.526,22.554,39.74,26.773Z" transform="translate(-19.002 -9.735)" fill="none" stroke="#000" stroke-linecap="round" stroke-linejoin="round" stroke-width="2"/>
      <path id="패스_38149" data-name="패스 38149" d="M40.368,50.477c0,2.061-2.2,3.732-4.917,3.732s-4.917-1.671-4.917-3.732,2.2-3.732,4.917-3.732,4.917,1.671,4.917,3.732" transform="translate(-14.789 -22.208)" fill="#f06a86"/>
      <path id="패스_38150" data-name="패스 38150" d="M40.368,50.477c0,2.061-2.2,3.732-4.917,3.732s-4.917-1.671-4.917-3.732,2.2-3.732,4.917-3.732S40.368,48.416,40.368,50.477Z" transform="translate(-14.789 -22.208)" fill="none" stroke="#000" stroke-linecap="round" stroke-linejoin="round" stroke-width="2"/>
    </g>
  </g>
</svg>
