<?xml version="1.0" encoding="utf-8"?>
<!-- Generator: Adobe Illustrator 26.2.1, SVG Export Plug-In . SVG Version: 6.00 Build 0)  -->
<svg version="1.1" id="Layer_1" xmlns="http://www.w3.org/2000/svg" xmlns:xlink="http://www.w3.org/1999/xlink" x="0px" y="0px" viewBox="0 0 80 80" style="enable-background:new 0 0 80 80;" xml:space="preserve">
<style type="text/css">
	.st0{fill-opacity:0;}
	.st1{fill:none;stroke:#161615;stroke-width:3;stroke-linecap:round;stroke-miterlimit:10;}
	.st2{fill:#7582F0;}
	.st3{clip-path:url(#SVGID_00000014617051675444122610000012316366948445656474_);}
	.st4{fill:none;stroke:#161615;stroke-width:2;stroke-linecap:round;stroke-linejoin:round;}
	.st5{fill:none;stroke:#161615;stroke-width:2;stroke-miterlimit:10;}
	.st6{fill:#FFFFFF;stroke:#161615;stroke-width:2;stroke-linecap:round;stroke-linejoin:round;stroke-miterlimit:10;}
	.st7{enable-background:new    ;}
</style>
<g id="img" transform="translate(1.166 -0.448)">
	<rect id="area" x="-1.2" y="0.5" class="st0" width="79.7" height="79.7"/>
	<line id="선_777" class="st1" x1="17.6" y1="25.1" x2="35.8" y2="12.6"/>
	<line id="선_778" class="st1" x1="62" y1="25.1" x2="42.7" y2="12.6"/>
	<rect id="사각형_3441" x="3.3" y="24.5" class="st2" width="71.9" height="52.1"/>
	<g id="그룹_1819" transform="translate(1.487 0.448)">
		<g>
			<defs>
				<rect id="SVGID_1_" x="0" width="75.6" height="76.9"/>
			</defs>
			<clipPath id="SVGID_00000120534531870931686290000004101352952678636462_">
				<use xlink:href="#SVGID_1_"  style="overflow:visible;"/>
			</clipPath>
			<g id="그룹_1818" style="clip-path:url(#SVGID_00000120534531870931686290000004101352952678636462_);">
				<path id="패스_38125" class="st4" d="M1.9,25.1h71.9V75H1.9V25.1z"/>
				<path id="패스_36303" class="st2" d="M42.4,11.1c0,2.6-2.1,4.6-4.6,4.6c-2.6,0-4.6-2.1-4.6-4.6s2.1-4.6,4.6-4.6
					C40.3,6.5,42.4,8.6,42.4,11.1C42.4,11.1,42.4,11.1,42.4,11.1"/>
				<path id="패스_36304" class="st5" d="M42.4,11.1c0,2.6-2.1,4.6-4.6,4.6c-2.6,0-4.6-2.1-4.6-4.6s2.1-4.6,4.6-4.6
					C40.3,6.5,42.4,8.6,42.4,11.1C42.4,11.1,42.4,11.1,42.4,11.1z"/>
				<rect id="사각형_20502" x="6.4" y="29.7" class="st6" width="62.8" height="40.7"/>
			</g>
		</g>
	</g>
	<g class="st7">
		<path d="M30.4,35.9h2.3V47h-7V35.9h2.3v3.5h2.3V35.9z M30.4,44.8v-3.3h-2.3v3.3H30.4z M38,42.3h-1.4v5.3h-2.4v-12h2.4V40H38V42.3z
			"/>
		<path d="M50.6,45v2.2H38.5V45h4.8v-1.3h-4.2v-4.9h8.4V38h-8.5v-2.1h10.8v4.9h-8.4v0.8H50v2.1h-4.3V45H50.6z"/>
	</g>
	<g class="st7">
		<path d="M30.9,62.1H18.8v-2.2h12.1V62.1z M30.2,53.1h-8.4v3h8.5v2.2H19.4v-7.4h10.8V53.1z"/>
		<path d="M39.6,54.9h-4.9v0.7h3.1c1.1,0,2.1-0.2,2.8-0.4v1.8c-0.6,0.3-1.7,0.4-2.8,0.4h-5.4v-4.1h4.9v-0.7h-5v-1.8h7.3V54.9z
			 M43.5,62.6H32.8V58h10.7V62.6z M41.1,60.7v-0.9h-6v0.9H41.1z M43.5,57.6h-2.4v-7h2.4V57.6z"/>
		<path d="M57.1,56.6v1.9H45v-1.9h4.9v-1.3h2.4v1.3H57.1z M50.8,54.4c-1.3,0.9-3.2,1.4-5.2,1.5v-1.9c1.7,0,3.5-0.5,4.2-1.4h-4.1
			v-1.9h10.7v1.9h-4.1c0,0.1-0.1,0.2-0.1,0.3l4.6,1.2l-0.6,1.8L50.8,54.4z M48.1,60.6h8.4v2H45.7V59h2.4V60.6z"/>
	</g>
</g>
</svg>
