<svg xmlns="http://www.w3.org/2000/svg" xmlns:xlink="http://www.w3.org/1999/xlink" width="51.591" height="78.846" viewBox="0 0 51.591 78.846">
  <defs>
    <clipPath id="clip-path">
      <rect id="사각형_20451" data-name="사각형 20451" width="51.591" height="78.846" rx="10" transform="translate(-1 -1)" fill="none"/>
    </clipPath>
  </defs>
  <g id="img" transform="translate(1 1)">
    <g id="그룹_112031" data-name="그룹 112031" clip-path="url(#clip-path)">
      <rect id="사각형_20446" data-name="사각형 20446" width="48.42" height="75.674" rx="9.133" transform="translate(0.586 0.586)" fill="#7582f0" stroke="#000" stroke-linecap="round" stroke-linejoin="round" stroke-width="2"/>
      <rect id="사각형_20447" data-name="사각형 20447" width="7.195" height="0.705" transform="translate(21.617 4.286)" fill="#080d4b"/>
      <rect id="사각형_20448" data-name="사각형 20448" width="7.195" height="0.705" transform="translate(21.617 4.286)" fill="none" stroke="#000" stroke-linecap="round" stroke-linejoin="round" stroke-width="2"/>
      <rect id="사각형_20449" data-name="사각형 20449" width="38.906" height="56.834" transform="translate(5.273 8.489)" fill="#fff"/>
      <rect id="사각형_20467" data-name="사각형 20467" width="38" height="18.17" transform="translate(5.897 46.146)" fill="#ddd"/>
      <rect id="사각형_20450" data-name="사각형 20450" width="38.906" height="56.834" transform="translate(5.273 8.489)" fill="none" stroke="#000" stroke-linecap="round" stroke-linejoin="round" stroke-width="2"/>
      <path id="패스_38051" data-name="패스 38051" d="M63.272,177.737a2.32,2.32,0,1,1-2.32-2.32,2.32,2.32,0,0,1,2.32,2.32" transform="translate(-35.736 -106.92)" fill="#fff"/>
      <ellipse id="타원_699" data-name="타원 699" cx="2.32" cy="2.32" rx="2.32" ry="2.32" transform="translate(22.894 68.497)" fill="none" stroke="#000" stroke-linecap="round" stroke-linejoin="round" stroke-width="2"/>
      <path id="패스_38052" data-name="패스 38052" d="M56.493,58.934A12.175,12.175,0,1,1,44.318,46.759,12.175,12.175,0,0,1,56.493,58.934" transform="translate(-19.592 -28.5)" fill="#fff"/>
      <path id="패스_38053" data-name="패스 38053" d="M61.744,72.724A3.341,3.341,0,1,1,58.4,69.383a3.34,3.34,0,0,1,3.341,3.341" transform="translate(-33.561 -42.29)" fill="#fff"/>
      <line id="선_771" data-name="선 771" x2="38.906" transform="translate(5.273 53.767)" fill="#fff"/>
      <ellipse id="타원_698" data-name="타원 698" cx="11.505" cy="11.505" rx="11.505" ry="11.505" transform="translate(13.221 16.777)" fill="#fff" stroke="#000" stroke-linecap="round" stroke-linejoin="round" stroke-width="2"/>
      <path id="패스_38045" data-name="패스 38045" d="M60.714,72.209a2.826,2.826,0,1,1-2.826-2.826A2.825,2.825,0,0,1,60.714,72.209Z" transform="translate(-33.162 -43.324)" fill="#fff" stroke="#000" stroke-linecap="round" stroke-linejoin="round" stroke-width="2"/>
      <path id="패스_38046" data-name="패스 38046" d="M48.5,67.515a3.633,3.633,0,0,1,3.633-3.633" transform="translate(-29.239 -41.458)" fill="none" stroke="#000" stroke-linecap="round" stroke-linejoin="round" stroke-width="2"/>
      <path id="패스_38048" data-name="패스 38048" d="M71.852,81.108a3.633,3.633,0,0,1-3.633,3.633" transform="translate(-41.272 -50.381)" fill="none" stroke="#000" stroke-linecap="round" stroke-linejoin="round" stroke-width="2"/>
      <path id="패스_38049" data-name="패스 38049" d="M0,0H38.146" transform="translate(6.142 46.146)" fill="none" stroke="#000" stroke-linecap="round" stroke-width="2"/>
    </g>
    <text id="주문" transform="translate(24.796 60.607)" font-size="14" font-weight="700" font-family="GmarketSansBold, Gmarket Sans" letter-spacing="-0.025em"><tspan x="-13.293" y="0">주문</tspan></text>
  </g>
</svg>
