<svg xmlns="http://www.w3.org/2000/svg" xmlns:xlink="http://www.w3.org/1999/xlink" width="39.982" height="54.926" viewBox="0 0 39.982 54.926">
  <defs>
    <clipPath id="clip-path">
      <rect id="사각형_20451" data-name="사각형 20451" width="33.237" height="50.795" rx="4" fill="none"/>
    </clipPath>
  </defs>
  <g id="img" transform="translate(7.92 1.129) rotate(8)">
    <g id="그룹_112031" data-name="그룹 112031" transform="translate(-1 -1)" clip-path="url(#clip-path)">
      <rect id="사각형_20446" data-name="사각형 20446" width="31.193" height="48.752" rx="9.133" transform="translate(1.022 1.022)" fill="#7582f0" stroke="#000" stroke-linecap="round" stroke-linejoin="round" stroke-width="2"/>
      <rect id="사각형_20448" data-name="사각형 20448" width="4.636" height="0.454" transform="translate(14.284 4.456)" fill="none" stroke="#000" stroke-linecap="round" stroke-linejoin="round" stroke-width="2"/>
      <rect id="사각형_20449" data-name="사각형 20449" width="20.742" height="30.3" transform="translate(6.202 9.27)" fill="#fff"/>
      <rect id="사각형_20467" data-name="사각형 20467" width="20.481" height="9.706" transform="translate(6.304 30.383)" fill="#ddd"/>
      <rect id="사각형_20450" data-name="사각형 20450" width="21.064" height="30.615" transform="translate(6.041 9.113)" fill="none" stroke="#000" stroke-linecap="round" stroke-linejoin="round" stroke-width="2"/>
      <ellipse id="타원_699" data-name="타원 699" cx="1.495" cy="1.495" rx="1.495" ry="1.495" transform="translate(14.915 43.498)" fill="none" stroke="#000" stroke-linecap="round" stroke-linejoin="round" stroke-width="2"/>
      <path id="패스_38052" data-name="패스 38052" d="M47.83,54.6a7.843,7.843,0,1,1-7.843-7.843A7.843,7.843,0,0,1,47.83,54.6" transform="translate(-23.413 -34.352)" fill="#fff"/>
      <path id="패스_38053" data-name="패스 38053" d="M59.366,71.535a2.152,2.152,0,1,1-2.152-2.152,2.152,2.152,0,0,1,2.152,2.152" transform="translate(-40.566 -51.285)" fill="#fff"/>
      <line id="선_771" data-name="선 771" x2="25.064" transform="translate(4.042 35.283)" fill="#fff"/>
      <ellipse id="타원_698" data-name="타원 698" cx="7.412" cy="7.412" rx="7.412" ry="7.412" transform="translate(9.44 13.433)" fill="#fff" stroke="#000" stroke-linecap="round" stroke-linejoin="round" stroke-width="2"/>
      <path id="패스_38045" data-name="패스 38045" d="M58.7,71.2a1.82,1.82,0,1,1-1.82-1.82A1.82,1.82,0,0,1,58.7,71.2Z" transform="translate(-40.031 -49.97)" fill="#fff" stroke="#000" stroke-linecap="round" stroke-linejoin="round" stroke-width="2"/>
      <path id="패스_38046" data-name="패스 38046" d="M48.5,66.222a2.34,2.34,0,0,1,2.34-2.34" transform="translate(-35.169 -46.811)" fill="none" stroke="#000" stroke-linecap="round" stroke-linejoin="round" stroke-width="2"/>
      <path id="패스_38048" data-name="패스 38048" d="M70.559,81.108a2.34,2.34,0,0,1-2.34,2.34" transform="translate(-49.936 -58.688)" fill="none" stroke="#000" stroke-linecap="round" stroke-linejoin="round" stroke-width="2"/>
      <path id="패스_38049" data-name="패스 38049" d="M0,0H20.064" transform="translate(6.19 31.527)" fill="none" stroke="#000" stroke-linecap="round" stroke-width="2"/>
    </g>
  </g>
</svg>
