<svg xmlns="http://www.w3.org/2000/svg" xmlns:xlink="http://www.w3.org/1999/xlink" width="76.944" height="77.091" viewBox="0 0 76.944 77.091">
<style type="text/css">
    .star1 {position:relative; animation:flicker infinite 2s 1s;}
    .star2 {position:relative; animation:flicker infinite 2s; 2s}
    @keyframes flicker {
        0% {opacity:1;}
        50% {opacity:0;}
        100% {opacity:1}
    }
</style>
  <defs>
    <filter id="바로_드림" x="19.519" y="32.898" width="36" height="38" filterUnits="userSpaceOnUse">
      <feOffset dx="2" dy="2" input="SourceAlpha"/>
      <feGaussianBlur result="blur"/>
      <feFlood/>
      <feComposite operator="in" in2="blur"/>
      <feComposite in="SourceGraphic"/>
    </filter>
  </defs>
  <g id="img" transform="translate(0.751 1)">
    <path id="패스_37313" data-name="패스 37313" d="M152.867,33.674V48.9H149.6V33.674a8.383,8.383,0,0,0-16.766,0V48.9h-3.264V33.674a11.647,11.647,0,1,1,23.294,0" transform="translate(-90.451 -13.561)" fill="#fff"/>
    <path id="패스_37314" data-name="패스 37314" d="M152.867,33.674V48.9H149.6V33.674a8.383,8.383,0,0,0-16.766,0V48.9h-3.264V33.674a11.647,11.647,0,1,1,23.294,0Z" transform="translate(-90.451 -13.561)" fill="#fff" stroke="#000" stroke-linecap="round" stroke-linejoin="round" stroke-width="2"/>
    <path id="패스_37315" data-name="패스 37315" d="M120.656,13.147V28.375h-3.264V13.147a8.383,8.383,0,0,0-16.766,0V28.375H97.362V13.147a11.647,11.647,0,1,1,23.294,0" transform="translate(-71.524 -1.5)" fill="#fff"/>
    <path id="패스_37316" data-name="패스 37316" d="M120.656,13.147V28.375h-3.264V13.147a8.383,8.383,0,0,0-16.766,0V28.375H97.362V13.147a11.647,11.647,0,1,1,23.294,0Z" transform="translate(-71.524 -1.5)" fill="none" stroke="#000" stroke-linecap="round" stroke-linejoin="round" stroke-width="2"/>
    <rect id="사각형_19809" data-name="사각형 19809" width="45.464" height="53.385" transform="translate(14.754 21.705)" fill="#fc3f4b"/>
    <rect id="사각형_19810" data-name="사각형 19810" width="45.464" height="53.385" transform="translate(14.754 21.705)" fill="none" stroke="#000" stroke-linecap="round" stroke-linejoin="round" stroke-width="2"/>
    <rect id="사각형_19807" data-name="사각형 19807" width="14.976" height="53.385" transform="translate(60.217 21.705)" fill="#ddd"/>
    <rect id="사각형_19808" data-name="사각형 19808" width="14.976" height="53.385" transform="translate(60.217 21.705)" fill="none" stroke="#000" stroke-linecap="round" stroke-linejoin="round" stroke-width="2"/>
    <path id="패스_37319" data-name="패스 37319" d="M180.74,209.844l7.488-8.647,7.488,8.647Z" transform="translate(-120.523 -134.753)" fill="#ccc"/>
    <path id="패스_37320" data-name="패스 37320" d="M180.74,209.844l7.488-8.647,7.488,8.647Z" transform="translate(-120.523 -134.753)" fill="none" stroke="#000" stroke-linecap="round" stroke-linejoin="round" stroke-width="2"/>
    <path id="패스_37312" data-name="패스 37312" d="M188.228,112.87V66.686H180.74V120.07Z" transform="translate(-120.523 -44.98)" fill="#fff"/>
    <path id="패스_37311" data-name="패스 37311" d="M188.641,112.87V66.686h-7.9v53.385Z" transform="translate(-120.523 -44.98)" fill="none" stroke="#000" stroke-linecap="round" stroke-linejoin="round" stroke-width="2"/>
    <path id="패스_37318" class="star1" data-name="패스 37318" d="M41.561,80.377l.189.886a3.206,3.206,0,0,0,2.465,2.466l.886.189a.9.9,0,0,1,0,1.769l-.886.189a3.206,3.206,0,0,0-2.465,2.466l-.189.886a.9.9,0,0,1-1.769,0l-.189-.886a3.206,3.206,0,0,0-2.465-2.466l-.886-.189a.9.9,0,0,1,0-1.769l.886-.189A3.206,3.206,0,0,0,39.6,81.263l.189-.886A.9.9,0,0,1,41.561,80.377Z" transform="translate(-35.537 -66.924)" fill="#ffc61f" stroke="#000" stroke-linecap="round" stroke-linejoin="round" stroke-width="1.5"/>
    <path id="패스_37317" class="star2" data-name="패스 37317" d="M206.377,40.18l.159.747a2.7,2.7,0,0,0,2.08,2.08l.747.159a.763.763,0,0,1,0,1.492l-.747.159a2.7,2.7,0,0,0-2.08,2.08l-.159.748a.763.763,0,0,1-1.492,0l-.16-.748a2.7,2.7,0,0,0-2.079-2.08l-.748-.159a.763.763,0,0,1,0-1.492l.748-.159a2.7,2.7,0,0,0,2.079-2.08l.16-.747A.763.763,0,0,1,206.377,40.18Z" transform="translate(-189.521 -39.576)" fill="#ffc61f" stroke="#000" stroke-linecap="round" stroke-linejoin="round" stroke-width="1.5"/>
    <g transform="matrix(1, 0, 0, 1, -0.75, -1)" filter="url(#바로_드림)">
    <text id="바로_드림-2" data-name="바로드림" transform="translate(36.52 46.9)" fill="#fff" stroke="#000" stroke-width="1" font-size="16" font-family="GmarketSansBold, Gmarket Sans" font-weight="700"  letter-spacing="-0.025em"><tspan x="-15.192" y="0">바로</tspan><tspan x="-15.192" y="15">드림</tspan></text>
    </g>
  </g>
</svg>



