<?xml version="1.0" encoding="utf-8"?>
<!-- Generator: Adobe Illustrator 26.2.1, SVG Export Plug-In . SVG Version: 6.00 Build 0)  -->
<svg version="1.1" xmlns="http://www.w3.org/2000/svg" xmlns:xlink="http://www.w3.org/1999/xlink" x="0px" y="0px" viewBox="0 0 77 80" style="enable-background:new 0 0 77 80;" xml:space="preserve">
<style type="text/css">
.st0{fill:#FFFFFF;}
.st1{fill:#FFFFFF;stroke:#000000;stroke-width:2;stroke-linecap:round;stroke-linejoin:round;}
.st2{fill:none;stroke:#000000;stroke-width:2;stroke-linecap:round;stroke-linejoin:round;}
.st3{fill:#FC3F4B;}
.st4{fill:#DDDDDD;}
.st5{fill:#CCCCCC;}
.st6{fill:#FFFFFF;stroke:#000000;stroke-width:0.5;stroke-miterlimit:10;}
.st7{fill:#FFC61F;stroke:#000000;stroke-width:1.5;stroke-linecap:round;stroke-linejoin:round;}
	
.star1 {position:relative; animation:flicker infinite 2s 1s;}
.star2 {position:relative; animation:flicker infinite 2s; 2s}
@keyframes flicker {
0% {opacity:1;}
50% {opacity:0;}
100% {opacity:1}
}	
</style>
<g id="Layer_1">
	<path id="패스_37313" class="st0" d="M63.2,22.1v15.2h-3.3V22.1c0-4.6-3.8-8.4-8.4-8.4c-4.6,0-8.4,3.8-8.4,8.4l0,0v15.2h-3.3
		V22.1c0-6.4,5.2-11.6,11.6-11.6S63.2,15.7,63.2,22.1"/>
	<path id="패스_37314" class="st1" d="M63.2,22.1v15.2h-3.3V22.1c0-4.6-3.8-8.4-8.4-8.4c-4.6,0-8.4,3.8-8.4,8.4l0,0v15.2h-3.3
		V22.1c0-6.4,5.2-11.6,11.6-11.6S63.2,15.7,63.2,22.1L63.2,22.1z"/>
	<path id="패스_37315" class="st0" d="M49.9,13.6v15.2h-3.3V13.6c0-4.6-3.8-8.4-8.4-8.4c-4.6,0-8.4,3.8-8.4,8.4v15.2h-3.3V13.6
		C26.6,7.2,31.8,2,38.2,2C44.7,2,49.9,7.2,49.9,13.6C49.9,13.6,49.9,13.6,49.9,13.6"/>
	<path id="패스_37316" class="st2" d="M49.9,13.6v15.2h-3.3V13.6c0-4.6-3.8-8.4-8.4-8.4c-4.6,0-8.4,3.8-8.4,8.4v15.2h-3.3V13.6
		C26.6,7.2,31.8,2,38.2,2C44.7,2,49.9,7.2,49.9,13.6C49.9,13.6,49.9,13.6,49.9,13.6z"/>
	<rect id="사각형_19809" x="15.5" y="23.7" class="st3" width="45.5" height="53.4"/>
	<rect id="사각형_19810" x="15.5" y="23.7" class="st2" width="45.5" height="53.4"/>
	<rect id="사각형_19807" x="61" y="23.7" class="st4" width="15" height="53.4"/>
	<rect id="사각형_19808" x="61" y="23.7" class="st2" width="15" height="53.4"/>
	<path id="패스_37319" class="st5" d="M61,77.1l7.5-8.6l7.5,8.6H61z"/>
	<path id="패스_37320" class="st2" d="M61,77.1l7.5-8.6l7.5,8.6H61z"/>
	<path id="패스_37312" class="st0" d="M68.5,69.9V23.7H61v53.4L68.5,69.9z"/>
	<path id="패스_37311" class="st2" d="M68.9,69.9V23.7H61v53.4L68.9,69.9z"/>
</g>
<g id="Layer_2">
	<path d="M28.9,37.1h2.7v12.7h-8V37.1h2.7v4h2.6V37.1z M28.9,47.3v-3.7h-2.6v3.7H28.9z M37.5,44.4h-1.6v6.1h-2.7V36.7h2.7v5h1.6
		V44.4z"/>
	<path d="M51.9,47.5v2.5H38.1v-2.5h5.5v-1.5h-4.8v-5.6h9.6v-0.9h-9.7v-2.4h12.3v5.6h-9.6v0.9h9.8v2.4h-4.9v1.5H51.9z"/>
	<path d="M36.9,64.9H23.1v-2.5h13.8V64.9z M36.2,54.6h-9.6V58h9.7v2.5H23.9v-8.5h12.3V54.6z"/>
	<path d="M46.9,56.6h-5.6v0.8h3.5c1.2,0,2.4-0.2,3.2-0.5v2c-0.7,0.3-1.9,0.5-3.2,0.5h-6.2v-4.7h5.6v-0.8h-5.7v-2h8.3V56.6z
		 M51.3,65.4H39.1v-5.2h12.2V65.4z M48.6,63.3v-1h-6.9v1H48.6z M51.3,59.7h-2.7v-8h2.7V59.7z"/>
	<path class="st6" d="M27.9,36.2h2.7v12.7h-8V36.2h2.7v4h2.6V36.2z M27.9,46.4v-3.7h-2.6v3.7H27.9z M36.6,43.5H35v6.1h-2.7V35.9H35
		v5h1.6V43.5z"/>
	<path class="st6" d="M50.9,46.6v2.5H37.1v-2.5h5.5v-1.5h-4.8v-5.6h9.6v-0.9h-9.7v-2.4h12.3v5.6h-9.6v0.9h9.8v2.4h-4.9v1.5H50.9z"/>
	<path class="st6" d="M35.9,64.1H22.1v-2.5h13.8V64.1z M35.2,53.7h-9.6v3.4h9.7v2.5H22.9v-8.5h12.3V53.7z"/>
	<path class="st6" d="M45.9,55.8h-5.6v0.8h3.5c1.2,0,2.4-0.2,3.2-0.5v2c-0.7,0.3-1.9,0.5-3.2,0.5h-6.2v-4.7h5.6v-0.8h-5.7v-2h8.3
		V55.8z M50.3,64.6H38.1v-5.2h12.2V64.6z M47.6,62.5v-1h-6.9v1H47.6z M50.3,58.9h-2.7v-8h2.7V58.9z"/>
</g>
<g id="Layer_3">
	<path id="패스_37318" class="st7 star2" d="M6.8,15.5L7,16.3c0.3,1.2,1.2,2.2,2.5,2.5l0.9,0.2c0.5,0.1,0.8,0.6,0.7,1.1
		c-0.1,0.4-0.4,0.6-0.7,0.7L9.4,21c-1.2,0.3-2.2,1.2-2.5,2.5l-0.2,0.9c-0.1,0.5-0.6,0.8-1.1,0.7C5.4,25,5.1,24.7,5,24.3l-0.2-0.9
		c-0.3-1.2-1.2-2.2-2.5-2.5l-0.9-0.2c-0.5-0.1-0.8-0.6-0.7-1.1c0.1-0.4,0.4-0.6,0.7-0.7l0.9-0.2c1.2-0.3,2.2-1.2,2.5-2.5L5,15.5
		c0.1-0.5,0.6-0.8,1-0.7C6.4,14.8,6.7,15.1,6.8,15.5z"/>
	<path id="패스_37317" class="st7 star1" d="M17.6,2.6l0.2,0.7c0.2,1,1,1.9,2.1,2.1l0.7,0.2c0.4,0.1,0.7,0.5,0.6,0.9
		c-0.1,0.3-0.3,0.5-0.6,0.6l-0.7,0.2c-1,0.2-1.9,1-2.1,2.1l-0.2,0.7c-0.1,0.4-0.5,0.7-0.9,0.6c-0.3-0.1-0.5-0.3-0.6-0.6L16,9.3
		c-0.2-1-1-1.9-2.1-2.1l-0.7-0.2c-0.4-0.1-0.7-0.5-0.6-0.9c0.1-0.3,0.3-0.5,0.6-0.6l0.7-0.2c1-0.2,1.9-1,2.1-2.1l0.2-0.7
		C16.2,2.2,16.6,1.9,17,2C17.3,2.1,17.5,2.3,17.6,2.6z"/>
</g>
</svg>
