<svg id="그룹_112035" data-name="그룹 112035" xmlns="http://www.w3.org/2000/svg" xmlns:xlink="http://www.w3.org/1999/xlink" width="81.644" height="122.358" viewBox="0 0 81.644 122.358">
  <defs>
    <clipPath id="clip-path">
      <rect id="사각형_20463" data-name="사각형 20463" width="81.644" height="122.358" fill="none"/>
    </clipPath>
  </defs>
  <g id="그룹_112034" data-name="그룹 112034" clip-path="url(#clip-path)">
    <path id="패스_38117" data-name="패스 38117" d="M69.776,1.5V28.93a4.63,4.63,0,1,1-9.26,0V1.5" fill="#4f4f4f"/>
    <path id="패스_38118" data-name="패스 38118" d="M69.776,1.5V28.93a4.63,4.63,0,1,1-9.26,0V1.5" fill="none" stroke="#000" stroke-linecap="round" stroke-linejoin="round" stroke-width="2.5"/>
    <path id="패스_38119" data-name="패스 38119" d="M11.853,39.343l1-.624c4.45-1.731,15.919,4.971,26.922,15.975S57.477,77.166,55.745,81.615l-.624,1c-3.462,3.462-15.955-3.408-27.908-15.36S8.39,42.806,11.853,39.343" fill="#4f4f4f"/>
    <path id="패스_38120" data-name="패스 38120" d="M11.853,39.343l1-.624c4.45-1.731,15.919,4.971,26.922,15.975S57.477,77.166,55.745,81.615l-.624,1c-3.462,3.462-15.955-3.408-27.908-15.36S8.39,42.806,11.853,39.343Z" fill="none" stroke="#000" stroke-linecap="round" stroke-linejoin="round" stroke-width="2.5"/>
    <path id="패스_38121" data-name="패스 38121" d="M55.121,82.612l.624-1a2.525,2.525,0,0,1-.624,1" fill="#4f4f4f"/>
    <path id="패스_38123" data-name="패스 38123" d="M11.853,39.343a2.525,2.525,0,0,1,1-.624Z" fill="#4f4f4f"/>
    <path id="패스_38125" data-name="패스 38125" d="M26.8,46.1c3.692-3.692,11.512-1.858,17.467,4.1s7.788,13.775,4.1,17.466-11.512,1.858-17.466-4.1S23.11,49.794,26.8,46.1" fill="#ffd152"/>
    <path id="패스_38126" data-name="패스 38126" d="M26.8,46.1c3.692-3.692,11.512-1.858,17.467,4.1s7.788,13.775,4.1,17.466-11.512,1.858-17.466-4.1S23.11,49.794,26.8,46.1Z" fill="none" stroke="#000" stroke-linecap="round" stroke-linejoin="round" stroke-width="2.5"/>
    <path id="패스_38127" data-name="패스 38127" d="M12.849,38.72l38-23.794c2.3-2.3,10.584,2.262,18.506,10.184S81.848,41.326,79.548,43.626l-23.8,37.99c1.732-4.45-4.962-15.909-15.974-26.922S17.3,36.989,12.849,38.72" fill="#4f4f4f"/>
    <path id="패스_38128" data-name="패스 38128" d="M12.849,38.72l38-23.794c2.3-2.3,10.584,2.262,18.506,10.184S81.848,41.326,79.548,43.626l-23.8,37.99c1.732-4.45-4.962-15.909-15.974-26.922S17.3,36.989,12.849,38.72Z" fill="none" stroke="#000" stroke-linecap="round" stroke-linejoin="round" stroke-width="2.5"/>
    <path id="패스_38131" data-name="패스 38131" d="M70.544,102.568l.832,3.929a4.288,4.288,0,0,0,3.305,3.305l3.928.831a.785.785,0,0,1,0,1.537L74.681,113a4.286,4.286,0,0,0-3.305,3.305l-.832,3.929a.786.786,0,0,1-1.537,0l-.831-3.929A4.287,4.287,0,0,0,64.87,113l-3.928-.832a.786.786,0,0,1,0-1.537l3.928-.831a4.289,4.289,0,0,0,3.306-3.305l.831-3.929a.786.786,0,0,1,1.537,0" fill="#fff"/>
    <path id="패스_38132" data-name="패스 38132" d="M70.544,102.568l.832,3.929a4.288,4.288,0,0,0,3.305,3.305l3.928.831a.785.785,0,0,1,0,1.537L74.681,113a4.286,4.286,0,0,0-3.305,3.305l-.832,3.929a.786.786,0,0,1-1.537,0l-.831-3.929A4.287,4.287,0,0,0,64.87,113l-3.928-.832a.786.786,0,0,1,0-1.537l3.928-.831a4.289,4.289,0,0,0,3.306-3.305l.831-3.929A.786.786,0,0,1,70.544,102.568Z" transform="translate(-2.303 -9.457)" fill="#ffee24" stroke="#000" stroke-linecap="round" stroke-linejoin="round" stroke-width="2.5"/>
  </g>
</svg>
