<svg xmlns="http://www.w3.org/2000/svg" width="35.139" height="43.173" viewBox="0 0 35.139 43.173">
  <g id="img" transform="translate(-13.754 1)">
    <path id="패스_37313" data-name="패스 37313" d="M142.345,28.413v8.35h-1.79v-8.35a4.6,4.6,0,0,0-9.193,0v8.35h-1.79v-8.35a6.386,6.386,0,1,1,12.772,0" transform="translate(-101.458 -17.385)" fill="#fff"/>
    <path id="패스_37314" data-name="패스 37314" d="M142.345,28.413v8.35h-1.79v-8.35a4.6,4.6,0,0,0-9.193,0v8.35h-1.79v-8.35a6.386,6.386,0,1,1,12.772,0Z" transform="translate(-101.458 -17.385)" fill="#fff" stroke="#000" stroke-linecap="round" stroke-linejoin="round" stroke-width="2"/>
    <path id="패스_37315" data-name="패스 37315" d="M110.134,7.886v8.35h-1.79V7.886a4.6,4.6,0,0,0-9.193,0v8.35h-1.79V7.886a6.386,6.386,0,1,1,12.772,0" transform="translate(-76.53 -1.5)" fill="#fff"/>
    <path id="패스_37316" data-name="패스 37316" d="M110.134,7.886v8.35h-1.79V7.886a4.6,4.6,0,0,0-9.193,0v8.35h-1.79V7.886a6.386,6.386,0,1,1,12.772,0Z" transform="translate(-76.53 -1.5)" fill="none" stroke="#000" stroke-linecap="round" stroke-linejoin="round" stroke-width="2"/>
    <rect id="사각형_19809" data-name="사각형 19809" width="24.928" height="29.272" transform="translate(14.754 11.901)" fill="#7582f0"/>
    <rect id="사각형_19810" data-name="사각형 19810" width="24.928" height="29.272" transform="translate(14.754 11.901)" fill="none" stroke="#000" stroke-linecap="round" stroke-linejoin="round" stroke-width="2"/>
    <rect id="사각형_19807" data-name="사각형 19807" width="8.212" height="29.272" transform="translate(39.682 11.901)" fill="#ddd"/>
    <rect id="사각형_19808" data-name="사각형 19808" width="8.212" height="29.272" transform="translate(39.682 11.901)" fill="none" stroke="#000" stroke-linecap="round" stroke-linejoin="round" stroke-width="2"/>
    <path id="패스_37319" data-name="패스 37319" d="M180.74,205.938l4.106-4.741,4.106,4.741Z" transform="translate(-141.059 -164.765)" fill="#ccc"/>
    <path id="패스_37320" data-name="패스 37320" d="M180.74,205.938l4.106-4.741,4.106,4.741Z" transform="translate(-141.059 -164.765)" fill="none" stroke="#000" stroke-linecap="round" stroke-linejoin="round" stroke-width="2"/>
    <path id="패스_37312" data-name="패스 37312" d="M184.846,92.009V66.686H180.74V95.957Z" transform="translate(-141.059 -54.784)" fill="#fff"/>
    <path id="패스_37311" data-name="패스 37311" d="M185.072,92.009V66.686H180.74V95.957Z" transform="translate(-141.059 -54.784)" fill="none" stroke="#000" stroke-linecap="round" stroke-linejoin="round" stroke-width="2"/>
  </g>
</svg>
