<svg xmlns="http://www.w3.org/2000/svg" xmlns:xlink="http://www.w3.org/1999/xlink" width="79.678" height="79.706" viewBox="0 0 79.678 79.706">
  <defs>
    <clipPath id="clip-path">
      <rect id="사각형_3443" data-name="사각형 3443" width="75.578" height="76.852" fill="none"/>
    </clipPath>
  </defs>
  <g id="img" transform="translate(1.166 -0.448)">
    <rect id="area" width="79.678" height="79.678" transform="translate(-1.166 0.477)" opacity="0"/>
    <line id="선_777" data-name="선 777" y1="12.521" x2="18.212" transform="translate(17.615 12.623)" fill="none" stroke="#161615" stroke-linecap="round" stroke-miterlimit="10" stroke-width="3"/>
    <line id="선_778" data-name="선 778" x1="19.35" y1="12.521" transform="translate(42.657 12.623)" fill="none" stroke="#161615" stroke-linecap="round" stroke-miterlimit="10" stroke-width="3"/>
    <rect id="사각형_3441" data-name="사각형 3441" width="71.866" height="52.109" transform="translate(3.343 24.474)" fill="#7582f0"/>
    <g id="그룹_1819" data-name="그룹 1819" transform="translate(1.487 0.448)">
      <g id="그룹_1818" data-name="그룹 1818" clip-path="url(#clip-path)">
        <path id="패스_38125" data-name="패스 38125" d="M0,0H71.866V49.917H0Z" transform="translate(1.856 25.079)" fill="none" stroke="#161615" stroke-linecap="round" stroke-linejoin="round" stroke-width="2"/>
        <path id="패스_36303" data-name="패스 36303" d="M22.054,5.37A4.62,4.62,0,1,1,17.434.75a4.62,4.62,0,0,1,4.62,4.62" transform="translate(20.354 5.778)" fill="#7582f0"/>
        <path id="패스_36304" data-name="패스 36304" d="M22.054,5.37A4.62,4.62,0,1,1,17.434.75,4.62,4.62,0,0,1,22.054,5.37Z" transform="translate(20.354 5.778)" fill="none" stroke="#161615" stroke-miterlimit="10" stroke-width="2"/>
        <rect id="사각형_20502" data-name="사각형 20502" width="62.76" height="40.726" transform="translate(6.409 29.717)" fill="#fff" stroke="#161615" stroke-linecap="round" stroke-linejoin="round" stroke-miterlimit="10" stroke-width="2"/>
      </g>
    </g>
    <text id="바로_드림존" data-name="바로
드림존" transform="translate(37.951 46.106)" font-size="14" font-weight="700" font-family="GmarketSansBold, Gmarket Sans" letter-spacing="-0.025em"><tspan x="-13.293" y="0">바로</tspan><tspan x="-19.852" y="15">드림존</tspan></text>
  </g>
</svg>
