<svg xmlns="http://www.w3.org/2000/svg" xmlns:xlink="http://www.w3.org/1999/xlink" width="160.58" height="400" viewBox="0 0 160.58 333.72">
<style type="text/css">
.right_spring {stroke-width:3;stroke:#000; }
.left_spring {stroke-width:3;stroke:#000; }
.stroke{fill:none;stroke:#000;stroke-width:3.5;stroke-linecap:round;stroke-linejoin:round;stroke-miterlimit:10;animation:brush both infinite linear 2.8s;stroke-dasharray:350;stroke-dashoffset:350;}
.stroke.left{animation-delay: 0.2s}
.stroke.right{animation-delay: 0.4s}
@keyframes brush {
0% {stroke-dashoffset:350;}
34% {stroke-dashoffset:0;}
100% {stroke-dashoffset:0;}
}
.box, .text {transform-origin: 50% 50%; transform: translateY(0); animation:box linear both infinite 1.5s;}
@keyframes box {
  0% {transform: translateY(0)}
  50% {transform: translateY(20px)}
  100% {transform: translateY(0)}
}
</style> 
  <defs>
    <clipPath id="clip-path">
      <rect id="사각형_20417" data-name="사각형 20417" width="137.662" height="333.72" fill="none"/>
    </clipPath>
    <clipPath id="clip-path-2">
      <rect id="사각형_20421" data-name="사각형 20421" width="39.111" height="25.147" fill="none"/>
    </clipPath>
    <clipPath id="clip-path-3">
      <rect id="사각형_20419" data-name="사각형 20419" width="34.361" height="26.381" fill="none"/>
    </clipPath>
    <clipPath id="clip-path-4">
      <rect id="사각형_20420" data-name="사각형 20420" width="24.423" height="37.998" fill="none"/>
    </clipPath>
    <filter id="바로_드림" x="35.924" y="214.92" width="86" height="97" filterUnits="userSpaceOnUse">
      <feOffset dx="2" dy="2" input="SourceAlpha"/>
      <feGaussianBlur result="blur"/>
      <feFlood/>
      <feComposite operator="in" in2="blur"/>
      <feComposite in="SourceGraphic"/>
    </filter>
  </defs>
  <g id="그룹_112427" data-name="그룹 112427" transform="translate(-22)">
    <g id="그룹_112426" data-name="그룹 112426" transform="translate(15.268)">
      <g id="그룹_112001" data-name="그룹 112001" transform="translate(14.094)">
      <g class="box">
        <rect id="사각형_20413" data-name="사각형 20413" width="125.622" height="155.484" transform="translate(10.54 176.736)" fill="#fec211"/>
        <g id="그룹_112000" data-name="그룹 112000">
          <g id="그룹_111999" data-name="그룹 111999">
            <rect id="사각형_20414" data-name="사각형 20414" width="125.622" height="155.484" transform="translate(10.54 176.736)" fill="none" stroke="#000" stroke-linecap="round" stroke-linejoin="round" stroke-width="3"/>
            <path id="패스_38021" data-name="패스 38021" d="M109.021,139.8v36.933H98.99V139.8c0-11.206-11.565-20.332-25.767-20.332S47.457,128.593,47.457,139.8v36.933H37.426V139.8c0-15.6,16.021-28.248,35.8-28.248a41,41,0,0,1,25.322,8.278c6.478,5.111,10.476,12.167,10.476,19.97" fill="#fff"/>
            <path id="패스_38022" data-name="패스 38022" d="M109.021,139.8v36.933H98.99V139.8c0-11.206-11.565-20.332-25.767-20.332S47.457,128.593,47.457,139.8v36.933H37.426V139.8c0-15.6,16.021-28.248,35.8-28.248a41,41,0,0,1,25.322,8.278C105.023,124.94,109.021,132,109.021,139.8Z" fill="none" stroke="#000" stroke-linecap="round" stroke-linejoin="round" stroke-width="3"/>
            <path id="패스_38023" data-name="패스 38023" d="M40.776,52.391a65.986,65.986,0,0,1,17.93,28.842c-8.261,2.007-13.667,6.776-13.126,19.255.815,18.833,13.566,19.044,29.255,18.365s28.372-1.993,27.557-20.825c-.585-13.507-7.325-17.419-16.868-18.31a92.235,92.235,0,0,0-6.782-22.175C66.467,29.011,38.734,9.244,9.368,1.5L1.5,33.221c14.593,3.082,28.493,9.047,39.276,19.17" fill="#ffc1ab"/>
            <path id="패스_38024" data-name="패스 38024" d="M40.776,52.391a65.986,65.986,0,0,1,17.93,28.842c-8.261,2.007-13.667,6.776-13.126,19.255.815,18.833,13.566,19.044,29.255,18.365s28.372-1.993,27.557-20.825c-.585-13.507-7.325-17.419-16.868-18.31a92.235,92.235,0,0,0-6.782-22.175C66.467,29.011,38.734,9.244,9.368,1.5L1.5,33.221C16.093,36.3,29.993,42.268,40.776,52.391Z" fill="none" stroke="#000" stroke-linecap="round" stroke-linejoin="round" stroke-width="3"/>
            <path id="패스_38025" data-name="패스 38025" d="M57.34,106.327c8.575-.357,10.332,7.639,10.746,17.575s-.674,18.05-9.249,18.407-10.332-7.639-10.746-17.575.674-18.05,9.249-18.407" fill="#ffc1ab"/>
            <path id="패스_38026" data-name="패스 38026" d="M57.34,106.327c8.575-.357,10.332,7.639,10.746,17.575s-.674,18.05-9.249,18.407-10.332-7.639-10.746-17.575S48.765,106.684,57.34,106.327Z" fill="none" stroke="#000" stroke-linecap="round" stroke-linejoin="round" stroke-width="3"/>
            <path id="패스_38027" data-name="패스 38027" d="M87.6,103.319c8.575-.357,10.349,8.03,10.782,18.448s-.637,18.923-9.212,19.28-10.349-8.03-10.782-18.448.637-18.923,9.212-19.28" fill="#ffc1ab"/>
            <path id="패스_38028" data-name="패스 38028" d="M87.6,103.319c8.575-.357,10.349,8.03,10.782,18.448s-.637,18.923-9.212,19.28-10.349-8.03-10.782-18.448S79.026,103.676,87.6,103.319Z" fill="none" stroke="#000" stroke-linecap="round" stroke-linejoin="round" stroke-width="3"/>
            <path id="패스_38029" data-name="패스 38029" d="M73.123,107.335c8.575-.357,10.349,8.03,10.782,18.448s-.637,18.923-9.212,19.28-10.349-8.03-10.782-18.448.637-18.923,9.212-19.28" fill="#ffc1ab"/>
            <path id="패스_38030" data-name="패스 38030" d="M73.123,107.335c8.575-.357,10.349,8.03,10.782,18.448s-.637,18.923-9.212,19.28-10.349-8.03-10.782-18.448S64.548,107.692,73.123,107.335Z" fill="none" stroke="#000" stroke-linecap="round" stroke-linejoin="round" stroke-width="3"/>
            <path id="패스_38031" data-name="패스 38031" d="M94.936,82.378s20.252,6.177,17.018,26.5-30.178,13.455-33.9,8.914S80.792,104.84,95,106.721c0,0-8.746,1.308-14.7-9.6" fill="#ffc1ab"/>
            <path id="패스_38032" data-name="패스 38032" d="M94.936,82.378s20.252,6.177,17.018,26.5-30.178,13.455-33.9,8.914S80.792,104.84,95,106.721c0,0-8.746,1.308-14.7-9.6" fill="none" stroke="#000" stroke-linecap="round" stroke-linejoin="round" stroke-width="3"/>
            <rect id="사각형_20415" data-name="사각형 20415" width="111.098" height="139.804" transform="translate(18.031 184.688)" fill="#7582f0"/>
            <rect id="사각형_20416" data-name="사각형 20416" width="111.098" height="139.804" transform="translate(18.031 184.688)" fill="none" stroke="#000" stroke-linecap="round" stroke-linejoin="round" stroke-width="3"/>
          </g>
        </g>
      </g>
      </g>
      <g id="그룹_112007"  data-name="그룹 112007"  class ="right_spring"  transform="translate(128.201 146.418)">
      <g class="stroke right">
        <g id="그룹_112006"  data-name="그룹 112006">
          <path id="패스_38036" data-name="패스 38036" class ="right_spring"  d="M1.5,17.7A16.18,16.18,0,0,1,10.8,6.9a8.76,8.76,0,0,1,5.974-.575,4.68,4.68,0,0,1,3.381,4.555c-.189,2.034-2.657,3.654-4.433,2.643-1.9-1.085-1.728-3.948-.718-5.894A11.762,11.762,0,0,1,27.913,1.814" transform="translate(4.849 2.974)" fill="none" stroke="#F4F4F4" stroke-linecap="round" stroke-linejoin="round" stroke-width="1"/>
        </g>
      </g>
      </g>
      <g id="그룹_112003" data-name="그룹 112003" transform="translate(6.732 15)">
      <g class="stroke left">
        <g id="그룹_112002" data-name="그룹 112002">
          <path class="st0" d="M33,132.9c0,0-3.3-13-14.4-13.5c0,0-3.1,0.4-4.1,2.9s0.6,6.1,4.8,6.1c4.1,0.1,7-5.8,5.1-10.2
	c-1.9-4.4-5-6.1-8.7-8c-3.7-1.9-10.5-1.8-14.1,0"/>
        </g>
      </g>
      </g>
      <g id="그룹_112005" data-name="그룹 112005" transform="translate(5 10)">
      <g class="stroke">
        <g id="그룹_112004" data-name="그룹 112004">
          <path id="패스_38035" data-name="패스 38035" d="M34.3,111.1c0,0-1.8-14.3-13-21.3" transform="translate(4.192 6.847)" fill="none" stroke="#000" stroke-linecap="round" stroke-linejoin="round" stroke-width="3"/>
        </g>
      </g>
      </g>
    </g>
    <g class="text">
    <g transform="matrix(1, 0, 0, 1, 22, 0)" filter="url(#바로_드림)">
      <text id="바로_드림-2" data-name="바로
드림" transform="translate(77.92 250.92)" fill="#fff" stroke="#000" stroke-width="2" font-size="42" font-weight="700" font-family="GmarketSansBold, Gmarket Sans" letter-spacing="-0.025em"><tspan x="-39.879" y="0">바로</tspan><tspan x="-39.879" y="42">드림</tspan></text>
    </g>
    </g>
  </g>
</svg>
