<?xml version="1.0" encoding="utf-8"?>
<!-- Generator: Adobe Illustrator 26.2.1, SVG Export Plug-In . SVG Version: 6.00 Build 0)  -->
<svg version="1.1" id="Layer_1" xmlns="http://www.w3.org/2000/svg" xmlns:xlink="http://www.w3.org/1999/xlink" x="0px" y="0px" viewBox="0 0 92 55.8" style="enable-background:new 0 0 92 55.8;" xml:space="preserve">
<style type="text/css">
.st0{fill:#D4FF1A;}
.st1{fill:none;stroke:#000000;stroke-width:3;}
.st2{enable-background:new ;}
.st3{fill:#D4FF1A;stroke:#000000;stroke-width:3;stroke-linecap:round;}
	
.box {animation:box both infinite 3s;}
@keyframes box {
0% {transform:translateY(30px)}
20% {transform:translateY(0)}
100% {transform:translateY(0px)}
}
</style>
<g class="box">
	<g id="사각형_20490" transform="translate(117 157.412)">
		<path class="st0" d="M-107-157.4h72c5.5,0,10,4.5,10,10v25c0,5.5-4.5,10-10,10h-72c-5.5,0-10-4.5-10-10v-25
			C-117-152.9-112.5-157.4-107-157.4z"/>
		<path class="st1" d="M-107-155.9h72c4.7,0,8.5,3.8,8.5,8.5v25c0,4.7-3.8,8.5-8.5,8.5h-72c-4.7,0-8.5-3.8-8.5-8.5v-25
			C-115.5-152.1-111.7-155.9-107-155.9z"/>
	</g>
	<g class="st2">
		<path d="M19.4,15.4h3v14.3h-8.9V15.4h3v4.5h3V15.4z M19.4,26.9v-4.2h-3v4.2H19.4z M29.2,23.6h-1.8v6.8h-3V15h3v5.6h1.8V23.6z"/>
		<path d="M45.3,27.1v2.8H29.8v-2.8H36v-1.7h-5.4v-6.3h10.8v-1H30.6v-2.7h13.9v6.2H33.7v1.1h11v2.7h-5.6v1.7H45.3z"/>
		<path d="M46.8,23.8v-2.6c1.8-0.1,3-1.3,3.5-2.7H47v-2.4h3.4v-1.4h3.1v1.4h3.4v2.4h-3.5c-0.1,0.3-0.1,0.5-0.2,0.8l4.1,2.1L56,23.7
			l-4.1-2.1C50.6,22.8,48.9,23.8,46.8,23.8z M56,27.1l5.6,1l-0.6,2.4L54.1,29c-1.7,1-4.2,1.4-6.8,1.4v-2.4c2.3,0,4.3-0.4,5.3-1.2
			h-5.1v-2.3h13.6v2.3h-4.9C56.1,26.9,56.1,27,56,27.1z M62.9,17.8v3h-1.8v3.1h-3V15h3v2.8H62.9z"/>
		<path d="M79.1,24.8H63.5v-2.5h15.6V24.8z M67.5,27.8h10.8v2.5H64.4v-4.8h3.1V27.8z M67.5,18.6h10.8v2.5H64.5v-6.2h3.1V18.6z"/>
	</g>
	<path id="패스_38106" class="st3" d="M72.1,37.6v14.8L56,37.6"/>
</g>
</svg>
