<?xml version="1.0" encoding="utf-8"?>
<!-- Generator: Adobe Illustrator 26.2.1, SVG Export Plug-In . SVG Version: 6.00 Build 0)  -->
<svg version="1.1" id="Layer_1" xmlns="http://www.w3.org/2000/svg" xmlns:xlink="http://www.w3.org/1999/xlink" x="0px" y="0px" viewBox="0 0 52 80" style="enable-background:new 0 0 52 80;" xml:space="preserve">
<style type="text/css">
	.st0{clip-path:url(#SVGID_00000107588144765620921650000008628989149620382350_);}
	.st1{fill:#7582F0;stroke:#000000;stroke-width:2;stroke-linecap:round;stroke-linejoin:round;}
	.st2{fill:#080D4B;}
	.st3{fill:none;stroke:#000000;stroke-width:2;stroke-linecap:round;stroke-linejoin:round;}
	.st4{fill:#FFFFFF;}
	.st5{fill:#DDDDDD;}
	.st6{fill:none;}
	.st7{fill:#FFFFFF;stroke:#000000;stroke-width:2;stroke-linecap:round;stroke-linejoin:round;}
	.st8{fill:none;stroke:#000000;stroke-width:2;stroke-linecap:round;}
	.st9{enable-background:new    ;}
</style>
<g id="img" transform="translate(1 1)">
	<g>
		<defs>
			<path id="SVGID_1_" d="M9-1h31.6c5.5,0,10,4.5,10,10v58.8c0,5.5-4.5,10-10,10H9c-5.5,0-10-4.5-10-10V9C-1,3.5,3.5-1,9-1z"/>
		</defs>
		<clipPath id="SVGID_00000145774221371408727800000004424109154642319803_">
			<use xlink:href="#SVGID_1_"  style="overflow:visible;"/>
		</clipPath>
		<g id="그룹_112031" style="clip-path:url(#SVGID_00000145774221371408727800000004424109154642319803_);">
			<path id="사각형_20446" class="st1" d="M9.7,0.6h30.2c5,0,9.1,4.1,9.1,9.1v57.4c0,5-4.1,9.1-9.1,9.1H9.7c-5,0-9.1-4.1-9.1-9.1
				V9.7C0.6,4.7,4.7,0.6,9.7,0.6z"/>
			<rect id="사각형_20447" x="21.6" y="4.3" class="st2" width="7.2" height="0.7"/>
			<rect id="사각형_20448" x="21.6" y="4.3" class="st3" width="7.2" height="0.7"/>
			<rect id="사각형_20449" x="5.3" y="8.5" class="st4" width="38.9" height="56.8"/>
			<rect id="사각형_20467" x="5.9" y="46.1" class="st5" width="38" height="18.2"/>
			<rect id="사각형_20450" x="5.3" y="8.5" class="st3" width="38.9" height="56.8"/>
			<path id="패스_38051" class="st4" d="M27.5,70.8c0,1.3-1,2.3-2.3,2.3s-2.3-1-2.3-2.3s1-2.3,2.3-2.3S27.5,69.5,27.5,70.8
				L27.5,70.8"/>
			<ellipse id="타원_699" class="st3" cx="25.2" cy="70.8" rx="2.3" ry="2.3"/>
			<path id="패스_38052" class="st4" d="M36.9,30.4c0,6.7-5.5,12.2-12.2,12.2s-12.2-5.5-12.2-12.2c0-6.7,5.5-12.2,12.2-12.2
				c0,0,0,0,0,0C31.5,18.3,36.9,23.7,36.9,30.4"/>
			<path id="패스_38053" class="st4" d="M28.2,30.4c0,1.8-1.5,3.3-3.3,3.3c-1.8,0-3.3-1.5-3.3-3.3c0-1.8,1.5-3.3,3.3-3.3
				C26.7,27.1,28.2,28.6,28.2,30.4C28.2,30.4,28.2,30.4,28.2,30.4"/>
			<line id="선_771" class="st6" x1="5.3" y1="53.8" x2="44.2" y2="53.8"/>
			<ellipse id="타원_698" class="st7" cx="24.7" cy="28.3" rx="11.5" ry="11.5"/>
			<path id="패스_38045" class="st7" d="M27.6,28.9c0,1.6-1.3,2.8-2.8,2.8s-2.8-1.3-2.8-2.8c0-1.6,1.3-2.8,2.8-2.8h0
				C26.3,26.1,27.6,27.3,27.6,28.9C27.6,28.9,27.6,28.9,27.6,28.9z"/>
			<path id="패스_38046" class="st3" d="M19.3,26.1c0-2,1.6-3.6,3.6-3.6"/>
			<path id="패스_38048" class="st3" d="M30.6,30.7c0,2-1.6,3.6-3.6,3.6h0"/>
			<path id="패스_38049" class="st8" d="M6.1,46.1h38.1"/>
		</g>
	</g>
	<g class="st9">
		<path d="M24.3,59.7h-4.8v2.7H17v-2.7h-4.8v-2.2h12.1V59.7z M18.1,54.6c-1.3,1.2-3.3,1.9-5.5,2v-2.2c1.8,0,3.6-0.8,4.3-2.1h-4.1
			v-2.1h10.8v2.1h-4c0,0.2-0.1,0.3-0.2,0.5l4.7,1.8l-0.9,2L18.1,54.6z"/>
		<path d="M37.4,55.9v1.9h-4.9v1.6h-2.4v-1.6h-4.9v-1.9H37.4z M28.4,60.1h8.4v2H26v-3.5h2.4V60.1z M36.7,55.2H26v-5.1h10.6V55.2z
			 M34.3,52h-5.9v1.3h5.9V52z"/>
	</g>
</g>
</svg>
