<svg xmlns="http://www.w3.org/2000/svg" width="1459.926" height="687.522" viewBox="0 0 1459.926 687.522">
  <g id="_deal" data-name="++deal" transform="translate(106.664 -44)">
    <g id="title" transform="translate(376)">
      <rect id="area" width="448" height="186" transform="translate(0 44)" fill="#fff" opacity="0"/>
      <path id="패스_38153" data-name="패스 38153" d="M95.706,104.1l2.88,13.6a14.839,14.839,0,0,0,11.438,11.438l13.595,2.876a2.718,2.718,0,0,1,0,5.319l-13.595,2.88A14.835,14.835,0,0,0,98.586,151.65l-2.88,13.6a2.719,2.719,0,0,1-5.319,0l-2.876-13.6a14.839,14.839,0,0,0-11.442-11.439l-13.595-2.88a2.719,2.719,0,0,1,0-5.319l13.595-2.876A14.843,14.843,0,0,0,87.511,117.7l2.876-13.6A2.719,2.719,0,0,1,95.706,104.1Z" transform="translate(814.728 89.27)" fill="#ffee24"/>
      <path id="패스_38154" data-name="패스 38154" d="M94.16,104.006l2.754,13a14.191,14.191,0,0,0,10.939,10.939l13,2.75a2.6,2.6,0,0,1,0,5.087l-13,2.754a14.186,14.186,0,0,0-10.939,10.939l-2.754,13a2.6,2.6,0,0,1-5.087,0l-2.75-13A14.19,14.19,0,0,0,75.38,138.54l-13-2.754a2.6,2.6,0,0,1,0-5.087l13-2.75A14.2,14.2,0,0,0,86.322,117.01l2.75-13A2.6,2.6,0,0,1,94.16,104.006Z" transform="translate(-542.984 566.979)" fill="#ffee24"/>
      <path id="패스_38155" data-name="패스 38155" d="M76.948,102.958l1.353,6.39a6.973,6.973,0,0,0,5.375,5.375l6.388,1.352a1.277,1.277,0,0,1,0,2.5l-6.388,1.353A6.971,6.971,0,0,0,78.3,125.3l-1.353,6.39a1.278,1.278,0,0,1-2.5,0L73.1,125.3a6.973,6.973,0,0,0-5.377-5.375l-6.388-1.353a1.278,1.278,0,0,1,0-2.5l6.388-1.352a6.975,6.975,0,0,0,5.377-5.375l1.352-6.39A1.278,1.278,0,0,1,76.948,102.958Z" transform="translate(886.184 177.75)" fill="#ffee24"/>
    </g>
  </g>
</svg>
