<svg xmlns="http://www.w3.org/2000/svg" xmlns:xlink="http://www.w3.org/1999/xlink" width="734.385" height="596.858" viewBox="0 0 734.385 596.858">
<style>
.st0{fill:#fff;}
.star {animation:star linear infinite 2.2s;}
.star2 {animation:star2 linear infinite 1.3s;}
.cir {animation:cir linear infinite 1.5s;}
.fill {animation:fill linear infinite 1.3s;}
.fill2 {animation:fill linear infinite 1.7s;}

.star.s1 {transform-origin:93% 50%;}
.star2.s2 {transform-origin:95% 130%;}
.star2.s3 {transform-origin:170% 52%;}
.cir.c1 {transform-origin:97% 50%;}
.cir.c2 {transform-origin:91% 130%;}
.cir.c3 {transform-origin:167% 62%;}
.fill{transform-origin:167% 62%;}
	
@keyframes star {
0% {transform:scale(1);}	
55% {transform:scale(0.7);}
100% {transform:scale(1);}
}
@keyframes star2 {
0% {transform:scale(1);}	
55% {transform:scale(0.7);}
100% {transform:scale(1);}
}
@keyframes cir {
0% {transform:scale(0.9);}	
55% {transform:scale(0.6);}
100% {transform:scale(0.9);}
}
@keyframes fill {
0% {opacity:1;}	
55% {opacity:0;}
100% {opacity:1;}
}
</style>

  <defs>
    <filter id="패스_36683" x="527.19" y="453.088" width="143.77" height="143.77" filterUnits="userSpaceOnUse">
      <feOffset dx="4" dy="4" input="SourceAlpha"/>
      <feGaussianBlur result="blur"/>
      <feFlood flood-color="#080d4b"/>
      <feComposite operator="in" in2="blur"/>
      <feComposite in="SourceGraphic"/>
    </filter>
    <filter id="패스_38448" x="0" y="110.132" width="142.396" height="142.396" filterUnits="userSpaceOnUse">
      <feOffset dx="4" dy="4" input="SourceAlpha"/>
      <feGaussianBlur result="blur-2"/>
      <feFlood flood-color="#080d4b"/>
      <feComposite operator="in" in2="blur-2"/>
      <feComposite in="SourceGraphic"/>
    </filter>
    <clipPath id="clip-path">
      <rect id="사각형_20672" data-name="사각형 20672" width="24.025" height="24.713" fill="none"/>
    </clipPath>
    <clipPath id="clip-path-2">
      <rect id="사각형_20675" data-name="사각형 20675" width="28.024" height="27.96" fill="none"/>
    </clipPath>
    <filter id="패스_38452" x="617.385" y="215.83" width="117" height="116.999" filterUnits="userSpaceOnUse">
      <feOffset dx="4" dy="4" input="SourceAlpha"/>
      <feGaussianBlur result="blur-3"/>
      <feFlood flood-color="#080d4b"/>
      <feComposite operator="in" in2="blur-3"/>
      <feComposite in="SourceGraphic"/>
    </filter>
  </defs>
  <g id="그룹_112800" data-name="그룹 112800" transform="translate(-605.998 -267.67)">
    <g id="그룹_112748" data-name="그룹 112748" transform="translate(1165.364 722.613) rotate(16)">
      <path id="패스_38450" data-name="패스 38450" d="M110,55A55,55,0,1,1,55,0,55,55,0,0,1,110,55Z" transform="translate(0 0)" fill="none"/>
      <g id="그룹_112699" data-name="그룹 112699" transform="translate(0 0)">
        <g id="그룹_112705" data-name="그룹 112705" transform="translate(0 0)">
          <g transform="matrix(0.96, -0.28, 0.28, 0.96, -663.1, -283.14)" filter="url(#패스_36683)">
            <path id="패스_36683-2" data-name="패스 36683" d="M110,55A55,55,0,1,1,55,0,55,55,0,0,1,110,55Z" transform="translate(559.37 454.94) rotate(16)" fill="#67ff63" stroke="#080d4b" stroke-width="3"/>
          </g>
          <path id="패스_36684" data-name="패스 36684" d="M67.492,0A33.746,33.746,0,0,1,33.748,33.747,33.747,33.747,0,0,1,0,0" transform="translate(21.254 54.705)" fill="none" stroke="#080d4b" stroke-linecap="round" stroke-width="3"/>
          <path id="패스_36685" data-name="패스 36685" d="M10.969,21.939a21.6,21.6,0,0,0-4.371-6.6A21.645,21.645,0,0,0,0,10.969,21.611,21.611,0,0,0,6.6,6.6,21.565,21.565,0,0,0,10.969,0a21.566,21.566,0,0,0,4.371,6.6,21.61,21.61,0,0,0,6.6,4.372,21.644,21.644,0,0,0-6.6,4.371,21.6,21.6,0,0,0-4.371,6.6" transform="translate(23.287 33.061)" fill="#fff"/>
          <path id="패스_36686" data-name="패스 36686" d="M10.969,21.939a21.6,21.6,0,0,0-4.371-6.6A21.645,21.645,0,0,0,0,10.969,21.611,21.611,0,0,0,6.6,6.6,21.565,21.565,0,0,0,10.969,0a21.566,21.566,0,0,0,4.371,6.6,21.61,21.61,0,0,0,6.6,4.372,21.644,21.644,0,0,0-6.6,4.371A21.6,21.6,0,0,0,10.969,21.939Z" transform="translate(23.287 33.061)" fill="none" stroke="#000" stroke-width="2"/>
          <path id="패스_36687" data-name="패스 36687" d="M10.968,21.939a21.559,21.559,0,0,0-4.371-6.6A21.6,21.6,0,0,0,0,10.969,21.569,21.569,0,0,0,6.6,6.6,21.53,21.53,0,0,0,10.968,0a21.607,21.607,0,0,0,4.373,6.6,21.626,21.626,0,0,0,6.6,4.372,21.66,21.66,0,0,0-6.6,4.371,21.637,21.637,0,0,0-4.373,6.6" transform="translate(64.773 33.061)" fill="#fff"/>
          <path id="패스_36688" data-name="패스 36688" d="M10.968,21.939a21.559,21.559,0,0,0-4.371-6.6A21.6,21.6,0,0,0,0,10.969,21.569,21.569,0,0,0,6.6,6.6,21.53,21.53,0,0,0,10.968,0a21.607,21.607,0,0,0,4.373,6.6,21.626,21.626,0,0,0,6.6,4.372,21.66,21.66,0,0,0-6.6,4.371A21.637,21.637,0,0,0,10.968,21.939Z" transform="translate(64.773 33.061)" fill="none" stroke="#080d4b" stroke-linecap="round" stroke-linejoin="round" stroke-width="3"/>
        </g>
      </g>
    </g>
    <g id="그룹_112747" data-name="그룹 112747" transform="matrix(0.966, -0.259, 0.259, 0.966, 607.835, 408.109)">
      <path id="패스_38449" data-name="패스 38449" d="M93.89,93.891a55,55,0,1,1,0-77.781,55,55,0,0,1,0,77.781" transform="translate(110 110) rotate(180)" fill="#ffe600"/>
      <g id="그룹_112706" data-name="그룹 112706" transform="translate(0 0)">
        <g transform="matrix(0.97, 0.26, -0.26, 0.97, 34.57, -136.13)" filter="url(#패스_38448)">
          <path id="패스_38448-2" data-name="패스 38448" d="M93.89,93.891a55,55,0,1,1,0-77.781,55,55,0,0,1,0,77.781" transform="translate(136.56 218.22) rotate(165)" fill="#feea49" stroke="#080d4b" stroke-width="3"/>
        </g>
        <g id="object" transform="translate(8.619 59.613) rotate(-45)">
          <g id="그룹_112691" data-name="그룹 112691" transform="translate(0 0)">
            <path id="패스_36663" data-name="패스 36663" d="M61.556,51a36.06,36.06,0,0,1-51-51" transform="translate(0 4.036)" fill="none" stroke="#080d4b" stroke-linecap="round" stroke-width="3"/>
            <path id="패스_36664" data-name="패스 36664" d="M13.436,13.437C8.6,18.273,2.951,20.465.816,18.33S.875,10.547,5.71,5.71,16.2-1.317,18.33.816,18.272,8.6,13.436,13.437" transform="translate(21.463 0)" fill="#080d4b"/>
            <path id="패스_36665" data-name="패스 36665" d="M13.438,13.437C8.6,18.273,2.951,20.463.816,18.33S.874,10.546,5.71,5.71,16.2-1.317,18.33.816s-.057,7.784-4.893,12.62" transform="translate(46.445 24.983)" fill="#080d4b"/>
          </g>
        </g>
      </g>
    </g>
    <g id="그룹_112797" data-name="그룹 112797">
      <g id="그룹_112757" class="st0 star s1" data-name="그룹 112757" transform="translate(-0.35 21.292)">
        <path id="패스_39923"  data-name="패스 39923" d="M50.839,4.258l.491,2.3a8.309,8.309,0,0,0,6.388,6.39l2.3.489a2.344,2.344,0,0,1,0,4.585l-2.3.489a8.309,8.309,0,0,0-6.388,6.39l-.491,2.3a2.343,2.343,0,0,1-4.583,0l-.491-2.3a8.309,8.309,0,0,0-6.388-6.39l-2.3-.489a2.345,2.345,0,0,1,0-4.585l2.3-.489a8.309,8.309,0,0,0,6.388-6.39l.491-2.3a2.343,2.343,0,0,1,4.583,0" transform="translate(634.362 267.055)" fill="#fff"/>
        <path id="패스_39924" data-name="패스 39924" d="M50.839,4.258l.491,2.3a8.309,8.309,0,0,0,6.388,6.39l2.3.489a2.344,2.344,0,0,1,0,4.585l-2.3.489a8.309,8.309,0,0,0-6.388,6.39l-.491,2.3a2.343,2.343,0,0,1-4.583,0l-.491-2.3a8.309,8.309,0,0,0-6.388-6.39l-2.3-.489a2.345,2.345,0,0,1,0-4.585l2.3-.489a8.309,8.309,0,0,0,6.388-6.39l.491-2.3A2.343,2.343,0,0,1,50.839,4.258Z" transform="translate(634.362 267.055)" fill="none" stroke="#080d4b" stroke-linecap="round" stroke-linejoin="round" stroke-width="3"/>
      </g>
      <g id="그룹_112758" class="st0 cir c1" data-name="그룹 112758" transform="translate(-12.006 3.971)">
        <path id="패스_39926" data-name="패스 39926" d="M74.061,7.532A6.033,6.033,0,1,1,68.029,1.5a6.032,6.032,0,0,1,6.032,6.032" transform="translate(659.716 266.199)" fill="#fff"/>
        <path id="패스_39927" data-name="패스 39927" d="M74.061,7.532A6.033,6.033,0,1,1,68.029,1.5,6.032,6.032,0,0,1,74.061,7.532Z" transform="translate(659.716 266.199)" fill="none" stroke="#080d4b" stroke-linecap="round" stroke-linejoin="round" stroke-width="3"/>
      </g>
      <g class="st0 star2 s2">
        <g id="그룹_112759" data-name="그룹 112759" transform="translate(7776.607 17196.082)">
          <path id="패스_39919" data-name="패스 39919" d="M28.664,65.434l.852,3.994A14.455,14.455,0,0,0,40.633,80.545l3.994.852a4.077,4.077,0,0,1,0,7.975l-3.994.852a14.455,14.455,0,0,0-11.117,11.115l-.852,4a4.078,4.078,0,0,1-7.975,0l-.852-4A14.456,14.456,0,0,0,8.722,90.224l-4-.852a4.077,4.077,0,0,1,0-7.975l4-.852A14.455,14.455,0,0,0,19.837,69.428l.852-3.994a4.077,4.077,0,0,1,7.975,0" transform="translate(-7119.579 -16474.305)" fill="#fff"/>
          <path id="패스_39920" data-name="패스 39920" d="M28.664,65.434l.852,3.994A14.455,14.455,0,0,0,40.633,80.545l3.994.852a4.077,4.077,0,0,1,0,7.975l-3.994.852a14.455,14.455,0,0,0-11.117,11.115l-.852,4a4.078,4.078,0,0,1-7.975,0l-.852-4A14.456,14.456,0,0,0,8.722,90.224l-4-.852a4.077,4.077,0,0,1,0-7.975l4-.852A14.455,14.455,0,0,0,19.837,69.428l.852-3.994A4.077,4.077,0,0,1,28.664,65.434Z" transform="translate(-7119.579 -16474.305)" fill="none" stroke="#080d4b" stroke-linecap="round" stroke-linejoin="round" stroke-width="3"/>
        </g>
      </g>
      <g class="st0 star2 s3">
        <g id="그룹_112760" data-name="그룹 112760" transform="translate(9453.342 16099.068) rotate(-5)">
          <path id="패스_39921" data-name="패스 39921" d="M183.217,51.188l.752,3.522a12.747,12.747,0,0,0,9.8,9.8l3.522.752a3.6,3.6,0,0,1,0,7.033l-3.522.752a12.748,12.748,0,0,0-9.8,9.8l-.752,3.524a3.6,3.6,0,0,1-7.033,0l-.752-3.524a12.748,12.748,0,0,0-9.8-9.8l-3.524-.752a3.6,3.6,0,0,1,0-7.033l3.524-.752a12.748,12.748,0,0,0,9.8-9.8l.752-3.522a3.6,3.6,0,0,1,7.033,0" transform="translate(-6970.162 -16487.436)" fill="#fff"/>
          <path id="패스_39922" data-name="패스 39922" d="M183.217,51.188l.752,3.522a12.747,12.747,0,0,0,9.8,9.8l3.522.752a3.6,3.6,0,0,1,0,7.033l-3.522.752a12.748,12.748,0,0,0-9.8,9.8l-.752,3.524a3.6,3.6,0,0,1-7.033,0l-.752-3.524a12.748,12.748,0,0,0-9.8-9.8l-3.524-.752a3.6,3.6,0,0,1,0-7.033l3.524-.752a12.748,12.748,0,0,0,9.8-9.8l.752-3.522A3.6,3.6,0,0,1,183.217,51.188Z" transform="translate(-6970.162 -16487.436)" fill="none" stroke="#080d4b" stroke-linecap="round" stroke-linejoin="round" stroke-width="3"/>
        </g>
      </g>
      <g class="st0 cir c3">
        <g id="그룹_112761" data-name="그룹 112761" transform="translate(9457.342 16095.068) rotate(-5)">
          <path id="패스_39925" data-name="패스 39925" d="M165.218,83.01a7.068,7.068,0,1,1-7.068-7.068,7.067,7.067,0,0,1,7.068,7.068" transform="translate(-6977.909 -16461.297)" fill="#fff"/>
          <circle id="타원_661" data-name="타원 661" cx="7.068" cy="7.068" r="7.068" transform="translate(-6826.828 -16385.355)" fill="none" stroke="#080d4b" stroke-linecap="round" stroke-linejoin="round" stroke-width="3"/>
        </g>
      </g>
      <g id="그룹_112763" data-name="그룹 112763" transform="translate(611.835 485.145)">
        <g id="그룹_112799" data-name="그룹 112799" transform="translate(0 0)">
          <path id="패스_39928" class="fill2" data-name="패스 39928" d="M27.937,3.551a12.469,12.469,0,0,0-3.559,17.1A12.469,12.469,0,0,0,7.355,16.755,12.665,12.665,0,0,0,3.519,34.319,36.144,36.144,0,0,0,31.346,50.855l13.012.937,4.573-12.218A36.142,36.142,0,0,0,45.5,7.387,12.666,12.666,0,0,0,27.937,3.551" transform="translate(0.236 0.236)" fill="#f06a86"/>
          <path id="패스_39929" data-name="패스 39929" d="M27.937,3.551a12.469,12.469,0,0,0-3.559,17.1A12.469,12.469,0,0,0,7.355,16.755,12.665,12.665,0,0,0,3.519,34.319,36.144,36.144,0,0,0,31.346,50.855l13.012.937,4.573-12.218A36.142,36.142,0,0,0,45.5,7.387,12.666,12.666,0,0,0,27.937,3.551Z" transform="translate(0.236 0.236)" fill="none" stroke="#080d4b" stroke-linecap="round" stroke-linejoin="round" stroke-width="3"/>
        </g>
      </g>
      <g id="그룹_112765" data-name="그룹 112765" transform="translate(665.032 555.07)">
        <g id="그룹_112764" data-name="그룹 112764" transform="translate(0 0)" clip-path="url(#clip-path)">
          <path id="패스_39930" class="fill" data-name="패스 39930" d="M14.728,1.776a5.148,5.148,0,0,0-3.209,6.456A5.15,5.15,0,0,0,5.127,4.9a5.231,5.231,0,0,0-3.369,6.615,14.927,14.927,0,0,0,9.386,9.515l5.1,1.734,3.1-4.4a14.923,14.923,0,0,0,2-13.214,5.23,5.23,0,0,0-6.615-3.369" transform="translate(0.226 0.226)" fill="#f06a86"/>
          <path id="패스_39931" data-name="패스 39931" d="M14.728,1.776a5.148,5.148,0,0,0-3.209,6.456A5.15,5.15,0,0,0,5.127,4.9a5.231,5.231,0,0,0-3.369,6.615,14.927,14.927,0,0,0,9.386,9.515l5.1,1.734,3.1-4.4a14.923,14.923,0,0,0,2-13.214A5.23,5.23,0,0,0,14.728,1.776Z" transform="translate(0.226 0.226)" fill="none" stroke="#080d4b" stroke-linecap="round" stroke-linejoin="round" stroke-width="3"/>
        </g>
      </g>
      <g id="그룹_112769" data-name="그룹 112769" transform="translate(1231.339 683.258)">
        <g id="그룹_112798" data-name="그룹 112798">
          <path id="패스_39934" class="fill" data-name="패스 39934" d="M30.134,7.816a8.617,8.617,0,0,0-10.879,5.221A8.617,8.617,0,0,0,14.248,2.058,8.753,8.753,0,0,0,2.995,7.324,24.977,24.977,0,0,0,5.6,29.541l4.946,7.536,8.626-2.617A24.975,24.975,0,0,0,35.4,19.069,8.752,8.752,0,0,0,30.134,7.816" fill="#f06a86"/>
          <path id="패스_39935" data-name="패스 39935" d="M30.134,7.816a8.617,8.617,0,0,0-10.879,5.221A8.617,8.617,0,0,0,14.248,2.058,8.753,8.753,0,0,0,2.995,7.324,24.977,24.977,0,0,0,5.6,29.541l4.946,7.536,8.626-2.617A24.975,24.975,0,0,0,35.4,19.069,8.752,8.752,0,0,0,30.134,7.816Z" fill="none" stroke="#080d4b" stroke-linecap="round" stroke-linejoin="round" stroke-width="3"/>
        </g>
      </g>
      <g id="그룹_112771" data-name="그룹 112771" transform="translate(1200.073 275.394) rotate(-16)">
        <g id="그룹_112770" data-name="그룹 112770" transform="translate(0 0)" clip-path="url(#clip-path-2)">
          <path id="패스_39936" class="fill2" data-name="패스 39936" d="M24.736,11.029a6.437,6.437,0,0,0-8.963.96,6.438,6.438,0,0,0-.785-8.98,6.538,6.538,0,0,0-9.237.9A18.659,18.659,0,0,0,2.035,20.2l1.6,6.541,6.727.311a18.659,18.659,0,0,0,15.27-6.785,6.539,6.539,0,0,0-.9-9.237" transform="translate(-0.305 -0.306)" fill="#f06a86"/>
          <path id="패스_39937" data-name="패스 39937" d="M24.736,11.029a6.437,6.437,0,0,0-8.963.96,6.438,6.438,0,0,0-.785-8.98,6.538,6.538,0,0,0-9.237.9A18.659,18.659,0,0,0,2.035,20.2l1.6,6.541,6.727.311a18.659,18.659,0,0,0,15.27-6.785A6.539,6.539,0,0,0,24.736,11.029Z" transform="translate(-0.305 -0.306)" fill="none" stroke="#080d4b" stroke-linecap="round" stroke-linejoin="round" stroke-width="3"/>
        </g>
      </g>
      <g class="st0 cir c2">
        <g id="그룹_112801" data-name="그룹 112801" transform="translate(8877.361 16483.068) rotate(-5)">
          <path id="패스_39925-2" data-name="패스 39925" d="M165.218,83.01a7.068,7.068,0,1,1-7.068-7.068,7.067,7.067,0,0,1,7.068,7.068" transform="translate(-6977.909 -16461.297)" fill="#fff"/>
          <circle id="타원_661-2" data-name="타원 661" cx="7.068" cy="7.068" r="7.068" transform="translate(-6826.828 -16385.355)" fill="none" stroke="#080d4b" stroke-linecap="round" stroke-linejoin="round" stroke-width="3"/>
        </g>
      </g>
      <g id="그룹_112751" data-name="그룹 112751" transform="translate(952.925 -130.393)">
        <g id="그룹_112750" data-name="그룹 112750" transform="translate(271.958 615.393)">
          <path id="패스_38451" data-name="패스 38451" d="M110,55A55,55,0,1,1,55,0,55,55,0,0,1,110,55Z" transform="translate(0 0)" fill="none"/>
          <g id="object-2" data-name="object" transform="translate(0 0)">
            <g id="그룹_112749" data-name="그룹 112749" transform="translate(0 0)">
              <g transform="matrix(1, 0, 0, 1, -618.88, -217.33)" filter="url(#패스_38452)">
                <path id="패스_38452-2" data-name="패스 38452" d="M110,55A55,55,0,1,1,55,0,55,55,0,0,1,110,55Z" transform="translate(618.88 217.33)" fill="#75c4ff" stroke="#080d4b" stroke-width="3"/>
              </g>
              <path id="패스_38453" data-name="패스 38453" d="M72.117,0A36.059,36.059,0,0,1,36.059,36.059,36.059,36.059,0,0,1,0,0" transform="translate(18.941 54.999)" fill="none" stroke="#080d4b" stroke-linecap="round" stroke-linejoin="round" stroke-width="3"/>
              <path id="패스_38454" data-name="패스 38454" d="M18.833,1.6a5.461,5.461,0,0,0-7.72,0l-.9.9-.9-.9A5.46,5.46,0,1,0,1.6,9.319l.9.9,7.719,7.72,7.72-7.72.9-.9a5.459,5.459,0,0,0,0-7.721" transform="translate(25.149 36.544)" fill="#fff" stroke="#080d4b" stroke-linecap="round" stroke-linejoin="round" stroke-width="3"/>
              <path id="패스_38455" data-name="패스 38455" d="M18.833,1.6a5.459,5.459,0,0,0-7.718,0l-.9.9-.9-.9A5.46,5.46,0,1,0,1.6,9.319l.9.9,7.721,7.72,7.718-7.72.9-.9a5.457,5.457,0,0,0,0-7.721" transform="translate(64.418 36.544)" fill="#fff" stroke="#080d4b" stroke-linecap="round" stroke-linejoin="round" stroke-width="3"/>
            </g>
          </g>
        </g>
      </g>
    </g>
  </g>
</svg>
