<svg xmlns="http://www.w3.org/2000/svg" width="18" height="18" viewBox="0 0 18 18">
    <defs>
        <style>
            .cls-1{fill:none}.cls-3{fill:#474C98}
        </style>
    </defs>
    <g id="그룹_1902" data-name="그룹 1902" transform="translate(11697 9399.581)">
        <g id="icon_good_p_pre">
            <path id="area" class="cls-1" transform="translate(-11697 -9399.581)" d="M0 0h18v18H0z"/>
            <path id="빼기_1" data-name="빼기 1" d="M796-994.583h-7a1.474 1.474 0 0 1-1-.394v-9.876l1.957-4.589.236-.061a2.929 2.929 0 0 1 .7-.079 2.362 2.362 0 0 1 1.52.5 2.807 2.807 0 0 1 .827 2.392 59.263 59.263 0 0 0-.05 1.819H797a1.521 1.521 0 0 1 1.5 1.452v.051l-.006.1-1 7.214a1.455 1.455 0 0 1-.431 1.022 1.494 1.494 0 0 1-1.063.449z" transform="translate(-12479 -8387.999)" style="stroke:transparent;stroke-miterlimit:10;fill:#474C98"/>
            <path id="사각형_3109" data-name="사각형 3109" class="cls-3" d="M2 0h2v10H2a2 2 0 0 1-2-2V2a2 2 0 0 1 2-2z" transform="translate(-11696 -9392.581)"/>
        </g>
        <g id="icon_good_p_nor">
            <path id="패스_13838" data-name="패스 13838" class="cls-3" d="M-4541-9846.579a2 2 0 0 1-2-2v-6a2 2 0 0 1 2-2h2.885l2.072-4.858.235-.062a2.942 2.942 0 0 1 .7-.079 2.354 2.354 0 0 1 1.522.5 2.806 2.806 0 0 1 .827 2.394 61.113 61.113 0 0 0-.049 1.816h3.808a1.522 1.522 0 0 1 1.5 1.453v.052l-.007.1-1 7.212a1.5 1.5 0 0 1-1.5 1.47h-7.5zm-1-8v6a1 1 0 0 0 1 1h2.5v-8.002h-2.5a1 1 0 0 0-1 1zm4.5 7h7.5a.506.506 0 0 0 .354-.15.466.466 0 0 0 .141-.312v-.071l.01-.074 1-7.18a.522.522 0 0 0-.5-.5h-4.824l.012-1.01c0-.55.022-1.171.05-1.847a1.9 1.9 0 0 0-.468-1.586 1.34 1.34 0 0 0-.881-.268c-.079 0-.153 0-.218.01l-2.131 5-.042 7.586c-.003.117-.003.271-.003.399z" transform="translate(-7153 463.998)"/>
            <path id="area-2" data-name="area" class="cls-1" transform="translate(-11697 -9399.581)" d="M0 0h18v18H0z"/>
        </g>
    </g>
</svg>
