<svg id="icon" xmlns="http://www.w3.org/2000/svg" width="16" height="15.999" viewBox="0 0 16 15.999">
  <g id="comment" transform="translate(-2.999 -3)" fill="none">
    <path d="M3.517,18.993a.444.444,0,0,1-.477-.623l1.325-2.9a7.988,7.988,0,1,1,3.346,2.823Z" stroke="none"/>
    <path d="M 10.99924945831299 17.99869728088379 C 14.85869884490967 17.99869728088379 17.99858856201172 14.85879707336426 17.99858856201172 10.99934673309326 C 17.99858856201172 7.139896392822266 14.85869884490967 3.999996662139893 10.99924945831299 3.999996662139893 C 7.139799118041992 3.999996662139893 3.99989914894104 7.139896392822266 3.99989914894104 10.99934673309326 C 3.99989914894104 12.40158653259277 4.412739276885986 13.75409698486328 5.193789005279541 14.91066646575928 L 5.50779914855957 15.37564659118652 L 4.384160041809082 17.83439254760742 L 7.846019268035889 17.25741577148438 L 8.122579574584961 17.38227653503418 C 9.028569221496582 17.79130744934082 9.996418952941895 17.99869728088379 10.99924945831299 17.99869728088379 M 3.441583156585693 18.99898910522461 C 3.128211259841919 18.99898910522461 2.902921438217163 18.66976356506348 3.040109157562256 18.36956596374512 L 4.365059375762939 15.47031688690186 C 3.481129169464111 14.16140651702881 2.99989914894104 12.61609649658203 2.99989914894104 10.99934673309326 C 2.99989914894104 6.581426620483398 6.581329345703125 2.999996662139893 10.99924945831299 2.999996662139893 C 15.41715908050537 2.999996662139893 18.99858856201172 6.581426620483398 18.99858856201172 10.99934673309326 C 18.99858856201172 15.41726684570312 15.41715908050537 18.99869728088379 10.99924945831299 18.99869728088379 C 9.850479125976562 18.99869728088379 8.735309600830078 18.75609588623047 7.711099147796631 18.29369735717773 L 3.517369270324707 18.99264717102051 C 3.491662740707397 18.9969310760498 3.466326951980591 18.99898910522461 3.441583156585693 18.99898910522461 Z" stroke="none" fill="#000"/>
  </g>
  <path id="합치기_1" data-name="합치기 1" d="M6,1A1,1,0,1,1,7,2,1,1,0,0,1,6,1ZM3,1A1,1,0,1,1,4,2,1,1,0,0,1,3,1ZM0,1A1,1,0,1,1,1,2,1,1,0,0,1,0,1Z" transform="translate(4 7)" fill="#474c98"/>
</svg>
