<svg xmlns="http://www.w3.org/2000/svg" xmlns:xlink="http://www.w3.org/1999/xlink" width="84" height="24" viewBox="0 0 84 24">
  <defs>
    <clipPath id="clip-path">
      <rect id="사각형_902" data-name="사각형 902" width="84" height="24" transform="translate(0 0)" fill="none"/>
    </clipPath>
  </defs>
  <g id="_logo" data-name="++logo" transform="translate(0 0)">
    <path id="area" d="M0,0H84V24H0Z" fill="#00277b" opacity="0"/>
    <path id="패스_13639" data-name="패스 13639" d="M35.559,1.682H49.4V4.074H38.435v2.9H49.4V9.37H38.435v3.159H49.4v2.391H35.559Z" transform="translate(-10.502 -0.469)" fill="#d53020"/>
    <g id="그룹_604" data-name="그룹 604" transform="translate(0 0)">
      <g id="그룹_603" data-name="그룹 603" clip-path="url(#clip-path)">
        <path id="패스_13640" data-name="패스 13640" d="M11.024,4.105h1.535V1.532H8V0H4.9V1.532H.3V4.105H1.83A6.417,6.417,0,1,0,12.854,8.578a6.381,6.381,0,0,0-1.831-4.473m-4.6,8.156a3.683,3.683,0,1,1,3.69-3.683,3.691,3.691,0,0,1-3.69,3.683" transform="translate(0 0.143)" fill="#d53020"/>
        <path id="패스_13641" data-name="패스 13641" d="M83.358,1.681V5.267H81.888V1.681H79.206V15.4h2.682V7.84h1.469V15.4h2.679V1.681Z" transform="translate(-24.257 -0.375)" fill="#d53020"/>
        <path id="패스_13642" data-name="패스 13642" d="M66.9,25.89H79.167v5.149h3.1V23.316H66.9Z" transform="translate(-20.49 -7.038)" fill="#d53020"/>
        <path id="패스_13643" data-name="패스 13643" d="M66.65,11.791V9.322h6.178V1.68h-9V4.254H69.98V6.722H63.829v7.641h9V11.791Z" transform="translate(-19.548 -0.375)" fill="#d53020"/>
        <path id="패스_13644" data-name="패스 13644" d="M24.9,7.821h2.217V5.249H24.9V1.662H21.8V15.395h3.1Z" transform="translate(-6.675 -0.369)" fill="#d53020"/>
        <rect id="사각형_900" data-name="사각형 900" width="18.748" height="2.573" transform="translate(65.454 19.868)" fill="#d53020"/>
        <rect id="사각형_901" data-name="사각형 901" width="18.746" height="2.573" transform="translate(22.762 19.868)" fill="#d53020"/>
        <path id="패스_13645" data-name="패스 13645" d="M12.952,26.231l4.467,4.457h3.988l-8.455-8.434L4.5,30.687H8.484c1.577-1.574,3.606-3.6,4.468-4.457" transform="translate(-1.377 -6.711)" fill="#d53020"/>
        <path id="패스_13646" data-name="패스 13646" d="M103.655,6.869l5.137,8.9h3.254L103.655,1.231,95.263,15.773h3.253l5.139-8.9" transform="translate(-29.175 -0.236)" fill="#d53020"/>
      </g>
    </g>
  </g>
</svg>
