<svg xmlns="http://www.w3.org/2000/svg" width="18" height="18" viewBox="0 0 18 18">
  <g id="icon_poster" transform="translate(-827 -413)">
    <g id="그룹_1858" data-name="그룹 1858" transform="translate(828 414.344)">
      <rect id="사각형_3474" data-name="사각형 3474" width="14.682" height="14.682" rx="1" transform="translate(0.659 0.658)" fill="none" stroke="#000" stroke-linecap="round" stroke-linejoin="round" stroke-width="1"/>
      <g id="그룹_1860" data-name="그룹 1860" transform="translate(4.015 3.09)">
        <path id="패스_36324" data-name="패스 36324" d="M4.149,11.574c.3.568-.149,1.385-.993,1.824s-1.769.335-2.064-.233.149-1.385.994-1.825S3.853,11.006,4.149,11.574Z" transform="translate(0 -4.851)" fill="none" stroke="#474c98" stroke-linecap="round" stroke-linejoin="round" stroke-width="1"/>
        <path id="패스_36326" data-name="패스 36326" d="M7.245,7.1V1l.585.425a2.621,2.621,0,0,1,1.079,2.12A2.622,2.622,0,0,0,9.676,5.4l.3.3" transform="translate(-3.009)" fill="none" stroke="#474c98" stroke-linecap="round" stroke-linejoin="round" stroke-width="1"/>
      </g>
    </g>
    <rect id="사각형_3533" data-name="사각형 3533" width="18" height="18" transform="translate(827 413)" fill="none"/>
  </g>
</svg>
