<svg xmlns="http://www.w3.org/2000/svg" width="18" height="18" viewBox="0 0 18 18">
  <g id="icon_reservation" transform="translate(-827 -413)">
    <g id="그룹_1849" data-name="그룹 1849" transform="translate(9925 17978)">
      <rect id="사각형_3472" data-name="사각형 3472" width="16" height="16" transform="translate(-9097 -17564)" fill="#fff" opacity="0"/>
      <g id="그룹_1841" data-name="그룹 1841" transform="translate(-9097.612 -17564.611)">
        <g id="그룹_1842" data-name="그룹 1842" transform="translate(0.613 0.612)">
          <g id="패스_36304" data-name="패스 36304" transform="translate(-1 -0.999)" fill="none" stroke-linecap="round" stroke-linejoin="round">
            <path d="M17,9A8,8,0,1,1,9,1,8,8,0,0,1,17,9Z" stroke="none"/>
            <path d="M 8.999670028686523 15.99966144561768 C 12.85966968536377 15.99966144561768 16 12.85933113098145 16 8.999331474304199 C 16 5.139331340789795 12.85966968536377 1.999001502990723 8.999670028686523 1.999001502990723 C 5.140039920806885 1.999001502990723 2 5.139331340789795 2 8.999331474304199 C 2 12.85933113098145 5.140039920806885 15.99966144561768 8.999670028686523 15.99966144561768 M 8.999670028686523 16.99966239929199 C 4.58158016204834 16.99966239929199 1 13.41743183135986 1 8.999331474304199 C 1 4.581241607666016 4.58158016204834 0.9990015029907227 8.999670028686523 0.9990015029907227 C 13.41843032836914 0.9990015029907227 17 4.581241607666016 17 8.999331474304199 C 17 13.41743183135986 13.41843032836914 16.99966239929199 8.999670028686523 16.99966239929199 Z" stroke="none" fill="#000"/>
          </g>
          <path id="패스_36306" data-name="패스 36306" d="M13.547,12.22a1.326,1.326,0,1,1-1.326-1.326A1.326,1.326,0,0,1,13.547,12.22Z" transform="translate(-4.221 -4.22)" fill="none" stroke="#000" stroke-linecap="round" stroke-linejoin="round" stroke-width="1"/>
          <path id="패스_36308" data-name="패스 36308" d="M13.06,4.437a4.721,4.721,0,0,1,4.721,4.72" transform="translate(-4.512 -1.703)" fill="none" stroke="#474c98" stroke-linecap="round" stroke-linejoin="round" stroke-width="1"/>
          <path id="패스_36310" data-name="패스 36310" d="M9.158,17.779a4.721,4.721,0,0,1-4.721-4.72" transform="translate(-1.704 -4.51)" fill="none" stroke="#474c98" stroke-linecap="round" stroke-linejoin="round" stroke-width="1"/>
        </g>
      </g>
    </g>
    <rect id="사각형_3534" data-name="사각형 3534" width="18" height="18" transform="translate(827 413)" fill="none"/>
  </g>
</svg>
