<svg xmlns="http://www.w3.org/2000/svg" width="48" height="19" viewBox="0 0 48 19">
  <path id="패스_42625" data-name="패스 42625" d="M7.605,5.276H4.94V4.08H3.211v1.2H.559V6.628H7.605ZM4.082,8.3c.767,0,1.3.312,1.3.923s-.533.923-1.3.923-1.3-.325-1.3-.923S3.3,8.3,4.082,8.3Zm0,3.133c1.729,0,2.938-.9,2.938-2.21s-1.209-2.21-2.938-2.21S1.144,7.9,1.144,9.228,2.366,11.438,4.082,11.438Zm2.938.468h-1.7v.156c0,1.209-1.183,2.392-3.731,2.717L2.2,16.092a5.548,5.548,0,0,0,3.965-2.067,5.583,5.583,0,0,0,3.991,2.067l.611-1.313c-2.548-.325-3.744-1.508-3.744-2.717ZM9.984,7.343V4.132H8.268v8.411H9.984v-3.8H11.57v-1.4Zm12.09,2.977H15.4V8.981H21.71V7.655H15.4V6.394h6.578V5.016h-8.32v6.656h8.411Zm-9.685,3.029V14.74H23.231V13.349ZM27.7,11.919H26.169V9.241H27.7Zm0-4.017H26.169V5.2H24.557v8.086h4.719V5.2H27.7Zm5.161-3.77V8.708h-1V4.327h-1.6V15.585h1.6v-5.5h1V16.1h1.625V4.132ZM46.28,7.759c-2.7-.325-3.965-1.651-3.965-3.042V4.366H40.56v.351c0,1.352-1.287,2.717-3.965,3.042L37.219,9.1a5.842,5.842,0,0,0,4.212-2.314A5.8,5.8,0,0,0,45.656,9.1Zm-4.849,7.085c-1.612,0-2.418-.26-2.418-.845s.806-.845,2.418-.845,2.418.247,2.418.845S43.043,14.844,41.431,14.844Zm0-2.977c-2.6,0-4.147.767-4.147,2.132s1.547,2.119,4.147,2.119,4.16-.754,4.16-2.119S44.031,11.867,41.431,11.867ZM42.3,9.852V8.383H40.586V9.852H36.049v1.365H46.865V9.852Z" transform="translate(-0.559 -1.08)" fill="#474c98"/>
</svg>
