<svg xmlns="http://www.w3.org/2000/svg" width="60" height="60" viewBox="0 0 60 60">
  <g id="Group_112415" data-name="Group 112415" transform="translate(-161 -128)">
    <g id="Group_112414" data-name="Group 112414" transform="translate(166.51 136.36)">
      <g id="Group_112032" data-name="Group 112032" transform="translate(0.98 0.98)">
        <path id="Path_37917" data-name="Path 37917" d="M132.629,221h-32.25a.679.679,0,0,0-.677.638v22.235a.665.665,0,0,0,.677.622h10.661l.1-13.191a.679.679,0,0,1,.677-.638h9.574a.6.6,0,0,1,.582.638l-.1,13.191h10.756a.584.584,0,0,0,.582-.622V221.638a.6.6,0,0,0-.582-.638" transform="translate(-94.366 -208.024)" fill="#f7f7f7" stroke="#000" stroke-linejoin="round" stroke-width="1.2"/>
        <path id="Path_37921" data-name="Path 37921" d="M27.331,15H22.444c-2.736,0-3.637,2.976-3.637,2.976s-1.872,4.593-3.8,10.042H15a.048.048,0,0,1,0,.01s0-.01,0-.01h0c.017,2.422,2.449,4.341,5.448,4.341s5.432-1.919,5.448-4.341h0Z" transform="translate(-15 -15)" fill="#f06a86" stroke="#000" stroke-linejoin="round" stroke-width="1.2"/>
        <path id="Path_37923" data-name="Path 37923" d="M189.455,15l-1.43,13.019h0a.064.064,0,0,1,0,.009v-.009h0c.018,2.422,2.641,4.341,5.64,4.341s5.557-1.919,5.575-4.341h.039V15Z" transform="translate(-177.123 -15)" fill="#7d9cff" stroke="#000" stroke-linejoin="round" stroke-width="1.2"/>
        <path id="Path_37925" data-name="Path 37925" d="M521.316,15H526.2c2.736,0,3.637,2.976,3.637,2.976s1.753,4.29,3.8,10.042h.008a.049.049,0,0,0,0,.01s0-.01,0-.01h0c-.017,2.422-2.449,4.341-5.448,4.341s-5.432-1.919-5.448-4.341h0Z" transform="translate(-489.424 -15)" fill="#7d9cff" stroke="#000" stroke-linejoin="round" stroke-width="1.2"/>
        <path id="Path_37927" data-name="Path 37927" d="M375.789,15l1.43,13.019h0a.068.068,0,0,0,0,.009v-.009h0c-.018,2.422-2.641,4.341-5.64,4.341s-5.557-1.919-5.575-4.341h.044V15Z" transform="translate(-343.896 -15)" fill="#f06a86" stroke="#000" stroke-linejoin="round" stroke-width="1.2"/>
        <g id="Group_112413" data-name="Group 112413" transform="translate(33.16 27.434)">
          <g id="Ellipse_679" data-name="Ellipse 679" transform="translate(-0.14 -0.114)" fill="#f06a86" stroke="#000" stroke-width="1.2">
            <circle cx="7" cy="7" r="7" stroke="none"/>
            <circle cx="7" cy="7" r="6.4" fill="none"/>
          </g>
          <line id="Line_286" data-name="Line 286" x2="5.308" transform="translate(4.232 6.826)" fill="none" stroke="#fff" stroke-linecap="round" stroke-width="1.2"/>
          <line id="Line_287" data-name="Line 287" x2="5.308" transform="translate(6.887 4.172) rotate(90)" fill="none" stroke="#fff" stroke-linecap="round" stroke-width="1.2"/>
        </g>
        <rect id="Rectangle_20542" data-name="Rectangle 20542" width="12" height="3" rx="1" transform="translate(16.021 21.318)" fill="#fec211" stroke="#000" stroke-width="1.2"/>
      </g>
    </g>
    <rect id="Rectangle_20543" data-name="Rectangle 20543" width="60" height="60" transform="translate(161 128)" fill="none"/>
  </g>
</svg>
