<svg id="review" xmlns="http://www.w3.org/2000/svg" width="16" height="10.323" viewBox="0 0 16 10.323">
  <path id="패스_47" data-name="패스 47" d="M17.016-37.581a1.028,1.028,0,0,1-.276.57,6.03,6.03,0,0,1-.605.657,4.439,4.439,0,0,0-.605.7,1.289,1.289,0,0,0-.276.712q0,.174.4.348t.866.388a2.122,2.122,0,0,1,.866.855,2.994,2.994,0,0,1,.4,1.607,3.451,3.451,0,0,1-1.042,2.612,3.781,3.781,0,0,1-2.728,1,3.714,3.714,0,0,1-2.7-1.092A3.608,3.608,0,0,1,10.2-31.9a5.539,5.539,0,0,1,.475-2.1A9.419,9.419,0,0,1,11.9-36.133a6.994,6.994,0,0,1,1.8-1.654,3.806,3.806,0,0,1,2.054-.665,1.441,1.441,0,0,1,.912.269A.764.764,0,0,1,17.016-37.581Zm-8.414,0a1.292,1.292,0,0,1-.444.752q-.444.467-.881.982a1.5,1.5,0,0,0-.437.91q0,.174.4.348T8.1-34.2a2.122,2.122,0,0,1,.866.855,2.994,2.994,0,0,1,.4,1.607,3.451,3.451,0,0,1-1.042,2.612,3.781,3.781,0,0,1-2.728,1,3.714,3.714,0,0,1-2.7-1.092A3.608,3.608,0,0,1,1.782-31.9,5.539,5.539,0,0,1,2.257-34a9.419,9.419,0,0,1,1.234-2.137,6.994,6.994,0,0,1,1.8-1.654,3.806,3.806,0,0,1,2.054-.665,1.441,1.441,0,0,1,.912.269A.764.764,0,0,1,8.6-37.581Z" transform="translate(-1.782 38.452)" fill="#474c98"/>
</svg>
