<svg xmlns="http://www.w3.org/2000/svg" width="16" height="16" viewBox="0 0 16 16">
  <g id="my" transform="translate(1.443 2.839)">
    <g id="타원_122" data-name="타원 122" transform="translate(2.557 -2.839)" fill="none">
      <path d="M4,0A4,4,0,1,1,0,4,4,4,0,0,1,4,0Z" stroke="none"/>
      <path d="M 4 1 C 2.345789909362793 1 1 2.345789909362793 1 4 C 1 5.654210090637207 2.345789909362793 7 4 7 C 5.654210090637207 7 7 5.654210090637207 7 4 C 7 2.345789909362793 5.654210090637207 1 4 1 M 4 0 C 6.209139823913574 0 8 1.790860176086426 8 4 C 8 6.209139823913574 6.209139823913574 8 4 8 C 1.790860176086426 8 0 6.209139823913574 0 4 C 0 1.790860176086426 1.790860176086426 0 4 0 Z" stroke="none" fill="#000"/>
    </g>
    <g id="사각형_775" data-name="사각형 775" transform="translate(-1.443 6.161)" fill="none">
      <path d="M4.05,0h7.9A4.267,4.267,0,0,1,16,4.455,2.438,2.438,0,0,1,13.686,7H2.314A2.438,2.438,0,0,1,0,4.455,4.267,4.267,0,0,1,4.05,0Z" stroke="none"/>
      <path d="M 4.049590110778809 1 C 2.368040084838867 1 1 2.549699783325195 1 4.454549789428711 C 1 5.306710243225098 1.589480400085449 6 2.31404972076416 6 L 13.68595027923584 6 C 14.41051959991455 6 15 5.306710243225098 15 4.454549789428711 C 15 2.549699783325195 13.63195991516113 1 11.95040988922119 1 L 4.049590110778809 1 M 4.049590110778809 0 L 11.95040988922119 0 C 14.18694019317627 0 16 1.994369983673096 16 4.454549789428711 C 16 5.860360145568848 14.96395969390869 7 13.68595027923584 7 L 2.31404972076416 7 C 1.036040306091309 7 0 5.860360145568848 0 4.454549789428711 C 0 1.994369983673096 1.81305980682373 0 4.049590110778809 0 Z" stroke="none" fill="#000"/>
    </g>
  </g>
</svg>
