<svg xmlns="http://www.w3.org/2000/svg" xmlns:xlink="http://www.w3.org/1999/xlink" width="49" height="46.137" viewBox="0 0 49 46.137">
  <defs>
    <filter id="합치기_78" x="0" y="0" width="49" height="46.137" filterUnits="userSpaceOnUse">
      <feOffset dy="5" input="SourceAlpha"/>
      <feGaussianBlur stdDeviation="5" result="blur"/>
      <feFlood flood-color="#555" flood-opacity="0.102"/>
      <feComposite operator="in" in2="blur"/>
      <feComposite in="SourceGraphic"/>
    </filter>
    <filter id="합치기_162" x="0" y="0" width="49" height="46.137" filterUnits="userSpaceOnUse">
      <feOffset dy="5" input="SourceAlpha"/>
      <feGaussianBlur stdDeviation="5" result="blur-2"/>
      <feFlood flood-color="#555" flood-opacity="0.102"/>
      <feComposite operator="in" in2="blur-2"/>
      <feComposite in="SourceGraphic"/>
    </filter>
  </defs>
  <g id="icon" transform="translate(15 10)">
    <g transform="matrix(1, 0, 0, 1, -15, -10)" filter="url(#합치기_78)">
      <path id="합치기_78-2" data-name="합치기 78" d="M16.787,16.1l-4.28-1.167A7.571,7.571,0,0,1,11.5,15h-4a7.5,7.5,0,1,1,0-15h4a7.5,7.5,0,0,1,5.8,12.255l.714,2.618a1,1,0,0,1-.959,1.264A1.013,1.013,0,0,1,16.787,16.1Z" transform="translate(15 10)" fill="#ffc508"/>
    </g>
    <g transform="matrix(1, 0, 0, 1, -15, -10)" filter="url(#합치기_162)">
      <g id="합치기_162-2" data-name="합치기 162" transform="translate(15 10)" fill="none">
        <path d="M16.787,16.1l-4.28-1.167A7.571,7.571,0,0,1,11.5,15h-4a7.5,7.5,0,1,1,0-15h4a7.5,7.5,0,0,1,5.8,12.255l.714,2.618a1,1,0,0,1-.959,1.264A1.013,1.013,0,0,1,16.787,16.1Z" stroke="none"/>
        <path d="M 17.04953193664551 15.1352367401123 L 16.20017051696777 12.01966094970703 L 16.52765083312988 11.62050151824951 C 17.47704124450684 10.46329116821289 17.99990081787109 8.999821662902832 17.99990081787109 7.499701023101807 C 17.99990081787109 3.915751218795776 15.08415031433105 1.000001192092896 11.50020027160645 1.000001192092896 L 7.500600337982178 1.000001192092896 C 3.916160345077515 1.000001192092896 1.000000357627869 3.915751218795776 1.000000357627869 7.499701023101807 C 1.000000357627869 11.08414077758789 3.916160345077515 14.00030136108398 7.500600337982178 14.00030136108398 L 11.50020027160645 14.00030136108398 C 11.79243087768555 14.00030136108398 12.08640003204346 13.98075103759766 12.37394046783447 13.9421911239624 L 12.57457065582275 13.91529083251953 L 17.04953193664551 15.1352367401123 M 17.05494117736816 16.13663101196289 C 16.96742057800293 16.13664054870605 16.87759971618652 16.12496185302734 16.78680038452148 16.10010147094727 L 12.50685024261475 14.93332099914551 C 12.17761039733887 14.97747135162354 11.84155082702637 15.00030136108398 11.50020027160645 15.00030136108398 L 7.500600337982178 15.00030136108398 C 3.357900381088257 15.00030136108398 4.089355343239731e-07 11.64240169525146 4.089355343239731e-07 7.499701023101807 C 4.089355343239731e-07 3.357901334762573 3.357900381088257 1.228027372235374e-06 7.500600337982178 1.228027372235374e-06 L 11.50020027160645 1.228027372235374e-06 C 15.64290046691895 1.228027372235374e-06 18.99990081787109 3.357901334762573 18.99990081787109 7.499701023101807 C 18.99990081787109 9.304551124572754 18.36250114440918 10.96062088012695 17.30076026916504 12.25477123260498 L 18.01440048217773 14.87250137329102 C 18.19384002685547 15.52780151367188 17.68655014038086 16.13657188415527 17.05494117736816 16.13663101196289 Z" stroke="none" fill="#000"/>
      </g>
    </g>
    <rect id="사각형_3093" data-name="사각형 3093" width="7" height="1" transform="translate(6 5.998)"/>
    <rect id="사각형_3094" data-name="사각형 3094" width="7" height="1" transform="translate(6 8.998)"/>
  </g>
</svg>
