<svg xmlns="http://www.w3.org/2000/svg" width="40" height="40" viewBox="0 0 40 40">
  <g id="Group_112459" data-name="Group 112459" transform="translate(-1592 201.828)">
    <g id="Group_112455" data-name="Group 112455" transform="translate(1594.43 -196.329)">
      <g id="Group_112435" data-name="Group 112435" transform="translate(0)">
        <path id="Path_38225" data-name="Path 38225" d="M64.134,37.311H53.391l1.529-7.443H62.6Z" transform="translate(-30.366 -14.983)" fill="#fec211"/>
        <g id="Group_112426" data-name="Group 112426" transform="translate(23.025 14.885)">
          <g id="Group_112436" data-name="Group 112436">
            <path id="Path_38226" data-name="Path 38226" d="M64.134,37.311H53.391l1.529-7.443H62.6Z" transform="translate(-53.391 -29.868)" fill="none" stroke="#000" stroke-linecap="round" stroke-linejoin="round" stroke-width="1"/>
          </g>
        </g>
        <path id="Path_38227" data-name="Path 38227" d="M39.737,37.311H28.994l1.529-7.443h7.685Z" transform="translate(-16.712 -14.983)" fill="#fec211" stroke="#707070" stroke-width="1.2"/>
        <g id="Group_112428" data-name="Group 112428" transform="translate(12.283 14.885)">
          <g id="Group_112440" data-name="Group 112440">
            <path id="Path_38228" data-name="Path 38228" d="M39.737,37.311H28.994l1.529-7.443h7.685Z" transform="translate(-28.994 -29.868)" fill="none" stroke="#000" stroke-linecap="round" stroke-linejoin="round" stroke-width="1"/>
          </g>
        </g>
        <path id="Path_38229" data-name="Path 38229" d="M39.737,8.543H28.994L30.523,1.1h7.685Z" transform="translate(-16.712 -1.1)" fill="#fec211"/>
        <g id="Group_112430" data-name="Group 112430" transform="translate(12.283 0)">
          <g id="Group_112439" data-name="Group 112439">
            <path id="Path_38230" data-name="Path 38230" d="M39.737,8.543H28.994L30.523,1.1h7.685Z" transform="translate(-28.994 -1.1)" fill="none" stroke="#000" stroke-linecap="round" stroke-linejoin="round" stroke-width="1"/>
          </g>
        </g>
        <path id="Path_38231" data-name="Path 38231" d="M15.34,37.311H4.6l1.529-7.443h7.685Z" transform="translate(-3.057 -14.983)" fill="#fec211"/>
        <g id="Group_112432" data-name="Group 112432" transform="translate(1.54 14.885)">
          <g id="Group_112438" data-name="Group 112438">
            <path id="Path_38232" data-name="Path 38232" d="M15.34,37.311H4.6l1.529-7.443h7.685Z" transform="translate(-4.597 -29.868)" fill="none" stroke="#000" stroke-linecap="round" stroke-linejoin="round" stroke-width="1"/>
          </g>
        </g>
        <path id="Path_38233" data-name="Path 38233" d="M51.935,22.927H41.193l1.529-7.443h7.685Z" transform="translate(-23.539 -8.041)" fill="#fec211"/>
        <path id="Path_38234" data-name="Path 38234" d="M51.935,22.927H41.193l1.529-7.443h7.685Z" transform="translate(-23.539 -8.041)" fill="none" stroke="#000" stroke-linecap="round" stroke-linejoin="round" stroke-width="1"/>
        <path id="Path_38235" data-name="Path 38235" d="M27.539,22.927H16.8l1.529-7.443H26.01Z" transform="translate(-9.885 -8.041)" fill="#fec211"/>
        <path id="Path_38236" data-name="Path 38236" d="M27.539,22.927H16.8l1.529-7.443H26.01Z" transform="translate(-9.885 -8.041)" fill="none" stroke="#000" stroke-linecap="round" stroke-linejoin="round" stroke-width="1"/>
        <path id="Path_38237" data-name="Path 38237" d="M1.1,44.252h0Z" transform="translate(-1.1 -21.924)" fill="#fff"/>
        <g id="Group_112434" data-name="Group 112434" transform="translate(0 22.328)">
          <g id="Group_112437" data-name="Group 112437">
            <line id="Line_304" data-name="Line 304" x2="35.308" fill="none" stroke="#000" stroke-linecap="round" stroke-linejoin="round" stroke-width="1"/>
          </g>
        </g>
      </g>
      <g id="Group_112449" data-name="Group 112449" transform="translate(0.898 24.943)">
        <path id="Path_38238" data-name="Path 38238" d="M5.023,1.76v0Z" transform="translate(-3.299 -1.1)" fill="none" stroke="#000" stroke-width="1"/>
        <g id="Group_112442" data-name="Group 112442" transform="translate(1.724 0)">
          <g id="Group_112451" data-name="Group 112451" transform="translate(0 0)">
            <line id="Line_305" data-name="Line 305" y2="0.66" fill="none" stroke="#000" stroke-linecap="round" stroke-linejoin="round" stroke-width="1"/>
          </g>
        </g>
        <path id="Path_38239" data-name="Path 38239" d="M1.1,5.023h0Z" transform="translate(-1.1 -3.299)" fill="none" stroke="#000" stroke-width="1"/>
        <g id="Group_112444" data-name="Group 112444" transform="translate(0 1.724)">
          <g id="Group_112452" data-name="Group 112452" transform="translate(0)">
            <line id="Line_306" data-name="Line 306" x2="0.66" fill="none" stroke="#000" stroke-linecap="round" stroke-linejoin="round" stroke-width="1"/>
          </g>
        </g>
        <path id="Path_38240" data-name="Path 38240" d="M5.023,8.1v0Z" transform="translate(-3.299 -4.656)" fill="none" stroke="#000" stroke-width="1"/>
        <g id="Group_112446" data-name="Group 112446" transform="translate(1.724 2.787)">
          <g id="Group_112453" data-name="Group 112453" transform="translate(0 0)">
            <line id="Line_307" data-name="Line 307" y1="0.66" fill="none" stroke="#000" stroke-linecap="round" stroke-linejoin="round" stroke-width="1"/>
          </g>
        </g>
        <path id="Path_38241" data-name="Path 38241" d="M7.443,5.023h0Z" transform="translate(-4.656 -3.299)" fill="none" stroke="#000" stroke-width="1"/>
        <g id="Group_112448" data-name="Group 112448" transform="translate(2.787 1.724)">
          <g id="Group_112450" data-name="Group 112450" transform="translate(0)">
            <line id="Line_308" data-name="Line 308" x1="0.66" fill="none" stroke="#000" stroke-linecap="round" stroke-linejoin="round" stroke-width="1"/>
          </g>
        </g>
      </g>
      <g id="Group_112454" data-name="Group 112454" transform="translate(28.949 0)">
        <path id="Path_38238-2" data-name="Path 38238" d="M5.023,1.76v0Z" transform="translate(-3.299 -1.1)" fill="none" stroke="#000" stroke-width="1"/>
        <g id="Group_112442-2" data-name="Group 112442" transform="translate(1.724)">
          <g id="Group_112451-2" data-name="Group 112451" transform="translate(0 0)">
            <line id="Line_305-2" data-name="Line 305" y2="0.66" fill="none" stroke="#000" stroke-linecap="round" stroke-linejoin="round" stroke-width="1"/>
          </g>
        </g>
        <path id="Path_38239-2" data-name="Path 38239" d="M1.1,5.023h0Z" transform="translate(-1.1 -3.299)" fill="none" stroke="#000" stroke-width="1"/>
        <g id="Group_112444-2" data-name="Group 112444" transform="translate(0 1.724)">
          <g id="Group_112452-2" data-name="Group 112452" transform="translate(0)">
            <line id="Line_306-2" data-name="Line 306" x2="0.66" fill="none" stroke="#000" stroke-linecap="round" stroke-linejoin="round" stroke-width="1"/>
          </g>
        </g>
        <path id="Path_38240-2" data-name="Path 38240" d="M5.023,8.1v0Z" transform="translate(-3.299 -4.656)" fill="none" stroke="#000" stroke-width="1"/>
        <g id="Group_112446-2" data-name="Group 112446" transform="translate(1.724 2.787)">
          <g id="Group_112453-2" data-name="Group 112453" transform="translate(0 0)">
            <line id="Line_307-2" data-name="Line 307" y1="0.66" fill="none" stroke="#000" stroke-linecap="round" stroke-linejoin="round" stroke-width="1"/>
          </g>
        </g>
        <path id="Path_38241-2" data-name="Path 38241" d="M7.443,5.023h0Z" transform="translate(-4.656 -3.299)" fill="none" stroke="#000" stroke-width="1"/>
        <g id="Group_112448-2" data-name="Group 112448" transform="translate(2.787 1.724)">
          <g id="Group_112450-2" data-name="Group 112450" transform="translate(0)">
            <line id="Line_308-2" data-name="Line 308" x1="0.66" fill="none" stroke="#000" stroke-linecap="round" stroke-linejoin="round" stroke-width="1"/>
          </g>
        </g>
      </g>
      <g id="Group_112460" data-name="Group 112460" transform="translate(19.254 17.052)">
        <path id="Path_38224" data-name="Path 38224" d="M56.567,45.218a5.433,5.433,0,1,1-5.433-5.433A5.433,5.433,0,0,1,56.567,45.218Z" transform="translate(-45.701 -39.785)" fill="#fff" stroke="#000" stroke-linecap="round" stroke-linejoin="round" stroke-width="1"/>
        <line id="Line_303" data-name="Line 303" x2="2.258" y2="2.258" transform="translate(9.16 9.524)" fill="none" stroke="#000" stroke-linecap="round" stroke-width="1"/>
        <g id="Group_112456" data-name="Group 112456" transform="translate(2.667 3.554)">
          <g id="Group_112458" data-name="Group 112458" transform="translate(0)">
            <path id="Path_38242" data-name="Path 38242" d="M2.52,0a.544.544,0,0,1,.3.093.507.507,0,0,1,.2.329l.568,2.436h.028L4.16.325a.363.363,0,0,1,.2-.284A.522.522,0,0,1,4.673.014a.416.416,0,0,1,.267.173A.408.408,0,0,1,4.97.526L4.264,3.288a.623.623,0,0,1-.221.363.67.67,0,0,1-.395.107.671.671,0,0,1-.4-.111.6.6,0,0,1-.218-.353L2.513,1.17H2.485L1.959,3.294a.6.6,0,0,1-.218.353.671.671,0,0,1-.4.111.671.671,0,0,1-.4-.111.6.6,0,0,1-.218-.353L.021.547A.425.425,0,0,1,.056.2.422.422,0,0,1,.34.014.6.6,0,0,1,.679.042a.372.372,0,0,1,.208.3l.5,2.512h.028l.6-2.422A.521.521,0,0,1,2.212.1.556.556,0,0,1,2.52,0" transform="translate(0.27 0)"/>
            <line id="Line_309" data-name="Line 309" x2="5.532" transform="translate(0 1.879)" fill="none" stroke="#000" stroke-linecap="round" stroke-width="0.8"/>
          </g>
        </g>
      </g>
    </g>
    <rect id="Rectangle_20554" data-name="Rectangle 20554" width="40" height="40" transform="translate(1592 -201.828)" fill="none"/>
  </g>
</svg>
