<svg id="icon_army" xmlns="http://www.w3.org/2000/svg" width="18" height="18" viewBox="0 0 18 18">
  <rect id="사각형_3529" data-name="사각형 3529" width="18" height="18" fill="none"/>
  <g id="그룹_109431" data-name="그룹 109431" transform="translate(3.591 1)">
    <g id="그룹_109432" data-name="그룹 109432">
      <path id="패스_36349" data-name="패스 36349" d="M22.733,35.629,17.605,37.5a.244.244,0,0,1-.169,0l-5.128-1.871a.328.328,0,0,1-.2-.314V33.153a.293.293,0,0,1,.367-.314l4.959,1.809a.244.244,0,0,0,.169,0l4.959-1.809a.293.293,0,0,1,.366.314v2.162a.328.328,0,0,1-.2.314" transform="translate(-12.111 -21.515)" fill="none" stroke="#000" stroke-width="1"/>
      <path id="패스_36350" data-name="패스 36350" d="M22.733,23.293l-5.128,1.871a.244.244,0,0,1-.169,0l-5.128-1.871a.328.328,0,0,1-.2-.314V20.817a.293.293,0,0,1,.367-.314l4.959,1.809a.244.244,0,0,0,.169,0L22.565,20.5a.293.293,0,0,1,.366.314v2.162a.328.328,0,0,1-.2.314" transform="translate(-12.111 -13.87)" fill="none" stroke="#000" stroke-width="1"/>
      <path id="패스_36351" data-name="패스 36351" d="M24.678,2.942l.737,1.494,1.649.24a.3.3,0,0,1,.165.507L26.035,6.345l.282,1.642a.3.3,0,0,1-.432.314l-1.475-.775L22.937,8.3a.3.3,0,0,1-.432-.314l.281-1.642L21.594,5.182a.3.3,0,0,1,.165-.507l1.648-.24.737-1.494a.3.3,0,0,1,.533,0" transform="translate(-19.001 -2.776)" fill="none" stroke="#474c98" stroke-width="1"/>
    </g>
  </g>
</svg>
