<svg xmlns="http://www.w3.org/2000/svg" xmlns:xlink="http://www.w3.org/1999/xlink" width="50" height="44" viewBox="0 0 50 44">
  <defs>
    <linearGradient id="linear-gradient" x1="-0.249" y1="-0.526" x2="0.63" y2="0.855" gradientUnits="objectBoundingBox">
      <stop offset="0" stop-color="#ff628c" stop-opacity="0"/>
      <stop offset="0.029" stop-color="#e682ba" stop-opacity="0.027"/>
      <stop offset="1" stop-color="#f42664"/>
    </linearGradient>
    <filter id="다각형_37" x="0" y="0" width="50" height="44" filterUnits="userSpaceOnUse">
      <feOffset dx="2" dy="4" input="SourceAlpha"/>
      <feGaussianBlur stdDeviation="2" result="blur"/>
      <feFlood flood-opacity="0.161"/>
      <feComposite operator="in" in2="blur"/>
      <feComposite in="SourceGraphic"/>
    </filter>
  </defs>
  <g id="그룹_110101" data-name="그룹 110101" transform="translate(8235.075 18439.386)">
    <g transform="matrix(1, 0, 0, 1, -8235.08, -18439.39)" filter="url(#다각형_37)">
      <path id="다각형_37-2" data-name="다각형 37" d="M17.28,2.9a2,2,0,0,1,3.439,0L36.206,28.979A2,2,0,0,1,34.487,32H3.513a2,2,0,0,1-1.72-3.021Z" transform="translate(4 2)" fill="url(#linear-gradient)"/>
    </g>
    <g id="그룹_110101-2" data-name="그룹 110101" transform="translate(-8213.516 -18424.596)">
      <g id="그룹_110100" data-name="그룹 110100" transform="translate(0 0)">
        <path id="패스_36391" data-name="패스 36391" d="M.391,8.162.085,3.594Q0,2.261,0,1.68A1.739,1.739,0,0,1,.413.442,1.425,1.425,0,0,1,1.507,0,1.1,1.1,0,0,1,2.6.566,3.82,3.82,0,0,1,2.881,2.2,12.184,12.184,0,0,1,2.813,3.48l-.41,4.7A3.647,3.647,0,0,1,2.119,9.47a.755.755,0,0,1-.726.446.72.72,0,0,1-.716-.433A4.358,4.358,0,0,1,.391,8.162" transform="translate(0 0)" fill="#fff" fill-rule="evenodd"/>
        <path id="패스_36392" data-name="패스 36392" d="M1.449,30.646a1.506,1.506,0,0,1-1.016-.378A1.317,1.317,0,0,1,0,29.217a1.373,1.373,0,0,1,.413-1.01,1.384,1.384,0,0,1,1.019-.414,1.413,1.413,0,0,1,1.025.414,1.355,1.355,0,0,1,.424,1.01,1.332,1.332,0,0,1-.43,1.048,1.461,1.461,0,0,1-1,.381" transform="translate(0 -16.207)" fill="#fff" fill-rule="evenodd"/>
      </g>
    </g>
  </g>
</svg>
