<svg xmlns="http://www.w3.org/2000/svg" width="50.001" height="50.001" viewBox="0 0 50.001 50.001">
  <g id="alarm" transform="translate(-0.932 -0.659)">
    <g id="타원_231" data-name="타원 231" transform="translate(0.932 0.659)" stroke="#646464" stroke-width="1">
      <circle cx="25" cy="25" r="25" stroke="none"/>
      <circle cx="25" cy="25" r="24.5" fill="none"/>
    </g>
    <g id="icon_alarm" transform="translate(14.681 14.409)">
      <path id="icon" d="M-1271.346-717.275h-2.831A2.828,2.828,0,0,1-1277-720.1a2.83,2.83,0,0,1,1.614-2.552v-3.715a8.078,8.078,0,0,1,8.069-8.069,8.077,8.077,0,0,1,8.068,8.069v3.715a2.827,2.827,0,0,1,1.613,2.552v.605a2.221,2.221,0,0,1-2.218,2.219h-3.436a4.039,4.039,0,0,1-4.027,3.817A4.039,4.039,0,0,1-1271.346-717.275Zm4.028,2.2a2.423,2.423,0,0,0,2.41-2.2h-4.821A2.424,2.424,0,0,0-1267.318-715.072Zm7.463-3.817a.605.605,0,0,0,.6-.606v-.605a1.21,1.21,0,0,0-1.21-1.21h-.4v-5.057a6.455,6.455,0,0,0-6.454-6.456,6.455,6.455,0,0,0-6.455,6.456v5.057h-.4a1.21,1.21,0,0,0-1.21,1.21,1.21,1.21,0,0,0,1.21,1.211h14.322Z" transform="translate(1278.25 735.685)" fill="#fff"/>
      <rect id="사각형_3192" data-name="사각형 3192" width="22.5" height="22.5" fill="#fff" opacity="0"/>
    </g>
  </g>
</svg>
