<svg xmlns="http://www.w3.org/2000/svg" width="105" height="98" viewBox="0 0 105 98">
  <g id="img" transform="translate(-12991 -404)">
    <rect id="Rectangle_21741" data-name="Rectangle 21741" width="105" height="98" transform="translate(12991 404)" fill="none"/>
    <g id="Group_115645" data-name="Group 115645" transform="translate(31 -129.037)">
      <g id="Group_115643" data-name="Group 115643" transform="translate(12980.954 548.997)">
        <g id="Group_115644" data-name="Group 115644" transform="translate(1 1)">
          <path id="Path_42613" data-name="Path 42613" d="M65.922,37.7A32.461,32.461,0,1,1,33.461,5.239,32.461,32.461,0,0,1,65.922,37.7" transform="translate(-1 -2.691)" fill="#1d1d1b"/>
          <circle id="Ellipse_743" data-name="Ellipse 743" cx="32.461" cy="32.461" r="32.461" transform="translate(0 2.548)" fill="none" stroke="#000" stroke-linecap="round" stroke-linejoin="round" stroke-width="2"/>
          <path id="Path_42614" data-name="Path 42614" d="M65.922,33.461A32.461,32.461,0,1,1,33.461,1,32.461,32.461,0,0,1,65.922,33.461" transform="translate(-1 -1)" fill="#f06a86" stroke="#000" stroke-linejoin="round" stroke-width="2"/>
          <path id="Path_42616" data-name="Path 42616" d="M52.776,31.717a7.211,7.211,0,0,0-7.346,7.21,7.211,7.211,0,0,0-7.346-7.21,7.369,7.369,0,0,0-7.076,7.449V39.6a18.354,18.354,0,0,0,8.9,15.733l5.52,3.316,5.52-3.316a18.354,18.354,0,0,0,8.9-15.733v-.435a7.369,7.369,0,0,0-7.076-7.449" transform="translate(-12.969 -12.252)" fill="#fff"/>
          <path id="Path_42618" data-name="Path 42618" d="M103.176,86.1,86.219,77.888a2.206,2.206,0,0,0-2.947,2.947l8.207,16.957a2.036,2.036,0,0,0,3.273.553l2.61-2.61,9.652,9.652,3.757-3.757-9.652-9.652,2.61-2.609a2.037,2.037,0,0,0-.553-3.273" transform="translate(-33.725 -31.577)" fill="#1d1d1b"/>
          <path id="Path_42619" data-name="Path 42619" d="M103.176,86.1,86.219,77.888a2.206,2.206,0,0,0-2.947,2.947l8.207,16.957a2.036,2.036,0,0,0,3.273.553l2.61-2.61,9.652,9.652,3.757-3.757-9.652-9.652,2.61-2.609A2.037,2.037,0,0,0,103.176,86.1Z" transform="translate(-33.725 -31.577)" fill="none" stroke="#000" stroke-linecap="round" stroke-linejoin="round" stroke-width="2"/>
          <path id="Path_42620" data-name="Path 42620" d="M103.176,83.1,86.219,74.888a2.206,2.206,0,0,0-2.947,2.947l8.207,16.957a2.036,2.036,0,0,0,3.273.553l2.61-2.61,9.652,9.652,3.757-3.757-9.652-9.652,2.61-2.609a2.037,2.037,0,0,0-.553-3.273" transform="translate(-33.725 -30.381)" fill="#fff" stroke="#000" stroke-width="2"/>
        </g>
      </g>
      <path id="Path_42526" data-name="Path 42526" d="M94.655.45l.6,2.832a3.091,3.091,0,0,0,2.383,2.383l2.832.6a.566.566,0,0,1,0,1.108l-2.832.6a3.089,3.089,0,0,0-2.383,2.383l-.6,2.832a.566.566,0,0,1-1.108,0l-.6-2.832a3.09,3.09,0,0,0-2.384-2.383l-2.832-.6a.566.566,0,0,1,0-1.108l2.832-.6a3.09,3.09,0,0,0,2.384-2.383l.6-2.832a.566.566,0,0,1,1.108,0" transform="translate(13036.611 641.188) rotate(-90)" fill="#ffee24" stroke="#000" stroke-width="2"/>
      <path id="Path_42527" data-name="Path 42527" d="M114.536,18.723l.778,3.678a4.014,4.014,0,0,0,3.094,3.094l3.677.778a.736.736,0,0,1,0,1.439l-3.677.778a4.014,4.014,0,0,0-3.094,3.094l-.778,3.678a.736.736,0,0,1-1.439,0l-.778-3.678a4.014,4.014,0,0,0-3.094-3.094l-3.677-.778a.736.736,0,0,1,0-1.439l3.677-.778a4.014,4.014,0,0,0,3.094-3.094l.778-3.678a.736.736,0,0,1,1.439,0" transform="translate(12947.857 672.363) rotate(-90)" fill="#ffee24" stroke="#000" stroke-width="2"/>
      <path id="Path_42622" data-name="Path 42622" d="M254.729,84.113a2.3,2.3,0,1,1-2.3-2.3A2.3,2.3,0,0,1,254.729,84.113Z" transform="translate(12734.577 461.793)" fill="#fff" stroke="#000" stroke-linecap="round" stroke-linejoin="round" stroke-width="2"/>
      <path id="Path_42623" data-name="Path 42623" d="M254.729,84.113a2.3,2.3,0,1,1-2.3-2.3A2.3,2.3,0,0,1,254.729,84.113Z" transform="translate(12804.271 500.387)" fill="#fff" stroke="#000" stroke-linecap="round" stroke-linejoin="round" stroke-width="2"/>
      <path id="Path_42624" data-name="Path 42624" d="M257.039,85.268a3.457,3.457,0,1,1-3.457-3.457A3.457,3.457,0,0,1,257.039,85.268Z" transform="translate(12728.512 527.387)" fill="#fff" stroke="#000" stroke-linecap="round" stroke-linejoin="round" stroke-width="2"/>
    </g>
  </g>
</svg>
