<svg xmlns="http://www.w3.org/2000/svg" width="32" height="32" viewBox="0 0 32 32">
  <g id="Group_109723" data-name="Group 109723" transform="translate(17043 7322.678)">
    <rect id="Rectangle_19724" data-name="Rectangle 19724" width="32" height="32" transform="translate(-17043 -7322.678)" fill="#fff" opacity="0"/>
    <g id="Group_109717" data-name="Group 109717" transform="translate(-17025.898 -7317)">
      <g id="Group_109722" data-name="Group 109722" transform="translate(0 0)">
        <path id="Path_36908" data-name="Path 36908" d="M29.521,96.778a32.629,32.629,0,0,0-.063,7.8h-10.2a32.629,32.629,0,0,0-.063-7.8" transform="translate(-16.917 -85.34)"/>
        <path id="Path_36909" data-name="Path 36909" d="M25.05,100.765h-10.2a.593.593,0,0,1-.588-.664,32.235,32.235,0,0,0-.061-7.644.593.593,0,0,1,1.172-.177,33.021,33.021,0,0,1,.137,7.3H24.39a33.013,33.013,0,0,1,.137-7.3.593.593,0,0,1,1.172.177,32.322,32.322,0,0,0-.061,7.644.593.593,0,0,1-.588.664" transform="translate(-12.509 -80.932)"/>
        <path id="Path_36910" data-name="Path 36910" d="M45.861,121.61v1.922a2.975,2.975,0,0,0,4.07,0V121.61" transform="translate(-40.425 -107.221)" fill="#fff"/>
        <path id="Path_36911" data-name="Path 36911" d="M43.434,120.519a3.469,3.469,0,0,1-2.4-.979.593.593,0,0,1-.169-.414V117.2a.593.593,0,0,1,1.185,0v1.654a2.329,2.329,0,0,0,2.885-.032V117.2a.593.593,0,0,1,1.185,0v1.923a.593.593,0,0,1-.228.467,3.951,3.951,0,0,1-2.454.927" transform="translate(-36.018 -102.815)"/>
        <path id="Path_36912" data-name="Path 36912" d="M15.649,137.83s4.718.179,4.961,4.157H7.428c.243-3.978,4.96-4.157,4.96-4.157a3.262,3.262,0,0,0,3.26,0" transform="translate(-6.548 -121.526)" fill="#ff8080"/>
        <path id="Path_36913" data-name="Path 36913" d="M16.2,138.171H3.02a.593.593,0,0,1-.592-.629c.218-3.571,3.712-4.644,5.53-4.713a.582.582,0,0,1,.367.11,2.7,2.7,0,0,0,2.656-.051.582.582,0,0,1,.282-.059c1.817.069,5.312,1.142,5.53,4.713a.593.593,0,0,1-.592.629M3.7,136.986H15.521c-.569-2.513-3.485-2.905-4.167-2.963a3.917,3.917,0,0,1-3.517,0c-.73.066-3.577.481-4.138,2.96" transform="translate(-2.139 -117.117)"/>
        <path id="Path_36914" data-name="Path 36914" d="M6.773,77.781a1.112,1.112,0,0,1-.588.169A1.234,1.234,0,0,1,5,76.671a1.259,1.259,0,0,1,.945-1.253" transform="translate(-4.408 -66.495)" fill="#fff"/>
        <path id="Path_36915" data-name="Path 36915" d="M1.777,74.134A1.828,1.828,0,0,1,0,72.262,1.859,1.859,0,0,1,1.41,70.43a.593.593,0,0,1,.256,1.157.668.668,0,0,0-.481.674.645.645,0,0,0,.591.686.518.518,0,0,0,.276-.08.593.593,0,0,1,.624,1.008,1.709,1.709,0,0,1-.9.258" transform="translate(0 -62.086)"/>
        <path id="Path_36916" data-name="Path 36916" d="M105.738,77.781a1.112,1.112,0,0,0,.588.169,1.234,1.234,0,0,0,1.184-1.279,1.259,1.259,0,0,0-.945-1.253" transform="translate(-93.204 -66.495)" fill="#fff"/>
        <path id="Path_36917" data-name="Path 36917" d="M101.918,74.135a1.709,1.709,0,0,1-.9-.258.593.593,0,1,1,.624-1.008.518.518,0,0,0,.276.08.645.645,0,0,0,.591-.686.668.668,0,0,0-.481-.674.593.593,0,0,1,.256-1.157,1.859,1.859,0,0,1,1.41,1.832,1.828,1.828,0,0,1-1.777,1.872" transform="translate(-88.796 -62.087)"/>
        <path id="Path_36918" data-name="Path 36918" d="M21.369,34.912A5.272,5.272,0,0,1,26.9,39.738a5.527,5.527,0,1,1-11.051,0s-1-4.828,5.526-4.828" transform="translate(-13.918 -30.787)" fill="#fff"/>
        <path id="Path_36919" data-name="Path 36919" d="M16.964,41.373a6.19,6.19,0,0,1-6.118-6.193,4.693,4.693,0,0,1,.907-3.584c1.03-1.264,2.783-1.919,5.211-1.919h0a5.881,5.881,0,0,1,6.114,5.392c0,.013,0,.034,0,.047a6.2,6.2,0,0,1-6.118,6.256m0-10.482c-2.047,0-3.488.491-4.283,1.458a3.516,3.516,0,0,0-.66,2.66.628.628,0,0,1,.012.117,4.934,4.934,0,1,0,9.866.021,4.663,4.663,0,0,0-4.934-4.256" transform="translate(-9.513 -26.173)"/>
        <path id="Path_36920" data-name="Path 36920" d="M11.911,13.374s.255-2.473,1.288-2.9c0,0-.008,2.681,3.958,2.6.7,0,2.783-.415,3.127-1.993,0,0,.228,1.738,1.388,1.933s1.29.06,1.29.06.541-.372.577-1.935a6.11,6.11,0,1,0-12.22,0,6.332,6.332,0,0,0,.592,2.243" transform="translate(-9.977 -4.407)"/>
        <path id="Path_36921" data-name="Path 36921" d="M7.5,9.559A.593.593,0,0,1,7,9.274a6.7,6.7,0,0,1-.676-2.5c0-.015,0-.03,0-.045a6.7,6.7,0,1,1,13.407,0v.014c0,1.643-.588,2.223-.8,2.387-.226.181-.626.248-1.756.059a2.057,2.057,0,0,1-1.432-1.1,4.639,4.639,0,0,1-2.978,1.169A4.867,4.867,0,0,1,9.125,8.109a3.1,3.1,0,0,1-.6-.826,6.641,6.641,0,0,0-.429,1.744.593.593,0,0,1-.59.532m8.373-3.486H15.9a.593.593,0,0,1,.563.515c.046.337.312,1.342.9,1.44a6.574,6.574,0,0,0,.882.112h0a3.246,3.246,0,0,0,.293-1.409A5.517,5.517,0,0,0,7.5,6.666,2.224,2.224,0,0,1,8.563,5.518a.592.592,0,0,1,.82.548,1.844,1.844,0,0,0,.587,1.192,3.423,3.423,0,0,0,2.765.765h.013c.591,0,2.294-.34,2.548-1.5a.574.574,0,0,1,.579-.444" transform="translate(-5.57)"/>
        <path id="Path_36922" data-name="Path 36922" d="M36.851,83.879a.544.544,0,1,1-.545-.545.544.544,0,0,1,.545.545" transform="translate(-31.523 -73.473)"/>
        <path id="Path_36923" data-name="Path 36923" d="M82.655,83.879a.544.544,0,1,1-.545-.545.544.544,0,0,1,.545.545" transform="translate(-71.898 -73.473)"/>
      </g>
    </g>
    <g id="Group_109720" data-name="Group 109720" transform="translate(-17043 -7316.853)">
      <path id="Path_36924" data-name="Path 36924" d="M49.915,124.071V121.32l-4.07,0v2.755Z" transform="translate(-40.411 -106.962)" fill="#fff"/>
      <g id="Group_109719" data-name="Group 109719" transform="translate(0 0)">
        <g id="Group_109721" data-name="Group 109721">
          <path id="Path_36925" data-name="Path 36925" d="M45.509,120.256h-4.07a.593.593,0,0,1-.593-.593v-2.755a.593.593,0,0,1,.593-.593h0l4.07,0a.593.593,0,0,1,.592.593v2.751a.593.593,0,0,1-.593.593m-3.477-1.185h2.885V117.5l-2.885,0Z" transform="translate(-36.004 -102.555)"/>
          <path id="Path_36926" data-name="Path 36926" d="M15.634,137.555s4.717.178,4.962,4.157H7.415c.245-3.979,4.962-4.157,4.962-4.157a3.265,3.265,0,0,0,3.257,0" transform="translate(-6.536 -121.284)" fill="#6689ff"/>
          <path id="Path_36927" data-name="Path 36927" d="M16.188,137.9H3.007a.593.593,0,0,1-.592-.629c.22-3.571,3.714-4.644,5.531-4.713a.59.59,0,0,1,.367.11,2.7,2.7,0,0,0,2.653-.051.578.578,0,0,1,.281-.059c1.817.069,5.312,1.142,5.531,4.713a.592.592,0,0,1-.591.629m-12.5-1.185H15.508a3.462,3.462,0,0,0-2.136-2.437,6.681,6.681,0,0,0-2.035-.525,3.921,3.921,0,0,1-3.511,0c-.729.066-3.577.48-4.139,2.96" transform="translate(-2.128 -116.876)"/>
          <path id="Path_36928" data-name="Path 36928" d="M6.771,77.511a1.11,1.11,0,0,1-.589.17A1.232,1.232,0,0,1,5,76.4a1.261,1.261,0,0,1,.946-1.253" transform="translate(-4.407 -66.258)" fill="#fff"/>
          <path id="Path_36929" data-name="Path 36929" d="M1.775,73.864A1.827,1.827,0,0,1,0,71.994a1.861,1.861,0,0,1,1.41-1.831.593.593,0,0,1,.258,1.157.67.67,0,0,0-.482.674.644.644,0,0,0,.59.685.521.521,0,0,0,.277-.081.593.593,0,1,1,.624,1.008,1.711,1.711,0,0,1-.9.259" transform="translate(0 -61.849)"/>
          <path id="Path_36930" data-name="Path 36930" d="M105.7,77.511a1.11,1.11,0,0,0,.589.17,1.232,1.232,0,0,0,1.182-1.278,1.261,1.261,0,0,0-.946-1.253" transform="translate(-93.167 -66.258)" fill="#fff"/>
          <path id="Path_36931" data-name="Path 36931" d="M101.876,73.864a1.712,1.712,0,0,1-.9-.259A.593.593,0,0,1,101.6,72.6a.52.52,0,0,0,.277.081.644.644,0,0,0,.59-.685.67.67,0,0,0-.482-.674.593.593,0,0,1,.258-1.157,1.861,1.861,0,0,1,1.41,1.831,1.827,1.827,0,0,1-1.775,1.87" transform="translate(-88.758 -61.849)"/>
          <path id="Path_36932" data-name="Path 36932" d="M27.252,32.607a5.528,5.528,0,1,1-11.052,0l2.1-5.592,7.2-.153Z" transform="translate(-14.28 -23.689)" fill="#fff"/>
          <path id="Path_36933" data-name="Path 36933" d="M17.319,34.447A6.191,6.191,0,0,1,11.2,28.2a.6.6,0,0,1,.038-.209l2.1-5.592a.593.593,0,0,1,.542-.384l7.2-.152a.6.6,0,0,1,.58.42l1.751,5.745a.6.6,0,0,1,.026.173,6.191,6.191,0,0,1-6.119,6.247M12.386,28.3a4.933,4.933,0,1,0,9.865-.019l-1.593-5.228-6.35.135Z" transform="translate(-9.872 -19.271)"/>
          <path id="Path_36934" data-name="Path 36934" d="M36.273,83.06a.543.543,0,1,1-.543.543.544.544,0,0,1,.543-.543" transform="translate(-31.495 -73.231)"/>
          <path id="Path_36935" data-name="Path 36935" d="M82.088,83.06a.543.543,0,1,1-.543.543.544.544,0,0,1,.543-.543" transform="translate(-71.879 -73.231)"/>
          <path id="Path_36936" data-name="Path 36936" d="M19.033,12.779a2.963,2.963,0,0,0,.431-1.837c-.312.519-2.959,1.673-2.959,1.673a9.393,9.393,0,0,0,.354-1.739c-.463.873-3.545,1.5-3.545,1.5a6.176,6.176,0,0,0,.533-1.886c-2.486,1.424-2.924,2.98-2.924,2.98a6.384,6.384,0,0,1-.6-2.269c0-3.419,2.012-6.2,6.181-6.2,4.519,0,6.181,2.784,6.181,6.2a3.648,3.648,0,0,1-.586,2.216l-.242-1.928a18.87,18.87,0,0,1-2.826,1.29" transform="translate(-9.1 -4.406)"/>
          <path id="Path_36937" data-name="Path 36937" d="M6.517,9.656A.593.593,0,0,1,6.01,9.37a6.75,6.75,0,0,1-.684-2.531c0-.015,0-.03,0-.045C5.325,2.666,7.984,0,12.1,0c4.305,0,6.774,2.477,6.774,6.8,0,0,0,.009,0,.013a4.161,4.161,0,0,1-.73,2.591.593.593,0,0,1-1.036-.315l-.135-1.075-.173.086a16.547,16.547,0,0,1-1.985.84.593.593,0,0,1-.664-.914,1.3,1.3,0,0,0,.124-.209c-.646.359-1.394.7-1.939.939A.593.593,0,0,1,11.544,8c.026-.07.051-.149.075-.235a13.645,13.645,0,0,1-2.592.785.593.593,0,0,1-.565-.97.755.755,0,0,0,.075-.164A4.4,4.4,0,0,0,7.087,9.223a.592.592,0,0,1-.49.427.615.615,0,0,1-.08.005M6.51,6.771a7.782,7.782,0,0,0,.135.889,8.335,8.335,0,0,1,2.5-2.091.593.593,0,0,1,.881.6c-.038.264-.1.613-.178.961a4.889,4.889,0,0,0,2.08-.937.593.593,0,0,1,1.113.342c-.006.055-.034.3-.086.623a7.729,7.729,0,0,0,1.6-.94.593.593,0,0,1,1.089.255,3.853,3.853,0,0,1-.019.867c.834-.376,1.512-.759,1.521-.764l.3.51.229-.029c.006-.085.01-.174.012-.266,0-2.558-.973-5.6-5.589-5.6-4.109,0-5.58,2.881-5.589,5.586m8.044-.548,0,.006,0-.006" transform="translate(-4.694 0.001)"/>
        </g>
      </g>
    </g>
  </g>
</svg>
