<?xml version="1.0" encoding="utf-8"?>
<!-- Generator: Adobe Illustrator 26.2.1, SVG Export Plug-In . SVG Version: 6.00 Build 0)  -->
<svg version="1.1" id="Layer_2" xmlns="http://www.w3.org/2000/svg" xmlns:xlink="http://www.w3.org/1999/xlink" x="0px" y="0px" viewBox="0 0 63 106" style="enable-background:new 0 0 63 106;" xml:space="preserve">
<style type="text/css">
.st0{fill:#F6E0D6;}
.st1{fill:none;stroke:#000000;stroke-width:3;stroke-linecap:round;stroke-linejoin:round;}
.st2{fill:none;stroke:#000000;stroke-width:2;stroke-linecap:round;stroke-linejoin:round;}
.st3{fill:none;stroke:#000000;stroke-width:1.2;}
.st4{fill:#FF5BB9;stroke:#707070;}
	
.heart {transform-origin: 50% 100%; animation:heart linear both infinite 1.5s;}
@keyframes heart {
0% {transform: scale(0.4) translateY(0); opacity:0;}	
25% {transform: scale(1) translateY(0); opacity:1;}
50% {transform:translateY(0); opacity:1;}
75% {transform:translateY(-10px); opacity:0.5;}
100% {transform:translateY(-30px); opacity:0;}
}
</style>
<g class="heart">
	<path id="패스_38046" class="st4" d="M38.9,3.7c-3.8-0.1-6.9,3-7,6.8v0.1c0-3.8-3.1-6.9-6.9-6.9h-0.1c-3.8,0.2-6.8,3.3-6.8,7.1
		v0.4c0,6.2,3.2,11.9,8.5,15l5.3,3.2l5.3-3.2c5.3-3.2,8.5-8.9,8.5-15v-0.4C45.7,7,42.7,3.8,38.9,3.7"/>
	<path id="패스_38047" class="st1" d="M38.9,3.7c-3.8-0.1-6.9,3-7,6.8v0.1c0-3.8-3.1-6.9-6.9-6.9h-0.1c-3.8,0.2-6.8,3.3-6.8,7.1
		v0.4c0,6.2,3.2,11.9,8.5,15l5.3,3.2l5.3-3.2c5.3-3.2,8.5-8.9,8.5-15v-0.4C45.7,7,42.7,3.8,38.9,3.7z"/>
</g>
<g>
	<path id="패스_38041" class="st0" d="M31,46.7c0,0,4.6-13,12.6-14.3s3.8,8.7,1.3,14.6c-1.4,3.7-1.6,7.7-0.7,11.5L31,46.7z"/>
	<path id="패스_38042" class="st1" d="M31,46.7c0,0,4.6-13,12.6-14.3s3.8,8.7,1.3,14.6c-1.4,3.7-1.6,7.7-0.7,11.5L31,46.7z"/>
</g>
<path id="패스_38043" class="st0" d="M14.8,33.2c-2.3,2.5-2.2,6.4,0.2,8.7l11,11c-2.9-1.8-6.7-0.9-8.4,2c-1.5,2.4-1.1,5.5,0.9,7.5
	c-2.9-1.7-6.7-0.8-8.4,2.2c-1.4,2.4-1,5.5,0.9,7.5l1.1,1.1c-2.4-1-5.2-0.4-7,1.6c-2.1,2.5-2,6.2,0.4,8.5l4.6,4.6l8,8
	c8.6,8.6,22.5,8.6,31.1,0l3-3c8.6-8.6,8.6-22.5,0-31.1l-8-8L23.6,33.2C21.2,30.8,17.3,30.8,14.8,33.2C14.9,33.2,14.9,33.2,14.8,33.2
	L14.8,33.2"/>
<path id="패스_38045" class="st2" d="M14.8,33.2c-2.3,2.5-2.2,6.4,0.2,8.7l11,11c-2.9-1.8-6.7-0.9-8.4,2c-1.5,2.4-1.1,5.5,0.9,7.5
	c-2.9-1.7-6.7-0.8-8.4,2.2c-1.4,2.4-1,5.5,0.9,7.5l1.1,1.1c-2.4-1-5.2-0.4-7,1.6c-2.1,2.5-2,6.2,0.4,8.5l4.6,4.6l8,8
	c8.6,8.6,22.5,8.6,31.1,0l3-3c8.6-8.6,8.6-22.5,0-31.1l-8-8L23.6,33.2C21.2,30.8,17.3,30.8,14.8,33.2C14.9,33.2,14.9,33.2,14.8,33.2
	L14.8,33.2z"/>
<path id="패스_38045_00000100384563464090144460000010001854492769512837_" class="st1" d="M14.8,33.2c-2.3,2.5-2.2,6.4,0.2,8.7
	l11,11c-2.9-1.8-6.7-0.9-8.4,2c-1.5,2.4-1.1,5.5,0.9,7.5c-2.9-1.7-6.7-0.8-8.4,2.2c-1.4,2.4-1,5.5,0.9,7.5l1.1,1.1
	c-2.4-1-5.2-0.4-7,1.6c-2.1,2.5-2,6.2,0.4,8.5l4.6,4.6l8,8c8.6,8.6,22.5,8.6,31.1,0l3-3c8.6-8.6,8.6-22.5,0-31.1l-8-8L23.6,33.2
	C21.2,30.8,17.3,30.8,14.8,33.2C14.9,33.2,14.9,33.2,14.8,33.2L14.8,33.2z"/>
<line id="선_818" class="st3" x1="26.1" y1="53" x2="34.3" y2="61.2"/>
<line id="선_819" class="st1" x1="26.1" y1="53" x2="34.3" y2="61.2"/>
<line id="선_820" class="st3" x1="18.5" y1="62.5" x2="25.7" y2="69.7"/>
<line id="선_821" class="st1" x1="18.5" y1="62.5" x2="25.7" y2="69.7"/>
<line id="선_822" class="st3" x1="12.2" y1="73.2" x2="17.2" y2="78.3"/>
<line id="선_823" class="st1" x1="12.2" y1="73.2" x2="17.2" y2="78.3"/>
</svg>
