<svg xmlns="http://www.w3.org/2000/svg" width="105" height="98" viewBox="0 0 105 98">
  <g id="img" transform="translate(-13152 -168)">
    <rect id="Rectangle_21727" data-name="Rectangle 21727" width="105" height="98" transform="translate(13152 168)" fill="none"/>
    <g id="Group_115605" data-name="Group 115605" transform="translate(13148.914 174.079)">
      <g id="Group_115606" data-name="Group 115606" transform="translate(3.402 0.402)">
        <path id="Path_42528" data-name="Path 42528" d="M82.893,22.58a11.154,11.154,0,0,0-7,13.963,11.154,11.154,0,0,0-13.824-7.271,11.329,11.329,0,0,0-7.347,14.306h0A32.332,32.332,0,0,0,74.985,64.26l11.034,3.8,6.757-9.514A32.335,32.335,0,0,0,97.2,29.928,11.33,11.33,0,0,0,82.893,22.58" transform="translate(-35.801 -13.524)" fill="#f06a86" stroke="#000" stroke-linejoin="round" stroke-width="2"/>
        <path id="Path_42530" data-name="Path 42530" d="M194.491,48.217a4.413,4.413,0,0,0-6.034,1.332,4.413,4.413,0,0,0-1.214-6.059,4.482,4.482,0,0,0-6.226,1.31,12.791,12.791,0,0,0-1.3,11.381l1.585,4.336,4.607-.3a12.791,12.791,0,0,0,9.892-5.777,4.482,4.482,0,0,0-1.31-6.226" transform="translate(-110.23 -25.903)" fill="#f06a86" stroke="#000" stroke-linejoin="round" stroke-width="2"/>
        <rect id="Rectangle_21721" data-name="Rectangle 21721" width="26.311" height="37.772" transform="translate(63.606 39.275)" fill="#b88031" stroke="#000" stroke-linecap="round" stroke-linejoin="round" stroke-width="2"/>
        <rect id="Rectangle_21723" data-name="Rectangle 21723" width="47.382" height="37.772" transform="translate(16.224 39.275)" fill="#b88031" stroke="#000" stroke-linecap="round" stroke-linejoin="round" stroke-width="2"/>
        <path id="Path_42532" data-name="Path 42532" d="M69.375,114.094H21.994L32.827,98.349H80.21Z" transform="translate(-16.603 -59.073)" fill="#b88031" stroke="#000" stroke-linecap="round" stroke-linejoin="round" stroke-width="2"/>
        <path id="Path_42534" data-name="Path 42534" d="M177.123,114.094h26.311L192.6,98.349H166.289Z" transform="translate(-102.683 -59.073)" fill="#b88031" stroke="#000" stroke-linecap="round" stroke-linejoin="round" stroke-width="2"/>
        <path id="Path_42536" data-name="Path 42536" d="M5.964,90.523l.156.73a2.641,2.641,0,0,0,2.031,2.031l.73.156a.745.745,0,0,1,0,1.457l-.73.156a2.641,2.641,0,0,0-2.031,2.031l-.156.73a.745.745,0,0,1-1.457,0l-.156-.73A2.641,2.641,0,0,0,2.32,95.053l-.73-.156a.745.745,0,0,1,0-1.457l.73-.156a2.641,2.641,0,0,0,2.031-2.031l.156-.73a.745.745,0,0,1,1.457,0" transform="translate(1 -63.79)" fill="#fff" stroke="#000" stroke-linejoin="round" stroke-width="2"/>
        <path id="Path_42538" data-name="Path 42538" d="M158.763,1.589l.156.73a2.641,2.641,0,0,0,2.031,2.031l.73.156a.745.745,0,0,1,0,1.457l-.73.156a2.641,2.641,0,0,0-2.031,2.031l-.156.73a.745.745,0,0,1-1.457,0l-.156-.73a2.641,2.641,0,0,0-2.031-2.031l-.73-.156a.745.745,0,0,1,0-1.457l.73-.156a2.641,2.641,0,0,0,2.031-2.031l.156-.73a.745.745,0,0,1,1.457,0" transform="translate(-95.232 -1)" fill="#fff" stroke="#000" stroke-linejoin="round" stroke-width="2"/>
        <path id="Path_42540" data-name="Path 42540" d="M18.285,67.033a2.263,2.263,0,1,1-2.263-2.263,2.263,2.263,0,0,1,2.263,2.263" transform="translate(-6.611 -49.982)" fill="#fff" stroke="#000" stroke-width="2"/>
        <path id="Path_42541" data-name="Path 42541" d="M255.064,84.28a2.469,2.469,0,1,1-2.469-2.469,2.469,2.469,0,0,1,2.469,2.469" transform="translate(-152.695 -49.208)" fill="#fff" stroke="#000" stroke-linejoin="round" stroke-width="2"/>
        <rect id="Rectangle_21725" data-name="Rectangle 21725" width="7.973" height="8.145" transform="translate(72.775 68.902)" fill="#fec211" stroke="#000" stroke-linecap="round" stroke-linejoin="round" stroke-width="2"/>
        <path id="Path_42543" data-name="Path 42543" d="M130.99,169v-3.3l1.321-1.119v-2.821h-3.489v2.821l1.321,1.119V169l-1.546.427v.42h3.94v-.42Z" transform="translate(-80.198 -96.905)" stroke="#000" stroke-linejoin="round" stroke-width="2"/>
        <path id="Path_42545" data-name="Path 42545" d="M147.409,169v-3.3l1.321-1.119v-2.821h-3.489v2.821l1.321,1.119V169l-1.546.427v.42h3.94v-.42Z" transform="translate(-89.993 -96.905)" stroke="#000" stroke-linejoin="round" stroke-width="2"/>
      </g>
    </g>
  </g>
</svg>
