<svg xmlns="http://www.w3.org/2000/svg" width="32" height="32" viewBox="0 0 32 32">
  <g id="Group_109734" data-name="Group 109734" transform="translate(-32 -130)">
    <rect id="Rectangle_19725" data-name="Rectangle 19725" width="32" height="32" transform="translate(32 130)" fill="#fff" opacity="0"/>
    <g id="Group_109717" data-name="Group 109717" transform="translate(38 132)">
      <g id="Group_109722" data-name="Group 109722" transform="translate(0 0)">
        <path id="Path_36908" data-name="Path 36908" d="M32.48,96.778a41.979,41.979,0,0,0-.081,10.039H19.273a41.979,41.979,0,0,0-.081-10.039" transform="translate(-16.265 -82.02)"/>
        <path id="Path_36909" data-name="Path 36909" d="M28.162,103.341H15.035a.763.763,0,0,1-.757-.854,41.472,41.472,0,0,0-.078-9.834.763.763,0,0,1,1.508-.227,42.482,42.482,0,0,1,.176,9.39H27.313a42.471,42.471,0,0,1,.176-9.39A.763.763,0,0,1,29,92.653a41.583,41.583,0,0,0-.078,9.834.763.763,0,0,1-.757.854" transform="translate(-12.027 -77.781)"/>
        <path id="Path_36910" data-name="Path 36910" d="M45.861,121.61v2.473a3.828,3.828,0,0,0,5.236,0V121.61" transform="translate(-38.867 -103.065)" fill="#fff"/>
        <path id="Path_36911" data-name="Path 36911" d="M44.171,121.639a4.463,4.463,0,0,1-3.093-1.26.763.763,0,0,1-.217-.533v-2.474a.762.762,0,0,1,1.525,0V119.5a3,3,0,0,0,3.711-.041v-2.087a.762.762,0,0,1,1.525,0v2.474a.763.763,0,0,1-.293.6,5.083,5.083,0,0,1-3.158,1.192" transform="translate(-34.63 -98.827)"/>
        <path id="Path_36912" data-name="Path 36912" d="M18,137.83s6.07.23,6.382,5.348H7.428c.312-5.118,6.382-5.348,6.382-5.348a4.2,4.2,0,0,0,4.195,0" transform="translate(-6.295 -116.811)" fill="#ff8080"/>
        <path id="Path_36913" data-name="Path 36913" d="M20.148,139.7H3.19a.763.763,0,0,1-.761-.809c.28-4.594,4.776-5.975,7.114-6.063a.748.748,0,0,1,.472.141,3.469,3.469,0,0,0,3.416-.065.749.749,0,0,1,.363-.077c2.338.088,6.834,1.47,7.114,6.063a.763.763,0,0,1-.761.809M4.064,138.177H19.273c-.732-3.233-4.484-3.738-5.361-3.812a5.039,5.039,0,0,1-4.524,0c-.939.085-4.6.619-5.324,3.809" transform="translate(-2.057 -112.572)"/>
        <path id="Path_36914" data-name="Path 36914" d="M7.281,78.458a1.431,1.431,0,0,1-.757.217A1.588,1.588,0,0,1,5,77.03a1.62,1.62,0,0,1,1.216-1.612" transform="translate(-4.238 -63.917)" fill="#fff"/>
        <path id="Path_36915" data-name="Path 36915" d="M2.286,75.2A2.352,2.352,0,0,1,0,72.791a2.391,2.391,0,0,1,1.814-2.357.763.763,0,0,1,.329,1.489.86.86,0,0,0-.618.867.83.83,0,0,0,.761.883.667.667,0,0,0,.356-.1.762.762,0,1,1,.8,1.3,2.2,2.2,0,0,1-1.158.331" transform="translate(0 -59.678)"/>
        <path id="Path_36916" data-name="Path 36916" d="M105.738,78.458a1.431,1.431,0,0,0,.757.217,1.588,1.588,0,0,0,1.523-1.645,1.62,1.62,0,0,0-1.216-1.612" transform="translate(-89.613 -63.917)" fill="#fff"/>
        <path id="Path_36917" data-name="Path 36917" d="M102.256,75.2a2.2,2.2,0,0,1-1.158-.331.762.762,0,1,1,.8-1.3.667.667,0,0,0,.356.1.83.83,0,0,0,.761-.883.86.86,0,0,0-.618-.867.763.763,0,0,1,.329-1.489,2.391,2.391,0,0,1,1.814,2.357,2.352,2.352,0,0,1-2.286,2.408" transform="translate(-85.374 -59.679)"/>
        <path id="Path_36918" data-name="Path 36918" d="M22.968,34.912a6.783,6.783,0,0,1,7.109,6.209,7.111,7.111,0,1,1-14.218,0s-1.282-6.212,7.109-6.212" transform="translate(-13.381 -29.588)" fill="#fff"/>
        <path id="Path_36919" data-name="Path 36919" d="M18.733,44.724a7.963,7.963,0,0,1-7.871-7.967,6.038,6.038,0,0,1,1.166-4.611c1.325-1.626,3.58-2.468,6.7-2.468h0c7.313,0,7.861,6.869,7.866,6.937,0,.017,0,.043,0,.061a7.973,7.973,0,0,1-7.871,8.048m0-13.486c-2.633,0-4.487.631-5.51,1.876a4.524,4.524,0,0,0-.849,3.423.808.808,0,0,1,.015.151,6.348,6.348,0,1,0,12.693.027,6,6,0,0,0-6.348-5.476" transform="translate(-9.146 -25.152)"/>
        <path id="Path_36920" data-name="Path 36920" d="M12.08,15.774s.328-3.181,1.657-3.735c0,0-.01,3.449,5.093,3.339.9,0,3.58-.534,4.023-2.564,0,0,.294,2.236,1.786,2.487s1.659.077,1.659.077.7-.478.743-2.489a7.861,7.861,0,1,0-15.722,0,8.146,8.146,0,0,0,.761,2.886" transform="translate(-9.593 -4.238)"/>
        <path id="Path_36921" data-name="Path 36921" d="M7.843,12.3a.762.762,0,0,1-.652-.368,8.617,8.617,0,0,1-.869-3.222c0-.02,0-.039,0-.058a8.624,8.624,0,1,1,17.248,0v.018c0,2.113-.757,2.859-1.033,3.071-.291.233-.805.32-2.259.076A2.647,2.647,0,0,1,18.432,10.4,5.968,5.968,0,0,1,14.6,11.9a6.262,6.262,0,0,1-4.672-1.469,3.991,3.991,0,0,1-.775-1.062A8.544,8.544,0,0,0,8.6,11.614a.763.763,0,0,1-.759.684M18.615,7.813h.032a.762.762,0,0,1,.724.663c.06.434.4,1.727,1.156,1.853a8.458,8.458,0,0,0,1.135.143h0a4.176,4.176,0,0,0,.377-1.813,7.1,7.1,0,0,0-14.2-.084A2.861,2.861,0,0,1,9.207,7.1a.761.761,0,0,1,1.056.7,2.372,2.372,0,0,0,.756,1.533,4.4,4.4,0,0,0,3.558.984h.016c.761,0,2.951-.437,3.278-1.936a.738.738,0,0,1,.745-.572" transform="translate(-5.355)"/>
        <path id="Path_36922" data-name="Path 36922" d="M37.163,84.035a.7.7,0,1,1-.7-.7.7.7,0,0,1,.7.7" transform="translate(-30.308 -70.626)"/>
        <path id="Path_36923" data-name="Path 36923" d="M82.967,84.035a.7.7,0,1,1-.7-.7.7.7,0,0,1,.7.7" transform="translate(-69.127 -70.626)"/>
      </g>
    </g>
  </g>
</svg>
