<svg xmlns="http://www.w3.org/2000/svg" width="32" height="32" viewBox="0 0 32 32">
  <g id="Group_116416" data-name="Group 116416" transform="translate(16999.055 8459.036)">
    <rect id="Rectangle_21783" data-name="Rectangle 21783" width="32" height="32" transform="translate(-16999.055 -8459.036)" fill="none"/>
    <g id="Group_115781" data-name="Group 115781" transform="translate(-16995.361 -8455.183)">
      <g id="Group_115782" data-name="Group 115782">
        <path id="Path_51941" data-name="Path 51941" d="M5.825,22.753C2.939,22.753.5,18.18.5,12.768S2.939,2.783,5.825,2.783s5.325,4.573,5.325,9.985-2.439,9.985-5.325,9.985" transform="translate(-0.153 0.922)" fill="#fff" stroke="#000" stroke-width="1.8"/>
        <path id="Path_51943" data-name="Path 51943" d="M4.068,15.44A3.328,3.328,0,1,1,7.4,12.111,3.333,3.333,0,0,1,4.068,15.44" transform="translate(-0.073 2.91)" fill="#82540f"/>
        <path id="Path_51944" data-name="Path 51944" d="M4.233,9.615A2.663,2.663,0,1,1,1.57,12.278,2.665,2.665,0,0,1,4.233,9.615m0-1.331a3.994,3.994,0,1,0,3.994,3.994A3.994,3.994,0,0,0,4.233,8.284" transform="translate(-0.239 2.745)"/>
        <line id="Line_913" data-name="Line 913" y2="3.994" transform="translate(5.673)" fill="none" stroke="#000" stroke-miterlimit="10" stroke-width="1.8"/>
        <line id="Line_914" data-name="Line 914" x2="1.997" y2="3.459" transform="translate(1.466 1.311)" fill="none" stroke="#000" stroke-miterlimit="10" stroke-width="1.8"/>
        <line id="Line_915" data-name="Line 915" x1="1.997" y2="3.459" transform="translate(7.882 1.311)" fill="none" stroke="#000" stroke-miterlimit="10" stroke-width="1.8"/>
        <path id="Path_51951" data-name="Path 51951" d="M2.418,12.139A1.678,1.678,0,1,1,4.1,10.461a1.68,1.68,0,0,1-1.678,1.678" transform="translate(1.578 4.561)"/>
        <path id="Path_51949" data-name="Path 51949" d="M3.239,10.323A1.039,1.039,0,1,0,4.278,9.284a1.04,1.04,0,0,0-1.039,1.039" transform="translate(1.047 4.7)" fill="#fff"/>
      </g>
      <g id="Group_115783" data-name="Group 115783" transform="translate(13.314)">
        <path id="Path_51941-2" data-name="Path 51941" d="M5.825,22.753C2.939,22.753.5,18.18.5,12.768S2.939,2.783,5.825,2.783s5.325,4.573,5.325,9.985-2.439,9.985-5.325,9.985" transform="translate(-0.153 0.922)" fill="#fff" stroke="#000" stroke-width="1.8"/>
        <path id="Path_51943-2" data-name="Path 51943" d="M4.068,15.44A3.328,3.328,0,1,1,7.4,12.111,3.333,3.333,0,0,1,4.068,15.44" transform="translate(-0.073 2.91)" fill="#82540f"/>
        <path id="Path_51944-2" data-name="Path 51944" d="M4.233,9.615A2.663,2.663,0,1,1,1.57,12.278,2.665,2.665,0,0,1,4.233,9.615m0-1.331a3.994,3.994,0,1,0,3.994,3.994A3.994,3.994,0,0,0,4.233,8.284" transform="translate(-0.239 2.745)"/>
        <line id="Line_913-2" data-name="Line 913" y2="3.994" transform="translate(5.673)" fill="none" stroke="#000" stroke-miterlimit="10" stroke-width="1.8"/>
        <line id="Line_914-2" data-name="Line 914" x2="1.997" y2="3.459" transform="translate(1.466 1.311)" fill="none" stroke="#000" stroke-miterlimit="10" stroke-width="1.8"/>
        <line id="Line_915-2" data-name="Line 915" x1="1.997" y2="3.459" transform="translate(7.882 1.311)" fill="none" stroke="#000" stroke-miterlimit="10" stroke-width="1.8"/>
        <path id="Path_51951-2" data-name="Path 51951" d="M2.418,12.139A1.678,1.678,0,1,1,4.1,10.461a1.68,1.68,0,0,1-1.678,1.678" transform="translate(1.578 4.561)"/>
        <path id="Path_51949-2" data-name="Path 51949" d="M3.239,10.323A1.039,1.039,0,1,0,4.278,9.284a1.04,1.04,0,0,0-1.039,1.039" transform="translate(1.047 4.7)" fill="#fff"/>
      </g>
    </g>
  </g>
</svg>
