<svg xmlns="http://www.w3.org/2000/svg" xmlns:xlink="http://www.w3.org/1999/xlink" width="60" height="60" viewBox="0 0 60 60">
  <defs>
    <linearGradient id="linear-gradient" x1="0.099" y1="0.125" x2="0.835" y2="0.89" gradientUnits="objectBoundingBox">
      <stop offset="0" stop-color="#fc0"/>
      <stop offset="1" stop-color="#feaf11"/>
    </linearGradient>
    <filter id="Ellipse_642" x="6" y="8" width="52" height="52" filterUnits="userSpaceOnUse">
      <feOffset dx="2" dy="4" input="SourceAlpha"/>
      <feGaussianBlur stdDeviation="2" result="blur"/>
      <feFlood flood-opacity="0.161"/>
      <feComposite operator="in" in2="blur"/>
      <feComposite in="SourceGraphic"/>
    </filter>
    <linearGradient id="linear-gradient-2" x1="0.13" y1="0.173" x2="0.835" y2="0.89" gradientUnits="objectBoundingBox">
      <stop offset="0" stop-color="#ffee10"/>
      <stop offset="1" stop-color="#feaf11"/>
    </linearGradient>
    <filter id="Ellipse_643">
      <feOffset input="SourceAlpha"/>
      <feGaussianBlur stdDeviation="1" result="blur-2"/>
      <feFlood flood-color="#7e5d00" flood-opacity="0.4" result="color"/>
      <feComposite operator="out" in="SourceGraphic" in2="blur-2"/>
      <feComposite operator="in" in="color"/>
      <feComposite operator="in" in2="SourceGraphic"/>
    </filter>
    <linearGradient id="linear-gradient-3" x1="0.13" y1="0.173" x2="0.835" y2="0.89" gradientUnits="objectBoundingBox">
      <stop offset="0" stop-color="#fffbde"/>
      <stop offset="1" stop-color="#ffed95"/>
    </linearGradient>
    <filter id="Ellipse_668">
      <feOffset input="SourceAlpha"/>
      <feGaussianBlur stdDeviation="1" result="blur-3"/>
      <feFlood flood-color="#7e5d00" flood-opacity="0.4" result="color-2"/>
      <feComposite operator="out" in="SourceGraphic" in2="blur-3"/>
      <feComposite operator="in" in="color-2"/>
      <feComposite operator="in" in2="SourceGraphic"/>
    </filter>
    <linearGradient id="linear-gradient-4" x1="0.267" y1="0.22" x2="0.754" y2="0.918" gradientUnits="objectBoundingBox">
      <stop offset="0" stop-color="#ffbd08"/>
      <stop offset="1" stop-color="#fba700"/>
    </linearGradient>
    <filter id="Polygon_31" x="17" y="17" width="26" height="24.667" filterUnits="userSpaceOnUse">
      <feOffset input="SourceAlpha"/>
      <feGaussianBlur stdDeviation="1" result="blur-4"/>
      <feFlood flood-color="#ffdf5e" flood-opacity="0.302"/>
      <feComposite operator="in" in2="blur-4"/>
      <feComposite in="SourceGraphic"/>
    </filter>
  </defs>
  <g id="Group_112602" data-name="Group 112602" transform="translate(-631 -1056)">
    <rect id="Rectangle_20571" data-name="Rectangle 20571" width="60" height="60" transform="translate(631 1056)" fill="#fff" opacity="0"/>
    <g id="Group_112102" data-name="Group 112102" transform="translate(428 390)">
      <g transform="matrix(1, 0, 0, 1, 203, 666)" filter="url(#Ellipse_642)">
        <circle id="Ellipse_642-2" data-name="Ellipse 642" cx="20" cy="20" r="20" transform="translate(10 10)" fill="url(#linear-gradient)"/>
      </g>
      <g data-type="innerShadowGroup">
        <circle id="Ellipse_643-2" data-name="Ellipse 643" cx="16" cy="16" r="16" transform="translate(217 680)" fill="url(#linear-gradient-2)"/>
        <g transform="matrix(1, 0, 0, 1, 203, 666)" filter="url(#Ellipse_643)">
          <circle id="Ellipse_643-3" data-name="Ellipse 643" cx="16" cy="16" r="16" transform="translate(14 14)" fill="#fff"/>
        </g>
      </g>
      <g data-type="innerShadowGroup">
        <circle id="Ellipse_668-2" data-name="Ellipse 668" cx="16" cy="16" r="16" transform="translate(217 680)" fill="url(#linear-gradient-3)"/>
        <g transform="matrix(1, 0, 0, 1, 203, 666)" filter="url(#Ellipse_668)">
          <circle id="Ellipse_668-3" data-name="Ellipse 668" cx="16" cy="16" r="16" transform="translate(14 14)" fill="#fff"/>
        </g>
      </g>
      <g transform="matrix(1, 0, 0, 1, 203, 666)" filter="url(#Polygon_31)">
        <path id="Polygon_31-2" data-name="Polygon 31" d="M9.1,1.884a1,1,0,0,1,1.8,0l1.862,3.889a1,1,0,0,0,.78.561l4.312.532a1,1,0,0,1,.555,1.728l-3.144,2.894a1,1,0,0,0-.3.927l.814,4.174a1,1,0,0,1-1.457,1.071l-3.843-2.076a1,1,0,0,0-.951,0L5.682,17.661a1,1,0,0,1-1.457-1.071l.814-4.174a1,1,0,0,0-.3-.927L1.59,8.594a1,1,0,0,1,.555-1.728l4.312-.532a1,1,0,0,0,.78-.561Z" transform="translate(20 20)" fill="url(#linear-gradient-4)"/>
      </g>
    </g>
  </g>
</svg>
