<svg xmlns="http://www.w3.org/2000/svg" width="68.89" height="83.171" viewBox="0 0 68.89 83.171">
  <g id="그룹_116307" data-name="그룹 116307" transform="matrix(0.966, 0.259, -0.259, 0.966, 18.81, 3.153)" opacity="0.8">
    <g id="그룹_116291" data-name="그룹 116291" transform="translate(0 0)">
      <path id="패스_52125" data-name="패스 52125" d="M26.634,30.056,30.611,6.732a5.762,5.762,0,0,0-11.36-1.939L15.674,25.778,11.411,4.692A5.762,5.762,0,0,0,.115,6.975L4.779,30.056,4.415,45.391c0,12.027,9.753,20.774,21.78,20.774s19.771-8.746,19.771-20.774V30.056Z" transform="translate(2.073 0)" fill="#fff" stroke="#707070" stroke-linejoin="round" stroke-width="1"/>
      <path id="패스_52126" data-name="패스 52126" d="M26.634,30.056,30.611,6.732a5.762,5.762,0,0,0-11.36-1.939L15.674,25.778,11.411,4.692A5.762,5.762,0,0,0,.115,6.975L4.779,30.056,4.415,45.391c0,12.027,9.753,20.774,21.78,20.774s19.771-8.746,19.771-20.774V30.056Z" transform="translate(2.073 0)" fill="none" stroke="#fff" stroke-linejoin="round" stroke-miterlimit="10" stroke-width="6"/>
      <path id="패스_52127" data-name="패스 52127" d="M9.954,13.465a4.977,4.977,0,0,1-9.955,0V4.978a4.977,4.977,0,1,1,9.954,0Z" transform="translate(28.522 24.283)" fill="#fff" stroke="#707070" stroke-linejoin="round" stroke-width="1"/>
      <path id="패스_52128" data-name="패스 52128" d="M9.954,13.465a4.977,4.977,0,0,1-9.955,0V4.978a4.977,4.977,0,1,1,9.954,0Z" transform="translate(28.522 24.283)" fill="none" stroke="#fff" stroke-linejoin="round" stroke-miterlimit="10" stroke-width="6"/>
      <path id="패스_52129" data-name="패스 52129" d="M10.375,14.03A5.187,5.187,0,0,1,0,14.03V5.186a5.187,5.187,0,0,1,10.375,0Z" transform="translate(38.476 25.512)" fill="#fff" stroke="#707070" stroke-linejoin="round" stroke-width="1"/>
      <path id="패스_52130" data-name="패스 52130" d="M10.375,14.03A5.187,5.187,0,0,1,0,14.03V5.186a5.187,5.187,0,0,1,10.375,0Z" transform="translate(38.476 25.512)" fill="none" stroke="#fff" stroke-linejoin="round" stroke-miterlimit="10" stroke-width="6"/>
      <path id="패스_52131" data-name="패스 52131" d="M16.775,18.1c-2.536-3.291-4.967-4.168-5.577-4.3.072-.049.149-.082.218-.134l5.533-5A4.827,4.827,0,0,0,11.081.993S2.661,8.886,2.006,9.328c-4.514,3.044,0,7.749,0,7.749l9.421,13.769" transform="translate(0 28.474)" fill="#fff" stroke="#707070" stroke-linejoin="round" stroke-width="1"/>
      <path id="패스_52132" data-name="패스 52132" d="M17.278,18.009c-2.612-3.274-5.116-4.147-5.744-4.281.074-.049.154-.081.224-.134l5.7-4.977a4.7,4.7,0,0,0,.924-6.734A5.089,5.089,0,0,0,11.413.989S2.741,8.842,2.066,9.282c-4.649,3.03,0,7.711,0,7.711l9.7,13.7" transform="translate(0 28.474)" fill="none" stroke="#fff" stroke-linejoin="round" stroke-miterlimit="10" stroke-width="6"/>
      <path id="패스_52133" data-name="패스 52133" d="M26.634,30.056,30.611,6.732a5.762,5.762,0,0,0-11.36-1.939L15.674,25.778,11.411,4.692A5.762,5.762,0,0,0,.115,6.975L4.779,30.056,4.415,45.391c0,12.027,9.753,20.774,21.78,20.774s19.771-8.746,19.771-20.774V30.056Z" transform="translate(2.073 0)" fill="#fff" stroke="#707070" stroke-linejoin="round" stroke-width="1"/>
      <path id="패스_52134" data-name="패스 52134" d="M26.634,30.056,30.611,6.732a5.762,5.762,0,0,0-11.36-1.939L15.674,25.778,11.411,4.692A5.762,5.762,0,0,0,.115,6.975L4.779,30.056,4.415,45.391c0,12.027,9.753,20.774,21.78,20.774s19.771-8.746,19.771-20.774V30.056Z" transform="translate(2.073 0)" fill="none" stroke="#2444a6" stroke-linecap="round" stroke-linejoin="round" stroke-width="2"/>
      <path id="패스_52135" data-name="패스 52135" d="M9.954,13.465a4.977,4.977,0,0,1-9.955,0V4.978a4.977,4.977,0,1,1,9.954,0Z" transform="translate(28.522 24.283)" fill="#fff" stroke="#707070" stroke-linejoin="round" stroke-width="1"/>
      <path id="패스_52136" data-name="패스 52136" d="M9.954,13.465a4.977,4.977,0,0,1-9.955,0V4.978a4.977,4.977,0,1,1,9.954,0Z" transform="translate(28.522 24.283)" fill="none" stroke="#2444a6" stroke-linecap="round" stroke-linejoin="round" stroke-width="2"/>
      <path id="패스_52137" data-name="패스 52137" d="M10.375,14.03A5.187,5.187,0,0,1,0,14.03V5.186a5.187,5.187,0,0,1,10.375,0Z" transform="translate(38.476 25.512)" fill="#fff" stroke="#707070" stroke-linejoin="round" stroke-width="1"/>
      <path id="패스_52138" data-name="패스 52138" d="M10.375,14.03A5.187,5.187,0,0,1,0,14.03V5.186a5.187,5.187,0,0,1,10.375,0Z" transform="translate(38.476 25.512)" fill="none" stroke="#2444a6" stroke-linecap="round" stroke-linejoin="round" stroke-width="2"/>
      <path id="패스_52139" data-name="패스 52139" d="M16.775,18.1c-2.536-3.291-4.967-4.168-5.577-4.3.072-.049.149-.082.218-.134l5.533-5A4.827,4.827,0,0,0,11.081.993S2.661,8.886,2.006,9.328c-4.514,3.044,0,7.749,0,7.749l9.421,13.769" transform="translate(0 28.474)" fill="#fff" stroke="#707070" stroke-linejoin="round" stroke-width="1"/>
      <path id="패스_52140" data-name="패스 52140" d="M16.745,17.76c-2.531-3.229-4.958-4.09-5.567-4.221.071-.048.149-.08.217-.132L16.918,8.5a4.684,4.684,0,0,0,.9-6.641A4.873,4.873,0,0,0,11.061.975S2.656,8.72,2,9.153c-4.506,2.988,0,7.6,0,7.6l9.4,13.511" transform="translate(0 28.474)" fill="none" stroke="#2444a6" stroke-linecap="round" stroke-linejoin="round" stroke-width="2"/>
    </g>
  </g>
</svg>
