<?xml version="1.0" encoding="utf-8"?>
<!-- Generator: Adobe Illustrator 26.3.1, SVG Export Plug-In . SVG Version: 6.00 Build 0)  -->
<svg version="1.1" id="Layer_1" xmlns="http://www.w3.org/2000/svg" xmlns:xlink="http://www.w3.org/1999/xlink" x="0px" y="0px"
	 viewBox="0 0 32 32" style="enable-background:new 0 0 32 32;" xml:space="preserve">
<style type="text/css">
	.st0{fill:#FFC1C1;}
	.st1{fill:none;stroke:#000000;stroke-width:1.5;}
	.st2{enable-background:new    ;}
</style>
<g id="Group_109727" transform="translate(-130 -332)">
	<g id="Ellipse_279" transform="translate(130 332)">
		<circle class="st0" cx="16" cy="16" r="16"/>
		<circle class="st1" cx="16" cy="16" r="15.2"/>
	</g>
	<g class="st2">
		<path d="M145.6,352h-5.8v-1.2l2.8-2.9c0.4-0.4,0.7-0.8,0.8-1.1s0.3-0.6,0.3-0.9c0-0.4-0.1-0.7-0.3-0.9s-0.5-0.3-0.8-0.3
			c-0.4,0-0.7,0.1-0.9,0.4s-0.3,0.6-0.3,1h-1.7c0-0.5,0.1-1,0.4-1.4s0.6-0.8,1.1-1s1-0.4,1.5-0.4c0.9,0,1.6,0.2,2,0.6s0.7,1,0.7,1.8
			c0,0.4-0.1,0.9-0.3,1.3s-0.6,0.9-1.1,1.5l-1.9,2h3.7V352z"/>
		<path d="M152.3,348.5c0,1.2-0.2,2.1-0.7,2.7s-1.2,0.9-2.1,0.9c-0.9,0-1.6-0.3-2.1-0.9s-0.7-1.5-0.8-2.6V347c0-1.2,0.2-2.1,0.7-2.7
			s1.2-0.9,2.1-0.9s1.6,0.3,2.1,0.9s0.7,1.5,0.8,2.6V348.5z M150.6,346.7c0-0.7-0.1-1.2-0.3-1.5c-0.2-0.3-0.5-0.5-0.9-0.5
			c-0.4,0-0.7,0.2-0.9,0.5c-0.2,0.3-0.3,0.8-0.3,1.4v2.1c0,0.7,0.1,1.2,0.3,1.6c0.2,0.3,0.5,0.5,0.9,0.5c0.4,0,0.7-0.2,0.9-0.5
			c0.2-0.3,0.3-0.8,0.3-1.5V346.7z"/>
	</g>
</g>
</svg>
