<svg xmlns="http://www.w3.org/2000/svg" width="89" height="84" viewBox="0 0 89 84">
  <g id="img" transform="translate(-12968 -536)">
    <rect id="Rectangle_21735" data-name="Rectangle 21735" width="89" height="84" transform="translate(12968 536)" fill="none"/>
    <g id="Group_115630" data-name="Group 115630" transform="translate(-1.799 576.469)">
      <g id="Group_115622" data-name="Group 115622" transform="translate(12993.327 -36.647)">
        <rect id="Rectangle_21730" data-name="Rectangle 21730" width="12.237" height="48.229" transform="translate(34.827 14.475)" fill="#fec211" stroke="#000" stroke-linecap="round" stroke-linejoin="round" stroke-width="2"/>
        <path id="Path_42573" data-name="Path 42573" d="M89.111,80.379v0Z" transform="translate(-48.165 -17.675)" fill="#fff"/>
        <g id="Group_115621" data-name="Group 115621" transform="translate(0 0)">
          <g id="Group_115623" data-name="Group 115623">
            <line id="Line_1837" data-name="Line 1837" y2="48.229" transform="translate(40.945 14.475)" fill="none" stroke="#000" stroke-linecap="round" stroke-linejoin="round" stroke-width="2"/>
            <line id="Line_1838" data-name="Line 1838" y1="9.308" x2="6.118" transform="translate(34.827 53.397)" fill="none" stroke="#000" stroke-linecap="round" stroke-linejoin="round" stroke-width="2"/>
            <line id="Line_1839" data-name="Line 1839" x1="6.119" y1="9.308" transform="translate(40.945 53.397)" fill="none" stroke="#000" stroke-linecap="round" stroke-linejoin="round" stroke-width="2"/>
            <path id="Path_42574" data-name="Path 42574" d="M41.709,15.476V9.986a8.987,8.987,0,0,0-17.973,0v5.49" transform="translate(-13.17 -1.001)" fill="none" stroke="#000" stroke-linecap="round" stroke-linejoin="round" stroke-width="2"/>
            <path id="Path_42575" data-name="Path 42575" d="M68.407,15.476V9.986a8.986,8.986,0,0,0-17.973,0v5.49" transform="translate(-27.462 -1.001)" fill="none" stroke="#000" stroke-linecap="round" stroke-linejoin="round" stroke-width="2"/>
            <rect id="Rectangle_21733" data-name="Rectangle 21733" width="34.827" height="48.229" transform="translate(0 14.475)" fill="#7582f0" stroke="#000" stroke-linecap="round" stroke-linejoin="round" stroke-width="2"/>
            <line id="Line_1840" data-name="Line 1840" y2="8.247" transform="translate(27.19 14.475)" fill="#fff"/>
            <line id="Line_1841" data-name="Line 1841" y2="8.247" transform="translate(27.19 14.475)" fill="none" stroke="#000" stroke-linecap="round" stroke-linejoin="round" stroke-width="2"/>
            <path id="Path_42576" data-name="Path 42576" d="M64.573,56.547h-6.04v-10.4l3.02-2.591,3.02,2.591Z" transform="translate(-34.362 -22.27)" fill="#fff" stroke="#000" stroke-linecap="round" stroke-linejoin="round" stroke-width="2"/>
          </g>
        </g>
      </g>
      <g id="Group_115628" data-name="Group 115628" transform="translate(13030.784 -5.295)">
        <g id="Group_115627" data-name="Group 115627" transform="translate(0)">
          <path id="Path_42578" data-name="Path 42578" d="M24.35,5.126A3.872,3.872,0,0,1,20.8,9.253a3.872,3.872,0,0,1-3.552-4.126A3.872,3.872,0,0,1,20.8,1,3.872,3.872,0,0,1,24.35,5.126" transform="translate(-11.189 -1)" fill="#fff" stroke="#000" stroke-width="2"/>
          <path id="Path_42579" data-name="Path 42579" d="M6.174,13.395A3.872,3.872,0,0,1,9,18.048a3.872,3.872,0,0,1-5.022,2.1A3.872,3.872,0,0,1,1.152,15.5a3.872,3.872,0,0,1,5.022-2.1" transform="translate(-1 -8.628)" fill="#fff" stroke="#000" stroke-width="2"/>
          <path id="Path_42581" data-name="Path 42581" d="M8.4,31.582a3.872,3.872,0,0,1,5.3-1.25,3.872,3.872,0,0,1,.448,5.426,3.871,3.871,0,0,1-5.3,1.25A3.872,3.872,0,0,1,8.4,31.582" transform="translate(-5.086 -19.021)" fill="#fff" stroke="#000" stroke-width="2"/>
          <path id="Path_42583" data-name="Path 42583" d="M26.744,35.758a3.872,3.872,0,0,1,.448-5.426,3.872,3.872,0,0,1,5.3,1.25,3.872,3.872,0,0,1-.448,5.426,3.872,3.872,0,0,1-5.3-1.25" transform="translate(-16.591 -19.021)" fill="#fff" stroke="#000" stroke-width="2"/>
          <path id="Path_42585" data-name="Path 42585" d="M35.853,20.152a3.872,3.872,0,0,1-5.022-2.1,3.872,3.872,0,0,1,2.827-4.654,3.872,3.872,0,0,1,5.022,2.1,3.872,3.872,0,0,1-2.827,4.653" transform="translate(-19.615 -8.628)" fill="#fff" stroke="#000" stroke-width="2"/>
          <path id="Path_42587" data-name="Path 42587" d="M26.718,25.378a2.239,2.239,0,1,1-2.239-2.239,2.239,2.239,0,0,1,2.239,2.239" transform="translate(-14.871 -15.435)" fill="#f06a86" stroke="#000" stroke-width="2"/>
        </g>
      </g>
      <g id="Group_115629" data-name="Group 115629" transform="translate(12981.712 -30.209)">
        <g id="Group_115627-2" data-name="Group 115627" transform="translate(0)">
          <path id="Path_42578-2" data-name="Path 42578" d="M24.35,5.126A3.872,3.872,0,0,1,20.8,9.253a3.872,3.872,0,0,1-3.552-4.126A3.872,3.872,0,0,1,20.8,1,3.872,3.872,0,0,1,24.35,5.126" transform="translate(-11.189 -1)" fill="#fff" stroke="#000" stroke-width="2"/>
          <path id="Path_42579-2" data-name="Path 42579" d="M6.174,13.395A3.872,3.872,0,0,1,9,18.048a3.872,3.872,0,0,1-5.022,2.1A3.872,3.872,0,0,1,1.152,15.5a3.872,3.872,0,0,1,5.022-2.1" transform="translate(-1 -8.628)" fill="#fff" stroke="#000" stroke-width="2"/>
          <path id="Path_42581-2" data-name="Path 42581" d="M8.4,31.582a3.872,3.872,0,0,1,5.3-1.25,3.872,3.872,0,0,1,.448,5.426,3.871,3.871,0,0,1-5.3,1.25A3.872,3.872,0,0,1,8.4,31.582" transform="translate(-5.086 -19.021)" fill="#fff" stroke="#000" stroke-width="2"/>
          <path id="Path_42583-2" data-name="Path 42583" d="M26.744,35.758a3.872,3.872,0,0,1,.448-5.426,3.872,3.872,0,0,1,5.3,1.25,3.872,3.872,0,0,1-.448,5.426,3.872,3.872,0,0,1-5.3-1.25" transform="translate(-16.591 -19.021)" fill="#fff" stroke="#000" stroke-width="2"/>
          <path id="Path_42585-2" data-name="Path 42585" d="M35.853,20.152a3.872,3.872,0,0,1-5.022-2.1,3.872,3.872,0,0,1,2.827-4.654,3.872,3.872,0,0,1,5.022,2.1,3.872,3.872,0,0,1-2.827,4.653" transform="translate(-19.615 -8.628)" fill="#fff" stroke="#000" stroke-width="2"/>
          <path id="Path_42587-2" data-name="Path 42587" d="M26.718,25.378a2.239,2.239,0,1,1-2.239-2.239,2.239,2.239,0,0,1,2.239,2.239" transform="translate(-14.871 -15.435)" fill="#f06a86" stroke="#000" stroke-width="2"/>
        </g>
      </g>
      <path id="Path_42588" data-name="Path 42588" d="M4.651,90.367l.115.537A1.943,1.943,0,0,0,6.259,92.4l.537.115a.548.548,0,0,1,0,1.072l-.537.115a1.943,1.943,0,0,0-1.494,1.494l-.115.537a.548.548,0,0,1-1.072,0l-.115-.537A1.943,1.943,0,0,0,1.971,93.7l-.537-.115a.548.548,0,0,1,0-1.072l.537-.115A1.943,1.943,0,0,0,3.464,90.9l.115-.537A.548.548,0,0,1,4.651,90.367Z" transform="translate(12993.699 -128.118)" fill="#fff" stroke="#000" stroke-linecap="round" stroke-linejoin="round" stroke-width="2"/>
      <path id="Path_42589" data-name="Path 42589" d="M4.651,90.367l.115.537A1.943,1.943,0,0,0,6.259,92.4l.537.115a.548.548,0,0,1,0,1.072l-.537.115a1.943,1.943,0,0,0-1.494,1.494l-.115.537a.548.548,0,0,1-1.072,0l-.115-.537A1.943,1.943,0,0,0,1.971,93.7l-.537-.115a.548.548,0,0,1,0-1.072l.537-.115A1.943,1.943,0,0,0,3.464,90.9l.115-.537A.548.548,0,0,1,4.651,90.367Z" transform="translate(12977.598 -98.384)" fill="#fff" stroke="#000" stroke-linecap="round" stroke-linejoin="round" stroke-width="2"/>
      <path id="Path_42590" data-name="Path 42590" d="M253.757,83.627a1.816,1.816,0,1,1-1.816-1.816A1.816,1.816,0,0,1,253.757,83.627Z" transform="translate(12790.266 -111.444)" fill="#fff" stroke="#000" stroke-linecap="round" stroke-linejoin="round" stroke-width="2"/>
    </g>
  </g>
</svg>
