<?xml version="1.0" encoding="utf-8"?>
<!-- Generator: Adobe Illustrator 26.2.1, SVG Export Plug-In . SVG Version: 6.00 Build 0)  -->
<svg version="1.1" xmlns="http://www.w3.org/2000/svg" xmlns:xlink="http://www.w3.org/1999/xlink" x="0px" y="0px" viewBox="0 0 105 98" style="enable-background:new 0 0 105 98;" xml:space="preserve">
<style type="text/css">
.st0{fill:#F06A86;stroke:#000000;stroke-width:2;stroke-linejoin:round;}
.st1{fill:#B88031;stroke:#000000;stroke-width:2;stroke-linecap:round;stroke-linejoin:round;}
.st2{fill:#FEC211;stroke:#000000;stroke-width:2;stroke-linecap:round;stroke-linejoin:round;}
.st3{stroke:#000000;stroke-width:2;stroke-linejoin:round;}
.st4{fill:#FFFFFF;stroke:#000000;stroke-width:2;stroke-linejoin:round;}
.st5{fill:#FFFFFF;stroke:#000000;stroke-width:2;}

.get{position: relative; z-index:-1; opacity: 0; transform-origin: 50% 50%; transform: translate(20px, 20px); animation:get linear both infinite 2.7s; animation-delay: 0.5s}
.get2{position: relative; z-index:-1; opacity: 0; transform-origin: 50% 50%; transform: translate(20px, 20px); animation:get2 linear both infinite 2.7s; animation-delay: 0.5s}
@keyframes get {
25% {transform: translate(10px, 10px); opacity: 0}
45% {transform: translate(0, 0); opacity:1}
100% {transform: translate(0, 0); opacity:1}
}
@keyframes get2 {
25% {transform: translate(-5px, 10px); opacity: 0}
45% {transform: translate(0, 0); opacity:1}
100% {transform: translate(0, 0); opacity:1}
}

.star {transform-origin: 10% 35%;animation: star linear infinite 3s;}
.star2 {transform-origin: 62% 11%;animation: star2 linear infinite 1s;}
.star3 {transform-origin: 9% 22%;animation: star2 linear infinite 1.2s;}
.star4 {transform-origin: 92% 42%;animation: star linear infinite 2s;}
@keyframes star {
0% {transform:scale(1);}	
10% {transform:scale(0.0);}	
20% {transform:scale(1.1);}	
30% {transform:scale(1.1);}	
40% {transform:scale(0.0);}	
50% {transform:scale(1);}
100% {transform:scale(1);}
}
@keyframes star2 {
0% {transform:scale(1.2);}	
55% {transform:scale(0.0);;}
100% {transform:scale(1.2);}
}
</style>
<g id="heart">
	<g class="get">
		<path id="Path_42528" class="st0" d="M47.4,15.5c-5.7,2-8.9,8.2-7,14c-1.9-5.8-8-9-13.8-7.3c-6,1.9-9.3,8.3-7.4,14.2
			c0,0,0,0.1,0,0.1l0,0c3.1,9.7,10.6,17.4,20.3,20.7l11,3.8l6.8-9.5c5.9-8.3,7.5-18.9,4.4-28.6C59.8,16.9,53.5,13.6,47.4,15.5
			C47.5,15.5,47.4,15.5,47.4,15.5"/>
	</g>
	<g class="get2">
		<path id="Path_42530" class="st0" d="M84.6,28.8c-2-1.3-4.7-0.7-6,1.3c1.3-2,0.8-4.7-1.2-6.1c-2.1-1.4-4.8-0.8-6.2,1.3c0,0,0,0,0,0
			c-2.2,3.4-2.7,7.6-1.3,11.4l1.6,4.3l4.6-0.3c4-0.3,7.7-2.4,9.9-5.8C87.2,32.9,86.7,30.2,84.6,28.8C84.6,28.8,84.6,28.8,84.6,28.8"
			/>
	</g>
</g>
<g id="box">
	<g>
		<rect id="Rectangle_21721" x="63.9" y="45.8" class="st1" width="26.3" height="37.8"/>
		<rect id="Rectangle_21723" x="16.5" y="45.8" class="st1" width="47.4" height="37.8"/>
		<path id="Path_42532" class="st1" d="M53.1,61.5H5.7l10.8-15.7h47.4L53.1,61.5z"/>
		<path id="Path_42534" class="st1" d="M74.8,61.5h26.3L90.2,45.8H63.9L74.8,61.5z"/>
		<rect id="Rectangle_21725" x="73.1" y="75.4" class="st2" width="8" height="8.1"/>
		<path id="Path_42543" class="st3" d="M51.1,78.6v-3.3l1.3-1.1v-2.8h-3.5v2.8l1.3,1.1v3.3L48.7,79v0.4h3.9V79L51.1,78.6z"/>
		<path id="Path_42545" class="st3" d="M57.7,78.6v-3.3l1.3-1.1v-2.8h-3.5v2.8l1.3,1.1v3.3L55.3,79v0.4h3.9V79L57.7,78.6z"/>
	</g>
</g>
<g id="star">
	<g class="star">
		<path id="Path_42536" class="st4" d="M7.3,33.2l0.2,0.7c0.2,1,1,1.8,2,2l0.7,0.2c0.4,0.1,0.7,0.5,0.6,0.9c-0.1,0.3-0.3,0.5-0.6,0.6
		l-0.7,0.2c-1,0.2-1.8,1-2,2l-0.2,0.7c-0.1,0.4-0.5,0.7-0.9,0.6c-0.3-0.1-0.5-0.3-0.6-0.6l-0.2-0.7c-0.2-1-1-1.8-2-2l-0.7-0.2
		c-0.4-0.1-0.7-0.5-0.6-0.9c0.1-0.3,0.3-0.5,0.6-0.6L3.6,36c1-0.2,1.8-1,2-2l0.2-0.7c0.1-0.4,0.5-0.7,0.9-0.6
		C7,32.7,7.2,32.9,7.3,33.2"/>
	</g>
	<g class="star2">
		<path id="Path_42538" class="st4" d="M63.8,7.1L64,7.8c0.2,1,1,1.8,2,2l0.7,0.2c0.4,0.1,0.7,0.5,0.6,0.9c-0.1,0.3-0.3,0.5-0.6,0.6
		L66,11.6c-1,0.2-1.8,1-2,2l-0.2,0.7c-0.1,0.4-0.5,0.7-0.9,0.6c-0.3-0.1-0.5-0.3-0.6-0.6l-0.2-0.7c-0.2-1-1-1.8-2-2l-0.7-0.2
		c-0.4-0.1-0.7-0.5-0.6-0.9c0.1-0.3,0.3-0.5,0.6-0.6l0.7-0.2c1-0.2,1.8-1,2-2l0.2-0.7c0.1-0.4,0.5-0.7,0.9-0.6
		C63.6,6.6,63.8,6.8,63.8,7.1"/>
	</g>
</g>
<g id="dot">
	<g class="star3">
		<path id="Path_42540" class="st5" d="M12,23.5c0,1.2-1,2.3-2.3,2.3s-2.3-1-2.3-2.3c0-1.2,1-2.3,2.3-2.3S12,22.3,12,23.5L12,23.5"
			/>
	</g>
	<g class="star4">
		<path id="Path_42541" class="st4" d="M102.7,41.6c0,1.4-1.1,2.5-2.5,2.5c-1.4,0-2.5-1.1-2.5-2.5c0-1.4,1.1-2.5,2.5-2.5l0,0
			C101.6,39.1,102.7,40.2,102.7,41.6"/>
	</g>
</g>
</svg>
