<svg xmlns="http://www.w3.org/2000/svg" xmlns:xlink="http://www.w3.org/1999/xlink" width="120" height="115" viewBox="0 0 120 115">
  <defs>
    <clipPath id="clip-path">
      <rect id="사각형_20556" data-name="사각형 20556" width="120" height="115" transform="translate(0 -0.006)" fill="#ffd152"/>
    </clipPath>
  </defs>
  <g id="그룹_112563" data-name="그룹 112563" transform="translate(0 0.006)" clip-path="url(#clip-path)">
    <path id="패스_38189" data-name="패스 38189" d="M195.616,52.685c.843-.59,1.346-1.567,2-2,1.021-.676,2.181-1.565,3-2,.578-.307,1.456.16,2,0,.588-.173,1.049-.346,1,0a6.241,6.241,0,0,1-1,2c-.477.573-1.432.451-2,1-.758.738-1.2,2.277-2,3-.773.71-2.155,1.33-3,2-1.248,1-2.7,2.043-4,3-1.051.761-1.934,1.252-3,2-1.16.8-2.8,2.252-4,3-2.152,1.361-2.541,1.512-5,3-.272.159-.726.844-1,1-.136.078-1.972-.015-2,0h0c-.016.007.016-.005,0,0s.021,0,0,0h0c-.04.007.04.007,0,0h0c-.01,0,.009,0,0,0-.072-.019,0,.061,0,0,0-.01,0,.011,0,0,0-.032,1.072-1.036,2-2,.522-.543,2.421-2.451,3-3,.546-.518,1.267-1.347,2-2,.832-.74,3.125-2.287,4-3,.631-.514,2.336-2.473,3-3,1.763-1.4,2.925-1.548,5-3" transform="translate(-95.616 -29.691)" fill="#ffd152"/>
    <path id="패스_38190" data-name="패스 38190" d="M37.938,53.87c-.9-.543-2.306-.6-3-1-1.083-.619-2.142-1.611-3-2a15.5,15.5,0,0,0-2-1c-.6-.14-1.082.658-1,1,.106.445,1.61.6,2,1,.53.545,1.381,1.483,2,2,.826.7,1.138,1.322,2,2,.839.666,2.094,1.377,3,2,1.34.927,2.609,2.116,4,3,1.12.7,1.866,1.313,3,2,1.232.731,2.731,1.319,4,2,2.276,1.241,3.406,1.649,6,3,.286.144,1.712.859,2,1,.143.07.97.987,1,1h0c.017.006-.016,0,0,0s-.022,0,0,0h0c.041,0-.039.009,0,0h0c.01,0-.009,0,0,0,.07-.022,0,.061,0,0,0-.01,0,.011,0,0a11.48,11.48,0,0,0-2-3c-.572-.513-2.371-1.484-3-2-.594-.487-2.206-2.389-3-3-.9-.692-3.06-2.337-4-3-.678-.478-2.288-1.51-3-2-1.891-1.3-2.792-1.665-5-3" transform="translate(-15.939 -30.876)" fill="#ffd152"/>
    <path id="패스_38191" data-name="패스 38191" d="M194.445,213.027c.844.589,2.346,1.567,3,2,1.022.675,2.181,1.566,3,2,.579.306,1.456-.159,2,0,.588.173,1.049.346,1,0a6.228,6.228,0,0,0-1-2c-.478-.573-1.431-1.451-2-2-.759-.738-1.2-1.278-2-2-.775-.709-2.154-1.33-3-2-1.25-1-2.695-2.044-4-3-1.052-.76-1.933-1.253-3-2-1.161-.795-2.8-2.253-4-3-2.153-1.36-2.539-1.514-5-3-.272-.159-1.726-.844-2-1a5.234,5.234,0,0,0-1,0h0c-.016-.007.016.005,0,0s.021,0,0,0h0c-.04-.007.039-.007,0,0h0c-.01,0,.009,0,0,0-.072.018,0-.061,0,0,0,.01,0-.011,0,0,0,.031,1.071,1.036,2,2,.523.542,2.421,2.451,3,3,.547.518,1.265,1.348,2,2,.833.739,3.124,2.288,4,3,.632.513,2.335,2.474,3,3,1.765,1.4,1.923,1.55,4,3" transform="translate(-95.445 -121.033)" fill="#ffd152"/>
    <path id="패스_38192" data-name="패스 38192" d="M128.637,245.751c.073.867.921,1.346,1,2,.123,1.022-.2,2.259,0,3a10.873,10.873,0,0,0,1,2c.269.432.72.276,1,0,.364-.359-.13-1.513,0-2,.177-.664.911-1.306,1-2,.125-.93-.083-2.062,0-3,.087-.917,0-2.074,0-3,.005-1.373.072-2.628,0-4-.067-1.1.091-1.9,0-3-.115-1.18-.812-2.832-1-4-.318-2.107.425-2.641,0-5-.052-.257-.944-1.745-1-2-.028-.127.007-.975,0-1,0-.01,0,.009,0,0s.006.012,0,0,.011.014,0,0h0c-.023-.026.035.016,0,0h0c-.009,0,.009,0,0,0-.069-.024.058-.043,0,0-.01.007.009-.008,0,0a15.925,15.925,0,0,0-1,3c-.116.665-.918,2.3-1,3-.077.66.064,2.145,0,3-.072.969.016,4.028,0,5-.011.7,0,2.273,0,3a46.733,46.733,0,0,0,0,5" transform="translate(-69.637 -137.757)" fill="#ffd152"/>
    <path id="패스_38193" data-name="패스 38193" d="M133.158,6.994c-.058-.867.067-1.345,0-2-.105-1.023.184-2.257,0-3a10.806,10.806,0,0,0-1-2c-.261-.434-.715-.273-1,0a6.3,6.3,0,0,0-1,2c-.189.662.1,1.307,0,2-.141.928.1,2.062,0,3-.1.916-.984,2.074-1,3-.03,1.373-.048,2.627,0,4,.047,1.1.928,1.9,1,3,.094,1.182-.168,2.83,0,4,.28,2.11.617,2.637,1,5,.047.257-.052,1.744,0,2,.026.128-.007.975,0,1,0,.01,0-.01,0,0s-.006-.012,0,0-.011-.014,0,0,0,0,0,0h0c.022.026-.034-.016,0,0h0c.009,0-.01,0,0,0a4.97,4.97,0,0,0,1,0c.01-.007-.009.008,0,0a13.684,13.684,0,0,1,0-3c.128-.664.907-2.3,1-3,.089-.659-.079-2.146,0-3,.089-.968.967-4.028,1-5,.024-.7-.012-2.273,0-3,.033-1.932-.858-2.866-1-5" transform="translate(-70.158 0)" fill="#ffd152"/>
    <path id="패스_38194" data-name="패스 38194" d="M207.9,145.674c1.147-.055,2.134-.94,3-1,1.352-.093,3.019.149,4,0,.693-.105,1.472.188,2,0,.571-.2.366-.788,0-1a7.158,7.158,0,0,0-2-1c-.878-.134-2.082.068-3,0-1.23-.094-2.759.063-4,0-1.214-.066-2.775,0-4,0-1.817,0-3.184-.054-5,0-1.454.051-3.549-.069-5,0-1.562.087-3.455-.142-5,0-2.789.24-3.879.679-7,1-.34.039-.662-.043-1,0-.169.021-1.967-.005-2,0h0c-.017,0,.016-.005,0,0s.019-.008,0,0h0c-.034.017.021-.027,0,0h0c-.005.007,0,.993,0,1-.032.053-.057-.043,0,0,.009.007-.011-.007,0,0a35.9,35.9,0,0,1,4,0c.88.088,3.075.939,4,1,.873.058,2.869-.048,4,0,1.282.054,4.714-.012,6,0,.928.008,3.037,0,4,0,2.556,0,4.178.136,7,0" transform="translate(-96.901 -87.68)" fill="#ffd152"/>
    <path id="패스_38195" data-name="패스 38195" d="M10,142.225c-1.148.044-3.133-.051-4,0-1.354.08-3.016-.139-4,0-.694.1-1.468.817-2,1-.575.2-.362-.216,0,0a7.173,7.173,0,0,0,2,1c.876.143,3.083-.077,4,0,1.229.106,1.76.925,3,1,1.212.078,2.775-.012,4,0,1.817.022,3.183.036,5,0,1.455-.036,3.547-.946,5-1,1.564-.071,3.452.126,5,0,2.792-.212,3.873.29,7,0,.34-.036,1.661-.961,2-1,.169-.019.967,0,1,0h0c.017,0-.016,0,0,0s-.019.008,0,0h0c.034-.017-.022.027,0,0h0c.005-.007,0,.007,0,0,.033-.052.056.044,0,0-.009-.008.011.007,0,0a8.67,8.67,0,0,0-3-1c-.879-.1-4.076.071-5,0-.872-.067-2.869.059-4,0-1.281-.068-4.714-.975-6-1-.927-.018-3.037.009-4,0-2.556-.025-3.176.892-6,1" transform="translate(0 -87.231)" fill="#ffd152"/>
    <path id="패스_38196" data-name="패스 38196" d="M42.478,206.915c-.836.6-2.351.563-3,1-1.013.683-2.186,1.56-3,2a14.284,14.284,0,0,1-2,1c-.587.177-.045.346,0,0a6.261,6.261,0,0,1,1-2c.471-.576.439-1.447,1-2,.749-.743,2.213-1.272,3-2,.765-.715,1.163-1.324,2-2,1.237-1.006,2.708-2.034,4-3,1.042-.768,1.943-2.245,3-3,1.15-.8,2.808-1.244,4-2,2.136-1.376,2.558-2.5,5-4,.27-.161,1.728.158,2,0,.135-.079.972-.985,1-1h0c.016-.007-.016.006,0,0s-.021,0,0,0h0c.04-.007-.04-.007,0,0h0c.072.018,0-.061,0,0,0,.01,0-.011,0,0a16.864,16.864,0,0,1-2,3c-.516.546-1.428,1.447-2,2-.54.522-2.274,2.343-3,3-.823.745-3.133,2.282-4,3-.625.518-1.342,1.469-2,2-1.746,1.41-2.942,2.535-5,4" transform="translate(-18.478 -116.921)" fill="#ffd152"/>
  </g>
</svg>
