<?xml version="1.0" encoding="utf-8"?>
<!-- Generator: Adobe Illustrator 26.3.1, SVG Export Plug-In . SVG Version: 6.00 Build 0)  -->
<svg version="1.1" id="Layer_1" xmlns="http://www.w3.org/2000/svg" xmlns:xlink="http://www.w3.org/1999/xlink" x="0px" y="0px"
	 viewBox="0 0 24 24" style="enable-background:new 0 0 24 24;" xml:space="preserve">
<style type="text/css">
	.st0{fill:none;}
	.st1{fill:#FFFFFF;stroke:#000000;stroke-width:1.2;}
	.st2{fill:#82540F;}
	.st3{fill:none;stroke:#000000;stroke-width:1.2;stroke-miterlimit:10;}
	.st4{fill:#FFFFFF;}
</style>
<g id="Group_115780" transform="translate(16999 8459)">
	<rect id="Rectangle_21783" x="-16998" y="-8460" class="st0" width="24" height="24"/>
	<g id="Group_115781" transform="translate(-16996.5 -8456.142)">
		<g id="Group_115782">
			<path id="Path_51941" class="st1" d="M5.5,16.8c-2.2,0-4-3.4-4-7.5s1.8-7.5,4-7.5s4,3.4,4,7.5S7.7,16.8,5.5,16.8"/>
			<path id="Path_51943" class="st2" d="M4.2,12.8c-1.4,0-2.5-1.1-2.5-2.5s1.1-2.5,2.5-2.5s2.5,1.1,2.5,2.5l0,0
				C6.7,11.7,5.6,12.8,4.2,12.8"/>
			<path id="Path_51944" d="M4.2,8.3c1.1,0,2,0.9,2,2s-0.9,2-2,2s-2-0.9-2-2S3.1,8.3,4.2,8.3 M4.2,7.3c-1.7,0-3,1.3-3,3s1.3,3,3,3
				s3-1.3,3-3S5.9,7.3,4.2,7.3"/>
			<line id="Line_913" class="st3" x1="5.5" y1="-1" x2="5.5" y2="2"/>
			<line id="Line_914" class="st3" x1="2.3" y1="0" x2="3.8" y2="2.6"/>
			<line id="Line_915" class="st3" x1="8.7" y1="0" x2="7.2" y2="2.6"/>
			<path id="Path_51951" d="M4.2,11.5C3.5,11.5,3,11,3,10.3S3.5,9,4.2,9s1.3,0.6,1.3,1.3S4.9,11.5,4.2,11.5"/>
			<path id="Path_51949" class="st4" d="M4.5,10.3c0,0.4,0.3,0.8,0.8,0.8c0.4,0,0.8-0.3,0.8-0.8S5.7,9.5,5.2,9.5l0,0
				C4.8,9.5,4.5,9.9,4.5,10.3L4.5,10.3"/>
		</g>
		<g id="Group_115783" transform="translate(10)">
			<path id="Path_51941-2" class="st1" d="M5.5,16.8c-2.2,0-4-3.4-4-7.5s1.8-7.5,4-7.5s4,3.4,4,7.5S7.7,16.8,5.5,16.8"/>
			<path id="Path_51943-2" class="st2" d="M4.2,12.8c-1.4,0-2.5-1.1-2.5-2.5s1.1-2.5,2.5-2.5s2.5,1.1,2.5,2.5l0,0
				C6.7,11.7,5.6,12.8,4.2,12.8"/>
			<path id="Path_51944-2" d="M4.2,8.3c1.1,0,2,0.9,2,2s-0.9,2-2,2s-2-0.9-2-2S3.1,8.3,4.2,8.3 M4.2,7.3c-1.7,0-3,1.3-3,3s1.3,3,3,3
				s3-1.3,3-3S5.9,7.3,4.2,7.3"/>
			<line id="Line_913-2" class="st3" x1="5.5" y1="-1" x2="5.5" y2="2"/>
			<line id="Line_914-2" class="st3" x1="2.3" y1="0" x2="3.8" y2="2.6"/>
			<line id="Line_915-2" class="st3" x1="8.7" y1="0" x2="7.2" y2="2.6"/>
			<path id="Path_51951-2" d="M4.2,11.5C3.5,11.5,3,11,3,10.3S3.5,9,4.2,9s1.3,0.6,1.3,1.3S4.9,11.5,4.2,11.5"/>
			<path id="Path_51949-2" class="st4" d="M4.5,10.3c0,0.4,0.3,0.8,0.8,0.8c0.4,0,0.8-0.3,0.8-0.8S5.7,9.5,5.2,9.5l0,0
				C4.8,9.5,4.5,9.9,4.5,10.3L4.5,10.3"/>
		</g>
	</g>
</g>
</svg>
