<svg xmlns="http://www.w3.org/2000/svg" width="95" height="105" viewBox="0 0 95 105">
  <g id="Group_115770" data-name="Group 115770" transform="translate(-506 -1067)">
    <g id="Group_115397" data-name="Group 115397" transform="translate(-944.457 930.547)">
      <g id="Group_113024" data-name="Group 113024" transform="translate(20923.92 -3293.416) rotate(-8)">
        <g id="Group_113018" data-name="Group 113018" transform="translate(-19750.979 697.706) rotate(8)">
          <g id="Group_113019" data-name="Group 113019">
            <path id="Path_38789" data-name="Path 38789" d="M12.742.713,0,20.33l2.628,1.707L15.37,2.42A1.567,1.567,0,1,0,12.742.713" transform="translate(51.501 0.293)" fill="#fff" stroke="#707070" stroke-width="1.8"/>
            <path id="Path_38790" data-name="Path 38790" d="M12.742.713,0,20.33l2.628,1.707L15.37,2.42A1.567,1.567,0,1,0,12.742.713Z" transform="translate(51.501 0.293)" fill="none" stroke="#000" stroke-linecap="round" stroke-linejoin="round" stroke-width="1.8"/>
            <path id="Path_38791" data-name="Path 38791" d="M.493,6.482,2.151,3.93A8.63,8.63,0,0,1,14.088,1.393L19.027,4.6a8.629,8.629,0,0,1,2.536,11.937l-1.657,2.552a3.054,3.054,0,0,1-4.224.9L1.39,10.705a3.053,3.053,0,0,1-.9-4.224" transform="translate(48.261 0)" fill="#fec211" stroke="#707070" stroke-width="1.8"/>
            <path id="Path_38792" data-name="Path 38792" d="M.493,6.482,2.151,3.93A8.63,8.63,0,0,1,14.088,1.393L19.027,4.6a8.629,8.629,0,0,1,2.536,11.937l-1.657,2.552a3.054,3.054,0,0,1-4.224.9L1.39,10.705A3.053,3.053,0,0,1,.493,6.482Z" transform="translate(48.261 0)" fill="none" stroke="#000" stroke-linecap="round" stroke-linejoin="round" stroke-width="1.8"/>
            <rect id="Rectangle_20765" data-name="Rectangle 20765" width="3.133" height="12.144" transform="translate(34.366 4.331)" fill="#fff" stroke="#707070" stroke-width="1.8"/>
            <rect id="Rectangle_20766" data-name="Rectangle 20766" width="3.133" height="12.144" transform="translate(34.366 4.331)" fill="none" stroke="#000" stroke-linecap="round" stroke-linejoin="round" stroke-width="1.8"/>
            <path id="Path_38793" data-name="Path 38793" d="M2.881.713,15.623,20.33,13,22.037.253,2.42A1.567,1.567,0,1,1,2.881.713" transform="translate(4.359 0.293)" fill="#fff" stroke="#707070" stroke-width="1.8"/>
            <path id="Path_38794" data-name="Path 38794" d="M2.881.713,15.623,20.33,13,22.037.253,2.42A1.567,1.567,0,1,1,2.881.713Z" transform="translate(4.359 0.293)" fill="none" stroke="#000" stroke-linecap="round" stroke-linejoin="round" stroke-width="1.8"/>
            <path id="Path_38795" data-name="Path 38795" d="M2.264,12.594,1.212,12.16A1.954,1.954,0,0,1,.147,9.609L4.1,0,8.768,1.92,4.815,11.529a1.955,1.955,0,0,1-2.551,1.064" transform="translate(11.734 72.891)" fill="#fec211" stroke="#707070" stroke-width="1.8"/>
            <path id="Path_38796" data-name="Path 38796" d="M2.264,12.594,1.212,12.16A1.954,1.954,0,0,1,.147,9.609L4.1,0,8.768,1.92,4.815,11.529A1.955,1.955,0,0,1,2.264,12.594Z" transform="translate(11.734 72.891)" fill="none" stroke="#000" stroke-linecap="round" stroke-linejoin="round" stroke-width="1.8"/>
            <path id="Path_38797" data-name="Path 38797" d="M6.5,12.594l1.053-.433A1.954,1.954,0,0,0,8.62,9.609L4.668,0,0,1.92l3.953,9.609A1.955,1.955,0,0,0,6.5,12.594" transform="translate(50.981 72.891)" fill="#fec211" stroke="#707070" stroke-width="1.8"/>
            <path id="Path_38798" data-name="Path 38798" d="M6.5,12.594l1.053-.433A1.954,1.954,0,0,0,8.62,9.609L4.668,0,0,1.92l3.953,9.609A1.955,1.955,0,0,0,6.5,12.594Z" transform="translate(50.981 72.891)" fill="none" stroke="#000" stroke-linecap="round" stroke-linejoin="round" stroke-width="1.8"/>
            <path id="Path_38799" data-name="Path 38799" d="M71.484,35.742A35.742,35.742,0,1,1,35.742,0,35.743,35.743,0,0,1,71.484,35.742" transform="translate(0 12.37)" fill="#f06a86"/>
            <circle id="Ellipse_717" data-name="Ellipse 717" cx="35.742" cy="35.742" r="35.742" transform="translate(0 12.371)" fill="none" stroke="#000" stroke-linecap="round" stroke-linejoin="round" stroke-width="1.8"/>
            <path id="Path_38800" data-name="Path 38800" d="M60.855,30.425A30.417,30.417,0,1,1,56.78,15.208a30.43,30.43,0,0,1,4.075,15.217" transform="translate(5.316 17.685)" fill="#fff" stroke="#000" stroke-width="1.8"/>
            <rect id="Rectangle_20767" data-name="Rectangle 20767" width="12.144" height="4.818" transform="translate(29.86 2.994)" fill="#fff" stroke="#707070" stroke-width="1.8"/>
            <rect id="Rectangle_20768" data-name="Rectangle 20768" width="12.144" height="4.818" transform="translate(29.86 2.994)" fill="none" stroke="#000" stroke-linecap="round" stroke-linejoin="round" stroke-width="1.8"/>
            <path id="Path_38806" data-name="Path 38806" d="M22.464,6.482,20.806,3.93A8.63,8.63,0,0,0,8.868,1.393L3.93,4.6A8.629,8.629,0,0,0,1.394,16.539l1.657,2.552a3.054,3.054,0,0,0,4.224.9l14.291-9.283a3.053,3.053,0,0,0,.9-4.224" transform="translate(0.266 0)" fill="#fec211" stroke="#707070" stroke-width="1.8"/>
            <path id="Path_38807" data-name="Path 38807" d="M22.464,6.482,20.806,3.93A8.63,8.63,0,0,0,8.868,1.393L3.93,4.6A8.629,8.629,0,0,0,1.394,16.539l1.657,2.552a3.054,3.054,0,0,0,4.224.9l14.291-9.283A3.053,3.053,0,0,0,22.464,6.482Z" transform="translate(0.266 0)" fill="none" stroke="#000" stroke-linecap="round" stroke-linejoin="round" stroke-width="1.8"/>
          </g>
        </g>
        <g id="Group_113021" data-name="Group 113021" transform="matrix(-0.998, 0.07, -0.07, -0.998, -19697.855, 781.835)">
          <g id="Group_113022" data-name="Group 113022" transform="translate(2.651 12.084)">
            <path id="Path_38808" data-name="Path 38808" d="M22.426,23.491c1.656-5.775.689-11.415-2.108-14.508A7.222,7.222,0,0,0,16.942,6.83c-5.237-1.5-11.272,3.523-13.48,11.223s.248,15.16,5.484,16.662,11.272-3.523,13.48-11.224" transform="translate(-2.651 2.183)" fill="#fff" stroke="#707070" stroke-width="1.8"/>
            <path id="Path_38809" data-name="Path 38809" d="M22.426,23.491c1.656-5.775.689-11.415-2.108-14.508A7.222,7.222,0,0,0,16.942,6.83c-5.237-1.5-11.272,3.523-13.48,11.223s.248,15.16,5.484,16.662S20.218,31.192,22.426,23.491Z" transform="translate(-2.651 2.183)" fill="none" stroke="#000" stroke-linecap="round" stroke-linejoin="round" stroke-width="1.8"/>
            <path id="Path_38810" data-name="Path 38810" d="M8.7,15.654,3.884,10.716c2.143-4.6,5.447-7.255,8.094-6.5,3.3.946,4.531,6.885,2.733,13.158S8.718,28.034,5.42,27.089c-2.7-.773-4.088-4.9-3.389-10.051Z" transform="translate(5.065 8.297)"/>
            <path id="Path_38811" data-name="Path 38811" d="M8.7,15.654,3.884,10.716c2.143-4.6,5.447-7.255,8.094-6.5,3.3.946,4.531,6.885,2.733,13.158S8.718,28.034,5.42,27.089c-2.7-.773-4.088-4.9-3.389-10.051Z" transform="translate(5.065 8.297)" fill="none" stroke="#000" stroke-linecap="round" stroke-linejoin="round" stroke-width="1.8"/>
            <path id="Path_38812" data-name="Path 38812" d="M22.426,23.491c2.208-7.7-.247-15.16-5.484-16.661S5.67,10.353,3.462,18.053s.248,15.16,5.485,16.661,11.272-3.523,13.48-11.224" transform="translate(13.22 6.734)" fill="#fff" stroke="#707070" stroke-width="1.8"/>
            <path id="Path_38813" data-name="Path 38813" d="M22.426,23.491c2.208-7.7-.247-15.16-5.484-16.661S5.67,10.353,3.462,18.053s.248,15.16,5.485,16.661S20.218,31.192,22.426,23.491Z" transform="translate(13.22 6.734)" fill="none" stroke="#000" stroke-linecap="round" stroke-linejoin="round" stroke-width="1.8"/>
            <path id="Path_38814" data-name="Path 38814" d="M8.7,15.654,3.884,10.716c2.143-4.6,5.447-7.255,8.094-6.5,3.3.946,4.532,6.885,2.733,13.158S8.718,28.034,5.42,27.089c-2.7-.773-4.088-4.9-3.389-10.051Z" transform="translate(20.936 12.848)"/>
            <path id="Path_38815" data-name="Path 38815" d="M8.7,15.654,3.884,10.716c2.143-4.6,5.447-7.255,8.094-6.5,3.3.946,4.532,6.885,2.733,13.158S8.718,28.034,5.42,27.089c-2.7-.773-4.088-4.9-3.389-10.051Z" transform="translate(20.936 12.848)" fill="none" stroke="#000" stroke-linecap="round" stroke-linejoin="round" stroke-width="1.8"/>
            <path id="Path_38816" data-name="Path 38816" d="M0,11a11.741,11.741,0,0,1,20.47,5.87" transform="translate(13.225 -6.944)" fill="none" stroke="#000" stroke-linecap="round" stroke-linejoin="round" stroke-width="1.8"/>
            <path id="Path_38817" data-name="Path 38817" d="M2.813,4.02a2.112,2.112,0,0,0-.336-2.154A2.113,2.113,0,0,0,.565.811" transform="translate(10.793 2.289)" fill="none" stroke="#000" stroke-linecap="round" stroke-linejoin="round" stroke-width="1.8"/>
            <path id="Path_38818" data-name="Path 38818" d="M.029,3.1A2.112,2.112,0,0,1,1.455,1.456a2.113,2.113,0,0,1,2.18.119" transform="translate(32.147 8.529)" fill="none" stroke="#000" stroke-linecap="round" stroke-linejoin="round" stroke-width="1.8"/>
            <path id="Path_38819" data-name="Path 38819" d="M10.734,8.9c.628-2.188-1.05-4.59-3.747-5.363S1.595,3.909.967,6.1s1.05,4.59,3.747,5.363,5.392-.374,6.02-2.563" transform="translate(16.265 4.176)" fill="#f06a86" stroke="#000" stroke-width="1.8"/>
          </g>
        </g>
      </g>
      <g id="Group_113029" data-name="Group 113029" transform="translate(-6.088 308.1) rotate(-13)">
        <path id="Path_38820" data-name="Path 38820" d="M-20532.375-3552.517a6.094,6.094,0,0,1-1.672,6.349" transform="translate(22072.285 3749.521)" fill="none" stroke="#000" stroke-linecap="round" stroke-width="1.5"/>
        <path id="Path_38821" data-name="Path 38821" d="M1.587,0S3.48,5.19,0,8.4" transform="matrix(0.995, 0.105, -0.105, 0.995, 1541.484, 196.785)" fill="none" stroke="#000" stroke-linecap="round" stroke-width="1.5"/>
      </g>
    </g>
    <rect id="Rectangle_21751" data-name="Rectangle 21751" width="95" height="105" transform="translate(506 1067)" fill="#fff" opacity="0"/>
  </g>
</svg>
