<?xml version="1.0" encoding="utf-8"?>
<!-- Generator: Adobe Illustrator 26.0.3, SVG Export Plug-In . SVG Version: 6.00 Build 0)  -->
<svg version="1.1" id="Layer_1" xmlns="http://www.w3.org/2000/svg" xmlns:xlink="http://www.w3.org/1999/xlink" x="0px" y="0px" viewBox="0 0 80 78" style="enable-background:new 0 0 80 78;" xml:space="preserve">
<style type="text/css">
.st0{fill:#FFFFFF;}
.st1{fill:none;stroke:#000;stroke-width:1.5;stroke-linecap:round;stroke-linejoin:round;}
.st2{fill:#d13630;}
.st3{fill:none;stroke:#000;stroke-width:2;stroke-linecap:round;stroke-linejoin:round;}
.st4{fill:#DDDDDD;}
.st5{fill:#CDCCCC;}
.st6{fill:#fec211;stroke:#000;stroke-linecap:round;stroke-linejoin:round;}
.st7{enable-background:new;animation:fade both infinite 3s;}
.st8{fill:none;stroke:#000;}


.star {position:relative;animation:star linear both infinite 3s;}
.star.s1 {transform-origin:6% 22%;}
.star.s2 {transform-origin:21% 6%;animation-delay:0.5s;}
@keyframes star {
0% {transform:scale(0.4);opacity:0;}	
20% {transform:scale(1.1);opacity:1;}
40% {transform:scale(0.6);}	
58% {transform:scale(1);}
100% {transform:scale(1);}
}
@keyframes fade {
0% {opacity:0.1;}	
25% {opacity:1;}
50% {opacity:0.1;}
75% {opacity:1;}
100% {opacity:0.1;}
}
</style>
<path id="Path_37313" class="st0" d="M65.52,21.05v14.98h-3.21V21.05c-0.05-4.55-3.78-8.2-8.34-8.15c-4.48,0.05-8.11,3.67-8.15,8.15
	v14.98h-3.21V21.05c0-6.33,5.13-11.46,11.46-11.46C60.39,9.59,65.52,14.72,65.52,21.05"/>
<path id="Path_37314" class="st1" d="M65.52,21.05v14.98h-3.21V21.05c-0.05-4.55-3.78-8.2-8.34-8.15c-4.48,0.05-8.11,3.67-8.15,8.15
	v14.98h-3.21V21.05c0-6.33,5.13-11.46,11.46-11.46C60.39,9.59,65.52,14.72,65.52,21.05L65.52,21.05z"/>
<path id="Path_37315" class="st0" d="M52.46,12.72V27.7h-3.21V12.72c-0.05-4.55-3.78-8.2-8.34-8.15c-4.48,0.05-8.11,3.67-8.15,8.15
	V27.7h-3.21V12.72c0-6.33,5.13-11.46,11.46-11.46S52.46,6.39,52.46,12.72"/>
<path id="Path_37316" class="st1" d="M52.46,12.72V27.7h-3.21V12.72c-0.05-4.55-3.78-8.2-8.34-8.15c-4.48,0.05-8.11,3.67-8.15,8.15
	V27.7h-3.21V12.72c0-6.33,5.13-11.46,11.46-11.46S52.46,6.39,52.46,12.72L52.46,12.72z"/>
<path id="Path_37332" class="st2" d="M18.64,22.62h44.72v52.51H18.64V22.62z"/>
<rect id="Rectangle_19810" x="18.64" y="22.62" class="st3" width="44.72" height="52.51"/>
<rect id="Rectangle_19807" x="63.36" y="22.62" class="st4" width="14.73" height="52.51"/>
<rect id="Rectangle_19808" x="63.36" y="22.62" class="st3" width="14.73" height="52.51"/>
<path id="Path_37319" class="st5" d="M63.36,75.12l7.37-8.51l7.37,8.51H63.36z"/>
<path id="Path_37320" class="st3" d="M63.36,75.12l7.37-8.51l7.37,8.51H63.36z"/>
<path id="Path_37312" class="st0" d="M70.72,68.04V22.62h-7.36v52.51L70.72,68.04z"/>
<path id="Path_37311" class="st3" d="M71.13,68.04V22.62h-7.77v52.51L71.13,68.04z"/>
<path id="Path_37318" class="st6 star s1" d="M5.93,11.75l0.19,0.87c0.26,1.22,1.21,2.17,2.42,2.43l0.87,0.19c0.48,0.1,0.79,0.58,0.68,1.06
	c-0.07,0.34-0.34,0.61-0.68,0.68l-0.87,0.19c-1.22,0.26-2.17,1.21-2.43,2.43l-0.19,0.87c-0.1,0.48-0.57,0.79-1.05,0.69
	c-0.35-0.07-0.61-0.34-0.69-0.69L4,19.58c-0.26-1.22-1.21-2.17-2.42-2.43L0.7,16.97c-0.48-0.1-0.79-0.58-0.68-1.06
	c0.07-0.34,0.34-0.61,0.68-0.68l0.87-0.19c1.22-0.26,2.17-1.21,2.42-2.43l0.19-0.87c0.1-0.48,0.57-0.79,1.05-0.69
	C5.58,11.13,5.85,11.4,5.93,11.75z"/>
<path id="Path_37317" class="st6 star s2" d="M17.27,0.59l0.16,0.74c0.22,1.03,1.02,1.83,2.05,2.05l0.74,0.16c0.41,0.09,0.67,0.48,0.58,0.89
	C20.73,4.71,20.5,4.94,20.21,5l-0.74,0.16c-1.03,0.22-1.83,1.02-2.05,2.04l-0.16,0.74c-0.09,0.41-0.48,0.66-0.89,0.58
	c-0.29-0.06-0.52-0.29-0.58-0.58L15.64,7.2c-0.22-1.03-1.02-1.83-2.04-2.04L12.86,5c-0.41-0.09-0.66-0.49-0.58-0.89
	c0.06-0.29,0.29-0.51,0.58-0.58l0.74-0.16c1.03-0.22,1.83-1.02,2.04-2.05l0.16-0.74c0.09-0.41,0.48-0.66,0.89-0.58
	C16.98,0.08,17.21,0.3,17.27,0.59z"/>
<g transform="matrix(1, 0, 0, 1, -22352.5, -22941.83)">
	<g class="st7">
		<path class="st0" d="M22392.27,22980.27h-3.01c-0.18-1.14-1.02-1.83-2.42-1.83c-1.36,0-2.11,0.54-2.11,1.33
			c0,0.97,1.01,1.31,3.55,1.84c3.01,0.62,4.04,2.11,4.04,4.06c0,2.5-2.35,4.02-5.27,4.02c-3.22,0-5.57-1.74-5.7-4.53h2.99
			c0.16,1.25,1.25,2.08,2.91,2.08c1.18,0,2.06-0.59,2.06-1.44c0-1.04-0.88-1.46-3.2-1.89c-2.83-0.53-4.37-1.7-4.37-4.14
			c0-2.35,2.34-3.76,5.28-3.76C22389.95,22976.01,22392.13,22977.79,22392.27,22980.27z"/>
		<path class="st0" d="M22401.49,22986.84h-5.06l-0.91,2.53h-3.01l5.06-13.04h3.03l5.06,13.04h-3.25L22401.49,22986.84z
			 M22400.59,22984.32l-1.63-4.54l-1.63,4.54H22400.59z"/>
	</g>
	<g class="st7">
		<path class="st8" d="M22392.27,22980.27h-3.01c-0.18-1.14-1.02-1.83-2.42-1.83c-1.36,0-2.11,0.54-2.11,1.33
			c0,0.97,1.01,1.31,3.55,1.84c3.01,0.62,4.04,2.11,4.04,4.06c0,2.5-2.35,4.02-5.27,4.02c-3.22,0-5.57-1.74-5.7-4.53h2.99
			c0.16,1.25,1.25,2.08,2.91,2.08c1.18,0,2.06-0.59,2.06-1.44c0-1.04-0.88-1.46-3.2-1.89c-2.83-0.53-4.37-1.7-4.37-4.14
			c0-2.35,2.34-3.76,5.28-3.76C22389.95,22976.01,22392.13,22977.79,22392.27,22980.27z"/>
		<path class="st8" d="M22401.49,22986.84h-5.06l-0.91,2.53h-3.01l5.06-13.04h3.03l5.06,13.04h-3.25L22401.49,22986.84z
			 M22400.59,22984.32l-1.63-4.54l-1.63,4.54H22400.59z"/>
	</g>
	<g class="st7">
		<path class="st0" d="M22386.23,22992.33v10.47h6.51v2.58h-9.43v-13.04H22386.23z"/>
		<path class="st0" d="M22393.81,22992.33h9.7v2.53h-6.79v2.66h6.23v2.53h-6.23v2.8h6.93v2.53h-9.85V22992.33z"/>
	</g>
	<g class="st7">
		<path class="st8" d="M22386.23,22992.33v10.47h6.51v2.58h-9.43v-13.04H22386.23z"/>
		<path class="st8" d="M22393.81,22992.33h9.7v2.53h-6.79v2.66h6.23v2.53h-6.23v2.8h6.93v2.53h-9.85V22992.33z"/>
	</g>
</g>
</svg>
