<?xml version="1.0" encoding="utf-8"?>
<!-- Generator: Adobe Illustrator 26.3.1, SVG Export Plug-In . SVG Version: 6.00 Build 0)  -->
<svg version="1.1" id="Layer_1" xmlns="http://www.w3.org/2000/svg" xmlns:xlink="http://www.w3.org/1999/xlink" x="0px" y="0px" viewBox="0 0 32 32" style="enable-background:new 0 0 32 32;" xml:space="preserve">
<style type="text/css">
.st0{fill:#FFD983;}
.st1{fill:none;stroke:#000000;stroke-width:1.5;}
.st2{enable-background:new;}
</style>
<g id="Group_109725" transform="translate(-130 -231)">
	<g id="Ellipse_278" transform="translate(130 231)">
		<circle class="st0" cx="16" cy="16" r="16"/>
		<circle class="st1" cx="16" cy="16" r="15.2"/>
	</g>
	<g class="st2">
		<path d="M143.9,252h-1.7v-6.5l-2,0.6v-1.4l3.5-1.3h0.2V252z"/>
		<path d="M152.3,248.5c0,1.2-0.2,2.1-0.7,2.7s-1.2,0.9-2.1,0.9c-0.9,0-1.6-0.3-2.1-0.9s-0.7-1.5-0.8-2.6V247c0-1.2,0.2-2.1,0.7-2.7
			s1.2-0.9,2.1-0.9s1.6,0.3,2.1,0.9s0.7,1.5,0.8,2.6V248.5z M150.6,246.7c0-0.7-0.1-1.2-0.3-1.5c-0.2-0.3-0.5-0.5-0.9-0.5
			c-0.4,0-0.7,0.2-0.9,0.5c-0.2,0.3-0.3,0.8-0.3,1.4v2.1c0,0.7,0.1,1.2,0.3,1.6c0.2,0.3,0.5,0.5,0.9,0.5c0.4,0,0.7-0.2,0.9-0.5
			c0.2-0.3,0.3-0.8,0.3-1.5V246.7z"/>
	</g>
</g>
</svg>
