<svg xmlns="http://www.w3.org/2000/svg" xmlns:xlink="http://www.w3.org/1999/xlink" width="60" height="61.721" viewBox="0 0 60 61.721">
  <defs>
    <filter id="Rectangle_20438" x="5" y="7.998" width="52" height="52" filterUnits="userSpaceOnUse">
      <feOffset dx="2" dy="4" input="SourceAlpha"/>
      <feGaussianBlur stdDeviation="2" result="blur"/>
      <feFlood flood-opacity="0.161"/>
      <feComposite operator="in" in2="blur"/>
    </filter>
    <linearGradient id="linear-gradient" x1="0.047" y1="0.056" x2="0.95" y2="0.944" gradientUnits="objectBoundingBox">
      <stop offset="0" stop-color="#ff628c"/>
      <stop offset="1" stop-color="#f42664"/>
    </linearGradient>
    <filter id="Union_150" x="5.297" y="8.721" width="52.998" height="53" filterUnits="userSpaceOnUse">
      <feOffset dx="2" dy="4" input="SourceAlpha"/>
      <feGaussianBlur stdDeviation="2" result="blur-2"/>
      <feFlood flood-opacity="0.161"/>
      <feComposite operator="in" in2="blur-2"/>
    </filter>
    <filter id="Union_150-2" x="5.297" y="8.721" width="52.998" height="53" filterUnits="userSpaceOnUse">
      <feOffset input="SourceAlpha"/>
      <feGaussianBlur stdDeviation="0.5" result="blur-3"/>
      <feFlood flood-color="#fff" flood-opacity="0.161" result="color"/>
      <feComposite operator="out" in="SourceGraphic" in2="blur-3"/>
      <feComposite operator="in" in="color"/>
      <feComposite operator="in" in2="SourceGraphic"/>
    </filter>
    <linearGradient id="linear-gradient-3" x1="0.047" y1="0.056" x2="0.988" y2="1.041" gradientUnits="objectBoundingBox">
      <stop offset="0" stop-color="#fff"/>
      <stop offset="1" stop-color="#ffdbe5"/>
    </linearGradient>
    <linearGradient id="linear-gradient-4" x1="-0.008" y1="0.492" x2="0.975" y2="0.486" gradientUnits="objectBoundingBox">
      <stop offset="0" stop-color="#5a5858"/>
      <stop offset="1" stop-color="#1e1e1e"/>
    </linearGradient>
    <linearGradient id="linear-gradient-5" x1="-0.008" y1="0.508" x2="0.975" y2="0.514" xlink:href="#linear-gradient-4"/>
    <linearGradient id="linear-gradient-6" x1="0.097" y1="0.025" x2="0.924" y2="0.878" gradientUnits="objectBoundingBox">
      <stop offset="0" stop-color="#ffde09"/>
      <stop offset="1" stop-color="#feaf11"/>
    </linearGradient>
    <filter id="Ellipse_641" x="22.975" y="26.977" width="17.967" height="17.967" filterUnits="userSpaceOnUse">
      <feOffset dx="2" dy="4" input="SourceAlpha"/>
      <feGaussianBlur stdDeviation="2" result="blur-4"/>
      <feFlood flood-opacity="0.161"/>
      <feComposite operator="in" in2="blur-4"/>
      <feComposite in="SourceGraphic"/>
    </filter>
  </defs>
  <g id="Group_112606" data-name="Group 112606" transform="translate(-1142 -1056)">
    <rect id="Rectangle_20575" data-name="Rectangle 20575" width="60" height="60" transform="translate(1142 1056)" fill="#fff" opacity="0"/>
    <g id="Group_112591" data-name="Group 112591" transform="translate(11585 8277.998)">
      <g transform="matrix(1, 0, 0, 1, -10443, -7222)" filter="url(#Rectangle_20438)">
        <rect id="Rectangle_20438-2" data-name="Rectangle 20438" width="40" height="40" rx="20" transform="translate(9 10)" fill="#fff" opacity="0"/>
      </g>
      <g id="Group_112592" data-name="Group 112592" transform="translate(-11236.001 -8117.692)">
        <g data-type="innerShadowGroup">
          <g transform="matrix(1, 0, 0, 1, 793, 895.69)" filter="url(#Union_150)">
            <path id="Union_150-3" data-name="Union 150" d="M20,0A20,20,0,0,1,40,20v0A20,20,0,0,1,0,20v0A20,20,0,0,1,20,0Z" transform="translate(9.8 11.22)" stroke="rgba(0,0,0,0)" stroke-miterlimit="10" stroke-width="1" fill="url(#linear-gradient)"/>
          </g>
          <path id="Union_150-4" data-name="Union 150" d="M20,0A20,20,0,0,1,40,20v0A20,20,0,0,1,0,20v0A20,20,0,0,1,20,0Z" transform="translate(802.798 906.915)" fill="url(#linear-gradient)"/>
          <g transform="matrix(1, 0, 0, 1, 793, 895.69)" filter="url(#Union_150-2)">
            <path id="Union_150-5" data-name="Union 150" d="M20,0A20,20,0,0,1,40,20v0A20,20,0,0,1,0,20v0A20,20,0,0,1,20,0Z" transform="translate(9.8 11.22)" fill="#fff"/>
          </g>
          <path id="Union_150-6" data-name="Union 150" d="M20,0A20,20,0,0,1,40,20v0A20,20,0,0,1,0,20v0A20,20,0,0,1,20,0Z" transform="translate(802.798 906.915)" fill="none" stroke="rgba(0,0,0,0)" stroke-miterlimit="10" stroke-width="1"/>
        </g>
        <rect id="Rectangle_19703" data-name="Rectangle 19703" width="31.164" height="31.165" rx="15.582" transform="translate(807.372 911.084)" fill="url(#linear-gradient-3)"/>
        <rect id="Rectangle_19707" data-name="Rectangle 19707" width="1.491" height="10.441" rx="0.746" transform="translate(829.62 920.145) rotate(45)" fill="url(#linear-gradient-4)"/>
        <rect id="Rectangle_19706" data-name="Rectangle 19706" width="1.492" height="7.203" rx="0.746" transform="translate(823.229 927.398) rotate(135)" fill="url(#linear-gradient-5)"/>
        <g transform="matrix(1, 0, 0, 1, 793, 895.69)" filter="url(#Ellipse_641)">
          <circle id="Ellipse_641-2" data-name="Ellipse 641" cx="2.984" cy="2.984" r="2.984" transform="translate(26.98 28.98)" fill="url(#linear-gradient-6)"/>
        </g>
      </g>
    </g>
  </g>
</svg>
