<svg xmlns="http://www.w3.org/2000/svg" xmlns:xlink="http://www.w3.org/1999/xlink" width="60" height="60" viewBox="0 0 60 60">
  <defs>
    <linearGradient id="linear-gradient" y1="0.044" x2="1" y2="1" gradientUnits="objectBoundingBox">
      <stop offset="0" stop-color="#ffafc4"/>
      <stop offset="1" stop-color="#f6467d"/>
    </linearGradient>
    <filter id="Rectangle_20438" x="6" y="7.998" width="52" height="52" filterUnits="userSpaceOnUse">
      <feOffset dx="2" dy="4" input="SourceAlpha"/>
      <feGaussianBlur stdDeviation="2" result="blur"/>
      <feFlood flood-opacity="0.161"/>
      <feComposite operator="in" in2="blur"/>
      <feComposite in="SourceGraphic"/>
    </filter>
    <linearGradient id="linear-gradient-2" x1="0.21" y1="0.081" x2="0.832" y2="0.897" gradientUnits="objectBoundingBox">
      <stop offset="0" stop-color="#fff"/>
      <stop offset="1" stop-color="#ffc3e3"/>
    </linearGradient>
    <filter id="Ellipse_690" x="14.285" y="14.283" width="31.431" height="31.431" filterUnits="userSpaceOnUse">
      <feOffset input="SourceAlpha"/>
      <feGaussianBlur stdDeviation="1" result="blur-2"/>
      <feFlood flood-color="#f94478" flood-opacity="0.302"/>
      <feComposite operator="in" in2="blur-2"/>
      <feComposite in="SourceGraphic"/>
    </filter>
    <linearGradient id="linear-gradient-3" x1="0.21" y1="0.081" x2="0.832" y2="0.897" gradientUnits="objectBoundingBox">
      <stop offset="0" stop-color="#f89eb7"/>
      <stop offset="1" stop-color="#f85084"/>
    </linearGradient>
  </defs>
  <g id="Group_112601" data-name="Group 112601" transform="translate(-503 -1056)">
    <rect id="Rectangle_20570" data-name="Rectangle 20570" width="60" height="60" transform="translate(503 1056)" fill="#fff" opacity="0"/>
    <g id="Group_112020" data-name="Group 112020" transform="translate(10947 8277.998)">
      <g transform="matrix(1, 0, 0, 1, -10444, -7222)" filter="url(#Rectangle_20438)">
        <rect id="Rectangle_20438-2" data-name="Rectangle 20438" width="40" height="40" rx="2" transform="translate(10 10)" fill="url(#linear-gradient)"/>
      </g>
      <g id="Group_112018" data-name="Group 112018" transform="translate(-10426.715 -7204.715)">
        <g transform="matrix(1, 0, 0, 1, -17.29, -17.28)" filter="url(#Ellipse_690)">
          <circle id="Ellipse_690-2" data-name="Ellipse 690" cx="12.715" cy="12.715" r="12.715" transform="translate(17.29 17.28)" fill="url(#linear-gradient-2)"/>
        </g>
        <circle id="Ellipse_691" data-name="Ellipse 691" cx="5.194" cy="5.194" r="5.194" transform="translate(7.522 7.521)" fill="url(#linear-gradient-3)"/>
      </g>
      <path id="Path_37338" data-name="Path 37338" d="M79.607,85.508v1.327a.746.746,0,1,0,1.492,0V85.508a.746.746,0,1,0-1.492,0m-1.742,1.327V85.508a.746.746,0,1,0-1.493,0v1.327a.746.746,0,0,0,1.493,0m-3.234,0V85.508a.746.746,0,1,0-1.493,0v1.327a.746.746,0,0,0,1.493,0" transform="translate(-10479.193 -7262.407)" fill="#fff"/>
    </g>
  </g>
</svg>
