<svg xmlns="http://www.w3.org/2000/svg" width="60.328" height="63.169" viewBox="0 0 60.328 63.169">
  <g id="그룹_116306" data-name="그룹 116306" transform="translate(3 3)" opacity="0.8">
    <path id="패스_52119" data-name="패스 52119" d="M9.2,29,45.942,8l16.386,9.078L54.246,65.168,8,48.787Z" transform="translate(-8 -7.999)" fill="#fff"/>
    <g id="그룹_116286" data-name="그룹 116286" transform="translate(0 0)">
      <g id="그룹_116288" data-name="그룹 116288">
        <path id="패스_52120" data-name="패스 52120" d="M9.2,29,45.942,8l16.386,9.078L54.246,65.168,8,48.787Z" transform="translate(-8 -8)" fill="none" stroke="#fff" stroke-linecap="round" stroke-linejoin="round" stroke-width="6"/>
      </g>
    </g>
    <path id="패스_52121" data-name="패스 52121" d="M9.243,29.068l36.739-21,16.386,9.077L54.287,65.24,8.04,48.859Z" transform="translate(-8.018 -8.031)" fill="#00a7e4"/>
    <path id="패스_52122" data-name="패스 52122" d="M9.243,29.068l36.739-21,16.386,9.077L54.287,65.24,8.04,48.859Z" transform="translate(-8.018 -8.031)" fill="none" stroke="#000" stroke-linecap="round" stroke-miterlimit="10" stroke-width="2"/>
    <line id="선_814" data-name="선 814" y1="31.212" x2="54.613" transform="translate(0.022 9.615)" fill="#00a7e4"/>
    <line id="선_815" data-name="선 815" y1="31.201" x2="54.207" transform="translate(0.022 9.626)" fill="none" stroke="#000" stroke-linecap="round" stroke-miterlimit="10" stroke-width="2"/>
    <path id="패스_52123" data-name="패스 52123" d="M34.256,31.935l2.8,17.519,28.74,26.193" transform="translate(-19.526 -18.438)" fill="none" stroke="#000" stroke-linecap="round" stroke-miterlimit="10" stroke-width="2"/>
    <path id="패스_52124" data-name="패스 52124" d="M51.232,22.231,65.172,33.3l8.135,37.27" transform="translate(-27.038 -13.936)" fill="none" stroke="#000" stroke-linecap="round" stroke-miterlimit="10" stroke-width="2"/>
  </g>
</svg>
