<svg xmlns="http://www.w3.org/2000/svg" xmlns:xlink="http://www.w3.org/1999/xlink" width="107.051" height="106.908" viewBox="0 0 107.051 106.908">
  <defs>
    <clipPath id="clip-path">
      <rect id="Rectangle_19644" data-name="Rectangle 19644" width="107.051" height="106.908" fill="none"/>
    </clipPath>
  </defs>
  <g id="시계" clip-path="url(#clip-path)">
    <path id="Path_36441" data-name="Path 36441" d="M94.484,36.078a47.244,47.244,0,1,1-60.979-27.3,47.244,47.244,0,0,1,60.979,27.3" transform="translate(4.316 1.6)" fill="#080d4b"/>
    <path id="Path_36442" data-name="Path 36442" d="M94.484,36.078a47.244,47.244,0,1,1-60.979-27.3A47.244,47.244,0,0,1,94.484,36.078Z" transform="translate(4.316 1.6)" fill="none" stroke="#080d4b" stroke-linecap="round" stroke-linejoin="round" stroke-width="2"/>
    <path id="Path_36443" data-name="Path 36443" d="M92.9,31.918a47.244,47.244,0,1,1-60.979-27.3A47.244,47.244,0,0,1,92.9,31.918" transform="translate(5.092 3.636)" fill="#fec211"/>
    <path id="Path_36444" data-name="Path 36444" d="M92.9,31.918a47.244,47.244,0,1,1-60.979-27.3A47.244,47.244,0,0,1,92.9,31.918Z" transform="translate(5.092 3.636)" fill="none" stroke="#080d4b" stroke-linecap="round" stroke-linejoin="round" stroke-width="1"/>
    <path id="Path_36445" data-name="Path 36445" d="M93.037,39.461A41.508,41.508,0,1,1,39.461,15.472,41.509,41.509,0,0,1,93.037,39.461" transform="translate(-0.406 -1.863)" fill="#fff"/>
    <path id="Path_36446" data-name="Path 36446" d="M93.037,39.461A41.508,41.508,0,1,1,39.461,15.472,41.509,41.509,0,0,1,93.037,39.461Z" transform="translate(-0.406 -1.863)" fill="none" stroke="#080d4b" stroke-linecap="round" stroke-linejoin="round" stroke-width="1"/>
    <line id="Line_741" data-name="Line 741" x2="0.866" y2="2.271" transform="translate(39.972 16.016)" fill="#fff" stroke="#707070" stroke-width="1"/>
    <line id="Line_742" data-name="Line 742" x2="0.866" y2="2.271" transform="translate(39.972 16.016)" fill="none" stroke="#080d4b" stroke-linecap="round" stroke-linejoin="round" stroke-width="1"/>
    <line id="Line_743" data-name="Line 743" x2="1.885" y2="1.533" transform="translate(23.643 27.827)" fill="#fff" stroke="#707070" stroke-width="1"/>
    <line id="Line_744" data-name="Line 744" x2="1.885" y2="1.533" transform="translate(23.643 27.827)" fill="none" stroke="#080d4b" stroke-linecap="round" stroke-linejoin="round" stroke-width="1"/>
    <line id="Line_745" data-name="Line 745" x2="2.399" y2="0.385" transform="translate(15.408 46.221)" fill="#fff" stroke="#707070" stroke-width="1"/>
    <line id="Line_746" data-name="Line 746" x2="2.399" y2="0.385" transform="translate(15.408 46.221)" fill="none" stroke="#080d4b" stroke-linecap="round" stroke-linejoin="round" stroke-width="1"/>
    <line id="Line_747" data-name="Line 747" y1="0.866" x2="2.271" transform="translate(17.473 65.402)" fill="#fff" stroke="#707070" stroke-width="1"/>
    <line id="Line_748" data-name="Line 748" y1="0.866" x2="2.271" transform="translate(17.473 65.402)" fill="none" stroke="#080d4b" stroke-linecap="round" stroke-linejoin="round" stroke-width="1"/>
    <line id="Line_749" data-name="Line 749" y1="1.885" x2="1.533" transform="translate(29.284 80.712)" fill="#fff" stroke="#707070" stroke-width="1"/>
    <line id="Line_750" data-name="Line 750" y1="1.885" x2="1.533" transform="translate(29.284 80.712)" fill="none" stroke="#080d4b" stroke-linecap="round" stroke-linejoin="round" stroke-width="1"/>
    <line id="Line_751" data-name="Line 751" y1="2.399" x2="0.385" transform="translate(47.678 88.433)" fill="#fff" stroke="#707070" stroke-width="1"/>
    <line id="Line_752" data-name="Line 752" y1="2.399" x2="0.385" transform="translate(47.678 88.433)" fill="none" stroke="#080d4b" stroke-linecap="round" stroke-linejoin="round" stroke-width="1"/>
    <line id="Line_753" data-name="Line 753" x1="0.866" y1="2.271" transform="translate(66.859 86.497)" fill="#fff" stroke="#707070" stroke-width="1"/>
    <line id="Line_754" data-name="Line 754" x1="0.866" y1="2.271" transform="translate(66.859 86.497)" fill="none" stroke="#080d4b" stroke-linecap="round" stroke-linejoin="round" stroke-width="1"/>
    <line id="Line_755" data-name="Line 755" x1="1.885" y1="1.533" transform="translate(82.169 75.423)" fill="#fff" stroke="#707070" stroke-width="1"/>
    <line id="Line_756" data-name="Line 756" x1="1.885" y1="1.533" transform="translate(82.169 75.423)" fill="none" stroke="#080d4b" stroke-linecap="round" stroke-linejoin="round" stroke-width="1"/>
    <line id="Line_757" data-name="Line 757" x1="2.399" y1="0.385" transform="translate(89.89 58.178)" fill="#fff" stroke="#707070" stroke-width="1"/>
    <line id="Line_758" data-name="Line 758" x1="2.399" y1="0.385" transform="translate(89.89 58.178)" fill="none" stroke="#080d4b" stroke-linecap="round" stroke-linejoin="round" stroke-width="1"/>
    <line id="Line_759" data-name="Line 759" x1="2.271" y2="0.866" transform="translate(87.954 38.516)" fill="#fff" stroke="#707070" stroke-width="1"/>
    <line id="Line_760" data-name="Line 760" x1="2.271" y2="0.866" transform="translate(87.954 38.516)" fill="none" stroke="#080d4b" stroke-linecap="round" stroke-linejoin="round" stroke-width="1"/>
    <line id="Line_766" data-name="Line 766" y2="24.293" transform="translate(53.828 25.516)" fill="none" stroke="#000" stroke-linecap="round" stroke-linejoin="round" stroke-width="2"/>
    <line id="Line_767" data-name="Line 767" x1="17.168" y2="12" transform="translate(54.66 39.809)" fill="none" stroke="#000" stroke-linecap="round" stroke-linejoin="round" stroke-width="2"/>
    <line id="Line_761" data-name="Line 761" x1="1.533" y2="1.885" transform="translate(76.88 22.187)" fill="#fff" stroke="#707070" stroke-width="1"/>
    <line id="Line_762" data-name="Line 762" x1="1.533" y2="1.885" transform="translate(76.88 22.187)" fill="none" stroke="#080d4b" stroke-linecap="round" stroke-linejoin="round" stroke-width="1"/>
    <line id="Line_763" data-name="Line 763" x1="0.385" y2="2.399" transform="translate(59.635 13.951)" fill="#fff" stroke="#707070" stroke-width="1"/>
    <line id="Line_764" data-name="Line 764" x1="0.385" y2="2.399" transform="translate(59.635 13.951)" fill="none" stroke="#080d4b" stroke-linecap="round" stroke-linejoin="round" stroke-width="1"/>
    <path id="Path_36447" data-name="Path 36447" d="M93.991,90.663a2.578,2.578,0,1,1-3.327-1.49,2.578,2.578,0,0,1,3.327,1.49" transform="translate(-37.677 -39.19)" fill="#fec211"/>
    <path id="Path_36448" data-name="Path 36448" d="M93.991,90.663a2.578,2.578,0,1,1-3.327-1.49A2.578,2.578,0,0,1,93.991,90.663Z" transform="translate(-37.733 -39.19)" fill="none" stroke="#000" stroke-linecap="round" stroke-linejoin="round" stroke-width="1"/>
  </g>
</svg>
