<?xml version="1.0" encoding="utf-8"?>
<!-- Generator: Adobe Illustrator 26.3.1, SVG Export Plug-In . SVG Version: 6.00 Build 0)  -->
<svg version="1.1" id="Layer_1" xmlns="http://www.w3.org/2000/svg" xmlns:xlink="http://www.w3.org/1999/xlink" x="0px" y="0px" viewBox="0 0 32 32" style="enable-background:new 0 0 32 32;" xml:space="preserve">
<style type="text/css">
.st0{fill:#EFC6FF;}
.st1{fill:none;stroke:#000000;stroke-width:1.5;}
.st2{enable-background:new;}
</style>
<g id="Group_109728" transform="translate(-130 -433)">
	<g id="Ellipse_280" transform="translate(130 433)">
		<circle class="st0" cx="16" cy="16" r="16"/>
		<circle class="st1" cx="16" cy="16" r="15.2"/>
	</g>
	<g class="st2">
		<path d="M141.5,448h0.9c0.4,0,0.7-0.1,1-0.3s0.3-0.5,0.3-0.9c0-0.3-0.1-0.6-0.3-0.8s-0.5-0.3-0.8-0.3c-0.3,0-0.6,0.1-0.8,0.3
			s-0.3,0.4-0.3,0.7h-1.7c0-0.4,0.1-0.8,0.4-1.2s0.6-0.6,1-0.8s0.9-0.3,1.4-0.3c0.9,0,1.6,0.2,2.1,0.6s0.8,1,0.8,1.8
			c0,0.4-0.1,0.8-0.4,1.1s-0.6,0.6-0.9,0.8c0.5,0.2,0.8,0.4,1.1,0.8s0.4,0.8,0.4,1.2c0,0.8-0.3,1.4-0.8,1.8s-1.3,0.7-2.2,0.7
			c-0.9,0-1.5-0.2-2.1-0.7s-0.8-1-0.8-1.8h1.7c0,0.3,0.1,0.6,0.4,0.8s0.5,0.3,0.9,0.3c0.4,0,0.7-0.1,0.9-0.3s0.3-0.5,0.3-0.8
			c0-0.9-0.5-1.3-1.4-1.3h-0.9V448z"/>
		<path d="M152.3,449.5c0,1.2-0.2,2.1-0.7,2.7s-1.2,0.9-2.1,0.9c-0.9,0-1.6-0.3-2.1-0.9s-0.7-1.5-0.8-2.6V448c0-1.2,0.2-2.1,0.7-2.7
			s1.2-0.9,2.1-0.9s1.6,0.3,2.1,0.9s0.7,1.5,0.8,2.6V449.5z M150.6,447.7c0-0.7-0.1-1.2-0.3-1.5c-0.2-0.3-0.5-0.5-0.9-0.5
			c-0.4,0-0.7,0.2-0.9,0.5c-0.2,0.3-0.3,0.8-0.3,1.4v2.1c0,0.7,0.1,1.2,0.3,1.6c0.2,0.3,0.5,0.5,0.9,0.5c0.4,0,0.7-0.2,0.9-0.5
			c0.2-0.3,0.3-0.8,0.3-1.5V447.7z"/>
	</g>
</g>
</svg>
