<?xml version="1.0" encoding="utf-8"?>
<!-- Generator: Adobe Illustrator 26.2.1, SVG Export Plug-In . SVG Version: 6.00 Build 0)  -->
<svg version="1.1" xmlns="http://www.w3.org/2000/svg" xmlns:xlink="http://www.w3.org/1999/xlink" x="0px" y="0px" viewBox="0 0 220 255" style="enable-background:new 0 0 220 255;" xml:space="preserve">
<style type="text/css">
#left {animation:left both linear infinite 3s; transform-origin:90% 50%;}
@keyframes left {
0% {transform:translate(0,0) rotate(-3deg); }
10% {transform:translate(0%,2%) rotate(0deg);}
20% {transform:translate(0,0) rotate(-3deg);}
30% {transform:translate(0,0) rotate(-3deg);}
40% {transform:translate(0%,2%) rotate(0deg);}
50% {transform:translate(0,0) rotate(-3deg);}
100% {transform:translate(0,0) rotate(-3deg);}
}

#right {animation:right both linear infinite 3s; transform-origin:-10% 40%;}
@keyframes right {
0% {transform:translate(0,0) rotate(3deg); }
10% {transform:translate(0%,2%) rotate(0deg);}
20% {transform:translate(0,0) rotate(3deg);}
30% {transform:translate(0,0) rotate(3deg);}
40% {transform:translate(0%,2%) rotate(0deg);}
50% {transform:translate(0,0) rotate(3deg);}
100% {transform:translate(0,0) rotate(3deg);}
}

#line {animation:line both linear infinite 3s; transform:translate(0%,1%);}
@keyframes line {
0% {opacity:0 }
10% {opacity:100}
20% {opacity:0}
30% {opacity:0}
40% {opacity:100}
50% {opacity:0}
100% {opacity:0}
}

<!-- #line {transform:translate(0%,2%); animation:line both infinite linear 3s;stroke-dasharray:50;stroke-dashoffset:50;}	
@keyframes line {
0% {stroke-dashoffset:50;}
15% {stroke-dashoffset:0;}
25% {stroke-dashoffset:50;}
30% {stroke-dashoffset:50;}
45% {stroke-dashoffset:0;}
55% {stroke-dashoffset:50;}
100% {stroke-dashoffset:50;}
} -->

</style>
  <defs>
  </defs>
  <g id="그룹_112997" data-name="그룹 112997" transform="translate(-1381 -941)">
    <g id="그룹_112989" data-name="그룹 112989" transform="translate(1381.942 959.923)">
      <g id="그룹_112990" data-name="그룹 112990" clip-path="url(#clip-path)">
        <g id="left">
          <path id="패스_38747" data-name="패스 38747" d="M177.986,64.211s-7.175,12.4-24.968,12.4V71.874s12.094-2.342,17.33-19.281" transform="translate(-55.209 -18.976)" fill="#fec211" stroke="#707070" stroke-width="2"/>
          <path id="패스_38748" data-name="패스 38748" d="M177.986,64.211s-7.175,12.4-24.968,12.4V71.874s12.094-2.342,17.33-19.281" transform="translate(-55.209 -18.976)" fill="none" stroke="#080d4b" stroke-linecap="round" stroke-linejoin="round" stroke-width="2"/>
          <path id="패스_38749" data-name="패스 38749" d="M179.33,34.774c0-.007,0-.015,0-.021,4.374-6.806,2.168-14.966,6.414-14.966,3.676,0,7.029,8.042,3.438,12.856h.046c5.76,0,7.342,4.669,7.342,10.43s-1.582,10.43-7.342,10.43-13.518-.631-13.518-10.43c0-4.275,1.477-6.8,3.62-8.3" transform="translate(-63.396 -7.139)" fill="#fec211" stroke="#707070" stroke-width="2"/>
          <path id="패스_38750" data-name="패스 38750" d="M179.33,34.774c0-.007,0-.015,0-.021,4.374-6.806,2.168-14.966,6.414-14.966,3.676,0,7.029,8.042,3.438,12.856h.046c5.76,0,7.342,4.669,7.342,10.43s-1.582,10.43-7.342,10.43-13.518-.631-13.518-10.43C175.71,38.8,177.187,36.268,179.33,34.774Z" transform="translate(-63.396 -7.139)" fill="none" stroke="#080d4b" stroke-linecap="round" stroke-linejoin="round" stroke-width="2"/>
          <path id="패스_38751" data-name="패스 38751" d="M186.3,44.082c0,3.58,3.7,4.173,8.261,4.173s8.261-.593,8.261-4.173-3.7-4.173-8.261-4.173-8.261.593-8.261,4.173" transform="translate(-67.219 -14.399)" fill="#fec211" stroke="#707070" stroke-width="2"/>
          <ellipse id="타원_724" data-name="타원 724" cx="8.261" cy="4.173" rx="8.261" ry="4.173" transform="translate(119.085 25.51)" fill="none" stroke="#080d4b" stroke-linecap="round" stroke-linejoin="round" stroke-width="2"/>
          <path id="패스_38752" data-name="패스 38752" d="M186.3,63.891c0,3.58,3.7,4.173,8.261,4.173s8.261-.593,8.261-4.173-3.7-4.173-8.261-4.173-8.261.593-8.261,4.173" transform="translate(-67.219 -21.546)" fill="#fec211" stroke="#707070" stroke-width="2"/>
          <ellipse id="타원_725" data-name="타원 725" cx="8.261" cy="4.173" rx="8.261" ry="4.173" transform="translate(119.085 38.171)" fill="none" stroke="#080d4b" stroke-linecap="round" stroke-linejoin="round" stroke-width="2"/>
          <path id="패스_38753" data-name="패스 38753" d="M188.638,54.343c0,3.58,3.7,4.173,8.261,4.173s8.261-.593,8.261-4.173-3.7-4.173-8.261-4.173-8.261.593-8.261,4.173" transform="translate(-68.061 -18.101)" fill="#fec211" stroke="#707070" stroke-width="2"/>
          <ellipse id="타원_726" data-name="타원 726" cx="8.261" cy="4.173" rx="8.261" ry="4.173" transform="translate(120.577 32.069)" fill="none" stroke="#080d4b" stroke-linecap="round" stroke-linejoin="round" stroke-width="2"/>
        </g>
        <g id="line" class="st0">
          <line id="선_1820" data-name="선 1820" x1="2.307" y1="5.548" transform="translate(115.496 2.83)" fill="#fec211" stroke="#707070" stroke-width="2"/>
          <line id="선_1821" data-name="선 1821" x1="2.307" y1="5.548" transform="translate(115.496 2.83)" fill="none" stroke="#080d4b" stroke-linecap="round" stroke-linejoin="round" stroke-width="2"/>
        </g>
        <g id="line" class="st0">
          <line id="선_1816" data-name="선 1816" y1="6.008" transform="translate(122.744 0.958)" fill="#fec211" stroke="#707070" stroke-width="2"/>
          <line id="선_1817" data-name="선 1817" y1="6.008" transform="translate(122.744 0.958)" fill="none" stroke="#080d4b" stroke-linecap="round" stroke-linejoin="round" stroke-width="2"/>
        </g>
        <g id="line" class="st0">
          <line id="선_1818" data-name="선 1818" y1="5.548" x2="2.307" transform="translate(127.685 2.83)" fill="#fec211" stroke="#707070" stroke-width="2"/>
          <line id="선_1819" data-name="선 1819" y1="5.548" x2="2.307" transform="translate(127.685 2.83)" fill="none" stroke="#080d4b" stroke-linecap="round" stroke-linejoin="round" stroke-width="2"/>
        </g>
        <g id="right">
          <path id="패스_38754" data-name="패스 38754" d="M23.908,64.211s7.175,12.4,24.968,12.4V71.874s-12.094-2.342-17.33-19.281" transform="translate(-8.626 -18.976)" fill="#fec211" stroke="#707070" stroke-width="2"/>
          <path id="패스_38755" data-name="패스 38755" d="M23.908,64.211s7.175,12.4,24.968,12.4V71.874s-12.094-2.342-17.33-19.281" transform="translate(-8.626 -18.976)" fill="none" stroke="#080d4b" stroke-linecap="round" stroke-linejoin="round" stroke-width="2"/>
          <path id="패스_38756" data-name="패스 38756" d="M24.881,34.774c0-.007,0-.015,0-.021-4.374-6.806-2.168-14.966-6.414-14.966-3.676,0-7.029,8.042-3.438,12.856h-.046c-5.76,0-7.342,4.669-7.342,10.43S9.223,53.5,14.983,53.5,28.5,52.871,28.5,43.072c0-4.275-1.477-6.8-3.62-8.3" transform="translate(-2.757 -7.139)" fill="#fec211" stroke="#707070" stroke-width="2"/>
          <path id="패스_38757" data-name="패스 38757" d="M24.881,34.774c0-.007,0-.015,0-.021-4.374-6.806-2.168-14.966-6.414-14.966-3.676,0-7.029,8.042-3.438,12.856h-.046c-5.76,0-7.342,4.669-7.342,10.43S9.223,53.5,14.983,53.5,28.5,52.871,28.5,43.072C28.5,38.8,27.024,36.268,24.881,34.774Z" transform="translate(-2.757 -7.139)" fill="none" stroke="#080d4b" stroke-linecap="round" stroke-linejoin="round" stroke-width="2"/>
          <path id="패스_38758" data-name="패스 38758" d="M20.357,44.082c0,3.58-3.7,4.173-8.261,4.173s-8.261-.593-8.261-4.173,3.7-4.173,8.261-4.173,8.261.593,8.261,4.173" transform="translate(-1.384 -14.399)" fill="#fec211" stroke="#707070" stroke-width="2"/>
          <ellipse id="타원_727" data-name="타원 727" cx="8.261" cy="4.173" rx="8.261" ry="4.173" transform="translate(2.451 25.51)" fill="none" stroke="#080d4b" stroke-linecap="round" stroke-linejoin="round" stroke-width="2"/>
          <path id="패스_38759" data-name="패스 38759" d="M20.357,63.891c0,3.58-3.7,4.173-8.261,4.173s-8.261-.593-8.261-4.173,3.7-4.173,8.261-4.173,8.261.593,8.261,4.173" transform="translate(-1.384 -21.546)" fill="#fec211" stroke="#707070" stroke-width="2"/>
          <ellipse id="타원_728" data-name="타원 728" cx="8.261" cy="4.173" rx="8.261" ry="4.173" transform="translate(2.451 38.171)" fill="none" stroke="#080d4b" stroke-linecap="round" stroke-linejoin="round" stroke-width="2"/>
          <path id="패스_38760" data-name="패스 38760" d="M18.022,54.343c0,3.58-3.7,4.173-8.261,4.173S1.5,57.922,1.5,54.343,5.2,50.17,9.761,50.17s8.261.593,8.261,4.173" transform="translate(-0.541 -18.101)" fill="#fec211" stroke="#707070" stroke-width="2"/>
          <ellipse id="타원_729" data-name="타원 729" cx="8.261" cy="4.173" rx="8.261" ry="4.173" transform="translate(0.959 32.069)" fill="none" stroke="#080d4b" stroke-linecap="round" stroke-linejoin="round" stroke-width="2"/>
        </g>
        <g id="line">
          <line id="선_1826" data-name="선 1826" y1="5.548" x2="2.307" transform="translate(20.255 2.83)" fill="#fec211" stroke="#707070" stroke-width="2"/>
          <line id="선_1827" data-name="선 1827" y1="5.548" x2="2.307" transform="translate(20.255 2.83)" fill="none" stroke="#080d4b" stroke-linecap="round" stroke-linejoin="round" stroke-width="2"/>
        </g>
        <g id="line">
          <line id="선_1822" data-name="선 1822" y1="6.008" transform="translate(15.314 0.958)" fill="#fec211" stroke="#707070" stroke-width="2"/>
          <line id="선_1823" data-name="선 1823" y1="6.008" transform="translate(15.314 0.958)" fill="none" stroke="#080d4b" stroke-linecap="round" stroke-linejoin="round" stroke-width="2"/>
        </g>
        <g id="line">
          <line id="선_1824" data-name="선 1824" x1="2.307" y1="5.548" transform="translate(8.066 2.83)" fill="#fec211" stroke="#707070" stroke-width="2"/>
          <line id="선_1825" data-name="선 1825" x1="2.307" y1="5.548" transform="translate(8.066 2.83)" fill="none" stroke="#080d4b" stroke-linecap="round" stroke-linejoin="round" stroke-width="2"/>
        </g>
        <g id="body">
          <path id="패스_38761" data-name="패스 38761" d="M86.806,108.382V130h-.155a11.161,11.161,0,0,1-6.482-1.945,6.378,6.378,0,0,0-4.37-1.144,6.411,6.411,0,0,0,.673,12.787H86.705a7.6,7.6,0,0,0,7.6-7.6V108.382Z" transform="translate(-25.278 -39.104)" fill="#fec211" stroke="#707070" stroke-width="2"/>
          <path id="패스_38762" data-name="패스 38762" d="M86.806,108.382V130h-.155a11.161,11.161,0,0,1-6.482-1.945,6.378,6.378,0,0,0-4.37-1.144,6.411,6.411,0,0,0,.673,12.787H86.705a7.6,7.6,0,0,0,7.6-7.6V108.382Z" transform="translate(-25.278 -39.104)" fill="none" stroke="#080d4b" stroke-linecap="round" stroke-linejoin="round" stroke-width="2"/>
          <path id="패스_38763" data-name="패스 38763" d="M115.495,108.382V130h.155a11.161,11.161,0,0,0,6.482-1.945,6.378,6.378,0,0,1,4.37-1.144,6.411,6.411,0,0,1-.673,12.787H115.6a7.6,7.6,0,0,1-7.6-7.6V108.382Z" transform="translate(-38.964 -39.104)" fill="#fec211" stroke="#707070" stroke-width="2"/>
          <path id="패스_38764" data-name="패스 38764" d="M115.495,108.382V130h.155a11.161,11.161,0,0,0,6.482-1.945,6.378,6.378,0,0,1,4.37-1.144,6.411,6.411,0,0,1-.673,12.787H115.6a7.6,7.6,0,0,1-7.6-7.6V108.382Z" transform="translate(-38.964 -39.104)" fill="none" stroke="#080d4b" stroke-linecap="round" stroke-linejoin="round" stroke-width="2"/>
          <path id="패스_38765" data-name="패스 38765" d="M123.617,43.683A35.871,35.871,0,1,1,87.746,7.812a35.871,35.871,0,0,1,35.871,35.871" transform="translate(-18.717 -2.819)" fill="#fec211" stroke="#707070" stroke-width="2"/>
          <path id="패스_38766" data-name="패스 38766" d="M123.617,43.683A35.871,35.871,0,1,1,87.746,7.812,35.871,35.871,0,0,1,123.617,43.683Z" transform="translate(-18.717 -2.819)" fill="none" stroke="#080d4b" stroke-linecap="round" stroke-linejoin="round" stroke-width="2"/>
          <path id="패스_38767" data-name="패스 38767" d="M93.342,73.609a10.326,10.326,0,0,0,18.73,0" transform="translate(-33.678 -26.558)" fill="none" stroke="#080d4b" stroke-linecap="round" stroke-linejoin="round" stroke-width="2"/>
          <path id="패스_38768" data-name="패스 38768" d="M93.19,70.769a2.179,2.179,0,0,1-2.678,2.168" transform="translate(-32.657 -25.534)" fill="none" stroke="#080d4b" stroke-linecap="round" stroke-linejoin="round" stroke-width="2"/>
          <path id="패스_38769" data-name="패스 38769" d="M121.266,70.769a2.179,2.179,0,0,0,2.678,2.168" transform="translate(-43.741 -25.534)" fill="none" stroke="#080d4b" stroke-linecap="round" stroke-linejoin="round" stroke-width="2"/>
          <path id="패스_38770" data-name="패스 38770" d="M109.939,64.855c0,2-2,3.626-4.468,3.626S101,66.857,101,64.855s2-3.626,4.468-3.626,4.468,1.623,4.468,3.626" transform="translate(-36.442 -22.092)" fill="#f06a86" stroke="#707070" stroke-width="2"/>
          <ellipse id="타원_730" data-name="타원 730" cx="4.468" cy="3.626" rx="4.468" ry="3.626" transform="translate(64.561 39.137)" fill="none" stroke="#080d4b" stroke-linecap="round" stroke-linejoin="round" stroke-width="2"/>
          <path id="패스_38771" data-name="패스 38771" d="M97.578,53.485c0,1.81-.4,3.277-.892,3.277s-.892-1.467-.892-3.277.4-3.277.892-3.277.892,1.467.892,3.277" transform="translate(-34.563 -18.115)" fill="#080d4b" stroke="#707070" stroke-width="2"/>
          <path id="패스_38772" data-name="패스 38772" d="M97.578,53.485c0,1.81-.4,3.277-.892,3.277s-.892-1.467-.892-3.277.4-3.277.892-3.277S97.578,51.675,97.578,53.485Z" transform="translate(-34.563 -18.115)" fill="none" stroke="#080d4b" stroke-linecap="round" stroke-linejoin="round" stroke-width="2"/>
          <path id="패스_38773" data-name="패스 38773" d="M117.4,53.485c0,1.81.4,3.277.892,3.277s.892-1.467.892-3.277-.4-3.277-.892-3.277-.892,1.467-.892,3.277" transform="translate(-42.358 -18.115)" fill="#080d4b" stroke="#707070" stroke-width="2"/>
          <path id="패스_38774" data-name="패스 38774" d="M117.4,53.485c0,1.81.4,3.277.892,3.277s.892-1.467.892-3.277-.4-3.277-.892-3.277S117.4,51.675,117.4,53.485Z" transform="translate(-42.358 -18.115)" fill="none" stroke="#080d4b" stroke-linecap="round" stroke-linejoin="round" stroke-width="2"/>
        </g>
      </g>
    </g>
    <rect id="사각형_20759" data-name="사각형 20759" width="140" height="140" transform="translate(1381 941)" fill="none"/>
  </g>
</svg>
