<svg xmlns="http://www.w3.org/2000/svg" width="72" height="72" viewBox="0 0 72 72">
  <g id="그룹_116310" data-name="그룹 116310" transform="translate(16577 -6784.568)">
    <rect id="사각형_22351" data-name="사각형 22351" width="72" height="72" transform="translate(-16577 6784.568)" fill="none"/>
    <g id="그룹_116262" data-name="그룹 116262" transform="translate(-16567.17 6786.815)">
      <path id="패스_42683" data-name="패스 42683" d="M11.92,9.694,31.4,29.177,7.7,19.005Z" transform="translate(4.264 13.869)" fill="#fff" stroke="#000" stroke-linecap="round" stroke-linejoin="round" stroke-width="2"/>
      <path id="패스_42684" data-name="패스 42684" d="M8.875,15.3l23.7,10.172-8.771,3.988-.013-.013L5.926,21.772Z" transform="translate(3.09 17.577)" fill="#fff" stroke="#000" stroke-linecap="round" stroke-linejoin="round" stroke-width="2"/>
      <path id="패스_42685" data-name="패스 42685" d="M7.1,19.194,24.97,26.867,16.2,30.855,4.149,25.7Z" transform="translate(1.914 20.154)" fill="#fff" stroke="#000" stroke-linecap="round" stroke-linejoin="round" stroke-width="2"/>
      <path id="패스_42686" data-name="패스 42686" d="M5.325,23.107l12.048,5.159-8.8,3.989-6.2-2.647Z" transform="translate(0.739 22.743)" fill="#fff" stroke="#000" stroke-linecap="round" stroke-linejoin="round" stroke-width="2"/>
      <g id="그룹_116259" data-name="그룹 116259" transform="translate(0 52.351)">
        <g id="그룹_116283" data-name="그룹 116283">
          <path id="패스_42687" data-name="패스 42687" d="M3.612,27.02l6.2,2.648L.5,33.887Z" transform="translate(-0.5 -27.02)" fill="#fff" stroke="#000" stroke-linecap="round" stroke-linejoin="round" stroke-width="2"/>
        </g>
      </g>
      <line id="선_806" data-name="선 806" x1="21.892" y1="21.892" transform="translate(14.984 22.354)" fill="none" stroke="#000" stroke-linecap="round" stroke-linejoin="round" stroke-width="2"/>
      <line id="선_807" data-name="선 807" y1="7.982" x2="7.982" transform="translate(29.775 21.473)" fill="none" stroke="#000" stroke-linecap="round" stroke-linejoin="round" stroke-width="2"/>
      <g id="그룹_116261" data-name="그룹 116261" transform="translate(9.295 0)">
        <g id="그룹_116263" data-name="그룹 116263">
          <path id="패스_42688" data-name="패스 42688" d="M30.145,16.9a6.206,6.206,0,0,0-8.788,0" transform="translate(2.59 16.02)" fill="none" stroke="#000" stroke-linecap="round" stroke-linejoin="round" stroke-width="2"/>
          <path id="패스_42689" data-name="패스 42689" d="M15.366,13.686a6.206,6.206,0,0,0,0-8.788" transform="translate(1.453 12.11)" fill="none" stroke="#000" stroke-linecap="round" stroke-linejoin="round" stroke-width="2"/>
          <circle id="타원_800" data-name="타원 800" cx="2.647" cy="2.647" r="2.647" transform="translate(35.818 34.194)" fill="#fff" stroke="#000" stroke-linecap="round" stroke-linejoin="round" stroke-width="2"/>
          <circle id="타원_801" data-name="타원 801" cx="2.647" cy="2.647" r="2.647" transform="translate(10.649 9.025)" fill="#fff" stroke="#000" stroke-linecap="round" stroke-linejoin="round" stroke-width="2"/>
          <circle id="타원_802" data-name="타원 802" cx="1.688" cy="1.688" r="1.688" transform="translate(20.25 9.144)"/>
          <circle id="타원_803" data-name="타원 803" cx="1.688" cy="1.688" r="1.688" transform="translate(0 15.894)"/>
          <circle id="타원_804" data-name="타원 804" cx="1.688" cy="1.688" r="1.688" transform="translate(40.5 26.019)"/>
          <circle id="타원_805" data-name="타원 805" cx="1.688" cy="1.688" r="1.688" transform="translate(32.062 46.269)"/>
          <g id="다각형_33" data-name="다각형 33" transform="translate(35.82) rotate(45)" fill="#fff">
            <path d="M 5.076210021972656 18.54070663452148 L 5.659160137176514 13.60432624816895 C 5.726119995117188 13.03727626800537 5.546909809112549 12.46735572814941 5.16746997833252 12.04068565368652 L 1.902400016784668 8.369195938110352 L 6.517139911651611 7.432896137237549 C 7.108739852905273 7.312865734100342 7.609079837799072 6.937545776367188 7.889890193939209 6.403175830841064 L 10.125 2.149755954742432 L 12.36009979248047 6.403165817260742 C 12.64091014862061 6.937535762786865 13.14126014709473 7.31285572052002 13.73285007476807 7.432886123657227 L 18.34761047363281 8.369195938110352 C 18.34760665893555 8.369195938110352 18.34760665893555 8.369197845458984 18.34760856628418 8.369197845458984 L 15.08251953125 12.040696144104 C 14.70308971405029 12.46737575531006 14.52388000488281 13.03729629516602 14.59084033966064 13.60432624816895 L 15.17378997802734 18.54070663452148 C 15.17376899719238 18.5406608581543 15.17375469207764 18.54067039489746 15.17374038696289 18.54068183898926 L 11.00800037384033 16.49091529846191 C 10.73482990264893 16.35649681091309 10.42947959899902 16.28543663024902 10.125 16.28543663024902 C 9.820520401000977 16.28543663024902 9.515170097351074 16.35649681091309 9.241979598999023 16.49092674255371 L 5.076210021972656 18.54070663452148 Z" stroke="none"/>
            <path d="M 10.125 4.299510955810547 L 8.775110244750977 6.868366241455078 C 8.353899955749512 7.669905662536621 7.60338020324707 8.232875823974609 6.71597957611084 8.412925720214844 L 3.804786682128906 9.003588676452637 L 5.91471004486084 11.37614631652832 C 6.483880043029785 12.01613616943359 6.752699851989746 12.87102603912354 6.652259826660156 13.72160530090332 L 6.285017013549805 16.8314037322998 L 8.800379753112793 15.59370613098145 C 9.210180282592773 15.39203643798828 9.668230056762695 15.28543663024902 10.125 15.28543663024902 C 10.5817403793335 15.28543663024902 11.03977012634277 15.3920259475708 11.44950008392334 15.59365653991699 L 13.96498489379883 16.83140754699707 L 13.59774017333984 13.72160530090332 C 13.49730014801025 12.87105560302734 13.76610946655273 12.01618576049805 14.33526992797852 11.37616634368896 L 16.44520950317383 9.003584861755371 L 13.53400039672852 8.41291618347168 C 12.64663982391357 8.232866287231445 11.89612007141113 7.669916152954102 11.47488021850586 6.868335723876953 L 10.125 4.299510955810547 M 10.125 1.149753570556641 C 10.47393035888672 1.149753570556641 10.82285976409912 1.328031539916992 11.01021957397461 1.684585571289062 L 13.24531936645508 5.937995910644531 C 13.38512992858887 6.204035758972168 13.63716983795166 6.393095970153809 13.93169975280762 6.452856063842773 L 18.54644966125488 7.389165878295898 C 19.30223083496094 7.542515754699707 19.60733985900879 8.457466125488281 19.0948600769043 9.033736228942871 L 15.82978057861328 12.70523548126221 C 15.6399097442627 12.91874599456787 15.55043029785156 13.20328521728516 15.58394050598145 13.48704528808594 L 16.16688919067383 18.42342567443848 C 16.25986099243164 19.21068572998047 15.44357967376709 19.78795623779297 14.73229026794434 19.43796539306641 L 10.56649971008301 17.38817596435547 C 10.28811073303223 17.25118637084961 9.961889266967773 17.25118637084961 9.683500289916992 17.38817596435547 L 5.517709732055664 19.43796539306641 C 4.806421279907227 19.7879581451416 3.990140914916992 19.21068572998047 4.083110809326172 18.42342567443848 L 4.666060447692871 13.48704528808594 C 4.699569702148438 13.20328521728516 4.610099792480469 12.91874599456787 4.420220375061035 12.70523548126221 L 1.155139923095703 9.033736228942871 C 0.6426601409912109 8.457475662231445 0.9477691650390625 7.542515754699707 1.703550338745117 7.389165878295898 L 6.318300247192383 6.452865600585938 C 6.61283016204834 6.393105506896973 6.864870071411133 6.204046249389648 7.004679679870605 5.937995910644531 L 9.239780426025391 1.684585571289062 C 9.427140235900879 1.328031539916992 9.776069641113281 1.149753570556641 10.125 1.149753570556641 Z" stroke="none" fill="#000"/>
          </g>
        </g>
      </g>
    </g>
  </g>
</svg>
