<svg xmlns="http://www.w3.org/2000/svg" xmlns:xlink="http://www.w3.org/1999/xlink" width="60" height="60" viewBox="0 0 60 60">
  <defs>
    <linearGradient id="linear-gradient" x1="0.172" y1="0.057" x2="0.847" y2="0.806" gradientUnits="objectBoundingBox">
      <stop offset="0" stop-color="#ffdf9a"/>
      <stop offset="1" stop-color="#ffb833"/>
    </linearGradient>
    <filter id="Path_37339" x="9.076" y="8.828" width="45.847" height="40.886" filterUnits="userSpaceOnUse">
      <feOffset dx="2" dy="4" input="SourceAlpha"/>
      <feGaussianBlur stdDeviation="2" result="blur"/>
      <feFlood flood-opacity="0.161"/>
      <feComposite operator="in" in2="blur"/>
      <feComposite in="SourceGraphic"/>
    </filter>
    <linearGradient id="linear-gradient-2" x1="-0.073" x2="1.078" y2="1" gradientUnits="objectBoundingBox">
      <stop offset="0" stop-color="#ff6565"/>
      <stop offset="1" stop-color="#ff58a5"/>
    </linearGradient>
    <filter id="Path_37340" x="5.998" y="28.813" width="52.002" height="24.732" filterUnits="userSpaceOnUse">
      <feOffset dx="2" dy="4" input="SourceAlpha"/>
      <feGaussianBlur stdDeviation="2" result="blur-2"/>
      <feFlood flood-opacity="0.161"/>
      <feComposite operator="in" in2="blur-2"/>
      <feComposite in="SourceGraphic"/>
    </filter>
    <clipPath id="clip-path">
      <path id="Path_37341" data-name="Path 37341" d="M29.851,85.283a6.363,6.363,0,0,0,7.843,6.191V79.091a6.364,6.364,0,0,0-7.843,6.192M62.01,79.091V91.474a6.366,6.366,0,1,0,0-12.383" transform="translate(-29.851 -78.917)" fill="none"/>
    </clipPath>
    <linearGradient id="linear-gradient-3" y1="0.066" x2="1" y2="1" gradientUnits="objectBoundingBox">
      <stop offset="0" stop-color="#ffe09d"/>
      <stop offset="1" stop-color="#ffb324"/>
    </linearGradient>
    <filter id="Rectangle_20443" x="12.649" y="26.894" width="17.615" height="28.569" filterUnits="userSpaceOnUse">
      <feOffset dx="2" dy="4" input="SourceAlpha"/>
      <feGaussianBlur stdDeviation="2" result="blur-3"/>
      <feFlood flood-opacity="0.161"/>
      <feComposite operator="in" in2="blur-3"/>
      <feComposite in="SourceGraphic"/>
    </filter>
    <linearGradient id="linear-gradient-4" y1="0.055" x2="1" y2="1" gradientUnits="objectBoundingBox">
      <stop offset="0" stop-color="#ffe09c"/>
      <stop offset="1" stop-color="#ffb62d"/>
    </linearGradient>
    <filter id="Rectangle_20445" x="33.735" y="26.894" width="17.615" height="28.569" filterUnits="userSpaceOnUse">
      <feOffset dx="2" dy="4" input="SourceAlpha"/>
      <feGaussianBlur stdDeviation="2" result="blur-4"/>
      <feFlood flood-opacity="0.161"/>
      <feComposite operator="in" in2="blur-4"/>
      <feComposite in="SourceGraphic"/>
    </filter>
  </defs>
  <g id="Group_112608" data-name="Group 112608" transform="translate(-1399 -1056)">
    <rect id="Rectangle_20576" data-name="Rectangle 20576" width="60" height="60" transform="translate(1399 1056)" fill="#fff" opacity="0"/>
    <g id="Group_112108" data-name="Group 112108" transform="translate(462.846 168.684)">
      <g id="Group_112043" data-name="Group 112043" transform="translate(946.152 898.144)">
        <g id="Group_112038" data-name="Group 112038" transform="translate(0 0)">
          <g id="Group_112025" data-name="Group 112025" transform="translate(3.078 0)">
            <g transform="matrix(1, 0, 0, 1, -13.08, -10.83)" filter="url(#Path_37339)">
              <path id="Path_37339-2" data-name="Path 37339" d="M36.394,53.361V65.325h2.16V53.361a14.762,14.762,0,0,1,29.525,0V65.325h2.161V53.361a16.923,16.923,0,0,0-33.847,0" transform="translate(-23.32 -25.61)" fill="url(#linear-gradient)"/>
            </g>
          </g>
          <g id="Group_112027" data-name="Group 112027" transform="translate(0 19.985)">
            <g id="Group_112039" data-name="Group 112039">
              <g transform="matrix(1, 0, 0, 1, -10, -30.81)" filter="url(#Path_37340)">
                <path id="Path_37340-2" data-name="Path 37340" d="M29.851,85.283a6.361,6.361,0,0,0,7.843,6.19V79.091a6.364,6.364,0,0,0-7.843,6.192m33.637-6.366a6.429,6.429,0,0,0-1.478.174V91.474a6.365,6.365,0,1,0,1.478-12.557" transform="translate(-19.85 -48.1)" fill="url(#linear-gradient-2)"/>
              </g>
            </g>
          </g>
        </g>
        <g transform="matrix(1, 0, 0, 1, -10, -10.83)" filter="url(#Rectangle_20443)">
          <rect id="Rectangle_20443-2" data-name="Rectangle 20443" width="5.615" height="16.569" rx="2.807" transform="translate(16.65 28.89)" fill="url(#linear-gradient-3)"/>
        </g>
        <g transform="matrix(1, 0, 0, 1, -10, -10.83)" filter="url(#Rectangle_20445)">
          <rect id="Rectangle_20445-2" data-name="Rectangle 20445" width="5.615" height="16.569" rx="2.807" transform="translate(37.73 28.89)" fill="url(#linear-gradient-4)"/>
        </g>
      </g>
      <g id="Group_112080" data-name="Group 112080" transform="translate(962.112 923.546)">
        <g id="Group_112083" data-name="Group 112083" transform="translate(0 0)">
          <g id="Ellipse_693" data-name="Ellipse 693" transform="translate(0.042 -0.084)" fill="#909090" stroke="#909090" stroke-width="1">
            <circle cx="1.5" cy="1.5" r="1.5" stroke="none"/>
            <circle cx="1.5" cy="1.5" r="1" fill="none"/>
          </g>
          <g id="Ellipse_694" data-name="Ellipse 694" transform="translate(5.042 -0.084)" fill="#909090" stroke="#909090" stroke-width="1">
            <circle cx="1.5" cy="1.5" r="1.5" stroke="none"/>
            <circle cx="1.5" cy="1.5" r="1" fill="none"/>
          </g>
        </g>
      </g>
    </g>
  </g>
</svg>
