<svg xmlns="http://www.w3.org/2000/svg" xmlns:xlink="http://www.w3.org/1999/xlink" width="170" height="235" viewBox="0 0 170 235">
  <defs>
    <clipPath id="clip-path">
      <rect id="사각형_20459" data-name="사각형 20459" width="150" height="235" transform="translate(318.01 190.88)" fill="#86ccff"/>
    </clipPath>
    <filter id="CURATION" x="17.815" y="52.713" width="144.08" height="31.345" filterUnits="userSpaceOnUse">
      <feOffset dx="3" dy="2" input="SourceAlpha"/>
      <feGaussianBlur result="blur"/>
      <feFlood flood-color="#080d4b"/>
      <feComposite operator="in" in2="blur"/>
      <feComposite in="SourceGraphic"/>
    </filter>
  </defs>
  <g id="마스크_그룹_110097" data-name="마스크 그룹 110097" transform="translate(-318.01 -190.88)" clip-path="url(#clip-path)">
    <g id="그룹_112025" data-name="그룹 112025" transform="matrix(0.956, 0.292, -0.292, 0.956, 342.952, 295.783)">
      <g id="그룹_112024" data-name="그룹 112024" transform="translate(0 0)">
        <path id="패스_38083" data-name="패스 38083" d="M116.661,24.071a20.86,20.86,0,0,0-15.615-6.706,23.985,23.985,0,0,0-3.874.341,24.089,24.089,0,0,0-.968-3.565A21.15,21.15,0,0,0,83.039,1.027,20.268,20.268,0,0,0,76.661,0,22.3,22.3,0,0,0,61,6.681,22.309,22.309,0,0,0,45.34,0a20.29,20.29,0,0,0-6.375,1.025c-7.447,2.46-12.542,8.962-14.093,16.688a23.871,23.871,0,0,0-3.918-.348A20.866,20.866,0,0,0,5.339,24.07c-8.19,8.949-6.8,23.6,3.095,32.656l.083.076a26.554,26.554,0,0,1,8.968,19.6v61.316h87.034V76.4a26.554,26.554,0,0,1,8.968-19.6c.027-.024.055-.049.081-.075a25.95,25.95,0,0,0,8.176-14.777,21.154,21.154,0,0,0-5.081-17.878" fill="#fff" stroke="#707070" stroke-width="2"/>
        <path id="패스_38084" data-name="패스 38084" d="M116.661,24.071a20.86,20.86,0,0,0-15.615-6.706,23.985,23.985,0,0,0-3.874.341,24.089,24.089,0,0,0-.968-3.565A21.15,21.15,0,0,0,83.039,1.027,20.268,20.268,0,0,0,76.661,0,22.3,22.3,0,0,0,61,6.681,22.309,22.309,0,0,0,45.34,0a20.29,20.29,0,0,0-6.375,1.025c-7.447,2.46-12.542,8.962-14.093,16.688a23.871,23.871,0,0,0-3.918-.348A20.866,20.866,0,0,0,5.339,24.07c-8.19,8.949-6.8,23.6,3.095,32.656l.083.076a26.554,26.554,0,0,1,8.968,19.6v61.316h87.034V76.4a26.554,26.554,0,0,1,8.968-19.6c.027-.024.055-.049.081-.075a25.95,25.95,0,0,0,8.176-14.777A21.154,21.154,0,0,0,116.661,24.071Z" fill="none" stroke="#080d4b" stroke-linecap="round" stroke-linejoin="round" stroke-width="2"/>
        <path id="패스_38085" data-name="패스 38085" d="M44.067,5.753C38.679,1.7,32.579-.227,27.337.021,22.094-.227,16,1.7,10.606,5.753c-9.715,7.314-13.43,18.77-8.3,25.586,3.635,4.827,10.731,6.033,18.015,3.727a23.19,23.19,0,0,1,14.029,0c7.284,2.307,14.382,1.1,18.015-3.727,5.132-6.816,1.416-18.272-8.3-25.586" transform="translate(33.664 41.007)" fill="#f06a86" stroke="#707070" stroke-width="2"/>
        <path id="패스_38086" data-name="패스 38086" d="M44.067,5.753C38.679,1.7,32.579-.227,27.337.021,22.094-.227,16,1.7,10.606,5.753c-9.715,7.314-13.43,18.77-8.3,25.586,3.635,4.827,10.731,6.033,18.015,3.727a23.19,23.19,0,0,1,14.029,0c7.284,2.307,14.382,1.1,18.015-3.727C57.5,24.523,53.782,13.067,44.067,5.753Z" transform="translate(33.664 41.007)" fill="none" stroke="#080d4b" stroke-linecap="round" stroke-linejoin="round" stroke-width="2"/>
        <path id="패스_38087" data-name="패스 38087" d="M16.958,8c1.887,5.714-.224,11.549-4.715,13.033S2.578,19.093.691,13.379.915,1.831,5.407.346,15.07,2.29,16.958,8" transform="translate(37.772 13.435)" fill="#f06a86" stroke="#707070" stroke-width="1.6"/>
        <path id="패스_38088" data-name="패스 38088" d="M16.958,8c1.887,5.714-.224,11.549-4.715,13.033S2.578,19.093.691,13.379.915,1.831,5.407.346,15.07,2.29,16.958,8Z" transform="translate(37.772 13.435)" fill="none" stroke="#080d4b" stroke-linecap="round" stroke-linejoin="round" stroke-width="2"/>
        <path id="패스_38089" data-name="패스 38089" d="M15.686,3.379c4.44,4.063,5.449,10.185,2.254,13.675S8.559,20.08,4.12,16.017-1.329,5.831,1.866,2.342s9.381-3.026,13.82,1.037" transform="translate(13.385 30.799)" fill="#f06a86" stroke="#707070" stroke-width="2"/>
        <path id="패스_38090" data-name="패스 38090" d="M15.686,3.379c4.44,4.063,5.449,10.185,2.254,13.675S8.559,20.08,4.12,16.017-1.329,5.831,1.866,2.342,11.247-.684,15.686,3.379Z" transform="translate(13.385 30.799)" fill="none" stroke="#080d4b" stroke-linecap="round" stroke-linejoin="round" stroke-width="2"/>
        <path id="패스_38091" data-name="패스 38091" d="M.692,8C-1.2,13.719.914,19.554,5.406,21.038s9.664-1.946,11.551-7.659S16.734,1.831,12.242.346,2.578,2.29.692,8" transform="translate(66.579 13.435)" fill="#f06a86" stroke="#707070" stroke-width="2"/>
        <path id="패스_38092" data-name="패스 38092" d="M.692,8C-1.2,13.719.914,19.554,5.406,21.038s9.664-1.946,11.551-7.659S16.734,1.831,12.242.346,2.578,2.29.692,8Z" transform="translate(66.579 13.435)" fill="none" stroke="#080d4b" stroke-linecap="round" stroke-linejoin="round" stroke-width="2"/>
        <path id="패스_38093" data-name="패스 38093" d="M4.12,3.379C-.32,7.443-1.329,13.565,1.866,17.054s9.381,3.026,13.82-1.037S21.135,5.831,17.94,2.342,8.559-.684,4.12,3.379" transform="translate(88.81 30.799)" fill="#f06a86" stroke="#707070" stroke-width="1.6"/>
        <path id="패스_38094" data-name="패스 38094" d="M4.12,3.379C-.32,7.443-1.329,13.565,1.866,17.054s9.381,3.026,13.82-1.037S21.135,5.831,17.94,2.342,8.559-.684,4.12,3.379Z" transform="translate(88.81 30.799)" fill="none" stroke="#080d4b" stroke-linecap="round" stroke-linejoin="round" stroke-width="2"/>
      </g>
    </g>
  </g>
  <g id="말풍선" transform="translate(-170 -752.308)">
    <g id="사각형_20536" data-name="사각형 20536" transform="translate(180 790)" fill="#f06a86" stroke="#080d4b" stroke-width="2">
      <rect width="160" height="56" rx="8" stroke="none"/>
      <rect x="1" y="1" width="158" height="54" rx="7" fill="none"/>
    </g>
    <path id="패스_38368" data-name="패스 38368" d="M96.989,74.625,93.511,97.564c-.317,2.088,2.14,3.555,3.052,1.823l16-30.394" transform="translate(223.698 737.195) rotate(20)" fill="#f06a86"/>
    <path id="패스_38369" data-name="패스 38369" d="M96.989,74.625,93.511,97.564c-.317,2.088,2.14,3.555,3.052,1.823l16-30.394" transform="translate(223.698 737.195) rotate(20)" fill="none" stroke="#080d4b" stroke-linecap="round" stroke-linejoin="round" stroke-width="2"/>
    <g transform="matrix(1, 0, 0, 1, 170, 752.31)" filter="url(#CURATION)">
      <g id="CURATION-2" data-name="CURATION" transform="translate(17.82 52.71)" fill="#fff">
        <path d="M12.855,22.234a10.476,10.476,0,0,0,3.537-.6,9.642,9.642,0,0,0,2.849-1.6,8.8,8.8,0,0,0,2-2.294,7.429,7.429,0,0,0,.984-2.683H18.07a3.124,3.124,0,0,1-.563,1.237,4.841,4.841,0,0,1-1.128,1.093,5.881,5.881,0,0,1-1.564.78,6.032,6.032,0,0,1-1.87.3,6.13,6.13,0,0,1-2.319-.441A5.525,5.525,0,0,1,8.781,16.8a5.587,5.587,0,0,1-1.219-1.865,6.564,6.564,0,0,1,0-4.727A5.49,5.49,0,0,1,10.626,7.12a6.163,6.163,0,0,1,2.319-.438,6.624,6.624,0,0,1,1.826.246,5.247,5.247,0,0,1,1.475.674,4.2,4.2,0,0,1,1.06,1,3.493,3.493,0,0,1,.582,1.237h4.153a8.218,8.218,0,0,0-2.977-4.921,8.945,8.945,0,0,0-2.746-1.472,10.933,10.933,0,0,0-3.464-.537,10.645,10.645,0,0,0-3.928.726A9.347,9.347,0,0,0,5.81,5.652a9.142,9.142,0,0,0-2.055,3.06,10.433,10.433,0,0,0,0,7.723,9.142,9.142,0,0,0,2.055,3.06,9.347,9.347,0,0,0,3.118,2.014A10.645,10.645,0,0,0,12.855,22.234Zm10.948-8.6a10.055,10.055,0,0,0,.6,3.544,7.69,7.69,0,0,0,1.709,2.712,7.513,7.513,0,0,0,2.657,1.734,10.046,10.046,0,0,0,6.9,0,7.513,7.513,0,0,0,2.657-1.734,7.69,7.69,0,0,0,1.709-2.712,10.055,10.055,0,0,0,.6-3.544V3.386H36.534V13.634a6.47,6.47,0,0,1-.3,2,4.448,4.448,0,0,1-.852,1.546,3.756,3.756,0,0,1-1.356,1,4.8,4.8,0,0,1-3.614,0,3.756,3.756,0,0,1-1.356-1,4.448,4.448,0,0,1-.852-1.546,6.47,6.47,0,0,1-.3-2V3.386H23.8Zm35.01,8.149-4.266-6.614a6.13,6.13,0,0,0,1.44-.93,5.405,5.405,0,0,0,1.055-1.245,5.677,5.677,0,0,0,.648-1.529,6.968,6.968,0,0,0,.221-1.781,6.554,6.554,0,0,0-.5-2.593A5.434,5.434,0,0,0,55.961,5.1a6.581,6.581,0,0,0-2.326-1.271,10.259,10.259,0,0,0-3.128-.448H43.1v18.4h4.108v-5.8h3.273l3.567,5.8ZM47.211,7.02h3.115a5.683,5.683,0,0,1,1.457.172,3.165,3.165,0,0,1,1.093.508,2.221,2.221,0,0,1,.687.834,2.89,2.89,0,0,1,0,2.3,2.221,2.221,0,0,1-.687.834,3.165,3.165,0,0,1-1.093.508,5.683,5.683,0,0,1-1.457.172H47.211Zm25.71,14.763H77.5l-7.133-18.4H66.1l-7.133,18.4h4.244L64.5,18.216h7.133ZM65.766,14.65l2.3-6.411,2.3,6.411ZM91.16,3.386H75.088V7.02H81.07V21.783h4.108V7.02H91.16Zm1.648,0v18.4h4.108V3.386Zm15.914,18.848a10.819,10.819,0,0,0,3.961-.726,9.452,9.452,0,0,0,3.146-2.014,9.143,9.143,0,0,0,2.076-3.06,10.332,10.332,0,0,0,0-7.723,9.143,9.143,0,0,0-2.076-3.06,9.452,9.452,0,0,0-3.146-2.014,11.177,11.177,0,0,0-7.922,0,9.452,9.452,0,0,0-3.146,2.014,9.143,9.143,0,0,0-2.076,3.06,10.332,10.332,0,0,0,0,7.723,9.143,9.143,0,0,0,2.076,3.06,9.452,9.452,0,0,0,3.146,2.014A10.819,10.819,0,0,0,108.722,22.234Zm0-3.7a6.078,6.078,0,0,1-2.319-.445,5.516,5.516,0,0,1-1.845-1.239,5.649,5.649,0,0,1-1.219-1.887,6.724,6.724,0,0,1,0-4.786,5.62,5.62,0,0,1,1.219-1.886A5.5,5.5,0,0,1,106.4,7.056a6.3,6.3,0,0,1,4.639,0,5.5,5.5,0,0,1,1.845,1.234,5.62,5.62,0,0,1,1.219,1.886,6.724,6.724,0,0,1,0,4.786,5.649,5.649,0,0,1-1.219,1.887,5.516,5.516,0,0,1-1.845,1.239A6.077,6.077,0,0,1,108.722,18.532Zm11.806,3.25h4.108V10.5l9.187,11.061h3.431V3.16h-4.108V14.447L123.958,3.386h-3.431Z" stroke="none"/>
        <path d="M 108.7218399047852 23.08067512512207 C 107.9753646850586 23.08067512512207 107.2446670532227 23.01455116271973 106.53759765625 22.88534927368164 C 105.8305206298828 22.75614547729492 105.147087097168 22.56386375427246 104.4951400756836 22.31155014038086 C 103.8432006835938 22.05923461914062 103.222770690918 21.74688720703125 102.6416931152344 21.37755012512207 C 102.0606384277344 21.00821304321289 101.518928527832 20.58189010620117 101.0244674682617 20.10162353515625 C 100.5277404785156 19.61915969848633 100.0868072509766 19.09020805358887 99.70481872558594 18.52245903015137 C 99.32282257080078 17.9547119140625 98.99977874755859 17.34816932678223 98.73881530761719 16.71052742004395 C 98.47785949707031 16.07288551330566 98.27898406982422 15.40414333343506 98.14535522460938 14.71199703216553 C 98.01172637939453 14.01985168457031 97.94332885742188 13.30430126190186 97.94332885742188 12.57304286956787 C 97.94332885742188 11.84178447723389 98.01172637939453 11.12623500823975 98.14535522460938 10.43408966064453 C 98.27898406982422 9.741944313049316 98.47785949707031 9.073202133178711 98.73881530761719 8.43556022644043 C 98.99977874755859 7.797916889190674 99.32282257080078 7.191373825073242 99.70481872558594 6.623625755310059 C 100.0868072509766 6.055878162384033 100.5277404785156 5.526925086975098 101.0244674682617 5.044462203979492 C 101.518928527832 4.564196109771729 102.0606384277344 4.137872695922852 102.6416931152344 3.768536567687988 C 103.222770690918 3.399199485778809 103.8432006835938 3.086851119995117 104.4951400756836 2.83453631401062 C 105.147087097168 2.582221746444702 105.8305206298828 2.389939546585083 106.53759765625 2.260736227035522 C 107.2446670532227 2.131532669067383 107.9753646850586 2.065408945083618 108.7218399047852 2.065408945083618 C 109.4683151245117 2.065408945083618 110.1990127563477 2.131532669067383 110.9060821533203 2.260736227035522 C 111.6131591796875 2.389939546585083 112.2965927124023 2.582221746444702 112.9485397338867 2.83453631401062 C 113.6004791259766 3.086851119995117 114.2209167480469 3.399199485778809 114.8019866943359 3.768536567687988 C 115.383056640625 4.137872695922852 115.9247512817383 4.564196109771729 116.4192199707031 5.044462203979492 C 116.9159469604492 5.526925086975098 117.3568801879883 6.055878162384033 117.7388687133789 6.623625755310059 C 118.1208648681641 7.191373825073242 118.4439163208008 7.797916889190674 118.7048721313477 8.43556022644043 C 118.9658355712891 9.073202133178711 119.1647033691406 9.741944313049316 119.2983322143555 10.43408966064453 C 119.4319610595703 11.12623500823975 119.5003509521484 11.84178447723389 119.5003509521484 12.57304286956787 C 119.5003509521484 13.30430126190186 119.4319610595703 14.01985168457031 119.2983322143555 14.71199703216553 C 119.1647033691406 15.40414237976074 118.9658355712891 16.07288551330566 118.7048721313477 16.71052742004395 C 118.4439163208008 17.34816932678223 118.1208648681641 17.9547119140625 117.7388687133789 18.52245903015137 C 117.3568801879883 19.09020805358887 116.9159469604492 19.61915969848633 116.4192199707031 20.10162353515625 C 115.9247512817383 20.58189010620117 115.383056640625 21.00821304321289 114.8019866943359 21.3775520324707 C 114.2209167480469 21.74688720703125 113.6004791259766 22.05923461914062 112.9485397338867 22.31155014038086 C 112.2965927124023 22.56386375427246 111.6131591796875 22.75614547729492 110.9060821533203 22.88534927368164 C 110.1990127563477 23.01455116271973 109.4683151245117 23.08067512512207 108.7218399047852 23.08067512512207 Z M 108.7218399047852 3.758368253707886 C 107.4057083129883 3.758368253707886 106.179801940918 3.990063190460205 105.0812454223633 4.417410373687744 C 103.9827041625977 4.844757556915283 103.0115280151367 5.467758178710938 102.2048645019531 6.250370025634766 C 101.3982086181641 7.032981872558594 100.7560577392578 7.975204467773438 100.3155822753906 9.040996551513672 C 99.87510681152344 10.10678958892822 99.63629150390625 11.29615306854248 99.63629150390625 12.57304286956787 C 99.63629150390625 13.84993267059326 99.87510681152344 15.03929615020752 100.3155822753906 16.10508918762207 C 100.7560577392578 17.1708812713623 101.3982086181641 18.11310386657715 102.2048645019531 18.89571762084961 C 103.0115280151367 19.6783275604248 103.9827041625977 20.30132865905762 105.0812454223633 20.72867584228516 C 106.179801940918 21.1560230255127 107.4057083129883 21.38771629333496 108.7218399047852 21.38771629333496 C 110.037971496582 21.38771629333496 111.2638778686523 21.1560230255127 112.362434387207 20.72867584228516 C 113.4609680175781 20.30132865905762 114.4321517944336 19.6783275604248 115.2388153076172 18.89571571350098 C 116.0454788208008 18.11310386657715 116.6876220703125 17.1708812713623 117.1280975341797 16.10508918762207 C 117.5685806274414 15.03929615020752 117.8073959350586 13.84993267059326 117.8073959350586 12.57304286956787 C 117.8073959350586 11.29615306854248 117.5685806274414 10.10678958892822 117.1280975341797 9.040996551513672 C 116.6876220703125 7.975204467773438 116.0454788208008 7.032981872558594 115.2388153076172 6.250370025634766 C 114.4321517944336 5.467758178710938 113.4609680175781 4.844757556915283 112.362434387207 4.417410373687744 C 111.2638778686523 3.990063190460205 110.037971496582 3.758368253707886 108.7218399047852 3.758368253707886 Z M 32.22266006469727 23.08067512512207 C 30.96950340270996 23.08067512512207 29.80931854248047 22.88660049438477 28.76413536071777 22.52089691162109 C 27.71894836425781 22.15519332885742 26.78875732421875 21.61786270141602 25.9955883026123 20.93135261535645 C 25.20241737365723 20.24484252929688 24.54626274108887 19.40915679931641 24.04914665222168 18.44673919677734 C 23.55203056335449 17.48432350158691 23.21395111083984 16.39517593383789 23.05693817138672 15.20174884796143 C 22.97656059265137 15.72072219848633 22.84347152709961 16.23172378540039 22.6609992980957 16.72917175292969 C 22.4785270690918 17.22661781311035 22.24667167663574 17.71051216125488 21.96876907348633 18.17526626586914 C 21.69086647033691 18.6400203704834 21.36691093444824 19.08563613891602 21.0002269744873 19.50652885437012 C 20.63354301452637 19.92741966247559 20.2241325378418 20.3235912322998 19.77533149719238 20.689453125 C 19.30243682861328 21.07495307922363 18.79416465759277 21.41715431213379 18.25758934020996 21.71361351013184 C 17.72101783752441 22.01007080078125 17.1561393737793 22.26078605651855 16.57002830505371 22.46331596374512 C 15.98392391204834 22.66584205627441 15.37658500671387 22.82018280029297 14.75508880615234 22.92389106750488 C 14.13359355926514 23.02760124206543 13.49794101715088 23.08067512512207 12.8552074432373 23.08067512512207 C 12.11401176452637 23.08067512512207 11.38857936859131 23.01448822021484 10.68671035766602 22.88516235351562 C 9.984841346740723 22.75583839416504 9.306535720825195 22.56337356567383 8.659607887268066 22.31081771850586 C 8.012675285339355 22.05826377868652 7.397121429443359 21.74561882019043 6.820750713348389 21.37593078613281 C 6.244379997253418 21.00624656677246 5.707192897796631 20.57951545715332 5.216990947723389 20.09879302978516 C 4.725286483764648 19.61658668518066 4.288807392120361 19.08788871765137 3.910675525665283 18.5203914642334 C 3.532543659210205 17.95289421081543 3.212754487991333 17.34659767150879 2.954433679580688 16.70919609069824 C 2.696112871170044 16.07179260253906 2.499252080917358 15.40328502655029 2.36697244644165 14.7113618850708 C 2.234692811965942 14.01943969726562 2.166990041732788 13.30410194396973 2.166990041732788 12.57304286956787 C 2.166990041732788 11.84198379516602 2.234692811965942 11.12664604187012 2.36697244644165 10.43472385406494 C 2.499252080917358 9.742800712585449 2.696112871170044 9.074292182922363 2.954433679580688 8.436890602111816 C 3.212754487991333 7.799488544464111 3.532543659210205 7.193192005157471 3.910675525665283 6.625694751739502 C 4.288807392120361 6.058197498321533 4.725286483764648 5.529500007629395 5.216990947723389 5.04729175567627 C 5.707192897796631 4.566569328308105 6.244379997253418 4.139841079711914 6.820750713348389 3.770154237747192 C 7.397121429443359 3.400467395782471 8.012675285339355 3.087821960449219 8.659607887268066 2.83526611328125 C 9.306535720825195 2.582711458206177 9.984841346740723 2.390247344970703 10.68671035766602 2.260921239852905 C 11.38857936859131 2.131595134735107 12.11401176452637 2.065408945083618 12.8552074432373 2.065408945083618 C 13.50511455535889 2.065408945083618 14.1381311416626 2.112791299819946 14.75033187866211 2.206275939941406 C 15.3625316619873 2.299760580062866 15.95391082763672 2.439345359802246 16.52053451538086 2.623751878738403 C 17.087158203125 2.808158159255981 17.62902450561523 3.037386178970337 18.14220428466797 3.310153722763062 C 18.65538024902344 3.582922458648682 19.13986396789551 3.899231910705566 19.59172630310059 4.257800102233887 C 20.01792907714844 4.596005439758301 20.41042327880859 4.970062255859375 20.76586151123047 5.374423980712891 C 21.12129974365234 5.778785705566406 21.4396800994873 6.213454246520996 21.7176513671875 6.672883033752441 C 21.9956226348877 7.132312297821045 22.23317718505859 7.616501808166504 22.42695999145508 8.119908332824707 C 22.62074279785156 8.62331485748291 22.77076148986816 9.145937919616699 22.8736515045166 9.682232856750488 L 22.9565315246582 10.11422061920166 L 22.9565315246582 3.385917186737061 L 22.9565315246582 2.539437770843506 L 23.80301094055176 2.539437770843506 L 27.91125679016113 2.539437770843506 L 28.75773811340332 2.539437770843506 L 28.75773811340332 3.385917186737061 L 28.75773811340332 13.63396453857422 C 28.75773811340332 14.26824188232422 28.83869171142578 14.83861923217773 28.99402809143066 15.33740425109863 C 29.14936256408691 15.83618927001953 29.37907791137695 16.26338195800781 29.67658996582031 16.61128997802734 C 29.9741039276123 16.95919609069824 30.33941841125488 17.22781944274902 30.76595687866211 17.40946578979492 C 31.1924934387207 17.59111022949219 31.68025398254395 17.6857795715332 32.22266006469727 17.6857795715332 C 32.76506423950195 17.6857795715332 33.25282669067383 17.59111022949219 33.67936325073242 17.40946578979492 C 34.10589981079102 17.22781944274902 34.47121429443359 16.95919609069824 34.76873016357422 16.61128997802734 C 35.06624603271484 16.26338195800781 35.29595947265625 15.83618927001953 35.4512939453125 15.33740425109863 C 35.60662841796875 14.83861923217773 35.68758392333984 14.26824188232422 35.68758392333984 13.63396453857422 L 35.68758392333984 3.385917186737061 L 35.68758392333984 2.539437770843506 L 36.53406143188477 2.539437770843506 L 40.64231109619141 2.539437770843506 L 41.48878860473633 2.539437770843506 L 41.48878860473633 3.385917186737061 L 41.48878860473633 13.63396453857422 C 41.48878860473633 15.04655647277832 41.25605392456055 16.34327125549316 40.82035446166992 17.49376106262207 C 40.38465118408203 18.64425277709961 39.7459831237793 19.64851760864258 38.93411254882812 20.4762077331543 C 38.12224578857422 21.30389785766602 37.13717651367188 21.95501518249512 36.0086784362793 22.39920997619629 C 34.88018035888672 22.84340476989746 33.60824966430664 23.08067512512207 32.22266006469727 23.08067512512207 Z M 24.64949035644531 4.232397079467773 L 24.64949035644531 13.63396453857422 C 24.64949035644531 14.81152153015137 24.83528137207031 15.88490962982178 25.18585014343262 16.83261489868164 C 25.53641891479492 17.78032112121582 26.05176544189453 18.60234642028809 26.71088218688965 19.27717781066895 C 27.36999320983887 19.95200538635254 28.17287254333496 20.47964096069336 29.09850692749023 20.83856964111328 C 30.02414131164551 21.19749641418457 31.07252883911133 21.38771629333496 32.22266006469727 21.38771629333496 C 33.3727912902832 21.38771629333496 34.42117691040039 21.19749641418457 35.3468132019043 20.83856964111328 C 36.2724494934082 20.47964096069336 37.07533264160156 19.95200538635254 37.73444366455078 19.27717781066895 C 38.3935546875 18.60234642028809 38.90890502929688 17.78032112121582 39.25947189331055 16.83261489868164 C 39.61004257202148 15.88490962982178 39.79582977294922 14.81152153015137 39.79582977294922 13.63396453857422 L 39.79582977294922 4.232397079467773 L 37.38054275512695 4.232397079467773 L 37.38054275512695 13.63396453857422 C 37.38054275512695 14.04897308349609 37.35126495361328 14.44891452789307 37.29349517822266 14.83138942718506 C 37.23573303222656 15.21386528015137 37.14947891235352 15.5788745880127 37.03553009033203 15.92402076721191 C 36.92158508300781 16.26916694641113 36.77994155883789 16.59445190429688 36.61139297485352 16.89747619628906 C 36.44284439086914 17.20049858093262 36.24739074707031 17.48126029968262 36.02582550048828 17.73736763000488 C 35.79358291625977 18.00581359863281 35.53720474243164 18.24262428283691 35.25891876220703 18.44683647155762 C 34.98062896728516 18.65104866027832 34.68042755126953 18.82266235351562 34.36053848266602 18.96072387695312 C 34.04064559936523 19.09878158569336 33.7010612487793 19.20328712463379 33.3440055847168 19.27327537536621 C 32.98695373535156 19.34326553344727 32.61243057250977 19.37874031066895 32.22266006469727 19.37874031066895 C 31.8328914642334 19.37874031066895 31.45836639404297 19.34326553344727 31.10131454467773 19.27327537536621 C 30.74426078796387 19.20328712463379 30.4046802520752 19.09878158569336 30.08478736877441 18.96072387695312 C 29.76489448547363 18.82266235351562 29.46469497680664 18.65104866027832 29.1864070892334 18.44683647155762 C 28.90811729431152 18.24262428283691 28.65173721313477 18.00581359863281 28.41949081420898 17.73736763000488 C 28.19792938232422 17.48126029968262 28.00247573852539 17.20049858093262 27.83392715454102 16.89747619628906 C 27.66537857055664 16.59445190429688 27.52373504638672 16.26916694641113 27.40978813171387 15.92402076721191 C 27.29584121704102 15.5788745880127 27.20958709716797 15.21386528015137 27.15182113647461 14.83138942718506 C 27.09405517578125 14.44891452789307 27.06477737426758 14.04897308349609 27.06477737426758 13.63396453857422 L 27.06477737426758 4.232397079467773 L 24.64949035644531 4.232397079467773 Z M 12.8552074432373 3.758368253707886 C 11.55215072631836 3.758368253707886 10.33841896057129 3.990063190460205 9.25079345703125 4.417410373687744 C 8.163166999816895 4.844757556915283 7.201638221740723 5.467758178710938 6.402996063232422 6.250370025634766 C 5.604353904724121 7.032981872558594 4.968589782714844 7.975204467773438 4.532489776611328 9.040996551513672 C 4.096389770507812 10.10678958892822 3.859949111938477 11.29615306854248 3.859949111938477 12.57304286956787 C 3.859949111938477 13.84993267059326 4.096389770507812 15.03929615020752 4.532489776611328 16.10508918762207 C 4.968589782714844 17.1708812713623 5.604353904724121 18.11310386657715 6.402996063232422 18.89571762084961 C 7.201638221740723 19.6783275604248 8.163166999816895 20.30132865905762 9.25079345703125 20.72867584228516 C 10.33841896057129 21.1560230255127 11.55215072631836 21.38771629333496 12.8552074432373 21.38771629333496 C 13.95380783081055 21.38771629333496 14.96452617645264 21.22051811218262 15.87694263458252 20.92581176757812 C 16.78936004638672 20.63110733032227 17.60347557067871 20.20889472961426 18.30886650085449 19.69887351989746 C 19.01425743103027 19.1888484954834 19.61092948913574 18.59101295471191 20.08845138549805 17.94505882263184 C 20.56597709655762 17.29910278320312 20.92435646057129 16.60502815246582 21.15316772460938 15.90252876281738 L 18.69325065612793 15.90252876281738 C 18.60976791381836 16.10401153564453 18.50724411010742 16.30309295654297 18.38708686828613 16.49779319763184 C 18.26692771911621 16.6924934387207 18.1291332244873 16.88280868530273 17.9751148223877 17.06676292419434 C 17.82109832763672 17.2507152557373 17.65084838867188 17.42830276489258 17.46578025817871 17.59754180908203 C 17.28071594238281 17.76678085327148 17.08083343505859 17.92767333984375 16.86753845214844 18.07823371887207 C 16.58598518371582 18.27697944641113 16.28776550292969 18.45339965820312 15.97689342498779 18.60623741149902 C 15.66602039337158 18.75907516479492 15.34248542785645 18.88833045959473 15.01030158996582 18.99274444580078 C 14.67811679840088 19.0971565246582 14.33728694915771 19.17672538757324 13.9918155670166 19.23019218444824 C 13.64634895324707 19.28365707397461 13.29624080657959 19.31101989746094 12.94550037384033 19.31101989746094 C 12.4839038848877 19.31101989746094 12.03192520141602 19.2684497833252 11.59443855285645 19.18526840209961 C 11.15695190429688 19.10208892822266 10.73395824432373 18.97830009460449 10.33032512664795 18.81585884094238 C 9.926692008972168 18.65341567993164 9.542420387268066 18.45232772827148 9.182384490966797 18.21454811096191 C 8.822347640991211 17.97676658630371 8.486546516418457 17.70229721069336 8.179845809936523 17.39309692382812 C 7.87279224395752 17.08354187011719 7.600229263305664 16.74438858032227 7.36409854888916 16.38056373596191 C 7.12797212600708 16.01673698425293 6.92827844619751 15.62824058532715 6.766967296600342 15.22000026702881 C 6.605656147003174 14.81175899505615 6.482723712921143 14.38377475738525 6.400115489959717 13.94097232818604 C 6.317512035369873 13.49817085266113 6.275237083435059 13.04055118560791 6.275237083435059 12.57304286956787 C 6.275237083435059 12.10333347320557 6.317529201507568 11.64385986328125 6.400167465209961 11.19955635070801 C 6.482805252075195 10.75525283813477 6.605789661407471 10.3261194229126 6.76716947555542 9.917094230651855 C 6.928549766540527 9.508069038391113 7.128325462341309 9.119150161743164 7.364554882049561 8.755274772644043 C 7.600784778594971 8.391399383544922 7.873464107513428 8.052568435668945 8.180643081665039 7.743715763092041 C 8.486684799194336 7.436014175415039 8.82197380065918 7.162871837615967 9.181648254394531 6.926241874694824 C 9.541322708129883 6.689611911773682 9.925374984741211 6.489493846893311 10.32894325256348 6.327837467193604 C 10.73251152038574 6.166180610656738 11.1555871963501 6.042987823486328 11.59330177307129 5.960208415985107 C 12.03101634979248 5.877429485321045 12.48337364196777 5.835064888000488 12.94550037384033 5.835064888000488 C 13.30254459381104 5.835064888000488 13.65184307098389 5.858033180236816 13.99119567871094 5.903347969055176 C 14.3305492401123 5.948662281036377 14.65996074676514 6.0163254737854 14.97722244262695 6.105713367462158 C 15.29448413848877 6.195101261138916 15.59959697723389 6.306216716766357 15.89035892486572 6.438436031341553 C 16.18112564086914 6.570656299591064 16.4575366973877 6.723981857299805 16.7173957824707 6.897791862487793 C 16.9208812713623 7.033899784088135 17.11193466186523 7.181572437286377 17.28952980041504 7.339387893676758 C 17.46712303161621 7.49720287322998 17.63125038146973 7.665161609649658 17.78088569641113 7.841842651367188 C 17.93051910400391 8.018524169921875 18.0656623840332 8.203929901123047 18.18527603149414 8.396638870239258 C 18.30488967895508 8.589347839355469 18.40897560119629 8.789360046386719 18.49650192260742 8.995255470275879 L 20.9484748840332 8.995255470275879 C 20.68001556396484 8.191683769226074 20.28687858581543 7.462592601776123 19.78645133972168 6.820964813232422 C 19.28602409362793 6.179337024688721 18.67831039428711 5.62517261505127 17.98069000244141 5.171454906463623 C 17.28307151794434 4.717737197875977 16.49554634094238 4.364464282989502 15.6355037689209 4.124622821807861 C 14.77546215057373 3.884780645370483 13.84290027618408 3.758368253707886 12.8552074432373 3.758368253707886 Z M 12.94550037384033 7.528024196624756 C 12.2244930267334 7.528024196624756 11.5529088973999 7.660632133483887 10.95109748840332 7.905221939086914 C 10.34928607940674 8.149811744689941 9.817248344421387 8.506381988525391 9.375335693359375 8.954303741455078 C 8.933423042297363 9.402225494384766 8.581640243530273 9.941500663757324 8.340334892272949 10.55149936676025 C 8.099024772644043 11.1614990234375 7.968195915222168 11.84222316741943 7.968195915222168 12.57304286956787 C 7.968195915222168 13.30386257171631 8.099024772644043 13.98458671569824 8.340334892272949 14.59458637237549 C 8.581640243530273 15.20458507537842 8.933423042297363 15.74386024475098 9.375335693359375 16.19178199768066 C 9.817248344421387 16.63970375061035 10.34928607940674 16.99627494812012 10.95109748840332 17.2408618927002 C 11.5529088973999 17.48545265197754 12.2244930267334 17.61806106567383 12.94550037384033 17.61806106567383 C 13.20961570739746 17.61806106567383 13.47308158874512 17.59757614135742 13.73289680480957 17.55755043029785 C 13.99271106719971 17.51752281188965 14.24886608123779 17.45795440673828 14.49836158752441 17.37978744506836 C 14.74785614013672 17.30162048339844 14.99068164825439 17.20485496520996 15.22382831573486 17.09043312072754 C 15.45697498321533 16.97601318359375 15.68044853210449 16.84393501281738 15.89122867584229 16.69514656066895 C 16.07310676574707 16.56675910949707 16.2409782409668 16.42849731445312 16.39228439331055 16.28376770019531 C 16.54359436035156 16.13903999328613 16.67834091186523 15.98784637451172 16.7939624786377 15.83359527587891 C 16.90958404541016 15.67934513092041 17.0060863494873 15.52203845977783 17.08090972900391 15.36508655548096 C 17.15573883056641 15.20813369750977 17.20888519287109 15.05153560638428 17.2377986907959 14.89870071411133 L 17.36816787719727 14.20956993103027 L 18.06952095031738 14.20956993103027 L 22.22291374206543 14.20956993103027 L 22.96963310241699 14.20956993103027 C 22.96745300292969 14.16214370727539 22.96554756164551 14.11459064483643 22.96391105651855 14.06690311431885 C 22.96227073669434 14.0192174911499 22.96090507507324 13.97139739990234 22.95981216430664 13.92343807220459 C 22.95871734619141 13.87547874450684 22.95790100097656 13.8273811340332 22.95735359191895 13.77913761138916 C 22.95680618286133 13.73089504241943 22.9565315246582 13.68250465393066 22.9565315246582 13.63396453857422 L 22.9565315246582 10.6882152557373 L 22.04233169555664 10.6882152557373 L 17.88893890380859 10.6882152557373 L 17.22390937805176 10.6882152557373 L 17.06650924682617 10.04207706451416 C 16.97493743896484 9.666145324707031 16.80274963378906 9.321050643920898 16.56319236755371 9.014871597290039 C 16.32362937927246 8.708691596984863 16.01669692993164 8.441426277160645 15.65562725067139 8.221152305603027 C 15.29455757141113 8.00087833404541 14.87935161590576 7.827596187591553 14.42325305938721 7.7093825340271 C 13.96714973449707 7.591168403625488 13.47015380859375 7.528024196624756 12.94550037384033 7.528024196624756 Z M 125.4821472167969 22.62922096252441 L 124.6356658935547 22.62922096252441 L 120.5274200439453 22.62922096252441 L 119.6809387207031 22.62922096252441 L 119.6809387207031 21.78274154663086 L 119.6809387207031 3.385917186737061 L 119.6809387207031 2.539437770843506 L 120.5274200439453 2.539437770843506 L 123.9584732055664 2.539437770843506 L 124.3557815551758 2.539437770843506 L 124.6096267700195 2.845056772232056 L 132.2991180419922 12.10267353057861 L 132.2991180419922 3.160189628601074 L 132.2991180419922 2.31370997428894 L 133.1455993652344 2.31370997428894 L 137.2538452148438 2.31370997428894 L 138.1003265380859 2.31370997428894 L 138.1003265380859 3.160189628601074 L 138.1003265380859 21.5570125579834 L 138.1003265380859 22.40349197387695 L 137.2538452148438 22.40349197387695 L 133.8227844238281 22.40349197387695 L 133.4254913330078 22.40349197387695 L 133.171630859375 22.09787368774414 L 125.4821472167969 12.84025764465332 L 125.4821472167969 21.78274154663086 L 125.4821472167969 22.62922096252441 Z M 121.373893737793 20.93626022338867 L 123.7891845703125 20.93626022338867 L 123.7891845703125 10.49634647369385 L 123.7891845703125 8.152440071105957 L 125.2868194580078 9.955484390258789 L 134.2200927734375 20.71053314208984 L 136.4073638916016 20.71053314208984 L 136.4073638916016 4.006669044494629 L 133.9920806884766 4.006669044494629 L 133.9920806884766 14.44658374786377 L 133.9920806884766 16.79049110412598 L 132.4944458007812 14.98744583129883 L 123.5611724853516 4.232397079467773 L 121.373893737793 4.232397079467773 L 121.373893737793 20.93626022338867 Z M 97.76275634765625 22.62922096252441 L 96.91627502441406 22.62922096252441 L 92.80802917480469 22.62922096252441 L 91.9615478515625 22.62922096252441 L 91.9615478515625 21.78274154663086 L 91.9615478515625 7.866616249084473 L 91.16021728515625 7.866616249084473 L 86.02490234375 7.866616249084473 L 86.02490234375 21.78274154663086 L 86.02490234375 22.62922096252441 L 85.17842102050781 22.62922096252441 L 81.07017517089844 22.62922096252441 L 80.22369384765625 22.62922096252441 L 80.22369384765625 21.78274154663086 L 80.22369384765625 7.866616249084473 L 75.08839416503906 7.866616249084473 L 74.24191284179688 7.866616249084473 L 74.24191284179688 7.020136833190918 L 74.24191284179688 3.385917186737061 L 74.24191284179688 2.539437770843506 L 75.08839416503906 2.539437770843506 L 91.16021728515625 2.539437770843506 L 91.9615478515625 2.539437770843506 L 92.80802917480469 2.539437770843506 L 96.91627502441406 2.539437770843506 L 97.76275634765625 2.539437770843506 L 97.76275634765625 3.385917186737061 L 97.76275634765625 21.78274154663086 L 97.76275634765625 22.62922096252441 Z M 93.65450286865234 20.93626022338867 L 96.06979370117188 20.93626022338867 L 96.06979370117188 4.232397079467773 L 93.65450286865234 4.232397079467773 L 93.65450286865234 20.93626022338867 Z M 81.91665649414062 20.93626022338867 L 84.33193969726562 20.93626022338867 L 84.33193969726562 7.020136833190918 L 84.33193969726562 6.173656940460205 L 85.17842102050781 6.173656940460205 L 90.31373596191406 6.173656940460205 L 90.31373596191406 4.232397079467773 L 75.93486785888672 4.232397079467773 L 75.93486785888672 6.173656940460205 L 81.07017517089844 6.173656940460205 L 81.91665649414062 6.173656940460205 L 81.91665649414062 7.020136833190918 L 81.91665649414062 20.93626022338867 Z M 78.73976135253906 22.62922096252441 L 77.50367736816406 22.62922096252441 L 72.92139434814453 22.62922096252441 L 72.326904296875 22.62922096252441 L 72.12515258789062 22.06998825073242 L 71.04025268554688 19.06271934509277 L 65.09624481201172 19.06271934509277 L 64.01134490966797 22.06998825073242 L 63.80960083007812 22.62922096252441 L 63.2150993347168 22.62922096252441 L 60.36674499511719 22.62922096252441 L 58.81340789794922 22.62922096252441 L 54.0505485534668 22.62922096252441 L 53.57730102539062 22.62922096252441 L 53.32944869995117 22.22607040405273 L 50.01080322265625 16.8280143737793 L 48.05746841430664 16.8280143737793 L 48.05746841430664 21.78274154663086 L 48.05746841430664 22.62922096252441 L 47.21099090576172 22.62922096252441 L 43.10274505615234 22.62922096252441 L 42.25626373291016 22.62922096252441 L 42.25626373291016 21.78274154663086 L 42.25626373291016 3.385917186737061 L 42.25626373291016 2.539437770843506 L 43.10274505615234 2.539437770843506 L 50.50661849975586 2.539437770843506 C 51.12590026855469 2.539437770843506 51.72021102905273 2.581042051315308 52.28604888916016 2.663126945495605 C 52.85189056396484 2.745211839675903 53.38925170898438 2.867776393890381 53.89463424682617 3.029696702957153 C 54.4000129699707 3.191617012023926 54.8734130859375 3.392894268035889 55.31132125854492 3.632402420043945 C 55.74922561645508 3.871910810470581 56.15163803100586 4.149650096893311 56.51504516601562 4.464497566223145 C 56.8817138671875 4.782169818878174 57.20516586303711 5.133222579956055 57.48410034179688 5.514608383178711 C 57.76303100585938 5.895994186401367 57.99744033813477 6.307711601257324 58.18601226806641 6.746712684631348 C 58.37458801269531 7.185713291168213 58.51732635498047 7.651997566223145 58.6129264831543 8.142516136169434 C 58.70852279663086 8.633033752441406 58.75697708129883 9.147786140441895 58.75697708129883 9.683725357055664 C 58.75697708129883 10.03763580322266 58.73606872558594 10.38197994232178 58.69440078735352 10.71620845794678 C 58.65273284912109 11.05043697357178 58.59030914306641 11.37454986572266 58.50726699829102 11.68800067901611 C 58.42422485351562 12.00145149230957 58.32057189941406 12.30423831939697 58.19644165039062 12.59581565856934 C 58.07231521606445 12.88739204406738 57.92771911621094 13.16775798797607 57.76279830932617 13.43636512756348 C 57.63690567016602 13.64141273498535 57.50030899047852 13.83782005310059 57.35319519042969 14.02542591094971 C 57.20607757568359 14.21303272247314 57.04843902587891 14.39183902740479 56.88046264648438 14.56168556213379 C 56.71249008178711 14.73153305053711 56.53417587280273 14.89242076873779 56.34569549560547 15.04419326782227 C 56.15722274780273 15.19596481323242 55.95858764648438 15.33861923217773 55.74997711181641 15.471999168396 L 58.72322845458984 20.08132553100586 L 65.315185546875 3.079917192459106 L 65.52474975585938 2.539437770843506 L 66.10441589355469 2.539437770843506 L 70.37067413330078 2.539437770843506 L 70.95034027099609 2.539437770843506 L 71.15990447998047 3.079917192459106 L 78.29290771484375 21.47674179077148 L 78.73976135253906 22.62922096252441 Z M 73.51589965820312 20.93626022338867 L 76.26759338378906 20.93626022338867 L 69.79100799560547 4.232397079467773 L 66.68408966064453 4.232397079467773 L 60.20749664306641 20.93626022338867 L 62.62060165405273 20.93626022338867 L 63.70550155639648 17.92899322509766 L 63.90724945068359 17.36976051330566 L 64.50174713134766 17.36976051330566 L 71.63475036621094 17.36976051330566 L 72.229248046875 17.36976051330566 L 72.43099975585938 17.92899322509766 L 73.51589965820312 20.93626022338867 Z M 54.52379608154297 20.93626022338867 L 57.26005935668945 20.93626022338867 L 53.83581161499023 15.62776660919189 L 53.31068420410156 14.81365299224854 L 54.1878776550293 14.40246295928955 C 54.65827178955078 14.18196678161621 55.07322692871094 13.91461086273193 55.43106842041016 13.6031551361084 C 55.78890228271484 13.29169750213623 56.08961868286133 12.93613910675049 56.33153533935547 12.53923606872559 C 56.57345581054688 12.14233207702637 56.75657653808594 11.70408344268799 56.87921524047852 11.22724723815918 C 57.00185394287109 10.75040912628174 57.06401824951172 10.23498344421387 57.06401824951172 9.683725357055664 C 57.06401824951172 8.830360412597656 56.91080474853516 8.062970161437988 56.61682891845703 7.391902923583984 C 56.32285690307617 6.720834732055664 55.88812255859375 6.146089553833008 55.32507705688477 5.678015232086182 C 54.76203155517578 5.209939956665039 54.0706672668457 4.848535537719727 53.26344299316406 4.604149341583252 C 52.45621490478516 4.359763145446777 51.53312683105469 4.232397079467773 50.50661849975586 4.232397079467773 L 43.94922256469727 4.232397079467773 L 43.94922256469727 20.93626022338867 L 46.36450958251953 20.93626022338867 L 46.36450958251953 15.98153495788574 L 46.36450958251953 15.13505458831787 L 47.21099090576172 15.13505458831787 L 50.48404693603516 15.13505458831787 L 50.95729446411133 15.13505458831787 L 51.20514297485352 15.53820419311523 L 54.52379608154297 20.93626022338867 Z M 108.7218399047852 19.37874031066895 C 108.2596435546875 19.37874031066895 107.8071517944336 19.33572006225586 107.3692321777344 19.25166511535645 C 106.9313125610352 19.1676082611084 106.5079574584961 19.04251670837402 106.1040573120117 18.87836837768555 C 105.7001495361328 18.71421813964844 105.3156967163086 18.51101493835449 104.95556640625 18.27073669433594 C 104.5954284667969 18.03045654296875 104.2596130371094 17.75310325622559 103.952995300293 17.4406566619873 C 103.6464614868164 17.12828826904297 103.3743591308594 16.78596878051758 103.1386260986328 16.41867256164551 C 102.9028854370117 16.0513801574707 102.7035293579102 15.65910816192627 102.5424880981445 15.24683952331543 C 102.3814392089844 14.83456993103027 102.2587203979492 14.40230178833008 102.1762542724609 13.95501136779785 C 102.0937881469727 13.50771903991699 102.0515899658203 13.0454044342041 102.0515899658203 12.57304286956787 C 102.0515899658203 12.09848022460938 102.0938034057617 11.63430976867676 102.1763076782227 11.18551635742188 C 102.2588043212891 10.73672389984131 102.3815765380859 10.30330848693848 102.5426864624023 9.890254020690918 C 102.7037963867188 9.477199554443359 102.9032440185547 9.084508895874023 103.1390762329102 8.717164039611816 C 103.3749084472656 8.349820137023926 103.6471328735352 8.00782299041748 103.9537963867188 7.696157455444336 C 104.2597579956055 7.385203838348389 104.5950622558594 7.109177112579346 104.9548416137695 6.870047569274902 C 105.3146133422852 6.630918502807617 105.6988525390625 6.428686141967773 106.1026916503906 6.265322685241699 C 106.5065307617188 6.101958751678467 106.9299621582031 5.977465629577637 107.3681030273438 5.893812656402588 C 107.8062515258789 5.810159206390381 108.2591323852539 5.76734733581543 108.7218399047852 5.76734733581543 C 109.1845550537109 5.76734733581543 109.6374282836914 5.810159206390381 110.0755767822266 5.893812656402588 C 110.5137252807617 5.977465629577637 110.9371490478516 6.101958751678467 111.3409881591797 6.265322685241699 C 111.7448272705078 6.428686141967773 112.1290740966797 6.630918502807617 112.4888381958008 6.870047569274902 C 112.8486175537109 7.109177112579346 113.1839218139648 7.385203838348389 113.4898910522461 7.696157455444336 C 113.7965621948242 8.00782299041748 114.0687713623047 8.349820137023926 114.3046112060547 8.717164039611816 C 114.5404434204102 9.084508895874023 114.7398834228516 9.477199554443359 114.900993347168 9.890254020690918 C 115.0621032714844 10.30330848693848 115.1848754882812 10.73672389984131 115.2673797607422 11.18551635742188 C 115.3498764038086 11.63430976867676 115.3921051025391 12.09848022460938 115.3921051025391 12.57304286956787 C 115.3921051025391 13.0454044342041 115.3498916625977 13.50771903991699 115.2674255371094 13.95501136779785 C 115.1849594116211 14.40230178833008 115.0622406005859 14.83456993103027 114.9011993408203 15.24683952331543 C 114.7401504516602 15.65910816192627 114.5407943725586 16.0513801574707 114.305061340332 16.41867256164551 C 114.0693283081055 16.78596878051758 113.7972259521484 17.12828826904297 113.4906921386719 17.4406566619873 C 113.1840744018555 17.75310325622559 112.848258972168 18.03045654296875 112.4881286621094 18.27073669433594 C 112.1279983520508 18.51101493835449 111.743537902832 18.71421813964844 111.3396301269531 18.87836837768555 C 110.9357223510742 19.04251670837402 110.5123748779297 19.1676082611084 110.0744476318359 19.25166511535645 C 109.6365280151367 19.33572006225586 109.1840362548828 19.37874031066895 108.7218399047852 19.37874031066895 Z M 108.7218399047852 7.460306644439697 C 108.0008316040039 7.460306644439697 107.3292465209961 7.5946946144104 106.7274322509766 7.842567443847656 C 106.1256256103516 8.090439796447754 105.5935821533203 8.451794624328613 105.1516799926758 8.905729293823242 C 104.7097702026367 9.359663009643555 104.3579864501953 9.906176567077637 104.1166839599609 10.52436351776123 C 103.875373840332 11.14255046844482 103.7445449829102 11.83241176605225 103.7445449829102 12.57304286956787 C 103.7445449829102 13.3136739730835 103.875373840332 14.00353527069092 104.1166839599609 14.62172222137451 C 104.3579864501953 15.23990917205811 104.7097702026367 15.78642272949219 105.1516799926758 16.2403564453125 C 105.5935821533203 16.69429206848145 106.1256256103516 17.0556468963623 106.7274322509766 17.30352020263672 C 107.3292465209961 17.5513916015625 108.0008316040039 17.6857795715332 108.7218399047852 17.6857795715332 C 109.4428558349609 17.6857795715332 110.1144409179688 17.5513916015625 110.7162475585938 17.30352020263672 C 111.3180618286133 17.0556468963623 111.85009765625 16.69429206848145 112.2920074462891 16.2403564453125 C 112.7339172363281 15.78642272949219 113.0857009887695 15.23990917205811 113.3270034790039 14.62172222137451 C 113.5683135986328 14.00353527069092 113.6991424560547 13.3136739730835 113.6991424560547 12.57304286956787 C 113.6991424560547 11.83241176605225 113.5683135986328 11.14255046844482 113.3270034790039 10.52436351776123 C 113.0857009887695 9.906176567077637 112.7339172363281 9.359663009643555 112.2920074462891 8.905729293823242 C 111.85009765625 8.451794624328613 111.3180618286133 8.090439796447754 110.7162475585938 7.842567443847656 C 110.1144409179688 7.5946946144104 109.4428558349609 7.460306644439697 108.7218399047852 7.460306644439697 Z M 71.57411193847656 15.49621963500977 L 70.37067413330078 15.49621963500977 L 65.76582336425781 15.49621963500977 L 64.56238555908203 15.49621963500977 L 64.96916198730469 14.36362075805664 L 67.27158355712891 7.952948570251465 L 68.06825256347656 5.734807014465332 L 68.86491394042969 7.952948570251465 L 71.16733551025391 14.36362075805664 L 71.57411193847656 15.49621963500977 Z M 66.96926879882812 13.80325984954834 L 69.16722869873047 13.80325984954834 L 68.06825256347656 10.74334621429443 L 66.96926879882812 13.80325984954834 Z M 50.3260383605957 13.1937952041626 L 47.21099090576172 13.1937952041626 L 46.36450958251953 13.1937952041626 L 46.36450958251953 12.34731483459473 L 46.36450958251953 7.020136833190918 L 46.36450958251953 6.173656940460205 L 47.21099090576172 6.173656940460205 L 50.3260383605957 6.173656940460205 C 50.64557266235352 6.173656940460205 50.94953918457031 6.191516876220703 51.23749542236328 6.227112293243408 C 51.52545166015625 6.262707233428955 51.79738998413086 6.316037178039551 52.0528678894043 6.386978626251221 C 52.30834579467773 6.457920074462891 52.54736709594727 6.546473026275635 52.76947784423828 6.652512073516846 C 52.99159240722656 6.758552551269531 53.19679641723633 6.882078170776367 53.38465118408203 7.022967338562012 C 53.59139251708984 7.178020477294922 53.77376556396484 7.351815223693848 53.93103408813477 7.542798042297363 C 54.08830642700195 7.733781337738037 54.22047424316406 7.94195032119751 54.32679748535156 8.165753364562988 C 54.43312072753906 8.389556884765625 54.51360321044922 8.628992080688477 54.5675048828125 8.882505416870117 C 54.62140655517578 9.136017799377441 54.64872360229492 9.403609275817871 54.64872360229492 9.683725357055664 C 54.64872360229492 9.963841438293457 54.62140655517578 10.23143291473389 54.5675048828125 10.48494625091553 C 54.51360321044922 10.73846054077148 54.43312072753906 10.97789669036865 54.32679748535156 11.20170021057129 C 54.22047424316406 11.42550468444824 54.08830642700195 11.63367652893066 53.93103408813477 11.82466125488281 C 53.77376556396484 12.01564598083496 53.59139251708984 12.18944454193115 53.38465118408203 12.34450244903564 C 53.19679641723633 12.48538684844971 52.99159240722656 12.60890960693359 52.76947784423828 12.71494770050049 C 52.54736709594727 12.82098293304443 52.30834579467773 12.90953540802002 52.0528678894043 12.98047542572021 C 51.79738998413086 13.05141544342041 51.52545166015625 13.10474586486816 51.23749542236328 13.14033985137939 C 50.94953918457031 13.17593479156494 50.64557266235352 13.1937952041626 50.3260383605957 13.1937952041626 Z M 48.05746841430664 11.50083541870117 L 50.3260383605957 11.50083541870117 C 50.76227951049805 11.50083541870117 51.14475631713867 11.46262645721436 51.47308731079102 11.38647079467773 C 51.80141830444336 11.31031513214111 52.07560348510742 11.19621658325195 52.29526138305664 11.04443740844727 C 52.51491928100586 10.89265727996826 52.6800422668457 10.70319843292236 52.79025650024414 10.47632598876953 C 52.90047073364258 10.24945163726807 52.95576477050781 9.985163688659668 52.95576477050781 9.683725357055664 C 52.95576477050781 9.38228702545166 52.90047073364258 9.117999076843262 52.79025650024414 8.891124725341797 C 52.6800422668457 8.664252281188965 52.51491928100586 8.474793434143066 52.29526138305664 8.323014259338379 C 52.07560348510742 8.171235084533691 51.80141830444336 8.057135581970215 51.47308731079102 7.98098087310791 C 51.14475631713867 7.904826641082764 50.76227951049805 7.866616249084473 50.3260383605957 7.866616249084473 L 48.05746841430664 7.866616249084473 L 48.05746841430664 11.50083541870117 Z" stroke="none" fill="#080d4b"/>
      </g>
    </g>
  </g>
</svg>
