<svg xmlns="http://www.w3.org/2000/svg" xmlns:xlink="http://www.w3.org/1999/xlink" width="60" height="60" viewBox="0 0 60 60">
  <defs>
    <linearGradient id="linear-gradient" x1="0.108" x2="0.771" y2="0.905" gradientUnits="objectBoundingBox">
      <stop offset="0" stop-color="#ffbda5"/>
      <stop offset="1" stop-color="#ed6603"/>
    </linearGradient>
    <filter id="패스_36216" x="7" y="10.799" width="49.988" height="46.693" filterUnits="userSpaceOnUse">
      <feOffset dx="2" dy="4" input="SourceAlpha"/>
      <feGaussianBlur stdDeviation="2" result="blur"/>
      <feFlood flood-opacity="0.161"/>
      <feComposite operator="in" in2="blur"/>
      <feComposite in="SourceGraphic"/>
    </filter>
    <linearGradient id="linear-gradient-2" x1="0.192" x2="0.776" y2="1" gradientUnits="objectBoundingBox">
      <stop offset="0" stop-color="#fff"/>
      <stop offset="1" stop-color="#ffc4dd"/>
    </linearGradient>
    <filter id="패스_36217" x="30.213" y="19.594" width="17.07" height="16.721" filterUnits="userSpaceOnUse">
      <feOffset input="SourceAlpha"/>
      <feGaussianBlur stdDeviation="1.5" result="blur-2"/>
      <feFlood flood-color="#f38339"/>
      <feComposite operator="in" in2="blur-2"/>
      <feComposite in="SourceGraphic"/>
    </filter>
    <linearGradient id="linear-gradient-3" x1="0.267" y1="0.22" x2="0.754" y2="0.918" gradientUnits="objectBoundingBox">
      <stop offset="0" stop-color="#fff"/>
      <stop offset="1" stop-color="#ffdaea"/>
    </linearGradient>
    <filter id="다각형_33" x="12.822" y="15.209" width="16.859" height="15.746" filterUnits="userSpaceOnUse">
      <feOffset input="SourceAlpha"/>
      <feGaussianBlur stdDeviation="1" result="blur-3"/>
      <feFlood flood-color="#fa9b55"/>
      <feComposite operator="in" in2="blur-3"/>
      <feComposite in="SourceGraphic"/>
    </filter>
    <linearGradient id="linear-gradient-4" x1="0.032" y1="0.07" x2="1.028" y2="1" gradientUnits="objectBoundingBox">
      <stop offset="0" stop-color="#fff"/>
      <stop offset="1" stop-color="#fff0f6"/>
    </linearGradient>
    <clipPath id="clip-path">
      <rect id="사각형_20581" data-name="사각형 20581" width="14" height="8" transform="translate(23 30.301)" fill="#fff" stroke="#707070" stroke-width="1"/>
    </clipPath>
    <linearGradient id="linear-gradient-5" x1="-0.03" y1="-0.055" x2="1.411" y2="0.959" gradientUnits="objectBoundingBox">
      <stop offset="0" stop-color="#fff"/>
      <stop offset="1" stop-color="#ffd1e5"/>
    </linearGradient>
    <clipPath id="clip-_">
      <rect width="60" height="60"/>
    </clipPath>
  </defs>
  <g id="_" data-name="ㄴ" clip-path="url(#clip-_)">
    <g id="그룹_112105" data-name="그룹 112105" transform="translate(21582 18985.146)">
      <rect id="사각형_3449" data-name="사각형 3449" width="40" height="40" transform="translate(-21572 -18975)" fill="#fff" opacity="0"/>
      <g id="그룹_1811" data-name="그룹 1811" transform="translate(-21570.994 -18972.348)">
        <g id="그룹_1664" data-name="그룹 1664" transform="translate(0 0)">
          <g id="그룹_1665" data-name="그룹 1665">
            <g transform="matrix(1, 0, 0, 1, -11.01, -12.8)" filter="url(#패스_36216)">
              <path id="패스_36216-2" data-name="패스 36216" d="M33.028,1.573C25.777-1.184,21.264,6.819,19.994,8.3c-1.27-1.478-5.783-9.481-13.033-6.724C-1.69,4.862-3.641,23.38,19.988,35.686v.007l.006,0,.005,0v-.007C43.629,23.38,41.678,4.862,33.028,1.573Z" transform="translate(10 11.8)" fill="url(#linear-gradient)"/>
            </g>
            <g transform="matrix(1, 0, 0, 1, -11.01, -12.8)" filter="url(#패스_36217)">
              <path id="패스_36217-2" data-name="패스 36217" d="M5.474.1c-1.239-.472-2.011.9-2.228,1.149C3.03.995,2.258-.373,1.019.1-.46.66-.793,3.826,3.246,5.929h0C7.287,3.826,6.953.66,5.474.1Z" transform="translate(36.65 24.09) rotate(19)" fill="url(#linear-gradient-2)"/>
            </g>
            <g transform="matrix(1, 0, 0, 1, -11.01, -12.8)" filter="url(#다각형_33)">
              <path id="다각형_33-2" data-name="다각형 33" d="M4.644.7a.4.4,0,0,1,.712,0L6.4,2.747a.4.4,0,0,0,.31.215l2.382.275a.4.4,0,0,1,.215.7l-1.7,1.471a.4.4,0,0,0-.13.384l.446,2.143a.4.4,0,0,1-.572.438l-2.168-1.1a.4.4,0,0,0-.361,0l-2.168,1.1a.4.4,0,0,1-.572-.438l.446-2.143a.4.4,0,0,0-.13-.384L.69,3.938a.4.4,0,0,1,.215-.7l2.382-.275a.4.4,0,0,0,.31-.215Z" transform="matrix(0.99, -0.1, 0.1, 0.99, 15.82, 19.25)" fill="url(#linear-gradient-3)"/>
            </g>
          </g>
        </g>
      </g>
      <circle id="타원_715" data-name="타원 715" cx="3" cy="3" r="3" transform="translate(-21555 -18961.146)" fill="url(#linear-gradient-4)"/>
      <g id="마스크_그룹_110100" data-name="마스크 그룹 110100" transform="translate(-21582 -18985.146)" clip-path="url(#clip-path)">
        <path id="패스_38233" data-name="패스 38233" d="M6.087,0c3.362,0,6.087,3.264,6.087,7.291s-2.725,7.291-6.087,7.291S0,11.318,0,7.291,2.725,0,6.087,0Z" transform="translate(23.999 30.418)" fill="url(#linear-gradient-5)"/>
      </g>
    </g>
  </g>
</svg>
