<svg xmlns="http://www.w3.org/2000/svg" xmlns:xlink="http://www.w3.org/1999/xlink" width="60" height="60" viewBox="0 0 60 60">
  <defs>
    <filter id="Path_37344" x="19.416" y="18.711" width="21.167" height="25.224" filterUnits="userSpaceOnUse">
      <feOffset input="SourceAlpha"/>
      <feGaussianBlur stdDeviation="1.5" result="blur"/>
      <feFlood flood-color="#f38339"/>
      <feComposite operator="in" in2="blur"/>
      <feComposite in="SourceGraphic"/>
    </filter>
    <linearGradient id="linear-gradient" x1="0.108" x2="0.771" y2="0.905" gradientUnits="objectBoundingBox">
      <stop offset="0" stop-color="#ffbda5"/>
      <stop offset="1" stop-color="#ed6603"/>
    </linearGradient>
    <filter id="Path_36216" x="7.006" y="10.799" width="49.988" height="46.694" filterUnits="userSpaceOnUse">
      <feOffset dx="2" dy="4" input="SourceAlpha"/>
      <feGaussianBlur stdDeviation="2" result="blur-2"/>
      <feFlood flood-opacity="0.161"/>
      <feComposite operator="in" in2="blur-2"/>
      <feComposite in="SourceGraphic"/>
    </filter>
    <linearGradient id="linear-gradient-2" x1="0.192" x2="0.776" y2="1" gradientUnits="objectBoundingBox">
      <stop offset="0" stop-color="#fff"/>
      <stop offset="1" stop-color="#ffc4dd"/>
    </linearGradient>
    <filter id="Path_36217" x="30.214" y="19.594" width="17.07" height="16.721" filterUnits="userSpaceOnUse">
      <feOffset input="SourceAlpha"/>
      <feGaussianBlur stdDeviation="1.5" result="blur-3"/>
      <feFlood flood-color="#f38339"/>
      <feComposite operator="in" in2="blur-3"/>
      <feComposite in="SourceGraphic"/>
    </filter>
    <clipPath id="clip-path">
      <g transform="matrix(1, 0, 0, 1, 0, 0)" filter="url(#Path_37344)">
        <path id="Path_37344-2" data-name="Path 37344" d="M0,16.222c0,.049.005-1.153.005-1.105H12.161c0-.048.006-.1.006-.145,0-5.039-2.725-7.62-6.084-7.62S0,9.934,0,14.972M6.083,0A3.114,3.114,0,1,0,9.2,3.115,3.115,3.115,0,0,0,6.083,0Z" fill="none"/>
      </g>
    </clipPath>
    <linearGradient id="linear-gradient-3" x2="1" y2="1" gradientUnits="objectBoundingBox">
      <stop offset="0" stop-color="#fff"/>
      <stop offset="1" stop-color="#ffe5f0"/>
    </linearGradient>
    <linearGradient id="linear-gradient-4" x1="0.267" y1="0.22" x2="0.754" y2="0.918" gradientUnits="objectBoundingBox">
      <stop offset="0" stop-color="#fff"/>
      <stop offset="1" stop-color="#ffdaea"/>
    </linearGradient>
    <filter id="Polygon_33" x="12.822" y="15.209" width="16.86" height="15.747" filterUnits="userSpaceOnUse">
      <feOffset input="SourceAlpha"/>
      <feGaussianBlur stdDeviation="1" result="blur-4"/>
      <feFlood flood-color="#fa9b55"/>
      <feComposite operator="in" in2="blur-4"/>
      <feComposite in="SourceGraphic"/>
    </filter>
  </defs>
  <g id="Group_112604" data-name="Group 112604" transform="translate(-887 -1056)">
    <rect id="Rectangle_20573" data-name="Rectangle 20573" width="60" height="60" transform="translate(887 1056)" fill="#fff" opacity="0"/>
    <g id="Group_112105" data-name="Group 112105" transform="translate(22469 20041.146)">
      <rect id="Rectangle_3449" data-name="Rectangle 3449" width="40" height="40" transform="translate(-21572 -18975)" fill="#fff" opacity="0"/>
      <g id="Group_1811" data-name="Group 1811" transform="translate(-21570.994 -18972.348)">
        <g id="Group_1664" data-name="Group 1664" transform="translate(0 0)">
          <g id="Group_1665" data-name="Group 1665">
            <g transform="matrix(1, 0, 0, 1, -11.01, -12.8)" filter="url(#Path_36216)">
              <path id="Path_36216-2" data-name="Path 36216" d="M33.028,1.573C25.777-1.184,21.264,6.819,19.994,8.3c-1.27-1.478-5.783-9.481-13.033-6.724C-1.69,4.862-3.641,23.38,19.988,35.686v.007l.006,0,.005,0v-.007C43.629,23.38,41.678,4.862,33.028,1.573Z" transform="translate(10.01 11.8)" fill="url(#linear-gradient)"/>
            </g>
            <g transform="matrix(1, 0, 0, 1, -11.01, -12.8)" filter="url(#Path_36217)">
              <path id="Path_36217-2" data-name="Path 36217" d="M5.474.1c-1.239-.472-2.011.9-2.228,1.149C3.03.995,2.258-.373,1.019.1-.46.66-.793,3.826,3.246,5.929h0C7.287,3.826,6.953.66,5.474.1Z" transform="translate(36.65 24.09) rotate(19)" fill="url(#linear-gradient-2)"/>
            </g>
            <g id="Group_112042" data-name="Group 112042" transform="translate(12.91 10.413)">
              <g id="Group_112041" data-name="Group 112041" clip-path="url(#clip-path)">
                <rect id="Rectangle_20448" data-name="Rectangle 20448" width="12.167" height="16.367" transform="translate(0 0)" fill="url(#linear-gradient-3)"/>
              </g>
            </g>
            <g transform="matrix(1, 0, 0, 1, -11.01, -12.8)" filter="url(#Polygon_33)">
              <path id="Polygon_33-2" data-name="Polygon 33" d="M4.644.7a.4.4,0,0,1,.712,0L6.4,2.747a.4.4,0,0,0,.31.215l2.382.275a.4.4,0,0,1,.215.7l-1.7,1.471a.4.4,0,0,0-.13.384l.446,2.143a.4.4,0,0,1-.572.438l-2.168-1.1a.4.4,0,0,0-.361,0l-2.168,1.1a.4.4,0,0,1-.572-.438l.446-2.143a.4.4,0,0,0-.13-.384L.69,3.938a.4.4,0,0,1,.215-.7l2.382-.275a.4.4,0,0,0,.31-.215Z" transform="matrix(0.99, -0.1, 0.1, 0.99, 15.82, 19.25)" fill="url(#linear-gradient-4)"/>
            </g>
          </g>
        </g>
      </g>
    </g>
  </g>
</svg>
