<svg xmlns="http://www.w3.org/2000/svg" xmlns:xlink="http://www.w3.org/1999/xlink" width="147.316" height="119.037" viewBox="0 0 147.316 119.037">
<style type="text/css">
.parcel {transform-origin: 0% 100%; transform: translateX(0); animation:parcel linear both infinite 3s;}
@keyframes parcel {
  0% {transform: translateX(0)}
  100% {transform: translateX(200px)}
}
.star {animation:star linear both infinite 2.8s;}
.star.s1 {transform-origin: 100% 0%;}
.star.s2 {transform-origin: 100% 0%; animation-delay:0.5s;}
@keyframes star {
25% {transform:scale(0.4);opacity:0;}	
50% {transform:scale(1.1);opacity:1;}
75% {transform:scale(0.6);}
100% {transform:scale(1);}
}
</style>
  <defs>
    <clipPath id="clip-path">
      <path id="패스_39460" data-name="패스 39460" d="M16.11,110.663H145.149l.756-107.547H16.11Z" transform="translate(0 -5.103)" fill="none"/>
    </clipPath>
    <clipPath id="clip-path-2">
      <rect id="사각형_21559" data-name="사각형 21559" width="19.748" height="17.814" transform="translate(0 81.195)" fill="none"/>
    </clipPath>
    <clipPath id="clip-path-3">
      <rect id="사각형_21465" data-name="사각형 21465" width="30.717" height="32.544" fill="none"/>
    </clipPath>
    <clipPath id="clip-path-4">
      <rect id="사각형_21596" data-name="사각형 21596" width="49.618" height="50.182" transform="translate(0 0)" fill="#12154b" stroke="#12154b" stroke-width="1"/>
    </clipPath>
    <clipPath id="clip-path-5">
      <rect id="사각형_21561" data-name="사각형 21561" width="10.65" height="9.253" transform="translate(38.651 13.135)" fill="#12154b" stroke="#12154b" stroke-width="1"/>
    </clipPath>
    <clipPath id="clip-path-7">
      <rect id="사각형_21563" data-name="사각형 21563" width="7.951" height="5.638" transform="translate(41.106 21.453)" fill="#12154b" stroke="#12154b" stroke-width="1"/>
    </clipPath>
    <clipPath id="clip-path-9">
      <rect id="사각형_21565" data-name="사각형 21565" width="10.094" height="7.785" transform="translate(39.524 26.756)" fill="#12154b" stroke="#12154b" stroke-width="1"/>
    </clipPath>
    <clipPath id="clip-path-11">
      <rect id="사각형_21567" data-name="사각형 21567" width="10.52" height="9.563" transform="translate(36.724 31.544)" fill="#12154b" stroke="#12154b" stroke-width="1"/>
    </clipPath>
    <clipPath id="clip-path-13">
      <rect id="사각형_21569" data-name="사각형 21569" width="9.991" height="10.457" transform="translate(32.804 35.74)" fill="#12154b" stroke="#12154b" stroke-width="1"/>
    </clipPath>
    <clipPath id="clip-path-15">
      <rect id="사각형_21571" data-name="사각형 21571" width="8.529" height="10.366" transform="translate(28.116 38.972)" fill="#12154b" stroke="#12154b" stroke-width="1"/>
    </clipPath>
    <clipPath id="clip-path-17">
      <rect id="사각형_21573" data-name="사각형 21573" width="6.189" height="9.31" transform="translate(23.318 40.872)" fill="#12154b" stroke="#12154b" stroke-width="1"/>
    </clipPath>
    <clipPath id="clip-path-19">
      <rect id="사각형_21575" data-name="사각형 21575" width="6.81" height="8.806" transform="translate(17.108 40.49)" fill="#12154b" stroke="#12154b" stroke-width="1"/>
    </clipPath>
    <clipPath id="clip-path-21">
      <rect id="사각형_21577" data-name="사각형 21577" width="9.514" height="10.579" transform="translate(9.399 37.297)" fill="#12154b" stroke="#12154b" stroke-width="1"/>
    </clipPath>
    <clipPath id="clip-path-23">
      <rect id="사각형_21579" data-name="사각형 21579" width="10.695" height="9.352" transform="translate(0.479 28.077)" fill="#12154b" stroke="#12154b" stroke-width="1"/>
    </clipPath>
    <clipPath id="clip-path-25">
      <rect id="사각형_21581" data-name="사각형 21581" width="8.025" height="5.746" transform="translate(0.596 23.345)" fill="#12154b" stroke="#12154b" stroke-width="1"/>
    </clipPath>
    <clipPath id="clip-path-27">
      <rect id="사각형_21583" data-name="사각형 21583" width="10.046" height="7.675" transform="translate(0 16.017)" fill="#12154b" stroke="#12154b" stroke-width="1"/>
    </clipPath>
    <clipPath id="clip-path-29">
      <rect id="사각형_21585" data-name="사각형 21585" width="10.521" height="9.486" transform="translate(2.25 9.409)" fill="#12154b" stroke="#12154b" stroke-width="1"/>
    </clipPath>
    <clipPath id="clip-path-31">
      <rect id="사각형_21587" data-name="사각형 21587" width="10.051" height="10.439" transform="translate(6.591 4.221)" fill="#12154b" stroke="#12154b" stroke-width="1"/>
    </clipPath>
    <clipPath id="clip-path-33">
      <rect id="사각형_21589" data-name="사각형 21589" width="8.633" height="10.397" transform="translate(12.662 0.969)" fill="#12154b" stroke="#12154b" stroke-width="1"/>
    </clipPath>
    <clipPath id="clip-path-35">
      <rect id="사각형_21591" data-name="사각형 21591" width="6.337" height="9.391" transform="translate(19.742 0)" fill="#12154b" stroke="#12154b" stroke-width="1"/>
    </clipPath>
    <clipPath id="clip-path-37">
      <rect id="사각형_21593" data-name="사각형 21593" width="6.708" height="8.753" transform="translate(25.502 0.858)" fill="#12154b" stroke="#12154b" stroke-width="1"/>
    </clipPath>
    <clipPath id="clip-path-39">
      <rect id="사각형_21595" data-name="사각형 21595" width="9.441" height="10.579" transform="translate(30.511 2.142)" fill="#12154b" stroke="#12154b" stroke-width="1"/>
    </clipPath>
  </defs>
  <g id="object" transform="translate(46.411 -7.563)">
    <g id="택배" transform="translate(-45 21.039)">
    <g class="parcel">
      <g id="그룹_115123" data-name="그룹 115123">
        <g id="그룹_115122" data-name="그룹 115122" clip-path="url(#clip-path)">
          <path id="패스_39409" data-name="패스 39409" d="M56.108,17.354V7.176s-12.043-9.553-24.3-4.362c0,0,0,5.126,3.182,8.31,0,0-3.736,1.107-3.392,7.686h24.51Z" fill="#fc5d00"/>
          <path id="패스_39410" data-name="패스 39410" d="M56.108,17.354V7.176s-12.043-9.553-24.3-4.362c0,0,0,5.126,3.182,8.31,0,0-3.736,1.107-3.392,7.686h24.51Z" fill="none" stroke="#141a37" stroke-miterlimit="10" stroke-width="1"/>
          <path id="패스_39411" data-name="패스 39411" d="M30.829,18.851c-.258-4.957,1.678-7.093,2.931-7.947a14.277,14.277,0,0,1-2.722-8.09.771.771,0,0,1,.469-.707A20.41,20.41,0,0,1,39.518.5c9.3,0,16.755,5.825,17.067,6.073a.77.77,0,0,1,.291.6V18.81a.769.769,0,0,1-.769.769H31.6a.769.769,0,0,1-.768-.728M55.339,7.562C53.9,6.512,47.283,2.039,39.518,2.039A18.934,18.934,0,0,0,32.6,3.322c.1,1.317.58,4.905,2.932,7.259a.773.773,0,0,1-.318,1.278c-.123.041-2.9,1-2.872,6.182H55.339Z" fill="#12154b"/>
          <path id="패스_39412" data-name="패스 39412" d="M30.829,18.851c-.258-4.957,1.678-7.093,2.931-7.947a14.277,14.277,0,0,1-2.722-8.09.771.771,0,0,1,.469-.707A20.41,20.41,0,0,1,39.518.5c9.3,0,16.755,5.825,17.067,6.073a.77.77,0,0,1,.291.6V18.81a.769.769,0,0,1-.769.769H31.6A.769.769,0,0,1,30.829,18.851ZM55.339,7.562C53.9,6.512,47.283,2.039,39.518,2.039A18.934,18.934,0,0,0,32.6,3.322c.1,1.317.58,4.905,2.932,7.259a.773.773,0,0,1-.318,1.278c-.123.041-2.9,1-2.872,6.182H55.339Z" fill="none" stroke="#12154b" stroke-miterlimit="10" stroke-width="1"/>
          <path id="패스_39413" data-name="패스 39413" d="M48.7,8.742c2.381,0,4.16-.148,4.356-.167a.769.769,0,0,0-.134-1.533C49.386,7.351,39.6,7.513,36.83,4.6A.769.769,0,1,0,35.7,5.639l.02.021c2.468,2.6,8.7,3.082,12.983,3.082" fill="#12154b"/>
          <path id="패스_39414" data-name="패스 39414" d="M48.7,8.742c2.381,0,4.16-.148,4.356-.167a.769.769,0,0,0-.134-1.533C49.386,7.351,39.6,7.513,36.83,4.6A.769.769,0,1,0,35.7,5.639l.02.021C38.184,8.256,44.418,8.742,48.7,8.742Z" fill="none" stroke="#12154b" stroke-miterlimit="10" stroke-width="1"/>
          <path id="패스_39415" data-name="패스 39415" d="M66.055,17.354V7.176s12.052-9.553,24.3-4.362c0,0,0,5.126-3.186,8.31,0,0,3.739,1.107,3.393,7.686H66.055Z" fill="#fc5d00"/>
          <path id="패스_39416" data-name="패스 39416" d="M66.055,17.354V7.176s12.052-9.553,24.3-4.362c0,0,0,5.126-3.186,8.31,0,0,3.739,1.107,3.393,7.686H66.055Z" fill="none" stroke="#141a37" stroke-miterlimit="10" stroke-width="1"/>
          <path id="패스_39417" data-name="패스 39417" d="M65.286,18.809V7.175a.77.77,0,0,1,.291-.6C65.89,6.325,73.345.5,82.648.5a20.422,20.422,0,0,1,8.011,1.6.768.768,0,0,1,.469.707A14.26,14.26,0,0,1,88.4,10.9c1.254.856,3.192,2.991,2.931,7.947a.768.768,0,0,1-.767.728H66.055a.769.769,0,0,1-.769-.769m21.669-6.948a.768.768,0,0,1-.52-.954.782.782,0,0,1,.195-.327c2.355-2.354,2.838-5.942,2.936-7.259a18.921,18.921,0,0,0-6.918-1.276c-7.767,0-14.38,4.473-15.824,5.522V18.04h23c.028-5.183-2.749-6.141-2.865-6.179" fill="#12154b"/>
          <path id="패스_39418" data-name="패스 39418" d="M65.286,18.809V7.175a.77.77,0,0,1,.291-.6C65.89,6.325,73.345.5,82.648.5a20.422,20.422,0,0,1,8.011,1.6.768.768,0,0,1,.469.707A14.26,14.26,0,0,1,88.4,10.9c1.254.856,3.192,2.991,2.931,7.947a.768.768,0,0,1-.767.728H66.055A.769.769,0,0,1,65.286,18.809Zm21.669-6.948a.768.768,0,0,1-.52-.954.782.782,0,0,1,.195-.327c2.355-2.354,2.838-5.942,2.936-7.259a18.923,18.923,0,0,0-6.918-1.282c-7.767,0-14.38,4.473-15.824,5.522V18.04h23c.024-5.183-2.754-6.14-2.869-6.178Z" fill="none" stroke="#12154b" stroke-miterlimit="10" stroke-width="1"/>
          <path id="패스_39419" data-name="패스 39419" d="M74.493,8.737c3.9,0,8.927-.484,12.273-2.608a.77.77,0,0,0-.824-1.3c-5.549,3.52-16.857,2.055-16.971,2.039a.769.769,0,1,0-.2,1.525,46.559,46.559,0,0,0,5.722.344" fill="#12154b"/>
          <path id="패스_39420" data-name="패스 39420" d="M74.493,8.737c3.9,0,8.927-.484,12.273-2.608a.77.77,0,0,0-.824-1.3c-5.549,3.52-16.857,2.055-16.971,2.039a.769.769,0,1,0-.2,1.525A46.559,46.559,0,0,0,74.493,8.737Z" fill="none" stroke="#12154b" stroke-miterlimit="10" stroke-width="1"/>
          <path id="패스_39421" data-name="패스 39421" d="M53.858,16.89a2.222,2.222,0,0,0,2.355,2.061H64.8a2.224,2.224,0,0,0,2.355-2.061V7.922A2.226,2.226,0,0,0,64.8,5.861H56.213a2.224,2.224,0,0,0-2.355,2.061Z" fill="#fc5d00"/>
          <path id="패스_39422" data-name="패스 39422" d="M53.858,16.89a2.222,2.222,0,0,0,2.355,2.061H64.8a2.224,2.224,0,0,0,2.355-2.061V7.922A2.226,2.226,0,0,0,64.8,5.861H56.213a2.224,2.224,0,0,0-2.355,2.061Z" fill="none" stroke="#141a37" stroke-miterlimit="10" stroke-width="1"/>
          <path id="패스_39423" data-name="패스 39423" d="M53.089,16.887V7.921a2.991,2.991,0,0,1,3.124-2.83H64.8a2.991,2.991,0,0,1,3.124,2.83v8.965a2.992,2.992,0,0,1-3.124,2.83H56.213a2.991,2.991,0,0,1-3.124-2.83M56.213,6.63a1.464,1.464,0,0,0-1.587,1.291v8.965a1.464,1.464,0,0,0,1.586,1.292h8.583a1.464,1.464,0,0,0,1.586-1.292V7.921a1.464,1.464,0,0,0-1.586-1.292Z" fill="#12154b"/>
          <path id="패스_39424" data-name="패스 39424" d="M53.089,16.887V7.921a2.991,2.991,0,0,1,3.124-2.83H64.8a2.991,2.991,0,0,1,3.124,2.83v8.965a2.992,2.992,0,0,1-3.124,2.83H56.213A2.991,2.991,0,0,1,53.089,16.887ZM56.213,6.63a1.464,1.464,0,0,0-1.587,1.291v8.965a1.464,1.464,0,0,0,1.586,1.292h8.583a1.464,1.464,0,0,0,1.586-1.292V7.921a1.464,1.464,0,0,0-1.586-1.292Z" fill="none" stroke="#12154b" stroke-miterlimit="10" stroke-width="1"/>
          <path id="패스_39495" data-name="패스 39495" d="M0,0H81.706V14.04H0Z" transform="translate(19.499 17.028)" fill="#fec211"/>
          <path id="패스_39426" data-name="패스 39426" d="M21.695,38.16l76.721.2V94.479H21.695Z" transform="translate(0 -7.092)" fill="#fec211"/>
          <rect id="사각형_21510" data-name="사각형 21510" width="123.298" height="5.509" transform="translate(20.698 87.387)" fill="#cecdcd"/>
          <g id="사각형_21597" data-name="사각형 21597" transform="translate(21 29.676)" fill="none" stroke="#12154b" stroke-width="3">
            <rect width="79" height="59" rx="1" stroke="none"/>
            <rect x="1.5" y="1.5" width="76" height="56" rx="0.5" fill="none"/>
          </g>
          <path id="패스_39430" data-name="패스 39430" d="M19.929,92.9V87.387a.768.768,0,0,1,.767-.769H144a.769.769,0,0,1,.769.769V92.9a.769.769,0,0,1-.769.769H20.7a.768.768,0,0,1-.769-.767Zm123.3-4.74H21.463v3.971h121.76Z" fill="#12154b"/>
          <path id="패스_39431" data-name="패스 39431" d="M19.929,92.9V87.387a.768.768,0,0,1,.767-.769H144a.769.769,0,0,1,.769.769V92.9a.769.769,0,0,1-.769.769H20.7a.768.768,0,0,1-.769-.767Zm123.3-4.74H21.463v3.971h121.76Z" fill="none" stroke="#12154b" stroke-miterlimit="10" stroke-width="1"/>
          <path id="패스_39432" data-name="패스 39432" d="M98.35,44.9h25.9l10.6,22.492h4.011s3.7,0,3.7,4.9v15.1H98.35Z" fill="#7582f0"/>
          <path id="패스_39433" data-name="패스 39433" d="M98.35,44.9h25.9l10.6,22.492h4.011s3.7,0,3.7,4.9v15.1H98.35Z" fill="none" stroke="#141a37" stroke-miterlimit="10" stroke-width="1"/>
          <path id="패스_39434" data-name="패스 39434" d="M97.581,87.387V44.9a.769.769,0,0,1,.769-.769h25.9a.769.769,0,0,1,.7.441l10.4,22.05h3.523c.045,0,4.469.065,4.469,5.667v15.1a.769.769,0,0,1-.769.769H98.35a.769.769,0,0,1-.769-.769m44.212-15.1c0-3.965-2.637-4.123-2.931-4.129h-4.01a.768.768,0,0,1-.7-.441l-10.4-22.051H99.112V86.618h42.674Z" fill="#12154b" stroke="#12154b" stroke-width="1"/>
          <path id="패스_39435" data-name="패스 39435" d="M97.581,87.387V44.9a.769.769,0,0,1,.769-.769h25.9a.769.769,0,0,1,.7.441l10.4,22.05h3.523c.045,0,4.469.065,4.469,5.667v15.1a.769.769,0,0,1-.769.769H98.35A.769.769,0,0,1,97.581,87.387Zm44.212-15.1c0-3.965-2.637-4.123-2.931-4.129h-4.01a.768.768,0,0,1-.7-.441l-10.4-22.051H99.112V86.618h42.674Z" fill="none" stroke="#12154b" stroke-miterlimit="10" stroke-width="1"/>
          <path id="패스_39436" data-name="패스 39436" d="M103.677,67.49h26.03l-9.058-17.812H103.677Z" fill="#e8eeff"/>
          <path id="패스_39437" data-name="패스 39437" d="M103.677,67.49h26.03l-9.058-17.812H103.677Z" fill="none" stroke="#141a37" stroke-miterlimit="10" stroke-width="1"/>
          <path id="패스_39438" data-name="패스 39438" d="M102.908,67.49V49.678a.769.769,0,0,1,.769-.769H120.65a.769.769,0,0,1,.685.421l9.059,17.812a.768.768,0,0,1-.686,1.117H103.677a.769.769,0,0,1-.769-.769m17.271-17.043H104.446V66.721h24.009Z" fill="#12154b"/>
          <path id="패스_39439" data-name="패스 39439" d="M102.908,67.49V49.678a.769.769,0,0,1,.769-.769H120.65a.769.769,0,0,1,.685.421l9.059,17.812a.768.768,0,0,1-.686,1.117H103.677A.769.769,0,0,1,102.908,67.49Zm17.271-17.043H104.446V66.721h24.009Z" fill="none" stroke="#12154b" stroke-miterlimit="10" stroke-width="1"/>
          <path id="패스_39440" data-name="패스 39440" d="M134.343,92.891a11.511,11.511,0,1,1-11.515-11.507h.006a11.515,11.515,0,0,1,11.509,11.507" fill="#323232"/>
          <path id="패스_39441" data-name="패스 39441" d="M134.343,92.891a11.511,11.511,0,1,1-11.515-11.507h.006A11.515,11.515,0,0,1,134.343,92.891Z" fill="none" stroke="#141a37" stroke-miterlimit="10" stroke-width="1"/>
          <path id="패스_39442" data-name="패스 39442" d="M110.553,92.891a12.279,12.279,0,1,1,12.281,12.285,12.279,12.279,0,0,1-12.281-12.285m1.538,0a10.741,10.741,0,1,0,10.744-10.738h0a10.756,10.756,0,0,0-10.743,10.738" fill="#12154b"/>
          <path id="패스_39443" data-name="패스 39443" d="M110.553,92.891a12.279,12.279,0,1,1,12.281,12.285A12.279,12.279,0,0,1,110.553,92.891Zm1.538,0a10.741,10.741,0,1,0,10.744-10.738h0A10.756,10.756,0,0,0,112.091,92.891Z" fill="none" stroke="#12154b" stroke-miterlimit="10" stroke-width="1"/>
          <path id="패스_39444" data-name="패스 39444" d="M117.439,92.752a5.394,5.394,0,1,0,0-.012Z" fill="#fff"/>
          <path id="패스_39445" data-name="패스 39445" d="M117.439,92.752a5.394,5.394,0,1,0,0-.012Z" fill="none" stroke="#141a37" stroke-miterlimit="10" stroke-width="1"/>
          <path id="패스_39446" data-name="패스 39446" d="M116.67,92.752a6.164,6.164,0,1,1,6.165,6.163h0a6.171,6.171,0,0,1-6.164-6.163m1.538,0a4.626,4.626,0,1,0,4.626-4.626,4.626,4.626,0,0,0-4.626,4.626" fill="#12154b"/>
          <path id="패스_39447" data-name="패스 39447" d="M116.67,92.752a6.164,6.164,0,1,1,6.165,6.163h0A6.171,6.171,0,0,1,116.67,92.752Zm1.538,0a4.626,4.626,0,1,0,4.626-4.626,4.626,4.626,0,0,0-4.626,4.626Z" fill="none" stroke="#12154b" stroke-miterlimit="10" stroke-width="1"/>
          <path id="패스_39448" data-name="패스 39448" d="M53.62,92.891A11.51,11.51,0,1,1,42.107,81.384h0A11.516,11.516,0,0,1,53.62,92.891" fill="#323232"/>
          <path id="패스_39449" data-name="패스 39449" d="M53.62,92.891A11.51,11.51,0,1,1,42.107,81.384h0A11.516,11.516,0,0,1,53.62,92.891Z" fill="none" stroke="#141a37" stroke-miterlimit="10" stroke-width="1"/>
          <path id="패스_39450" data-name="패스 39450" d="M29.832,92.891A12.279,12.279,0,1,1,42.11,105.176,12.279,12.279,0,0,1,29.832,92.891m1.538,0A10.741,10.741,0,1,0,42.114,82.153h0A10.755,10.755,0,0,0,31.37,92.891" fill="#12154b"/>
          <path id="패스_39451" data-name="패스 39451" d="M29.832,92.891A12.279,12.279,0,1,1,42.11,105.176,12.279,12.279,0,0,1,29.832,92.891Zm1.538,0A10.741,10.741,0,1,0,42.114,82.153h0A10.755,10.755,0,0,0,31.37,92.891Z" fill="none" stroke="#12154b" stroke-miterlimit="10" stroke-width="1"/>
          <path id="패스_39452" data-name="패스 39452" d="M36.72,92.752a5.4,5.4,0,1,0,0-.007v.007" fill="#fff"/>
          <path id="패스_39453" data-name="패스 39453" d="M36.72,92.752a5.4,5.4,0,1,0,0-.007Z" fill="none" stroke="#141a37" stroke-miterlimit="10" stroke-width="1"/>
          <path id="패스_39454" data-name="패스 39454" d="M35.951,92.752a6.163,6.163,0,1,1,6.163,6.163h0a6.169,6.169,0,0,1-6.162-6.163m1.538,0a4.625,4.625,0,1,0,4.624-4.626,4.625,4.625,0,0,0-4.624,4.626" fill="#12154b"/>
          <path id="패스_39455" data-name="패스 39455" d="M35.951,92.752a6.163,6.163,0,1,1,6.163,6.163h0A6.169,6.169,0,0,1,35.951,92.752Zm1.538,0a4.625,4.625,0,1,0,4.624-4.626,4.625,4.625,0,0,0-4.624,4.626Z" fill="none" stroke="#12154b" stroke-miterlimit="10" stroke-width="1"/>
          <path id="패스_39456" data-name="패스 39456" d="M105.443,72.883a1.042,1.042,0,0,0,1.04,1.04H111.2a1.04,1.04,0,1,0,.064-2.079h-4.779a1.042,1.042,0,0,0-1.04,1.04" fill="#cecdcd"/>
          <path id="패스_39457" data-name="패스 39457" d="M105.443,72.883a1.042,1.042,0,0,0,1.04,1.04H111.2a1.04,1.04,0,1,0,.064-2.079h-4.779A1.041,1.041,0,0,0,105.443,72.883Z" fill="none" stroke="#141a37" stroke-miterlimit="10" stroke-width="1"/>
          <path id="패스_39458" data-name="패스 39458" d="M104.673,72.883a1.811,1.811,0,0,1,1.81-1.809H111.2a1.809,1.809,0,0,1,0,3.617h-4.715a1.811,1.811,0,0,1-1.81-1.808m1.81-.271a.271.271,0,1,0,0,.541H111.2a.271.271,0,0,0,0-.541Z" fill="#12154b"/>
          <path id="패스_39459" data-name="패스 39459" d="M104.673,72.883a1.811,1.811,0,0,1,1.81-1.809H111.2a1.809,1.809,0,0,1,0,3.617h-4.715A1.811,1.811,0,0,1,104.673,72.883Zm1.81-.271a.271.271,0,1,0,0,.541H111.2a.271.271,0,0,0,0-.541Z" fill="none" stroke="#12154b" stroke-miterlimit="10" stroke-width="1"/>
          <g id="패스_39496" data-name="패스 39496" transform="translate(17 15.657)" fill="none">
            <path d="M1,0H85a1.074,1.074,0,0,1,1,1.135v14.75a1.074,1.074,0,0,1-1,1.135H1a1.074,1.074,0,0,1-1-1.135V1.135A1.074,1.074,0,0,1,1,0Z" stroke="none"/>
            <path d="M 3 3.000001907348633 L 3 14.01904106140137 L 83 14.01904106140137 L 83 3.000001907348633 L 3 3.000001907348633 M 1 1.9073486328125e-06 L 85 1.9073486328125e-06 C 85.55227661132812 1.9073486328125e-06 86 0.5079746246337891 86 1.134601593017578 L 86 15.88444137573242 C 86 16.51106834411621 85.55227661132812 17.01904106140137 85 17.01904106140137 L 1 17.01904106140137 C 0.447723388671875 17.01904106140137 0 16.51106834411621 0 15.88444137573242 L 0 1.134601593017578 C 0 0.5079746246337891 0.447723388671875 1.9073486328125e-06 1 1.9073486328125e-06 Z" stroke="none" fill="#12154b"/>
          </g>
        </g>
      </g>
      <g id="그룹_115255" data-name="그룹 115255">
        <g id="그룹_115254" data-name="그룹 115254" transform="translate(-1.41)" clip-path="url(#clip-path-2)">
          <path id="패스_39471" data-name="패스 39471" d="M18.383,88.053h-3.32a4.1,4.1,0,0,0,.318-1.508,4.155,4.155,0,0,0-8.3-.31,4.163,4.163,0,1,0,0,7.555,4.155,4.155,0,0,0,8.3-.31,4.057,4.057,0,0,0-.318-1.508h3.32Z" transform="translate(0.09 0.09)" fill="#fff"/>
          <path id="패스_39472" data-name="패스 39472" d="M18.383,88.053h-3.32a4.1,4.1,0,0,0,.318-1.508,4.155,4.155,0,0,0-8.3-.31,4.163,4.163,0,1,0,0,7.555,4.155,4.155,0,0,0,8.3-.31,4.057,4.057,0,0,0-.318-1.508h3.32Z" transform="translate(0.09 0.09)" fill="none" stroke="#12154b" stroke-miterlimit="10" stroke-width="2"/>
        </g>
      </g>
      <g id="그룹_115037" data-name="그룹 115037" transform="translate(7.536 -9.141)">
        <g id="그룹_115036" data-name="그룹 115036" transform="translate(36.915 54.17)" clip-path="url(#clip-path-3)">
          <path id="패스_39171" data-name="패스 39171" d="M56.042,62.272c0,6.233,3.418,11.286,7.633,11.286s7.633-5.053,7.633-11.286S67.89,50.986,63.675,50.986s-7.633,5.053-7.633,11.286" transform="translate(-41.929 -49.646)" fill="#fff"/>
          <path id="패스_39184" data-name="패스 39184" d="M7.633,0c4.216,0,7.633,5.053,7.633,11.286S11.849,22.572,7.633,22.572,0,17.519,0,11.286,3.417,0,7.633,0Z" transform="translate(14.113 1.34)" fill="none" stroke="#12154b" stroke-linecap="round" stroke-width="1.5"/>
          <path id="패스_39172" data-name="패스 39172" d="M60.883,62.993l4.635,2.661c-.612,3.9-2.5,6.594-4.635,6.594-2.655,0-4.839-4.178-4.839-9.256s2.185-9.256,4.839-9.256c2.171,0,4.087,2.791,4.665,6.791Z" transform="translate(-41.93 -50.367)" fill="#12154b"/>
          <path id="패스_39173" data-name="패스 39173" d="M60.883,62.993l4.635,2.661c-.612,3.9-2.5,6.594-4.635,6.594-2.655,0-4.839-4.178-4.839-9.256s2.185-9.256,4.839-9.256c2.171,0,4.087,2.791,4.665,6.791Z" transform="translate(-41.93 -50.367)" fill="none" stroke="#12154b" stroke-linecap="round" stroke-linejoin="round" stroke-width="1"/>
          <path id="패스_39174" data-name="패스 39174" d="M38.726,62.272c0,6.233,3.418,11.286,7.633,11.286s7.633-5.053,7.633-11.286S50.575,50.986,46.36,50.986s-7.634,5.053-7.634,11.286" transform="translate(-37.39 -49.646)" fill="#fff"/>
          <path id="패스_39175" data-name="패스 39175" d="M38.726,62.272c0,6.233,3.418,11.286,7.633,11.286s7.633-5.053,7.633-11.286S50.575,50.986,46.36,50.986,38.726,56.039,38.726,62.272Z" transform="translate(-37.39 -49.646)" fill="none" stroke="#12154b" stroke-linecap="round" stroke-linejoin="round" stroke-width="1.5"/>
          <path id="패스_39176" data-name="패스 39176" d="M43.567,62.993,48.2,65.655c-.612,3.9-2.5,6.594-4.635,6.594-2.655,0-4.839-4.178-4.839-9.256s2.184-9.256,4.839-9.256c2.171,0,4.087,2.791,4.665,6.791Z" transform="translate(-37.39 -50.367)" fill="#12154b"/>
          <path id="패스_39177" data-name="패스 39177" d="M43.567,62.993,48.2,65.655c-.612,3.9-2.5,6.594-4.635,6.594-2.655,0-4.839-4.178-4.839-9.256s2.184-9.256,4.839-9.256c2.171,0,4.087,2.791,4.665,6.791Z" transform="translate(-37.39 -50.367)" fill="none" stroke="#12154b" stroke-linecap="round" stroke-linejoin="round" stroke-width="1"/>
          <path id="패스_39181" data-name="패스 39181" d="M52.4,79.1c0,1.772,1.761,3.208,3.931,3.208s3.931-1.437,3.931-3.208-1.761-3.208-3.931-3.208S52.4,77.325,52.4,79.1" transform="translate(-40.975 -56.174)" fill="#d36a83"/>
          <path id="패스_39182" data-name="패스 39182" d="M56.333,75.651c-2.171,0-3.931,1.437-3.931,3.208s1.761,3.207,3.931,3.207,3.931-1.437,3.931-3.207S58.5,75.651,56.333,75.651Z" transform="translate(-40.975 -56.112)" fill="none" stroke="#12154b" stroke-linecap="round" stroke-width="1.5"/>
        </g>
      </g>
      <g id="그룹_115366" data-name="그룹 115366" transform="translate(35 33.676)">
        <g id="그룹_115365" data-name="그룹 115365" clip-path="url(#clip-path-4)">
          <g id="그룹_115262" data-name="그룹 115262" style="isolation: isolate">
            <g id="그룹_115261" data-name="그룹 115261">
              <g id="그룹_115260" data-name="그룹 115260" clip-path="url(#clip-path-5)">
                <g id="그룹_115259" data-name="그룹 115259" style="isolation: isolate">
                  <g id="그룹_115258" data-name="그룹 115258">
                    <g id="그룹_115257" data-name="그룹 115257" clip-path="url(#clip-path-5)">
                      <text id="H" transform="translate(41.114 15.517) rotate(69.028)" fill="#12154b" font-size="8.002" font-family="SegoeUI, Segoe UI"><tspan x="0" y="0">H</tspan></text>
                      <path id="패스_39473" data-name="패스 39473" d="M42.7,19.444a.684.684,0,0,0-.441.392.717.717,0,0,0,.007.51.749.749,0,0,0,.336.387.672.672,0,0,0,.593,0L47.5,19.083a.655.655,0,0,0,.43-.4.735.735,0,0,0-.008-.513.725.725,0,0,0-.332-.385.669.669,0,0,0-.585,0l-1.584.608-.8-2.093,1.584-.608a.83.83,0,0,0,.279-.166.608.608,0,0,0,.2-.475.728.728,0,0,0-.049-.251.752.752,0,0,0-.338-.393.667.667,0,0,0-.586-.007L41.4,16.059a.67.67,0,0,0-.437.4.759.759,0,0,0,.009.519.79.79,0,0,0,.132.22.647.647,0,0,0,.2.158.622.622,0,0,0,.264.062.863.863,0,0,0,.325-.066l1.794-.687.8,2.093Z" fill="#12154b" stroke="#12154b" stroke-miterlimit="10" stroke-width="0.25"/>
                    </g>
                  </g>
                </g>
              </g>
            </g>
          </g>
          <g id="그룹_115268" data-name="그룹 115268" style="isolation: isolate">
            <g id="그룹_115267" data-name="그룹 115267">
              <g id="그룹_115266" data-name="그룹 115266" clip-path="url(#clip-path-7)">
                <g id="그룹_115265" data-name="그룹 115265" style="isolation: isolate">
                  <g id="그룹_115264" data-name="그룹 115264">
                    <g id="그룹_115263" data-name="그룹 115263" clip-path="url(#clip-path-7)">
                      <text id="O" transform="translate(43.39 21.701) rotate(88.74)" fill="#12154b" font-size="7.002" font-family="SegoeUI, Segoe UI"><tspan x="0" y="0">O</tspan></text>
                      <path id="패스_39474" data-name="패스 39474" d="M45.52,25.257q-.5.021-.994,0a.791.791,0,0,1-.6-.27,1.074,1.074,0,0,1-.214-.678,1.152,1.152,0,0,1,.173-.708.746.746,0,0,1,.6-.276q1.006-.042,2.023-.044a.754.754,0,0,1,.607.249,1.112,1.112,0,0,1,.212.7,1.131,1.131,0,0,1-.178.7.731.731,0,0,1-.592.287Zm-2.569-.108a2.023,2.023,0,0,0,.309.666,1.444,1.444,0,0,0,.524.443,1.653,1.653,0,0,0,.761.159c.317,0,.651,0,1,0s.693-.019,1.029-.04a1.706,1.706,0,0,0,.748-.209,1.5,1.5,0,0,0,.5-.467,1.969,1.969,0,0,0,.279-.668,3.357,3.357,0,0,0,.077-.82,3.861,3.861,0,0,0-.106-.842,1.868,1.868,0,0,0-.3-.666,1.433,1.433,0,0,0-.525-.437,1.7,1.7,0,0,0-.766-.154c-.35,0-.693,0-1.026.008s-.668.02-1,.036a1.74,1.74,0,0,0-.766.185,1.382,1.382,0,0,0-.505.457,1.842,1.842,0,0,0-.272.677,3.845,3.845,0,0,0-.069.853A3.466,3.466,0,0,0,42.951,25.149Z" fill="#12154b" stroke="#12154b" stroke-miterlimit="10" stroke-width="0.25"/>
                    </g>
                  </g>
                </g>
              </g>
            </g>
          </g>
          <g id="그룹_115274" data-name="그룹 115274" style="isolation: isolate">
            <g id="그룹_115273" data-name="그룹 115273">
              <g id="그룹_115272" data-name="그룹 115272" clip-path="url(#clip-path-9)">
                <g id="그룹_115271" data-name="그룹 115271" style="isolation: isolate">
                  <g id="그룹_115270" data-name="그룹 115270">
                    <g id="그룹_115269" data-name="그룹 115269" clip-path="url(#clip-path-9)">
                      <text id="T" transform="translate(43.491 27.575) rotate(105.662)" fill="#12154b" font-size="8.001" font-family="SegoeUI, Segoe UI"><tspan x="0" y="0">T</tspan></text>
                      <path id="패스_39475" data-name="패스 39475" d="M47.227,30.674,42.92,29.466a.612.612,0,0,0-.282-.017.56.56,0,0,0-.227.1.7.7,0,0,0-.169.185.913.913,0,0,0-.1.241.9.9,0,0,0-.034.253.65.65,0,0,0,.05.242.574.574,0,0,0,.141.2.587.587,0,0,0,.25.133l4.307,1.208L46.5,33.278a.869.869,0,0,0-.039.3.54.54,0,0,0,.055.207.343.343,0,0,0,.115.132.543.543,0,0,0,.538.039.617.617,0,0,0,.271-.414l1.089-3.883a.843.843,0,0,0,.037-.3.506.506,0,0,0-.057-.207.375.375,0,0,0-.121-.134.516.516,0,0,0-.158-.073.489.489,0,0,0-.371.037.615.615,0,0,0-.271.414Z" fill="#12154b" stroke="#12154b" stroke-miterlimit="10" stroke-width="0.25"/>
                    </g>
                  </g>
                </g>
              </g>
            </g>
          </g>
          <g id="그룹_115280" data-name="그룹 115280" style="isolation: isolate">
            <g id="그룹_115279" data-name="그룹 115279">
              <g id="그룹_115278" data-name="그룹 115278" clip-path="url(#clip-path-11)">
                <g id="그룹_115277" data-name="그룹 115277" style="isolation: isolate">
                  <g id="그룹_115276" data-name="그룹 115276">
                    <g id="그룹_115275" data-name="그룹 115275" clip-path="url(#clip-path-11)">
                      <text id="T-2" data-name="T" transform="translate(41.886 33.07) rotate(123.293)" fill="#12154b" font-size="8.001" font-family="SegoeUI, Segoe UI"><tspan x="0" y="0">T</tspan></text>
                      <path id="패스_39476" data-name="패스 39476" d="M44.506,37.155,40.768,34.7a.6.6,0,0,0-.265-.1.571.571,0,0,0-.247.029.7.7,0,0,0-.218.126.94.94,0,0,0-.172.2.916.916,0,0,0-.109.23.67.67,0,0,0-.026.246.571.571,0,0,0,.074.236.6.6,0,0,0,.2.2l3.738,2.456-.72,1.1a.853.853,0,0,0-.128.276.544.544,0,0,0-.011.213.351.351,0,0,0,.071.161.491.491,0,0,0,.128.117.5.5,0,0,0,.373.082.615.615,0,0,0,.383-.313l2.213-3.37a.864.864,0,0,0,.129-.275.527.527,0,0,0,.006-.215.377.377,0,0,0-.074-.165.568.568,0,0,0-.128-.117.494.494,0,0,0-.366-.077.615.615,0,0,0-.383.313Z" fill="#12154b" stroke="#12154b" stroke-miterlimit="10" stroke-width="0.25"/>
                    </g>
                  </g>
                </g>
              </g>
            </g>
          </g>
          <g id="그룹_115286" data-name="그룹 115286" style="isolation: isolate">
            <g id="그룹_115285" data-name="그룹 115285">
              <g id="그룹_115284" data-name="그룹 115284" clip-path="url(#clip-path-13)">
                <g id="그룹_115283" data-name="그룹 115283" style="isolation: isolate">
                  <g id="그룹_115282" data-name="그룹 115282">
                    <g id="그룹_115281" data-name="그룹 115281" clip-path="url(#clip-path-13)">
                      <text id="R" transform="translate(38.693 37.823) rotate(140.723)" fill="#12154b" font-size="7.999" font-family="SegoeUI, Segoe UI"><tspan x="0" y="0">R</tspan></text>
                      <path id="패스_39477" data-name="패스 39477" d="M39.3,43.046a1.3,1.3,0,0,1-.671.322.7.7,0,0,1-.608-.32.686.686,0,0,1-.185-.655,1.314,1.314,0,0,1,.446-.592l.663-.542L39.959,42.5Zm-1.458-2.125-2.392-.865a.7.7,0,0,0-.24-.04.648.648,0,0,0-.24.04.638.638,0,0,0-.216.141.7.7,0,0,0-.162.251.523.523,0,0,0,.025.486.7.7,0,0,0,.4.3l1.884.661a1.84,1.84,0,0,0-.219.478,1.82,1.82,0,0,0-.075.527,1.615,1.615,0,0,0,.1.539,1.819,1.819,0,0,0,.311.53,1.658,1.658,0,0,0,.672.526,1.482,1.482,0,0,0,.728.087,2.1,2.1,0,0,0,.749-.252,4.721,4.721,0,0,0,.736-.5l1.386-1.134a.5.5,0,0,0,.192-.3.424.424,0,0,0-.115-.349L38.2,38.177A.572.572,0,0,0,37.974,38a.581.581,0,0,0-.248-.043.68.68,0,0,0-.245.054.874.874,0,0,0-.212.126.845.845,0,0,0-.162.18.647.647,0,0,0-.1.224.631.631,0,0,0,0,.249.565.565,0,0,0,.125.254l1.2,1.468Z" fill="#12154b" stroke="#12154b" stroke-miterlimit="10" stroke-width="0.25"/>
                    </g>
                  </g>
                </g>
              </g>
            </g>
          </g>
          <g id="그룹_115292" data-name="그룹 115292" style="isolation: isolate">
            <g id="그룹_115291" data-name="그룹 115291">
              <g id="그룹_115290" data-name="그룹 115290" clip-path="url(#clip-path-15)">
                <g id="그룹_115289" data-name="그룹 115289" style="isolation: isolate">
                  <g id="그룹_115288" data-name="그룹 115288">
                    <g id="그룹_115287" data-name="그룹 115287" clip-path="url(#clip-path-15)">
                      <text id="A" transform="matrix(-0.93, 0.368, -0.368, -0.93, 34.2, 41.425)" fill="#12154b" font-size="8" font-family="SegoeUI, Segoe UI"><tspan x="0" y="0">A</tspan></text>
                      <path id="패스_39478" data-name="패스 39478" d="M31.8,44.327l1.2-.474.1,2.015Zm1.228-3.068a.507.507,0,0,0-.151.378l.061,1.2-1.8.713-.746-.883a.564.564,0,0,0-.389-.215.685.685,0,0,0-.48.171.591.591,0,0,0-.246.357.52.52,0,0,0,.158.419l3.426,3.935a.714.714,0,0,0,.336.2.852.852,0,0,0,.56-.063.839.839,0,0,0,.448-.336.723.723,0,0,0,.106-.373l-.192-5.2a.638.638,0,0,0-.043-.2.566.566,0,0,0-.118-.177.494.494,0,0,0-.2-.121.72.72,0,0,0-.731.2Z" fill="#12154b" stroke="#12154b" stroke-miterlimit="10" stroke-width="0.25"/>
                    </g>
                  </g>
                </g>
              </g>
            </g>
          </g>
          <g id="그룹_115298" data-name="그룹 115298" style="isolation: isolate">
            <g id="그룹_115297" data-name="그룹 115297">
              <g id="그룹_115296" data-name="그룹 115296" clip-path="url(#clip-path-17)">
                <g id="그룹_115295" data-name="그룹 115295" style="isolation: isolate">
                  <g id="그룹_115294" data-name="그룹 115294">
                    <g id="그룹_115293" data-name="그룹 115293" clip-path="url(#clip-path-17)">
                      <text id="C" transform="matrix(-0.997, 0.076, -0.076, -0.997, 28.903, 43.464)" fill="#12154b" font-size="8" font-family="SegoeUI, Segoe UI"><tspan x="0" y="0">C</tspan></text>
                      <path id="패스_39479" data-name="패스 39479" d="M24.2,47.777a1.138,1.138,0,0,0,.208.574,1.541,1.541,0,0,0,.494.443,2.416,2.416,0,0,0,.732.27,3.363,3.363,0,0,0,1.736-.12,2.123,2.123,0,0,0,.681-.389,1.679,1.679,0,0,0,.445-.623,2.044,2.044,0,0,0,.134-.878q-.054-1.134-.179-2.352a2.09,2.09,0,0,0-.263-.862,1.614,1.614,0,0,0-.526-.55,1.937,1.937,0,0,0-.735-.274,3.679,3.679,0,0,0-.885-.032,3.089,3.089,0,0,0-.888.19,2.288,2.288,0,0,0-.665.392,1.545,1.545,0,0,0-.4.538,1.275,1.275,0,0,0-.109.625.555.555,0,0,0,.67.582.716.716,0,0,0,.412-.167.445.445,0,0,0,.182-.35.836.836,0,0,1,.209-.586,1.035,1.035,0,0,1,.668-.235.985.985,0,0,1,.7.162.952.952,0,0,1,.3.668c.039.382.075.764.106,1.143s.056.776.071,1.186a.847.847,0,0,1-.863,1,1.1,1.1,0,0,1-.7-.128.678.678,0,0,1-.3-.462.45.45,0,0,0-.216-.324.71.71,0,0,0-.442-.1A.548.548,0,0,0,24.2,47.777Z" fill="#12154b" stroke="#12154b" stroke-miterlimit="10" stroke-width="0.25"/>
                    </g>
                  </g>
                </g>
              </g>
            </g>
          </g>
          <g id="그룹_115304" data-name="그룹 115304" style="isolation: isolate">
            <g id="그룹_115303" data-name="그룹 115303">
              <g id="그룹_115302" data-name="그룹 115302" clip-path="url(#clip-path-19)">
                <g id="그룹_115301" data-name="그룹 115301" style="isolation: isolate">
                  <g id="그룹_115300" data-name="그룹 115300">
                    <g id="그룹_115299" data-name="그룹 115299" clip-path="url(#clip-path-19)">
                      <text id="K" transform="matrix(-0.973, -0.229, 0.229, -0.973, 23.273, 43.863)" fill="#12154b" font-size="7" font-family="SegoeUI, Segoe UI"><tspan x="0" y="0">K</tspan></text>
                      <path id="패스_39480" data-name="패스 39480" d="M22.763,43.708a.518.518,0,0,0,0-.247.472.472,0,0,0-.1-.195.587.587,0,0,0-.172-.143.9.9,0,0,0-.217-.083.706.706,0,0,0-.424.029.466.466,0,0,0-.272.362l-.4,1.681L19.6,42.56a.621.621,0,0,0-.325-.267.587.587,0,0,0-.429.017.436.436,0,0,0-.274.328.628.628,0,0,0,.1.482L20.112,45.4l-2.08,1.23a.474.474,0,0,0-.149.691.513.513,0,0,0,.152.132.649.649,0,0,0,.2.076.673.673,0,0,0,.224.01.521.521,0,0,0,.208-.068l2.29-1.389-.345,1.465a.456.456,0,0,0,.086.429.664.664,0,0,0,.364.224.913.913,0,0,0,.232.022.579.579,0,0,0,.217-.049.509.509,0,0,0,.174-.132.5.5,0,0,0,.1-.216Z" fill="#12154b" stroke="#12154b" stroke-miterlimit="10" stroke-width="0.25"/>
                    </g>
                  </g>
                </g>
              </g>
            </g>
          </g>
          <g id="그룹_115310" data-name="그룹 115310" style="isolation: isolate">
            <g id="그룹_115309" data-name="그룹 115309">
              <g id="그룹_115308" data-name="그룹 115308" clip-path="url(#clip-path-21)">
                <g id="그룹_115307" data-name="그룹 115307" style="isolation: isolate">
                  <g id="그룹_115306" data-name="그룹 115306">
                    <g id="그룹_115305" data-name="그룹 115305" clip-path="url(#clip-path-21)">
                      <text id="S" transform="translate(17.454 42.415) rotate(-148.535)" fill="#12154b" font-size="8" font-family="SegoeUI, Segoe UI"><tspan x="0" y="0">S</tspan></text>
                      <path id="패스_39481" data-name="패스 39481" d="M15.482,41.592a1.954,1.954,0,0,1,.235.243,1.481,1.481,0,0,1,.161.243c.042.083.086.172.127.266a.674.674,0,0,0,.124.206.789.789,0,0,0,.187.162.654.654,0,0,0,.2.083.586.586,0,0,0,.217.005.492.492,0,0,0,.369-.29.516.516,0,0,0,.051-.175.411.411,0,0,0-.023-.192,2.111,2.111,0,0,0-.455-.8,4.15,4.15,0,0,0-1.054-.871,4.273,4.273,0,0,0-.909-.429,2.4,2.4,0,0,0-.845-.129,1.569,1.569,0,0,0-.737.216,1.7,1.7,0,0,0-.579.592,1.3,1.3,0,0,0-.2.6,1.609,1.609,0,0,0,.071.588,2.408,2.408,0,0,0,.264.565,6.333,6.333,0,0,0,.375.53l.3.359c.113.131.22.262.319.392a2.246,2.246,0,0,1,.239.376,1.037,1.037,0,0,1,.108.352.512.512,0,0,1-.079.327.473.473,0,0,1-.509.227,1.975,1.975,0,0,1-.759-.3,2.424,2.424,0,0,1-.452-.351q-.191-.192-.393-.429a.852.852,0,0,0-.2-.187.764.764,0,0,0-.249-.115.448.448,0,0,0-.258.016.5.5,0,0,0-.239.206.693.693,0,0,0-.072.185.405.405,0,0,0,.016.23.982.982,0,0,0,.2.327,3.694,3.694,0,0,0,.34.349,4.707,4.707,0,0,0,.4.328c.144.1.276.192.4.267a4.892,4.892,0,0,0,.791.391,2.82,2.82,0,0,0,.831.193,1.676,1.676,0,0,0,.768-.121,1.317,1.317,0,0,0,.614-.557,1.138,1.138,0,0,0,.182-.676,1.844,1.844,0,0,0-.177-.676,3.654,3.654,0,0,0-.4-.66c-.164-.216-.327-.423-.487-.621q-.156-.189-.294-.377a1.97,1.97,0,0,1-.222-.375.984.984,0,0,1-.088-.368.642.642,0,0,1,.1-.359.569.569,0,0,1,.241-.227.693.693,0,0,1,.321-.066,1.156,1.156,0,0,1,.379.08,2.73,2.73,0,0,1,.751.451Z" fill="#12154b" stroke="#12154b" stroke-miterlimit="10" stroke-width="0.25"/>
                    </g>
                  </g>
                </g>
              </g>
            </g>
          </g>
          <g id="그룹_115316" data-name="그룹 115316" style="isolation: isolate">
            <g id="그룹_115315" data-name="그룹 115315">
              <g id="그룹_115314" data-name="그룹 115314" clip-path="url(#clip-path-23)">
                <g id="그룹_115313" data-name="그룹 115313" style="isolation: isolate">
                  <g id="그룹_115312" data-name="그룹 115312">
                    <g id="그룹_115311" data-name="그룹 115311" clip-path="url(#clip-path-23)">
                      <text id="H-2" data-name="H" transform="matrix(-0.374, -0.927, 0.927, -0.374, 8.726, 34.948)" fill="#12154b" font-size="8" font-family="SegoeUI, Segoe UI"><tspan x="0" y="0">H</tspan></text>
                      <path id="패스_39482" data-name="패스 39482" d="M7.076,31.05a.69.69,0,0,0,.436-.4.731.731,0,0,0-.017-.511.743.743,0,0,0-.343-.379.671.671,0,0,0-.594.006L2.277,31.493a.658.658,0,0,0-.423.4.743.743,0,0,0,.016.51.735.735,0,0,0,.339.381.672.672,0,0,0,.586-.011l1.573-.635.838,2.078-1.573.634a.84.84,0,0,0-.276.172.63.63,0,0,0-.151.224.642.642,0,0,0-.04.254.721.721,0,0,0,.054.249.75.75,0,0,0,.345.388.661.661,0,0,0,.585,0l4.281-1.727A.668.668,0,0,0,8.863,34a.744.744,0,0,0-.019-.518.758.758,0,0,0-.135-.217.647.647,0,0,0-.2-.155.628.628,0,0,0-.265-.057.854.854,0,0,0-.325.071l-1.781.717L5.3,31.769Z" fill="#12154b" stroke="#12154b" stroke-miterlimit="10" stroke-width="0.25"/>
                    </g>
                  </g>
                </g>
              </g>
            </g>
          </g>
          <g id="그룹_115322" data-name="그룹 115322" style="isolation: isolate">
            <g id="그룹_115321" data-name="그룹 115321">
              <g id="그룹_115320" data-name="그룹 115320" clip-path="url(#clip-path-25)">
                <g id="그룹_115319" data-name="그룹 115319" style="isolation: isolate">
                  <g id="그룹_115318" data-name="그룹 115318">
                    <g id="그룹_115317" data-name="그룹 115317" clip-path="url(#clip-path-25)">
                      <text id="O-2" data-name="O" transform="translate(6.337 28.764) rotate(-92.086)" fill="#12154b" font-size="7" font-family="SegoeUI, Segoe UI"><tspan x="0" y="0">O</tspan></text>
                      <path id="패스_39483" data-name="패스 39483" d="M4.157,25.239c.331-.02.662-.024.995-.012a.783.783,0,0,1,.607.262,1.074,1.074,0,0,1,.225.674,1.137,1.137,0,0,1-.164.709.74.74,0,0,1-.591.286q-1.008.057-2.023.073a.754.754,0,0,1-.611-.24,1.117,1.117,0,0,1-.221-.7,1.152,1.152,0,0,1,.166-.7.739.739,0,0,1,.589-.3C3.484,25.278,3.827,25.257,4.157,25.239Zm2.57.07a2.015,2.015,0,0,0-.318-.66,1.44,1.44,0,0,0-.532-.436,1.624,1.624,0,0,0-.76-.147c-.319,0-.653.009-1,.018s-.693.029-1.028.055a1.688,1.688,0,0,0-.744.221,1.492,1.492,0,0,0-.495.472,1.984,1.984,0,0,0-.27.672,3.4,3.4,0,0,0-.065.823,3.866,3.866,0,0,0,.118.838,1.879,1.879,0,0,0,.312.662,1.409,1.409,0,0,0,.531.428,1.659,1.659,0,0,0,.768.144c.35,0,.693-.011,1.025-.023s.669-.029,1-.05a1.729,1.729,0,0,0,.763-.2,1.379,1.379,0,0,0,.5-.463,1.859,1.859,0,0,0,.262-.681,3.883,3.883,0,0,0,.057-.854A3.5,3.5,0,0,0,6.727,25.309Z" fill="#12154b" stroke="#12154b" stroke-miterlimit="10" stroke-width="0.25"/>
                    </g>
                  </g>
                </g>
              </g>
            </g>
          </g>
          <g id="그룹_115328" data-name="그룹 115328" style="isolation: isolate">
            <g id="그룹_115327" data-name="그룹 115327">
              <g id="그룹_115326" data-name="그룹 115326" clip-path="url(#clip-path-27)">
                <g id="그룹_115325" data-name="그룹 115325" style="isolation: isolate">
                  <g id="그룹_115324" data-name="그룹 115324">
                    <g id="그룹_115323" data-name="그룹 115323" clip-path="url(#clip-path-27)">
                      <text id="T-3" data-name="T" transform="translate(6.149 22.911) rotate(-75.227)" fill="#12154b" font-size="8" font-family="SegoeUI, Segoe UI"><tspan x="0" y="0">T</tspan></text>
                      <path id="패스_39484" data-name="패스 39484" d="M2.367,19.871l4.325,1.141a.6.6,0,0,0,.283.012.55.55,0,0,0,.225-.106.667.667,0,0,0,.166-.188.967.967,0,0,0,.1-.242.9.9,0,0,0,.028-.253.632.632,0,0,0-.052-.242.558.558,0,0,0-.145-.2.589.589,0,0,0-.252-.128L2.722,18.525l.334-1.268a.864.864,0,0,0,.035-.3.566.566,0,0,0-.057-.2.351.351,0,0,0-.119-.131.52.52,0,0,0-.16-.07.5.5,0,0,0-.379.04.621.621,0,0,0-.263.419l-1.028,3.9a.848.848,0,0,0-.033.3.49.49,0,0,0,.061.207.379.379,0,0,0,.122.132.551.551,0,0,0,.159.07.493.493,0,0,0,.371-.042.622.622,0,0,0,.264-.419Z" fill="#12154b" stroke="#12154b" stroke-miterlimit="10" stroke-width="0.25"/>
                    </g>
                  </g>
                </g>
              </g>
            </g>
          </g>
          <g id="그룹_115334" data-name="그룹 115334" style="isolation: isolate">
            <g id="그룹_115333" data-name="그룹 115333">
              <g id="그룹_115332" data-name="그룹 115332" clip-path="url(#clip-path-29)">
                <g id="그룹_115331" data-name="그룹 115331" style="isolation: isolate">
                  <g id="그룹_115330" data-name="그룹 115330">
                    <g id="그룹_115329" data-name="그룹 115329" clip-path="url(#clip-path-29)">
                      <text id="T-4" data-name="T" transform="matrix(0.535, -0.845, 0.845, 0.535, 7.663, 17.406)" fill="#12154b" font-size="8" font-family="SegoeUI, Segoe UI"><tspan x="0" y="0">T</tspan></text>
                      <path id="패스_39485" data-name="패스 39485" d="M4.974,13.367l3.779,2.39a.6.6,0,0,0,.266.1.56.56,0,0,0,.248-.032.706.706,0,0,0,.214-.13.976.976,0,0,0,.17-.2.931.931,0,0,0,.1-.232.628.628,0,0,0,.022-.246A.55.55,0,0,0,9.7,14.78a.6.6,0,0,0-.2-.2l-3.779-2.39.7-1.109a.84.84,0,0,0,.123-.277.537.537,0,0,0,.007-.213.361.361,0,0,0-.074-.161.518.518,0,0,0-.131-.116.505.505,0,0,0-.373-.074.615.615,0,0,0-.377.318L3.439,13.967a.862.862,0,0,0-.123.277.511.511,0,0,0,0,.216.382.382,0,0,0,.078.162.533.533,0,0,0,.13.116.5.5,0,0,0,.366.071.621.621,0,0,0,.379-.319Z" fill="#12154b" stroke="#12154b" stroke-miterlimit="10" stroke-width="0.25"/>
                    </g>
                  </g>
                </g>
              </g>
            </g>
          </g>
          <g id="그룹_115340" data-name="그룹 115340" style="isolation: isolate">
            <g id="그룹_115339" data-name="그룹 115339">
              <g id="그룹_115338" data-name="그룹 115338" clip-path="url(#clip-path-31)">
                <g id="그룹_115337" data-name="그룹 115337" style="isolation: isolate">
                  <g id="그룹_115336" data-name="그룹 115336">
                    <g id="그룹_115335" data-name="그룹 115335" clip-path="url(#clip-path-31)">
                      <text id="R-2" data-name="R" transform="translate(10.772 12.602) rotate(-40.216)" fill="#12154b" font-size="8.004" font-family="SegoeUI, Segoe UI"><tspan x="0" y="0">R</tspan></text>
                      <path id="패스_39486" data-name="패스 39486" d="M10.085,7.387a1.307,1.307,0,0,1,.666-.333.7.7,0,0,1,.614.31.688.688,0,0,1,.2.653,1.31,1.31,0,0,1-.437.6l-.653.553L9.431,7.94Zm1.493,2.1,2.408.826a.746.746,0,0,0,.241.038.669.669,0,0,0,.239-.047.6.6,0,0,0,.214-.143.737.737,0,0,0,.158-.253.519.519,0,0,0-.034-.486.684.684,0,0,0-.4-.289l-1.9-.631a1.84,1.84,0,0,0,.211-.481,1.869,1.869,0,0,0,.067-.529,1.593,1.593,0,0,0-.109-.538,1.826,1.826,0,0,0-.319-.526,1.667,1.667,0,0,0-.681-.514,1.483,1.483,0,0,0-.729-.075,2.138,2.138,0,0,0-.746.264,4.771,4.771,0,0,0-.728.509L8.1,7.772a.512.512,0,0,0-.187.306.424.424,0,0,0,.121.348l3.225,3.813a.561.561,0,0,0,.228.171.613.613,0,0,0,.249.039.632.632,0,0,0,.243-.058.857.857,0,0,0,.21-.131.826.826,0,0,0,.16-.182.643.643,0,0,0,.093-.225.633.633,0,0,0,0-.249.572.572,0,0,0-.13-.254L11.089,9.9Z" fill="#12154b" stroke="#12154b" stroke-miterlimit="10" stroke-width="0.25"/>
                    </g>
                  </g>
                </g>
              </g>
            </g>
          </g>
          <g id="그룹_115346" data-name="그룹 115346" style="isolation: isolate">
            <g id="그룹_115345" data-name="그룹 115345">
              <g id="그룹_115344" data-name="그룹 115344" clip-path="url(#clip-path-33)">
                <g id="그룹_115343" data-name="그룹 115343" style="isolation: isolate">
                  <g id="그룹_115342" data-name="그룹 115342">
                    <g id="그룹_115341" data-name="그룹 115341" clip-path="url(#clip-path-33)">
                      <text id="A-2" data-name="A" transform="translate(15.207 8.928) rotate(-22.579)" fill="#12154b" font-size="8" font-family="SegoeUI, Segoe UI"><tspan x="0" y="0">A</tspan></text>
                      <path id="패스_39487" data-name="패스 39487" d="M17.553,5.985l-1.19.495-.135-2.013ZM16.376,9.074a.512.512,0,0,0,.146-.381l-.083-1.2,1.789-.743.76.87a.567.567,0,0,0,.394.209.679.679,0,0,0,.475-.18.592.592,0,0,0,.241-.36.514.514,0,0,0-.165-.417L16.441,3a.727.727,0,0,0-.339-.192.852.852,0,0,0-.56.073.824.824,0,0,0-.441.344A.716.716,0,0,0,15,3.6l.28,5.2a.652.652,0,0,0,.047.2.562.562,0,0,0,.121.175.486.486,0,0,0,.2.117.722.722,0,0,0,.728-.208Z" fill="#12154b" stroke="#12154b" stroke-miterlimit="10" stroke-width="0.25"/>
                    </g>
                  </g>
                </g>
              </g>
            </g>
          </g>
          <g id="그룹_115352" data-name="그룹 115352" style="isolation: isolate">
            <g id="그룹_115351" data-name="그룹 115351">
              <g id="그룹_115350" data-name="그룹 115350" clip-path="url(#clip-path-35)">
                <g id="그룹_115349" data-name="그룹 115349" style="isolation: isolate">
                  <g id="그룹_115348" data-name="그룹 115348">
                    <g id="그룹_115347" data-name="그룹 115347" clip-path="url(#clip-path-35)">
                      <text id="C-2" data-name="C" transform="translate(20.456 6.802) rotate(-5.346)" fill="#12154b" font-size="8" font-family="SegoeUI, Segoe UI"><tspan x="0" y="0">C</tspan></text>
                      <path id="패스_39488" data-name="패스 39488" d="M25.083,2.407a1.143,1.143,0,0,0-.219-.57,1.536,1.536,0,0,0-.5-.434,2.431,2.431,0,0,0-.735-.257,3.221,3.221,0,0,0-.907-.036,3.127,3.127,0,0,0-.827.187,2.06,2.06,0,0,0-.673.4,1.648,1.648,0,0,0-.436.63,2.049,2.049,0,0,0-.118.88q.073,1.134.22,2.349a2.092,2.092,0,0,0,.277.858,1.644,1.644,0,0,0,.537.541,1.948,1.948,0,0,0,.738.26,3.662,3.662,0,0,0,.886.018,3.056,3.056,0,0,0,.885-.208,2.246,2.246,0,0,0,.657-.4,1.555,1.555,0,0,0,.4-.545,1.241,1.241,0,0,0,.1-.626.555.555,0,0,0-.68-.571.707.707,0,0,0-.409.174.448.448,0,0,0-.176.353A.839.839,0,0,1,23.9,6a1.026,1.026,0,0,1-.664.248.983.983,0,0,1-.7-.151.944.944,0,0,1-.311-.663q-.07-.57-.127-1.14c-.038-.38-.069-.774-.091-1.185A.847.847,0,0,1,22.844,2.1a1.1,1.1,0,0,1,.7.115.678.678,0,0,1,.309.458.45.45,0,0,0,.222.32.7.7,0,0,0,.443.091A.548.548,0,0,0,25.083,2.407Z" fill="#12154b" stroke="#12154b" stroke-miterlimit="10" stroke-width="0.25"/>
                    </g>
                  </g>
                </g>
              </g>
            </g>
          </g>
          <g id="그룹_115358" data-name="그룹 115358" style="isolation: isolate">
            <g id="그룹_115357" data-name="그룹 115357">
              <g id="그룹_115356" data-name="그룹 115356" clip-path="url(#clip-path-37)">
                <g id="그룹_115355" data-name="그룹 115355" style="isolation: isolate">
                  <g id="그룹_115354" data-name="그룹 115354">
                    <g id="그룹_115353" data-name="그룹 115353" clip-path="url(#clip-path-37)">
                      <text id="K-2" data-name="K" transform="translate(26.113 6.306) rotate(12.373)" fill="#12154b" font-size="7" font-family="SegoeUI, Segoe UI"><tspan x="0" y="0">K</tspan></text>
                      <path id="패스_39489" data-name="패스 39489" d="M26.625,6.455a.511.511,0,0,0,0,.246.481.481,0,0,0,.1.194.6.6,0,0,0,.173.14.881.881,0,0,0,.219.079.7.7,0,0,0,.425-.035.472.472,0,0,0,.266-.365l.37-1.69L29.8,7.553a.616.616,0,0,0,.329.261.583.583,0,0,0,.429-.023.441.441,0,0,0,.27-.332.629.629,0,0,0-.114-.48L29.25,4.716l2.06-1.262a.475.475,0,0,0,.139-.693.517.517,0,0,0-.155-.13.631.631,0,0,0-.2-.073.7.7,0,0,0-.224-.006.5.5,0,0,0-.206.072L28.393,4.048l.322-1.471a.462.462,0,0,0-.092-.428.675.675,0,0,0-.369-.218.824.824,0,0,0-.232-.018.572.572,0,0,0-.215.053.483.483,0,0,0-.275.352Z" fill="#12154b" stroke="#12154b" stroke-miterlimit="10" stroke-width="0.25"/>
                    </g>
                  </g>
                </g>
              </g>
            </g>
          </g>
          <g id="그룹_115364" data-name="그룹 115364" style="isolation: isolate">
            <g id="그룹_115363" data-name="그룹 115363">
              <g id="그룹_115362" data-name="그룹 115362" clip-path="url(#clip-path-39)">
                <g id="그룹_115361" data-name="그룹 115361" style="isolation: isolate">
                  <g id="그룹_115360" data-name="그룹 115360">
                    <g id="그룹_115359" data-name="그룹 115359" clip-path="url(#clip-path-39)">
                      <text id="S-2" data-name="S" transform="translate(31.934 7.658) rotate(30.512)" fill="#12154b" font-size="8.004" font-family="SegoeUI, Segoe UI"><tspan x="0" y="0">S</tspan></text>
                      <path id="패스_39490" data-name="패스 39490" d="M33.921,8.449a1.934,1.934,0,0,1-.24-.239,1.5,1.5,0,0,1-.165-.241c-.045-.082-.088-.17-.133-.264a.587.587,0,0,0-.126-.2.762.762,0,0,0-.189-.159.66.66,0,0,0-.2-.079.592.592,0,0,0-.218,0,.476.476,0,0,0-.206.092.492.492,0,0,0-.158.2.5.5,0,0,0-.048.176.411.411,0,0,0,.026.192,2.1,2.1,0,0,0,.469.8,4.157,4.157,0,0,0,1.067.853,4.381,4.381,0,0,0,.917.415,2.4,2.4,0,0,0,.849.114,1.573,1.573,0,0,0,.733-.227,1.69,1.69,0,0,0,.568-.6,1.281,1.281,0,0,0,.193-.6,1.588,1.588,0,0,0-.082-.587,2.362,2.362,0,0,0-.273-.561A6.15,6.15,0,0,0,36.318,7l-.3-.355c-.116-.131-.224-.259-.325-.387a2.148,2.148,0,0,1-.246-.372,1.045,1.045,0,0,1-.114-.35.508.508,0,0,1,.073-.329.475.475,0,0,1,.506-.236,1.979,1.979,0,0,1,.763.288,2.349,2.349,0,0,1,.458.343c.131.127.264.268.4.423a.867.867,0,0,0,.2.185.747.747,0,0,0,.251.11.462.462,0,0,0,.259-.019.5.5,0,0,0,.234-.211.57.57,0,0,0,.068-.187.411.411,0,0,0-.017-.229,1,1,0,0,0-.2-.325,3.6,3.6,0,0,0-.345-.342,4.389,4.389,0,0,0-.411-.322c-.145-.1-.278-.188-.4-.261a4.93,4.93,0,0,0-.8-.377,2.761,2.761,0,0,0-.832-.18A1.685,1.685,0,0,0,34.768,4a1.306,1.306,0,0,0-.6.568,1.139,1.139,0,0,0-.173.678,1.864,1.864,0,0,0,.188.674,3.676,3.676,0,0,0,.415.653q.252.32.5.614.159.186.3.372a2,2,0,0,1,.228.37,1,1,0,0,1,.1.368.643.643,0,0,1-.1.361.57.57,0,0,1-.239.231.694.694,0,0,1-.32.072,1.151,1.151,0,0,1-.379-.075,2.45,2.45,0,0,1-.41-.195A2.6,2.6,0,0,1,33.921,8.449Z" fill="#12154b" stroke="#12154b" stroke-miterlimit="10" stroke-width="0.25"/>
                    </g>
                  </g>
                </g>
              </g>
            </g>
          </g>
          <path id="패스_39491" data-name="패스 39491" d="M7.684,36.576l.912.813A1.3,1.3,0,0,0,10,37.6l1.113-.5a.239.239,0,0,1,.277.376l-.813.912a1.3,1.3,0,0,0-.215,1.405l.5,1.113a.239.239,0,0,1-.376.277l-.912-.813a1.3,1.3,0,0,0-1.4-.215l-1.113.5a.239.239,0,0,1-.277-.376l.813-.912a1.3,1.3,0,0,0,.215-1.4l-.5-1.113a.239.239,0,0,1,.376-.277" fill="#12154b" stroke="#12154b" stroke-width="1"/>
          <path id="패스_39492" data-name="패스 39492" d="M7.684,36.576l.912.813A1.3,1.3,0,0,0,10,37.6l1.113-.5a.239.239,0,0,1,.277.376l-.813.912a1.3,1.3,0,0,0-.215,1.405l.5,1.113a.239.239,0,0,1-.376.277l-.912-.813a1.3,1.3,0,0,0-1.4-.215l-1.113.5a.239.239,0,0,1-.277-.376l.813-.912a1.3,1.3,0,0,0,.215-1.4l-.5-1.113a.239.239,0,0,1,.376-.277" fill="#12154b" stroke="#12154b" stroke-miterlimit="10" stroke-width="0.25"/>
          <path id="패스_39493" data-name="패스 39493" d="M39.618,9.329l.912.813a1.3,1.3,0,0,0,1.405.215l1.113-.5a.239.239,0,0,1,.277.376l-.813.912a1.3,1.3,0,0,0-.215,1.4l.5,1.113a.239.239,0,0,1-.376.277l-.912-.813a1.3,1.3,0,0,0-1.4-.215l-1.113.5a.239.239,0,0,1-.277-.376l.813-.912a1.3,1.3,0,0,0,.215-1.4l-.5-1.113a.239.239,0,0,1,.376-.277" fill="#12154b" stroke="#12154b" stroke-width="1"/>
          <path id="패스_39494" data-name="패스 39494" d="M39.618,9.329l.912.813a1.3,1.3,0,0,0,1.405.215l1.113-.5a.239.239,0,0,1,.277.376l-.813.912a1.3,1.3,0,0,0-.215,1.4l.5,1.113a.239.239,0,0,1-.376.277l-.912-.813a1.3,1.3,0,0,0-1.4-.215l-1.113.5a.239.239,0,0,1-.277-.376l.813-.912a1.3,1.3,0,0,0,.215-1.4l-.5-1.113a.239.239,0,0,1,.376-.277" fill="#12154b" stroke="#12154b" stroke-miterlimit="10" stroke-width="0.25"/>
        </g>
      </g>
    </g>
    </g>
    <g id="반짝" transform="translate(-55 36)">
    <g class="star s1">
      <path id="패스_38153" data-name="패스 38153" d="M70.125,102.542l.8,3.768a4.112,4.112,0,0,0,3.17,3.17l3.767.8a.753.753,0,0,1,0,1.474l-3.767.8a4.111,4.111,0,0,0-3.17,3.17l-.8,3.768a.753.753,0,0,1-1.474,0l-.8-3.768a4.112,4.112,0,0,0-3.171-3.17l-3.767-.8a.753.753,0,0,1,0-1.474l3.767-.8a4.113,4.113,0,0,0,3.171-3.17l.8-3.768A.753.753,0,0,1,70.125,102.542Z" transform="translate(44.316 -130.382)" fill="#ffee24"/>
    </g>
    <g class="star s2">
      <path id="패스_39185" data-name="패스 39185" d="M67.072,102.357l.549,2.595a2.831,2.831,0,0,0,2.183,2.183l2.594.549a.519.519,0,0,1,0,1.015l-2.594.549a2.831,2.831,0,0,0-2.183,2.183l-.549,2.595a.519.519,0,0,1-1.015,0l-.549-2.595a2.831,2.831,0,0,0-2.183-2.183l-2.594-.549a.519.519,0,0,1,0-1.015l2.594-.549a2.832,2.832,0,0,0,2.183-2.183l.549-2.595A.519.519,0,0,1,67.072,102.357Z" transform="translate(61.996 -112.244)" fill="#ffee24"/>
    </g>
    </g>
  </g>
</svg>
