<svg xmlns="http://www.w3.org/2000/svg" width="233.475" height="220.335" viewBox="0 0 233.475 220.335">
  <g id="Group_112648" data-name="Group 112648" transform="matrix(0.998, -0.07, 0.07, 0.998, -515.055, -3776.646)">
    <path id="Path_36386" data-name="Path 36386" d="M175.855,92.708l-132.776,48.4a13.773,13.773,0,0,1-17.635-8.27L.824,66.862a13.773,13.773,0,0,1,8.27-17.635L141.869.824a13.776,13.776,0,0,1,17.637,8.27l24.619,65.978a13.773,13.773,0,0,1-8.27,17.635" transform="matrix(0.809, 0.588, -0.588, 0.809, 325.714, 3810.081)" fill="#fffa76"/>
    <path id="Path_36387" data-name="Path 36387" d="M174.143,92.708,43.078,141.11a13.773,13.773,0,0,1-17.635-8.27L.824,66.862a13.773,13.773,0,0,1,8.27-17.635L140.158.824a13.776,13.776,0,0,1,17.637,8.27l24.619,65.978A13.773,13.773,0,0,1,174.143,92.708Z" transform="matrix(0.809, 0.588, -0.588, 0.809, 326.714, 3810.152)" fill="none" stroke="#000" stroke-linecap="round" stroke-linejoin="round" stroke-width="2"/>
    <path id="Path_36409" data-name="Path 36409" d="M5.747,7.326.046,37.162c-.519,2.715,3.508,4.623,5,2.371L31.281,0" transform="matrix(0.809, 0.588, -0.588, 0.809, 306.671, 3940.258)" fill="#fffa76"/>
    <path id="Path_36410" data-name="Path 36410" d="M5.747,7.326.046,37.162c-.519,2.715,3.508,4.623,5,2.371L31.281,0" transform="matrix(0.809, 0.588, -0.588, 0.809, 306.671, 3940.258)" fill="none" stroke="#000" stroke-linecap="round" stroke-linejoin="round" stroke-width="2"/>
    <path id="Path_52059" data-name="Path 52059" d="M-50.919-16.28v2.31h6.754C-44.583-9.482-46.827-6.314-52-3.828l1.518,2.288c7.194-3.476,9.284-8.536,9.284-14.74Zm12.826-2.112V1.87h2.926V-18.392Zm9.416,4.246h6.556V-16.5h-9.438V-2.926h1.716a50.444,50.444,0,0,0,9.35-.66l-.286-2.4a50.366,50.366,0,0,1-7.9.638Zm15.136,3.256h-2.948v-7.48h-2.9V1.936h2.9V-8.492h2.948ZM-9.1-8.844h6.138v-7.832H-12v2.31h6.182v3.234h-6.138v8.558h1.628a53.464,53.464,0,0,0,8.6-.528l-.22-2.376a49.712,49.712,0,0,1-7.15.506ZM1.375-18.392v4.312H-1.947v2.332H1.375V-8.58H-1.991v2.332H1.375V1.936H4.3V-18.392ZM12.155-4.334h-2.9V1.54H23.287V-.77H12.155Zm-.308-9.35c0-1.232,1.628-1.892,4.334-1.892,2.728,0,4.356.66,4.356,1.892,0,1.254-1.628,1.87-4.356,1.87C13.475-11.814,11.847-12.43,11.847-13.684Zm5.764,5.742V-9.57c3.608-.308,5.918-1.848,5.918-4.114,0-2.574-2.926-4.18-7.348-4.18-4.4,0-7.326,1.606-7.326,4.18,0,2.266,2.288,3.784,5.852,4.114v1.628H7.029v2.31h18.3v-2.31ZM-59.147,11.874h-2.9v13.09h1.408a38.1,38.1,0,0,0,7-.594l-.242-2.442a34.263,34.263,0,0,1-5.258.528Zm10.89-2.266v7.81h-1.826V9.982h-2.706V28.924h2.706V19.772h1.826v10.1h2.772V9.608Zm11.374,11.638a7.406,7.406,0,0,0,4.862-3.762A7.268,7.268,0,0,0-27.2,21.048l1.276-2.2c-2.97-.77-4.444-2.6-4.642-4.532h4.092v-2.31h-4.114v-2.2h-2.926v2.2h-4.07v2.31h4.048c-.2,2.024-1.628,3.916-4.642,4.708Zm6.292-.594h-2.926v3.08c-1.848.066-3.608.066-5.1.066l.374,2.354a67.234,67.234,0,0,0,12.606-.924l-.176-2.112c-1.54.242-3.146.374-4.774.484Zm5.874-11.044V29.936h2.9V9.608ZM-14.443,23.05c-1.122,0-1.76-1.518-1.76-4.642,0-3.1.638-4.62,1.76-4.62,1.078,0,1.738,1.518,1.738,4.62C-12.7,21.532-13.365,23.05-14.443,23.05Zm0-11.99c-2.706,0-4.4,2.772-4.4,7.348,0,4.6,1.694,7.37,4.4,7.37,2.662,0,4.378-2.772,4.378-7.37C-10.065,13.832-11.781,11.06-14.443,11.06ZM-4.389,9.608v7.744H-6.083V9.96H-8.789V28.99h2.706V19.684h1.694V29.87h2.75V9.608Zm16.962,1.584H9.647V14.14c0,3.762-1.54,7.634-4.95,9.24l1.738,2.354a9.663,9.663,0,0,0,4.686-5.83A9.227,9.227,0,0,0,15.5,25.36l1.76-2.288c-3.256-1.606-4.686-5.28-4.686-8.932Zm11.352,6.226H20.977V9.63h-2.9V29.892h2.9V19.838h2.948Zm17.71-7.766H38.709V24.194h2.926ZM27.929,16.076a2.528,2.528,0,0,1,2.684-2.64,2.5,2.5,0,0,1,2.662,2.64,2.505,2.505,0,0,1-2.662,2.618A2.534,2.534,0,0,1,27.929,16.076Zm8.184,0a5.2,5.2,0,0,0-5.5-5.148,5.15,5.15,0,1,0,0,10.274A5.21,5.21,0,0,0,36.113,16.076ZM31.053,27.23V22.764h-2.9V29.54H42.141V27.23ZM57.167,11.874h-4.62V9.7h-2.9v2.178H45V14.14H57.167Zm-8.338,6.864c0-1.034.924-1.606,2.266-1.606,1.364,0,2.266.572,2.266,1.606,0,1.056-.9,1.628-2.266,1.628C49.753,20.366,48.829,19.794,48.829,18.738Zm3.718,3.674c2.156-.418,3.564-1.782,3.564-3.674,0-2.266-2.068-3.806-5.016-3.806-2.97,0-5.038,1.54-5.038,3.806,0,1.892,1.408,3.256,3.586,3.674v1.716c-1.8.044-3.52.044-5.038.044l.352,2.354a71.182,71.182,0,0,0,12.694-.836l-.22-2.112c-1.584.22-3.234.33-4.884.44ZM58.487,9.63V29.892h2.9V9.63Z" transform="translate(358.881 3914.306) rotate(16)"/>
    <g id="Group_112649" data-name="Group 112649" transform="matrix(0.966, 0.259, -0.259, 0.966, 8131.736, 14765.361)">
      <rect id="Rectangle_21765" data-name="Rectangle 21765" width="42" height="25" transform="translate(-10286 -8490.998)" fill="none"/>
      <g id="Group_112643" data-name="Group 112643" transform="translate(-10283.972 -8489.586)">
        <g id="Group_112644" data-name="Group 112644" transform="translate(0 0)">
          <path id="Path_51941" data-name="Path 51941" d="M17.731,11.138A8.615,8.615,0,1,1,9.115,2.523a8.615,8.615,0,0,1,8.615,8.615" transform="translate(-0.5 2.299)" fill="#fff"/>
          <circle id="Ellipse_718" data-name="Ellipse 718" cx="8.615" cy="8.615" r="8.615" transform="translate(0.001 4.821)" fill="none" stroke="#000" stroke-miterlimit="10" stroke-width="2"/>
          <path id="Path_51942" data-name="Path 51942" d="M8.687,8.871A3.859,3.859,0,1,1,4.829,5.012,3.859,3.859,0,0,1,8.687,8.871" transform="translate(-0.072 4.566)"/>
          <circle id="Ellipse_719" data-name="Ellipse 719" cx="3.859" cy="3.859" r="3.859" transform="translate(0.899 9.578)" fill="none" stroke="#000" stroke-miterlimit="10" stroke-width="1"/>
          <line id="Line_791" data-name="Line 791" y1="4.879" transform="translate(8.616)" fill="none" stroke="#000" stroke-miterlimit="10" stroke-width="2"/>
          <line id="Line_792" data-name="Line 792" x1="1.668" y1="4.585" transform="translate(3.806 0.972)" fill="none" stroke="#000" stroke-miterlimit="10" stroke-width="2"/>
          <path id="Path_51943" data-name="Path 51943" d="M28.519,11.138A8.615,8.615,0,1,1,19.9,2.523a8.615,8.615,0,0,1,8.615,8.615" transform="translate(9.329 2.299)" fill="#fff"/>
          <circle id="Ellipse_720" data-name="Ellipse 720" cx="8.615" cy="8.615" r="8.615" transform="translate(20.616 4.821)" fill="none" stroke="#000" stroke-miterlimit="10" stroke-width="2"/>
          <path id="Path_51944" data-name="Path 51944" d="M19.474,8.871a3.859,3.859,0,1,1-3.859-3.859,3.859,3.859,0,0,1,3.859,3.859" transform="translate(9.756 4.566)"/>
          <circle id="Ellipse_721" data-name="Ellipse 721" cx="3.859" cy="3.859" r="3.859" transform="translate(21.514 9.578)" fill="none" stroke="#000" stroke-miterlimit="10" stroke-width="1"/>
          <line id="Line_793" data-name="Line 793" y1="4.879" transform="translate(29.231)" fill="none" stroke="#000" stroke-miterlimit="10" stroke-width="2"/>
          <line id="Line_794" data-name="Line 794" x1="1.668" y1="4.585" transform="translate(24.421 0.972)" fill="none" stroke="#000" stroke-miterlimit="10" stroke-width="2"/>
        </g>
      </g>
    </g>
  </g>
</svg>
