<svg xmlns="http://www.w3.org/2000/svg" width="72" height="72" viewBox="0 0 72 72">
  <g id="그룹_116319" data-name="그룹 116319" transform="translate(16110 -6783)">
    <rect id="사각형_22355" data-name="사각형 22355" width="72" height="72" transform="translate(-16110 6783)" fill="none"/>
    <g id="그룹_116270" data-name="그룹 116270" transform="translate(-16098.976 6794.805)">
      <rect id="사각형_22354" data-name="사각형 22354" width="22.058" height="22.058" rx="1" transform="translate(0.743)" fill="#fff" stroke="#000" stroke-width="2"/>
      <circle id="타원_806" data-name="타원 806" cx="11.029" cy="11.029" r="11.029" transform="translate(27.892)" fill="#fec961" stroke="#000" stroke-width="2"/>
      <path id="다각형_32" data-name="다각형 32" d="M14.829,0a1,1,0,0,1,.694.28l5.712,5.5a1,1,0,0,1,.306.72v7.742a1,1,0,0,1-.306.72l-5.712,5.5a1,1,0,0,1-.694.28H6.712a1,1,0,0,1-.694-.28l-5.712-5.5A1,1,0,0,1,0,14.242V6.5a1,1,0,0,1,.306-.72L6.019.28A1,1,0,0,1,6.712,0Z" transform="translate(28.151 27.644)" fill="#57a0fc" stroke="#000" stroke-width="2"/>
      <g id="그룹_116268" data-name="그룹 116268" transform="translate(0 27.938)">
        <g id="그룹_116269" data-name="그룹 116269" transform="translate(0 0)">
          <path id="패스_42700" data-name="패스 42700" d="M12.037.638l-11.5,19.6a.288.288,0,0,0,.236.438H23.768A.288.288,0,0,0,24,20.239L12.51.638a.272.272,0,0,0-.473,0" transform="translate(-0.5 -0.5)" fill="#fe696f" stroke="#000" stroke-width="2"/>
        </g>
      </g>
    </g>
  </g>
</svg>
