<?xml version="1.0" encoding="utf-8"?>
<!-- Generator: Adobe Illustrator 26.2.1, SVG Export Plug-In . SVG Version: 6.00 Build 0)  -->
<svg version="1.1" xmlns="http://www.w3.org/2000/svg" xmlns:xlink="http://www.w3.org/1999/xlink" x="0px" y="0px" viewBox="0 0 89 84" style="enable-background:new 0 0 89 84;" xml:space="preserve">
<style type="text/css">
.st0{fill:none;}
.st1{fill:#FEC211;stroke:#000000;stroke-width:2;stroke-linecap:round;stroke-linejoin:round;}
.st2{fill:#FFFFFF;}
.st3{fill:none;stroke:#000000;stroke-width:2;stroke-linecap:round;stroke-linejoin:round;}
.st4{fill:#7582F0;stroke:#000000;stroke-width:2;stroke-linecap:round;stroke-linejoin:round;}
.st5{fill:#FFFFFF;stroke:#000000;stroke-width:2;stroke-linecap:round;stroke-linejoin:round;}
.st6{fill:#FFFFFF;stroke:#000000;stroke-width:2;}
.st7{fill:#F06A86;stroke:#000000;stroke-width:2;}


.s1 {position:relative;animation:rotate both linear infinite 7s;transform-origin:79.5% 53.9%;}
.s2 {position:relative;animation:rotate2 both linear infinite 7s;transform-origin:24.3% 23.9%;}
@keyframes rotate {
0% {rotate(0deg);}
100% {transform:rotate(360deg);}
}
@keyframes rotate2 {
0% {rotate(0deg);}
100% {transform:rotate(-360deg);}
}

.star {
	transform-origin: 30% 9%;animation: star linear infinite 2.5s;
}
.star2 {
	transform-origin: 12% 41%;animation: star2 linear infinite 1.0s;
}
.star3 {
	transform-origin: 81% 16%;animation: star3 linear infinite 0.8s;
}
@keyframes star {
0% {transform:scale(1);}	
10% {transform:scale(0.7);}	
20% {transform:scale(1.1);}	
30% {transform:scale(1.1);}	
40% {transform:scale(0.7);}	
50% {transform:scale(1);}
100% {transform:scale(1);}
}
@keyframes star2 {
0% {transform:scale(1.2);}	
55% {transform:scale(0.9);;}
100% {transform:scale(1.2);}
}
@keyframes star3 {
0% {transform:scale(1);}	
55% {transform:scale(0.7);;}
100% {transform:scale(1);}
}
</style>
<g id="Layer_1">
	<rect id="Rectangle_21735" class="st0" width="89" height="84"/>
	<g id="Group_115622" transform="translate(12993.327 -36.647)">
		<rect id="Rectangle_21730" x="-12935" y="54.9" class="st1" width="12.2" height="48.2"/>
		<path id="Path_42573" class="st2" d="M-12928.9,103.2L-12928.9,103.2z"/>
		<g id="Group_115621" transform="translate(0 0)">
			<g id="Group_115623">
				<line id="Line_1837" class="st3" x1="-12928.9" y1="54.9" x2="-12928.9" y2="103.2"/>
				<line id="Line_1838" class="st3" x1="-12935" y1="103.2" x2="-12928.9" y2="93.9"/>
				<line id="Line_1839" class="st3" x1="-12922.7" y1="103.2" x2="-12928.9" y2="93.9"/>
				<path id="Path_42574" class="st3" d="M-12941.3,54.9v-5.5c-0.1-5-4.1-8.9-9.1-8.9c-4.9,0.1-8.8,4-8.9,8.9v5.5"/>
				<path id="Path_42575" class="st3" d="M-12928.9,54.9v-5.5c0-5-4-9-9-9c-5,0-9,4-9,9v5.5"/>
				<rect id="Rectangle_21733" x="-12969.8" y="54.9" class="st4" width="34.8" height="48.2"/>
				<line id="Line_1840" class="st0" x1="-12942.6" y1="54.9" x2="-12942.6" y2="63.2"/>
				<line id="Line_1841" class="st3" x1="-12942.6" y1="54.9" x2="-12942.6" y2="63.2"/>
				<path id="Path_42576" class="st5" d="M-12939.6,74.7h-6V64.3l3-2.6l3,2.6V74.7z"/>
			</g>
		</g>
	</g>
</g>
<g id="star">
	<g class="star">
		<path id="Path_42588" class="st5" d="M28.6,2.7l0.1,0.5c0.2,0.7,0.7,1.3,1.5,1.5l0.5,0.1c0.3,0.1,0.5,0.4,0.4,0.7
		c0,0.2-0.2,0.4-0.4,0.4l-0.5,0.1c-0.7,0.2-1.3,0.7-1.5,1.5l-0.1,0.5c-0.1,0.3-0.4,0.5-0.7,0.4c-0.2,0-0.4-0.2-0.4-0.4l-0.1-0.5
		c-0.2-0.7-0.7-1.3-1.5-1.5l-0.5-0.1c-0.3-0.1-0.5-0.4-0.4-0.7c0-0.2,0.2-0.4,0.4-0.4l0.5-0.1c0.7-0.2,1.3-0.7,1.5-1.5l0.1-0.5
		c0.1-0.3,0.4-0.5,0.7-0.4C28.3,2.3,28.5,2.5,28.6,2.7z"/>
	</g>
	<g class="star2">
		<path id="Path_42589" class="st5" d="M12.4,32.5l0.1,0.5c0.2,0.7,0.7,1.3,1.5,1.5l0.5,0.1c0.3,0.1,0.5,0.4,0.4,0.7
		c0,0.2-0.2,0.4-0.4,0.4l-0.5,0.1c-0.7,0.2-1.3,0.7-1.5,1.5l-0.1,0.5c-0.1,0.3-0.4,0.5-0.7,0.4c-0.2,0-0.4-0.2-0.4-0.4l-0.1-0.5
		c-0.2-0.7-0.7-1.3-1.5-1.5l-0.5-0.1c-0.3-0.1-0.5-0.4-0.4-0.7c0-0.2,0.2-0.4,0.4-0.4l0.5-0.1c0.7-0.2,1.3-0.7,1.5-1.5l0.1-0.5
		c0.1-0.3,0.4-0.5,0.7-0.4C12.2,32.1,12.4,32.2,12.4,32.5z"/>
	</g>
	<g class="star3">
		<path id="Path_42590" class="st5" d="M74.2,12.7c0,1-0.8,1.8-1.8,1.8c-1,0-1.8-0.8-1.8-1.8c0-1,0.8-1.8,1.8-1.8l0,0
		C73.4,10.8,74.2,11.6,74.2,12.7z"/>
	</g>
</g>
<g id="flower">
	<g class="s1">
		<path id="Path_42578" class="st6" d="M74.1,39.3c0.1,2.1-1.4,4-3.6,4.1c-2.1-0.2-3.7-2-3.6-4.1c-0.1-2.1,1.4-4,3.6-4.1
			C72.7,35.3,74.3,37.2,74.1,39.3"/>
		<path id="Path_42579" class="st6" d="M66.2,39.9c2.1,0.5,3.3,2.6,2.8,4.7c-0.8,2-3.1,2.9-5,2.1c-2.1-0.5-3.3-2.6-2.8-4.6
			C62,40.1,64.2,39.2,66.2,39.9"/>
		<path id="Path_42581" class="st6" d="M64.3,47.7c1.1-1.8,3.5-2.4,5.3-1.2c1.6,1.4,1.8,3.8,0.4,5.4c-1.1,1.8-3.5,2.4-5.3,1.2
			C63.1,51.8,62.9,49.4,64.3,47.7"/>
		<path id="Path_42583" class="st6" d="M71.1,51.9c-1.4-1.6-1.2-4,0.4-5.4c1.8-1.1,4.2-0.5,5.3,1.2c1.4,1.6,1.2,4-0.4,5.4
			C74.6,54.3,72.3,53.7,71.1,51.9"/>
		<path id="Path_42585" class="st6" d="M77.2,46.7c-2,0.8-4.2-0.1-5-2.1c-0.5-2.1,0.8-4.1,2.8-4.7c2-0.8,4.2,0.1,5,2.1
			C80.5,44.1,79.3,46.2,77.2,46.7"/>
		<path id="Path_42587" class="st7" d="M72.8,45.1c0,1.2-1,2.2-2.2,2.2s-2.2-1-2.2-2.2s1-2.2,2.2-2.2S72.8,43.9,72.8,45.1L72.8,45.1
			"/>
	</g>
	<g class="s2">
		<path id="Path_42578-2" class="st6" d="M25.1,14.4c0.1,2.1-1.4,4-3.6,4.1c-2.1-0.2-3.7-2-3.6-4.1c-0.1-2.1,1.4-4,3.6-4.1
			C23.6,10.4,25.2,12.3,25.1,14.4"/>
		<path id="Path_42579-2" class="st6" d="M17.1,15c2.1,0.5,3.3,2.6,2.8,4.7c-0.8,2-3.1,2.9-5,2.1c-2.1-0.5-3.3-2.6-2.8-4.6
			C12.9,15.2,15.1,14.2,17.1,15"/>
		<path id="Path_42581-2" class="st6" d="M15.2,22.8c1.1-1.8,3.5-2.4,5.3-1.2c1.6,1.4,1.8,3.8,0.4,5.4c-1.1,1.8-3.5,2.4-5.3,1.2
			C14.1,26.9,13.9,24.4,15.2,22.8"/>
		<path id="Path_42583-2" class="st6" d="M22.1,27c-1.4-1.6-1.2-4,0.4-5.4c1.8-1.1,4.2-0.5,5.3,1.2c1.4,1.6,1.2,4-0.4,5.4
			C25.6,29.4,23.2,28.8,22.1,27"/>
		<path id="Path_42585-2" class="st6" d="M28.2,21.8c-2,0.8-4.2-0.1-5-2.1c-0.5-2.1,0.8-4.1,2.8-4.7c2-0.8,4.2,0.1,5,2.1
			C31.5,19.2,30.2,21.3,28.2,21.8"/>
		<path id="Path_42587-2" class="st7" d="M23.8,20.2c0,1.2-1,2.2-2.2,2.2s-2.2-1-2.2-2.2c0-1.2,1-2.2,2.2-2.2
			C22.8,18,23.8,19,23.8,20.2L23.8,20.2"/>
	</g>
</g>
</svg>
