<svg xmlns="http://www.w3.org/2000/svg" xmlns:xlink="http://www.w3.org/1999/xlink" width="85.699" height="105.263" viewBox="0 0 85.699 105.263">
<style>
  #line1 {animation:ani1 linear both infinite 3s;}
  #line2 {animation:ani2 linear both infinite 3s;}
  #line3 {animation:ani3 linear both infinite 3s;}

  @keyframes ani1 {
    0% {opacity:0;}	
    10% {opacity:1;}
    95% {opacity:1;}
    100% {opacity:0;}
  }
  @keyframes ani2 {
    0% {opacity:0;}
    10% {opacity:0;}
    20% {opacity:1;}
    95% {opacity:1;}
    100% {opacity:0;}
  }
  @keyframes ani3 {
    0% {opacity:0;}	
    20% {opacity:0;}
    30% {opacity:1;}
    95% {opacity:1;}
    100% {opacity:0;}
  }
</style>
  <defs>
    <clipPath id="clip-path">
      <rect id="사각형_20764" data-name="사각형 20764" width="78.915" height="100.002" fill="none"/>
    </clipPath>
  </defs>
  <g id="img" transform="matrix(0.998, 0.07, -0.07, 0.998, 6.976, 0)">
    <g id="그룹_113014" data-name="그룹 113014">
      <g id="그룹_113013" data-name="그룹 113013" clip-path="url(#clip-path)">
      
        <path id="패스_38779" data-name="패스 38779" d="M37.807,40.877c0-.012.007-.027,0-.038-7.714-12-3.823-26.392-11.31-26.392-6.487,0-12.4,14.181-6.062,22.669h-.082C10.194,37.116,7.4,45.35,7.4,55.51S10.193,73.9,20.351,73.9,44.19,72.786,44.19,55.506c0-7.539-2.6-12-6.383-14.634" transform="translate(2.602 5.076)" fill="#fec211"/>
        <path id="패스_38780" data-name="패스 38780" d="M37.807,40.877c0-.012.007-.027,0-.038-7.714-12-3.823-26.392-11.31-26.392-6.487,0-12.4,14.181-6.062,22.669h-.082C10.194,37.116,7.4,45.35,7.4,55.51S10.193,73.9,20.351,73.9,44.19,72.786,44.19,55.506C44.19,47.972,41.585,43.512,37.807,40.877Z" transform="translate(2.602 5.076)" fill="none" stroke="#0c0c0d" stroke-linecap="round" stroke-linejoin="round" stroke-width="3"/>
        <path id="패스_38781" data-name="패스 38781" d="M27.926,36.09c0,5.164-5.335,6.02-11.918,6.02S4.089,41.253,4.089,36.09,9.42,30.068,16.01,30.068s11.918.857,11.918,6.02" transform="translate(1.437 10.565)" fill="#fec211"/>
        <path id="패스_38782" data-name="패스 38782" d="M27.926,36.09c0,5.164-5.335,6.02-11.918,6.02S4.089,41.253,4.089,36.09,9.42,30.068,16.01,30.068,27.926,30.925,27.926,36.09Z" transform="translate(1.437 10.565)" fill="none" stroke="#0c0c0d" stroke-linecap="round" stroke-linejoin="round" stroke-width="3"/>
        <path id="패스_38783" data-name="패스 38783" d="M28.241,41.924c.415,5.473-5.17,6.808-12.146,7.338s-12.7.051-13.108-5.422S8.151,37.027,15.122,36.5s12.7-.051,13.108,5.422" transform="translate(1.042 12.769)" fill="#fec211"/>
        <path id="패스_38784" data-name="패스 38784" d="M28.241,41.924c.415,5.473-5.17,6.808-12.146,7.338s-12.7.051-13.108-5.422S8.151,37.027,15.122,36.5,27.825,36.451,28.241,41.924Z" transform="translate(1.042 12.769)" fill="none" stroke="#0c0c0d" stroke-linecap="round" stroke-linejoin="round" stroke-width="3"/>
        <line id="line1" data-name="선 1832" x1="3.537" y1="8.506" transform="translate(17.285 5.824)" fill="none" stroke="#0c0c0d" stroke-linecap="round" stroke-linejoin="round" stroke-width="3"/>
        <line id="line2" data-name="선 1830" y1="9.212" transform="translate(28.399 2.955)" fill="none" stroke="#0c0c0d" stroke-linecap="round" stroke-linejoin="round" stroke-width="3"/>
        <line id="line3" data-name="선 1831" y1="8.506" x2="3.537" transform="translate(35.975 5.824)" fill="none" stroke="#0c0c0d" stroke-linecap="round" stroke-linejoin="round" stroke-width="3"/>
        <path id="패스_38785" data-name="패스 38785" d="M28.7,48.513c.853,5.422-4.608,7.2-11.519,8.288S4.524,57.87,3.673,52.447s4.61-7.2,11.519-8.288S27.846,43.091,28.7,48.513" transform="translate(1.26 15.318)" fill="#fec211"/>
        <path id="패스_38786" data-name="패스 38786" d="M28.7,48.513c.853,5.422-4.608,7.2-11.519,8.288S4.524,57.87,3.673,52.447s4.61-7.2,11.519-8.288S27.845,43.091,28.7,48.513Z" transform="translate(1.26 15.318)" fill="none" stroke="#0c0c0d" stroke-linecap="round" stroke-linejoin="round" stroke-width="3"/>
        <path id="패스_38787" data-name="패스 38787" d="M28.458,54.917c.751,4.777-4.054,6.351-10.15,7.3s-11.149.946-11.9-3.837,4.054-6.351,10.15-7.3,11.149-.946,11.9,3.837" transform="translate(2.224 17.775)" fill="#fec211"/>
        <path id="패스_38788" data-name="패스 38788" d="M28.458,54.916c.751,4.777-4.054,6.351-10.15,7.3s-11.149.946-11.9-3.837,4.054-6.351,10.15-7.3S27.706,50.139,28.458,54.916Z" transform="translate(2.224 17.776)" fill="none" stroke="#0c0c0d" stroke-linecap="round" stroke-linejoin="round" stroke-width="3"/>
      </g>
    </g>
  </g>
</svg>
