<svg xmlns="http://www.w3.org/2000/svg" width="89" height="84" viewBox="0 0 89 84">
  <g id="img" transform="translate(-13463 -123)">
    <rect id="Rectangle_21736" data-name="Rectangle 21736" width="89" height="84" transform="translate(13463 123)" fill="none"/>
    <g id="Group_115639" data-name="Group 115639" transform="translate(-20.322 8.581)">
      <g id="Group_115634" data-name="Group 115634" transform="translate(13505.687 123.869)">
        <g id="Group_115635" data-name="Group 115635" transform="translate(0 0)">
          <path id="Path_42591" data-name="Path 42591" d="M42.563,27.47a18.121,18.121,0,0,1-1.8,4.6c-1.433,2.684-5.933,1.628-3.9-4.791s.027-12.058-5.481-15.85S24.7,4.471,24.7,4.471c-.092,4.555-4.335,12.973-7.757,14.063S13.259,14.6,13.259,14.6c-11.171,10.816-3.711,24-7.5,25.536S1.18,37.024,1.18,37.024C-.128,53.736,5.51,64.016,24.7,64.016c29.158,0,17.863-36.546,17.863-36.546" transform="translate(-1 -3.237)" fill="#f06a86" stroke="#000" stroke-linecap="round" stroke-linejoin="round" stroke-width="2"/>
          <path id="Path_42593" data-name="Path 42593" d="M45.971,97.562c-8.594,0-11.5-6.881-11.5-11.218,1.022,1.307,4.737,1.543,5.216-3.006.016-.154.029-.343.039-.562a19.035,19.035,0,0,1,6.649-13.9,9.7,9.7,0,0,0,1.727-1.727c-.043.262-.1.544-.185.85-1.939,7.434.01,12.249,1.345,14.457,1.228,2.031,3.6,2.918,5.367,1.349-.061,3.286-.336,13.753-8.661,13.753" transform="translate(-22.572 -43.632)" fill="#fff"/>
          <path id="Path_42594" data-name="Path 42594" d="M40.866,7.657S44.111,4.051,42.747,1c0,0,7.44,4.669-1.881,6.657" transform="translate(-27.556 -1)" fill="#f06a86" stroke="#000" stroke-linecap="round" stroke-linejoin="round" stroke-width="2"/>
          <path id="Path_42596" data-name="Path 42596" d="M116.616,51.527a9.193,9.193,0,0,1-.538,3.043s-2.549-1.362-2.549-3.043,2.549-3.043,2.549-3.043a9.193,9.193,0,0,1,.538,3.043" transform="translate(-73.298 -34.596)" fill="#f06a86" stroke="#000" stroke-linecap="round" stroke-linejoin="round" stroke-width="2"/>
        </g>
      </g>
      <path id="Path_42598" data-name="Path 42598" d="M1.43,7.741.149,5.611A1.039,1.039,0,0,1,.5,4.186L7.214.149A1.038,1.038,0,0,1,8.639.5L9.92,2.633a1.038,1.038,0,0,1-.354,1.425L2.855,8.1A1.038,1.038,0,0,1,1.43,7.741" transform="matrix(0.809, 0.588, -0.588, 0.809, 13498.588, 128.422)" fill="#fff" stroke="#000" stroke-linejoin="round" stroke-width="2"/>
      <path id="Path_42599" data-name="Path 42599" d="M9.5,6.612,7.938,8.546a1.038,1.038,0,0,1-1.46.155L.386,3.78A1.038,1.038,0,0,1,.231,2.32L1.793.386A1.038,1.038,0,0,1,3.253.231L9.345,5.152A1.039,1.039,0,0,1,9.5,6.612" transform="matrix(0.974, 0.225, -0.225, 0.974, 13504.355, 118.898)" fill="#7582f0" stroke="#000" stroke-linejoin="round" stroke-width="2"/>
      <path id="Path_42601" data-name="Path 42601" d="M236.474,163.482l-2.221-.82c-.512-.189-.719-.647-.461-1.023l3.518-5.137a1.237,1.237,0,0,1,1.394-.339l2.221.82c.512.189.719.647.461,1.023l-3.518,5.137a1.236,1.236,0,0,1-1.394.339" transform="translate(13321.839 -10.782)" fill="#16ab72" stroke="#000" stroke-linejoin="round" stroke-width="2"/>
      <path id="Path_42603" data-name="Path 42603" d="M192.244,10.844,190.153,9.5a1.038,1.038,0,0,1-.312-1.435l4.235-6.587a1.039,1.039,0,0,1,1.435-.312L197.6,2.51a1.039,1.039,0,0,1,.312,1.435l-4.235,6.587a1.039,1.039,0,0,1-1.435.312" transform="translate(13354.444 119.889)" fill="#fff" stroke="#000" stroke-linejoin="round" stroke-width="2"/>
      <path id="Path_42606" data-name="Path 42606" d="M16.369,72.092l-2.244.687a1.341,1.341,0,0,1-1.384-.315l-3.37-4.537c-.247-.332-.028-.73.49-.888l2.244-.687a1.341,1.341,0,0,1,1.384.315L16.86,71.2c.247.332.027.73-.49.888" transform="translate(13483.039 96.059)" fill="#16ab72" stroke="#000" stroke-linejoin="round" stroke-width="2"/>
      <path id="Path_42608" data-name="Path 42608" d="M5.076,158.12a2.038,2.038,0,1,1-2.038-2.038,2.038,2.038,0,0,1,2.038,2.038" transform="translate(13498.999 -10.782)" fill="#fec211" stroke="#000" stroke-linejoin="round" stroke-width="2"/>
      <path id="Path_42610" data-name="Path 42610" d="M182.066,41.312A2.762,2.762,0,1,1,179.3,38.55a2.763,2.763,0,0,1,2.762,2.762" transform="translate(13358.316 79.181)" fill="#f06a86" stroke="#000" stroke-linecap="round" stroke-linejoin="round" stroke-width="2"/>
      <path id="Path_42611" data-name="Path 42611" d="M215.324,205.988a2.358,2.358,0,1,1-2.358-2.358,2.358,2.358,0,0,1,2.358,2.358" transform="translate(13342.555 -34.727)" fill="#fec211" stroke="#000" stroke-linejoin="round" stroke-width="2"/>
    </g>
  </g>
</svg>
