<svg xmlns="http://www.w3.org/2000/svg" width="87.217" height="87.217" viewBox="0 0 87.217 87.217">
  <g id="그룹_116308" data-name="그룹 116308" transform="matrix(0.966, 0.259, -0.259, 0.966, 20.573, 3.709)" opacity="0.8">
    <g id="그룹_116294" data-name="그룹 116294" transform="translate(0 0)">
      <path id="패스_52141" data-name="패스 52141" d="M64.907,28.585A32.574,32.574,0,1,1,28.587.249a32.576,32.576,0,0,1,36.32,28.336" fill="#fff"/>
      <path id="패스_52142" data-name="패스 52142" d="M64.907,28.585A32.574,32.574,0,1,1,28.587.249,32.576,32.576,0,0,1,64.907,28.585Z" fill="none" stroke="#fff" stroke-linecap="round" stroke-linejoin="round" stroke-width="6"/>
      <path id="패스_52143" data-name="패스 52143" d="M64.907,28.585A32.574,32.574,0,1,1,28.587.249a32.576,32.576,0,0,1,36.32,28.336" fill="#ffd833"/>
      <path id="패스_52144" data-name="패스 52144" d="M64.907,28.585A32.574,32.574,0,1,1,28.587.249,32.576,32.576,0,0,1,64.907,28.585Z" fill="none" stroke="#000" stroke-linecap="round" stroke-linejoin="round" stroke-width="2"/>
      <path id="패스_52145" data-name="패스 52145" d="M7.65,7.3c.529,4.281-.73,7.96-2.808,8.214S.65,12.509.121,8.228.85.271,2.927.014s4.194,3,4.723,7.285" transform="translate(17.604 19.662)"/>
      <path id="패스_52146" data-name="패스 52146" d="M7.65,7.3c.53,4.28-.729,7.958-2.808,8.214S.65,12.51.121,8.228.849.272,2.929.014,7.12,3.02,7.65,7.3" transform="translate(38.197 17.119)"/>
      <path id="패스_52147" data-name="패스 52147" d="M27.753,0A13.982,13.982,0,0,1,0,3.428" transform="translate(19.344 34.055)" fill="none" stroke="#000" stroke-linecap="round" stroke-linejoin="round" stroke-width="2"/>
      <path id="패스_52148" data-name="패스 52148" d="M0,2.859s5.969-5.772,15.281-.914" transform="translate(25.238 26.091)" fill="none" stroke="#d25980" stroke-linecap="round" stroke-miterlimit="10" stroke-width="2"/>
      <path id="패스_52149" data-name="패스 52149" d="M21.663,10.614a8.668,8.668,0,0,1-7.892,9.376l-3.88.335c-4.768.412-9.114-1.931-9.526-6.7L.033,9.746A8.666,8.666,0,0,1,7.92.368L11.8.033a8.666,8.666,0,0,1,9.377,7.891Z" transform="translate(8.756 18.399)" fill="#272525"/>
      <path id="패스_52150" data-name="패스 52150" d="M21.663,10.614a8.668,8.668,0,0,1-7.892,9.376l-3.88.335c-4.768.412-9.114-1.931-9.526-6.7L.033,9.746A8.666,8.666,0,0,1,7.92.368L11.8.033a8.666,8.666,0,0,1,9.377,7.891Z" transform="translate(8.756 18.399)" fill="none" stroke="#d25980" stroke-linecap="round" stroke-miterlimit="10" stroke-width="2"/>
      <path id="패스_52151" data-name="패스 52151" d="M21.165,11.609A8.524,8.524,0,0,1,13.4,20.835l-3.819.329A8.519,8.519,0,0,1,.363,13.4L.032,9.586A8.523,8.523,0,0,1,7.791.362l3.822-.33a8.528,8.528,0,0,1,9.225,7.762Z" transform="translate(36.481 16.313)" fill="#272525"/>
      <path id="패스_52152" data-name="패스 52152" d="M21.165,11.609A8.524,8.524,0,0,1,13.4,20.835l-3.819.329A8.519,8.519,0,0,1,.363,13.4L.032,9.586A8.523,8.523,0,0,1,7.791.362l3.822-.33a8.528,8.528,0,0,1,9.225,7.762Z" transform="translate(36.481 16.313)" fill="none" stroke="#d25980" stroke-linecap="round" stroke-miterlimit="10" stroke-width="2"/>
      <line id="선_816" data-name="선 816" y1="10.279" x2="8.095" transform="translate(44.026 22.883)" fill="none" stroke="#fff" stroke-linecap="round" stroke-linejoin="round" stroke-width="2"/>
      <line id="선_817" data-name="선 817" y1="5.967" x2="4.702" transform="translate(48.885 27.973)" fill="none" stroke="#fff" stroke-linecap="round" stroke-linejoin="round" stroke-width="2"/>
      <line id="선_818" data-name="선 818" y1="10.445" x2="8.234" transform="translate(12.784 21.622)" fill="none" stroke="#fff" stroke-linecap="round" stroke-linejoin="round" stroke-width="2"/>
      <line id="선_819" data-name="선 819" y1="6.065" x2="4.78" transform="translate(16.622 26.892)" fill="none" stroke="#fff" stroke-linecap="round" stroke-linejoin="round" stroke-width="2"/>
    </g>
  </g>
</svg>
