<svg xmlns="http://www.w3.org/2000/svg" width="49.011" height="52.057" viewBox="0 0 49.011 52.057">
  <g id="Group_112037" data-name="Group 112037" transform="translate(-319.637 -1692.188)">
    <g id="Group_110081" data-name="Group 110081" transform="translate(22548.998 24617.336)">
      <g id="Group_110155" data-name="Group 110155" transform="translate(-22489.332 -24076.336)">
        <path id="Path_37263" data-name="Path 37263" d="M27.477,123.78c.916.916,3.445,6.763,3.445,6.763s-5.847-2.529-6.763-3.446a2.346,2.346,0,0,1,3.318-3.318" transform="translate(261.383 1042.064)" fill="#fff" stroke="#000" stroke-width="1"/>
        <path id="Path_37264" data-name="Path 37264" d="M27.477,123.78c.916.916,3.445,6.763,3.445,6.763s-5.847-2.529-6.763-3.446a2.346,2.346,0,0,1,3.318-3.318Z" transform="translate(261.383 1042.064)" fill="none" stroke="#000" stroke-linecap="round" stroke-linejoin="round" stroke-width="2"/>
        <path id="Path_37265" data-name="Path 37265" d="M46.821,123.78c-.916.916-3.445,6.763-3.445,6.763s5.847-2.529,6.763-3.446a2.346,2.346,0,1,0-3.318-3.318" transform="translate(248.932 1042.064)" fill="#fff" stroke="#000" stroke-width="1"/>
        <path id="Path_37266" data-name="Path 37266" d="M46.821,123.78c-.916.916-3.445,6.763-3.445,6.763s5.847-2.529,6.763-3.446a2.346,2.346,0,1,0-3.318-3.318Z" transform="translate(248.932 1042.064)" fill="none" stroke="#000" stroke-linecap="round" stroke-linejoin="round" stroke-width="2"/>
        <rect id="Rectangle_19796" data-name="Rectangle 19796" width="31.351" height="6.862" transform="translate(276.631 1172.826)" fill="#f06a86" stroke="#000" stroke-width="1"/>
        <rect id="Rectangle_19797" data-name="Rectangle 19797" width="31.351" height="6.862" transform="translate(276.631 1172.826)" fill="none" stroke="#000" stroke-linecap="round" stroke-linejoin="round" stroke-width="2"/>
        <rect id="Rectangle_19798" data-name="Rectangle 19798" width="28.631" height="22.557" transform="translate(277.99 1179.688)" fill="#f06a86" stroke="#000" stroke-width="1"/>
        <rect id="Rectangle_19799" data-name="Rectangle 19799" width="28.631" height="22.557" transform="translate(277.99 1179.688)" fill="none" stroke="#000" stroke-linecap="round" stroke-linejoin="round" stroke-width="2"/>
        <rect id="Rectangle_19800" data-name="Rectangle 19800" width="3.783" height="29.419" transform="translate(290.414 1172.826)" fill="#fff" stroke="#000" stroke-width="1"/>
        <rect id="Rectangle_19801" data-name="Rectangle 19801" width="3.783" height="29.419" transform="translate(290.414 1172.826)" fill="none" stroke="#000" stroke-linecap="round" stroke-linejoin="round" stroke-width="2"/>
      </g>
    </g>
    <g id="Group_112033" data-name="Group 112033" transform="matrix(0.985, -0.174, 0.174, 0.985, -297.916, 81.475)">
      <path id="Path_37261" data-name="Path 37261" d="M142.107,65.9a1.665,1.665,0,0,0-2.155,1,1.665,1.665,0,0,0-1.042-2.136,1.7,1.7,0,0,0-2.115,1.075l-.034.094a4.238,4.238,0,0,0,.723,4.111l.945,1.148,1.457-.3a4.238,4.238,0,0,0,3.152-2.737l.033-.094a1.7,1.7,0,0,0-.965-2.167" transform="translate(192.259 1630.681)" fill="#ff6e6e" stroke="#000" stroke-width="1"/>
      <path id="Path_37262" data-name="Path 37262" d="M142.107,65.9a1.665,1.665,0,0,0-2.155,1,1.665,1.665,0,0,0-1.042-2.136,1.7,1.7,0,0,0-2.115,1.075l-.034.094a4.238,4.238,0,0,0,.723,4.111l.945,1.148,1.457-.3a4.238,4.238,0,0,0,3.152-2.737l.033-.094A1.7,1.7,0,0,0,142.107,65.9Z" transform="translate(192.259 1630.681)" fill="none" stroke="#000" stroke-linecap="round" stroke-linejoin="round" stroke-width="1"/>
    </g>
    <g id="Group_112034" data-name="Group 112034" transform="matrix(0.875, -0.485, 0.485, 0.875, -782.747, 379.892)">
      <path id="Path_37261-2" data-name="Path 37261" d="M143.614,66.228a2.115,2.115,0,0,0-2.736,1.272,2.114,2.114,0,0,0-1.323-2.712,2.161,2.161,0,0,0-2.685,1.365l-.043.12a5.38,5.38,0,0,0,.918,5.219l1.2,1.457,1.85-.375a5.38,5.38,0,0,0,4-3.475l.043-.12a2.16,2.16,0,0,0-1.225-2.752" transform="translate(192.259 1630.681)" fill="#ff3958" stroke="#000" stroke-width="1"/>
      <path id="Path_37262-2" data-name="Path 37262" d="M143.614,66.228a2.115,2.115,0,0,0-2.736,1.272,2.114,2.114,0,0,0-1.323-2.712,2.161,2.161,0,0,0-2.685,1.365l-.043.12a5.38,5.38,0,0,0,.918,5.219l1.2,1.457,1.85-.375a5.38,5.38,0,0,0,4-3.475l.043-.12A2.16,2.16,0,0,0,143.614,66.228Z" transform="translate(192.259 1630.681)" fill="none" stroke="#000" stroke-linecap="round" stroke-linejoin="round" stroke-width="1"/>
    </g>
  </g>
</svg>
