<svg xmlns="http://www.w3.org/2000/svg" width="80" height="80.08" viewBox="0 0 80 80.08">
  <g id="icon" transform="translate(-271.057 -1161.92)">
    <rect id="Rectangle_20383" data-name="Rectangle 20383" width="80" height="80" transform="translate(271.057 1162)" fill="#fff" opacity="0"/>
    <path id="Path_37886" data-name="Path 37886" d="M54.423,47.133H4.615A3.115,3.115,0,0,0,1.5,50.248V84.065A3.115,3.115,0,0,0,4.615,87.18H9.588L20.927,98.021a1.243,1.243,0,0,0,2.019-1.344L19.3,87.18H54.423a3.115,3.115,0,0,0,3.115-3.115V50.248a3.115,3.115,0,0,0-3.115-3.115" transform="translate(273.529 1136.81)" fill="#7582f0"/>
    <path id="Path_37887" data-name="Path 37887" d="M54.423,47.133H4.615A3.115,3.115,0,0,0,1.5,50.248V84.065A3.115,3.115,0,0,0,4.615,87.18H9.588L20.927,98.021a1.243,1.243,0,0,0,2.019-1.344L19.3,87.18H54.423a3.115,3.115,0,0,0,3.115-3.115V50.248A3.115,3.115,0,0,0,54.423,47.133Z" transform="translate(273.529 1136.81)" fill="none" stroke="#080d4b" stroke-linecap="round" stroke-linejoin="round" stroke-width="2"/>
    <path id="Path_37888" data-name="Path 37888" d="M186.714,93.07,172.357,85.8V72.46l14.357-7.274a2.188,2.188,0,0,1,3.177,1.952v23.98a2.188,2.188,0,0,1-3.177,1.952" transform="translate(158.71 1124.838)" fill="#7582f0"/>
    <path id="Path_37889" data-name="Path 37889" d="M186.714,93.07,172.357,85.8V72.46l14.357-7.274a2.188,2.188,0,0,1,3.177,1.952v23.98A2.188,2.188,0,0,1,186.714,93.07Z" transform="translate(158.71 1124.838)" fill="none" stroke="#080d4b" stroke-linecap="round" stroke-linejoin="round" stroke-width="2"/>
    <path id="Path_37891" data-name="Path 37891" d="M128.174,6.244l-2.6,2.6a12.54,12.54,0,0,0-17.723,0l-2.6-2.6a16.213,16.213,0,0,1,22.919,0Z" transform="translate(202.894 1161.42)" fill="#7582f0" stroke="#080d4b" stroke-linecap="round" stroke-linejoin="round" stroke-width="2"/>
    <path id="Path_37893" data-name="Path 37893" d="M132.409,24.775l-2.6,2.6a5.194,5.194,0,0,0-7.333,0l-2.6-2.6a8.867,8.867,0,0,1,12.529,0Z" transform="translate(193.466 1147.749)" fill="#7582f0" stroke="#080d4b" stroke-linecap="round" stroke-linejoin="round" stroke-width="2"/>
    <path id="Path_37895" data-name="Path 37895" d="M134.181,41.943a1.837,1.837,0,1,1-1.837,1.837A1.837,1.837,0,0,1,134.181,41.943Z" transform="translate(185.43 1134.672)" fill="#7582f0" stroke="#080d4b" stroke-linecap="round" stroke-linejoin="round" stroke-width="2"/>
    <circle id="Ellipse_677" data-name="Ellipse 677" cx="2.004" cy="2.004" r="2.004" transform="translate(295.054 1197.312)" fill="#080d4b"/>
    <circle id="Ellipse_678" data-name="Ellipse 678" cx="2.004" cy="2.004" r="2.004" transform="translate(307.629 1197.312)" fill="#080d4b"/>
    <path id="Path_37885" data-name="Path 37885" d="M43.588,56.607a7.459,7.459,0,0,1,12.638,0" transform="translate(253.406 1154.013)" fill="none" stroke="#080d4b" stroke-linecap="round" stroke-miterlimit="10" stroke-width="1.5"/>
  </g>
</svg>
