<svg xmlns="http://www.w3.org/2000/svg" width="72" height="72" viewBox="0 0 72 72">
  <g id="그룹_116313" data-name="그룹 116313" transform="translate(16099 -6741)">
    <rect id="사각형_22361" data-name="사각형 22361" width="72" height="72" transform="translate(-16099 6741)" fill="none"/>
    <g id="그룹_116282" data-name="그룹 116282" transform="translate(-16096.221 6749.793)">
      <g id="그룹_116281" data-name="그룹 116281" transform="translate(44.851 0) rotate(30)">
        <g id="그룹_116280" data-name="그룹 116280" transform="translate(0 0)">
          <path id="패스_42705" data-name="패스 42705" d="M21.818,2.529h0L19.6.468a1.1,1.1,0,0,0-1.8,0L15.582,2.523,13.367.468a1.1,1.1,0,0,0-1.8,0L9.35,2.523,7.135.468a1.1,1.1,0,0,0-1.8,0L3.115,2.528.8.326A.44.44,0,0,0,0,.578v5.8H5.053v0h14.83v0h5.053V.578a.44.44,0,0,0-.8-.252Z" transform="translate(0 0)" fill="#fff" stroke="#707070" stroke-width="2"/>
          <path id="패스_42706" data-name="패스 42706" d="M21.818,2.529h0L19.6.468a1.1,1.1,0,0,0-1.8,0L15.582,2.523,13.367.468a1.1,1.1,0,0,0-1.8,0L9.35,2.523,7.135.468a1.1,1.1,0,0,0-1.8,0L3.115,2.528.8.326A.44.44,0,0,0,0,.578v5.8H5.053v0h14.83v0h5.053V.578a.44.44,0,0,0-.8-.252Z" transform="translate(0 0)" fill="none" stroke="#000" stroke-linecap="round" stroke-linejoin="round" stroke-width="2"/>
          <path id="패스_42707" data-name="패스 42707" d="M3.115,3.853h0L5.335,5.914a1.1,1.1,0,0,0,1.8,0L9.351,3.858l2.215,2.055a1.1,1.1,0,0,0,1.8,0l2.215-2.055L17.8,5.914a1.1,1.1,0,0,0,1.8,0l2.218-2.06,2.314,2.2a.44.44,0,0,0,.8-.252V0H19.881V0H5.052V0H0V5.8a.44.44,0,0,0,.8.252Z" transform="translate(0 42.054)" fill="#fff" stroke="#707070" stroke-width="2"/>
          <path id="패스_42708" data-name="패스 42708" d="M3.115,3.853h0L5.335,5.914a1.1,1.1,0,0,0,1.8,0L9.351,3.858l2.215,2.055a1.1,1.1,0,0,0,1.8,0l2.215-2.055L17.8,5.914a1.1,1.1,0,0,0,1.8,0l2.218-2.06,2.314,2.2a.44.44,0,0,0,.8-.252V0H19.881V0H5.052V0H0V5.8a.44.44,0,0,0,.8.252Z" transform="translate(0 42.054)" fill="none" stroke="#000" stroke-linecap="round" stroke-linejoin="round" stroke-width="2"/>
          <rect id="사각형_22359" data-name="사각형 22359" width="24.933" height="35.672" transform="translate(0 6.382)" fill="#fec961" stroke="#707070" stroke-width="2"/>
          <rect id="사각형_22360" data-name="사각형 22360" width="24.933" height="35.672" transform="translate(0 6.382)" fill="#fff" stroke="#000" stroke-miterlimit="10" stroke-width="2"/>
          <line id="선_811" data-name="선 811" y2="0.55" transform="translate(12.467 6.382)" fill="none" stroke="#000" stroke-linecap="round" stroke-linejoin="round" stroke-width="2"/>
          <line id="선_812" data-name="선 812" y2="31.33" transform="translate(12.467 9.093)" fill="none" stroke="#000" stroke-linecap="round" stroke-linejoin="round" stroke-width="2" stroke-dasharray="1 3"/>
          <line id="선_813" data-name="선 813" y2="0.55" transform="translate(12.467 41.504)" fill="none" stroke="#000" stroke-linecap="round" stroke-linejoin="round" stroke-width="2"/>
        </g>
      </g>
      <g id="그룹_116279" data-name="그룹 116279" transform="translate(24.218 0) rotate(30)">
        <g id="그룹_116280-2" data-name="그룹 116280" transform="translate(0 0)">
          <path id="패스_42705-2" data-name="패스 42705" d="M21.818,2.529h0L19.6.468a1.1,1.1,0,0,0-1.8,0L15.582,2.523,13.367.468a1.1,1.1,0,0,0-1.8,0L9.35,2.523,7.135.468a1.1,1.1,0,0,0-1.8,0L3.115,2.528.8.326A.44.44,0,0,0,0,.578v5.8H5.053v0h14.83v0h5.053V.578a.44.44,0,0,0-.8-.252Z" transform="translate(0 0)" fill="#fff" stroke="#707070" stroke-width="2"/>
          <path id="패스_42706-2" data-name="패스 42706" d="M21.818,2.529h0L19.6.468a1.1,1.1,0,0,0-1.8,0L15.582,2.523,13.367.468a1.1,1.1,0,0,0-1.8,0L9.35,2.523,7.135.468a1.1,1.1,0,0,0-1.8,0L3.115,2.528.8.326A.44.44,0,0,0,0,.578v5.8H5.053v0h14.83v0h5.053V.578a.44.44,0,0,0-.8-.252Z" transform="translate(0 0)" fill="none" stroke="#000" stroke-linecap="round" stroke-linejoin="round" stroke-width="2"/>
          <path id="패스_42707-2" data-name="패스 42707" d="M3.115,3.853h0L5.335,5.914a1.1,1.1,0,0,0,1.8,0L9.351,3.858l2.215,2.055a1.1,1.1,0,0,0,1.8,0l2.215-2.055L17.8,5.914a1.1,1.1,0,0,0,1.8,0l2.218-2.06,2.314,2.2a.44.44,0,0,0,.8-.252V0H19.881V0H5.052V0H0V5.8a.44.44,0,0,0,.8.252Z" transform="translate(0 42.054)" fill="#fff" stroke="#707070" stroke-width="2"/>
          <path id="패스_42708-2" data-name="패스 42708" d="M3.115,3.853h0L5.335,5.914a1.1,1.1,0,0,0,1.8,0L9.351,3.858l2.215,2.055a1.1,1.1,0,0,0,1.8,0l2.215-2.055L17.8,5.914a1.1,1.1,0,0,0,1.8,0l2.218-2.06,2.314,2.2a.44.44,0,0,0,.8-.252V0H19.881V0H5.052V0H0V5.8a.44.44,0,0,0,.8.252Z" transform="translate(0 42.054)" fill="none" stroke="#000" stroke-linecap="round" stroke-linejoin="round" stroke-width="2"/>
          <rect id="사각형_22359-2" data-name="사각형 22359" width="24.933" height="35.672" transform="translate(0 6.382)" fill="#fff" stroke="#707070" stroke-width="2"/>
          <rect id="사각형_22360-2" data-name="사각형 22360" width="24.933" height="35.672" transform="translate(0 6.382)" fill="none" stroke="#000" stroke-miterlimit="10" stroke-width="2"/>
          <line id="선_811-2" data-name="선 811" y2="0.55" transform="translate(12.467 6.382)" fill="none" stroke="#000" stroke-linecap="round" stroke-linejoin="round" stroke-width="2"/>
          <line id="선_812-2" data-name="선 812" y2="31.33" transform="translate(12.467 9.093)" fill="none" stroke="#000" stroke-linecap="round" stroke-linejoin="round" stroke-width="2" stroke-dasharray="1 3"/>
          <line id="선_813-2" data-name="선 813" y2="0.55" transform="translate(12.467 41.504)" fill="none" stroke="#000" stroke-linecap="round" stroke-linejoin="round" stroke-width="2"/>
        </g>
      </g>
    </g>
  </g>
</svg>
