<?xml version="1.0" encoding="utf-8"?>
<!-- Generator: Adobe Illustrator 26.1.0, SVG Export Plug-In . SVG Version: 6.00 Build 0)  -->
<svg version="1.1" xmlns="http://www.w3.org/2000/svg" xmlns:xlink="http://www.w3.org/1999/xlink" x="0px" y="0px" viewBox="0 0 170 235" style="enable-background:new 0 0 170 235;" xml:space="preserve">
<style type="text/css">
.st0{fill:#F06A86;}
.st1{fill:none;stroke:#080D4B;stroke-width:2;}
.st2{fill:none;stroke:#080D4B;stroke-width:2;stroke-linecap:round;stroke-linejoin:round;}
.st3{fill:#080D4B;}
.st4{fill:#FFFFFF;}
.st5{fill:#FFFFFF;stroke:#707070;stroke-width:1.9992;stroke-miterlimit:3.9984;}
.st6{fill:none;stroke:#080D4B;stroke-width:1.9992;stroke-linecap:round;stroke-linejoin:round;stroke-miterlimit:3.9984;}
.st7{fill:#F06A86;stroke:#707070;stroke-width:1.9992;stroke-miterlimit:3.9984;}
.st8{fill:#F06A86;stroke:#707070;stroke-width:1.5994;stroke-miterlimit:3.9984;}
	
#bal {animation:bal both linear infinite 2s;transform-origin:32% 110%;}

@keyframes bal {
0% {transform:rotate(-5deg);}
50% {transform:rotate(3deg);}
100% {transform:rotate(-5deg);}
}
	
#balloon {animation:balloon both linear infinite 3s;}
@keyframes balloon {
0% {transform:translate(0,0);}
10% {transform:translate(0%,3%);}
20% {transform:translate(0,0);}
30% {transform:translate(0,0);}
40% {transform:translate(0%,3%);}
50% {transform:translate(0,0);}
100% {transform:translate(0,0);}
}

	
</style>
<g id="balloon">
	<g>
		<g id="사각형_20536" transform="translate(180 790)">
			<path class="st0" d="M-162-752.3h144c4.4,0,8,3.6,8,8v40c0,4.4-3.6,8-8,8h-144c-4.4,0-8-3.6-8-8v-40
				C-170-748.7-166.4-752.3-162-752.3z"/>
			<path class="st1" d="M-162-751.3h144c3.9,0,7,3.1,7,7v40c0,3.9-3.1,7-7,7h-144c-3.9,0-7-3.1-7-7v-40
				C-169-748.2-165.9-751.3-162-751.3z"/>
		</g>
		<path id="패스_38368" class="st0" d="M119.3,88.2l-11.1,20.4c-1,1.9,0.8,4.1,2.2,2.8l25.4-23.1"/>
		<path id="패스_38369" class="st2" d="M119.3,88.2l-11.1,20.4c-1,1.9,0.8,4.1,2.2,2.8l25.4-23.1"/>
		<path class="st3" d="M32.6,76.2c1.2,0,2.4-0.2,3.5-0.6c1-0.4,2-0.9,2.8-1.6c0.8-0.6,1.5-1.4,2-2.3c0.5-0.8,0.8-1.7,1-2.7h-4.2
			c-0.1,0.4-0.3,0.9-0.6,1.2c-0.3,0.4-0.7,0.8-1.1,1.1c-0.5,0.3-1,0.6-1.6,0.8c-0.6,0.2-1.2,0.3-1.9,0.3c-0.8,0-1.6-0.1-2.3-0.4
			c-0.7-0.3-1.3-0.7-1.8-1.2c-0.5-0.5-0.9-1.2-1.2-1.9c-0.6-1.5-0.6-3.2,0-4.7c0.6-1.4,1.7-2.5,3.1-3.1c0.7-0.3,1.5-0.4,2.3-0.4
			c0.6,0,1.2,0.1,1.8,0.2c0.5,0.1,1,0.4,1.5,0.7c0.4,0.3,0.8,0.6,1.1,1c0.3,0.4,0.5,0.8,0.6,1.2h4.2c-0.4-1.9-1.4-3.7-3-4.9
			c-0.8-0.6-1.8-1.1-2.7-1.5c-1.1-0.4-2.3-0.5-3.5-0.5c-1.3,0-2.7,0.2-3.9,0.7c-1.2,0.5-2.2,1.1-3.1,2c-0.9,0.9-1.6,1.9-2.1,3.1
			c-1,2.5-1,5.2,0,7.7c0.5,1.1,1.2,2.2,2.1,3.1c0.9,0.9,2,1.6,3.1,2C29.9,75.9,31.2,76.2,32.6,76.2z M43.5,67.6
			c0,1.2,0.2,2.4,0.6,3.5c0.4,1,1,1.9,1.7,2.7c0.8,0.8,1.7,1.4,2.7,1.7c2.2,0.8,4.7,0.8,6.9,0c1-0.4,1.9-1,2.7-1.7
			c0.8-0.8,1.3-1.7,1.7-2.7c0.4-1.1,0.6-2.3,0.6-3.5V57.3h-4.1v10.2c0,0.7-0.1,1.4-0.3,2c-0.2,0.6-0.5,1.1-0.9,1.5
			c-0.4,0.4-0.8,0.8-1.4,1c-1.2,0.5-2.5,0.5-3.6,0c-0.5-0.2-1-0.6-1.4-1c-0.4-0.5-0.7-1-0.9-1.5c-0.2-0.6-0.3-1.3-0.3-2V57.3h-4.1
			L43.5,67.6z M78.5,75.7l-4.3-6.6c0.5-0.2,1-0.6,1.4-0.9c0.4-0.4,0.8-0.8,1.1-1.2c0.3-0.5,0.5-1,0.6-1.5c0.2-0.6,0.2-1.2,0.2-1.8
			c0-0.9-0.2-1.8-0.5-2.6c-0.3-0.8-0.8-1.4-1.4-2c-0.7-0.6-1.5-1-2.3-1.3c-1-0.3-2.1-0.5-3.1-0.4h-7.4v18.4h4.1v-5.8h3.3l3.6,5.8
			L78.5,75.7z M66.9,60.9H70c0.5,0,1,0.1,1.5,0.2c0.4,0.1,0.8,0.3,1.1,0.5c0.3,0.2,0.5,0.5,0.7,0.8c0.3,0.7,0.3,1.6,0,2.3
			c-0.2,0.3-0.4,0.6-0.7,0.8c-0.3,0.2-0.7,0.4-1.1,0.5c-0.5,0.1-1,0.2-1.5,0.2h-3.1V60.9z M92.6,75.7h4.6l-7.1-18.4h-4.3l-7.1,18.4
			h4.2l1.3-3.6h7.1L92.6,75.7z M85.5,68.6l2.3-6.4l2.3,6.4H85.5z M110.9,57.3H94.8v3.6h6v14.8h4.1V60.9h6V57.3z M112.5,57.3v18.4
			h4.1V57.3H112.5z M128.4,76.2c1.4,0,2.7-0.2,4-0.7c1.2-0.5,2.2-1.1,3.1-2c0.9-0.9,1.6-1.9,2.1-3.1c1-2.5,1-5.2,0-7.7
			c-0.5-1.2-1.2-2.2-2.1-3.1c-0.9-0.9-2-1.6-3.1-2c-2.6-1-5.4-1-7.9,0c-1.2,0.5-2.2,1.1-3.1,2c-0.9,0.9-1.6,1.9-2.1,3.1
			c-1,2.5-1,5.2,0,7.7c0.5,1.2,1.2,2.2,2.1,3.1c0.9,0.9,2,1.6,3.1,2C125.7,75.9,127.1,76.2,128.4,76.2z M128.4,72.5
			c-0.8,0-1.6-0.1-2.3-0.4c-0.7-0.3-1.3-0.7-1.8-1.2c-0.5-0.5-0.9-1.2-1.2-1.9c-0.6-1.5-0.6-3.2,0-4.8c0.3-0.7,0.7-1.3,1.2-1.9
			c0.5-0.5,1.2-1,1.8-1.2c1.5-0.6,3.1-0.6,4.6,0c0.7,0.3,1.3,0.7,1.8,1.2c0.5,0.5,0.9,1.2,1.2,1.9c0.6,1.5,0.6,3.2,0,4.8
			c-0.3,0.7-0.7,1.3-1.2,1.9c-0.5,0.5-1.2,1-1.8,1.2C130,72.3,129.2,72.5,128.4,72.5L128.4,72.5z M140.2,75.7h4.1V64.4l9.2,11.1h3.4
			V57.1h-4.1v11.3l-9.2-11.1h-3.4L140.2,75.7z"/>
		<path class="st3" d="M128.4,77c-0.7,0-1.5-0.1-2.2-0.2c-0.7-0.1-1.4-0.3-2-0.6c-0.7-0.3-1.3-0.6-1.9-0.9c-0.6-0.4-1.1-0.8-1.6-1.3
			c-0.5-0.5-0.9-1-1.3-1.6c-0.4-0.6-0.7-1.2-1-1.8c-0.3-0.6-0.5-1.3-0.6-2s-0.2-1.4-0.2-2.1c0-0.7,0.1-1.4,0.2-2.1
			c0.1-0.7,0.3-1.4,0.6-2c0.3-0.6,0.6-1.2,1-1.8c0.4-0.6,0.8-1.1,1.3-1.6c0.5-0.5,1-0.9,1.6-1.3c0.6-0.4,1.2-0.7,1.9-0.9
			c0.7-0.3,1.3-0.4,2-0.6c0.7-0.1,1.4-0.2,2.2-0.2c0.7,0,1.5,0.1,2.2,0.2s1.4,0.3,2,0.6s1.3,0.6,1.9,0.9c0.6,0.4,1.1,0.8,1.6,1.3
			c0.5,0.5,0.9,1,1.3,1.6c0.4,0.6,0.7,1.2,1,1.8c0.3,0.6,0.5,1.3,0.6,2c0.1,0.7,0.2,1.4,0.2,2.1c0,0.7-0.1,1.4-0.2,2.1
			c-0.1,0.7-0.3,1.4-0.6,2c-0.3,0.6-0.6,1.2-1,1.8c-0.4,0.6-0.8,1.1-1.3,1.6c-0.5,0.5-1,0.9-1.6,1.3c-0.6,0.4-1.2,0.7-1.9,0.9
			c-0.7,0.3-1.3,0.4-2,0.6C129.9,76.9,129.2,77,128.4,77z M128.4,57.7c-1.3,0-2.5,0.2-3.6,0.7c-1.1,0.4-2.1,1.1-2.9,1.8
			c-0.8,0.8-1.4,1.7-1.9,2.8s-0.7,2.3-0.7,3.5c0,1.3,0.2,2.5,0.7,3.5c0.4,1.1,1.1,2,1.9,2.8c0.8,0.8,1.8,1.4,2.9,1.8
			c1.1,0.4,2.3,0.7,3.6,0.7c1.3,0,2.5-0.2,3.6-0.7c1.1-0.4,2.1-1.1,2.9-1.8c0.8-0.8,1.4-1.7,1.9-2.8c0.4-1.1,0.7-2.3,0.7-3.5
			c0-1.3-0.2-2.5-0.7-3.5s-1.1-2-1.9-2.8c-0.8-0.8-1.8-1.4-2.9-1.8C131,57.9,129.7,57.7,128.4,57.7z M51.9,77
			c-1.3,0-2.4-0.2-3.5-0.6c-1-0.4-2-0.9-2.8-1.6c-0.8-0.7-1.4-1.5-1.9-2.5s-0.8-2.1-1-3.2c-0.1,0.5-0.2,1-0.4,1.5s-0.4,1-0.7,1.4
			c-0.3,0.5-0.6,0.9-1,1.3s-0.8,0.8-1.2,1.2c-0.5,0.4-1,0.7-1.5,1c-0.5,0.3-1.1,0.5-1.7,0.7c-0.6,0.2-1.2,0.4-1.8,0.5
			C33.8,77,33.2,77,32.6,77c-0.7,0-1.5-0.1-2.2-0.2c-0.7-0.1-1.4-0.3-2-0.6c-0.6-0.3-1.3-0.6-1.8-0.9c-0.6-0.4-1.1-0.8-1.6-1.3
			c-0.5-0.5-0.9-1-1.3-1.6s-0.7-1.2-1-1.8c-0.3-0.6-0.5-1.3-0.6-2c-0.1-0.7-0.2-1.4-0.2-2.1s0.1-1.4,0.2-2.1c0.1-0.7,0.3-1.4,0.6-2
			c0.3-0.6,0.6-1.2,1-1.8s0.8-1.1,1.3-1.6c0.5-0.5,1-0.9,1.6-1.3s1.2-0.7,1.8-0.9c0.6-0.3,1.3-0.4,2-0.6c0.7-0.1,1.4-0.2,2.2-0.2
			c0.6,0,1.3,0,1.9,0.1c0.6,0.1,1.2,0.2,1.8,0.4s1.1,0.4,1.6,0.7c0.5,0.3,1,0.6,1.4,0.9c0.4,0.3,0.8,0.7,1.2,1.1s0.7,0.8,1,1.3
			c0.3,0.5,0.5,0.9,0.7,1.4s0.3,1,0.4,1.6l0.1,0.4v-6.7v-0.8h0.8h4.1h0.8v0.8v10.2c0,0.6,0.1,1.2,0.2,1.7c0.2,0.5,0.4,0.9,0.7,1.3
			s0.7,0.6,1.1,0.8c0.4,0.2,0.9,0.3,1.5,0.3c0.5,0,1-0.1,1.5-0.3c0.4-0.2,0.8-0.5,1.1-0.8s0.5-0.8,0.7-1.3c0.2-0.5,0.2-1.1,0.2-1.7
			V57.3v-0.8h0.8h4.1h0.8v0.8v10.2c0,1.4-0.2,2.7-0.7,3.9c-0.4,1.2-1.1,2.2-1.9,3c-0.8,0.8-1.8,1.5-2.9,1.9
			C54.6,76.8,53.3,77,51.9,77z M44.3,58.2v9.4c0,1.2,0.2,2.3,0.5,3.2c0.4,0.9,0.9,1.8,1.5,2.4c0.7,0.7,1.5,1.2,2.4,1.6
			c0.9,0.4,2,0.5,3.1,0.5s2.2-0.2,3.1-0.5s1.7-0.9,2.4-1.6s1.2-1.5,1.5-2.4c0.4-0.9,0.5-2,0.5-3.2v-9.4h-2.4v9.4
			c0,0.4,0,0.8-0.1,1.2c-0.1,0.4-0.1,0.7-0.3,1.1c-0.1,0.3-0.3,0.7-0.4,1s-0.4,0.6-0.6,0.8c-0.2,0.3-0.5,0.5-0.8,0.7
			c-0.3,0.2-0.6,0.4-0.9,0.5c-0.3,0.1-0.7,0.2-1,0.3c-0.4,0.1-0.7,0.1-1.1,0.1s-0.8,0-1.1-0.1c-0.4-0.1-0.7-0.2-1-0.3
			s-0.6-0.3-0.9-0.5c-0.3-0.2-0.5-0.4-0.8-0.7c-0.2-0.3-0.4-0.5-0.6-0.8s-0.3-0.6-0.4-1c-0.1-0.3-0.2-0.7-0.3-1.1s-0.1-0.8-0.1-1.2
			v-9.4H44.3z M32.6,57.7c-1.3,0-2.5,0.2-3.6,0.7c-1.1,0.4-2,1.1-2.8,1.8c-0.8,0.8-1.4,1.7-1.9,2.8s-0.7,2.3-0.7,3.5
			c0,1.3,0.2,2.5,0.7,3.5c0.4,1.1,1.1,2,1.9,2.8c0.8,0.8,1.8,1.4,2.8,1.8s2.3,0.7,3.6,0.7c1.1,0,2.1-0.2,3-0.5
			c0.9-0.3,1.7-0.7,2.4-1.2c0.7-0.5,1.3-1.1,1.8-1.8c0.5-0.6,0.8-1.3,1.1-2h-2.5c-0.1,0.2-0.2,0.4-0.3,0.6s-0.3,0.4-0.4,0.6
			c-0.2,0.2-0.3,0.4-0.5,0.5c-0.2,0.2-0.4,0.3-0.6,0.5c-0.3,0.2-0.6,0.4-0.9,0.5c-0.3,0.2-0.6,0.3-1,0.4s-0.7,0.2-1,0.2
			c-0.3,0.1-0.7,0.1-1,0.1c-0.5,0-0.9,0-1.4-0.1c-0.4-0.1-0.9-0.2-1.3-0.4c-0.4-0.2-0.8-0.4-1.1-0.6c-0.4-0.2-0.7-0.5-1-0.8
			c-0.3-0.3-0.6-0.6-0.8-1c-0.2-0.4-0.4-0.8-0.6-1.2c-0.2-0.4-0.3-0.8-0.4-1.3C26,67.4,26,67,26,66.5c0-0.5,0-0.9,0.1-1.4
			c0.1-0.4,0.2-0.9,0.4-1.3s0.4-0.8,0.6-1.2s0.5-0.7,0.8-1c0.3-0.3,0.6-0.6,1-0.8s0.7-0.4,1.1-0.6s0.8-0.3,1.3-0.4
			c0.4-0.1,0.9-0.1,1.4-0.1c0.4,0,0.7,0,1,0.1c0.3,0,0.7,0.1,1,0.2c0.3,0.1,0.6,0.2,0.9,0.3c0.3,0.1,0.6,0.3,0.8,0.5
			c0.2,0.1,0.4,0.3,0.6,0.4s0.3,0.3,0.5,0.5c0.1,0.2,0.3,0.4,0.4,0.6c0.1,0.2,0.2,0.4,0.3,0.6h2.5c-0.3-0.8-0.7-1.5-1.2-2.2
			c-0.5-0.6-1.1-1.2-1.8-1.6c-0.7-0.5-1.5-0.8-2.3-1C34.5,57.8,33.5,57.7,32.6,57.7z M32.6,61.5c-0.7,0-1.4,0.1-2,0.4
			c-0.6,0.2-1.1,0.6-1.6,1c-0.4,0.4-0.8,1-1,1.6c-0.2,0.6-0.4,1.3-0.4,2s0.1,1.4,0.4,2c0.2,0.6,0.6,1.1,1,1.6c0.4,0.4,1,0.8,1.6,1
			c0.6,0.2,1.3,0.4,2,0.4c0.3,0,0.5,0,0.8-0.1c0.3,0,0.5-0.1,0.8-0.2c0.2-0.1,0.5-0.2,0.7-0.3c0.2-0.1,0.5-0.2,0.7-0.4
			c0.2-0.1,0.3-0.3,0.5-0.4c0.2-0.1,0.3-0.3,0.4-0.5c0.1-0.2,0.2-0.3,0.3-0.5c0.1-0.2,0.1-0.3,0.2-0.5l0.1-0.7h0.7h4.2h0.7
			c0,0,0-0.1,0-0.1c0,0,0-0.1,0-0.1c0,0,0-0.1,0-0.1c0,0,0-0.1,0-0.1v-2.9h-0.9h-4.2h-0.7L36.8,64c-0.1-0.4-0.3-0.7-0.5-1
			c-0.2-0.3-0.5-0.6-0.9-0.8c-0.4-0.2-0.8-0.4-1.2-0.5C33.7,61.5,33.2,61.5,32.6,61.5z M145.2,76.6h-0.8h-4.1h-0.8v-0.8V57.3v-0.8
			h0.8h3.4h0.4l0.3,0.3L152,66v-8.9v-0.8h0.8h4.1h0.8v0.8v18.4v0.8H157h-3.4h-0.4l-0.3-0.3l-7.7-9.3v8.9V76.6z M141.1,74.9h2.4V64.4
			v-2.3l1.5,1.8l8.9,10.8h2.2V57.9h-2.4v10.4v2.3l-1.5-1.8l-8.9-10.8h-2.2V74.9z M117.5,76.6h-0.8h-4.1h-0.8v-0.8V61.8h-0.8h-5.1
			v13.9v0.8h-0.8h-4.1h-0.8v-0.8V61.8h-5.1h-0.8v-0.8v-3.6v-0.8h0.8h16.1h0.8h0.8h4.1h0.8v0.8v18.4V76.6z M113.4,74.9h2.4V58.2h-2.4
			V74.9z M101.6,74.9h2.4V60.9v-0.8h0.8h5.1v-1.9H95.6v1.9h5.1h0.8v0.8V74.9z M98.4,76.6h-1.2h-4.6H92L91.8,76l-1.1-3h-5.9l-1.1,3
			l-0.2,0.6h-0.6h-2.8h-1.6h-4.8h-0.5L73,76.2l-3.3-5.4h-2v5v0.8h-0.8h-4.1H62v-0.8V57.3v-0.8h0.8h7.4c0.6,0,1.2,0,1.8,0.1
			s1.1,0.2,1.6,0.4c0.5,0.2,1,0.4,1.4,0.6s0.8,0.5,1.2,0.8c0.4,0.3,0.7,0.7,1,1.1c0.3,0.4,0.5,0.8,0.7,1.2c0.2,0.4,0.3,0.9,0.4,1.4
			s0.1,1,0.1,1.5c0,0.4,0,0.7-0.1,1c0,0.3-0.1,0.7-0.2,1c-0.1,0.3-0.2,0.6-0.3,0.9c-0.1,0.3-0.3,0.6-0.4,0.8
			c-0.1,0.2-0.3,0.4-0.4,0.6c-0.1,0.2-0.3,0.4-0.5,0.5c-0.2,0.2-0.3,0.3-0.5,0.5s-0.4,0.3-0.6,0.4l3,4.6L85,57l0.2-0.5h0.6h4.3h0.6
			l0.2,0.5L98,75.4L98.4,76.6z M93.2,74.9H96l-6.5-16.7h-3.1l-6.5,16.7h2.4l1.1-3l0.2-0.6h0.6h7.1h0.6l0.2,0.6L93.2,74.9z
			 M74.2,74.9H77l-3.4-5.3L73,68.7l0.9-0.4c0.5-0.2,0.9-0.5,1.2-0.8c0.4-0.3,0.7-0.7,0.9-1.1s0.4-0.8,0.5-1.3c0.1-0.5,0.2-1,0.2-1.5
			c0-0.9-0.2-1.6-0.4-2.3c-0.3-0.7-0.7-1.2-1.3-1.7c-0.6-0.5-1.3-0.8-2.1-1.1c-0.8-0.2-1.7-0.4-2.8-0.4h-6.6v16.7h2.4v-5v-0.8h0.8
			h3.3h0.5l0.2,0.4L74.2,74.9z M128.4,73.3c-0.5,0-0.9,0-1.4-0.1c-0.4-0.1-0.9-0.2-1.3-0.4c-0.4-0.2-0.8-0.4-1.1-0.6
			c-0.4-0.2-0.7-0.5-1-0.8c-0.3-0.3-0.6-0.7-0.8-1c-0.2-0.4-0.4-0.8-0.6-1.2c-0.2-0.4-0.3-0.8-0.4-1.3c-0.1-0.4-0.1-0.9-0.1-1.4
			c0-0.5,0-0.9,0.1-1.4c0.1-0.4,0.2-0.9,0.4-1.3c0.2-0.4,0.4-0.8,0.6-1.2s0.5-0.7,0.8-1c0.3-0.3,0.6-0.6,1-0.8
			c0.4-0.2,0.7-0.4,1.1-0.6s0.8-0.3,1.3-0.4c0.4-0.1,0.9-0.1,1.4-0.1c0.5,0,0.9,0,1.4,0.1c0.4,0.1,0.9,0.2,1.3,0.4s0.8,0.4,1.1,0.6
			c0.4,0.2,0.7,0.5,1,0.8c0.3,0.3,0.6,0.7,0.8,1c0.2,0.4,0.4,0.8,0.6,1.2c0.2,0.4,0.3,0.8,0.4,1.3c0.1,0.4,0.1,0.9,0.1,1.4
			c0,0.5,0,0.9-0.1,1.4c-0.1,0.4-0.2,0.9-0.4,1.3c-0.2,0.4-0.4,0.8-0.6,1.2c-0.2,0.4-0.5,0.7-0.8,1c-0.3,0.3-0.6,0.6-1,0.8
			c-0.4,0.2-0.7,0.4-1.1,0.6c-0.4,0.2-0.8,0.3-1.3,0.4C129.3,73.3,128.9,73.3,128.4,73.3z M128.4,61.4c-0.7,0-1.4,0.1-2,0.4
			c-0.6,0.2-1.1,0.6-1.6,1.1c-0.4,0.5-0.8,1-1,1.6c-0.2,0.6-0.4,1.3-0.4,2s0.1,1.4,0.4,2c0.2,0.6,0.6,1.2,1,1.6
			c0.4,0.5,1,0.8,1.6,1.1c0.6,0.2,1.3,0.4,2,0.4c0.7,0,1.4-0.1,2-0.4s1.1-0.6,1.6-1.1s0.8-1,1-1.6c0.2-0.6,0.4-1.3,0.4-2
			s-0.1-1.4-0.4-2c-0.2-0.6-0.6-1.2-1-1.6s-1-0.8-1.6-1.1C129.8,61.5,129.1,61.4,128.4,61.4z M91.3,69.4h-1.2h-4.6h-1.2l0.4-1.1
			l2.3-6.4l0.8-2.2l0.8,2.2l2.3,6.4L91.3,69.4z M86.7,67.7h2.2l-1.1-3.1L86.7,67.7z M70,67.1h-3.1h-0.8v-0.8v-5.3v-0.8h0.8H70
			c0.3,0,0.6,0,0.9,0.1c0.3,0,0.6,0.1,0.8,0.2c0.3,0.1,0.5,0.2,0.7,0.3c0.2,0.1,0.4,0.2,0.6,0.4c0.2,0.2,0.4,0.3,0.5,0.5
			c0.2,0.2,0.3,0.4,0.4,0.6c0.1,0.2,0.2,0.5,0.2,0.7s0.1,0.5,0.1,0.8s0,0.5-0.1,0.8c-0.1,0.3-0.1,0.5-0.2,0.7
			c-0.1,0.2-0.2,0.4-0.4,0.6c-0.2,0.2-0.3,0.4-0.5,0.5c-0.2,0.1-0.4,0.3-0.6,0.4c-0.2,0.1-0.5,0.2-0.7,0.3s-0.5,0.1-0.8,0.2
			C70.6,67.1,70.3,67.1,70,67.1z M67.8,65.4H70c0.4,0,0.8,0,1.1-0.1s0.6-0.2,0.8-0.3s0.4-0.3,0.5-0.6s0.2-0.5,0.2-0.8
			s-0.1-0.6-0.2-0.8c-0.1-0.2-0.3-0.4-0.5-0.6s-0.5-0.3-0.8-0.3c-0.3-0.1-0.7-0.1-1.1-0.1h-2.3V65.4z"/>
		<g id="CURATION-2" transform="translate(17.82 52.71)">
			<path class="st4" d="M12.9,22.2c1.2,0,2.4-0.2,3.5-0.6c1-0.4,2-0.9,2.8-1.6c0.8-0.6,1.5-1.4,2-2.3c0.5-0.8,0.8-1.7,1-2.7h-4.2
				c-0.1,0.4-0.3,0.9-0.6,1.2c-0.3,0.4-0.7,0.8-1.1,1.1c-0.5,0.3-1,0.6-1.6,0.8c-0.6,0.2-1.2,0.3-1.9,0.3c-0.8,0-1.6-0.1-2.3-0.4
				c-0.7-0.3-1.3-0.7-1.8-1.2c-0.5-0.5-0.9-1.2-1.2-1.9c-0.6-1.5-0.6-3.2,0-4.7c0.6-1.4,1.7-2.5,3.1-3.1c0.7-0.3,1.5-0.4,2.3-0.4
				c0.6,0,1.2,0.1,1.8,0.2c0.5,0.1,1,0.4,1.5,0.7c0.4,0.3,0.8,0.6,1.1,1c0.3,0.4,0.5,0.8,0.6,1.2H22c-0.4-1.9-1.4-3.7-3-4.9
				c-0.8-0.6-1.8-1.1-2.7-1.5c-1.1-0.4-2.3-0.5-3.5-0.5c-1.3,0-2.7,0.2-3.9,0.7c-1.2,0.5-2.2,1.1-3.1,2C4.9,6.5,4.2,7.6,3.8,8.7
				c-1,2.5-1,5.2,0,7.7c0.5,1.1,1.2,2.2,2.1,3.1c0.9,0.9,2,1.6,3.1,2C10.2,22,11.5,22.2,12.9,22.2z M23.8,13.6
				c0,1.2,0.2,2.4,0.6,3.5c0.4,1,1,1.9,1.7,2.7c0.8,0.8,1.7,1.4,2.7,1.7c2.2,0.8,4.7,0.8,6.9,0c1-0.4,1.9-1,2.7-1.7
				c0.8-0.8,1.3-1.7,1.7-2.7c0.4-1.1,0.6-2.3,0.6-3.5V3.4h-4.1v10.2c0,0.7-0.1,1.4-0.3,2c-0.2,0.6-0.5,1.1-0.9,1.5
				c-0.4,0.4-0.8,0.8-1.4,1c-1.2,0.5-2.5,0.5-3.6,0c-0.5-0.2-1-0.6-1.4-1c-0.4-0.5-0.7-1-0.9-1.5c-0.2-0.6-0.3-1.3-0.3-2V3.4h-4.1
				L23.8,13.6z M58.8,21.8l-4.3-6.6c0.5-0.2,1-0.6,1.4-0.9c0.4-0.4,0.8-0.8,1.1-1.2c0.3-0.5,0.5-1,0.6-1.5c0.2-0.6,0.2-1.2,0.2-1.8
				c0-0.9-0.2-1.8-0.5-2.6c-0.3-0.8-0.8-1.4-1.4-2c-0.7-0.6-1.5-1-2.3-1.3c-1-0.3-2.1-0.5-3.1-0.4h-7.4v18.4h4.1V16h3.3l3.6,5.8
				L58.8,21.8z M47.2,7h3.1c0.5,0,1,0.1,1.5,0.2c0.4,0.1,0.8,0.3,1.1,0.5c0.3,0.2,0.5,0.5,0.7,0.8c0.3,0.7,0.3,1.6,0,2.3
				c-0.2,0.3-0.4,0.6-0.7,0.8c-0.3,0.2-0.7,0.4-1.1,0.5c-0.5,0.1-1,0.2-1.5,0.2h-3.1V7z M72.9,21.8h4.6L70.4,3.4h-4.3L59,21.8h4.2
				l1.3-3.6h7.1L72.9,21.8z M65.8,14.7l2.3-6.4l2.3,6.4H65.8z M91.2,3.4H75.1V7h6v14.8h4.1V7h6V3.4z M92.8,3.4v18.4h4.1V3.4H92.8z
				 M108.7,22.2c1.4,0,2.7-0.2,4-0.7c1.2-0.5,2.2-1.1,3.1-2c0.9-0.9,1.6-1.9,2.1-3.1c1-2.5,1-5.2,0-7.7c-0.5-1.2-1.2-2.2-2.1-3.1
				c-0.9-0.9-2-1.6-3.1-2c-2.6-1-5.4-1-7.9,0c-1.2,0.5-2.2,1.1-3.1,2c-0.9,0.9-1.6,1.9-2.1,3.1c-1,2.5-1,5.2,0,7.7
				c0.5,1.2,1.2,2.2,2.1,3.1c0.9,0.9,2,1.6,3.1,2C106,22,107.4,22.2,108.7,22.2z M108.7,18.5c-0.8,0-1.6-0.1-2.3-0.4
				c-0.7-0.3-1.3-0.7-1.8-1.2c-0.5-0.5-0.9-1.2-1.2-1.9c-0.6-1.5-0.6-3.2,0-4.8c0.3-0.7,0.7-1.3,1.2-1.9c0.5-0.5,1.2-1,1.8-1.2
				c1.5-0.6,3.1-0.6,4.6,0c0.7,0.3,1.3,0.7,1.8,1.2c0.5,0.5,0.9,1.2,1.2,1.9c0.6,1.5,0.6,3.2,0,4.8c-0.3,0.7-0.7,1.3-1.2,1.9
				c-0.5,0.5-1.2,1-1.8,1.2C110.3,18.4,109.5,18.5,108.7,18.5L108.7,18.5z M120.5,21.8h4.1V10.5l9.2,11.1h3.4V3.2h-4.1v11.3L124,3.4
				h-3.4L120.5,21.8z"/>
			<path class="st3" d="M108.7,23.1c-0.7,0-1.5-0.1-2.2-0.2c-0.7-0.1-1.4-0.3-2-0.6c-0.7-0.3-1.3-0.6-1.9-0.9
				c-0.6-0.4-1.1-0.8-1.6-1.3c-0.5-0.5-0.9-1-1.3-1.6c-0.4-0.6-0.7-1.2-1-1.8c-0.3-0.6-0.5-1.3-0.6-2c-0.1-0.7-0.2-1.4-0.2-2.1
				s0.1-1.4,0.2-2.1s0.3-1.4,0.6-2c0.3-0.6,0.6-1.2,1-1.8c0.4-0.6,0.8-1.1,1.3-1.6c0.5-0.5,1-0.9,1.6-1.3c0.6-0.4,1.2-0.7,1.9-0.9
				c0.7-0.3,1.3-0.4,2-0.6c0.7-0.1,1.4-0.2,2.2-0.2s1.5,0.1,2.2,0.2c0.7,0.1,1.4,0.3,2,0.6c0.7,0.3,1.3,0.6,1.9,0.9
				c0.6,0.4,1.1,0.8,1.6,1.3c0.5,0.5,0.9,1,1.3,1.6c0.4,0.6,0.7,1.2,1,1.8c0.3,0.6,0.5,1.3,0.6,2s0.2,1.4,0.2,2.1s-0.1,1.4-0.2,2.1
				s-0.3,1.4-0.6,2c-0.3,0.6-0.6,1.2-1,1.8c-0.4,0.6-0.8,1.1-1.3,1.6c-0.5,0.5-1,0.9-1.6,1.3c-0.6,0.4-1.2,0.7-1.9,0.9
				c-0.7,0.3-1.3,0.4-2,0.6C110.2,23,109.5,23.1,108.7,23.1z M108.7,3.8c-1.3,0-2.5,0.2-3.6,0.7c-1.1,0.4-2.1,1.1-2.9,1.8
				C101.4,7,100.8,8,100.3,9s-0.7,2.3-0.7,3.5s0.2,2.5,0.7,3.5s1.1,2,1.9,2.8c0.8,0.8,1.8,1.4,2.9,1.8c1.1,0.4,2.3,0.7,3.6,0.7
				s2.5-0.2,3.6-0.7c1.1-0.4,2.1-1.1,2.9-1.8s1.4-1.7,1.9-2.8c0.4-1.1,0.7-2.3,0.7-3.5s-0.2-2.5-0.7-3.5c-0.4-1.1-1.1-2-1.9-2.8
				s-1.8-1.4-2.9-1.8C111.3,4,110,3.8,108.7,3.8z M32.2,23.1c-1.3,0-2.4-0.2-3.5-0.6c-1-0.4-2-0.9-2.8-1.6c-0.8-0.7-1.4-1.5-1.9-2.5
				c-0.5-1-0.8-2.1-1-3.2c-0.1,0.5-0.2,1-0.4,1.5c-0.2,0.5-0.4,1-0.7,1.4s-0.6,0.9-1,1.3c-0.4,0.4-0.8,0.8-1.2,1.2
				c-0.5,0.4-1,0.7-1.5,1c-0.5,0.3-1.1,0.5-1.7,0.7c-0.6,0.2-1.2,0.4-1.8,0.5c-0.6,0.1-1.3,0.2-1.9,0.2c-0.7,0-1.5-0.1-2.2-0.2
				c-0.7-0.1-1.4-0.3-2-0.6c-0.6-0.3-1.3-0.6-1.8-0.9c-0.6-0.4-1.1-0.8-1.6-1.3c-0.5-0.5-0.9-1-1.3-1.6s-0.7-1.2-1-1.8
				c-0.3-0.6-0.5-1.3-0.6-2c-0.1-0.7-0.2-1.4-0.2-2.1s0.1-1.4,0.2-2.1c0.1-0.7,0.3-1.4,0.6-2s0.6-1.2,1-1.8S4.7,5.5,5.2,5
				c0.5-0.5,1-0.9,1.6-1.3S8,3.1,8.7,2.8c0.6-0.3,1.3-0.4,2-0.6s1.4-0.2,2.2-0.2c0.6,0,1.3,0,1.9,0.1c0.6,0.1,1.2,0.2,1.8,0.4
				c0.6,0.2,1.1,0.4,1.6,0.7c0.5,0.3,1,0.6,1.4,0.9C20,4.6,20.4,5,20.8,5.4s0.7,0.8,1,1.3c0.3,0.5,0.5,0.9,0.7,1.4s0.3,1,0.4,1.6
				l0.1,0.4V3.4V2.5h0.8h4.1h0.8v0.8v10.2c0,0.6,0.1,1.2,0.2,1.7c0.2,0.5,0.4,0.9,0.7,1.3c0.3,0.3,0.7,0.6,1.1,0.8
				c0.4,0.2,0.9,0.3,1.5,0.3c0.5,0,1-0.1,1.5-0.3c0.4-0.2,0.8-0.5,1.1-0.8c0.3-0.3,0.5-0.8,0.7-1.3s0.2-1.1,0.2-1.7V3.4V2.5h0.8h4.1
				h0.8v0.8v10.2c0,1.4-0.2,2.7-0.7,3.9c-0.4,1.2-1.1,2.2-1.9,3c-0.8,0.8-1.8,1.5-2.9,1.9S33.6,23.1,32.2,23.1z M24.6,4.2v9.4
				c0,1.2,0.2,2.3,0.5,3.2c0.4,0.9,0.9,1.8,1.5,2.4c0.7,0.7,1.5,1.2,2.4,1.6c0.9,0.4,2,0.5,3.1,0.5s2.2-0.2,3.1-0.5
				c0.9-0.4,1.7-0.9,2.4-1.6c0.7-0.7,1.2-1.5,1.5-2.4c0.4-0.9,0.5-2,0.5-3.2V4.2h-2.4v9.4c0,0.4,0,0.8-0.1,1.2
				c-0.1,0.4-0.1,0.7-0.3,1.1c-0.1,0.3-0.3,0.7-0.4,1c-0.2,0.3-0.4,0.6-0.6,0.8c-0.2,0.3-0.5,0.5-0.8,0.7c-0.3,0.2-0.6,0.4-0.9,0.5
				c-0.3,0.1-0.7,0.2-1,0.3c-0.4,0.1-0.7,0.1-1.1,0.1c-0.4,0-0.8,0-1.1-0.1c-0.4-0.1-0.7-0.2-1-0.3c-0.3-0.1-0.6-0.3-0.9-0.5
				c-0.3-0.2-0.5-0.4-0.8-0.7c-0.2-0.3-0.4-0.5-0.6-0.8c-0.2-0.3-0.3-0.6-0.4-1s-0.2-0.7-0.3-1.1c-0.1-0.4-0.1-0.8-0.1-1.2V4.2H24.6
				z M12.9,3.8c-1.3,0-2.5,0.2-3.6,0.7s-2,1.1-2.8,1.8S5,8,4.5,9s-0.7,2.3-0.7,3.5s0.2,2.5,0.7,3.5s1.1,2,1.9,2.8
				c0.8,0.8,1.8,1.4,2.8,1.8s2.3,0.7,3.6,0.7c1.1,0,2.1-0.2,3-0.5c0.9-0.3,1.7-0.7,2.4-1.2c0.7-0.5,1.3-1.1,1.8-1.8
				c0.5-0.6,0.8-1.3,1.1-2h-2.5c-0.1,0.2-0.2,0.4-0.3,0.6c-0.1,0.2-0.3,0.4-0.4,0.6c-0.2,0.2-0.3,0.4-0.5,0.5
				c-0.2,0.2-0.4,0.3-0.6,0.5c-0.3,0.2-0.6,0.4-0.9,0.5c-0.3,0.2-0.6,0.3-1,0.4c-0.3,0.1-0.7,0.2-1,0.2c-0.3,0.1-0.7,0.1-1,0.1
				c-0.5,0-0.9,0-1.4-0.1c-0.4-0.1-0.9-0.2-1.3-0.4c-0.4-0.2-0.8-0.4-1.1-0.6c-0.4-0.2-0.7-0.5-1-0.8c-0.3-0.3-0.6-0.6-0.8-1
				c-0.2-0.4-0.4-0.8-0.6-1.2c-0.2-0.4-0.3-0.8-0.4-1.3c-0.1-0.4-0.1-0.9-0.1-1.4c0-0.5,0-0.9,0.1-1.4c0.1-0.4,0.2-0.9,0.4-1.3
				c0.2-0.4,0.4-0.8,0.6-1.2c0.2-0.4,0.5-0.7,0.8-1c0.3-0.3,0.6-0.6,1-0.8s0.7-0.4,1.1-0.6C10.7,6.2,11.2,6,11.6,6
				c0.4-0.1,0.9-0.1,1.4-0.1c0.4,0,0.7,0,1,0.1c0.3,0,0.7,0.1,1,0.2s0.6,0.2,0.9,0.3c0.3,0.1,0.6,0.3,0.8,0.5
				c0.2,0.1,0.4,0.3,0.6,0.4c0.2,0.2,0.3,0.3,0.5,0.5c0.1,0.2,0.3,0.4,0.4,0.6s0.2,0.4,0.3,0.6h2.5c-0.3-0.8-0.7-1.5-1.2-2.2
				S18.7,5.6,18,5.2c-0.7-0.5-1.5-0.8-2.3-1C14.8,3.9,13.8,3.8,12.9,3.8z M12.9,7.5c-0.7,0-1.4,0.1-2,0.4S9.8,8.5,9.4,9
				s-0.8,1-1,1.6c-0.2,0.6-0.4,1.3-0.4,2s0.1,1.4,0.4,2c0.2,0.6,0.6,1.1,1,1.6s1,0.8,1.6,1c0.6,0.2,1.3,0.4,2,0.4
				c0.3,0,0.5,0,0.8-0.1c0.3,0,0.5-0.1,0.8-0.2c0.2-0.1,0.5-0.2,0.7-0.3c0.2-0.1,0.5-0.2,0.7-0.4c0.2-0.1,0.3-0.3,0.5-0.4
				c0.2-0.1,0.3-0.3,0.4-0.5c0.1-0.2,0.2-0.3,0.3-0.5c0.1-0.2,0.1-0.3,0.2-0.5l0.1-0.7h0.7h4.2H23c0,0,0-0.1,0-0.1c0,0,0-0.1,0-0.1
				c0,0,0-0.1,0-0.1c0,0,0-0.1,0-0.1v-2.9H22h-4.2h-0.7L17.1,10c-0.1-0.4-0.3-0.7-0.5-1c-0.2-0.3-0.5-0.6-0.9-0.8s-0.8-0.4-1.2-0.5
				C14,7.6,13.5,7.5,12.9,7.5z M125.5,22.6h-0.8h-4.1h-0.8v-0.8V3.4V2.5h0.8h3.4h0.4l0.3,0.3l7.7,9.3V3.2V2.3h0.8h4.1h0.8v0.8v18.4
				v0.8h-0.8h-3.4h-0.4l-0.3-0.3l-7.7-9.3v8.9V22.6z M121.4,20.9h2.4V10.5V8.2l1.5,1.8l8.9,10.8h2.2V4H134v10.4v2.3l-1.5-1.8
				l-8.9-10.8h-2.2V20.9z M97.8,22.6h-0.8h-4.1H92v-0.8V7.9h-0.8H86v13.9v0.8h-0.8h-4.1h-0.8v-0.8V7.9h-5.1h-0.8V7V3.4V2.5h0.8h16.1
				H92h0.8h4.1h0.8v0.8v18.4V22.6z M93.7,20.9h2.4V4.2h-2.4V20.9z M81.9,20.9h2.4V7V6.2h0.8h5.1V4.2H75.9v1.9h5.1h0.8V7V20.9z
				 M78.7,22.6h-1.2h-4.6h-0.6l-0.2-0.6l-1.1-3h-5.9l-1.1,3l-0.2,0.6h-0.6h-2.8h-1.6h-4.8h-0.5l-0.2-0.4L50,16.8h-2v5v0.8h-0.8h-4.1
				h-0.8v-0.8V3.4V2.5h0.8h7.4c0.6,0,1.2,0,1.8,0.1c0.6,0.1,1.1,0.2,1.6,0.4c0.5,0.2,1,0.4,1.4,0.6c0.4,0.2,0.8,0.5,1.2,0.8
				c0.4,0.3,0.7,0.7,1,1.1c0.3,0.4,0.5,0.8,0.7,1.2c0.2,0.4,0.3,0.9,0.4,1.4c0.1,0.5,0.1,1,0.1,1.5c0,0.4,0,0.7-0.1,1
				s-0.1,0.7-0.2,1s-0.2,0.6-0.3,0.9c-0.1,0.3-0.3,0.6-0.4,0.8c-0.1,0.2-0.3,0.4-0.4,0.6c-0.1,0.2-0.3,0.4-0.5,0.5
				c-0.2,0.2-0.3,0.3-0.5,0.5c-0.2,0.2-0.4,0.3-0.6,0.4l3,4.6l6.6-17l0.2-0.5h0.6h4.3H71l0.2,0.5l7.1,18.4L78.7,22.6z M73.5,20.9
				h2.8L69.8,4.2h-3.1l-6.5,16.7h2.4l1.1-3l0.2-0.6h0.6h7.1h0.6l0.2,0.6L73.5,20.9z M54.5,20.9h2.7l-3.4-5.3l-0.5-0.8l0.9-0.4
				c0.5-0.2,0.9-0.5,1.2-0.8c0.4-0.3,0.7-0.7,0.9-1.1c0.2-0.4,0.4-0.8,0.5-1.3c0.1-0.5,0.2-1,0.2-1.5c0-0.9-0.2-1.6-0.4-2.3
				c-0.3-0.7-0.7-1.2-1.3-1.7c-0.6-0.5-1.3-0.8-2.1-1.1c-0.8-0.2-1.7-0.4-2.8-0.4h-6.6v16.7h2.4v-5v-0.8h0.8h3.3H51l0.2,0.4
				L54.5,20.9z M108.7,19.4c-0.5,0-0.9,0-1.4-0.1c-0.4-0.1-0.9-0.2-1.3-0.4c-0.4-0.2-0.8-0.4-1.1-0.6c-0.4-0.2-0.7-0.5-1-0.8
				c-0.3-0.3-0.6-0.7-0.8-1c-0.2-0.4-0.4-0.8-0.6-1.2c-0.2-0.4-0.3-0.8-0.4-1.3c-0.1-0.4-0.1-0.9-0.1-1.4c0-0.5,0-0.9,0.1-1.4
				c0.1-0.4,0.2-0.9,0.4-1.3s0.4-0.8,0.6-1.2c0.2-0.4,0.5-0.7,0.8-1c0.3-0.3,0.6-0.6,1-0.8c0.4-0.2,0.7-0.4,1.1-0.6
				c0.4-0.2,0.8-0.3,1.3-0.4c0.4-0.1,0.9-0.1,1.4-0.1c0.5,0,0.9,0,1.4,0.1c0.4,0.1,0.9,0.2,1.3,0.4c0.4,0.2,0.8,0.4,1.1,0.6
				c0.4,0.2,0.7,0.5,1,0.8c0.3,0.3,0.6,0.7,0.8,1c0.2,0.4,0.4,0.8,0.6,1.2s0.3,0.8,0.4,1.3c0.1,0.4,0.1,0.9,0.1,1.4
				c0,0.5,0,0.9-0.1,1.4c-0.1,0.4-0.2,0.9-0.4,1.3c-0.2,0.4-0.4,0.8-0.6,1.2c-0.2,0.4-0.5,0.7-0.8,1c-0.3,0.3-0.6,0.6-1,0.8
				c-0.4,0.2-0.7,0.4-1.1,0.6c-0.4,0.2-0.8,0.3-1.3,0.4C109.6,19.3,109.2,19.4,108.7,19.4z M108.7,7.5c-0.7,0-1.4,0.1-2,0.4
				c-0.6,0.2-1.1,0.6-1.6,1.1c-0.4,0.5-0.8,1-1,1.6c-0.2,0.6-0.4,1.3-0.4,2s0.1,1.4,0.4,2c0.2,0.6,0.6,1.2,1,1.6
				c0.4,0.5,1,0.8,1.6,1.1c0.6,0.2,1.3,0.4,2,0.4c0.7,0,1.4-0.1,2-0.4c0.6-0.2,1.1-0.6,1.6-1.1c0.4-0.5,0.8-1,1-1.6
				c0.2-0.6,0.4-1.3,0.4-2s-0.1-1.4-0.4-2c-0.2-0.6-0.6-1.2-1-1.6c-0.4-0.5-1-0.8-1.6-1.1C110.1,7.6,109.4,7.5,108.7,7.5z
				 M71.6,15.5h-1.2h-4.6h-1.2l0.4-1.1L67.3,8l0.8-2.2L68.9,8l2.3,6.4L71.6,15.5z M67,13.8h2.2l-1.1-3.1L67,13.8z M50.3,13.2h-3.1
				h-0.8v-0.8V7V6.2h0.8h3.1c0.3,0,0.6,0,0.9,0.1c0.3,0,0.6,0.1,0.8,0.2s0.5,0.2,0.7,0.3C53,6.8,53.2,6.9,53.4,7
				c0.2,0.2,0.4,0.3,0.5,0.5c0.2,0.2,0.3,0.4,0.4,0.6c0.1,0.2,0.2,0.5,0.2,0.7c0.1,0.3,0.1,0.5,0.1,0.8s0,0.5-0.1,0.8
				c-0.1,0.3-0.1,0.5-0.2,0.7c-0.1,0.2-0.2,0.4-0.4,0.6c-0.2,0.2-0.3,0.4-0.5,0.5c-0.2,0.1-0.4,0.3-0.6,0.4
				c-0.2,0.1-0.5,0.2-0.7,0.3s-0.5,0.1-0.8,0.2C50.9,13.2,50.6,13.2,50.3,13.2z M48.1,11.5h2.3c0.4,0,0.8,0,1.1-0.1s0.6-0.2,0.8-0.3
				c0.2-0.2,0.4-0.3,0.5-0.6C52.9,10.3,53,10,53,9.7s-0.1-0.6-0.2-0.8c-0.1-0.2-0.3-0.4-0.5-0.6S51.8,8.1,51.5,8
				c-0.3-0.1-0.7-0.1-1.1-0.1h-2.3V11.5z"/>
		</g>
	</g>
</g>
<g id="bal">
	<g>
		<path id="패스_38083" class="st5" d="M129.4,162c-2.6-5.3-7.3-9.3-13-11c-1.2-0.4-2.5-0.6-3.8-0.8c0.1-1.2,0.2-2.5,0.1-3.7
			c-0.2-6.5-3.5-12.6-8.8-16.4c-1.8-1.3-3.7-2.2-5.8-2.8c-5.7-1.7-11.7-1-16.9,1.8c-2.7-5.2-7.4-9.2-13-11c-2.1-0.6-4.2-0.9-6.4-0.9
			c-7.8,0.2-14.6,4.9-18.3,11.8c-1.2-0.6-2.4-1.1-3.6-1.5c-5.6-1.8-11.8-1.1-16.9,1.9c-10.4,6.2-13.4,20.6-6.6,32.1l0.1,0.1
			c3.9,6.4,5,14.2,2.9,21.4L1.4,241.7l83.2,25.4l17.9-58.6c2.3-7.2,7.5-13,14.3-16.1c0,0,0.1,0,0.1,0c5.2-2.5,9.5-6.6,12.1-11.7
			C132.1,174.8,132.2,167.9,129.4,162"/>
		<path id="패스_38084" class="st6" d="M129.4,162c-2.6-5.3-7.3-9.3-13-11c-1.2-0.4-2.5-0.6-3.8-0.8c0.1-1.2,0.2-2.5,0.1-3.7
			c-0.2-6.5-3.5-12.6-8.8-16.4c-1.8-1.3-3.7-2.2-5.8-2.8c-5.7-1.7-11.7-1-16.9,1.8c-2.7-5.2-7.4-9.2-13-11c-2.1-0.6-4.2-0.9-6.4-0.9
			c-7.8,0.2-14.6,4.9-18.3,11.8c-1.2-0.6-2.4-1.1-3.6-1.5c-5.6-1.8-11.8-1.1-16.9,1.9c-10.4,6.2-13.4,20.6-6.6,32.1l0.1,0.1
			c3.9,6.4,5,14.2,2.9,21.4L1.4,241.7l83.2,25.4l17.9-58.6c2.3-7.2,7.5-13,14.3-16.1c0,0,0.1,0,0.1,0c5.2-2.5,9.5-6.6,12.1-11.7
			C132.1,174.8,132.2,167.9,129.4,162z"/>
		<path id="패스_38085" class="st7" d="M85.6,172.3c-4-5.4-9.2-9.1-14.3-10.4c-4.9-1.8-11.3-1.7-17.7,0.6
			c-11.4,4.2-18.3,14-15.4,22c2.1,5.7,8.5,8.9,16.1,8.8c4.8-0.1,9.5,1.4,13.4,4.1c6.3,4.3,13.4,5.3,18.3,1.7
			C93,194.2,92.7,182.1,85.6,172.3"/>
		<path id="패스_38086" class="st6" d="M85.6,172.3c-4-5.4-9.2-9.1-14.3-10.4c-4.9-1.8-11.3-1.7-17.7,0.6
			c-11.4,4.2-18.3,14-15.4,22c2.1,5.7,8.5,8.9,16.1,8.8c4.8-0.1,9.5,1.4,13.4,4.1c6.3,4.3,13.4,5.3,18.3,1.7
			C93,194.2,92.8,182.1,85.6,172.3z"/>
		<path id="패스_38087" class="st8" d="M71,141.4c0.1,6-3.6,11-8.3,11.1c-4.7,0.1-8.7-4.7-8.8-10.7c-0.1-6,3.6-11,8.3-11.1
			C66.9,130.6,70.9,135.4,71,141.4"/>
		<path id="패스_38088" class="st6" d="M71,141.4c0.1,6-3.6,11-8.3,11.1c-4.7,0.1-8.7-4.7-8.8-10.7c-0.1-6,3.6-11,8.3-11.1
			C66.9,130.6,70.9,135.4,71,141.4z"/>
		<path id="패스_38089" class="st7" d="M42.8,146.1c3.1,5.2,2.2,11.3-1.8,13.7s-9.9,0.2-12.9-5s-2.2-11.3,1.8-13.7
			C33.9,138.6,39.7,140.9,42.8,146.1"/>
		<path id="패스_38090" class="st6" d="M42.8,146.1c3.1,5.2,2.2,11.3-1.8,13.7s-9.9,0.2-12.9-5s-2.2-11.3,1.8-13.7
			C33.9,138.6,39.7,140.9,42.8,146.1z"/>
		<path id="패스_38091" class="st7" d="M83,145c-3.5,4.9-3.2,11.1,0.7,13.8c3.9,2.7,9.8,1,13.3-3.9c3.5-4.9,3.2-11.1-0.7-13.8
			C92.4,138.4,86.5,140.1,83,145"/>
		<path id="패스_38092" class="st6" d="M83,145c-3.5,4.9-3.2,11.1,0.7,13.8c3.9,2.7,9.8,1,13.3-3.9c3.5-4.9,3.2-11.1-0.7-13.8
			C92.4,138.4,86.5,140.1,83,145z"/>
		<path id="패스_38093" class="st8" d="M103.8,164.7c-5.4,2.6-8.2,8.1-6.1,12.4c2,4.3,8.1,5.6,13.5,3c5.4-2.6,8.2-8.1,6.1-12.4
			C115.3,163.5,109.2,162.1,103.8,164.7"/>
		<path id="패스_38094" class="st6" d="M103.8,164.7c-5.4,2.6-8.2,8.1-6.1,12.4c2,4.3,8.1,5.6,13.5,3c5.4-2.6,8.2-8.1,6.1-12.4
			C115.3,163.5,109.2,162.1,103.8,164.7z"/>
	</g>
</g>
</svg>
