<?xml version="1.0" encoding="utf-8"?>
<!-- Generator: Adobe Illustrator 26.2.1, SVG Export Plug-In . SVG Version: 6.00 Build 0)  -->
<svg version="1.1" xmlns="http://www.w3.org/2000/svg" xmlns:xlink="http://www.w3.org/1999/xlink" x="0px" y="0px" viewBox="0 0 105 98" style="enable-background:new 0 0 105 98;" xml:space="preserve">
<style type="text/css">
.st0{fill:#1D1D1B;}
.st1{fill:none;stroke:#000000;stroke-width:2;stroke-linecap:round;stroke-linejoin:round;}
.st2{fill:#F06A86;stroke:#000000;stroke-width:2;stroke-linejoin:round;}
.st3{fill:#FFFFFF;}
.st4{fill:#FFFFFF;stroke:#000000;stroke-width:2;}
.st5{fill:#FFEE24;stroke:#000000;stroke-width:2;}
.st6{fill:#FFFFFF;stroke:#000000;stroke-width:2;stroke-linecap:round;stroke-linejoin:round;}


.ckick{transform-origin: 18% 90%;animation: ckick linear infinite 2.8s;}
@keyframes ckick {
0% {transform:scale(1);}	
10% {transform:scale(0.9);}	
20% {transform:scale(1);}	
30% {transform:scale(1);}	
40% {transform:scale(0.9);}	
50% {transform:scale(1);}
100% {transform:scale(1);}
}
.mouse{transform-origin: 70% 70%;animation: mouse linear infinite 2.8s;}
@keyframes mouse {
0% {transform:rotate( 0deg );}	
10% {transform:rotate( -10deg );}	
20% {transform:rotate( 0deg );}	
30% {transform:rotate( 0deg );}	
40% {transform:rotate( -10deg );}	
50% {transform:rotate( 0deg );}
100% {transform:rotate( 0deg );}
}

.star{animation: fade linear infinite 3s;}
.star2{animation: fade linear infinite 3.5s;}
.star3{transform-origin: 25% 12%; animation: star linear infinite 4.5s;}
.star4{transform-origin: 90% 50%; animation: star linear infinite 4s;}
.star5{transform-origin: 20% 85%; animation: star linear infinite 5s;}
@keyframes fade {
0% {opacity:1;}
10% {opacity:0;}
20% {opacity:1;}
30% {opacity:1;}
40% {opacity:0;}
50% {opacity:1;}
100% {opacity:1;}
}
@keyframes star {
0% {transform:scale(1);}	
10% {transform:scale(0.7);}	
20% {transform:scale(1.15);}	
30% {transform:scale(1.15);}	
40% {transform:scale(0.7);}	
50% {transform:scale(1);}
100% {transform:scale(1);}
}
</style>
<g id="body">
	<g class="ckick">
		<path id="Path_42613" class="st0" d="M86.9,52c0,17.9-14.5,32.5-32.5,32.5S22,69.9,22,52s14.5-32.5,32.5-32.5S86.9,34,86.9,52
			C86.9,52,86.9,52,86.9,52"/>
		<circle id="Ellipse_743" class="st1" cx="54.4" cy="52" r="32.5"/>
		<path id="Path_42614" class="st2" d="M86.9,49.4c0,17.9-14.5,32.5-32.5,32.5S22,67.3,22,49.4S36.5,17,54.4,17c0,0,0,0,0,0
			C72.3,17,86.9,31.5,86.9,49.4"/>
		<path id="Path_42616" class="st3" d="M61.8,36.4c-4-0.1-7.3,3.1-7.3,7.1c0,0,0,0.1,0,0.1c0-4-3.2-7.2-7.2-7.2c0,0-0.1,0-0.1,0
			c-4,0.2-7.1,3.5-7.1,7.4v0.4c0,6.4,3.4,12.4,8.9,15.7l5.5,3.3l5.5-3.3c5.5-3.3,8.9-9.3,8.9-15.7v-0.4
			C68.9,39.9,65.7,36.6,61.8,36.4"/>
	</g>
	<g class="mouse">
		<path id="Path_42618" class="st0" d="M91.4,71.5l-17-8.2c-1.1-0.5-2.4-0.1-2.9,1c-0.3,0.6-0.3,1.3,0,1.9l8.2,17
			c0.5,1,1.7,1.4,2.7,0.9c0.2-0.1,0.4-0.2,0.6-0.4l2.6-2.6l9.7,9.7L99,87l-9.7-9.7l2.6-2.6c0.8-0.8,0.8-2.1,0-2.9
			C91.8,71.7,91.6,71.6,91.4,71.5"/>
		<path id="Path_42619" class="st1" d="M91.4,71.5l-17-8.2c-1.1-0.5-2.4-0.1-2.9,1c-0.3,0.6-0.3,1.3,0,1.9l8.2,17
			c0.5,1,1.7,1.4,2.7,0.9c0.2-0.1,0.4-0.2,0.6-0.4l2.6-2.6l9.7,9.7L99,87l-9.7-9.7l2.6-2.6c0.8-0.8,0.8-2.1,0-2.9
			C91.8,71.7,91.6,71.6,91.4,71.5z"/>
		<path id="Path_42620" class="st4" d="M91.4,69.7l-17-8.2c-1.1-0.5-2.4-0.1-2.9,1c-0.3,0.6-0.3,1.3,0,1.9l8.2,17
			c0.5,1,1.7,1.4,2.7,0.9c0.2-0.1,0.4-0.2,0.6-0.4l2.6-2.6l9.7,9.7l3.8-3.8l-9.7-9.7l2.6-2.6c0.8-0.8,0.8-2.1,0-2.9
			C91.8,69.9,91.6,69.8,91.4,69.7"/>
	</g>
</g>
<g id="star">
	<g class="star">
		<path id="Path_42526" class="st5" d="M77.1,13.5l2.8-0.6c1.2-0.3,2.1-1.2,2.4-2.4l0.6-2.8c0.1-0.3,0.4-0.5,0.7-0.4
		c0.2,0,0.4,0.2,0.4,0.4l0.6,2.8c0.3,1.2,1.2,2.1,2.4,2.4l2.8,0.6c0.3,0.1,0.5,0.4,0.4,0.7c0,0.2-0.2,0.4-0.4,0.4L87,15.2
		c-1.2,0.3-2.1,1.2-2.4,2.4L84,20.4c-0.1,0.3-0.4,0.5-0.7,0.4c-0.2,0-0.4-0.2-0.4-0.4l-0.6-2.8c-0.3-1.2-1.2-2.1-2.4-2.4l-2.8-0.6
		c-0.3-0.1-0.5-0.4-0.4-0.7C76.7,13.7,76.8,13.5,77.1,13.5"/>
	</g>
	<g class="star2">
		<path id="Path_42527" class="st5" d="M6.6,24.8l3.7-0.8c1.6-0.3,2.8-1.5,3.1-3.1l0.8-3.7c0.1-0.4,0.5-0.7,0.9-0.6
		c0.3,0.1,0.5,0.3,0.6,0.6l0.8,3.7c0.3,1.6,1.5,2.8,3.1,3.1l3.7,0.8c0.4,0.1,0.7,0.5,0.6,0.9c-0.1,0.3-0.3,0.5-0.6,0.6L19.4,27
		c-1.6,0.3-2.8,1.5-3.1,3.1l-0.8,3.7c-0.1,0.4-0.5,0.7-0.9,0.6c-0.3-0.1-0.5-0.3-0.6-0.6l-0.8-3.7c-0.3-1.6-1.5-2.8-3.1-3.1
		l-3.7-0.8c-0.4-0.1-0.7-0.5-0.6-0.9C6.1,25.1,6.3,24.9,6.6,24.8"/>
	</g>
</g>
<g id="dot">
	<g class="star3">
		<path id="Path_42622" class="st6" d="M29.3,12.9c0,1.3-1,2.3-2.3,2.3s-2.3-1-2.3-2.3c0-1.3,1-2.3,2.3-2.3S29.3,11.6,29.3,12.9
			L29.3,12.9z"/>
	</g>
	<g class="star4">
		<path id="Path_42623" class="st6" d="M99,51.5c0,1.3-1,2.3-2.3,2.3s-2.3-1-2.3-2.3c0-1.3,1-2.3,2.3-2.3S99,50.2,99,51.5L99,51.5z"
			/>
	</g>
	<g class="star5">
		<path id="Path_42624" class="st6" d="M25.6,79.6c0,1.9-1.5,3.5-3.5,3.5s-3.5-1.5-3.5-3.5s1.5-3.5,3.5-3.5
			C24,76.2,25.6,77.7,25.6,79.6L25.6,79.6z"/>
	</g>
</g>
</svg>
