<svg xmlns="http://www.w3.org/2000/svg" xmlns:xlink="http://www.w3.org/1999/xlink" width="90" height="86" viewBox="0 0 90 86">
  <defs>
    <clipPath id="clip-path">
      <rect id="사각형_20455" data-name="사각형 20455" width="90" height="86" transform="translate(-0.203 0.041)" fill="#ffd152"/>
    </clipPath>
  </defs>
  <g id="그룹_112015" data-name="그룹 112015" transform="translate(0.203 -0.041)" clip-path="url(#clip-path)">
    <path id="패스_38051" data-name="패스 38051" d="M190.706,51.38c.632-.442,1.51-.676,2-1,.765-.507,1.387-1.674,2-2,.433-.23.592.12,1,0,.441-.13,1.036-.259,1,0-.048.336-.738.685-1,1-.357.429-.575,1.588-1,2-.567.553-1.4.458-2,1-.579.532-1.367,1.5-2,2-.935.747-2.023,1.283-3,2-.787.57-1.2,1.44-2,2-.869.6-2.1,1.439-3,2-1.612,1.02-2.158.886-4,2-.2.119-.795.883-1,1a7.044,7.044,0,0,1-1,0h0c-.012.005.012,0,0,0s.016,0,0,0h0c-.03,0,.03,0,0,0h0c-.054-.014,0,.045,0,0,0-.007,0,.008,0,0,0-.024.305-.278,1-1,.391-.407,1.566-1.588,2-2,.409-.388,1.451-1.511,2-2,.623-.554,2.345-2.466,3-3,.473-.385,1.5-.605,2-1,1.32-1.048,2.446-1.913,4-3" transform="translate(-115.909 -34.339)" fill="#ffd152"/>
    <path id="패스_38052" data-name="패스 38052" d="M36.118,52.75c-.672-.406-1.48-.7-2-1a30.145,30.145,0,0,0-3-1c-.454-.206-.582-.9-1-1-.452-.105-1.061.744-1,1,.08.333.708.7,1,1,.4.408,1.537.613,2,1,.619.521,1.355,1.492,2,2,.628.5,1.321.533,2,1,1,.695,1.958,1.338,3,2,.839.526,1.15,1.485,2,2,.923.547,2.049,1.49,3,2,1.7.93,2.057.988,4,2,.215.108,1.784.895,2,1a7.8,7.8,0,0,0,1,0h0c.012,0-.012,0,0,0s-.016,0,0,0h0c.031,0-.029.007,0,0h0c.007,0-.007,0,0,0,.053-.017,0,.046,0,0,0-.007,0,.008,0,0,0-.023-1.238-1.317-2-2-.429-.384-1.529-1.613-2-2-.445-.365-1.405-1.542-2-2-.674-.519-2.3-1.5-3-2-.508-.358-1.467-.633-2-1-1.417-.973-2.346-2-4-3" transform="translate(-19.321 -35.709)" fill="#ffd152"/>
    <path id="패스_38053" data-name="패스 38053" d="M190.5,209.021c.632.441,1.51.676,2,1,.766.506,1.386,1.675,2,2,.434.229.592-.119,1,0,.441.129,1.037.259,1,0-.048-.336-.737-.685-1-1-.358-.429-.574-1.589-1-2-.568-.553-1.4-.459-2-1-.58-.531-1.367-1.5-2-2-.937-.746-2.022-1.284-3-2-.788-.57-1.2-1.44-2-2-.87-.6-2.1-1.44-3-2-1.613-1.019-2.156-.887-4-2-.2-.119-.795-.883-1-1a7,7,0,0,0-1,0h0c-.012-.005.012,0,0,0s.016,0,0,0h0c-.03-.005.03,0,0,0h0c-.008,0,.007,0,0,0-.054.014,0-.046,0,0,0,.007,0-.008,0,0,0,.024.3.278,1,1,.392.406,1.566,1.589,2,2,.41.388,1.45,1.512,2,2,.624.553,2.344,2.467,3,3,.473.384,1.5.606,2,1,1.322,1.047,2.444,1.914,4,3" transform="translate(-115.702 -139.981)" fill="#ffd152"/>
    <path id="패스_38054" data-name="패스 38054" d="M129.214,240.364c.055.649-.059,1.51,0,2,.092.766-.148,1.445,0,2,.1.392.814.7,1,1,.2.324-.21.207,0,0,.273-.269.9-.635,1-1,.133-.5-.067-1.48,0-2,.093-.7-.062-1.3,0-2,.065-.687,1-1.306,1-2,0-1.028-.946-1.972-1-3-.05-.823.068-2.178,0-3-.086-.884.141-2.125,0-3-.238-1.578-.681-2.233-1-4-.039-.192.042-.809,0-1-.021-.1.005.019,0,0s0-.993,0-1,0,.009,0,0,.009.011,0,0h0c-.017-.019.026.012,0,0h0c-.052-.018.043-.032,0,0-.007.005.007-.006,0,0a21.988,21.988,0,0,0-1,3c-.087.5.061,1.476,0,2-.058.494-.952,1.36-1,2-.054.726.012,3.272,0,4-.009.525,0,1.455,0,2,0,1.447.865,2.4,1,4" transform="translate(-84.417 -159.323)" fill="#ffd152"/>
    <path id="패스_38055" data-name="패스 38055" d="M132.845,5.041c-.044-.65-.95-1.509-1-2-.079-.766.138-1.443,0-2-.1-.393.181-.7,0-1-.2-.325-.786-.2-1,0-.277.266-.9.636-1,1-.142.5.076,1.481,0,2-.105.7.075,1.3,0,2-.077.686.012,1.307,0,2-.022,1.028-.036,1.972,0,3,.035.823-.054,2.178,0,3,.07.885-.126,2.124,0,3,.209,1.581.713,2.23,1,4,.035.193-.039.808,0,1,.019.1-.005.981,0,1h0c0,.01,0-.009,0,0s-.009-.011,0,0h0c.017.02-.026-.012,0,0h0c.051.018-.044.032,0,0,.007,0-.007.006,0,0a6.15,6.15,0,0,0,1-2c.1-.5-.07-2.477,0-3,.067-.494.941-1.36,1-2,.067-.725-.025-2.272,0-3,.018-.525-.009-2.455,0-3,.024-1.447.106-2.4,0-4" transform="translate(-85.048 0)" fill="#ffd152"/>
    <path id="패스_38056" data-name="패스 38056" d="M200.264,144.448c.859-.041,2.351.045,3,0,1.013-.07,2.265.112,3,0,.519-.079.6-.86,1-1,.428-.152.274.159,0,0a9.533,9.533,0,0,0-2-1c-.658-.1-1.312.051-2,0-.922-.071-2.07.047-3,0-.909-.05-1.082,0-2,0-1.361,0-2.64-.041-4,0-1.089.038-2.913-.052-4,0-1.17.065-2.843-.106-4,0-2.089.18-2.662.759-5,1-.255.029-.747-.032-1,0-.126.016-.975,0-1,0h0c-.013,0,.012,0,0,0s.014-.006,0,0h0c-.026.013.016-.02,0,0h0s0,0,0,0c-.024.039-.043-.033,0,0,.007.005-.008,0,0,0a3.545,3.545,0,0,0,2,1c.659.066,3.307-.046,4,0,.654.043,2.152-.036,3,0,.961.041,3.037-.009,4,0,.695.006,2.279,0,3,0,1.915,0,2.886.1,5,0" transform="translate(-117.468 -101.407)" fill="#ffd152"/>
    <path id="패스_38057" data-name="패스 38057" d="M6.8,141.928c-.86.033-1.35-.038-2,0-1.014.06-2.263-.1-3,0-.52.074-.6.863-1,1-.43.148-1.271-.161-1,0a9.553,9.553,0,0,0,2,1c.656.107,1.313-.058,2,0,.92.08,2.071-.056,3,0,.908.058,2.082-.009,3,0,1.361.016,2.639.027,4,0,1.09-.027,1.912.04,3,0,1.171-.053,2.841.095,4,0,2.092-.159,2.657-.783,5-1,.255-.027,1.746.029,2,0,.126-.014.975,0,1,0h0c.013,0-.012,0,0,0s-.014.006,0,0h0c.026-.013-.016.02,0,0h0c0-.005,0,.005,0,0,.024-.039.042.033,0,0-.007-.006.009,0,0,0a12.246,12.246,0,0,0-3-1c-.658-.073-2.308.053-3,0-.653-.05-2.153.044-3,0-.96-.051-3.037.019-4,0-.694-.014-3.279.007-4,0-1.915-.018-2.885-.081-5,0" transform="translate(0 -100.887)" fill="#ffd152"/>
    <path id="패스_38058" data-name="패스 38058" d="M40.2,202.266c-.627.446-1.514.672-2,1-.759.511-1.39,1.67-2,2-.43.233-.594-.123-1,0-.439.132-1.034.259-1,0,.044-.337.742-.683,1-1,.353-.431.579-1.586,1-2,.561-.557,1.411-.455,2-1,.573-.536,1.373-1.494,2-2,.927-.754,1.032-1.277,2-2,.78-.575,2.208-1.435,3-2,.862-.6,2.107-1.434,3-2,1.6-1.03,2.171-.873,4-2,.2-.121.8-.882,1-1a6.919,6.919,0,0,1,1,0h0c.016-.005-.016,0,0,0h0c.03-.005-.03,0,0,0h0c.054.014,0-.046,0,0,0,.007,0-.008,0,0,0,.024-1.313,1.273-2,2-.386.409-1.571,1.586-2,2-.4.391-1.456.508-2,1-.617.558-1.351,2.462-2,3-.468.388-1.507.6-2,1-1.308,1.057-2.458,1.9-4,3" transform="translate(-22.399 -135.224)" fill="#ffd152"/>
  </g>
</svg>
