<?xml version="1.0" encoding="utf-8"?>
<!-- Generator: Adobe Illustrator 26.1.0, SVG Export Plug-In . SVG Version: 6.00 Build 0)  -->
<svg version="1.1" id="Layer_1" xmlns="http://www.w3.org/2000/svg" xmlns:xlink="http://www.w3.org/1999/xlink" x="0px" y="0px" viewBox="0 0 60 60" style="enable-background:new 0 0 60 60;" xml:space="preserve">
<style type="text/css">
.st0{fill:#FFFFFF;fill-opacity:0;}
.st1{filter:url(#Polygon_32);}
.st2{fill:url(#Polygon_32-2_00000014630917109142805450000004185597524540657818_);}
.st3{fill:url(#Ellipse_644-2_00000092456804287070289990000003689082751003064249_);}
.st4{filter:url(#Ellipse_644);}
.st5{fill:#FFFFFF;}
.st6{fill:url(#Path_37119_00000057116215138190349050000003594192090440833207_);}
</style>

<filter  filterUnits="userSpaceOnUse" height="72.292" id="Polygon_32" width="72.292" x="0" y="0">
	<feOffset  dx="2" dy="4" input="SourceAlpha"></feOffset>
	<feGaussianBlur  result="blur" stdDeviation="2"></feGaussianBlur>
	<feFlood  flood-opacity="0.161"></feFlood>
	<feComposite  in2="blur" operator="in"></feComposite>
	<feComposite  in="SourceGraphic" operator="over"></feComposite>
</filter>
<filter  id="Ellipse_644">
	<feOffset  input="SourceAlpha"></feOffset>
	<feGaussianBlur  result="blur-2" stdDeviation="1"></feGaussianBlur>
	<feFlood  flood-color="#73208a" flood-opacity="0.302" result="color"></feFlood>
	<feComposite  in="SourceGraphic" in2="blur-2" operator="out"></feComposite>
	<feComposite  in="color" operator="in"></feComposite>
	<feComposite  in2="SourceGraphic" operator="in"></feComposite>
</filter>
<g id="Group_112603" transform="translate(-754.854 -1054)">
	<rect id="Rectangle_20572" x="755" y="1054" class="st0" width="60" height="60"/>
	<g id="Group_112104" transform="translate(473.553 387.702)">
		<g transform="matrix(1, 0, 0, 1, 281.3, 666.3)" class="st1">
			
				<linearGradient id="Polygon_32-2_00000026140675050078630570000013228313033069707143_" gradientUnits="userSpaceOnUse" x1="-277.9689" y1="452.727" x2="-278.9209" y2="452.653" gradientTransform="matrix(-27.3457 -27.3457 -27.3457 27.3457 4795.7197 -19962.6152)">
				<stop  offset="0" style="stop-color:#E380FF"/>
				<stop  offset="1" style="stop-color:#A34CB9"/>
			</linearGradient>
			
				<path id="Polygon_32-2_00000039851754796515469780000008708177807982901389_" style="fill:url(#Polygon_32-2_00000026140675050078630570000013228313033069707143_);" d="
				M15.5,41.8c-1.9-0.3-3.3-2.1-3-4c0-0.3,0.1-0.5,0.2-0.8l0,0c0.6-1.5,0.1-3.1-1.1-4.1l0,0c-1.5-1.2-1.8-3.4-0.6-5
				c0.2-0.2,0.4-0.4,0.6-0.6l0,0c1.2-1,1.7-2.6,1.1-4.1l0,0c-0.7-1.8,0.2-3.9,2-4.6c0.3-0.1,0.5-0.2,0.8-0.2l0,0
				c1.6-0.2,2.8-1.4,3-3l0,0c0.3-1.9,2.1-3.3,4-3c0.3,0,0.5,0.1,0.8,0.2l0,0c1.5,0.6,3.1,0.1,4.1-1.1l0,0c1.2-1.5,3.4-1.8,5-0.6
				c0.2,0.2,0.4,0.4,0.6,0.6l0,0c1,1.2,2.6,1.7,4.1,1.1l0,0c1.8-0.7,3.9,0.2,4.6,2c0.1,0.3,0.2,0.5,0.2,0.8l0,0c0.2,1.6,1.4,2.8,3,3
				l0,0c1.9,0.3,3.3,2.1,3,4c0,0.3-0.1,0.5-0.2,0.8l0,0c-0.6,1.5-0.1,3.1,1.1,4.1l0,0c1.5,1.2,1.8,3.4,0.6,5
				c-0.2,0.2-0.4,0.4-0.6,0.6l0,0c-1.2,1-1.7,2.6-1.1,4.1l0,0c0.7,1.8-0.2,3.9-2,4.6c-0.3,0.1-0.5,0.2-0.8,0.2l0,0
				c-1.6,0.2-2.8,1.4-3,3l0,0c-0.3,1.9-2.1,3.3-4,3c-0.3,0-0.5-0.1-0.8-0.2l0,0c-1.5-0.6-3.1-0.1-4.1,1.1l0,0
				c-1.2,1.5-3.4,1.8-5,0.6c-0.2-0.2-0.4-0.4-0.6-0.6l0,0c-1-1.2-2.6-1.7-4.1-1.1l0,0c-1.8,0.7-3.9-0.2-4.6-2
				c-0.1-0.3-0.2-0.5-0.2-0.8l0,0C18.2,43.3,17,42,15.5,41.8z"/>
		</g>
		<g>
			
				<linearGradient id="Ellipse_644-2_00000165226885145439910120000008590276454684823191_" gradientUnits="userSpaceOnUse" x1="23.4287" y1="1103.7673" x2="24.1337" y2="1103.0503" gradientTransform="matrix(29.31 0 0 -29.31 -385.2742 33037.668)">
				<stop  offset="0" style="stop-color:#FFFFFF"/>
				<stop  offset="1" style="stop-color:#F7D5FF"/>
			</linearGradient>
			
				<circle id="Ellipse_644-2" style="fill:url(#Ellipse_644-2_00000165226885145439910120000008590276454684823191_);" cx="311.5" cy="696.5" r="14.7"/>
			<g transform="matrix(1, 0, 0, 1, 281.3, 666.3)" class="st4">
				<circle id="Ellipse_644-3_00000178903223662403675920000008646998835170560437_" class="st5" cx="30.2" cy="30.2" r="14.7"/>
			</g>
		</g>
		
			<linearGradient id="Path_37119_00000152262958006390444460000013407721342456549053_" gradientUnits="userSpaceOnUse" x1="27.5212" y1="1057.7477" x2="26.7232" y2="1058.8677" gradientTransform="matrix(21.314 0 0 -6.661 -266.2604 7745.8022)">
			<stop  offset="0" style="stop-color:#9431AC"/>
			<stop  offset="1" style="stop-color:#D850FF"/>
		</linearGradient>
		<path id="Path_37119" style="fill:url(#Path_37119_00000152262958006390444460000013407721342456549053_);" d="M301.6,693.3h1.2
			l3.2,4v-4h1.4v6.6h-1.2l-3.2-4v4h-1.4V693.3z M308.6,693.3h4.8v1.3H310v1.3h3.1v1.3H310v1.4h3.4v1.3h-4.9L308.6,693.3z
			 M322.9,693.3l-1.9,6.6h-1.5l-1.2-4.1l-1.2,4.1h-1.5l-1.9-6.6h1.5l1.1,4.3l1.1-4.3h1.5l1.1,4.3l1.1-4.3H322.9z"/>
	</g>
</g>
</svg>
