<svg xmlns="http://www.w3.org/2000/svg" xmlns:xlink="http://www.w3.org/1999/xlink" width="62.401" height="106.071" viewBox="0 0 62.401 106.071">
  <defs>
    <clipPath id="clip-path">
      <rect id="사각형_20448" data-name="사각형 20448" width="62.401" height="106.071" transform="translate(0 0)" fill="none"/>
    </clipPath>
  </defs>
  <g id="그룹_112010" data-name="그룹 112010" transform="translate(62.401 106.071) rotate(180)">
    <g id="그룹_112009" data-name="그룹 112009" transform="translate(0 0)" clip-path="url(#clip-path)">
      <path id="패스_38041" data-name="패스 38041" d="M0,14.4S4.649,1.368,12.641.109s3.835,8.664,1.314,14.618a19.524,19.524,0,0,0-.7,11.456Z" transform="translate(30.968 32.275)" fill="#f6e0d6"/>
      <path id="패스_38042" data-name="패스 38042" d="M0,14.4S4.649,1.368,12.641.109s3.835,8.664,1.314,14.618a19.524,19.524,0,0,0-.7,11.456Z" transform="translate(30.968 32.275)" fill="none" stroke="#000" stroke-linecap="round" stroke-linejoin="round" stroke-width="3"/>
      <path id="패스_38043" data-name="패스 38043" d="M11.163,1.877a6.265,6.265,0,0,0,.225,8.732L22.378,21.6a6.128,6.128,0,0,0-7.554,9.539,6.126,6.126,0,0,0-7.441,9.612l1.112,1.11a6.127,6.127,0,0,0-7,1.574,6.248,6.248,0,0,0,.384,8.523L6.47,56.551l8.042,8.043a21.994,21.994,0,0,0,31.1,0l3-3a21.994,21.994,0,0,0,0-31.1L40.57,22.448,19.909,1.8a6.131,6.131,0,0,0-8.672,0l-.079.081" transform="translate(3.673 31.364)" fill="#f6e0d6"/>
      <path id="패스_38044" data-name="패스 38044" d="M11.163,1.877a6.265,6.265,0,0,0,.225,8.732L22.378,21.6a6.128,6.128,0,0,0-7.554,9.539,6.126,6.126,0,0,0-7.441,9.612l1.112,1.11a6.127,6.127,0,0,0-7,1.574,6.248,6.248,0,0,0,.384,8.523L6.47,56.551l8.042,8.043a21.994,21.994,0,0,0,31.1,0l3-3a21.994,21.994,0,0,0,0-31.1L40.57,22.448,19.909,1.8a6.131,6.131,0,0,0-8.672,0l-.079.081" transform="translate(3.673 31.364)" fill="none" stroke="#000" stroke-width="3"/>
      <path id="패스_38045" data-name="패스 38045" d="M11.163,1.875a6.265,6.265,0,0,0,.225,8.732L22.378,21.6a6.128,6.128,0,0,0-7.554,9.539,6.126,6.126,0,0,0-7.441,9.612l1.112,1.11a6.127,6.127,0,0,0-7,1.574,6.248,6.248,0,0,0,.384,8.523L6.47,56.548l8.042,8.043a21.994,21.994,0,0,0,31.1,0l3-3a21.994,21.994,0,0,0,0-31.1L40.57,22.445,19.909,1.793a6.132,6.132,0,0,0-8.672.006Z" transform="translate(3.673 31.367)" fill="none" stroke="#000" stroke-linecap="round" stroke-linejoin="round" stroke-width="2"/>
      <line id="선_818" data-name="선 818" x2="8.221" y2="8.221" transform="translate(26.052 52.963)" fill="none" stroke="#000" stroke-width="1.2"/>
      <line id="선_819" data-name="선 819" x2="8.221" y2="8.221" transform="translate(26.052 52.963)" fill="none" stroke="#000" stroke-linecap="round" stroke-linejoin="round" stroke-width="3"/>
      <line id="선_820" data-name="선 820" x2="7.229" y2="7.229" transform="translate(18.495 62.503)" fill="none" stroke="#000" stroke-width="1.2"/>
      <line id="선_821" data-name="선 821" x2="7.229" y2="7.229" transform="translate(18.495 62.503)" fill="none" stroke="#000" stroke-linecap="round" stroke-linejoin="round" stroke-width="3"/>
      <line id="선_822" data-name="선 822" x2="5.033" y2="5.033" transform="translate(12.164 73.227)" fill="none" stroke="#000" stroke-width="1.2"/>
      <line id="선_823" data-name="선 823" x2="5.033" y2="5.033" transform="translate(12.164 73.227)" fill="none" stroke="#000" stroke-linecap="round" stroke-linejoin="round" stroke-width="3"/>
      <path id="패스_38046" data-name="패스 38046" d="M20.8,0a6.891,6.891,0,0,0-7.019,6.76V6.89A6.892,6.892,0,0,0,6.892,0H6.761A7.04,7.04,0,0,0,0,7.118v.415A17.535,17.535,0,0,0,8.507,22.564l5.273,3.168,5.273-3.168a17.533,17.533,0,0,0,8.5-15.031V7.118A7.04,7.04,0,0,0,20.8,0" transform="translate(18.1 3.673)" fill="#ff5bb9" stroke="#707070" stroke-width="1"/>
      <path id="패스_38047" data-name="패스 38047" d="M20.8,0a6.891,6.891,0,0,0-7.019,6.76V6.89A6.892,6.892,0,0,0,6.892,0H6.761A7.04,7.04,0,0,0,0,7.118v.415A17.535,17.535,0,0,0,8.507,22.564l5.273,3.168,5.273-3.168a17.533,17.533,0,0,0,8.5-15.031V7.118A7.04,7.04,0,0,0,20.8,0Z" transform="translate(18.1 3.673)" fill="none" stroke="#000" stroke-linecap="round" stroke-linejoin="round" stroke-width="3"/>
    </g>
  </g>
</svg>
