<svg xmlns="http://www.w3.org/2000/svg" width="126" height="126" viewBox="0 0 126 126">
  <g id="그룹_116243" data-name="그룹 116243" transform="translate(-6.667 -7)">
    <path id="패스_42651" data-name="패스 42651" d="M107.548,107.548a63,63,0,1,1,0-89.094,63,63,0,0,1,0,89.094" transform="translate(6.667 7)" fill="#fff"/>
    <path id="패스_42652" data-name="패스 42652" d="M111.756,111.971a57.8,57.8,0,1,1,0-81.837,57.652,57.652,0,0,1,0,81.837" transform="translate(-1.259 -1.052)" fill="#feea9a"/>
    <path id="패스_42653" data-name="패스 42653" d="M111.756,111.971a57.8,57.8,0,1,1,0-81.837A57.652,57.652,0,0,1,111.756,111.971Z" transform="translate(-1.078 -1.052)" fill="none" stroke="#1c1c1c" stroke-width="3"/>
    <path id="패스_42654" data-name="패스 42654" d="M99.466,100.57A37.9,37.9,0,0,1,45.928,46.915" transform="translate(-2.849 -3.742)" fill="none" stroke="#1c1c1c" stroke-width="3"/>
    <path id="패스_42655" data-name="패스 42655" d="M73.487,56.438c-5.077,5.088-11.008,7.394-13.249,5.148S60.3,53.4,65.375,48.308s11.008-7.393,13.249-5.15-.061,8.191-5.138,13.279" transform="translate(-4.855 -3.374)" fill="#010200"/>
    <path id="패스_42656" data-name="패스 42656" d="M102.051,85c-5.077,5.089-11.01,7.393-13.25,5.149s.061-8.19,5.138-13.278,11.009-7.393,13.249-5.149-.06,8.19-5.137,13.278" transform="translate(-7.191 -5.652)" fill="#010200"/>
  </g>
</svg>
