<svg xmlns="http://www.w3.org/2000/svg" width="24" height="24" viewBox="0 0 24 24">
  <g id="Group_115780" data-name="Group 115780" transform="translate(16999 8459)">
    <rect id="Rectangle_21783" data-name="Rectangle 21783" width="24" height="24" transform="translate(-16999 -8459)" fill="none"/>
    <g id="Group_115781" data-name="Group 115781" transform="translate(-16996.5 -8456.142)">
      <g id="Group_115782" data-name="Group 115782">
        <path id="Path_51941" data-name="Path 51941" d="M4.5,17.783c-2.168,0-4-3.435-4-7.5s1.832-7.5,4-7.5,4,3.435,4,7.5-1.832,7.5-4,7.5" fill="#fff" stroke="#000" stroke-width="1.2"/>
        <path id="Path_51943" data-name="Path 51943" d="M3.24,13.783a2.5,2.5,0,1,1,2.5-2.5,2.5,2.5,0,0,1-2.5,2.5" fill="#82540f"/>
        <path id="Path_51944" data-name="Path 51944" d="M3.239,9.284a2,2,0,1,1-2,2,2,2,0,0,1,2-2m0-1a3,3,0,1,0,3,3,3,3,0,0,0-3-3"/>
        <line id="Line_913" data-name="Line 913" y2="3" transform="translate(4.5)" fill="none" stroke="#000" stroke-miterlimit="10" stroke-width="1.2"/>
        <line id="Line_914" data-name="Line 914" x2="1.5" y2="2.598" transform="translate(1.34 0.985)" fill="none" stroke="#000" stroke-miterlimit="10" stroke-width="1.2"/>
        <line id="Line_915" data-name="Line 915" x1="1.5" y2="2.598" transform="translate(6.16 0.985)" fill="none" stroke="#000" stroke-miterlimit="10" stroke-width="1.2"/>
        <path id="Path_51951" data-name="Path 51951" d="M2,11.3a1.26,1.26,0,1,1,1.26-1.26A1.262,1.262,0,0,1,2,11.3" transform="translate(1.24 1.24)"/>
        <path id="Path_51949" data-name="Path 51949" d="M3.239,10.065a.781.781,0,1,0,.781-.781.781.781,0,0,0-.781.781" transform="translate(0.219 1.219)" fill="#fff"/>
      </g>
      <g id="Group_115783" data-name="Group 115783" transform="translate(10)">
        <path id="Path_51941-2" data-name="Path 51941" d="M4.5,17.783c-2.168,0-4-3.435-4-7.5s1.832-7.5,4-7.5,4,3.435,4,7.5-1.832,7.5-4,7.5" fill="#fff" stroke="#000" stroke-width="1.2"/>
        <path id="Path_51943-2" data-name="Path 51943" d="M3.24,13.783a2.5,2.5,0,1,1,2.5-2.5,2.5,2.5,0,0,1-2.5,2.5" fill="#82540f"/>
        <path id="Path_51944-2" data-name="Path 51944" d="M3.239,9.284a2,2,0,1,1-2,2,2,2,0,0,1,2-2m0-1a3,3,0,1,0,3,3,3,3,0,0,0-3-3"/>
        <line id="Line_913-2" data-name="Line 913" y2="3" transform="translate(4.5)" fill="none" stroke="#000" stroke-miterlimit="10" stroke-width="1.2"/>
        <line id="Line_914-2" data-name="Line 914" x2="1.5" y2="2.598" transform="translate(1.34 0.985)" fill="none" stroke="#000" stroke-miterlimit="10" stroke-width="1.2"/>
        <line id="Line_915-2" data-name="Line 915" x1="1.5" y2="2.598" transform="translate(6.16 0.985)" fill="none" stroke="#000" stroke-miterlimit="10" stroke-width="1.2"/>
        <path id="Path_51951-2" data-name="Path 51951" d="M2,11.3a1.26,1.26,0,1,1,1.26-1.26A1.262,1.262,0,0,1,2,11.3" transform="translate(1.24 1.24)"/>
        <path id="Path_51949-2" data-name="Path 51949" d="M3.239,10.065a.781.781,0,1,0,.781-.781.781.781,0,0,0-.781.781" transform="translate(0.219 1.219)" fill="#fff"/>
      </g>
    </g>
  </g>
</svg>
