<svg xmlns="http://www.w3.org/2000/svg" width="103" height="120" viewBox="0 0 103 120">
<style>
.st0{fill:#FFEE24;}
.star {animation:star linear infinite 2.0s;}
.star.s1 {transform-origin:32% 27.5%;}
.star.s2 {transform-origin:85% 87%;animation-delay:0.5s;}
	
@keyframes star {
0% {transform:scale(1);}	
55% {transform:scale(0.7);;}
100% {transform:scale(1);}
}
</style>
<path id="패스_38153" class="st0 star s1" d="M35.4,2.2l2.9,13.6C39.5,21.5,44,26,49.7,27.2l13.6,2.9c1.5,0.3,2.4,1.8,2.1,3.2
	c-0.2,1.1-1,1.9-2.1,2.1l-13.6,2.9C44,39.5,39.5,44,38.3,49.7l-2.9,13.6c-0.3,1.5-1.8,2.4-3.2,2.1c-1.1-0.2-1.9-1-2.1-2.1l-2.9-13.6
	C26,44,21.5,39.5,15.7,38.3L2.2,35.4c-1.5-0.3-2.4-1.8-2.1-3.2c0.2-1.1,1-1.9,2.1-2.1l13.6-2.9C21.5,26,26,21.5,27.2,15.8l2.9-13.6
	c0.3-1.5,1.8-2.4,3.2-2.1C34.3,0.3,35.2,1.1,35.4,2.2z"/>
<path id="패스_38155" class="st0 star s2" d="M88.1,89.5l1.4,6.4c0.6,2.7,2.7,4.8,5.4,5.4l6.4,1.4c0.7,0.1,1.1,0.8,1,1.5
	c-0.1,0.5-0.5,0.9-1,1l-6.4,1.4c-2.7,0.6-4.8,2.7-5.4,5.4l-1.4,6.4c-0.1,0.7-0.8,1.1-1.5,1c-0.5-0.1-0.9-0.5-1-1l-1.3-6.4
	c-0.6-2.7-2.7-4.8-5.4-5.4l-6.4-1.4c-0.7-0.1-1.1-0.8-1-1.5c0.1-0.5,0.5-0.9,1-1l6.4-1.4c2.7-0.6,4.8-2.7,5.4-5.4l1.4-6.4
	c0.2-0.7,0.8-1.1,1.5-1C87.6,88.6,88,89,88.1,89.5z"/>
</svg>
