<svg xmlns="http://www.w3.org/2000/svg" xmlns:xlink="http://www.w3.org/1999/xlink" width="1200" height="250" viewBox="0 0 1200 250">
  <defs>
    <filter id="핫_딜_특가" x="470.999" y="90.166" width="261" height="55" filterUnits="userSpaceOnUse">
      <feOffset dx="3" dy="3" input="SourceAlpha"/>
      <feGaussianBlur result="blur"/>
      <feFlood/>
      <feComposite operator="in" in2="blur"/>
      <feComposite in="SourceGraphic"/>
    </filter>
    <clipPath id="clip-path">
      <rect id="사각형_19879" data-name="사각형 19879" width="31.608" height="31.38" fill="#f86493" stroke="#707070" stroke-width="2.5"/>
    </clipPath>
    <clipPath id="clip-path-2">
      <rect id="사각형_19880" data-name="사각형 19880" width="50.821" height="50.455" fill="#f86493" stroke="#707070" stroke-width="2.5"/>
    </clipPath>
    <clipPath id="clip-path-3">
      <rect id="사각형_19881" data-name="사각형 19881" width="37.343" height="37.074" fill="#f86493" stroke="#707070" stroke-width="2.5"/>
    </clipPath>
    <clipPath id="clip-path-4">
      <rect id="사각형_19882" data-name="사각형 19882" width="36.69" height="36.425" fill="#f86493" stroke="#707070" stroke-width="2.5"/>
    </clipPath>
    <clipPath id="clip-path-5">
      <rect id="사각형_20385" data-name="사각형 20385" width="223" height="116" transform="translate(262 191)" fill="#86ccff"/>
    </clipPath>
  </defs>
  <g id="그룹_113020" data-name="그룹 113020" transform="translate(-360 -342)">
    <rect id="사각형_20765" data-name="사각형 20765" width="1200" height="250" transform="translate(360 342)" fill="#fff" opacity="0"/>
    <g id="그룹_113019" data-name="그룹 113019">
      <g id="title" transform="translate(699.023 189.381)">
        <g id="그룹_111948" data-name="그룹 111948" transform="translate(74.166 183.079)">
          <g id="그룹_110111" data-name="그룹 110111" transform="translate(-0.191)">
            <path id="패스_37288" data-name="패스 37288" d="M365.056,94.14a49.869,49.869,0,0,0,6.108-23.8c0-31.507-29.976-57.049-66.953-57.049-23.775,0-44.639,10.568-56.519,26.482-10.868-12.442-28.257-20.5-47.857-20.5a67.54,67.54,0,0,0-29.005,6.418C160.325,14.141,145.172,5.818,127.315,2.7a84.436,84.436,0,0,0-14.324-1.2c-40.4,0-73.158,27.909-73.158,62.336,0,1,.034,1.993.088,2.982C23.678,76.607,13.06,92.728,13.06,110.971c0,29.855,28.4,54.058,63.443,54.058a74.915,74.915,0,0,0,9.167-.569c7.718,15.872,26.067,27.04,47.485,27.04,18.524,0,34.752-8.355,43.794-20.879a87.892,87.892,0,0,0,31.707,5.837,85.614,85.614,0,0,0,45.751-12.87c8.743,11.239,23.713,18.654,40.723,18.654,23.933,0,43.83-14.675,48.008-34.037a38.987,38.987,0,0,0,9.966,1.282c18.544,0,33.576-12.808,33.576-28.609,0-12.213-8.984-22.632-21.625-26.737" transform="translate(-13.061 -1.961)" fill="#fec9c9"/>
            <path id="패스_37289" data-name="패스 37289" d="M365.056,94.14a49.869,49.869,0,0,0,6.108-23.8c0-31.507-29.976-57.049-66.953-57.049-23.775,0-44.639,10.568-56.519,26.482-10.868-12.442-28.257-20.5-47.857-20.5a67.54,67.54,0,0,0-29.005,6.418C157.447,10.979,136.524,1.5,112.991,1.5c-40.4,0-73.158,27.909-73.158,62.336,0,1,.034,1.993.088,2.982C23.678,76.607,13.06,92.728,13.06,110.971c0,29.855,28.4,54.058,63.443,54.058a74.915,74.915,0,0,0,9.167-.569c7.718,15.872,26.067,27.04,47.485,27.04,18.524,0,34.752-8.355,43.794-20.879a87.892,87.892,0,0,0,31.707,5.837,85.614,85.614,0,0,0,45.751-12.87c8.743,11.239,23.713,18.654,40.723,18.654,23.933,0,43.83-14.675,48.008-34.037a38.987,38.987,0,0,0,9.966,1.282c18.544,0,33.576-12.808,33.576-28.609C386.681,108.664,377.7,98.245,365.056,94.14Z" transform="translate(-13.061 -1.961)" fill="none" stroke="#080d4b" stroke-linecap="round" stroke-linejoin="round" stroke-width="3"/>
          </g>
          <g id="그룹_110116" data-name="그룹 110116" transform="translate(58.809 54.638)">
            <g id="그룹_110115" data-name="그룹 110115" transform="translate(0 -0.001)">
              <g transform="matrix(1, 0, 0, 1, -472, -85.1)" filter="url(#핫_딜_특가)">
                <text id="핫_딜_특가-2" data-name="핫       딜 특가" transform="translate(600 126.17)" fill="#fff" stroke="#000" stroke-width="1" font-size="44" font-family="GmarketSansBold, Gmarket Sans" letter-spacing="-0.025em"><tspan x="-127.886" y="0" xml:space="preserve">핫       딜 특가</tspan></text>
              </g>
              <g id="그룹_110114" data-name="그룹 110114" transform="matrix(0.998, -0.07, 0.07, 0.998, 42.355, 4.776)">
                <path id="패스_37290" data-name="패스 37290" d="M.01.122l29-.122L29,2.509,0,2.63Z" transform="translate(44.956 25.117) rotate(-11.888)" fill="#fff" stroke="#000" stroke-width="2"/>
                <g id="그룹_110113" data-name="그룹 110113" transform="translate(0 0)">
                  <g id="그룹_110112" data-name="그룹 110112" transform="translate(0)">
                    <path id="패스_37291" data-name="패스 37291" d="M32.817.306A12.283,12.283,0,0,0,23.754,14.8,12.038,12.038,0,0,0,9.737,5.265C3.112,6.554-1.125,13.356.264,20.093a35.464,35.464,0,0,0,19.43,24.948l11.412,5.411L39.413,40.8a36.121,36.121,0,0,0,7.93-30.826h0C45.953,3.241,39.389-1.24,32.817.306" transform="translate(16.426 0)" fill="#ff486e" stroke="#000" stroke-width="2"/>
                    <path id="패스_37292" data-name="패스 37292" d="M32.817.306A12.283,12.283,0,0,0,23.754,14.8,12.038,12.038,0,0,0,9.737,5.265C3.112,6.554-1.125,13.356.264,20.093a35.464,35.464,0,0,0,19.43,24.948l11.412,5.411L39.413,40.8a36.121,36.121,0,0,0,7.93-30.826h0C45.953,3.241,39.389-1.24,32.817.306Z" transform="translate(16.426 0)" fill="none" stroke="#000" stroke-linecap="round" stroke-linejoin="round" stroke-width="2"/>
                    <path id="패스_37293" data-name="패스 37293" d="M1.715,8.71,3.084,4.8.287,1.785A1.058,1.058,0,0,1,1.131,0L13.475,1.129a1.452,1.452,0,0,1,1.283,1.163,1.482,1.482,0,0,1-.715,1.592L3.19,9.992A1.044,1.044,0,0,1,1.715,8.71" transform="translate(68.006 13.493)" fill="#ffbb01" stroke="#000" stroke-width="2"/>
                    <path id="패스_37294" data-name="패스 37294" d="M0,0A5.544,5.544,0,0,1,2.982,3.908,5.637,5.637,0,0,1,1.8,8.707" transform="translate(39.632 20.506)" fill="#f06a86" stroke="#000" stroke-width="2"/>
                    <path id="패스_37295" data-name="패스 37295" d="M0,6.852.548,9.509l31.89-6.852A5.858,5.858,0,0,0,31.889,0Z" transform="translate(10.294 23.117)" fill="#fff" stroke="#000" stroke-width="2"/>
                    <path id="패스_37296" data-name="패스 37296" d="M0,2.05,9.543,0l3.425,3.349L3.425,5.4Z" transform="translate(0 27.433)" fill="#7582f0" stroke="#000" stroke-width="2"/>
                    <path id="패스_37297" data-name="패스 37297" d="M0,6.524l9.543-2.05L11.355,0,1.812,2.051Z" transform="translate(1.613 30.782)" fill="#7582f0" stroke="#000" stroke-width="2"/>
                  </g>
                </g>
              </g>
            </g>
          </g>
          <text id="MD가_엄선한_핫한_상품_집결" data-name="MD가 엄선한 핫한 상품 집결" transform="translate(186.811 136.52)" font-size="15" font-family="NotoSansCJKkr-Medium, Noto Sans CJK KR" font-weight="500" letter-spacing="-0.01em"><tspan x="-86.092" y="0">MD가 엄선한 핫한 상품 집결</tspan></text>
        </g>
        <g id="그룹_111949" data-name="그룹 111949" transform="translate(419.306 252.722) rotate(14)">
          <g id="그룹_110118" data-name="그룹 110118" transform="translate(0 0)" clip-path="url(#clip-path)">
            <path id="패스_37298" data-name="패스 37298" d="M20.953,0A7.03,7.03,0,0,0,14.061,7.03,7.031,7.031,0,0,0,7.167,0,7.141,7.141,0,0,0,0,7.169,20.379,20.379,0,0,0,8.171,23.487l5.889,4.406,5.888-4.406A20.379,20.379,0,0,0,28.12,7.169,7.141,7.141,0,0,0,20.953,0" transform="translate(1.744 1.744)" fill="#f86493" stroke="#707070" stroke-width="2.5"/>
            <path id="패스_37299" data-name="패스 37299" d="M20.953,0A7.03,7.03,0,0,0,14.061,7.03,7.031,7.031,0,0,0,7.167,0,7.141,7.141,0,0,0,0,7.169,20.379,20.379,0,0,0,8.171,23.487l5.889,4.406,5.888-4.406A20.379,20.379,0,0,0,28.12,7.169,7.141,7.141,0,0,0,20.953,0Z" transform="translate(1.744 1.744)" fill="#f86493" stroke="#080d4b" stroke-linecap="round" stroke-linejoin="round" stroke-width="2.5"/>
          </g>
        </g>
        <g id="그룹_111950" data-name="그룹 111950" transform="translate(381.326 312.024) rotate(13)">
          <g id="그룹_110120" data-name="그룹 110120" transform="translate(0 0)" clip-path="url(#clip-path-2)">
            <path id="패스_37300" data-name="패스 37300" d="M33.69,0A11.3,11.3,0,0,0,22.608,11.3,11.3,11.3,0,0,0,11.524,0,11.482,11.482,0,0,0,0,11.527,32.766,32.766,0,0,0,13.139,37.763l9.469,7.084,9.467-7.084A32.766,32.766,0,0,0,45.214,11.528,11.482,11.482,0,0,0,33.69,0" transform="translate(2.804 2.804)" fill="#f86493" stroke="#707070" stroke-width="2.5"/>
            <path id="패스_37301" data-name="패스 37301" d="M33.69,0A11.3,11.3,0,0,0,22.608,11.3,11.3,11.3,0,0,0,11.524,0,11.482,11.482,0,0,0,0,11.527,32.766,32.766,0,0,0,13.139,37.763l9.469,7.084,9.467-7.084A32.766,32.766,0,0,0,45.214,11.528,11.482,11.482,0,0,0,33.69,0Z" transform="translate(2.804 2.804)" fill="#f86493" stroke="#080d4b" stroke-linecap="round" stroke-linejoin="round" stroke-width="2.5"/>
          </g>
        </g>
        <g id="그룹_111951" data-name="그룹 111951" transform="matrix(0.966, -0.259, 0.259, 0.966, 120.443, 336.027)">
          <g id="그룹_110122" data-name="그룹 110122" transform="translate(0 0)" clip-path="url(#clip-path-3)">
            <path id="패스_37302" data-name="패스 37302" d="M24.756,0a8.306,8.306,0,0,0-8.143,8.3A8.306,8.306,0,0,0,8.467,0,8.437,8.437,0,0,0,0,8.47,24.077,24.077,0,0,0,9.654,27.749l6.958,5.206,6.957-5.206A24.077,24.077,0,0,0,33.223,8.47,8.437,8.437,0,0,0,24.756,0" transform="translate(2.06 2.06)" fill="#f86493" stroke="#707070" stroke-width="2.5"/>
            <path id="패스_37303" data-name="패스 37303" d="M24.756,0a8.306,8.306,0,0,0-8.143,8.3A8.306,8.306,0,0,0,8.467,0,8.437,8.437,0,0,0,0,8.47,24.077,24.077,0,0,0,9.654,27.749l6.958,5.206,6.957-5.206A24.077,24.077,0,0,0,33.223,8.47,8.437,8.437,0,0,0,24.756,0Z" transform="translate(2.06 2.06)" fill="#f86493" stroke="#080d4b" stroke-linecap="round" stroke-linejoin="round" stroke-width="2.5"/>
          </g>
        </g>
        <g id="그룹_111952" data-name="그룹 111952" transform="translate(74.164 234.669) rotate(-17)">
          <g id="그룹_110124" data-name="그룹 110124" transform="translate(0 0)" clip-path="url(#clip-path-4)">
            <path id="패스_37304" data-name="패스 37304" d="M24.322,0a8.161,8.161,0,0,0-8,8.159A8.161,8.161,0,0,0,8.319,0,8.289,8.289,0,0,0,0,8.322,23.655,23.655,0,0,0,9.485,27.263l6.836,5.114,6.835-5.114A23.655,23.655,0,0,0,32.641,8.322,8.289,8.289,0,0,0,24.322,0" transform="translate(2.024 2.024)" fill="#f86493" stroke="#707070" stroke-width="2.5"/>
            <path id="패스_37305" data-name="패스 37305" d="M24.322,0a8.161,8.161,0,0,0-8,8.159A8.161,8.161,0,0,0,8.319,0,8.289,8.289,0,0,0,0,8.322,23.655,23.655,0,0,0,9.485,27.263l6.836,5.114,6.835-5.114A23.655,23.655,0,0,0,32.641,8.322,8.289,8.289,0,0,0,24.322,0Z" transform="translate(2.024 2.024)" fill="#f86493" stroke="#080d4b" stroke-linecap="round" stroke-linejoin="round" stroke-width="2.5"/>
          </g>
        </g>
      </g>
      <g id="마스크_그룹_1234" data-name="마스크 그룹 1234" transform="translate(857 285)" clip-path="url(#clip-path-5)">
        <g id="그룹_111955" data-name="그룹 111955" transform="matrix(0.956, 0.292, -0.292, 0.956, 334.373, 216.059)">
          <g id="그룹_110032" data-name="그룹 110032" transform="translate(0.317 -5.061)">
            <path id="패스_37204" data-name="패스 37204" d="M86.8,19.1a15.253,15.253,0,0,0-11.418-4.9,17.538,17.538,0,0,0-2.832.249,17.615,17.615,0,0,0-.707-2.607,15.465,15.465,0,0,0-9.627-9.589A14.821,14.821,0,0,0,57.555,1.5,16.306,16.306,0,0,0,46.1,6.385,16.313,16.313,0,0,0,34.653,1.5a14.836,14.836,0,0,0-4.661.749,15.8,15.8,0,0,0-10.3,12.2,17.455,17.455,0,0,0-2.865-.255A15.257,15.257,0,0,0,5.4,19.1C-.585,25.644.431,36.356,7.666,42.978l.06.055a19.417,19.417,0,0,1,6.557,14.329V102.2h63.64V57.363a19.417,19.417,0,0,1,6.557-14.329l.06-.054a18.975,18.975,0,0,0,5.978-10.805A15.468,15.468,0,0,0,86.8,19.1" transform="translate(-1.5 -1.5)" fill="#fff" stroke="#707070" stroke-width="2.5"/>
            <path id="패스_37205" data-name="패스 37205" d="M86.8,19.1a15.253,15.253,0,0,0-11.418-4.9,17.538,17.538,0,0,0-2.832.249,17.615,17.615,0,0,0-.707-2.607,15.465,15.465,0,0,0-9.627-9.589A14.821,14.821,0,0,0,57.555,1.5,16.306,16.306,0,0,0,46.1,6.385,16.313,16.313,0,0,0,34.653,1.5a14.836,14.836,0,0,0-4.661.749,15.8,15.8,0,0,0-10.3,12.2,17.455,17.455,0,0,0-2.865-.255A15.257,15.257,0,0,0,5.4,19.1C-.585,25.644.431,36.356,7.666,42.978l.06.055a19.417,19.417,0,0,1,6.557,14.329V102.2h63.64V57.363a19.417,19.417,0,0,1,6.557-14.329l.06-.054a18.975,18.975,0,0,0,5.978-10.805A15.468,15.468,0,0,0,86.8,19.1Z" transform="translate(-1.5 -1.5)" fill="none" stroke="#080d4b" stroke-linecap="round" stroke-linejoin="round" stroke-width="2.5"/>
            <path id="패스_37206" data-name="패스 37206" d="M62.635,40.927a19.95,19.95,0,0,0-24.467,0c-7.1,5.348-9.82,13.725-6.069,18.709,2.658,3.53,7.847,4.412,13.173,2.725a16.956,16.956,0,0,1,10.258,0c5.326,1.687,10.516.8,13.173-2.725,3.753-4.984,1.035-13.36-6.068-18.709" transform="translate(-5.797 -6.735)" fill="#f06a86" stroke="#707070" stroke-width="2.5"/>
            <path id="패스_37207" data-name="패스 37207" d="M62.635,40.927a19.95,19.95,0,0,0-24.467,0c-7.1,5.348-9.82,13.725-6.069,18.709,2.658,3.53,7.847,4.412,13.173,2.725a16.956,16.956,0,0,1,10.258,0c5.326,1.687,10.516.8,13.173-2.725C72.457,54.651,69.739,46.275,62.635,40.927Z" transform="translate(-5.797 -6.735)" fill="none" stroke="#080d4b" stroke-linecap="round" stroke-linejoin="round" stroke-width="2.5"/>
            <path id="패스_37208" data-name="패스 37208" d="M46.341,18.892c1.38,4.178-.163,8.445-3.448,9.53s-7.066-1.423-8.446-5.6.163-8.445,3.448-9.53,7.066,1.422,8.446,5.6" transform="translate(-6.322 -3.215)" fill="#f06a86" stroke="#707070" stroke-width="2.5"/>
            <path id="패스_37209" data-name="패스 37209" d="M46.341,18.892c1.38,4.178-.163,8.445-3.448,9.53s-7.066-1.423-8.446-5.6.163-8.445,3.448-9.53S44.961,14.714,46.341,18.892Z" transform="translate(-6.322 -3.215)" fill="none" stroke="#080d4b" stroke-linecap="round" stroke-linejoin="round" stroke-width="2.5"/>
            <path id="패스_37210" data-name="패스 37210" d="M24.465,30.424c3.246,2.971,3.984,7.448,1.648,10s-6.859,2.213-10.106-.759-3.984-7.448-1.648-10,6.859-2.213,10.106.759" transform="translate(-3.209 -5.432)" fill="#f06a86" stroke="#707070" stroke-width="2.5"/>
            <path id="패스_37211" data-name="패스 37211" d="M24.465,30.424c3.246,2.971,3.984,7.448,1.648,10s-6.859,2.213-10.106-.759-3.984-7.448-1.648-10S21.219,27.452,24.465,30.424Z" transform="translate(-3.209 -5.432)" fill="none" stroke="#080d4b" stroke-linecap="round" stroke-linejoin="round" stroke-width="2.5"/>
            <path id="패스_37212" data-name="패스 37212" d="M59.189,18.892c-1.381,4.178.163,8.445,3.447,9.53S69.7,27,71.082,22.822s-.163-8.445-3.448-9.53-7.066,1.422-8.446,5.6" transform="translate(-9.999 -3.215)" fill="#f06a86" stroke="#707070" stroke-width="2.5"/>
            <path id="패스_37213" data-name="패스 37213" d="M59.189,18.892c-1.381,4.178.163,8.445,3.447,9.53S69.7,27,71.082,22.822s-.163-8.445-3.448-9.53S60.568,14.714,59.189,18.892Z" transform="translate(-9.999 -3.215)" fill="none" stroke="#080d4b" stroke-linecap="round" stroke-linejoin="round" stroke-width="2.5"/>
            <path id="패스_37214" data-name="패스 37214" d="M80.789,30.424c-3.246,2.971-3.984,7.448-1.648,10S86,42.635,89.246,39.664s3.984-7.448,1.648-10-6.859-2.213-10.106.759" transform="translate(-12.838 -5.432)" fill="#f06a86" stroke="#707070" stroke-width="2.5"/>
            <path id="패스_37215" data-name="패스 37215" d="M80.789,30.424c-3.246,2.971-3.984,7.448-1.648,10S86,42.635,89.246,39.664s3.984-7.448,1.648-10S84.035,27.452,80.789,30.424Z" transform="translate(-12.838 -5.432)" fill="none" stroke="#080d4b" stroke-linecap="round" stroke-linejoin="round" stroke-width="2.5"/>
          </g>
        </g>
      </g>
    </g>
  </g>
</svg>
