<svg xmlns="http://www.w3.org/2000/svg" width="543.995" height="550" viewBox="0 0 543.995 550">
  <g id="그룹_113042" data-name="그룹 113042" transform="translate(0 0)" opacity="0.04">
    <path id="패스_38396" data-name="패스 38396" d="M251.925,0,242.81,62.093l13.865,2.035,3.7-25.217,27.427,4.025-3.7,25.219,13.865,2.036L307.085,8.1,293.219,6.062l-3.614,24.609-27.426-4.026,3.612-24.608Z" transform="translate(32.594)" fill="#fff"/>
    <g id="그룹_113041" data-name="그룹 113041">
      <g id="그룹_113052" data-name="그룹 113052">
        <path id="패스_38397" data-name="패스 38397" d="M315.784,44.27c10.1-18.679,31.642-24.722,50.775-14.376s25.875,31.679,15.775,50.359-31.642,24.722-50.775,14.378-25.875-31.68-15.775-50.36M368.572,72.81c6.3-11.648,2.475-24.463-8.718-30.515s-24.009-2.231-30.306,9.417c-6.256,11.571-2.475,24.463,8.717,30.515s24.051,2.154,30.307-9.417" transform="translate(36.253 2.898)" fill="#fff"/>
        <path id="패스_38398" data-name="패스 38398" d="M437.76,111.2,422.026,94.727l-40.657,38.829-10.807-11.314,40.657-38.831L395.486,66.938l10.01-9.559,42.273,44.262Z" transform="translate(43.18 6.686)" fill="#fff"/>
        <path id="패스_38399" data-name="패스 38399" d="M470.429,171.719l-10.335-20.3-50.106,25.5-7.1-13.944L453,137.472l-10.335-20.3L455,110.892l27.766,54.549Z" transform="translate(46.948 12.922)" fill="#fff"/>
        <path id="패스_38400" data-name="패스 38400" d="M426.009,232.742l19.409-17.206-2.159-12.278L421.5,207.085l-2.711-15.411L487.8,179.538l4.885,27.774c3.081,17.528-4.43,29.41-18.74,31.927-9.485,1.668-17.555-1.54-22.8-9L429.15,250.607ZM456.89,200.86l2.056,11.686c1.429,8.128,5.765,12.429,12.284,11.283s9.129-6.668,7.7-14.8l-2.056-11.683Z" transform="translate(48.8 20.921)" fill="#fff"/>
        <path id="패스_38401" data-name="패스 38401" d="M436.246,289.787l3.719-26.913-12.784-6.715,2.213-16.012,65.692,36.508-2.225,16.1-73.133,17.317,2.39-17.288Zm14.116-2.91,25.388-5.343L452.763,269.5Z" transform="translate(48.91 27.984)" fill="#fff"/>
        <path id="패스_38402" data-name="패스 38402" d="M455.176,312.239c19.021,9.439,25.889,30.6,16.3,49.931-8.559,17.249-24.689,23.641-39.195,19.61l7.032-14.169c6.733,1.517,14.679-2.5,19.15-11.515,5.656-11.4,1.466-24.033-10.24-29.841-11.629-5.77-24.3-1.5-29.958,9.893-4.471,9.009-2.21,19.345,2.953,23.251l-7.031,14.17c-11.674-8.192-17.266-26.706-8.63-44.109,9.591-19.329,30.6-26.658,49.62-17.22" transform="translate(46.769 35.907)" fill="#fff"/>
        <path id="패스_38403" data-name="패스 38403" d="M395.687,394.383l-.916-14.537-11.034-11.213,11.153-10.974L444.03,407.6l-11.153,10.973-23.153-23.532,3.175,43.186-13.666,13.446-2.638-41.907-47.543-7.013,13.911-13.686Z" transform="translate(40.674 41.677)" fill="#fff"/>
        <path id="패스_38404" data-name="패스 38404" d="M329.331,464.205l14.233-7.658c3.725,4.927,9.489,6.024,16.076,2.48,6.437-3.462,8.61-7.951,6.613-11.661-2.484-4.619-8.109-3.642-21.492.337-15.822,4.705-24.456.27-29.426-8.967-6.355-11.811.9-24.991,14.685-32.4,15.218-8.187,30.788-5.923,38.482,6.925l-14.159,7.617c-3.935-5.5-11.2-6.665-19.076-2.427-5.6,3.013-8.259,8.055-6.1,12.067,2.647,4.922,7.87,4.649,19.949.787,14.745-4.711,24.987-3.1,31.22,8.489,5.988,11.131-1.483,23.741-15.414,31.235-13.779,7.414-28.6,4.55-35.593-6.819" transform="translate(36.474 46.789)" fill="#fff"/>
        <path id="패스_38405" data-name="패스 38405" d="M182.383,492.22l9.581-69.411,15.5,2.139-3.89,28.191,30.66,4.232,3.891-28.19,15.5,2.139-9.581,69.411-15.5-2.139,3.8-27.509-30.66-4.233-3.8,27.51Z" transform="translate(21.253 49.269)" fill="#fff"/>
        <path id="패스_38406" data-name="패스 38406" d="M181.317,456.65c-9.939,18.768-31.432,25-50.657,14.814S104.511,440,114.45,421.238s31.432-25,50.657-14.815,26.149,31.458,16.21,50.227m-53.037-28.09c-6.2,11.7-2.265,24.488,8.98,30.444s24.031,2.022,30.228-9.679c6.157-11.624,2.265-24.485-8.98-30.442s-24.07-1.947-30.228,9.677" transform="translate(12.81 46.793)" fill="#fff"/>
        <path id="패스_38407" data-name="패스 38407" d="M58.913,390.921l15.874,16.344,40.335-39.176,10.9,11.224L85.688,418.488l15.875,16.344-9.929,9.645-42.65-43.911Z" transform="translate(5.708 42.892)" fill="#fff"/>
        <path id="패스_38408" data-name="패스 38408" d="M26.019,329.644,36.53,349.858l49.883-25.94L93.631,337.8,43.748,363.738l10.51,20.214-12.281,6.384L13.738,336.029Z" transform="translate(1.601 37.745)" fill="#fff"/>
        <path id="패스_38409" data-name="패스 38409" d="M69.349,268.734,50.086,286.1l2.262,12.259,21.73-4.011,2.842,15.388L8.007,322.461,2.889,294.727c-3.231-17.5,4.183-29.451,18.471-32.088,9.471-1.747,17.57,1.392,22.873,8.807l21.825-20.553ZM38.735,300.877,36.58,289.209c-1.5-8.118-5.87-12.382-12.379-11.18s-9.073,6.745-7.575,14.862l2.154,11.668Z" transform="translate(0.249 29.236)" fill="#fff"/>
        <path id="패스_38410" data-name="패스 38410" d="M58.72,211.706l-3.495,26.941,12.84,6.605L65.987,261.28,0,225.329l2.09-16.113,72.974-17.928L72.82,208.594Zm-14.089,3.027-25.34,5.557,23.084,11.835Z" transform="translate(0 22.29)" fill="#fff"/>
        <path id="패스_38411" data-name="패스 38411" d="M39.492,189.881c-19.1-9.275-26.15-30.377-16.726-49.787,8.411-17.322,24.483-23.852,39.023-19.946L54.88,134.376c-6.745-1.459-14.657,2.632-19.049,11.679-5.558,11.444-1.259,24.043,10.5,29.752C58,181.477,70.64,177.1,76.2,165.656c4.392-9.048,2.044-19.363-3.154-23.224L79.953,128.2c11.744,8.091,17.495,26.557,9.008,44.032-9.425,19.41-30.368,26.921-49.469,17.646" transform="translate(2.169 13.873)" fill="#fff"/>
        <path id="패스_38412" data-name="패스 38412" d="M100.427,109.237l1.039,14.529L112.6,134.888l-11.06,11.069L51.967,96.428,63.026,85.359,86.382,108.7,82.838,65.531,96.39,51.968l3,41.888,47.606,6.606L133.2,114.269Z" transform="translate(6.056 6.056)" fill="#fff"/>
        <path id="패스_38413" data-name="패스 38413" d="M163.521,36.721,149.355,44.5c-3.767-4.895-9.541-5.942-16.1-2.341-6.406,3.517-8.54,8.024-6.513,11.717,2.524,4.6,8.141,3.572,21.488-.521,15.781-4.84,24.452-.481,29.5,8.711,6.457,11.756-.689,25-14.4,32.529-15.147,8.318-30.735,6.188-38.538-6.592l14.092-7.74c3.982,5.464,11.257,6.569,19.094,2.264,5.576-3.062,8.19-8.126,6-12.12-2.69-4.9-7.911-4.581-19.955-.615-14.7,4.838-24.958,3.31-31.29-8.219-6.083-11.077,1.277-23.751,15.142-31.364,13.714-7.532,28.555-4.8,35.648,6.512" transform="translate(12.885 3.027)" fill="#fff"/>
      </g>
    </g>
  </g>
</svg>
