<?xml version="1.0" encoding="utf-8"?>
<!-- Generator: Adobe Illustrator 26.1.0, SVG Export Plug-In . SVG Version: 6.00 Build 0)  -->
<svg version="1.1" id="Layer_1" xmlns="http://www.w3.org/2000/svg" xmlns:xlink="http://www.w3.org/1999/xlink" x="0px" y="0px"
	 viewBox="0 0 299 527.4" style="enable-background:new 0 0 299 527.4;" xml:space="preserve">
<style type="text/css">
	.st0{opacity:0.2;}
	.st1{fill:#2ECFFF;}
	.st2{clip-path:url(#SVGID_00000041993367144694278710000012484020809276556175_);}
	.st3{fill:#FFC1AB;}
	.st4{fill:none;stroke:#080D4B;stroke-width:3;stroke-linecap:round;stroke-linejoin:round;}
	.st5{fill:#FFFFFF;}
	.st6{fill:none;stroke:#080D4B;stroke-width:3.0007;stroke-linecap:round;stroke-linejoin:round;stroke-miterlimit:4.001;}
	.st7{fill:#FD7CBB;}
	.st8{fill:#080D4B;}
	.st9{enable-background:new    ;}
	.st10{fill:none;stroke:#080D4B;stroke-width:2;}
</style>
<g id="Group_112048" transform="translate(1219.854 272.104)" class="st0">
	<path id="Path_38158" class="st1" d="M-1171.9-272.1l-4.3,127.7h-9.7l6.5-126.5L-1171.9-272.1z"/>
	<path id="Path_38159" class="st1" d="M-1137.9-211.2v10.6l-81.2-7.1l-0.8-8.3L-1137.9-211.2z"/>
	<path id="Path_38160" class="st1" d="M-1209.9-181.6l57.5-58.5l4.6,5.1l-58,56.8L-1209.9-181.6z"/>
	<path id="Path_38161" class="st1" d="M-1154.5-174.3l-53.4-63l4.6-5.1l51.8,63.5L-1154.5-174.3z"/>
</g>
<g id="Group_112084" transform="translate(1316.82 360.208)" class="st0">
	<path id="Path_38158-2" class="st1" d="M-1140.7-272.1l-7.1,210.6h-16l10.7-208.6L-1140.7-272.1z"/>
	<path id="Path_38159-2" class="st1" d="M-1084.7-171.7v17.5l-133.9-11.7l-1.3-13.6L-1084.7-171.7z"/>
	<path id="Path_38160-2" class="st1" d="M-1203.5-122.8l94.8-96.5l7.6,8.3l-95.6,93.7L-1203.5-122.8z"/>
	<path id="Path_38161-2" class="st1" d="M-1112.1-110.7l-88-103.9l7.6-8.4l85.5,104.8L-1112.1-110.7z"/>
</g>
<g>
	<defs>
		<rect id="SVGID_1_" x="110.6" y="338.4" width="188.4" height="189"/>
	</defs>
	<clipPath id="SVGID_00000083087739362569482280000015990696459183762585_">
		<use xlink:href="#SVGID_1_"  style="overflow:visible;"/>
	</clipPath>
	<g id="Group_112092" style="clip-path:url(#SVGID_00000083087739362569482280000015990696459183762585_);">
		<path id="Path_38293" class="st3" d="M297.6,510.8l-50.1-11.8c-1.3-3-3.7-5.3-6.7-6.5c0,0,0,0,0,0c-8.7-8.2-8.3-20.7-14.4-19.2
			c-5.3,1.3-7.3,14-0.4,19.7l-0.1,0c-8.3,2-8.9,9.3-6.9,17.5c2,8.3,5.9,14.4,14.2,12.4c4.7-1.1,10.3-2.8,13.6-6.6l50.8,9.7"/>
		<path id="Path_38294" class="st4" d="M297.6,510.8l-50.1-11.8c-1.3-3-3.7-5.3-6.7-6.5c0,0,0,0,0,0c-8.7-8.2-8.3-20.7-14.4-19.2
			c-5.3,1.3-7.3,14-0.4,19.7l-0.1,0c-8.3,2-8.9,9.3-6.9,17.5c2,8.3,5.9,14.4,14.2,12.4c4.7-1.1,10.3-2.8,13.6-6.6l50.8,9.7"/>
		<path id="Path_38295" class="st1" d="M223.9,522.9l-42.4-164.8l11.1-2.6L235,520.4"/>
		<path id="Path_38296" class="st4" d="M224.9,522.9l-42.4-164.4l11.1-2.5L236,520.4"/>
		
			<rect id="Rectangle_20509" x="131.1" y="363.2" transform="matrix(0.9718 -0.2359 0.2359 0.9718 -91.8754 59.6359)" class="st5" width="144.3" height="101.1"/>
		
			<rect id="Rectangle_20510" x="133.1" y="364.2" transform="matrix(0.9718 -0.2359 0.2359 0.9718 -91.8752 59.6359)" class="st6" width="140.3" height="99.1"/>
		<path id="Path_38303" class="st7" d="M134.9,389.1l117.7-28.6l18.9,77.9l-117.7,28.6L134.9,389.1z"/>
		
			<rect id="Rectangle_20512" x="143.2" y="373.9" transform="matrix(0.9717 -0.2363 0.2363 0.9717 -91.995 59.7398)" class="st4" width="120.2" height="79.5"/>
		<path id="Path_38297" class="st3" d="M230,490.4c1,4.1-2.7,5.8-7.6,6.9c-4.8,1.2-8.9,1.4-9.9-2.7c-1-4.1,2.7-5.8,7.6-6.9
			C224.9,486.5,229,486.2,230,490.4"/>
		<path id="Path_38298" class="st4" d="M230,490.4c1,4.1-2.7,5.8-7.6,6.9c-4.8,1.2-8.9,1.4-9.9-2.7c-1-4.1,2.7-5.8,7.6-6.9
			C224.9,486.5,229,486.2,230,490.4z"/>
		<path id="Path_38299" class="st3" d="M237.4,515.8c1,4.2-2.8,5.9-7.7,7.1s-9.1,1.5-10.1-2.7s2.8-5.9,7.7-7.1
			C232.2,511.8,236.4,511.6,237.4,515.8"/>
		<path id="Path_38300" class="st4" d="M237.4,515.8c1,4.2-2.8,5.9-7.7,7.1s-9.1,1.5-10.1-2.7s2.8-5.9,7.7-7.1
			C232.2,511.8,236.4,511.6,237.4,515.8z"/>
		<path id="Path_38305" class="st3" d="M231.3,498.2c1.1,4.7-3.1,6.5-8.6,7.9c-5.5,1.3-10.1,1.6-11.2-3c-1.1-4.7,3.1-6.5,8.6-7.9
			C225.5,493.9,230.2,493.6,231.3,498.2"/>
		<path id="Path_38306" class="st4" d="M231.3,498.2c1.1,4.7-3.1,6.5-8.6,7.9c-5.5,1.3-10.1,1.6-11.2-3c-1.1-4.7,3.1-6.5,8.6-7.9
			C225.5,493.9,230.1,493.6,231.3,498.2z"/>
		<path id="Path_38301" class="st3" d="M234.3,507.8c1.1,4.5-3,6.3-8.3,7.5s-9.8,1.6-10.9-2.9c-1.1-4.5,3-6.3,8.3-7.5
			C228.8,503.6,233.2,503.3,234.3,507.8"/>
		<path id="Path_38302" class="st4" d="M234.3,507.8c1.1,4.5-3,6.3-8.3,7.5s-9.8,1.6-10.9-2.9c-1.1-4.5,3-6.3,8.3-7.5
			C228.8,503.6,233.2,503.3,234.3,507.8z"/>
	</g>
</g>
<path id="Path_38304" class="st8" d="M169.3,441.7l43.7,11.7l59-14.7l-10.3-42l-25.9-15.2l-74.6,18.5L169.3,441.7z"/>
<g class="st9">
	<path class="st5" d="M167.3,422.4c-5.8,1.5-10.5-1.5-12.2-8.4c-1.7-6.9,1-11.6,6.8-13.1c5.8-1.5,10.4,1.5,12.2,8.4
		C175.9,416.2,173.2,421,167.3,422.4z M165.8,416.3c1.6-0.4,2-2.2,1.3-5.2c-0.8-3-1.9-4.4-3.6-4c-1.6,0.4-2,2.2-1.3,5.2
		C163,415.3,164.2,416.7,165.8,416.3z M199.3,424.6c1.5,6.2-5.9,10.3-16,12.8c-10.1,2.5-18.6,2.3-20.1-3.8
		c-1.5-6.2,5.9-10.3,16-12.8S197.8,418.5,199.3,424.6z M191.1,426.7c-0.4-1.7-5-1.2-10.4,0.2c-5.4,1.3-9.7,3-9.3,4.7
		c0.4,1.7,5,1.2,10.4-0.2S191.5,428.4,191.1,426.7z M186.1,417.7l-7.1,1.8l-5.3-21.2l7.1-1.8l1.6,6.6l3.2-0.8l-1.7-6.8l7.2-1.8
		l5.7,22.7l-7.2,1.8l-2.2-8.7l-3.2,0.8L186.1,417.7z"/>
	<path class="st5" d="M238.3,398.1l1.4,5.5l-39.4,9.8l-1.4-5.5l13-3.3l-0.6-2.4l-10.7,2.7l-1.3-5.4l27-6.7l-0.5-2l-27,6.7l-1.4-5.5
		l34.7-8.6l3.5,13.9l-7.7,1.9l-0.2-1l-8.6,2.1l0.6,2.4L238.3,398.1z M213.5,424.4l27.7-6.9l1.2,4.8l-35.2,8.8l-2.6-10.3l27.3-6.8
		l-0.4-1.4l-27.4,6.8l-1.2-4.7l34.9-8.7l2.5,10.2l-27.3,6.8L213.5,424.4z"/>
</g>
<g class="st9">
	<path class="st10" d="M167.3,422.4c-5.8,1.5-10.5-1.5-12.2-8.4c-1.7-6.9,1-11.6,6.8-13.1c5.8-1.5,10.4,1.5,12.2,8.4
		C175.9,416.2,173.2,421,167.3,422.4z M165.8,416.3c1.6-0.4,2-2.2,1.3-5.2c-0.8-3-1.9-4.4-3.6-4c-1.6,0.4-2,2.2-1.3,5.2
		C163,415.3,164.2,416.7,165.8,416.3z M199.3,424.6c1.5,6.2-5.9,10.3-16,12.8c-10.1,2.5-18.6,2.3-20.1-3.8
		c-1.5-6.2,5.9-10.3,16-12.8S197.8,418.5,199.3,424.6z M191.1,426.7c-0.4-1.7-5-1.2-10.4,0.2c-5.4,1.3-9.7,3-9.3,4.7
		c0.4,1.7,5,1.2,10.4-0.2S191.5,428.4,191.1,426.7z M186.1,417.7l-7.1,1.8l-5.3-21.2l7.1-1.8l1.6,6.6l3.2-0.8l-1.7-6.8l7.2-1.8
		l5.7,22.7l-7.2,1.8l-2.2-8.7l-3.2,0.8L186.1,417.7z"/>
	<path class="st10" d="M238.3,398.1l1.4,5.5l-39.4,9.8l-1.4-5.5l13-3.3l-0.6-2.4l-10.7,2.7l-1.3-5.4l27-6.7l-0.5-2l-27,6.7l-1.4-5.5
		l34.7-8.6l3.5,13.9l-7.7,1.9l-0.2-1l-8.6,2.1l0.6,2.4L238.3,398.1z M213.5,424.4l27.7-6.9l1.2,4.8l-35.2,8.8l-2.6-10.3l27.3-6.8
		l-0.4-1.4l-27.4,6.8l-1.2-4.7l34.9-8.7l2.5,10.2l-27.3,6.8L213.5,424.4z"/>
</g>
</svg>
