<?xml version="1.0" encoding="utf-8"?>
<!-- Generator: Adobe Illustrator 26.2.1, SVG Export Plug-In . SVG Version: 6.00 Build 0)  -->
<svg version="1.1" xmlns="http://www.w3.org/2000/svg" xmlns:xlink="http://www.w3.org/1999/xlink" x="0px" y="0px" viewBox="0 0 220 255" style="enable-background:new 0 0 220 255;" xml:space="preserve">
<style type="text/css">
.st0{fill:none;stroke:#080D4B;stroke-width:3.0008;stroke-linecap:round;stroke-linejoin:round;stroke-miterlimit:4.001;}
.st1{fill:#080D4B;}
.st2{fill:#4F4F4F;}
.st3{fill:#FD7CBB;}
.st4{fill:#2FF483;}
.st5{fill:#FFFFFF;}
.st6{opacity:0.2;fill:#2ECFFF;}
	
	
.a1 {transform-origin:87% 16.4%; animation:star linear infinite 2.0s;}
.a2 {transform-origin:6% 90%; animation:star2 linear infinite 2.0s 0.4s;}
	
@keyframes star {
0% {transform:scale(1);}	
55% {transform:scale(0.8);;}
100% {transform:scale(1);}
}
@keyframes star2 {
0% {transform:scale(1);}	
55% {transform:scale(0.5);;}
100% {transform:scale(1);}
}
	
	
#mic {animation:mic both linear infinite 3s;}
@keyframes mic {
0% {transform:translate(0,0);}
10% {transform:translate(0%,2%);}
20% {transform:translate(0,0);}
30% {transform:translate(0,0);}
40% {transform:translate(0%,2%);}
50% {transform:translate(0,0);}
100% {transform:translate(0,0);}
}
	
#s1 {animation:fade linear infinite 3s;}
@keyframes fade {
0% {opacity:1;}
10% {opacity:0;}
20% {opacity:1;}
30% {opacity:1;}
40% {opacity:0;}
50% {opacity:1;}
100% {opacity:1;}
}
</style>
<g id="mic">
	<path id="패스_38215" class="st0" d="M82.1,178.7c-2.2,7-5,14.1-10,19.5c-4.9,5.5-12.4,9.1-19.7,7.8c-5.9-1-11-5.3-14-10.5
		c-3-5.2-4.2-11.3-4.5-17.3c-0.6-14.9,4.2-29.6,13.4-41.3c1.3-1.8,3-3.4,4.9-4.6c2-1.2,4.4-1.3,6.5-0.4c3.4,1.7,3.9,6.3,3.6,10.1
		c-0.7,7.1-3.2,14.3-8.7,19s-14.1,5.8-19.7,1.4c-5.1-4-6.4-11.3-6-17.8c0.6-11.5,4.9-22.4,12.2-31.2"/>
	<path id="패스_38216" class="st1" d="M92.8,77.3c-7.5,16.2-0.4,35.5,15.8,42.9c16.2,7.5,35.5,0.4,42.9-15.8
		C159,88.2,152,69,135.7,61.5c0,0,0,0,0,0C119.5,54,100.3,61.1,92.8,77.3"/>
	<path id="패스_38217" class="st0" d="M92.8,77.3c-7.5,16.2-0.4,35.5,15.8,42.9c16.2,7.5,35.5,0.4,42.9-15.8
		C159,88.2,152,69,135.7,61.5c0,0,0,0,0,0C119.5,54,100.3,61.1,92.8,77.3z"/>
	
		<rect id="사각형_20497" x="115.2" y="55.8" transform="matrix(0.4189 -0.908 0.908 0.4189 -11.5501 163.7582)" class="st2" width="13.9" height="70.2"/>
	
		<rect id="사각형_20498" x="115.2" y="55.8" transform="matrix(0.4189 -0.908 0.908 0.4189 -11.5501 163.7582)" class="st0" width="13.9" height="70.2"/>
	<path id="패스_38218" class="st3" d="M65,182.9l24.3,11.2l40.2-71.2l-36.4-16.8L65,182.9z"/>
	<path id="패스_38219" class="st0" d="M65,182.9l24.3,11.2l40.2-71.2l-36.4-16.8L65,182.9z"/>
	<path id="패스_38220" class="st2" d="M70.3,195.9l5.7,2.6l4.5-8.4l-6.7-3.1L70.3,195.9z"/>
	<path id="패스_38221" class="st0" d="M70.3,195.9l5.7,2.6l4.5-8.4l-6.7-3.1L70.3,195.9z"/>
	<path id="패스_38222" class="st4" d="M95.4,146.4l1.9,0.9c1.5,0.7,3.2,0,3.9-1.4c0,0,0,0,0,0l4-8.8c0.7-1.5,0-3.2-1.4-3.9
		c0,0,0,0,0,0l-1.9-0.9c-1.5-0.7-3.2,0-3.9,1.4l-4,8.8C93.3,144,94,145.7,95.4,146.4C95.4,146.4,95.4,146.4,95.4,146.4"/>
	<path id="사각형_20499" class="st0" d="M93.9,142.8l4.3-9.4c0.6-1.3,2.1-1.9,3.4-1.3l0,0l2.5,1.1c1.3,0.6,1.9,2.1,1.3,3.4
		l-4.3,9.4c-0.6,1.3-2.1,1.9-3.4,1.3l-2.5-1.1C93.8,145.7,93.3,144.1,93.9,142.8C93.9,142.8,93.9,142.8,93.9,142.8z"/>
	<path id="패스_38223" class="st5" d="M59.5,68.6l-3.1,7.8c-1.3,3.3-4.5,5.5-8,5.6l-8.4,0.3c-0.9,0-1.6,0.8-1.6,1.7
		c0,0.7,0.4,1.2,1,1.5l7.8,3.1c3.3,1.3,5.5,4.5,5.6,8L53,105c0,0.9,0.8,1.6,1.7,1.6c0.7,0,1.2-0.4,1.5-1l3.1-7.8
		c1.3-3.3,4.5-5.5,8-5.6l8.4-0.3c0.9,0,1.6-0.8,1.6-1.7c0-0.7-0.4-1.2-1-1.5l-7.8-3.1c-3.3-1.3-5.5-4.5-5.6-8l-0.3-8.4
		c0-0.9-0.8-1.6-1.7-1.6C60.3,67.6,59.7,68,59.5,68.6"/>
</g>
<g id="s1">
	<path id="패스_38224" class="st0" d="M59.5,68.6l-3.1,7.8c-1.3,3.3-4.5,5.5-8,5.6l-8.4,0.3c-0.9,0-1.6,0.8-1.6,1.7
		c0,0.7,0.4,1.2,1,1.5l7.8,3.1c3.3,1.3,5.5,4.5,5.6,8L53,105c0,0.9,0.8,1.6,1.7,1.6c0.7,0,1.2-0.4,1.5-1l3.1-7.8
		c1.3-3.3,4.5-5.5,8-5.6l8.4-0.3c0.9,0,1.6-0.8,1.6-1.7c0-0.7-0.4-1.2-1-1.5l-7.8-3.1c-3.3-1.3-5.5-4.5-5.6-8l-0.3-8.4
		c0-0.9-0.8-1.6-1.7-1.6C60.3,67.6,59.7,68,59.5,68.6z"/>
</g>
<g class="a1">
	<polygon class="st6 " points="219.5,37.4 198.5,38.6 211.5,23.2 208.4,19.8 194.4,37 192.6,0.8 187.5,0 188.8,35.7 174.6,21.3 
		171.6,24.7 186.4,39.3 164.9,40.5 164.9,47.6 187.4,45.6 173.9,62.1 176,65.1 189.2,49.5 190.4,85 196.9,85 195,47.6 210.1,62.5 
		212.9,60.3 197.6,44.7 219,42.9 	"/>
</g>
<g class="a2">
	<polygon class="st6 " points="31.8,227 19.6,227.7 27.1,218.7 25.3,216.8 17.2,226.8 16.1,205.7 13.2,205.2 13.9,226 5.6,217.7 
		3.9,219.6 12.5,228.1 0,228.8 0,233 13.1,231.8 5.2,241.4 6.4,243.2 14.2,234.1 14.9,254.7 18.6,254.7 17.5,233 26.3,241.6 
		27.9,240.3 19,231.3 31.5,230.2 	"/>
</g>
</svg>
