<svg xmlns="http://www.w3.org/2000/svg" xmlns:xlink="http://www.w3.org/1999/xlink" width="192" height="184" viewBox="0 0 192 184">
<style type="text/css">
.st0{fill:#4F4F4F;stroke:#000000;stroke-width:1.5;}
.st1{fill:none;stroke:#000000;stroke-width:3;stroke-linecap:round;stroke-linejoin:round;stroke-miterlimit:4;}
.st2{fill:none;stroke:#000000;stroke-width:3;stroke-linecap:round;stroke-linejoin:round;}
.st3{fill:#FF8883;stroke:#000000;stroke-width:1.5;}
.st4{fill:#FFC1AB;}
.st5{fill:none;stroke:#000000;stroke-width:3;}
.st6{fill:none;}
.st7{fill:#735BC1;stroke:#000000;stroke-width:2.3;stroke-linecap:round;}
    
.cd {transform-origin:43.4% 42.3%;transform:rotate(0);animation:cd linear both infinite 4s;}
@keyframes cd {
0% {transform: rotate(0)}
100% {transform: rotate(360deg)}
}
.emoji {transform-origin: 50% 50%; transform: translateY(0); animation:emoji linear both infinite 1.4s;}
@keyframes emoji {
0% {transform: translateY(0)}
50% {transform: translateY(-10px)}
100% {transform: translateY(0)}
}
</style>
<g id="Layer_1">
	<g class="cd">
		<path id="Path_37356" class="st0" d="M152.8,85.4c-4.8,39.2-40.5,67-79.7,62.2c-39.2-4.8-67-40.5-62.2-79.7s40.5-67,79.7-62.2
			c0,0,0,0,0,0C129.7,10.5,157.6,46.2,152.8,85.4L152.8,85.4"/>
		<circle id="Ellipse_695" class="st1" cx="81.8" cy="76.7" r="71.5"/>
		<path id="Path_37357" class="st2" d="M74.7,135c-32.2-4-55.1-33.3-51.1-65.5"/>
		<path id="Path_37358" class="st2" d="M89,18.4c32.2,4,55.1,33.3,51.1,65.5"/>
		<path id="Path_37359" class="st2" d="M78.7,125.5C50.9,122,31.1,96.8,34.5,69"/>
		<path id="Path_37360" class="st2" d="M86.5,29.4c27.8,3.4,47.6,28.7,44.2,56.5"/>
		<path id="Path_37363" class="st2" d="M77.6,111.1c-19-2.4-32.5-19.7-30.2-38.7"/>
		<path id="Path_37364" class="st2" d="M86,42.2c19,2.4,32.5,19.7,30.2,38.7"/>
		<path id="Path_37365" class="st3" d="M104.3,79.4c-1.5,12.4-12.8,21.2-25.2,19.7c-12.4-1.5-21.2-12.8-19.7-25.2
			s12.8-21.2,25.2-19.7c0,0,0,0,0,0C97,55.7,105.8,67,104.3,79.4C104.3,79.4,104.3,79.4,104.3,79.4"/>
		<path id="Path_37366" class="st2" d="M104.3,79.4c-1.5,12.4-12.8,21.2-25.2,19.7c-12.4-1.5-21.2-12.8-19.7-25.2
			s12.8-21.2,25.2-19.7c0,0,0,0,0,0C97,55.7,105.8,67,104.3,79.4C104.3,79.4,104.3,79.4,104.3,79.4z"/>
	</g>
	<g>
		<path id="Path_37367" class="st4" d="M141.4,107.2c-2.1-0.8-4.5,0.7-5.2,3.2l1.2-4.5c0.6-2.3-0.3-4.7-2.1-5.4
			c-2.1-0.8-4.5,0.7-5.2,3.2l1.5-5.6c0.6-2.3-0.3-4.7-2.1-5.4c-2.1-0.8-4.5,0.7-5.2,3.2l-1.5,5.7c0.7-2.5-0.6-5-2.9-5.4
			c-2-0.3-3.9,1.3-4.5,3.6l-9.6,35.9l-3.2-11.8c-0.8-2.9-3.5-4.6-6.1-3.6c-2.8,1.3-4.3,4.4-3.5,7.5l5.3,19.8c0.4,1.5,1,3,1.9,4.3
			c2.7,4.5,3.4,9.9,2,14.9l-14.4,40.3l19.6,5.3l16.1-46.3c0.9-3.6,2.8-6.9,5.6-9.4c2.6-2.4,4.5-5.4,5.4-8.9l9.5-35.4
			C144.2,110.3,143.3,107.9,141.4,107.2"/>
		<path id="Path_37368" class="st2" d="M141.5,107c-2.1-0.8-4.5,0.7-5.2,3.2l1.2-4.5c0.6-2.2-0.3-4.6-2.2-5.3
			c-2.1-0.8-4.5,0.7-5.2,3.2l1.5-5.5c0.6-2.2-0.3-4.6-2.2-5.3c-2.1-0.8-4.5,0.7-5.2,3.2l-1.5,5.7c0.7-2.5-0.7-5-2.9-5.3
			c-2-0.3-3.9,1.3-4.5,3.5l-9.5,35.4l-3.2-11.6c-0.8-2.9-3.5-4.5-6.2-3.5c-2.8,1.2-4.3,4.4-3.5,7.3l5.4,19.6c0.4,1.5,1,2.9,1.9,4.2
			c2.7,4.4,3.4,9.8,2,14.7l-14.7,41.8l19.6,5.3l16.3-47.7c0.9-3.6,2.8-6.8,5.5-9.3c2.6-2.3,4.5-5.4,5.4-8.7l9.3-34.9
			C144.2,110.1,143.4,107.7,141.5,107z"/>
		<g id="Group_112101" transform="translate(115.357 89.93) rotate(8)">
			<line id="Line_780" class="st5" x1="9.5" y1="9.3" x2="7.1" y2="27.9"/>
			<line id="Line_781" class="st2" x1="9.5" y1="9.3" x2="7.1" y2="27.9"/>
			<line id="Line_782" class="st5" x1="16.7" y1="10.3" x2="14.3" y2="28.9"/>
			<line id="Line_783" class="st2" x1="16.7" y1="10.3" x2="14.3" y2="28.9"/>
			<line id="Line_784" class="st5" x1="23.5" y1="15.4" x2="22.5" y2="29.7"/>
			<line id="Line_785" class="st2" x1="23.5" y1="15.4" x2="22.5" y2="29.7"/>
		</g>
	</g>
</g>
<g id="Layer_2" class="emoji">
	<g id="Group_115798" transform="translate(20927 4902)">
		<rect id="Rectangle_21925" x="-20776.4" y="-4789.5" class="st6" width="40" height="40"/>
		<path id="Path_52081" class="st7" d="M-20747.1-4755.3c-3.6,0-6.6-2.8-6.6-6.4s2.8-6.6,6.4-6.6c0.1,0,0.1,0,0.2,0
			c0.1,0,0.2,0,0.3,0v-8.1l-12.8,1.1v15.6c0,3.6-2.9,6.5-6.5,6.5c-3.6,0-6.5-2.9-6.5-6.5s2.9-6.5,6.5-6.5l0,0c0.1,0,0.2,0,0.3,0v-17
			l25.2-2.1v23.5C-20740.6-4758.2-20743.5-4755.3-20747.1-4755.3"/>
	</g>
</g>
</svg>
