<?xml version="1.0" encoding="utf-8"?>
<!-- Generator: Adobe Illustrator 26.1.0, SVG Export Plug-In . SVG Version: 6.00 Build 0)  -->
<svg version="1.1" id="Layer_1" xmlns="http://www.w3.org/2000/svg" xmlns:xlink="http://www.w3.org/1999/xlink" x="0px" y="0px"
	 viewBox="0 0 1200 325" style="enable-background:new 0 0 1200 325;" xml:space="preserve">
<style type="text/css">
	.st0{fill:none;}
	.st1{fill:#FFFFFF;fill-opacity:0;}
	.st2{fill:#7582F0;}
	.st3{fill:none;stroke:#080D4B;stroke-width:3;stroke-linecap:round;stroke-linejoin:round;}
	.st4{fill:#FEC211;}
	.st5{fill:#040405;}
	.st6{fill:#FFFFFF;}
	.st7{fill:none;stroke:#000000;stroke-width:3;stroke-linecap:round;stroke-linejoin:round;}
	.st8{stroke:#000000;stroke-width:1.2;}
	.st9{fill:none;stroke:#000000;stroke-width:2;stroke-linecap:round;stroke-linejoin:round;}
	.st10{fill:#FF9F00;stroke:#000000;stroke-width:1.2;}
	.st11{fill:none;stroke:#000000;stroke-width:3;stroke-linecap:round;stroke-miterlimit:4;}
	.st12{fill:url(#이미지_973_00000170273602962432830530000005175111525079933596_);}
	.st13{font-family:'NotoSansCJKkr-Medium-KSCpc-EUC-H';}
	.st14{font-size:15px;}
	.st15{enable-background:new    ;}
	.st16{fill:none;stroke:#000000;stroke-width:1.5;}
</style>
<pattern  y="325" width="40.8" height="40.8" patternUnits="userSpaceOnUse" id="pattern" viewBox="0 -40.8 40.8 40.8" style="overflow:visible;">
	<g>
		<rect y="-40.8" class="st0" width="40.8" height="40.8"/>
		
			<image style="overflow:visible;enable-background:new    ;" width="492" height="512" xlink:href="18305D57.png"  transform="matrix(7.972968e-02 0 0 -7.973047e-02 0.7975 0)">
		</image>
	</g>
</pattern>
<rect id="사각형_20766" class="st1" width="1200" height="325"/>
<rect id="area" x="376" y="30" class="st1" width="448" height="186"/>
<g id="구름" transform="translate(740.385 425.263) rotate(-3)">
	<path id="패스_36362" class="st2" d="M43.1-308c4-6.8,6.2-14.5,6.2-22.4c0-29.7-30.6-53.7-68.4-53.7c-24.3,0-45.6,10-57.7,24.9
		c-11.1-11.7-28.9-19.3-48.9-19.3c-10.2,0-20.3,2-29.6,6c-10.7-10.9-26.2-18.7-44.4-21.7c-4.8-0.8-9.7-1.1-14.6-1.1
		c-41.3,0-74.7,26.3-74.7,58.7c0,0.9,0,1.9,0.1,2.8c-16.6,9.2-27.4,24.4-27.4,41.6c0,28.1,29,50.9,64.8,50.9c3.1,0,6.3-0.2,9.4-0.5
		c7.9,14.9,26.6,25.5,48.5,25.5c18.9,0,35.5-7.9,44.7-19.7c10.4,3.7,21.4,5.5,32.4,5.5c16.4,0.1,32.5-4,46.7-12.1
		C-61-232-45.7-225-28.4-225c24.4,0,44.8-13.8,49-32.1c3.3,0.8,6.7,1.2,10.2,1.2c18.9,0,34.3-12.1,34.3-26.9
		C65.1-294.3,56-304.2,43.1-308"/>
	<path id="패스_36363" class="st3" d="M43.1-308c4-6.8,6.2-14.5,6.2-22.4c0-29.7-30.6-53.7-68.4-53.7c-24.3,0-45.6,10-57.7,24.9
		c-11.1-11.7-28.9-19.3-48.9-19.3c-10.2,0-20.3,2-29.6,6c-13.7-13.9-35-22.8-59.1-22.8c-41.3,0-74.7,26.3-74.7,58.7
		c0,0.9,0,1.9,0.1,2.8c-16.6,9.2-27.4,24.4-27.4,41.6c0,28.1,29,50.9,64.8,50.9c3.1,0,6.3-0.2,9.4-0.5c7.9,14.9,26.6,25.5,48.5,25.5
		c18.9,0,35.5-7.9,44.7-19.7c10.4,3.7,21.4,5.5,32.4,5.5c16.4,0.1,32.5-4,46.7-12.1C-61-232-45.7-225-28.4-225
		c24.4,0,44.8-13.8,49-32.1c3.3,0.8,6.7,1.2,10.2,1.2c18.9,0,34.3-12.1,34.3-26.9C65.1-294.3,56-304.2,43.1-308z"/>
</g>
<g id="별" transform="translate(977.26 415.146) rotate(25)">
	<path id="패스_36382" class="st4" d="M-446.7-199.3l5.9,8.7l10.3-1.9c1.5-0.3,2.9,0.7,3.1,2.2c0.1,0.8-0.1,1.5-0.5,2.1l-6.4,8.3
		l5,9.2c0.7,1.3,0.2,2.9-1.1,3.6c-0.7,0.4-1.5,0.4-2.2,0.2l-9.9-3.6l-7.3,7.6c-1,1.1-2.7,1.1-3.8,0.1c-0.6-0.5-0.9-1.3-0.8-2
		l0.3-10.5l-9.4-4.6c-1.3-0.6-1.9-2.2-1.3-3.6c0.3-0.7,0.9-1.2,1.7-1.4l10.1-2.9l1.4-10.4c0.2-1.5,1.6-2.5,3-2.3
		C-447.8-200.3-447.1-199.9-446.7-199.3"/>
	<path id="패스_36383" class="st3" d="M-446.7-199.3l5.9,8.7l10.3-1.9c1.5-0.3,2.9,0.7,3.1,2.2c0.1,0.8-0.1,1.5-0.5,2.1l-6.4,8.3
		l5,9.2c0.7,1.3,0.2,2.9-1.1,3.6c-0.7,0.4-1.5,0.4-2.2,0.2l-9.9-3.6l-7.3,7.6c-1,1.1-2.7,1.1-3.8,0.1c-0.6-0.5-0.9-1.3-0.8-2
		l0.3-10.5l-9.4-4.6c-1.3-0.6-1.9-2.2-1.3-3.6c0.3-0.7,0.9-1.2,1.7-1.4l10.1-2.9l1.4-10.4c0.2-1.5,1.6-2.5,3-2.3
		C-447.8-200.3-447.1-199.9-446.7-199.3z"/>
</g>
<g id="별-2" transform="translate(794.984 557.156)">
	<path id="패스_36382-2" class="st4" d="M-315.5-376.8l6.8,10.1l12-2.2c1.7-0.3,3.3,0.8,3.6,2.5c0.2,0.9-0.1,1.8-0.6,2.5l-7.5,9.6
		l5.8,10.7c0.8,1.5,0.2,3.4-1.3,4.2c-0.8,0.4-1.7,0.5-2.5,0.2l-11.4-4.1l-8.4,8.8c-1.2,1.2-3.2,1.3-4.4,0.1c-0.6-0.6-1-1.5-1-2.4
		l0.4-12.2l-11-5.3c-1.5-0.7-2.2-2.6-1.5-4.2c0.4-0.8,1.1-1.4,1.9-1.6l11.7-3.4l1.6-12.1c0.2-1.7,1.8-2.9,3.5-2.7
		C-316.7-378-316-377.5-315.5-376.8"/>
	<path id="패스_36383-2" class="st3" d="M-315.5-376.8l6.8,10.1l12-2.2c1.7-0.3,3.3,0.8,3.6,2.5c0.2,0.9-0.1,1.8-0.6,2.5l-7.5,9.6
		l5.8,10.7c0.8,1.5,0.2,3.4-1.3,4.2c-0.8,0.4-1.7,0.5-2.5,0.2l-11.4-4.1l-8.4,8.8c-1.2,1.2-3.2,1.3-4.4,0.1c-0.6-0.6-1-1.5-1-2.4
		l0.4-12.2l-11-5.3c-1.5-0.7-2.2-2.6-1.5-4.2c0.4-0.8,1.1-1.4,1.9-1.6l11.7-3.4l1.6-12.1c0.2-1.7,1.8-2.9,3.5-2.7
		C-316.7-378-316-377.5-315.5-376.8z"/>
</g>
<g id="그룹_113009" transform="translate(0 17)">
	<path id="타임" class="st5" d="M591.4,163.9c62.2-6.3,115.1,4.7,118.1,24.7s-45.1,41.3-107.4,47.7
		c-62.2,6.3-115.1-4.7-118.1-24.7S529.2,170.3,591.4,163.9"/>
	<g id="아이콘" transform="translate(1000.221 507.135)">
		<g id="그룹_109979" transform="translate(0 0)">
			<path id="패스_37084" class="st6" d="M-334.3-324.9c-7.6,21.1,3.3,44.5,24.4,52.1c21.1,7.6,44.5-3.3,52.1-24.4
				c7.6-21.1-3.3-44.5-24.4-52.1c0,0,0,0,0,0C-303.3-356.9-326.6-346-334.3-324.9C-334.3-324.9-334.3-324.9-334.3-324.9"/>
			<path id="패스_37085" class="st7" d="M-334.3-324.9c-7.6,21.1,3.3,44.5,24.4,52.1c21.1,7.6,44.5-3.3,52.1-24.4
				c7.6-21.1-3.3-44.5-24.4-52.1c0,0,0,0,0,0C-303.3-356.9-326.6-346-334.3-324.9z"/>
			<path id="패스_37086" class="st8" d="M-288.5-315.3c-1.1,3-1,5.8,0.2,6.2s3-1.7,4.1-4.7c1.1-3,1-5.8-0.2-6.2
				S-287.4-318.3-288.5-315.3"/>
			<path id="패스_37088" class="st8" d="M-303.3-320.7c-1.1,3-1,5.8,0.2,6.2s3-1.7,4.1-4.7c1.1-3,1-5.8-0.2-6.2
				S-302.2-323.7-303.3-320.7"/>
			<path id="패스_37090" class="st9" d="M-276-299c-9.8,9.9-25.8,9.9-35.6,0.1c-4.2-4.2-6.8-9.7-7.3-15.7"/>
			<path id="패스_37091" class="st9" d="M-277-303.7c-0.6,1.2-0.2,3,1,4.6c1.2,1.5,3,2.3,4.2,2"/>
			<path id="패스_37092" class="st9" d="M-315.3-317.5c-0.3,1.3-1.8,2.5-3.7,2.9c-1.9,0.4-3.8-0.1-4.5-1.2"/>
			<path id="패스_37093" class="st10" d="M-303.8-308c-1.1,2.6,0.6,5.8,3.8,7.1c3.2,1.3,6.7,0.3,7.8-2.3c1.1-2.6-0.6-5.8-3.8-7.1
				C-299.2-311.6-302.7-310.6-303.8-308"/>
			<g id="그룹_109980" transform="matrix(-0.891, -0.454, 0.454, -0.891, 108.56, 69.206)">
				<path id="패스_37094" class="st11" d="M510.8,189.2c0,0-5-2-4.2,2.5s-2.3,2.1-3.6,6.1"/>
				
					<pattern  id="이미지_973_00000059268152794406412000000010769616637785633164_" xlink:href="#pattern" patternTransform="matrix(-0.9925 -0.1219 0.1219 -0.9925 -13327.3838 -17669.2871)">
				</pattern>
				<polygon id="이미지_973" style="fill:url(#이미지_973_00000059268152794406412000000010769616637785633164_);" points="
					471.7,197.5 508.6,184.1 522.5,222.5 485.7,235.9 				"/>
			</g>
		</g>
	</g>
</g>
<text transform="matrix(1 0 0 1 502.253 161.98)" class="st6 st13 st14">망설이면 품절! 오늘만 구매 찬스</text>
<path id="패스_38153" class="st6" d="M913.2,126.4l2.9,13.6c1.2,5.7,5.7,10.2,11.4,11.4l13.6,2.9c1.5,0.3,2.4,1.8,2.1,3.2
	c-0.2,1.1-1,1.9-2.1,2.1l-13.6,2.9c-5.7,1.2-10.2,5.7-11.4,11.4l-2.9,13.6c-0.3,1.5-1.8,2.4-3.2,2.1c-1.1-0.2-1.9-1-2.1-2.1
	l-2.9-13.6c-1.2-5.7-5.7-10.2-11.4-11.4l-13.6-2.9c-1.5-0.3-2.4-1.8-2.1-3.2c0.2-1.1,1-1.9,2.1-2.1l13.6-2.9
	c5.7-1.2,10.2-5.7,11.4-11.4l2.9-13.6c0.3-1.5,1.8-2.4,3.2-2.1C912.1,124.5,912.9,125.3,913.2,126.4z"/>
<path id="패스_38154" class="st6" d="M308.3,182.3l2.8,13c1.2,5.5,5.5,9.8,10.9,10.9l13,2.8c1.4,0.3,2.3,1.7,2,3.1
	c-0.2,1-1,1.8-2,2l-13,2.8c-5.5,1.2-9.8,5.5-10.9,10.9l-2.8,13c-0.3,1.4-1.7,2.3-3.1,2c-1-0.2-1.8-1-2-2l-2.8-13
	c-1.2-5.5-5.5-9.8-10.9-10.9l-13-2.8c-1.4-0.3-2.3-1.7-2-3.1c0.2-1,1-1.8,2-2l13-2.8c5.5-1.2,9.8-5.5,10.9-10.9l2.8-13
	c0.3-1.4,1.7-2.3,3.1-2C307.3,180.5,308.1,181.3,308.3,182.3z"/>
<path id="패스_38776" class="st6" d="M244.2,150.2l1.2,5.5c0.5,2.3,2.3,4.1,4.6,4.6l5.5,1.2c0.6,0.1,1,0.7,0.8,1.3
	c-0.1,0.4-0.4,0.8-0.8,0.8l-5.5,1.2c-2.3,0.5-4.1,2.3-4.6,4.6l-1.2,5.5c-0.1,0.6-0.7,1-1.3,0.8c-0.4-0.1-0.8-0.4-0.8-0.8l-1.2-5.5
	c-0.5-2.3-2.3-4.1-4.6-4.6l-5.5-1.2c-0.6-0.1-1-0.7-0.8-1.3c0.1-0.4,0.4-0.8,0.8-0.8l5.5-1.2c2.3-0.5,4.1-2.3,4.6-4.6l1.2-5.5
	c0.1-0.6,0.7-1,1.3-0.8C243.8,149.5,244.1,149.8,244.2,150.2z"/>
<path id="패스_38155" class="st6" d="M955.9,200.7l1.4,6.4c0.6,2.7,2.7,4.8,5.4,5.4l6.4,1.4c0.7,0.1,1.1,0.8,1,1.5
	c-0.1,0.5-0.5,0.9-1,1l-6.4,1.4c-2.7,0.6-4.8,2.7-5.4,5.4l-1.4,6.4c-0.1,0.7-0.8,1.1-1.5,1c-0.5-0.1-0.9-0.5-1-1L952,223
	c-0.6-2.7-2.7-4.8-5.4-5.4l-6.4-1.4c-0.7-0.1-1.1-0.8-1-1.5c0.1-0.5,0.5-0.9,1-1l6.4-1.4c2.7-0.6,4.8-2.7,5.4-5.4l1.4-6.4
	c0.2-0.7,0.8-1.1,1.5-1C955.4,199.8,955.8,200.2,955.9,200.7z"/>
<g class="st15">
	<path d="M532.9,124.3v7h-38v-7h15.2V119c-8.4-1.1-13.8-5.6-13.8-11.9c0-7.1,7.1-12.1,17.6-12.1s17.6,5,17.6,12.1
		c0,6.2-5.4,10.8-13.8,11.9v5.3H532.9z M513.9,112.5c5.7,0,9.7-2.2,9.7-5.4c0-3.3-4-5.4-9.7-5.4s-9.7,2.2-9.7,5.4
		C504.3,110.3,508.2,112.5,513.9,112.5z"/>
	<path d="M574.2,114.8h-38v-5.4h38V114.8z M572,126.4h-26.3v1.4h26.7v4.7h-34v-10.1h26.3v-1.4h-26.4v-4.7H572V126.4z M545.8,102.3
		h26.5v5.5h-33.9V94.7h7.4V102.3z"/>
	<path d="M601.1,116.8h-22.9V95.4h22.9V116.8z M587.1,125.8h26.1v6.7h-33.7v-13.2h7.6V125.8z M593.8,101.7h-8.2v8.8h8.2V101.7z
		 M617.1,102.4v7.2h-4.4v13.1h-7.4V94.9h7.4v7.5H617.1z"/>
	<path d="M667.8,114.4v5.7h-38v-5.7H667.8z M631.9,121.7h33.8V133h-7.5v-5.6h-26.3V121.7z M666,112.7h-33.8V94.9h33.4v4.9h-26.1v1.8
		h25.4v4.4h-25.4v1.8H666V112.7z"/>
	<path d="M672.1,95.8h21.3V106c0,15.3-8.2,24.8-21.3,24.8v-7c9-0.1,13.7-6.7,13.7-17.7v-3.4h-13.7V95.8z M710.7,115.9h-4.4v16.6
		h-7.4V94.9h7.4v13.7h4.4V115.9z"/>
</g>
<g class="st15">
	<path d="M532.9,124.3v7h-38v-7h15.2V119c-8.4-1.1-13.8-5.6-13.8-11.9c0-7.1,7.1-12.1,17.6-12.1s17.6,5,17.6,12.1
		c0,6.2-5.4,10.8-13.8,11.9v5.3H532.9z M513.9,112.5c5.7,0,9.7-2.2,9.7-5.4c0-3.3-4-5.4-9.7-5.4s-9.7,2.2-9.7,5.4
		C504.3,110.3,508.2,112.5,513.9,112.5z"/>
	<path d="M574.2,114.8h-38v-5.4h38V114.8z M572,126.4h-26.3v1.4h26.7v4.7h-34v-10.1h26.3v-1.4h-26.4v-4.7H572V126.4z M545.8,102.3
		h26.5v5.5h-33.9V94.7h7.4V102.3z"/>
	<path d="M601.1,116.8h-22.9V95.4h22.9V116.8z M587.1,125.8h26.1v6.7h-33.7v-13.2h7.6V125.8z M593.8,101.7h-8.2v8.8h8.2V101.7z
		 M617.1,102.4v7.2h-4.4v13.1h-7.4V94.9h7.4v7.5H617.1z"/>
	<path d="M667.8,114.4v5.7h-38v-5.7H667.8z M631.9,121.7h33.8V133h-7.5v-5.6h-26.3V121.7z M666,112.7h-33.8V94.9h33.4v4.9h-26.1v1.8
		h25.4v4.4h-25.4v1.8H666V112.7z"/>
	<path d="M672.1,95.8h21.3V106c0,15.3-8.2,24.8-21.3,24.8v-7c9-0.1,13.7-6.7,13.7-17.7v-3.4h-13.7V95.8z M710.7,115.9h-4.4v16.6
		h-7.4V94.9h7.4v13.7h4.4V115.9z"/>
</g>
<g class="st15">
	<path class="st6" d="M530.9,122.3v7h-38v-7h15.2V117c-8.4-1.1-13.8-5.6-13.8-11.9c0-7.1,7.1-12.1,17.6-12.1s17.6,5,17.6,12.1
		c0,6.2-5.4,10.8-13.8,11.9v5.3H530.9z M511.9,110.5c5.7,0,9.7-2.2,9.7-5.4c0-3.3-4-5.4-9.7-5.4s-9.7,2.2-9.7,5.4
		C502.3,108.3,506.2,110.5,511.9,110.5z"/>
	<path class="st6" d="M572.2,112.8h-38v-5.4h38V112.8z M570,124.4h-26.3v1.4h26.7v4.7h-34v-10.1h26.3v-1.4h-26.4v-4.7H570V124.4z
		 M543.8,100.3h26.5v5.5h-33.9V92.7h7.4V100.3z"/>
	<path class="st6" d="M599.1,114.8h-22.9V93.4h22.9V114.8z M585.1,123.8h26.1v6.7h-33.7v-13.2h7.6V123.8z M591.8,99.7h-8.2v8.8h8.2
		V99.7z M615.1,100.4v7.2h-4.4v13.1h-7.4V92.9h7.4v7.5H615.1z"/>
	<path class="st6" d="M665.8,112.4v5.7h-38v-5.7H665.8z M629.9,119.7h33.8V131h-7.5v-5.6h-26.3V119.7z M664,110.7h-33.8V92.9h33.4
		v4.9h-26.1v1.8h25.4v4.4h-25.4v1.8H664V110.7z"/>
	<path class="st6" d="M670.1,93.8h21.3V104c0,15.3-8.2,24.8-21.3,24.8v-7c9-0.1,13.7-6.7,13.7-17.7v-3.4h-13.7V93.8z M708.7,113.9
		h-4.4v16.6h-7.4V92.9h7.4v13.7h4.4V113.9z"/>
</g>
<g class="st15">
	<path class="st16" d="M530.9,122.3v7h-38v-7h15.2V117c-8.4-1.1-13.8-5.6-13.8-11.9c0-7.1,7.1-12.1,17.6-12.1s17.6,5,17.6,12.1
		c0,6.2-5.4,10.8-13.8,11.9v5.3H530.9z M511.9,110.5c5.7,0,9.7-2.2,9.7-5.4c0-3.3-4-5.4-9.7-5.4s-9.7,2.2-9.7,5.4
		C502.3,108.3,506.2,110.5,511.9,110.5z"/>
	<path class="st16" d="M572.2,112.8h-38v-5.4h38V112.8z M570,124.4h-26.3v1.4h26.7v4.7h-34v-10.1h26.3v-1.4h-26.4v-4.7H570V124.4z
		 M543.8,100.3h26.5v5.5h-33.9V92.7h7.4V100.3z"/>
	<path class="st16" d="M599.1,114.8h-22.9V93.4h22.9V114.8z M585.1,123.8h26.1v6.7h-33.7v-13.2h7.6V123.8z M591.8,99.7h-8.2v8.8h8.2
		V99.7z M615.1,100.4v7.2h-4.4v13.1h-7.4V92.9h7.4v7.5H615.1z"/>
	<path class="st16" d="M665.8,112.4v5.7h-38v-5.7H665.8z M629.9,119.7h33.8V131h-7.5v-5.6h-26.3V119.7z M664,110.7h-33.8V92.9h33.4
		v4.9h-26.1v1.8h25.4v4.4h-25.4v1.8H664V110.7z"/>
	<path class="st16" d="M670.1,93.8h21.3V104c0,15.3-8.2,24.8-21.3,24.8v-7c9-0.1,13.7-6.7,13.7-17.7v-3.4h-13.7V93.8z M708.7,113.9
		h-4.4v16.6h-7.4V92.9h7.4v13.7h4.4V113.9z"/>
</g>
</svg>
