<?xml version="1.0" encoding="utf-8"?>
<!-- Generator: Adobe Illustrator 26.2.1, SVG Export Plug-In . SVG Version: 6.00 Build 0)  -->
<svg version="1.1" id="Layer_1" xmlns="http://www.w3.org/2000/svg" xmlns:xlink="http://www.w3.org/1999/xlink" x="0px" y="0px" viewBox="0 0 520 91" style="enable-background:new 0 0 520 91;" xml:space="preserve">
<style type="text/css">
.st0{enable-background:new ;}
.st1{fill:none;stroke:#BC554F;}

#a1 line {animation:width both infinite 6s;}
#a2 line {animation:width2 both infinite 6s;}
#a3 line {animation:width both infinite 6s;}
#a4 line {animation:width2 both infinite 6s;}

#b1 line {animation:height both infinite 6s;}
#b2 line {animation:height2 both infinite 6s;}
#b3 line {animation:height both infinite 6s;}
#b4 line {animation:height2 both infinite 6s;}
#b5 line {animation:height both infinite 6s;}
#b6 line {animation:height2 both infinite 6s;}
#b7 line {animation:height both infinite 6s;}

#text {animation:text both infinite 6s;}

@keyframes width {
0% {transform:translateX(-100%);}
20% {transform:translateX(0%);}
100% {transform:translateX(0);}
}
@keyframes width2 {
0% {transform:translateX(100%);}
20% {transform:translateX(0%);}
100% {transform:translateX(0);}
}
@keyframes height {
10% {transform:translateY(100%);}
22% {transform:translateY(0%);}
100% {transform:translateY(0);}
}
@keyframes height2 {
10% {transform:translateY(-100%);}
22% {transform:translateY(0%);}
100% {transform:translateY(0);}
}
@keyframes text {
0% {opacity:0;}
15% {opacity:0;}
35% {opacity:1;}
95% {opacity:1;}
100% {opacity:0;}
}
</style>
<g class="st0" id="text">
	<path d="M64,52.6c5,0,9.2-0.3,13.7-1.1l0.5,4.1c-5.2,0.9-10.1,1.2-16.1,1.2h-3V42.3h11.1v-5.6H59v-4h16.1v13.5H64V52.6z M90.1,47.1
		h-5v17.7h-5V29.7h5V43h5V47.1z"/>
	<path d="M151.8,44.7c0,7.7-3.9,12.5-9.2,12.5s-9.2-4.8-9.2-12.5c0-7.7,3.9-12.5,9.2-12.5S151.8,37,151.8,44.7z M138.3,44.7
		c0,5.2,1.8,8,4.4,8c2.6,0,4.4-2.8,4.4-8c0-5.2-1.8-7.9-4.4-7.9C140.1,36.7,138.3,39.5,138.3,44.7z M161.4,29.7v35.1h-5V29.7H161.4z
		"/>
	<path d="M239,56.6v4.1h-31.7v-4.1H239z M214.5,36.8h-4.7v-4h26.6v4h-4.7v10.5h4.6v4h-26.3v-4h4.6V36.8z M226.6,36.8h-7.1v10.5h7.1
		V36.8z"/>
	<path d="M313.8,56.4v4.1h-31.7v-4.1H313.8z M310.6,50.4c-6.1-1.2-10.6-4.6-12.8-9c-2.2,4.4-6.7,7.9-12.8,9l-2.1-4.2
		c7.9-1.3,12.2-6.9,12.2-11.9v-2.5h5.4v2.5c0,5.1,4.3,10.6,12.2,11.9L310.6,50.4z"/>
	<path d="M363.3,52.8c4.9,0,9-0.2,13.5-0.9l0.5,4c-5.3,0.8-10,0.9-16,0.9h-3V32.7h16.5v4.1h-11.4v5.7h10.9v3.9h-10.9V52.8z
		 M389.4,47.2h-5.1v17.6h-5v-35h5V43h5.1V47.2z"/>
	<path d="M441.6,46.8c-5.4,0-9.4-3.3-9.4-8c0-4.6,4-8,9.4-8c5.3,0,9.3,3.3,9.3,8C450.9,43.5,446.9,46.8,441.6,46.8z M441.6,42.7
		c2.6,0,4.4-1.4,4.4-4c0-2.5-1.9-4-4.4-4c-2.6,0-4.5,1.5-4.5,4C437.1,41.3,439,42.7,441.6,42.7z M461.7,60.5v3.9h-24.2v-9.7h18.3
		v-2.1h-18.4v-3.8h23.3v9.5h-18.3v2.2H461.7z M460.8,47.3h-5.1V29.8h5.1V47.3z"/>
</g>
<g id="a1"><line id="선_144" class="st1" x1="0" y1="5.5" x2="520" y2="5.5"/></g>
<g id="a2"><line id="선_145" class="st1" x1="0" y1="0.5" x2="520" y2="0.5"/></g>
<g id="a3"><line id="선_146" class="st1" x1="0" y1="90.5" x2="520" y2="90.5"/></g>
<g id="a4"><line id="선_147" class="st1" x1="0" y1="85.5" x2="520" y2="85.5"/></g>

<g id="b1"><line id="선_181" class="st1" x1="38.5" y1="5.5" x2="38.5" y2="85.5"/></g>
<g id="b2"><line id="선_154" class="st1" x1="113.5" y1="5.5" x2="113.5" y2="85.5"/></g>
<g id="b3"><line id="선_155" class="st1" x1="188.5" y1="5.5" x2="188.5" y2="85.5"/></g>
<g id="b4"><line id="선_156" class="st1" x1="263.5" y1="5.5" x2="263.5" y2="85.5"/></g>
<g id="b5"><line id="선_362" class="st1" x1="338.5" y1="5.5" x2="338.5" y2="85.5"/></g>
<g id="b6"><line id="선_357" class="st1" x1="413.5" y1="5.5" x2="413.5" y2="85.5"/></g>
<g id="b7"><line id="선_183" class="st1" x1="488.5" y1="5.5" x2="488.5" y2="85.5"/></g>
</svg>

