<svg xmlns="http://www.w3.org/2000/svg" xmlns:xlink="http://www.w3.org/1999/xlink" width="219.494" height="254.737" viewBox="0 0 219.494 254.737">
  <defs>
    <clipPath id="clip-path">
      <rect id="사각형_20500" data-name="사각형 20500" width="122.904" height="161.237" fill="none"/>
    </clipPath>
  </defs>
  <g id="마이크" transform="translate(193.796 -281.336)">
    <g id="그룹_112046" data-name="그룹 112046" transform="translate(-28.863 281.336)" opacity="0.2">
      <path id="패스_38158" data-name="패스 38158" d="M66.559,0,69.43,84.979h6.461L71.584.787Z" transform="translate(-43.944)" fill="#2ecfff"/>
      <path id="패스_38159" data-name="패스 38159" d="M0,113.149v7.081l54.057-4.721.5-5.508Z" transform="translate(0 -72.627)" fill="#2ecfff"/>
      <path id="패스_38160" data-name="패스 38160" d="M60.806,101.739,22.557,62.812l-3.074,3.369,38.591,37.8Z" transform="translate(-12.864 -41.471)" fill="#2ecfff"/>
      <path id="패스_38161" data-name="패스 38161" d="M28.566,103.7,64.084,61.774,61.009,58.4,26.517,100.7Z" transform="translate(-17.507 -38.561)" fill="#2ecfff"/>
    </g>
    <g id="그룹_112047" data-name="그룹 112047" transform="translate(-193.796 486.553)" opacity="0.2">
      <path id="패스_38158-2" data-name="패스 38158" d="M66.559,0l1.673,49.52H72L69.487.459Z" transform="translate(-53.38)" fill="#2ecfff"/>
      <path id="패스_38159-2" data-name="패스 38159" d="M0,111.836v4.127l31.5-2.751.294-3.21Z" transform="translate(0 -88.222)" fill="#2ecfff"/>
      <path id="패스_38160-2" data-name="패스 38160" d="M43.563,85.5,21.274,62.812l-1.791,1.963L41.971,86.8Z" transform="translate(-15.626 -50.376)" fill="#2ecfff"/>
      <path id="패스_38161-2" data-name="패스 38161" d="M27.711,84.8l20.7-24.429L46.617,58.4l-20.1,24.647Z" transform="translate(-21.267 -46.841)" fill="#2ecfff"/>
    </g>
    <g id="그룹_112077" data-name="그룹 112077" transform="matrix(0.985, 0.174, -0.174, 0.985, -149.9, 323.824)">
      <g id="그룹_112076" data-name="그룹 112076" clip-path="url(#clip-path)">
        <path id="패스_38215" data-name="패스 38215" d="M61.093,119.349c-.949,7.3-2.489,14.721-6.4,20.957S44.061,151.439,36.7,151.44c-6.024,0-11.742-3.286-15.627-7.89s-6.108-10.408-7.406-16.29a62.841,62.841,0,0,1,6.024-43,17.02,17.02,0,0,1,4.035-5.353,7.043,7.043,0,0,1,6.3-1.532c3.63,1.116,4.97,5.529,5.275,9.314.571,7.1-.7,14.674-5.23,20.169s-12.854,8.171-19.123,4.794c-5.727-3.086-8.228-10-9.04-16.454A53.257,53.257,0,0,1,8.5,62.314" transform="translate(0.195 8.102)" fill="none" stroke="#080d4b" stroke-linecap="round" stroke-linejoin="round" stroke-width="3"/>
        <path id="패스_38216" data-name="패스 38216" d="M48.089,25.622A32.35,32.35,0,1,0,87.609,2.574a32.35,32.35,0,0,0-39.52,23.048" transform="translate(6.113 0.195)" fill="#080d4b"/>
        <path id="패스_38217" data-name="패스 38217" d="M48.089,25.622A32.35,32.35,0,1,0,87.609,2.574,32.35,32.35,0,0,0,48.089,25.622Z" transform="translate(6.113 0.195)" fill="none" stroke="#080d4b" stroke-linecap="round" stroke-linejoin="round" stroke-width="3"/>
        <rect id="사각형_20497" data-name="사각형 20497" width="13.909" height="70.218" transform="translate(49.763 31.839) rotate(-75.251)" fill="#4f4f4f"/>
        <rect id="사각형_20498" data-name="사각형 20498" width="13.909" height="70.218" transform="translate(49.763 31.839) rotate(-75.251)" fill="none" stroke="#080d4b" stroke-linecap="round" stroke-linejoin="round" stroke-width="3"/>
        <path id="패스_38218" data-name="패스 38218" d="M39.982,128.389,65.85,135.2,93.065,58.079,54.27,47.866Z" transform="translate(5.199 6.224)" fill="#fd7cbb"/>
        <path id="패스_38219" data-name="패스 38219" d="M39.982,128.389,65.85,135.2,93.065,58.079,54.27,47.866Z" transform="translate(5.199 6.224)" fill="none" stroke="#080d4b" stroke-linecap="round" stroke-linejoin="round" stroke-width="3"/>
        <path id="패스_38220" data-name="패스 38220" d="M46.582,130.644l6.107,1.608,2.919-9.073-7.1-1.869Z" transform="translate(6.057 15.773)" fill="#4f4f4f"/>
        <path id="패스_38221" data-name="패스 38221" d="M46.582,130.644l6.107,1.608,2.919-9.073-7.1-1.869Z" transform="translate(6.057 15.773)" fill="none" stroke="#080d4b" stroke-linecap="round" stroke-linejoin="round" stroke-width="3"/>
        <path id="패스_38222" data-name="패스 38222" d="M61.15,84.333l1.981.523a2.912,2.912,0,0,0,3.557-2.077l2.46-9.336a2.912,2.912,0,0,0-2.077-3.558l-1.981-.522a2.913,2.913,0,0,0-3.558,2.076l-2.458,9.337a2.911,2.911,0,0,0,2.076,3.557" transform="translate(7.668 9.006)" fill="#2ff483"/>
        <path id="사각형_20499" data-name="사각형 20499" d="M2.578,0H12.9a2.578,2.578,0,0,1,2.578,2.578V5.3A2.577,2.577,0,0,1,12.9,7.874H2.578A2.578,2.578,0,0,1,0,5.3V2.578A2.578,2.578,0,0,1,2.578,0Z" transform="translate(66 92.597) rotate(-75.235)" fill="none" stroke="#080d4b" stroke-linecap="round" stroke-linejoin="round" stroke-width="3"/>
        <path id="패스_38223" data-name="패스 38223" d="M19.671,20.5l-1.74,8.216a8.962,8.962,0,0,1-6.912,6.912L2.8,37.374a1.642,1.642,0,0,0,0,3.214l8.216,1.74a8.963,8.963,0,0,1,6.912,6.912l1.74,8.216a1.642,1.642,0,0,0,3.214,0l1.74-8.216a8.965,8.965,0,0,1,6.912-6.912l8.216-1.74a1.642,1.642,0,0,0,0-3.214l-8.216-1.74a8.963,8.963,0,0,1-6.912-6.912L22.885,20.5a1.642,1.642,0,0,0-3.214,0" transform="translate(0.195 2.497)" fill="#fff"/>
        <path id="패스_38224" data-name="패스 38224" d="M19.671,20.5l-1.74,8.216a8.962,8.962,0,0,1-6.912,6.912L2.8,37.374a1.642,1.642,0,0,0,0,3.214l8.216,1.74a8.963,8.963,0,0,1,6.912,6.912l1.74,8.216a1.642,1.642,0,0,0,3.214,0l1.74-8.216a8.965,8.965,0,0,1,6.912-6.912l8.216-1.74a1.642,1.642,0,0,0,0-3.214l-8.216-1.74a8.963,8.963,0,0,1-6.912-6.912L22.885,20.5A1.642,1.642,0,0,0,19.671,20.5Z" transform="translate(0.195 2.497)" fill="none" stroke="#080d4b" stroke-linecap="round" stroke-linejoin="round" stroke-width="3"/>
      </g>
    </g>
  </g>
</svg>
