<?xml version="1.0" encoding="utf-8"?>
<!-- Generator: Adobe Illustrator 26.1.0, SVG Export Plug-In . SVG Version: 6.00 Build 0)  -->
<svg version="1.1" id="Layer_1" xmlns="http://www.w3.org/2000/svg" xmlns:xlink="http://www.w3.org/1999/xlink" x="0px" y="0px"
	 viewBox="0 0 1200 250" style="enable-background:new 0 0 1200 250;" xml:space="preserve">
<style type="text/css">
	.st0{fill:#FFFFFF;fill-opacity:0;}
	.st1{fill:#FEC9C9;}
	.st2{fill:none;stroke:#080D4B;stroke-width:3;stroke-linecap:round;stroke-linejoin:round;}
	.st3{enable-background:new    ;}
	.st4{clip-path:url(#SVGID_00000110456726706219378540000010633626918621333677_);}
	.st5{fill:#F86493;stroke:#707070;stroke-width:2.5;}
	.st6{fill:#F86493;stroke:#080D4B;stroke-width:2.5;stroke-linecap:round;stroke-linejoin:round;}
	.st7{clip-path:url(#SVGID_00000119095945283155087830000010850983439258935739_);}
	.st8{clip-path:url(#SVGID_00000025418026043724326370000017082628157888329913_);}
	.st9{fill:#F86493;stroke:#707070;stroke-width:2.5003;stroke-miterlimit:4.0005;}
	.st10{fill:#F86493;stroke:#080D4B;stroke-width:2.5003;stroke-linecap:round;stroke-linejoin:round;stroke-miterlimit:4.0005;}
	.st11{clip-path:url(#SVGID_00000031912844766974657110000002558900323401069216_);}
	.st12{fill:#F86493;stroke:#707070;stroke-width:2.5;stroke-miterlimit:4;}
	.st13{fill:#F86493;stroke:#080D4B;stroke-width:2.5;stroke-linecap:round;stroke-linejoin:round;stroke-miterlimit:4;}
	.st14{clip-path:url(#SVGID_00000132070730213451447160000001307295046096826297_);}
	.st15{fill:#FFFFFF;stroke:#707070;stroke-width:2.499;stroke-miterlimit:3.9984;}
	.st16{fill:none;stroke:#080D4B;stroke-width:2.499;stroke-linecap:round;stroke-linejoin:round;stroke-miterlimit:3.9984;}
	.st17{fill:#F06A86;stroke:#707070;stroke-width:2.499;stroke-miterlimit:3.9984;}
	.st18{fill:#FFFFFF;}
	.st19{fill:none;stroke:#000000;}
	.st20{fill:#FFFFFF;stroke:#000000;stroke-width:2.0009;stroke-miterlimit:4.0018;}
	.st21{fill:#FF486E;stroke:#000000;stroke-width:2.0009;stroke-miterlimit:4.0018;}
	.st22{fill:none;stroke:#000000;stroke-width:2.0009;stroke-linecap:round;stroke-linejoin:round;stroke-miterlimit:4.0018;}
	.st23{fill:#FFBB01;stroke:#000000;stroke-width:2.0009;stroke-miterlimit:4.0018;}
	.st24{fill:#F06A86;stroke:#000000;stroke-width:2.0009;stroke-miterlimit:4.0018;}
	.st25{fill:#7582F0;stroke:#000000;stroke-width:2.0009;stroke-miterlimit:4.0018;}

	#heart1 {animation:heart both linear infinite 2s; transform-origin:25% -80%; animation-delay:1.2s;}
	#heart2 {animation:heart both linear infinite 2s;transform-origin:25% -80%; animation-delay:0.8s;}
	#heart3 {animation:heart both linear infinite 2s;transform-origin:32% -20%; animation-delay:0.4s;}
	#heart4 {animation:heart both linear infinite 2s;transform-origin:32% -20%;}
	@keyframes heart {
	0% {transform:scale(0.4); opacity:0;}
	20% {transform:scale(0.4); opacity:0;}
	50% {transform:scale(1.0); opacity:1;}
	80% {transform:scale(0.4); opacity:0;}
	100% {transform:scale(0.4);opacity:0;}
	}

	#main_heart {animation:mainheart both linear infinite 1s;transform-origin:45% 45%;}
	@keyframes mainheart {
	0% {transform:rotate(0deg) translate(-0.3%,0%);}
	25% {transform:rotate(-5deg) translate(-0.3%,0%);}
	50% {transform:rotate(0deg) translate(-0.3%,0%);}
	75% {transform:rotate(5deg) translate(-0.3%,0%);}
	100% {transform:rotate(0deg) translate(-0.3%,0%);}
	}

	<!-- #arrow {animation:arrow both linear infinite 1s;transform-origin:45% 45%; }
	@keyframes arrow {
	0% {transform:rotate(0deg);}
	100% {transform:rotate(0deg);} -->
	<!-- #main_heart {animation:mainheart both linear infinite 1s;transform-origin:45% 45%;}
	@keyframes mainheart {
	0% {transform:translate(0%,0%);}
	25% {transform:translate(-1%,0%);}
	50% {transform:translate(0%,0%); opacity:1;}
	75% {transform:translate(1%,0%); opacity:0;}
	100% {transform:translate(0%,0%); opacity:0;}
	} -->

</style>
<rect id="사각형_20765" class="st0" width="1200" height="250"/>
<path id="패스_37288" class="st1" d="M765,122.6c4-7.3,6.1-15.5,6.1-23.8c0-31.5-30-57-67-57c-23.8,0-44.6,10.6-56.5,26.5
	c-10.9-12.4-28.3-20.5-47.9-20.5c-10,0-19.9,2.2-29,6.4c-10.5-11.5-25.7-19.9-43.5-23c-4.7-0.8-9.5-1.2-14.3-1.2
	c-40.4,0-73.2,27.9-73.2,62.3c0,1,0,2,0.1,3c-16.2,9.8-26.9,25.9-26.9,44.2c0,29.9,28.4,54.1,63.4,54.1c3.1,0,6.1-0.2,9.2-0.6
	c7.7,15.9,26.1,27,47.5,27c18.5,0,34.8-8.4,43.8-20.9c10.1,3.9,20.9,5.9,31.7,5.8c16.2,0.1,32-4.3,45.8-12.9
	c8.7,11.2,23.7,18.7,40.7,18.7c23.9,0,43.8-14.7,48-34c3.3,0.9,6.6,1.3,10,1.3c18.5,0,33.6-12.8,33.6-28.6
	C786.6,137.2,777.6,126.7,765,122.6"/>
<path id="패스_37289" class="st2" d="M765,122.6c4-7.3,6.1-15.5,6.1-23.8c0-31.5-30-57-67-57c-23.8,0-44.6,10.6-56.5,26.5
	c-10.9-12.4-28.3-20.5-47.9-20.5c-10,0-19.9,2.2-29,6.4C557.4,39.5,536.5,30,512.9,30c-40.4,0-73.2,27.9-73.2,62.3c0,1,0,2,0.1,3
	c-16.2,9.8-26.9,25.9-26.9,44.2c0,29.9,28.4,54.1,63.4,54.1c3.1,0,6.1-0.2,9.2-0.6c7.7,15.9,26.1,27,47.5,27
	c18.5,0,34.8-8.4,43.8-20.9c10.1,3.9,20.9,5.9,31.7,5.8c16.2,0.1,32-4.3,45.8-12.9c8.7,11.2,23.7,18.7,40.7,18.7
	c23.9,0,43.8-14.7,48-34c3.3,0.9,6.6,1.3,10,1.3c18.5,0,33.6-12.8,33.6-28.6C786.6,137.2,777.6,126.7,765,122.6z"/>
<g class="st3">
	<path d="M515.4,155.9h2l2,5.6c0.3,0.7,0.5,1.5,0.7,2.2h0.1c0.3-0.7,0.5-1.5,0.7-2.2l2-5.6h2V167h-1.6v-5.5c0-1,0.1-2.4,0.2-3.4
		h-0.1l-0.9,2.5l-1.9,5.3h-1.1l-1.9-5.3l-0.9-2.5h-0.1c0.1,1,0.2,2.4,0.2,3.4v5.5h-1.6V155.9z"/>
	<path d="M527.7,155.9h2.9c3.4,0,5.3,1.9,5.3,5.5c0,3.6-1.9,5.6-5.2,5.6h-3V155.9z M530.4,165.6c2.4,0,3.6-1.4,3.6-4.1
		c0-2.8-1.3-4.1-3.6-4.1h-1v8.2H530.4z"/>
	<path d="M544.3,156c0,3.9-1.7,7.4-6.1,9.6l-0.9-1.2c3.3-1.7,5.1-4.1,5.4-7.2H538V156H544.3z M549.9,161.2h-2.1v6.9h-1.5v-13.5h1.5
		v5.4h2.1V161.2z"/>
	<path d="M565.5,154.6v7.7h-1.5v-3.2h-2.5c-0.3,1.6-1.7,2.6-3.5,2.6c-2,0-3.5-1.3-3.5-3.3c0-1.9,1.5-3.2,3.5-3.2
		c1.8,0,3.1,1,3.5,2.6h2.5v-3.3H565.5z M560,158.6c0-1.2-0.9-1.9-2.1-1.9s-2,0.8-2,1.9c0,1.2,0.9,2,2,2S560,159.8,560,158.6z
		 M556.6,163h8.9v5h-8.9V163z M558.1,166.7h5.9v-2.5h-5.9V166.7z"/>
	<path d="M575.1,162.5c-1.5-0.5-2.5-1.6-3.1-3c-0.6,1.5-1.7,2.7-3.3,3.3l-0.8-1.2c2.1-0.8,3.3-2.7,3.3-4.7v-1.6h1.6v1.6
		c0,1.8,1.1,3.6,3.2,4.3L575.1,162.5z M579.4,166.6v1.3h-9.1v-4.3h1.6v3H579.4z M577.6,158.9h-2.7v-1.3h2.7v-3h1.5v10.1h-1.5V158.9z
		"/>
	<path d="M589.6,157.4h-8v-1.2h3.2v-1.5h1.5v1.5h3.2V157.4z M585.6,163.1c-1.9,0-3.3-1-3.3-2.6c0-1.5,1.4-2.6,3.3-2.6
		c1.9,0,3.3,1,3.3,2.6C588.9,162.1,587.5,163.1,585.6,163.1z M585.1,166.6h7.6v1.3h-9.1V164h1.6V166.6z M585.6,161.9
		c1.1,0,1.8-0.5,1.8-1.4c0-0.9-0.7-1.4-1.8-1.4c-1.1,0-1.8,0.5-1.8,1.4C583.8,161.4,584.5,161.9,585.6,161.9z M594.1,158.9v1.3h-1.9
		v4.6h-1.5v-10.2h1.5v4.3H594.1z"/>
	<path d="M606.5,157.2h-8V156h3.2v-1.5h1.5v1.5h3.2V157.2z M599.2,160.3c0-1.5,1.3-2.5,3.3-2.5c1.9,0,3.3,1,3.3,2.5
		c0,1.5-1.3,2.5-3.3,2.5C600.5,162.8,599.2,161.8,599.2,160.3z M605.6,163.5c0,1.6,1.8,3,4.4,3.4l-0.6,1.2c-2.1-0.3-3.8-1.2-4.6-2.6
		c-0.8,1.4-2.5,2.3-4.6,2.6l-0.6-1.2c2.6-0.4,4.4-1.7,4.4-3.4v-0.2h1.5V163.5z M600.7,160.3c0,0.8,0.7,1.3,1.8,1.3
		c1.1,0,1.8-0.5,1.8-1.3c0-0.8-0.7-1.3-1.8-1.3C601.4,159,600.7,159.5,600.7,160.3z M611,158.4v1.3h-1.9v4.4h-1.5v-9.5h1.5v3.8H611z
		"/>
	<path d="M620.2,157.4h-8v-1.2h3.2v-1.5h1.5v1.5h3.2V157.4z M616.1,163.1c-1.9,0-3.3-1-3.3-2.6c0-1.5,1.3-2.6,3.3-2.6
		c1.9,0,3.3,1,3.3,2.6C619.4,162.1,618.1,163.1,616.1,163.1z M615.7,166.6h7.6v1.3h-9.1V164h1.6V166.6z M616.1,161.9
		c1.1,0,1.8-0.5,1.8-1.4c0-0.9-0.7-1.4-1.8-1.4c-1.1,0-1.8,0.5-1.8,1.4C614.3,161.4,615.1,161.9,616.1,161.9z M624.6,158.9v1.3h-1.9
		v4.6h-1.5v-10.2h1.5v4.3H624.6z"/>
	<path d="M636.1,162c-1.5-0.5-2.5-1.6-3.1-2.8c-0.6,1.5-1.7,2.6-3.3,3.2l-0.8-1.2c2.1-0.7,3.3-2.6,3.3-4.5v-1.3h1.6v1.5
		c0,1.7,1.2,3.4,3.2,4L636.1,162z M639.8,165.6c0,1.6-1.7,2.5-4.5,2.5c-2.8,0-4.5-0.9-4.5-2.5c0-1.6,1.7-2.5,4.5-2.5
		C638.1,163.1,639.8,164,639.8,165.6z M638.2,165.6c0-0.8-1.1-1.3-3-1.3s-3,0.5-3,1.3c0,0.9,1.1,1.3,3,1.3S638.2,166.5,638.2,165.6z
		 M641.5,157.9v1.3h-1.9v3.5h-1.5v-8.1h1.5v3.4H641.5z"/>
	<path d="M649.6,162.3v1.4h3.9v4.3h-9.3v-4.3h3.9v-1.4h-5.4V161H655v1.2H649.6z M645.7,156.2h-1.9V155h10v1.2h-1.9v2.5h1.8v1.2h-9.9
		v-1.2h1.8V156.2z M652,164.9h-6.3v1.8h6.3V164.9z M650.4,156.2h-3.1v2.5h3.1V156.2z"/>
	<path d="M667.2,161.7c-1.6-0.5-2.7-1.5-3.3-2.8c-0.6,1.4-1.8,2.5-3.4,3l-0.8-1.2c2.1-0.7,3.4-2.3,3.4-4.1v-0.1h-2.9v-1.2h7.4v1.2
		h-2.9v0.1c0,1.6,1.2,3.2,3.3,3.8L667.2,161.7z M669.2,162.6h1.5v5.4h-8.8v-5.4h1.5v1.5h5.8V162.6z M669.2,165.2h-5.8v1.5h5.8V165.2
		z M670.8,154.6v7.4h-1.5v-7.4H670.8z"/>
	<path d="M679.8,157.6c-0.8,2.1-2.8,3.5-5.8,4.1l-0.5-1.3c3.2-0.7,4.9-2.2,5.1-4.1h-4.3v-1.2h6.1c0,0.4,0,0.9-0.1,1.2h2.8v-1.8h1.5
		v6.9H683v-1.2h-3.3V159h3.3v-1.4H679.8z M684.9,166.8v1.2h-9.2v-3.6h7.2v-1.1h-7.3V162h8.8v3.5h-7.2v1.2H684.9z"/>
</g>
<g transform="translate(419.306 252.722) rotate(14)">
	<g id="heart1">
		<defs>
			
				<rect id="SVGID_1_" x="292.1" y="-230.2" transform="matrix(0.2419 -0.9703 0.9703 0.2419 441.4063 136.1491)" width="31.4" height="31.6"/>
		</defs>
		<clipPath id="SVGID_00000142141786830173610380000009177167779621414327_">
			<use xlink:href="#SVGID_1_"  style="overflow:visible;"/>
		</clipPath>
		
			<g id="그룹_110118" transform="translate(0 0)">
			<path id="패스_37298" class="st5" d="M314.7-228.4c-3.8,0.1-6.9,3.2-6.9,7c0-3.8-3.1-7-6.9-7c-3.9,0-7.2,3.2-7.2,7.1
				c0,0,0,0,0,0.1c0,6.4,3,12.5,8.2,16.3l5.9,4.4l5.9-4.4c5.1-3.8,8.2-9.9,8.2-16.3C321.9-225.1,318.7-228.3,314.7-228.4
				C314.8-228.4,314.7-228.4,314.7-228.4"/>
			<path id="패스_37299" class="st6" d="M314.7-228.4c-3.8,0.1-6.9,3.2-6.9,7c0-3.8-3.1-7-6.9-7c-3.9,0-7.2,3.2-7.2,7.1
				c0,0,0,0,0,0.1c0,6.4,3,12.5,8.2,16.3l5.9,4.4l5.9-4.4c5.1-3.8,8.2-9.9,8.2-16.3C321.9-225.1,318.7-228.3,314.7-228.4
				C314.8-228.4,314.7-228.4,314.7-228.4z"/>
		</g>
	</g>
</g>
<g transform="translate(381.326 312.024) rotate(13)">
	<g id="heart2">
		<defs>
			
				<rect id="SVGID_00000119116230680147683130000008189849811476284816_" x="296.2" y="-225.2" transform="matrix(0.225 -0.9744 0.9744 0.225 443.7346 158.3638)" width="50.5" height="50.8"/>
		</defs>
		<clipPath id="SVGID_00000117646613740734524320000018083339108665166994_">
			<use xlink:href="#SVGID_00000119116230680147683130000008189849811476284816_"  style="overflow:visible;"/>
		</clipPath>
		
			<g id="그룹_110120" transform="translate(0 0)">
			<path id="패스_37300" class="st5" d="M332.5-222.2c-6.2,0.1-11.1,5.1-11.1,11.3c0-6.2-4.9-11.2-11.1-11.3
				c-6.3,0-11.5,5.1-11.5,11.4c0,0,0,0.1,0,0.1c0,10.3,4.9,20,13.1,26.2l9.5,7.1l9.5-7.1c8.3-6.2,13.1-15.9,13.1-26.2
				C344-217,338.9-222.1,332.5-222.2C332.6-222.2,332.5-222.2,332.5-222.2"/>
			<path id="패스_37301" class="st6" d="M332.5-222.2c-6.2,0.1-11.1,5.1-11.1,11.3c0-6.2-4.9-11.2-11.1-11.3
				c-6.3,0-11.5,5.1-11.5,11.4c0,0,0,0.1,0,0.1c0,10.3,4.9,20,13.1,26.2l9.5,7.1l9.5-7.1c8.3-6.2,13.1-15.9,13.1-26.2
				C344-217,338.9-222.1,332.5-222.2C332.6-222.2,332.5-222.2,332.5-222.2z"/>
		</g>
	</g>
</g>
<g transform="matrix(0.966, -0.259, 0.259, 0.966, 120.443, 336.027)">
	<g id="heart3">
		<defs>
			
				<rect id="SVGID_00000002365927143702082940000003367175506459719578_" x="366.9" y="-59.6" transform="matrix(0.9659 -0.259 0.259 0.9659 23.7912 98.4598)" width="37.3" height="37.1"/>
		</defs>
		<clipPath id="SVGID_00000129171924912383944950000008999320631443491472_">
			<use xlink:href="#SVGID_00000002365927143702082940000003367175506459719578_"  style="overflow:visible;"/>
		</clipPath>
		
			<g id="그룹_110122" transform="translate(0 0)">
			<path id="패스_37302" class="st9" d="M393.8-57.5c-4.5,0.1-8.1,3.8-8.1,8.3c0-4.5-3.6-8.2-8.1-8.3c-4.7,0-8.5,3.7-8.5,8.4
				c0,0,0,0,0,0.1c0,7.6,3.6,14.7,9.7,19.3l7,5.2l7-5.2c6.1-4.5,9.7-11.7,9.7-19.3C402.2-53.7,398.5-57.5,393.8-57.5
				C393.8-57.5,393.8-57.5,393.8-57.5"/>
			<path id="패스_37303" class="st10" d="M393.8-57.5c-4.5,0.1-8.1,3.8-8.1,8.3c0-4.5-3.6-8.2-8.1-8.3c-4.7,0-8.5,3.7-8.5,8.4
				c0,0,0,0,0,0.1c0,7.6,3.6,14.7,9.7,19.3l7,5.2l7-5.2c6.1-4.5,9.7-11.7,9.7-19.3C402.2-53.7,398.5-57.5,393.8-57.5
				C393.8-57.5,393.8-57.5,393.8-57.5z"/>
		</g>
	</g>
</g>
<g transform="translate(74.164 234.669) rotate(-17)">
	<g id="heart4">
		<defs>
			
				<rect id="SVGID_00000077287600135977399150000013160501033669181100_" x="368.8" y="-46.8" transform="matrix(0.9563 -0.2924 0.2924 0.9563 25.2845 111.9488)" width="36.7" height="36.4"/>
		</defs>
		<clipPath id="SVGID_00000008859411745950163190000000057835621916806036_">
			<use xlink:href="#SVGID_00000077287600135977399150000013160501033669181100_"  style="overflow:visible;"/>
		</clipPath>
		
			<g id="그룹_110124" transform="translate(0 0)">
			<path id="패스_37304" class="st12" d="M395.2-44.8c-4.4,0.1-8,3.7-8,8.2c0-4.4-3.6-8.1-8-8.2c-4.6,0-8.3,3.7-8.3,8.3
				c0,0,0,0,0,0.1c0,7.5,3.5,14.5,9.5,18.9l6.8,5.1l6.8-5.1c6-4.5,9.5-11.5,9.5-18.9C403.5-41.1,399.8-44.8,395.2-44.8
				C395.2-44.8,395.2-44.8,395.2-44.8"/>
			<path id="패스_37305" class="st13" d="M395.2-44.8c-4.4,0.1-8,3.7-8,8.2c0-4.4-3.6-8.1-8-8.2c-4.6,0-8.3,3.7-8.3,8.3
				c0,0,0,0,0,0.1c0,7.5,3.5,14.5,9.5,18.9l6.8,5.1l6.8-5.1c6-4.5,9.5-11.5,9.5-18.9C403.5-41.1,399.8-44.8,395.2-44.8
				C395.2-44.8,395.2-44.8,395.2-44.8z"/>
		</g>
	</g>
</g>
<g>
	<defs>
		<rect id="SVGID_00000026848729093241294780000016753392846360758463_" x="759" y="134" width="223" height="116"/>
	</defs>
	<clipPath id="SVGID_00000062871808207122533140000000784457388159828662_">
		<use xlink:href="#SVGID_00000026848729093241294780000016753392846360758463_"  style="overflow:visible;"/>
	</clipPath>
	
		<g id="마스크_그룹_1234" transform="translate(857 285)" style="clip-path:url(#SVGID_00000062871808207122533140000000784457388159828662_);">
		<g id="그룹_111955" transform="matrix(0.956, 0.292, -0.292, 0.956, 334.373, 216.059)">
			<g id="그룹_110032" transform="translate(0.317 -5.061)">
				<path id="패스_37204" class="st15" d="M-359.1-204.4c-2.9-3.2-7.1-5-11.4-4.9c-0.9,0-1.9,0.1-2.8,0.2
					c-0.2-0.9-0.4-1.8-0.7-2.6c-1.6-4.5-5.1-8-9.6-9.6c-1.5-0.5-3.1-0.8-4.7-0.8c-4.3,0-8.4,1.8-11.5,4.9c-3-3.1-7.1-4.8-11.4-4.9
					c-1.6,0-3.2,0.3-4.7,0.7c-5.4,1.9-9.3,6.6-10.3,12.2c-0.9-0.2-1.9-0.2-2.9-0.3c-4.3-0.1-8.5,1.7-11.4,4.9
					c-6,6.5-5,17.3,2.3,23.9l0.1,0.1c4.1,3.6,6.5,8.8,6.6,14.3v44.8h63.6v-44.8c0.1-5.5,2.4-10.7,6.6-14.3l0.1-0.1
					c3.1-2.8,5.2-6.6,6-10.8C-354.5-196-355.9-200.9-359.1-204.4"/>
				<path id="패스_37205" class="st16" d="M-359.1-204.4c-2.9-3.2-7.1-5-11.4-4.9c-0.9,0-1.9,0.1-2.8,0.2
					c-0.2-0.9-0.4-1.8-0.7-2.6c-1.6-4.5-5.1-8-9.6-9.6c-1.5-0.5-3.1-0.8-4.7-0.8c-4.3,0-8.4,1.8-11.5,4.9c-3-3.1-7.1-4.8-11.4-4.9
					c-1.6,0-3.2,0.3-4.7,0.7c-5.4,1.9-9.3,6.6-10.3,12.2c-0.9-0.2-1.9-0.2-2.9-0.3c-4.3-0.1-8.5,1.7-11.4,4.9
					c-6,6.5-5,17.3,2.3,23.9l0.1,0.1c4.1,3.6,6.5,8.8,6.6,14.3v44.8h63.6v-44.8c0.1-5.5,2.4-10.7,6.6-14.3l0.1-0.1
					c3.1-2.8,5.2-6.6,6-10.8C-354.5-196-355.9-200.9-359.1-204.4z"/>
				<path id="패스_37206" class="st17" d="M-387.5-187.8c-7.2-5.6-17.3-5.6-24.5,0c-7.1,5.3-9.8,13.7-6.1,18.7
					c2.7,3.5,7.8,4.4,13.2,2.7c3.3-1.1,6.9-1.1,10.3,0c5.3,1.7,10.5,0.8,13.2-2.7C-377.7-174.1-380.4-182.5-387.5-187.8"/>
				<path id="패스_37207" class="st16" d="M-387.5-187.8c-7.2-5.6-17.3-5.6-24.5,0c-7.1,5.3-9.8,13.7-6.1,18.7
					c2.7,3.5,7.8,4.4,13.2,2.7c3.3-1.1,6.9-1.1,10.3,0c5.3,1.7,10.5,0.8,13.2-2.7C-377.7-174.1-380.4-182.5-387.5-187.8z"/>
				<path id="패스_37208" class="st17" d="M-404.4-206.3c1.4,4.2-0.2,8.4-3.4,9.5c-3.3,1.1-7.1-1.4-8.4-5.6
					c-1.4-4.2,0.2-8.4,3.4-9.5C-409.5-213-405.7-210.5-404.4-206.3"/>
				<path id="패스_37209" class="st16" d="M-404.4-206.3c1.4,4.2-0.2,8.4-3.4,9.5c-3.3,1.1-7.1-1.4-8.4-5.6
					c-1.4-4.2,0.2-8.4,3.4-9.5C-409.5-213-405.7-210.5-404.4-206.3z"/>
				<path id="패스_37210" class="st17" d="M-423.1-197c3.2,3,4,7.4,1.6,10s-6.9,2.2-10.1-0.8c-3.2-3-4-7.4-1.6-10
					S-426.4-200-423.1-197"/>
				<path id="패스_37211" class="st16" d="M-423.1-197c3.2,3,4,7.4,1.6,10s-6.9,2.2-10.1-0.8c-3.2-3-4-7.4-1.6-10
					S-426.4-200-423.1-197z"/>
				<path id="패스_37212" class="st17" d="M-395.2-206.3c-1.4,4.2,0.2,8.4,3.4,9.5c3.3,1.1,7.1-1.4,8.4-5.6
					c1.4-4.2-0.2-8.4-3.4-9.5C-390-213-393.8-210.5-395.2-206.3"/>
				<path id="패스_37213" class="st16" d="M-395.2-206.3c-1.4,4.2,0.2,8.4,3.4,9.5c3.3,1.1,7.1-1.4,8.4-5.6
					c1.4-4.2-0.2-8.4-3.4-9.5C-390-213-393.8-210.5-395.2-206.3z"/>
				<path id="패스_37214" class="st17" d="M-376.4-197c-3.2,3-4,7.4-1.6,10s6.9,2.2,10.1-0.8s4-7.4,1.6-10S-373.2-200-376.4-197"
					/>
				<path id="패스_37215" class="st16" d="M-376.4-197c-3.2,3-4,7.4-1.6,10s6.9,2.2,10.1-0.8s4-7.4,1.6-10S-373.2-200-376.4-197z"
					/>
			</g>
		</g>
	</g>
</g>
<g transform="matrix(1, 0, 0, 1, -472, -85.1)">
	<g class="st3">
		<path d="M973.6,188.4h-25.7v-5.7h9.1v-3.1h7.6v3.1h9.1V188.4z M949.2,196.7c0-4.8,5.3-7.4,11.5-7.4c6.2,0,11.5,2.6,11.5,7.4
			c0,4.9-5.3,7.4-11.5,7.4C954.5,204.1,949.2,201.6,949.2,196.7z M970.9,208.4l14,3.6l-2.2,6.3l-16.4-4.9c-4.2,3-10.2,4.4-16.3,4.4
			v-6.6c7,0,13.2-2.5,14.6-6.6l7.3,1.4C971.7,206.8,971.4,207.7,970.9,208.4z M956.3,196.7c0,1.3,1.8,2.1,4.4,2.1
			c2.7,0,4.4-0.8,4.4-2.1c0-1.3-1.8-2.1-4.4-2.1C958.1,194.6,956.3,195.4,956.3,196.7z M988,188.1v7.2h-4.4v11.2h-7.4v-26.2h7.4v7.8
			H988z"/>
		<path d="M1093,186.7h-16.3v5.1h9.8c3.4,0,6.7-0.5,8.7-1.3v6c-1.9,0.8-5.2,1.3-8.8,1.3h-17.2v-17.2h23.8V186.7z M1104.4,211.2
			h-26.2v1.5h26.6v5.1h-34v-11.2h26.2v-1.5h-26.3V200h33.7V211.2z M1104.4,198.7h-7.4v-18.4h7.4V198.7z"/>
		<path d="M1158.5,199.7v5.7h-38v-5.7H1158.5z M1122.5,207h33.8v11.3h-7.5v-5.6h-26.3V207z M1156.7,198h-33.8v-17.7h33.4v4.9h-26.1
			v1.8h25.4v4.4h-25.4v1.8h26.5V198z"/>
		<path d="M1162.8,181.1h21.3v10.2c0,15.3-8.2,24.8-21.3,24.8v-7c9-0.1,13.7-6.7,13.7-17.7v-3.4h-13.7V181.1z M1201.4,201.2h-4.4
			v16.6h-7.4v-37.6h7.4V194h4.4V201.2z"/>
	</g>
	<g class="st3">
		<path d="M973.6,188.4h-25.7v-5.7h9.1v-3.1h7.6v3.1h9.1V188.4z M949.2,196.7c0-4.8,5.3-7.4,11.5-7.4c6.2,0,11.5,2.6,11.5,7.4
			c0,4.9-5.3,7.4-11.5,7.4C954.5,204.1,949.2,201.6,949.2,196.7z M970.9,208.4l14,3.6l-2.2,6.3l-16.4-4.9c-4.2,3-10.2,4.4-16.3,4.4
			v-6.6c7,0,13.2-2.5,14.6-6.6l7.3,1.4C971.7,206.8,971.4,207.7,970.9,208.4z M956.3,196.7c0,1.3,1.8,2.1,4.4,2.1
			c2.7,0,4.4-0.8,4.4-2.1c0-1.3-1.8-2.1-4.4-2.1C958.1,194.6,956.3,195.4,956.3,196.7z M988,188.1v7.2h-4.4v11.2h-7.4v-26.2h7.4v7.8
			H988z"/>
		<path d="M1093,186.7h-16.3v5.1h9.8c3.4,0,6.7-0.5,8.7-1.3v6c-1.9,0.8-5.2,1.3-8.8,1.3h-17.2v-17.2h23.8V186.7z M1104.4,211.2
			h-26.2v1.5h26.6v5.1h-34v-11.2h26.2v-1.5h-26.3V200h33.7V211.2z M1104.4,198.7h-7.4v-18.4h7.4V198.7z"/>
		<path d="M1158.5,199.7v5.7h-38v-5.7H1158.5z M1122.5,207h33.8v11.3h-7.5v-5.6h-26.3V207z M1156.7,198h-33.8v-17.7h33.4v4.9h-26.1
			v1.8h25.4v4.4h-25.4v1.8h26.5V198z"/>
		<path d="M1162.8,181.1h21.3v10.2c0,15.3-8.2,24.8-21.3,24.8v-7c9-0.1,13.7-6.7,13.7-17.7v-3.4h-13.7V181.1z M1201.4,201.2h-4.4
			v16.6h-7.4v-37.6h7.4V194h4.4V201.2z"/>
	</g>
</g>
<g id="그룹_110115" transform="translate(0 -0.001)">
	<g transform="matrix(1, 0, 0, 1, -472, -85.1)">
		<g class="st3">
			<path class="st18" d="M971.6,186.4h-25.7v-5.7h9.1v-3.1h7.6v3.1h9.1V186.4z M947.2,194.7c0-4.8,5.3-7.4,11.5-7.4
				c6.2,0,11.5,2.6,11.5,7.4c0,4.9-5.3,7.4-11.5,7.4C952.5,202.1,947.2,199.6,947.2,194.7z M968.9,206.4l14,3.6l-2.2,6.3l-16.4-4.9
				c-4.2,3-10.2,4.4-16.3,4.4v-6.6c7,0,13.2-2.5,14.6-6.6l7.3,1.4C969.7,204.8,969.4,205.7,968.9,206.4z M954.3,194.7
				c0,1.3,1.8,2.1,4.4,2.1c2.7,0,4.4-0.8,4.4-2.1c0-1.3-1.8-2.1-4.4-2.1C956.1,192.6,954.3,193.4,954.3,194.7z M986,186.1v7.2h-4.4
				v11.2h-7.4v-26.2h7.4v7.8H986z"/>
			<path class="st18" d="M1091,184.7h-16.3v5.1h9.8c3.4,0,6.7-0.5,8.7-1.3v6c-1.9,0.8-5.2,1.3-8.8,1.3h-17.2v-17.2h23.8V184.7z
				 M1102.4,209.2h-26.2v1.5h26.6v5.1h-34v-11.2h26.2v-1.5h-26.3V198h33.7V209.2z M1102.4,196.7h-7.4v-18.4h7.4V196.7z"/>
			<path class="st18" d="M1156.5,197.7v5.7h-38v-5.7H1156.5z M1120.5,205h33.8v11.3h-7.5v-5.6h-26.3V205z M1154.7,196h-33.8v-17.7
				h33.4v4.9h-26.1v1.8h25.4v4.4h-25.4v1.8h26.5V196z"/>
			<path class="st18" d="M1160.8,179.1h21.3v10.2c0,15.3-8.2,24.8-21.3,24.8v-7c9-0.1,13.7-6.7,13.7-17.7v-3.4h-13.7V179.1z
				 M1199.4,199.2h-4.4v16.6h-7.4v-37.6h7.4V192h4.4V199.2z"/>
		</g>
		<g class="st3">
			<path class="st19" d="M971.6,186.4h-25.7v-5.7h9.1v-3.1h7.6v3.1h9.1V186.4z M947.2,194.7c0-4.8,5.3-7.4,11.5-7.4
				c6.2,0,11.5,2.6,11.5,7.4c0,4.9-5.3,7.4-11.5,7.4C952.5,202.1,947.2,199.6,947.2,194.7z M968.9,206.4l14,3.6l-2.2,6.3l-16.4-4.9
				c-4.2,3-10.2,4.4-16.3,4.4v-6.6c7,0,13.2-2.5,14.6-6.6l7.3,1.4C969.7,204.8,969.4,205.7,968.9,206.4z M954.3,194.7
				c0,1.3,1.8,2.1,4.4,2.1c2.7,0,4.4-0.8,4.4-2.1c0-1.3-1.8-2.1-4.4-2.1C956.1,192.6,954.3,193.4,954.3,194.7z M986,186.1v7.2h-4.4
				v11.2h-7.4v-26.2h7.4v7.8H986z"/>
			<path class="st19" d="M1091,184.7h-16.3v5.1h9.8c3.4,0,6.7-0.5,8.7-1.3v6c-1.9,0.8-5.2,1.3-8.8,1.3h-17.2v-17.2h23.8V184.7z
				 M1102.4,209.2h-26.2v1.5h26.6v5.1h-34v-11.2h26.2v-1.5h-26.3V198h33.7V209.2z M1102.4,196.7h-7.4v-18.4h7.4V196.7z"/>
			<path class="st19" d="M1156.5,197.7v5.7h-38v-5.7H1156.5z M1120.5,205h33.8v11.3h-7.5v-5.6h-26.3V205z M1154.7,196h-33.8v-17.7
				h33.4v4.9h-26.1v1.8h25.4v4.4h-25.4v1.8h26.5V196z"/>
			<path class="st19" d="M1160.8,179.1h21.3v10.2c0,15.3-8.2,24.8-21.3,24.8v-7c9-0.1,13.7-6.7,13.7-17.7v-3.4h-13.7V179.1z
				 M1199.4,199.2h-4.4v16.6h-7.4v-37.6h7.4V192h4.4V199.2z"/>
		</g>
	</g>
	<g id="main_heart">
		<g id="그룹_110114" transform="matrix(0.998, -0.07, 0.07, 0.998, 42.355, 4.776)">
			<g id="arrow">
				<path id="패스_37290" class="st20" d="M509.7,143.1L538,137l0.5,2.5l-28.4,6.1L509.7,143.1z"/>
			</g>
			<g id="그룹_110113" transform="translate(0 0)">
				<g id="그룹_110112" transform="translate(0)">
					<path id="패스_37291" class="st21" d="M513.9,118.2c-6.4,1.6-10.5,8-9.1,14.5c-1.3-6.5-7.5-10.7-14-9.5
						c-6.6,1.3-10.9,8.1-9.5,14.8c2.2,10.9,9.4,20.1,19.4,24.9l11.4,5.4l8.3-9.7c7.3-8.5,10.2-19.9,7.9-30.8l0,0
						C527.1,121.1,520.5,116.6,513.9,118.2"/>
					<path id="패스_37292" class="st22" d="M513.9,118.2c-6.4,1.6-10.5,8-9.1,14.5c-1.3-6.5-7.5-10.7-14-9.5
						c-6.6,1.3-10.9,8.1-9.5,14.8c2.2,10.9,9.4,20.1,19.4,24.9l11.4,5.4l8.3-9.7c7.3-8.5,10.2-19.9,7.9-30.8l0,0
						C527.1,121.1,520.5,116.6,513.9,118.2z"/>
					<g id="arrow">	
						<path id="패스_37293" class="st23" d="M534.4,140.1l1.4-3.9l-2.8-3c-0.4-0.4-0.4-1.1,0-1.5c0.2-0.2,0.5-0.3,0.8-0.3l12.3,1.1
							c0.6,0.1,1.2,0.5,1.3,1.2c0.1,0.6-0.2,1.3-0.7,1.6l-10.9,6.1c-0.5,0.3-1.1,0.1-1.4-0.4C534.3,140.7,534.3,140.3,534.4,140.1"/>
						<path id="패스_37294" class="st24" d="M504.3,138.4c1.5,0.8,2.7,2.2,3,3.9c0.4,1.7-0.1,3.5-1.2,4.8"/>
						<path id="패스_37295" class="st20" d="M475,147.8l0.5,2.7l31.9-6.9c0-0.9-0.2-1.8-0.5-2.7L475,147.8z"/>
						<path id="패스_37296" class="st25" d="M464.7,147.3l9.5-2.1l3.4,3.3l-9.5,2.1L464.7,147.3z"/>
						<path id="패스_37297" class="st25" d="M466.3,155.2l9.5-2.1l1.8-4.5l-9.5,2.1L466.3,155.2z"/>
					</g>
				</g>
			</g>
		</g>
	</g>
</g>
</svg>
