<?xml version="1.0" encoding="utf-8"?>
<!-- Generator: Adobe Illustrator 26.1.0, SVG Export Plug-In . SVG Version: 6.00 Build 0)  -->
<svg version="1.1" xmlns="http://www.w3.org/2000/svg" xmlns:xlink="http://www.w3.org/1999/xlink" x="0px" y="0px"
	 viewBox="0 0 299 527.4" style="enable-background:new 0 0 299 527.4;" xml:space="preserve">
<style type="text/css">
	.st0{opacity:0.2;}
	.st1{fill:#2ECFFF;}
	.st2{fill:#080D4B;}
	.st3{enable-background:new    ;}
	.st4{fill:#FFFFFF;}
	.st5{fill:none;stroke:#080D4B;stroke-width:2;}
	.st6{clip-path:url(#SVGID_00000083770323420245157420000000091724947168307391_);}
	.st7{fill:#FFC1AB;}
	.st8{fill:none;stroke:#080D4B;stroke-width:3;stroke-linecap:round;stroke-linejoin:round;stroke-miterlimit:4;}
	.st9{fill:none;stroke:#080D4B;stroke-width:3;stroke-linecap:round;stroke-linejoin:round;}
	.st10{fill:none;stroke:#080D4B;stroke-width:3.0012;stroke-linecap:round;stroke-linejoin:round;stroke-miterlimit:4.0016;}
	.st11{fill:#FD7CBB;}
	.st12{fill:#FFFFFF;stroke:#080D4B;stroke-width:2;}
</style>
<g id="Layer_1">
	<g id="Group_112048" transform="translate(1219.854 272.104)" class="st0">
		<path id="Path_38158" class="st1" d="M-1171.9-272.1l-4.3,127.7h-9.7l6.5-126.5L-1171.9-272.1z"/>
		<path id="Path_38159" class="st1" d="M-1137.9-211.2v10.6l-81.2-7.1l-0.8-8.3L-1137.9-211.2z"/>
		<path id="Path_38160" class="st1" d="M-1209.9-181.6l57.5-58.5l4.6,5.1l-58,56.8L-1209.9-181.6z"/>
		<path id="Path_38161" class="st1" d="M-1154.5-174.3l-53.4-63l4.6-5.1l51.8,63.5L-1154.5-174.3z"/>
	</g>
	<g id="Group_112084" transform="translate(1316.82 360.208)" class="st0">
		<path id="Path_38158-2" class="st1" d="M-1140.7-272.1l-7.1,210.6h-16l10.7-208.6L-1140.7-272.1z"/>
		<path id="Path_38159-2" class="st1" d="M-1084.7-171.7v17.5l-133.9-11.7l-1.3-13.6L-1084.7-171.7z"/>
		<path id="Path_38160-2" class="st1" d="M-1203.5-122.8l94.8-96.5l7.6,8.3l-95.6,93.7L-1203.5-122.8z"/>
		<path id="Path_38161-2" class="st1" d="M-1112.1-110.7l-88-103.9l7.6-8.4l85.5,104.8L-1112.1-110.7z"/>
	</g>
	<path id="Path_38304" class="st2" d="M169.3,441.7l43.7,11.7l59-14.7l-10.3-42l-25.9-15.2L161.2,400L169.3,441.7z"/>
	<g class="st3">
		<path class="st4" d="M167.3,422.4c-5.8,1.5-10.5-1.5-12.2-8.4s1-11.6,6.8-13.1s10.4,1.5,12.2,8.4
			C175.9,416.2,173.2,421,167.3,422.4z M165.8,416.3c1.6-0.4,2-2.2,1.3-5.2c-0.8-3-1.9-4.4-3.6-4c-1.6,0.4-2,2.2-1.3,5.2
			C163,415.3,164.2,416.7,165.8,416.3z M199.3,424.6c1.5,6.2-5.9,10.3-16,12.8s-18.6,2.3-20.1-3.8c-1.5-6.2,5.9-10.3,16-12.8
			S197.8,418.5,199.3,424.6z M191.1,426.7c-0.4-1.7-5-1.2-10.4,0.2c-5.4,1.3-9.7,3-9.3,4.7s5,1.2,10.4-0.2S191.5,428.4,191.1,426.7z
			 M186.1,417.7l-7.1,1.8l-5.3-21.2l7.1-1.8l1.6,6.6l3.2-0.8l-1.7-6.8l7.2-1.8l5.7,22.7l-7.2,1.8l-2.2-8.7l-3.2,0.8L186.1,417.7z"/>
		<path class="st4" d="M238.3,398.1l1.4,5.5l-39.4,9.8l-1.4-5.5l13-3.3l-0.6-2.4l-10.7,2.7l-1.3-5.4l27-6.7l-0.5-2l-27,6.7l-1.4-5.5
			l34.7-8.6l3.5,13.9l-7.7,1.9l-0.2-1l-8.6,2.1l0.6,2.4L238.3,398.1z M213.5,424.4l27.7-6.9l1.2,4.8l-35.2,8.8l-2.6-10.3l27.3-6.8
			l-0.4-1.4l-27.4,6.8l-1.2-4.7l34.9-8.7l2.5,10.2L213,423L213.5,424.4z"/>
	</g>
	<g class="st3">
		<path class="st5" d="M167.3,422.4c-5.8,1.5-10.5-1.5-12.2-8.4s1-11.6,6.8-13.1s10.4,1.5,12.2,8.4
			C175.9,416.2,173.2,421,167.3,422.4z M165.8,416.3c1.6-0.4,2-2.2,1.3-5.2c-0.8-3-1.9-4.4-3.6-4c-1.6,0.4-2,2.2-1.3,5.2
			C163,415.3,164.2,416.7,165.8,416.3z M199.3,424.6c1.5,6.2-5.9,10.3-16,12.8s-18.6,2.3-20.1-3.8c-1.5-6.2,5.9-10.3,16-12.8
			S197.8,418.5,199.3,424.6z M191.1,426.7c-0.4-1.7-5-1.2-10.4,0.2c-5.4,1.3-9.7,3-9.3,4.7s5,1.2,10.4-0.2S191.5,428.4,191.1,426.7z
			 M186.1,417.7l-7.1,1.8l-5.3-21.2l7.1-1.8l1.6,6.6l3.2-0.8l-1.7-6.8l7.2-1.8l5.7,22.7l-7.2,1.8l-2.2-8.7l-3.2,0.8L186.1,417.7z"/>
		<path class="st5" d="M238.3,398.1l1.4,5.5l-39.4,9.8l-1.4-5.5l13-3.3l-0.6-2.4l-10.7,2.7l-1.3-5.4l27-6.7l-0.5-2l-27,6.7l-1.4-5.5
			l34.7-8.6l3.5,13.9l-7.7,1.9l-0.2-1l-8.6,2.1l0.6,2.4L238.3,398.1z M213.5,424.4l27.7-6.9l1.2,4.8l-35.2,8.8l-2.6-10.3l27.3-6.8
			l-0.4-1.4l-27.4,6.8l-1.2-4.7l34.9-8.7l2.5,10.2L213,423L213.5,424.4z"/>
	</g>
</g>
<g id="Layer_2">
	<g id="Group_112627" transform="translate(-5 2)">
		<g>
			<defs>
				<rect id="SVGID_1_" x="115.7" y="336.6" width="188.4" height="189"/>
			</defs>
			<clipPath id="SVGID_00000078005288601775626160000007977608725254818221_">
				<use xlink:href="#SVGID_1_"  style="overflow:visible;"/>
			</clipPath>
			
				<g id="Group_112092_00000166637137595960747890000000772872169857212582_" style="clip-path:url(#SVGID_00000078005288601775626160000007977608725254818221_);">
				<g id="Group_112097" transform="translate(52.044 -32.184) rotate(17)">
					<path id="Path_38293_00000090982209731684405670000006499310313126173590_" class="st7" d="M391.9,463.9l-50.1-11.8
						c-1.3-3-3.7-5.3-6.7-6.5c0,0,0,0,0,0c-8.7-8.2-8.3-20.7-14.4-19.2c-5.3,1.3-7.3,14-0.4,19.7l-0.1,0c-8.3,2-8.9,9.3-6.9,17.5
						c2,8.3,5.9,14.4,14.2,12.4c4.7-1.1,10.3-2.8,13.6-6.6l50.8,9.7"/>
					<path id="Path_38294_00000104695429098155348660000002610017111678814644_" class="st8" d="M391.9,463.9l-50.1-11.8
						c-1.3-3-3.7-5.3-6.7-6.5c0,0,0,0,0,0c-8.7-8.2-8.3-20.7-14.4-19.2c-5.3,1.3-7.3,14-0.4,19.7l-0.1,0c-8.3,2-8.9,9.3-6.9,17.5
						c2,8.3,5.9,14.4,14.2,12.4c4.7-1.1,10.3-2.8,13.6-6.6l50.8,9.7"/>
				</g>
				<path id="Path_38295_00000152253812462654893970000006231423616792203166_" class="st1" d="M224.3,529l-33.8-166.8l11.2-2
					L235.5,527"/>
				<path id="Path_38296_00000147932087600410448370000003644808712714558365_" class="st9" d="M225.3,529.1l-33.8-166.4l11.2-2
					l33.8,166.4"/>
				
					<rect id="Rectangle_20509_00000080197024462447083580000008532132004592631194_" x="137.1" y="368.3" transform="matrix(0.9816 -0.1909 0.1909 0.9816 -76.1154 47.6551)" class="st4" width="144.3" height="101.1"/>
				
					<rect id="Rectangle_20510_00000033368754845141764410000001329711404790685837_" x="139.1" y="369.3" transform="matrix(0.9816 -0.1909 0.1909 0.9816 -76.1154 47.6549)" class="st10" width="140.3" height="99.1"/>
				<path id="Path_38303_00000052100832519906714580000000892674354461770410_" class="st11" d="M142.1,391l119-23.1l15.3,78.7
					l-119,23.1L142.1,391z"/>
				<g id="Group_112098" transform="translate(52.044 -32.184) rotate(17)">
					<path id="Path_38297_00000077303708280620221140000004039131710478510514_" class="st7" d="M324.2,443.4c1,4.1-2.7,5.8-7.6,6.9
						c-4.8,1.2-8.9,1.4-9.9-2.7c-1-4.1,2.7-5.8,7.6-6.9C319.1,439.5,323.2,439.3,324.2,443.4"/>
					<path id="Path_38298_00000132080240124644939430000011850441460601042823_" class="st8" d="M324.2,443.4c1,4.1-2.7,5.8-7.6,6.9
						c-4.8,1.2-8.9,1.4-9.9-2.7c-1-4.1,2.7-5.8,7.6-6.9C319.1,439.5,323.2,439.3,324.2,443.4z"/>
					<path id="Path_38299_00000021089604095973645320000008377300980005947279_" class="st7" d="M331.6,468.8c1,4.2-2.8,5.9-7.7,7.1
						c-4.9,1.2-9.1,1.5-10.1-2.7c-1-4.2,2.8-5.9,7.7-7.1C326.5,464.9,330.6,464.6,331.6,468.8"/>
					<path id="Path_38300_00000111889865967192642230000002286323824146545054_" class="st8" d="M331.6,468.8c1,4.2-2.8,5.9-7.7,7.1
						c-4.9,1.2-9.1,1.5-10.1-2.7c-1-4.2,2.8-5.9,7.7-7.1C326.5,464.9,330.6,464.6,331.6,468.8z"/>
					<path id="Path_38305_00000183235343798031313610000004401828310462998414_" class="st7" d="M325.5,451.3
						c1.1,4.7-3.1,6.5-8.6,7.9c-5.5,1.3-10.1,1.6-11.2-3c-1.1-4.7,3.1-6.5,8.6-7.9S324.4,446.6,325.5,451.3"/>
					<path id="Path_38306_00000116922210489363735470000015200211644450772145_" class="st8" d="M325.5,451.3
						c1.1,4.7-3.1,6.5-8.6,7.9c-5.5,1.3-10.1,1.6-11.2-3c-1.1-4.7,3.1-6.5,8.6-7.9S324.4,446.6,325.5,451.3z"/>
					<path id="Path_38301_00000084505376268545186640000016377495969408444301_" class="st7" d="M328.6,460.8c1.1,4.5-3,6.3-8.3,7.5
						c-5.3,1.3-9.8,1.6-10.9-2.9c-1.1-4.5,3-6.3,8.3-7.5C323,456.6,327.5,456.3,328.6,460.8"/>
					<path id="Path_38302_00000175317479889702913440000011150709094802655365_" class="st8" d="M328.6,460.8c1.1,4.5-3,6.3-8.3,7.5
						c-5.3,1.3-9.8,1.6-10.9-2.9c-1.1-4.5,3-6.3,8.3-7.5C323,456.6,327.5,456.3,328.6,460.8z"/>
				</g>
				
					<rect id="Rectangle_20512_00000183228737377189914600000005636996703027783590_" x="149.1" y="379.1" transform="matrix(0.9816 -0.1909 0.1909 0.9816 -76.1152 47.6538)" class="st10" width="120.2" height="79.5"/>
				<path id="Path_38372" class="st2" d="M174,445.1l43,13.9l59.7-11.6l-8.1-42.4l-25-16.5l-75.5,14.6L174,445.1z"/>
				<g transform="matrix(1, 0, 0, 1, 5, -2)">
					<path id="Path_38373-2" class="st12" d="M175.5,414.9c-1.4-7-5.8-10.1-11.7-9c-5.9,1.1-8.8,5.7-7.5,12.7s5.8,10.2,11.7,9
						C173.9,426.5,176.9,421.9,175.5,414.9z M185.5,416.4l3.3-0.6l1.7,8.8l7.3-1.4l-4.5-22.9l-7.3,1.4l1.3,6.9l-3.3,0.6l-1.3-6.7
						l-7.2,1.4l4.2,21.5l7.2-1.4L185.5,416.4z M163.5,417.3c-0.6-3-0.1-4.8,1.5-5.1c1.7-0.3,2.8,1.1,3.3,4.1c0.6,3,0.1,4.8-1.5,5.1
						C165.2,421.8,164.1,420.3,163.5,417.3z M179.9,426.7c-10.2,2-17.8,5.8-16.6,12c1.2,6.2,9.7,6.9,19.9,4.9s17.8-5.8,16.6-12
						C198.6,425.3,190.1,424.7,179.9,426.7z M182,437.4c-5.4,1.1-10.1,1.4-10.4-0.4c-0.3-1.7,4.1-3.2,9.5-4.2s10.1-1.3,10.4,0.4
						C191.8,434.9,187.4,436.4,182,437.4z M221.4,410.7l-0.5-2.4l8.7-1.7l0.2,1l7.8-1.5l-2.7-14l-35.1,6.8l1.1,5.6l27.3-5.3l0.4,2
						l-27.3,5.3l1.1,5.4l10.8-2.1l0.5,2.4l-13.2,2.6l1.1,5.6l39.9-7.7l-1.1-5.6L221.4,410.7z M213.7,430.6l27.6-5.4l-2-10.3
						l-35.3,6.9l0.9,4.8l27.7-5.4l0.3,1.4l-27.6,5.4l2,10.4l35.6-6.9l-0.9-4.8l-28,5.4L213.7,430.6z"/>
				</g>
			</g>
		</g>
	</g>
</g>
</svg>
