<?xml version="1.0" encoding="utf-8"?>
<!-- Generator: Adobe Illustrator 26.1.0, SVG Export Plug-In . SVG Version: 6.00 Build 0)  -->
<svg version="1.1" id="Layer_1" xmlns="http://www.w3.org/2000/svg" xmlns:xlink="http://www.w3.org/1999/xlink" x="0px" y="0px"
	 viewBox="0 0 1200 325" style="enable-background:new 0 0 1200 325;" xml:space="preserve">
<style type="text/css">
	.st0{fill:#FFFFFF;fill-opacity:0;}
	.st1{fill:#7582F0;}
	.st2{fill:none;stroke:#080D4B;stroke-width:3;stroke-linecap:round;stroke-linejoin:round;}
	.st3{fill:#FEC211;}
	.st4{fill:#040405;}
	.st5{fill:#FFFFFF;}
	.st6{fill:none;stroke:#000000;stroke-width:3;stroke-linecap:round;stroke-linejoin:round;}
	.st7{stroke:#000000;stroke-width:1.2;}
	.st8{fill:none;stroke:#000000;stroke-width:2;stroke-linecap:round;stroke-linejoin:round;}
	.st9{fill:#FF9F00;stroke:#000000;stroke-width:1.2;}
	.st10{fill:none;stroke:#000000;stroke-width:3;stroke-linecap:round;stroke-miterlimit:4;}
	.st11{enable-background:new    ;}
	.st12{fill:none;stroke:#000000;stroke-width:1.5;}
	.st13{fill:#F15E22;}
</style>
<rect id="사각형_20766" y="0" class="st0" width="1200" height="325"/>
<rect id="area" x="376" y="30" class="st0" width="448" height="186"/>
<g id="구름" transform="translate(740.385 425.263) rotate(-3)">
	<path id="패스_36362" class="st1" d="M43.1-308c4-6.8,6.2-14.5,6.2-22.4c0-29.7-30.6-53.7-68.4-53.7c-24.3,0-45.6,10-57.7,24.9
		c-11.1-11.7-28.9-19.3-48.9-19.3c-10.2,0-20.3,2-29.6,6c-10.7-10.9-26.2-18.7-44.4-21.7c-4.8-0.8-9.7-1.1-14.6-1.1
		c-41.3,0-74.7,26.3-74.7,58.7c0,0.9,0,1.9,0.1,2.8c-16.6,9.2-27.4,24.4-27.4,41.6c0,28.1,29,50.9,64.8,50.9c3.1,0,6.3-0.2,9.4-0.5
		c7.9,14.9,26.6,25.5,48.5,25.5c18.9,0,35.5-7.9,44.7-19.7c10.4,3.7,21.4,5.5,32.4,5.5c16.4,0.1,32.5-4,46.7-12.1
		C-61-232-45.7-225-28.4-225c24.4,0,44.8-13.8,49-32.1c3.3,0.8,6.7,1.2,10.2,1.2c18.9,0,34.3-12.1,34.3-26.9
		C65.1-294.3,56-304.2,43.1-308"/>
	<path id="패스_36363" class="st2" d="M43.1-308c4-6.8,6.2-14.5,6.2-22.4c0-29.7-30.6-53.7-68.4-53.7c-24.3,0-45.6,10-57.7,24.9
		c-11.1-11.7-28.9-19.3-48.9-19.3c-10.2,0-20.3,2-29.6,6c-13.7-13.9-35-22.8-59.1-22.8c-41.3,0-74.7,26.3-74.7,58.7
		c0,0.9,0,1.9,0.1,2.8c-16.6,9.2-27.4,24.4-27.4,41.6c0,28.1,29,50.9,64.8,50.9c3.1,0,6.3-0.2,9.4-0.5c7.9,14.9,26.6,25.5,48.5,25.5
		c18.9,0,35.5-7.9,44.7-19.7c10.4,3.7,21.4,5.5,32.4,5.5c16.4,0.1,32.5-4,46.7-12.1C-61-232-45.7-225-28.4-225
		c24.4,0,44.8-13.8,49-32.1c3.3,0.8,6.7,1.2,10.2,1.2c18.9,0,34.3-12.1,34.3-26.9C65.1-294.3,56-304.2,43.1-308z"/>
</g>
<g id="별" transform="translate(977.26 415.146) rotate(25)">
	<path id="패스_36382" class="st3" d="M-446.7-199.3l5.9,8.7l10.3-1.9c1.5-0.3,2.9,0.7,3.1,2.2c0.1,0.8-0.1,1.5-0.5,2.1l-6.4,8.3
		l5,9.2c0.7,1.3,0.2,2.9-1.1,3.6c-0.7,0.4-1.5,0.4-2.2,0.2l-9.9-3.6l-7.3,7.6c-1,1.1-2.7,1.1-3.8,0.1c-0.6-0.5-0.9-1.3-0.8-2
		l0.3-10.5l-9.4-4.6c-1.3-0.6-1.9-2.2-1.3-3.6c0.3-0.7,0.9-1.2,1.7-1.4l10.1-2.9l1.4-10.4c0.2-1.5,1.6-2.5,3-2.3
		C-447.8-200.3-447.1-199.9-446.7-199.3"/>
	<path id="패스_36383" class="st2" d="M-446.7-199.3l5.9,8.7l10.3-1.9c1.5-0.3,2.9,0.7,3.1,2.2c0.1,0.8-0.1,1.5-0.5,2.1l-6.4,8.3
		l5,9.2c0.7,1.3,0.2,2.9-1.1,3.6c-0.7,0.4-1.5,0.4-2.2,0.2l-9.9-3.6l-7.3,7.6c-1,1.1-2.7,1.1-3.8,0.1c-0.6-0.5-0.9-1.3-0.8-2
		l0.3-10.5l-9.4-4.6c-1.3-0.6-1.9-2.2-1.3-3.6c0.3-0.7,0.9-1.2,1.7-1.4l10.1-2.9l1.4-10.4c0.2-1.5,1.6-2.5,3-2.3
		C-447.8-200.3-447.1-199.9-446.7-199.3z"/>
</g>
<g id="별-2" transform="translate(794.984 557.156)">
	<path id="패스_36382-2" class="st3" d="M-315.5-376.8l6.8,10.1l12-2.2c1.7-0.3,3.3,0.8,3.6,2.5c0.2,0.9-0.1,1.8-0.6,2.5l-7.5,9.6
		l5.8,10.7c0.8,1.5,0.2,3.4-1.3,4.2c-0.8,0.4-1.7,0.5-2.5,0.2l-11.4-4.1l-8.4,8.8c-1.2,1.2-3.2,1.3-4.4,0.1c-0.6-0.6-1-1.5-1-2.4
		l0.4-12.2l-11-5.3c-1.5-0.7-2.2-2.6-1.5-4.2c0.4-0.8,1.1-1.4,1.9-1.6l11.7-3.4l1.6-12.1c0.2-1.7,1.8-2.9,3.5-2.7
		C-316.7-378-316-377.5-315.5-376.8"/>
	<path id="패스_36383-2" class="st2" d="M-315.5-376.8l6.8,10.1l12-2.2c1.7-0.3,3.3,0.8,3.6,2.5c0.2,0.9-0.1,1.8-0.6,2.5l-7.5,9.6
		l5.8,10.7c0.8,1.5,0.2,3.4-1.3,4.2c-0.8,0.4-1.7,0.5-2.5,0.2l-11.4-4.1l-8.4,8.8c-1.2,1.2-3.2,1.3-4.4,0.1c-0.6-0.6-1-1.5-1-2.4
		l0.4-12.2l-11-5.3c-1.5-0.7-2.2-2.6-1.5-4.2c0.4-0.8,1.1-1.4,1.9-1.6l11.7-3.4l1.6-12.1c0.2-1.7,1.8-2.9,3.5-2.7
		C-316.7-378-316-377.5-315.5-376.8z"/>
</g>
<g id="그룹_113009" transform="translate(0 17)">
	<path id="타임" class="st4" d="M591.4,163.9c62.2-6.3,115.1,4.7,118.1,24.7s-45.1,41.3-107.4,47.7
		c-62.2,6.3-115.1-4.7-118.1-24.7S529.2,170.3,591.4,163.9"/>
	<g id="아이콘" transform="translate(1000.221 507.135)">
		<g id="그룹_109979" transform="translate(0 0)">
			<path id="패스_37084" class="st5" d="M-334.3-324.9c-7.6,21.1,3.3,44.5,24.4,52.1s44.5-3.3,52.1-24.4s-3.3-44.5-24.4-52.1l0,0
				C-303.3-356.9-326.6-346-334.3-324.9L-334.3-324.9"/>
			<path id="패스_37085" class="st6" d="M-334.3-324.9c-7.6,21.1,3.3,44.5,24.4,52.1s44.5-3.3,52.1-24.4s-3.3-44.5-24.4-52.1l0,0
				C-303.3-356.9-326.6-346-334.3-324.9z"/>
			<path id="패스_37086" class="st7" d="M-288.5-315.3c-1.1,3-1,5.8,0.2,6.2s3-1.7,4.1-4.7s1-5.8-0.2-6.2
				S-287.4-318.3-288.5-315.3"/>
			<path id="패스_37088" class="st7" d="M-303.3-320.7c-1.1,3-1,5.8,0.2,6.2s3-1.7,4.1-4.7s1-5.8-0.2-6.2
				S-302.2-323.7-303.3-320.7"/>
			<path id="패스_37090" class="st8" d="M-276-299c-9.8,9.9-25.8,9.9-35.6,0.1c-4.2-4.2-6.8-9.7-7.3-15.7"/>
			<path id="패스_37091" class="st8" d="M-277-303.7c-0.6,1.2-0.2,3,1,4.6c1.2,1.5,3,2.3,4.2,2"/>
			<path id="패스_37092" class="st8" d="M-315.3-317.5c-0.3,1.3-1.8,2.5-3.7,2.9c-1.9,0.4-3.8-0.1-4.5-1.2"/>
			<path id="패스_37093" class="st9" d="M-303.8-308c-1.1,2.6,0.6,5.8,3.8,7.1c3.2,1.3,6.7,0.3,7.8-2.3c1.1-2.6-0.6-5.8-3.8-7.1
				C-299.2-311.6-302.7-310.6-303.8-308"/>
			<g id="그룹_109980" transform="matrix(-0.891, -0.454, 0.454, -0.891, 108.56, 69.206)">
				<path id="패스_37094" class="st10" d="M510.8,189.2c0,0-5-2-4.2,2.5s-2.3,2.1-3.6,6.1"/>
			</g>
		</g>
	</g>
</g>
<g class="st11">
	<path class="st5" d="M509.8,156.5h-6.3v-5.9h6.3V156.5z M513.7,160.6c0,1.6-1.7,2.6-4.5,2.6c-2.8,0-4.5-1-4.5-2.6
		c0-1.6,1.7-2.6,4.5-2.6C512,157.9,513.7,158.9,513.7,160.6z M508.3,151.8H505v3.5h3.3V151.8z M512.2,160.6c0-0.9-1.1-1.4-3-1.4
		c-1.9,0-3,0.5-3,1.4c0,0.9,1.1,1.4,3,1.4C511.1,161.9,512.2,161.4,512.2,160.6z M515.5,152.8v1.3h-1.9v3.4H512v-7.9h1.5v3.2H515.5z
		"/>
	<path class="st5" d="M524,156.3c-1.5-0.5-2.5-1.5-3.1-2.8c-0.6,1.4-1.7,2.5-3.3,3.1l-0.8-1.2c2.1-0.7,3.3-2.4,3.3-4.2V150h1.5v1.1
		c0,1.7,1.2,3.3,3.2,4L524,156.3z M528.5,161.8v1.2h-9.3v-3.5h7.3v-1.1h-7.3v-1.2h8.8v3.4h-7.3v1.2H528.5z M526.5,153.1h-2.7v-1.2
		h2.7v-2.3h1.5v7h-1.5V153.1z"/>
	<path class="st5" d="M538,155.4c0,2.9-1.5,4.8-3.5,4.8c-2,0-3.5-1.8-3.5-4.8c0-2.9,1.5-4.8,3.5-4.8
		C536.6,150.6,538,152.4,538,155.4z M532.6,155.4c0,2.1,0.8,3.4,2,3.4c1.2,0,2-1.3,2-3.4c0-2.1-0.8-3.4-2-3.4
		C533.4,152,532.6,153.3,532.6,155.4z M541.8,149.6v13.6h-1.6v-13.6H541.8z"/>
	<path class="st5" d="M551.3,157.2H545v-6.5h6.3v1.1h2.8v-2.3h1.5v9.9h-1.5V156h-2.8V157.2z M549.8,151.9h-3.3v4h3.3V151.9z
		 M556,161.6v1.3h-9.1v-4.3h1.6v3H556z M551.3,153.1v1.6h2.8v-1.6H551.3z"/>
	<path class="st5" d="M568.5,157.3v1.4h3.9v4.3H563v-4.3h3.9v-1.4h-5.4V156h12.3v1.2H568.5z M564.6,151.2h-1.9V150h10v1.2h-1.9v2.5
		h1.8v1.2h-9.9v-1.2h1.8V151.2z M570.8,159.9h-6.3v1.8h6.3V159.9z M569.3,151.2h-3.1v2.5h3.1V151.2z"/>
	<path class="st5" d="M582.7,156.5c-1.5-0.5-2.6-1.5-3.2-2.7c-0.6,1.3-1.8,2.5-3.3,3l-0.8-1.2c2.1-0.7,3.3-2.4,3.3-4v-0.1h-2.8v-1.2
		h7.2v1.2h-2.8v0.1c0,1.5,1.2,3,3.2,3.7L582.7,156.5z M587.1,161.8v1.2h-9.3v-3.6h7.3v-1.1h-7.3v-1.2h8.8v3.4h-7.3v1.2H587.1z
		 M585.1,152.5v-2.9h1.6v6.9h-1.6v-2.8h-2.4v-1.3H585.1z"/>
	<path class="st5" d="M589.9,161c0-0.7,0.5-1.2,1.1-1.2c0.7,0,1.2,0.5,1.2,1.2c0,0.7-0.5,1.2-1.2,1.2
		C590.3,162.2,589.9,161.7,589.9,161z M590.2,152.5l0-1.8h1.7l-0.1,1.8l-0.2,6h-1.2L590.2,152.5z"/>
	<path class="st5" d="M610,160.2v1.3h-12.3v-1.3h5.3v-2.6c-2.5-0.2-4.2-1.6-4.2-3.6c0-2.2,2.1-3.6,5-3.6c2.9,0,5,1.4,5,3.6
		c0,2-1.7,3.4-4.2,3.6v2.6H610z M603.8,156.4c2,0,3.5-0.9,3.5-2.4s-1.5-2.4-3.5-2.4c-2,0-3.5,0.9-3.5,2.4S601.8,156.4,603.8,156.4z"
		/>
	<path class="st5" d="M623.8,155v1.2h-12.3V155H623.8z M614.5,161.8h8.1v1.2H613v-3.5h7.7v-1.1H613v-1.2h9.3v3.4h-7.7V161.8z
		 M622.4,153.8h-9.3v-4.1h1.5v2.8h7.7V153.8z"/>
	<path class="st5" d="M632.1,157.2h-6.3v-6.4h6.3V157.2z M630.6,152h-3.3v3.9h3.3V152z M628.9,161.6h7.6v1.3h-9.1v-4.3h1.6V161.6z
		 M637.8,153.6v1.3h-1.9v4.6h-1.5v-9.9h1.5v4H637.8z"/>
	<path class="st5" d="M654.7,157.5h-5.4v5.7h-1.6v-5.7h-5.3v-1.3h8.8c0.4-1.9,0.4-3.3,0.4-4.5H644v-1.2h9.2v1.2c0,1.3,0,2.7-0.3,4.6
		h1.9V157.5z"/>
	<path class="st5" d="M656.7,151.1h5.2v8.5h-5.2V151.1z M658.2,158.4h2.3v-6.1h-2.3V158.4z M667.9,149.6v13.5h-1.5v-7h-1.5v6.4h-1.5
		v-12.6h1.5v5h1.5v-5.3H667.9z"/>
	<path class="st5" d="M680.7,157.8c-1.5-0.5-2.6-1.5-3.2-2.7c-0.6,1.4-1.7,2.4-3.3,3l-0.8-1.2c2.1-0.7,3.3-2.3,3.3-4.1v-0.2h-2.8
		v-1.2h2.8v-1.6h1.6v1.6h2.8v1.2h-2.9v0.2c0,1.6,1.2,3.2,3.2,3.8L680.7,157.8z M677,161.6h7.6v1.3h-9.1v-4.1h1.6V161.6z M686,153.7
		v1.3H684v4.6h-1.5v-10h1.5v4.1H686z"/>
	<path class="st5" d="M699.5,160.1v1.3h-12.3v-1.3H699.5z M698.3,157.5c-2.2-0.5-4.1-1.9-5-3.7c-0.9,1.9-2.8,3.3-5,3.7l-0.7-1.3
		c2.7-0.5,4.8-2.6,4.8-4.7v-1h1.6v1c0,2.2,2.2,4.2,4.8,4.7L698.3,157.5z"/>
</g>
<path id="패스_38153" class="st5" d="M913.2,126.4l2.9,13.6c1.2,5.7,5.7,10.2,11.4,11.4l13.6,2.9c1.5,0.3,2.4,1.8,2.1,3.2
	c-0.2,1.1-1,1.9-2.1,2.1l-13.6,2.9c-5.7,1.2-10.2,5.7-11.4,11.4l-2.9,13.6c-0.3,1.5-1.8,2.4-3.2,2.1c-1.1-0.2-1.9-1-2.1-2.1
	l-2.9-13.6c-1.2-5.7-5.7-10.2-11.4-11.4l-13.6-2.9c-1.5-0.3-2.4-1.8-2.1-3.2c0.2-1.1,1-1.9,2.1-2.1l13.6-2.9
	c5.7-1.2,10.2-5.7,11.4-11.4l2.9-13.6c0.3-1.5,1.8-2.4,3.2-2.1C912.1,124.5,912.9,125.3,913.2,126.4z"/>
<path id="패스_38154" class="st5" d="M308.3,182.3l2.8,13c1.2,5.5,5.5,9.8,10.9,10.9l13,2.8c1.4,0.3,2.3,1.7,2,3.1
	c-0.2,1-1,1.8-2,2l-13,2.8c-5.5,1.2-9.8,5.5-10.9,10.9l-2.8,13c-0.3,1.4-1.7,2.3-3.1,2c-1-0.2-1.8-1-2-2l-2.8-13
	c-1.2-5.5-5.5-9.8-10.9-10.9l-13-2.8c-1.4-0.3-2.3-1.7-2-3.1c0.2-1,1-1.8,2-2l13-2.8c5.5-1.2,9.8-5.5,10.9-10.9l2.8-13
	c0.3-1.4,1.7-2.3,3.1-2C307.3,180.5,308.1,181.3,308.3,182.3z"/>
<path id="패스_38776" class="st5" d="M244.2,150.2l1.2,5.5c0.5,2.3,2.3,4.1,4.6,4.6l5.5,1.2c0.6,0.1,1,0.7,0.8,1.3
	c-0.1,0.4-0.4,0.8-0.8,0.8l-5.5,1.2c-2.3,0.5-4.1,2.3-4.6,4.6l-1.2,5.5c-0.1,0.6-0.7,1-1.3,0.8c-0.4-0.1-0.8-0.4-0.8-0.8l-1.2-5.5
	c-0.5-2.3-2.3-4.1-4.6-4.6l-5.5-1.2c-0.6-0.1-1-0.7-0.8-1.3c0.1-0.4,0.4-0.8,0.8-0.8l5.5-1.2c2.3-0.5,4.1-2.3,4.6-4.6l1.2-5.5
	c0.1-0.6,0.7-1,1.3-0.8C243.8,149.5,244.1,149.8,244.2,150.2z"/>
<path id="패스_38155" class="st5" d="M955.9,200.7l1.4,6.4c0.6,2.7,2.7,4.8,5.4,5.4l6.4,1.4c0.7,0.1,1.1,0.8,1,1.5
	c-0.1,0.5-0.5,0.9-1,1l-6.4,1.4c-2.7,0.6-4.8,2.7-5.4,5.4l-1.4,6.4c-0.1,0.7-0.8,1.1-1.5,1c-0.5-0.1-0.9-0.5-1-1L952,223
	c-0.6-2.7-2.7-4.8-5.4-5.4l-6.4-1.4c-0.7-0.1-1.1-0.8-1-1.5c0.1-0.5,0.5-0.9,1-1l6.4-1.4c2.7-0.6,4.8-2.7,5.4-5.4l1.4-6.4
	c0.2-0.7,0.8-1.1,1.5-1C955.4,199.8,955.8,200.2,955.9,200.7z"/>
<g class="st11">
	<path d="M532.9,124.3v7h-38v-7h15.2V119c-8.4-1.1-13.8-5.6-13.8-11.9c0-7.1,7.1-12.1,17.6-12.1c10.5,0,17.6,5,17.6,12.1
		c0,6.2-5.4,10.8-13.8,11.9v5.3H532.9z M513.9,112.5c5.7,0,9.7-2.2,9.7-5.4c0-3.3-4-5.4-9.7-5.4s-9.7,2.2-9.7,5.4
		C504.3,110.3,508.2,112.5,513.9,112.5z"/>
	<path d="M574.2,114.8h-38v-5.4h38V114.8z M572,126.4h-26.3v1.4h26.7v4.7h-34v-10.1h26.3V121h-26.4v-4.7H572V126.4z M545.8,102.3
		h26.5v5.5h-33.9V94.7h7.4V102.3z"/>
	<path d="M601.1,116.8h-22.9V95.4h22.9V116.8z M587.1,125.8h26.1v6.7h-33.7v-13.2h7.6L587.1,125.8L587.1,125.8z M593.8,101.7h-8.2
		v8.8h8.2V101.7z M617.1,102.4v7.2h-4.4v13.1h-7.4V94.9h7.4v7.5H617.1z"/>
	<path d="M667.8,114.4v5.7h-38v-5.7H667.8z M631.9,121.7h33.8V133h-7.5v-5.6h-26.3V121.7z M666,112.7h-33.8V94.9h33.4v4.9h-26.1v1.8
		h25.4v4.4h-25.4v1.8H666V112.7z"/>
	<path d="M672.1,95.8h21.3V106c0,15.3-8.2,24.8-21.3,24.8v-7c9-0.1,13.7-6.7,13.7-17.7v-3.4h-13.7V95.8z M710.7,115.9h-4.4v16.6
		h-7.4V94.9h7.4v13.7h4.4V115.9z"/>
</g>
<g class="st11">
	<path d="M532.9,124.3v7h-38v-7h15.2V119c-8.4-1.1-13.8-5.6-13.8-11.9c0-7.1,7.1-12.1,17.6-12.1c10.5,0,17.6,5,17.6,12.1
		c0,6.2-5.4,10.8-13.8,11.9v5.3H532.9z M513.9,112.5c5.7,0,9.7-2.2,9.7-5.4c0-3.3-4-5.4-9.7-5.4s-9.7,2.2-9.7,5.4
		C504.3,110.3,508.2,112.5,513.9,112.5z"/>
	<path d="M574.2,114.8h-38v-5.4h38V114.8z M572,126.4h-26.3v1.4h26.7v4.7h-34v-10.1h26.3V121h-26.4v-4.7H572V126.4z M545.8,102.3
		h26.5v5.5h-33.9V94.7h7.4V102.3z"/>
	<path d="M601.1,116.8h-22.9V95.4h22.9V116.8z M587.1,125.8h26.1v6.7h-33.7v-13.2h7.6L587.1,125.8L587.1,125.8z M593.8,101.7h-8.2
		v8.8h8.2V101.7z M617.1,102.4v7.2h-4.4v13.1h-7.4V94.9h7.4v7.5H617.1z"/>
	<path d="M667.8,114.4v5.7h-38v-5.7H667.8z M631.9,121.7h33.8V133h-7.5v-5.6h-26.3V121.7z M666,112.7h-33.8V94.9h33.4v4.9h-26.1v1.8
		h25.4v4.4h-25.4v1.8H666V112.7z"/>
	<path d="M672.1,95.8h21.3V106c0,15.3-8.2,24.8-21.3,24.8v-7c9-0.1,13.7-6.7,13.7-17.7v-3.4h-13.7V95.8z M710.7,115.9h-4.4v16.6
		h-7.4V94.9h7.4v13.7h4.4V115.9z"/>
</g>
<g class="st11">
	<path class="st5" d="M530.9,122.3v7h-38v-7h15.2V117c-8.4-1.1-13.8-5.6-13.8-11.9c0-7.1,7.1-12.1,17.6-12.1
		c10.5,0,17.6,5,17.6,12.1c0,6.2-5.4,10.8-13.8,11.9v5.3H530.9z M511.9,110.5c5.7,0,9.7-2.2,9.7-5.4c0-3.3-4-5.4-9.7-5.4
		s-9.7,2.2-9.7,5.4C502.3,108.3,506.2,110.5,511.9,110.5z"/>
	<path class="st5" d="M572.2,112.8h-38v-5.4h38V112.8z M570,124.4h-26.3v1.4h26.7v4.7h-34v-10.1h26.3V119h-26.4v-4.7H570V124.4z
		 M543.8,100.3h26.5v5.5h-33.9V92.7h7.4V100.3z"/>
	<path class="st5" d="M599.1,114.8h-22.9V93.4h22.9V114.8z M585.1,123.8h26.1v6.7h-33.7v-13.2h7.6L585.1,123.8L585.1,123.8z
		 M591.8,99.7h-8.2v8.8h8.2V99.7z M615.1,100.4v7.2h-4.4v13.1h-7.4V92.9h7.4v7.5H615.1z"/>
	<path class="st5" d="M665.8,112.4v5.7h-38v-5.7H665.8z M629.9,119.7h33.8V131h-7.5v-5.6h-26.3V119.7z M664,110.7h-33.8V92.9h33.4
		v4.9h-26.1v1.8h25.4v4.4h-25.4v1.8H664V110.7z"/>
	<path class="st5" d="M670.1,93.8h21.3V104c0,15.3-8.2,24.8-21.3,24.8v-7c9-0.1,13.7-6.7,13.7-17.7v-3.4h-13.7V93.8z M708.7,113.9
		h-4.4v16.6h-7.4V92.9h7.4v13.7h4.4V113.9z"/>
</g>
<g class="st11">
	<path class="st12" d="M530.9,122.3v7h-38v-7h15.2V117c-8.4-1.1-13.8-5.6-13.8-11.9c0-7.1,7.1-12.1,17.6-12.1
		c10.5,0,17.6,5,17.6,12.1c0,6.2-5.4,10.8-13.8,11.9v5.3H530.9z M511.9,110.5c5.7,0,9.7-2.2,9.7-5.4c0-3.3-4-5.4-9.7-5.4
		s-9.7,2.2-9.7,5.4C502.3,108.3,506.2,110.5,511.9,110.5z"/>
	<path class="st12" d="M572.2,112.8h-38v-5.4h38V112.8z M570,124.4h-26.3v1.4h26.7v4.7h-34v-10.1h26.3V119h-26.4v-4.7H570V124.4z
		 M543.8,100.3h26.5v5.5h-33.9V92.7h7.4V100.3z"/>
	<path class="st12" d="M599.1,114.8h-22.9V93.4h22.9V114.8z M585.1,123.8h26.1v6.7h-33.7v-13.2h7.6L585.1,123.8L585.1,123.8z
		 M591.8,99.7h-8.2v8.8h8.2V99.7z M615.1,100.4v7.2h-4.4v13.1h-7.4V92.9h7.4v7.5H615.1z"/>
	<path class="st12" d="M665.8,112.4v5.7h-38v-5.7H665.8z M629.9,119.7h33.8V131h-7.5v-5.6h-26.3V119.7z M664,110.7h-33.8V92.9h33.4
		v4.9h-26.1v1.8h25.4v4.4h-25.4v1.8H664V110.7z"/>
	<path class="st12" d="M670.1,93.8h21.3V104c0,15.3-8.2,24.8-21.3,24.8v-7c9-0.1,13.7-6.7,13.7-17.7v-3.4h-13.7V93.8z M708.7,113.9
		h-4.4v16.6h-7.4V92.9h7.4v13.7h4.4V113.9z"/>
</g>
<g id="Layer_4">
	<g>
		<path d="M756.6,169.5l2.8-8.9c0,0,1.4-1.8,2.4,0.5c1,2.3,0,0.1,0,0.1l2.4,9.6l6.1-3.4c0,0,2.3-1.1,2,1.4l-2.4,7.4l8.3,1
			c0,0,2-0.1,2.1,1.2c0,0-0.1,1-0.9,1.4l-7.7,4.1l6,5.8c0,0,1.2,1,0.7,1.8c0,0-0.3,0.8-1.4,0.7l-7.6-1.2l2.8,9.8c0,0,0.2,1-0.5,1.4
			c0,0-0.9,0.2-1.8-0.3l-6.9-6.9l-2.9,7.9c0,0-0.2,0.7-0.8,0.8c0,0-0.8,0.3-1.4-1.5l-2.4-8.5L749,198c0,0-1.2,1-2,0.2
			c0,0-0.8-0.1-0.3-1.4l3.4-8.7l-9.2-1.2c0,0-1,0-1.1-1.1c0,0-0.3-0.7,1-1.4l7.3-4.1l-6.2-6.1c0,0-0.8-0.5-0.6-1.5
			c0,0,0-0.8,1.4-0.7l7.8,1.1l-2.7-9.6c0,0-0.1-1.2,0.7-1.5c0,0,0.3-0.6,1.4,0.3L756.6,169.5z"/>
		<path class="st13" d="M760.3,166.2l-2,6.3c0,0-0.1,1.5-2.1-0.2c-2-1.8-4.7-4.5-4.7-4.5l1.9,6.5c0,0,0.6,1.6-1,1.8l-5.9-0.7
			l4.4,4.3c0,0,1.2,1.1,0,2.1c-1.2,0.9-5.9,3.4-5.9,3.4l7,0.9c0,0,1.6,0.1,1.1,1.7l-2.5,6.7l5.8-3.6c0,0,1-0.9,1.7,0.7
			c0.7,1.6,0,0.1,0,0.1l1.8,6.2l2-5.6c0,0,0.2-0.9,1.7-0.6l5.3,5.1L767,190c0,0-0.5-1.6,1.2-1.7l5.9,0.9l-4.6-4.5c0,0-1.1-1,0.3-2.1
			l5.8-3.3l-7-0.9c0,0-1.5-0.1-1.1-1.7v-0.1c0.5-1.7,1.8-5.8,1.8-5.8l-4.7,2.7c0,0-1.7,1-2-0.6c-0.3-1.6-1.7-7.3-1.7-7.3
			L760.3,166.2z"/>
	</g>
</g>
</svg>
