<svg xmlns="http://www.w3.org/2000/svg" width="44" height="80" viewBox="0 0 44 43">
<style type="text/css">
.music {transform-origin: 50% 100%; transform: translateY(35px); animation:musuic linear both infinite 1s;}
@keyframes musuic {
0% {transform: translateY(0px)}
50% {transform: translateY(15px)}
100% {transform: translateY(0px)}
}
</style> 
<g class="music">
    <g id="Group_115797" data-name="Group 115797" transform="translate(18199 5262)">
        <rect id="Rectangle_21924" data-name="Rectangle 21924" width="44" height="44" transform="translate(-18199 -5262)" fill="none"/>
        <g id="Group_115794" data-name="Group 115794" transform="translate(-18196.564 -5263.432)">
            <g id="Group_115795" data-name="Group 115795" transform="translate(1.999 3)">
                <path id="Path_52074" data-name="Path 52074" d="M8.8,39a5.829,5.829,0,0,1-5.738-4.978,5.8,5.8,0,0,1,4.919-6.566,5.926,5.926,0,0,1,.708-.058L7.155,16.74l5.041-.723,2.347,16.358a5.808,5.808,0,0,1-4.919,6.567A5.882,5.882,0,0,1,8.8,39Z" transform="translate(-1.626 -9.871)" fill="#b4a0ff" stroke="#000" stroke-width="2.3"/>
                <path id="Path_52076" data-name="Path 52076" d="M31.507,17.772a4.1,4.1,0,0,1-.115-8.2V3h4.217V13.67a4.106,4.106,0,0,1-4.1,4.1" transform="translate(-15.143 -3)" fill="#886ce4" stroke="#000" stroke-width="2.3"/>
                <path id="Path_52078" data-name="Path 52078" d="M36.327,61.128a6.18,6.18,0,1,1,0-12.36q.152,0,.3.007v-4.64H28.281V54.948a6.18,6.18,0,1,1-6.18-6.18q.152,0,.3.007V35.7h20.1V54.948a6.187,6.187,0,0,1-6.18,6.18" transform="translate(-8.747 -20.264)" fill="#735bc1" stroke="#000" stroke-width="2.3"/>
                <path id="Path_52080" data-name="Path 52080" d="M45.952,60.979,42.2,62.462V53.716l9.047,1.327Z" transform="translate(-22.622 -29.772)"/>
            </g>
        </g>
    </g>
</g>
</svg>
