<svg xmlns="http://www.w3.org/2000/svg" xmlns:xlink="http://www.w3.org/1999/xlink" width="217.001" height="50" viewBox="0 0 217.001 50">
  <defs>
    <clipPath id="clip-path">
      <rect id="사각형_902" data-name="사각형 902" width="130.636" height="36.288" fill="#da2128"/>
    </clipPath>
  </defs>
  <g id="_title" data-name="++title" transform="translate(-360 -311)">
    <g id="live" transform="translate(502.001 311.77)">
      <rect id="area" width="77" height="50" transform="translate(-2 -0.77)" fill="#fff" opacity="0"/>
      <path id="패스_36174" data-name="패스 36174" d="M.057,35.988V7.584s-.728-3.705,3.03-4.2S71.2.05,71.2.05a2.23,2.23,0,0,1,2.787,2.47V39.446s.365,2.47-3.03,2.964-49.692-2.592-49.692-2.592L10.844,47.845V38.582H2.238A2.392,2.392,0,0,1,.057,35.988" transform="translate(0.152 0.258)" fill="#da2128"/>
      <text id="LIVE-2" data-name="LIVE" transform="translate(36.998 29.459)" fill="#fff" stroke="#fff" stroke-width="0.4" font-size="22" font-family="Roboto-Bold, Roboto" font-weight="700" letter-spacing="0.04em"><tspan x="-23.862" y="0">LIVE</tspan></text>
    </g>
    <g id="logo" transform="translate(360 311.77)">
      <rect id="area-2" data-name="area" width="134" height="48" fill="#da2128" opacity="0"/>
      <path id="패스_13639" data-name="패스 13639" d="M35.559,1.682H58.9V5.716h-18.5v4.9H58.9v4.032h-18.5v5.327H58.9V24H35.559Z" transform="translate(3.107 6.064)" fill="#da2128"/>
      <g id="그룹_604" data-name="그룹 604" transform="translate(0.631 5.701)">
        <g id="그룹_603" data-name="그룹 603" transform="translate(0 0)" clip-path="url(#clip-path)">
          <path id="패스_13640" data-name="패스 13640" d="M17.038,6.345h2.373V2.368H12.372V0H7.579V2.368H.458V6.345H2.829a9.919,9.919,0,1,0,17.039,6.914,9.863,9.863,0,0,0-2.83-6.914m-7.1,12.606a5.692,5.692,0,1,1,5.7-5.692,5.7,5.7,0,0,1-5.7,5.692" transform="translate(0 0.221)" fill="#da2128"/>
          <path id="패스_13641" data-name="패스 13641" d="M85.623,1.681V7.223H83.352V1.681H79.206V22.89h4.145V11.2h2.271V22.89h4.14V1.681Z" transform="translate(5.723 0.338)" fill="#da2128"/>
          <path id="패스_13642" data-name="패스 13642" d="M66.9,27.294H85.858v7.958h4.794V23.316H66.9Z" transform="translate(4.834 1.844)" fill="#da2128"/>
          <path id="패스_13643" data-name="패스 13643" d="M68.19,17.307V13.492h9.548V1.68H63.829V5.658h9.508V9.473H63.829V21.283H77.738V17.307Z" transform="translate(4.612 0.338)" fill="#da2128"/>
          <path id="패스_13644" data-name="패스 13644" d="M26.59,11.181h3.426V7.205H26.59V1.662H21.8V22.888H26.59Z" transform="translate(1.575 0.337)" fill="#da2128"/>
          <rect id="사각형_900" data-name="사각형 900" width="28.977" height="3.977" transform="translate(101.167 30.708)" fill="#da2128"/>
          <rect id="사각형_901" data-name="사각형 901" width="28.975" height="3.977" transform="translate(35.181 30.708)" fill="#da2128"/>
          <path id="패스_13645" data-name="패스 13645" d="M17.566,28.4l6.9,6.888h6.163L17.566,22.253,4.5,35.289H10.66c2.437-2.433,5.574-5.562,6.905-6.888" transform="translate(0.325 1.77)" fill="#da2128"/>
          <path id="패스_13646" data-name="패스 13646" d="M108.233,9.945l7.94,13.762H121.2L108.233,1.231,95.263,23.707h5.028l7.942-13.762" transform="translate(6.884 0.307)" fill="#da2128"/>
        </g>
      </g>
    </g>
  </g>
</svg>
