<?xml version="1.0" encoding="utf-8"?>
<!-- Generator: Adobe Illustrator 26.1.0, SVG Export Plug-In . SVG Version: 6.00 Build 0)  -->
<svg version="1.1" id="Layer_1" xmlns="http://www.w3.org/2000/svg" xmlns:xlink="http://www.w3.org/1999/xlink" x="0px" y="0px"
	 viewBox="0 0 520 245" style="enable-background:new 0 0 520 245;" xml:space="preserve">
<style type="text/css">
	.st0{fill:none;}
	.st1{clip-path:url(#SVGID_00000075159867264158103250000017584818921628452799_);}
	.st2{fill:#4F4F4F;}
	.st3{fill:none;stroke:#000000;stroke-width:2.5;stroke-linecap:round;stroke-linejoin:round;}
	.st4{fill:#FFD152;}
	.st5{fill:#FFFFFF;}
	.st6{fill:#FFEE24;stroke:#000000;stroke-width:2.5;stroke-linecap:round;stroke-linejoin:round;}
	.st7{fill:#7582F0;}
	.st8{fill:none;stroke:#080D4B;stroke-width:3;stroke-linecap:round;stroke-linejoin:round;}
	.st9{fill:#040405;}
	.st10{fill:none;stroke:#000000;stroke-width:3;stroke-linecap:round;stroke-linejoin:round;}
	.st11{stroke:#000000;stroke-width:1.2;}
	.st12{fill:none;stroke:#000000;stroke-width:2;stroke-linecap:round;stroke-linejoin:round;}
	.st13{fill:#FF9F00;stroke:#000000;stroke-width:1.2;}
	.st14{fill:none;stroke:#000000;stroke-width:3;stroke-linecap:round;stroke-miterlimit:4;}
	.st15{fill:url(#이미지_973_00000133493251682597510080000016461930774572677763_);}
	.st16{fill:#FEC211;}
	.st17{enable-background:new    ;}
	.st18{fill:none;stroke:#000000;stroke-width:1.5;}
</style>
<pattern  y="245" width="40.8" height="40.8" patternUnits="userSpaceOnUse" id="pattern" viewBox="0 -40.8 40.8 40.8" style="overflow:visible;">
	<g>
		<rect y="-40.8" class="st0" width="40.8" height="40.8"/>
		
			<image style="overflow:visible;enable-background:new    ;" width="492" height="512" xlink:href="3A30EC38.png"  transform="matrix(7.972968e-02 0 0 -7.973047e-02 0.7975 0)">
		</image>
	</g>
</pattern>
<g id="그룹_112035" transform="translate(401 -19.18)">
	<g>
		<defs>
			<rect id="SVGID_1_" x="35" y="17.2" width="81.6" height="122.4"/>
		</defs>
		<clipPath id="SVGID_00000123408904242589294170000001372102176437456301_">
			<use xlink:href="#SVGID_1_"  style="overflow:visible;"/>
		</clipPath>
		<g id="그룹_112034" style="clip-path:url(#SVGID_00000123408904242589294170000001372102176437456301_);">
			<path id="패스_38117" class="st2" d="M104.7,18.7v27.4c0,2.6-2.1,4.6-4.6,4.6c-2.6,0-4.6-2.1-4.6-4.6V18.7"/>
			<path id="패스_38118" class="st3" d="M104.7,18.7v27.4c0,2.6-2.1,4.6-4.6,4.6c-2.6,0-4.6-2.1-4.6-4.6V18.7"/>
			<path id="패스_38119" class="st2" d="M46.8,56.5l1-0.6c4.5-1.7,15.9,5,26.9,16s17.7,22.5,16,26.9l-0.6,1
				c-3.5,3.5-16-3.4-27.9-15.4S43.3,60,46.8,56.5"/>
			<path id="패스_38120" class="st3" d="M46.8,56.5l1-0.6c4.5-1.7,15.9,5,26.9,16s17.7,22.5,16,26.9l-0.6,1
				c-3.5,3.5-16-3.4-27.9-15.4S43.3,60,46.8,56.5z"/>
			<path id="패스_38121" class="st2" d="M90.1,99.8l0.6-1C90.6,99.2,90.4,99.5,90.1,99.8"/>
			<path id="패스_38123" class="st2" d="M46.8,56.5c0.3-0.3,0.6-0.5,1-0.6L46.8,56.5z"/>
			<path id="패스_38125" class="st4" d="M61.8,63.3c3.7-3.7,11.5-1.9,17.5,4.1c6,6,7.8,13.8,4.1,17.5s-11.5,1.9-17.5-4.1
				C59.9,74.8,58.1,67,61.8,63.3"/>
			<path id="패스_38126" class="st3" d="M61.8,63.3c3.7-3.7,11.5-1.9,17.5,4.1c6,6,7.8,13.8,4.1,17.5s-11.5,1.9-17.5-4.1
				C59.9,74.8,58.1,67,61.8,63.3z"/>
			<path id="패스_38127" class="st2" d="M47.8,55.9l38-23.8c2.3-2.3,10.6,2.3,18.5,10.2s12.5,16.2,10.2,18.5l-23.8,38
				c1.7-4.4-5-15.9-16-26.9S52.3,54.2,47.8,55.9"/>
			<path id="패스_38128" class="st3" d="M47.8,55.9l38-23.8c2.3-2.3,10.6,2.3,18.5,10.2s12.5,16.2,10.2,18.5l-23.8,38
				c1.7-4.4-5-15.9-16-26.9S52.3,54.2,47.8,55.9z"/>
			<path id="패스_38131" class="st5" d="M105.5,119.7l0.8,3.9c0.4,1.7,1.6,3,3.3,3.3l3.9,0.8c0.4,0.1,0.7,0.5,0.6,0.9
				c-0.1,0.3-0.3,0.5-0.6,0.6l-3.9,0.8c-1.7,0.4-3,1.6-3.3,3.3l-0.8,3.9c-0.1,0.4-0.5,0.7-0.9,0.6c-0.3-0.1-0.5-0.3-0.6-0.6
				l-0.8-3.9c-0.4-1.7-1.6-3-3.3-3.3l-3.9-0.8c-0.4-0.1-0.7-0.5-0.6-0.9c0.1-0.3,0.3-0.5,0.6-0.6l3.9-0.8c1.7-0.4,3-1.6,3.3-3.3
				l0.8-3.9c0.1-0.4,0.5-0.7,0.9-0.6C105.2,119.2,105.4,119.4,105.5,119.7"/>
			<path id="패스_38132" class="st6" d="M103.2,110.3l0.8,3.9c0.4,1.7,1.6,3,3.3,3.3l3.9,0.8c0.4,0.1,0.7,0.5,0.6,0.9
				c-0.1,0.3-0.3,0.5-0.6,0.6l-3.9,0.8c-1.7,0.4-3,1.6-3.3,3.3l-0.8,3.9c-0.1,0.4-0.5,0.7-0.9,0.6c-0.3-0.1-0.5-0.3-0.6-0.6
				l-0.8-3.9c-0.4-1.7-1.6-3-3.3-3.3l-3.9-0.8c-0.4-0.1-0.7-0.5-0.6-0.9c0.1-0.3,0.3-0.5,0.6-0.6l3.9-0.8c1.7-0.4,3-1.6,3.3-3.3
				l0.8-3.9c0.1-0.4,0.5-0.7,0.9-0.6C102.9,109.8,103.1,110,103.2,110.3z"/>
		</g>
	</g>
</g>
<g id="그룹_112622">
	<g id="구름" transform="translate(32.41 50.967)">
		<path id="패스_36362" class="st7" d="M394.5,99.1c4-6.3,6.2-13.6,6.2-21c0-27.9-30.6-50.4-68.4-50.4c-24.3,0-45.6,9.3-57.7,23.4
			c-11.1-11-28.9-18.1-48.9-18.1c-10.1-0.1-20.2,1.9-29.6,5.7c-10.7-10.2-26.2-17.6-44.4-20.3c-4.8-0.7-9.7-1.1-14.6-1.1
			c-41.3,0-74.7,24.7-74.7,55.1c0,0.9,0,1.8,0.1,2.6C45.8,83.6,35,97.8,35,114c0,26.4,29,47.8,64.8,47.8c3.1,0,6.3-0.2,9.4-0.5
			c7.9,14,26.6,23.9,48.5,23.9c18.9,0,35.5-7.4,44.7-18.5c10.4,3.5,21.4,5.2,32.4,5.2c17.5,0,33.7-4.2,46.7-11.4
			c8.9,9.9,24.2,16.5,41.6,16.5c24.4,0,44.8-13,49-30.1c3.3,0.8,6.8,1.1,10.2,1.1c18.9,0,34.3-11.3,34.3-25.3
			C416.6,111.9,407.4,102.7,394.5,99.1"/>
		<path id="패스_36363" class="st8" d="M394.5,99.1c4-6.3,6.2-13.6,6.2-21c0-27.9-30.6-50.4-68.4-50.4c-24.3,0-45.6,9.3-57.7,23.4
			c-11.1-11-28.9-18.1-48.9-18.1c-10.1-0.1-20.2,1.9-29.6,5.7c-13.7-13-35-21.4-59.1-21.4c-41.3,0-74.7,24.7-74.7,55.1
			c0,0.9,0,1.8,0.1,2.6C45.8,83.6,35,97.8,35,114c0,26.4,29,47.8,64.8,47.8c3.1,0,6.3-0.2,9.4-0.5c7.9,14,26.6,23.9,48.5,23.9
			c18.9,0,35.5-7.4,44.7-18.5c10.4,3.5,21.4,5.2,32.4,5.2c17.5,0,33.7-4.2,46.7-11.4c8.9,9.9,24.2,16.5,41.6,16.5
			c24.4,0,44.8-13,49-30.1c3.3,0.8,6.8,1.1,10.2,1.1c18.9,0,34.3-11.3,34.3-25.3C416.5,111.9,407.4,102.7,394.5,99.1z"/>
	</g>
	<path id="타임" class="st9" d="M244.1,168.2c65.5-6.3,121.2,4.7,124.3,24.7s-47.5,41.3-113,47.7c-65.5,6.3-121.2-4.7-124.3-24.7
		C128,195.9,178.6,174.6,244.1,168.2"/>
	<g id="아이콘" transform="translate(287.519 116.093)">
		<g id="그룹_109979" transform="translate(0 0)">
			<path id="패스_37084" class="st5" d="M37.4,70.5c-7.6,21.1,3.3,44.5,24.4,52.1s44.5-3.3,52.1-24.4s-3.3-44.5-24.4-52.1
				c0,0,0,0,0,0C68.4,38.4,45,49.4,37.4,70.5C37.4,70.5,37.4,70.5,37.4,70.5"/>
			<path id="패스_37085" class="st10" d="M37.4,70.5c-7.6,21.1,3.3,44.5,24.4,52.1s44.5-3.3,52.1-24.4s-3.3-44.5-24.4-52.1
				c0,0,0,0,0,0C68.4,38.4,45,49.4,37.4,70.5z"/>
			<path id="패스_37086" class="st11" d="M83.1,80.1c-1.1,3-1,5.8,0.2,6.2s3-1.7,4.1-4.7c1.1-3,1-5.8-0.2-6.2S84.2,77,83.1,80.1"
				/>
			<path id="패스_37088" class="st11" d="M68.3,74.7c-1.1,3-1,5.8,0.2,6.2s3-1.7,4.1-4.7c1.1-3,1-5.8-0.2-6.2
				C71.3,69.6,69.4,71.7,68.3,74.7"/>
			<path id="패스_37090" class="st12" d="M95.6,96.3c-9.8,9.9-25.8,9.9-35.6,0.1c-4.2-4.2-6.8-9.7-7.3-15.7"/>
			<path id="패스_37091" class="st12" d="M94.6,91.7c-0.6,1.2-0.2,3,1,4.6c1.2,1.5,3,2.3,4.2,2"/>
			<path id="패스_37092" class="st12" d="M56.4,77.9c-0.3,1.3-1.8,2.5-3.7,2.9c-1.9,0.4-3.8-0.1-4.5-1.2"/>
			<path id="패스_37093" class="st13" d="M67.9,87.4c-1.1,2.6,0.6,5.8,3.8,7.1s6.7,0.3,7.8-2.3c1.1-2.6-0.6-5.8-3.8-7.1
				C72.5,83.8,69,84.8,67.9,87.4"/>
			<g id="그룹_109980" transform="matrix(-0.891, -0.454, 0.454, -0.891, 108.56, 69.206)">
				<path id="패스_37094" class="st14" d="M0.2,5.7c0,0-5-2-4.2,2.5s-2.3,2.1-3.6,6.1"/>
				
					<pattern  id="이미지_973_00000007420295092945834810000012128086340731199647_" xlink:href="#pattern" patternTransform="matrix(-0.9925 -0.1219 0.1219 -0.9925 -14425.4277 -17625.123)">
				</pattern>
				<polygon id="이미지_973" style="fill:url(#이미지_973_00000007420295092945834810000012128086340731199647_);" points="
					-38.9,14 -2.1,0.6 11.9,38.9 -25,52.3 				"/>
			</g>
		</g>
	</g>
	<g id="별" transform="translate(264.558 50.967) rotate(25)">
		<path id="패스_36382" class="st16" d="M57.2,2l5.9,8.7l10.3-1.9c1.5-0.3,2.9,0.7,3.1,2.2c0.1,0.8-0.1,1.5-0.5,2.1l-6.4,8.3
			l5,9.2c0.7,1.3,0.2,2.9-1.1,3.6c-0.7,0.4-1.5,0.4-2.2,0.2l-9.9-3.6l-7.3,7.6c-1,1.1-2.7,1.1-3.8,0.1c-0.6-0.5-0.9-1.3-0.8-2
			L49.9,26l-9.4-4.6c-1.3-0.6-1.9-2.2-1.3-3.6c0.3-0.7,0.9-1.2,1.7-1.4L51,13.5l1.4-10.4c0.2-1.5,1.6-2.5,3-2.3
			C56.1,0.9,56.8,1.3,57.2,2"/>
		<path id="패스_36383" class="st8" d="M57.2,2l5.9,8.7l10.3-1.9c1.5-0.3,2.9,0.7,3.1,2.2c0.1,0.8-0.1,1.5-0.5,2.1l-6.4,8.3l5,9.2
			c0.7,1.3,0.2,2.9-1.1,3.6c-0.7,0.4-1.5,0.4-2.2,0.2l-9.9-3.6l-7.3,7.6c-1,1.1-2.7,1.1-3.8,0.1c-0.6-0.5-0.9-1.3-0.8-2L49.9,26
			l-9.4-4.6c-1.3-0.6-1.9-2.2-1.3-3.6c0.3-0.7,0.9-1.2,1.7-1.4L51,13.5l1.4-10.4c0.2-1.5,1.6-2.5,3-2.3C56.1,0.9,56.8,1.3,57.2,2z"
			/>
	</g>
</g>
<g id="별-2" transform="translate(16.551 130.977)">
	<path id="패스_36382-2" class="st16" d="M56.2,18.6L63,28.6l12-2.2c1.7-0.3,3.3,0.8,3.6,2.5c0.2,0.9-0.1,1.8-0.6,2.5L70.5,41
		l5.8,10.7c0.8,1.5,0.2,3.4-1.3,4.2c-0.8,0.4-1.7,0.5-2.5,0.2L61.1,52l-8.4,8.8c-1.2,1.2-3.2,1.3-4.4,0.1c-0.6-0.6-1-1.5-1-2.4
		l0.4-12.2l-11-5.3c-1.5-0.7-2.2-2.6-1.5-4.2c0.4-0.8,1.1-1.4,1.9-1.6l11.7-3.4l1.6-12.1c0.2-1.7,1.8-2.9,3.5-2.7
		C54.9,17.3,55.7,17.8,56.2,18.6"/>
	<path id="패스_36383-2" class="st8" d="M56.2,18.6L63,28.6l12-2.2c1.7-0.3,3.3,0.8,3.6,2.5c0.2,0.9-0.1,1.8-0.6,2.5L70.5,41
		l5.8,10.7c0.8,1.5,0.2,3.4-1.3,4.2c-0.8,0.4-1.7,0.5-2.5,0.2L61.1,52l-8.4,8.8c-1.2,1.2-3.2,1.3-4.4,0.1c-0.6-0.6-1-1.5-1-2.4
		l0.4-12.2l-11-5.3c-1.5-0.7-2.2-2.6-1.5-4.2c0.4-0.8,1.1-1.4,1.9-1.6l11.7-3.4l1.6-12.1c0.2-1.7,1.8-2.9,3.5-2.7
		C54.9,17.3,55.7,17.8,56.2,18.6z"/>
</g>
<g class="st17">
	<path d="M187.9,150.2v7h-38v-7h15.2V145c-8.4-1.1-13.8-5.6-13.8-11.9c0-7.1,7.1-12.1,17.6-12.1s17.6,5,17.6,12.1
		c0,6.2-5.4,10.8-13.8,11.9v5.3H187.9z M168.9,138.5c5.7,0,9.7-2.2,9.7-5.4c0-3.3-4-5.4-9.7-5.4s-9.7,2.2-9.7,5.4
		C159.3,136.3,163.2,138.5,168.9,138.5z"/>
	<path d="M229.2,140.8h-38v-5.4h38V140.8z M227,152.4h-26.3v1.4h26.7v4.7h-34v-10.1h26.3v-1.4h-26.4v-4.7H227V152.4z M200.8,128.3
		h26.5v5.5h-33.9v-13.1h7.4V128.3z"/>
	<path d="M256.1,142.8h-22.9v-21.4h22.9V142.8z M242.1,151.8h26.1v6.7h-33.7v-13.2h7.6V151.8z M248.8,127.7h-8.2v8.8h8.2V127.7z
		 M272.1,128.4v7.2h-4.4v13.1h-7.4v-27.8h7.4v7.5H272.1z"/>
	<path d="M322.8,140.3v5.7h-38v-5.7H322.8z M286.8,147.7h33.8V159h-7.5v-5.6h-26.3V147.7z M321,138.7h-33.8v-17.7h33.4v4.9h-26.1
		v1.8h25.4v4.4h-25.4v1.8H321V138.7z"/>
	<path d="M327.1,121.8h21.3V132c0,15.3-8.2,24.8-21.3,24.8v-7c9-0.1,13.7-6.7,13.7-17.7v-3.4h-13.7V121.8z M365.7,141.9h-4.4v16.6
		h-7.4v-37.6h7.4v13.7h4.4V141.9z"/>
</g>
<g class="st17">
	<path d="M187.9,150.2v7h-38v-7h15.2V145c-8.4-1.1-13.8-5.6-13.8-11.9c0-7.1,7.1-12.1,17.6-12.1s17.6,5,17.6,12.1
		c0,6.2-5.4,10.8-13.8,11.9v5.3H187.9z M168.9,138.5c5.7,0,9.7-2.2,9.7-5.4c0-3.3-4-5.4-9.7-5.4s-9.7,2.2-9.7,5.4
		C159.3,136.3,163.2,138.5,168.9,138.5z"/>
	<path d="M229.2,140.8h-38v-5.4h38V140.8z M227,152.4h-26.3v1.4h26.7v4.7h-34v-10.1h26.3v-1.4h-26.4v-4.7H227V152.4z M200.8,128.3
		h26.5v5.5h-33.9v-13.1h7.4V128.3z"/>
	<path d="M256.1,142.8h-22.9v-21.4h22.9V142.8z M242.1,151.8h26.1v6.7h-33.7v-13.2h7.6V151.8z M248.8,127.7h-8.2v8.8h8.2V127.7z
		 M272.1,128.4v7.2h-4.4v13.1h-7.4v-27.8h7.4v7.5H272.1z"/>
	<path d="M322.8,140.3v5.7h-38v-5.7H322.8z M286.8,147.7h33.8V159h-7.5v-5.6h-26.3V147.7z M321,138.7h-33.8v-17.7h33.4v4.9h-26.1
		v1.8h25.4v4.4h-25.4v1.8H321V138.7z"/>
	<path d="M327.1,121.8h21.3V132c0,15.3-8.2,24.8-21.3,24.8v-7c9-0.1,13.7-6.7,13.7-17.7v-3.4h-13.7V121.8z M365.7,141.9h-4.4v16.6
		h-7.4v-37.6h7.4v13.7h4.4V141.9z"/>
</g>
<g class="st17">
	<path class="st5" d="M185.4,147.4v7h-38v-7h15.2v-5.3c-8.4-1.1-13.8-5.6-13.8-11.9c0-7.1,7.1-12.1,17.6-12.1s17.6,5,17.6,12.1
		c0,6.2-5.4,10.8-13.8,11.9v5.3H185.4z M166.4,135.7c5.7,0,9.7-2.2,9.7-5.4c0-3.3-4-5.4-9.7-5.4s-9.7,2.2-9.7,5.4
		C156.7,133.5,160.7,135.7,166.4,135.7z"/>
	<path class="st5" d="M226.6,138h-38v-5.4h38V138z M224.4,149.6h-26.3v1.4h26.7v4.7h-34v-10.1h26.3v-1.4h-26.4v-4.7h33.7V149.6z
		 M198.3,125.5h26.5v5.5h-33.9v-13.1h7.4V125.5z"/>
	<path class="st5" d="M253.6,140h-22.9v-21.4h22.9V140z M239.5,149h26.1v6.7h-33.7v-13.2h7.6V149z M246.3,124.9H238v8.8h8.2V124.9z
		 M269.5,125.6v7.2h-4.4v13.1h-7.4v-27.8h7.4v7.5H269.5z"/>
	<path class="st5" d="M320.3,137.5v5.7h-38v-5.7H320.3z M284.3,144.9h33.8v11.3h-7.5v-5.6h-26.3V144.9z M318.5,135.9h-33.8v-17.7
		H318v4.9H292v1.8h25.4v4.4H292v1.8h26.5V135.9z"/>
	<path class="st5" d="M324.6,119h21.3v10.2c0,15.3-8.2,24.8-21.3,24.8v-7c9-0.1,13.7-6.7,13.7-17.7v-3.4h-13.7V119z M363.2,139.1
		h-4.4v16.6h-7.4v-37.6h7.4v13.7h4.4V139.1z"/>
</g>
<g class="st17">
	<path class="st18" d="M185.4,147.4v7h-38v-7h15.2v-5.3c-8.4-1.1-13.8-5.6-13.8-11.9c0-7.1,7.1-12.1,17.6-12.1s17.6,5,17.6,12.1
		c0,6.2-5.4,10.8-13.8,11.9v5.3H185.4z M166.4,135.7c5.7,0,9.7-2.2,9.7-5.4c0-3.3-4-5.4-9.7-5.4s-9.7,2.2-9.7,5.4
		C156.7,133.5,160.7,135.7,166.4,135.7z"/>
	<path class="st18" d="M226.6,138h-38v-5.4h38V138z M224.4,149.6h-26.3v1.4h26.7v4.7h-34v-10.1h26.3v-1.4h-26.4v-4.7h33.7V149.6z
		 M198.3,125.5h26.5v5.5h-33.9v-13.1h7.4V125.5z"/>
	<path class="st18" d="M253.6,140h-22.9v-21.4h22.9V140z M239.5,149h26.1v6.7h-33.7v-13.2h7.6V149z M246.3,124.9H238v8.8h8.2V124.9z
		 M269.5,125.6v7.2h-4.4v13.1h-7.4v-27.8h7.4v7.5H269.5z"/>
	<path class="st18" d="M320.3,137.5v5.7h-38v-5.7H320.3z M284.3,144.9h33.8v11.3h-7.5v-5.6h-26.3V144.9z M318.5,135.9h-33.8v-17.7
		H318v4.9H292v1.8h25.4v4.4H292v1.8h26.5V135.9z"/>
	<path class="st18" d="M324.6,119h21.3v10.2c0,15.3-8.2,24.8-21.3,24.8v-7c9-0.1,13.7-6.7,13.7-17.7v-3.4h-13.7V119z M363.2,139.1
		h-4.4v16.6h-7.4v-37.6h7.4v13.7h4.4V139.1z"/>
</g>
</svg>
