<?xml version="1.0" encoding="utf-8"?>
<!-- Generator: Adobe Illustrator 26.1.0, SVG Export Plug-In . SVG Version: 6.00 Build 0)  -->
<svg version="1.1" xmlns="http://www.w3.org/2000/svg" xmlns:xlink="http://www.w3.org/1999/xlink" x="0px" y="0px" viewBox="0 0 434 193" style="enable-background:new 0 0 434 193;" xml:space="preserve">
<style type="text/css">
.st0{fill:#FD7CBB;stroke:#080D4B;stroke-width:2;stroke-linecap:round;stroke-linejoin:round;stroke-miterlimit:10;}
.st1{clip-path:url(#SVGID_00000030467178930581294840000003976593932371836089_);}
.st2{fill:#080D4B;}
.st3{fill:none;stroke:#080D4B;stroke-width:3;stroke-linecap:round;stroke-linejoin:round;}
.st4{fill:#FD7CBB;}
.st5{fill:none;stroke:#080D4B;stroke-width:2;stroke-linecap:round;stroke-linejoin:round;}
.st6{fill:#2ECFFF;}
.st7{fill:none;stroke:#000000;stroke-width:3;stroke-linecap:round;stroke-linejoin:round;}
.st8{enable-background:new    ;}
.st9{stroke:#000000;stroke-width:0.5;stroke-miterlimit:10;}
.st10{fill:#FFFFFF;stroke:#000000;stroke-width:0.5;stroke-miterlimit:10;}
.st11{stroke:#000000;stroke-miterlimit:10;}
.st12{fill:#2FF483;stroke:#000000;stroke-width:3;}
.st13{fill:#FEEB00;}
.st14{fill:none;stroke:#000000;stroke-width:2;stroke-linecap:round;stroke-linejoin:round;}
	
.clap {animation:clap both infinite 2s;}
.c2 {animation-delay:0.6s;}
.c3 {animation-delay:0.4s;}

@keyframes clap {
0% {opacity:0;}
30% {opacity:1;}
60% {opacity:1;}
100% {opacity:0;}
}

#clap_h1 {animation:clap_h1 both infinite 0.9s;transform-origin: 52% 70%;}
@keyframes clap_h1 {
0% {transform:translate(0,0) scale(1);}
25% {transform:translate(0,0) scale(0.94);}
50% {transform:translate(0,0) scale(1);}
75% {transform:translate(0,0) scale(0.94);}
100% {transform:translate(0,0) scale(1);}
}

#clap_h2 {animation:clap_h2 both infinite 0.9s;transform-origin: 5% 70%}
@keyframes clap_h2 {
0% {transform:translate(0,0) scale(1);}
25% {transform:translate(0,0) scale(1.03);}
50% {transform:translate(0,0) scale(1);}
75% {transform:translate(0,0) scale(1.03);}
100% {transform:translate(0,0) scale(1);}
}

#arrow {animation:arrow both linear infinite 1s;transform-origin:17.2% 42%;}
@keyframes arrow {
0% {transform:translate(0,0);}
50% {transform:translate(2%,2%);}
100% {transform:translate(0,0);}
}

#balloon {animation:balloon both linear infinite 3s;transform-origin:70% 29%;}
@keyframes balloon {
0% {transform:translate(0,0);}
10% {transform:translate(0%,2%);}
20% {transform:translate(0,0);}
30% {transform:translate(0,0);}
40% {transform:translate(0%,2%);}
50% {transform:translate(0,0);}
100% {transform:translate(0,0);}
}
	
.bg {animation:clap both infinite 2s;}
.bg.bg2 {animation-delay:0.4s;}
.bg.bg3 {animation-delay:0.2s;}
.bg.bg4 {animation-delay:0.4s;}
</style>
	
<g id="bg2">
	<path id="Path_38177" class="st0 bg bg1" d="M386.1,63.8l4.5-16.7l6.5,5.9l-6.6,11.1L386.1,63.8z"/>
	<path id="Path_38179" class="st0 bg bg2" d="M397,66.3l12.9-9l1.1,7.4l-12.2,5.1L397,66.3z"/>
	<path id="Path_38177-2" class="st0 bg bg3" d="M68.5,175.3l-10.9,13.4l-3.6-8l10.6-7.4L68.5,175.3z"/>
	<path id="Path_38179-2" class="st0 bg bg4" d="M59.5,168.7l-15.4,3l2-7.2l13.2,0.3L59.5,168.7z"/>
</g>
<g id="bg">
	<g id="Group_109508" transform="translate(119.66 277.348)">
		<g>
			<g>
				<g>
					<g>
						<defs>
							<rect id="SVGID_1_" x="-50" y="-214" width="318" height="118.3"/>
						</defs>
						<clipPath id="SVGID_00000168799500469885094000000010888264676236540327_">
							<use xlink:href="#SVGID_1_"  style="overflow:visible;"/>
						</clipPath>
						
							<g id="Mask_Group_1215" transform="translate(0 0)" style="clip-path:url(#SVGID_00000168799500469885094000000010888264676236540327_);">
							<path id="Path_36413" class="st2" d="M109.5-97.4c-54.8,0-107.3-5-147.8-14.1l-8.9-2v-79.2l8.9-2
								c40.5-9.1,93-14.1,147.8-14.1s107.3,5,147.8,14.1l8.9,2v79.1l-8.9,2C216.9-102.5,164.4-97.4,109.5-97.4"/>
							<path id="Path_36414" class="st3" d="M109.5-97.4c-54.8,0-107.3-5-147.8-14.1l-8.9-2v-79.2l8.9-2
								c40.5-9.1,93-14.1,147.8-14.1s107.3,5,147.8,14.1l8.9,2v79.1l-8.9,2C216.9-102.5,164.4-97.4,109.5-97.4z"/>
							<path id="Path_36415" class="st4" d="M109.5-100.9c-54.8,0-107.3-5-147.8-14.1l-8.9-2v-79.1l8.9-2
								c40.5-9.1,93-14.2,147.8-14.2s107.3,5,147.8,14.1l8.9,2v79.1l-8.9,2C216.9-105.9,164.4-100.9,109.5-100.9"/>
							<path id="Path_36416" class="st5" d="M109.5-100.9c-54.8,0-107.3-5-147.8-14.1l-8.9-2v-79.1l8.9-2
								c40.5-9.1,93-14.2,147.8-14.2s107.3,5,147.8,14.1l8.9,2v79.1l-8.9,2C216.9-105.9,164.4-100.9,109.5-100.9z"/>
							<path id="Path_36417" class="st6" d="M109.5-200.8c-56.1,0-107.1,5.2-145.3,13.8v60.8c38.2,8.6,89.2,13.9,145.3,13.9
								s107.1-5.3,145.3-13.9V-187C216.6-195.6,165.6-200.8,109.5-200.8"/>
							<path id="Path_36418" class="st7" d="M109.5-200.8c-56.1,0-107.1,5.2-145.3,13.8v60.8c38.2,8.6,89.2,13.9,145.3,13.9
								s107.1-5.3,145.3-13.9V-187C216.6-195.6,165.6-200.8,109.5-200.8z"/>
						</g>
					</g>
				</g>
			</g>
		</g>
	</g>
	<g class="st8">
		<path d="M123.2,123c-5.4,0-8.7-3.6-8.7-9.9s3.4-9.9,8.7-9.9c5.3,0,8.7,3.5,8.7,9.9C132,119.4,128.6,123,123.2,123z M150.5,131.8
			c0,5.7-7.4,7.7-16.6,7.7s-16.6-2-16.6-7.7s7.4-7.7,16.6-7.7S150.5,126.2,150.5,131.8z M123.2,117.3c1.5,0,2.2-1.5,2.2-4.2
			c0-2.8-0.7-4.2-2.2-4.2s-2.2,1.4-2.2,4.2S121.8,117.3,123.2,117.3z M142.9,131.8c0-1.6-4.1-2.1-9.1-2.1s-9.1,0.5-9.1,2.1
			s4.1,2.1,9.1,2.1S142.9,133.4,142.9,131.8z M140.5,122.9h-6.6v-19.5h6.6v6.1h3v-6.3h6.6v20.9h-6.6v-8h-3V122.9z"/>
		<path d="M190.1,117.3v5.1h-36.3v-5.1h12v-2.2H156v-5h24.9v-1.8H156v-5.1h32V116h-7.1v-0.9H173v2.2
			C173,117.3,190.1,117.3,190.1,117.3z M162.9,134.7h25.5v4.4H156v-9.5h25.1v-1.3h-25.2V124H188v9.4h-25.1V134.7z"/>
		<path d="M305.1,121.7v5.4h-36.3v-5.4H305.1z M270.8,128.8H303v10.8h-7.2v-5.3h-25.1v-5.5H270.8z M303.4,120.2h-32.3v-16.9H303v4.7
			h-24.9v1.7h24.3v4.2h-24.3v1.7h25.3V120.2z"/>
		<path d="M309.3,104.1h20.3v9.7c0,14.6-7.9,23.7-20.3,23.7v-6.7c8.6-0.1,13.1-6.4,13.1-16.9v-3.2h-13.1V104.1z M346.2,123.2H342
			v15.9h-7.1v-35.9h7.1v13.1h4.2V123.2z"/>
	</g>
</g>
<g id="h2_00000001656458723641112240000011977285140848089261_">
	<g id="h3">
		<g id="clap_h1">
			<g>
				<path class="st9" d="M208.7,101.2c0,0-0.9-3.7,3.1-4.6c0,0,1.7-1,4,0.8c0,0,6.8,4.1,13.5,14.8c0,0,0.4-3.5,2.9-5.1
					c0,0,1.9-1.6,3.2-0.3c0,0,0.8,1.5,1.4,2.5c0,0,5.9,8.3,8,12.7c0,0,3.1,3.8,3.1,11.3c0,0,0.4,7.2-1.9,12.3s-0.3,0-0.3,0
					s-5.5,12.1-17.1,12.3c0,0-8.8,0.1-15.8-6.3c0,0-13.9-17.3-15.9-26c0,0-1.1-5.6,2.1-5.9c0,0,1.1-0.4,1.9,0c0,0-4.1-4.3-4.2-6.2
					c0,0-1.4-5.5,2.5-6.3c0,0,0.6-0.4,2.2,0.6c0,0-2.1-2.4-1.2-5.4c0,0,0.1-2.4,3.8-2.8C204.1,99.5,206.9,98.9,208.7,101.2z"/>
				<path class="st10" d="M234.8,109.3c0,0,1.7,3.5,3.4,5.3c0,0,7.3,9.3,7.9,20.2c0,0,1,13.2-11.3,19c0,0-11,5.2-19.5-3
					c0,0-13.6-16-16.3-24.3c0,0-1.4-4.3,1-5.3c0,0,1.4-0.7,2.5,0.3s9,13.4,9,13.4s0.9,0.9,1.6,0.2s-1-3.1-3.2-6.4
					c0,0-7.3-10.2-10.6-13.7c0,0-2-3.9,0.1-5.6c0,0,1-1.1,3.6,0.8c0,0,3.5,2.4,14.1,17.2c0,0,1.8,1,1.1-1.3c0,0-6.3-10.6-15.1-18.5
					c0,0-2-1.6-1.4-4.5c0,0,0.6-2.1,3.5-1.8c0,0,0.6-0.9,6.6,5.3c0,0,6.7,7.5,12.1,16.8c0,0,1.3,0.7,1.6-0.7c0,0,0.5-0.7-2.5-5.1
					s-7.4-11-11.6-14.5c0,0-2.2-2.6-0.5-4c0,0,1.3-1.3,2.9-0.9c0,0,2.5,0.5,8.7,7.9c0,0,10.4,13.9,13.5,21.4c0,0,1.9,2.2,2,0.2
					c0,0-2.6-6.5-5.4-10.2c0,0-2.3-4.2-0.5-7C232,110.4,233.5,107.2,234.8,109.3z"/>
			</g>
		</g>
	</g>
</g>
<g id="h1">
	<g id="h2">
		<g id="clap_h2">
			<g>
				<path class="st11" d="M217.4,97.8c0,0-0.9-3.9,3.2-4.7c0,0,1.7-1,4.1,0.9c0,0,7,4.3,13.9,15.4c0,0,0.4-3.6,3-5.3
					c0,0,1.9-1.7,3.3-0.3c0,0,0.8,1.6,1.5,2.6c0,0,6.1,8.7,8.2,13.2c0,0,3.1,4,3.2,11.8c0,0,0.4,7.5-2,12.8c-3,5.1,0,0,0,0
					s-5.9,12.6-17.8,12.8c0,0-9.1,0.1-16.2-6.6c0,0-14.2-18-16.3-27.1c0,0-1.1-5.9,2.1-6.1c0,0,1.1-0.4,1.9,0c0,0-4.2-4.5-4.3-6.5
					c0,0-1.4-5.7,2.5-6.5c0,0,0.7-0.4,2.3,0.6c0,0-2.2-2.5-1.2-5.6c0,0,0.1-2.5,3.9-2.9C212.7,96,215.5,95.4,217.4,97.8z"/>
				<path class="st10" d="M244.1,106.3c0,0,1.7,3.6,3.5,5.5c0,0,7.4,9.7,8.1,21c0,0,1.1,13.7-11.6,19.8c0,0-11.3,5.5-20-3.1
					c0,0-13.9-16.6-16.6-25.3c0,0-1.5-4.5,1.1-5.5c0,0,1.4-0.7,2.5,0.3c1.1,1.1,9.2,13.9,9.2,13.9s0.9,0.9,1.6,0.2s-1-3.2-3.3-6.7
					c0,0-7.5-10.6-10.9-14.2c0,0-2-4.1,0.1-5.9c0,0,1.1-1.1,3.7,0.8c0,0,3.5,2.5,14.5,17.9c0,0,1.8,1.1,1.1-1.4
					c0,0-6.5-11-15.5-19.2c0,0-2-1.7-1.5-4.7c0,0,0.6-2.2,3.6-1.9c0,0,0.6-0.9,6.7,5.5c0,0,6.9,7.8,12.4,17.4c0,0,1.3,0.7,1.6-0.7
					c0,0,0.5-0.7-2.6-5.3s-7.6-11.5-11.9-15.1c0,0-2.3-2.7-0.5-4.2c0,0,1.3-1.4,3-0.9c0,0,2.6,0.5,8.9,8.2c0,0,10.7,14.5,13.8,22.2
					c0,0,1.9,2.3,2.1,0.2c0,0-2.7-6.7-5.5-10.6c0,0-2.4-4.4-0.5-7.3C241.2,107.3,242.7,104.1,244.1,106.3z"/>
			</g>
		</g>
	</g>
</g>
<g id="clap">
	<path class="clap c1" d="M237.7,93.3l1.6-9.4c0,0-0.2-1.8,1.7-1.4c0,0,3.4,0.6,5.9,4.3c0,0,0.3,0.6-0.7,1.4s-7.9,5.6-7.9,5.6S237.5,94.2,237.7,93.3
		z"/>
	<path class="clap c2" d="M241.9,97.2l5.8-5.2c0,0,0.8-1.2,1.7-0.1c0,0,1.8,2,1.4,5.5c0,0-0.1,0.5-1.1,0.5s-7.7-0.2-7.7-0.2S241.4,97.7,241.9,97.2z"
		/>
	<path class="clap c3" d="M232.7,93.3l-4.6-5.7c0,0-1.1-0.8,0.1-1.7c0,0,2.1-1.7,5.6-1.3c0,0,0.5,0.1,0.4,1.1s-0.9,7.4-0.9,7.4
		S233.1,93.8,232.7,93.3z"/>
</g>
<g id="arrow">
	<path id="화살표" class="st12" d="M57.1,59.7L46.8,76.1l24.9,15.6l-5.5,8.8l33.3-2.8L87.6,66.5l-5.5,8.8L57.1,59.7z"/>
</g>
<g id="balloon">
	<g>
		<path id="Path_36386" class="st13" d="M355.4,60.7L277.8,89c-4.2,1.5-8.8-0.7-10.3-4.8l-14.4-38.6c-1.5-4.2,0.7-8.8,4.8-10.3
			L335.5,7c4.2-1.5,8.8,0.7,10.3,4.8l14.4,38.6C361.8,54.6,359.6,59.2,355.4,60.7"/>
		<path id="Path_36387" class="st14" d="M354.4,60.7L277.8,89c-4.2,1.5-8.8-0.7-10.3-4.8l-14.4-38.6c-1.5-4.2,0.7-8.8,4.8-10.3
			L334.5,7c4.2-1.5,8.8,0.7,10.3,4.8l14.4,38.6C360.8,54.6,358.6,59.2,354.4,60.7z"/>
		<path id="Path_36409" class="st13" d="M291.7,78.9l-3.3,17.4c-0.3,1.6,2.1,2.7,2.9,1.4l15.3-23.1"/>
		<path id="Path_36410" class="st14" d="M291.7,78.9l-3.3,17.4c-0.3,1.6,2.1,2.7,2.9,1.4l15.3-23.1"/>
		<g class="st8">
			<path d="M292.9,43.7c1.3,3.7,0.5,5.9-1.6,6.6c-2.1,0.8-4.1-0.4-5.5-4.1c-1.3-3.7-0.5-5.9,1.6-6.6C289.6,38.8,291.6,40,292.9,43.7
				z M288.1,45.4c0.9,2.5,1.8,3.1,2.6,2.8c0.7-0.3,1-1.3,0.1-3.8c-0.9-2.5-1.8-3.1-2.5-2.8C287.5,41.9,287.2,42.9,288.1,45.4z
				 M298.5,48.1l-2.2,0.8l-4.1-11.2l2.2-0.8L298.5,48.1z"/>
			<path d="M305.8,40.3l-6.9,2.5l-2.4-6.6l2.2-0.8l0.5,1.4l2.5-0.9l-0.5-1.4l2.2-0.8l0.8,2.2l1.5-0.6l-0.8-2.3l2.2-0.8l3,8.3
				l-2.2,0.8l-1.4-3.8l-1.5,0.6L305.8,40.3z M310.6,41.5l0.7,2l-10.2,3.7l-1.4-3.9l2.3-0.8l0.7,1.9L310.6,41.5z M303,39.3l-0.5-1.5
				l-2.5,0.9l0.5,1.5L303,39.3z"/>
			<path d="M318.2,34.4c1.3,3.7,0.5,5.9-1.6,6.6c-2.1,0.8-4.1-0.4-5.5-4.1c-1.3-3.7-0.5-5.9,1.6-6.6
				C314.9,29.6,316.9,30.7,318.2,34.4z M313.4,36.2c0.9,2.5,1.8,3.1,2.5,2.8c0.7-0.3,1-1.3,0.1-3.8s-1.8-3.1-2.5-2.8
				C312.8,32.7,312.5,33.7,313.4,36.2z M323.8,38.9l-2.2,0.8l-4.1-11.2l2.2-0.8L323.8,38.9z"/>
		</g>
		<g class="st8">
			<path d="M276.2,63l6.5-2.4l3.8,10.5l-6.5,2.4L276.2,63z M281.4,70.6l2.1-0.8l-2.3-6.3l-2.1,0.8L281.4,70.6z M289.8,64.8l-1.3,0.5
				l1.8,5l-2.2,0.8L284,59.9l2.2-0.8l1.5,4.1l1.3-0.5L289.8,64.8z"/>
			<path d="M295.2,61.5l4.8,3l-1.3,2l-3.4-2.3c-0.2,2.3-1.2,4-2.9,4.6l-0.8-2.2c1.6-0.8,1.8-3.6,0.6-7.2l-2.5,0.9l-0.7-2l7.2-2.6
				l0.7,2l-2.4,0.9C294.8,59.7,295.1,60.6,295.2,61.5z M299.2,54.3l4.1,11.2l-2.2,0.8L297,55.1L299.2,54.3z"/>
			<path d="M310.4,57.3l-6.9,2.5l-2.2-6.1l6.9-2.5L310.4,57.3z M304.2,60.5l10-3.6l1.6,4.3l-2.3,0.8l-0.9-2.4l-7.7,2.8L304.2,60.5z
				 M306.6,53.8l-2.5,0.9l0.9,2.4l2.5-0.9L306.6,53.8z M314.4,53.5l-1.3,0.5l0.9,2.5l-2.2,0.8l-2.4-6.7l2.2-0.8l0.7,2.1l1.3-0.5
				L314.4,53.5z"/>
			<path d="M325.5,48.5c1.7,4.6,0.2,8.3-3.8,9.8l-0.8-2.1c2.7-1,3.5-3.6,2.3-6.8l-0.4-1l-4.2,1.5l-0.7-2l6.5-2.4L325.5,48.5z
				 M332.3,55l-2.2,0.8L326,44.6l2.2-0.8L332.3,55z"/>
			<path d="M338.8,43.2l-7.7,2.8l-0.7-1.9l2.7-1l-0.4-1.1l2.3-0.8l0.4,1.1l2.7-1L338.8,43.2z M338.3,50c1-0.4,2.2-0.9,2.7-1.5l0.7,2
				c-0.6,0.6-1.7,1.1-2.8,1.5l-5.1,1.8l-0.7-2l2.8-1l-0.3-0.9c-1.5,0.2-2.7-0.2-3.1-1.4c-0.6-1.5,0.6-2.9,2.6-3.6
				c2-0.7,3.7-0.4,4.3,1.1c0.5,1.2-0.2,2.3-1.5,3.1L338.3,50L338.3,50z M336.1,47.8c0.8-0.3,1.3-0.7,1.1-1.1
				c-0.1-0.4-0.8-0.4-1.6-0.1c-0.8,0.3-1.3,0.7-1.1,1.1C334.7,48.1,335.3,48.1,336.1,47.8z M340.9,39.1l4.1,11.2l-2.2,0.8l-4.1-11.2
				L340.9,39.1z"/>
		</g>
	</g>
</g>
</svg>
