<svg xmlns="http://www.w3.org/2000/svg" xmlns:xlink="http://www.w3.org/1999/xlink" width="487" height="134" viewBox="0 0 487 134">
  <defs>
    <clipPath id="clip-path">
      <rect id="사각형_22431" data-name="사각형 22431" width="469.545" height="91.868" fill="#fe4847" stroke="#000" stroke-width="1"/>
    </clipPath>
    <clipPath id="clip-path-2">
      <rect id="사각형_22430" data-name="사각형 22430" width="637.969" height="1398.428" transform="translate(0 0)" fill="#fff"/>
    </clipPath>
  </defs>
  <g id="그룹_116366" data-name="그룹 116366" transform="translate(15347 -7581)">
    <rect id="사각형_22432" data-name="사각형 22432" width="487" height="134" transform="translate(-15347 7581)" fill="none"/>
    <g id="그룹_116364" data-name="그룹 116364" transform="translate(-15339.345 7583.138)">
      <path id="합치기_192" data-name="합치기 192" d="M0,0H471.246V93.569H0Z" transform="translate(0 21.752)" fill="#fe4847" stroke="#fff" stroke-width="12"/>
      <g id="그룹_116297" data-name="그룹 116297" transform="translate(0.851 0)">
        <g id="사각형_22362" data-name="사각형 22362" transform="translate(0 22.53)" fill="#fe4847" stroke="#000" stroke-width="3">
          <rect width="469.545" height="91.868" stroke="none"/>
          <rect x="-1.5" y="-1.5" width="472.545" height="94.868" fill="none"/>
        </g>
        <g id="마스크_그룹_112052" data-name="마스크 그룹 112052" transform="translate(0 22.602)" opacity="0.5" clip-path="url(#clip-path)">
          <g id="마스크_그룹_112051" data-name="마스크 그룹 112051" transform="translate(-83.361 -653.28)" opacity="0.7" clip-path="url(#clip-path-2)">
            <g id="line" transform="translate(0 -289.213)">
              <g id="line_horizontal" transform="translate(0 34.025)">
                <rect id="사각형_22363" data-name="사각형 22363" width="637.969" height="1.701" fill="#fff"/>
                <rect id="사각형_22364" data-name="사각형 22364" width="637.969" height="1.701" transform="translate(0 428.715)" fill="#fff"/>
                <rect id="사각형_22365" data-name="사각형 22365" width="637.969" height="1.701" transform="translate(0 1071.788)" fill="#fff"/>
                <rect id="사각형_22366" data-name="사각형 22366" width="637.969" height="1.701" transform="translate(0 1714.86)" fill="#fff"/>
                <rect id="사각형_22367" data-name="사각형 22367" width="637.969" height="1.701" transform="translate(0 214.358)" fill="#fff"/>
                <rect id="사각형_22368" data-name="사각형 22368" width="637.969" height="1.701" transform="translate(0 857.43)" fill="#fff"/>
                <rect id="사각형_22369" data-name="사각형 22369" width="637.969" height="1.701" transform="translate(0 1500.503)" fill="#fff"/>
                <rect id="사각형_22370" data-name="사각형 22370" width="637.969" height="1.701" transform="translate(0 643.073)" fill="#fff"/>
                <rect id="사각형_22371" data-name="사각형 22371" width="637.969" height="1.701" transform="translate(0 1286.145)" fill="#fff"/>
                <rect id="사각형_22372" data-name="사각형 22372" width="637.969" height="1.701" transform="translate(0 107.179)" fill="#fff"/>
                <rect id="사각형_22373" data-name="사각형 22373" width="637.969" height="1.701" transform="translate(0 750.251)" fill="#fff"/>
                <rect id="사각형_22374" data-name="사각형 22374" width="637.969" height="1.701" transform="translate(0 1393.324)" fill="#fff"/>
                <rect id="사각형_22375" data-name="사각형 22375" width="637.969" height="1.701" transform="translate(0 535.894)" fill="#fff"/>
                <rect id="사각형_22376" data-name="사각형 22376" width="637.969" height="1.701" transform="translate(0 1178.967)" fill="#fff"/>
                <rect id="사각형_22377" data-name="사각형 22377" width="637.969" height="1.701" transform="translate(0 321.536)" fill="#fff"/>
                <rect id="사각형_22378" data-name="사각형 22378" width="637.969" height="1.701" transform="translate(0 964.609)" fill="#fff"/>
                <rect id="사각형_22379" data-name="사각형 22379" width="637.969" height="1.701" transform="translate(0 1607.682)" fill="#fff"/>
                <rect id="사각형_22380" data-name="사각형 22380" width="637.969" height="1.701" transform="translate(0 35.726)" fill="#fff"/>
                <rect id="사각형_22381" data-name="사각형 22381" width="637.969" height="1.701" transform="translate(0 464.441)" fill="#fff"/>
                <rect id="사각형_22382" data-name="사각형 22382" width="637.969" height="1.701" transform="translate(0 1107.514)" fill="#fff"/>
                <rect id="사각형_22383" data-name="사각형 22383" width="637.969" height="1.701" transform="translate(0 1750.587)" fill="#fff"/>
                <rect id="사각형_22384" data-name="사각형 22384" width="637.969" height="1.701" transform="translate(0 250.084)" fill="#fff"/>
                <rect id="사각형_22385" data-name="사각형 22385" width="637.969" height="1.701" transform="translate(0 893.156)" fill="#fff"/>
                <rect id="사각형_22386" data-name="사각형 22386" width="637.969" height="1.701" transform="translate(0 1536.229)" fill="#fff"/>
                <rect id="사각형_22387" data-name="사각형 22387" width="637.969" height="1.701" transform="translate(0 678.799)" fill="#fff"/>
                <rect id="사각형_22388" data-name="사각형 22388" width="637.969" height="1.701" transform="translate(0 1321.872)" fill="#fff"/>
                <rect id="사각형_22389" data-name="사각형 22389" width="637.969" height="1.701" transform="translate(0 142.905)" fill="#fff"/>
                <rect id="사각형_22390" data-name="사각형 22390" width="637.969" height="1.701" transform="translate(0 785.978)" fill="#fff"/>
                <rect id="사각형_22391" data-name="사각형 22391" width="637.969" height="1.701" transform="translate(0 1429.05)" fill="#fff"/>
                <rect id="사각형_22392" data-name="사각형 22392" width="637.969" height="1.701" transform="translate(0 571.62)" fill="#fff"/>
                <rect id="사각형_22393" data-name="사각형 22393" width="637.969" height="1.701" transform="translate(0 1214.693)" fill="#fff"/>
                <rect id="사각형_22394" data-name="사각형 22394" width="637.969" height="1.701" transform="translate(0 357.263)" fill="#fff"/>
                <rect id="사각형_22395" data-name="사각형 22395" width="637.969" height="1.701" transform="translate(0 1000.335)" fill="#fff"/>
                <rect id="사각형_22396" data-name="사각형 22396" width="637.969" height="1.701" transform="translate(0 1643.408)" fill="#fff"/>
                <rect id="사각형_22397" data-name="사각형 22397" width="637.969" height="1.701" transform="translate(0 71.453)" fill="#fff"/>
                <rect id="사각형_22398" data-name="사각형 22398" width="637.969" height="1.701" transform="translate(0 500.168)" fill="#fff"/>
                <rect id="사각형_22399" data-name="사각형 22399" width="637.969" height="1.701" transform="translate(0 1143.24)" fill="#fff"/>
                <rect id="사각형_22400" data-name="사각형 22400" width="637.969" height="1.701" transform="translate(0 285.81)" fill="#fff"/>
                <rect id="사각형_22401" data-name="사각형 22401" width="637.969" height="1.701" transform="translate(0 928.883)" fill="#fff"/>
                <rect id="사각형_22402" data-name="사각형 22402" width="637.969" height="1.701" transform="translate(0 1571.955)" fill="#fff"/>
                <rect id="사각형_22403" data-name="사각형 22403" width="637.969" height="1.701" transform="translate(0 714.525)" fill="#fff"/>
                <rect id="사각형_22404" data-name="사각형 22404" width="637.969" height="1.701" transform="translate(0 1357.598)" fill="#fff"/>
                <rect id="사각형_22405" data-name="사각형 22405" width="637.969" height="1.701" transform="translate(0 178.631)" fill="#fff"/>
                <rect id="사각형_22406" data-name="사각형 22406" width="637.969" height="1.701" transform="translate(0 821.704)" fill="#fff"/>
                <rect id="사각형_22407" data-name="사각형 22407" width="637.969" height="1.701" transform="translate(0 1464.777)" fill="#fff"/>
                <rect id="사각형_22408" data-name="사각형 22408" width="637.969" height="1.701" transform="translate(0 607.346)" fill="#fff"/>
                <rect id="사각형_22409" data-name="사각형 22409" width="637.969" height="1.701" transform="translate(0 1250.419)" fill="#fff"/>
                <rect id="사각형_22410" data-name="사각형 22410" width="637.969" height="1.701" transform="translate(0 392.989)" fill="#fff"/>
                <rect id="사각형_22411" data-name="사각형 22411" width="637.969" height="1.701" transform="translate(0 1036.062)" fill="#fff"/>
                <rect id="사각형_22412" data-name="사각형 22412" width="637.969" height="1.701" transform="translate(0 1679.134)" fill="#fff"/>
              </g>
              <g id="line_vertical" transform="translate(34.025)">
                <rect id="사각형_22413" data-name="사각형 22413" width="1.701" height="1815.234" fill="#fff"/>
                <rect id="사각형_22414" data-name="사각형 22414" width="1.701" height="1815.234" transform="translate(214.358)" fill="#fff"/>
                <rect id="사각형_22415" data-name="사각형 22415" width="1.701" height="1815.234" transform="translate(428.715)" fill="#fff"/>
                <rect id="사각형_22416" data-name="사각형 22416" width="1.701" height="1815.234" transform="translate(71.453)" fill="#fff"/>
                <rect id="사각형_22417" data-name="사각형 22417" width="1.701" height="1815.234" transform="translate(285.81)" fill="#fff"/>
                <rect id="사각형_22418" data-name="사각형 22418" width="1.701" height="1815.234" transform="translate(500.168)" fill="#fff"/>
                <rect id="사각형_22419" data-name="사각형 22419" width="1.701" height="1815.234" transform="translate(142.905)" fill="#fff"/>
                <rect id="사각형_22420" data-name="사각형 22420" width="1.701" height="1815.234" transform="translate(357.263)" fill="#fff"/>
                <rect id="사각형_22421" data-name="사각형 22421" width="1.701" height="1815.234" transform="translate(571.62)" fill="#fff"/>
                <rect id="사각형_22422" data-name="사각형 22422" width="1.701" height="1815.234" transform="translate(35.726)" fill="#fff"/>
                <rect id="사각형_22423" data-name="사각형 22423" width="1.701" height="1815.234" transform="translate(250.084)" fill="#fff"/>
                <rect id="사각형_22424" data-name="사각형 22424" width="1.701" height="1815.234" transform="translate(464.441)" fill="#fff"/>
                <rect id="사각형_22425" data-name="사각형 22425" width="1.701" height="1815.234" transform="translate(107.179)" fill="#fff"/>
                <rect id="사각형_22426" data-name="사각형 22426" width="1.701" height="1815.234" transform="translate(321.536)" fill="#fff"/>
                <rect id="사각형_22427" data-name="사각형 22427" width="1.701" height="1815.234" transform="translate(535.894)" fill="#fff"/>
                <rect id="사각형_22428" data-name="사각형 22428" width="1.701" height="1815.234" transform="translate(178.631)" fill="#fff"/>
                <rect id="사각형_22429" data-name="사각형 22429" width="1.701" height="1815.234" transform="translate(392.989)" fill="#fff"/>
              </g>
            </g>
          </g>
        </g>
        <g id="그룹_116296" data-name="그룹 116296" transform="translate(40.829 27.706)">
          <g id="패스_52156" data-name="패스 52156" transform="translate(36.401 43.458)">
            <path d="M 47.50516891479492 19.68943405151367 C 43.76382827758789 19.68943405151367 40.49145889282227 18.77877235412598 38.04182815551758 17.05588150024414 C 35.48205947875977 15.25552749633789 34.05195236206055 12.72381973266602 33.90613555908203 9.734435081481934 L 33.88055038452148 9.210065841674805 L 34.40553665161133 9.210065841674805 L 42.5987663269043 9.210065841674805 L 43.0260124206543 9.210065841674805 L 43.09264373779297 9.632081031799316 C 43.33241271972656 11.15054225921631 45.20567321777344 12.2110652923584 47.64807510375977 12.2110652923584 C 50.25210571289062 12.2110652923584 51.86393737792969 11.28375816345215 51.86393737792969 10.42458820343018 C 51.86393737792969 9.416912078857422 49.8652458190918 8.650742530822754 45.57395172119141 8.013419151306152 C 41.76767349243164 7.44248104095459 39.14987564086914 6.586957931518555 37.33484268188477 5.320927143096924 C 35.15549087524414 3.800742387771606 34.09607315063477 1.668265581130981 34.09607315063477 -1.198365211486816 C 34.09607315063477 -2.610718965530396 34.4548454284668 -3.932980537414551 35.16241455078125 -5.12838077545166 C 35.83319854736328 -6.261626720428467 36.80142974853516 -7.254980564117432 38.04021453857422 -8.080842018127441 C 40.43681335449219 -9.67856502532959 43.74744415283203 -10.55847263336182 47.36227416992188 -10.55847263336182 C 50.88493728637695 -10.55847263336182 54.13441467285156 -9.65587329864502 56.51210403442383 -8.016949653625488 C 57.73019790649414 -7.177319049835205 58.70150756835938 -6.166195869445801 59.39902877807617 -5.011688232421875 C 60.12789154052734 -3.805288314819336 60.54121398925781 -2.468319177627563 60.62753677368164 -1.037949800491333 L 60.65952301025391 -0.5078268051147461 L 60.12844467163086 -0.5078268051147461 L 51.93523025512695 -0.5078268051147461 L 51.51166152954102 -0.5078268051147461 L 51.4420280456543 -0.9256267547607422 C 51.20825958251953 -2.32825756072998 49.51129150390625 -3.270657539367676 47.21936798095703 -3.270657539367676 C 44.75933837890625 -3.270657539367676 43.289306640625 -2.434980630874634 43.289306640625 -1.627072930335999 C 43.289306640625 -1.292319059371948 43.43353652954102 -0.8909652233123779 44.50335311889648 -0.4522267878055573 C 45.45483016967773 -0.06201139092445374 46.99264526367188 0.290157824754715 49.48956680297852 0.6896655559539795 C 53.65347671508789 1.315434813499451 56.57390594482422 2.345434665679932 58.41305923461914 3.837819337844849 C 60.22431945800781 5.307573318481445 61.10479736328125 7.306296348571777 61.10479736328125 9.948234558105469 C 61.10479736328125 11.42577362060547 60.7283821105957 12.80883502960205 59.98599624633789 14.05898857116699 C 59.28709030151367 15.23592662811279 58.28058242797852 16.2685432434082 56.99441528320312 17.12811088562012 C 54.52304458618164 18.77980422973633 51.15303039550781 19.68943405151367 47.50516891479492 19.68943405151367 Z M 16.63767433166504 19.68943405151367 C 14.4815673828125 19.68943405151367 12.44502925872803 19.31203460693359 10.58465957641602 18.56772613525391 C 8.768521308898926 17.84112739562988 7.165690422058105 16.78438949584961 5.820659637451172 15.42686557769775 C 4.477890491485596 14.07165050506592 3.43289041519165 12.45792675018311 2.714690446853638 10.63055801391602 C 1.981013536453247 8.763772964477539 1.60899806022644 6.723188400268555 1.60899806022644 4.565480709075928 C 1.60899806022644 2.418757915496826 1.981028914451599 0.3848655223846436 2.714767217636108 -1.479688286781311 C 3.433351993560791 -3.305749893188477 4.478198051452637 -4.920011520385742 5.820259571075439 -6.277642250061035 C 7.166290283203125 -7.639288425445557 8.768982887268066 -8.699810981750488 10.58381366729736 -9.429734230041504 C 12.44602870941162 -10.17870330810547 14.48284435272217 -10.55847263336182 16.63767433166504 -10.55847263336182 C 18.79379844665527 -10.55847263336182 20.83032035827637 -10.18107318878174 22.69070625305176 -9.436765670776367 C 24.50682830810547 -8.710165023803711 26.10967445373535 -7.653426647186279 27.4547061920166 -6.295918941497803 C 28.79747581481934 -4.940688133239746 29.84247589111328 -3.32696533203125 30.5606746673584 -1.499595999717712 C 31.29435157775879 0.3671732246875763 31.66636657714844 2.40777325630188 31.66636657714844 4.565480709075928 C 31.66636657714844 5.519003868103027 31.60239791870117 6.430280685424805 31.47078323364258 7.351388454437256 L 31.40946006774902 7.780665397644043 L 30.9758129119873 7.780665397644043 L 11.17793560028076 7.780665397644043 C 11.9317684173584 10.39384460449219 13.89259243011475 11.87761974334717 16.63767433166504 11.87761974334717 C 18.8679370880127 11.87761974334717 20.71430587768555 11.12109661102295 21.34152030944824 9.950296401977539 L 21.48289108276367 9.686404228210449 L 21.78225898742676 9.686404228210449 L 30.30893707275391 9.686404228210449 L 30.96049118041992 9.686404228210449 L 30.79190635681152 10.31577301025391 C 30.05636787414551 13.06178855895996 28.31287574768066 15.40966510772705 25.74989128112793 17.1055736541748 C 23.19525909423828 18.79594230651855 20.0443058013916 19.68943405151367 16.63767433166504 19.68943405151367 Z M 11.13172340393066 1.302650094032288 L 22.23738288879395 1.302650094032288 C 21.4516773223877 -1.412272334098816 19.52688026428223 -2.841934442520142 16.63767433166504 -2.841934442520142 C 13.7633638381958 -2.841934442520142 11.91373443603516 -1.448495745658875 11.13172340393066 1.302650094032288 Z M 76.91963195800781 19.02254295349121 L 76.41963195800781 19.02254295349121 L 67.94059753417969 19.02254295349121 L 67.44059753417969 19.02254295349121 L 67.44059753417969 18.52254295349121 L 67.44059753417969 -1.603426814079285 L 62.41493606567383 -1.603426814079285 L 61.91493606567383 -1.603426814079285 L 61.91493606567383 -2.103426694869995 L 61.91493606567383 -9.391580581665039 L 61.91493606567383 -9.891580581665039 L 62.41493606567383 -9.891580581665039 L 67.44059753417969 -9.891580581665039 L 67.44059753417969 -17.68007278442383 L 67.44059753417969 -18.18007278442383 L 67.94059753417969 -18.18007278442383 L 76.41963195800781 -18.18007278442383 L 76.91963195800781 -18.18007278442383 L 76.91963195800781 -17.68007278442383 L 76.91963195800781 -9.891580581665039 L 81.94528961181641 -9.891580581665039 L 82.44528961181641 -9.891580581665039 L 82.44528961181641 -9.391580581665039 L 82.44528961181641 -2.103426694869995 L 82.44528961181641 -1.603426814079285 L 81.94528961181641 -1.603426814079285 L 76.91963195800781 -1.603426814079285 L 76.91963195800781 18.52254295349121 L 76.91963195800781 19.02254295349121 Z M -14.70615577697754 19.02254295349121 L -32.99800109863281 19.02254295349121 L -33.49800109863281 19.02254295349121 L -33.49800109863281 18.52254295349121 L -33.49800109863281 -20.29999542236328 L -33.49800109863281 -20.79999542236328 L -32.99800109863281 -20.79999542236328 L -16.13520240783691 -20.79999542236328 C -13.9628791809082 -20.79999542236328 -11.97940158843994 -20.51938056945801 -10.23986339569092 -19.96591949462891 C -8.52215576171875 -19.41941070556641 -7.039232730865479 -18.60664176940918 -5.83229398727417 -17.55018043518066 C -3.426263332366943 -15.4441032409668 -2.154494285583496 -12.39230346679688 -2.154494285583496 -8.724688529968262 C -2.154494285583496 -7.259488105773926 -2.630478858947754 -5.703073024749756 -3.49474024772644 -4.342165470123291 C -4.15662670135498 -3.299951553344727 -5.004570960998535 -2.449949264526367 -5.947728157043457 -1.869638562202454 C -4.492685317993164 -1.18894624710083 -3.193786382675171 -0.1227948144078255 -2.215771198272705 1.208973169326782 C -1.008986473083496 2.852265596389771 -0.3443711400032043 4.82248067855835 -0.3443711400032043 6.756680965423584 C -0.3443711400032043 10.46066570281982 -1.670832633972168 13.55878829956055 -4.180371284484863 15.71611213684082 C -6.696601867675781 17.87918853759766 -10.33637142181396 19.02254295349121 -14.70615577697754 19.02254295349121 Z M -23.82843208312988 10.63911151885986 L -15.08723258972168 10.63911151885986 C -13.49037075042725 10.63911151885986 -12.18710994720459 10.28761959075928 -11.31834030151367 9.622650146484375 C -10.45280170440674 8.960126876831055 -10.01394081115723 7.995881080627441 -10.01394081115723 6.756680965423584 C -10.01394081115723 5.517480850219727 -10.45280170440674 4.553234577178955 -11.31834030151367 3.890727043151855 C -12.18710994720459 3.225757837295532 -13.49037075042725 2.874265432357788 -15.08723258972168 2.874265432357788 L -23.82843208312988 2.874265432357788 L -23.82843208312988 10.63911151885986 Z M -23.82843208312988 -5.080441951751709 L -16.51627922058105 -5.080441951751709 C -14.37570953369141 -5.080441951751709 -11.82406330108643 -5.712688446044922 -11.82406330108643 -8.724688529968262 C -11.82406330108643 -9.908842086791992 -12.21958637237549 -10.82514953613281 -12.99964809417725 -11.44814968109131 C -13.80424785614014 -12.09074974060059 -14.98741722106934 -12.41658020019531 -16.51627922058105 -12.41658020019531 L -23.82843208312988 -12.41658020019531 L -23.82843208312988 -5.080441951751709 Z" stroke="none"/>
            <path d="M 47.50516891479492 19.18943405151367 C 54.602783203125 19.18943405151367 60.60479736328125 15.6644344329834 60.60479736328125 9.948234558105469 C 60.60479736328125 5.137096405029297 57.65142822265625 2.42189621925354 49.41056823730469 1.183388590812683 C 44.64707565307617 0.4212347567081451 42.789306640625 -0.2456575483083725 42.789306640625 -1.627072930335999 C 42.789306640625 -2.865580558776855 44.64707565307617 -3.770657539367676 47.21936798095703 -3.770657539367676 C 49.69638442993164 -3.770657539367676 51.6494140625 -2.7226881980896 51.93523025512695 -1.007826805114746 L 60.12844467163086 -1.007826805114746 C 59.79499816894531 -6.533488273620605 54.31698226928711 -10.05847263336182 47.36227416992188 -10.05847263336182 C 40.26464462280273 -10.05847263336182 34.59607315063477 -6.628749847412109 34.59607315063477 -1.198365211486816 C 34.59607315063477 4.470203876495361 38.9785041809082 6.518511772155762 45.64739990234375 7.518850326538086 C 50.45853805541992 8.233373641967773 52.36393737792969 9.090804100036621 52.36393737792969 10.42458820343018 C 52.36393737792969 11.71072673797607 50.36327362060547 12.7110652923584 47.64807510375977 12.7110652923584 C 44.98052215576172 12.7110652923584 42.88458251953125 11.520188331604 42.5987663269043 9.710065841674805 L 34.40553665161133 9.710065841674805 C 34.69135284423828 15.56915760040283 40.21701431274414 19.18943405151367 47.50516891479492 19.18943405151367 M 16.63767433166504 19.18943405151367 C 23.40185928344727 19.18943405151367 28.87989044189453 15.52152729034424 30.30893707275391 10.18640422821045 L 21.78225898742676 10.18640422821045 C 21.06773567199707 11.520188331604 19.06706047058105 12.37761974334717 16.63767433166504 12.37761974334717 C 13.44613647460938 12.37761974334717 11.20729064941406 10.51984977722168 10.54039764404297 7.280665397644043 L 30.9758129119873 7.280665397644043 C 31.11873626708984 6.280342578887939 31.16636657714844 5.375265598297119 31.16636657714844 4.565480709075928 C 31.16636657714844 -3.961195945739746 25.16435241699219 -10.05847263336182 16.63767433166504 -10.05847263336182 C 8.111013412475586 -10.05847263336182 2.10899806022644 -3.913549900054932 2.10899806022644 4.565480709075928 C 2.10899806022644 13.09214210510254 8.111013412475586 19.18943405151367 16.63767433166504 19.18943405151367 M 22.87787437438965 1.802650094032288 L 10.49276733398438 1.802650094032288 C 11.20729064941406 -1.531811356544495 13.30322933197021 -3.341934442520142 16.63767433166504 -3.341934442520142 C 19.97213745117188 -3.341934442520142 22.16335105895996 -1.531811356544495 22.87787437438965 1.802650094032288 M 76.41963195800781 18.52254295349121 L 76.41963195800781 -2.103426694869995 L 81.94528961181641 -2.103426694869995 L 81.94528961181641 -9.391580581665039 L 76.41963195800781 -9.391580581665039 L 76.41963195800781 -17.68007278442383 L 67.94059753417969 -17.68007278442383 L 67.94059753417969 -9.391580581665039 L 62.41493606567383 -9.391580581665039 L 62.41493606567383 -2.103426694869995 L 67.94059753417969 -2.103426694869995 L 67.94059753417969 18.52254295349121 L 76.41963195800781 18.52254295349121 M -14.70615577697754 18.52254295349121 C -5.988940238952637 18.52254295349121 -0.8443711400032043 13.9495735168457 -0.8443711400032043 6.756680965423584 C -0.8443711400032043 2.993527173995972 -3.464294195175171 -0.6267344951629639 -7.179817199707031 -1.817611336708069 C -4.512263298034668 -2.817949771881104 -2.654494285583496 -5.961857318878174 -2.654494285583496 -8.724688529968262 C -2.654494285583496 -15.82230377197266 -7.51326322555542 -20.29999542236328 -16.13520240783691 -20.29999542236328 L -32.99800109863281 -20.29999542236328 L -32.99800109863281 18.52254295349121 L -14.70615577697754 18.52254295349121 M -24.32843208312988 2.374265432357788 L -15.08723258972168 2.374265432357788 C -11.65750980377197 2.374265432357788 -9.513940811157227 3.89858865737915 -9.513940811157227 6.756680965423584 C -9.513940811157227 9.614789009094238 -11.65750980377197 11.13911151885986 -15.08723258972168 11.13911151885986 L -24.32843208312988 11.13911151885986 L -24.32843208312988 2.374265432357788 M -24.32843208312988 -12.91658020019531 L -16.51627922058105 -12.91658020019531 C -13.22946357727051 -12.91658020019531 -11.32406330108643 -11.43988800048828 -11.32406330108643 -8.724688529968262 C -11.32406330108643 -6.009503841400146 -13.22946357727051 -4.580441951751709 -16.51627922058105 -4.580441951751709 L -24.32843208312988 -4.580441951751709 L -24.32843208312988 -12.91658020019531 M 47.50516891479492 20.18943405151367 C 43.66030502319336 20.18943405151367 40.28847503662109 19.24729537963867 37.75418090820312 17.46486473083496 C 36.45250701904297 16.54935836791992 35.41892242431641 15.43854236602783 34.68215179443359 14.16326522827148 C 33.91350555419922 12.83281898498535 33.48439788818359 11.35094261169434 33.40672302246094 9.7587890625 L 33.35556793212891 8.710065841674805 L 43.4532585144043 8.710065841674805 L 43.5865364074707 9.554096221923828 C 43.70133590698242 10.28118896484375 44.2751350402832 10.75629615783691 44.73628997802734 11.02683448791504 C 45.48838424682617 11.46806526184082 46.52247619628906 11.7110652923584 47.64807510375977 11.7110652923584 C 50.0523681640625 11.7110652923584 51.36393737792969 10.86121940612793 51.36393737792969 10.42458820343018 C 51.36393737792969 10.19749641418457 51.02508926391602 9.924542427062988 50.40982818603516 9.656003952026367 C 49.4309196472168 9.228742599487305 47.8250732421875 8.85323429107666 45.50049209594727 8.508004188537598 C 41.6144905090332 7.92509651184082 38.92935180664062 7.042757987976074 37.04879760742188 5.731003761291504 C 35.92562866210938 4.947573184967041 35.06645965576172 3.985188722610474 34.49513626098633 2.870604038238525 C 33.89856719970703 1.706788659095764 33.59607315063477 0.3377886116504669 33.59607315063477 -1.198365211486816 C 33.59607315063477 -2.701549768447876 33.97830581665039 -4.109488487243652 34.73213577270508 -5.383072853088379 C 35.44144439697266 -6.581411361694336 36.46113586425781 -7.629042148590088 37.76285934448242 -8.496857643127441 C 40.24069213867188 -10.14875030517578 43.64982986450195 -11.05847263336182 47.36227416992188 -11.05847263336182 C 50.98530578613281 -11.05847263336182 54.33555221557617 -10.12450408935547 56.79586029052734 -8.428627014160156 C 58.07273483276367 -7.548488140106201 59.09255218505859 -6.485842227935791 59.82698440551758 -5.270242214202881 C 60.59812164306641 -3.993872880935669 61.03538131713867 -2.580042123794556 61.12662887573242 -1.068057537078857 L 61.19061279296875 -0.007826776243746281 L 51.08810424804688 -0.007826776243746281 L 50.94882965087891 -0.8434267640113831 C 50.86045837402344 -1.373626828193665 50.50855255126953 -1.817965269088745 49.90285873413086 -2.16407299041748 C 49.21832275390625 -2.55524206161499 48.26530456542969 -2.770657539367676 47.21936798095703 -2.770657539367676 C 44.96735382080078 -2.770657539367676 43.789306640625 -2.026165246963501 43.789306640625 -1.627072930335999 C 43.789306640625 -0.729541540145874 48.13127899169922 -0.03401054069399834 49.56470489501953 0.1953269988298416 C 53.88015365600586 0.8443942070007324 56.79199600219727 1.878506302833557 58.72810745239258 3.449557781219482 C 60.6638298034668 5.020296096801758 61.60479736328125 7.146034717559814 61.60479736328125 9.948234558105469 C 61.60479736328125 11.51686573028564 61.20479965209961 12.98580360412598 60.4159049987793 14.31428050994873 C 59.67859649658203 15.55588054656982 58.62092208862305 16.64246559143066 57.27224349975586 17.54381942749023 C 54.71953582763672 19.24986457824707 51.25085830688477 20.18943405151367 47.50516891479492 20.18943405151367 Z M 16.63767433166504 20.18943405151367 C 14.41765975952148 20.18943405151367 12.31864452362061 19.80000305175781 10.39892101287842 19.03195762634277 C 8.518844604492188 18.27975845336914 6.858982563018799 17.18523406982422 5.465475082397461 15.77878856658936 C 4.07459831237793 14.37500381469727 2.992536544799805 12.70443439483643 2.24933648109436 10.81344985961914 C 1.492659687995911 8.88817310333252 1.10899806022644 6.786050319671631 1.10899806022644 4.565480709075928 C 1.10899806022644 2.355819463729858 1.492721199989319 0.2603270709514618 2.249505758285522 -1.662796020507812 C 2.993013381958008 -3.552180528640747 4.074751853942871 -5.223103523254395 5.464659690856934 -6.629149913787842 C 6.859044075012207 -8.039703369140625 8.518613815307617 -9.138042449951172 10.39722919464111 -9.893610954284668 C 12.31902885437012 -10.66656494140625 14.41862869262695 -11.05847263336182 16.63767433166504 -11.05847263336182 C 18.85769081115723 -11.05847263336182 20.95672035217285 -10.66904258728027 22.87642860412598 -9.900996208190918 C 24.75652122497559 -9.148796081542969 26.4163818359375 -8.054272651672363 27.80989074707031 -6.647826671600342 C 29.20076751708984 -5.244057655334473 30.28282928466797 -3.57347297668457 31.02602958679199 -1.682488322257996 C 31.78270530700684 0.2427886128425598 32.16636657714844 2.344911575317383 32.16636657714844 4.565480709075928 C 32.16636657714844 5.542911529541016 32.10075378417969 6.4773268699646 31.96576690673828 7.422111511230469 L 31.84309005737305 8.280665397644043 L 11.87524795532227 8.280665397644043 C 12.67786026000977 10.28870010375977 14.33260154724121 11.37761974334717 16.63767433166504 11.37761974334717 C 18.65456771850586 11.37761974334717 20.36776733398438 10.70914268493652 20.90078353881836 9.714188575744629 L 21.18352127075195 9.186404228210449 L 31.6120433807373 9.186404228210449 L 31.2748908996582 10.44514274597168 C 30.50727462768555 13.31091213226318 28.69216728210449 15.75823497772217 26.02581405639648 17.52255821228027 C 23.38908958435059 19.26723480224609 20.14273643493652 20.18943405151367 16.63767433166504 20.18943405151367 Z M 11.82676124572754 0.8026501536369324 L 21.54169845581055 0.8026501536369324 C 20.72204399108887 -1.285485029220581 19.07735443115234 -2.341934442520142 16.63767433166504 -2.341934442520142 C 14.25169372558594 -2.341934442520142 12.63822174072266 -1.285485029220581 11.82676124572754 0.8026501536369324 Z M 77.41963195800781 19.52254295349121 L 66.94059753417969 19.52254295349121 L 66.94059753417969 -1.103426814079285 L 61.41493606567383 -1.103426814079285 L 61.41493606567383 -10.39158058166504 L 66.94059753417969 -10.39158058166504 L 66.94059753417969 -18.68007278442383 L 77.41963195800781 -18.68007278442383 L 77.41963195800781 -10.39158058166504 L 82.94528961181641 -10.39158058166504 L 82.94528961181641 -1.103426814079285 L 77.41963195800781 -1.103426814079285 L 77.41963195800781 19.52254295349121 Z M -14.70615577697754 19.52254295349121 L -33.99800109863281 19.52254295349121 L -33.99800109863281 -21.29999542236328 L -16.13520240783691 -21.29999542236328 C -13.9113712310791 -21.29999542236328 -11.87687873840332 -21.0114574432373 -10.08827877044678 -20.44238090515137 C -8.30466365814209 -19.87491989135742 -6.761955738067627 -19.02841186523438 -5.502971172332764 -17.92639541625977 C -2.985278844833374 -15.72259616851807 -1.654494166374207 -12.54070377349854 -1.654494166374207 -8.724688529968262 C -1.654494166374207 -7.165750026702881 -2.158140420913696 -5.51414966583252 -3.072663545608521 -4.074119091033936 C -3.60827374458313 -3.230738639831543 -4.26074743270874 -2.504724502563477 -4.987280368804932 -1.932466864585876 C -3.760971307754517 -1.226210594177246 -2.669350862503052 -0.2533879280090332 -1.812771081924438 0.9130193591117859 C -0.5434326529502869 2.641480922698975 0.1556288748979568 4.716804027557373 0.1556288748979568 6.756680965423584 C 0.1556288748979568 10.61083507537842 -1.231017231941223 13.84004974365234 -3.854417324066162 16.09526634216309 C -6.462632656097412 18.33740425109863 -10.21509456634521 19.52254295349121 -14.70615577697754 19.52254295349121 Z M -23.32843208312988 10.13911151885986 L -15.08723258972168 10.13911151885986 C -13.60118675231934 10.13911151885986 -12.40301704406738 9.823234558105469 -11.62224769592285 9.225604057312012 C -10.88683223724365 8.66269588470459 -10.51394081115723 7.832019329071045 -10.51394081115723 6.756680965423584 C -10.51394081115723 5.681342601776123 -10.88683223724365 4.850680828094482 -11.62224769592285 4.287773132324219 C -12.40301704406738 3.690142393112183 -13.60118675231934 3.374265432357788 -15.08723258972168 3.374265432357788 L -23.32843208312988 3.374265432357788 L -23.32843208312988 10.13911151885986 Z M -23.32843208312988 -5.580441951751709 L -16.51627922058105 -5.580441951751709 C -13.73452472686768 -5.580441951751709 -12.32406330108643 -6.63831901550293 -12.32406330108643 -8.724688529968262 C -12.32406330108643 -10.84267330169678 -13.73452472686768 -11.91658020019531 -16.51627922058105 -11.91658020019531 L -23.32843208312988 -11.91658020019531 L -23.32843208312988 -5.580441951751709 Z" stroke="none" fill="#000"/>
          </g>
          <g id="패스_52153" data-name="패스 52153" transform="translate(32.998 40.056)" fill="#fff">
            <path d="M 47.50516891479492 20.68943405151367 C 43.55679702758789 20.68943405151367 40.08550643920898 19.7158203125 37.466552734375 17.87383460998535 C 36.10503005981445 16.91625022888184 35.02256774902344 15.75198841094971 34.24921417236328 14.41340446472168 C 33.44038391113281 13.01338863372803 32.98890686035156 11.45554256439209 32.90732192993164 9.783158302307129 L 32.83058166503906 8.210065841674805 L 34.40553665161133 8.210065841674805 L 41.51626968383789 8.210065841674805 C 39.54182815551758 7.676653385162354 37.99164962768555 6.998291969299316 36.76275253295898 6.141096115112305 C 34.32971954345703 4.443988800048828 33.09607315063477 1.974634766578674 33.09607315063477 -1.198365211486816 C 33.09607315063477 -4.28610372543335 34.65493774414062 -7.025842189788818 37.48551940917969 -8.912888526916504 C 40.0445671081543 -10.61891937255859 43.55219650268555 -11.55847263336182 47.36227416992188 -11.55847263336182 C 53.94940948486328 -11.55847263336182 59.08091354370117 -8.661627769470215 60.91493606567383 -4.218375682830811 L 60.91493606567383 -9.391580581665039 L 60.91493606567383 -10.89158058166504 L 62.41493606567383 -10.89158058166504 L 66.44059753417969 -10.89158058166504 L 66.44059753417969 -17.68007278442383 L 66.44059753417969 -19.18007278442383 L 67.94059753417969 -19.18007278442383 L 76.41963195800781 -19.18007278442383 L 77.91963195800781 -19.18007278442383 L 77.91963195800781 -17.68007278442383 L 77.91963195800781 -10.89158058166504 L 81.94528961181641 -10.89158058166504 L 83.44528961181641 -10.89158058166504 L 83.44528961181641 -9.391580581665039 L 83.44528961181641 -2.103426694869995 L 83.44528961181641 -0.6034267544746399 L 81.94528961181641 -0.6034267544746399 L 77.91963195800781 -0.6034267544746399 L 77.91963195800781 18.52254295349121 L 77.91963195800781 20.02254295349121 L 76.41963195800781 20.02254295349121 L 67.94059753417969 20.02254295349121 L 66.44059753417969 20.02254295349121 L 66.44059753417969 18.52254295349121 L 66.44059753417969 -0.6034267544746399 L 62.41493606567383 -0.6034267544746399 L 61.65557861328125 -0.6034267544746399 L 61.7216911315918 0.4921732246875763 L 60.12844467163086 0.4921732246875763 L 53.543701171875 0.4921732246875763 C 55.90673065185547 1.12718677520752 57.69543838500977 1.967708826065063 59.04315185546875 3.061311721801758 C 61.10332107543945 4.733019351959229 62.10479736328125 6.985757827758789 62.10479736328125 9.948234558105469 C 62.10479736328125 13.15140438079834 60.48722839355469 15.99654293060303 57.55007553100586 17.95952796936035 C 54.9160270690918 19.71994209289551 51.34869003295898 20.68943405151367 47.50516891479492 20.68943405151367 Z M 43.96721267700195 8.759200096130371 L 44.08041381835938 9.47611141204834 C 44.2365837097168 10.4652042388916 45.77035140991211 11.2110652923584 47.64807510375977 11.2110652923584 C 49.46061706542969 11.2110652923584 50.47683715820312 10.71395111083984 50.78957366943359 10.4360179901123 C 50.64382934570312 10.32326221466064 50.31586074829102 10.12341976165771 49.6248893737793 9.892312049865723 C 48.6612434387207 9.570004463195801 47.28812026977539 9.278973579406738 45.42704391479492 9.002573013305664 C 44.92091751098633 8.926653861999512 44.43466186523438 8.845636367797852 43.96721267700195 8.759200096130371 Z M 49.64035415649414 -0.298917680978775 C 49.95332717895508 -0.2518381774425507 50.2584228515625 -0.20283243060112 50.55724334716797 -0.1516124606132507 L 50.45564270019531 -0.7612267732620239 C 50.30986022949219 -1.635842204093933 48.94881439208984 -2.270657539367676 47.21936798095703 -2.270657539367676 C 45.61348724365234 -2.270657539367676 44.70114517211914 -1.875222206115723 44.38120269775391 -1.630027532577515 C 44.53897857666016 -1.525177955627441 44.87076568603516 -1.351664781570435 45.53727340698242 -1.148057579994202 C 46.43948745727539 -0.8724420070648193 47.74346542358398 -0.6025794744491577 49.64035415649414 -0.298917680978775 Z M 16.63767433166504 20.68943405151367 C 14.35375213623047 20.68943405151367 12.19224452972412 20.2879581451416 10.21319770812988 19.49617385864258 C 8.26915168762207 18.7183895111084 6.552290439605713 17.58608055114746 5.11029052734375 16.13071250915527 C 3.671321153640747 14.67837333679199 2.552198171615601 12.95092678070068 1.783998131752014 10.99634265899658 C 1.004321217536926 9.012557983398438 0.6089981198310852 6.848911762237549 0.6089981198310852 4.565480709075928 C 0.6089981198310852 0.05543476343154907 2.207151889801025 -4.04507303237915 5.10907506942749 -6.980657577514648 C 6.55181360244751 -8.440118789672852 8.268228530883789 -9.576257705688477 10.21065998077393 -10.35750389099121 C 12.19204425811768 -11.15441131591797 14.35439777374268 -11.55847263336182 16.63767433166504 -11.55847263336182 C 18.92159843444824 -11.55847263336182 21.08312034606934 -11.15701103210449 23.06216812133789 -10.36521148681641 C 25.0062141418457 -9.587442398071289 26.72307586669922 -8.455134391784668 28.16507530212402 -6.999749660491943 C 29.60404396057129 -5.547426700592041 30.72316741943359 -3.819980621337891 31.49136734008789 -1.865380644798279 C 32.27104568481445 0.1184039935469627 32.66636657714844 2.282050132751465 32.66636657714844 4.565480709075928 C 32.66636657714844 5.566819190979004 32.59910583496094 6.524373054504395 32.46073532104492 7.492819309234619 L 32.27673721313477 8.780665397644043 L 32.23834991455078 8.780665397644043 L 31.75786018371582 10.57451152801514 C 31.35616683959961 12.07415771484375 30.67098236083984 13.47685050964355 29.72133636474609 14.74361896514893 C 28.80022811889648 15.97232723236084 27.64970588684082 17.04758834838867 26.30172157287598 17.93952751159668 C 23.58293724060059 19.73852729797363 20.24115180969238 20.68943405151367 16.63767433166504 20.68943405151367 Z M 12.66791152954102 8.780665397644043 C 13.46609401702881 10.15965461730957 14.81180953979492 10.87761974334717 16.63767433166504 10.87761974334717 C 18.7487678527832 10.87761974334717 20.09893608093262 10.15214252471924 20.46004486083984 9.478080749511719 L 20.83365440368652 8.780665397644043 L 12.66791152954102 8.780665397644043 Z M 12.60787010192871 0.3026501536369324 L 20.75631332397461 0.3026501536369324 C 19.94738578796387 -1.137102127075195 18.58651733398438 -1.841934442520142 16.63767433166504 -1.841934442520142 C 14.73614597320557 -1.841934442520142 13.40464878082275 -1.137102127075195 12.60787010192871 0.3026501536369324 Z M -14.70615577697754 20.02254295349121 L -32.99800109863281 20.02254295349121 L -34.49800109863281 20.02254295349121 L -34.49800109863281 18.52254295349121 L -34.49800109863281 -20.29999542236328 L -34.49800109863281 -21.79999542236328 L -32.99800109863281 -21.79999542236328 L -16.13520240783691 -21.79999542236328 C -13.85986328125 -21.79999542236328 -11.77437114715576 -21.5035343170166 -9.936678886413574 -20.91885757446289 C -8.08717155456543 -20.33041191101074 -6.484663486480713 -19.45018005371094 -5.17366361618042 -18.30262756347656 C -2.544294118881226 -16.00108909606934 -1.154494166374207 -12.68908786773682 -1.154494166374207 -8.724688529968262 C -1.154494166374207 -7.07202672958374 -1.685817241668701 -5.325226783752441 -2.650586605072021 -3.806072950363159 C -3.082446336746216 -3.126057863235474 -3.587122917175293 -2.517627239227295 -4.144770622253418 -1.997582912445068 C -3.099457979202271 -1.300632357597351 -2.166849613189697 -0.413849413394928 -1.409771084785461 0.6170655488967896 C -0.07787881791591644 2.43071174621582 0.6556288599967957 4.611126899719238 0.6556288599967957 6.756680965423584 C 0.6556288599967957 10.76098823547363 -0.7912172675132751 14.12132740020752 -3.528478860855103 16.47441864013672 C -6.22864818572998 18.79561996459961 -10.09381771087646 20.02254295349121 -14.70615577697754 20.02254295349121 Z M -22.82843208312988 9.639111518859863 L -15.08723258972168 9.639111518859863 C -12.38438606262207 9.639111518859863 -11.01394081115723 8.669326782226562 -11.01394081115723 6.756680965423584 C -11.01394081115723 4.84404993057251 -12.38438606262207 3.874265432357788 -15.08723258972168 3.874265432357788 L -22.82843208312988 3.874265432357788 L -22.82843208312988 9.639111518859863 Z M -22.82843208312988 -6.080441951751709 L -16.51627922058105 -6.080441951751709 C -12.82406330108643 -6.080441951751709 -12.82406330108643 -8.00148868560791 -12.82406330108643 -8.724688529968262 C -12.82406330108643 -9.390488624572754 -12.82406330108643 -11.41658020019531 -16.51627922058105 -11.41658020019531 L -22.82843208312988 -11.41658020019531 L -22.82843208312988 -6.080441951751709 Z" stroke="none"/>
            <path d="M 47.50517272949219 19.18942070007324 C 54.60279083251953 19.18942070007324 60.60478973388672 15.66443920135498 60.60478973388672 9.948239326477051 C 60.60478973388672 5.137093544006348 57.65142440795898 2.42189359664917 49.41057205200195 1.183384418487549 C 44.64707946777344 0.4212207794189453 42.78929901123047 -0.2456701397895813 42.78929901123047 -1.627070188522339 C 42.78929901123047 -2.865579128265381 44.64707946777344 -3.770652055740356 47.21935272216797 -3.770652055740356 C 49.69638824462891 -3.770652055740356 51.64940643310547 -2.7226881980896 51.93522644042969 -1.007815599441528 L 60.12844467163086 -1.007815599441528 C 59.79500961303711 -6.533488273620605 54.31697082519531 -10.05846977233887 47.36226272583008 -10.05846977233887 C 40.26464462280273 -10.05846977233887 34.5960807800293 -6.628760814666748 34.5960807800293 -1.198361039161682 C 34.5960807800293 4.470202445983887 38.97850036621094 6.518511772155762 45.64740753173828 7.518838882446289 C 50.45853424072266 8.233366012573242 52.36393356323242 9.090802192687988 52.36393356323242 10.42458438873291 C 52.36393356323242 11.71072959899902 50.36326217651367 12.71105670928955 47.64807891845703 12.71105670928955 C 44.98051834106445 12.71105670928955 42.88457107543945 11.52018451690674 42.59877014160156 9.710057258605957 L 34.40553665161133 9.710057258605957 C 34.69135284423828 15.56916618347168 40.21700668334961 19.18942070007324 47.50517272949219 19.18942070007324 M 16.63768005371094 19.18942070007324 C 23.40186309814453 19.18942070007324 28.87988090515137 15.52153015136719 30.30893516540527 10.18640232086182 L 21.78226280212402 10.18640232086182 C 21.06773567199707 11.52018451690674 19.06706237792969 12.37762069702148 16.63768005371094 12.37762069702148 C 13.44613552093506 12.37762069702148 11.20729923248291 10.51985740661621 10.54040813446045 7.280675411224365 L 30.97582626342773 7.280675411224365 C 31.11873435974121 6.280329704284668 31.16637229919434 5.375275135040283 31.16637229919434 4.565475463867188 C 31.16637229919434 -3.961197376251221 25.16435241699219 -10.05846977233887 16.63768005371094 -10.05846977233887 C 8.111007690429688 -10.05846977233887 2.109007835388184 -3.913561105728149 2.109007835388184 4.565475463867188 C 2.109007835388184 13.09214782714844 8.111007690429688 19.18942070007324 16.63768005371094 19.18942070007324 M 22.87786293029785 1.802639007568359 L 10.49277114868164 1.802639007568359 C 11.20729923248291 -1.531797409057617 13.30322647094727 -3.34194278717041 16.63768005371094 -3.34194278717041 C 19.97213554382324 -3.34194278717041 22.16335296630859 -1.531797409057617 22.87786293029785 1.802639007568359 M 76.41962432861328 18.52252960205078 L 76.41962432861328 -2.103433847427368 L 81.94529724121094 -2.103433847427368 L 81.94529724121094 -9.391579627990723 L 76.41962432861328 -9.391579627990723 L 76.41962432861328 -17.6800708770752 L 67.94058990478516 -17.6800708770752 L 67.94058990478516 -9.391579627990723 L 62.41493606567383 -9.391579627990723 L 62.41493606567383 -2.103433847427368 L 67.94058990478516 -2.103433847427368 L 67.94058990478516 18.52252960205078 L 76.41962432861328 18.52252960205078 M -14.70615577697754 18.52252960205078 C -5.988937377929688 18.52252960205078 -0.8443739414215088 13.94956588745117 -0.8443739414215088 6.756693363189697 C -0.8443739414215088 2.993529796600342 -3.464282989501953 -0.6267428398132324 -7.179828643798828 -1.817615628242493 C -4.512264728546143 -2.81794285774231 -2.65450119972229 -5.961870193481445 -2.65450119972229 -8.724688529968262 C -2.65450119972229 -15.82230663299561 -7.513264656066895 -20.29999732971191 -16.13521003723145 -20.29999732971191 L -32.99799346923828 -20.29999732971191 L -32.99799346923828 18.52252960205078 L -14.70615577697754 18.52252960205078 M -24.32842826843262 2.37425708770752 L -15.08722877502441 2.37425708770752 C -11.65751934051514 2.37425708770752 -9.513937950134277 3.898584365844727 -9.513937950134277 6.756693363189697 C -9.513937950134277 9.614784240722656 -11.65751934051514 11.13911151885986 -15.08722877502441 11.13911151885986 L -24.32842826843262 11.13911151885986 L -24.32842826843262 2.37425708770752 M -24.32842826843262 -12.916579246521 L -16.51628303527832 -12.916579246521 C -13.22946453094482 -12.916579246521 -11.32406520843506 -11.43988800048828 -11.32406520843506 -8.724688529968262 C -11.32406520843506 -6.009488105773926 -13.22946453094482 -4.580451965332031 -16.51628303527832 -4.580451965332031 L -24.32842826843262 -4.580451965332031 L -24.32842826843262 -12.916579246521 M 47.50517272949219 22.18942070007324 C 43.24626159667969 22.18942070007324 39.47657012939453 21.12138366699219 36.60360717773438 19.10076713562012 C 34.54690933227539 17.65423774719238 33.04795074462891 15.76299285888672 32.19962310791016 13.59226226806641 C 31.83745384216309 14.30566024780273 31.41070938110352 14.99081325531006 30.92151641845703 15.64336585998535 C 29.89702606201172 17.00998497009277 28.62118911743164 18.20340347290039 27.12946319580078 19.19045639038086 C 24.16442680358887 21.15240287780762 20.53642654418945 22.18942070007324 16.63768005371094 22.18942070007324 C 9.514158248901367 22.18942070007324 3.760652303695679 18.54372215270996 0.9594112634658813 12.84294986724854 C 0.159948542714119 14.69241046905518 -1.020903944969177 16.29684066772461 -2.550646543502808 17.61189270019531 C -5.526700973510742 20.17025756835938 -9.730010032653809 21.52252960205078 -14.70615577697754 21.52252960205078 L -35.99799346923828 21.52252960205078 L -35.99799346923828 -23.29999732971191 L -16.13521003723145 -23.29999732971191 C -13.70533752441406 -23.29999732971191 -11.46684646606445 -22.97977828979492 -9.481901168823242 -22.34825134277344 C -7.434700965881348 -21.69690704345703 -5.652810096740723 -20.71550559997559 -4.185701370239258 -19.43132400512695 C -1.221355795860291 -16.83656120300293 0.34549880027771 -13.13426971435547 0.34549880027771 -8.724688529968262 C 0.34549880027771 -6.790833950042725 -0.2688466608524323 -4.75845193862915 -1.384355783462524 -3.001924753189087 C -1.56240701675415 -2.721560716629028 -1.751518368721008 -2.451377153396606 -1.950599074363708 -2.192311763763428 C -1.333610415458679 -1.643063306808472 -0.7685214877128601 -1.029893398284912 -0.2689326405525208 -0.3627324104309082 C 0.5004227757453918 -3.302265167236328 1.967410087585449 -5.936199188232422 4.042316913604736 -8.035179138183594 C 5.630098819732666 -9.641379356384277 7.517098903656006 -10.89094257354736 9.65095329284668 -11.74916076660156 C 11.81106281280518 -12.61796092987061 14.16175365447998 -13.05846977233887 16.63768005371094 -13.05846977233887 C 23.54052352905273 -13.05846977233887 29.15732765197754 -9.634376525878906 32.04758071899414 -4.2350754737854 C 32.77039337158203 -6.577175617218018 34.34482955932617 -8.621875762939453 36.65346145629883 -10.16096115112305 C 39.4561882019043 -12.02945232391357 43.25931549072266 -13.05846977233887 47.36226272583008 -13.05846977233887 C 49.35544586181641 -13.05846977233887 51.26869964599609 -12.80712509155273 53.04890060424805 -12.31139755249023 C 54.87255477905273 -11.80356121063232 56.51511764526367 -11.05123424530029 57.93091583251953 -10.07532501220703 C 58.46341323852539 -9.708278656005859 58.95858001708984 -9.312520027160645 59.41493606567383 -8.890727996826172 L 59.41493606567383 -12.39157962799072 L 64.94058990478516 -12.39157962799072 L 64.94058990478516 -20.6800708770752 L 79.41962432861328 -20.6800708770752 L 79.41962432861328 -12.39157962799072 L 84.94529724121094 -12.39157962799072 L 84.94529724121094 0.8965662121772766 L 79.41962432861328 0.8965662121772766 L 79.41962432861328 21.52252960205078 L 64.94058990478516 21.52252960205078 L 64.94058990478516 0.8965662121772766 L 63.24881744384766 0.8965662121772766 L 63.31493377685547 1.992184400558472 L 60.1044921875 1.992184400558472 C 62.42717742919922 3.932108402252197 63.60478973388672 6.608099937438965 63.60478973388672 9.948239326477051 C 63.60478973388672 13.66836643218994 61.75051879882812 16.95640182495117 58.38355255126953 19.20663833618164 C 55.50551605224609 21.13011169433594 51.64216995239258 22.18942070007324 47.50517272949219 22.18942070007324 Z M -21.32842826843262 8.139111518859863 L -15.08722877502441 8.139111518859863 C -13.64859199523926 8.139111518859863 -13.03493785858154 7.788275241851807 -12.83788299560547 7.637457370758057 C -12.72466468811035 7.550784587860107 -12.51393795013428 7.389493465423584 -12.51393795013428 6.756693363189697 C -12.51393795013428 6.123875141143799 -12.72466468811035 5.962584495544434 -12.83788299560547 5.875911712646484 C -13.03493785858154 5.725093364715576 -13.64859199523926 5.37425708770752 -15.08722877502441 5.37425708770752 L -21.32842826843262 5.37425708770752 L -21.32842826843262 8.139111518859863 Z M 34.06482315063477 6.710057258605957 L 35.04803848266602 6.710057258605957 C 34.72013854980469 6.429776668548584 34.4146842956543 6.134012699127197 34.1320915222168 5.823221683502197 C 34.11565399169922 6.120261669158936 34.09326553344727 6.415356159210205 34.06482315063477 6.710057258605957 Z M -21.32842826843262 -7.580451965332031 L -16.51628303527832 -7.580451965332031 C -15.1713924407959 -7.580451965332031 -14.66388320922852 -7.896888256072998 -14.54037380218506 -7.993870258331299 C -14.47564697265625 -8.044706344604492 -14.32406520843506 -8.163743019104004 -14.32406520843506 -8.724688529968262 C -14.32406520843506 -9.30643367767334 -14.4892463684082 -9.438361167907715 -14.55979251861572 -9.494688034057617 C -14.68370151519775 -9.593669891357422 -15.1910285949707 -9.916579246520996 -16.51628303527832 -9.916579246520996 L -21.32842826843262 -9.916579246520996 L -21.32842826843262 -7.580451965332031 Z" stroke="none" fill="#000"/>
          </g>
          <path id="Path_52398" data-name="Path 52398" d="M-90.757,4.23h18.048c8.6,0,13.677-4.512,13.677-11.609a9.111,9.111,0,0,0-6.251-8.46,7.606,7.606,0,0,0,4.465-6.815c0-7-4.794-11.421-13.3-11.421H-90.757Zm8.554-22.8V-26.79h7.708c3.243,0,5.123,1.457,5.123,4.136s-1.88,4.089-5.123,4.089Zm0,15.51V-11.7h9.118c3.384,0,5.5,1.5,5.5,4.324s-2.115,4.324-5.5,4.324ZM-54.708,4.23h8.366V-9.87c0-4.183,2.679-6.721,7.144-6.721a9.265,9.265,0,0,1,4.277.94l-.094-7.849a10.25,10.25,0,0,0-3.619-.47c-3.525,0-6.063,1.269-7.708,3.478v-2.82h-8.366Zm34.31.658c3.619,0,6.251-1.269,7.9-3.478V4.23h8.366V-23.312H-12.5v2.82c-1.645-2.209-4.277-3.478-7.9-3.478-7.9,0-13.4,6.063-13.4,14.429S-28.294,4.888-20.4,4.888Zm1.316-7.144c-3.995,0-6.533-3.055-6.533-7.285s2.538-7.285,6.533-7.285c4.089,0,6.721,3.055,6.721,7.285S-14.993-2.256-19.082-2.256ZM1.692,4.23h8.366V-9.917c0-4.277,1.974-6.862,5.264-6.862,3.149,0,4.841,2.3,4.841,6.486V4.23h8.366V-11.7c0-7.614-4.371-12.267-10.763-12.267-3.525,0-6.063,1.269-7.708,3.478v-2.82H1.692Zm43.992.658c3.619,0,6.251-1.269,7.9-3.478V4.23h8.366V-35.25H53.58v14.758c-1.645-2.209-4.277-3.478-7.9-3.478-7.9,0-13.4,6.063-13.4,14.429S37.788,4.888,45.684,4.888ZM47-2.256c-3.995,0-6.533-3.055-6.533-7.285S43-16.826,47-16.826c4.089,0,6.721,3.055,6.721,7.285S51.089-2.256,47-2.256ZM79.289-23.97c-7,0-12.6,3.384-12.6,8.742,0,5.593,4.324,7.614,10.9,8.6,4.747.705,6.627,1.551,6.627,2.867,0,1.269-1.974,2.256-4.653,2.256-2.632,0-4.7-1.175-4.982-2.961H66.5c.282,5.781,5.734,9.353,12.925,9.353,7,0,12.925-3.478,12.925-9.118,0-4.747-2.914-7.426-11.045-8.648-4.7-.752-6.533-1.41-6.533-2.773,0-1.222,1.833-2.115,4.371-2.115,2.444,0,4.371,1.034,4.653,2.726h8.084C91.556-20.492,86.151-23.97,79.289-23.97Z" transform="translate(297.314 55.385)"/>
          <g id="그룹_116295" data-name="그룹 116295" transform="translate(120.048 20.158) rotate(-19)">
            <g id="그룹_116208" data-name="그룹 116208" transform="translate(0 0)">
              <path id="패스_42587" data-name="패스 42587" d="M48.036,31.092V16.753H30.227C33.2,9.654,33.67.6,28.25.038c-5.474-.564-5.787,5.237-9.062,12.319-.451.975-.9,1.856-1.345,2.668A13.169,13.169,0,0,1,6.289,21.871H0V48.593H10.356a13.136,13.136,0,0,1,7.837,2.674,18.983,18.983,0,0,0,11.386,3.771H48.036V40.815a19.158,19.158,0,0,0,0-9.722Z" fill="#ffdf5b" stroke="#000" stroke-linecap="round" stroke-linejoin="round" stroke-width="3"/>
              <path id="패스_42589" data-name="패스 42589" d="M20.777,5.343c0,4.949-4.651,5.343-10.389,5.343S0,10.292,0,5.343,4.651,0,10.388,0,20.777.394,20.777,5.343Z" transform="translate(36.502 16.752)" fill="#ffdf5b" stroke="#000" stroke-linecap="round" stroke-linejoin="round" stroke-width="3"/>
              <path id="패스_42591" data-name="패스 42591" d="M20.777,5.343c0,4.949-4.651,5.343-10.389,5.343S0,10.292,0,5.343,4.651,0,10.388,0,20.777.394,20.777,5.343Z" transform="translate(36.502 44.352)" fill="#ffdf5b" stroke="#000" stroke-linecap="round" stroke-linejoin="round" stroke-width="3"/>
              <path id="패스_42593" data-name="패스 42593" d="M25.415,5c0,4.628-5.689,5-12.708,5S0,9.623,0,5,5.689,0,12.707,0,25.415.367,25.415,5Z" transform="translate(36.502 35.633)" fill="#ffdf5b" stroke="#000" stroke-linecap="round" stroke-linejoin="round" stroke-width="3"/>
              <path id="패스_42595" data-name="패스 42595" d="M25.415,5c0,4.628-5.689,5-12.708,5S0,9.623,0,5,5.689,0,12.707,0,25.415.368,25.415,5Z" transform="translate(36.502 25.768)" fill="#ffdf5b" stroke="#000" stroke-linecap="round" stroke-linejoin="round" stroke-width="3"/>
              <path id="패스_42598" data-name="패스 42598" d="M6.766,0S10.349,10.533,0,16.581" transform="translate(23.461 16.753)" fill="#ffdf5b" stroke="#000" stroke-linecap="round" stroke-linejoin="round" stroke-width="3"/>
            </g>
          </g>
        </g>
        <path id="패스_52157" data-name="패스 52157" d="M10.507.654l1,4.63a8.991,8.991,0,0,0,6.277,6.74l1.017.3a.828.828,0,0,1,0,1.59l-1.017.3A8.992,8.992,0,0,0,11.5,20.947l-1,4.63a.828.828,0,0,1-1.619,0l-1-4.63a8.991,8.991,0,0,0-6.277-6.741L.6,13.91a.828.828,0,0,1,0-1.59l1.017-.3a8.99,8.99,0,0,0,6.277-6.74l1-4.63a.828.828,0,0,1,1.619,0" transform="translate(10.583 30.854)" fill="#ffdf5b" stroke="#000" stroke-width="2.5"/>
        <path id="패스_52159" data-name="패스 52159" d="M12.6.784l1.2,5.552a10.781,10.781,0,0,0,7.527,8.082l1.22.355a.993.993,0,0,1,0,1.906l-1.22.355a10.781,10.781,0,0,0-7.527,8.082l-1.2,5.552a.993.993,0,0,1-1.941,0l-1.2-5.552a10.78,10.78,0,0,0-7.527-8.082l-1.22-.355a.993.993,0,0,1,0-1.906l1.22-.355A10.78,10.78,0,0,0,9.462,6.336l1.2-5.552a.993.993,0,0,1,1.941,0" transform="translate(438.086 98.671)" fill="#ffdf5b" stroke="#000" stroke-width="2.5"/>
        <path id="패스_52158" data-name="패스 52158" d="M14.959.931l1.419,6.592a12.8,12.8,0,0,0,8.937,9.6l1.448.422a1.179,1.179,0,0,1,0,2.264l-1.448.421a12.8,12.8,0,0,0-8.937,9.6l-1.419,6.592a1.179,1.179,0,0,1-2.3,0l-1.419-6.592a12.8,12.8,0,0,0-8.937-9.6L.85,19.8a1.179,1.179,0,0,1,0-2.264L2.3,17.119a12.8,12.8,0,0,0,8.937-9.6L12.655.931a1.179,1.179,0,0,1,2.3,0" transform="translate(28.277 -0.001)" fill="#ffdf5b" stroke="#000" stroke-width="2.5"/>
      </g>
    </g>
  </g>
</svg>
