<?xml version="1.0" encoding="utf-8"?>
<!-- Generator: Adobe Illustrator 26.0.2, SVG Export Plug-In . SVG Version: 6.00 Build 0)  -->
<svg version="1.1" xmlns="http://www.w3.org/2000/svg" xmlns:xlink="http://www.w3.org/1999/xlink" x="0px" y="0px" viewBox="0 0 300 170" style="enable-background:new 0 0 300 170;" xml:space="preserve">
<style type="text/css">
.st0{clip-path:url(#SVGID_00000168079958567822220780000000375980225710705842_);}
.st1{fill:#080D4B;}
.st2{fill:none;stroke:#080D4B;stroke-width:3;stroke-linecap:round;stroke-linejoin:round;}
.st3{fill:#FD7CBB;}
.st4{fill:none;stroke:#080D4B;stroke-width:2;stroke-linecap:round;stroke-linejoin:round;}
.st5{fill:#2ECFFF;}
.st6{fill:none;stroke:#000000;stroke-width:2;stroke-linecap:round;stroke-linejoin:round;}
.st7{fill:#FFFFFF;}
.st8{fill:#2FF483;stroke:#000000;stroke-width:2;}
.st9{fill:#FEEB00;}
.st10{enable-background:new;}

.clap {animation:clap both infinite 2s;}
.c2 {animation-delay:0.6s;}
.c3 {animation-delay:0.4s;}

@keyframes clap {
0% {opacity:0;}
30% {opacity:1;}
60% {opacity:1;}
100% {opacity:0;}
}

#clap_h1 {animation:clap_h1 both infinite 0.9s;transform-origin: 52% 70%;}
@keyframes clap_h1 {
0% {transform:translate(0,0) scale(1);}
25% {transform:translate(0,0) scale(0.92);}
50% {transform:translate(0,0) scale(1);}
75% {transform:translate(0,0) scale(0.92);}
100% {transform:translate(0,0) scale(1);}
}

#clap_h2 {animation:clap_h2 both infinite 0.9s;transform-origin: 5% 70%}
@keyframes clap_h2 {
0% {transform:translate(0,0) scale(1);}
25% {transform:translate(0,0) scale(1.03);}
50% {transform:translate(0,0) scale(1);}
75% {transform:translate(0,0) scale(1.03);}
100% {transform:translate(0,0) scale(1);}
}

#arrow {animation:arrow both linear infinite 1s;transform-origin:10% 50%;}
@keyframes arrow {
0% {transform:translate(0,0);}
50% {transform:translate(2%,2%);}
100% {transform:translate(0,0);}
}

#balloon {animation:balloon both linear infinite 3s;transform-origin:70% 50%;}
@keyframes balloon {
0% {transform:translate(0,0);}
10% {transform:translate(0%,2%);}
20% {transform:translate(0,0);}
30% {transform:translate(0,0);}
40% {transform:translate(0%,2%);}
50% {transform:translate(0,0);}
100% {transform:translate(0,0);}
}
</style>
<g id="bg">
	<g>
		<g id="Group_109508" transform="translate(0 -4.893)">
			<g>
				<defs>
					<rect id="SVGID_1_" x="18.67" y="75.69" width="261.59" height="97.64"/>
				</defs>
				<clipPath id="SVGID_00000142896899548135898440000005229752600703154091_">
					<use xlink:href="#SVGID_1_"  style="overflow:visible;"/>
				</clipPath>
				
					<g id="" transform="translate(0 4.893)" style="">
					<path id="Path_36413_00000109004708264785054000000006671050545110233746_" class="st1" d="M149.47,167.01
						c-45.27,0-88.6-4.15-122.01-11.67l-7.36-1.66V88.42l7.36-1.66c33.41-7.53,76.74-11.67,122.01-11.67s88.6,4.14,122.01,11.67
						l7.36,1.66v65.26l-7.36,1.66C238.06,162.86,194.73,167.01,149.47,167.01"/>
					<path id="Path_36414_00000006704276500760852120000012692021616356225437_" class="st2" d="M149.47,167.01
						c-45.27,0-88.6-4.15-122.01-11.67l-7.36-1.66V88.42l7.36-1.66c33.41-7.53,76.74-11.67,122.01-11.67s88.6,4.14,122.01,11.67
						l7.36,1.66v65.26l-7.36,1.66C238.07,162.86,194.74,167.01,149.47,167.01z"/>
					<path id="Path_36415_00000172411492363666259850000004278542666309642172_" class="st3" d="M149.47,164.15
						c-45.27,0-88.6-4.15-122.01-11.67l-7.36-1.66V85.56l7.36-1.66c33.41-7.53,76.74-11.67,122.01-11.67s88.6,4.15,122.01,11.67
						l7.36,1.66v65.26l-7.36,1.66C238.06,160,194.73,164.15,149.47,164.15"/>
					<path id="Path_36416_00000109030425997241481490000003007769058838290365_" class="st4" d="M149.47,164.15
						c-45.27,0-88.6-4.15-122.01-11.67l-7.36-1.66V85.56l7.36-1.66c33.41-7.53,76.74-11.67,122.01-11.67s88.6,4.15,122.01,11.67
						l7.36,1.66v65.26l-7.36,1.66C238.07,160,194.74,164.15,149.47,164.15z"/>
					<path id="Path_36417_00000004535472349571077460000008712091260974566328_" class="st5" d="M149.47,81.66
						c-46.29,0-88.41,4.34-119.93,11.44v50.17c31.52,7.1,73.64,11.44,119.93,11.44s88.41-4.34,119.93-11.44V93.11
						C237.88,86.01,195.76,81.66,149.47,81.66"/>
					<path id="Path_36418_00000000911048058696468340000000719989715036131976_" class="st6" d="M149.47,81.66
						c-46.29,0-88.41,4.34-119.93,11.44v50.17c31.52,7.1,73.64,11.44,119.93,11.44s88.41-4.34,119.93-11.44V93.11
						C237.88,86,195.76,81.66,149.47,81.66z"/>
				</g>
			</g>
		</g>
		<path d="M59.29,119.17c-4.61,0-7.49-3.06-7.49-8.5c0-5.43,2.88-8.46,7.49-8.46s7.49,3.02,7.49,8.46S63.9,119.17,59.29,119.17z
			 M82.61,126.72c0,4.86-6.3,6.59-14.25,6.59s-14.25-1.73-14.25-6.59s6.3-6.59,14.25-6.59S82.61,121.87,82.61,126.72z M59.29,114.31
			c1.3,0,1.91-1.26,1.91-3.64s-0.61-3.6-1.91-3.6c-1.26,0-1.91,1.22-1.91,3.6C57.38,113.05,58.03,114.31,59.29,114.31z
			 M76.14,126.72c0-1.33-3.53-1.8-7.78-1.8s-7.77,0.47-7.77,1.8c0,1.37,3.53,1.8,7.77,1.8S76.14,128.09,76.14,126.72z M74.08,119.09
			h-5.62v-16.74h5.62v5.22h2.56v-5.36h5.69v17.89h-5.69v-6.84h-2.56V119.09z"/>
		<path d="M116.56,114.23v4.36h-31.1v-4.36h10.29v-1.87h-8.42v-4.25h21.31v-1.55H87.33v-4.36h27.36v10.94h-6.05v-0.79h-6.77v1.87
			h14.69V114.23z M93.24,129.17h21.85v3.78H87.3v-8.1h21.53v-1.12h-21.6v-3.74h27.54v8.06H93.24V129.17z"/>
		<path d="M214.55,118.09v4.64h-31.1v-4.64H214.55z M185.11,124.1h27.64v9.21h-6.16v-4.57H185.1v-4.64H185.11z M213.04,116.72
			h-27.68v-14.51h27.32v4.03h-21.31v1.44h20.81v3.6h-20.81v1.44h21.67V116.72z"/>
		<path d="M218.05,102.93h17.39v8.31c0,12.49-6.73,20.27-17.39,20.27v-5.76c7.38-0.07,11.2-5.51,11.2-14.51v-2.77h-11.2V102.93z
			 M249.65,119.35h-3.6v13.61h-6.08v-30.74h6.08v11.23h3.6V119.35z"/>
	</g>
</g>
<g id="h3">
	<g id="clap_h1">
		<g>
			<path d="M136.45,100.17c0,0-0.71-3.11,2.6-3.8c0,0,1.41-0.8,3.36,0.69c0,0,5.7,3.42,11.29,12.34c0,0,0.33-2.91,2.44-4.26
				c0,0,1.57-1.35,2.66-0.28c0,0,0.65,1.28,1.19,2.08c0,0,4.94,6.94,6.68,10.57c0,0,2.55,3.2,2.6,9.45c0,0,0.31,6.03-1.61,10.25
				s-0.24,0-0.24,0s-4.59,10.1-14.25,10.26c0,0-7.38,0.11-13.19-5.29c0,0-11.56-14.47-13.3-21.73c0,0-0.92-4.7,1.74-4.91
				c0,0,0.92-0.32,1.57,0c0,0-3.4-3.58-3.47-5.18c0,0-1.15-4.57,2.05-5.22c0,0,0.54-0.33,1.85,0.47c0,0-1.79-1.98-0.98-4.49
				c0,0,0.05-2.03,3.15-2.35C132.6,98.77,134.88,98.32,136.45,100.17z"/>
			<path class="st7" d="M158.21,107c0,0,1.41,2.88,2.84,4.39c0,0,6.06,7.79,6.6,16.86c0,0,0.87,11-9.44,15.86
				c0,0-9.17,4.38-16.28-2.51c0,0-11.34-13.35-13.57-20.29c0,0-1.19-3.58,0.87-4.43c0,0,1.14-0.59,2.06,0.27
				c0.92,0.85,7.49,11.16,7.49,11.16s0.76,0.75,1.3,0.16c0.54-0.59-0.81-2.56-2.66-5.34c0,0-6.13-8.49-8.85-11.43
				c0,0-1.63-3.26,0.05-4.7c0,0,0.87-0.91,3.04,0.64c0,0,2.88,1.98,11.78,14.36c0,0,1.47,0.85,0.92-1.12c0,0-5.26-8.81-12.64-15.43
				c0,0-1.63-1.33-1.19-3.74c0,0,0.49-1.79,2.93-1.54c0,0,0.49-0.71,5.48,4.42c0,0,5.59,6.25,10.09,13.99c0,0,1.09,0.59,1.3-0.59
				c0,0,0.38-0.59-2.12-4.22c-2.5-3.63-6.17-9.18-9.7-12.06c0,0-1.85-2.21-0.43-3.35c0,0,1.09-1.09,2.44-0.71
				c0,0,2.08,0.43,7.25,6.57c0,0,8.7,11.64,11.25,17.84c0,0,1.57,1.87,1.68,0.16c0,0-2.17-5.39-4.5-8.49c0,0-1.95-3.52-0.38-5.87
				C155.83,107.85,157.07,105.23,158.21,107z"/>
		</g>
	</g>
</g>
<g id="h2">
	<g id="clap_h2">
		<g>
			<path d="M143.69,97.33c0,0-0.72-3.23,2.67-3.96c0,0,1.44-0.83,3.44,0.72c0,0,5.83,3.56,11.56,12.83c0,0,0.33-3.03,2.5-4.43
				c0,0,1.61-1.4,2.72-0.29c0,0,0.67,1.33,1.22,2.17c0,0,5.06,7.22,6.83,11c0,0,2.61,3.33,2.67,9.83c0,0,0.31,6.28-1.65,10.67
				c-1.96,4.39,0,0,0,0s-4.96,10.5-14.85,10.67c0,0-7.56,0.11-13.5-5.5c0,0-11.83-15.06-13.61-22.61c0,0-0.94-4.89,1.78-5.11
				c0,0,0.94-0.33,1.61,0c0,0-3.48-3.72-3.55-5.39c0,0-1.17-4.75,2.1-5.43c0,0,0.56-0.35,1.89,0.49c0,0-1.83-2.06-1-4.67
				c0,0,0.06-2.11,3.22-2.44C139.75,95.88,142.08,95.4,143.69,97.33z"/>
			<path class="st7" d="M165.97,104.43c0,0,1.44,3,2.91,4.57c0,0,6.2,8.1,6.76,17.54c0,0,0.89,11.44-9.67,16.5
				c0,0-9.39,4.56-16.67-2.61c0,0-11.61-13.89-13.89-21.11c0,0-1.22-3.72,0.89-4.61c0,0,1.17-0.61,2.11,0.28s7.67,11.61,7.67,11.61
				s0.78,0.78,1.33,0.17s-0.83-2.67-2.72-5.56c0,0-6.28-8.83-9.06-11.89c0,0-1.67-3.39,0.06-4.89c0,0,0.89-0.94,3.11,0.67
				c0,0,2.94,2.06,12.06,14.94c0,0,1.5,0.89,0.94-1.17c0,0-5.39-9.17-12.94-16.06c0,0-1.67-1.39-1.22-3.89c0,0,0.5-1.86,3-1.6
				c0,0,0.5-0.73,5.61,4.6c0,0,5.72,6.5,10.33,14.56c0,0,1.11,0.61,1.33-0.61c0,0,0.39-0.61-2.17-4.39s-6.33-9.56-9.94-12.56
				c0,0-1.89-2.29-0.44-3.48c0,0,1.11-1.13,2.5-0.74c0,0,2.13,0.44,7.42,6.83c0,0,8.91,12.11,11.52,18.56c0,0,1.61,1.94,1.72,0.17
				c0,0-2.22-5.61-4.61-8.83c0,0-2-3.67-0.39-6.11C163.53,105.32,164.8,102.6,165.97,104.43z"/>
		</g>
	</g>
</g>
<g id="h1">
	<g id="clap">
		<path class="clap c1" d="M160.57,93.63l1.37-7.87c0,0-0.16-1.48,1.4-1.15c0,0,2.86,0.49,4.92,3.59c0,0,0.26,0.48-0.6,1.15
			c-0.87,0.66-6.62,4.64-6.62,4.64S160.45,94.34,160.57,93.63z"/>
		<path class="clap c2" d="M164.1,96.89l4.88-4.31c0,0,0.66-1.01,1.44-0.07c0,0,1.48,1.64,1.13,4.56c0,0-0.09,0.43-0.95,0.43
			c-0.86,0.01-6.39-0.19-6.39-0.19S163.66,97.26,164.1,96.89z"/>
		<path class="clap c3" d="M156.41,93.57l-3.82-4.72c0,0-0.94-0.65,0.07-1.39c0,0,1.78-1.44,4.65-1.11c0,0,0.42,0.09,0.34,0.92s-0.79,6.2-0.79,6.2
			S156.75,93.99,156.41,93.57z"/>
	</g>
</g>
<g id="arrow_00000007418666659673653920000015000680239581487019_">
	<g id="arrow">
		<path id="Path_36562" class="st8" d="M9.89,67.84L1.38,81.4l20.57,12.91l-4.57,7.28l27.48-2.34l-9.83-25.77l-4.57,7.28L9.89,67.84
			z"/>
	</g>
</g>
<g id="balloon">
	<g id="ball">
		<g>
			<path id="Path_36386" class="st9" d="M277.54,55.22l-77.63,28.3c-4.18,1.51-8.8-0.65-10.31-4.83l-14.39-38.57
				c-1.51-4.18,0.65-8.8,4.83-10.31l77.63-28.3c4.18-1.51,8.8,0.65,10.31,4.83l14.39,38.58C283.89,49.1,281.72,53.71,277.54,55.22"
				/>
			<path id="Path_36387" class="st6" d="M276.54,55.22l-76.63,28.3c-4.18,1.51-8.8-0.65-10.31-4.83l-14.39-38.57
				c-1.51-4.18,0.65-8.8,4.83-10.31l76.63-28.3c4.18-1.51,8.8,0.65,10.31,4.83l14.39,38.58C282.88,49.1,280.72,53.71,276.54,55.22z"
				/>
			<path id="Path_36409" class="st9" d="M213.81,73.42l-3.33,17.44c-0.3,1.59,2.05,2.7,2.93,1.39l15.34-23.11"/>
			<path id="Path_36410" class="st6" d="M213.81,73.42l-3.33,17.44c-0.3,1.59,2.05,2.7,2.93,1.39l15.34-23.11"/>
			<g class="st10">
				<path d="M214.59,36.71c0.97,2.67,0.23,4.84-1.6,5.5c-1.83,0.67-3.79-0.51-4.77-3.18c-0.97-2.66-0.21-4.81,1.62-5.48
					C211.67,32.88,213.63,34.05,214.59,36.71z M209.9,38.42c0.66,1.8,1.62,2.54,2.52,2.21c0.89-0.33,1.16-1.51,0.51-3.32
					c-0.65-1.79-1.62-2.53-2.52-2.2C209.51,35.44,209.24,36.63,209.9,38.42z M216.04,30.32l4.43,12.16l-1.74,0.63l-4.43-12.16
					L216.04,30.32z"/>
				<path d="M226.59,34.5l-5.73,2.08l-2.28-6.27l1.72-0.63l0.67,1.84l2.3-0.84l-0.67-1.83l1.7-0.62l0.88,2.41l2.16-0.79l-1.17-3.21
					l1.74-0.63l3.25,8.94l-1.74,0.63l-1.58-4.33l-2.16,0.79L226.59,34.5z M223.77,32.03l-2.3,0.84l0.62,1.71l2.3-0.84L223.77,32.03z
					 M232.01,36.45l0.5,1.38l-8.27,3.01l-1.39-3.83l1.74-0.63l0.89,2.45L232.01,36.45z"/>
				<path d="M238.14,28.13c0.97,2.67,0.23,4.84-1.6,5.5s-3.79-0.51-4.77-3.18c-0.97-2.66-0.21-4.81,1.62-5.48
					S237.18,25.48,238.14,28.13z M233.45,29.84c0.66,1.8,1.62,2.54,2.52,2.21c0.89-0.33,1.16-1.51,0.51-3.31
					c-0.65-1.79-1.62-2.53-2.52-2.2C233.06,26.87,232.79,28.05,233.45,29.84z M239.59,21.75l4.43,12.16l-1.74,0.63l-4.43-12.16
					L239.59,21.75z"/>
			</g>
			<g class="st10">
				<path d="M199.84,56.68l5.79-2.11l2.92,8.03l-5.79,2.11L199.84,56.68z M203.98,62.72l2.37-0.86l-1.93-5.29l-2.37,0.86
					L203.98,62.72z M212.5,57.58l-1.76,0.64l2.23,6.12l-1.74,0.63l-4.41-12.11l1.74-0.63l1.66,4.55l1.76-0.64L212.5,57.58z"/>
				<path d="M216.71,52.95c0.72,1.97,2.45,3.71,4.79,3.82l-0.45,1.71c-1.63-0.09-3.02-0.93-4.09-2.19c0.04,1.78-0.46,3.46-1.64,4.62
					l-1.49-1.02c1.7-1.65,1.87-4.23,1.12-6.3l-0.24-0.67l-2.53,0.92l-0.52-1.44l6.79-2.47l0.52,1.44l-2.5,0.91L216.71,52.95z
					 M220.87,47.73l4.41,12.12l-1.74,0.63l-4.41-12.12L220.87,47.73z"/>
				<path d="M231.11,51.38l-5.78,2.1l-2.06-5.66l5.78-2.1L231.11,51.38z M227.84,47.72l-2.37,0.86l1.06,2.92l2.37-0.86L227.84,47.72
					z M226.87,54.3l8.1-2.95l1.6,4.41l-1.74,0.63l-1.1-3.03l-6.36,2.31L226.87,54.3z M235.32,47.35l-1.61,0.58l1.05,2.88l-1.74,0.63
					l-2.62-7.19l1.74-0.63l1.05,2.88l1.61-0.58L235.32,47.35z"/>
				<path d="M243.98,40.74c1.35,3.71,1.2,7.19-2.34,10.84l-1.41-1.04c2.55-2.61,3.21-5,2.48-7.77l-4.04,1.47l-0.5-1.38L243.98,40.74
					z M247.13,38.16l4.41,12.12l-1.75,0.64l-4.41-12.12L247.13,38.16z"/>
				<path d="M257.38,37.5l-7.28,2.65l-0.49-1.36l2.78-1.01l-0.47-1.3l1.74-0.63l0.47,1.3l2.76-1.01L257.38,37.5z M256.76,44.42
					c0.96-0.42,1.93-0.85,2.83-1.33l0.59,1.22c-2.47,1.45-5.27,2.48-7.41,3.26l-0.72-1.33c0.91-0.33,1.93-0.7,3-1.12l-0.37-1.03
					c-1.39,0.22-2.53-0.29-2.95-1.42c-0.49-1.35,0.41-2.73,2.19-3.37c1.76-0.64,3.34-0.17,3.83,1.18c0.41,1.13-0.13,2.25-1.33,2.97
					L256.76,44.42z M255.1,42.55c0.82-0.3,1.23-0.84,1-1.47c-0.22-0.62-0.89-0.76-1.71-0.47c-0.8,0.29-1.23,0.84-1.01,1.45
					C253.62,42.7,254.29,42.84,255.1,42.55z M258.92,33.88L263.33,46l-1.74,0.63l-4.41-12.12L258.92,33.88z"/>
			</g>
		</g>
	</g>
</g>
</svg>
