<?xml version="1.0" encoding="utf-8"?>
<!-- Generator: Adobe Illustrator 26.1.0, SVG Export Plug-In . SVG Version: 6.00 Build 0)  -->
<svg version="1.1" id="Layer_1" xmlns="http://www.w3.org/2000/svg" xmlns:xlink="http://www.w3.org/1999/xlink" x="0px" y="0px" viewBox="0 0 419.2 102.9" style="enable-background:new 0 0 419.2 102.9;" xml:space="preserve">
<style type="text/css">
.st0{enable-background:new    ;}
.st1{fill:#2FF583;}
.st2{fill:none;stroke:#000000;stroke-width:1.5;}
.st3{fill:#FFFFFF;stroke:#1D1D1B;stroke-width:1.5;stroke-linecap:round;stroke-linejoin:round;stroke-miterlimit:10;}

.star {position:relative;animation:star both infinite 4s;}
.star.s1 {transform-origin:3% 42%;}
.star.s2 {transform-origin:10% 16%;animation-delay:0.5s;}
.star.s3 {transform-origin:95% 84.5%;animation-delay:0.7s;}
	
@keyframes star {
0% {transform:scale(0.4);opacity:0;}	
20% {transform:scale(1.1);opacity:1;}
40% {transform:scale(0.6);}	
58% {transform:scale(1);}
100% {transform:scale(1);}
}
</style>
<g id="이미지_885" transform="translate(26.471)">
</g>
<g id="이미지_885-2" transform="translate(0 28.06)">
</g>
<g id="이미지_885-3" transform="translate(391.655 69.706) scale(1.04 1.04)">
</g>
<g class="st0">
	<path d="M43.5,45h7L64,66.9L77.5,45h7v39.1h-8.7V62.6l-9.1,15h-5.3l-9.1-15v21.5h-8.7V45H43.5z"/>
	<path d="M90.2,45h15.2c13,0,21,8,21,19.6s-8,19.5-21,19.5H90.2V45z M105.5,76.4c7.5,0,12.1-4.3,12.1-11.8s-4.6-11.9-12.1-11.9h-6.6
		v23.7C98.9,76.4,105.5,76.4,105.5,76.4z"/>
	<path d="M182.9,77h-16.6v8.7H158V77h-16.6v-7.4h41.5L182.9,77L182.9,77z M161.1,61.4c-4.5,3.5-11,5.6-18.2,5.7v-7.4
		c6.2-0.2,11.9-2.4,14.3-6h-13.4v-7.3H158v-3.6h8.4v3.6h14.4v7.3h-14.2c-0.1,0.6-0.4,1.2-0.6,1.8l16.2,4.7l-2.4,7L161.1,61.4z"/>
	<path d="M187.2,69.8v-7.1c5.3-0.5,8.7-4.3,9.6-8.7h-9.1v-6.8h9V43h8.3v4.2h9v5.5h4.2v-9h8.1v30.5h-8.1v-14h-5.4V54h-7.9
		c-0.1,1.1-0.3,2.1-0.7,3.1l11,6.4l-4,6l-10.5-6.3C197.6,67,192.8,69.7,187.2,69.8z M226.9,77.6v7.2h-37.3V72h8.3v5.6H226.9z"/>
	<path d="M244.2,68.5V61c6.5-0.8,11-8,11.1-17l8.2,0.5c0,3.3-0.6,6.5-1.6,9.4l11.8,8.4l-4.8,5.8l-10.4-7.7
		C255,65,250,68.2,244.2,68.5z M283.9,77.5v7.3h-37.3V70.4h8.3v7.1H283.9z M283.3,74.1h-8.1V43.8h8.1V74.1z"/>
	<path d="M288.6,66.1v-7.2c6.5-0.8,10.8-6.8,10.9-14.9l8.2,0.5c0,2.7-0.4,5.3-1.3,7.7l11.1,7.1l-4.1,5.9l-10.3-6.8
		C299.7,62.8,294.6,65.8,288.6,66.1z M327.5,76.1c0,6.8-8.2,9.2-18.5,9.2s-18.5-2.4-18.5-9.2s8.2-9.2,18.5-9.2
		S327.5,69.3,327.5,76.1z M318.8,76.1c0-1.9-4.3-2.7-9.7-2.7s-9.7,0.8-9.7,2.7c0,2,4.3,2.7,9.7,2.7S318.8,78,318.8,76.1z
		 M331.9,50.1v7.7h-4.8v8.5H319V43.8h8.1v6.3H331.9z"/>
	<path d="M358.4,68.2v2.2h14.3v14.4H336V70.4h14.3v-2.2h-16.7v-6.1h41.5v6.1C375.1,68.2,358.4,68.2,358.4,68.2z M373,60.2h-37.3
		v-6.1h6.3v-4.3h-5.9v-6.1h36.4v6.1h-5.9v4.3h6.3v6.1H373z M364.7,76.4H344v2.4h20.6v-2.4H364.7z M350.1,54.1h8.5v-4.3h-8.5V54.1z"
		/>
</g>
<g class="st0">
	<path d="M43.5,45h7L64,66.9L77.5,45h7v39.1h-8.7V62.6l-9.1,15h-5.3l-9.1-15v21.5h-8.7V45H43.5z"/>
	<path d="M90.2,45h15.2c13,0,21,8,21,19.6s-8,19.5-21,19.5H90.2V45z M105.5,76.4c7.5,0,12.1-4.3,12.1-11.8s-4.6-11.9-12.1-11.9h-6.6
		v23.7C98.9,76.4,105.5,76.4,105.5,76.4z"/>
	<path d="M182.9,77h-16.6v8.7H158V77h-16.6v-7.4h41.5L182.9,77L182.9,77z M161.1,61.4c-4.5,3.5-11,5.6-18.2,5.7v-7.4
		c6.2-0.2,11.9-2.4,14.3-6h-13.4v-7.3H158v-3.6h8.4v3.6h14.4v7.3h-14.2c-0.1,0.6-0.4,1.2-0.6,1.8l16.2,4.7l-2.4,7L161.1,61.4z"/>
	<path d="M187.2,69.8v-7.1c5.3-0.5,8.7-4.3,9.6-8.7h-9.1v-6.8h9V43h8.3v4.2h9v5.5h4.2v-9h8.1v30.5h-8.1v-14h-5.4V54h-7.9
		c-0.1,1.1-0.3,2.1-0.7,3.1l11,6.4l-4,6l-10.5-6.3C197.6,67,192.8,69.7,187.2,69.8z M226.9,77.6v7.2h-37.3V72h8.3v5.6H226.9z"/>
	<path d="M244.2,68.5V61c6.5-0.8,11-8,11.1-17l8.2,0.5c0,3.3-0.6,6.5-1.6,9.4l11.8,8.4l-4.8,5.8l-10.4-7.7
		C255,65,250,68.2,244.2,68.5z M283.9,77.5v7.3h-37.3V70.4h8.3v7.1H283.9z M283.3,74.1h-8.1V43.8h8.1V74.1z"/>
	<path d="M288.6,66.1v-7.2c6.5-0.8,10.8-6.8,10.9-14.9l8.2,0.5c0,2.7-0.4,5.3-1.3,7.7l11.1,7.1l-4.1,5.9l-10.3-6.8
		C299.7,62.8,294.6,65.8,288.6,66.1z M327.5,76.1c0,6.8-8.2,9.2-18.5,9.2s-18.5-2.4-18.5-9.2s8.2-9.2,18.5-9.2
		S327.5,69.3,327.5,76.1z M318.8,76.1c0-1.9-4.3-2.7-9.7-2.7s-9.7,0.8-9.7,2.7c0,2,4.3,2.7,9.7,2.7S318.8,78,318.8,76.1z
		 M331.9,50.1v7.7h-4.8v8.5H319V43.8h8.1v6.3H331.9z"/>
	<path d="M358.4,68.2v2.2h14.3v14.4H336V70.4h14.3v-2.2h-16.7v-6.1h41.5v6.1C375.1,68.2,358.4,68.2,358.4,68.2z M373,60.2h-37.3
		v-6.1h6.3v-4.3h-5.9v-6.1h36.4v6.1h-5.9v4.3h6.3v6.1H373z M364.7,76.4H344v2.4h20.6v-2.4H364.7z M350.1,54.1h8.5v-4.3h-8.5V54.1z"
		/>
</g>
<g class="st0">
	<path class="st1" d="M41.5,43h7L62,64.9L75.5,43h7v39.1h-8.7V60.6l-9.1,15h-5.3l-9.1-15v21.5h-8.7V43H41.5z"/>
	<path class="st1" d="M88.2,43h15.2c13,0,21,8,21,19.6s-8,19.5-21,19.5H88.2V43z M103.5,74.4c7.5,0,12.1-4.3,12.1-11.8
		s-4.6-11.9-12.1-11.9h-6.6v23.7C96.9,74.4,103.5,74.4,103.5,74.4z"/>
	<path class="st1" d="M180.9,75h-16.6v8.7H156V75h-16.6v-7.4h41.5L180.9,75L180.9,75z M159.1,59.4c-4.5,3.5-11,5.6-18.2,5.7v-7.4
		c6.2-0.2,11.9-2.4,14.3-6h-13.4v-7.3H156v-3.6h8.4v3.6h14.4v7.3h-14.2c-0.1,0.6-0.4,1.2-0.6,1.8l16.2,4.7l-2.4,7L159.1,59.4z"/>
	<path class="st1" d="M185.2,67.8v-7.1c5.3-0.5,8.7-4.3,9.6-8.7h-9.1v-6.8h9V41h8.3v4.2h9v5.5h4.2v-9h8.1v30.5h-8.1v-14h-5.4V52
		h-7.9c-0.1,1.1-0.3,2.1-0.7,3.1l11,6.4l-4,6l-10.5-6.3C195.6,65,190.8,67.7,185.2,67.8z M224.9,75.6v7.2h-37.3V70h8.3v5.6H224.9z"
		/>
	<path class="st1" d="M242.2,66.5V59c6.5-0.8,11-8,11.1-17l8.2,0.5c0,3.3-0.6,6.5-1.6,9.4l11.8,8.4l-4.8,5.8l-10.4-7.7
		C253,63,248,66.2,242.2,66.5z M281.9,75.5v7.3h-37.3V68.4h8.3v7.1H281.9z M281.3,72.1h-8.1V41.8h8.1V72.1z"/>
	<path class="st1" d="M286.6,64.1v-7.2c6.5-0.8,10.8-6.8,10.9-14.9l8.2,0.5c0,2.7-0.4,5.3-1.3,7.7l11.1,7.1l-4.1,5.9l-10.3-6.8
		C297.7,60.8,292.6,63.8,286.6,64.1z M325.5,74.1c0,6.8-8.2,9.2-18.5,9.2s-18.5-2.4-18.5-9.2s8.2-9.2,18.5-9.2
		S325.5,67.3,325.5,74.1z M316.8,74.1c0-1.9-4.3-2.7-9.7-2.7s-9.7,0.8-9.7,2.7c0,2,4.3,2.7,9.7,2.7S316.8,76,316.8,74.1z
		 M329.9,48.1v7.7h-4.8v8.5H317V41.8h8.1v6.3H329.9z"/>
	<path class="st1" d="M356.4,66.2v2.2h14.3v14.4H334V68.4h14.3v-2.2h-16.7v-6.1h41.5v6.1C373.1,66.2,356.4,66.2,356.4,66.2z
		 M371,58.2h-37.3v-6.1h6.3v-4.3h-5.9v-6.1h36.4v6.1h-5.9v4.3h6.3v6.1H371z M362.7,74.4H342v2.4h20.6v-2.4H362.7z M348.1,52.1h8.5
		v-4.3h-8.5V52.1z"/>
</g>
<g class="st0">
	<path class="st2" d="M41.5,43h7L62,64.9L75.5,43h7v39.1h-8.7V60.6l-9.1,15h-5.3l-9.1-15v21.5h-8.7V43H41.5z"/>
	<path class="st2" d="M88.2,43h15.2c13,0,21,8,21,19.6s-8,19.5-21,19.5H88.2V43z M103.5,74.4c7.5,0,12.1-4.3,12.1-11.8
		s-4.6-11.9-12.1-11.9h-6.6v23.7C96.9,74.4,103.5,74.4,103.5,74.4z"/>
	<path class="st2" d="M180.9,75h-16.6v8.7H156V75h-16.6v-7.4h41.5L180.9,75L180.9,75z M159.1,59.4c-4.5,3.5-11,5.6-18.2,5.7v-7.4
		c6.2-0.2,11.9-2.4,14.3-6h-13.4v-7.3H156v-3.6h8.4v3.6h14.4v7.3h-14.2c-0.1,0.6-0.4,1.2-0.6,1.8l16.2,4.7l-2.4,7L159.1,59.4z"/>
	<path class="st2" d="M185.2,67.8v-7.1c5.3-0.5,8.7-4.3,9.6-8.7h-9.1v-6.8h9V41h8.3v4.2h9v5.5h4.2v-9h8.1v30.5h-8.1v-14h-5.4V52
		h-7.9c-0.1,1.1-0.3,2.1-0.7,3.1l11,6.4l-4,6l-10.5-6.3C195.6,65,190.8,67.7,185.2,67.8z M224.9,75.6v7.2h-37.3V70h8.3v5.6H224.9z"
		/>
	<path class="st2" d="M242.2,66.5V59c6.5-0.8,11-8,11.1-17l8.2,0.5c0,3.3-0.6,6.5-1.6,9.4l11.8,8.4l-4.8,5.8l-10.4-7.7
		C253,63,248,66.2,242.2,66.5z M281.9,75.5v7.3h-37.3V68.4h8.3v7.1H281.9z M281.3,72.1h-8.1V41.8h8.1V72.1z"/>
	<path class="st2" d="M286.6,64.1v-7.2c6.5-0.8,10.8-6.8,10.9-14.9l8.2,0.5c0,2.7-0.4,5.3-1.3,7.7l11.1,7.1l-4.1,5.9l-10.3-6.8
		C297.7,60.8,292.6,63.8,286.6,64.1z M325.5,74.1c0,6.8-8.2,9.2-18.5,9.2s-18.5-2.4-18.5-9.2s8.2-9.2,18.5-9.2
		S325.5,67.3,325.5,74.1z M316.8,74.1c0-1.9-4.3-2.7-9.7-2.7s-9.7,0.8-9.7,2.7c0,2,4.3,2.7,9.7,2.7S316.8,76,316.8,74.1z
		 M329.9,48.1v7.7h-4.8v8.5H317V41.8h8.1v6.3H329.9z"/>
	<path class="st2" d="M356.4,66.2v2.2h14.3v14.4H334V68.4h14.3v-2.2h-16.7v-6.1h41.5v6.1C373.1,66.2,356.4,66.2,356.4,66.2z
		 M371,58.2h-37.3v-6.1h6.3v-4.3h-5.9v-6.1h36.4v6.1h-5.9v4.3h6.3v6.1H371z M362.7,74.4H342v2.4h20.6v-2.4H362.7z M348.1,52.1h8.5
		v-4.3h-8.5V52.1z"/>
</g>
<path class="st3 star s1" d="M18.9,27.4c0,0,0.8,15.7-12.7,15.8c0,0,12.7,0,12.7,15c0,0,0.8-15.4,11.9-15.4C30.8,42.8,18.9,41.9,18.9,27.4z"/>
<path class="st3 star s2" d="M44,1.1c0,0,0.8,15.7-12.7,15.8c0,0,12.7,0,12.7,15c0,0,0.8-15.4,11.9-15.4C55.9,16.5,44,15.6,44,1.1z"/>
<path class="st3 star s3" d="M393,69.1c0,0,0.8,15.7-12.7,15.8c0,0,12.7,0,12.7,15c0,0,0.8-15.4,11.9-15.4C404.9,84.5,393,83.6,393,69.1z"/>
</svg>
