<?xml version="1.0" encoding="utf-8"?>
<!-- Generator: Adobe Illustrator 26.1.0, SVG Export Plug-In . SVG Version: 6.00 Build 0)  -->
<svg version="1.1" xmlns="http://www.w3.org/2000/svg" xmlns:xlink="http://www.w3.org/1999/xlink" x="0px" y="0px" viewBox="0 0 485 120.5" style="enable-background:new 0 0 485 120.5;" xml:space="preserve">
<style type="text/css">
.st0{enable-background:new    ;}
.st1{fill:none;stroke:#BC554F;stroke-width:1.5;stroke-miterlimit:10;}

#a1 line {animation:width both infinite 6s;}
#a2 line {animation:width2 both infinite 6s;}
#a3 line {animation:width both infinite 6s;}
#a4 line {animation:width2 both infinite 6s;}

#b1 line {animation:height both infinite 6s;}
#b2 line {animation:height2 both infinite 6s;}
#b3 line {animation:height both infinite 6s;}
#b4 line {animation:height2 both infinite 6s;}
#b5 line {animation:height both infinite 6s;}

	
#text {animation:text both infinite 6s;}

@keyframes width {
0% {transform:translateX(-100%);}
20% {transform:translateX(0%);}
100% {transform:translateX(0);}
}
@keyframes width2 {
0% {transform:translateX(100%);}
20% {transform:translateX(0%);}
100% {transform:translateX(0);}
}
@keyframes height {
10% {transform:translateY(100%);}
22% {transform:translateY(0%);}
100% {transform:translateY(0);}
}
@keyframes height2 {
10% {transform:translateY(-100%);}
22% {transform:translateY(0%);}
100% {transform:translateY(0);}
}
@keyframes text {
0% {opacity:0;}
15% {opacity:0;}
35% {opacity:1;}
95% {opacity:1;}
100% {opacity:0;}
}
</style>
	
<g id="text">
	<g class="st0">
		<path d="M123.2,66.6H115v14.1h-5.5V66.6h-7.9v14.1h-5.5V66.6h-7.8v-4.5h24.4c0.5-2,0.7-3.8,0.9-5.5l-21.9,1.1L91,53.1l22.9-0.7
			c0.1-1.4,0.1-2.7,0.1-3.9H92.3V44h27.1v3.5c0,4,0,8.4-1.3,14.7h5.1V66.6z"/>
		<path d="M184.8,67c3.7-0.1,7.1-0.3,11-0.9l0.5,4.5c-5,0.9-9.3,1-14.1,1h-2.7V56.2h8.3v-6h-8.3v-4.4h13.7v14.8h-8.3V67z
			 M198.5,42.6h5.1v36.2h-5.1V59.6h-3.8v-4.5h3.8V42.6z M211.6,41.9v38.7h-5.3V41.9H211.6z"/>
		<path d="M290,58.4c0,8.5-4.3,13.9-10.2,13.9s-10.2-5.3-10.2-13.9c0-8.5,4.3-13.8,10.2-13.8S290,49.9,290,58.4z M275,58.4
			c0,5.8,2,8.8,4.8,8.8s4.8-3.1,4.8-8.8c0-5.7-2-8.8-4.8-8.8S275,52.7,275,58.4z M300.6,41.9v38.8h-5.5V41.9H300.6z"/>
		<path d="M378.8,65.8c-4-1.6-6.8-4.6-8.4-8.3c-1.6,3.9-4.6,7.1-9,8.7l-2.9-4.3c6.4-2.3,9-7.7,9-13.3v-4.5h5.6v4.5
			c0,5.3,2.5,10.6,8.7,12.9L378.8,65.8z M391.9,75.5v4.4h-26.4V68h5.5v7.6H391.9z M385.5,58.9h-6.4v-4.5h6.4v-3h-6.4V47h6.4v-5h5.5
			v28.6h-5.5V58.9z"/>
	</g>
</g>
<g id="a1">
	<line class="st1" x1="0" y1="0.7" x2="485.3" y2="0.7"/>
</g>
<g id="a2">	
	<line class="st1" x1="0" y1="10" x2="485.3" y2="10"/>
</g>
<g id="a3">	
	<line class="st1" x1="0" y1="110.8" x2="485.3" y2="110.8"/>
</g>
<g id="a4">	
	<line class="st1" x1="0" y1="119.8" x2="485.3" y2="119.8"/>
</g>
<g id="b1">
	<line class="st1" x1="63" y1="9.8" x2="63" y2="110"/>
</g>
<g id="b2">
	<line class="st1" x1="152" y1="9.8" x2="152" y2="110"/>
</g>
<g id="b3">
	<line class="st1" x1="243" y1="9.8" x2="243" y2="110"/>
</g>
<g id="b4">
	<line class="st1" x1="334" y1="9.8" x2="334" y2="110"/>
</g>
<g id="b5">
	<line class="st1" x1="425" y1="9.8" x2="425" y2="110"/>
</g>
</svg>
