<?xml version="1.0" encoding="utf-8"?>
<!-- Generator: Adobe Illustrator 26.3.1, SVG Export Plug-In . SVG Version: 6.00 Build 0)  -->
<svg version="1.1" xmlns="http://www.w3.org/2000/svg" xmlns:xlink="http://www.w3.org/1999/xlink" x="0px" y="0px" viewBox="0 0 447 212" style="enable-background:new 0 0 447 212;" xml:space="preserve">
<style type="text/css">
.st0{fill:none;}
.st1{fill:#7281F4;stroke:#000000;stroke-width:27;}
.st2{fill:#7281F4;stroke:#F06A86;stroke-width:21;}
.st3{fill:#7281F4;stroke:#000000;stroke-width:16;}
.st4{fill:none;stroke:#000000;stroke-width:16;}
.st5{fill:#7281F4;stroke:#F06A86;stroke-width:13;}
.st6{fill:none;stroke:#F06A86;stroke-width:13;}
.st7{fill:#7281F4;stroke:#000000;stroke-width:3;}
.st8{fill:#FFF7E9;}
.st9{fill:none;stroke:#000000;stroke-width:3;stroke-linecap:round;stroke-linejoin:round;}
.st10{fill:#FCE652;}
.st11{fill:#FFFFFF;}
.st12{fill:#FCE652;stroke:#000000;stroke-width:3;stroke-linecap:round;stroke-linejoin:round;}
.st13{fill:none;stroke:#2F1600;stroke-width:1.5;stroke-linecap:round;stroke-linejoin:round;}
.st14{fill:none;stroke:#000000;stroke-width:3;}
.st15{fill:#FCE652;stroke:#000000;stroke-width:3.0004;stroke-linecap:round;stroke-linejoin:round;stroke-miterlimit:4.0005;}
.st16{fill:#7281F4;stroke:#000000;stroke-width:3;stroke-linejoin:round;stroke-miterlimit:10;}

.star {position:relative;animation:star linear infinite 2.5s;}
.star.s1 {transform-origin:20% -10%;}
.star.s2 {transform-origin:80% -10%; animation-delay:0.2s;}
.rot {transform-origin:94% 85%;animation-delay:0.7s;}

@keyframes star {
0% {transform:scale(0.4);opacity:0;}	
20% {transform:scale(1.0);opacity:1;}
40% {transform:scale(0.6);}	
58% {transform:scale(1);}
100% {transform:scale(1);}
}

.rot {position:relative;animation:rotate both linear infinite 1s;transform-origin:50% 50%;}

@keyframes rotate {
0% {transform:rotate(0deg);}
20% {transform:rotate(-3deg);}
50% {transform:rotate(0deg);}
70% {transform:rotate(3deg);}
100% {transform:rotate(0deg);}
}
</style>
<g id="레이어_1">
	<g id="그룹_116365" transform="translate(14697.699 -8870.049)">
		<rect id="사각형_22468" x="-14697.7" y="8870" class="st0" width="447" height="212"/>
		<g id="그룹_116358" transform="translate(-14680.937 8877.48)">
			<path id="합치기_202" class="st1" d="M43.5,186.2c-23.2,0-42.1-18.8-42.1-42.1c0-23.2,18.8-42.1,42.1-42.1H159
				c-11.1-18.1-11.3-40.9-0.5-59.2l-5.3,5.3c-8.6-9.1-8.2-23.5,0.9-32.1c8.7-8.3,22.4-8.3,31.1,0l-6.8,6.8
				c18.2-10.8,41-10.7,59.1,0.4l-7.2-7.2c9.1-8.6,23.5-8.2,32.1,0.9c8.3,8.7,8.3,22.4,0,31.2l-5.9-5.9c11.2,18.4,11.2,41.5-0.1,59.8
				h114.2c23.2,0,42.1,18.8,42.1,42.1c0,23.2-18.8,42.1-42.1,42.1L43.5,186.2z"/>
			<path id="합치기_201" class="st2" d="M43.5,186.2c-23.2,0-42.1-18.8-42.1-42.1c0-23.2,18.8-42.1,42.1-42.1H159
				c-11.1-18.1-11.3-40.9-0.5-59.2l-5.3,5.3c-8.6-9.1-8.2-23.5,0.9-32.1c8.7-8.3,22.4-8.3,31.1,0l-6.8,6.8
				c18.2-10.8,41-10.7,59.1,0.4l-7.2-7.2c9.1-8.6,23.5-8.2,32.1,0.9c8.3,8.7,8.3,22.4,0,31.2l-5.9-5.9c11.2,18.4,11.2,41.5-0.1,59.8
				h114.2c23.2,0,42.1,18.8,42.1,42.1c0,23.2-18.8,42.1-42.1,42.1L43.5,186.2z"/>
			<path id="패스_52252" class="st3" d="M211.3,56.1c-0.1,8.8-1.7,16-3.6,15.9c-1.9,0-3.4-7.2-3.4-16s1.7-16,3.6-15.9
				S211.4,47.3,211.3,56.1"/>
			<path id="패스_52253" class="st3" d="M207.7,73.8L207.7,73.8c-2.6,0-3.6-3.5-4.2-6.1c-0.7-3.8-1.1-7.8-1-11.7
				c0-3.9,0.4-7.8,1.2-11.7c0.6-2.6,1.7-6,4.2-6h0c2.6,0,3.6,3.5,4.2,6.1c0.7,3.8,1.1,7.8,1,11.7c0,3.9-0.4,7.8-1.1,11.7
				C211.4,70.4,210.3,73.8,207.7,73.8z"/>
			<path id="패스_52254" class="st3" d="M227.6,93.4L227.6,93.4c-0.9,0.8-2.1,1.1-3.2,0.8c-1.1-0.2-2.1-0.7-3.1-1.2
				c-2.6-1.5-4.9-3.4-6.9-5.5c-2.1-2.1-3.9-4.5-5.3-7.1c-0.5-1-0.9-2-1.1-3.1c-0.3-1.1,0-2.3,0.8-3.2l0,0c0.9-0.8,2.1-1.1,3.2-0.8
				c1.1,0.2,2.1,0.7,3.1,1.2c2.6,1.5,4.9,3.4,6.9,5.5c2.1,2.1,3.9,4.5,5.3,7.1c0.5,1,0.9,2,1.1,3.1
				C228.7,91.4,228.4,92.6,227.6,93.4z"/>
			<path id="패스_52255" class="st3" d="M213.9,72c0,3.4-2.8,6.2-6.2,6.2c-3.4,0-6.2-2.8-6.2-6.2c0-3.4,2.8-6.2,6.2-6.2
				C211.1,65.8,213.9,68.6,213.9,72z"/>
			<line id="선_844" class="st4" x1="207.7" y1="26.8" x2="207.7" y2="32.6"/>
			<line id="선_845" class="st4" x1="207.7" y1="26.8" x2="207.7" y2="32.6"/>
			<line id="선_846" class="st4" x1="185.1" y1="32.9" x2="188" y2="37.8"/>
			<line id="선_847" class="st4" x1="185.1" y1="32.9" x2="188" y2="37.8"/>
			<line id="선_848" class="st4" x1="168.6" y1="49.4" x2="173.5" y2="52.3"/>
			<line id="선_849" class="st4" x1="168.6" y1="49.4" x2="173.5" y2="52.3"/>
			<line id="선_850" class="st4" x1="162.5" y1="72" x2="168.2" y2="72"/>
			<line id="선_851" class="st4" x1="162.5" y1="72" x2="168.2" y2="72"/>
			<line id="선_852" class="st4" x1="168.6" y1="94.6" x2="173.5" y2="91.8"/>
			<line id="선_853" class="st4" x1="168.6" y1="94.6" x2="173.5" y2="91.8"/>
			<line id="선_854" class="st4" x1="183" y1="113.1" x2="186.2" y2="107.6"/>
			<line id="선_855" class="st4" x1="183" y1="113.1" x2="186.2" y2="107.6"/>
			<line id="선_856" class="st4" x1="207.7" y1="119.7" x2="207.7" y2="113.4"/>
			<line id="선_857" class="st4" x1="207.7" y1="119.7" x2="207.7" y2="113.4"/>
			<line id="선_858" class="st4" x1="232.4" y1="113.1" x2="229.2" y2="107.6"/>
			<line id="선_859" class="st4" x1="232.4" y1="113.1" x2="229.2" y2="107.6"/>
			<line id="선_860" class="st4" x1="246.9" y1="94.6" x2="241.9" y2="91.8"/>
			<line id="선_861" class="st4" x1="246.9" y1="94.6" x2="241.9" y2="91.8"/>
			<line id="선_862" class="st4" x1="252.9" y1="72" x2="247.2" y2="72"/>
			<line id="선_863" class="st4" x1="252.9" y1="72" x2="247.2" y2="72"/>
			<line id="선_864" class="st4" x1="246.9" y1="49.4" x2="241.9" y2="52.3"/>
			<line id="선_865" class="st4" x1="246.9" y1="49.4" x2="241.9" y2="52.3"/>
			<line id="선_866" class="st4" x1="230.3" y1="32.9" x2="227.5" y2="37.8"/>
			<line id="선_867" class="st4" x1="230.3" y1="32.9" x2="227.5" y2="37.8"/>
			<path id="패스_52161" class="st5" d="M253,72c0,25-20.2,45.2-45.2,45.2c-25,0-45.2-20.2-45.2-45.2c0-25,20.2-45.2,45.2-45.2
				C232.7,26.8,253,47.1,253,72"/>
			<ellipse id="타원_808" class="st5" cx="207.7" cy="72" rx="45.2" ry="45.2"/>
			<path id="패스_52162" class="st5" d="M211.3,56.1c-0.1,8.8-1.7,16-3.6,15.9c-1.9,0-3.4-7.2-3.4-16s1.7-16,3.6-15.9
				S211.4,47.3,211.3,56.1"/>
			<path id="패스_52163" class="st5" d="M207.7,73.8L207.7,73.8c-2.6,0-3.6-3.5-4.2-6.1c-0.7-3.8-1.1-7.8-1-11.7
				c0-3.9,0.4-7.8,1.2-11.7c0.6-2.6,1.7-6,4.2-6h0c2.6,0,3.6,3.5,4.2,6.1c0.7,3.8,1.1,7.8,1,11.7c0,3.9-0.4,7.8-1.1,11.7
				C211.4,70.4,210.3,73.8,207.7,73.8z"/>
			<path id="패스_52165" class="st5" d="M227.6,93.4L227.6,93.4c-0.9,0.8-2.1,1.1-3.2,0.8c-1.1-0.2-2.1-0.7-3.1-1.2
				c-2.6-1.5-4.9-3.4-6.9-5.5c-2.1-2.1-3.9-4.5-5.3-7.1c-0.5-1-0.9-2-1.1-3.1c-0.3-1.1,0-2.3,0.8-3.2l0,0c0.9-0.8,2.1-1.1,3.2-0.8
				c1.1,0.2,2.1,0.7,3.1,1.2c2.6,1.5,4.9,3.4,6.9,5.5c2.1,2.1,3.9,4.5,5.3,7.1c0.5,1,0.9,2,1.1,3.1
				C228.7,91.4,228.4,92.6,227.6,93.4z"/>
			<path id="패스_52167" class="st5" d="M213.9,72c0,3.4-2.8,6.2-6.2,6.2c-3.4,0-6.2-2.8-6.2-6.2c0-3.4,2.8-6.2,6.2-6.2
				C211.1,65.8,213.9,68.6,213.9,72z"/>
			<line id="선_820" class="st6" x1="207.7" y1="26.8" x2="207.7" y2="32.6"/>
			<line id="선_821" class="st6" x1="207.7" y1="26.8" x2="207.7" y2="32.6"/>
			<line id="선_822" class="st6" x1="185.1" y1="32.9" x2="188" y2="37.8"/>
			<line id="선_823" class="st6" x1="185.1" y1="32.9" x2="188" y2="37.8"/>
			<line id="선_824" class="st6" x1="168.6" y1="49.4" x2="173.5" y2="52.3"/>
			<line id="선_825" class="st6" x1="168.6" y1="49.4" x2="173.5" y2="52.3"/>
			<line id="선_826" class="st6" x1="162.5" y1="72" x2="168.2" y2="72"/>
			<line id="선_827" class="st6" x1="162.5" y1="72" x2="168.2" y2="72"/>
			<line id="선_828" class="st6" x1="168.6" y1="94.6" x2="173.5" y2="91.8"/>
			<line id="선_829" class="st6" x1="168.6" y1="94.6" x2="173.5" y2="91.8"/>
			<line id="선_830" class="st6" x1="183" y1="113.1" x2="186.2" y2="107.6"/>
			<line id="선_831" class="st6" x1="183" y1="113.1" x2="186.2" y2="107.6"/>
			<line id="선_832" class="st6" x1="207.7" y1="119.7" x2="207.7" y2="113.4"/>
			<line id="선_833" class="st6" x1="207.7" y1="119.7" x2="207.7" y2="113.4"/>
			<line id="선_834" class="st6" x1="232.4" y1="113.1" x2="229.2" y2="107.6"/>
			<line id="선_835" class="st6" x1="232.4" y1="113.1" x2="229.2" y2="107.6"/>
			<line id="선_836" class="st6" x1="246.9" y1="94.6" x2="241.9" y2="91.8"/>
			<line id="선_837" class="st6" x1="246.9" y1="94.6" x2="241.9" y2="91.8"/>
			<line id="선_838" class="st6" x1="252.9" y1="72" x2="247.2" y2="72"/>
			<line id="선_839" class="st6" x1="252.9" y1="72" x2="247.2" y2="72"/>
			<line id="선_840" class="st6" x1="246.9" y1="49.4" x2="241.9" y2="52.3"/>
			<line id="선_841" class="st6" x1="246.9" y1="49.4" x2="241.9" y2="52.3"/>
			<line id="선_842" class="st6" x1="230.3" y1="32.9" x2="227.5" y2="37.8"/>
			<line id="선_843" class="st6" x1="230.3" y1="32.9" x2="227.5" y2="37.8"/>
			<path id="패스_52160" class="st7" d="M264.9,72c0,31.6-25.6,57.2-57.2,57.2s-57.2-25.6-57.2-57.2s25.6-57.2,57.2-57.2
				c0,0,0,0,0,0C239.3,14.8,264.9,40.4,264.9,72C264.9,72,264.9,72,264.9,72"/>
			<path id="패스_52161-2" class="st8" d="M253,72c0,25-20.2,45.2-45.2,45.2c-25,0-45.2-20.2-45.2-45.2c0-25,20.2-45.2,45.2-45.2
				C232.7,26.8,253,47.1,253,72"/>
			<ellipse id="타원_808-2" class="st9" cx="207.7" cy="72" rx="45.2" ry="45.2"/>
			<path id="패스_52162-2" class="st10" d="M211.3,56.1c-0.1,8.8-1.7,16-3.6,15.9c-1.9,0-3.4-7.2-3.4-16s1.7-16,3.6-15.9
				C209.9,40.1,211.4,47.3,211.3,56.1"/>
			<g id="패스_52163-2" transform="translate(179.576 28.07)">
				<path class="st11" d="M28.2,45.5L28.2,45.5c-1.1,0-2-0.7-2.7-2.1c-0.5-0.9-0.9-2.2-1.2-3.8c-0.7-3.1-1-7.3-1-11.6
					c0-4.4,0.4-8.5,1.1-11.6c0.4-1.6,0.8-2.9,1.3-3.8c0.7-1.4,1.6-2.1,2.7-2.1l0,0c1.1,0,2,0.7,2.7,2.1c0.5,0.9,0.9,2.2,1.2,3.8
					c0.7,3.1,1,7.3,1,11.6c0,4.4-0.4,8.5-1.1,11.6c-0.4,1.6-0.8,2.9-1.3,3.8C30.1,44.8,29.2,45.5,28.2,45.5z"/>
				<path d="M28.2,44c1.9,0,3.5-7.1,3.6-15.9c0.1-8.8-1.4-16-3.4-16c-1.9,0-3.6,7.1-3.6,15.9C24.7,36.8,26.2,43.9,28.2,44
					C28.2,44,28.2,44,28.2,44 M28.2,47L28.2,47L28.2,47c-0.7,0-1.8-0.2-2.8-1.2c-0.5-0.5-0.9-1-1.3-1.8c-0.5-1-1-2.4-1.3-4.2
					c-0.7-3.2-1-7.5-1-11.9c0-4.5,0.5-8.7,1.2-11.9c0.4-1.7,0.9-3.1,1.4-4.1c0.4-0.7,0.8-1.3,1.3-1.7c1-0.9,2-1.1,2.7-1.1
					c0,0,0,0,0,0c0,0,0,0,0,0c0.7,0,1.7,0.2,2.7,1.2c0.5,0.5,0.9,1,1.3,1.8c0.5,1,1,2.4,1.3,4.2c0.7,3.2,1,7.5,1,11.9
					c0,4.5-0.5,8.7-1.2,11.9c-0.4,1.7-0.9,3.1-1.4,4.1c-0.4,0.7-0.8,1.3-1.3,1.7C29.9,46.8,28.9,47,28.2,47z"/>
			</g>
			<g id="패스_52165-2" transform="translate(207.398 77.943) rotate(-45)">
				<path class="st11" d="M3.4,25L3.4,25c-0.7,0-1.7-0.3-2.6-1.6c-0.5-0.7-0.9-1.7-1.3-3c-0.7-2.4-1-5.5-1-8.7C-1.5,8.4-1,5.3-0.3,3
					C0.1,1.7,0.5,0.8,1.1,0C2-1.2,3-1.5,3.6-1.5l0,0c0.7,0,1.7,0.3,2.6,1.6c0.5,0.7,0.9,1.7,1.3,3c0.7,2.4,1,5.5,1,8.7
					c0,3.3-0.5,6.4-1.2,8.7c-0.4,1.2-0.8,2.2-1.4,2.9C5,24.7,4,25,3.4,25z"/>
				<path d="M3.6,0C1.7,0,0.1,5.2,0,11.7c-0.1,6.5,1.4,11.8,3.3,11.8c1.9,0,3.6-5.2,3.7-11.7C7.1,5.3,5.6,0,3.6,0C3.7,0,3.7,0,3.6,0
					 M3.6-3C3.7-3,3.7-3,3.6-3c0.9,0,2.5,0.3,3.8,2.2c0.6,0.9,1.1,2,1.5,3.4c0.7,2.5,1.1,5.8,1,9.2c0,3.4-0.5,6.6-1.3,9.1
					c-0.4,1.4-1,2.5-1.6,3.4c-1.4,1.9-3,2.2-3.8,2.2c0,0,0,0-0.1,0c-0.8,0-2.5-0.3-3.8-2.2c-0.6-0.9-1.1-2-1.5-3.4
					c-0.7-2.5-1.1-5.8-1-9.2C-3,8.2-2.5,5-1.7,2.5c0.4-1.4,1-2.5,1.6-3.4C1.2-2.7,2.8-3,3.6-3z"/>
			</g>
			<path id="패스_52167-2" class="st12" d="M213.9,72c0,3.4-2.8,6.2-6.2,6.2c-3.4,0-6.2-2.8-6.2-6.2c0-3.4,2.8-6.2,6.2-6.2
				C211.1,65.8,213.9,68.6,213.9,72z"/>
			<line id="선_820-2" class="st0" x1="207.7" y1="26.8" x2="207.7" y2="32.6"/>
			<line id="선_821-2" class="st9" x1="207.7" y1="26.8" x2="207.7" y2="32.6"/>
			<line id="선_822-2" class="st0" x1="185.1" y1="32.9" x2="188" y2="37.8"/>
			<line id="선_824-2" class="st0" x1="168.6" y1="49.4" x2="173.5" y2="52.3"/>
			<line id="선_826-2" class="st0" x1="162.5" y1="72" x2="168.2" y2="72"/>
			<line id="선_827-2" class="st9" x1="162.5" y1="72" x2="168.2" y2="72"/>
			<line id="선_828-2" class="st0" x1="168.6" y1="94.6" x2="173.5" y2="91.8"/>
			<line id="선_830-2" class="st0" x1="183" y1="113.1" x2="186.2" y2="107.6"/>
			<line id="선_831-2" class="st13" x1="183" y1="113.1" x2="186.2" y2="107.6"/>
			<line id="선_832-2" class="st0" x1="207.7" y1="119.7" x2="207.7" y2="113.4"/>
			<line id="선_833-2" class="st13" x1="207.7" y1="119.7" x2="207.7" y2="113.4"/>
			<line id="선_834-2" class="st0" x1="232.4" y1="113.1" x2="229.2" y2="107.6"/>
			<line id="선_835-2" class="st13" x1="232.4" y1="113.1" x2="229.2" y2="107.6"/>
			<line id="선_836-2" class="st0" x1="246.9" y1="94.6" x2="241.9" y2="91.8"/>
			<line id="선_838-2" class="st0" x1="252.9" y1="72" x2="247.2" y2="72"/>
			<line id="선_839-2" class="st9" x1="252.9" y1="72" x2="247.2" y2="72"/>
			<line id="선_840-2" class="st0" x1="246.9" y1="49.4" x2="241.9" y2="52.3"/>
			<line id="선_842-2" class="st0" x1="230.3" y1="32.9" x2="227.5" y2="37.8"/>
			<g id="사각형_22447" transform="translate(0 100.578)">
				<path class="st8" d="M43.5,0h327.1c24,0,43.5,19.5,43.5,43.5v0c0,24-19.5,43.5-43.5,43.5H43.5C19.5,87.1,0,67.6,0,43.5v0
					C0,19.5,19.5,0,43.5,0z"/>
				<path class="st14" d="M43.5,1.5h327.1c23.2,0,42,18.8,42,42v0c0,23.2-18.8,42-42,42H43.5c-23.2,0-42-18.8-42-42v0
					C1.5,20.3,20.3,1.5,43.5,1.5z"/>
			</g>
			<g transform="matrix(1, 0, 0, 1, -16.76, -7.43)">
				<g id="패스_52179-2" transform="translate(176.82 145.41)">
					<path class="st10" d="M130.4,27.5c-2.2,0-4.3-0.3-6.2-0.8c-1.9-0.5-3.7-1.3-5.1-2.4c-1.5-1.1-2.7-2.4-3.6-3.9
						c-0.9-1.6-1.4-3.3-1.5-5.2l-0.1-1.6h1.6h9.3h0.5c-3-0.7-5.3-1.5-7-2.7c-1.3-0.9-2.3-2.1-3-3.4c-0.7-1.4-1.1-3-1.1-4.8
						c0-3.4,1.7-6.5,4.9-8.6c2.9-1.9,6.8-3,11.1-3c9,0,15.6,4.8,16,11.7l0.1,1.6h-1.6h-9.2c3.5,0.7,6.1,1.8,7.9,3.3
						c2.3,1.9,3.4,4.4,3.4,7.7c0,1.9-0.5,3.6-1.4,5.2c-0.9,1.5-2.1,2.7-3.7,3.8C138.7,26.4,134.7,27.5,130.4,27.5z M126.1,13.9
						l0.2,1.1c0.2,1.2,2,2.1,4.3,2.1c1.1,0,2.2-0.2,2.9-0.5c0.6-0.3,0.9-0.5,0.9-0.6c-0.1-0.1-0.3-0.4-1.4-0.7
						c-1.1-0.4-2.7-0.8-5-1.1C127.4,14.1,126.7,14,126.1,13.9z M132.8,4.1c0.5,0.1,0.9,0.1,1.3,0.2l-0.2-1c-0.2-1.1-1.8-1.9-3.9-1.9
						c-1,0-2,0.2-2.7,0.4c-0.5,0.2-0.8,0.4-0.8,0.5c0.1,0.1,0.3,0.3,1.4,0.7C128.9,3.4,130.5,3.7,132.8,4.1z M12.4,27.5
						c-2.6,0-5.1-0.5-7.3-1.3c-2.2-0.9-4.2-2.2-5.8-3.8c-1.7-1.6-2.9-3.6-3.8-5.8c-0.9-2.2-1.4-4.7-1.4-7.2s0.5-5,1.4-7.2
						C-3.7,0-2.4-2-0.8-3.6s3.6-2.9,5.8-3.8c2.3-0.9,4.7-1.3,7.3-1.3s5.1,0.5,7.3,1.3c2.2,0.9,4.2,2.2,5.8,3.8s2.9,3.6,3.8,5.8
						c0.9,2.2,1.4,4.7,1.4,7.2s-0.5,5-1.4,7.2c-0.9,2.2-2.2,4.1-3.8,5.8c-1.7,1.6-3.6,2.9-5.8,3.8C17.5,27.1,15,27.5,12.4,27.5z
						 M12.4,2.5c-3.6,0-6,2.8-6,6.9s2.4,6.9,6,6.9c3.6,0,6-2.8,6-6.9S16,2.5,12.4,2.5z M111.7,26.9h-1.5h-9.6h-1.5v-1.5V-6.5V-8h1.5
						h9.6h1.5v1.5v31.9V26.9z M72.5,26.8h-1.1h-9.7h-1.1l-0.3-1L56,12.1l-4.3,13.6l-0.3,1.1h-1.1h-9.6h-1.1l-0.3-1L28.6-6L28-8h2.1
						h10.2h1.1l0.3,1.1l4.2,15.1L50-6.9L50.3-8h1.1h9.9h1.1l0.3,1.1l4.1,15.2L71-6.9L71.4-8h1.1h9.6h2.1l-0.7,2L72.9,25.8L72.5,26.8
						z M-38.6,26.8h-1.5H-50h-1.5v-1.5v-44.2v-1.5h1.5h8.2h0.7l0.4,0.5l19.4,23.4v-22.9v-1.5h1.5h9.9h1.5v1.5v44.2v1.5h-1.5h-8.2
						h-0.7l-0.4-0.5L-38.6,2.3v22.9V26.8z M105.4-8.5c-2.1,0-3.9-0.8-5.3-2.1C98.7-12,98-13.9,98-15.9c0-2.1,0.8-3.9,2.1-5.3
						c1.4-1.4,3.2-2.1,5.3-2.1c2.1,0,3.9,0.8,5.3,2.1c1.4,1.4,2.1,3.2,2.1,5.3c0,2.1-0.8,3.9-2.1,5.3C109.3-9.2,107.4-8.5,105.4-8.5
						z"/>
					<path d="M130.4,26c8.1,0,14.9-4,14.9-10.5c0-5.5-3.4-8.6-12.7-10c-5.4-0.9-7.5-1.6-7.5-3.2c0-1.4,2.1-2.4,5-2.4
						c2.8,0,5,1.2,5.4,3.1h9.3c-0.4-6.3-6.6-10.3-14.5-10.3c-8.1,0-14.5,3.9-14.5,10.1c0,6.4,5,8.8,12.6,9.9
						c5.5,0.8,7.6,1.8,7.6,3.3c0,1.5-2.3,2.6-5.4,2.6c-3,0-5.4-1.4-5.7-3.4h-9.3C115.8,21.9,122.1,26,130.4,26 M12.4,26
						c9.8,0,16.9-7,16.9-16.6c0-9.6-7-16.6-16.9-16.6S-4.4-0.2-4.4,9.4C-4.4,19,2.6,26,12.4,26 M12.4,1c4.6,0,7.5,3.5,7.5,8.4
						c0,4.9-3,8.4-7.5,8.4c-4.6,0-7.5-3.5-7.5-8.4C4.9,4.5,7.9,1,12.4,1 M110.2,25.4V-6.5h-9.6v31.9H110.2 M71.5,25.3L82.1-6.5h-9.6
						l-5.6,20.5L61.3-6.5h-9.9L45.9,14L40.3-6.5H30.1l10.6,31.8h9.6L56,7.1l5.7,18.2H71.5 M-40.1,25.3V-1.8l22.1,26.6h8.2v-44.2
						h-9.9V7.7l-22.1-26.6H-50v44.2H-40.1 M105.4-10c3.4,0,5.9-2.5,5.9-5.9s-2.5-5.9-5.9-5.9c-3.4,0-5.9,2.5-5.9,5.9
						S102-10,105.4-10 M130.4,29c-4.8,0-9-1.2-12.2-3.4c-1.7-1.2-3.1-2.7-4-4.3c-0.4-0.7-0.7-1.4-1-2.1v6.2c0,1.7-1.3,3-3,3h-9.6
						c-1.7,0-3-1.3-3-3V-6.5c0-1.2,0.7-2.3,1.8-2.8c-1.8-1.6-2.9-4-2.9-6.7c0-5.1,3.8-8.9,8.9-8.9c5.1,0,8.9,3.8,8.9,8.9
						c0,2.7-1.1,5.1-2.9,6.7c1.1,0.5,1.8,1.5,1.8,2.8v5.9c0.8-2.5,2.5-4.7,5-6.4c3.1-2.1,7.4-3.2,12-3.2c2.2,0,4.4,0.3,6.4,0.8
						c2,0.6,3.9,1.4,5.4,2.5c3.5,2.4,5.5,5.9,5.7,9.8c0,0.8-0.2,1.6-0.8,2.2c-0.6,0.6-1.4,0.9-2.2,0.9h-1.3c0.3,0.2,0.6,0.4,0.8,0.6
						c1.4,1.1,2.4,2.5,3,4c0.6,1.4,0.9,3,0.9,4.8c0,4.1-2,7.7-5.8,10.2C139.3,27.9,135,29,130.4,29z M113.2,6.6v6.7
						c0,0,0.1-0.1,0.1-0.1c0.6-0.6,1.4-0.9,2.2-0.9h1.9C115.3,10.8,113.9,8.9,113.2,6.6z M12.4,29c-2.8,0-5.4-0.5-7.9-1.5
						c-2.4-1-4.5-2.3-6.3-4.1c-2.4-2.4-4.1-5.5-5-8.9v10.1c0,1.7-1.3,3-3,3h-8.2c-0.9,0-1.7-0.4-2.3-1.1L-37.1,6.5v18.8
						c0,1.7-1.3,3-3,3H-50c-1.7,0-3-1.3-3-3v-44.2c0-1.7,1.3-3,3-3h8.2c0.9,0,1.7,0.4,2.3,1.1l16.7,20.2v-18.8c0-1.7,1.3-3,3-3h9.9
						c1.7,0,3,1.3,3,3V4.2c0.9-3.4,2.6-6.4,5-8.9C0-6.4,2.1-7.8,4.5-8.8c2.4-1,5.1-1.5,7.9-1.5s5.4,0.5,7.9,1.5
						c2.4,1,4.5,2.3,6.3,4.1c0.5,0.5,1,1,1.4,1.6l-0.8-2.4c-0.3-0.9-0.2-1.9,0.4-2.7c0.6-0.8,1.5-1.2,2.4-1.2h10.2
						c1.3,0,2.5,0.9,2.9,2.2l2.7,9.8l2.7-9.8c0.4-1.3,1.5-2.2,2.9-2.2h9.9c1.4,0,2.5,0.9,2.9,2.2l2.7,9.9l2.7-9.9
						c0.4-1.3,1.5-2.2,2.9-2.2h9.6c1,0,1.9,0.5,2.4,1.2c0.6,0.8,0.7,1.8,0.4,2.7L74.3,26.2c-0.4,1.2-1.6,2-2.8,2h-9.7
						c-1.3,0-2.5-0.8-2.9-2.1L56,17.1l-2.8,9.1c-0.4,1.3-1.6,2.1-2.9,2.1h-9.6c-1.3,0-2.4-0.8-2.8-2L32.3,9.5c0,5.4-2,10.4-5.6,13.9
						c-1.8,1.8-3.9,3.2-6.3,4.1C17.8,28.5,15.2,29,12.4,29z M12.4,4C9.1,4,7.9,6.8,7.9,9.4c0,2.6,1.2,5.4,4.5,5.4
						c3.3,0,4.5-2.8,4.5-5.4C16.9,6.8,15.7,4,12.4,4z"/>
				</g>
			</g>
			<path id="패스_52180" d="M75.9,159.7c-1.6-7.9-5.7-14.2-10.9-16.7c5.2-2.5,9.3-8.7,11-16.6c1.6,7.9,5.7,14.2,10.9,16.7
				C81.7,145.5,77.6,151.8,75.9,159.7"/>
			<path id="패스_52181" d="M339.4,159.7c-1.6-7.9-5.7-14.2-10.9-16.7c5.2-2.5,9.3-8.7,11-16.6c1.6,7.9,5.7,14.2,10.9,16.7
				C345.2,145.5,341.1,151.8,339.4,159.7"/>
			<path id="패스_52182" d="M368.7,153.3c-1-4.9-3.5-8.8-6.7-10.3c3.2-1.5,5.7-5.4,6.8-10.3c1,4.9,3.5,8.8,6.7,10.3
				C372.2,144.6,369.7,148.4,368.7,153.3"/>
			<path id="패스_52183" d="M46.7,153.3c-1-4.9-3.5-8.8-6.7-10.3c3.2-1.5,5.7-5.4,6.8-10.3c1,4.9,3.5,8.8,6.7,10.3
				C50.2,144.6,47.7,148.4,46.7,153.3"/>
		</g>
	</g>
</g>
<g id="레이어_2" class="star s1">
	<path id="패스_52249" class="st15" d="M104,13.9L131,30.7c1.2,0.7,1.5,2.3,0.8,3.4c-0.3,0.5-0.9,0.9-1.5,1.1l-5.8,1.5l13.6,19.4
		c0.7,1,0.4,2.3-0.5,3c-0.7,0.5-1.6,0.5-2.4,0.1l-26.9-16.8c-1.2-0.7-1.5-2.3-0.8-3.4c0.3-0.5,0.9-0.9,1.5-1.1l5.8-1.5l-13.6-19.4
		c-0.7-1-0.4-2.3,0.5-3C102.4,13.5,103.3,13.4,104,13.9z"/>
</g>
<g id="레이어_3" class="star s2">
	<path id="패스_52248" class="st15" d="M345.2,13.9l-26.9,16.8c-1.2,0.7-1.5,2.3-0.8,3.4c0.3,0.5,0.9,0.9,1.5,1.1l5.8,1.5
		l-13.6,19.4c-0.7,1-0.4,2.3,0.5,3c0.7,0.5,1.6,0.5,2.4,0.1l26.9-16.8c1.2-0.7,1.5-2.3,0.8-3.4c-0.3-0.5-0.9-0.9-1.5-1.1l-5.8-1.5
		l13.6-19.5c0.7-1,0.4-2.3-0.5-3C346.8,13.5,345.9,13.4,345.2,13.9z"/>
</g>
<g id="레이어_4" class="rot">
	<g id="그룹_116355" transform="translate(147.049 9.86)">
		<path id="패스_52195" class="st16" d="M23.4,14.1c-8.7,8.7-8.9,22.7-0.5,31.6L55,13.6C46.1,5.2,32.1,5.4,23.4,14.1z"/>
		<path id="패스_52237" class="st16" d="M131.7,14.1c-8.7-8.7-22.7-8.9-31.6-0.5l32.1,32.1C140.6,36.8,140.4,22.8,131.7,14.1z"/>
	</g>
</g>
</svg>
