<svg xmlns="http://www.w3.org/2000/svg" width="25.224" height="38.966" viewBox="0 0 25.224 38.966">
<style type="text/css">
.hart {transform-origin: 50% 100%; animation:hart linear both infinite 1.5s;}
@keyframes hart {
0% {transform: scale(0.4) translateY(0); opacity:0;}	
25% {transform: scale(1) translateY(0); opacity:1;}
50% {transform:translateY(0); opacity:1;}
75% {transform:translateY(-10px); opacity:0.5;}
100% {transform:translateY(-30px); opacity:0;}
}
</style>
  <g id="Group_110047" data-name="Group 110047" transform="translate(6.738 -4.311) rotate(9)">
    <g id="Group_110048" class="hand" data-name="Group 110048" transform="translate(0.342 4.179)">
      <g class="hart">
        <path id="Path_37220" class="heart" data-name="Path 37220" d="M34.16,26.691a2.494,2.494,0,0,0-2.54,2.493,2.494,2.494,0,0,0-2.54-2.493,2.548,2.548,0,0,0-2.447,2.576v.15a6.346,6.346,0,0,0,3.079,5.44L31.619,36l1.909-1.147a6.346,6.346,0,0,0,3.078-5.44v-.15a2.548,2.548,0,0,0-2.447-2.576" transform="translate(-21.408 -26.691)" fill="#ff7272"/>
        <path id="Path_37221" class="heart" data-name="Path 37221" d="M34.16,26.691a2.494,2.494,0,0,0-2.54,2.493,2.494,2.494,0,0,0-2.54-2.493,2.548,2.548,0,0,0-2.447,2.576v.15a6.346,6.346,0,0,0,3.079,5.44L31.619,36l1.909-1.147a6.346,6.346,0,0,0,3.078-5.44v-.15A2.548,2.548,0,0,0,34.16,26.691Z" transform="translate(-21.408 -26.691)" fill="none" stroke="#000" stroke-linecap="round" stroke-linejoin="round" stroke-width="1.2"/>
      </g>
      <g class="onlyHand">
        <path id="Path_37216" data-name="Path 37216" d="M49.038,81.705s1.683-4.716,4.575-5.172,1.388,3.136.476,5.291a7.07,7.07,0,0,0-.253,4.146Z" transform="translate(-39.157 -66.142)" fill="#ffe2d8"/>
        <path id="Path_37217" data-name="Path 37217" d="M49.038,81.705s1.683-4.716,4.575-5.172,1.388,3.136.476,5.291a7.07,7.07,0,0,0-.253,4.146Z" transform="translate(-39.157 -66.142)" fill="none" stroke="#000" stroke-linecap="round" stroke-linejoin="round" stroke-width="1.2"/>
        <path id="Path_37218" data-name="Path 37218" d="M5.543,75.587a2.267,2.267,0,0,0,.081,3.16L9.6,82.725a2.218,2.218,0,0,0-2.735,3.453,2.218,2.218,0,0,0-2.693,3.479l.4.4a2.218,2.218,0,0,0-2.534.569,2.262,2.262,0,0,0,.139,3.085l1.662,1.662,2.911,2.911a7.96,7.96,0,0,0,11.257,0L19.1,97.2a7.96,7.96,0,0,0,0-11.257l-2.911-2.911L8.71,75.558a2.219,2.219,0,0,0-3.167.03" transform="translate(-1.5 -64.885)" fill="#ffe2d8" stroke="#000" stroke-width="1.2"/>
        <path id="Path_37219" data-name="Path 37219" d="M5.543,75.587a2.267,2.267,0,0,0,.081,3.16L9.6,82.725a2.218,2.218,0,0,0-2.735,3.453,2.218,2.218,0,0,0-2.693,3.479l.4.4a2.218,2.218,0,0,0-2.534.569,2.262,2.262,0,0,0,.139,3.085l1.662,1.662,2.911,2.911a7.96,7.96,0,0,0,11.257,0L19.1,97.2a7.96,7.96,0,0,0,0-11.257l-2.911-2.911L8.71,75.558A2.219,2.219,0,0,0,5.543,75.587Z" transform="translate(-1.5 -64.885)" fill="none" stroke="#000" stroke-linecap="round" stroke-linejoin="round" stroke-width="1.2"/>
        <line id="Line_279" data-name="Line 279" x2="2.975" y2="2.975" transform="translate(8.102 17.84)" fill="#ffc1ab" stroke="#000" stroke-width="1.2"/>
        <line id="Line_280"  data-name="Line 280" x2="2.975" y2="2.975" transform="translate(8.102 17.84)" fill="none" stroke="#000" stroke-linecap="round" stroke-linejoin="round" stroke-width="1.2"/>
        <line id="Line_281" data-name="Line 281" x2="2.617" y2="2.617" transform="translate(5.367 21.293)" fill="#ffc1ab" stroke="#000" stroke-width="1.2"/>
        <line id="Line_282" data-name="Line 282" x2="2.617" y2="2.617" transform="translate(5.367 21.293)" fill="none" stroke="#000" stroke-linecap="round" stroke-linejoin="round" stroke-width="1.2"/>
        <line id="Line_283"  data-name="Line 283" x2="1.821" y2="1.821" transform="translate(3.076 25.174)" fill="#ffc1ab" stroke="#000" stroke-width="1.2"/>
        <line id="Line_284"  data-name="Line 284" x2="1.821" y2="1.821" transform="translate(3.076 25.174)" fill="none" stroke="#000" stroke-linecap="round" stroke-linejoin="round" stroke-width="1.2"/>
      </g>
    </g>
  </g>
</svg>
