<?xml version="1.0" encoding="utf-8"?>
<!-- Generator: Adobe Illustrator 26.2.1, SVG Export Plug-In . SVG Version: 6.00 Build 0)  -->
<svg version="1.1" xmlns="http://www.w3.org/2000/svg" xmlns:xlink="http://www.w3.org/1999/xlink" x="0px" y="0px" viewBox="0 0 112.9 58.2" style="enable-background:new 0 0 112.9 58.2;" xml:space="preserve">
<style type="text/css">
.st0{enable-background:new    ;}
.st1{fill:none;}
.st2{fill:none;stroke:#040405;stroke-width:2.4992;stroke-linecap:round;stroke-linejoin:round;stroke-miterlimit:3.9986;}
.st3{fill:#FCFCFC;}
.st4{fill:#12FFC8;}
.st5{fill:none;stroke:#000000;}
    
.s1 {animation:fade both infinite 3s;}
.s2 {animation:fade2 both infinite 3s;}
.s3 {animation:fade3 both infinite 3s;}

@keyframes fade{
0% {opacity:0;}
40% {opacity:1;}
90% {opacity:1;}
100% {opacity:0;}
}
@keyframes fade2{
0% {opacity:0;}
10% {opacity:0;}
50% {opacity:1;}
90% {opacity:1;}
100% {opacity:0;}
}
@keyframes fade3{
0% {opacity:0;}
20% {opacity:0;}
60% {opacity:1;}
90% {opacity:1;}
100% {opacity:0;}
}

.b1 {position:relative;animation:fade_s both infinite 6s;}
@keyframes fade_s {
0% {opacity:0.1;}	
25% {opacity:1;}
50% {opacity:0.1;}
75% {opacity:1;}
100% {opacity:0.1;}
} 
</style>
<g id="Layer_1">
	<g class="st0">
		<path d="M19.5,20.4l5.2-0.3L39.4,36l-0.9-17l6.2-0.3l1.5,27.7L41,46.7L26.2,30.8l0.9,17l-6.2,0.3L19.5,20.4z"/>
		<path d="M48.7,18.9l20.6-1.1l0.3,5.4L55.2,24l0.3,5.6l13.2-0.7l0.3,5.4L55.7,35l0.3,5.9l14.7-0.8l0.3,5.4l-20.9,1.1L48.7,18.9z"/>
		<path d="M109.3,15.7l-6.5,28.1l-6.2,0.3L90.7,27l-4,17.6L80.3,45l-9.4-27.3l6.6-0.3l5.7,17.8L87,16.9l6.4-0.3l5.7,17.8l3.8-18.3
			L109.3,15.7z"/>
	</g>
	<g class="st0">
		<path d="M19.5,20.4l5.2-0.3L39.4,36l-0.9-17l6.2-0.3l1.5,27.7L41,46.7L26.2,30.8l0.9,17l-6.2,0.3L19.5,20.4z"/>
		<path d="M48.7,18.9l20.6-1.1l0.3,5.4L55.2,24l0.3,5.6l13.2-0.7l0.3,5.4L55.7,35l0.3,5.9l14.7-0.8l0.3,5.4l-20.9,1.1L48.7,18.9z"/>
		<path d="M109.3,15.7l-6.5,28.1l-6.2,0.3L90.7,27l-4,17.6L80.3,45l-9.4-27.3l6.6-0.3l5.7,17.8L87,16.9l6.4-0.3l5.7,17.8l3.8-18.3
			L109.3,15.7z"/>
	</g>
	<line id="Line_775" class="st2 s2" x1="14.3" y1="11.2" x2="10.3" y2="4.2"/>
	<line id="Line_779" class="st2 s3" x1="22.4" y1="10.2" x2="21.3" y2="2.2"/>
	<line id="Line_777" class="st2 s1" x1="9.3" y1="17.2" x2="2.3" y2="13.2"/>
</g>
<g id="Layer_3">
	<g class="st0">
		<path class="st3" d="M17.9,18.7l5.2-0.3l14.7,15.9l-0.9-17l6.2-0.3l1.5,27.7L39.4,45L24.6,29.1l0.9,17l-6.2,0.3L17.9,18.7z"/>
		<path class="st3" d="M47.1,17.2l20.6-1.1l0.3,5.4l-14.4,0.8l0.3,5.6l13.2-0.7l0.3,5.4l-13.3,0.7l0.3,5.9l14.7-0.8l0.3,5.4
			l-20.9,1.1L47.1,17.2z"/>
		<path class="st3" d="M107.7,14l-6.5,28.1L95,42.4l-5.9-17.1l-4,17.6l-6.4,0.4L69.3,16l6.6-0.3l5.7,17.8l3.8-18.3l6.4-0.3l5.7,17.8
			l3.8-18.3L107.7,14z"/>
	</g>
</g>
<g id="Layer_4" class="b1">
	<g class="st0">
		<path class="st4" d="M17.5,18.4l5.2-0.3L37.4,34l-0.9-17l6.2-0.3l1.5,27.7L39,44.7L24.2,28.8l0.9,17l-6.2,0.3L17.5,18.4z"/>
		<path class="st4" d="M46.7,16.9l20.6-1.1l0.3,5.4L53.2,22l0.3,5.6l13.2-0.7l0.3,5.4L53.7,33l0.3,5.9l14.7-0.8l0.3,5.4l-20.9,1.1
			L46.7,16.9z"/>
		<path class="st4" d="M107.3,13.7l-6.5,28.1l-6.2,0.3L88.7,25l-4,17.6L78.3,43l-9.4-27.3l6.6-0.3l5.7,17.8L85,14.9l6.4-0.3
			l5.7,17.8l3.8-18.3L107.3,13.7z"/>
	</g>
</g>
<g id="Layer_2">
	<g class="st0">
		<path class="st5" d="M17.5,18.4l5.2-0.3L37.4,34l-0.9-17l6.2-0.3l1.5,27.7L39,44.7L24.2,28.8l0.9,17l-6.2,0.3L17.5,18.4z"/>
		<path class="st5" d="M46.7,16.9l20.6-1.1l0.3,5.4L53.2,22l0.3,5.6l13.2-0.7l0.3,5.4L53.7,33l0.3,5.9l14.7-0.8l0.3,5.4l-20.9,1.1
			L46.7,16.9z"/>
		<path class="st5" d="M107.3,13.7l-6.5,28.1l-6.2,0.3L88.7,25l-4,17.6L78.3,43l-9.4-27.3l6.6-0.3l5.7,17.8L85,14.9l6.4-0.3
			l5.7,17.8l3.8-18.3L107.3,13.7z"/>
	</g>
</g>
</svg>
