<?xml version="1.0" encoding="utf-8"?>
<!-- Generator: Adobe Illustrator 26.1.0, SVG Export Plug-In . SVG Version: 6.00 Build 0)  -->
<svg version="1.1" xmlns="http://www.w3.org/2000/svg" xmlns:xlink="http://www.w3.org/1999/xlink" x="0px" y="0px" viewBox="0 0 520 245" style="enable-background:new 0 0 520 245;" xml:space="preserve">
<style type="text/css">
.st0{fill:#7582F0;}
.st1{fill:none;stroke:#080D4B;stroke-width:3;stroke-linecap:round;stroke-linejoin:round;}
.st2{fill:#040405;}
.st3{fill:none;stroke:#000000;stroke-width:3;stroke-linecap:round;stroke-miterlimit:4;}
.st4{enable-background:new    ;}
.st5{fill:#FFFFFF;}
.st6{fill:none;stroke:#000000;stroke-width:1.5;}
.st7{fill:#4F4F4F;}
.st8{fill:none;stroke:#000000;stroke-width:2.5;stroke-linecap:round;stroke-linejoin:round;}
.st9{fill:#FFD152;}
.st10{fill:#FFEE24;stroke:#000000;stroke-width:2.5;stroke-linecap:round;stroke-linejoin:round;}
.st11{fill:none;stroke:#000000;stroke-width:2;stroke-linecap:round;stroke-linejoin:round;}
.st12{fill:none;stroke:#000000;stroke-width:3;stroke-linecap:round;stroke-linejoin:round;}
.st13{stroke:#000000;stroke-width:1.2;}
.st14{fill:#FF9F00;stroke:#000000;stroke-width:1.2;}
.st15{fill:#F15E22;}
.st16{fill:#FEC211;}

.bump {transform-origin:70% 83%;animation:bump both linear infinite 2s;}
@keyframes bump {
0% {transform:scale(1.05) rotate(-30deg);}
50% {transform:scale(0.98) rotate(0deg);}
100% {transform:scale(1.05) rotate(-30deg);}
}

.bump_a {transform-origin:80% 69%;animation:bump_a both linear infinite 1.0s;}
@keyframes bump_a {
0% {transform:scale(0.6) translate(-4px, 2px) rotate(0);}
50% {transform:scale(1.0) translate(-4px, 2px) rotate(0deg);}
100% {transform:scale(0.6) translate(-4px,2px) rotate(0deg);}
}

.fade {animation:fade both linear infinite 6s;}
.right_star {transform-origin:97% 40%;animation:star2 linear infinite 2.0s;}
	
.star {position:relative;animation:star both infinite 4s;}
.star.s1 {transform-origin:14.4% 70%;}
.star.s2 {transform-origin:59% 39%;animation-delay:0.5s;}

@keyframes star {
0% {transform:scale(0.6);opacity:1;}	
20% {transform:scale(1.1);opacity:1;}
40% {transform:scale(0.8);}	
58% {transform:scale(1);}
100% {transform:scale(1);}
}
@keyframes star2 {
0% {transform:scale(0.8);}	
55% {transform:scale(1);;}
100% {transform:scale(0.8);}
}
@keyframes fade {
0% {opacity:1;}
9% {opacity:0;}
18% {opacity:1;}
27% {opacity:0;}
36% {opacity:1;}
100% {opacity:1;}
}
</style>
<g id="bg">
	<g id="구름" transform="translate(32.41 50.967)">
		<path id="패스_36362" class="st0" d="M394.5,99.1c4-6.3,6.2-13.6,6.2-21c0-27.9-30.6-50.4-68.4-50.4c-24.3,0-45.6,9.3-57.7,23.4
			c-11.1-11-28.9-18.1-48.9-18.1c-10.1-0.1-20.2,1.9-29.6,5.7c-10.7-10.2-26.2-17.6-44.4-20.3c-4.8-0.7-9.7-1.1-14.6-1.1
			c-41.3,0-74.7,24.7-74.7,55.1c0,0.9,0,1.8,0.1,2.6C45.8,83.6,35,97.8,35,114c0,26.4,29,47.8,64.8,47.8c3.1,0,6.3-0.2,9.4-0.5
			c7.9,14,26.6,23.9,48.5,23.9c18.9,0,35.5-7.4,44.7-18.5c10.4,3.5,21.4,5.2,32.4,5.2c17.5,0,33.7-4.2,46.7-11.4
			c8.9,9.9,24.2,16.5,41.6,16.5c24.4,0,44.8-13,49-30.1c3.3,0.8,6.8,1.1,10.2,1.1c18.9,0,34.3-11.3,34.3-25.3
			C416.6,111.9,407.4,102.7,394.5,99.1"/>
		<path id="패스_36363" class="st1" d="M394.5,99.1c4-6.3,6.2-13.6,6.2-21c0-27.9-30.6-50.4-68.4-50.4c-24.3,0-45.6,9.3-57.7,23.4
			c-11.1-11-28.9-18.1-48.9-18.1c-10.1-0.1-20.2,1.9-29.6,5.7c-13.7-13-35-21.4-59.1-21.4c-41.3,0-74.7,24.7-74.7,55.1
			c0,0.9,0,1.8,0.1,2.6C45.8,83.6,35,97.8,35,114c0,26.4,29,47.8,64.8,47.8c3.1,0,6.3-0.2,9.4-0.5c7.9,14,26.6,23.9,48.5,23.9
			c18.9,0,35.5-7.4,44.7-18.5c10.4,3.5,21.4,5.2,32.4,5.2c17.5,0,33.7-4.2,46.7-11.4c8.9,9.9,24.2,16.5,41.6,16.5
			c24.4,0,44.8-13,49-30.1c3.3,0.8,6.8,1.1,10.2,1.1c18.9,0,34.3-11.3,34.3-25.3C416.5,111.9,407.4,102.7,394.5,99.1z"/>
	</g>
	<path id="타임" class="st2" d="M244.1,168.2c65.5-6.3,121.2,4.7,124.3,24.7s-47.5,41.3-113,47.7c-65.5,6.3-121.2-4.7-124.3-24.7
		C128,195.9,178.6,174.6,244.1,168.2"/>
	<g id="그룹_109980" transform="matrix(-0.891, -0.454, 0.454, -0.891, 108.56, 69.206)">
		<path id="패스_37094" class="st3" d="M-308.7,32.8c0,0-5-2-4.2,2.5c0.8,4.5-2.3,2.1-3.6,6.1"/>
	</g>
	<g class="st4">
		<path d="M187.9,150.2v7h-38v-7h15.2V145c-8.4-1.1-13.8-5.6-13.8-11.9c0-7.1,7.1-12.1,17.6-12.1s17.6,5,17.6,12.1
			c0,6.2-5.4,10.8-13.8,11.9v5.3h15.2V150.2z M168.9,138.5c5.7,0,9.7-2.2,9.7-5.4c0-3.3-4-5.4-9.7-5.4s-9.7,2.2-9.7,5.4
			C159.3,136.3,163.2,138.5,168.9,138.5z"/>
		<path d="M229.2,140.8h-38v-5.4h38V140.8z M227,152.4h-26.3v1.4h26.7v4.7h-34v-10.1h26.3V147h-26.4v-4.7H227V152.4z M200.8,128.3
			h26.5v5.5h-33.9v-13.1h7.4L200.8,128.3L200.8,128.3z"/>
		<path d="M256.1,142.8h-22.9v-21.4h22.9V142.8z M242.1,151.8h26.1v6.7h-33.7v-13.2h7.6L242.1,151.8L242.1,151.8z M248.8,127.7h-8.2
			v8.8h8.2V127.7z M272.1,128.4v7.2h-4.4v13.1h-7.4v-27.8h7.4v7.5H272.1z"/>
		<path d="M322.8,140.3v5.7h-38v-5.7H322.8z M286.8,147.7h33.8V159h-7.5v-5.6h-26.3V147.7z M321,138.7h-33.8V121h33.4v4.9h-26.1v1.8
			h25.4v4.4h-25.4v1.8H321V138.7z"/>
		<path d="M327.1,121.8h21.3V132c0,15.3-8.2,24.8-21.3,24.8v-7c9-0.1,13.7-6.7,13.7-17.7v-3.4h-13.7V121.8z M365.7,141.9h-4.4v16.6
			h-7.4v-37.6h7.4v13.7h4.4V141.9z"/>
	</g>
	<g class="st4">
		<path d="M187.9,150.2v7h-38v-7h15.2V145c-8.4-1.1-13.8-5.6-13.8-11.9c0-7.1,7.1-12.1,17.6-12.1s17.6,5,17.6,12.1
			c0,6.2-5.4,10.8-13.8,11.9v5.3h15.2V150.2z M168.9,138.5c5.7,0,9.7-2.2,9.7-5.4c0-3.3-4-5.4-9.7-5.4s-9.7,2.2-9.7,5.4
			C159.3,136.3,163.2,138.5,168.9,138.5z"/>
		<path d="M229.2,140.8h-38v-5.4h38V140.8z M227,152.4h-26.3v1.4h26.7v4.7h-34v-10.1h26.3V147h-26.4v-4.7H227V152.4z M200.8,128.3
			h26.5v5.5h-33.9v-13.1h7.4L200.8,128.3L200.8,128.3z"/>
		<path d="M256.1,142.8h-22.9v-21.4h22.9V142.8z M242.1,151.8h26.1v6.7h-33.7v-13.2h7.6L242.1,151.8L242.1,151.8z M248.8,127.7h-8.2
			v8.8h8.2V127.7z M272.1,128.4v7.2h-4.4v13.1h-7.4v-27.8h7.4v7.5H272.1z"/>
		<path d="M322.8,140.3v5.7h-38v-5.7H322.8z M286.8,147.7h33.8V159h-7.5v-5.6h-26.3V147.7z M321,138.7h-33.8V121h33.4v4.9h-26.1v1.8
			h25.4v4.4h-25.4v1.8H321V138.7z"/>
		<path d="M327.1,121.8h21.3V132c0,15.3-8.2,24.8-21.3,24.8v-7c9-0.1,13.7-6.7,13.7-17.7v-3.4h-13.7V121.8z M365.7,141.9h-4.4v16.6
			h-7.4v-37.6h7.4v13.7h4.4V141.9z"/>
	</g>
	<g class="st4">
		<path class="st5" d="M185.4,147.4v7h-38v-7h15.2v-5.3c-8.4-1.1-13.8-5.6-13.8-11.9c0-7.1,7.1-12.1,17.6-12.1s17.6,5,17.6,12.1
			c0,6.2-5.4,10.8-13.8,11.9v5.3H185.4z M166.4,135.7c5.7,0,9.7-2.2,9.7-5.4c0-3.3-4-5.4-9.7-5.4s-9.7,2.2-9.7,5.4
			C156.7,133.5,160.7,135.7,166.4,135.7z"/>
		<path class="st5" d="M226.6,138h-38v-5.4h38V138z M224.4,149.6h-26.3v1.4h26.7v4.7h-34v-10.1h26.3v-1.4h-26.4v-4.7h33.7V149.6z
			 M198.3,125.5h26.5v5.5h-33.9v-13.1h7.4L198.3,125.5L198.3,125.5z"/>
		<path class="st5" d="M253.6,140h-22.9v-21.4h22.9V140z M239.5,149h26.1v6.7h-33.7v-13.2h7.6L239.5,149L239.5,149z M246.3,124.9
			H238v8.8h8.2v-8.8C246.2,124.9,246.3,124.9,246.3,124.9z M269.5,125.6v7.2h-4.4v13.1h-7.4v-27.8h7.4v7.5
			C265.1,125.6,269.5,125.6,269.5,125.6z"/>
		<path class="st5" d="M320.3,137.5v5.7h-38v-5.7H320.3z M284.3,144.9h33.8v11.3h-7.5v-5.6h-26.3V144.9z M318.5,135.9h-33.8v-17.7
			H318v4.9h-26v1.8h25.4v4.4H292v1.8h26.5V135.9z"/>
		<path class="st5" d="M324.6,119h21.3v10.2c0,15.3-8.2,24.8-21.3,24.8v-7c9-0.1,13.7-6.7,13.7-17.7v-3.4h-13.7V119z M363.2,139.1
			h-4.4v16.6h-7.4v-37.6h7.4v13.7h4.4V139.1z"/>
	</g>
	<g class="st4">
		<path class="st6" d="M185.4,147.4v7h-38v-7h15.2v-5.3c-8.4-1.1-13.8-5.6-13.8-11.9c0-7.1,7.1-12.1,17.6-12.1s17.6,5,17.6,12.1
			c0,6.2-5.4,10.8-13.8,11.9v5.3H185.4z M166.4,135.7c5.7,0,9.7-2.2,9.7-5.4c0-3.3-4-5.4-9.7-5.4s-9.7,2.2-9.7,5.4
			C156.7,133.5,160.7,135.7,166.4,135.7z"/>
		<path class="st6" d="M226.6,138h-38v-5.4h38V138z M224.4,149.6h-26.3v1.4h26.7v4.7h-34v-10.1h26.3v-1.4h-26.4v-4.7h33.7V149.6z
			 M198.3,125.5h26.5v5.5h-33.9v-13.1h7.4L198.3,125.5L198.3,125.5z"/>
		<path class="st6" d="M253.6,140h-22.9v-21.4h22.9V140z M239.5,149h26.1v6.7h-33.7v-13.2h7.6L239.5,149L239.5,149z M246.3,124.9
			H238v8.8h8.2v-8.8C246.2,124.9,246.3,124.9,246.3,124.9z M269.5,125.6v7.2h-4.4v13.1h-7.4v-27.8h7.4v7.5
			C265.1,125.6,269.5,125.6,269.5,125.6z"/>
		<path class="st6" d="M320.3,137.5v5.7h-38v-5.7H320.3z M284.3,144.9h33.8v11.3h-7.5v-5.6h-26.3V144.9z M318.5,135.9h-33.8v-17.7
			H318v4.9h-26v1.8h25.4v4.4H292v1.8h26.5V135.9z"/>
		<path class="st6" d="M324.6,119h21.3v10.2c0,15.3-8.2,24.8-21.3,24.8v-7c9-0.1,13.7-6.7,13.7-17.7v-3.4h-13.7V119z M363.2,139.1
			h-4.4v16.6h-7.4v-37.6h7.4v13.7h4.4V139.1z"/>
	</g>
</g>
<g id="right">
	<path id="패스_38117" class="st7" d="M505.7-0.5v27.4c0,2.6-2.1,4.6-4.6,4.6c-2.6,0-4.6-2.1-4.6-4.6V-0.5"/>
	<path id="패스_38118" class="st8" d="M505.7-0.5v27.4c0,2.6-2.1,4.6-4.6,4.6c-2.6,0-4.6-2.1-4.6-4.6V-0.5"/>
	<path id="패스_38119" class="st7" d="M447.8,37.3l1-0.6c4.5-1.7,15.9,5,26.9,16s17.7,22.5,16,26.9l-0.6,1
		c-3.5,3.5-16-3.4-27.9-15.4C451.3,53.2,444.3,40.8,447.8,37.3"/>
	<path id="패스_38120" class="st8" d="M447.8,37.3l1-0.6c4.5-1.7,15.9,5,26.9,16s17.7,22.5,16,26.9l-0.6,1
		c-3.5,3.5-16-3.4-27.9-15.4C451.3,53.2,444.3,40.8,447.8,37.3z"/>
	<path id="패스_38121" class="st7" d="M491.1,80.6l0.6-1C491.6,80,491.4,80.3,491.1,80.6"/>
	<path id="패스_38123" class="st7" d="M447.8,37.3c0.3-0.3,0.6-0.5,1-0.6L447.8,37.3z"/>
	<path id="패스_38125" class="st9 fade" d="M462.8,44.1c3.7-3.7,11.5-1.9,17.5,4.1s7.8,13.8,4.1,17.5c-3.7,3.7-11.5,1.9-17.5-4.1
		S459.1,47.8,462.8,44.1"/>
	<path id="패스_38126" class="st8" d="M462.8,44.1c3.7-3.7,11.5-1.9,17.5,4.1s7.8,13.8,4.1,17.5c-3.7,3.7-11.5,1.9-17.5-4.1
		S459.1,47.8,462.8,44.1z"/>
	<path id="패스_38127" class="st7" d="M448.8,36.7l38-23.8c2.3-2.3,10.6,2.3,18.5,10.2c7.9,7.9,12.5,16.2,10.2,18.5l-23.8,38
		c1.7-4.4-5-15.9-16-26.9S453.3,35,448.8,36.7"/>
	<path id="패스_38128" class="st8" d="M448.8,36.7l38-23.8c2.3-2.3,10.6,2.3,18.5,10.2c7.9,7.9,12.5,16.2,10.2,18.5l-23.8,38
		c1.7-4.4-5-15.9-16-26.9S453.3,35,448.8,36.7z"/>
</g>
<g id="right_x5F_star" class="right_star">
	<path id="패스_38132" class="st10" d="M504.2,91.1L505,95c0.4,1.7,1.6,3,3.3,3.3l3.9,0.8c0.4,0.1,0.7,0.5,0.6,0.9
		c-0.1,0.3-0.3,0.5-0.6,0.6l-3.9,0.8c-1.7,0.4-3,1.6-3.3,3.3l-0.8,3.9c-0.1,0.4-0.5,0.7-0.9,0.6c-0.3-0.1-0.5-0.3-0.6-0.6l-0.8-3.9
		c-0.4-1.7-1.6-3-3.3-3.3l-3.9-0.8c-0.4-0.1-0.7-0.5-0.6-0.9c0.1-0.3,0.3-0.5,0.6-0.6l3.9-0.8c1.7-0.4,3-1.6,3.3-3.3l0.8-3.9
		c0.1-0.4,0.5-0.7,0.9-0.6C503.9,90.6,504.1,90.8,504.2,91.1z"/>
</g>
<g id="bump_x5F_s" class="bump">
	<g>
		<path id="패스_37084" class="st5" d="M324.9,186.6c-7.6,21.1,3.3,44.5,24.4,52.1c21.1,7.6,44.5-3.3,52.1-24.4
			c7.6-21.1-3.3-44.5-24.4-52.1l0,0C355.9,154.5,332.5,165.5,324.9,186.6L324.9,186.6"/>
		<path id="패스_37091" class="st11" d="M382.1,207.8c-0.6,1.2-0.2,3,1,4.6c1.2,1.5,3,2.3,4.2,2"/>
		<path id="패스_37092" class="st11" d="M343.9,194c-0.3,1.3-1.8,2.5-3.7,2.9c-1.9,0.4-3.8-0.1-4.5-1.2"/>
		<g>
			<path id="패스_37085" class="st12" d="M324.9,186.6c-7.6,21.1,3.3,44.5,24.4,52.1c21.1,7.6,44.5-3.3,52.1-24.4
				c7.6-21.1-3.3-44.5-24.4-52.1l0,0C355.9,154.5,332.5,165.5,324.9,186.6z"/>
			<path id="패스_37086" class="st13" d="M370.6,196.2c-1.1,3-1,5.8,0.2,6.2c1.2,0.4,3-1.7,4.1-4.7s1-5.8-0.2-6.2
				C373.5,191.1,371.7,193.1,370.6,196.2"/>
			<path id="패스_37088" class="st13" d="M355.8,190.8c-1.1,3-1,5.8,0.2,6.2s3-1.7,4.1-4.7c1.1-3,1-5.8-0.2-6.2
				C358.8,185.7,356.9,187.8,355.8,190.8"/>
			<path id="패스_37090" class="st11" d="M383.1,212.4c-9.8,9.9-25.8,9.9-35.6,0.1c-4.2-4.2-6.8-9.7-7.3-15.7"/>
			<path id="패스_37093" class="st14" d="M355.4,203.5c-1.1,2.6,0.6,5.8,3.8,7.1c3.2,1.3,6.7,0.3,7.8-2.3s-0.6-5.8-3.8-7.1
				C360,199.9,356.5,200.9,355.4,203.5"/>
		</g>
	</g>
</g>
<g id="bump" class="bump_a">
	<g id="Layer_4">
		<g>
			<path d="M415.6,157.3l2.8-8.9c0,0,1.4-1.8,2.4,0.5s0,0.1,0,0.1l2.4,9.6l6.1-3.4c0,0,2.3-1.1,2,1.4l-2.4,7.4l8.3,1
				c0,0,2-0.1,2.1,1.2c0,0-0.1,1-0.9,1.4l-7.7,4.1l6,5.8c0,0,1.2,1,0.7,1.8c0,0-0.3,0.8-1.4,0.7l-7.6-1.2l2.8,9.8c0,0,0.2,1-0.5,1.4
				c0,0-0.9,0.2-1.8-0.3l-6.9-6.9l-2.9,7.9c0,0-0.2,0.7-0.8,0.8c0,0-0.8,0.3-1.4-1.5l-2.4-8.5l-6.9,4.5c0,0-1.2,1-2,0.2
				c0,0-0.8-0.1-0.3-1.4l3.4-8.7l-9.2-1.2c0,0-1,0-1.1-1.1c0,0-0.3-0.7,1-1.4l7.3-4.1l-6.2-6.1c0,0-0.8-0.5-0.6-1.5
				c0,0,0-0.8,1.4-0.7l7.8,1.1l-2.7-9.6c0,0-0.1-1.2,0.7-1.5c0,0,0.3-0.6,1.4,0.3L415.6,157.3z"/>
			<path class="st15" d="M419.3,154l-2,6.3c0,0-0.1,1.5-2.1-0.2c-2-1.8-4.7-4.5-4.7-4.5l1.9,6.5c0,0,0.6,1.6-1,1.8l-5.9-0.7l4.4,4.3
				c0,0,1.2,1.1,0,2.1c-1.2,0.9-5.9,3.4-5.9,3.4l7,0.9c0,0,1.6,0.1,1.1,1.7l-2.5,6.7l5.8-3.6c0,0,1-0.9,1.7,0.7c0.7,1.6,0,0.1,0,0.1
				l1.8,6.2l2-5.6c0,0,0.2-0.9,1.7-0.6l5.3,5.1l-1.9-6.8c0,0-0.5-1.6,1.2-1.7l5.9,0.9l-4.6-4.5c0,0-1.1-1,0.3-2.1l5.8-3.3l-7-0.9
				c0,0-1.5-0.1-1.1-1.7v-0.1c0.5-1.7,1.8-5.8,1.8-5.8l-4.7,2.7c0,0-1.7,1-2-0.6s-1.7-7.3-1.7-7.3L419.3,154z"/>
		</g>
	</g>
</g>
<g id="star">
	<g class="star s2">
		<path id="패스_36382" class="st16" d="M315.6,77l1.7,10.4l10.1,2.6c1.5,0.4,2.3,1.9,1.9,3.3c-0.2,0.8-0.7,1.3-1.3,1.7l-9.3,4.8
			l0.6,10.5c0.1,1.5-1,2.7-2.5,2.8c-0.8,0.1-1.5-0.3-2.1-0.7l-7.5-7.4l-9.8,3.8c-1.4,0.6-2.9-0.1-3.5-1.5c-0.3-0.7-0.3-1.6,0.1-2.2
			l4.8-9.3l-6.6-8.1c-0.9-1.1-0.8-2.8,0.3-3.8c0.6-0.5,1.3-0.7,2.1-0.6l10.4,1.6l5.7-8.8c0.8-1.3,2.5-1.6,3.7-0.8
			C315,75.5,315.5,76.1,315.6,77"/>
		<path id="패스_36383" class="st1" d="M315.6,77l1.7,10.4l10.1,2.6c1.5,0.4,2.3,1.9,1.9,3.3c-0.2,0.8-0.7,1.3-1.3,1.7l-9.3,4.8
			l0.6,10.5c0.1,1.5-1,2.7-2.5,2.8c-0.8,0.1-1.5-0.3-2.1-0.7l-7.5-7.4l-9.8,3.8c-1.4,0.6-2.9-0.1-3.5-1.5c-0.3-0.7-0.3-1.6,0.1-2.2
			l4.8-9.3l-6.6-8.1c-0.9-1.1-0.8-2.8,0.3-3.8c0.6-0.5,1.3-0.7,2.1-0.6l10.4,1.6l5.7-8.8c0.8-1.3,2.5-1.6,3.7-0.8
			C315,75.5,315.5,76.1,315.6,77z"/>
	</g>
	<g class="star s1">
		<path id="패스_36382-2" class="st16" d="M72.8,149.6l6.8,10l12-2.2c1.7-0.3,3.3,0.8,3.6,2.5c0.2,0.9-0.1,1.8-0.6,2.5l-7.5,9.6
			l5.8,10.7c0.8,1.5,0.2,3.4-1.3,4.2c-0.8,0.4-1.7,0.5-2.5,0.2L77.7,183l-8.4,8.8c-1.2,1.2-3.2,1.3-4.4,0.1c-0.6-0.6-1-1.5-1-2.4
			l0.4-12.2l-11-5.3c-1.5-0.7-2.2-2.6-1.5-4.2c0.4-0.8,1.1-1.4,1.9-1.6l11.7-3.4l1.6-12.1c0.2-1.7,1.8-2.9,3.5-2.7
			C71.5,148.3,72.3,148.8,72.8,149.6"/>
		<path id="패스_36383-2" class="st1" d="M72.8,149.6l6.8,10l12-2.2c1.7-0.3,3.3,0.8,3.6,2.5c0.2,0.9-0.1,1.8-0.6,2.5l-7.5,9.6
			l5.8,10.7c0.8,1.5,0.2,3.4-1.3,4.2c-0.8,0.4-1.7,0.5-2.5,0.2L77.7,183l-8.4,8.8c-1.2,1.2-3.2,1.3-4.4,0.1c-0.6-0.6-1-1.5-1-2.4
			l0.4-12.2l-11-5.3c-1.5-0.7-2.2-2.6-1.5-4.2c0.4-0.8,1.1-1.4,1.9-1.6l11.7-3.4l1.6-12.1c0.2-1.7,1.8-2.9,3.5-2.7
			C71.5,148.3,72.3,148.8,72.8,149.6z"/>
	</g>
</g>
</svg>
