<?xml version="1.0" encoding="utf-8"?>
<!-- Generator: Adobe Illustrator 26.2.1, SVG Export Plug-In . SVG Version: 6.00 Build 0)  -->
<svg version="1.1" xmlns="http://www.w3.org/2000/svg" xmlns:xlink="http://www.w3.org/1999/xlink" x="0px" y="0px" viewBox="0 0 328 139" style="enable-background:new 0 0 328 139;" xml:space="preserve">
<style type="text/css">
.st0{fill:#F06A86;stroke:#080D4B;stroke-width:1.9976;stroke-linecap:round;stroke-linejoin:round;stroke-miterlimit:3.9955;}
.st1{fill:#FEC211;}
.st2{fill:none;stroke:#080D4B;stroke-width:1.9976;stroke-miterlimit:3.9955;}
.st3{fill:#FFFFFF;}
.st4{fill:#2FF583;stroke:#000000;stroke-miterlimit:10;}
.st5{enable-background:new    ;}
.st6{fill:#2FF583;}
.st7{fill:none;stroke:#000000;stroke-width:1.5;}
.st8{fill:none;stroke:#080D4B;stroke-width:1.9978;stroke-miterlimit:3.9955;}
.st9{fill:none;stroke:#080D4B;stroke-width:2;stroke-linecap:round;stroke-linejoin:round;}
.st10{fill:#FFFFFF;stroke:#707070;stroke-width:2;}
.st11{fill:#7582F0;}
.st12{fill:#FFFFFF;stroke:#1D1D1B;stroke-width:1.5;stroke-linecap:round;stroke-linejoin:round;stroke-miterlimit:10;}
	
	
	
#han1 {position:relative;animation:han1 both linear infinite 7s;transform-origin:74% 30%;}
#han2 {position:relative;animation:han2 both linear infinite 7s;transform-origin:74% 30%;}

@keyframes han1 {
0% {transform:translate(55%,0) rotate(0deg);}
35% {transform:translate(0%,0) rotate(0deg);}
50% {transform:translate(0%,12%) rotate(7deg);}
60% {transform:translate(0%,0) rotate(-3deg);}
100% {transform:translate(55%,0) rotate(0deg);}
}
@keyframes han2 {
0% {transform:translate(55%,0) rotate(0deg);}
35% {transform:translate(0%,0) rotate(0deg);}
50% {transform:translate(0%,12%) rotate(-7deg);}
60% {transform:translate(0%,0) rotate(3deg);}
100% {transform:translate(55%,0) rotate(0deg);}
}
	

#pick {animation:pick both linear infinite 7s;transform-origin:68% 72%;}
@keyframes pick{
0% {transform:translate(0,0) rotate(0deg);opacity:0;}
5% {transform:translate(0,0) rotate(0deg);opacity:1;}
54% {transform:translate(0,0) rotate(0deg);}
57% {transform:translate(0,-6%) rotate(4deg);}
60% {transform:translate(0,-12%) rotate(4deg);}
100% {transform:translate(55%,-12%) rotate(4deg);}
}
	
	
	
#bar1 {position:relative;animation:mdw both linear infinite 7s;}
#bar2 {position:relative;animation:bar both linear infinite 7s;}
@keyframes bar {
0% {transform:translate(55%,0);}
35% {transform:translate(0%,0);}
50% {transform:translate(0%,10%);}
60% {transform:translate(0%,0);}
100% {transform:translate(55%,0);}
}
@keyframes mdw {
0% {transform:translateX(55%);}
35% {transform:translateX(0%);}
60% {transform:translateX(0%);}
100% {transform:translateX(55%);}
}

	
	
.star {position:relative;animation:star both infinite 4s;}
.star.s1 {transform-origin:13% 39%;}
.star.s2 {transform-origin:7% 63%;animation-delay:0.5s;}
.star.s3 {transform-origin:94% 59%;animation-delay:0.7s;}
@keyframes star {
0% {transform:scale(0.4);opacity:0;}	
20% {transform:scale(1.1);opacity:1;}
40% {transform:scale(0.6);}	
58% {transform:scale(1);}
100% {transform:scale(1);}
}
</style>
	
<g id="han2">
	<g id="Group_110047" transform="matrix(0.999, -0.035, 0.035, 0.999, 90.402, 34.927)">
		<path id="패스_37119" class="st0" d="M165.2,66.2c-1.8,0-3.2-1.4-3.2-3.2c0-0.6,0.2-1.2,0.5-1.8l13.7-21.5l-21.1-27.9
			c-1-1.4-0.8-3.4,0.7-4.4c1.4-1,3.4-0.8,4.4,0.7c0,0,0,0,0,0.1l22.4,29.7c0.8,1.1,0.8,2.5,0.1,3.6l-14.9,23.4
			C167.3,65.6,166.3,66.2,165.2,66.2z"/>
		<g id="Ellipse_638" transform="translate(16.139 25.475)">
			<circle class="st1" cx="162" cy="14.2" r="7.4"/>
			<circle class="st2" cx="162" cy="14.2" r="6.4"/>
		</g>
		<g id="Ellipse_639" transform="translate(20.375 29.71)">
			<circle class="st3" cx="157.7" cy="9.9" r="3.2"/>
			<circle class="st2" cx="157.7" cy="9.9" r="2.2"/>
		</g>
	</g>
</g>
<g id="pick">
	<g id="Image_885" transform="translate(26.471)">
	</g>
	<g id="Image_885-2" transform="translate(0 28.06)">
	</g>
	<g id="Image_885-3" transform="translate(299.655 21.706) scale(1.04 1.04)">
	</g>
	<path d="M156.9,82.5l15,0.1c10.2,0,16.1,5.7,16.1,14.3c0,8.7-6,14.4-16.2,14.4l-6.3,0l0,10.4l-8.7,0L156.9,82.5z M171.5,103.5
		c4.8,0,7.8-2.3,7.8-6.6c0-4.3-3-6.6-7.8-6.6l-5.9,0l0,13.2L171.5,103.5z"/>
	<path d="M200.3,82.6l-0.1,39.2l-8.7,0l0.1-39.2L200.3,82.6z"/>
	<path d="M204.4,102.1c0-11.9,8.9-20.6,21.1-20.6c10.8,0.1,18,6.5,19.5,14.8l-8.8,0c-0.9-3.8-4.9-6.8-10.5-6.8
		c-7.1,0-12.4,5.2-12.5,12.6c0,7.2,5.3,12.6,12.4,12.6c5.6,0,10.3-3.7,10.9-7.3l8.8,0c-1.3,7.9-9.1,15.2-20,15.3
		C213.2,122.8,204.3,114.1,204.4,102.1z"/>
	<path d="M263.2,107l-5.4,6.2l0,8.8l-8.7,0l0.1-39.2l8.7,0l-0.1,18.4l15.7-18.4l10.7,0.1l-15.4,17.7L285,122l-10.9-0.1L263.2,107z"
		/>
	<path d="M157.9,82.5l15,0.1c10.2,0,16.1,5.7,16.1,14.3c0,8.7-6,14.4-16.2,14.4l-6.3,0l0,10.4l-8.7,0L157.9,82.5z M172.5,103.5
		c4.8,0,7.8-2.3,7.8-6.6c0-4.3-3-6.6-7.8-6.6l-5.9,0l0,13.2L172.5,103.5z"/>
	<path d="M201.3,82.6l-0.1,39.2l-8.7,0l0.1-39.2L201.3,82.6z"/>
	<path d="M205.4,102.1c0-11.9,8.9-20.6,21.1-20.6c10.8,0.1,18,6.5,19.5,14.8l-8.8,0c-0.9-3.8-4.9-6.8-10.5-6.8
		c-7.1,0-12.4,5.2-12.5,12.6c0,7.2,5.3,12.6,12.4,12.6c5.6,0,10.3-3.7,10.9-7.3l8.8,0c-1.3,7.9-9.1,15.2-20,15.3
		C214.2,122.8,205.3,114.1,205.4,102.1z"/>
	<path d="M264.2,107l-5.4,6.2l0,8.8l-8.7,0l0.1-39.2l8.7,0l-0.1,18.4l15.7-18.4l10.7,0.1l-15.4,17.7L286,122l-10.9-0.1L264.2,107z"
		/>
	<path class="st4" d="M154.7,79.6l15,0.1c10.2,0,16.1,5.7,16.1,14.3c0,8.7-6,14.4-16.2,14.4l-6.3,0l0,10.4l-8.7,0L154.7,79.6z
		 M169.3,100.7c4.8,0,7.8-2.3,7.8-6.6c0-4.3-3-6.6-7.8-6.6l-5.9,0l0,13.2L169.3,100.7z"/>
	<path class="st4" d="M198.1,79.7l-0.1,39.2l-8.7,0l0.1-39.2L198.1,79.7z"/>
	<path class="st4" d="M202.2,99.3c0-11.9,8.9-20.6,21.1-20.6c10.8,0.1,18,6.5,19.5,14.8l-8.8,0c-0.9-3.8-4.9-6.8-10.5-6.8
		c-7.1,0-12.4,5.2-12.5,12.6c0,7.2,5.3,12.6,12.4,12.6c5.6,0,10.3-3.7,10.9-7.3l8.8,0c-1.3,7.9-9.1,15.2-20,15.3
		C211,119.9,202.1,111.2,202.2,99.3z"/>
	<path class="st4" d="M261,104.1l-5.4,6.2l0,8.8l-8.7,0l0.1-39.2l8.7,0l-0.1,18.4l15.7-18.4L282,80l-15.4,17.7l16.2,21.5l-10.9-0.1
		L261,104.1z"/>
	<path class="st4" d="M154.7,79.6l15,0.1c10.2,0,16.1,5.7,16.1,14.3c0,8.7-6,14.4-16.2,14.4l-6.3,0l0,10.4l-8.7,0L154.7,79.6z
		 M169.3,100.7c4.8,0,7.8-2.3,7.8-6.6c0-4.3-3-6.6-7.8-6.6l-5.9,0l0,13.2L169.3,100.7z"/>
	<path class="st4" d="M198.1,79.7l-0.1,39.2l-8.7,0l0.1-39.2L198.1,79.7z"/>
	<path class="st4" d="M202.2,99.3c0-11.9,8.9-20.6,21.1-20.6c10.8,0.1,18,6.5,19.5,14.8l-8.8,0c-0.9-3.8-4.9-6.8-10.5-6.8
		c-7.1,0-12.4,5.2-12.5,12.6c0,7.2,5.3,12.6,12.4,12.6c5.6,0,10.3-3.7,10.9-7.3l8.8,0c-1.3,7.9-9.1,15.2-20,15.3
		C211,119.9,202.1,111.2,202.2,99.3z"/>
	<path class="st4" d="M261,104.1l-5.4,6.2l0,8.8l-8.7,0l0.1-39.2l8.7,0l-0.1,18.4l15.7-18.4L282,80l-15.4,17.7l16.2,21.5l-10.9-0.1
		L261,104.1z"/>
</g>
<g id="md">
	<g class="st5">
		<path d="M54.7,82.2h7l13.5,21.9l13.5-21.9h7v39.1H87V99.8l-9.1,15h-5.3l-9.1-15v21.5h-8.7L54.7,82.2L54.7,82.2z"/>
		<path d="M101.3,82.2h15.2c13,0,21,8,21,19.6s-8,19.5-21,19.5h-15.2V82.2z M116.6,113.6c7.5,0,12.1-4.3,12.1-11.8
			s-4.6-11.9-12.1-11.9H110v23.7C110,113.6,116.6,113.6,116.6,113.6z"/>
	</g>
	<path d="M55.7,82.2h7l13.5,21.9l13.5-21.9h7v39.1H88V99.8l-9.1,15h-5.3l-9.1-15v21.5h-8.7L55.7,82.2L55.7,82.2z"/>
	<path d="M102.3,82.2h15.2c13,0,21,8,21,19.6s-8,19.5-21,19.5h-15.2V82.2z M117.6,113.6c7.5,0,12.1-4.3,12.1-11.8
		s-4.6-11.9-12.1-11.9H111v23.7C111,113.6,117.6,113.6,117.6,113.6z"/>
	<path class="st6" d="M52.7,79.2h7l13.5,21.9l13.5-21.9h7v39.1H85V96.8l-9.1,15h-5.3l-9.1-15v21.5h-8.7L52.7,79.2L52.7,79.2z"/>
	<path class="st6" d="M99.3,79.2h15.2c13,0,21,8,21,19.6s-8,19.5-21,19.5H99.3V79.2z M114.6,110.6c7.5,0,12.1-4.3,12.1-11.8
		s-4.6-11.9-12.1-11.9H108v23.7C108,110.6,114.6,110.6,114.6,110.6z"/>
	<g class="st5">
		<path class="st7" d="M52.7,79.2h7l13.5,21.9l13.5-21.9h7v39.1H85V96.8l-9.1,15h-5.3l-9.1-15v21.5h-8.7L52.7,79.2L52.7,79.2z"/>
		<path class="st7" d="M99.3,79.2h15.2c13,0,21,8,21,19.6s-8,19.5-21,19.5H99.3V79.2z M114.6,110.6c7.5,0,12.1-4.3,12.1-11.8
			s-4.6-11.9-12.1-11.9H108v23.7C108,110.6,114.6,110.6,114.6,110.6z"/>
	</g>
</g>
<g id="han1">
	<g id="Group_110048" transform="matrix(-0.999, -0.035, 0.035, -0.999, 64.22, 94.322)">
		<path id="패스_37119-2" class="st0" d="M-163,4.8c-1.8,0-3.2,1.4-3.2,3.2c0,0.6,0.2,1.2,0.5,1.8l13.7,21.5l-21.1,27.9
			c-1,1.4-0.7,3.4,0.8,4.4c1.4,1,3.3,0.7,4.4-0.7l22.4-29.7c0.8-1.1,0.8-2.5,0.1-3.6l-14.9-23.4C-160.9,5.3-161.9,4.8-163,4.8z"/>
		<g id="Ellipse_638-2" transform="translate(16.14 19.132)">
			
				<ellipse transform="matrix(0.9994 -3.501609e-02 3.501609e-02 0.9994 -0.5279 -5.8124)" class="st1" cx="-166.2" cy="12.2" rx="7.4" ry="7.4"/>
			
				<ellipse transform="matrix(0.9994 -3.501609e-02 3.501609e-02 0.9994 -0.5279 -5.8124)" class="st8" cx="-166.2" cy="12.2" rx="6.4" ry="6.4"/>
		</g>
		<g id="Ellipse_639-2" transform="translate(20.375 23.367)">
			
				<ellipse transform="matrix(0.9994 -3.501609e-02 3.501609e-02 0.9994 -0.3835 -5.9656)" class="st3" cx="-170.5" cy="8" rx="3.2" ry="3.2"/>
			
				<ellipse transform="matrix(0.9994 -3.501609e-02 3.501609e-02 0.9994 -0.3835 -5.9656)" class="st8" cx="-170.5" cy="8" rx="2.2" ry="2.2"/>
		</g>
	</g>
</g>
<g id="bar2">
	<g>
		<g>
			<rect id="Rectangle_19645" x="240.4" y="3.8" class="st3" width="5.3" height="44.4"/>
			<rect id="Rectangle_19646" x="239.8" y="2.9" class="st9" width="5.3" height="44.4"/>
		</g>
		<path id="Path_36470" class="st1" d="M252,40.5c-0.1,5.2-4.3,9.4-9.5,9.5c-5.1,0-8.5-4.4-8.5-9.5s3.4-8.5,8.5-8.5
			S252,35.4,252,40.5"/>
		<path id="Path_36471" class="st9" d="M252.5,41c0,5.3-4.3,9.5-9.5,9.5c-5.3,0-9.5-4.3-9.5-9.5s4.3-9.5,9.5-9.5l0,0
			C248.2,31.6,252.4,35.8,252.5,41z"/>
		<path id="Path_36472" class="st10" d="M246.2,41c0,1.8-1.4,3.2-3.2,3.2s-3.2-1.4-3.2-3.2s1.4-3.2,3.2-3.2l0,0
			c1.7-0.1,3.1,1.2,3.2,2.8C246.2,40.8,246.2,40.9,246.2,41"/>
		<circle id="Ellipse_626" class="st9" cx="243" cy="41" r="3.2"/>
	</g>
</g>
<g id="bar1">
	<path id="Path_36473" class="st11" d="M255.2,17.2h-25.4c-2,0-3.2-2.2-3.2-4.2V9.8h32.8V13C259.2,15.2,257.4,17,255.2,17.2"/>
	<path id="Path_36474" class="st9" d="M255.7,16.7h-25.4c-2,0-4.2-1.2-4.2-3.2V9.3h32.8v4.2c0.2,1.6-1,3-2.6,3.2
		C256.1,16.7,255.9,16.7,255.7,16.7z"/>
	<rect id="Rectangle_19647" x="217.1" y="2.4" class="st3" width="95.3" height="7.4"/>
	<rect id="Rectangle_19648" x="216.5" y="2.9" class="st9" width="96.4" height="6.4"/>
</g>
<g id="star">
	<path class="st12 star s1" d="M42.7,38c0,0,0.8,15.7-12.7,15.8c0,0,12.7,0,12.7,15c0,0,0.8-15.4,11.9-15.4C54.6,53.4,42.7,52.5,42.7,38z"/>
	<path class="st12 star s2" d="M24.6,71.5c0,0,0.8,15.7-12.7,15.8c0,0,12.7,0,12.7,15c0,0,0.8-15.4,11.9-15.4C36.5,86.9,24.6,86,24.6,71.5z"/>
	<path class="st12 star s3" d="M309.1,67.4c0,0,0.8,15.7-12.7,15.8c0,0,12.7,0,12.7,15c0,0,0.8-15.4,11.9-15.4C321,82.8,309.1,81.9,309.1,67.4z"/>
</g>
</svg>
