<?xml version="1.0" encoding="utf-8"?>
<!-- Generator: Adobe Illustrator 26.3.1, SVG Export Plug-In . SVG Version: 6.00 Build 0)  -->
<svg version="1.1" xmlns="http://www.w3.org/2000/svg" xmlns:xlink="http://www.w3.org/1999/xlink" x="0px" y="0px"
	 viewBox="0 0 487 134" style="enable-background:new 0 0 487 134;" xml:space="preserve">
<style type="text/css">
	.st0{fill:none;}
	.st1{fill:#FE4847;stroke:#FFFFFF;stroke-width:12;}
	.st2{fill:#FE4847;}
	.st3{opacity:0.5;}
	.st4{opacity:0.7;clip-path:url(#SVGID_00000110437963152560845910000004353418648555705778_);}
	.st5{fill:#FFFFFF;}
	.st6{fill:none;stroke:#000000;stroke-width:0.3;}
	.st7{fill:none;stroke:#000000;stroke-width:3;}
	.st8{fill:#FFDF5B;stroke:#000000;stroke-width:2.5;}
	.st9{fill:#FFDF5B;stroke:#000000;stroke-width:3;stroke-linecap:round;stroke-linejoin:round;}

	.star {position:relative;animation:star both infinite 4s;}
	.star.s1 {transform-origin:10% 17%;}
	.star.s2 {transform-origin:6% 40%;animation-delay:0.5s;}
	.star.s3 {transform-origin:94% 85%;animation-delay:0.7s;}

	@keyframes star {
	0% {transform:scale(0.4);opacity:0;}	
	20% {transform:scale(1.1);opacity:1;}
	40% {transform:scale(0.6);}	
	58% {transform:scale(1);}
	100% {transform:scale(1);}
	}

	.rot {position:relative;animation:rotate both linear infinite 3s;transform-origin:37% 50%;}
		
	@keyframes rotate {
	0% {transform:rotate(0deg);}
	20% {transform:rotate(-13deg);}
	50% {transform:rotate(0deg);}
	70% {transform:rotate(10deg);}
	100% {transform:rotate(0deg);}
  }
</style>
<g id="레이어_1">
	<g id="그룹_116366" transform="translate(15347 -7581)">
		<rect id="사각형_22432" x="-15347" y="7581" class="st0" width="487" height="134"/>
	</g>
</g>
<g id="레이어_8" style="overflow:hidden">
	<g id="그룹_116364" transform="translate(-15339.345 7583.138)">
		<path id="합치기_192" class="st1" d="M15347-7559.2h471.2v93.6H15347V-7559.2z"/>
		<g id="그룹_116297" transform="translate(0.851 0)">
			<g id="사각형_22362" transform="translate(0 22.53)">
				<rect x="15347" y="-7581" class="st2" width="469.5" height="91.9"/>
			</g>
			<g>
				<defs>
					<rect id="SVGID_1_" x="15347" y="-7558.4" width="469.5" height="91.9"/>
				</defs>
				<clipPath id="SVGID_00000019643724098384523960000012397155227559776433_">
					<use xlink:href="#SVGID_1_"  style="overflow:visible;"/>
				</clipPath>
			</g>
		</g>
	</g>
</g>
<g id="레이어_6">
	<g id="마스크_그룹_112052" transform="translate(0 22.602)" class="st3">
		<g>
			<defs>
				<rect id="SVGID_00000183927703260725285560000014007960447125066143_" x="-74.9" y="-651.1" width="638" height="1398.4"/>
			</defs>
			<clipPath id="SVGID_00000183240301262963377830000002457584067870956461_">
				<use xlink:href="#SVGID_00000183927703260725285560000014007960447125066143_"  style="overflow:visible;"/>
			</clipPath>
			
				<g id="마스크_그룹_112051" transform="translate(-83.361 -653.28)" style="opacity:0.7;clip-path:url(#SVGID_00000183240301262963377830000002457584067870956461_);">
				<g id="line" transform="translate(0 -289.213)">
					<g id="line_horizontal" transform="translate(0 34.025)">
						<g>
							<g>
								
									<rect id="사각형_22378_00000049198350138697187300000018403321337887640201_" x="90.4" y="966.7" class="st5" width="472.5" height="1.7"/>
								
									<rect id="사각형_22401_00000024695460332255437150000012563409199201103802_" x="90.4" y="931" class="st5" width="471.9" height="1.7"/>
							</g>
						</g>
						<line class="st6" x1="90.4" y1="877" x2="90.4" y2="913"/>
						<line class="st6" x1="36.4" y1="931" x2="72.4" y2="931"/>
						<line class="st6" x1="36.4" y1="968.4" x2="72.4" y2="968.4"/>
						<line class="st6" x1="90.4" y1="1022.4" x2="90.4" y2="986.4"/>
						<line class="st6" x1="562.9" y1="877" x2="562.9" y2="913"/>
						<line class="st6" x1="616.9" y1="931" x2="580.9" y2="931"/>
						<line class="st6" x1="616.9" y1="968.4" x2="580.9" y2="968.4"/>
						<line class="st6" x1="562.9" y1="1022.4" x2="562.9" y2="986.4"/>
					</g>
					<g id="사각형_22414">
						<g>
							<rect x="256.9" y="940.7" class="st5" width="1.7" height="95.8"/>
						</g>
						<line class="st6" x1="256.9" y1="886.7" x2="256.9" y2="922.7"/>
						<line class="st6" x1="202.9" y1="940.7" x2="238.9" y2="940.7"/>
						<line class="st6" x1="202.9" y1="1036.5" x2="238.9" y2="1036.5"/>
						<line class="st6" x1="256.9" y1="1090.5" x2="256.9" y2="1054.5"/>
						<line class="st6" x1="258.6" y1="886.7" x2="258.6" y2="922.7"/>
						<line class="st6" x1="312.6" y1="940.7" x2="276.6" y2="940.7"/>
						<line class="st6" x1="312.6" y1="1036.5" x2="276.6" y2="1036.5"/>
						<line class="st6" x1="258.6" y1="1090.5" x2="258.6" y2="1054.5"/>
					</g>
					<g id="사각형_22415">
						<g>
							<rect x="471.2" y="940.7" class="st5" width="1.7" height="97.2"/>
						</g>
						<line class="st6" x1="471.2" y1="886.7" x2="471.2" y2="922.7"/>
						<line class="st6" x1="417.2" y1="940.7" x2="453.2" y2="940.7"/>
						<line class="st6" x1="417.2" y1="1037.9" x2="453.2" y2="1037.9"/>
						<line class="st6" x1="471.2" y1="1091.9" x2="471.2" y2="1055.9"/>
						<line class="st6" x1="472.9" y1="886.7" x2="472.9" y2="922.7"/>
						<line class="st6" x1="526.9" y1="940.7" x2="490.9" y2="940.7"/>
						<line class="st6" x1="526.9" y1="1037.9" x2="490.9" y2="1037.9"/>
						<line class="st6" x1="472.9" y1="1091.9" x2="472.9" y2="1055.9"/>
					</g>
					<g>
						<g>
							<path class="st5" d="M114,940.8v97.1h1.7v-97.2C115.3,940.8,114.8,940.8,114,940.8z"/>
						</g>
						<line class="st6" x1="114" y1="886.7" x2="114" y2="922.7"/>
						<line class="st6" x1="60" y1="940.7" x2="96" y2="940.7"/>
						<line class="st6" x1="60" y1="1037.9" x2="96" y2="1037.9"/>
						<line class="st6" x1="114" y1="1091.9" x2="114" y2="1055.9"/>
						<line class="st6" x1="115.7" y1="886.7" x2="115.7" y2="922.7"/>
						<line class="st6" x1="169.7" y1="940.7" x2="133.7" y2="940.7"/>
						<line class="st6" x1="169.7" y1="1037.9" x2="133.7" y2="1037.9"/>
						<line class="st6" x1="115.7" y1="1091.9" x2="115.7" y2="1055.9"/>
					</g>
					<g>
						<g>
							<path class="st5" d="M115.7,310.9V2.1H114v306.8C114.8,309.4,115.3,310.1,115.7,310.9z"/>
						</g>
						<line class="st6" x1="114" y1="-51.9" x2="114" y2="-15.9"/>
						<line class="st6" x1="60" y1="2.1" x2="96" y2="2.1"/>
						<line class="st6" x1="60" y1="310.9" x2="96" y2="310.9"/>
						<line class="st6" x1="114" y1="364.9" x2="114" y2="328.9"/>
						<line class="st6" x1="115.7" y1="-51.9" x2="115.7" y2="-15.9"/>
						<line class="st6" x1="169.7" y1="2.1" x2="133.7" y2="2.1"/>
						<line class="st6" x1="169.7" y1="310.9" x2="133.7" y2="310.9"/>
						<line class="st6" x1="115.7" y1="364.9" x2="115.7" y2="328.9"/>
					</g>
					<g id="사각형_22417">
						<g>
							<rect x="328.3" y="940.7" class="st5" width="1.7" height="95.7"/>
						</g>
						<line class="st6" x1="328.3" y1="886.7" x2="328.3" y2="922.7"/>
						<line class="st6" x1="274.3" y1="940.7" x2="310.3" y2="940.7"/>
						<line class="st6" x1="274.3" y1="1036.4" x2="310.3" y2="1036.4"/>
						<line class="st6" x1="328.3" y1="1090.4" x2="328.3" y2="1054.4"/>
						<line class="st6" x1="330" y1="886.7" x2="330" y2="922.7"/>
						<line class="st6" x1="384" y1="940.7" x2="348" y2="940.7"/>
						<line class="st6" x1="384" y1="1036.4" x2="348" y2="1036.4"/>
						<line class="st6" x1="330" y1="1090.4" x2="330" y2="1054.4"/>
					</g>
					<g id="사각형_22418">
						<g>
							<rect x="542.7" y="940.7" class="st5" width="1.7" height="97.2"/>
						</g>
						<line class="st6" x1="542.7" y1="886.7" x2="542.7" y2="922.7"/>
						<line class="st6" x1="488.7" y1="940.7" x2="524.7" y2="940.7"/>
						<line class="st6" x1="488.7" y1="1037.9" x2="524.7" y2="1037.9"/>
						<line class="st6" x1="542.7" y1="1091.9" x2="542.7" y2="1055.9"/>
						<line class="st6" x1="544.4" y1="886.7" x2="544.4" y2="922.7"/>
						<line class="st6" x1="598.4" y1="940.7" x2="562.4" y2="940.7"/>
						<line class="st6" x1="598.4" y1="1037.9" x2="562.4" y2="1037.9"/>
						<line class="st6" x1="544.4" y1="1091.9" x2="544.4" y2="1055.9"/>
					</g>
					<g id="사각형_22419">
						<g>
							<rect x="185.4" y="940.7" class="st5" width="1.7" height="95.7"/>
						</g>
						<line class="st6" x1="185.4" y1="886.7" x2="185.4" y2="922.7"/>
						<line class="st6" x1="131.4" y1="940.7" x2="167.4" y2="940.7"/>
						<line class="st6" x1="131.4" y1="1036.4" x2="167.4" y2="1036.4"/>
						<line class="st6" x1="185.4" y1="1090.4" x2="185.4" y2="1054.4"/>
						<line class="st6" x1="187.1" y1="886.7" x2="187.1" y2="922.7"/>
						<line class="st6" x1="241.1" y1="940.7" x2="205.1" y2="940.7"/>
						<line class="st6" x1="241.1" y1="1036.4" x2="205.1" y2="1036.4"/>
						<line class="st6" x1="187.1" y1="1090.4" x2="187.1" y2="1054.4"/>
					</g>
					<g id="사각형_22420">
						<g>
							<rect x="399.8" y="943.1" class="st5" width="1.7" height="94.9"/>
						</g>
						<line class="st6" x1="399.8" y1="889.1" x2="399.8" y2="925.1"/>
						<line class="st6" x1="345.8" y1="943.1" x2="381.8" y2="943.1"/>
						<line class="st6" x1="345.8" y1="1037.9" x2="381.8" y2="1037.9"/>
						<line class="st6" x1="399.8" y1="1091.9" x2="399.8" y2="1055.9"/>
						<line class="st6" x1="401.5" y1="889.1" x2="401.5" y2="925.1"/>
						<line class="st6" x1="455.5" y1="943.1" x2="419.5" y2="943.1"/>
						<line class="st6" x1="455.5" y1="1037.9" x2="419.5" y2="1037.9"/>
						<line class="st6" x1="401.5" y1="1091.9" x2="401.5" y2="1055.9"/>
					</g>
					<g id="사각형_22423">
						<g>
							<rect x="292.6" y="940.7" class="st5" width="1.7" height="95.8"/>
						</g>
						<line class="st6" x1="292.6" y1="886.7" x2="292.6" y2="922.7"/>
						<line class="st6" x1="238.6" y1="940.7" x2="274.6" y2="940.7"/>
						<line class="st6" x1="238.6" y1="1036.5" x2="274.6" y2="1036.5"/>
						<line class="st6" x1="292.6" y1="1090.5" x2="292.6" y2="1054.5"/>
						<line class="st6" x1="294.3" y1="886.7" x2="294.3" y2="922.7"/>
						<line class="st6" x1="348.3" y1="940.7" x2="312.3" y2="940.7"/>
						<line class="st6" x1="348.3" y1="1036.5" x2="312.3" y2="1036.5"/>
						<line class="st6" x1="294.3" y1="1090.5" x2="294.3" y2="1054.5"/>
					</g>
					<g id="사각형_22424">
						<g>
							<rect x="507" y="940.7" class="st5" width="1.7" height="97.2"/>
						</g>
						<line class="st6" x1="507" y1="886.7" x2="507" y2="922.7"/>
						<line class="st6" x1="453" y1="940.7" x2="489" y2="940.7"/>
						<line class="st6" x1="453" y1="1037.9" x2="489" y2="1037.9"/>
						<line class="st6" x1="507" y1="1091.9" x2="507" y2="1055.9"/>
						<line class="st6" x1="508.7" y1="886.7" x2="508.7" y2="922.7"/>
						<line class="st6" x1="562.7" y1="940.7" x2="526.7" y2="940.7"/>
						<line class="st6" x1="562.7" y1="1037.9" x2="526.7" y2="1037.9"/>
						<line class="st6" x1="508.7" y1="1091.9" x2="508.7" y2="1055.9"/>
					</g>
					<g id="사각형_22425">
						<g>
							<rect x="149.7" y="940.7" class="st5" width="1.7" height="95.8"/>
						</g>
						<line class="st6" x1="149.7" y1="886.7" x2="149.7" y2="922.7"/>
						<line class="st6" x1="95.7" y1="940.7" x2="131.7" y2="940.7"/>
						<line class="st6" x1="95.7" y1="1036.5" x2="131.7" y2="1036.5"/>
						<line class="st6" x1="149.7" y1="1090.5" x2="149.7" y2="1054.5"/>
						<line class="st6" x1="151.4" y1="886.7" x2="151.4" y2="922.7"/>
						<line class="st6" x1="205.4" y1="940.7" x2="169.4" y2="940.7"/>
						<line class="st6" x1="205.4" y1="1036.5" x2="169.4" y2="1036.5"/>
						<line class="st6" x1="151.4" y1="1090.5" x2="151.4" y2="1054.5"/>
					</g>
					<g id="사각형_22426">
						<g>
							<rect x="364.1" y="940.7" class="st5" width="1.7" height="95.7"/>
						</g>
						<line class="st6" x1="364.1" y1="886.7" x2="364.1" y2="922.7"/>
						<line class="st6" x1="310.1" y1="940.7" x2="346.1" y2="940.7"/>
						<line class="st6" x1="310.1" y1="1036.4" x2="346.1" y2="1036.4"/>
						<line class="st6" x1="364.1" y1="1090.4" x2="364.1" y2="1054.4"/>
						<line class="st6" x1="365.8" y1="886.7" x2="365.8" y2="922.7"/>
						<line class="st6" x1="419.8" y1="940.7" x2="383.8" y2="940.7"/>
						<line class="st6" x1="419.8" y1="1036.4" x2="383.8" y2="1036.4"/>
						<line class="st6" x1="365.8" y1="1090.4" x2="365.8" y2="1054.4"/>
					</g>
					<g id="사각형_22428">
						<g>
							<rect x="221.2" y="943.1" class="st5" width="1.7" height="93.4"/>
						</g>
						<line class="st6" x1="221.2" y1="889.1" x2="221.2" y2="925.1"/>
						<line class="st6" x1="167.2" y1="943.1" x2="203.2" y2="943.1"/>
						<line class="st6" x1="167.2" y1="1036.5" x2="203.2" y2="1036.5"/>
						<line class="st6" x1="221.2" y1="1090.5" x2="221.2" y2="1054.5"/>
						<line class="st6" x1="222.9" y1="889.1" x2="222.9" y2="925.1"/>
						<line class="st6" x1="276.9" y1="943.1" x2="240.9" y2="943.1"/>
						<line class="st6" x1="276.9" y1="1036.5" x2="240.9" y2="1036.5"/>
						<line class="st6" x1="222.9" y1="1090.5" x2="222.9" y2="1054.5"/>
					</g>
					<g id="사각형_22429">
						<g>
							<rect x="435.5" y="940.7" class="st5" width="1.7" height="97.2"/>
						</g>
						<line class="st6" x1="435.5" y1="886.7" x2="435.5" y2="922.7"/>
						<line class="st6" x1="381.5" y1="940.7" x2="417.5" y2="940.7"/>
						<line class="st6" x1="381.5" y1="1037.9" x2="417.5" y2="1037.9"/>
						<line class="st6" x1="435.5" y1="1091.9" x2="435.5" y2="1055.9"/>
						<line class="st6" x1="437.2" y1="886.7" x2="437.2" y2="922.7"/>
						<line class="st6" x1="491.2" y1="940.7" x2="455.2" y2="940.7"/>
						<line class="st6" x1="491.2" y1="1037.9" x2="455.2" y2="1037.9"/>
						<line class="st6" x1="437.2" y1="1091.9" x2="437.2" y2="1055.9"/>
					</g>
				</g>
			</g>
		</g>
	</g>
</g>
<g id="레이어_9">
	<rect x="7" y="23.2" class="st7" width="472.5" height="94.9"/>
</g>
<g id="레이어_7">
	<g id="그룹_116296" transform="translate(40.829 27.706)">
		<g id="패스_52156" transform="translate(36.401 43.458)">
			<path d="M56,21.8c-3.7,0-7-0.9-9.5-2.6c-2.6-1.8-4-4.3-4.1-7.3l0-0.5h0.5h8.2h0.4l0.1,0.4c0.2,1.5,2.1,2.6,4.6,2.6
				c2.6,0,4.2-0.9,4.2-1.8c0-1-2-1.8-6.3-2.4c-3.8-0.6-6.4-1.4-8.2-2.7c-2.2-1.5-3.2-3.7-3.2-6.5c0-1.4,0.4-2.7,1.1-3.9
				c0.7-1.1,1.6-2.1,2.9-3c2.4-1.6,5.7-2.5,9.3-2.5c3.5,0,6.8,0.9,9.1,2.5c1.2,0.8,2.2,1.9,2.9,3c0.7,1.2,1.1,2.5,1.2,4l0,0.5h-0.5
				h-8.2H60l-0.1-0.4c-0.2-1.4-1.9-2.3-4.2-2.3c-2.5,0-3.9,0.8-3.9,1.6c0,0.3,0.1,0.7,1.2,1.2c1,0.4,2.5,0.7,5,1.1
				c4.2,0.6,7.1,1.7,8.9,3.1c1.8,1.5,2.7,3.5,2.7,6.1c0,1.5-0.4,2.9-1.1,4.1c-0.7,1.2-1.7,2.2-3,3.1C63,20.9,59.7,21.8,56,21.8z
				 M25.1,21.8c-2.2,0-4.2-0.4-6.1-1.1c-1.8-0.7-3.4-1.8-4.8-3.1c-1.3-1.4-2.4-3-3.1-4.8c-0.7-1.9-1.1-3.9-1.1-6.1
				c0-2.1,0.4-4.2,1.1-6c0.7-1.8,1.8-3.4,3.1-4.8c1.3-1.4,2.9-2.4,4.8-3.2C21-8,23-8.4,25.1-8.4c2.2,0,4.2,0.4,6.1,1.1
				C33-6.6,34.6-5.5,36-4.2c1.3,1.4,2.4,3,3.1,4.8c0.7,1.9,1.1,3.9,1.1,6.1c0,1-0.1,1.9-0.2,2.8l-0.1,0.4h-0.4H19.7
				c0.8,2.6,2.7,4.1,5.5,4.1c2.2,0,4.1-0.8,4.7-1.9l0.1-0.3h0.3h8.5h0.7l-0.2,0.6c-0.7,2.7-2.5,5.1-5,6.8
				C31.7,20.9,28.6,21.8,25.1,21.8z M19.6,3.4h11.1C30,0.7,28-0.7,25.1-0.7C22.3-0.7,20.4,0.7,19.6,3.4z M85.4,21.2h-0.5h-8.5h-0.5
				v-0.5V0.5h-5h-0.5V0v-7.3v-0.5h0.5h5v-7.8V-16h0.5h8.5h0.5v0.5v7.8h5H91v0.5V0v0.5h-0.5h-5v20.1V21.2z M-6.2,21.2h-18.3H-25v-0.5
				v-38.8v-0.5h0.5h16.9c2.2,0,4.2,0.3,5.9,0.8c1.7,0.5,3.2,1.4,4.4,2.4c2.4,2.1,3.7,5.2,3.7,8.8c0,1.5-0.5,3-1.3,4.4
				c-0.7,1-1.5,1.9-2.5,2.5C4,0.9,5.3,2,6.3,3.3C7.5,5,8.2,7,8.2,8.9c0,3.7-1.3,6.8-3.8,9C1.8,20-1.8,21.2-6.2,21.2z M-15.3,12.8
				h8.7c1.6,0,2.9-0.4,3.8-1c0.9-0.7,1.3-1.6,1.3-2.9S-1.9,6.7-2.8,6C-3.7,5.4-5,5-6.6,5h-8.7V12.8z M-15.3-2.9H-8
				c2.1,0,4.7-0.6,4.7-3.6c0-1.2-0.4-2.1-1.2-2.7c-0.8-0.6-2-1-3.5-1h-7.3V-2.9z"/>
			<path d="M56,21.3c7.1,0,13.1-3.5,13.1-9.2c0-4.8-3-7.5-11.2-8.8c-4.8-0.8-6.6-1.4-6.6-2.8c0-1.2,1.9-2.1,4.4-2.1
				c2.5,0,4.4,1,4.7,2.8h8.2c-0.3-5.5-5.8-9.1-12.8-9.1c-7.1,0-12.8,3.4-12.8,8.9c0,5.7,4.4,7.7,11.1,8.7c4.8,0.7,6.7,1.6,6.7,2.9
				c0,1.3-2,2.3-4.7,2.3c-2.7,0-4.8-1.2-5-3h-8.2C43.2,17.7,48.7,21.3,56,21.3 M25.1,21.3c6.8,0,12.2-3.7,13.7-9h-8.5
				c-0.7,1.3-2.7,2.2-5.1,2.2c-3.2,0-5.4-1.9-6.1-5.1h20.4c0.1-1,0.2-1.9,0.2-2.7c0-8.5-6-14.6-14.5-14.6c-8.5,0-14.5,6.1-14.5,14.6
				C10.6,15.2,16.6,21.3,25.1,21.3 M31.4,3.9H19c0.7-3.3,2.8-5.1,6.1-5.1C28.5-1.2,30.7,0.6,31.4,3.9 M84.9,20.7V0h5.5v-7.3h-5.5
				v-8.3h-8.5v8.3h-5.5V0h5.5v20.6H84.9 M-6.2,20.7c8.7,0,13.9-4.6,13.9-11.8c0-3.8-2.6-7.4-6.3-8.6c2.7-1,4.5-4.1,4.5-6.9
				c0-7.1-4.9-11.6-13.5-11.6h-16.9v38.8H-6.2 M-15.8,4.5h9.2C-3.2,4.5-1,6-1,8.9c0,2.9-2.1,4.4-5.6,4.4h-9.2V4.5 M-15.8-10.8H-8
				c3.3,0,5.2,1.5,5.2,4.2c0,2.7-1.9,4.1-5.2,4.1h-7.8V-10.8 M56,22.3c-3.8,0-7.2-0.9-9.8-2.7c-1.3-0.9-2.3-2-3.1-3.3
				c-0.8-1.3-1.2-2.8-1.3-4.4l-0.1-1H52l0.1,0.8c0.1,0.7,0.7,1.2,1.1,1.5c0.8,0.4,1.8,0.7,2.9,0.7c2.4,0,3.7-0.8,3.7-1.3
				c0-0.2-0.3-0.5-1-0.8c-1-0.4-2.6-0.8-4.9-1.1c-3.9-0.6-6.6-1.5-8.5-2.8c-1.1-0.8-2-1.7-2.6-2.9c-0.6-1.2-0.9-2.5-0.9-4.1
				c0-1.5,0.4-2.9,1.1-4.2c0.7-1.2,1.7-2.2,3-3.1c2.5-1.7,5.9-2.6,9.6-2.6c3.6,0,7,0.9,9.4,2.6c1.3,0.9,2.3,1.9,3,3.2
				c0.8,1.3,1.2,2.7,1.3,4.2l0.1,1.1H59.6l-0.1-0.8c-0.1-0.5-0.4-1-1-1.3c-0.7-0.4-1.6-0.6-2.7-0.6c-2.3,0-3.4,0.7-3.4,1.1
				c0,0.9,4.3,1.6,5.8,1.8C62.4,3,65.3,4,67.2,5.6c1.9,1.6,2.9,3.7,2.9,6.5c0,1.6-0.4,3-1.2,4.4c-0.7,1.2-1.8,2.3-3.1,3.2
				C63.2,21.4,59.8,22.3,56,22.3z M25.1,22.3c-2.2,0-4.3-0.4-6.2-1.2c-1.9-0.8-3.5-1.8-4.9-3.3c-1.4-1.4-2.5-3.1-3.2-5
				C10,11,9.6,8.9,9.6,6.7c0-2.2,0.4-4.3,1.1-6.2c0.7-1.9,1.8-3.6,3.2-5C15.4-5.9,17-7,18.9-7.8c1.9-0.8,4-1.2,6.2-1.2
				c2.2,0,4.3,0.4,6.2,1.2c1.9,0.8,3.5,1.8,4.9,3.3c1.4,1.4,2.5,3.1,3.2,5c0.8,1.9,1.1,4,1.1,6.2c0,1-0.1,1.9-0.2,2.9l-0.1,0.9h-20
				c0.8,2,2.5,3.1,4.8,3.1c2,0,3.7-0.7,4.3-1.7l0.3-0.5h10.4l-0.3,1.3c-0.8,2.9-2.6,5.3-5.2,7.1C31.9,21.4,28.6,22.3,25.1,22.3z
				 M20.3,2.9H30c-0.8-2.1-2.5-3.1-4.9-3.1C22.8-0.2,21.1,0.9,20.3,2.9z M85.9,21.7H75.4V1h-5.5v-9.3h5.5v-8.3h10.5v8.3h5.5V1h-5.5
				V21.7z M-6.2,21.7h-19.3v-40.8h17.9c2.2,0,4.3,0.3,6,0.9c1.8,0.6,3.3,1.4,4.6,2.5c2.5,2.2,3.8,5.4,3.8,9.2c0,1.6-0.5,3.2-1.4,4.7
				C4.9-1.1,4.2-0.4,3.5,0.2c1.2,0.7,2.3,1.7,3.2,2.8c1.3,1.7,2,3.8,2,5.8c0,3.9-1.4,7.1-4,9.3C2,20.5-1.7,21.7-6.2,21.7z
				 M-14.8,12.3h8.2c1.5,0,2.7-0.3,3.5-0.9C-2.4,10.8-2,10-2,8.9S-2.4,7-3.1,6.4c-0.8-0.6-2-0.9-3.5-0.9h-8.2V12.3z M-14.8-3.4H-8
				c2.8,0,4.2-1.1,4.2-3.1c0-2.1-1.4-3.2-4.2-3.2h-6.8V-3.4z"/>
		</g>
		<g id="패스_52153" transform="translate(32.998 40.056)">
			<path class="st5" d="M56,22.8c-3.9,0-7.4-1-10-2.8c-1.4-1-2.4-2.1-3.2-3.5c-0.8-1.4-1.3-3-1.3-4.6l-0.1-1.6h1.6H50
				c-2-0.5-3.5-1.2-4.8-2.1c-2.4-1.7-3.7-4.2-3.7-7.3c0-3.1,1.6-5.8,4.4-7.7c2.6-1.7,6.1-2.6,9.9-2.6c6.6,0,11.7,2.9,13.6,7.3v-5.2
				v-1.5h1.5h4v-6.8V-17h1.5h8.5h1.5v1.5v6.8h4H92v1.5V0v1.5h-1.5h-4v19.1v1.5h-1.5h-8.5h-1.5v-1.5V1.5h-4h-0.8l0.1,1.1h-1.6H62
				c2.4,0.6,4.2,1.5,5.5,2.6c2.1,1.7,3.1,3.9,3.1,6.9c0,3.2-1.6,6-4.6,8C63.4,21.9,59.9,22.8,56,22.8z M52.5,10.9l0.1,0.7
				c0.2,1,1.7,1.7,3.6,1.7c1.8,0,2.8-0.5,3.1-0.8c-0.1-0.1-0.5-0.3-1.2-0.5c-1-0.3-2.3-0.6-4.2-0.9C53.4,11.1,52.9,11,52.5,10.9z
				 M58.1,1.8c0.3,0,0.6,0.1,0.9,0.1L59,1.4c-0.1-0.9-1.5-1.5-3.2-1.5c-1.6,0-2.5,0.4-2.8,0.6C53,0.6,53.4,0.8,54,1
				C54.9,1.3,56.2,1.5,58.1,1.8z M25.1,22.8c-2.3,0-4.4-0.4-6.4-1.2c-1.9-0.8-3.7-1.9-5.1-3.4c-1.4-1.5-2.6-3.2-3.3-5.1
				c-0.8-2-1.2-4.1-1.2-6.4c0-4.5,1.6-8.6,4.5-11.5c1.4-1.5,3.2-2.6,5.1-3.4c2-0.8,4.1-1.2,6.4-1.2c2.3,0,4.4,0.4,6.4,1.2
				c1.9,0.8,3.7,1.9,5.1,3.4c1.4,1.5,2.6,3.2,3.3,5.1c0.8,2,1.2,4.1,1.2,6.4c0,1-0.1,2-0.2,2.9l-0.2,1.3h0l-0.5,1.8
				c-0.4,1.5-1.1,2.9-2,4.2c-0.9,1.2-2.1,2.3-3.4,3.2C32.1,21.9,28.7,22.8,25.1,22.8z M21.2,10.9c0.8,1.4,2.1,2.1,4,2.1
				c2.1,0,3.5-0.7,3.8-1.4l0.4-0.7H21.2z M21.1,2.4h8.1c-0.8-1.4-2.2-2.1-4.1-2.1C23.2,0.3,21.9,1,21.1,2.4z M-6.2,22.2h-18.3H-26
				v-1.5v-38.8v-1.5h1.5h16.9c2.3,0,4.4,0.3,6.2,0.9c1.8,0.6,3.5,1.5,4.8,2.6c2.6,2.3,4,5.6,4,9.6c0,1.7-0.5,3.4-1.5,4.9
				C5.4-1,4.9-0.4,4.4,0.1c1,0.7,2,1.6,2.7,2.6c1.3,1.8,2.1,4,2.1,6.1c0,4-1.4,7.4-4.2,9.7C2.3,20.9-1.6,22.2-6.2,22.2z M-14.3,11.8
				h7.7c2.7,0,4.1-1,4.1-2.9C-2.5,7-3.9,6-6.6,6h-7.7V11.8z M-14.3-3.9H-8c3.7,0,3.7-1.9,3.7-2.6c0-0.7,0-2.7-3.7-2.7h-6.3V-3.9z"/>
			<path d="M56,21.3c7.1,0,13.1-3.5,13.1-9.2c0-4.8-3-7.5-11.2-8.8c-4.8-0.8-6.6-1.4-6.6-2.8c0-1.2,1.9-2.1,4.4-2.1
				c2.5,0,4.4,1,4.7,2.8h8.2c-0.3-5.5-5.8-9.1-12.8-9.1c-7.1,0-12.8,3.4-12.8,8.9c0,5.7,4.4,7.7,11.1,8.7c4.8,0.7,6.7,1.6,6.7,2.9
				c0,1.3-2,2.3-4.7,2.3c-2.7,0-4.8-1.2-5-3h-8.2C43.2,17.7,48.7,21.3,56,21.3 M25.1,21.3c6.8,0,12.2-3.7,13.7-9h-8.5
				c-0.7,1.3-2.7,2.2-5.1,2.2c-3.2,0-5.4-1.9-6.1-5.1h20.4c0.1-1,0.2-1.9,0.2-2.7c0-8.5-6-14.6-14.5-14.6S10.6-1.8,10.6,6.7
				C10.6,15.2,16.6,21.3,25.1,21.3 M31.4,3.9H19c0.7-3.3,2.8-5.1,6.1-5.1S30.7,0.6,31.4,3.9 M84.9,20.7V0h5.5v-7.3h-5.5v-8.3h-8.5
				v8.3h-5.5V0h5.5v20.6H84.9 M-6.2,20.7c8.7,0,13.9-4.6,13.9-11.8c0-3.8-2.6-7.4-6.3-8.6c2.7-1,4.5-4.1,4.5-6.9
				c0-7.1-4.9-11.6-13.5-11.6h-16.9v38.8H-6.2 M-15.8,4.5h9.2C-3.2,4.5-1,6-1,8.9c0,2.9-2.1,4.4-5.6,4.4h-9.2V4.5 M-15.8-10.8H-8
				c3.3,0,5.2,1.5,5.2,4.2S-4.7-2.4-8-2.4h-7.8V-10.8 M56,24.3c-4.3,0-8-1.1-10.9-3.1c-2.1-1.4-3.6-3.3-4.4-5.5
				c-0.4,0.7-0.8,1.4-1.3,2.1c-1,1.4-2.3,2.6-3.8,3.5c-3,2-6.6,3-10.5,3c-7.1,0-12.9-3.6-15.7-9.3c-0.8,1.8-2,3.5-3.5,4.8
				c-3,2.6-7.2,3.9-12.2,3.9h-21.3v-44.8h19.9c2.4,0,4.7,0.3,6.7,1c2,0.7,3.8,1.6,5.3,2.9c3,2.6,4.5,6.3,4.5,10.7
				c0,1.9-0.6,4-1.7,5.7C6.9-0.6,6.8-0.3,6.6-0.1c0.6,0.5,1.2,1.2,1.7,1.8c0.8-2.9,2.2-5.6,4.3-7.7c1.6-1.6,3.5-2.9,5.6-3.7
				c2.2-0.9,4.5-1.3,7-1.3c6.9,0,12.5,3.4,15.4,8.8c0.7-2.3,2.3-4.4,4.6-5.9c2.8-1.9,6.6-2.9,10.7-2.9c2,0,3.9,0.3,5.7,0.7
				c1.8,0.5,3.5,1.3,4.9,2.2c0.5,0.4,1,0.8,1.5,1.2v-3.5h5.5v-8.3h14.5v8.3h5.5V3h-5.5v20.6H73.4V3h-1.7l0.1,1.1h-3.2
				c2.3,1.9,3.5,4.6,3.5,8c0,3.7-1.9,7-5.2,9.3C64,23.3,60.1,24.3,56,24.3z M-12.8,10.3h6.2c1.4,0,2.1-0.4,2.2-0.5
				C-4.2,9.7-4,9.5-4,8.9C-4,8.3-4.2,8.1-4.3,8c-0.2-0.2-0.8-0.5-2.2-0.5h-6.2V10.3z M42.6,8.8h1c-0.3-0.3-0.6-0.6-0.9-0.9
				C42.6,8.3,42.6,8.6,42.6,8.8z M-12.8-5.4H-8c1.3,0,1.9-0.3,2-0.4C-6-5.9-5.8-6-5.8-6.6c0-0.6-0.2-0.7-0.2-0.8
				c-0.1-0.1-0.6-0.4-2-0.4h-4.8V-5.4z"/>
		</g>
		<path id="패스_52398" d="M215.1,61.8h18c8.6,0,13.7-4.5,13.7-11.6c-0.1-3.9-2.6-7.2-6.3-8.5c2.7-1.2,4.4-3.9,4.5-6.8
			c0-7-4.8-11.4-13.3-11.4h-16.6V61.8z M223.6,39v-8.2h7.7c3.2,0,5.1,1.5,5.1,4.1c0,2.7-1.9,4.1-5.1,4.1L223.6,39z M223.6,54.5v-8.6
			h9.1c3.4,0,5.5,1.5,5.5,4.3s-2.1,4.3-5.5,4.3L223.6,54.5z M251.1,61.8h8.4V47.7c0-4.2,2.7-6.7,7.1-6.7c1.5,0,2.9,0.3,4.3,0.9
			l-0.1-7.8c-1.2-0.4-2.4-0.5-3.6-0.5c-3.5,0-6.1,1.3-7.7,3.5v-2.8h-8.4V61.8z M285.4,62.4c3.6,0,6.3-1.3,7.9-3.5v2.8h8.4V34.2h-8.4
			V37c-1.6-2.2-4.3-3.5-7.9-3.5c-7.9,0-13.4,6.1-13.4,14.4S277.5,62.4,285.4,62.4L285.4,62.4z M286.7,55.3c-4,0-6.5-3.1-6.5-7.3
			s2.5-7.3,6.5-7.3c4.1,0,6.7,3.1,6.7,7.3S290.8,55.3,286.7,55.3z M307.5,61.8h8.4V47.6c0-4.3,2-6.9,5.3-6.9c3.1,0,4.8,2.3,4.8,6.5
			v14.5h8.4V45.8c0-7.6-4.4-12.3-10.8-12.3c-3.5,0-6.1,1.3-7.7,3.5v-2.8h-8.4V61.8z M351.5,62.4c3.6,0,6.3-1.3,7.9-3.5v2.8h8.4V22.3
			h-8.4V37c-1.6-2.2-4.3-3.5-7.9-3.5c-7.9,0-13.4,6.1-13.4,14.4S343.6,62.4,351.5,62.4z M352.8,55.3c-4,0-6.5-3.1-6.5-7.3
			s2.5-7.3,6.5-7.3c4.1,0,6.7,3.1,6.7,7.3S356.9,55.3,352.8,55.3z M385.1,33.6c-7,0-12.6,3.4-12.6,8.7c0,5.6,4.3,7.6,10.9,8.6
			c4.7,0.7,6.6,1.6,6.6,2.9c0,1.3-2,2.3-4.7,2.3c-2.6,0-4.7-1.2-5-3h-8.1c0.3,5.8,5.7,9.4,12.9,9.4c7,0,12.9-3.5,12.9-9.1
			c0-4.7-2.9-7.4-11-8.6c-4.7-0.8-6.5-1.4-6.5-2.8c0-1.2,1.8-2.1,4.4-2.1c2.4,0,4.4,1,4.7,2.7h8.1C397.4,37,392,33.6,385.1,33.6z"/>
	</g>
</g>
<g id="레이어_3" class="star s3">
	<path id="패스_52159" class="st8" d="M459.2,101.6l1.2,5.6c0.8,3.9,3.7,7,7.5,8.1l1.2,0.4c0.5,0.2,0.8,0.7,0.7,1.2
		c-0.1,0.3-0.3,0.6-0.7,0.7l-1.2,0.4c-3.8,1.1-6.7,4.2-7.5,8.1l-1.2,5.6c-0.1,0.5-0.6,0.9-1.2,0.8c-0.4-0.1-0.7-0.4-0.8-0.8
		l-1.2-5.6c-0.8-3.9-3.7-7-7.5-8.1l-1.2-0.4c-0.5-0.2-0.8-0.7-0.7-1.2c0.1-0.3,0.3-0.6,0.7-0.7l1.2-0.4c3.8-1.1,6.7-4.2,7.5-8.1
		l1.2-5.6c0.1-0.5,0.6-0.9,1.2-0.8C458.8,100.9,459.1,101.2,459.2,101.6"/>
</g>
<g id="레이어_4" class="star s1">
	<path id="패스_52158" class="st8" d="M51.7,3.1l1.4,6.6c1,4.6,4.4,8.3,8.9,9.6l1.4,0.4c0.6,0.2,1,0.8,0.8,1.5
		c-0.1,0.4-0.4,0.7-0.8,0.8l-1.4,0.4c-4.5,1.3-7.9,5-8.9,9.6l-1.4,6.6c-0.1,0.6-0.8,1-1.4,0.9c-0.4-0.1-0.8-0.4-0.9-0.9L48,32
		c-1-4.6-4.4-8.3-8.9-9.6l-1.5-0.4c-0.6-0.2-1-0.8-0.8-1.5c0.1-0.4,0.4-0.7,0.8-0.8l1.5-0.4c4.5-1.3,7.9-5,8.9-9.6l1.4-6.6
		c0.1-0.6,0.8-1,1.4-0.9C51.3,2.3,51.6,2.6,51.7,3.1"/>
</g>
<g id="레이어_5" class="star s2">
	<path id="패스_52157" class="st8" d="M29.6,33.6l1,4.6c0.7,3.2,3.1,5.8,6.3,6.7l1,0.3c0.4,0.1,0.7,0.6,0.6,1
		c-0.1,0.3-0.3,0.5-0.6,0.6l-1,0.3c-3.2,0.9-5.6,3.5-6.3,6.7l-1,4.6c-0.1,0.4-0.5,0.7-1,0.6c-0.3-0.1-0.6-0.3-0.6-0.6l-1-4.6
		c-0.7-3.2-3.1-5.8-6.3-6.7l-1-0.3c-0.4-0.1-0.7-0.6-0.6-1c0.1-0.3,0.3-0.5,0.6-0.6l1-0.3c3.2-0.9,5.6-3.5,6.3-6.7l1-4.6
		c0.1-0.4,0.5-0.7,1-0.6C29.3,33.1,29.5,33.3,29.6,33.6"/>
</g>
<g id="레이어_2" class="rot">
	<g id="그룹_116295" transform="translate(120.048 20.158) rotate(-19)">
		<g id="그룹_116208" transform="translate(0 0)">
			<path id="패스_42587" class="st9" d="M85,75.4L85,61l-17.8,0c3-7.1,3.4-16.2-2-16.7c-5.5-0.6-5.8,5.2-9.1,12.3
				c-0.5,1-0.9,1.9-1.3,2.7c-2.3,4.2-6.7,6.8-11.6,6.8l-6.3,0l0,26.7h10.4c2.8,0,5.6,1,7.8,2.7c3.3,2.5,7.3,3.8,11.4,3.8l18.5,0
				V85.1C85.8,81.9,85.8,78.6,85,75.4L85,75.4z"/>
			<path id="패스_42589" class="st9" d="M94.2,66.4c0,4.9-4.7,5.3-10.4,5.3c-5.7,0-10.4-0.4-10.4-5.3S78.1,61,83.8,61
				C89.6,61,94.2,61.4,94.2,66.4z"/>
			<path id="패스_42591" class="st9" d="M94.2,94c0,4.9-4.7,5.3-10.4,5.3c-5.7,0-10.4-0.4-10.4-5.3c0-4.9,4.7-5.3,10.4-5.3
				C89.6,88.6,94.2,89,94.2,94z"/>
			<path id="패스_42593" class="st9" d="M98.8,84.9c0,4.6-5.7,5-12.7,5c-7,0-12.7-0.4-12.7-5s5.7-5,12.7-5
				C93.2,79.9,98.8,80.3,98.8,84.9z"/>
			<path id="패스_42595" class="st9" d="M98.8,75c0,4.6-5.7,5-12.7,5c-7,0-12.7-0.4-12.7-5c0-4.6,5.7-5,12.7-5
				C93.2,70,98.8,70.4,98.8,75z"/>
			<path id="패스_42598" class="st9" d="M67.2,61c0,0,3.6,10.5-6.8,16.6"/>
		</g>
	</g>
</g>
</svg>
