<?xml version="1.0" encoding="utf-8"?>
<!-- Generator: Adobe Illustrator 26.1.0, SVG Export Plug-In . SVG Version: 6.00 Build 0)  -->
<svg version="1.1" id="Layer_1" xmlns="http://www.w3.org/2000/svg" xmlns:xlink="http://www.w3.org/1999/xlink" x="0px" y="0px"
	 viewBox="0 0 112.9 58.2" style="enable-background:new 0 0 112.9 58.2;" xml:space="preserve">
<style type="text/css">
	.st0{enable-background:new    ;}
	.st1{fill:#12FFC8;}
	.st2{fill:none;stroke:#000000;}
	.st3{fill:none;}
	.st4{fill:none;stroke:#040405;stroke-width:2.4996;stroke-linecap:round;stroke-linejoin:round;stroke-miterlimit:3.9993;}
</style>
<g class="st0">
	<path d="M19.5,20.4l5.2-0.3l14.7,15.9l-0.9-17l6.2-0.3l1.5,27.7l-5.2,0.3L26.2,30.8l0.9,17l-6.2,0.3L19.5,20.4z"/>
	<path d="M48.7,18.9l20.6-1.1l0.3,5.4l-14.4,0.8l0.3,5.6l13.2-0.7l0.3,5.4L55.7,35l0.3,5.9l14.7-0.8l0.3,5.4l-20.9,1.1L48.7,18.9z"
		/>
	<path d="M109.3,15.7l-6.5,28.1l-6.2,0.3l-5.9-17.1l-4,17.6L80.3,45l-9.4-27.3l6.6-0.3l5.7,17.8L87,16.9l6.4-0.3l5.7,17.8l3.8-18.3
		L109.3,15.7z"/>
</g>
<g class="st0">
	<path d="M19.5,20.4l5.2-0.3l14.7,15.9l-0.9-17l6.2-0.3l1.5,27.7l-5.2,0.3L26.2,30.8l0.9,17l-6.2,0.3L19.5,20.4z"/>
	<path d="M48.7,18.9l20.6-1.1l0.3,5.4l-14.4,0.8l0.3,5.6l13.2-0.7l0.3,5.4L55.7,35l0.3,5.9l14.7-0.8l0.3,5.4l-20.9,1.1L48.7,18.9z"
		/>
	<path d="M109.3,15.7l-6.5,28.1l-6.2,0.3l-5.9-17.1l-4,17.6L80.3,45l-9.4-27.3l6.6-0.3l5.7,17.8L87,16.9l6.4-0.3l5.7,17.8l3.8-18.3
		L109.3,15.7z"/>
</g>
<g class="st0">
	<path class="st1" d="M17.5,18.4l5.2-0.3l14.7,15.9l-0.9-17l6.2-0.3l1.5,27.7l-5.2,0.3L24.2,28.8l0.9,17l-6.2,0.3L17.5,18.4z"/>
	<path class="st1" d="M46.7,16.9l20.6-1.1l0.3,5.4l-14.4,0.8l0.3,5.6l13.2-0.7l0.3,5.4L53.7,33l0.3,5.9l14.7-0.8l0.3,5.4l-20.9,1.1
		L46.7,16.9z"/>
	<path class="st1" d="M107.3,13.7l-6.5,28.1l-6.2,0.3l-5.9-17.1l-4,17.6L78.3,43l-9.4-27.3l6.6-0.3l5.7,17.8L85,14.9l6.4-0.3
		l5.7,17.8l3.8-18.3L107.3,13.7z"/>
</g>
<g class="st0">
	<path class="st2" d="M17.5,18.4l5.2-0.3l14.7,15.9l-0.9-17l6.2-0.3l1.5,27.7l-5.2,0.3L24.2,28.8l0.9,17l-6.2,0.3L17.5,18.4z"/>
	<path class="st2" d="M46.7,16.9l20.6-1.1l0.3,5.4l-14.4,0.8l0.3,5.6l13.2-0.7l0.3,5.4L53.7,33l0.3,5.9l14.7-0.8l0.3,5.4l-20.9,1.1
		L46.7,16.9z"/>
	<path class="st2" d="M107.3,13.7l-6.5,28.1l-6.2,0.3l-5.9-17.1l-4,17.6L78.3,43l-9.4-27.3l6.6-0.3l5.7,17.8L85,14.9l6.4-0.3
		l5.7,17.8l3.8-18.3L107.3,13.7z"/>
</g>
<g id="Group_112006" transform="matrix(0.883, -0.469, 0.469, 0.883, 678.523, 3652.84)">
	<line id="Line_774" class="st3" x1="1121.2" y1="-3528.1" x2="1120.9" y2="-3536.2"/>
	<line id="Line_775" class="st4" x1="1121.8" y1="-3528.3" x2="1121.6" y2="-3536.4"/>
	<line id="Line_779" class="st4" x1="1129.4" y1="-3525.4" x2="1132.2" y2="-3533"/>
	<line id="Line_777" class="st4" x1="1114.6" y1="-3525.4" x2="1110.3" y2="-3532.2"/>
</g>
</svg>
