<svg xmlns="http://www.w3.org/2000/svg" xmlns:xlink="http://www.w3.org/1999/xlink" width="430" height="181" viewBox="0 0 430 181">
<style xmlns="http://www.w3.org/2000/svg" type="text/css">
.st1{fill:#fee581;}

.star {position:relative;animation:star both infinite 4s;}
.star.s1 {transform-origin:80% 41%;}
.star.s2 {transform-origin:80% 48%;animation-delay:0.5s;}
.sti{transform-origin:79.4% 85.5%; animation:sti both infinite 2.3s;}
.sti2{transform-origin:5.4% 50.5%; animation:sti2 both infinite 2.3s;}

@keyframes star {
0% {opacity:1;}	
20% {opacity:0;}
100% {opacity:1;}
}
@keyframes sti {
0% {transform:rotate(0deg);}
50% {transform:rotate(-5.5deg);}
100% {transform:rotate(0deg);}
}
@keyframes sti2 {
0% {transform:rotate(0deg);}
50% {transform:rotate(-9.5deg);}
100% {transform:rotate(0deg);}
}
</style>
  <defs>
    <clipPath id="clip-path">
      <path id="합치기_191" data-name="합치기 191" d="M148.943,103.509a23.155,23.155,0,0,1-11.252,2.928H122.464a23.062,23.062,0,0,1-10.916-2.751,22.909,22.909,0,0,1-10.932,2.751H87.482a25.356,25.356,0,0,1-2.593-.141,25.3,25.3,0,0,1-2.591.141H67.655a23.077,23.077,0,0,1-15.512-5.981,23.074,23.074,0,0,1-15.512,5.981H23.071A23.075,23.075,0,0,1,1.561,75.023L24.349,16.24A23.1,23.1,0,0,1,45.878,1.51h13.63A23.063,23.063,0,0,1,73.5,6.23,22.987,22.987,0,0,1,87.482,1.51H111.14c11.057,0,20.766,2.875,28.433,7.95A55.709,55.709,0,0,1,171.236,0a56.442,56.442,0,0,1,24.12,5.289A22.882,22.882,0,0,1,208.011,1.51h13.134A22.948,22.948,0,0,1,234.12,5.5,23.038,23.038,0,0,1,247.111,1.51h13.116a22.9,22.9,0,0,1,4.845.514A22.749,22.749,0,0,1,269.9,1.51h13.134a25.323,25.323,0,0,1,2.591.141,25.324,25.324,0,0,1,2.591-.141h14.855a23.086,23.086,0,0,1,15.974,6.425A23.164,23.164,0,0,1,335.037,1.51h13.774a25.349,25.349,0,0,1,2.591.141,25.323,25.323,0,0,1,2.591-.141h43.715A23.072,23.072,0,0,1,420.78,24.582V35.976a23.125,23.125,0,0,1-2.556,10.6c.018.442.035.9.035,1.383v11.4c0,.3,0,.6-.018.9a23.127,23.127,0,0,1,2.93,8.2l-5.076,2.928-3.532,2.041L409.9,74.952,407.237,76.5l-1.775,1.029-7.1,4.1-3.017,1.74-12.3,7.1-3.07,1.776L375.362,94.9l-4.615,2.663-6.142,3.549-9.228,5.324h-1.385a22.9,22.9,0,0,1-14.2-4.9,23.071,23.071,0,0,1-14.217,4.9H311.45a23.072,23.072,0,0,1-14.217-4.9,22.9,22.9,0,0,1-14.2,4.9H269.9a23.952,23.952,0,0,1-4.829-.5,24.11,24.11,0,0,1-4.845.5H247.111a23.038,23.038,0,0,1-12.991-3.993,22.948,22.948,0,0,1-12.975,3.993H208.011a23.038,23.038,0,0,1-12.832-3.886,56.262,56.262,0,0,1-23.943,5.324A57.447,57.447,0,0,1,148.943,103.509Z" transform="translate(0 0)" fill="#fff" stroke="rgba(0,0,0,0)" stroke-miterlimit="10" stroke-width="1"/>
    </clipPath>
    <linearGradient id="linear-gradient" x1="0.559" y1="0.455" x2="0.559" y2="0.057" gradientUnits="objectBoundingBox">
      <stop offset="0" stop-color="#343100"/>
      <stop offset="1" stop-color="#fff" stop-opacity="0"/>
    </linearGradient>
    <filter id="패스_52115" x="357.052" y="124.469" width="68.79" height="51.768" filterUnits="userSpaceOnUse">
      <feOffset dx="-1" input="SourceAlpha"/>
      <feGaussianBlur stdDeviation="0.5" result="blur"/>
      <feFlood flood-color="#393500" flood-opacity="0.2"/>
      <feComposite operator="in" in2="blur"/>
      <feComposite in="SourceGraphic"/>
    </filter>
    <clipPath id="clip-path-2">
      <path id="패스_52170" data-name="패스 52170" d="M263.111,77.025l-9.868-5.7a23.072,23.072,0,0,0-31.518,8.445L200.232,117l9.226-5.33,6.145-3.543,4.613-2.666,4.613-2.666,3.072-1.771,12.3-7.1,3.015-1.745,7.1-4.1,1.78-1.022,2.668-1.533,2.653-1.542,3.534-2.038,5.074-2.932a23.053,23.053,0,0,0-2.911-1.988" transform="translate(-200.233 -68.232)" fill="rgba(243,30,30,0)"/>
    </clipPath>
    <linearGradient id="linear-gradient-2" x1="0.597" y1="0.388" x2="0.475" y2="0.129" gradientUnits="objectBoundingBox">
      <stop offset="0" stop-color="#001c20"/>
      <stop offset="1" stop-color="#fff" stop-opacity="0"/>
    </linearGradient>
    <clipPath id="clip-path-3">
      <path id="패스_52176" data-name="패스 52176" d="M-15326.457,5945.667l55.133-32.806-4.254-22.592-81.768,3.279,17.289,46.574Z" transform="translate(15357.346 -5890.269)" fill="#fff"/>
    </clipPath>
    <linearGradient id="linear-gradient-3" x1="0.558" y1="0.738" x2="0.45" y2="0.495" gradientUnits="objectBoundingBox">
      <stop offset="0" stop-color="#515700"/>
      <stop offset="1" stop-color="#fff" stop-opacity="0"/>
    </linearGradient>
    <filter id="패스_52174" x="354.052" y="132.118" width="79.147" height="61.075" filterUnits="userSpaceOnUse">
      <feOffset dx="-1" input="SourceAlpha"/>
      <feGaussianBlur stdDeviation="0.5" result="blur-2"/>
      <feFlood flood-opacity="0.251"/>
      <feComposite operator="in" in2="blur-2"/>
      <feComposite in="SourceGraphic"/>
    </filter>
  </defs>
  <g id="title" transform="translate(15550 -5820)">
    <path id="패스_52175" data-name="패스 52175" d="M132.074,21.408a4.1,4.1,0,0,0-4.212,4.255,4.212,4.212,0,1,0,8.424,0,4.1,4.1,0,0,0-4.212-4.255m33.7,1.131V55.331h6.877v-5.27l2.743-3.122,5.526,8.392h7.845L179.6,42.215l8.695-9.759h-7.652l-8,9.331V22.539Zm-70.137.2c-7.11,0-12.752,3.435-12.752,9.174,0,5.973,3.71,8.822,10.55,10.111,5.6,1.054,7.728,2.068,7.728,4.606,0,2.068-2.126,3.514-4.985,3.514-4.018,0-6.646-2.03-7.032-5.075H81.917c.308,6.793,5.989,11.048,13.756,11.048,7.034,0,12.713-3.709,12.713-9.8,0-4.762-2.473-8.392-9.738-9.915-6.144-1.288-8.577-2.108-8.577-4.489,0-1.914,1.816-3.241,5.1-3.241,3.361,0,5.41,1.68,5.834,4.451h7.265c-.347-6.052-5.6-10.384-12.636-10.384m18.819,2.928v6.793H109.97v5.973h4.483v16.9h6.879v-16.9h4.483V32.456h-4.483V25.663Zm36.711,6.246a11.588,11.588,0,0,0-12.018,11.985,11.588,11.588,0,0,0,12.018,11.984c5.718,0,10.124-3.473,11.283-8.782h-6.955a4.386,4.386,0,0,1-4.328,2.732c-3.208,0-5.294-2.5-5.294-5.933s2.086-5.935,5.294-5.935a4.17,4.17,0,0,1,4.212,2.655h6.955c-.812-4.879-5.255-8.7-11.168-8.7m49,0c-6.916,0-11.785,5.036-11.785,11.985,0,6.987,4.869,11.984,11.785,11.984,5.487,0,9.93-3.005,11.089-7.377h-6.916c-.579,1.093-2.2,1.795-4.173,1.795a4.8,4.8,0,0,1-4.946-4.176h16.576a15.82,15.82,0,0,0,.155-2.225c0-6.989-4.869-11.985-11.785-11.985m5.061,9.721H195.177c.579-2.734,2.279-4.217,4.985-4.217a4.829,4.829,0,0,1,5.061,4.217m23.611-9.721A7.4,7.4,0,0,0,222.5,34.8V32.456h-6.879V55.331H222.5V43.621c0-3.475,2.2-5.583,5.873-5.583a7.551,7.551,0,0,1,3.516.781l-.077-6.52a8.331,8.331,0,0,0-2.975-.39m-100.2,23.5h6.879V32.456h-6.879ZM132.074,0a25.176,25.176,0,0,1,18.363,7.764,21.023,21.023,0,0,1,15.334-6.633h6.877A21.131,21.131,0,0,1,190.61,11.175c.559.063,1.112.145,1.659.25a34.754,34.754,0,0,1,17.478.455,21.009,21.009,0,0,1,5.871-.832H222.5c.166,0,.332,0,.5,0a30.908,30.908,0,0,1,5.841-.552,28.993,28.993,0,0,1,9.937,1.579A21.389,21.389,0,0,1,253,32.043l.078,6.52a21.474,21.474,0,0,1-9.427,18.063A21.286,21.286,0,0,1,222.5,76.739h-6.879a21.032,21.032,0,0,1-5.739-.794,35.744,35.744,0,0,1-17.407.464,20.989,20.989,0,0,1-3.708.329h-7.845a20.94,20.94,0,0,1-4.124-.408,21.1,21.1,0,0,1-4.145.408h-6.877a21,21,0,0,1-5.457-.716,34.843,34.843,0,0,1-18.734-.1,20.972,20.972,0,0,1-6.065.891h-6.879a21.142,21.142,0,0,1-3.873-.357,21.036,21.036,0,0,1-3.43.278h-6.879a20.944,20.944,0,0,1-6.726-1.1,38.512,38.512,0,0,1-12.054,1.882c-19.408,0-34.094-13.237-34.926-31.473a21.629,21.629,0,0,1,1.412-8.721,32.857,32.857,0,0,1-.468-5.418c0-17.434,14.592-30.582,33.943-30.582A35.716,35.716,0,0,1,110.7,4.59a21.174,21.174,0,0,1,3.751-.334h3.428A25.366,25.366,0,0,1,132.074,0" transform="translate(-15499.151 5830.86)" fill="#514e00" opacity="0.5"/>
    <g id="title-2" data-name="title" transform="translate(-15550 5820)">
      <g id="그룹_116254" data-name="그룹 116254" transform="translate(4.17 4.867)">
        <g id="그룹_116255" data-name="그룹 116255" transform="translate(0)">
          <path id="패스_52098" data-name="패스 52098" d="M93.979,66.978c-14.747,0-25.893-9.637-26.5-22.915L66.92,32h1.732a25.614,25.614,0,0,1-.137-2.643c0-12.413,10.692-21.424,25.421-21.424a27.285,27.285,0,0,1,12.912,3.156h15.4a16.233,16.233,0,0,1,26.93,7.236,26.813,26.813,0,0,1,5.22-.5,25.645,25.645,0,0,1,4.368.373V7.719h30.561V18.407h12.852a26.615,26.615,0,0,1,11.139,0h20.475a22.341,22.341,0,0,1,5.174-.589A20.3,20.3,0,0,1,246,18.88l7.65,2.66.1,8.1.083,7.027.231,19.259L243.6,50.488V66.135H213.439a27.393,27.393,0,0,1-5.692.589,26.153,26.153,0,0,1-5.569-.589H159.954a26.021,26.021,0,0,1-5.557.589,26.771,26.771,0,0,1-5.5-.563v.059H118.332v-.085H102.891v-.4a31.359,31.359,0,0,1-8.912,1.248M207.79,41l-5.811,1.246a5.255,5.255,0,0,0,1.171,2.258l9.891-2.036v-.343Z" transform="translate(51.853 5.037)"/>
          <path id="패스_52099" data-name="패스 52099" d="M138.412,23.073a4.443,4.443,0,0,0-4.586,4.586,4.586,4.586,0,0,0,9.172,0,4.443,4.443,0,0,0-4.586-4.586m36.69,1.219V59.635h7.488v-5.68l2.987-3.365,6.017,9.045h8.542L190.163,45.5l9.467-10.518H191.3l-8.709,10.056V24.292ZM98.735,24.5c-7.742,0-13.885,3.7-13.885,9.888,0,6.437,4.04,9.508,11.487,10.9,6.1,1.136,8.415,2.229,8.415,4.964,0,2.229-2.314,3.788-5.427,3.788-4.375,0-7.236-2.188-7.657-5.47H83.8c.335,7.321,6.521,11.907,14.978,11.907,7.658,0,13.842-4,13.842-10.562,0-5.133-2.692-9.045-10.6-10.686-6.689-1.388-9.339-2.272-9.339-4.838,0-2.062,1.977-3.493,5.554-3.493,3.66,0,5.891,1.81,6.352,4.8h7.911c-.378-6.523-6.1-11.192-13.759-11.192m20.491,3.156v7.321h-4.881v6.437h4.881V59.635h7.49V41.418H131.6V34.981h-4.881V27.659ZM159.2,34.391c-7.616,0-13.086,5.427-13.086,12.917s5.47,12.916,13.086,12.916c6.226,0,11.024-3.743,12.286-9.465h-7.573A4.777,4.777,0,0,1,159.2,53.7c-3.493,0-5.765-2.692-5.765-6.395s2.272-6.4,5.765-6.4a4.542,4.542,0,0,1,4.586,2.861h7.573c-.884-5.259-5.722-9.382-12.159-9.382m53.35,0c-7.531,0-12.832,5.427-12.832,12.917,0,7.531,5.3,12.916,12.832,12.916,5.974,0,10.812-3.239,12.074-7.951h-7.531c-.63,1.179-2.4,1.935-4.544,1.935a5.207,5.207,0,0,1-5.385-4.5h18.048a16.884,16.884,0,0,0,.169-2.4c0-7.532-5.3-12.917-12.832-12.917m5.511,10.477H207.12c.63-2.946,2.481-4.545,5.428-4.545a5.243,5.243,0,0,1,5.511,4.545m25.709-10.477a8.092,8.092,0,0,0-6.9,3.113V34.981h-7.49V59.635h7.49V47.014c0-3.745,2.4-6.017,6.395-6.017a8.291,8.291,0,0,1,3.828.841l-.083-7.027a9.158,9.158,0,0,0-3.239-.421M134.667,59.72h7.49V34.981h-7.49ZM138.412,0a27.548,27.548,0,0,1,19.994,8.368,23,23,0,0,1,16.7-7.149h7.488a23.059,23.059,0,0,1,19.557,10.825c.609.067,1.21.156,1.807.27a38.216,38.216,0,0,1,19.03.49,23.094,23.094,0,0,1,6.393-.9h7.49c.181,0,.362,0,.541.005a33.987,33.987,0,0,1,6.359-.595,31.865,31.865,0,0,1,10.819,1.7,23.07,23.07,0,0,1,15.491,21.515l.085,7.027A23.077,23.077,0,0,1,259.9,61.03a23.075,23.075,0,0,1-23.032,21.678h-7.49a23.119,23.119,0,0,1-6.249-.855,39.305,39.305,0,0,1-18.954.5,23.08,23.08,0,0,1-4.038.355h-8.542a23.027,23.027,0,0,1-4.49-.44,23.2,23.2,0,0,1-4.513.44H175.1a23.091,23.091,0,0,1-5.942-.772,38.312,38.312,0,0,1-20.4-.1,23.051,23.051,0,0,1-6.6.96h-7.49a23.249,23.249,0,0,1-4.217-.385,23.135,23.135,0,0,1-3.734.3h-7.49a23.017,23.017,0,0,1-7.323-1.186,42.327,42.327,0,0,1-13.125,2.029c-21.131,0-37.123-14.266-38.028-33.921a23.1,23.1,0,0,1,1.537-9.4,35.062,35.062,0,0,1-.509-5.839c0-18.79,15.888-32.961,36.958-32.961a39.225,39.225,0,0,1,16.407,3.516,23.285,23.285,0,0,1,4.084-.36h3.733A27.821,27.821,0,0,1,138.412,0" transform="translate(47.053)" fill="#fff"/>
          <path id="패스_52100" data-name="패스 52100" d="M92.76,63.153a25.684,25.684,0,0,1-15.99-5.083,20.265,20.265,0,0,1-7.854-15.292L68.491,33.5h2.125a20.819,20.819,0,0,1-.655-5.305,17.018,17.018,0,0,1,2.254-8.565,18.273,18.273,0,0,1,5.676-6.042A26.258,26.258,0,0,1,92.718,9.431a24.827,24.827,0,0,1,12.31,3.156h17.166a13.519,13.519,0,0,1,23.627,7.9,23.377,23.377,0,0,1,7.359-1.166,22.809,22.809,0,0,1,7.03,1.1V9.219h25.237V19.907h15.835a23.7,23.7,0,0,1,10.5,0h1.754l-.337.374c.433.131.863.275,1.283.431v-.806h18.428a19.485,19.485,0,0,1,4.836-.589,17.872,17.872,0,0,1,6.155.912l5.884,2.046.075,6.23.083,7.027.177,14.815-10.4-5.408V62.31H214.485v-.738A23.936,23.936,0,0,1,206.53,62.9a23.3,23.3,0,0,1-5.255-.589H160.21v-.493a22.9,22.9,0,0,1-7.03,1.083,23.223,23.223,0,0,1-8.166-1.452V62.4H119.775V62.31H104.334V60.667A27.111,27.111,0,0,1,92.76,63.153M203.672,41.2a3.99,3.99,0,0,0,.834.939,4.126,4.126,0,0,0,.792.515l3.544-.729a3.953,3.953,0,0,0,.717-.895,3.656,3.656,0,0,0-.5-.657l-2.485-.532-2.133.458a6.118,6.118,0,0,0-.772.9" transform="translate(53.07 6.199)"/>
          <path id="패스_52101" data-name="패스 52101" d="M136.087,20.748a4.443,4.443,0,0,0-4.586,4.586,4.586,4.586,0,1,0,9.172,0,4.443,4.443,0,0,0-4.586-4.586m36.69,1.219V57.31h7.488v-5.68l2.987-3.365,6.017,9.045h8.542l-9.973-14.137,9.467-10.518h-8.331L180.265,42.71V21.968Zm-76.366.211c-7.742,0-13.885,3.7-13.885,9.888,0,6.437,4.04,9.508,11.487,10.9,6.1,1.136,8.415,2.229,8.415,4.964,0,2.229-2.314,3.788-5.427,3.788-4.375,0-7.236-2.188-7.657-5.47H81.475C81.81,53.567,88,58.153,96.453,58.153c7.657,0,13.842-4,13.842-10.562,0-5.133-2.692-9.045-10.6-10.686-6.689-1.388-9.339-2.272-9.339-4.838,0-2.062,1.977-3.493,5.554-3.493,3.66,0,5.891,1.81,6.352,4.8h7.911c-.378-6.523-6.1-11.192-13.759-11.192M116.9,25.335v7.321H112.02v6.437H116.9V57.31h7.49V39.093h4.881V32.656h-4.881V25.335Zm39.971,6.732c-7.616,0-13.086,5.427-13.086,12.917S149.256,57.9,156.872,57.9c6.226,0,11.024-3.745,12.286-9.467h-7.573a4.778,4.778,0,0,1-4.712,2.946c-3.493,0-5.765-2.692-5.765-6.395s2.272-6.4,5.765-6.4a4.542,4.542,0,0,1,4.586,2.861h7.573c-.884-5.259-5.722-9.382-12.159-9.382m53.35,0c-7.532,0-12.832,5.427-12.832,12.917,0,7.531,5.3,12.916,12.832,12.916,5.974,0,10.812-3.239,12.074-7.951h-7.531c-.63,1.179-2.4,1.935-4.544,1.935a5.21,5.21,0,0,1-5.387-4.5h18.05a16.884,16.884,0,0,0,.169-2.4c0-7.532-5.3-12.917-12.832-12.917m5.511,10.477H204.795c.63-2.946,2.481-4.545,5.428-4.545a5.243,5.243,0,0,1,5.511,4.545m25.709-10.477a8.092,8.092,0,0,0-6.9,3.113V32.656h-7.49V57.31h7.49V44.689c0-3.745,2.4-6.017,6.395-6.017a8.291,8.291,0,0,1,3.828.841l-.083-7.027a9.158,9.158,0,0,0-3.239-.421M132.342,57.4h7.49V32.656h-7.49ZM136.087,3a22.111,22.111,0,0,1,19.534,11.341q.564-.021,1.136-.023a17.751,17.751,0,0,1,16.02-10.1h7.488a17.753,17.753,0,0,1,16.288,10.688h.753a17.768,17.768,0,0,1,4.432.561,31.469,31.469,0,0,1,8.486-1.15,32.185,32.185,0,0,1,10.544,1.734,17.7,17.7,0,0,1,6.285-1.145h7.49c.3,0,.6.007.9.021a29.053,29.053,0,0,1,6-.611,26.42,26.42,0,0,1,9.069,1.406,17.747,17.747,0,0,1,11.916,16.55l.085,7.027A17.75,17.75,0,0,1,252.29,55.589V57.31a17.748,17.748,0,0,1-17.749,17.749h-7.49a17.724,17.724,0,0,1-6.221-1.12,33.131,33.131,0,0,1-10.608,1.709,32.664,32.664,0,0,1-8.338-1.061,17.756,17.756,0,0,1-4.073.472h-8.542a17.728,17.728,0,0,1-4.494-.577,17.815,17.815,0,0,1-4.51.577h-7.488a17.7,17.7,0,0,1-5.862-.99,32.467,32.467,0,0,1-20.53-.174,17.7,17.7,0,0,1-6.553,1.249h-7.49a17.855,17.855,0,0,1-4.16-.49,17.9,17.9,0,0,1-3.791.4H116.9a17.7,17.7,0,0,1-7.273-1.553,36.256,36.256,0,0,1-13.175,2.4c-18.183,0-31.94-12.129-32.709-28.841a17.764,17.764,0,0,1,1.768-8.576,29.533,29.533,0,0,1-.735-6.418c0-15.755,13.6-27.636,31.633-27.636a33.573,33.573,0,0,1,15.72,3.8,17.772,17.772,0,0,1,4.771-.648h5.47A22.382,22.382,0,0,1,136.087,3" transform="translate(49.378 2.325)"/>
          <path id="패스_52102" data-name="패스 52102" d="M91.949,60.6c-12.488,0-21.564-7.682-22.07-18.68L69.538,34.5H72.27c-.025-.06-.05-.119-.073-.177a18.207,18.207,0,0,1-1.273-6.9,15.268,15.268,0,0,1,2.02-7.683,16.465,16.465,0,0,1,5.133-5.454,24.484,24.484,0,0,1,13.831-3.85,22.5,22.5,0,0,1,13.391,4.2V13.586h16.929a11.247,11.247,0,0,1,1.049-1.209,11.685,11.685,0,0,1,19.992,8.308,12.419,12.419,0,0,1-.115,1.691,21.049,21.049,0,0,1,9.215-2.059,20.548,20.548,0,0,1,8.805,1.915V10.219h21.689V20.907h17.819a21.5,21.5,0,0,1,5.037-.589,20.671,20.671,0,0,1,9.731,2.355V20.907h16.861a17.7,17.7,0,0,1,4.627-.589,15.95,15.95,0,0,1,5.573.815l4.707,1.636.059,4.984.085,7.027.142,11.852-10.367-5.39V59.761H215.45V58.117a22.18,22.18,0,0,1-14.777,1.644h-39.5V58.433a20.628,20.628,0,0,1-8.805,1.917,20.923,20.923,0,0,1-9.941-2.428v1.924H120.741v-.085H105.3v-2.9A24.17,24.17,0,0,1,91.949,60.6M205.426,40.363a1.273,1.273,0,0,0,.295.082,1.52,1.52,0,0,0,.5-.172,1.437,1.437,0,0,0-.373-.124,2.237,2.237,0,0,0-.421.215m-1.123-.985a2.128,2.128,0,0,0,.683.738l.536-1Z" transform="translate(53.882 6.974)"/>
          <path id="패스_52103" data-name="패스 52103" d="M134.537,19.2a4.443,4.443,0,0,0-4.586,4.586,4.586,4.586,0,0,0,9.172,0,4.443,4.443,0,0,0-4.586-4.586m36.69,1.219V55.761h7.488v-5.68l2.987-3.365,6.017,9.045h8.542l-9.973-14.137,9.467-10.518h-8.331l-8.709,10.056V20.418Zm-76.366.211c-7.742,0-13.885,3.7-13.885,9.888,0,6.437,4.04,9.508,11.487,10.9,6.1,1.136,8.415,2.229,8.415,4.964,0,2.229-2.314,3.788-5.427,3.788-4.375,0-7.236-2.188-7.657-5.47H79.925C80.261,52.018,86.446,56.6,94.9,56.6c7.658,0,13.842-4,13.842-10.562,0-5.133-2.692-9.045-10.6-10.686-6.689-1.388-9.339-2.272-9.339-4.838,0-2.062,1.977-3.493,5.554-3.493,3.66,0,5.891,1.81,6.352,4.8h7.911c-.378-6.523-6.1-11.192-13.759-11.192m20.491,3.156v7.321H110.47v6.437h4.881V55.761h7.49V37.544h4.881V31.106h-4.881V23.785Zm39.971,6.732c-7.616,0-13.086,5.427-13.086,12.917s5.47,12.916,13.086,12.916c6.226,0,11.024-3.743,12.286-9.465h-7.573a4.777,4.777,0,0,1-4.712,2.944c-3.493,0-5.765-2.692-5.765-6.395s2.272-6.4,5.765-6.4a4.542,4.542,0,0,1,4.586,2.861h7.573c-.884-5.259-5.722-9.382-12.159-9.382m53.35,0c-7.531,0-12.832,5.427-12.832,12.917,0,7.531,5.3,12.916,12.832,12.916,5.974,0,10.812-3.239,12.074-7.951h-7.531c-.63,1.179-2.4,1.935-4.544,1.935a5.207,5.207,0,0,1-5.385-4.5h18.048a16.884,16.884,0,0,0,.169-2.4c0-7.532-5.3-12.917-12.832-12.917m5.511,10.477H203.245c.63-2.946,2.481-4.545,5.428-4.545a5.243,5.243,0,0,1,5.511,4.545m25.709-10.477a8.092,8.092,0,0,0-6.9,3.113V31.106H225.5V55.761h7.49V43.14c0-3.745,2.4-6.017,6.395-6.017a8.291,8.291,0,0,1,3.828.841l-.083-7.027a9.158,9.158,0,0,0-3.239-.421m-109.1,25.329h7.49V31.106h-7.49ZM134.537,5a18.566,18.566,0,0,1,17.374,11.51,29.835,29.835,0,0,1,5.69-.1A14.206,14.206,0,0,1,171.227,6.219h7.488a14.205,14.205,0,0,1,13.762,10.688h3.278a14.2,14.2,0,0,1,4.371.689,28.6,28.6,0,0,1,8.546-1.278,28.2,28.2,0,0,1,10.614,2.018,14.137,14.137,0,0,1,6.216-1.429h7.49q.6,0,1.191.05a25.165,25.165,0,0,1,5.71-.639,23.1,23.1,0,0,1,7.9,1.209,14.2,14.2,0,0,1,9.533,13.24l.085,7.027a14.2,14.2,0,0,1-10.223,13.8v4.166a14.2,14.2,0,0,1-14.2,14.2H225.5a14.143,14.143,0,0,1-6.129-1.386,29.283,29.283,0,0,1-10.7,1.975,28.619,28.619,0,0,1-8.29-1.2,14.2,14.2,0,0,1-4.121.611h-8.542a14.194,14.194,0,0,1-4.5-.729,14.182,14.182,0,0,1-4.508.729h-7.488a14.147,14.147,0,0,1-5.807-1.237,28.183,28.183,0,0,1-10.1,1.826,28.712,28.712,0,0,1-10.681-2,14.161,14.161,0,0,1-6.359,1.5h-7.49a14.216,14.216,0,0,1-4.119-.607,14.216,14.216,0,0,1-3.832.522h-7.49a14.13,14.13,0,0,1-7.146-1.926A32.129,32.129,0,0,1,94.9,70.8c-16.22,0-28.485-10.706-29.163-25.455a14.2,14.2,0,0,1,1.967-7.887,26.481,26.481,0,0,1-.93-6.943c0-13.957,11.812-24.086,28.083-24.086a29.777,29.777,0,0,1,15.333,4.121,14.178,14.178,0,0,1,5.158-.966h6.76A18.775,18.775,0,0,1,134.537,5" transform="translate(50.928 3.874)" fill="#fff"/>
          <path id="패스_52104" data-name="패스 52104" d="M404,91.132V78.211h2.52V43.744H324.26l-2.769,7.543-5.147,13.968-5.165-13.968-2.786-7.543H232.855v23.3h-2.893v-23.3H193.755v6.07a43.622,43.622,0,0,0-25.238-7.579c-12.832,0-24,4.987-31.734,13.2-6.141-7.366-16.08-11.7-28.362-11.7h-35.2V65.787l-5.68-14.678-2.858-7.366H35.243L32.4,51.109,9.6,109.892l-2.982,7.7L4.734,122.44,3.509,125.6H42.023l2.751-7.614,1.367-3.78h6.585l1.349,3.78,2.751,7.614h52.607v-6.283l.5.8L113.3,125.6h42.845l-.16-.248a46.354,46.354,0,0,0,12.53,1.686,44.322,44.322,0,0,0,25.238-7.792V125.6h36.207V101.728h2.893V125.6h59V102.74l6.141,15.565,2.893,7.295H330.7l2.893-7.295,6.141-15.565V125.6h32.906l4.615-2.662,3.07-1.775,12.3-7.1,3.017-1.739,7.1-4.1,1.775-1.029,2.662-1.544V91.132Zm-229.062-6.07-.87,4.632a6.787,6.787,0,0,1-5.271,2.236c-4.366,0-7.082-2.8-7.082-7.295s2.716-7.295,7.082-7.295c3.124,0,4.473,1.171,4.579,1.3Z" transform="translate(2.719 32.726)"/>
          <path id="패스_52105" data-name="패스 52105" d="M52.143,75.829,44.8,96.311H59.509Zm58.428-3.9h-9.957V88.945h9.957c6.922,0,11.111-2.946,11.111-8.5s-4.189-8.519-11.111-8.519m0,0h-9.957V88.945h9.957c6.922,0,11.111-2.946,11.111-8.5s-4.189-8.519-11.111-8.519m-58.428,3.9L44.8,96.311H59.509Zm0,0L44.8,96.311H59.509Zm58.428-3.9h-9.957V88.945h9.957c6.922,0,11.111-2.946,11.111-8.5s-4.189-8.519-11.111-8.519m0,0h-9.957V88.945h9.957c6.922,0,11.111-2.946,11.111-8.5s-4.189-8.519-11.111-8.519m-58.428,3.9L44.8,96.311H59.509Zm366.1,20.162c.018-.3.018-.6.018-.905V83.691c0-.479-.018-.941-.035-1.384a23.117,23.117,0,0,0,2.556-10.6V60.317a23.072,23.072,0,0,0-23.073-23.073H353.992a25.076,25.076,0,0,0-2.591.142,25.077,25.077,0,0,0-2.591-.142H335.037a23.161,23.161,0,0,0-15.991,6.425,23.086,23.086,0,0,0-15.974-6.425H288.216a25.077,25.077,0,0,0-2.591.142,25.077,25.077,0,0,0-2.591-.142H269.9a22.731,22.731,0,0,0-4.828.515,22.9,22.9,0,0,0-4.845-.515H247.111a23.043,23.043,0,0,0-12.992,3.993,22.943,22.943,0,0,0-12.974-3.993H208.011a22.881,22.881,0,0,0-12.655,3.78,56.433,56.433,0,0,0-24.12-5.289,55.7,55.7,0,0,0-31.663,9.46c-7.667-5.076-17.376-7.951-28.433-7.951H87.481a22.981,22.981,0,0,0-13.986,4.721,23.065,23.065,0,0,0-13.986-4.721H45.878A23.1,23.1,0,0,0,24.349,51.975L1.56,110.758a23.077,23.077,0,0,0,21.511,31.415h13.56a23.08,23.08,0,0,0,15.512-5.981,23.08,23.08,0,0,0,15.512,5.981H82.3a25.076,25.076,0,0,0,2.591-.142,25.077,25.077,0,0,0,2.591.142h13.134a22.914,22.914,0,0,0,10.933-2.751,23.058,23.058,0,0,0,10.915,2.751h15.228a23.162,23.162,0,0,0,11.253-2.929,57.452,57.452,0,0,0,22.292,4.366,56.248,56.248,0,0,0,23.943-5.325,23.036,23.036,0,0,0,12.832,3.887h13.134a22.943,22.943,0,0,0,12.974-3.993,23.043,23.043,0,0,0,12.992,3.993h13.116a24.119,24.119,0,0,0,4.845-.5,23.944,23.944,0,0,0,4.828.5h13.134a22.893,22.893,0,0,0,14.2-4.9,23.068,23.068,0,0,0,14.217,4.9h14.128a23.068,23.068,0,0,0,14.217-4.9,22.893,22.893,0,0,0,14.2,4.9h1.384l9.229-5.325,6.141-3.55,4.615-2.662,4.615-2.662,3.07-1.775,12.3-7.1H353.992V60.317h43.715V71.711H367.126v11.98h28.06V95.086h-28.06v12.619h31.237v9.655l7.1-4.1,1.775-1.029,2.662-1.544,2.662-1.526,3.532-2.041,5.076-2.929a23.112,23.112,0,0,0-2.928-8.2m-197.1-.763V119.1H208.011V60.317h13.134v23.3h25.966v-23.3h13.116V119.1H247.111V95.228Zm-49.909,25.309c-18.1,0-31.45-13.045-31.45-30.865s13.347-30.865,31.45-30.865c16.151,0,26.96,9.726,29.356,22.132H187.316c-1.367-5.626-7.366-10.1-15.8-10.1-10.685,0-18.618,7.863-18.618,18.831,0,10.9,7.934,18.831,18.618,18.831,8.431,0,15.352-5.555,16.364-10.9H201.16c-1.81,11.838-13.631,22.931-29.924,22.931M40.749,107.705,36.631,119.1H23.071L45.878,60.317H59.509L82.3,119.1H67.656l-4.118-11.395ZM87.481,60.317h23.659c14.944,0,23.659,7.934,23.659,20.127,0,8.076-3.816,14.288-10.738,17.518L137.691,119.1H122.463L111.068,100.57H100.615V119.1H87.481ZM283.034,119.1H269.9V60.317h13.134Zm42.543,0H311.449L288.216,60.317h14.855L319.1,103.588l15.938-43.271H348.81ZM121.682,80.443c0-5.555-4.189-8.519-11.111-8.519h-9.957V88.945h9.957c6.922,0,11.111-2.946,11.111-8.5M44.8,96.311H59.509L52.143,75.829Zm7.348-20.482L44.8,96.311H59.509Zm58.428-3.9h-9.957V88.945h9.957c6.922,0,11.111-2.946,11.111-8.5s-4.189-8.519-11.111-8.519m0,0h-9.957V88.945h9.957c6.922,0,11.111-2.946,11.111-8.5s-4.189-8.519-11.111-8.519m-58.428,3.9L44.8,96.311H59.509Zm0,0L44.8,96.311H59.509Zm58.428-3.9h-9.957V88.945h9.957c6.922,0,11.111-2.946,11.111-8.5s-4.189-8.519-11.111-8.519m0,0h-9.957V88.945h9.957c6.922,0,11.111-2.946,11.111-8.5s-4.189-8.519-11.111-8.519m-58.428,3.9L44.8,96.311H59.509Zm0,0L44.8,96.311H59.509Zm0,0L44.8,96.311H59.509Zm58.428-3.9h-9.957V88.945h9.957c6.922,0,11.111-2.946,11.111-8.5s-4.189-8.519-11.111-8.519m0,0h-9.957V88.945h9.957c6.922,0,11.111-2.946,11.111-8.5s-4.189-8.519-11.111-8.519" transform="translate(0 27.689)" fill="#fff"/>
          <path id="패스_52106" data-name="패스 52106" d="M399.645,92.632V74.387h2.52V45.244H324.427l-2.148,5.8-7.632,20.73-7.667-20.73-2.148-5.8H233.82v23.3H225.6v-23.3H194.721V54.3c-.816-.781-1.651-1.509-2.556-2.219-6.869-5.467-15.636-8.342-25.345-8.342a39.363,39.363,0,0,0-31.93,14.838,26.6,26.6,0,0,0-4.916-5.662c-5.786-5.023-13.826-7.667-23.251-7.667H74.19V78.859L63.364,50.905l-2.2-5.662H35.374l-2.2,5.662L10.385,109.688l-4.011,10.33L5.7,121.775H38.463l2.112-5.857,1.988-5.538h10.33l2.006,5.538,2.112,5.857h48.063V108.73l5.413,8.821,2.609,4.224h36.455L147.6,118.74a43.393,43.393,0,0,0,33.509,2.041,40.039,40.039,0,0,0,11.714-6.585c.657-.532,1.3-1.083,1.9-1.651v9.229H225.6V97.9h8.218v23.872h53.671V87.592l11.288,28.575L301,121.775h26.2l2.219-5.609L340.7,87.592v34.184H375.56L378.63,120l12.3-7.1,3.017-1.739,7.1-4.1,1.775-1.029v-13.4ZM175.925,83.6,174.771,89.7a5.828,5.828,0,0,1-2.13,2.112,10.247,10.247,0,0,1-5.538,1.615c-5.822,0-9.744-4.011-9.744-9.957s3.922-9.957,9.744-9.957c4.384,0,6.833,1.952,7.17,3.337Z" transform="translate(4.416 33.888)"/>
          <path id="패스_52107" data-name="패스 52107" d="M49.816,73.5,42.468,93.986H57.181Zm58.428-3.9H98.287V86.62h9.957c6.922,0,11.111-2.946,11.111-8.5S115.166,69.6,108.244,69.6M49.816,73.5,42.468,93.986H57.181Zm58.428-3.9H98.287V86.62h9.957c6.922,0,11.111-2.946,11.111-8.5S115.166,69.6,108.244,69.6M49.816,73.5,42.468,93.986H57.181Zm58.428-3.9H98.287V86.62h9.957c6.922,0,11.111-2.946,11.111-8.5S115.166,69.6,108.244,69.6M49.816,73.5,42.468,93.986H57.181Zm58.428-3.9H98.287V86.62h9.957c6.922,0,11.111-2.946,11.111-8.5S115.166,69.6,108.244,69.6M410.465,95.051a19.819,19.819,0,0,0,.142-2.29V81.367a20.15,20.15,0,0,0-.177-2.556,17.764,17.764,0,0,0,2.7-9.424V57.992a17.755,17.755,0,0,0-17.749-17.748H351.664a18,18,0,0,0-2.591.2,18,18,0,0,0-2.591-.2H332.709a17.793,17.793,0,0,0-15.991,10.01,17.747,17.747,0,0,0-15.974-10.01H285.888a18,18,0,0,0-2.591.2,18,18,0,0,0-2.591-.2H267.572a17.336,17.336,0,0,0-4.828.674,17.462,17.462,0,0,0-4.845-.674H244.783a17.708,17.708,0,0,0-12.992,5.644,17.639,17.639,0,0,0-12.974-5.644H205.683a17.6,17.6,0,0,0-11.962,4.65,51.047,51.047,0,0,0-24.812-6.159,49.953,49.953,0,0,0-31.681,10.827c-7.206-5.91-17-9.318-28.415-9.318H85.153a17.725,17.725,0,0,0-13.986,6.833,17.722,17.722,0,0,0-13.986-6.833H43.55A17.76,17.76,0,0,0,26.991,51.585L4.2,110.368a17.659,17.659,0,0,0,.923,14.785A13,13,0,0,0,6.1,126.8a13.722,13.722,0,0,0,1.171,1.509,17.679,17.679,0,0,0,13.471,6.212H34.3a17.751,17.751,0,0,0,15.512-9.1,17.751,17.751,0,0,0,15.512,9.1H79.97a15.775,15.775,0,0,0,2.591-.2,15.775,15.775,0,0,0,2.591.2H98.287a17.685,17.685,0,0,0,10.933-3.763,17.65,17.65,0,0,0,10.915,3.763h15.228a17.794,17.794,0,0,0,10.827-3.674,51.487,51.487,0,0,0,22.718,5.112,50.643,50.643,0,0,0,24.564-6.3,17.725,17.725,0,0,0,12.211,4.863h13.134a17.638,17.638,0,0,0,12.974-5.644,17.708,17.708,0,0,0,12.992,5.644H257.9a18.145,18.145,0,0,0,4.845-.657,18.013,18.013,0,0,0,4.828.657h13.134a17.672,17.672,0,0,0,14.2-7.117,17.735,17.735,0,0,0,14.217,7.117h14.128a17.735,17.735,0,0,0,14.217-7.117,17.672,17.672,0,0,0,14.2,7.117h10.614l6.141-3.55,4.615-2.662,4.615-2.662,3.07-1.775,12.3-7.1H351.664V57.992h43.715V69.387H364.8v11.98h28.06V92.761H364.8v12.619h31.237v9.655l7.1-4.1,1.775-1.029,2.662-1.544,2.662-1.526,3.532-2.041a17.686,17.686,0,0,0-3.3-9.744M218.817,92.9v23.872H205.683V57.992h13.134V81.3h25.966v-23.3H257.9v58.783H244.783V92.9Zm-49.909,25.309c-18.1,0-31.45-13.045-31.45-30.865s13.347-30.865,31.45-30.865c16.151,0,26.96,9.726,29.356,22.132H184.988c-1.367-5.626-7.366-10.1-15.8-10.1-10.685,0-18.618,7.863-18.618,18.831,0,10.9,7.934,18.831,18.618,18.831,8.431,0,15.352-5.555,16.364-10.9h13.276c-1.81,11.838-13.631,22.931-29.924,22.931m-33.545-1.438H120.135L108.741,98.246H98.287v18.529H85.153V57.992h23.659c14.944,0,23.659,7.934,23.659,20.127,0,8.076-3.816,14.288-10.738,17.518ZM169.618,87.49c-.071.16-.142.3-.213.444-.461-.248-1.083-.586-1.083-.586l.941-.479c.106.213.231.408.355.621m-131.2,17.89L34.3,116.775H20.744L43.55,57.992H57.181L79.97,116.775H65.328L61.21,105.381Zm242.285,11.395H267.572V57.992h13.134Zm42.543,0H309.121L285.888,57.992h14.855l16.027,43.271,15.938-43.271h13.773ZM108.244,69.6H98.287V86.62h9.957c6.922,0,11.111-2.946,11.111-8.5S115.166,69.6,108.244,69.6M42.468,93.986H57.181L49.816,73.5ZM108.244,69.6H98.287V86.62h9.957c6.922,0,11.111-2.946,11.111-8.5S115.166,69.6,108.244,69.6M49.816,73.5,42.468,93.986H57.181Zm58.428-3.9H98.287V86.62h9.957c6.922,0,11.111-2.946,11.111-8.5S115.166,69.6,108.244,69.6M49.816,73.5,42.468,93.986H57.181Zm0,0L42.468,93.986H57.181Zm58.428-3.9H98.287V86.62h9.957c6.922,0,11.111-2.946,11.111-8.5S115.166,69.6,108.244,69.6m0,0H98.287V86.62h9.957c6.922,0,11.111-2.946,11.111-8.5S115.166,69.6,108.244,69.6M49.816,73.5,42.468,93.986H57.181Zm0,0L42.468,93.986H57.181Zm0,0L42.468,93.986H57.181Zm58.428-3.9H98.287V86.62h9.957c6.922,0,11.111-2.946,11.111-8.5S115.166,69.6,108.244,69.6m0,0H98.287V86.62h9.957c6.922,0,11.111-2.946,11.111-8.5S115.166,69.6,108.244,69.6" transform="translate(2.328 30.014)"/>
          <path id="패스_52108" data-name="패스 52108" d="M396.739,93.632v-21.8h2.52V46.244H324.538l-1.722,4.65-9.282,25.221L304.18,50.876l-1.7-4.632H234.464v23.3H222.7v-23.3H195.364V58.117a33.447,33.447,0,0,0-5.431-5.431c-6.549-5.2-14.944-7.951-24.244-7.951A38.942,38.942,0,0,0,138.2,55.508a35.181,35.181,0,0,0-4.615,5.555,24.343,24.343,0,0,0-5.91-7.6c-5.449-4.721-13.081-7.224-22.079-7.224H74.834V87.58L60.582,50.769l-1.757-4.526H35.468l-1.757,4.526L10.9,109.57l-3.745,9.655H36.071l1.7-4.686,2.414-6.709H53l2.432,6.709,1.686,4.686h45.046V101.69l8.715,14.163,2.077,3.372h32.214l-4.721-7.312a39.215,39.215,0,0,0,25.238,8.75,40.669,40.669,0,0,0,13.684-2.325,37.826,37.826,0,0,0,11.2-6.3,36.414,36.414,0,0,0,4.792-4.7v11.892H222.7V95.354h11.767v23.872h50.122V77.5L299.3,114.735l1.775,4.49h23.783l1.775-4.49L341.345,77.5v41.727H377.5l12.3-7.1,3.017-1.739,7.1-4.1V93.632ZM102.167,72.05h2.858c2.609,0,3.745.6,3.922.8a1.618,1.618,0,0,1,.089.621,1.713,1.713,0,0,1-.089.621c-.177.2-1.313.781-3.922.781h-2.858Zm93.2,11.483h-18.9l-1.1,5.786a6.056,6.056,0,0,1-2.52,2.964,11.981,11.981,0,0,1-6.869,2.148c-6.78,0-11.519-4.828-11.519-11.732,0-7.011,4.632-11.732,11.519-11.732,5.094,0,8.324,2.361,8.892,4.686l1.331,5.413h19.168Z" transform="translate(5.547 34.663)" fill="#009f42"/>
          <path id="패스_52109" data-name="패스 52109" d="M48.269,71.955,40.921,92.436H55.634Zm58.428-3.9H96.74V85.071H106.7c6.922,0,11.111-2.946,11.111-8.5S113.619,68.05,106.7,68.05m0,0H96.74V85.071H106.7c6.922,0,11.111-2.946,11.111-8.5S113.619,68.05,106.7,68.05m-58.428,3.9L40.921,92.436H55.634Zm0,0L40.921,92.436H55.634Zm58.428-3.9H96.74V85.071H106.7c6.922,0,11.111-2.946,11.111-8.5S113.619,68.05,106.7,68.05m0,0H96.74V85.071H106.7c6.922,0,11.111-2.946,11.111-8.5S113.619,68.05,106.7,68.05m-58.428,3.9L40.921,92.436H55.634ZM406.025,95.578a10.868,10.868,0,0,0-.887-1.136,14.251,14.251,0,0,0,.337-2.148c.018-.355.035-.71.035-1.083V79.817a13.983,13.983,0,0,0-.142-1.935,12.492,12.492,0,0,0-.248-1.42,2.536,2.536,0,0,0,.248-.355,13.985,13.985,0,0,0,2.662-8.271V56.442a14.025,14.025,0,0,0-2.662-8.271,14.257,14.257,0,0,0-3.266-3.266,14.025,14.025,0,0,0-8.271-2.662H350.118a13.8,13.8,0,0,0-2.591.248,14.086,14.086,0,0,0-2.591-.248H331.162a14.191,14.191,0,0,0-13.329,9.3l-2.645,7.17-2.662-7.206A14.243,14.243,0,0,0,299.2,42.244H284.342a14.086,14.086,0,0,0-2.591.248,13.8,13.8,0,0,0-2.591-.248H266.025a14.018,14.018,0,0,0-4.828.852,14.119,14.119,0,0,0-4.845-.852H243.236a14.025,14.025,0,0,0-8.271,2.662,14.257,14.257,0,0,0-3.266,3.266,13.121,13.121,0,0,0-1.455,2.52,12.907,12.907,0,0,0-1.438-2.5,13.734,13.734,0,0,0-3.283-3.283,14.011,14.011,0,0,0-8.253-2.662H204.136a13.971,13.971,0,0,0-8.253,2.662,13.59,13.59,0,0,0-3.07,2.982,1.324,1.324,0,0,0-.213-.124,46.693,46.693,0,0,0-25.238-7.028A46.041,46.041,0,0,0,135.733,52.7c-6.656-6.62-16.524-10.454-28.469-10.454H83.606a14.012,14.012,0,0,0-8.253,2.662,13.735,13.735,0,0,0-3.283,3.283,14.126,14.126,0,0,0-2.343,5.325l-.852-2.2a14.217,14.217,0,0,0-13.24-9.069H42a14.181,14.181,0,0,0-13.24,9.069L5.956,110.1a14.331,14.331,0,0,0,.958,12.246c.177.319.373.6.568.905q.293.426.639.852a13.73,13.73,0,0,0,2.8,2.662,14.184,14.184,0,0,0,8.271,2.662h13.56a14.2,14.2,0,0,0,13.365-9.371l.728-2.023h2.84l.728,2.023a14.218,14.218,0,0,0,13.365,9.371H78.424a14.069,14.069,0,0,0,2.591-.231,13.8,13.8,0,0,0,2.591.231H96.74a14.025,14.025,0,0,0,8.271-2.662,14.6,14.6,0,0,0,2.662-2.467c.2.231.39.461.6.674a14.1,14.1,0,0,0,10.312,4.455h15.228a14.184,14.184,0,0,0,8.271-2.662,13.81,13.81,0,0,0,2.041-1.775c1.154.639,2.343,1.242,3.55,1.775a47.91,47.91,0,0,0,19.683,4.1A47.016,47.016,0,0,0,192.6,123.6c.018-.018.036-.018.053-.036a14.2,14.2,0,0,0,11.483,5.857H217.27a14.011,14.011,0,0,0,8.253-2.662,13.661,13.661,0,0,0,3.283-3.266,13.454,13.454,0,0,0,1.438-2.5,13.681,13.681,0,0,0,1.455,2.52,13.838,13.838,0,0,0,3.266,3.248,14.025,14.025,0,0,0,8.271,2.662h13.116a14.545,14.545,0,0,0,4.845-.834,14.441,14.441,0,0,0,4.828.834h13.134a14.241,14.241,0,0,0,14.021-11.98l1.189,3a14.184,14.184,0,0,0,13.2,8.981H321.7a14.184,14.184,0,0,0,13.2-8.981l1.189-3a14.205,14.205,0,0,0,14.021,11.98h16.755l4.615-2.662L376.1,124.1l3.07-1.775,12.3-7.1H350.118V56.442h43.715V67.837H363.251v11.98h28.06V91.212h-28.06v12.619h31.237v9.655l7.1-4.1,1.775-1.029,2.662-1.544,2.662-1.526v-1.455a14.094,14.094,0,0,0-2.662-8.253M217.27,91.354v23.872H204.136V56.442H217.27v23.3h25.966v-23.3h13.116v58.783H243.236V91.354ZM42,56.442H55.634l22.789,58.783H63.781l-4.118-11.395H36.874l-4.118,11.395H19.2ZM96.74,96.7v18.529H83.606V56.442h23.659c14.944,0,23.659,7.934,23.659,20.127,0,8.076-3.816,14.288-10.738,17.518l13.631,21.138H118.588L107.194,96.7Zm70.621,19.967c-18.1,0-31.45-13.045-31.45-30.865s13.347-30.865,31.45-30.865c16.151,0,26.96,9.726,29.356,22.132H183.441c-1.367-5.626-7.366-10.1-15.8-10.1-10.685,0-18.618,7.863-18.618,18.831,0,10.9,7.934,18.831,18.618,18.831,8.431,0,15.352-5.555,16.364-10.9h13.276c-1.81,11.838-13.631,22.931-29.924,22.931M172.242,85.8a14.286,14.286,0,0,0-1.81,3.78,4.948,4.948,0,0,1-2.787.852c-3.656,0-4.419-2.52-4.419-4.632s.763-4.632,4.419-4.632c1.3,0,2.112.266,2.13-.231a14,14,0,0,0,2.467,4.863m106.917,29.427H266.025V56.442h13.134Zm42.543,0H307.574L284.342,56.442H299.2l16.027,43.271,15.938-43.271h13.773ZM117.807,76.569c0-5.555-4.189-8.519-11.111-8.519H96.74V85.071H106.7c6.922,0,11.111-2.946,11.111-8.5M48.269,71.955,40.921,92.436H55.634Zm0,0L40.921,92.436H55.634Zm58.428-3.9H96.74V85.071H106.7c6.922,0,11.111-2.946,11.111-8.5S113.619,68.05,106.7,68.05m0,0H96.74V85.071H106.7c6.922,0,11.111-2.946,11.111-8.5S113.619,68.05,106.7,68.05m-58.428,3.9L40.921,92.436H55.634Zm0,0L40.921,92.436H55.634Zm58.428-3.9H96.74V85.071H106.7c6.922,0,11.111-2.946,11.111-8.5S113.619,68.05,106.7,68.05m0,0H96.74V85.071H106.7c6.922,0,11.111-2.946,11.111-8.5S113.619,68.05,106.7,68.05m-58.428,3.9L40.921,92.436H55.634Zm0,0L40.921,92.436H55.634Zm0,0L40.921,92.436H55.634Zm58.428-3.9H96.74V85.071H106.7c6.922,0,11.111-2.946,11.111-8.5S113.619,68.05,106.7,68.05m0,0H96.74V85.071H106.7c6.922,0,11.111-2.946,11.111-8.5S113.619,68.05,106.7,68.05" transform="translate(3.875 31.564)" fill="#fff"/>
          <path id="패스_52110" data-name="패스 52110" d="M101.366,60.423A9.767,9.767,0,1,1,91.6,70.19a9.768,9.768,0,0,1,9.767-9.767" transform="translate(70.976 46.819)" fill="#fff"/>
          <path class="star s1" id="패스_52111" data-name="패스 52111" d="M205.638,2.6h0a6.986,6.986,0,0,1,2.558,9.543L195.968,33.322a6.986,6.986,0,1,1-12.1-6.986L196.094,5.161A6.986,6.986,0,0,1,205.638,2.6" transform="translate(141.745 1.291)" fill="#f38ab3" stroke="#000" stroke-width="3"/>
          <path class="star s2" id="패스_52113" data-name="패스 52113" d="M225.965,19.025h0a6.986,6.986,0,0,1-2.558,9.543L202.232,40.793a6.986,6.986,0,1,1-6.986-12.1l21.176-12.227a6.986,6.986,0,0,1,9.543,2.558" transform="translate(148.58 12.033)" fill="#a3d7ef" stroke="#000" stroke-width="3"/>
          <g class="sti">
            <g id="마스크_그룹_112054" data-name="마스크 그룹 112054" transform="translate(0 63.424)" clip-path="url(#clip-path)">
              <rect id="사각형_22445" data-name="사각형 22445" width="113.751" height="19.523" transform="translate(330.564 102.991) rotate(-30)" opacity="0.5" fill="url(#linear-gradient)"/>
            </g>
            <g transform="matrix(1, 0, 0, 1, -4.17, -4.87)" filter="url(#패스_52115)">
              <path id="패스_52115-2" data-name="패스 52115" d="M263.111,77.025l-9.868-5.7a23.072,23.072,0,0,0-31.518,8.445L200.232,117l9.226-5.33,6.145-3.543,4.613-2.666,4.613-2.666,3.072-1.771,12.3-7.1,3.015-1.745,7.1-4.1,1.78-1.022,2.668-1.533,2.653-1.542,3.534-2.038,5.074-2.932a23.053,23.053,0,0,0-2.911-1.988" transform="translate(159.32 57.74)" fill="#fff"/>
          </g>
          </g>
        </g>
      </g>
      <rect id="사각형_22348" data-name="사각형 22348" width="430" height="181" fill="none"/>
    </g>
    <g id="shadow" transform="translate(-15190.447 5945.968)" clip-path="url(#clip-path-2)">
      <path class="sti2" id="패스_52169" data-name="패스 52169" d="M56.735,5.62,0,43.273,12.658,18.058C21.328.789,40.528-5.126,55.552,4.842Z" transform="translate(3.694 -12.831) rotate(5)" opacity="0.07" fill="url(#linear-gradient-2)"/>
    </g>
    <g id="shadow-2" data-name="shadow" transform="translate(-15208.069 5944.716)" clip-path="url(#clip-path-3)">
      <g transform="matrix(1, 0, 0, 1, -341.93, -124.72)" filter="url(#패스_52174)">
        <g class="sti">
          <path class="st1" id="패스_52174-2" data-name="패스 52174" d="M67.236,12.1,44.323,10.419S6.372-7.435,0,3.6L4.357,52.075l9.226-5.33L19.727,43.2l4.613-2.666,4.613-2.666L32.025,36.1l12.3-7.1,3.015-1.745,7.1-4.1,1.78-1.022L58.885,20.6l2.653-1.542,3.534-2.038,5.074-2.932A23.05,23.05,0,0,0,67.236,12.1" transform="translate(429.7 188.69) rotate(180)" fill="url(#linear-gradient-3)"/>
        </g>
      </g>
    </g>
  </g>
</svg>
