<svg xmlns="http://www.w3.org/2000/svg" xmlns:xlink="http://www.w3.org/1999/xlink" width="447" height="212" viewBox="0 0 447 212">
  <defs>
    <filter id="패스_52179" x="123.855" y="120.593" width="203.232" height="56.846" filterUnits="userSpaceOnUse">
      <feOffset dx="2" dy="3" input="SourceAlpha"/>
      <feGaussianBlur result="blur"/>
      <feFlood/>
      <feComposite operator="in" in2="blur"/>
      <feComposite in="SourceGraphic"/>
    </filter>
  </defs>
  <g id="그룹_116365" data-name="그룹 116365" transform="translate(14697.699 -8870.049)">
    <rect id="사각형_22468" data-name="사각형 22468" width="447" height="212" transform="translate(-14697.699 8870.049)" fill="none"/>
    <g id="그룹_116358" data-name="그룹 116358" transform="translate(-14680.937 8877.48)">
      <path id="합치기_202" data-name="합치기 202" d="M42.095,176.355a42.095,42.095,0,0,1,0-84.19H157.571a57.252,57.252,0,0,1-.47-59.212l-5.308,5.308A22.687,22.687,0,0,1,183.864,6.19L177.058,13a57.253,57.253,0,0,1,59.056.373l-7.178-7.177a22.687,22.687,0,0,1,32.072,32.071l-5.929-5.929a57.248,57.248,0,0,1-.1,59.832H369.146a42.095,42.095,0,0,1,0,84.19Z" transform="translate(1.447 9.86)" fill="#7281f4" stroke="#000" stroke-width="27"/>
      <path id="합치기_201" data-name="합치기 201" d="M42.095,176.355a42.095,42.095,0,0,1,0-84.19H157.571a57.252,57.252,0,0,1-.47-59.212l-5.308,5.308A22.687,22.687,0,0,1,183.864,6.19L177.058,13a57.253,57.253,0,0,1,59.056.373l-7.178-7.177a22.687,22.687,0,0,1,32.072,32.071l-5.929-5.929a57.248,57.248,0,0,1-.1,59.832H369.146a42.095,42.095,0,0,1,0,84.19Z" transform="translate(1.447 9.86)" fill="#7281f4" stroke="#f06a86" stroke-width="21"/>
      <path id="패스_52252" data-name="패스 52252" d="M31.766,28.016C31.7,36.837,30.081,43.976,28.15,43.96s-3.446-7.174-3.381-16,1.685-15.959,3.616-15.946,3.446,7.176,3.381,16" transform="translate(179.576 28.072)" fill="#7281f4" stroke="#000" stroke-width="16"/>
      <path id="패스_52253" data-name="패스 52253" d="M28.93,46.508h-.021c-2.577-.018-3.609-3.491-4.161-6.1a57.2,57.2,0,0,1-.979-11.68,57.212,57.212,0,0,1,1.15-11.656c.588-2.6,1.667-6.05,4.234-6.05h.018c2.58.021,3.611,3.494,4.163,6.1A57.2,57.2,0,0,1,34.314,28.8a57.211,57.211,0,0,1-1.15,11.655C32.576,43.055,31.5,46.508,28.93,46.508Z" transform="translate(178.804 27.298)" fill="#7281f4" stroke="#000" stroke-width="16"/>
      <path id="패스_52254" data-name="패스 52254" d="M5.133,27.013h-.04A3.405,3.405,0,0,1,2.306,25.3,10.528,10.528,0,0,1,.984,22.254,32.075,32.075,0,0,1,0,13.437,32.142,32.142,0,0,1,1.215,4.665a10.6,10.6,0,0,1,1.4-3.011A3.432,3.432,0,0,1,5.42,0h.036a3.409,3.409,0,0,1,2.79,1.712A10.536,10.536,0,0,1,9.568,4.76a32.081,32.081,0,0,1,.98,8.818,32.143,32.143,0,0,1-1.211,8.77,10.6,10.6,0,0,1-1.395,3.01A3.431,3.431,0,0,1,5.133,27.013Z" transform="translate(204.889 77.944) rotate(-45)" fill="#7281f4" stroke="#000" stroke-width="16"/>
      <path id="패스_52255" data-name="패스 52255" d="M37.121,30.92a6.2,6.2,0,1,1-6.206-6.206A6.207,6.207,0,0,1,37.121,30.92Z" transform="translate(176.805 41.113)" fill="#7281f4" stroke="#000" stroke-width="16"/>
      <line id="선_844" data-name="선 844" y2="5.751" transform="translate(207.724 26.807)" fill="#7281f4" stroke="#000" stroke-width="16"/>
      <line id="선_845" data-name="선 845" y2="5.751" transform="translate(207.724 26.807)" fill="#7281f4" stroke="#000" stroke-width="16"/>
      <line id="선_846" data-name="선 846" x2="2.875" y2="4.981" transform="translate(185.109 32.865)" fill="#7281f4" stroke="#000" stroke-width="16"/>
      <line id="선_847" data-name="선 847" x2="2.875" y2="4.981" transform="translate(185.109 32.865)" fill="#7281f4" stroke="#000" stroke-width="16"/>
      <line id="선_848" data-name="선 848" x2="4.981" y2="2.875" transform="translate(168.555 49.418)" fill="#7281f4" stroke="#000" stroke-width="16"/>
      <line id="선_849" data-name="선 849" x2="4.981" y2="2.875" transform="translate(168.555 49.418)" fill="#7281f4" stroke="#000" stroke-width="16"/>
      <line id="선_850" data-name="선 850" x2="5.751" transform="translate(162.495 72.033)" fill="#7281f4" stroke="#000" stroke-width="16"/>
      <line id="선_851" data-name="선 851" x2="5.751" transform="translate(162.495 72.033)" fill="#7281f4" stroke="#000" stroke-width="16"/>
      <line id="선_852" data-name="선 852" y1="2.875" x2="4.981" transform="translate(168.555 91.772)" fill="#7281f4" stroke="#000" stroke-width="16"/>
      <line id="선_853" data-name="선 853" y1="2.875" x2="4.981" transform="translate(168.555 91.772)" fill="#7281f4" stroke="#000" stroke-width="16"/>
      <line id="선_854" data-name="선 854" y1="5.434" x2="3.136" transform="translate(183.039 107.63)" fill="#7281f4" stroke="#000" stroke-width="16"/>
      <line id="선_855" data-name="선 855" y1="5.434" x2="3.136" transform="translate(183.039 107.63)" fill="#7281f4" stroke="#000" stroke-width="16"/>
      <line id="선_856" data-name="선 856" y1="6.275" transform="translate(207.712 113.399)" fill="#7281f4" stroke="#000" stroke-width="16"/>
      <line id="선_857" data-name="선 857" y1="6.275" transform="translate(207.712 113.399)" fill="#7281f4" stroke="#000" stroke-width="16"/>
      <line id="선_858" data-name="선 858" x1="3.136" y1="5.434" transform="translate(229.249 107.63)" fill="#7281f4" stroke="#000" stroke-width="16"/>
      <line id="선_859" data-name="선 859" x1="3.136" y1="5.434" transform="translate(229.249 107.63)" fill="#7281f4" stroke="#000" stroke-width="16"/>
      <line id="선_860" data-name="선 860" x1="4.981" y1="2.875" transform="translate(241.912 91.772)" fill="#7281f4" stroke="#000" stroke-width="16"/>
      <line id="선_861" data-name="선 861" x1="4.981" y1="2.875" transform="translate(241.912 91.772)" fill="#7281f4" stroke="#000" stroke-width="16"/>
      <line id="선_862" data-name="선 862" x1="5.751" transform="translate(247.199 72.033)" fill="#7281f4" stroke="#000" stroke-width="16"/>
      <line id="선_863" data-name="선 863" x1="5.751" transform="translate(247.199 72.033)" fill="#7281f4" stroke="#000" stroke-width="16"/>
      <line id="선_864" data-name="선 864" x1="4.981" y2="2.875" transform="translate(241.912 49.418)" fill="#7281f4" stroke="#000" stroke-width="16"/>
      <line id="선_865" data-name="선 865" x1="4.981" y2="2.875" transform="translate(241.912 49.418)" fill="#7281f4" stroke="#000" stroke-width="16"/>
      <line id="선_866" data-name="선 866" x1="2.875" y2="4.981" transform="translate(227.464 32.865)" fill="#7281f4" stroke="#000" stroke-width="16"/>
      <line id="선_867" data-name="선 867" x1="2.875" y2="4.981" transform="translate(227.464 32.865)" fill="#7281f4" stroke="#000" stroke-width="16"/>
      <path id="패스_52161" data-name="패스 52161" d="M96.545,51.318A45.227,45.227,0,1,1,51.317,6.09,45.229,45.229,0,0,1,96.545,51.318" transform="translate(156.406 20.717)" fill="#7281f4" stroke="#f06a86" stroke-width="13"/>
      <ellipse id="타원_808" data-name="타원 808" cx="45.227" cy="45.228" rx="45.227" ry="45.228" transform="translate(162.495 26.807)" fill="#7281f4" stroke="#f06a86" stroke-width="13"/>
      <path id="패스_52162" data-name="패스 52162" d="M31.766,28.016C31.7,36.837,30.081,43.976,28.15,43.96s-3.446-7.174-3.381-16,1.685-15.959,3.616-15.946,3.446,7.176,3.381,16" transform="translate(179.576 28.072)" fill="#7281f4" stroke="#f06a86" stroke-width="13"/>
      <path id="패스_52163" data-name="패스 52163" d="M28.93,46.508h-.021c-2.577-.018-3.609-3.491-4.161-6.1a57.2,57.2,0,0,1-.979-11.68,57.212,57.212,0,0,1,1.15-11.656c.588-2.6,1.667-6.05,4.234-6.05h.018c2.58.021,3.611,3.494,4.163,6.1A57.2,57.2,0,0,1,34.314,28.8a57.211,57.211,0,0,1-1.15,11.655C32.576,43.055,31.5,46.508,28.93,46.508Z" transform="translate(178.804 27.298)" fill="#7281f4" stroke="#f06a86" stroke-width="13"/>
      <path id="패스_52165" data-name="패스 52165" d="M5.133,27.013h-.04A3.405,3.405,0,0,1,2.306,25.3,10.528,10.528,0,0,1,.984,22.254,32.075,32.075,0,0,1,0,13.437,32.142,32.142,0,0,1,1.215,4.665a10.6,10.6,0,0,1,1.4-3.011A3.432,3.432,0,0,1,5.42,0h.036a3.409,3.409,0,0,1,2.79,1.712A10.536,10.536,0,0,1,9.568,4.76a32.081,32.081,0,0,1,.98,8.818,32.143,32.143,0,0,1-1.211,8.77,10.6,10.6,0,0,1-1.395,3.01A3.431,3.431,0,0,1,5.133,27.013Z" transform="translate(204.889 77.944) rotate(-45)" fill="#7281f4" stroke="#f06a86" stroke-width="13"/>
      <path id="패스_52167" data-name="패스 52167" d="M37.121,30.92a6.2,6.2,0,1,1-6.206-6.206A6.207,6.207,0,0,1,37.121,30.92Z" transform="translate(176.805 41.113)" fill="#7281f4" stroke="#f06a86" stroke-width="13"/>
      <line id="선_820" data-name="선 820" y2="5.751" transform="translate(207.724 26.807)" fill="#7281f4" stroke="#f06a86" stroke-width="13"/>
      <line id="선_821" data-name="선 821" y2="5.751" transform="translate(207.724 26.807)" fill="#7281f4" stroke="#f06a86" stroke-width="13"/>
      <line id="선_822" data-name="선 822" x2="2.875" y2="4.981" transform="translate(185.109 32.865)" fill="#7281f4" stroke="#f06a86" stroke-width="13"/>
      <line id="선_823" data-name="선 823" x2="2.875" y2="4.981" transform="translate(185.109 32.865)" fill="#7281f4" stroke="#f06a86" stroke-width="13"/>
      <line id="선_824" data-name="선 824" x2="4.981" y2="2.875" transform="translate(168.555 49.418)" fill="#7281f4" stroke="#f06a86" stroke-width="13"/>
      <line id="선_825" data-name="선 825" x2="4.981" y2="2.875" transform="translate(168.555 49.418)" fill="#7281f4" stroke="#f06a86" stroke-width="13"/>
      <line id="선_826" data-name="선 826" x2="5.751" transform="translate(162.495 72.033)" fill="#7281f4" stroke="#f06a86" stroke-width="13"/>
      <line id="선_827" data-name="선 827" x2="5.751" transform="translate(162.495 72.033)" fill="#7281f4" stroke="#f06a86" stroke-width="13"/>
      <line id="선_828" data-name="선 828" y1="2.875" x2="4.981" transform="translate(168.555 91.772)" fill="#7281f4" stroke="#f06a86" stroke-width="13"/>
      <line id="선_829" data-name="선 829" y1="2.875" x2="4.981" transform="translate(168.555 91.772)" fill="#7281f4" stroke="#f06a86" stroke-width="13"/>
      <line id="선_830" data-name="선 830" y1="5.434" x2="3.136" transform="translate(183.039 107.63)" fill="#7281f4" stroke="#f06a86" stroke-width="13"/>
      <line id="선_831" data-name="선 831" y1="5.434" x2="3.136" transform="translate(183.039 107.63)" fill="#7281f4" stroke="#f06a86" stroke-width="13"/>
      <line id="선_832" data-name="선 832" y1="6.275" transform="translate(207.712 113.399)" fill="#7281f4" stroke="#f06a86" stroke-width="13"/>
      <line id="선_833" data-name="선 833" y1="6.275" transform="translate(207.712 113.399)" fill="#7281f4" stroke="#f06a86" stroke-width="13"/>
      <line id="선_834" data-name="선 834" x1="3.136" y1="5.434" transform="translate(229.249 107.63)" fill="#7281f4" stroke="#f06a86" stroke-width="13"/>
      <line id="선_835" data-name="선 835" x1="3.136" y1="5.434" transform="translate(229.249 107.63)" fill="#7281f4" stroke="#f06a86" stroke-width="13"/>
      <line id="선_836" data-name="선 836" x1="4.981" y1="2.875" transform="translate(241.912 91.772)" fill="#7281f4" stroke="#f06a86" stroke-width="13"/>
      <line id="선_837" data-name="선 837" x1="4.981" y1="2.875" transform="translate(241.912 91.772)" fill="#7281f4" stroke="#f06a86" stroke-width="13"/>
      <line id="선_838" data-name="선 838" x1="5.751" transform="translate(247.199 72.033)" fill="#7281f4" stroke="#f06a86" stroke-width="13"/>
      <line id="선_839" data-name="선 839" x1="5.751" transform="translate(247.199 72.033)" fill="#7281f4" stroke="#f06a86" stroke-width="13"/>
      <line id="선_840" data-name="선 840" x1="4.981" y2="2.875" transform="translate(241.912 49.418)" fill="#7281f4" stroke="#f06a86" stroke-width="13"/>
      <line id="선_841" data-name="선 841" x1="4.981" y2="2.875" transform="translate(241.912 49.418)" fill="#7281f4" stroke="#f06a86" stroke-width="13"/>
      <line id="선_842" data-name="선 842" x1="2.875" y2="4.981" transform="translate(227.464 32.865)" fill="#7281f4" stroke="#f06a86" stroke-width="13"/>
      <line id="선_843" data-name="선 843" x1="2.875" y2="4.981" transform="translate(227.464 32.865)" fill="#7281f4" stroke="#f06a86" stroke-width="13"/>
      <path id="패스_52160" data-name="패스 52160" d="M115.134,57.942A57.192,57.192,0,1,1,57.942.75a57.191,57.191,0,0,1,57.192,57.192" transform="translate(149.782 14.09)" fill="#7281f4" stroke="#000" stroke-width="3"/>
      <path id="패스_52161-2" data-name="패스 52161" d="M96.545,51.318A45.227,45.227,0,1,1,51.317,6.09,45.229,45.229,0,0,1,96.545,51.318" transform="translate(156.406 20.715)" fill="#fff7e9"/>
      <ellipse id="타원_808-2" data-name="타원 808" cx="45.227" cy="45.228" rx="45.227" ry="45.228" transform="translate(162.495 26.805)" fill="none" stroke="#000" stroke-linecap="round" stroke-linejoin="round" stroke-width="3"/>
      <path id="패스_52162-2" data-name="패스 52162" d="M31.766,28.016C31.7,36.837,30.081,43.976,28.15,43.96s-3.446-7.174-3.381-16,1.685-15.959,3.616-15.946,3.446,7.176,3.381,16" transform="translate(179.576 28.07)" fill="#fce652"/>
      <g id="패스_52163-2" data-name="패스 52163" transform="translate(179.576 28.07)" fill="#fff" stroke-linecap="round" stroke-linejoin="round">
        <path d="M 28.15644073486328 45.46020126342773 L 28.13789176940918 45.46012115478516 C 27.06148147583008 45.45264053344727 26.15993118286133 44.75142288208008 25.46005249023438 43.37594985961914 C 24.98976135253906 42.45168304443359 24.58014106750488 41.17304229736328 24.24255180358887 39.57553100585938 C 23.58265113830566 36.4527702331543 23.23695182800293 32.32546234130859 23.26915168762207 27.95390129089355 C 23.30131149291992 23.58812141418457 23.7073917388916 19.4692211151123 24.41258239746094 16.3559513092041 C 24.77306175231934 14.76455116271973 25.20059204101562 13.49194145202637 25.68331146240234 12.57346153259277 C 26.3997917175293 11.2102108001709 27.30705070495605 10.51899147033691 28.37988090515137 10.51899147033691 L 28.39577102661133 10.51905155181885 C 29.47499084472656 10.52780151367188 30.37599182128906 11.22952079772949 31.07547187805176 12.60474109649658 C 31.54571151733398 13.52927112579346 31.9553108215332 14.80808162689209 32.29287338256836 16.40564155578613 C 32.9527702331543 19.52870178222656 33.2984619140625 23.65610122680664 33.26625061035156 28.02753067016602 C 33.23410034179688 32.39284133911133 32.82815170288086 36.51118087768555 32.1231803894043 39.6239128112793 C 31.7628116607666 41.2150993347168 31.33537101745605 42.48754119873047 30.85276222229004 43.40587997436523 C 30.13639068603516 44.7690315246582 29.22921180725098 45.46020126342773 28.15644073486328 45.46020126342773 Z" stroke="none"/>
        <path d="M 28.15643692016602 43.96019744873047 C 30.08497047424316 43.96019744873047 31.70140266418457 36.82780075073242 31.76629257202148 28.01648139953613 C 31.8312816619873 19.19546127319336 30.31891250610352 12.03469085693359 28.38533210754395 12.01901149749756 C 26.45176696777344 12.0054988861084 24.83409118652344 19.14394569396973 24.76911163330078 27.96495056152344 C 24.70414161682129 36.78597259521484 26.21650123596191 43.94673156738281 28.15008163452148 43.96017074584961 C 28.15220260620117 43.96018981933594 28.15431594848633 43.96019744873047 28.15643692016602 43.96019744873047 M 28.15644073486328 46.96020126342773 L 28.12923240661621 46.96007537841797 L 28.12923240661621 46.96010208129883 C 27.42618179321289 46.9552116394043 26.37922096252441 46.75152206420898 25.38401222229004 45.80892181396484 C 24.90471076965332 45.35494995117188 24.49228096008301 44.78163146972656 24.12316131591797 44.05619049072266 C 23.59330177307129 43.01486206054688 23.13970184326172 41.61169052124023 22.77496147155762 39.88566970825195 C 22.09341239929199 36.66047286987305 21.73622131347656 32.41910171508789 21.76919174194336 27.94285202026367 C 21.80212211608887 23.47250175476074 22.22135162353516 19.23984146118164 22.94965171813965 16.02457046508789 C 23.33899116516113 14.30570125579834 23.81200218200684 12.90979099273682 24.35552215576172 11.87562084197998 C 24.73319244384766 11.15704154968262 25.15134239196777 10.59024143218994 25.63388252258301 10.14283084869385 C 26.63568115234375 9.213971138000488 27.68012237548828 9.018991470336914 28.37988090515137 9.018991470336914 C 28.38523101806641 9.018991470336914 28.3955020904541 9.019021034240723 28.40085220336914 9.019051551818848 C 28.40360069274902 9.019061088562012 28.40690231323242 9.019091606140137 28.4096622467041 9.019111633300781 C 29.11218070983887 9.024810791015625 30.15830230712891 9.229451179504395 31.15249252319336 10.17203140258789 C 31.63141250610352 10.62610149383545 32.04355239868164 11.19940090179443 32.41246032714844 11.92471122741699 C 32.94223022460938 12.96626091003418 33.3957633972168 14.36953163146973 33.76045989990234 16.09554100036621 C 34.44201278686523 19.32101058959961 34.79919052124023 23.56247138977051 34.76621246337891 28.03858184814453 C 34.73329162597656 32.50844192504883 34.31420135498047 36.74053192138672 33.58613204956055 39.95524215698242 C 33.19689178466797 41.67390060424805 32.72399139404297 43.06964111328125 32.18057250976562 44.10369110107422 C 31.8029613494873 44.82221984863281 31.38485145568848 45.38898086547852 30.9023609161377 45.83637237548828 C 29.90061187744141 46.76523208618164 28.85619163513184 46.96020126342773 28.15644073486328 46.96020126342773 Z" stroke="none" fill="#000"/>
      </g>
      <g id="패스_52165-2" data-name="패스 52165" transform="translate(207.398 77.943) rotate(-45)" fill="#fff" stroke-linecap="round" stroke-linejoin="round">
        <path d="M 3.359112739562988 24.96540260314941 L 3.323392868041992 24.96515274047852 C 2.645502805709839 24.95651245117188 1.648412823677063 24.67334365844727 0.7578228116035461 23.37356376647949 C 0.2571427822113037 22.64284324645996 -0.1748472154140472 21.64442253112793 -0.5261372327804565 20.4060230255127 C -1.19586718082428 18.04501342773438 -1.540387153625488 14.94128322601318 -1.496217250823975 11.66654300689697 C -1.452167153358459 8.399662971496582 -1.026297211647034 5.312192916870117 -0.2970671951770782 2.972892761230469 C 0.0853227898478508 1.746222853660583 0.5415627956390381 0.7597328424453735 1.058972835540771 0.04081282392144203 C 1.975502848625183 -1.232677221298218 2.972002744674683 -1.499997138977051 3.646572828292847 -1.499997138977051 L 3.67930269241333 -1.499787211418152 C 4.360292911529541 -1.490307211875916 5.35679292678833 -1.20622718334198 6.246832847595215 0.09343282133340836 C 6.747432708740234 0.8244128227233887 7.179352760314941 1.822972774505615 7.530602931976318 3.061392784118652 C 8.200332641601562 5.422672748565674 8.544853210449219 8.526493072509766 8.500682830810547 11.80110263824463 C 8.456643104553223 15.0674524307251 8.030932426452637 18.15433311462402 7.301992893218994 20.49311256408691 C 6.919742584228516 21.71958351135254 6.463642597198486 22.70591354370117 5.946382999420166 23.42471313476562 C 5.030022621154785 24.69811248779297 4.033622741699219 24.96540260314941 3.359112739562988 24.96540260314941 Z" stroke="none"/>
        <path d="M 3.646579504013062 -3.814697265625e-06 C 1.719034671783447 -3.814697265625e-06 0.09081459045410156 5.222536087036133 0.003642559051513672 11.68677234649658 C -0.08374738693237305 18.16642379760742 1.412922859191895 23.4406623840332 3.344262838363647 23.46529197692871 C 5.277864933013916 23.49220275878906 6.913442611694336 18.26052284240723 7.000823020935059 11.78087329864502 C 7.088212966918945 5.301212310791016 5.591522693634033 0.02698326110839844 3.66018271446228 8.20159912109375e-05 C 3.655580282211304 2.47955322265625e-05 3.65117883682251 -3.814697265625e-06 3.646579504013062 -3.814697265625e-06 M 3.646582841873169 -3.000007629394531 C 3.6644127368927 -3.000007629394531 3.681472778320312 -2.999897003173828 3.699312686920166 -2.999656677246094 C 4.548362731933594 -2.987836837768555 6.165242671966553 -2.680437088012695 7.484442710876465 -0.7541065216064453 C 8.076972961425781 0.1111221313476562 8.578032493591309 1.257133483886719 8.973682403564453 2.652091979980469 C 9.68193244934082 5.149192810058594 10.04662322998047 8.405552864074707 10.00055313110352 11.82133293151855 C 9.95460319519043 15.22824287414551 9.504822731018066 18.46645355224609 8.734052658081055 20.93944358825684 C 8.303752899169922 22.32005310058594 7.775482654571533 23.45100212097168 7.163912773132324 24.30085372924805 C 5.808632850646973 26.18418312072754 4.198352813720703 26.46539306640625 3.359112739562988 26.46539306640625 C 3.340052843093872 26.46539306640625 3.321032762527466 26.46526336669922 3.301932811737061 26.46499252319336 C 2.458942890167236 26.45424270629883 0.8407726287841797 26.14840316772461 -0.4795770645141602 24.22140312194824 C -1.072287082672119 23.35636329650879 -1.573466777801514 22.21041297912598 -1.969196796417236 20.81536293029785 C -2.677466869354248 18.31853294372559 -3.042157649993896 15.06223297119141 -2.996087551116943 11.64631271362305 C -2.950137615203857 8.238842964172363 -2.500176906585693 5.000022888183594 -1.72909688949585 2.526472091674805 C -1.298647403717041 1.145652770996094 -0.7702274322509766 0.01455307006835938 -0.1584973335266113 -0.8354167938232422 C 1.196972846984863 -2.71879768371582 2.807312965393066 -3.000007629394531 3.646582841873169 -3.000007629394531 Z" stroke="none" fill="#000"/>
      </g>
      <path id="패스_52167-2" data-name="패스 52167" d="M37.121,30.92a6.2,6.2,0,1,1-6.206-6.206A6.207,6.207,0,0,1,37.121,30.92Z" transform="translate(176.805 41.111)" fill="#fce652" stroke="#000" stroke-linecap="round" stroke-linejoin="round" stroke-width="3"/>
      <line id="선_820-2" data-name="선 820" y2="5.751" transform="translate(207.724 26.805)" fill="#d2f2e3"/>
      <line id="선_821-2" data-name="선 821" y2="5.751" transform="translate(207.724 26.805)" fill="none" stroke="#000" stroke-linecap="round" stroke-linejoin="round" stroke-width="3"/>
      <line id="선_822-2" data-name="선 822" x2="2.875" y2="4.981" transform="translate(185.109 32.863)" fill="#d2f2e3"/>
      <line id="선_824-2" data-name="선 824" x2="4.981" y2="2.875" transform="translate(168.555 49.416)" fill="#d2f2e3"/>
      <line id="선_826-2" data-name="선 826" x2="5.751" transform="translate(162.495 72.033)" fill="#d2f2e3"/>
      <line id="선_827-2" data-name="선 827" x2="5.751" transform="translate(162.495 72.033)" fill="none" stroke="#000" stroke-linecap="round" stroke-linejoin="round" stroke-width="3"/>
      <line id="선_828-2" data-name="선 828" y1="2.875" x2="4.981" transform="translate(168.555 91.77)" fill="#d2f2e3"/>
      <line id="선_830-2" data-name="선 830" y1="5.434" x2="3.136" transform="translate(183.039 107.628)" fill="#d2f2e3"/>
      <line id="선_831-2" data-name="선 831" y1="5.434" x2="3.136" transform="translate(183.039 107.628)" fill="none" stroke="#2f1600" stroke-linecap="round" stroke-linejoin="round" stroke-width="1.5"/>
      <line id="선_832-2" data-name="선 832" y1="6.275" transform="translate(207.712 113.398)" fill="#d2f2e3"/>
      <line id="선_833-2" data-name="선 833" y1="6.275" transform="translate(207.712 113.398)" fill="none" stroke="#2f1600" stroke-linecap="round" stroke-linejoin="round" stroke-width="1.5"/>
      <line id="선_834-2" data-name="선 834" x1="3.136" y1="5.434" transform="translate(229.249 107.628)" fill="#d2f2e3"/>
      <line id="선_835-2" data-name="선 835" x1="3.136" y1="5.434" transform="translate(229.249 107.628)" fill="none" stroke="#2f1600" stroke-linecap="round" stroke-linejoin="round" stroke-width="1.5"/>
      <line id="선_836-2" data-name="선 836" x1="4.981" y1="2.875" transform="translate(241.912 91.77)" fill="#d2f2e3"/>
      <line id="선_838-2" data-name="선 838" x1="5.751" transform="translate(247.199 72.033)" fill="#d2f2e3"/>
      <line id="선_839-2" data-name="선 839" x1="5.751" transform="translate(247.199 72.033)" fill="none" stroke="#000" stroke-linecap="round" stroke-linejoin="round" stroke-width="3"/>
      <line id="선_840-2" data-name="선 840" x1="4.981" y2="2.875" transform="translate(241.912 49.416)" fill="#d2f2e3"/>
      <line id="선_842-2" data-name="선 842" x1="2.875" y2="4.981" transform="translate(227.464 32.863)" fill="#d2f2e3"/>
      <g id="사각형_22447" data-name="사각형 22447" transform="translate(0 100.578)" fill="#fff7e9" stroke="#000" stroke-width="3">
        <rect width="414.136" height="87.085" rx="43.542" stroke="none"/>
        <rect x="1.5" y="1.5" width="411.136" height="84.085" rx="42.042" fill="none"/>
      </g>
      <g transform="matrix(1, 0, 0, 1, -16.76, -7.43)" filter="url(#패스_52179)">
        <g id="패스_52179-2" data-name="패스 52179" transform="translate(176.82 145.41)" fill="#fce652" stroke-linecap="round" stroke-linejoin="round">
          <path d="M 130.3649291992188 27.53420066833496 C 128.1747283935547 27.53420066833496 126.094596862793 27.26417541503906 124.182373046875 26.73160171508789 C 122.250373840332 26.19355201721191 120.528450012207 25.39865112304688 119.0644226074219 24.36895179748535 C 117.5403518676758 23.29705047607422 116.3291778564453 21.99472618103027 115.4645767211914 20.49817657470703 C 114.5610733032227 18.934326171875 114.0567474365234 17.19357681274414 113.9655456542969 15.32427597045898 L 113.8888244628906 13.75120067596436 L 115.4637756347656 13.75120067596436 L 124.7837753295898 13.75120067596436 L 125.2928771972656 13.75120067596436 C 122.2431259155273 13.10051727294922 119.9729766845703 12.2148962020874 118.2631530761719 11.02225112915039 C 116.9364013671875 10.09680080413818 115.920295715332 8.957675933837891 115.2430725097656 7.636526107788086 C 114.5380020141602 6.260976314544678 114.1804733276367 4.648076057434082 114.1804733276367 2.842626094818115 C 114.1804733276367 -0.5985488295555115 115.9210968017578 -3.654123783111572 119.0817260742188 -5.761198997497559 C 121.9591979980469 -7.679523944854736 125.908576965332 -8.735974311828613 130.2023468017578 -8.735974311828613 C 139.2182769775391 -8.735974311828613 145.8055725097656 -3.922723770141602 146.2214508056641 2.969001054763794 L 146.3174285888672 4.559350967407227 L 144.7241668701172 4.559350967407227 L 135.4884185791016 4.559350967407227 C 139.0064086914062 5.309271335601807 141.5438537597656 6.374837875366211 143.3596801757812 7.848276138305664 C 145.6517944335938 9.708226203918457 146.7660522460938 12.21837615966797 146.7660522460938 15.52212619781494 C 146.7660522460938 17.37250137329102 146.2939453125 19.10575103759766 145.3628540039062 20.6737003326416 C 144.4963226318359 22.13292694091797 143.2560729980469 23.40805053710938 141.6766052246094 24.46365165710449 C 138.7138977050781 26.4437255859375 134.6966552734375 27.53420066833496 130.3649291992188 27.53420066833496 Z M 126.0910491943359 13.91274166107178 L 126.2654266357422 15.0172758102417 C 126.4618759155273 16.2617015838623 128.2543487548828 17.16492652893066 130.5274810791016 17.16492652893066 C 131.6544799804688 17.16492652893066 132.7012786865234 16.98935127258301 133.4750518798828 16.67057609558105 C 134.0923156738281 16.41625213623047 134.3293762207031 16.15474510192871 134.3839721679688 16.06196403503418 C 134.3253784179688 15.98339366912842 134.0517120361328 15.69147777557373 133.0272979736328 15.32692623138428 C 131.9154815673828 14.93130111694336 130.2812805175781 14.57652568817139 128.0313262939453 14.24237632751465 C 127.3537368774414 14.14074039459229 126.7072677612305 14.03098964691162 126.0910491943359 13.91274166107178 Z M 132.7607727050781 4.069403171539307 C 133.2165069580078 4.137942790985107 133.6588439941406 4.210292339324951 134.0879974365234 4.286557674407959 L 133.9245758056641 3.305926084518433 C 133.7391967773438 2.193501234054565 132.1417236328125 1.416576147079468 130.0398254394531 1.416576147079468 C 129.0040283203125 1.416576147079468 128.0461730957031 1.567626118659973 127.3426971435547 1.841876149177551 C 126.7951736450195 2.055337190628052 126.5665283203125 2.276979207992554 126.5076141357422 2.366894245147705 C 126.5697708129883 2.439104557037354 126.8566665649414 2.708189725875854 127.8903503417969 3.041951179504395 C 128.9286041259766 3.377166509628296 130.4762420654297 3.703671216964722 132.7607727050781 4.069403171539307 Z M 12.40204906463623 27.53420066833496 C 9.806724548339844 27.53420066833496 7.343249320983887 27.08070182800293 5.080049514770508 26.18632698059082 C 2.861649513244629 25.30965042114258 0.8979994058609009 24.03582572937012 -0.7563256025314331 22.40027618408203 C -2.410650491714478 20.76470184326172 -3.699275493621826 18.82325172424316 -4.586450576782227 16.62980079650879 C -5.49107551574707 14.39315128326416 -5.949775695800781 11.96040153503418 -5.949775695800781 9.399126052856445 C -5.949775695800781 6.837851047515869 -5.49107551574707 4.405101299285889 -4.586450576782227 2.168426036834717 C -3.699275493621826 -0.02499884925782681 -2.410650491714478 -1.966448903083801 -0.7563256025314331 -3.602023839950562 C 0.8979994058609009 -5.237598896026611 2.861649513244629 -6.51142406463623 5.080049514770508 -7.38809871673584 C 7.343249320983887 -8.282473564147949 9.806724548339844 -8.735974311828613 12.40204906463623 -8.735974311828613 C 14.99737453460693 -8.735974311828613 17.46084976196289 -8.282473564147949 19.72404861450195 -7.38809871673584 C 21.94247436523438 -6.51142406463623 23.90612411499023 -5.237598896026611 25.56044960021973 -3.602023839950562 C 27.21477508544922 -1.966448903083801 28.50339889526367 -0.02499884925782681 29.39057350158691 2.168426036834717 C 30.29520034790039 4.405101299285889 30.75389862060547 6.837851047515869 30.75389862060547 9.399126052856445 C 30.75389862060547 11.96040153503418 30.29520034790039 14.39315128326416 29.39057350158691 16.62980079650879 C 28.50339889526367 18.82325172424316 27.21477508544922 20.76470184326172 25.56044960021973 22.40027618408203 C 23.90612411499023 24.03582572937012 21.94247436523438 25.30965042114258 19.72404861450195 26.18632698059082 C 17.46084976196289 27.08070182800293 14.99737453460693 27.53420066833496 12.40204906463623 27.53420066833496 Z M 12.40204906463623 2.500301122665405 C 8.794224739074707 2.500301122665405 6.370199203491211 5.272726058959961 6.370199203491211 9.399126052856445 C 6.370199203491211 13.52552604675293 8.794224739074707 16.29795074462891 12.40204906463623 16.29795074462891 C 16.0098991394043 16.29795074462891 18.43392372131348 13.52552604675293 18.43392372131348 9.399126052856445 C 18.43392372131348 5.272726058959961 16.0098991394043 2.500301122665405 12.40204906463623 2.500301122665405 Z M 111.7077255249023 26.88397598266602 L 110.2077255249023 26.88397598266602 L 100.5625991821289 26.88397598266602 L 99.06259918212891 26.88397598266602 L 99.06259918212891 25.38397598266602 L 99.06259918212891 -6.477374076843262 L 99.06259918212891 -7.977374076843262 L 100.5625991821289 -7.977374076843262 L 110.2077255249023 -7.977374076843262 L 111.7077255249023 -7.977374076843262 L 111.7077255249023 -6.477374076843262 L 111.7077255249023 25.38397598266602 L 111.7077255249023 26.88397598266602 Z M 72.54474639892578 26.77560043334961 L 71.46477508544922 26.77560043334961 L 61.76549911499023 26.77560043334961 L 60.66682434082031 26.77560043334961 L 60.33537292480469 25.72812652587891 L 56.02855682373047 12.11698150634766 L 51.76359939575195 25.7242259979248 L 51.43404769897461 26.77560043334961 L 50.33224868774414 26.77560043334961 L 40.68714904785156 26.77560043334961 L 39.60717391967773 26.77560043334961 L 39.26459884643555 25.75140190124512 L 28.64412498474121 -6.001574039459229 L 27.98329925537109 -7.977374076843262 L 30.06667518615723 -7.977374076843262 L 40.2536735534668 -7.977374076843262 L 41.39590072631836 -7.977374076843262 L 41.69967269897461 -6.876273632049561 L 45.87495422363281 8.259173393249512 L 49.96802520751953 -6.869123935699463 L 50.26787567138672 -7.977374076843262 L 51.41597366333008 -7.977374076843262 L 61.27782440185547 -7.977374076843262 L 62.42457580566406 -7.977374076843262 L 62.72532272338867 -6.870748996734619 L 66.865966796875 8.365212440490723 L 71.04777526855469 -6.874299049377441 L 71.35044860839844 -7.977374076843262 L 72.49430084228516 -7.977374076843262 L 82.08522796630859 -7.977374076843262 L 84.16860198974609 -7.977374076843262 L 83.50777435302734 -6.001574039459229 L 72.88732147216797 25.75140190124512 L 72.54474639892578 26.77560043334961 Z M -38.60414886474609 26.77560043334961 L -40.10414886474609 26.77560043334961 L -49.96597671508789 26.77560043334961 L -51.46597671508789 26.77560043334961 L -51.46597671508789 25.27560043334961 L -51.46597671508789 -18.88594818115234 L -51.46597671508789 -20.38594818115234 L -49.96597671508789 -20.38594818115234 L -41.7297248840332 -20.38594818115234 L -41.02569961547852 -20.38594818115234 L -40.57585144042969 -19.84437370300293 L -21.176025390625 3.511669635772705 L -21.176025390625 -19.42782402038574 L -21.176025390625 -20.92782402038574 L -19.676025390625 -20.92782402038574 L -9.814200401306152 -20.92782402038574 L -8.314200401306152 -20.92782402038574 L -8.314200401306152 -19.42782402038574 L -8.314200401306152 24.73375129699707 L -8.314200401306152 26.23375129699707 L -9.814200401306152 26.23375129699707 L -18.05045127868652 26.23375129699707 L -18.75447463989258 26.23375129699707 L -19.20432472229004 25.69217681884766 L -38.60414886474609 2.336132526397705 L -38.60414886474609 25.27560043334961 L -38.60414886474609 26.77560043334961 Z M 105.3851776123047 -8.499473571777344 C 103.3334732055664 -8.499473571777344 101.4533767700195 -9.249649047851562 100.0912246704102 -10.6117992401123 C 98.72904968261719 -11.97394847869873 97.97887420654297 -13.85404872894287 97.97887420654297 -15.90572357177734 C 97.97887420654297 -17.95742416381836 98.72904968261719 -19.8375244140625 100.0912246704102 -21.19967460632324 C 101.4533767700195 -22.56182479858398 103.3334732055664 -23.31199836730957 105.3851776123047 -23.31199836730957 C 107.4368515014648 -23.31199836730957 109.3169479370117 -22.56182479858398 110.6791000366211 -21.19967460632324 C 112.0412750244141 -19.83749961853027 112.7914505004883 -17.95742416381836 112.7914505004883 -15.90572357177734 C 112.7914505004883 -13.85404872894287 112.0412750244141 -11.97394847869873 110.6791000366211 -10.6117992401123 C 109.3169479370117 -9.249649047851562 107.4368515014648 -8.499473571777344 105.3851776123047 -8.499473571777344 Z" stroke="none"/>
          <path d="M 130.3649139404297 26.03421211242676 C 138.4386138916016 26.03421211242676 145.2660522460938 22.02443504333496 145.2660522460938 15.52212905883789 C 145.2660522460938 10.04935073852539 141.9065246582031 6.960740089416504 132.5323638916016 5.551906585693359 C 127.1138000488281 4.684934616088867 125.0004959106445 3.926323413848877 125.0004959106445 2.354934453964233 C 125.0004959106445 0.9461011290550232 127.1138000488281 -0.08342662453651428 130.039794921875 -0.08342662453651428 C 132.8574676513672 -0.08342662453651428 135.0790863037109 1.108656764030457 135.4041595458984 3.059351205825806 L 144.7241668701172 3.059351205825806 C 144.3448638916016 -3.226204395294189 138.113525390625 -7.235982418060303 130.2023620605469 -7.235982418060303 C 122.128662109375 -7.235982418060303 115.6804962158203 -3.334593296051025 115.6804962158203 2.842628955841064 C 115.6804962158203 9.290740013122559 120.6655807495117 11.62073993682861 128.2516632080078 12.75865650177002 C 133.7243804931641 13.57143402099609 135.8918609619141 14.54679584503174 135.8918609619141 16.06398963928223 C 135.8918609619141 17.52701759338379 133.6160583496094 18.66490745544434 130.5274658203125 18.66490745544434 C 127.4930801391602 18.66490745544434 125.1088562011719 17.31026840209961 124.7837753295898 15.25121212005615 L 115.4637756347656 15.25121212005615 C 115.7888870239258 21.91607284545898 122.0744400024414 26.03421211242676 130.3649139404297 26.03421211242676 M 12.40205192565918 26.03421211242676 C 22.20971870422363 26.03421211242676 29.25391387939453 19.04421234130859 29.25391387939453 9.399128913879395 C 29.25391387939453 -0.2459821850061417 22.20971870422363 -7.235982418060303 12.40205192565918 -7.235982418060303 C 2.594385623931885 -7.235982418060303 -4.449780941009521 -0.2459821850061417 -4.449780941009521 9.399128913879395 C -4.449780941009521 19.04421234130859 2.594385623931885 26.03421211242676 12.40205192565918 26.03421211242676 M 12.40205192565918 1.000295639038086 C 16.95369148254395 1.000295639038086 19.93391418457031 4.522378921508789 19.93391418457031 9.399128913879395 C 19.93391418457031 14.27585124969482 16.95369148254395 17.79793357849121 12.40205192565918 17.79793357849121 C 7.850440979003906 17.79793357849121 4.870218753814697 14.27585124969482 4.870218753814697 9.399128913879395 C 4.870218753814697 4.522378921508789 7.850440979003906 1.000295639038086 12.40205192565918 1.000295639038086 M 110.2077178955078 25.38398933410645 L 110.2077178955078 -6.477371215820312 L 100.5626068115234 -6.477371215820312 L 100.5626068115234 25.38398933410645 L 110.2077178955078 25.38398933410645 M 71.46477508544922 25.27560043334961 L 82.08522033691406 -6.477371215820312 L 72.49430084228516 -6.477371215820312 L 66.85897064208984 14.05910110473633 L 61.27780151367188 -6.477371215820312 L 51.41596984863281 -6.477371215820312 L 45.88899612426758 13.95073986053467 L 40.253662109375 -6.477371215820312 L 30.06669044494629 -6.477371215820312 L 40.6871337890625 25.27560043334961 L 50.33224487304688 25.27560043334961 L 56.02177429199219 7.123295783996582 L 61.76549530029297 25.27560043334961 L 71.46477508544922 25.27560043334961 M -40.10414123535156 25.27560043334961 L -40.10414123535156 -1.817371129989624 L -18.05044746398926 24.73373985290527 L -9.814197540283203 24.73373985290527 L -9.814197540283203 -19.42781639099121 L -19.6760311126709 -19.42781639099121 L -19.6760311126709 7.665156841278076 L -41.7297248840332 -18.88595390319824 L -49.96597671508789 -18.88595390319824 L -49.96597671508789 25.27560043334961 L -40.10414123535156 25.27560043334961 M 105.3851928710938 -9.999454498291016 C 108.7988891601562 -9.999454498291016 111.2914428710938 -12.49201011657715 111.2914428710938 -15.90573215484619 C 111.2914428710938 -19.31945419311523 108.7988891601562 -21.81200981140137 105.3851928710938 -21.81200981140137 C 101.9714660644531 -21.81200981140137 99.4788818359375 -19.31945419311523 99.4788818359375 -15.90573215484619 C 99.4788818359375 -12.49201011657715 101.9714660644531 -9.999454498291016 105.3851928710938 -9.999454498291016 M 130.3649139404297 29.03421211242676 C 125.6057205200195 29.03421211242676 121.3996658325195 27.84526824951172 118.2014694213867 25.59587860107422 C 116.4979400634766 24.39773941040039 115.1401062011719 22.93510055541992 114.1657485961914 21.24854469299316 C 113.7828521728516 20.58579444885254 113.4632263183594 19.89560508728027 113.2077178955078 19.18088722229004 L 113.2077178955078 25.38398933410645 C 113.2077178955078 27.04085159301758 111.8645782470703 28.38398933410645 110.2077178955078 28.38398933410645 L 100.5626068115234 28.38398933410645 C 98.90574645996094 28.38398933410645 97.56260681152344 27.04085159301758 97.56260681152344 25.38398933410645 L 97.56260681152344 -6.477371215820312 C 97.56260681152344 -7.708690643310547 98.30447387695312 -8.766770362854004 99.36557006835938 -9.229038238525391 C 97.57229614257812 -10.83548641204834 96.4788818359375 -13.19223976135254 96.4788818359375 -15.90573215484619 C 96.4788818359375 -20.9831485748291 100.3077774047852 -24.81200981140137 105.3851928710938 -24.81200981140137 C 110.4625778198242 -24.81200981140137 114.2914428710938 -20.9831485748291 114.2914428710938 -15.90573215484619 C 114.2914428710938 -13.19223976135254 113.1980285644531 -10.83548069000244 111.4047698974609 -9.229032516479492 C 112.4658660888672 -8.766764640808105 113.2077178955078 -7.708690643310547 113.2077178955078 -6.477371215820312 L 113.2077178955078 -0.5882791876792908 C 114.0167770385742 -3.121561527252197 115.7389831542969 -5.335494995117188 118.2496948242188 -7.00928783416748 C 121.3708572387695 -9.090065956115723 125.61572265625 -10.23598194122314 130.2023620605469 -10.23598194122314 C 132.4322509765625 -10.23598194122314 134.5713806152344 -9.955148696899414 136.5603637695312 -9.401288032531738 C 138.5906372070312 -8.835898399353027 140.4175567626953 -7.999565601348877 141.9902954101562 -6.915454387664795 C 145.4469757080078 -4.532760143280029 147.4813537597656 -1.054482221603394 147.7187194824219 2.878656625747681 C 147.7685241699219 3.704156637191772 147.4753570556641 4.513628959655762 146.908447265625 5.115795612335205 C 146.3415222167969 5.717934608459473 145.5511932373047 6.059350967407227 144.7241668701172 6.059350967407227 L 143.4658508300781 6.059350967407227 C 143.7590179443359 6.259376049041748 144.0384826660156 6.467365741729736 144.3048248291016 6.68349027633667 C 145.6702423095703 7.791490077972412 146.6961059570312 9.134739875793457 147.3538818359375 10.67599010467529 C 147.9676666259766 12.11421203613281 148.2660522460938 13.69937896728516 148.2660522460938 15.52212905883789 C 148.2660522460938 19.61168479919434 146.2218780517578 23.23007392883301 142.5100860595703 25.71076774597168 C 139.3033599853516 27.85393524169922 134.9901123046875 29.03421211242676 130.3649139404297 29.03421211242676 Z M 113.2077178955078 6.596246719360352 L 113.2077178955078 13.27377510070801 C 113.2349243164062 13.2427396774292 113.2628021240234 13.2122220993042 113.2913818359375 13.18221187591553 C 113.8576049804688 12.58768463134766 114.6427459716797 12.25121212005615 115.4637756347656 12.25121212005615 L 117.4031295776367 12.25121212005615 C 115.3130950927734 10.7928466796875 113.9103851318359 8.899314880371094 113.2077178955078 6.596246719360352 Z M 12.40205192565918 29.03421211242676 C 9.617191314697266 29.03421211242676 6.968246459960938 28.54540634155273 4.528774261474609 27.58135032653809 C 2.121079921722412 26.62987899780273 -0.01189225260168314 25.24560165405273 -1.810920000076294 23.46696281433105 C -4.25226879119873 21.05328941345215 -5.957296371459961 18.00776481628418 -6.814198017120361 14.60958671569824 L -6.814198017120361 24.73373985290527 C -6.814198017120361 26.39060020446777 -8.157336235046387 27.73373985290527 -9.814197540283203 27.73373985290527 L -18.05044746398926 27.73373985290527 C -18.94247627258301 27.73373985290527 -19.7882251739502 27.33676719665527 -20.35819816589355 26.65057373046875 L -37.10414123535156 6.489623546600342 L -37.10414123535156 25.27560043334961 C -37.10414123535156 26.93246269226074 -38.44728088378906 28.27560043334961 -40.10414123535156 28.27560043334961 L -49.96597671508789 28.27560043334961 C -51.62283706665039 28.27560043334961 -52.96597671508789 26.93246269226074 -52.96597671508789 25.27560043334961 L -52.96597671508789 -18.88595390319824 C -52.96597671508789 -20.54281616210938 -51.62283706665039 -21.88595390319824 -49.96597671508789 -21.88595390319824 L -41.7297248840332 -21.88595390319824 C -40.83769607543945 -21.88595390319824 -39.99194717407227 -21.48898124694824 -39.42197418212891 -20.80278778076172 L -22.6760311126709 -0.6418377161026001 L -22.6760311126709 -19.42781639099121 C -22.6760311126709 -21.08467674255371 -21.3328914642334 -22.42781639099121 -19.6760311126709 -22.42781639099121 L -9.814197540283203 -22.42781639099121 C -8.157336235046387 -22.42781639099121 -6.814198017120361 -21.08467674255371 -6.814198017120361 -19.42781639099121 L -6.814198017120361 4.188651084899902 C -5.957296371459961 0.7904645800590515 -4.25226879119873 -2.255059719085693 -1.810920000076294 -4.668732166290283 C -0.01189225260168314 -6.447371006011963 2.121079921722412 -7.831648826599121 4.528774261474609 -8.783121109008789 C 6.968246459960938 -9.747176170349121 9.617191314697266 -10.23598194122314 12.40205192565918 -10.23598194122314 C 15.18691349029541 -10.23598194122314 17.83585739135742 -9.747176170349121 20.27535820007324 -8.783121109008789 C 22.68302536010742 -7.831648826599121 24.81599617004395 -6.447371006011963 26.61505126953125 -4.668732166290283 C 27.12063407897949 -4.168882369995117 27.59482955932617 -3.641701221466064 28.0362548828125 -3.090158224105835 L 27.22160720825195 -5.525787830352783 C 26.91555213928223 -6.440815448760986 27.06830215454102 -7.447232246398926 27.632080078125 -8.230259895324707 C 28.19582939147949 -9.013287544250488 29.10182952880859 -9.477371215820312 30.06669044494629 -9.477371215820312 L 40.253662109375 -9.477371215820312 C 41.60327529907227 -9.477371215820312 42.78674697875977 -8.576176643371582 43.14563369750977 -7.275148868560791 L 45.86089324951172 2.567679882049561 L 48.52008056640625 -7.260870933532715 C 48.87399673461914 -8.568954467773438 50.06085586547852 -9.477371215820312 51.41596984863281 -9.477371215820312 L 61.27780151367188 -9.477371215820312 C 62.63166427612305 -9.477371215820312 63.81774520874023 -8.570592880249023 64.17280578613281 -7.264148712158203 L 66.87294769287109 2.671319484710693 L 69.60124969482422 -7.271232128143311 C 69.95877075195312 -8.574204444885254 71.1431884765625 -9.477371215820312 72.49430084228516 -9.477371215820312 L 82.08522033691406 -9.477371215820312 C 83.05007934570312 -9.477371215820312 83.95607757568359 -9.013287544250488 84.51982879638672 -8.230259895324707 C 85.08361053466797 -7.447232246398926 85.23635864257812 -6.440815448760986 84.93030548095703 -5.525787830352783 L 74.30986022949219 26.2271842956543 C 73.90060424804688 27.45074081420898 72.75494384765625 28.27560043334961 71.46477508544922 28.27560043334961 L 61.76549530029297 28.27560043334961 C 60.45730209350586 28.27560043334961 59.29991149902344 27.42787933349609 58.9052734375 26.18062973022461 L 56.03533554077148 17.11054992675781 L 53.19491195678711 26.1728515625 C 52.8027458190918 27.42404556274414 51.64347076416016 28.27560043334961 50.33224487304688 28.27560043334961 L 40.6871337890625 28.27560043334961 C 39.39696884155273 28.27560043334961 38.25130081176758 27.45074081420898 37.8420524597168 26.2271842956543 L 32.25359344482422 9.518826484680176 C 32.2247314453125 14.94878959655762 30.22491836547852 19.89801788330078 26.61505126953125 23.46696281433105 C 24.81599617004395 25.24560165405273 22.68302536010742 26.62987899780273 20.27535820007324 27.58135032653809 C 17.83585739135742 28.54540634155273 15.18691349029541 29.03421211242676 12.40205192565918 29.03421211242676 Z M 12.40205192565918 4.000295639038086 C 9.060746192932129 4.000295639038086 7.870218753814697 6.789156913757324 7.870218753814697 9.399128913879395 C 7.870218753814697 12.00907325744629 9.060746192932129 14.79793453216553 12.40205192565918 14.79793453216553 C 15.74338531494141 14.79793453216553 16.93391418457031 12.00907325744629 16.93391418457031 9.399128913879395 C 16.93391418457031 6.789156913757324 15.74338531494141 4.000295639038086 12.40205192565918 4.000295639038086 Z" stroke="none" fill="#000"/>
        </g>
      </g>
      <path id="패스_52180" data-name="패스 52180" d="M20.874,43.346C19.269,35.411,15.186,29.14,10,26.648c5.2-2.469,9.309-8.72,10.951-16.648,1.605,7.935,5.688,14.206,10.874,16.7-5.2,2.469-9.309,8.72-10.951,16.648" transform="translate(55.044 116.341)"/>
      <path id="패스_52181" data-name="패스 52181" d="M20.874,43.346C19.269,35.411,15.186,29.14,10,26.648c5.2-2.469,9.309-8.72,10.951-16.648,1.605,7.935,5.688,14.206,10.874,16.7-5.2,2.469-9.309,8.72-10.951,16.648" transform="translate(318.548 116.341)"/>
      <path id="패스_52182" data-name="패스 52182" d="M16.708,30.57c-.99-4.9-3.509-8.763-6.708-10.3,3.206-1.523,5.743-5.379,6.756-10.27.99,4.9,3.509,8.763,6.708,10.3-3.206,1.523-5.743,5.379-6.755,10.27" transform="translate(351.988 122.727)"/>
      <path id="패스_52183" data-name="패스 52183" d="M16.708,30.57c-.99-4.9-3.509-8.763-6.708-10.3,3.206-1.523,5.743-5.379,6.756-10.27.99,4.9,3.509,8.763,6.708,10.3-3.206,1.523-5.743,5.379-6.755,10.27" transform="translate(29.971 122.727)"/>
      <path id="패스_52248" data-name="패스 52248" d="M22.332.692.676,23.888a2.5,2.5,0,0,0,1.824,4.2H8.473L.346,50.4a2.136,2.136,0,0,0,3.568,2.189L25.569,29.4a2.5,2.5,0,0,0-1.824-4.2H17.772L25.9,2.881A2.136,2.136,0,0,0,22.332.692Z" transform="matrix(0.966, 0.259, -0.259, 0.966, 307.032, 0)" fill="#fce652" stroke="#000" stroke-linecap="round" stroke-linejoin="round" stroke-width="3"/>
      <path id="패스_52249" data-name="패스 52249" d="M3.914.692,25.569,23.883a2.5,2.5,0,0,1-1.824,4.2H17.772L25.9,50.394a2.136,2.136,0,0,1-3.568,2.189L.676,29.392a2.5,2.5,0,0,1,1.824-4.2H8.473L.345,2.881A2.136,2.136,0,0,1,3.914.692Z" transform="matrix(0.966, -0.259, 0.259, 0.966, 83.309, 6.803)" fill="#fce652" stroke="#000" stroke-linecap="round" stroke-linejoin="round" stroke-width="3"/>
      <g id="그룹_116355" data-name="그룹 116355" transform="translate(147.049 9.86)">
        <path id="패스_52195" data-name="패스 52195" d="M9.527,22.683a22.7,22.7,0,0,0-.451,31.622L41.147,22.234A22.7,22.7,0,0,0,9.527,22.683Z" transform="translate(-2.885 -16.043)" fill="#7281f4" stroke="#000" stroke-linejoin="round" stroke-miterlimit="10" stroke-width="3"/>
        <path id="패스_52237" data-name="패스 52237" d="M6.642,6.64a22.7,22.7,0,0,0-.451,31.622L38.262,6.191A22.7,22.7,0,0,0,6.642,6.64Z" transform="translate(121.595 0.001) rotate(90)" fill="#7281f4" stroke="#000" stroke-linejoin="round" stroke-miterlimit="10" stroke-width="3"/>
      </g>
    </g>
  </g>
</svg>
