<?xml version="1.0" encoding="utf-8"?>
<!-- Generator: Adobe Illustrator 26.0.3, SVG Export Plug-In . SVG Version: 6.00 Build 0)  -->
<svg version="1.1" xmlns="http://www.w3.org/2000/svg" xmlns:xlink="http://www.w3.org/1999/xlink" x="0px" y="0px"
	 viewBox="0 0 287 90.6" style="enable-background:new 0 0 287 90.6;" xml:space="preserve">
<style type="text/css">
	.st0{fill:#FFFFFF;stroke:#000000;stroke-width:1.2;stroke-linecap:round;stroke-linejoin:round;}
	.st1{fill:#D0FF33;}
	.st2{fill:none;stroke:#000000;stroke-width:1.2;stroke-linecap:round;stroke-linejoin:round;}
	.st3{fill:#D0FF33;stroke:#000000;stroke-width:1.2;stroke-linecap:round;stroke-linejoin:round;}
	.st4{fill:#74DAFF;stroke:#000000;stroke-width:1.2;}
	.st5{fill:#B7FFFC;stroke:#000000;stroke-width:1.2;stroke-linecap:round;stroke-linejoin:round;}
	.st6{fill:#74FFEA;stroke:#000000;stroke-width:1.2003;stroke-miterlimit:4.001;}
	.st7{enable-background:new    ;}
	.st8{fill:#FFFFFF;}
	.st9{fill:none;stroke:#000000;}
</style>
<g id="Layer_6">
	
		<image style="overflow:visible;" width="160" height="100" xlink:href="../../../../../../../img/111.png"  transform="matrix(0.5 0 0 0.5 121.3273 3.9341)">
	</image>
</g>
<g id="Layer_2">
</g>
<g id="Layer_3">
	<g id="Group_110050_00000139286389984352476250000004816001231183495841_" transform="translate(235.179 64.226) rotate(7)">
		<g id="Group_110051_00000082328101340643225530000007063547000276474497_" transform="translate(1.688 4.444)">
			<path id="Path_37223_00000075130488263432110080000007965098162723014577_" class="st0" d="M-36.6-13.1c0.8,0.8,3.1,6.1,3.1,6.1
				s-5.2-2.3-6.1-3.1c-0.8-0.8-0.8-2.2,0.1-3C-38.6-13.9-37.4-13.9-36.6-13.1z"/>
			<path id="Path_37225_00000003085177826164189560000005052000465840295826_" class="st0" d="M-30.4-13.1c-0.8,0.8-3.1,6.1-3.1,6.1
				s5.2-2.3,6.1-3.1c0.8-0.8,0.9-2.1,0.1-3C-28.2-13.9-29.5-14-30.4-13.1C-30.3-13.1-30.4-13.1-30.4-13.1z"/>
			
				<rect id="Rectangle_19864_00000147932218597648617150000013098359158892960397_" x="-36.5" y="-18.7" transform="matrix(2.214382e-06 1 -1 2.214382e-06 -38.133 28.8243)" class="st1" width="6.1" height="28.1"/>
			
				<rect id="Rectangle_19865_00000108277098532119371140000017681386107286394019_" x="-36.5" y="-18.7" transform="matrix(2.214382e-06 1 -1 2.214382e-06 -38.133 28.8243)" class="st2" width="6.1" height="28.1"/>
			
				<rect id="Rectangle_19867_00000117670215841351845450000018159920689570698634_" x="-42.7" y="-5.2" transform="matrix(2.214382e-06 1 -1 2.214382e-06 -25.845 41.1133)" class="st3" width="18.4" height="25.6"/>
			
				<rect id="Rectangle_19869_00000010284252888698331790000005862814225124874154_" x="-45.8" y="2.9" transform="matrix(2.214382e-06 1 -1 2.214382e-06 -28.9155 38.0418)" class="st0" width="24.6" height="3.4"/>
		</g>
	</g>
</g>
<g id="Layer_4">
	<g id="Group_110053_00000056393983654026269390000009747648341088679592_" transform="translate(270.992 79.306) rotate(21)">
		<g id="Group_109995_00000064340633884431326370000017185444919440298682_" transform="translate(0 0)">
			<path id="Path_37138_00000098916128471873842880000015749847113200482211_" class="st4" d="M-43.7-1.1l0.2,0.8
				c0.3,1.2,1.2,2.1,2.4,2.4l0.8,0.2c0.5,0.1,0.8,0.6,0.7,1c-0.1,0.3-0.3,0.6-0.7,0.7l-0.8,0.2c-1.2,0.3-2.1,1.2-2.4,2.4l-0.2,0.8
				c-0.1,0.5-0.6,0.8-1,0.7c-0.3-0.1-0.6-0.3-0.7-0.7l-0.2-0.8c-0.3-1.2-1.2-2.1-2.4-2.4L-48.7,4c-0.5-0.1-0.8-0.6-0.7-1
				c0.1-0.3,0.3-0.6,0.7-0.7l0.8-0.2c1.2-0.3,2.1-1.2,2.4-2.4l0.2-0.8c0.1-0.5,0.6-0.8,1-0.7C-44-1.7-43.7-1.5-43.7-1.1"/>
		</g>
	</g>
	<g id="Group_110054_00000123419451981846945490000007483743875865743496_" transform="translate(277.61 92.92) rotate(21)">
		<g id="Group_109999_00000082328677393773299910000007084910676529912493_" transform="translate(0 0)">
			
				<ellipse id="Ellipse_628_00000142152783873868388120000013794841240121820338_" transform="matrix(-0.9336 0.3584 -0.3584 -0.9336 -92.0534 17.0915)" class="st5" cx="-47.6" cy="0" rx="1.8" ry="1.8"/>
		</g>
	</g>
	
		<g id="Group_112021_00000155825647975214709700000017399953193796288938_" transform="matrix(0.985, -0.174, 0.174, 0.985, 159.982, 21.8)">
		<g id="Group_109995-2_00000168076729881734754720000012958982071379503295_" transform="translate(0 0)">
			<path id="Path_37138-2_00000164514446333738166630000011412831296013152929_" class="st6" d="M-35.7-26.3l0.2,0.8
				c0.3,1.2,1.2,2.1,2.4,2.4l0.8,0.2c0.5,0.1,0.8,0.6,0.7,1c-0.1,0.3-0.3,0.6-0.7,0.7l-0.8,0.2c-1.2,0.3-2.1,1.2-2.4,2.4l-0.2,0.8
				c-0.1,0.5-0.6,0.8-1,0.7c-0.3-0.1-0.6-0.3-0.7-0.7l-0.2-0.8c-0.3-1.2-1.2-2.1-2.4-2.4l-0.8-0.2c-0.5-0.1-0.8-0.6-0.7-1
				c0.1-0.3,0.3-0.6,0.7-0.7l0.8-0.2c1.2-0.3,2.1-1.2,2.4-2.4l0.2-0.8c0.1-0.5,0.6-0.8,1-0.7C-36-26.9-35.7-26.7-35.7-26.3"/>
		</g>
	</g>
</g>
<g id="Layer_5">
	<g>
		<g transform="matrix(1, 0, 0, 1, 0, 0)">
			<g class="st7">
				<path d="M16.1,28.7l7.4,10.4L19.4,42l-5.1-7.5C12.2,39.4,9,42,5.1,42.1v-5.2c4.1-0.5,6.8-8,6.9-18.7l5.2,0.2
					C17.1,22.2,16.8,25.7,16.1,28.7z M32.1,31.9h-3v11.3h-5.1V17.7h5.1V27h3V31.9z"/>
				<path d="M44.1,23.3v-1.5H33.7V18h15.4v8.9H38.8v1.5h6.3c2.3,0,4.6-0.3,5.9-0.8v3.8c-1.3,0.6-3.7,0.9-6.1,0.9H33.8v-8.9H44.1z
					 M34.6,33.5h22.6v9.8H34.6V33.5z M39.7,39.3h12.5v-1.9H39.7V39.3z M60.3,27.2h-3v5.4h-5.1V17.7h5.1v4.6h3V27.2z"/>
				<path d="M87.2,31.3H61.3v-3.7h25.9V31.3z M85.7,39.1H67.8v0.9H86v3.2H62.8v-6.8h17.9v-0.9h-18v-3.2h22.9V39.1z M85.7,21.3H67.9
					v1.6H86v3.6H62.9v-8.9h22.8V21.3z"/>
				<path d="M106.3,30.2c0,8.4-3.2,12.2-8,12.2s-8.1-3.8-8.1-12.2S93.4,18,98.2,18S106.3,21.7,106.3,30.2z M95.2,30.2
					c0,5.8,1.4,7.6,3.1,7.6c1.7,0,3-1.8,3-7.6c0-5.7-1.3-7.6-3-7.6C96.5,22.6,95.2,24.4,95.2,30.2z M114.2,43.3h-5.1V17.7h5.1V43.3z
					"/>
				<path d="M202,32.3v-4.3c3-0.2,5-2.2,5.8-4.4h-5.5v-4.1h5.6v-2.3h5.2v2.3h5.6v4.1h-5.8c-0.1,0.4-0.2,0.8-0.4,1.3l6.8,3.5
					l-2.2,3.8l-6.9-3.6C208.3,30.7,205.4,32.2,202,32.3z M217.2,37.8l9.3,1.7l-1.1,4L214.1,41c-2.9,1.7-7.1,2.3-11.2,2.3v-4.1
					c3.8,0,7.2-0.7,8.8-2h-8.6v-3.8h22.6v3.8h-8.2C217.4,37.4,217.3,37.6,217.2,37.8z M228.7,22.3v4.9h-3v5.2h-5.1V17.7h5.1v4.6
					H228.7z"/>
				<path d="M246.1,30.2c0,8.4-3.2,12.2-7.9,12.2s-8-3.8-8-12.2s3.2-12.2,8-12.2S246.1,21.7,246.1,30.2z M241.1,30.2
					c0-5.7-1.3-7.6-2.9-7.6c-1.7,0-2.9,1.8-2.9,7.6c0,5.8,1.3,7.6,2.9,7.6C239.9,37.7,241.1,35.9,241.1,30.2z M256.8,31.9h-3v11.3
					h-5.1V17.7h5.1V27h3V31.9z"/>
				<path d="M283.8,31v4.1h-25.9V31h10.4v-1.9h-8.8V17.7h5v2h12.9v-2h5v11.5h-8.8V31H283.8z M264.5,39.1h18.1v4.2h-23.2v-7.1h5.2
					V39.1z M264.4,25.3h12.9v-2h-12.9V25.3z"/>
			</g>
			<g class="st7">
				<path d="M16.1,28.7l7.4,10.4L19.4,42l-5.1-7.5C12.2,39.4,9,42,5.1,42.1v-5.2c4.1-0.5,6.8-8,6.9-18.7l5.2,0.2
					C17.1,22.2,16.8,25.7,16.1,28.7z M32.1,31.9h-3v11.3h-5.1V17.7h5.1V27h3V31.9z"/>
				<path d="M44.1,23.3v-1.5H33.7V18h15.4v8.9H38.8v1.5h6.3c2.3,0,4.6-0.3,5.9-0.8v3.8c-1.3,0.6-3.7,0.9-6.1,0.9H33.8v-8.9H44.1z
					 M34.6,33.5h22.6v9.8H34.6V33.5z M39.7,39.3h12.5v-1.9H39.7V39.3z M60.3,27.2h-3v5.4h-5.1V17.7h5.1v4.6h3V27.2z"/>
				<path d="M87.2,31.3H61.3v-3.7h25.9V31.3z M85.7,39.1H67.8v0.9H86v3.2H62.8v-6.8h17.9v-0.9h-18v-3.2h22.9V39.1z M85.7,21.3H67.9
					v1.6H86v3.6H62.9v-8.9h22.8V21.3z"/>
				<path d="M106.3,30.2c0,8.4-3.2,12.2-8,12.2s-8.1-3.8-8.1-12.2S93.4,18,98.2,18S106.3,21.7,106.3,30.2z M95.2,30.2
					c0,5.8,1.4,7.6,3.1,7.6c1.7,0,3-1.8,3-7.6c0-5.7-1.3-7.6-3-7.6C96.5,22.6,95.2,24.4,95.2,30.2z M114.2,43.3h-5.1V17.7h5.1V43.3z
					"/>
				<path d="M202,32.3v-4.3c3-0.2,5-2.2,5.8-4.4h-5.5v-4.1h5.6v-2.3h5.2v2.3h5.6v4.1h-5.8c-0.1,0.4-0.2,0.8-0.4,1.3l6.8,3.5
					l-2.2,3.8l-6.9-3.6C208.3,30.7,205.4,32.2,202,32.3z M217.2,37.8l9.3,1.7l-1.1,4L214.1,41c-2.9,1.7-7.1,2.3-11.2,2.3v-4.1
					c3.8,0,7.2-0.7,8.8-2h-8.6v-3.8h22.6v3.8h-8.2C217.4,37.4,217.3,37.6,217.2,37.8z M228.7,22.3v4.9h-3v5.2h-5.1V17.7h5.1v4.6
					H228.7z"/>
				<path d="M246.1,30.2c0,8.4-3.2,12.2-7.9,12.2s-8-3.8-8-12.2s3.2-12.2,8-12.2S246.1,21.7,246.1,30.2z M241.1,30.2
					c0-5.7-1.3-7.6-2.9-7.6c-1.7,0-2.9,1.8-2.9,7.6c0,5.8,1.3,7.6,2.9,7.6C239.9,37.7,241.1,35.9,241.1,30.2z M256.8,31.9h-3v11.3
					h-5.1V17.7h5.1V27h3V31.9z"/>
				<path d="M283.8,31v4.1h-25.9V31h10.4v-1.9h-8.8V17.7h5v2h12.9v-2h5v11.5h-8.8V31H283.8z M264.5,39.1h18.1v4.2h-23.2v-7.1h5.2
					V39.1z M264.4,25.3h12.9v-2h-12.9V25.3z"/>
			</g>
			<g class="st7">
				<path d="M87,64.4c0,4.6-3.4,7.7-8.4,7.7s-8.4-3-8.4-7.7c0-4.6,3.4-7.7,8.4-7.7S87,59.7,87,64.4z M77.5,77.7h17.8v4.6h-23v-9h5.2
					V77.7z M75.1,64.4c0,2.2,1.4,3.4,3.4,3.4c2,0,3.4-1.2,3.4-3.4c0-2.2-1.4-3.5-3.4-3.5C76.6,60.9,75.1,62.1,75.1,64.4z M95,75.6
					h-5.1v-19H95V75.6z"/>
				<path d="M114.1,64.2c0,10.4-5.8,16.9-14.8,16.9v-4.8c6.2-0.1,9.6-4.7,9.6-12.1v-2.3h-9.6v-4.6h14.8V64.2z M123.1,82.3H118V56.7
					h5.1V82.3z"/>
				<path d="M126.4,72.4v-4.7c4-0.5,6.7-5.2,6.8-10.9l5.1,0.3c0,2.1-0.3,4.1-1,6l7.2,5.7l-3.1,3.5l-6.1-5
					C133.1,70.1,130,72.2,126.4,72.4z M151.7,77.7v4.5h-23.3v-9h5.2v4.4H151.7z M146.2,64.6h-4.6V60h4.6v-3.3h5.1v19h-5.1V64.6z"/>
				<path d="M170,70.3v1.1h8.9v6.7H161v0.9h18.2v3.2h-23.2v-6.8H174v-0.9h-18v-3.2h9v-1.1h-10.4v-3.7h25.9v3.7H170z M178.9,65.7
					h-22.8v-9h22.8V65.7z M173.9,60.3h-12.8V62h12.8V60.3z"/>
			</g>
			<g class="st7">
				<path d="M87,64.4c0,4.6-3.4,7.7-8.4,7.7s-8.4-3-8.4-7.7c0-4.6,3.4-7.7,8.4-7.7S87,59.7,87,64.4z M77.5,77.7h17.8v4.6h-23v-9h5.2
					V77.7z M75.1,64.4c0,2.2,1.4,3.4,3.4,3.4c2,0,3.4-1.2,3.4-3.4c0-2.2-1.4-3.5-3.4-3.5C76.6,60.9,75.1,62.1,75.1,64.4z M95,75.6
					h-5.1v-19H95V75.6z"/>
				<path d="M114.1,64.2c0,10.4-5.8,16.9-14.8,16.9v-4.8c6.2-0.1,9.6-4.7,9.6-12.1v-2.3h-9.6v-4.6h14.8V64.2z M123.1,82.3H118V56.7
					h5.1V82.3z"/>
				<path d="M126.4,72.4v-4.7c4-0.5,6.7-5.2,6.8-10.9l5.1,0.3c0,2.1-0.3,4.1-1,6l7.2,5.7l-3.1,3.5l-6.1-5
					C133.1,70.1,130,72.2,126.4,72.4z M151.7,77.7v4.5h-23.3v-9h5.2v4.4H151.7z M146.2,64.6h-4.6V60h4.6v-3.3h5.1v19h-5.1V64.6z"/>
				<path d="M170,70.3v1.1h8.9v6.7H161v0.9h18.2v3.2h-23.2v-6.8H174v-0.9h-18v-3.2h9v-1.1h-10.4v-3.7h25.9v3.7H170z M178.9,65.7
					h-22.8v-9h22.8V65.7z M173.9,60.3h-12.8V62h12.8V60.3z"/>
			</g>
		</g>
		<g transform="matrix(1, 0, 0, 1, 0, 0)">
			<g class="st7">
				<path class="st8" d="M14.1,25.9l7.4,10.4l-4.1,2.9l-5.1-7.5c-2.1,4.8-5.3,7.5-9.2,7.5V34c4.1-0.5,6.8-8,6.9-18.7l5.2,0.2
					C15.1,19.4,14.8,22.9,14.1,25.9z M30.2,29.1h-3v11.3h-5.1V14.8h5.1v9.4h3V29.1z"/>
				<path class="st8" d="M42.1,20.4V19H31.7v-3.8h15.4V24H36.8v1.5h6.3c2.3,0,4.6-0.3,5.9-0.8v3.8c-1.3,0.6-3.7,0.9-6.1,0.9H31.8
					v-8.9H42.1z M32.7,30.7h22.6v9.8H32.7V30.7z M37.7,36.5h12.5v-1.9H37.7V36.5z M58.3,24.4h-3v5.4h-5.1V14.8h5.1v4.6h3V24.4z"/>
				<path class="st8" d="M85.2,28.5H59.3v-3.7h25.9V28.5z M83.7,36.3H65.8v0.9H84v3.2H60.9v-6.8h17.9v-0.9h-18v-3.2h22.9V36.3z
					 M83.7,18.4H65.9v1.6H84v3.6H60.9v-8.9h22.8V18.4z"/>
				<path class="st8" d="M104.3,27.3c0,8.4-3.2,12.2-8,12.2s-8.1-3.8-8.1-12.2s3.2-12.2,8.1-12.2S104.3,18.9,104.3,27.3z M93.2,27.3
					c0,5.8,1.4,7.6,3.1,7.6c1.7,0,3-1.8,3-7.6c0-5.7-1.3-7.6-3-7.6C94.5,19.8,93.2,21.6,93.2,27.3z M112.2,40.4h-5.1V14.8h5.1V40.4z
					"/>
				<path class="st8" d="M200,29.5v-4.3c3-0.2,5-2.2,5.8-4.4h-5.5v-4.1h5.6v-2.3h5.2v2.3h5.6v4.1H211c-0.1,0.4-0.2,0.8-0.4,1.3
					l6.8,3.5l-2.2,3.8l-6.9-3.6C206.3,27.8,203.4,29.4,200,29.5z M215.2,35l9.3,1.7l-1.1,4l-11.4-2.6c-2.9,1.7-7.1,2.3-11.2,2.3
					v-4.1c3.8,0,7.2-0.7,8.8-2h-8.6v-3.8h22.6v3.8h-8.2C215.4,34.6,215.4,34.8,215.2,35z M226.8,19.5v4.9h-3v5.2h-5.1V14.8h5.1v4.6
					H226.8z"/>
				<path class="st8" d="M244.2,27.3c0,8.4-3.2,12.2-7.9,12.2s-8-3.8-8-12.2s3.2-12.2,8-12.2S244.2,18.9,244.2,27.3z M239.1,27.3
					c0-5.7-1.3-7.6-2.9-7.6c-1.7,0-2.9,1.8-2.9,7.6c0,5.8,1.3,7.6,2.9,7.6C237.9,34.9,239.1,33.1,239.1,27.3z M254.9,29.1h-3v11.3
					h-5.1V14.8h5.1v9.4h3V29.1z"/>
				<path class="st8" d="M281.8,28.1v4.1h-25.9v-4.1h10.4v-1.9h-8.8V14.8h5v2h12.9v-2h5v11.5h-8.8v1.9H281.8z M262.6,36.3h18.1v4.2
					h-23.2v-7.1h5.2V36.3z M262.4,22.5h12.9v-2h-12.9V22.5z"/>
			</g>
			<g class="st7">
				<path class="st9" d="M14.1,25.9l7.4,10.4l-4.1,2.9l-5.1-7.5c-2.1,4.8-5.3,7.5-9.2,7.5V34c4.1-0.5,6.8-8,6.9-18.7l5.2,0.2
					C15.1,19.4,14.8,22.9,14.1,25.9z M30.2,29.1h-3v11.3h-5.1V14.8h5.1v9.4h3V29.1z"/>
				<path class="st9" d="M42.1,20.4V19H31.7v-3.8h15.4V24H36.8v1.5h6.3c2.3,0,4.6-0.3,5.9-0.8v3.8c-1.3,0.6-3.7,0.9-6.1,0.9H31.8
					v-8.9H42.1z M32.7,30.7h22.6v9.8H32.7V30.7z M37.7,36.5h12.5v-1.9H37.7V36.5z M58.3,24.4h-3v5.4h-5.1V14.8h5.1v4.6h3V24.4z"/>
				<path class="st9" d="M85.2,28.5H59.3v-3.7h25.9V28.5z M83.7,36.3H65.8v0.9H84v3.2H60.9v-6.8h17.9v-0.9h-18v-3.2h22.9V36.3z
					 M83.7,18.4H65.9v1.6H84v3.6H60.9v-8.9h22.8V18.4z"/>
				<path class="st9" d="M104.3,27.3c0,8.4-3.2,12.2-8,12.2s-8.1-3.8-8.1-12.2s3.2-12.2,8.1-12.2S104.3,18.9,104.3,27.3z M93.2,27.3
					c0,5.8,1.4,7.6,3.1,7.6c1.7,0,3-1.8,3-7.6c0-5.7-1.3-7.6-3-7.6C94.5,19.8,93.2,21.6,93.2,27.3z M112.2,40.4h-5.1V14.8h5.1V40.4z
					"/>
				<path class="st9" d="M200,29.5v-4.3c3-0.2,5-2.2,5.8-4.4h-5.5v-4.1h5.6v-2.3h5.2v2.3h5.6v4.1H211c-0.1,0.4-0.2,0.8-0.4,1.3
					l6.8,3.5l-2.2,3.8l-6.9-3.6C206.3,27.8,203.4,29.4,200,29.5z M215.2,35l9.3,1.7l-1.1,4l-11.4-2.6c-2.9,1.7-7.1,2.3-11.2,2.3
					v-4.1c3.8,0,7.2-0.7,8.8-2h-8.6v-3.8h22.6v3.8h-8.2C215.4,34.6,215.4,34.8,215.2,35z M226.8,19.5v4.9h-3v5.2h-5.1V14.8h5.1v4.6
					H226.8z"/>
				<path class="st9" d="M244.2,27.3c0,8.4-3.2,12.2-7.9,12.2s-8-3.8-8-12.2s3.2-12.2,8-12.2S244.2,18.9,244.2,27.3z M239.1,27.3
					c0-5.7-1.3-7.6-2.9-7.6c-1.7,0-2.9,1.8-2.9,7.6c0,5.8,1.3,7.6,2.9,7.6C237.9,34.9,239.1,33.1,239.1,27.3z M254.9,29.1h-3v11.3
					h-5.1V14.8h5.1v9.4h3V29.1z"/>
				<path class="st9" d="M281.8,28.1v4.1h-25.9v-4.1h10.4v-1.9h-8.8V14.8h5v2h12.9v-2h5v11.5h-8.8v1.9H281.8z M262.6,36.3h18.1v4.2
					h-23.2v-7.1h5.2V36.3z M262.4,22.5h12.9v-2h-12.9V22.5z"/>
			</g>
			<g class="st7">
				<path class="st8" d="M85,61.5c0,4.6-3.4,7.7-8.4,7.7s-8.4-3-8.4-7.7c0-4.6,3.4-7.7,8.4-7.7S85,56.9,85,61.5z M75.5,74.9h17.8
					v4.6h-23v-9h5.2V74.9z M73.2,61.5c0,2.2,1.4,3.4,3.4,3.4c2,0,3.4-1.2,3.4-3.4c0-2.2-1.4-3.5-3.4-3.5
					C74.6,58.1,73.2,59.3,73.2,61.5z M93,72.8h-5.1v-19H93V72.8z"/>
				<path class="st8" d="M112.1,61.3c0,10.4-5.8,16.9-14.8,16.9v-4.8c6.2-0.1,9.6-4.7,9.6-12.1V59h-9.6v-4.6h14.8V61.3z M121.1,79.4
					H116V53.8h5.1V79.4z"/>
				<path class="st8" d="M124.4,69.6v-4.7c4-0.5,6.7-5.2,6.8-10.9l5.1,0.3c0,2.1-0.3,4.1-1,6l7.2,5.7l-3.1,3.5l-6.1-5
					C131.1,67.3,128,69.4,124.4,69.6z M149.7,74.9v4.5h-23.3v-9h5.2v4.4H149.7z M144.3,61.8h-4.6v-4.6h4.6v-3.3h5.1v19h-5.1V61.8z"
					/>
				<path class="st8" d="M168,67.5v1.1h8.9v6.7H159v0.9h18.2v3.2h-23.2v-6.8H172v-0.9h-18v-3.2h9v-1.1h-10.4v-3.7h25.9v3.7H168z
					 M176.9,62.8h-22.8v-9h22.8V62.8z M171.9,57.4h-12.8v1.7h12.8V57.4z"/>
			</g>
			<g class="st7">
				<path class="st9" d="M85,61.5c0,4.6-3.4,7.7-8.4,7.7s-8.4-3-8.4-7.7c0-4.6,3.4-7.7,8.4-7.7S85,56.9,85,61.5z M75.5,74.9h17.8
					v4.6h-23v-9h5.2V74.9z M73.2,61.5c0,2.2,1.4,3.4,3.4,3.4c2,0,3.4-1.2,3.4-3.4c0-2.2-1.4-3.5-3.4-3.5
					C74.6,58.1,73.2,59.3,73.2,61.5z M93,72.8h-5.1v-19H93V72.8z"/>
				<path class="st9" d="M112.1,61.3c0,10.4-5.8,16.9-14.8,16.9v-4.8c6.2-0.1,9.6-4.7,9.6-12.1V59h-9.6v-4.6h14.8V61.3z M121.1,79.4
					H116V53.8h5.1V79.4z"/>
				<path class="st9" d="M124.4,69.6v-4.7c4-0.5,6.7-5.2,6.8-10.9l5.1,0.3c0,2.1-0.3,4.1-1,6l7.2,5.7l-3.1,3.5l-6.1-5
					C131.1,67.3,128,69.4,124.4,69.6z M149.7,74.9v4.5h-23.3v-9h5.2v4.4H149.7z M144.3,61.8h-4.6v-4.6h4.6v-3.3h5.1v19h-5.1V61.8z"
					/>
				<path class="st9" d="M168,67.5v1.1h8.9v6.7H159v0.9h18.2v3.2h-23.2v-6.8H172v-0.9h-18v-3.2h9v-1.1h-10.4v-3.7h25.9v3.7H168z
					 M176.9,62.8h-22.8v-9h22.8V62.8z M171.9,57.4h-12.8v1.7h12.8V57.4z"/>
			</g>
		</g>
	</g>
	<g>
		<g transform="matrix(1, 0, 0, 1, 0, 0)">
			<g class="st7">
				<path d="M149.3,28.6l-16.6-0.9l0.7-13.3l16.6,0.9L149.3,28.6z M138.3,37.5l5.3,0.3l-0.2,4.2l-10.5-0.6l0.6-11.7l5.2,0.3
					L138.3,37.5z M144.4,19.4l-6-0.3l-0.2,4.5l6,0.3L144.4,19.4z M153.9,31.1l4.6,0.2l-0.2,3.6l-14.6-0.8l0.2-3.6l4.7,0.2l0.1-1.5
					l5.3,0.3L153.9,31.1z M157.4,39.4c-0.1,2.6-2.9,3.7-6.7,3.5c-3.8-0.2-6.5-1.6-6.3-4.2s2.9-3.7,6.7-3.5
					C154.8,35.4,157.5,36.8,157.4,39.4z M152.9,39.2c0-0.4-0.8-0.8-2-0.8c-1.2-0.1-2.1,0.2-2.1,0.6s0.8,0.8,2,0.8
					C152.1,39.9,152.9,39.6,152.9,39.2z M161.3,20l-0.3,5.2l-3.2-0.2l-0.2,3.9l-5.4-0.3l0.7-13.5l5.4,0.3l-0.2,4.4L161.3,20z"/>
				<path d="M179.9,29.9c-0.5,9-4.1,12.8-9.2,12.6c-5.1-0.3-8.4-4.5-7.9-13.5s4.1-12.8,9.3-12.6C177.2,16.7,180.4,20.9,179.9,29.9z
					 M168.1,29.3c-0.3,6.1,1,8.1,2.8,8.2c1.8,0.1,3.3-1.7,3.6-7.9c0.3-6.1-1-8.1-2.8-8.2C170,21.3,168.4,23.2,168.1,29.3z
					 M187.6,44.3l-5.4-0.3l1.4-27.3l5.4,0.3L187.6,44.3z"/>
			</g>
			<g class="st7">
				<path d="M149.3,28.6l-16.6-0.9l0.7-13.3l16.6,0.9L149.3,28.6z M138.3,37.5l5.3,0.3l-0.2,4.2l-10.5-0.6l0.6-11.7l5.2,0.3
					L138.3,37.5z M144.4,19.4l-6-0.3l-0.2,4.5l6,0.3L144.4,19.4z M153.9,31.1l4.6,0.2l-0.2,3.6l-14.6-0.8l0.2-3.6l4.7,0.2l0.1-1.5
					l5.3,0.3L153.9,31.1z M157.4,39.4c-0.1,2.6-2.9,3.7-6.7,3.5c-3.8-0.2-6.5-1.6-6.3-4.2s2.9-3.7,6.7-3.5
					C154.8,35.4,157.5,36.8,157.4,39.4z M152.9,39.2c0-0.4-0.8-0.8-2-0.8c-1.2-0.1-2.1,0.2-2.1,0.6s0.8,0.8,2,0.8
					C152.1,39.9,152.9,39.6,152.9,39.2z M161.3,20l-0.3,5.2l-3.2-0.2l-0.2,3.9l-5.4-0.3l0.7-13.5l5.4,0.3l-0.2,4.4L161.3,20z"/>
				<path d="M179.9,29.9c-0.5,9-4.1,12.8-9.2,12.6c-5.1-0.3-8.4-4.5-7.9-13.5s4.1-12.8,9.3-12.6C177.2,16.7,180.4,20.9,179.9,29.9z
					 M168.1,29.3c-0.3,6.1,1,8.1,2.8,8.2c1.8,0.1,3.3-1.7,3.6-7.9c0.3-6.1-1-8.1-2.8-8.2C170,21.3,168.4,23.2,168.1,29.3z
					 M187.6,44.3l-5.4-0.3l1.4-27.3l5.4,0.3L187.6,44.3z"/>
			</g>
		</g>
		<g transform="matrix(1, 0, 0, 1, 0, 0)">
			<g class="st7">
				<path class="st8" d="M147.3,25.8l-16.6-0.9l0.7-13.3l16.6,0.9L147.3,25.8z M136.3,34.7l5.3,0.3l-0.2,4.2l-10.5-0.6l0.6-11.7
					l5.2,0.3L136.3,34.7z M142.4,16.6l-6-0.3l-0.2,4.5l6,0.3L142.4,16.6z M151.9,28.3l4.6,0.2l-0.2,3.6l-14.6-0.8l0.2-3.6l4.7,0.2
					l0.1-1.5l5.3,0.3L151.9,28.3z M155.4,36.6c-0.1,2.6-2.9,3.7-6.7,3.5c-3.8-0.2-6.5-1.6-6.3-4.2s2.9-3.7,6.7-3.5
					C152.9,32.6,155.5,34,155.4,36.6z M150.9,36.3c0-0.4-0.8-0.8-2-0.8c-1.2-0.1-2.1,0.2-2.1,0.6s0.8,0.8,2,0.8
					C150.1,37,150.9,36.8,150.9,36.3z M159.4,17.1l-0.3,5.2l-3.2-0.2l-0.2,3.9l-5.4-0.3l0.7-13.5l5.4,0.3l-0.2,4.4L159.4,17.1z"/>
				<path class="st8" d="M178,27.1c-0.5,9-4.1,12.8-9.2,12.6c-5.1-0.3-8.4-4.5-7.9-13.5s4.1-12.8,9.3-12.6
					C175.2,13.9,178.4,18.1,178,27.1z M166.1,26.5c-0.3,6.1,1,8.1,2.8,8.2c1.8,0.1,3.3-1.7,3.6-7.9c0.3-6.1-1-8.1-2.8-8.2
					C168,18.5,166.5,20.4,166.1,26.5z M185.7,41.5l-5.4-0.3l1.4-27.3l5.4,0.3L185.7,41.5z"/>
			</g>
			<g class="st7">
				<path class="st9" d="M147.3,25.8l-16.6-0.9l0.7-13.3l16.6,0.9L147.3,25.8z M136.3,34.7l5.3,0.3l-0.2,4.2l-10.5-0.6l0.6-11.7
					l5.2,0.3L136.3,34.7z M142.4,16.6l-6-0.3l-0.2,4.5l6,0.3L142.4,16.6z M151.9,28.3l4.6,0.2l-0.2,3.6l-14.6-0.8l0.2-3.6l4.7,0.2
					l0.1-1.5l5.3,0.3L151.9,28.3z M155.4,36.6c-0.1,2.6-2.9,3.7-6.7,3.5c-3.8-0.2-6.5-1.6-6.3-4.2s2.9-3.7,6.7-3.5
					C152.9,32.6,155.5,34,155.4,36.6z M150.9,36.3c0-0.4-0.8-0.8-2-0.8c-1.2-0.1-2.1,0.2-2.1,0.6s0.8,0.8,2,0.8
					C150.1,37,150.9,36.8,150.9,36.3z M159.4,17.1l-0.3,5.2l-3.2-0.2l-0.2,3.9l-5.4-0.3l0.7-13.5l5.4,0.3l-0.2,4.4L159.4,17.1z"/>
				<path class="st9" d="M178,27.1c-0.5,9-4.1,12.8-9.2,12.6c-5.1-0.3-8.4-4.5-7.9-13.5s4.1-12.8,9.3-12.6
					C175.2,13.9,178.4,18.1,178,27.1z M166.1,26.5c-0.3,6.1,1,8.1,2.8,8.2c1.8,0.1,3.3-1.7,3.6-7.9c0.3-6.1-1-8.1-2.8-8.2
					C168,18.5,166.5,20.4,166.1,26.5z M185.7,41.5l-5.4-0.3l1.4-27.3l5.4,0.3L185.7,41.5z"/>
			</g>
		</g>
	</g>
</g>
</svg>
