<svg id="Group_116411" data-name="Group 116411" xmlns="http://www.w3.org/2000/svg" xmlns:xlink="http://www.w3.org/1999/xlink" width="120" height="120" viewBox="0 0 120 120">
<style type="text/css">
#smile {animation:smile both linear infinite 2.7s;transform-origin:50% 50%;}
@keyframes smile {
0% {transform:scale(1) rotate(20deg);}
50% {transform:scale(0.9) rotate(-10deg);}
100% {transform:scale(1) rotate(20deg);}
}
</style>

<g id="smile">
  <defs>
    <clipPath id="clip-path">
      <rect id="Rectangle_22572" data-name="Rectangle 22572" width="120" height="120" fill="none"/>
    </clipPath>
  </defs>
  <g id="Group_116408" data-name="Group 116408" style="isolation: isolate">
    <g id="Group_116407" data-name="Group 116407">
      <g id="Group_116406" data-name="Group 116406" clip-path="url(#clip-path)">
        <path id="Path_52406" data-name="Path 52406" d="M117.246,77.915A59.984,59.984,0,1,1,77.915,2.754a59.984,59.984,0,0,1,39.332,75.161" transform="translate(0 0)" fill="#ffce00"/>
      </g>
    </g>
  </g>
  <path id="Path_52407" data-name="Path 52407" d="M69.63,86.735,65.1,101.217a15.31,15.31,0,1,1-29.223-9.146l4.532-14.482A30.934,30.934,0,0,0,53.817,86c.729.228,1.467.429,2.2.608l.01,0a31.062,31.062,0,0,0,13.6.122" transform="translate(-1.155 -2.548)" fill="#ff2600"/>
  <path id="Path_52408" data-name="Path 52408" d="M57.222,37.022c-1.905,6.089-5.425,10.408-7.861,9.646S46.5,40.351,48.4,34.262s5.426-10.409,7.861-9.646,2.866,6.317.96,12.406" transform="translate(-1.55 -0.805)"/>
  <path id="Path_52409" data-name="Path 52409" d="M88.513,46.814c-1.905,6.089-5.425,10.408-7.861,9.646s-2.866-6.317-.96-12.406,5.426-10.409,7.861-9.646,2.866,6.318.96,12.407" transform="translate(-2.578 -1.127)"/>
  <path id="Path_52410" data-name="Path 52410" d="M33.334,46.028c-.041.13-.081.258-.121.388l.009,0A31.04,31.04,0,0,0,53.71,84.965c.729.228,1.467.429,2.2.608l.009,0a31.05,31.05,0,0,0,28.062-7.352l0-.009a30.838,30.838,0,0,0,8.523-13.243l.009,0,.122-.388" transform="translate(-1.048 -1.511)" fill="none" stroke="#000" stroke-linecap="round" stroke-linejoin="round" stroke-width="2"/>
  <path id="Path_52411" data-name="Path 52411" d="M30.143,41.383A5.091,5.091,0,0,0,38.57,44.02" transform="translate(-0.99 -1.359)" fill="none" stroke="#000" stroke-linecap="round" stroke-linejoin="round" stroke-width="2"/>
  <path id="Path_52412" data-name="Path 52412" d="M91.46,60.571a5.091,5.091,0,0,0,8.427,2.637" transform="translate(-3.003 -1.989)" fill="none" stroke="#000" stroke-linecap="round" stroke-linejoin="round" stroke-width="2"/>
  <line id="Line_916" data-name="Line 916" x1="4.738" y2="15.14" transform="translate(47.924 83.454)" fill="none" stroke="#000" stroke-linecap="round" stroke-linejoin="round" stroke-width="2"/>
</g>
</svg>
