<?xml version="1.0" encoding="utf-8"?>
<!-- Generator: Adobe Illustrator 26.0.3, SVG Export Plug-In . SVG Version: 6.00 Build 0)  -->
<svg version="1.1" id="Layer_1" xmlns="http://www.w3.org/2000/svg" xmlns:xlink="http://www.w3.org/1999/xlink" x="0px" y="0px"
	 viewBox="0 0 70.78 39.06" style="enable-background:new 0 0 70.78 39.06;" xml:space="preserve">
<style type="text/css">
	.st0{enable-background:new    ;}
	.st1{fill:none;}
	.st2{fill:none;stroke:#040405;stroke-width:2.4996;stroke-linecap:round;stroke-linejoin:round;stroke-miterlimit:3.9993;}
	.st3{fill:#12FFC8;stroke:#000000;stroke-miterlimit:10;}
</style>
<g class="st0">
	<path d="M15.48,15.81l3.04-0.16l8.64,9.36l-0.52-9.99l3.64-0.19l0.85,16.28l-3.04,0.16l-8.64-9.36l0.52,9.99l-3.64,0.19
		L15.48,15.81z"/>
	<path d="M32.65,14.9l12.11-0.63l0.17,3.16l-8.47,0.44l0.17,3.32l7.77-0.41l0.17,3.16l-7.77,0.41l0.18,3.5l8.65-0.45l0.17,3.16
		L33.5,31.19L32.65,14.9z"/>
	<path d="M68.29,13.04l-3.84,16.53l-3.68,0.19L57.32,19.7l-2.38,10.36l-3.68,0.19l-5.55-16.04l3.89-0.2l3.36,10.5l2.24-10.79
		l3.78-0.2l3.33,10.46l2.26-10.76L68.29,13.04z"/>
</g>
<g class="st0">
	<path d="M15.48,15.81l3.04-0.16l8.64,9.36l-0.52-9.99l3.64-0.19l0.85,16.28l-3.04,0.16l-8.64-9.36l0.52,9.99l-3.64,0.19
		L15.48,15.81z"/>
	<path d="M32.65,14.9l12.11-0.63l0.17,3.16l-8.47,0.44l0.17,3.32l7.77-0.41l0.17,3.16l-7.77,0.41l0.18,3.5l8.65-0.45l0.17,3.16
		L33.5,31.19L32.65,14.9z"/>
	<path d="M68.29,13.04l-3.84,16.53l-3.68,0.19L57.32,19.7l-2.38,10.36l-3.68,0.19l-5.55-16.04l3.89-0.2l3.36,10.5l2.24-10.79
		l3.78-0.2l3.33,10.46l2.26-10.76L68.29,13.04z"/>
</g>
<g id="그룹_112006" transform="matrix(0.883, -0.469, 0.469, 0.883, -2.199, 3399.129)">
	<line id="선_774" class="st1" x1="1602.62" y1="-2986.72" x2="1602.62" y2="-2993.54"/>
	<line id="선_775" class="st2" x1="1602.62" y1="-2986.72" x2="1602.62" y2="-2993.54"/>
	<line id="선_779" class="st2" x1="1608.23" y1="-2985.12" x2="1610.85" y2="-2991.41"/>
	<line id="선_777" class="st2" x1="1597.02" y1="-2985.12" x2="1593.67" y2="-2990.84"/>
</g>
<g class="st0">
	<path class="st3" d="M13.12,14.45l3.04-0.16l8.64,9.36l-0.52-9.99l3.64-0.19l0.85,16.28l-3.04,0.16l-8.64-9.36l0.52,9.99
		l-3.64,0.19L13.12,14.45z"/>
	<path class="st3" d="M30.3,13.55l12.11-0.63l0.17,3.16l-8.47,0.44l0.17,3.32l7.77-0.41l0.17,3.16l-7.77,0.41l0.18,3.5l8.65-0.45
		l0.17,3.16l-12.29,0.64L30.3,13.55z"/>
	<path class="st3" d="M65.93,11.68l-3.84,16.53l-3.68,0.19l-3.45-10.06l-2.38,10.36l-3.68,0.19l-5.55-16.04l3.89-0.2l3.36,10.5
		l2.24-10.79l3.78-0.2l3.33,10.46l2.26-10.76L65.93,11.68z"/>
</g>
<g class="st0">
	<path class="st3" d="M13.12,14.45l3.04-0.16l8.64,9.36l-0.52-9.99l3.64-0.19l0.85,16.28l-3.04,0.16l-8.64-9.36l0.52,9.99
		l-3.64,0.19L13.12,14.45z"/>
	<path class="st3" d="M30.3,13.55l12.11-0.63l0.17,3.16l-8.47,0.44l0.17,3.32l7.77-0.41l0.17,3.16l-7.77,0.41l0.18,3.5l8.65-0.45
		l0.17,3.16l-12.29,0.64L30.3,13.55z"/>
	<path class="st3" d="M65.93,11.68l-3.84,16.53l-3.68,0.19l-3.45-10.06l-2.38,10.36l-3.68,0.19l-5.55-16.04l3.89-0.2l3.36,10.5
		l2.24-10.79l3.78-0.2l3.33,10.46l2.26-10.76L65.93,11.68z"/>
</g>
</svg>
