<?xml version="1.0" encoding="utf-8"?>
<!-- Generator: Adobe Illustrator 26.1.0, SVG Export Plug-In . SVG Version: 6.00 Build 0)  -->
<svg version="1.1" id="Layer_1" xmlns="http://www.w3.org/2000/svg" xmlns:xlink="http://www.w3.org/1999/xlink" x="0px" y="0px"
	 viewBox="0 0 327.2 138.6" style="enable-background:new 0 0 327.2 138.6;" xml:space="preserve">
<style type="text/css">
	.st0{enable-background:new    ;}
	.st1{fill:#FFFFFF;fill-opacity:0;}
	.st2{fill:#2FF583;}
	.st3{fill:none;stroke:#000000;stroke-width:1.5;}
	.st4{fill:#F06A86;stroke:#080D4B;stroke-width:1.9992;stroke-linecap:round;stroke-linejoin:round;stroke-miterlimit:3.9985;}
	.st5{fill:#FEC211;}
	.st6{fill:none;stroke:#080D4B;stroke-width:1.9992;stroke-miterlimit:3.9985;}
	.st7{fill:#FFFFFF;}
	.st8{fill:none;stroke:#080D4B;stroke-width:2;stroke-linecap:round;stroke-linejoin:round;}
	.st9{fill:#FFFFFF;stroke:#707070;stroke-width:2;}
	.st10{fill:#7582F0;}
	.st11{fill:#2FF583;stroke:#000000;stroke-miterlimit:10;}
</style>
<g class="st0">
	<path d="M54.7,82.2h7l13.5,21.9l13.5-21.9h7v39.1h-8.7V99.8l-9.1,15h-5.3l-9.1-15v21.5h-8.7V82.2z"/>
	<path d="M101.3,82.2h15.2c13,0,21,8,21,19.6c0,11.6-8,19.5-21,19.5h-15.2V82.2z M116.6,113.6c7.5,0,12.1-4.3,12.1-11.8
		c0-7.5-4.6-11.9-12.1-11.9H110v23.7H116.6z"/>
</g>
<g class="st0">
	<path d="M54.7,82.2h7l13.5,21.9l13.5-21.9h7v39.1h-8.7V99.8l-9.1,15h-5.3l-9.1-15v21.5h-8.7V82.2z"/>
	<path d="M101.3,82.2h15.2c13,0,21,8,21,19.6c0,11.6-8,19.5-21,19.5h-15.2V82.2z M116.6,113.6c7.5,0,12.1-4.3,12.1-11.8
		c0-7.5-4.6-11.9-12.1-11.9H110v23.7H116.6z"/>
</g>
<rect id="area" x="2.6" class="st1" width="320" height="134"/>
<g class="st0">
	<path class="st2" d="M52.7,79.2h7l13.5,21.9l13.5-21.9h7v39.1h-8.7V96.8l-9.1,15h-5.3l-9.1-15v21.5h-8.7V79.2z"/>
	<path class="st2" d="M99.3,79.2h15.2c13,0,21,8,21,19.6c0,11.6-8,19.5-21,19.5H99.3V79.2z M114.6,110.6c7.5,0,12.1-4.3,12.1-11.8
		c0-7.5-4.6-11.9-12.1-11.9H108v23.7H114.6z"/>
</g>
<g class="st0">
	<path class="st3" d="M52.7,79.2h7l13.5,21.9l13.5-21.9h7v39.1h-8.7V96.8l-9.1,15h-5.3l-9.1-15v21.5h-8.7V79.2z"/>
	<path class="st3" d="M99.3,79.2h15.2c13,0,21,8,21,19.6c0,11.6-8,19.5-21,19.5H99.3V79.2z M114.6,110.6c7.5,0,12.1-4.3,12.1-11.8
		c0-7.5-4.6-11.9-12.1-11.9H108v23.7H114.6z"/>
</g>
<g id="Image_885" transform="translate(26.471)">
	
		<image style="overflow:visible;enable-background:new    ;" width="223" height="269" id="image" xlink:href="1A3B5CB9.png"  transform="matrix(0.1187 0 0 0.1187 26.471 44.2163)">
	</image>
</g>
<g id="Image_885-2" transform="translate(0 28.06)">
	
		<image style="overflow:visible;enable-background:new    ;" width="223" height="269" id="image_00000088832569381390214110000015518974387720767919_" xlink:href="1A3B5CBB.png"  transform="matrix(0.1187 0 0 0.1187 0 72.2763)">
	</image>
</g>
<g id="Image_885-3" transform="translate(299.655 21.706) scale(1.04 1.04)">
	
		<image style="overflow:visible;enable-background:new    ;" width="223" height="269" id="image_00000089576472893993925110000010426750871102910852_" xlink:href="1A3B5CBE.png"  transform="matrix(0.1235 0 0 0.1235 299.655 65.9223)">
	</image>
</g>
<g id="Group_110047" transform="matrix(0.999, -0.035, 0.035, 0.999, 90.402, 34.927)">
	<path id="패스_37119" class="st4" d="M165.2,66.2c-1.8,0-3.2-1.4-3.2-3.2c0-0.6,0.2-1.2,0.5-1.8l13.7-21.5l-21.1-27.9
		c-1-1.4-0.8-3.4,0.7-4.4c1.4-1,3.4-0.8,4.4,0.7c0,0,0,0,0,0.1l22.4,29.7c0.8,1.1,0.8,2.5,0.1,3.6l-14.9,23.4
		C167.3,65.6,166.3,66.2,165.2,66.2z"/>
	<g id="Ellipse_638" transform="translate(16.139 25.475)">
		<circle class="st5" cx="162" cy="14.2" r="7.4"/>
		<circle class="st6" cx="162" cy="14.2" r="6.4"/>
	</g>
	<g id="Ellipse_639" transform="translate(20.375 29.71)">
		<circle class="st7" cx="157.7" cy="9.9" r="3.2"/>
		<circle class="st6" cx="157.7" cy="9.9" r="2.2"/>
	</g>
</g>
<rect id="Rectangle_19645" x="240.4" y="9.8" class="st7" width="5.3" height="24.4"/>
<rect id="Rectangle_19646" x="239.8" y="9.3" class="st8" width="5.3" height="24.4"/>
<g id="Group_110130" transform="translate(19.008)">
	<g id="Group_110048" transform="matrix(-0.999, -0.035, 0.035, -0.999, 64.22, 94.322)">
		<path id="패스_37119-2" class="st4" d="M-144,4.1c-1.8,0-3.2,1.4-3.2,3.2c0,0.6,0.2,1.2,0.5,1.8l13.7,21.5l-21.1,27.9
			c-1,1.4-0.7,3.4,0.8,4.4c1.4,1,3.3,0.7,4.4-0.7l22.4-29.7c0.8-1.1,0.8-2.5,0.1-3.6l-14.9-23.4C-141.9,4.6-142.9,4.1-144,4.1z"/>
		<g id="Ellipse_638-2" transform="translate(16.14 19.132)">
			
				<ellipse transform="matrix(0.9994 -3.501609e-02 3.501609e-02 0.9994 -0.4929 -5.1489)" class="st5" cx="-147.2" cy="11.5" rx="7.4" ry="7.4"/>
			
				<ellipse transform="matrix(0.9994 -3.501609e-02 3.501609e-02 0.9994 -0.4929 -5.1489)" class="st6" cx="-147.2" cy="11.5" rx="6.4" ry="6.4"/>
		</g>
		<g id="Ellipse_639-2" transform="translate(20.375 23.367)">
			
				<ellipse transform="matrix(0.9994 -3.501609e-02 3.501609e-02 0.9994 -0.3472 -5.2998)" class="st7" cx="-151.5" cy="7.3" rx="3.2" ry="3.2"/>
			
				<ellipse transform="matrix(0.9994 -3.501609e-02 3.501609e-02 0.9994 -0.3472 -5.2998)" class="st6" cx="-151.5" cy="7.3" rx="2.2" ry="2.2"/>
		</g>
	</g>
	<path id="Path_36470" class="st5" d="M233,40.5c-0.1,5.2-4.3,9.4-9.5,9.5c-5.1,0-8.5-4.4-8.5-9.5s3.4-8.5,8.5-8.5
		C228.6,32,233,35.4,233,40.5"/>
	<path id="Path_36471" class="st8" d="M233.5,41c0,5.3-4.3,9.5-9.5,9.5c-5.3,0-9.5-4.3-9.5-9.5s4.3-9.5,9.5-9.5l0,0
		C229.2,31.6,233.4,35.8,233.5,41z"/>
	<path id="Path_36472" class="st9" d="M227.2,41c0,1.8-1.4,3.2-3.2,3.2c-1.8,0-3.2-1.4-3.2-3.2c0-1.8,1.4-3.2,3.2-3.2l0,0
		c1.7-0.1,3.1,1.2,3.2,2.8C227.2,40.8,227.2,40.9,227.2,41"/>
	<circle id="Ellipse_626" class="st8" cx="224" cy="41" r="3.2"/>
	<path id="Path_36473" class="st10" d="M236.2,17.2h-25.4c-2,0-3.2-2.2-3.2-4.2V9.8h32.8V13C240.2,15.2,238.4,17,236.2,17.2"/>
	<path id="Path_36474" class="st8" d="M236.7,16.7h-25.4c-2,0-4.2-1.2-4.2-3.2V9.3h32.8v4.2c0.2,1.6-1,3-2.6,3.2
		C237.1,16.7,236.9,16.7,236.7,16.7z"/>
	<rect id="Rectangle_19647" x="198.1" y="2.4" class="st7" width="95.3" height="7.4"/>
	<rect id="Rectangle_19648" x="197.5" y="2.9" class="st8" width="96.4" height="6.4"/>
</g>
<g class="st0">
	<path d="M163.3,76.3l15,1.1c10.2,0.7,15.7,6.8,15.1,15.4c-0.6,8.7-7,14-17.1,13.3l-6.3-0.4l-0.7,10.4l-8.7-0.6L163.3,76.3z
		 M176.4,98.3c4.8,0.3,7.9-1.8,8.2-6.1c0.3-4.3-2.5-6.8-7.3-7.1l-5.9-0.4l-0.9,13.2L176.4,98.3z"/>
	<path d="M206.6,79.3l-2.7,39.1l-8.7-0.6l2.7-39.1L206.6,79.3z"/>
	<path d="M209.3,99.1c0.8-11.9,10.3-19.9,22.4-19.1c10.8,0.8,17.5,7.7,18.5,16.1l-8.8-0.6c-0.6-3.8-4.4-7.1-10-7.5
		c-7.1-0.5-12.7,4.4-13.3,11.7c-0.5,7.2,4.4,12.9,11.5,13.4c5.6,0.4,10.5-3,11.4-6.5l8.8,0.6c-1.8,7.8-10.1,14.6-21,13.9
		C216.7,120.3,208.4,111,209.3,99.1z"/>
	<path d="M267.7,107.9l-5.8,5.8l-0.6,8.8l-8.7-0.6l2.7-39.1l8.7,0.6l-1.3,18.4l16.9-17.3l10.7,0.8l-16.6,16.6l14.7,22.5l-10.9-0.8
		L267.7,107.9z"/>
</g>
<g class="st0">
	<path d="M163.3,76.3l15,1.1c10.2,0.7,15.7,6.8,15.1,15.4c-0.6,8.7-7,14-17.1,13.3l-6.3-0.4l-0.7,10.4l-8.7-0.6L163.3,76.3z
		 M176.4,98.3c4.8,0.3,7.9-1.8,8.2-6.1c0.3-4.3-2.5-6.8-7.3-7.1l-5.9-0.4l-0.9,13.2L176.4,98.3z"/>
	<path d="M206.6,79.3l-2.7,39.1l-8.7-0.6l2.7-39.1L206.6,79.3z"/>
	<path d="M209.3,99.1c0.8-11.9,10.3-19.9,22.4-19.1c10.8,0.8,17.5,7.7,18.5,16.1l-8.8-0.6c-0.6-3.8-4.4-7.1-10-7.5
		c-7.1-0.5-12.7,4.4-13.3,11.7c-0.5,7.2,4.4,12.9,11.5,13.4c5.6,0.4,10.5-3,11.4-6.5l8.8,0.6c-1.8,7.8-10.1,14.6-21,13.9
		C216.7,120.3,208.4,111,209.3,99.1z"/>
	<path d="M267.7,107.9l-5.8,5.8l-0.6,8.8l-8.7-0.6l2.7-39.1l8.7,0.6l-1.3,18.4l16.9-17.3l10.7,0.8l-16.6,16.6l14.7,22.5l-10.9-0.8
		L267.7,107.9z"/>
</g>
<g class="st0">
	<path class="st11" d="M161.3,73.3l15,1.1c10.2,0.7,15.7,6.8,15.1,15.4c-0.6,8.7-7,14-17.1,13.3l-6.3-0.4l-0.7,10.4l-8.7-0.6
		L161.3,73.3z M174.4,95.3c4.8,0.3,7.9-1.8,8.2-6.1c0.3-4.3-2.5-6.8-7.3-7.1l-5.9-0.4l-0.9,13.2L174.4,95.3z"/>
	<path class="st11" d="M204.6,76.3l-2.7,39.1l-8.7-0.6l2.7-39.1L204.6,76.3z"/>
	<path class="st11" d="M207.3,96.1c0.8-11.9,10.3-19.9,22.4-19.1c10.8,0.8,17.5,7.7,18.5,16.1l-8.8-0.6c-0.6-3.8-4.4-7.1-10-7.5
		c-7.1-0.5-12.7,4.4-13.3,11.7c-0.5,7.2,4.4,12.9,11.5,13.4c5.6,0.4,10.5-3,11.4-6.5l8.8,0.6c-1.8,7.8-10.1,14.6-21,13.9
		C214.7,117.3,206.4,108,207.3,96.1z"/>
	<path class="st11" d="M265.7,104.9l-5.8,5.8l-0.6,8.8l-8.7-0.6l2.7-39.1l8.7,0.6l-1.3,18.4l16.9-17.3l10.7,0.8l-16.6,16.6
		l14.7,22.5l-10.9-0.8L265.7,104.9z"/>
</g>
<g class="st0">
	<path class="st11" d="M161.3,73.3l15,1.1c10.2,0.7,15.7,6.8,15.1,15.4c-0.6,8.7-7,14-17.1,13.3l-6.3-0.4l-0.7,10.4l-8.7-0.6
		L161.3,73.3z M174.4,95.3c4.8,0.3,7.9-1.8,8.2-6.1c0.3-4.3-2.5-6.8-7.3-7.1l-5.9-0.4l-0.9,13.2L174.4,95.3z"/>
	<path class="st11" d="M204.6,76.3l-2.7,39.1l-8.7-0.6l2.7-39.1L204.6,76.3z"/>
	<path class="st11" d="M207.3,96.1c0.8-11.9,10.3-19.9,22.4-19.1c10.8,0.8,17.5,7.7,18.5,16.1l-8.8-0.6c-0.6-3.8-4.4-7.1-10-7.5
		c-7.1-0.5-12.7,4.4-13.3,11.7c-0.5,7.2,4.4,12.9,11.5,13.4c5.6,0.4,10.5-3,11.4-6.5l8.8,0.6c-1.8,7.8-10.1,14.6-21,13.9
		C214.7,117.3,206.4,108,207.3,96.1z"/>
	<path class="st11" d="M265.7,104.9l-5.8,5.8l-0.6,8.8l-8.7-0.6l2.7-39.1l8.7,0.6l-1.3,18.4l16.9-17.3l10.7,0.8l-16.6,16.6
		l14.7,22.5l-10.9-0.8L265.7,104.9z"/>
</g>
</svg>
