<svg xmlns="http://www.w3.org/2000/svg" width="368.775" height="132" viewBox="0 0 368.775 132">
  <g id="title" transform="translate(13273 -9678)">
    <rect id="사각형_22545" data-name="사각형 22545" width="368" height="132" transform="translate(-13273 9678)" fill="none"/>
    <g id="title-2" data-name="title" transform="translate(2715.259 3178)">
      <g id="합치기_160" data-name="합치기 160" transform="translate(-15971 6502)" fill="#ffdf5b">
        <path d="M 345.5003662109375 111.5003890991211 L 3.499789237976074 111.5003890991211 L 3.499789237976074 26.20261573791504 L 3.499789237976074 24.70261573791504 L 1.999789237976074 24.70261573791504 L 1.500016570091248 24.70261573791504 L 1.500016570091248 1.499115705490112 L 84.71758270263672 1.499115705490112 L 88.68897247314453 19.96688842773438 L 88.94369506835938 21.15152549743652 L 90.15542602539062 21.15152549743652 L 345.5003662109375 21.15152549743652 L 345.5003662109375 111.5003890991211 Z" stroke="none"/>
        <path d="M 344.0003662109375 110.0003890991211 L 344.0003662109375 22.65152549743652 L 87.73197174072266 22.65152549743652 L 83.50583648681641 2.999115705490112 L 3.000016450881958 2.999115705490112 L 3.000016450881958 23.20261573791504 L 4.999789237976074 23.20261573791504 L 4.999789237976074 110.0003890991211 L 344.0003662109375 110.0003890991211 M 347.0003662109375 113.0003890991211 L 1.999789237976074 113.0003890991211 L 1.999789237976074 26.20261573791504 L 1.654607513046358e-05 26.20261573791504 L 1.654607513046358e-05 -0.000884318957105279 L 85.92929077148438 -0.000884318957105279 L 90.15542602539062 19.65152549743652 L 347.0003662109375 19.65152549743652 L 347.0003662109375 113.0003890991211 Z" stroke="none" fill="#000"/>
      </g>
      <g id="사각형_22106" data-name="사각형 22106" transform="translate(-15978 6528)" fill="#fff" stroke="#000" stroke-width="3">
        <rect width="346" height="94" stroke="none"/>
        <rect x="1.5" y="1.5" width="343" height="91" fill="none"/>
      </g>
      <g id="사각형_22101" data-name="사각형 22101" transform="translate(-15986 6536)" fill="#ffdf5b" stroke="#000" stroke-width="3">
        <rect width="345" height="94" stroke="none"/>
        <rect x="1.5" y="1.5" width="342" height="91" fill="none"/>
      </g>
      <path id="패스_42584" data-name="패스 42584" d="M-69.153-20.253c-8.435,0-15.129,4.034-15.129,10.774,0,7.014,4.4,10.361,12.516,11.874C-65.119,3.632-62.6,4.824-62.6,7.8c0,2.43-2.521,4.126-5.914,4.126-4.768,0-7.885-2.384-8.344-5.96h-8.573c.367,7.977,7.106,12.974,16.321,12.974,8.344,0,15.083-4.355,15.083-11.507,0-5.593-2.934-9.857-11.553-11.645C-72.867-5.721-75.755-6.683-75.755-9.48c0-2.246,2.155-3.805,6.051-3.805,3.988,0,6.418,1.971,6.923,5.226h8.619C-54.574-15.165-60.809-20.253-69.153-20.253Zm35.8,11.415h-5.318v-7.977h-8.16v7.977h-5.318v7.014h5.318V18.027h8.16V-1.824h5.318Zm7.427-12.974a4.841,4.841,0,0,0-5,5,4.841,4.841,0,0,0,5,5,4.841,4.841,0,0,0,5-5A4.841,4.841,0,0,0-25.922-21.812Zm4.08,12.974H-30V18.119h8.16ZM10.112,8.354H1.86a5.205,5.205,0,0,1-5.135,3.209c-3.805,0-6.281-2.934-6.281-6.968s2.476-6.968,6.281-6.968c2.567,0,4.355,1.284,5,3.117H9.975C9.012-4.987,3.74-9.48-3.274-9.48c-8.3,0-14.258,5.914-14.258,14.074s5.96,14.074,14.258,14.074C3.511,18.669,8.737,14.589,10.112,8.354Zm21.914,9.673h9.306L30.467,2.623,40.783-8.838H31.705L22.215,2.119v-22.6h-8.16v38.51h8.16V11.838L25.47,8.17Zm22.831.642c6.51,0,11.782-3.53,13.157-8.665H59.808c-.688,1.284-2.613,2.109-4.951,2.109a5.676,5.676,0,0,1-5.868-4.905H68.656a18.361,18.361,0,0,0,.183-2.613c0-8.206-5.776-14.074-13.983-14.074S40.874-3.566,40.874,4.595C40.874,12.8,46.651,18.669,54.857,18.669ZM48.943,1.936c.688-3.209,2.7-4.951,5.914-4.951a5.714,5.714,0,0,1,6.006,4.951ZM73.195,18.027h8.16V4.274c0-4.08,2.613-6.556,6.968-6.556a9.037,9.037,0,0,1,4.172.917L92.4-9.021a10,10,0,0,0-3.53-.458c-3.438,0-5.914,1.238-7.519,3.393V-8.838h-8.16Zm35.346,0h8.344V3.724h16.963V-3.52H116.885V-12h19.071v-7.335H108.541Zm35.392-39.839a4.841,4.841,0,0,0-5,5,4.841,4.841,0,0,0,5,5,4.842,4.842,0,0,0,5-5A4.841,4.841,0,0,0,143.933-21.812Zm4.08,12.974h-8.16V18.119h8.16Zm13.845-11.645H153.7v38.51h8.16ZM180.15,18.669c6.51,0,11.782-3.53,13.157-8.665H185.1c-.688,1.284-2.613,2.109-4.951,2.109a5.676,5.676,0,0,1-5.868-4.905H193.95a18.362,18.362,0,0,0,.183-2.613c0-8.206-5.776-14.074-13.983-14.074S166.168-3.566,166.168,4.595C166.168,12.8,171.944,18.669,180.15,18.669ZM174.236,1.936c.688-3.209,2.7-4.951,5.914-4.951a5.714,5.714,0,0,1,6.006,4.951Z" transform="translate(-15867.826 6584.392)"/>
      <g id="flower" transform="translate(-15662.209 6510.292)">
        <g id="그룹_116250" data-name="그룹 116250" transform="translate(2)">
          <g id="그룹_116251" data-name="그룹 116251" transform="translate(0 0)">
            <path id="패스_42658" data-name="패스 42658" d="M35.854,24.326a5.657,5.657,0,0,0-3.095-1.068,28.968,28.968,0,0,1-9.588-1.843l-.591-.234h0a29.383,29.383,0,0,1,10.1-2.074,5.678,5.678,0,0,0,4.412-9.058,5.677,5.677,0,0,0-9.361.346,28.927,28.927,0,0,1-6.39,7.382l-.5.394v0a29.372,29.372,0,0,1,3.252-9.782A5.678,5.678,0,0,0,18.456.036a5.677,5.677,0,0,0-4.38,8.28,28.942,28.942,0,0,1,3.2,9.226l.094.628h0a29.4,29.4,0,0,1-6.844-7.708,5.678,5.678,0,0,0-10.051.708A5.678,5.678,0,0,0,5.448,19.1a28.914,28.914,0,0,1,9.588,1.843l.591.234h0a29.406,29.406,0,0,1-10.1,2.073,5.678,5.678,0,0,0-4.412,9.059,5.676,5.676,0,0,0,9.361-.347,28.986,28.986,0,0,1,6.39-7.382l.5-.394v0a29.4,29.4,0,0,1-3.253,9.781,5.678,5.678,0,0,0,5.639,8.35,5.678,5.678,0,0,0,4.381-8.28,28.918,28.918,0,0,1-3.2-9.226l-.094-.628,0,0A29.4,29.4,0,0,1,27.689,31.9a5.621,5.621,0,0,0,2,1.95,5.679,5.679,0,0,0,6.165-9.522" transform="translate(0 0)" fill="#30395a" stroke="#000" stroke-width="5"/>
          </g>
        </g>
        <path id="패스_42659" data-name="패스 42659" d="M35.854,24.326a5.657,5.657,0,0,0-3.095-1.068,28.968,28.968,0,0,1-9.588-1.843l-.591-.234h0a29.383,29.383,0,0,1,10.1-2.074,5.678,5.678,0,0,0,4.412-9.058,5.677,5.677,0,0,0-9.361.346,28.927,28.927,0,0,1-6.39,7.382l-.5.394v0a29.372,29.372,0,0,1,3.252-9.782A5.678,5.678,0,0,0,18.456.036a5.677,5.677,0,0,0-4.38,8.28,28.942,28.942,0,0,1,3.2,9.226l.094.628h0a29.4,29.4,0,0,1-6.844-7.708,5.678,5.678,0,0,0-10.051.708A5.678,5.678,0,0,0,5.448,19.1a28.914,28.914,0,0,1,9.588,1.843l.591.234h0a29.406,29.406,0,0,1-10.1,2.073,5.678,5.678,0,0,0-4.412,9.059,5.676,5.676,0,0,0,9.361-.347,28.986,28.986,0,0,1,6.39-7.382l.5-.394v0a29.4,29.4,0,0,1-3.253,9.781,5.678,5.678,0,0,0,5.639,8.35,5.678,5.678,0,0,0,4.381-8.28,28.918,28.918,0,0,1-3.2-9.226l-.094-.628,0,0A29.4,29.4,0,0,1,27.689,31.9a5.621,5.621,0,0,0,2,1.95,5.679,5.679,0,0,0,6.165-9.522" transform="translate(2 0)" fill="#f38ab3"/>
      </g>
    </g>
  </g>
</svg>
