<?xml version="1.0" encoding="utf-8"?>
<!-- Generator: Adobe Illustrator 26.0.2, SVG Export Plug-In . SVG Version: 6.00 Build 0)  -->
<svg version="1.1" xmlns="http://www.w3.org/2000/svg" xmlns:xlink="http://www.w3.org/1999/xlink" x="0px" y="0px" viewBox="0 0 271 121" style="enable-background:new 0 0 271 121;" xml:space="preserve">
<style type="text/css">
.st0{fill:#FFFFFF;stroke:#1D1D1B;stroke-width:1.5;stroke-linecap:round;stroke-linejoin:round;stroke-miterlimit:10;}
.st1{enable-background:new    ;}
.st2{fill:#020202;}
.st3{fill:#020202;stroke:#000000;}
.st4{fill:#2FF583;}
.st5{fill:none;stroke:#000000;}
.st6{fill:#F06A86;stroke:#080D4B;stroke-width:1.9992;stroke-linecap:round;stroke-linejoin:round;stroke-miterlimit:3.9985;}
.st7{fill:#FEC211;}
.st8{fill:none;stroke:#080D4B;stroke-width:1.9992;stroke-miterlimit:3.9985;}
.st9{fill:#FFFFFF;}
.st10{stroke:#000000;stroke-width:1.0024;stroke-miterlimit:4.0098;}
.st11{fill:none;stroke:#000000;stroke-width:1.0024;stroke-miterlimit:4.0098;}
.st12{fill:none;stroke:#080D4B;stroke-width:2;stroke-linecap:round;stroke-linejoin:round;}
.st13{fill:#FFFFFF;stroke:#707070;stroke-width:2;}
.st14{fill:#7582F0;}
.st15{fill:none;}


#han1 {position:relative;animation:han1 both linear infinite 7s;transform-origin:67% 29%;}
#han2 {position:relative;animation:han2 both linear infinite 7s;transform-origin:67% 29%;}

@keyframes han1 {
0% {transform:translate(55%,0) rotate(0deg);}
35% {transform:translate(-8%,0) rotate(0deg);}
50% {transform:translate(-8%,16%) rotate(7deg);}
60% {transform:translate(-8%,0) rotate(-3deg);}
100% {transform:translate(55%,0) rotate(0deg);}
}
@keyframes han2 {
0% {transform:translate(55%,0) rotate(0deg);}
35% {transform:translate(-8%,0) rotate(0deg);}
50% {transform:translate(-8%,16%) rotate(-7deg);}
60% {transform:translate(-8%,0) rotate(3deg);}
100% {transform:translate(55%,0) rotate(0deg);}
}


#bar1 {position:relative;animation:mdw both linear infinite 7s;}
#bar2 {position:relative;animation:bar both linear infinite 7s;}
@keyframes bar {
0% {transform:translate(55%,0);}
35% {transform:translate(-8%,0);}
50% {transform:translate(-8%,16%);}
60% {transform:translate(-8%,0);}
100% {transform:translate(55%,0);}
}
@keyframes mdw {
0% {transform:translateX(55%);}
35% {transform:translateX(-8%);}
60% {transform:translateX(-8%);}
100% {transform:translateX(55%);}
}


#pic {animation:pick both linear infinite 7s;transform-origin:59% 86%;}
@keyframes pick{
0% {transform:translate(0,0) rotate(0deg);opacity:0;}
5% {transform:translate(0,0) rotate(0deg);opacity:1;}
52% {transform:translate(0,0) rotate(0deg);}
55% {transform:translate(0,-6deg) rotate(4deg);}
60% {transform:translate(0,-12%) rotate(4deg);}
100% {transform:translate(63%,-12%) rotate(4deg);}
}


.star {position:relative;animation:star both infinite 4s;}
.star.s1 {transform-origin:18% 61%;}
.star.s2 {transform-origin:5% 77%;animation-delay:0.5s;}
.star.s3 {transform-origin:95% 72%;animation-delay:0.7s;}
@keyframes star {
0% {transform:scale(0.4);opacity:0;}	
20% {transform:scale(1.1);opacity:1;}
40% {transform:scale(0.6);}	
58% {transform:scale(1);}
100% {transform:scale(1);}
}
</style>

<g id="md">
	<g id="md">
		<g>
			<g transform="matrix(1, 0, 0, 1, 0, 0)">
				<g class="st1">
					<path class="st2" d="M82.56,120.93h-5.61v-15.08c0-1.63,0.07-3.43,0.21-5.4h-0.14c-0.29,1.55-0.56,2.66-0.79,3.34l-5.91,17.14
						h-4.64l-6.01-16.96c-0.16-0.46-0.43-1.63-0.79-3.52h-0.16c0.15,2.48,0.23,4.66,0.23,6.54v13.94h-5.12V95.72h8.31l5.15,14.94
						c0.41,1.2,0.71,2.4,0.9,3.6h0.11c0.32-1.39,0.65-2.61,1-3.64l5.15-14.91h8.1v25.22H82.56z"/>
					<path class="st2" d="M87.4,120.93V95.72h8.93c8.95,0,13.43,4.1,13.43,12.29c0,3.93-1.22,7.06-3.67,9.4s-5.7,3.52-9.76,3.52
						H87.4z M93.07,100.34v15.98h2.81c2.46,0,4.39-0.74,5.79-2.21s2.1-3.49,2.1-6.03c0-2.4-0.69-4.29-2.08-5.67
						s-3.34-2.07-5.84-2.07H93.07z"/>
				</g>
				<g class="st1">
					<path class="st3" d="M82.56,120.93h-5.61v-15.08c0-1.63,0.07-3.43,0.21-5.4h-0.14c-0.29,1.55-0.56,2.66-0.79,3.34l-5.91,17.14
						h-4.64l-6.01-16.96c-0.16-0.46-0.43-1.63-0.79-3.52h-0.16c0.15,2.48,0.23,4.66,0.23,6.54v13.94h-5.12V95.72h8.31l5.15,14.94
						c0.41,1.2,0.71,2.4,0.9,3.6h0.11c0.32-1.39,0.65-2.61,1-3.64l5.15-14.91h8.1v25.22H82.56z"/>
					<path class="st3" d="M87.4,120.93V95.72h8.93c8.95,0,13.43,4.1,13.43,12.29c0,3.93-1.22,7.06-3.67,9.4s-5.7,3.52-9.76,3.52
						H87.4z M93.07,100.34v15.98h2.81c2.46,0,4.39-0.74,5.79-2.21s2.1-3.49,2.1-6.03c0-2.4-0.69-4.29-2.08-5.67
						s-3.34-2.07-5.84-2.07H93.07z"/>
				</g>
			</g>
			<g transform="matrix(1, 0, 0, 1, 0, 0)">
				<g class="st1">
					<path class="st4" d="M79.34,117.82h-5.61v-15.08c0-1.63,0.07-3.43,0.21-5.4H73.8c-0.29,1.55-0.56,2.66-0.79,3.34l-5.91,17.14
						h-4.64l-6.01-16.96c-0.16-0.46-0.43-1.63-0.79-3.52H55.5c0.15,2.48,0.23,4.66,0.23,6.54v13.94h-5.12V92.61h8.31l5.15,14.94
						c0.41,1.2,0.71,2.4,0.9,3.6h0.11c0.32-1.39,0.65-2.61,1-3.64l5.15-14.91h8.1v25.22H79.34z"/>
					<path class="st4" d="M84.17,117.82V92.61h8.93c8.95,0,13.43,4.1,13.43,12.29c0,3.93-1.22,7.06-3.67,9.4s-5.7,3.52-9.76,3.52
						H84.17z M89.85,97.23v15.98h2.81c2.46,0,4.39-0.74,5.79-2.21s2.1-3.49,2.1-6.03c0-2.4-0.69-4.29-2.08-5.67
						s-3.34-2.07-5.84-2.07C92.63,97.23,89.85,97.23,89.85,97.23z"/>
				</g>
				<g class="st1">
					<path class="st5" d="M79.34,117.82h-5.61v-15.08c0-1.63,0.07-3.43,0.21-5.4H73.8c-0.29,1.55-0.56,2.66-0.79,3.34l-5.91,17.14
						h-4.64l-6.01-16.96c-0.16-0.46-0.43-1.63-0.79-3.52H55.5c0.15,2.48,0.23,4.66,0.23,6.54v13.94h-5.12V92.61h8.31l5.15,14.94
						c0.41,1.2,0.71,2.4,0.9,3.6h0.11c0.32-1.39,0.65-2.61,1-3.64l5.15-14.91h8.1v25.22H79.34z"/>
					<path class="st5" d="M84.17,117.82V92.61h8.93c8.95,0,13.43,4.1,13.43,12.29c0,3.93-1.22,7.06-3.67,9.4s-5.7,3.52-9.76,3.52
						H84.17z M89.85,97.23v15.98h2.81c2.46,0,4.39-0.74,5.79-2.21s2.1-3.49,2.1-6.03c0-2.4-0.69-4.29-2.08-5.67
						s-3.34-2.07-5.84-2.07C92.63,97.23,89.85,97.23,89.85,97.23z"/>
				</g>
			</g>
		</g>
	</g>
</g>
<g id="han2">
	<g id="Group_110047" transform="matrix(0.999, -0.035, 0.035, 0.999, -1.046, 2.888)">
		<path id="패스_37119" class="st6" d="M193.8,92.05c-1.66,0-3-1.34-3-3c0-0.59,0.17-1.17,0.5-1.66l12.9-20.34l-19.89-26.36
			c-0.98-1.34-0.69-3.21,0.65-4.19c1.34-0.98,3.21-0.69,4.19,0.65c0.01,0.01,0.01,0.01,0.02,0.02l21.12,28.04
			c0.74,1.01,0.76,2.38,0.07,3.42L196.3,90.71C195.75,91.55,194.81,92.05,193.8,92.05z"/>
		<g id="Ellipse_638" transform="translate(82.324 56.033)">
			<circle class="st7" cx="123.66" cy="10.95" r="7"/>
			<circle class="st8" cx="123.66" cy="10.95" r="6"/>
		</g>
		<g id="Ellipse_639" transform="translate(86.324 60.033)">
			<circle class="st9" cx="119.66" cy="6.95" r="3"/>
			<circle class="st8" cx="119.66" cy="6.95" r="2"/>
		</g>
	</g>
</g>
<g id="pic">
	<g id="pick_00000060741186735579617850000000520398550390775954_">
		<g>
			<g transform="matrix(1, 0, 0, 1, 0, -0.01)">
				<g class="st1">
					<path d="M130.01,111.97l-0.03,8.7l-5.69-0.02l0.07-25.27l8.92,0.02c6.37,0.01,9.54,2.71,9.52,8.08
						c-0.01,2.54-0.93,4.59-2.76,6.15c-1.83,1.57-4.27,2.34-7.33,2.33L130.01,111.97z M130.05,99.78l-0.02,7.88l2.24,0.01
						c3.03,0.01,4.55-1.32,4.55-3.97c0.01-2.6-1.5-3.9-4.53-3.91L130.05,99.78z"/>
					<path d="M151.26,120.74l-5.69-0.02l0.07-25.27l5.69,0.02L151.26,120.74z"/>
					<path d="M174.21,119.92c-1.84,0.89-4.26,1.33-7.23,1.32c-3.88-0.01-6.92-1.16-9.13-3.45s-3.31-5.33-3.31-9.12
						c0.01-4.04,1.27-7.31,3.77-9.82c2.51-2.5,5.74-3.75,9.73-3.74c2.47,0.01,4.54,0.33,6.24,0.96l-0.01,5.48
						c-1.69-1.02-3.61-1.52-5.78-1.54c-2.38-0.01-4.29,0.73-5.75,2.22s-2.2,3.5-2.2,6.05c-0.01,2.45,0.68,4.39,2.05,5.85
						c1.37,1.45,3.21,2.19,5.55,2.19c2.22,0.01,4.25-0.53,6.11-1.6L174.21,119.92z"/>
					<path d="M198.72,120.89l-7.19-0.02l-7.33-11c-0.14-0.21-0.37-0.68-0.66-1.4l-0.09,0l-0.03,12.37l-5.69-0.02l0.07-25.27
						l5.69,0.02l-0.03,11.95l0.09,0c0.14-0.33,0.38-0.8,0.71-1.41l7.01-10.51l6.79,0.02l-8.85,12.03L198.72,120.89z"/>
				</g>
				<g class="st1">
					<path class="st10" d="M130.01,111.97l-0.03,8.7l-5.69-0.02l0.07-25.27l8.92,0.02c6.37,0.01,9.54,2.71,9.52,8.08
						c-0.01,2.54-0.93,4.59-2.76,6.15c-1.83,1.57-4.27,2.34-7.33,2.33L130.01,111.97z M130.05,99.78l-0.02,7.88l2.24,0.01
						c3.03,0.01,4.55-1.32,4.55-3.97c0.01-2.6-1.5-3.9-4.53-3.91L130.05,99.78z"/>
					<path class="st10" d="M151.26,120.74l-5.69-0.02l0.07-25.27l5.69,0.02L151.26,120.74z"/>
					<path class="st10" d="M174.21,119.92c-1.84,0.89-4.26,1.33-7.23,1.32c-3.88-0.01-6.92-1.16-9.13-3.45s-3.31-5.33-3.31-9.12
						c0.01-4.04,1.27-7.31,3.77-9.82c2.51-2.5,5.74-3.75,9.73-3.74c2.47,0.01,4.54,0.33,6.24,0.96l-0.01,5.48
						c-1.69-1.02-3.61-1.52-5.78-1.54c-2.38-0.01-4.29,0.73-5.75,2.22s-2.2,3.5-2.2,6.05c-0.01,2.45,0.68,4.39,2.05,5.85
						c1.37,1.45,3.21,2.19,5.55,2.19c2.22,0.01,4.25-0.53,6.11-1.6L174.21,119.92z"/>
					<path class="st10" d="M198.72,120.89l-7.19-0.02l-7.33-11c-0.14-0.21-0.37-0.68-0.66-1.4l-0.09,0l-0.03,12.37l-5.69-0.02
						l0.07-25.27l5.69,0.02l-0.03,11.95l0.09,0c0.14-0.33,0.38-0.8,0.71-1.41l7.01-10.51l6.79,0.02l-8.85,12.03L198.72,120.89z"/>
				</g>
			</g>
			<g transform="matrix(1, 0, 0, 1, 0, -0.01)">
				<g class="st1">
					<path class="st4" d="M126.37,109.48l-0.02,8.71l-5.69-0.02l0.07-25.27l8.92,0.02c6.37,0.01,9.54,2.71,9.52,8.08
						c-0.01,2.54-0.93,4.59-2.76,6.15c-1.83,1.57-4.27,2.34-7.33,2.33L126.37,109.48z M126.41,97.29l-0.02,7.88l2.24,0.01
						c3.03,0.01,4.55-1.32,4.55-3.97c0.01-2.6-1.5-3.9-4.53-3.91L126.41,97.29z"/>
					<path class="st4" d="M147.61,118.25l-5.69-0.02l0.07-25.27l5.69,0.02L147.61,118.25z"/>
					<path class="st4" d="M170.57,117.42c-1.84,0.89-4.26,1.33-7.23,1.32c-3.88-0.01-6.92-1.16-9.13-3.45s-3.31-5.33-3.31-9.12
						c0.01-4.04,1.27-7.31,3.77-9.82c2.51-2.5,5.74-3.75,9.73-3.74c2.47,0.01,4.54,0.33,6.24,0.96l-0.01,5.48
						c-1.69-1.02-3.61-1.52-5.78-1.54c-2.38-0.01-4.29,0.73-5.75,2.22c-1.46,1.49-2.2,3.5-2.2,6.05c-0.01,2.45,0.68,4.39,2.05,5.85
						s3.21,2.19,5.55,2.19c2.22,0.01,4.25-0.53,6.11-1.6L170.57,117.42z"/>
					<path class="st4" d="M195.08,118.4l-7.19-0.02l-7.33-11c-0.14-0.21-0.37-0.68-0.66-1.4l-0.09,0l-0.03,12.37l-5.69-0.02
						l0.07-25.27l5.69,0.02l-0.03,11.95l0.09,0c0.14-0.33,0.38-0.8,0.71-1.41l7.01-10.51l6.79,0.02l-8.85,12.03L195.08,118.4z"/>
				</g>
				<g class="st1">
					<path class="st11" d="M126.37,109.48l-0.02,8.71l-5.69-0.02l0.07-25.27l8.92,0.02c6.37,0.01,9.54,2.71,9.52,8.08
						c-0.01,2.54-0.93,4.59-2.76,6.15c-1.83,1.57-4.27,2.34-7.33,2.33L126.37,109.48z M126.41,97.29l-0.02,7.88l2.24,0.01
						c3.03,0.01,4.55-1.32,4.55-3.97c0.01-2.6-1.5-3.9-4.53-3.91L126.41,97.29z"/>
					<path class="st11" d="M147.61,118.25l-5.69-0.02l0.07-25.27l5.69,0.02L147.61,118.25z"/>
					<path class="st11" d="M170.57,117.42c-1.84,0.89-4.26,1.33-7.23,1.32c-3.88-0.01-6.92-1.16-9.13-3.45s-3.31-5.33-3.31-9.12
						c0.01-4.04,1.27-7.31,3.77-9.82c2.51-2.5,5.74-3.75,9.73-3.74c2.47,0.01,4.54,0.33,6.24,0.96l-0.01,5.48
						c-1.69-1.02-3.61-1.52-5.78-1.54c-2.38-0.01-4.29,0.73-5.75,2.22c-1.46,1.49-2.2,3.5-2.2,6.05c-0.01,2.45,0.68,4.39,2.05,5.85
						s3.21,2.19,5.55,2.19c2.22,0.01,4.25-0.53,6.11-1.6L170.57,117.42z"/>
					<path class="st11" d="M195.08,118.4l-7.19-0.02l-7.33-11c-0.14-0.21-0.37-0.68-0.66-1.4l-0.09,0l-0.03,12.37l-5.69-0.02
						l0.07-25.27l5.69,0.02l-0.03,11.95l0.09,0c0.14-0.33,0.38-0.8,0.71-1.41l7.01-10.51l6.79,0.02l-8.85,12.03L195.08,118.4z"/>
				</g>
			</g>
		</g>
	</g>
</g>
<g id="han1">
	
		<g id="Group_110048_00000158721929338877274380000016272965627889720199_" transform="matrix(-0.999, -0.035, 0.035, -0.999, 60.336, 88.595)">
		<path id="패스_37119-2_00000178885400194896676780000018257288665769471892_" class="st6" d="M-106.59,4.22c-1.66,0-3,1.34-3,3
			c0,0.59,0.17,1.17,0.5,1.66l12.91,20.34l-19.89,26.37c-0.97,1.35-0.66,3.22,0.68,4.19c1.34,0.96,3.2,0.67,4.17-0.66l21.11-28.05
			c0.74-1.01,0.76-2.38,0.07-3.42l-14.05-22.08C-104.65,4.72-105.59,4.22-106.59,4.22z"/>
		<g id="Ellipse_638-2_00000078034873833575145320000013423091315567228038_" transform="translate(15.243 18.068)">
			<ellipse transform="matrix(0.9994 -0.035 0.035 0.9994 -0.4602 -3.8327)" class="st7" cx="-109.65" cy="11.22" rx="7" ry="7"/>
			<ellipse transform="matrix(0.9994 -0.035 0.035 0.9994 -0.4602 -3.8327)" class="st8" cx="-109.65" cy="11.22" rx="6" ry="6"/>
		</g>
		<g id="Ellipse_639-2_00000119840508170199458940000011833203380005031298_" transform="translate(19.243 22.068)">
			<ellipse transform="matrix(0.9994 -0.035 0.035 0.9994 -0.3226 -3.9752)" class="st9" cx="-113.65" cy="7.22" rx="3" ry="3"/>
			<ellipse transform="matrix(0.9994 -0.035 0.035 0.9994 -0.3226 -3.9752)" class="st8" cx="-113.65" cy="7.22" rx="2" ry="2"/>
		</g>
	</g>
</g>
<g id="bar2">
	<g>
		<rect id="Rectangle_19645" x="179.37" y="-8.76" class="st9" width="5" height="39.14"/>
		<rect id="Rectangle_19646" x="178.87" y="-9.62" class="st12" width="5" height="39.14"/>
		<path id="Path_36470" class="st7" d="M190.37,36.38c-0.1,4.93-4.07,8.9-9,9c-4.83,0-8-4.17-8-9s3.17-8,8-8
			C186.2,28.38,190.37,31.55,190.37,36.38"/>
		<path id="Path_36471" class="st12" d="M190.87,36.88c0,4.97-4.03,9-9,9s-9-4.03-9-9s4.03-9,9-9
			C186.8,27.98,190.77,31.95,190.87,36.88z"/>
		<path id="Path_36472" class="st13" d="M184.87,36.88c0,1.66-1.34,3-3,3c-1.66,0-3-1.34-3-3s1.34-3,3-3l0,0
			c1.57-0.09,2.91,1.11,3,2.67C184.87,36.66,184.87,36.77,184.87,36.88"/>
		<circle id="Ellipse_626" class="st12" cx="181.87" cy="36.88" r="3"/>
	</g>
</g>
<g id="bar1">
	<rect x="166.37" y="-12.42" class="st9" width="32.35" height="14.64"/>
	<path id="Path_36473" class="st14" d="M193.37,14.38h-24c-1.88,0-3-2.12-3-4v-3h31v3C197.14,12.49,195.48,14.15,193.37,14.38"/>
	<path id="Path_36474" class="st12" d="M193.87,13.88h-24c-1.88,0-4-1.12-4-3v-4h31v4c0.14,1.52-0.97,2.86-2.49,3
		C194.21,13.89,194.04,13.89,193.87,13.88z"/>
	<rect id="Rectangle_19647" x="157.37" y="0.38" class="st9" width="90" height="7"/>
	<rect id="Rectangle_19648" x="156.87" y="0.88" class="st12" width="91" height="6"/>
	<rect id="Rectangle_19649" x="116.37" y="-0.62" class="st15" width="132" height="136"/>
</g>

<g id="Star">
	<path class="st0 star s1" d="M48.9,57.69c0,0,0.78,15.67-12.67,15.78c0,0,12.68,0,12.68,15c0,0,0.77-15.39,11.88-15.39
		C60.79,73.08,48.9,72.24,48.9,57.69z"/>
	<path class="st0 star s2" d="M13.67,78.22c0,0,0.78,15.67-12.67,15.78c0,0,12.68,0,12.68,15c0,0,0.77-15.39,11.88-15.39
		C25.56,93.61,13.67,92.78,13.67,78.22z"/>
	<path class="st0 star s3" d="M258.55,72.22c0,0,0.78,15.67-12.67,15.78c0,0,12.68,0,12.68,15c0,0,0.77-15.39,11.88-15.39
		C270.44,87.61,258.55,86.78,258.55,72.22z"/>
</g>
</svg>
