<svg xmlns="http://www.w3.org/2000/svg" xmlns:xlink="http://www.w3.org/1999/xlink" width="399" height="130.237" viewBox="0 0 399 130.237">
<style>
.s1 {position:relative;animation:rotate2 both linear infinite 6s;transform-origin:4.4% 13.8%;}
.s2 {position:relative;animation:rotate both linear infinite 4.5s;transform-origin:4.7% 14%;}
  
@keyframes rotate {
0% {rotate(0deg);}
100% {transform:rotate(360deg);}
}
@keyframes rotate2 {
0% {rotate(0deg);}
100% {transform:rotate(-360deg);}
}
</style>
  <defs>
    <filter id="패스_42536" x="48.73" y="40.581" width="304.872" height="48.897" filterUnits="userSpaceOnUse">
      <feOffset dx="2" dy="3" input="SourceAlpha"/>
      <feGaussianBlur result="blur"/>
      <feFlood/>
      <feComposite operator="in" in2="blur"/>
      <feComposite in="SourceGraphic"/>
    </filter>
  </defs>
  <g id="그룹_116240" data-name="그룹 116240" transform="translate(0.084 3.002)">
    <g id="title" transform="translate(0 12.741)">
      <g id="사각형_21855" data-name="사각형 21855" transform="translate(-0.084 0.125)" fill="#fff" stroke="#000" stroke-width="3">
        <rect width="399" height="103" rx="6" stroke="none"/>
        <rect x="1.5" y="1.5" width="396" height="100" rx="4.5" fill="none"/>
      </g>
      <g id="그룹_115756" data-name="그룹 115756" transform="translate(9.251 9.723)">
        <g id="사각형_21813" data-name="사각형 21813" transform="translate(-0.335 -0.098)" fill="#52ba83" stroke="#000" stroke-width="3">
          <rect width="381" height="84" rx="4" stroke="none"/>
          <rect x="1.5" y="1.5" width="378" height="81" rx="2.5" fill="none"/>
        </g>
        <g transform="matrix(1, 0, 0, 1, -9.34, -25.47)" filter="url(#패스_42536)">
          <g id="패스_42536-2" data-name="패스 42536" transform="translate(143.58 65.39)" fill="#f9e606" stroke-linejoin="round">
            <path d="M 46.82109832763672 19.58514595031738 C 44.44083023071289 19.58514595031738 42.18952178955078 19.26472473144531 40.12971496582031 18.63283920288086 C 38.05967712402344 17.99780082702637 36.22029113769531 17.06026268005371 34.66255950927734 15.84630107879639 C 33.06290817260742 14.59964656829834 31.79463768005371 13.08880043029785 30.8929443359375 11.35564708709717 C 29.96440696716309 9.570916175842285 29.44390678405762 7.585108280181885 29.34586906433105 5.453377723693848 L 29.27375221252441 3.884493112564087 L 30.84429168701172 3.884493112564087 L 39.23659896850586 3.884493112564087 L 40.55656051635742 3.884493112564087 L 40.72440719604492 5.193723678588867 C 41.08767700195312 8.02714729309082 43.58494567871094 9.718724250793457 47.40452194213867 9.718724250793457 C 48.71940612792969 9.718724250793457 49.88710021972656 9.412569999694824 50.69252014160156 8.856646537780762 C 51.3569450378418 8.398031234741211 51.69386672973633 7.833800792694092 51.69386672973633 7.179608345031738 C 51.69386672973633 6.384454727172852 51.48355865478516 5.80537748336792 50.40871429443359 5.19837760925293 C 49.2467155456543 4.542185306549072 47.25279235839844 3.974800825119019 43.94356155395508 3.358608484268188 C 39.51371383666992 2.532685279846191 36.29729080200195 1.174646854400635 34.11009979248047 -0.7931992411613464 C 32.89859771728516 -1.883237719535828 31.97821426391602 -3.187199354171753 31.37444496154785 -4.668930053710938 C 30.77182960510254 -6.147891521453857 30.46625328063965 -7.853891372680664 30.46625328063965 -9.739622116088867 C 30.46625328063965 -11.60889148712158 30.92082977294922 -13.35054588317871 31.81740760803223 -14.91612243652344 C 32.66198348999023 -16.39093017578125 33.87821578979492 -17.67342948913574 35.43236923217773 -18.7280445098877 C 38.33852386474609 -20.7000846862793 42.3671760559082 -21.78612327575684 46.77621459960938 -21.78612327575684 C 48.94225311279297 -21.78612327575684 51.0135612487793 -21.46177673339844 52.93263626098633 -20.82208442687988 C 54.82379150390625 -20.19169998168945 56.51944351196289 -19.27216148376465 57.9725227355957 -18.0890064239502 C 60.3775520324707 -16.13070106506348 61.99163818359375 -13.52850437164307 62.64522933959961 -10.61135292053223 L 63.42621612548828 -10.61135292053223 L 67.13214111328125 -10.61135292053223 L 67.13214111328125 -16.92023849487305 L 67.13214111328125 -18.42023849487305 L 68.63214111328125 -18.42023849487305 L 76.62055969238281 -18.42023849487305 L 78.12055969238281 -18.42023849487305 L 78.12055969238281 -16.92023849487305 L 78.12055969238281 -10.61135292053223 L 81.82648468017578 -10.61135292053223 L 83.32648468017578 -10.61135292053223 L 83.32648468017578 -9.111352920532227 L 83.32648468017578 -2.24489164352417 L 83.32648468017578 -0.7448915839195251 L 81.82648468017578 -0.7448915839195251 L 78.12055969238281 -0.7448915839195251 L 78.12055969238281 17.18757057189941 L 78.12055969238281 18.68757057189941 L 76.62055969238281 18.68757057189941 L 68.63214111328125 18.68757057189941 L 67.13214111328125 18.68757057189941 L 67.13214111328125 17.18757057189941 L 67.13214111328125 -0.7448915839195251 L 63.42621612548828 -0.7448915839195251 L 61.92621612548828 -0.7448915839195251 L 61.92621612548828 -2.24489164352417 L 61.92621612548828 -6.848391532897949 L 61.45156097412109 -6.848391532897949 L 53.01436996459961 -6.848391532897949 L 51.72886657714844 -6.848391532897949 L 51.53205871582031 -8.118738174438477 C 51.0395622253418 -11.29735279083252 48.38109970092773 -11.96458339691162 46.23767471313477 -11.96458339691162 C 44.09898376464844 -11.96458339691162 41.81371307373047 -11.38008403778076 41.81371307373047 -9.739622116088867 C 41.81371307373047 -9.209891319274902 41.92475128173828 -8.681391716003418 43.2653694152832 -8.041661262512207 C 44.73502349853516 -7.340353012084961 47.15436935424805 -6.758584022521973 50.58156204223633 -6.047276020050049 C 54.96755981445312 -5.137430191040039 58.11529159545898 -3.579930067062378 60.20448303222656 -1.285814642906189 C 62.11663818359375 0.8139545917510986 63.08621597290039 3.541339159011841 63.08621597290039 6.820608615875244 C 63.08621597290039 8.773416519165039 62.63602066040039 10.59880065917969 61.74817657470703 12.24599266052246 C 60.90779113769531 13.80514717102051 59.69667434692383 15.16630077362061 58.14859771728516 16.2916088104248 C 55.22671508789062 18.41549301147461 51.2038688659668 19.58514595031738 46.82109832763672 19.58514595031738 Z M 168.1730651855469 19.31587791442871 C 166.0102081298828 19.31587791442871 163.9629058837891 18.93553161621094 162.0881042480469 18.18545532226562 C 160.2454376220703 17.44822311401367 158.6180267333984 16.3748779296875 157.2510223388672 14.99522399902344 C 155.8869781494141 13.61853122711182 154.826171875 11.98114681243896 154.0980987548828 10.12860870361328 C 153.3595275878906 8.249454498291016 152.9850616455078 6.200339317321777 152.9850616455078 4.038108348846436 C 152.9850616455078 -0.2339684814214706 154.4996337890625 -4.118853092193604 157.2498321533203 -6.900929927825928 C 158.6174774169922 -8.284429550170898 160.2444458007812 -9.361392021179199 162.0855560302734 -10.10189151763916 C 163.9626312255859 -10.85681438446045 166.0107574462891 -11.23962211608887 168.1730651855469 -11.23962211608887 C 170.3359069824219 -11.23962211608887 172.3832092285156 -10.85927581787109 174.2580261230469 -10.10919952392578 C 176.1006774902344 -9.372007369995117 177.7281036376953 -8.298661231994629 179.0950927734375 -6.918968677520752 C 180.4591369628906 -5.542276382446289 181.5199432373047 -3.904891490936279 182.2480163574219 -2.052391529083252 C 182.9866027832031 -0.1732377111911774 183.3610534667969 1.875916123390198 183.3610534667969 4.038108348846436 C 183.3610534667969 4.985646724700928 183.2974090576172 5.891800880432129 183.1664428710938 6.80833911895752 L 182.9824523925781 8.096185684204102 L 182.9375915527344 8.096185684204102 L 182.5021362304688 9.721878051757812 C 182.1208343505859 11.14549350738525 181.4704437255859 12.4769926071167 180.569091796875 13.67937755584717 C 179.6952972412109 14.84495449066162 178.6040954589844 15.86483955383301 177.3257904052734 16.71068572998047 C 174.7500915527344 18.41503143310547 171.5850982666016 19.31587791442871 168.1730651855469 19.31587791442871 Z M 164.5883636474609 8.096185684204102 C 165.3343048095703 9.281964302062988 166.5476989746094 9.898223876953125 168.1730651855469 9.898223876953125 C 170.0394134521484 9.898223876953125 171.3589019775391 9.257954597473145 171.6977081298828 8.625493049621582 L 171.9812622070312 8.096185684204102 L 164.5883636474609 8.096185684204102 Z M 164.5169219970703 -0.06485310196876526 L 171.9001312255859 -0.06485310196876526 C 171.1440124511719 -1.304328918457031 169.9115753173828 -1.911737680435181 168.1730651855469 -1.911737680435181 C 166.4470977783203 -1.911737680435181 165.2530212402344 -1.316971063613892 164.5169219970703 -0.06485310196876526 Z M 111.2669067382812 19.31587791442871 C 106.9442520141602 19.31587791442871 103.009521484375 17.77933883666992 100.1875228881836 14.98933887481689 C 97.36441040039062 12.19822406768799 95.80963897705078 8.308993339538574 95.80963897705078 4.038108348846436 C 95.80963897705078 -0.2327761799097061 97.36441040039062 -4.121968269348145 100.1875228881836 -6.913084030151367 C 103.0095596313477 -9.703083992004395 106.9442901611328 -11.23962211608887 111.2669067382812 -11.23962211608887 C 113.1054077148438 -11.23962211608887 114.8803329467773 -10.95185279846191 116.5424041748047 -10.38427639007568 C 118.1489868164062 -9.835699081420898 119.6172561645508 -9.038122177124023 120.9064865112305 -8.013775825500488 C 123.4814071655273 -5.967891693115234 125.1894836425781 -3.114853143692017 125.7161026000977 0.01980074681341648 L 126.0098648071289 1.768300771713257 L 124.2368316650391 1.768300771713257 L 116.1586761474609 1.768300771713257 L 115.0944442749023 1.768300771713257 L 114.7429046630859 0.7638391852378845 C 114.2942123413086 -0.5180838704109192 112.9947891235352 -1.283429980278015 111.2669067382812 -1.283429980278015 C 108.4431381225586 -1.283429980278015 106.618522644043 0.8054161071777344 106.618522644043 4.038108348846436 C 106.618522644043 7.270839214324951 108.4431381225586 9.359684944152832 111.2669067382812 9.359684944152832 C 113.0176010131836 9.359684944152832 114.3726348876953 8.546416282653809 114.8915634155273 7.18418550491333 L 115.2595596313477 6.218185424804688 L 116.2932891845703 6.218185424804688 L 124.3714828491211 6.218185424804688 L 126.2384414672852 6.218185424804688 L 125.8362503051758 8.041300773620605 C 125.0974044799805 11.39068508148193 123.3291778564453 14.22657012939453 120.7227554321289 16.24237823486328 C 118.1229095458984 18.25307083129883 114.8531341552734 19.31587791442871 111.2669067382812 19.31587791442871 Z M -40.46789932250977 19.31587791442871 C -42.6307487487793 19.31587791442871 -44.67805480957031 18.93553161621094 -46.55286407470703 18.18545532226562 C -48.39551544189453 17.44822311401367 -50.0229377746582 16.3748779296875 -51.38993835449219 14.99522399902344 C -52.75397872924805 13.61853122711182 -53.81478500366211 11.98114681243896 -54.54286193847656 10.12860870361328 C -55.28144073486328 8.249454498291016 -55.65590286254883 6.200339317321777 -55.65590286254883 4.038108348846436 C -55.65590286254883 -0.2339684814214706 -54.14132308959961 -4.118853092193604 -51.39113235473633 -6.900929927825928 C -50.02347946166992 -8.284429550170898 -48.39651489257812 -9.361392021179199 -46.55540084838867 -10.10189151763916 C -44.67832565307617 -10.85681438446045 -42.63020706176758 -11.23962211608887 -40.46789932250977 -11.23962211608887 C -38.3050537109375 -11.23962211608887 -36.25774765014648 -10.85927581787109 -34.38293838500977 -10.10919952392578 C -32.54028701782227 -9.372007369995117 -30.91286277770996 -8.298661231994629 -29.54586219787598 -6.918968677520752 C -28.18182373046875 -5.542276382446289 -27.12101554870605 -3.904891490936279 -26.3929386138916 -2.052391529083252 C -25.65436172485352 -0.1732377111911774 -25.2799015045166 1.875916123390198 -25.2799015045166 4.038108348846436 C -25.2799015045166 4.985646724700928 -25.34355545043945 5.891800880432129 -25.47451591491699 6.80833911895752 L -25.65851593017578 8.096185684204102 L -25.70333480834961 8.096185684204102 L -26.13878631591797 9.721916198730469 C -26.52013206481934 11.14553165435791 -27.17051696777344 12.47703170776367 -28.07186317443848 13.67937755584717 C -28.94567108154297 14.84495449066162 -30.03686332702637 15.86483955383301 -31.31517028808594 16.71068572998047 C -33.89089965820312 18.41503143310547 -37.05586242675781 19.31587791442871 -40.46789932250977 19.31587791442871 Z M -44.05259323120117 8.096185684204102 C -43.3066520690918 9.281964302062988 -42.09326171875 9.898223876953125 -40.46789932250977 9.898223876953125 C -38.60155487060547 9.898223876953125 -37.28205490112305 9.257954597473145 -36.9432487487793 8.625493049621582 L -36.65969467163086 8.096185684204102 L -44.05259323120117 8.096185684204102 Z M -44.12401962280273 -0.06485310196876526 L -36.74082946777344 -0.06485310196876526 C -37.4969482421875 -1.304328918457031 -38.72938537597656 -1.911737680435181 -40.46789932250977 -1.911737680435181 C -42.19386672973633 -1.911737680435181 -43.387939453125 -1.316971063613892 -44.12401962280273 -0.06485310196876526 Z M 94.59101867675781 18.77733993530273 L 93.09101867675781 18.77733993530273 L 85.10260009765625 18.77733993530273 L 83.60260009765625 18.77733993530273 L 83.60260009765625 17.27733993530273 L 83.60260009765625 -9.111352920532227 L 83.60260009765625 -10.61135292053223 L 85.10260009765625 -10.61135292053223 L 88.01624298095703 -10.61135292053223 C 86.67396545410156 -10.82067108154297 85.46228790283203 -11.42116165161133 84.53002166748047 -12.35342979431152 C 83.35317230224609 -13.53027629852295 82.70506286621094 -15.15212249755859 82.70506286621094 -16.92023849487305 C 82.70506286621094 -18.68835258483887 83.35317230224609 -20.31019973754883 84.53002166748047 -21.48704528808594 C 85.70687103271484 -22.66389083862305 87.32871246337891 -23.3120059967041 89.09683227539062 -23.3120059967041 C 90.86490631103516 -23.3120059967041 92.48679351806641 -22.66389083862305 93.66363525390625 -21.48704528808594 C 94.84048461914062 -20.31019973754883 95.48860168457031 -18.68831443786621 95.48860168457031 -16.92023849487305 C 95.48860168457031 -15.15212249755859 94.84048461914062 -13.53027629852295 93.66363525390625 -12.35342979431152 C 92.73136901855469 -11.42116165161133 91.51969146728516 -10.82067108154297 90.17741394042969 -10.61135292053223 L 93.09101867675781 -10.61135292053223 L 94.59101867675781 -10.61135292053223 L 94.59101867675781 -9.111352920532227 L 94.59101867675781 17.27733993530273 L 94.59101867675781 18.77733993530273 Z M 195.6128997802734 18.68757057189941 L 194.1128997802734 18.68757057189941 L 186.1245269775391 18.68757057189941 L 184.6245269775391 18.68757057189941 L 184.6245269775391 17.18757057189941 L 184.6245269775391 -9.111352920532227 L 184.6245269775391 -10.61135292053223 L 186.1245269775391 -10.61135292053223 L 194.1128997802734 -10.61135292053223 L 195.6128997802734 -10.61135292053223 L 195.6128997802734 -9.768200874328613 C 195.8948364257812 -9.93673038482666 196.1870727539062 -10.09113693237305 196.4892120361328 -10.23112201690674 C 197.93359375 -10.90031433105469 199.6104125976562 -11.23962211608887 201.4730224609375 -11.23962211608887 C 203.0050201416016 -11.23962211608887 204.1422576904297 -11.15258407592773 205.4214477539062 -10.7075834274292 L 206.4159088134766 -10.36166095733643 L 206.4285278320312 -9.308815002441406 L 206.5183258056641 -1.814083814620972 L 206.5483245849609 0.6901084184646606 L 204.3264007568359 -0.4653146266937256 C 203.4100189208984 -0.941814661026001 202.2371063232422 -1.193699240684509 200.9344787597656 -1.193699240684509 C 197.5028228759766 -1.193699240684509 195.6128997802734 0.5527622699737549 195.6128997802734 3.723954677581787 L 195.6128997802734 17.18757057189941 L 195.6128997802734 18.68757057189941 Z M 157.8274841308594 18.68757057189941 L 154.9338226318359 18.68757057189941 L 145.8234405517578 18.68757057189941 L 145.0196380615234 18.68757057189941 L 144.5744781494141 18.01826286315918 L 139.2352294921875 9.990653991699219 L 137.7194061279297 11.69860458374023 L 137.7194061279297 17.18757057189941 L 137.7194061279297 18.68757057189941 L 136.2194061279297 18.68757057189941 L 128.2310180664062 18.68757057189941 L 126.7310256958008 18.68757057189941 L 126.7310256958008 17.18757057189941 L 126.7310256958008 -20.51050758361816 L 126.7310256958008 -22.01050758361816 L 128.2310180664062 -22.01050758361816 L 136.2194061279297 -22.01050758361816 L 137.7194061279297 -22.01050758361816 L 137.7194061279297 -20.51050758361816 L 137.7194061279297 -2.408361673355103 L 144.37548828125 -10.09339141845703 L 144.8240966796875 -10.61135292053223 L 145.5093231201172 -10.61135292053223 L 154.3953247070312 -10.61135292053223 L 157.7633666992188 -10.61135292053223 L 155.51025390625 -8.107892036437988 L 146.2133636474609 2.221980571746826 L 156.1595916748047 16.3229923248291 L 157.8274841308594 18.68757057189941 Z M 9.30540657043457 18.68757057189941 L 8.225444793701172 18.68757057189941 L 0.1921758949756622 18.68757057189941 L -0.9064779281616211 18.68757057189941 L -1.237939476966858 17.64006996154785 L -4.558192729949951 7.146855354309082 L -7.845901012420654 17.63618469238281 L -8.175439834594727 18.68757057189941 L -9.277247428894043 18.68757057189941 L -17.26563262939453 18.68757057189941 L -18.3455924987793 18.68757057189941 L -18.68816947937012 17.66337776184082 L -27.48440170288086 -8.63554573059082 L -28.1452465057373 -10.61135292053223 L -26.06186294555664 -10.61135292053223 L -17.62467002868652 -10.61135292053223 L -16.4824390411377 -10.61135292053223 L -16.17867088317871 -9.510237693786621 L -12.97132015228271 2.116406679153442 L -9.827593803405762 -9.503084182739258 L -9.527785301208496 -10.61135292053223 L -8.379670143127441 -10.61135292053223 L -0.2117471843957901 -10.61135292053223 L 0.9350220561027527 -10.61135292053223 L 1.235752820968628 -9.504737854003906 L 4.417741775512695 2.203769207000732 L 7.631598949432373 -9.508275985717773 L 7.934291362762451 -10.61135292053223 L 9.078137397766113 -10.61135292053223 L 17.02167510986328 -10.61135292053223 L 19.10506057739258 -10.61135292053223 L 18.4442138671875 -8.63554573059082 L 9.647983551025391 17.66337776184082 L 9.30540657043457 18.68757057189941 Z M -82.18605804443359 18.68757057189941 L -83.68605804443359 18.68757057189941 L -91.85401916503906 18.68757057189941 L -93.35401916503906 18.68757057189941 L -93.35401916503906 17.18757057189941 L -93.35401916503906 -19.38854598999023 L -93.35401916503906 -20.88854598999023 L -91.85401916503906 -20.88854598999023 L -85.03240203857422 -20.88854598999023 L -84.32836151123047 -20.88854598999023 L -83.87851715087891 -20.34696769714355 L -68.26678466796875 -1.551523685455322 L -68.26678466796875 -19.83735275268555 L -68.26678466796875 -21.33735275268555 L -66.76678466796875 -21.33735275268555 L -58.59889984130859 -21.33735275268555 L -57.09889984130859 -21.33735275268555 L -57.09889984130859 -19.83735275268555 L -57.09889984130859 16.73880004882812 L -57.09889984130859 18.23880004882812 L -58.59889984130859 18.23880004882812 L -65.42044067382812 18.23880004882812 L -66.12448120117188 18.23880004882812 L -66.57432556152344 17.69722366333008 L -82.18605804443359 -1.098253846168518 L -82.18605804443359 17.18757057189941 L -82.18605804443359 18.68757057189941 Z" stroke="none"/>
            <path d="M 46.82109069824219 18.08515357971191 C 54.98904800415039 18.08515357971191 61.58621597290039 13.82165336608887 61.58621597290039 6.820611476898193 C 61.58621597290039 1.34540331363678 58.71396255493164 -2.828305006027222 50.27675628662109 -4.578596591949463 C 43.14104843139648 -6.059596538543701 40.31371307373047 -7.002055168151855 40.31371307373047 -9.739638328552246 C 40.31371307373047 -11.93867969512939 42.42300415039062 -13.46455478668213 46.2376708984375 -13.46455478668213 C 50.14213180541992 -13.46455478668213 52.52071380615234 -11.53476333618164 53.01438140869141 -8.348388671875 L 61.4515495300293 -8.348388671875 C 61.04767227172852 -15.30459690093994 54.94412994384766 -20.2861385345459 46.77621459960938 -20.2861385345459 C 38.51854705810547 -20.2861385345459 31.96625518798828 -16.33680534362793 31.96625518798828 -9.739638328552246 C 31.96625518798828 -2.873179912567139 36.27463150024414 0.4029449820518494 44.21813201904297 1.883944988250732 C 50.72554779052734 3.095653295516968 53.19388198852539 4.262528419494629 53.19388198852539 7.179611682891846 C 53.19388198852539 9.558195114135742 50.72554779052734 11.21869468688965 47.40454864501953 11.21869468688965 C 42.73712921142578 11.21869468688965 39.68538284301758 8.885027885437012 39.23662948608398 5.384486675262451 L 30.84429740905762 5.384486675262451 C 31.20333862304688 13.19336128234863 37.80050659179688 18.08515357971191 46.82109069824219 18.08515357971191 M 168.173095703125 17.81586074829102 C 174.5457916259766 17.81586074829102 179.7068786621094 14.36019515991211 181.0532073974609 9.333820343017578 L 173.0199279785156 9.333820343017578 C 172.3467559814453 10.59040355682373 170.4618377685547 11.39823627471924 168.173095703125 11.39823627471924 C 165.1661682128906 11.39823627471924 163.056884765625 9.647945404052734 162.4285888671875 6.596194744110107 L 181.6815490722656 6.596194744110107 C 181.8161773681641 5.653736591339111 181.8610534667969 4.801070213317871 181.8610534667969 4.038111686706543 C 181.8610534667969 -3.995180130004883 176.2063446044922 -9.739638328552246 168.173095703125 -9.739638328552246 C 160.1397552490234 -9.739638328552246 154.4850463867188 -3.950304985046387 154.4850463867188 4.038111686706543 C 154.4850463867188 12.07140350341797 160.1397552490234 17.81586074829102 168.173095703125 17.81586074829102 M 174.0521697998047 1.435153365135193 L 162.3836669921875 1.435153365135193 C 163.056884765625 -1.70634663105011 165.0315551757812 -3.411763429641724 168.173095703125 -3.411763429641724 C 171.3145446777344 -3.411763429641724 173.3789672851562 -1.70634663105011 174.0521697998047 1.435153365135193 M 111.2668838500977 17.81586074829102 C 117.9089202880859 17.81586074829102 123.0250930786133 13.82165336608887 124.371467590332 7.718153476715088 L 116.2932968139648 7.718153476715088 C 115.5752563476562 9.603070259094238 113.7352142333984 10.85969543457031 111.2668838500977 10.85969543457031 C 107.5419616699219 10.85969543457031 105.1185073852539 7.987444877624512 105.1185073852539 4.038111686706543 C 105.1185073852539 0.0887783095240593 107.5419616699219 -2.783430099487305 111.2668838500977 -2.783430099487305 C 113.7800903320312 -2.783430099487305 115.5303802490234 -1.526846647262573 116.1586761474609 0.2683199644088745 L 124.2368392944336 0.2683199644088745 C 123.2943801879883 -5.341513156890869 118.1333389282227 -9.739638328552246 111.2668838500977 -9.739638328552246 C 103.1438369750977 -9.739638328552246 97.30963134765625 -3.950304985046387 97.30963134765625 4.038111686706543 C 97.30963134765625 12.02652835845947 103.1438369750977 17.81586074829102 111.2668838500977 17.81586074829102 M -40.46791076660156 17.81586074829102 C -34.09511947631836 17.81586074829102 -28.93407821655273 14.36019515991211 -27.58774375915527 9.333820343017578 L -35.62099456787109 9.333820343017578 C -36.2942008972168 10.59040355682373 -38.1790771484375 11.39823627471924 -40.46791076660156 11.39823627471924 C -43.47478485107422 11.39823627471924 -45.58407592773438 9.647945404052734 -46.21236801147461 6.596194744110107 L -26.95940971374512 6.596194744110107 C -26.82478523254395 5.653736591339111 -26.77991104125977 4.801070213317871 -26.77991104125977 4.038111686706543 C -26.77991104125977 -3.995180130004883 -32.43461990356445 -9.739638328552246 -40.46791076660156 -9.739638328552246 C -48.50120162963867 -9.739638328552246 -54.15591049194336 -3.950304985046387 -54.15591049194336 4.038111686706543 C -54.15591049194336 12.07140350341797 -48.50120162963867 17.81586074829102 -40.46791076660156 17.81586074829102 M -34.58878707885742 1.435153365135193 L -46.25724411010742 1.435153365135193 C -45.58407592773438 -1.70634663105011 -43.60940933227539 -3.411763429641724 -40.46791076660156 -3.411763429641724 C -37.32637023925781 -3.411763429641724 -35.26199340820312 -1.70634663105011 -34.58878707885742 1.435153365135193 M 93.09104919433594 17.27732086181641 L 93.09104919433594 -9.111346244812012 L 85.10263061523438 -9.111346244812012 L 85.10263061523438 17.27732086181641 L 93.09104919433594 17.27732086181641 M 194.1129302978516 17.18757057189941 L 194.1129302978516 3.723986625671387 C 194.1129302978516 -0.2702216804027557 196.6710052490234 -2.693680047988892 200.9344635009766 -2.693680047988892 C 202.5052185058594 -2.693680047988892 203.8964691162109 -2.379554986953735 205.0184173583984 -1.796096682548523 L 204.9286651611328 -9.290846824645996 C 203.8964691162109 -9.649888038635254 202.9540405273438 -9.739638328552246 201.4730072021484 -9.739638328552246 C 198.1070861816406 -9.739638328552246 195.6836700439453 -8.52793025970459 194.1129302978516 -6.418596744537354 L 194.1129302978516 -9.111346244812012 L 186.1245422363281 -9.111346244812012 L 186.1245422363281 17.18757057189941 L 194.1129302978516 17.18757057189941 M 154.933837890625 17.18757057189941 L 144.2975921630859 2.108319997787476 L 154.3952941894531 -9.111346244812012 L 145.5093383789062 -9.111346244812012 L 136.2194213867188 1.614653348922729 L 136.2194213867188 -20.51051330566406 L 128.2310485839844 -20.51051330566406 L 128.2310485839844 17.18757057189941 L 136.2194213867188 17.18757057189941 L 136.2194213867188 11.12894535064697 L 139.4058380126953 7.538653373718262 L 145.8234710693359 17.18757057189941 L 154.933837890625 17.18757057189941 M 76.62054443359375 17.18757057189941 L 76.62054443359375 -2.244888305664062 L 81.82646179199219 -2.244888305664062 L 81.82646179199219 -9.111346244812012 L 76.62054443359375 -9.111346244812012 L 76.62054443359375 -16.92022132873535 L 68.63213348388672 -16.92022132873535 L 68.63213348388672 -9.111346244812012 L 63.42621612548828 -9.111346244812012 L 63.42621612548828 -2.244888305664062 L 68.63213348388672 -2.244888305664062 L 68.63213348388672 17.18757057189941 L 76.62054443359375 17.18757057189941 M 8.225464820861816 17.18757057189941 L 17.02167320251465 -9.111346244812012 L 9.078130722045898 -9.111346244812012 L 4.41075611114502 7.897695064544678 L -0.2117439806461334 -9.111346244812012 L -8.379660606384277 -9.111346244812012 L -12.95728588104248 7.807944774627686 L -17.62466049194336 -9.111346244812012 L -26.06186866760254 -9.111346244812012 L -17.2656192779541 17.18757057189941 L -9.277243614196777 17.18757057189941 L -4.564952373504639 2.153194904327393 L 0.1921726912260056 17.18757057189941 L 8.225464820861816 17.18757057189941 M -83.68608093261719 17.18757057189941 L -83.68608093261719 -5.251763343811035 L -65.42045593261719 16.73877906799316 L -58.59891128540039 16.73877906799316 L -58.59891128540039 -19.83734703063965 L -66.76678466796875 -19.83734703063965 L -66.76678466796875 2.601986646652222 L -85.03240966796875 -19.3885555267334 L -91.85399627685547 -19.3885555267334 L -91.85399627685547 17.18757057189941 L -83.68608093261719 17.18757057189941 M 89.09683990478516 -12.02842998504639 C 91.92417144775391 -12.02842998504639 93.98863220214844 -14.09288883209229 93.98863220214844 -16.92022132873535 C 93.98863220214844 -19.74759674072266 91.92417144775391 -21.81201362609863 89.09683990478516 -21.81201362609863 C 86.26946258544922 -21.81201362609863 84.20504760742188 -19.74759674072266 84.20504760742188 -16.92022132873535 C 84.20504760742188 -14.09288883209229 86.26946258544922 -12.02842998504639 89.09683990478516 -12.02842998504639 M 46.82109069824219 21.08515357971191 C 44.29158782958984 21.08515357971191 41.89225769042969 20.7425708770752 39.68975448608398 20.06686210632324 C 37.44446563720703 19.37807083129883 35.44284057617188 18.35611152648926 33.74050521850586 17.02944564819336 C 31.96983909606934 15.64948654174805 30.56404685974121 13.97348690032959 29.562255859375 12.04794502258301 C 28.53250694274902 10.06865310668945 27.95554733276367 7.873111724853516 27.84746360778809 5.522278308868408 C 27.80983924865723 4.703569889068604 28.10875511169434 3.90511155128479 28.67479705810547 3.312444925308228 C 29.2408390045166 2.719778299331665 30.02475547790527 2.384486675262451 30.84429740905762 2.384486675262451 L 36.10458374023438 2.384486675262451 C 34.96332550048828 1.782135725021362 33.96707153320312 1.095881104469299 33.10683822631836 0.3219033181667328 C 30.35933876037598 -2.150096654891968 28.96625518798828 -5.535263538360596 28.96625518798828 -9.739638328552246 C 28.96625518798828 -13.87538814544678 30.9635066986084 -17.50834655761719 34.590087890625 -19.96926307678223 C 36.19821548461914 -21.06047248840332 38.08754730224609 -21.90005493164062 40.20567321777344 -22.4647216796875 C 42.25017166137695 -23.00976371765137 44.46083831787109 -23.2861385345459 46.77621459960938 -23.2861385345459 C 49.10375595092773 -23.2861385345459 51.33467102050781 -22.93588829040527 53.40696334838867 -22.24513816833496 C 55.47075653076172 -21.55722236633301 57.32546615600586 -20.55022239685059 58.91963195800781 -19.2521800994873 C 61.2650260925293 -17.34243583679199 62.93307113647461 -14.87978172302246 63.7963981628418 -12.11134624481201 L 65.63213348388672 -12.11134624481201 L 65.63213348388672 -16.92022132873535 C 65.63213348388672 -18.57709693908691 66.97525787353516 -19.92022132873535 68.63213348388672 -19.92022132873535 L 76.62054443359375 -19.92022132873535 C 78.27742004394531 -19.92022132873535 79.62054443359375 -18.57709693908691 79.62054443359375 -16.92022132873535 L 79.62054443359375 -12.11134624481201 L 81.82646179199219 -12.11134624481201 C 82.21216583251953 -12.11134624481201 82.58084869384766 -12.03856372833252 82.91956329345703 -11.90598106384277 C 81.80865478515625 -13.29000663757324 81.20504760742188 -15.04122924804688 81.20504760742188 -16.92022132873535 C 81.20504760742188 -19.08901405334473 82.00921630859375 -21.08755493164062 83.46933746337891 -22.54772186279297 C 84.92950439453125 -24.00784683227539 86.92804718017578 -24.81201362609863 89.09683990478516 -24.81201362609863 C 91.26558685302734 -24.81201362609863 93.26412963867188 -24.00788879394531 94.72429656982422 -22.54772186279297 C 96.18446350097656 -21.08755493164062 96.98863220214844 -19.08901405334473 96.98863220214844 -16.92022132873535 C 96.98863220214844 -14.84863090515137 96.2548828125 -12.9323205947876 94.91656494140625 -11.49219799041748 C 95.63071441650391 -10.94381618499756 96.09104919433594 -10.0813627243042 96.09104919433594 -9.111346244812012 L 96.09104919433594 -3.766567468643188 C 96.86788177490234 -5.328423976898193 97.88852691650391 -6.749508857727051 99.13291931152344 -7.979804992675781 C 102.237548828125 -11.04922199249268 106.5467987060547 -12.73963832855225 111.2668838500977 -12.73963832855225 C 113.2706298828125 -12.73963832855225 115.2086715698242 -12.42476367950439 117.0271759033203 -11.80380535125732 C 118.7965087890625 -11.19963836669922 120.4156723022461 -10.31959629058838 121.8396301269531 -9.188179969787598 C 123.1996612548828 -8.107553482055664 124.3425598144531 -6.823239326477051 125.2310485839844 -5.397573947906494 L 125.2310485839844 -20.51051330566406 C 125.2310485839844 -22.16738891601562 126.5741729736328 -23.51051330566406 128.2310485839844 -23.51051330566406 L 136.2194213867188 -23.51051330566406 C 137.8762969970703 -23.51051330566406 139.2194213867188 -22.16738891601562 139.2194213867188 -20.51051330566406 L 139.2194213867188 -6.431447982788086 L 143.2416381835938 -11.07542991638184 C 143.8114624023438 -11.73334693908691 144.6389617919922 -12.11134624481201 145.5093383789062 -12.11134624481201 L 154.3952941894531 -12.11134624481201 C 155.5800476074219 -12.11134624481201 156.6537933349609 -11.41409683227539 157.1358032226562 -10.33184623718262 C 157.3179321289062 -9.922898292541504 157.4026641845703 -9.487920761108398 157.3948516845703 -9.057467460632324 C 160.3152008056641 -11.44277095794678 164.0821990966797 -12.73963832855225 168.173095703125 -12.73963832855225 C 174.9762115478516 -12.73963832855225 180.4669952392578 -9.24683952331543 183.1245422363281 -3.790502071380615 L 183.1245422363281 -9.111346244812012 C 183.1245422363281 -10.76822185516357 184.4676666259766 -12.11134624481201 186.1245422363281 -12.11134624481201 L 194.1129302978516 -12.11134624481201 C 194.7494201660156 -12.11134624481201 195.3395843505859 -11.91314697265625 195.8251342773438 -11.57507991790771 C 197.3155517578125 -12.27278232574463 199.1724395751953 -12.73963832855225 201.4730072021484 -12.73963832855225 C 203.122802734375 -12.73963832855225 204.4412078857422 -12.63672161102295 205.9142608642578 -12.12434673309326 C 207.1078796386719 -11.70913791656494 207.9133453369141 -10.59043025970459 207.928466796875 -9.326763153076172 L 208.0182189941406 -1.832013368606567 C 208.0308380126953 -0.777471661567688 207.4888000488281 0.2062783092260361 206.5905914306641 0.7589449882507324 C 205.6923675537109 1.311652541160583 204.5699462890625 1.352112174034119 203.6342926025391 0.8655282855033875 C 202.9308319091797 0.4996949732303619 201.9972534179688 0.3063199818134308 200.9344635009766 0.3063199818134308 C 197.5090942382812 0.3063199818134308 197.1129302978516 2.2568199634552 197.1129302978516 3.723986625671387 L 197.1129302978516 17.18757057189941 C 197.1129302978516 18.84444427490234 195.7697906494141 20.18757057189941 194.1129302978516 20.18757057189941 L 186.1245422363281 20.18757057189941 C 184.4676666259766 20.18757057189941 183.1245422363281 18.84444427490234 183.1245422363281 17.18757057189941 L 183.1245422363281 12.34681701660156 C 182.7513122558594 13.12691879272461 182.2985687255859 13.87305068969727 181.7692565917969 14.57911205291748 C 180.7920837402344 15.88261127471924 179.5755462646484 17.02065277099609 178.1535034179688 17.96161079406738 C 175.33154296875 19.82886123657227 171.8803863525391 20.81586074829102 168.173095703125 20.81586074829102 C 164.205810546875 20.81586074829102 160.6843414306641 19.62774085998535 157.9112548828125 17.55547904968262 C 157.8683166503906 17.90343475341797 157.7640228271484 18.24654388427734 157.5972595214844 18.5682373046875 C 157.08154296875 19.56307029724121 156.0543823242188 20.18757057189941 154.933837890625 20.18757057189941 L 145.8234710693359 20.18757057189941 C 144.8192596435547 20.18757057189941 143.8816680908203 19.68511199951172 143.3255004882812 18.8489875793457 L 139.2194213867188 12.6754789352417 L 139.2194213867188 17.18757057189941 C 139.2194213867188 18.84444427490234 137.8762969970703 20.18757057189941 136.2194213867188 20.18757057189941 L 128.2310485839844 20.18757057189941 C 126.5741729736328 20.18757057189941 125.2310485839844 18.84444427490234 125.2310485839844 17.18757057189941 L 125.2310485839844 13.47217559814453 C 124.2813491821289 14.9859790802002 123.075813293457 16.31873893737793 121.640380859375 17.42890357971191 C 118.7754211425781 19.6446533203125 115.1883010864258 20.81586074829102 111.2668838500977 20.81586074829102 C 106.5467987060547 20.81586074829102 102.237548828125 19.12544441223145 99.13291931152344 16.05602836608887 C 97.88852691650391 14.82573223114014 96.86788177490234 13.40464687347412 96.09104919433594 11.8427906036377 L 96.09104919433594 17.27732086181641 C 96.09104919433594 18.93419456481934 94.7479248046875 20.27732086181641 93.09104919433594 20.27732086181641 L 85.10263061523438 20.27732086181641 C 83.44575500488281 20.27732086181641 82.10263061523438 18.93419456481934 82.10263061523438 17.27732086181641 L 82.10263061523438 0.7425671815872192 C 82.01165771484375 0.750872790813446 81.91960144042969 0.7551116347312927 81.82646179199219 0.7551116347312927 L 79.62054443359375 0.7551116347312927 L 79.62054443359375 17.18757057189941 C 79.62054443359375 18.84444427490234 78.27742004394531 20.18757057189941 76.62054443359375 20.18757057189941 L 68.63213348388672 20.18757057189941 C 66.97525787353516 20.18757057189941 65.63213348388672 18.84444427490234 65.63213348388672 17.18757057189941 L 65.63213348388672 0.7551116347312927 L 63.42621612548828 0.7551116347312927 C 63.39820098876953 0.7551116347312927 63.37030029296875 0.7547245621681213 63.34247207641602 0.7539617419242859 C 64.16923522949219 2.536720037460327 64.58621215820312 4.565612316131592 64.58621215820312 6.820611476898193 C 64.58621215820312 11.10632038116455 62.61317443847656 14.90073680877686 59.03054809570312 17.50490379333496 C 55.85433959960938 19.81365394592285 51.5182991027832 21.08515357971191 46.82109069824219 21.08515357971191 Z M 42.10651016235352 4.509415626525879 C 42.15484237670898 4.668364524841309 42.1905403137207 4.833340644836426 42.21229934692383 5.003028392791748 C 42.33075714111328 5.927278518676758 42.75337982177734 6.64227819442749 43.50425720214844 7.188903331756592 C 44.42963027954102 7.862611770629883 45.77833938598633 8.218694686889648 47.40454864501953 8.218694686889648 C 49.2093391418457 8.218694686889648 50.19388198852539 7.532278537750244 50.19388198852539 7.179611682891846 C 50.19388198852539 6.977028369903564 50.1658821105957 6.88740348815918 50.15509033203125 6.869945049285889 C 50.15150451660156 6.864194869995117 50.06300735473633 6.725820064544678 49.6711311340332 6.504528522491455 C 48.36004638671875 5.764153480529785 45.61767196655273 5.196111679077148 43.66896438598633 4.833236694335938 C 43.13204574584961 4.733132839202881 42.61110687255859 4.625182151794434 42.10651016235352 4.509415626525879 Z M 111.2668838500977 0.2165699750185013 C 108.3455505371094 0.2165699750185013 108.1185073852539 3.141611576080322 108.1185073852539 4.038111686706543 C 108.1185073852539 4.934611797332764 108.3455505371094 7.859694957733154 111.2668838500977 7.859694957733154 C 112.3867950439453 7.859694957733154 113.1970062255859 7.418861865997314 113.4898376464844 6.650195121765137 C 113.9329681396484 5.486903190612793 115.0484619140625 4.718153476715088 116.2932968139648 4.718153476715088 L 124.371467590332 4.718153476715088 C 124.665885925293 4.718153476715088 124.9551162719727 4.761379241943359 125.2310485839844 4.843925952911377 L 125.2310485839844 3.098793983459473 C 124.9150848388672 3.209787607192993 124.5793228149414 3.268320083618164 124.2368392944336 3.268320083618164 L 116.1586761474609 3.268320083618164 C 114.8838424682617 3.268320083618164 113.7482147216797 2.462611675262451 113.3270874023438 1.259361624717712 C 112.997673034668 0.3181949853897095 111.7765884399414 0.2165699750185013 111.2668838500977 0.2165699750185013 Z M 148.1291046142578 2.335593461990356 L 151.8048706054688 7.546797275543213 C 151.5944671630859 6.424462795257568 151.4850463867188 5.252133369445801 151.4850463867188 4.038111686706543 C 151.4850463867188 1.577390074729919 151.9485168457031 -0.769726574420929 152.8302001953125 -2.887847185134888 L 148.1291046142578 2.335593461990356 Z M 57.27729034423828 -5.348388195037842 C 58.47176361083984 -4.724068641662598 59.51871490478516 -4.002710342407227 60.42621612548828 -3.180354118347168 L 60.42621612548828 -5.348388195037842 L 57.27729034423828 -5.348388195037842 Z M 43.31379318237305 -9.747819900512695 C 43.45674896240234 -9.629853248596191 43.89806365966797 -9.333124160766602 45.06538009643555 -8.943387985229492 C 46.39982604980469 -8.497857093811035 48.2308349609375 -8.076400756835938 50.08902359008789 -7.683024406433105 C 50.07365036010742 -7.75081729888916 50.06053924560547 -7.819490909576416 50.04975509643555 -7.889096736907959 C 49.94063186645508 -8.593471527099609 49.65071487426758 -10.46455478668213 46.2376708984375 -10.46455478668213 C 44.21446990966797 -10.46455478668213 43.42227554321289 -9.924033164978027 43.31536865234375 -9.77330207824707 C 43.31472778320312 -9.767855644226074 43.31402587890625 -9.759480476379395 43.31379318237305 -9.747819900512695 Z M -40.46791076660156 20.81586074829102 C -47.42801666259766 20.81586074829102 -53.01461791992188 17.15984535217285 -55.59891128540039 11.48571014404297 L -55.59891128540039 16.73877906799316 C -55.59891128540039 18.39565277099609 -56.94203567504883 19.73877906799316 -58.59891128540039 19.73877906799316 L -65.42045593261719 19.73877906799316 C -66.31249237060547 19.73877906799316 -67.15824127197266 19.34181976318359 -67.72820281982422 18.65561103820801 L -80.68608093261719 3.05523157119751 L -80.68608093261719 17.18757057189941 C -80.68608093261719 18.84444427490234 -82.02920532226562 20.18757057189941 -83.68608093261719 20.18757057189941 L -91.85399627685547 20.18757057189941 C -93.51087188720703 20.18757057189941 -94.85399627685547 18.84444427490234 -94.85399627685547 17.18757057189941 L -94.85399627685547 -19.3885555267334 C -94.85399627685547 -21.04542922973633 -93.51087188720703 -22.3885555267334 -91.85399627685547 -22.3885555267334 L -85.03240966796875 -22.3885555267334 C -84.14036560058594 -22.3885555267334 -83.29461669921875 -21.99159622192383 -82.72466278076172 -21.30538749694824 L -69.76678466796875 -5.705008506774902 L -69.76678466796875 -19.83734703063965 C -69.76678466796875 -21.49422264099121 -68.42366027832031 -22.83734703063965 -66.76678466796875 -22.83734703063965 L -58.59891128540039 -22.83734703063965 C -56.94203567504883 -22.83734703063965 -55.59891128540039 -21.49422264099121 -55.59891128540039 -19.83734703063965 L -55.59891128540039 -3.374627590179443 C -54.82279205322266 -5.082701206207275 -53.76761627197266 -6.630561351776123 -52.45791244506836 -7.955471515655518 C -49.40816116333008 -11.0405969619751 -45.1500358581543 -12.73963832855225 -40.46791076660156 -12.73963832855225 C -35.89689254760742 -12.73963832855225 -31.91790390014648 -11.16246604919434 -28.99313163757324 -8.472725868225098 C -29.17324829101562 -9.299182891845703 -28.9965877532959 -10.16959762573242 -28.49649429321289 -10.86422157287598 C -27.93274307250977 -11.6472635269165 -27.0267448425293 -12.11134624481201 -26.06186866760254 -12.11134624481201 L -17.62466049194336 -12.11134624481201 C -16.2750358581543 -12.11134624481201 -15.09157752990723 -11.21013832092285 -14.73270225524902 -9.909138679504395 L -12.98538589477539 -3.575094699859619 L -11.27553558349609 -9.89484691619873 C -10.9216194152832 -11.20293045043945 -9.734786033630371 -12.11134624481201 -8.379660606384277 -12.11134624481201 L -0.2117439806461334 -12.11134624481201 C 1.142089366912842 -12.11134624481201 2.328214406967163 -11.20455455780029 2.683255910873413 -9.898097038269043 L 4.424742221832275 -3.490090847015381 L 6.185089588165283 -9.905221939086914 C 6.542631149291992 -11.20818042755127 7.727005958557129 -12.11134624481201 9.078130722045898 -12.11134624481201 L 17.02167320251465 -12.11134624481201 C 17.98654747009277 -12.11134624481201 18.89250564575195 -11.6472635269165 19.45629692077637 -10.86422157287598 C 20.02004814147949 -10.08117961883545 20.17279815673828 -9.07480525970459 19.86675643920898 -8.159763336181641 L 11.07054805755615 18.13915252685547 C 10.66129779815674 19.36269569396973 9.515630722045898 20.18757057189941 8.225464820861816 20.18757057189941 L 0.1921726912260056 20.18757057189941 C -1.11603569984436 20.18757057189941 -2.273410558700562 19.3398609161377 -2.668077230453491 18.09261131286621 L -4.551423072814941 12.14050197601318 L -6.414577484130859 18.08481979370117 C -6.80674409866333 19.33602905273438 -7.966035842895508 20.18757057189941 -9.277243614196777 20.18757057189941 L -17.2656192779541 20.18757057189941 C -18.5557861328125 20.18757057189941 -19.70145225524902 19.36269569396973 -20.11070251464844 18.13915252685547 L -23.94368362426758 6.679355621337891 C -23.95802116394043 6.792920589447021 -23.97332000732422 6.906604766845703 -23.98957824707031 7.020403385162354 C -24.07351303100586 7.608121395111084 -24.32430648803711 8.135814666748047 -24.68975257873535 8.558176040649414 C -24.55540657043457 9.060154914855957 -24.55195045471191 9.595038414001465 -24.68991088867188 10.11002826690674 C -25.12095260620117 11.71932029724121 -25.85499382019043 13.22294521331787 -26.87170219421387 14.57911205291748 C -27.84886932373047 15.88261127471924 -29.06536865234375 17.02065277099609 -30.48745155334473 17.96161079406738 C -33.30941009521484 19.82886123657227 -36.76057815551758 20.81586074829102 -40.46791076660156 20.81586074829102 Z" stroke="none" fill="#000"/>
          </g>
        </g>
      </g>
    </g>
    <g id="그룹_116239" data-name="그룹 116239" transform="translate(12.248 0)">
      <g id="그룹_116236" data-name="그룹 116236" transform="translate(139.444 87.359)">
        <g id="그룹_116235" data-name="그룹 116235" transform="translate(0 0)">
        <g class="s1">
          <path id="패스_42645" data-name="패스 42645" d="M7.812,9.256a6.576,6.576,0,0,0,.653,10.29,6.589,6.589,0,1,0,4.687,12.218A6.59,6.59,0,1,0,26,34.139,6.589,6.589,0,0,0,35.486,25a6.678,6.678,0,0,0-.738-.688A6.587,6.587,0,1,0,29.7,12.223,6.589,6.589,0,1,0,16.9,9.5a6.586,6.586,0,0,0-9.092-.246" transform="translate(-3.5 -3.5)" fill="#fff"/>
          <path id="패스_42646" data-name="패스 42646" d="M7.812,9.256a6.576,6.576,0,0,0,.653,10.29,6.589,6.589,0,1,0,4.687,12.218A6.59,6.59,0,1,0,26,34.139,6.589,6.589,0,0,0,35.486,25a6.678,6.678,0,0,0-.738-.688A6.587,6.587,0,1,0,29.7,12.223,6.589,6.589,0,1,0,16.9,9.5,6.586,6.586,0,0,0,7.812,9.256Z" transform="translate(-3.5 -3.5)" fill="none" stroke="#fff" stroke-linecap="round" stroke-linejoin="round" stroke-width="6"/>
          <path id="패스_42647" data-name="패스 42647" d="M7.812,9.256a6.576,6.576,0,0,0,.653,10.29,6.589,6.589,0,1,0,4.687,12.218A6.59,6.59,0,1,0,26,34.139,6.589,6.589,0,0,0,35.486,25a6.678,6.678,0,0,0-.738-.688A6.587,6.587,0,1,0,29.7,12.223,6.589,6.589,0,1,0,16.9,9.5a6.586,6.586,0,0,0-9.092-.246" transform="translate(-3.5 -3.5)" fill="#fff"/>
          <path id="패스_42648" data-name="패스 42648" d="M7.812,9.256a6.576,6.576,0,0,0,.653,10.29,6.589,6.589,0,1,0,4.687,12.218A6.59,6.59,0,1,0,26,34.139,6.589,6.589,0,0,0,35.486,25a6.678,6.678,0,0,0-.738-.688A6.587,6.587,0,1,0,29.7,12.223,6.589,6.589,0,1,0,16.9,9.5,6.586,6.586,0,0,0,7.812,9.256Z" transform="translate(-3.5 -3.5)" fill="none" stroke="#000" stroke-linecap="round" stroke-linejoin="round" stroke-width="3"/>
          <path id="패스_42649" data-name="패스 42649" d="M31.75,37.431a9.752,9.752,0,1,0,13.169-4.1,9.752,9.752,0,0,0-13.169,4.1" transform="translate(-22.523 -23.634)" fill="#fff"/>
          <path id="패스_42650" data-name="패스 42650" d="M31.47,36.127a7.315,7.315,0,1,0,9.878-3.074A7.314,7.314,0,0,0,31.47,36.127Z" transform="translate(-20.085 -21.196)" fill="#f9e606" stroke="#1d1d1d" stroke-linecap="round" stroke-linejoin="round" stroke-width="3"/>
          </g>
        </g>
      </g>
      <g id="그룹_116238" data-name="그룹 116238" transform="translate(333.384 7.217)">
        <g id="그룹_116235-2" data-name="그룹 116235" transform="translate(0 0)">
        <g class="s2">
          <path id="패스_42645-2" data-name="패스 42645" d="M7.812,9.256a6.576,6.576,0,0,0,.653,10.29,6.589,6.589,0,1,0,4.687,12.218A6.59,6.59,0,1,0,26,34.139,6.589,6.589,0,0,0,35.486,25a6.678,6.678,0,0,0-.738-.688A6.587,6.587,0,1,0,29.7,12.223,6.589,6.589,0,1,0,16.9,9.5a6.586,6.586,0,0,0-9.092-.246" transform="translate(-3.5 -3.5)" fill="#fff"/>
          <path id="패스_42646-2" data-name="패스 42646" d="M7.812,9.256a6.576,6.576,0,0,0,.653,10.29,6.589,6.589,0,1,0,4.687,12.218A6.59,6.59,0,1,0,26,34.139,6.589,6.589,0,0,0,35.486,25a6.678,6.678,0,0,0-.738-.688A6.587,6.587,0,1,0,29.7,12.223,6.589,6.589,0,1,0,16.9,9.5,6.586,6.586,0,0,0,7.812,9.256Z" transform="translate(-3.5 -3.5)" fill="none" stroke="#fff" stroke-linecap="round" stroke-linejoin="round" stroke-width="6"/>
          <path id="패스_42647-2" data-name="패스 42647" d="M7.812,9.256a6.576,6.576,0,0,0,.653,10.29,6.589,6.589,0,1,0,4.687,12.218A6.59,6.59,0,1,0,26,34.139,6.589,6.589,0,0,0,35.486,25a6.678,6.678,0,0,0-.738-.688A6.587,6.587,0,1,0,29.7,12.223,6.589,6.589,0,1,0,16.9,9.5a6.586,6.586,0,0,0-9.092-.246" transform="translate(-3.5 -3.5)" fill="#fff"/>
          <path id="패스_42648-2" data-name="패스 42648" d="M7.812,9.256a6.576,6.576,0,0,0,.653,10.29,6.589,6.589,0,1,0,4.687,12.218A6.59,6.59,0,1,0,26,34.139,6.589,6.589,0,0,0,35.486,25a6.678,6.678,0,0,0-.738-.688A6.587,6.587,0,1,0,29.7,12.223,6.589,6.589,0,1,0,16.9,9.5,6.586,6.586,0,0,0,7.812,9.256Z" transform="translate(-3.5 -3.5)" fill="none" stroke="#000" stroke-linecap="round" stroke-linejoin="round" stroke-width="3"/>
          <path id="패스_42649-2" data-name="패스 42649" d="M31.75,37.431a9.752,9.752,0,1,0,13.169-4.1,9.752,9.752,0,0,0-13.169,4.1" transform="translate(-22.523 -23.634)" fill="#fff"/>
          <path id="패스_42650-2" data-name="패스 42650" d="M31.47,36.127a7.315,7.315,0,1,0,9.878-3.074A7.314,7.314,0,0,0,31.47,36.127Z" transform="translate(-20.085 -21.196)" fill="#f9e606" stroke="#1d1d1d" stroke-linecap="round" stroke-linejoin="round" stroke-width="3"/>
          </g>
        </g>
      </g>
      <g id="그룹_116237" data-name="그룹 116237" transform="translate(0 0)">
        <g id="그룹_116235-3" data-name="그룹 116235" transform="translate(0)">
        <g class="s1">
          <path id="패스_42645-3" data-name="패스 42645" d="M7.812,9.256a6.576,6.576,0,0,0,.653,10.29,6.589,6.589,0,1,0,4.687,12.218A6.59,6.59,0,1,0,26,34.139,6.589,6.589,0,0,0,35.486,25a6.678,6.678,0,0,0-.738-.688A6.587,6.587,0,1,0,29.7,12.223,6.589,6.589,0,1,0,16.9,9.5a6.586,6.586,0,0,0-9.092-.246" transform="translate(-3.5 -3.5)" fill="#fff"/>
          <path id="패스_42646-3" data-name="패스 42646" d="M7.812,9.256a6.576,6.576,0,0,0,.653,10.29,6.589,6.589,0,1,0,4.687,12.218A6.59,6.59,0,1,0,26,34.139,6.589,6.589,0,0,0,35.486,25a6.678,6.678,0,0,0-.738-.688A6.587,6.587,0,1,0,29.7,12.223,6.589,6.589,0,1,0,16.9,9.5,6.586,6.586,0,0,0,7.812,9.256Z" transform="translate(-3.5 -3.5)" fill="none" stroke="#fff" stroke-linecap="round" stroke-linejoin="round" stroke-width="6"/>
          <path id="패스_42647-3" data-name="패스 42647" d="M7.812,9.256a6.576,6.576,0,0,0,.653,10.29,6.589,6.589,0,1,0,4.687,12.218A6.59,6.59,0,1,0,26,34.139,6.589,6.589,0,0,0,35.486,25a6.678,6.678,0,0,0-.738-.688A6.587,6.587,0,1,0,29.7,12.223,6.589,6.589,0,1,0,16.9,9.5a6.586,6.586,0,0,0-9.092-.246" transform="translate(-3.5 -3.5)" fill="#fff"/>
          <path id="패스_42648-3" data-name="패스 42648" d="M7.812,9.256a6.576,6.576,0,0,0,.653,10.29,6.589,6.589,0,1,0,4.687,12.218A6.59,6.59,0,1,0,26,34.139,6.589,6.589,0,0,0,35.486,25a6.678,6.678,0,0,0-.738-.688A6.587,6.587,0,1,0,29.7,12.223,6.589,6.589,0,1,0,16.9,9.5,6.586,6.586,0,0,0,7.812,9.256Z" transform="translate(-3.5 -3.5)" fill="none" stroke="#000" stroke-linecap="round" stroke-linejoin="round" stroke-width="3"/>
          <path id="패스_42649-3" data-name="패스 42649" d="M31.75,37.431a9.752,9.752,0,1,0,13.169-4.1,9.752,9.752,0,0,0-13.169,4.1" transform="translate(-22.523 -23.634)" fill="#fff"/>
          <path id="패스_42650-3" data-name="패스 42650" d="M31.47,36.127a7.315,7.315,0,1,0,9.878-3.074A7.314,7.314,0,0,0,31.47,36.127Z" transform="translate(-20.085 -21.196)" fill="#f9e606" stroke="#1d1d1d" stroke-linecap="round" stroke-linejoin="round" stroke-width="3"/>
          </g>
        </g>
      </g>
    </g>
  </g>
</svg>
