<?xml version="1.0" encoding="utf-8"?>
<!-- Generator: Adobe Illustrator 26.1.0, SVG Export Plug-In . SVG Version: 6.00 Build 0)  -->
<svg version="1.1" id="Layer_1" xmlns="http://www.w3.org/2000/svg" xmlns:xlink="http://www.w3.org/1999/xlink" x="0px" y="0px"
	 viewBox="0 0 434 193" style="enable-background:new 0 0 434 193;" xml:space="preserve">
<style type="text/css">
	.st0{clip-path:url(#SVGID_00000048471922935227717630000003121236589313125285_);}
	.st1{fill:#080D4B;}
	.st2{fill:none;stroke:#080D4B;stroke-width:3;stroke-linecap:round;stroke-linejoin:round;}
	.st3{fill:#FD7CBB;}
	.st4{fill:none;stroke:#080D4B;stroke-width:2;stroke-linecap:round;stroke-linejoin:round;}
	.st5{fill:#2ECFFF;}
	.st6{fill:none;stroke:#000000;stroke-width:3;stroke-linecap:round;stroke-linejoin:round;}
	.st7{fill:#2FF483;stroke:#000000;stroke-width:3;}
	.st8{fill:#FEEB00;}
	.st9{fill:none;stroke:#000000;stroke-width:2;stroke-linecap:round;stroke-linejoin:round;}
	.st10{enable-background:new    ;}
	.st11{clip-path:url(#SVGID_00000158009757752785848710000010553434669225666442_);}
	.st12{clip-path:url(#SVGID_00000010308000435396139390000015098790547173824178_);}
	.st13{clip-path:url(#SVGID_00000150798129449118700970000004212921470982666884_);}
	.st14{fill:none;stroke:#080D4B;stroke-width:2;stroke-linecap:round;stroke-linejoin:round;stroke-miterlimit:4;}
	.st15{clip-path:url(#SVGID_00000018933595889517936540000002404494763586178977_);}
	.st16{stroke:#000000;stroke-width:0.5;stroke-miterlimit:10;}
	.st17{fill:#FFFFFF;stroke:#000000;stroke-width:0.5;stroke-miterlimit:10;}
	.st18{stroke:#000000;stroke-miterlimit:10;}
</style>
<g id="Group_109508" transform="translate(119.66 277.348)">
	<g>
		<g>
			<g>
				<defs>
					<rect id="SVGID_1_" x="-50" y="-214" width="318" height="118.3"/>
				</defs>
				<clipPath id="SVGID_00000070812132010792000480000000590670623905509043_">
					<use xlink:href="#SVGID_1_"  style="overflow:visible;"/>
				</clipPath>
				
					<g id="Mask_Group_1215" transform="translate(0 0)" style="clip-path:url(#SVGID_00000070812132010792000480000000590670623905509043_);">
					<path id="Path_36413" class="st1" d="M109.5-97.4c-54.8,0-107.3-5-147.8-14.1l-8.9-2v-79.2l8.9-2c40.5-9.1,93-14.1,147.8-14.1
						s107.3,5,147.8,14.1l8.9,2v79.1l-8.9,2C216.9-102.5,164.4-97.4,109.5-97.4"/>
					<path id="Path_36414" class="st2" d="M109.5-97.4c-54.8,0-107.3-5-147.8-14.1l-8.9-2v-79.2l8.9-2c40.5-9.1,93-14.1,147.8-14.1
						s107.3,5,147.8,14.1l8.9,2v79.1l-8.9,2C216.9-102.5,164.4-97.4,109.5-97.4z"/>
					<path id="Path_36415" class="st3" d="M109.5-100.9c-54.8,0-107.3-5-147.8-14.1l-8.9-2v-79.1l8.9-2c40.5-9.1,93-14.2,147.8-14.2
						s107.3,5,147.8,14.1l8.9,2v79.1l-8.9,2C216.9-105.9,164.4-100.9,109.5-100.9"/>
					<path id="Path_36416" class="st4" d="M109.5-100.9c-54.8,0-107.3-5-147.8-14.1l-8.9-2v-79.1l8.9-2c40.5-9.1,93-14.2,147.8-14.2
						s107.3,5,147.8,14.1l8.9,2v79.1l-8.9,2C216.9-105.9,164.4-100.9,109.5-100.9z"/>
					<path id="Path_36417" class="st5" d="M109.5-200.8c-56.1,0-107.1,5.2-145.3,13.8v60.8c38.2,8.6,89.2,13.9,145.3,13.9
						s107.1-5.3,145.3-13.9V-187C216.6-195.6,165.6-200.8,109.5-200.8"/>
					<path id="Path_36418" class="st6" d="M109.5-200.8c-56.1,0-107.1,5.2-145.3,13.8v60.8c38.2,8.6,89.2,13.9,145.3,13.9
						s107.1-5.3,145.3-13.9V-187C216.6-195.6,165.6-200.8,109.5-200.8z"/>
				</g>
			</g>
		</g>
	</g>
</g>
<path id="화살표" class="st7" d="M57.1,59.7L46.8,76.1l24.9,15.6l-5.5,8.8l33.3-2.8L87.6,66.5l-5.5,8.8L57.1,59.7z"/>
<g id="말풍선" transform="translate(302.605 220.545)">
	<path id="Path_36386" class="st8" d="M52.8-159.8l-77.6,28.3c-4.2,1.5-8.8-0.7-10.3-4.8l-14.4-38.6c-1.5-4.2,0.7-8.8,4.8-10.3
		l77.6-28.3c4.2-1.5,8.8,0.7,10.3,4.8l14.4,38.6C59.2-165.9,57-161.3,52.8-159.8"/>
	<path id="Path_36387" class="st9" d="M51.8-159.8l-76.6,28.3c-4.2,1.5-8.8-0.7-10.3-4.8l-14.4-38.6c-1.5-4.2,0.7-8.8,4.8-10.3
		l76.6-28.3c4.2-1.5,8.8,0.7,10.3,4.8l14.4,38.6C58.2-165.9,56-161.3,51.8-159.8z"/>
	<path id="Path_36409" class="st8" d="M-10.9-141.6l-3.3,17.4c-0.3,1.6,2.1,2.7,2.9,1.4L4-145.9"/>
	<path id="Path_36410" class="st9" d="M-10.9-141.6l-3.3,17.4c-0.3,1.6,2.1,2.7,2.9,1.4L4-145.9"/>
	<g class="st10">
		<path d="M-9.7-176.8c1.3,3.7,0.5,5.9-1.6,6.6c-2.1,0.8-4.1-0.4-5.5-4.1c-1.3-3.7-0.5-5.9,1.6-6.6C-13-181.7-11-180.5-9.7-176.8z
			 M-14.5-175.1c0.9,2.5,1.8,3.1,2.6,2.8c0.7-0.3,1-1.3,0.1-3.8s-1.8-3.1-2.5-2.8C-15.1-178.6-15.4-177.6-14.5-175.1z M-4.1-172.4
			l-2.2,0.8l-4.1-11.2l2.2-0.8L-4.1-172.4z"/>
		<path d="M3.2-180.2l-6.9,2.5l-2.4-6.6l2.2-0.8l0.5,1.4l2.5-0.9l-0.5-1.4l2.2-0.8l0.8,2.2l1.5-0.6l-0.8-2.3l2.2-0.8l3,8.3l-2.2,0.8
			L3.9-183l-1.5,0.6L3.2-180.2z M8-179l0.7,2l-10.2,3.7l-1.4-3.9l2.3-0.8l0.7,1.9L8-179z M0.4-181.2l-0.5-1.5l-2.5,0.9l0.5,1.5
			L0.4-181.2z"/>
		<path d="M15.6-186.1c1.3,3.7,0.5,5.9-1.6,6.6c-2.1,0.8-4.1-0.4-5.5-4.1c-1.3-3.7-0.5-5.9,1.6-6.6
			C12.3-190.9,14.3-189.8,15.6-186.1z M10.8-184.3c0.9,2.5,1.8,3.1,2.5,2.8s1-1.3,0.1-3.8s-1.8-3.1-2.5-2.8
			C10.2-187.8,9.9-186.8,10.8-184.3z M21.2-181.6l-2.2,0.8L14.9-192l2.2-0.8L21.2-181.6z"/>
	</g>
	<g class="st10">
		<path d="M-26.4-157.5l6.5-2.4l3.8,10.5l-6.5,2.4L-26.4-157.5z M-21.2-149.9l2.1-0.8l-2.3-6.3l-2.1,0.8L-21.2-149.9z M-12.8-155.7
			l-1.3,0.5l1.8,5l-2.2,0.8l-4.1-11.2l2.2-0.8l1.5,4.1l1.3-0.5L-12.8-155.7z"/>
		<path d="M-7.4-159l4.8,3l-1.3,2l-3.4-2.3c-0.2,2.3-1.2,4-2.9,4.6l-0.8-2.2c1.6-0.8,1.8-3.6,0.6-7.2l-2.5,0.9l-0.7-2l7.2-2.6l0.7,2
			l-2.4,0.9C-7.8-160.8-7.5-159.9-7.4-159z M-3.4-166.2L0.7-155l-2.2,0.8l-4.1-11.2L-3.4-166.2z"/>
		<path d="M7.8-163.2l-6.9,2.5l-2.2-6.1l6.9-2.5L7.8-163.2z M1.6-160l10-3.6l1.6,4.3l-2.3,0.8l-0.9-2.4l-7.7,2.8L1.6-160z M4-166.7
			l-2.5,0.9l0.9,2.4l2.5-0.9L4-166.7z M11.8-167l-1.3,0.5l0.9,2.5l-2.2,0.8l-2.4-6.7l2.2-0.8l0.7,2.1l1.3-0.5L11.8-167z"/>
		<path d="M22.9-172c1.7,4.6,0.2,8.3-3.8,9.8l-0.8-2.1c2.7-1,3.5-3.6,2.3-6.8l-0.4-1l-4.2,1.5l-0.7-2l6.5-2.4L22.9-172z M29.7-165.5
			l-2.2,0.8l-4.1-11.2l2.2-0.8L29.7-165.5z"/>
		<path d="M36.2-177.3l-7.7,2.8l-0.7-1.9l2.7-1l-0.4-1.1l2.3-0.8l0.4,1.1l2.7-1L36.2-177.3z M35.7-170.5c1-0.4,2.2-0.9,2.7-1.5
			l0.7,2c-0.6,0.6-1.7,1.1-2.8,1.5l-5.1,1.8l-0.7-2l2.8-1l-0.3-0.9c-1.5,0.2-2.7-0.2-3.1-1.4c-0.6-1.5,0.6-2.9,2.6-3.6
			c2-0.7,3.7-0.4,4.3,1.1c0.5,1.2-0.2,2.3-1.5,3.1L35.7-170.5L35.7-170.5z M33.5-172.7c0.8-0.3,1.3-0.7,1.1-1.1
			c-0.1-0.4-0.8-0.4-1.6-0.1c-0.8,0.3-1.3,0.7-1.1,1.1S32.7-172.4,33.5-172.7z M38.3-181.4l4.1,11.2l-2.2,0.8l-4.1-11.2L38.3-181.4z
			"/>
	</g>
</g>
<g class="st10">
	<path d="M123.2,123c-5.4,0-8.7-3.6-8.7-9.9s3.4-9.9,8.7-9.9c5.3,0,8.7,3.5,8.7,9.9C132,119.4,128.6,123,123.2,123z M150.5,131.8
		c0,5.7-7.4,7.7-16.6,7.7s-16.6-2-16.6-7.7s7.4-7.7,16.6-7.7S150.5,126.2,150.5,131.8z M123.2,117.3c1.5,0,2.2-1.5,2.2-4.2
		c0-2.8-0.7-4.2-2.2-4.2s-2.2,1.4-2.2,4.2S121.8,117.3,123.2,117.3z M142.9,131.8c0-1.6-4.1-2.1-9.1-2.1s-9.1,0.5-9.1,2.1
		s4.1,2.1,9.1,2.1S142.9,133.4,142.9,131.8z M140.5,122.9h-6.6v-19.5h6.6v6.1h3v-6.3h6.6v20.9h-6.6v-8h-3V122.9z"/>
	<path d="M190.1,117.3v5.1h-36.3v-5.1h12v-2.2H156v-5h24.9v-1.8H156v-5.1h32V116h-7.1v-0.9H173v2.2
		C173,117.3,190.1,117.3,190.1,117.3z M162.9,134.7h25.5v4.4H156v-9.5h25.1v-1.3h-25.2V124H188v9.4h-25.1V134.7z"/>
	<path d="M305.1,121.7v5.4h-36.3v-5.4H305.1z M270.8,128.8H303v10.8h-7.2v-5.3h-25.1v-5.5H270.8z M303.4,120.2h-32.3v-16.9H303v4.7
		h-24.9v1.7h24.3v4.2h-24.3v1.7h25.3V120.2z"/>
	<path d="M309.3,104.1h20.3v9.7c0,14.6-7.9,23.7-20.3,23.7v-6.7c8.6-0.1,13.1-6.4,13.1-16.9v-3.2h-13.1V104.1z M346.2,123.2H342
		v15.9h-7.1v-35.9h7.1v13.1h4.2V123.2z"/>
</g>
<path id="Path_38177" class="st3" d="M386.1,63.8l4.5-16.7l6.5,5.9l-6.6,11.1L386.1,63.8z"/>
<g id="Group_112067">
	<g>
		<g>
			<g>
				<defs>
					
						<rect id="SVGID_00000017516615948761426730000008381598700674844085_" x="382" y="46.5" transform="matrix(0.1736 -0.9848 0.9848 0.1736 269.6197 439.768)" width="29.6" height="25.4"/>
				</defs>
				<clipPath id="SVGID_00000164502276699038907830000005716861445190150820_">
					<use xlink:href="#SVGID_00000017516615948761426730000008381598700674844085_"  style="overflow:visible;"/>
				</clipPath>
				<g id="Group_112066" style="clip-path:url(#SVGID_00000164502276699038907830000005716861445190150820_);">
					<path id="Path_38178" class="st4" d="M386.1,63.8l4.5-16.7l6.5,5.9l-6.6,11.1L386.1,63.8z"/>
				</g>
			</g>
		</g>
	</g>
</g>
<path id="Path_38179" class="st3" d="M397,66.3l12.9-9l1.1,7.4l-12.2,5.1L397,66.3z"/>
<g>
	<g>
		<g>
			<defs>
				
					<rect id="SVGID_00000061454504414163537390000006086144242818487724_" x="382" y="46.5" transform="matrix(0.1736 -0.9848 0.9848 0.1736 269.6197 439.768)" width="29.6" height="25.4"/>
			</defs>
			<clipPath id="SVGID_00000132071604209195196020000006884228993142726311_">
				<use xlink:href="#SVGID_00000061454504414163537390000006086144242818487724_"  style="overflow:visible;"/>
			</clipPath>
			<g id="Group_112068" style="clip-path:url(#SVGID_00000132071604209195196020000006884228993142726311_);">
				<path id="Path_38180" class="st4" d="M397,66.3l4.1-2.9l8.7-6.1l1.1,7.4l-12.2,5.1L397,66.3z"/>
			</g>
		</g>
	</g>
</g>
<g id="Group_112071" transform="translate(98.689 406.889) rotate(-106)">
	<path id="Path_38177-2" class="st3" d="M230.9,34.8L221,20.6l8.7-1.2l4.2,12.2L230.9,34.8z"/>
	<g id="Group_112067-2">
		<g>
			<g>
				<g>
					<defs>
						
							<rect id="SVGID_00000084499225420039694980000011605163441340195211_" x="221.6" y="8.8" transform="matrix(0.6692 -0.7431 0.7431 0.6692 59.9885 181.9312)" width="25.4" height="29.6"/>
					</defs>
					<clipPath id="SVGID_00000148636349133432888270000010384491061170780840_">
						<use xlink:href="#SVGID_00000084499225420039694980000011605163441340195211_"  style="overflow:visible;"/>
					</clipPath>
					<g id="Group_112066-2" style="clip-path:url(#SVGID_00000148636349133432888270000010384491061170780840_);">
						<path id="Path_38178-2" class="st14" d="M230.9,34.8L221,20.6l8.7-1.2l4.2,12.2L230.9,34.8z"/>
					</g>
				</g>
			</g>
		</g>
	</g>
	<path id="Path_38179-2" class="st3" d="M239.8,28l1.4-15.6l6.4,3.9l-3.9,12.6L239.8,28z"/>
	<g id="Group_112069-2">
		<g>
			<g>
				<g>
					<defs>
						
							<rect id="SVGID_00000137096432186724915550000017650291912957665160_" x="221.6" y="8.8" transform="matrix(0.6692 -0.7431 0.7431 0.6692 59.9885 181.9312)" width="25.4" height="29.6"/>
					</defs>
					<clipPath id="SVGID_00000165202093292550088270000014538417005206636468_">
						<use xlink:href="#SVGID_00000137096432186724915550000017650291912957665160_"  style="overflow:visible;"/>
					</clipPath>
					<g id="Group_112068-2" style="clip-path:url(#SVGID_00000165202093292550088270000014538417005206636468_);">
						<path id="Path_38180-2" class="st14" d="M239.8,28l0.4-5l0.9-10.6l6.4,3.9l-3.8,12.6L239.8,28z"/>
					</g>
				</g>
			</g>
		</g>
	</g>
</g>
<g id="h3">
	<g id="clap_h1">
		<g>
			<path class="st16" d="M208.7,101.2c0,0-0.9-3.7,3.1-4.6c0,0,1.7-1,4,0.8c0,0,6.8,4.1,13.5,14.8c0,0,0.4-3.5,2.9-5.1
				c0,0,1.9-1.6,3.2-0.3c0,0,0.8,1.5,1.4,2.5c0,0,5.9,8.3,8,12.7c0,0,3.1,3.8,3.1,11.3c0,0,0.4,7.2-1.9,12.3s-0.3,0-0.3,0
				s-5.5,12.1-17.1,12.3c0,0-8.8,0.1-15.8-6.3c0,0-13.9-17.3-15.9-26c0,0-1.1-5.6,2.1-5.9c0,0,1.1-0.4,1.9,0c0,0-4.1-4.3-4.2-6.2
				c0,0-1.4-5.5,2.5-6.3c0,0,0.6-0.4,2.2,0.6c0,0-2.1-2.4-1.2-5.4c0,0,0.1-2.4,3.8-2.8C204.1,99.5,206.9,98.9,208.7,101.2z"/>
			<path class="st17" d="M234.8,109.3c0,0,1.7,3.5,3.4,5.3c0,0,7.3,9.3,7.9,20.2c0,0,1,13.2-11.3,19c0,0-11,5.2-19.5-3
				c0,0-13.6-16-16.3-24.3c0,0-1.4-4.3,1-5.3c0,0,1.4-0.7,2.5,0.3c1.1,1,9,13.4,9,13.4s0.9,0.9,1.6,0.2s-1-3.1-3.2-6.4
				c0,0-7.3-10.2-10.6-13.7c0,0-2-3.9,0.1-5.6c0,0,1-1.1,3.6,0.8c0,0,3.5,2.4,14.1,17.2c0,0,1.8,1,1.1-1.3c0,0-6.3-10.6-15.1-18.5
				c0,0-2-1.6-1.4-4.5c0,0,0.6-2.1,3.5-1.8c0,0,0.6-0.9,6.6,5.3c0,0,6.7,7.5,12.1,16.8c0,0,1.3,0.7,1.6-0.7c0,0,0.5-0.7-2.5-5.1
				s-7.4-11-11.6-14.5c0,0-2.2-2.6-0.5-4c0,0,1.3-1.3,2.9-0.9c0,0,2.5,0.5,8.7,7.9c0,0,10.4,13.9,13.5,21.4c0,0,1.9,2.2,2,0.2
				c0,0-2.6-6.5-5.4-10.2c0,0-2.3-4.2-0.5-7C232,110.4,233.5,107.2,234.8,109.3z"/>
		</g>
	</g>
</g>
<g id="h2">
	<g id="clap_h2">
		<g>
			<path class="st18" d="M217.4,97.8c0,0-0.9-3.9,3.2-4.7c0,0,1.7-1,4.1,0.9c0,0,7,4.3,13.9,15.4c0,0,0.4-3.6,3-5.3
				c0,0,1.9-1.7,3.3-0.3c0,0,0.8,1.6,1.5,2.6c0,0,6.1,8.7,8.2,13.2c0,0,3.1,4,3.2,11.8c0,0,0.4,7.5-2,12.8c-3,5.1,0,0,0,0
				s-5.9,12.6-17.8,12.8c0,0-9.1,0.1-16.2-6.6c0,0-14.2-18-16.3-27.1c0,0-1.1-5.9,2.1-6.1c0,0,1.1-0.4,1.9,0c0,0-4.2-4.5-4.3-6.5
				c0,0-1.4-5.7,2.5-6.5c0,0,0.7-0.4,2.3,0.6c0,0-2.2-2.5-1.2-5.6c0,0,0.1-2.5,3.9-2.9C212.7,96,215.5,95.4,217.4,97.8z"/>
			<path class="st17" d="M244.1,106.3c0,0,1.7,3.6,3.5,5.5c0,0,7.4,9.7,8.1,21c0,0,1.1,13.7-11.6,19.8c0,0-11.3,5.5-20-3.1
				c0,0-13.9-16.6-16.6-25.3c0,0-1.5-4.5,1.1-5.5c0,0,1.4-0.7,2.5,0.3c1.1,1.1,9.2,13.9,9.2,13.9s0.9,0.9,1.6,0.2s-1-3.2-3.3-6.7
				c0,0-7.5-10.6-10.9-14.2c0,0-2-4.1,0.1-5.9c0,0,1.1-1.1,3.7,0.8c0,0,3.5,2.5,14.5,17.9c0,0,1.8,1.1,1.1-1.4c0,0-6.5-11-15.5-19.2
				c0,0-2-1.7-1.5-4.7c0,0,0.6-2.2,3.6-1.9c0,0,0.6-0.9,6.7,5.5c0,0,6.9,7.8,12.4,17.4c0,0,1.3,0.7,1.6-0.7c0,0,0.5-0.7-2.6-5.3
				s-7.6-11.5-11.9-15.1c0,0-2.3-2.7-0.5-4.2c0,0,1.3-1.4,3-0.9c0,0,2.6,0.5,8.9,8.2c0,0,10.7,14.5,13.8,22.2c0,0,1.9,2.3,2.1,0.2
				c0,0-2.7-6.7-5.5-10.6c0,0-2.4-4.4-0.5-7.3C241.2,107.3,242.7,104.1,244.1,106.3z"/>
		</g>
	</g>
</g>
<g id="h1">
	<g id="clap">
		<path d="M237.7,93.3l1.6-9.4c0,0-0.2-1.8,1.7-1.4c0,0,3.4,0.6,5.9,4.3c0,0,0.3,0.6-0.7,1.4s-7.9,5.6-7.9,5.6
			S237.5,94.2,237.7,93.3z"/>
		<path d="M241.9,97.2l5.8-5.2c0,0,0.8-1.2,1.7-0.1c0,0,1.8,2,1.4,5.5c0,0-0.1,0.5-1.1,0.5s-7.7-0.2-7.7-0.2S241.4,97.7,241.9,97.2z
			"/>
		<path d="M232.7,93.3l-4.6-5.7c0,0-1.1-0.8,0.1-1.7c0,0,2.1-1.7,5.6-1.3c0,0,0.5,0.1,0.4,1.1s-0.9,7.4-0.9,7.4
			S233.1,93.8,232.7,93.3z"/>
	</g>
</g>
</svg>
