<?xml version="1.0" encoding="utf-8"?>
<!-- Generator: Adobe Illustrator 26.1.0, SVG Export Plug-In . SVG Version: 6.00 Build 0)  -->
<svg version="1.1" id="Layer_1" xmlns="http://www.w3.org/2000/svg" xmlns:xlink="http://www.w3.org/1999/xlink" x="0px" y="0px"
	 viewBox="0 0 434 193" style="enable-background:new 0 0 434 193;" xml:space="preserve">
<style type="text/css">
	.st0{clip-path:url(#SVGID_00000008855659706987039200000005606000507628468353_);}
	.st1{fill:#080D4B;}
	.st2{fill:none;stroke:#080D4B;stroke-width:3;stroke-linecap:round;stroke-linejoin:round;}
	.st3{fill:#FD7CBB;}
	.st4{fill:none;stroke:#080D4B;stroke-width:2;stroke-linecap:round;stroke-linejoin:round;}
	.st5{fill:#2ECFFF;}
	.st6{fill:none;stroke:#000000;stroke-width:3;stroke-linecap:round;stroke-linejoin:round;}
	.st7{fill:#2FF483;stroke:#000000;stroke-width:3;}
	.st8{fill:#FEEB00;}
	.st9{fill:none;stroke:#000000;stroke-width:2;stroke-linecap:round;stroke-linejoin:round;}
	.st10{enable-background:new    ;}
	.st11{clip-path:url(#SVGID_00000155852429623197338250000014883498421878526865_);}
	.st12{fill:none;stroke:#080D4B;stroke-width:2;stroke-linecap:round;stroke-linejoin:round;stroke-miterlimit:4;}
	.st13{clip-path:url(#SVGID_00000021099374928040459830000015564123190339029910_);}
	.st14{clip-path:url(#SVGID_00000144323795658953675150000002206047220793663650_);}
	.st15{clip-path:url(#SVGID_00000029011418538226485940000012679261119610591152_);}
</style>
<g id="Group_109508" transform="translate(119.66 277.348)">
	<g>
		<g>
			<defs>
				<rect id="SVGID_1_" x="-50" y="-214" width="318" height="118.3"/>
			</defs>
			<clipPath id="SVGID_00000006671522260430205930000004299128074097608331_">
				<use xlink:href="#SVGID_1_"  style="overflow:visible;"/>
			</clipPath>
			
				<g id="Mask_Group_1215" transform="translate(0 0)" style="clip-path:url(#SVGID_00000006671522260430205930000004299128074097608331_);">
				<path id="Path_36413" class="st1" d="M109.5-97.4c-54.8,0-107.3-5-147.8-14.1l-8.9-2v-79.2l8.9-2c40.5-9.1,93-14.1,147.8-14.1
					s107.3,5,147.8,14.1l8.9,2v79.1l-8.9,2C216.9-102.5,164.4-97.4,109.5-97.4"/>
				<path id="Path_36414" class="st2" d="M109.5-97.4c-54.8,0-107.3-5-147.8-14.1l-8.9-2v-79.2l8.9-2c40.5-9.1,93-14.1,147.8-14.1
					s107.3,5,147.8,14.1l8.9,2v79.1l-8.9,2C216.9-102.5,164.4-97.4,109.5-97.4z"/>
				<path id="Path_36415" class="st3" d="M109.5-100.9c-54.8,0-107.3-5-147.8-14.1l-8.9-2v-79.1l8.9-2c40.5-9.1,93-14.2,147.8-14.2
					s107.3,5,147.8,14.1l8.9,2v79.1l-8.9,2C216.9-105.9,164.4-100.9,109.5-100.9"/>
				<path id="Path_36416" class="st4" d="M109.5-100.9c-54.8,0-107.3-5-147.8-14.1l-8.9-2v-79.1l8.9-2c40.5-9.1,93-14.2,147.8-14.2
					s107.3,5,147.8,14.1l8.9,2v79.1l-8.9,2C216.9-105.9,164.4-100.9,109.5-100.9z"/>
				<path id="Path_36417" class="st5" d="M109.5-200.8c-56.1,0-107.1,5.2-145.3,13.8v60.8c38.2,8.6,89.2,13.9,145.3,13.9
					s107.1-5.3,145.3-13.9V-187C216.6-195.6,165.6-200.8,109.5-200.8"/>
				<path id="Path_36418" class="st6" d="M109.5-200.8c-56.1,0-107.1,5.2-145.3,13.8v60.8c38.2,8.6,89.2,13.9,145.3,13.9
					s107.1-5.3,145.3-13.9V-187C216.6-195.6,165.6-200.8,109.5-200.8z"/>
			</g>
		</g>
	</g>
</g>
<path id="화살표" class="st7" d="M57.1,59.7L46.8,76.1l24.9,15.6l-5.5,8.8l33.3-2.8L87.6,66.5l-5.5,8.8L57.1,59.7z"/>
<image style="overflow:visible;enable-background:new    ;" width="254" height="319" id="손" xlink:href="1A3B5CBA.png"  transform="matrix(0.2573 0 0 0.2573 198.3179 78.6397)">
</image>
<g id="말풍선" transform="translate(302.605 220.545)">
	<path id="Path_36386" class="st8" d="M52.8-159.8l-77.6,28.3c-4.2,1.5-8.8-0.7-10.3-4.8l-14.4-38.6c-1.5-4.2,0.7-8.8,4.8-10.3
		l77.6-28.3c4.2-1.5,8.8,0.7,10.3,4.8l14.4,38.6C59.2-165.9,57-161.3,52.8-159.8"/>
	<path id="Path_36387" class="st9" d="M51.8-159.8l-76.6,28.3c-4.2,1.5-8.8-0.7-10.3-4.8l-14.4-38.6c-1.5-4.2,0.7-8.8,4.8-10.3
		l76.6-28.3c4.2-1.5,8.8,0.7,10.3,4.8l14.4,38.6C58.2-165.9,56-161.3,51.8-159.8z"/>
	<path id="Path_36409" class="st8" d="M-10.9-141.6l-3.3,17.4c-0.3,1.6,2.1,2.7,2.9,1.4L4-145.9"/>
	<path id="Path_36410" class="st9" d="M-10.9-141.6l-3.3,17.4c-0.3,1.6,2.1,2.7,2.9,1.4L4-145.9"/>
	<g class="st10">
		<path d="M-9.7-176.8c1.3,3.7,0.5,5.9-1.6,6.6c-2.1,0.8-4.1-0.4-5.5-4.1c-1.3-3.7-0.5-5.9,1.6-6.6C-13-181.7-11-180.5-9.7-176.8z
			 M-14.5-175.1c0.9,2.5,1.8,3.1,2.6,2.8c0.7-0.3,1-1.3,0.1-3.8c-0.9-2.5-1.8-3.1-2.5-2.8C-15.1-178.6-15.4-177.6-14.5-175.1z
			 M-4.1-172.4l-2.2,0.8l-4.1-11.2l2.2-0.8L-4.1-172.4z"/>
		<path d="M3.2-180.2l-6.9,2.5l-2.4-6.6l2.2-0.8l0.5,1.4l2.5-0.9l-0.5-1.4l2.2-0.8l0.8,2.2l1.5-0.6l-0.8-2.3l2.2-0.8l3,8.3l-2.2,0.8
			L3.9-183l-1.5,0.6L3.2-180.2z M8-179l0.7,2l-10.2,3.7l-1.4-3.9l2.3-0.8l0.7,1.9L8-179z M0.4-181.2l-0.5-1.5l-2.5,0.9l0.5,1.5
			L0.4-181.2z"/>
		<path d="M15.6-186.1c1.3,3.7,0.5,5.9-1.6,6.6c-2.1,0.8-4.1-0.4-5.5-4.1c-1.3-3.7-0.5-5.9,1.6-6.6
			C12.3-190.9,14.3-189.8,15.6-186.1z M10.8-184.3c0.9,2.5,1.8,3.1,2.5,2.8c0.7-0.3,1-1.3,0.1-3.8c-0.9-2.5-1.8-3.1-2.5-2.8
			C10.2-187.8,9.9-186.8,10.8-184.3z M21.2-181.6l-2.2,0.8L14.9-192l2.2-0.8L21.2-181.6z"/>
	</g>
	<g class="st10">
		<path d="M-26.4-157.5l6.5-2.4l3.8,10.5l-6.5,2.4L-26.4-157.5z M-21.2-149.9l2.1-0.8l-2.3-6.3l-2.1,0.8L-21.2-149.9z M-12.8-155.7
			l-1.3,0.5l1.8,5l-2.2,0.8l-4.1-11.2l2.2-0.8l1.5,4.1l1.3-0.5L-12.8-155.7z"/>
		<path d="M-7.4-159l4.8,3l-1.3,2l-3.4-2.3c-0.2,2.3-1.2,4-2.9,4.6l-0.8-2.2c1.6-0.8,1.8-3.6,0.6-7.2l-2.5,0.9l-0.7-2l7.2-2.6l0.7,2
			l-2.4,0.9C-7.8-160.8-7.5-159.9-7.4-159z M-3.4-166.2L0.7-155l-2.2,0.8l-4.1-11.2L-3.4-166.2z"/>
		<path d="M7.8-163.2l-6.9,2.5l-2.2-6.1l6.9-2.5L7.8-163.2z M1.6-160l10-3.6l1.6,4.3l-2.3,0.8l-0.9-2.4l-7.7,2.8L1.6-160z M4-166.7
			l-2.5,0.9l0.9,2.4l2.5-0.9L4-166.7z M11.8-167l-1.3,0.5l0.9,2.5l-2.2,0.8l-2.4-6.7l2.2-0.8l0.7,2.1l1.3-0.5L11.8-167z"/>
		<path d="M22.9-172c1.7,4.6,0.2,8.3-3.8,9.8l-0.8-2.1c2.7-1,3.5-3.6,2.3-6.8l-0.4-1l-4.2,1.5l-0.7-2l6.5-2.4L22.9-172z M29.7-165.5
			l-2.2,0.8l-4.1-11.2l2.2-0.8L29.7-165.5z"/>
		<path d="M36.2-177.3l-7.7,2.8l-0.7-1.9l2.7-1l-0.4-1.1l2.3-0.8l0.4,1.1l2.7-1L36.2-177.3z M35.7-170.5c1-0.4,2.2-0.9,2.7-1.5
			l0.7,2c-0.6,0.6-1.7,1.1-2.8,1.5l-5.1,1.8l-0.7-2l2.8-1l-0.3-0.9c-1.5,0.2-2.7-0.2-3.1-1.4c-0.6-1.5,0.6-2.9,2.6-3.6
			c2-0.7,3.7-0.4,4.3,1.1c0.5,1.2-0.2,2.3-1.5,3.1l0.3,0.9L35.7-170.5z M33.5-172.7c0.8-0.3,1.3-0.7,1.1-1.1
			c-0.1-0.4-0.8-0.4-1.6-0.1c-0.8,0.3-1.3,0.7-1.1,1.1C32.1-172.4,32.7-172.4,33.5-172.7z M38.3-181.4l4.1,11.2l-2.2,0.8l-4.1-11.2
			L38.3-181.4z"/>
	</g>
</g>
<g class="st10">
	<path d="M123.2,123c-5.4,0-8.7-3.6-8.7-9.9c0-6.3,3.4-9.9,8.7-9.9s8.7,3.5,8.7,9.9C132,119.4,128.6,123,123.2,123z M150.5,131.8
		c0,5.7-7.4,7.7-16.6,7.7s-16.6-2-16.6-7.7c0-5.7,7.4-7.7,16.6-7.7S150.5,126.2,150.5,131.8z M123.2,117.3c1.5,0,2.2-1.5,2.2-4.2
		c0-2.8-0.7-4.2-2.2-4.2c-1.5,0-2.2,1.4-2.2,4.2C121,115.9,121.8,117.3,123.2,117.3z M142.9,131.8c0-1.6-4.1-2.1-9.1-2.1
		s-9.1,0.5-9.1,2.1c0,1.6,4.1,2.1,9.1,2.1S142.9,133.4,142.9,131.8z M140.5,122.9h-6.6v-19.5h6.6v6.1h3v-6.3h6.6v20.9h-6.6v-8h-3
		V122.9z"/>
	<path d="M190.1,117.3v5.1h-36.3v-5.1h12v-2.2H156v-5h24.9v-1.8H156v-5.1H188V116h-7.1v-0.9H173v2.2H190.1z M162.9,134.7h25.5v4.4
		H156v-9.5h25.1v-1.3h-25.2V124H188v9.4h-25.1V134.7z"/>
	<path d="M305.1,121.7v5.4h-36.3v-5.4H305.1z M270.8,128.8H303v10.8h-7.2v-5.3h-25.1V128.8z M303.4,120.2h-32.3v-16.9H303v4.7h-24.9
		v1.7h24.3v4.2h-24.3v1.7h25.3V120.2z"/>
	<path d="M309.3,104.1h20.3v9.7c0,14.6-7.9,23.7-20.3,23.7v-6.7c8.6-0.1,13.1-6.4,13.1-16.9v-3.2h-13.1V104.1z M346.2,123.2H342
		v15.9h-7.1v-35.9h7.1v13.1h4.2V123.2z"/>
</g>
<path id="Path_38177" class="st3" d="M386.1,63.8l4.5-16.7l6.5,5.9l-6.6,11.1L386.1,63.8z"/>
<g id="Group_112067">
	<g>
		<g>
			<defs>
				
					<rect id="SVGID_00000116196954444149002930000017433625023136923327_" x="382" y="46.5" transform="matrix(0.1736 -0.9848 0.9848 0.1736 269.6605 439.7229)" width="29.6" height="25.4"/>
			</defs>
			<clipPath id="SVGID_00000004525500732081731730000013797428697521087383_">
				<use xlink:href="#SVGID_00000116196954444149002930000017433625023136923327_"  style="overflow:visible;"/>
			</clipPath>
			<g id="Group_112066" style="clip-path:url(#SVGID_00000004525500732081731730000013797428697521087383_);">
				<path id="Path_38178" class="st12" d="M386.1,63.8l4.5-16.7l6.5,5.9l-6.6,11.1L386.1,63.8z"/>
			</g>
		</g>
	</g>
</g>
<path id="Path_38179" class="st3" d="M397,66.3l12.9-9l1.1,7.4l-12.2,5.1L397,66.3z"/>
<g>
	<g>
		<defs>
			
				<rect id="SVGID_00000113351474264074120500000008693737528158100111_" x="382" y="46.5" transform="matrix(0.1736 -0.9848 0.9848 0.1736 269.6605 439.7229)" width="29.6" height="25.4"/>
		</defs>
		<clipPath id="SVGID_00000016771415289166124690000003493416986188610966_">
			<use xlink:href="#SVGID_00000113351474264074120500000008693737528158100111_"  style="overflow:visible;"/>
		</clipPath>
		<g id="Group_112068" style="clip-path:url(#SVGID_00000016771415289166124690000003493416986188610966_);">
			<path id="Path_38180" class="st12" d="M397,66.3l4.1-2.9l8.7-6.1l1.1,7.4l-12.2,5.1L397,66.3z"/>
		</g>
	</g>
</g>
<g id="Group_112071" transform="translate(98.689 406.889) rotate(-106)">
	<path id="Path_38177-2" class="st3" d="M230.9,34.8L221,20.6l8.7-1.2l4.2,12.2L230.9,34.8z"/>
	<g id="Group_112067-2">
		<g>
			<g>
				<defs>
					
						<rect id="SVGID_00000110444672812524714480000000840900157639398565_" x="219.5" y="10.9" transform="matrix(0.8481 -0.5299 0.5299 0.8481 23.1029 127.7339)" width="29.6" height="25.4"/>
				</defs>
				<clipPath id="SVGID_00000127006659298959677150000016703411513104123049_">
					<use xlink:href="#SVGID_00000110444672812524714480000000840900157639398565_"  style="overflow:visible;"/>
				</clipPath>
				<g id="Group_112066-2" style="clip-path:url(#SVGID_00000127006659298959677150000016703411513104123049_);">
					<path id="Path_38178-2" class="st4" d="M230.9,34.8L221,20.6l8.7-1.2l4.2,12.2L230.9,34.8z"/>
				</g>
			</g>
		</g>
	</g>
	<path id="Path_38179-2" class="st3" d="M239.8,28l1.4-15.6l6.4,3.9l-3.9,12.6L239.8,28z"/>
	<g id="Group_112069-2">
		<g>
			<g>
				<defs>
					
						<rect id="SVGID_00000001651674394529773450000015446803751923708584_" x="219.5" y="10.9" transform="matrix(0.8481 -0.5299 0.5299 0.8481 23.1029 127.7339)" width="29.6" height="25.4"/>
				</defs>
				<clipPath id="SVGID_00000072966042911252440930000005673607125516050306_">
					<use xlink:href="#SVGID_00000001651674394529773450000015446803751923708584_"  style="overflow:visible;"/>
				</clipPath>
				<g id="Group_112068-2" style="clip-path:url(#SVGID_00000072966042911252440930000005673607125516050306_);">
					<path id="Path_38180-2" class="st4" d="M239.8,28l0.4-5l0.9-10.6l6.4,3.9l-3.8,12.6L239.8,28z"/>
				</g>
			</g>
		</g>
	</g>
</g>
</svg>
