<svg xmlns="http://www.w3.org/2000/svg" xmlns:xlink="http://www.w3.org/1999/xlink" width="607.703" height="68.405" viewBox="0 0 607.703 68.405">
<style type="text/css">
.star {animation:star linear both infinite 3s;}
.star.s1 {transform-origin: 0% 0%;}
.star.s2 {transform-origin: 0% 0%; animation-delay:0.4s;}
@keyframes star {
25% {transform:scale(0.4);opacity:0;}	
50% {transform:scale(1.1);opacity:1;}
75% {transform:scale(0.6);}
100% {transform:scale(1);}
}
</style>
  <defs>
    <pattern id="pattern" preserveAspectRatio="none" width="100%" height="100%" viewBox="0 0 514 232">
      
    </pattern>
    <filter id="패스_38789" x="0" y="16.305" width="535.76" height="39.297" filterUnits="userSpaceOnUse">
      <feOffset dx="3" dy="3" input="SourceAlpha"/>
      <feGaussianBlur result="blur"/>
      <feFlood/>
      <feComposite operator="in" in2="blur"/>
      <feComposite in="SourceGraphic"/>
    </filter>
    <filter id="패스_38790" x="167.593" y="13.472" width="79.113" height="44.416" filterUnits="userSpaceOnUse">
      <feOffset dx="3" dy="3" input="SourceAlpha"/>
      <feGaussianBlur result="blur-2"/>
      <feFlood/>
      <feComposite operator="in" in2="blur-2"/>
      <feComposite in="SourceGraphic"/>
    </filter>
  </defs>
  <g id="title" transform="translate(26.38 -220.595)">
    <g transform="matrix(1, 0, 0, 1, -26.38, 220.59)" filter="url(#패스_38789)">
      <path id="패스_38789-2" data-name="패스 38789" d="M-255.3-17.52h-4V-30h-6.76V4.16h6.76V-10.96h4Zm-20.04-11.56-6.88-.24c-.04,14.28-3.68,24.28-9.16,24.92V2.56c5.2-.04,9.48-3.6,12.28-10l6.8,9.96,5.52-3.88-9.88-13.92A67.622,67.622,0,0,0-275.34-29.08Zm57.52,5.28h-4V-30h-6.76v19.92h6.76v-7.16h4Zm-35.32,1.28v11.84h14.8a23.434,23.434,0,0,0,8.16-1.2v-5.04a23.534,23.534,0,0,1-7.88,1.12h-8.4v-1.96h13.72V-29.6h-20.48v5.12h13.8v1.96Zm1.16,26.68h30.16V-8.88h-30.16Zm6.72-7.76h16.72v2.48h-16.72ZM-183.94-30h-30.4v11.84h30.8V-23h-24.08v-2.16h23.68Zm2.08,13.28h-34.56v4.92h34.56Zm-2,6.32h-30.6v4.24h24v1.24h-23.92V4.16h30.88V-.12h-24.28V-1.36h23.92ZM-145.9-30h-6.76V4.16h6.76Zm-21.28.4c-6.44,0-10.76,5.04-10.76,16.28s4.32,16.28,10.76,16.28,10.72-5.04,10.72-16.28S-160.74-29.6-167.18-29.6Zm0,6.2c2.24,0,4.04,2.44,4.04,10.08,0,7.68-1.8,10.08-4.04,10.08-2.28,0-4.08-2.4-4.08-10.08C-171.26-20.96-169.46-23.4-167.18-23.4Zm149.4,7.92,9.2,4.76,2.92-5.04-9.08-4.6c.2-.56.36-1.12.52-1.68h7.68v-5.44h-7.52V-30.6h-6.88v3.12h-7.52v5.44h7.28a8.693,8.693,0,0,1-7.68,5.92v5.68A15.693,15.693,0,0,0-17.78-15.48ZM2.82-23.8V-30H-3.94v19.68H2.82v-6.92h4V-23.8ZM-8.14-4H2.82V-9.12H-27.34V-4H-15.9c-2.2,1.84-6.76,2.72-11.8,2.72V4.16c5.56,0,11.12-.8,15-3.08L2.46,4.6,3.86-.8-8.54-3.12A5.889,5.889,0,0,0-8.14-4ZM44.3-17.52h-4V-30H33.54V4.16H40.3V-10.96h4ZM19.46-29.6c-6.36,0-10.6,5.04-10.6,16.28S13.1,2.96,19.46,2.96,30.02-2.08,30.02-13.32,25.82-29.6,19.46-29.6Zm0,26.36c-2.24,0-3.92-2.4-3.92-10.08,0-7.64,1.68-10.08,3.92-10.08,2.2,0,3.88,2.44,3.88,10.08C23.34-5.64,21.66-3.24,19.46-3.24Zm46.92-9v-2.48h11.8V-30h-6.6v2.6H54.38V-30h-6.6v15.28h11.8v2.48H45.7v5.52H80.26v-5.52Zm-12-10.2h17.2v2.64H54.38Zm.2,17.12H47.7V4.16H78.66V-1.4H54.58ZM126.42-30h-6.76V-4.72h6.76Zm-21.92.04c-6.68,0-11.24,4.08-11.24,10.24,0,6.2,4.56,10.24,11.24,10.24s11.24-4.04,11.24-10.24C115.74-25.88,111.18-29.96,104.5-29.96Zm0,5.64a4.262,4.262,0,0,1,4.52,4.6,4.262,4.262,0,0,1-4.52,4.6,4.262,4.262,0,0,1-4.52-4.6A4.262,4.262,0,0,1,104.5-24.32ZM103.14-7.8H96.26V4.16H126.9V-1.92H103.14ZM163.9-30h-6.76V4.16h6.76Zm-12.04.8H132.18v6.16h12.76v3.08c0,9.88-4.48,16.04-12.76,16.12v6.4c11.96,0,19.68-8.64,19.68-22.52ZM194.78-4.68h6.76V-30h-6.76v4.44h-6.16v6.2h6.16ZM180.1-16.04l8.08,6.72,4.16-4.6-9.56-7.56a23.912,23.912,0,0,0,1.32-7.96l-6.8-.4c-.12,7.64-3.72,13.96-9.04,14.6v6.28C173.14-9.24,177.26-12,180.1-16.04ZM177.86-1.88V-7.8h-6.88V4.16h31.04V-1.88ZM238.3-30H207.9v12h30.4Zm-6.68,7.16H214.58v-2.32h17.04Zm8.76,11.04v-4.92H205.82v4.92h13.92v1.48H207.78v4.24h24v1.2H207.86V4.16h30.88V-.12H214.46v-1.2h23.92v-9H226.46V-11.8Z" transform="translate(291.88 47.41)" fill="#fff" stroke="#000" stroke-width="1"/>
    </g>
    <g transform="matrix(1, 0, 0, 1, -26.38, 220.59)" filter="url(#패스_38790)">
    <g class="text">
      <path id="패스_38790-2" data-name="패스 38790" d="M-4.137-25.746V-31.5h-7.1v17.766h7.1v-5.124h4.2v-6.888Zm-11-5.334H-37.023v17.472h21.882ZM-22.155-19.4h-7.854v-5.88h7.854Zm13.272,6.8h-6.972v2.016h-6.132v4.7H-2.835v-4.7H-8.883Zm-20.076,1.554h-6.888V4.368h13.86V-1.176h-6.972Zm16.59,5.964c-5,0-8.568,1.68-8.568,5.082s3.57,5.082,8.568,5.082S-3.8,3.4-3.8,0-7.371-5.082-12.369-5.082Zm0,6.048c-1.638,0-2.688-.378-2.688-.966s1.05-.966,2.688-.966S-9.681-.588-9.681,0-10.731.966-12.369.966ZM36.225-31.5h-7.1V4.368h7.1Zm-22.344.42c-6.762,0-11.3,5.292-11.3,17.094S7.119,3.108,13.881,3.108,25.137-2.184,25.137-13.986,20.643-31.08,13.881-31.08Zm0,6.51c2.352,0,4.242,2.562,4.242,10.584,0,8.064-1.89,10.584-4.242,10.584C11.487-3.4,9.6-5.922,9.6-13.986,9.6-22.008,11.487-24.57,13.881-24.57Z" transform="translate(205.36 47.39) rotate(3)" fill="#fff" stroke="#000" stroke-width="1"/>
    </g>
    </g>
    <g id="그룹_112021" data-name="그룹 112021" transform="matrix(0.985, -0.174, 0.174, 0.985, 128.751, 223.643)">
    <g class="star s1">
      <g id="그룹_109995" data-name="그룹 109995" transform="translate(0 0)">
        <path id="패스_37138" data-name="패스 37138" d="M8.854,2.373l.231,1.081a3.913,3.913,0,0,0,3.01,3.01l1.081.231a1.1,1.1,0,0,1,0,2.159l-1.081.231a3.913,3.913,0,0,0-3.01,3.009l-.231,1.082a1.1,1.1,0,0,1-2.159,0l-.231-1.082A3.914,3.914,0,0,0,3.455,9.085L2.373,8.854a1.1,1.1,0,0,1,0-2.159l1.082-.231a3.913,3.913,0,0,0,3.009-3.01L6.7,2.373a1.1,1.1,0,0,1,2.159,0" transform="translate(-1.5 -1.5)" fill="#74ffea" stroke="#000" stroke-width="1.5"/>
      </g>
    </g>
    </g>
    <g id="그룹_112756" data-name="그룹 112756" transform="translate(61.292 -10.789)">
      <g id="그룹_110050" data-name="그룹 110050" transform="translate(459.034 244.354)">
        <g id="그룹_110051" data-name="그룹 110051" transform="translate(0 0)">
          <path id="패스_37223" data-name="패스 37223" d="M4.949.849C6.081,1.981,9.206,9.206,9.206,9.206S1.981,6.081.849,4.949a2.9,2.9,0,0,1,4.1-4.1Z" transform="translate(10.163 0)" fill="#fff" stroke="#000" stroke-linecap="round" stroke-linejoin="round" stroke-width="1.5"/>
          <path id="패스_37225" data-name="패스 37225" d="M4.257.849C3.125,1.982,0,9.206,0,9.206S7.225,6.081,8.357,4.949a2.9,2.9,0,1,0-4.1-4.1Z" transform="translate(19.37 0)" fill="#fff" stroke="#000" stroke-linecap="round" stroke-linejoin="round" stroke-width="1.5"/>
          <rect id="사각형_19864" data-name="사각형 19864" width="38.739" height="8.479" transform="translate(0 8.264)" fill="#d0ff33"/>
          <rect id="사각형_19865" data-name="사각형 19865" width="38.739" height="8.479" transform="translate(0 8.264)" fill="none" stroke="#000" stroke-linecap="round" stroke-linejoin="round" stroke-width="1.5"/>
          <rect id="사각형_19867" data-name="사각형 19867" width="35.378" height="25.452" transform="translate(1.68 16.743)" fill="#d0ff33" stroke="#000" stroke-linecap="round" stroke-linejoin="round" stroke-width="1.5"/>
          <rect id="사각형_19869" data-name="사각형 19869" width="4.674" height="33.931" transform="translate(17.033 8.264)" fill="#fff" stroke="#000" stroke-linecap="round" stroke-linejoin="round" stroke-width="1.5"/>
        </g>
      </g>
      <g id="그룹_110053" data-name="그룹 110053" transform="translate(506.219 265.263) rotate(21)">
      <g class="star s2">
        <g id="그룹_109995-2" data-name="그룹 109995" transform="translate(0 0)">
          <path id="패스_37138-2" data-name="패스 37138" d="M7.392.878l.232,1.087A3.933,3.933,0,0,0,10.649,4.99l1.087.232a1.109,1.109,0,0,1,0,2.17l-1.087.232a3.934,3.934,0,0,0-3.025,3.024l-.232,1.087a1.11,1.11,0,0,1-2.17,0L4.99,10.648A3.933,3.933,0,0,0,1.965,7.623L.878,7.392a1.109,1.109,0,0,1,0-2.17L1.965,4.99A3.934,3.934,0,0,0,4.99,1.965L5.222.878a1.11,1.11,0,0,1,2.17,0" fill="#74daff" stroke="#000" stroke-width="1.5"/>
        </g>
      </g>
      </g>
      <g id="그룹_110054" data-name="그룹 110054" transform="translate(514.707 282.725) rotate(21)">
        <g id="그룹_109999" data-name="그룹 109999" transform="translate(0 0)">
          <ellipse id="타원_628" data-name="타원 628" cx="2.333" cy="2.333" rx="2.333" ry="2.333" fill="#b7fffc" stroke="#000" stroke-linecap="round" stroke-linejoin="round" stroke-width="1.5"/>
        </g>
      </g>
    </g>
  </g>
</svg>
