<svg xmlns="http://www.w3.org/2000/svg" width="40" height="40" viewBox="0 0 40 40">
  <g id="Group_110179" data-name="Group 110179" transform="translate(15450.034 24550.539)">
    <rect id="Rectangle_19938" data-name="Rectangle 19938" width="40" height="40" transform="translate(-15450.034 -24550.539)" fill="none"/>
    <g id="Group_110178" data-name="Group 110178" transform="translate(-15444.253 -24548.738)">
      <path id="Path_37313" data-name="Path 37313" d="M140.725,27.6v7.29h-1.563V27.6a4.013,4.013,0,1,0-8.027,0v7.29h-1.563V27.6a5.576,5.576,0,1,1,11.152,0" transform="translate(-117.905 -17.972)" fill="#fff"/>
      <path id="Path_37314" data-name="Path 37314" d="M140.725,27.6v7.29h-1.563V27.6a4.013,4.013,0,1,0-8.027,0v7.29h-1.563V27.6a5.576,5.576,0,1,1,11.152,0Z" transform="translate(-117.905 -17.972)" fill="none" stroke="#000" stroke-linecap="round" stroke-linejoin="round" stroke-width="1"/>
      <path id="Path_37315" data-name="Path 37315" d="M108.514,7.076v7.29h-1.563V7.076a4.013,4.013,0,0,0-8.027,0v7.29H97.362V7.076a5.576,5.576,0,1,1,11.152,0" transform="translate(-92.053 -1.5)" fill="#fff"/>
      <path id="Path_37316" data-name="Path 37316" d="M108.514,7.076v7.29h-1.563V7.076a4.013,4.013,0,0,0-8.027,0v7.29H97.362V7.076a5.576,5.576,0,1,1,11.152,0Z" transform="translate(-92.053 -1.5)" fill="none" stroke="#000" stroke-linecap="round" stroke-linejoin="round" stroke-width="1"/>
      <rect id="Rectangle_19809" data-name="Rectangle 19809" width="21.766" height="25.558" transform="translate(0 10.392)" fill="#7582f0"/>
      <rect id="Rectangle_19810" data-name="Rectangle 19810" width="21.766" height="25.558" transform="translate(0 10.392)" fill="none" stroke="#000" stroke-linecap="round" stroke-linejoin="round" stroke-width="1"/>
      <rect id="Rectangle_19807" data-name="Rectangle 19807" width="7.17" height="25.558" transform="translate(21.767 10.392)" fill="#ddd"/>
      <rect id="Rectangle_19808" data-name="Rectangle 19808" width="7.17" height="25.559" transform="translate(21.767 10.392)" fill="none" stroke="#000" stroke-linecap="round" stroke-linejoin="round" stroke-width="1"/>
      <path id="Path_37319" data-name="Path 37319" d="M180.74,205.337l3.585-4.14,3.585,4.14Z" transform="translate(-158.973 -169.385)" fill="#ccc"/>
      <path id="Path_37320" data-name="Path 37320" d="M180.74,205.337l3.585-4.14,3.585,4.14Z" transform="translate(-158.973 -169.385)" fill="none" stroke="#000" stroke-linecap="round" stroke-linejoin="round" stroke-width="1"/>
      <path id="Path_37312" data-name="Path 37312" d="M184.325,88.8V66.686H180.74V92.244Z" transform="translate(-158.973 -56.294)" fill="#fff"/>
      <path id="Path_37311" data-name="Path 37311" d="M184.523,88.8V66.686H180.74V92.244Z" transform="translate(-158.973 -56.294)" fill="none" stroke="#000" stroke-linecap="round" stroke-linejoin="round" stroke-width="1"/>
    </g>
  </g>
</svg>
