<?xml version="1.0" encoding="utf-8"?>
<!-- Generator: Adobe Illustrator 26.0.2, SVG Export Plug-In . SVG Version: 6.00 Build 0)  -->
<svg version="1.1" xmlns="http://www.w3.org/2000/svg" xmlns:xlink="http://www.w3.org/1999/xlink" x="0px" y="0px" viewBox="0 0 251.78 69.19" style="enable-background:new 0 0 485 69.19;" xml:space="preserve">
<style type="text/css">
.st0{enable-background:new;}
.st1{fill:none;stroke:#BC554F;}

#a1 line {animation:width both infinite 6s;}
#a2 line {animation:width2 both infinite 6s;}
#a3 line {animation:width both infinite 6s;}
#a4 line {animation:width2 both infinite 6s;}

#b1 line {animation:height both infinite 6s;}
#b2 line {animation:height2 both infinite 6s;}
#b3 line {animation:height both infinite 6s;}
#b4 line {animation:height2 both infinite 6s;}
#b5 line {animation:height both infinite 6s;}

#text {animation:text both infinite 6s;}

@keyframes width {
0% {transform:translateX(-100%);}
20% {transform:translateX(0%);}
100% {transform:translateX(0);}
}
@keyframes width2 {
0% {transform:translateX(100%);}
20% {transform:translateX(0%);}
100% {transform:translateX(0);}
}
@keyframes height {
10% {transform:translateY(100%);}
22% {transform:translateY(0%);}
100% {transform:translateY(0);}
}
@keyframes height2 {
10% {transform:translateY(-100%);}
22% {transform:translateY(0%);}
100% {transform:translateY(0);}
}
@keyframes text {
0% {opacity:0;}
15% {opacity:0;}
35% {opacity:1;}
95% {opacity:1;}
100% {opacity:0;}
}
</style>


<g id="Layer_1">
	<g id="text" transform="translate(35.812 12.625)">
		<g class="st0">
			<path d="M28.27,25.58h-5.46v9.38h-3.7v-9.38h-5.24v9.38h-3.7v-9.38H4.98v-3h16.27c0.31-1.32,0.48-2.55,0.62-3.67L7.25,19.68
				l-0.42-3.14l15.29-0.48c0.06-0.92,0.06-1.79,0.06-2.63H7.67v-2.94h18.06v2.32c0,2.66,0,5.63-0.87,9.77h3.42V25.58z"/>
			<path d="M58.15,25.86c2.44-0.06,4.73-0.2,7.34-0.62l0.31,2.97c-3.33,0.59-6.19,0.67-9.41,0.67h-1.82V18.61h5.52v-4.03h-5.54
				v-2.94h9.13v9.88h-5.52V25.86z M67.25,9.57h3.42V33.7h-3.42v-12.8H64.7v-3.02h2.55V9.57z M75.99,9.09v25.79h-3.5V9.09H75.99z"/>
			<path d="M117.06,20.1c0,5.68-2.88,9.24-6.78,9.24c-3.89,0-6.78-3.56-6.78-9.24c0-5.66,2.88-9.18,6.78-9.18
				C114.18,10.91,117.06,14.44,117.06,20.1z M107.06,20.1c0,3.84,1.32,5.88,3.22,5.88c1.9,0,3.22-2.04,3.22-5.88
				c0-3.81-1.32-5.85-3.22-5.85C108.38,14.24,107.06,16.29,107.06,20.1z M124.15,9.09v25.87h-3.7V9.09H124.15z"/>
			<path d="M165.05,25.02c-2.69-1.06-4.51-3.05-5.57-5.52c-1.09,2.63-3.05,4.73-5.99,5.82l-1.93-2.88c4.26-1.51,6.02-5.12,6.02-8.88
				v-3h3.75v3c0,3.53,1.68,7.06,5.77,8.6L165.05,25.02z M173.82,31.52v2.94h-17.58v-7.98h3.7v5.04H173.82z M169.56,20.4h-4.28v-2.97
				h4.28v-2.02h-4.28v-2.94h4.28V9.12h3.7v19.1h-3.7V20.4z"/>
		</g>
	</g>
</g>
<g id="b5">
	<line id="Line_357" class="st1" x1="225.81" y1="4.17" x2="225.81" y2="65.11"/>
</g>
<g id="b4">
	<line id="Line_362" class="st1" x1="175.98" y1="4.17" x2="175.98" y2="65.11"/>
</g>
<g id="b3">
	<line id="Line_156" class="st1" x1="126.15" y1="4.17" x2="126.15" y2="65.11"/>
</g>
<g id="b2">
	<line id="Line_155" class="st1" x1="76.32" y1="4.17" x2="76.32" y2="65.11"/>
</g>
<g id="b1">
	<line id="Line_154" class="st1" x1="26.49" y1="4.17" x2="26.49" y2="65.11"/>
</g>
<g id="a4">
	<line id="Line_146" class="st1" x1="0" y1="68.69" x2="251.78" y2="68.69"/>
</g>
<g id="a3">
	<line id="Line_147" class="st1" x1="0" y1="65.02" x2="251.78" y2="65.02"/>
</g>
<g id="a2">
	<line id="Line_144" class="st1" x1="0" y1="4.17" x2="251.78" y2="4.17"/>
</g>
<g id="a1">
	<line id="Line_145" class="st1" x1="0" y1="0.5" x2="251.78" y2="0.5"/>
</g>
</svg>
