<?xml version="1.0" encoding="utf-8"?>
<!-- Generator: Adobe Illustrator 26.3.1, SVG Export Plug-In . SVG Version: 6.00 Build 0)  -->
<svg version="1.1" xmlns="http://www.w3.org/2000/svg" xmlns:xlink="http://www.w3.org/1999/xlink" x="0px" y="0px" viewBox="0 0 370 132" style="enable-background:new 0 0 370 132;" xml:space="preserve">
<style type="text/css">
.st0{fill:none;}
.st1{fill:#FFDF5B;}
.st2{fill:#FFFFFF;}
.st3{fill:none;stroke:#000000;stroke-width:3;}
.st4{fill:#30395A;stroke:#000000;stroke-width:5;}
.st5{fill:#F38AB3;}

.s1 {position:relative;animation:rotate both linear infinite 4s;transform-origin:93.6% 23.3%;}

@keyframes rotate {
0% {rotate(0deg);}
100% {transform:rotate(360deg);}
}
</style>
<g id="레이어_1">
	<rect id="사각형_22545" class="st0" width="368" height="132"/>
	<g id="title-2" transform="translate(2715.259 3178)">
		<g id="합치기_160" transform="translate(-15971 6502)">
			<path class="st1" d="M13618.5-9566.5h-342v-85.3v-1.5h-1.5h-0.5v-23.2h83.2l4,18.5l0.3,1.2h1.2h255.3V-9566.5z"/>
			<path d="M13617-9568v-87.3h-256.3l-4.2-19.7h-80.5v20.2h2v86.8H13617 M13620-9565h-345v-86.8h-2v-26.2h85.9l4.2,19.7h256.8V-9565
				z"/>
		</g>
		<g id="사각형_22106" transform="translate(-15978 6528)">
			<rect x="13273" y="-9678" class="st2" width="346" height="94"/>
			<rect x="13274.5" y="-9676.5" class="st3" width="343" height="91"/>
		</g>
		<g id="사각형_22101" transform="translate(-15986 6536)">
			<rect x="13273" y="-9678" class="st1" width="345" height="94"/>
			<rect x="13274.5" y="-9676.5" class="st3" width="342" height="91"/>
		</g>
		<path id="패스_42584" d="M-2664-3113.9c-8.4,0-15.1,4-15.1,10.8c0,7,4.4,10.4,12.5,11.9c6.6,1.2,9.2,2.4,9.2,5.4
			c0,2.4-2.5,4.1-5.9,4.1c-4.8,0-7.9-2.4-8.3-6h-8.6c0.4,8,7.1,13,16.3,13c8.3,0,15.1-4.4,15.1-11.5c0-5.6-2.9-9.9-11.6-11.6
			c-7.3-1.5-10.2-2.5-10.2-5.3c0-2.2,2.2-3.8,6.1-3.8c4,0,6.4,2,6.9,5.2h8.6C-2649.4-3108.8-2655.6-3113.9-2664-3113.9z
			 M-2628.2-3102.4h-5.3v-8h-8.2v8h-5.3v7h5.3v19.9h8.2v-19.9h5.3V-3102.4z M-2620.8-3115.4c-2.7-0.1-4.9,2-5,4.7c0,0.1,0,0.2,0,0.3
			c-0.1,2.7,2,4.9,4.7,5c0.1,0,0.2,0,0.3,0c2.7,0.1,4.9-2,5-4.7c0-0.1,0-0.2,0-0.3c0.1-2.7-2-4.9-4.7-5
			C-2620.5-3115.4-2620.6-3115.4-2620.8-3115.4L-2620.8-3115.4z M-2616.7-3102.4h-8.2v27h8.2L-2616.7-3102.4z M-2584.7-3085.3h-8.3
			c-0.8,2.1-2.9,3.3-5.1,3.2c-3.8,0-6.3-2.9-6.3-7s2.5-7,6.3-7c2.6,0,4.4,1.3,5,3.1h8.2c-1-5.7-6.2-10.2-13.2-10.2
			c-8.3,0-14.3,5.9-14.3,14.1s6,14.1,14.3,14.1C-2591.3-3074.9-2586.1-3079-2584.7-3085.3z M-2562.8-3075.6h9.3l-10.9-15.4
			l10.3-11.5h-9.1l-9.5,11v-22.6h-8.2v38.5h8.2v-6.2l3.3-3.7L-2562.8-3075.6z M-2540-3074.9c6.5,0,11.8-3.5,13.2-8.7h-8.2
			c-0.7,1.3-2.6,2.1-5,2.1c-2.9,0.1-5.5-2-5.9-4.9h19.7c0.1-0.9,0.2-1.7,0.2-2.6c0-8.2-5.8-14.1-14-14.1s-14,5.9-14,14.1
			C-2554-3080.8-2548.2-3074.9-2540-3074.9z M-2545.9-3091.7c0.7-3.2,2.7-5,5.9-5c3-0.2,5.6,2,6,5H-2545.9z M-2521.6-3075.6h8.2
			v-13.8c0-4.1,2.6-6.6,7-6.6c1.4,0,2.9,0.3,4.2,0.9l-0.1-7.7c-1.1-0.4-2.3-0.5-3.5-0.5c-3.4,0-5.9,1.2-7.5,3.4v-2.8h-8.2
			L-2521.6-3075.6z M-2486.3-3075.6h8.3v-14.3h17v-7.2h-17v-8.5h19.1v-7.3h-27.4V-3075.6z M-2450.9-3115.4c-2.7-0.1-4.9,2-5,4.7
			c0,0.1,0,0.2,0,0.3c-0.1,2.7,2,4.9,4.7,5c0.1,0,0.2,0,0.3,0c2.7,0.1,4.9-2,5-4.7c0-0.1,0-0.2,0-0.3c0.1-2.7-2-4.9-4.7-5
			C-2450.7-3115.4-2450.8-3115.4-2450.9-3115.4z M-2446.8-3102.4h-8.2v27h8.2V-3102.4z M-2433-3114.1h-8.2v38.5h8.2L-2433-3114.1z
			 M-2414.7-3074.9c6.5,0,11.8-3.5,13.2-8.7h-8.2c-0.7,1.3-2.6,2.1-5,2.1c-2.9,0.1-5.5-2-5.9-4.9h19.7c0.1-0.9,0.2-1.7,0.2-2.6
			c0-8.2-5.8-14.1-14-14.1c-8.2,0-14,5.9-14,14.1C-2428.7-3080.8-2422.9-3074.9-2414.7-3074.9z M-2420.6-3091.7c0.7-3.2,2.7-5,5.9-5
			c3-0.2,5.6,2,6,5H-2420.6z"/>
	</g>
</g>
<g id="레이어_2" class="s1">
	<g id="flower" transform="translate(-15662.209 6510.292)">
		<g id="그룹_116250" transform="translate(2)">
			<g id="그룹_116251" transform="translate(0 0)">
				<path id="패스_42658" class="st4" d="M16024.1-6475.7c-0.9-0.7-2-1-3.1-1.1c-3.3-0.1-6.5-0.7-9.6-1.8l-0.6-0.2l0,0
					c3.2-1.3,6.6-2,10.1-2.1c3.1-0.1,5.6-2.7,5.5-5.8c0-1.2-0.4-2.3-1.1-3.2c-1.9-2.5-5.4-3-7.9-1.2c-0.6,0.4-1,0.9-1.4,1.5
					c-1.7,2.8-3.9,5.3-6.4,7.4l-0.5,0.4l0,0c0.5-3.4,1.6-6.7,3.3-9.8c1.5-2.8,0.5-6.2-2.3-7.7c-1-0.6-2.2-0.8-3.4-0.7
					c-3.1,0.4-5.4,3.2-5,6.3c0.1,0.7,0.3,1.4,0.6,2c1.6,2.9,2.7,6,3.2,9.2l0.1,0.6l0,0c-2.7-2.1-5-4.8-6.8-7.7
					c-1.6-2.7-5.1-3.5-7.8-1.9c-1,0.6-1.8,1.5-2.2,2.6c-1.2,2.9,0.1,6.2,3,7.5c0.6,0.3,1.3,0.4,2,0.5c3.3,0.1,6.5,0.7,9.6,1.8
					l0.6,0.2l0,0c-3.2,1.3-6.6,2-10.1,2.1c-3.1,0.1-5.6,2.7-5.5,5.8c0,1.2,0.4,2.3,1.1,3.2c1.9,2.5,5.4,3,7.9,1.2
					c0.6-0.4,1-0.9,1.4-1.5c1.7-2.8,3.9-5.3,6.4-7.4l0.5-0.4l0,0c-0.5,3.4-1.6,6.7-3.3,9.8c-1.5,2.8-0.5,6.2,2.3,7.7
					c1,0.6,2.2,0.8,3.4,0.7c3.1-0.4,5.4-3.2,5-6.3c-0.1-0.7-0.3-1.4-0.6-2c-1.6-2.9-2.7-6-3.2-9.2l-0.1-0.6l0,0
					c2.7,2.1,5,4.8,6.9,7.7c0.5,0.8,1.2,1.5,2,2c2.7,1.6,6.2,0.6,7.8-2.1C16027.2-6470.7,16026.5-6474,16024.1-6475.7"/>
			</g>
		</g>
		<path id="패스_42659" class="st5" d="M16026.1-6475.7c-0.9-0.7-2-1-3.1-1.1c-3.3-0.1-6.5-0.7-9.6-1.8l-0.6-0.2l0,0
			c3.2-1.3,6.6-2,10.1-2.1c3.1-0.1,5.6-2.7,5.5-5.8c0-1.2-0.4-2.3-1.1-3.2c-1.9-2.5-5.4-3-7.9-1.2c-0.6,0.4-1,0.9-1.4,1.5
			c-1.7,2.8-3.9,5.3-6.4,7.4l-0.5,0.4l0,0c0.5-3.4,1.6-6.7,3.3-9.8c1.5-2.8,0.5-6.2-2.3-7.7c-1-0.6-2.2-0.8-3.4-0.7
			c-3.1,0.4-5.4,3.2-5,6.3c0.1,0.7,0.3,1.4,0.6,2c1.6,2.9,2.7,6,3.2,9.2l0.1,0.6l0,0c-2.7-2.1-5-4.8-6.8-7.7
			c-1.6-2.7-5.1-3.5-7.8-1.9c-1,0.6-1.8,1.5-2.2,2.6c-1.2,2.9,0.1,6.2,3,7.5c0.6,0.3,1.3,0.4,2,0.5c3.3,0.1,6.5,0.7,9.6,1.8l0.6,0.2
			l0,0c-3.2,1.3-6.6,2-10.1,2.1c-3.1,0.1-5.6,2.7-5.5,5.8c0,1.2,0.4,2.3,1.1,3.2c1.9,2.5,5.4,3,7.9,1.2c0.6-0.4,1-0.9,1.4-1.5
			c1.7-2.8,3.9-5.3,6.4-7.4l0.5-0.4l0,0c-0.5,3.4-1.6,6.7-3.3,9.8c-1.5,2.8-0.5,6.2,2.3,7.7c1,0.6,2.2,0.8,3.4,0.7
			c3.1-0.4,5.4-3.2,5-6.3c-0.1-0.7-0.3-1.4-0.6-2c-1.6-2.9-2.7-6-3.2-9.2l-0.1-0.6l0,0c2.7,2.1,5,4.8,6.9,7.7c0.5,0.8,1.2,1.5,2,2
			c2.7,1.6,6.2,0.6,7.8-2.1C16029.2-6470.7,16028.5-6474,16026.1-6475.7"/>
	</g>
</g>
</svg>
