<svg xmlns="http://www.w3.org/2000/svg" xmlns:xlink="http://www.w3.org/1999/xlink" width="299.038" height="527.394" viewBox="0 0 299.038 527.394">
  <defs>
    <clipPath id="clip-path">
      <rect id="사각형_20513" data-name="사각형 20513" width="188.428" height="188.986" fill="none"/>
    </clipPath>
    <filter id="앵콜" x="146.731" y="377.111" width="108.239" height="82.018" filterUnits="userSpaceOnUse">
      <feOffset dx="3" dy="3" input="SourceAlpha"/>
      <feGaussianBlur result="blur"/>
      <feFlood flood-color="#080d4b"/>
      <feComposite operator="in" in2="blur"/>
      <feComposite in="SourceGraphic"/>
    </filter>
  </defs>
  <g id="앵콜-2" data-name="앵콜" transform="translate(-1219.853 -272.104)">
    <g id="그룹_112048" data-name="그룹 112048" transform="translate(1219.854 272.104)" opacity="0.2">
      <path id="패스_38158" data-name="패스 38158" d="M80.578,0,76.264,127.657H66.559L73.029,1.182Z" transform="translate(-32.589)" fill="#2ecfff"/>
      <path id="패스_38159" data-name="패스 38159" d="M81.958,114.73v10.638l-81.2-7.092L0,110Z" transform="translate(0 -53.856)" fill="#2ecfff"/>
      <path id="패스_38160" data-name="패스 38160" d="M19.483,121.289,76.938,62.812l4.617,5.061-57.967,56.79Z" transform="translate(-9.54 -30.753)" fill="#2ecfff"/>
      <path id="패스_38161" data-name="패스 38161" d="M79.868,126.441,26.517,63.466,31.135,58.4l51.811,63.538Z" transform="translate(-14.521 -28.595)" fill="#2ecfff"/>
    </g>
    <g id="그룹_112084" data-name="그룹 112084" transform="translate(1316.82 360.208)" opacity="0.2">
      <path id="패스_38158-2" data-name="패스 38158" d="M89.685,0,82.569,210.581H66.559L77.232,1.95Z" transform="translate(-10.523)" fill="#2ecfff"/>
      <path id="패스_38159-2" data-name="패스 38159" d="M135.2,117.8v17.548L1.251,123.65,0,110Z" transform="translate(0 -17.385)" fill="#2ecfff"/>
      <path id="패스_38160-2" data-name="패스 38160" d="M19.483,159.276l94.776-96.464,7.616,8.348L26.253,164.839Z" transform="translate(-3.081 -9.927)" fill="#2ecfff"/>
      <path id="패스_38161-2" data-name="패스 38161" d="M114.524,170.636,26.517,66.753,34.134,58.4,119.6,163.216Z" transform="translate(-6.729 -9.231)" fill="#2ecfff"/>
    </g>
    <g id="그룹_112093" data-name="그룹 112093" transform="translate(1330.463 610.512)">
      <g id="그룹_112092" data-name="그룹 112092" clip-path="url(#clip-path)">
        <path id="패스_38293" data-name="패스 38293" d="M193.359,180.382l-50.052-11.76a12.121,12.121,0,0,0-6.669-6.523c0-.01,0-.023-.007-.03-8.654-8.241-8.337-20.725-14.431-19.244-5.276,1.283-7.283,14-.448,19.652l-.067.016c-8.268,2.011-8.909,9.266-6.9,17.534s5.912,14.418,14.181,12.408c4.715-1.146,10.286-2.819,13.573-6.648l50.818,9.74" transform="translate(-6.348 -7.958)" fill="#ffc1ab"/>
        <path id="패스_38294" data-name="패스 38294" d="M193.359,180.382l-50.052-11.76a12.121,12.121,0,0,0-6.669-6.523c0-.01,0-.023-.007-.03-8.654-8.241-8.337-20.725-14.431-19.244-5.276,1.283-7.283,14-.448,19.652l-.067.016c-8.268,2.011-8.909,9.266-6.9,17.534s5.912,14.418,14.181,12.408c4.715-1.146,10.286-2.819,13.573-6.648l50.818,9.74" transform="translate(-6.348 -7.958)" fill="none" stroke="#080d4b" stroke-linecap="round" stroke-linejoin="round" stroke-width="3"/>
        <path id="패스_38295" data-name="패스 38295" d="M117.495,175.048,75.051,10.263,86.172,7.71l42.444,164.784" transform="translate(-4.185 9.475)" fill="#2ecfff"/>
        <path id="패스_38296" data-name="패스 38296" d="M117.495,174.681,75.051,10.258,86.172,7.71l42.444,164.423" transform="translate(-3.185 9.842)" fill="none" stroke="#080d4b" stroke-linecap="round" stroke-linejoin="round" stroke-width="3"/>
        <rect id="사각형_20509" data-name="사각형 20509" width="144.257" height="101.046" transform="matrix(0.972, -0.236, 0.236, 0.972, 10.607, 43.223)" fill="#fff"/>
        <rect id="사각형_20510" data-name="사각형 20510" width="140.257" height="99.046" transform="matrix(0.972, -0.236, 0.236, 0.972, 12.787, 43.722)" fill="none" stroke="#080d4b" stroke-linecap="round" stroke-linejoin="round" stroke-width="3"/>
        <path id="패스_38303" data-name="패스 38303" d="M0,0H121.143V80.14H0Z" transform="translate(24.307 50.649) rotate(-13.668)" fill="#fd7cbb"/>
        <rect id="사각형_20512" data-name="사각형 20512" width="120.181" height="79.504" transform="translate(24.849 50.844) rotate(-13.668)" fill="none" stroke="#080d4b" stroke-linecap="round" stroke-linejoin="round" stroke-width="3"/>
        <path id="패스_38297" data-name="패스 38297" d="M126.092,166.982c1,4.132-2.745,5.77-7.577,6.945s-8.916,1.441-9.921-2.691,2.745-5.77,7.577-6.945,8.916-1.441,9.921,2.691" transform="translate(-6.717 -15.038)" fill="#ffc1ab"/>
        <path id="패스_38298" data-name="패스 38298" d="M126.092,166.982c1,4.132-2.745,5.77-7.577,6.945s-8.916,1.441-9.921-2.691,2.745-5.77,7.577-6.945S125.088,162.85,126.092,166.982Z" transform="translate(-6.717 -15.038)" fill="none" stroke="#080d4b" stroke-linecap="round" stroke-linejoin="round" stroke-width="3"/>
        <path id="패스_38299" data-name="패스 38299" d="M131.063,186.287c1.021,4.2-2.79,5.865-7.7,7.06s-9.063,1.465-10.084-2.735,2.79-5.865,7.7-7.06,9.063-1.465,10.084,2.735" transform="translate(-4.288 -8.93)" fill="#ffc1ab"/>
        <path id="패스_38300" data-name="패스 38300" d="M131.063,186.287c1.021,4.2-2.79,5.865-7.7,7.06s-9.063,1.465-10.084-2.735,2.79-5.865,7.7-7.06S130.042,182.086,131.063,186.287Z" transform="translate(-4.288 -8.93)" fill="none" stroke="#080d4b" stroke-linecap="round" stroke-linejoin="round" stroke-width="3"/>
        <path id="패스_38305" data-name="패스 38305" d="M128.74,177.908c1.136,4.672-3.1,6.525-8.565,7.853s-10.079,1.63-11.215-3.042,3.1-6.525,8.565-7.853,10.079-1.63,11.215,3.042" transform="translate(-8.062 -18.075)" fill="#ffc1ab"/>
        <path id="패스_38306" data-name="패스 38306" d="M128.74,177.908c1.136,4.672-3.1,6.525-8.565,7.853s-10.079,1.63-11.215-3.042,3.1-6.525,8.565-7.853S127.6,173.236,128.74,177.908Z" transform="translate(-8.062 -18.075)" fill="none" stroke="#080d4b" stroke-linecap="round" stroke-linejoin="round" stroke-width="3"/>
        <path id="패스_38301" data-name="패스 38301" d="M128.1,177.751c1.1,4.484-3,6.262-8.288,7.537s-9.753,1.564-10.853-2.92,3-6.262,8.288-7.537,9.753-1.564,10.853,2.92" transform="translate(-4.361 -8.377)" fill="#ffc1ab"/>
        <path id="패스_38302" data-name="패스 38302" d="M128.1,177.751c1.1,4.484-3,6.262-8.288,7.537s-9.753,1.564-10.853-2.92,3-6.262,8.288-7.537S127,173.267,128.1,177.751Z" transform="translate(-4.361 -8.377)" fill="none" stroke="#080d4b" stroke-linecap="round" stroke-linejoin="round" stroke-width="3"/>
      </g>
      <path id="패스_38304" data-name="패스 38304" d="M41.909,89.641,85.583,101.3l58.978-14.682-10.27-41.969-25.857-15.18L33.818,48.016Z" transform="translate(16.79 13.689)" fill="#080d4b"/>
      <g transform="matrix(1, 0, 0, 1, -110.61, -338.41)" filter="url(#앵콜)">
        <text id="앵콜-3" data-name="앵콜" transform="translate(202.01 427.29) rotate(-14)" fill="#fff" stroke="#080d4b" stroke-width="2" font-size="47" font-family="GmarketSansBold, Gmarket Sans" letter-spacing="-0.025em"><tspan x="-44.626" y="0">앵콜</tspan></text>
      </g>
    </g>
  </g>
</svg>
