<svg xmlns="http://www.w3.org/2000/svg" width="63" height="63" viewBox="0 0 63 63">
<style>
.star {transform-origin:50%;animation:star linear infinite 2.0s;}
@keyframes star {
0% {transform:scale(1);}	
55% {transform:scale(0.7);;}
100% {transform:scale(1);}
}
</style>
<g class="star">
<path data-name="패스 38154" d="M94.16,104.006l2.754,13a14.191,14.191,0,0,0,10.939,10.939l13,2.75a2.6,2.6,0,0,1,0,5.087l-13,2.754a14.186,14.186,0,0,0-10.939,10.939l-2.754,13a2.6,2.6,0,0,1-5.087,0l-2.75-13A14.19,14.19,0,0,0,75.38,138.54l-13-2.754a2.6,2.6,0,0,1,0-5.087l13-2.75A14.2,14.2,0,0,0,86.322,117.01l2.75-13A2.6,2.6,0,0,1,94.16,104.006Z" transform="translate(-60.32 -101.945)" fill="#ffee24"/>
</g>
</svg>
