<svg xmlns="http://www.w3.org/2000/svg" xmlns:xlink="http://www.w3.org/1999/xlink" width="129.32" height="143.934" viewBox="0 0 129.32 143.934">
  <defs>
    <clipPath id="clip-path">
      <rect id="사각형_20468" data-name="사각형 20468" width="129.32" height="143.934" fill="none"/>
    </clipPath>
  </defs>
  <g id="그룹_112040" data-name="그룹 112040" clip-path="url(#clip-path)">
    <path id="패스_38135" data-name="패스 38135" d="M1.5,51.415c0,27.568,15.114,49.915,33.758,49.915s33.76-22.347,33.76-49.915S53.9,1.5,35.258,1.5,1.5,23.847,1.5,51.415" transform="translate(57.653 1.163)" fill="#fff"/>
    <path id="패스_38136" data-name="패스 38136" d="M1.5,51.415c0,27.568,15.114,49.915,33.758,49.915s33.76-22.347,33.76-49.915S53.9,1.5,35.258,1.5,1.5,23.847,1.5,51.415Z" transform="translate(57.653 1.163)" fill="none" stroke="#080d4b" stroke-linecap="round" stroke-linejoin="round" stroke-width="3"/>
    <path id="패스_38137" data-name="패스 38137" d="M37.337,47.494l20.5,11.769c-2.708,17.262-11.076,29.166-20.5,29.166-11.741,0-21.4-18.478-21.4-40.935S25.6,6.557,37.337,6.557c9.6,0,18.074,12.344,20.629,30.036Z" transform="translate(43.221 5.084)" fill="#080d4b"/>
    <path id="패스_38138" data-name="패스 38138" d="M37.337,47.494l20.5,11.769c-2.708,17.262-11.076,29.166-20.5,29.166-11.741,0-21.4-18.478-21.4-40.935S25.6,6.557,37.337,6.557c9.6,0,18.074,12.344,20.629,30.036Z" transform="translate(43.221 5.084)" fill="none" stroke="#080d4b" stroke-linecap="round" stroke-linejoin="round" stroke-width="3"/>
    <path id="패스_38139" data-name="패스 38139" d="M33.5,51.415c0,27.568,15.114,49.915,33.758,49.915s33.76-22.347,33.76-49.915S85.906,1.5,67.261,1.5,33.5,23.847,33.5,51.415" transform="translate(-30.855 1.163)" fill="#fff"/>
    <path id="패스_38140" data-name="패스 38140" d="M33.5,51.415c0,27.568,15.114,49.915,33.758,49.915s33.76-22.347,33.76-49.915S85.906,1.5,67.261,1.5,33.5,23.847,33.5,51.415Z" transform="translate(-30.855 1.163)" fill="none" stroke="#080d4b" stroke-linecap="round" stroke-linejoin="round" stroke-width="3"/>
    <path id="패스_38141" data-name="패스 38141" d="M69.341,47.494l20.5,11.769c-2.708,17.262-11.076,29.166-20.5,29.166-11.741,0-21.4-18.478-21.4-40.935S57.6,6.557,69.341,6.557c9.6,0,18.075,12.344,20.629,30.036Z" transform="translate(-45.29 5.084)" fill="#080d4b"/>
    <path id="패스_38142" data-name="패스 38142" d="M69.341,47.494l20.5,11.769c-2.708,17.262-11.076,29.166-20.5,29.166-11.741,0-21.4-18.478-21.4-40.935S57.6,6.557,69.341,6.557c9.6,0,18.075,12.344,20.629,30.036Z" transform="translate(-45.29 5.084)" fill="none" stroke="#080d4b" stroke-linecap="round" stroke-linejoin="round" stroke-width="3"/>
    <path id="패스_38143" data-name="패스 38143" d="M88.864,66.4a40.088,40.088,0,0,1-72.881,0" transform="translate(12.237 51.488)" fill="none" stroke="#080d4b" stroke-linecap="round" stroke-linejoin="round" stroke-width="3"/>
    <path id="패스_38144" data-name="패스 38144" d="M12.122,62.4c-.535,2.02.674,4.8,3.136,6.807s5.433,2.624,7.285,1.676" transform="translate(85.596 48.386)" fill="none" stroke="#080d4b" stroke-linecap="round" stroke-linejoin="round" stroke-width="3"/>
    <path id="패스_38145" data-name="패스 38145" d="M65.695,62.4c.535,2.02-.674,4.8-3.136,6.807s-5.433,2.624-7.285,1.676" transform="translate(-34.092 48.386)" fill="none" stroke="#080d4b" stroke-linecap="round" stroke-linejoin="round" stroke-width="3"/>
    <path id="패스_38146" data-name="패스 38146" d="M26.775,63.149c0,7.835,7.785,14.187,17.386,14.187s17.386-6.352,17.386-14.187S53.762,48.962,44.161,48.962,26.775,55.314,26.775,63.149" transform="translate(20.499 34.964)" fill="#f06a86"/>
    <path id="패스_38147" data-name="패스 38147" d="M17.386,0C7.784,0,0,6.352,0,14.187S7.784,28.374,17.386,28.374s17.386-6.352,17.386-14.187S26.988,0,17.386,0Z" transform="translate(47.274 83.151)" fill="none" stroke="#080d4b" stroke-linecap="round" stroke-width="3"/>
  </g>
</svg>
