<svg xmlns="http://www.w3.org/2000/svg" width="41.02" height="40" viewBox="0 0 41.02 40">
    <g data-name="그룹 1901">
        <path data-name="사각형 3514" transform="translate(.51)" style="fill:none" d="M0 0h40v40H0z"/>
        <path d="M-73.879 2395.219a4.305 4.305 0 0 1-2.192-.6l-2.534-1.492a4.518 4.518 0 0 1-2.176-4.32 4.268 4.268 0 0 1-.89.094 4.389 4.389 0 0 1-3.807-2.241l-1.465-2.586a4.538 4.538 0 0 1 1.607-6.121l3.6-2.122-3.6-2.121a4.44 4.44 0 0 1-2.048-2.719 4.527 4.527 0 0 1 .438-3.4l1.465-2.59a4.387 4.387 0 0 1 3.8-2.239 4.241 4.241 0 0 1 .892.095 4.519 4.519 0 0 1 2.176-4.319l2.534-1.5a4.31 4.31 0 0 1 2.191-.6 4.392 4.392 0 0 1 3.807 2.241l2.539 4.495 2.542-4.491a4.39 4.39 0 0 1 3.807-2.241 4.313 4.313 0 0 1 2.191.6l2.534 1.493a4.524 4.524 0 0 1 2.176 4.319 4.32 4.32 0 0 1 .892-.095 4.392 4.392 0 0 1 3.8 2.239l1.465 2.59a4.53 4.53 0 0 1 .437 3.4 4.433 4.433 0 0 1-2.044 2.721l-3.6 2.121 3.6 2.119a4.538 4.538 0 0 1 1.607 6.121l-1.462 2.586a4.389 4.389 0 0 1-3.8 2.239 4.193 4.193 0 0 1-.892-.095 4.525 4.525 0 0 1-2.176 4.323l-2.534 1.492a4.326 4.326 0 0 1-2.192.6 4.4 4.4 0 0 1-3.807-2.239l-2.542-4.49-2.539 4.49a4.394 4.394 0 0 1-3.8 2.243zm2.395-20.708a1.481 1.481 0 0 0-1.465 1.489 1.48 1.48 0 0 0 1.465 1.492h2.927v2.989a1.479 1.479 0 0 0 1.462 1.492 1.48 1.48 0 0 0 1.465-1.492v-2.981h2.93a1.48 1.48 0 0 0 1.46-1.5 1.481 1.481 0 0 0-1.465-1.494h-2.927v-2.986a1.48 1.48 0 0 0-1.465-1.492 1.478 1.478 0 0 0-1.462 1.492v2.986z" transform="translate(88.042 -2355.83)" style="fill:#f7cec3;stroke:transparent"/>
    </g>
</svg>
