<svg xmlns="http://www.w3.org/2000/svg" width="41.02" height="40" viewBox="0 0 41.02 40">
    <g data-name="그룹 1900">
        <path data-name="사각형 3513" transform="translate(.51)" style="fill:none" d="M0 0h40v40H0z"/>
        <path data-name="ico_clover" d="M-73.879 2395.22a4.306 4.306 0 0 1-2.192-.6l-2.534-1.492a4.518 4.518 0 0 1-2.176-4.32 4.3 4.3 0 0 1-.89.094 4.389 4.389 0 0 1-3.807-2.242l-1.465-2.586a4.538 4.538 0 0 1 1.607-6.121l3.6-2.122-3.6-2.121a4.44 4.44 0 0 1-2.048-2.719 4.529 4.529 0 0 1 .438-3.4l1.465-2.589a4.386 4.386 0 0 1 3.8-2.24 4.242 4.242 0 0 1 .892.1 4.519 4.519 0 0 1 2.176-4.32l2.534-1.5a4.325 4.325 0 0 1 2.191-.6 4.391 4.391 0 0 1 3.807 2.24l2.539 4.494 2.542-4.491a4.39 4.39 0 0 1 3.807-2.241 4.323 4.323 0 0 1 2.191.6l2.534 1.493a4.523 4.523 0 0 1 2.176 4.32 4.288 4.288 0 0 1 .892-.1 4.391 4.391 0 0 1 3.8 2.24l1.465 2.589a4.531 4.531 0 0 1 .437 3.4 4.434 4.434 0 0 1-2.044 2.721l-3.6 2.121 3.6 2.119a4.538 4.538 0 0 1 1.607 6.121l-1.462 2.586a4.39 4.39 0 0 1-3.8 2.24 4.241 4.241 0 0 1-.892-.095 4.524 4.524 0 0 1-2.176 4.323l-2.534 1.492a4.331 4.331 0 0 1-2.192.6 4.395 4.395 0 0 1-3.807-2.24l-2.542-4.489-2.539 4.489a4.394 4.394 0 0 1-3.8 2.246zm2.395-20.709a1.481 1.481 0 0 0-1.465 1.489 1.48 1.48 0 0 0 1.465 1.492h2.927v2.988a1.478 1.478 0 0 0 1.462 1.492 1.48 1.48 0 0 0 1.465-1.492v-2.98h2.93a1.48 1.48 0 0 0 1.46-1.5 1.481 1.481 0 0 0-1.465-1.494h-2.927v-2.987a1.479 1.479 0 0 0-1.465-1.491 1.478 1.478 0 0 0-1.462 1.491v2.987z" transform="translate(88.042 -2355.83)" style="fill:#da2128;stroke:transparent"/>
    </g>
</svg>
