<svg xmlns="http://www.w3.org/2000/svg" xmlns:xlink="http://www.w3.org/1999/xlink" width="86" height="16.283" viewBox="0 0 86 16.283">
  <defs>
    <clipPath id="clip-path">
      <rect id="사각형_3433" data-name="사각형 3433" width="86" height="16.283" fill="none"/>
    </clipPath>
  </defs>
  <g id="img" transform="translate(13)">
    <g id="그룹_1807" data-name="그룹 1807" transform="translate(-13)" clip-path="url(#clip-path)">
      <path id="패스_36287" data-name="패스 36287" d="M20.67,2.285a2.109,2.109,0,0,1-.4-.072,2.167,2.167,0,0,0-.455-.071,5.1,5.1,0,0,0-4.763,3.033q-.177.356-.864,1.854t-1.9,4.209a5.261,5.261,0,0,0,.642.107q1.82,0,2.676-3.067c.023.095.041.171.053.231s.024.107.035.142a3.43,3.43,0,0,1-.837,1.8,2.52,2.52,0,0,1-1.944,1.106c-.084,0-.185-.007-.3-.019s-.262-.028-.427-.053A8.02,8.02,0,0,1,9.47,14.769,6.99,6.99,0,0,1,5.4,16.053,5.22,5.22,0,0,1,1.5,14.5,5.347,5.347,0,0,1,0,10.578,5.318,5.318,0,0,1,.5,8.064c.023-.037.092-.155.2-.358s.277-.486.49-.855A8.91,8.91,0,0,1,2.407,3.783,5.016,5.016,0,0,1,6.831,1.428a4.931,4.931,0,0,1,3.478,1.3c.167-.132.309-.247.429-.349s.218-.182.3-.24a8.618,8.618,0,0,1,5.046-1.5,8.676,8.676,0,0,1,3.05.482l1.285.48c.308.037.463.155.463.357s-.071.322-.214.322m-10.576,8.4A4.54,4.54,0,0,1,6.064,13a4.3,4.3,0,0,1-3.6-1.856,5.732,5.732,0,0,1-1.2-3.531c0-.06,0-.134.009-.223S1.29,7.207,1.3,7.1A6.31,6.31,0,0,0,.213,10.578a5.171,5.171,0,0,0,1.48,3.727A4.934,4.934,0,0,0,5.4,15.821a4.478,4.478,0,0,0,3.282-1.729,9.549,9.549,0,0,0,1.873-3.087,2.181,2.181,0,0,0-.464-.32M9.06,2.142a5.152,5.152,0,0,0-2.229-.536,4.775,4.775,0,0,0-4.209,2.3A10.811,10.811,0,0,0,1.48,6.619a4.441,4.441,0,0,1,1.873-1.73,5.586,5.586,0,0,1,2.532-.5,5.217,5.217,0,0,1,2.764,1,11.258,11.258,0,0,1,.536-1.071,10.293,10.293,0,0,1,.589-.954,2.355,2.355,0,0,1,.41-.472A3.888,3.888,0,0,0,9.06,2.142M8.417,7.385A14.339,14.339,0,0,1,8.578,5.62,5.153,5.153,0,0,0,5.885,4.6,5.087,5.087,0,0,0,2.569,5.62,5.475,5.475,0,0,0,1.516,6.956,6.947,6.947,0,0,0,2.6,10.917a3.941,3.941,0,0,0,3.46,1.873,4.19,4.19,0,0,0,3.388-1.605,1.787,1.787,0,0,0,.41-.661A4.422,4.422,0,0,1,8.417,7.385M8.793,5.78c-.047.322-.084.616-.107.883s-.037.507-.037.722a4.146,4.146,0,0,0,1.338,2.871A4.112,4.112,0,0,0,10.2,8.973,4.181,4.181,0,0,0,8.793,5.78m11.2-4.067a3.882,3.882,0,0,0-1.266-.482A9.509,9.509,0,0,0,16.086.839a8.566,8.566,0,0,0-4.03,1q-.232.126-.624.384t-.963.669a5.445,5.445,0,0,1,.891,1.426l-.142.142a4.587,4.587,0,0,0-.874-1.408,6.125,6.125,0,0,0-1.48,2.461c.237.239.431.444.579.616a3.332,3.332,0,0,1,.331.436,4.48,4.48,0,0,1,.677,2.409,7.666,7.666,0,0,1-.214,1.5.79.79,0,0,0,.446.267l1.8-3.977a10.192,10.192,0,0,1,1.533-2.55A6.437,6.437,0,0,1,17.906,2a6.367,6.367,0,0,1,.874-.1q.517-.026,1.213-.043Z" transform="translate(0 0.23)"/>
      <path id="패스_36288" data-name="패스 36288" d="M13.813,9.646a.993.993,0,0,1-.722.312q-.749,0-.749-.856a1.05,1.05,0,0,1,.312-.741.969.969,0,0,1,.722-.33q.749,0,.749.893a.993.993,0,0,1-.312.722" transform="translate(4.405 2.866)"/>
      <path id="패스_36289" data-name="패스 36289" d="M30.365,3.745Q29.4,4.905,29.259,4.9a28.888,28.888,0,0,1,.429,3.657,3.982,3.982,0,0,1-1.338,3.05,4.472,4.472,0,0,1-3.158,1.231,3.882,3.882,0,0,1-2.835-1.125,3.747,3.747,0,0,1-1.143-2.782,4.959,4.959,0,0,1,1.232-3.121,2.824,2.824,0,0,1-.518-1.106,3.882,3.882,0,0,0-.847.571,5.3,5.3,0,0,0-.722.784,5.754,5.754,0,0,0-1.106,3.548A5.538,5.538,0,0,0,20.9,13.626,5.438,5.438,0,0,0,24.908,15.3a6.054,6.054,0,0,0,3.907-1.552v.144a5.436,5.436,0,0,1-3.907,1.6,5.649,5.649,0,0,1-4.137-1.729,5.7,5.7,0,0,1-1.712-4.156,5.817,5.817,0,0,1,1.213-3.726,7.34,7.34,0,0,1,1.623-1.392,3.944,3.944,0,0,1,1.855-3.281A6.207,6.207,0,0,1,27.441,0a2.991,2.991,0,0,1,2.514.946,1.242,1.242,0,0,1,.839-.214q.641.106.642.963a3.709,3.709,0,0,1-1.071,2.05m-1.658,1.5a14.29,14.29,0,0,1-1.426.839A3.206,3.206,0,0,1,27.636,7.6a1.916,1.916,0,0,1-.8,1.5,2.561,2.561,0,0,1-1.642.643,1.387,1.387,0,0,1-.953-.357,1.142,1.142,0,0,1-.4-.893,1.266,1.266,0,0,1,.32-.864,1.024,1.024,0,0,1,.8-.366c.273,0,.541.221.8.661q-1,.088-1,.642,0,.749.8.749A1.588,1.588,0,0,0,26.852,8.7a2.041,2.041,0,0,0,.535-1.391A2.432,2.432,0,0,0,27.1,6.188a5.108,5.108,0,0,1-2.194.554,2.991,2.991,0,0,1-2.354-.767,4.659,4.659,0,0,0-1.159,2.961,4.042,4.042,0,0,0,.678,2.033A2.721,2.721,0,0,0,24.5,12.36q1.891,0,3.156-2.284A8.262,8.262,0,0,0,28.707,6.1ZM27.441.142a6,6,0,0,0-3.353,1.088,3.911,3.911,0,0,0-2,3.21A6.768,6.768,0,0,1,25.3,3.318q.91-.124,1.792-.179t1.74-.054a3.236,3.236,0,0,1,.25-1.159,1.763,1.763,0,0,1,.714-.909A2.972,2.972,0,0,0,27.441.142M25.389,3.476A6.758,6.758,0,0,0,23,4.12c-.084.047-.2.114-.347.2l-.544.3a2.618,2.618,0,0,0,.5,1.053,3.681,3.681,0,0,1,2.354-.856,2.732,2.732,0,0,1,1.231.25,3.009,3.009,0,0,1,.445.311,5.809,5.809,0,0,1,.536.51,10.742,10.742,0,0,0,1.551-.91l.09-1.712q-1.712.037-3.425.213m-.427,1.5a3.012,3.012,0,0,0-2.229.856,2.739,2.739,0,0,0,2.175.731,4.282,4.282,0,0,0,2.052-.571,2.418,2.418,0,0,0-2-1.016M30.49.946a.528.528,0,0,0-.24.088.638.638,0,0,1-.187.09,1.224,1.224,0,0,1,.178.659,1.463,1.463,0,0,1-.08.472,1.718,1.718,0,0,1-.223.446,1.69,1.69,0,0,1-.33.357,1.038,1.038,0,0,1-.4.2L29.242,4.6a4.33,4.33,0,0,0,1.712-3.05c0-.4-.155-.605-.464-.605M29.206,3.031q.338-.016.589-.5a1.54,1.54,0,0,0,.231-.784,1.074,1.074,0,0,0-.123-.517,2.913,2.913,0,0,0-.7,1.8" transform="translate(6.802 0)"/>
      <path id="패스_36290" data-name="패스 36290" d="M29.941,9.646a.993.993,0,0,1-.722.312q-.749,0-.749-.856a1.05,1.05,0,0,1,.312-.741.969.969,0,0,1,.722-.33q.749,0,.749.893a.993.993,0,0,1-.312.722" transform="translate(10.161 2.866)"/>
      <path id="패스_36291" data-name="패스 36291" d="M57.578,1.426a7.159,7.159,0,0,0-2.8-.552,5.732,5.732,0,0,0-2.5.607c.179.189.375.4.589.64s.44.506.677.8a2.976,2.976,0,0,1,.446,1.5,3.032,3.032,0,0,1-1.427,2.586,4.95,4.95,0,0,1-2.924.891,11.964,11.964,0,0,1-1.266-.054,6.94,6.94,0,0,1-3.3,4.139,8.615,8.615,0,0,1-4.352,1.141,6.013,6.013,0,0,1-3.959-1.266A4.657,4.657,0,0,1,35.159,8.1,6.41,6.41,0,0,1,37.032,3.53a6.02,6.02,0,0,1,4.494-1.944,4.929,4.929,0,0,1,2.016.445A5.858,5.858,0,0,1,47.983.355a7.817,7.817,0,0,1,3.959.946A8.712,8.712,0,0,1,54.779.73a6.883,6.883,0,0,1,2.835.589ZM47.983.5A5.789,5.789,0,0,0,43.7,2.12c.262.132.487.256.678.376a4.769,4.769,0,0,1,.463.32,4.908,4.908,0,0,1,1.445,3.942,5.636,5.636,0,0,0,.624-.856l.053.267a6.681,6.681,0,0,1-.677.839Q44.933,11.2,41.295,11.2a4.343,4.343,0,0,1-3.1-1.141,3.84,3.84,0,0,1-1.285-3.015,2.844,2.844,0,0,1,.322-1.284l.178-.054a5.179,5.179,0,0,0-.32,1.338,3.741,3.741,0,0,0,1.248,2.889,4.228,4.228,0,0,0,2.961,1.106A4.475,4.475,0,0,0,45.058,9.13a5.562,5.562,0,0,0,.981-2.015,2.207,2.207,0,0,1-.891.178,2.614,2.614,0,0,1-1.071-.213,2.581,2.581,0,0,1-.829-.581,2.494,2.494,0,0,1-.535-.874,3.148,3.148,0,0,1-.187-1.1,4.291,4.291,0,0,1,.909-2.337,4.975,4.975,0,0,0-1.909-.464,5.837,5.837,0,0,0-4.369,1.925A6.261,6.261,0,0,0,35.3,8.1a4.568,4.568,0,0,0,1.337,3.459,5,5,0,0,0,3.532,1.267,6.364,6.364,0,0,0,4.6-2.052,14.158,14.158,0,0,0,1.57-2.836l1.229-2.567A13.126,13.126,0,0,1,48.82,3.654,9.265,9.265,0,0,1,50.069,2.46a12.105,12.105,0,0,1,1.445-.98A5.6,5.6,0,0,0,47.983.5M45.592,4.135a4.089,4.089,0,0,0-2-1.854,4.478,4.478,0,0,0-.874,2.247A2.719,2.719,0,0,0,43.4,6.365a2.186,2.186,0,0,0,1.748.768,1.938,1.938,0,0,0,.927-.25,5.812,5.812,0,0,0-.482-2.748m6.3-2.407a4.917,4.917,0,0,0-2.175,2.479L48.483,7.453a1.964,1.964,0,0,0,.285.019h.392a3.382,3.382,0,0,0,2.5-1.071,3.533,3.533,0,0,0,1.053-2.533,2.5,2.5,0,0,0-.821-2.14" transform="translate(12.549 0.127)"/>
      <path id="패스_36292" data-name="패스 36292" d="M52.333,11.04a1.488,1.488,0,0,1-1.356-1.016,2.181,2.181,0,0,1-1.695,1.016q-1.176,0-1.176-1.729a3.6,3.6,0,0,1,1.213-2.676,3.882,3.882,0,0,1,2.746-1.176,1.042,1.042,0,0,1,.909.427q.214-.269.375-.269a2.03,2.03,0,0,1,.375.054,2.03,2.03,0,0,0,.375.054c.047,0,.142-.079.286-.233a1.2,1.2,0,0,1,.3-.248L52.35,9.632a2.113,2.113,0,0,0-.3.821c0,.237.13.357.392.357q.6,0,2.337-1.731.623-.623,1.149-1.194T56.881,6.8l.142.125q-3.407,4.12-4.691,4.12m0-5.261q-1.052,0-2.194,1.837a5.5,5.5,0,0,0-1.016,2.6q0,.588.357.589.712,0,1.408-1.178a20.478,20.478,0,0,0,1.82-3.423c0-.286-.125-.429-.375-.429" transform="translate(17.17 1.872)"/>
      <path id="패스_36293" data-name="패스 36293" d="M57.974,9.612a4.072,4.072,0,0,1-2.818,1.48q-.91,0-.927-1.284a4.69,4.69,0,0,1,.731-1.676,7.334,7.334,0,0,0,.731-1.427c0-.083-.024-.125-.072-.125a1.2,1.2,0,0,0-.464.286,1.131,1.131,0,0,1-.659.267q-.409,0-.41-.678a1.623,1.623,0,0,1,.3-.874.817.817,0,0,1,.7-.482q.427,0,.427.411a2.1,2.1,0,0,1-.624,1.231q1.463-1.231,1.874-1.231a.563.563,0,0,1,.445.2.717.717,0,0,1,.178.49,2.308,2.308,0,0,1-.374.874L55.6,9.488a1.983,1.983,0,0,0-.339.73q0,.482.464.482,1.408,0,4.084-3.852l.142.125a17.571,17.571,0,0,1-1.98,2.639M55.085,5.367c-.178,0-.345.132-.5.392a1.412,1.412,0,0,0-.232.7c0,.2.065.3.2.3a2.657,2.657,0,0,0,.7-1.229.142.142,0,0,0-.16-.161" transform="translate(19.304 1.82)"/>
      <path id="패스_36294" data-name="패스 36294" d="M63.854,4.909a11.226,11.226,0,0,1-3.086,2.444c-.035.058-.1.16-.2.3s-.22.332-.375.571a4.175,4.175,0,0,1,2.337-1.248.623.623,0,0,1,.712.7q0,1-1.873,1.978a1.559,1.559,0,0,1,.322.7,2.672,2.672,0,0,1-.375.927,4.585,4.585,0,0,0-.375.749c0,.1.065.142.2.142q.625,0,3.71-3.852L65,8.44q-.8,1.018-1.292,1.623c-.327.406-.569.691-.723.858q-1.533,1.641-2.318,1.639t-.786-.659a3.063,3.063,0,0,1,.339-1,3.78,3.78,0,0,0,.357-.927c0-.083-.179-.137-.535-.161h-.661c-.071.107-.2.326-.375.651s-.4.776-.677,1.347c-.214.4-.44.607-.678.607a1.2,1.2,0,0,1-.285-.054,1.239,1.239,0,0,0-.285-.053.859.859,0,0,0-.322.2,2.98,2.98,0,0,1-.357.267q.358-.641.891-1.666t1.285-2.471a19.618,19.618,0,0,1,1.071-1.765q.676-1.016,1.693-2.354,2.64-3.533,3.8-3.531a.881.881,0,0,1,.49.159.466.466,0,0,1,.24.394q0,1.266-2.015,3.371M61.7,7.62a2.11,2.11,0,0,0-1.231.749A4.854,4.854,0,0,0,59.5,9.545,4.243,4.243,0,0,0,60.68,9.44a2.831,2.831,0,0,0,.909-.554,1.275,1.275,0,0,0,.482-.927c0-.227-.125-.339-.375-.339m3.121-6.314q-.5,0-2.068,2.479Q62,4.925,61.572,5.712A8.257,8.257,0,0,0,61,6.924,8.707,8.707,0,0,0,63.729,4.3a5.729,5.729,0,0,0,1.285-2.622c0-.25-.066-.375-.2-.375" transform="translate(20.13 0.352)"/>
    </g>
  </g>
</svg>
