<svg xmlns="http://www.w3.org/2000/svg" xmlns:xlink="http://www.w3.org/1999/xlink" width="86" height="24" viewBox="0 0 86 24">
  <defs>
    <clipPath id="clip-path">
      <rect id="사각형_3431" data-name="사각형 3431" width="86" height="13.565" fill="none"/>
    </clipPath>
  </defs>
  <g id="img_area" data-name="img area" transform="translate(-233 -110)">
    <rect id="image_area" data-name="image area" width="86" height="24" transform="translate(233 110)" fill="#fff" opacity="0"/>
    <g id="img" transform="translate(233 115.218)">
      <g id="그룹_1805" data-name="그룹 1805" transform="translate(0 0)" clip-path="url(#clip-path)">
        <path id="패스_36279" data-name="패스 36279" d="M8.9,3.751q0,1.526-.086,2.645a11.8,11.8,0,0,1-.265,1.852,2.837,2.837,0,0,1-.152.461c-.072.182-.167.4-.281.649s-.223.474-.327.67-.2.364-.294.506c-.043.06-.1.139-.179.237s-.174.214-.294.35a4.239,4.239,0,0,1-1.33,1.069,3.839,3.839,0,0,1-1.657.335,10.691,10.691,0,0,1-1.421-.1,6.316,6.316,0,0,1-1.4-.359,2.837,2.837,0,0,1-1.07-.678A.455.455,0,0,1,0,11.056a.747.747,0,0,1,.074-.331.852.852,0,0,1,.2-.262A.873.873,0,0,1,.555,10.3a1.083,1.083,0,0,1,.351-.057,4.233,4.233,0,0,1,1.028.351l.719.29q.294.119.465.184a2.018,2.018,0,0,0,.678.123A2.972,2.972,0,0,0,5.57,10.7a3.354,3.354,0,0,0,1.1-1.518,10.455,10.455,0,0,0,.6-3.911q0-.343-.028-1.1T7.158,2.208q-.017-.425-.032-.747c-.011-.215-.017-.392-.017-.535C7.1.894,7.111.852,7.15.8A1.184,1.184,0,0,1,7.288.657C7.343.608,7.4.564,7.452.522a1.36,1.36,0,0,0,.121-.1.455.455,0,0,1,.319-.1A.747.747,0,0,1,8.309.44a.558.558,0,0,1,.236.315,1.826,1.826,0,0,1,.032.235c.017.148.043.363.082.646q.114.839.175,1.4t.061.711" transform="translate(0 0.037)"/>
        <path id="패스_36280" data-name="패스 36280" d="M10.837,9.752a3.175,3.175,0,0,1-.074.537c-.027.127-.2.32-.514.581a1.5,1.5,0,0,1-.67.384.892.892,0,0,1-.351-.058.437.437,0,0,1-.2-.179.753.753,0,0,1-.094-.311,4.073,4.073,0,0,1-.021-.457,4.355,4.355,0,0,1,.033-.66q.032-.369,1.159-.369h.179a.671.671,0,0,1,.481.277.355.355,0,0,1,.074.254" transform="translate(1.02 1.055)"/>
        <path id="패스_36281" data-name="패스 36281" d="M27.128,2.1a1.667,1.667,0,0,1-.025.261,3.09,3.09,0,0,1-.069.315,2.456,2.456,0,0,1-.107.3.8.8,0,0,1-.134.225.87.87,0,0,1-.7.236,2.392,2.392,0,0,0-.155-.922.648.648,0,0,0-.266-.291,2.1,2.1,0,0,0-.428-.2,2.716,2.716,0,0,0-.477-.119,2.814,2.814,0,0,0-.412-.037q-.393,0-.756.017a6.382,6.382,0,0,0-.71.069,6.28,6.28,0,0,0-1.441.4c-.2.08-.4.177-.612.289a3.9,3.9,0,0,0-.587.379,2.749,2.749,0,0,0-.466.466,1.22,1.22,0,0,0-.245.555,1,1,0,0,0,.139.523,2.556,2.556,0,0,0,.42.572,3.571,3.571,0,0,0,.612.506,2.6,2.6,0,0,0,.723.334l.3.106c.157.055.328.113.509.172l.506.167c.156.052.255.084.3.094a8.278,8.278,0,0,1,2.738,1.123,1.91,1.91,0,0,1,.894,1.587,1.458,1.458,0,0,1-.134.6,3.159,3.159,0,0,1-.34.571,4.256,4.256,0,0,1-.44.5,5.04,5.04,0,0,1-.441.382c-.157.127-.337.255-.538.389s-.417.262-.645.388-.465.242-.71.351a7.939,7.939,0,0,1-.742.285q-.368.122-.772.224c-.269.069-.536.126-.8.176s-.516.088-.758.118a5.352,5.352,0,0,1-.65.046,3.2,3.2,0,0,1-.551-.062,4.7,4.7,0,0,1-.665-.171,2.587,2.587,0,0,1-.559-.262.41.41,0,0,1-.232-.322,1.488,1.488,0,0,1,.028-.261,1.765,1.765,0,0,1,.082-.3,1.122,1.122,0,0,1,.121-.249.2.2,0,0,1,.159-.1,1.194,1.194,0,0,1,.339.052c.117.036.255.075.416.118a5.745,5.745,0,0,0,.572.119,5.3,5.3,0,0,0,.8.052,5.444,5.444,0,0,0,1.016-.1,8.42,8.42,0,0,0,1.032-.273,9.274,9.274,0,0,0,.967-.392,7.548,7.548,0,0,0,.828-.457c.115-.076.242-.165.38-.265a3.356,3.356,0,0,0,.388-.331,2.021,2.021,0,0,0,.3-.383.819.819,0,0,0,.123-.425c0-.206-.153-.406-.457-.6a4.432,4.432,0,0,0-.918-.434c-.313-.1-.592-.184-.837-.243q-.45-.115-1.007-.3T20.81,7.217a4.967,4.967,0,0,1-1.878-1.241,2.774,2.774,0,0,1-.767-1.967A1.69,1.69,0,0,1,18.5,2.972a3.91,3.91,0,0,1,.934-.923,7.336,7.336,0,0,1,1.343-.756A9.155,9.155,0,0,1,22.328.776c.109-.021.241-.046.4-.074s.315-.05.48-.068.327-.037.483-.049.286-.021.4-.021c.13,0,.3.01.494.028s.4.045.613.078a5.962,5.962,0,0,1,.6.123,1.922,1.922,0,0,1,.454.171,1.97,1.97,0,0,1,.653.532,1.006,1.006,0,0,1,.236.6" transform="translate(2.026 0.065)"/>
        <path id="패스_36282" data-name="패스 36282" d="M29.372,9.752a3.174,3.174,0,0,1-.074.537c-.027.127-.2.32-.514.581a1.5,1.5,0,0,1-.67.384.892.892,0,0,1-.351-.058.437.437,0,0,1-.2-.179.753.753,0,0,1-.094-.311,4.074,4.074,0,0,1-.021-.457,4.355,4.355,0,0,1,.033-.66q.032-.369,1.159-.369h.179A.671.671,0,0,1,29.3,9.5a.355.355,0,0,1,.074.254" transform="translate(3.141 1.055)"/>
        <path id="패스_36283" data-name="패스 36283" d="M48.657,2.383a2.659,2.659,0,0,1-.236.864q-.115.288-.221.5a2.611,2.611,0,0,1-.213.359,7.284,7.284,0,0,1-1.893,1.714,25.165,25.165,0,0,1-2.637,1.559q-.864.45-1.725.8T40,8.814a.64.64,0,0,0-.049.319V9.4c0,.153.008.362.025.632s.038.6.066.992.049.739.065,1.04.025.568.025.8a.652.652,0,0,1-.187.49.7.7,0,0,1-.5.178q-.9,0-.9-3.893V9.4a9.038,9.038,0,0,1,.058-.988q.057-.53.155-1.282c.027-.157.053-.32.077-.49s.05-.347.078-.537c.055-.377.106-.7.155-.972s.109-.536.179-.791q.025-.107.057-.254c.022-.1.047-.208.074-.334q.082-.374.172-.661a3.4,3.4,0,0,1,.228-.539,2.325,2.325,0,0,1,.351-.489.818.818,0,0,1,.286-.049.553.553,0,0,1,.452.184.767.767,0,0,1,.152.5,1.5,1.5,0,0,1-.062.25c-.04.138-.087.288-.138.445s-.1.308-.147.449-.075.228-.086.261a3.015,3.015,0,0,0-.123.466c-.027.157-.056.319-.085.485s-.061.342-.095.527-.061.36-.085.542-.046.358-.061.523-.032.321-.046.466-.023.267-.028.371q.261-.114.632-.269l.861-.359q.963-.4,1.714-.76A16.5,16.5,0,0,0,44.747,5.3a8.185,8.185,0,0,0,.918-.644,11.075,11.075,0,0,0,.869-.783,2.425,2.425,0,0,0,.848-1.609c0-.228-.223-.4-.669-.522a6.651,6.651,0,0,0-.678-.143c-.228-.035-.455-.062-.678-.081s-.44-.031-.65-.038-.4-.007-.583-.007a17.884,17.884,0,0,0-3.411.351,23.773,23.773,0,0,0-2.474.733.843.843,0,0,1-.285.075.428.428,0,0,1-.3-.11.38.38,0,0,1-.118-.291.9.9,0,0,1,.233-.644,2.054,2.054,0,0,1,.673-.434,8.6,8.6,0,0,1,1.47-.416c.332-.07.664-.132,1-.184s.673-.1,1.016-.143A14.324,14.324,0,0,1,43.473.293q.441,0,.854.008c.274.006.544.017.807.037s.528.049.792.089.532.095.8.16a3.464,3.464,0,0,1,1.372.635,1.4,1.4,0,0,1,.555,1.16" transform="translate(4.296 0.034)"/>
        <path id="패스_36284" data-name="패스 36284" d="M60.594,6.526a1.393,1.393,0,0,1-.025.233,2.35,2.35,0,0,1-.069.274c-.031.094-.064.182-.1.265a.917.917,0,0,1-.11.2c-.033.045-.081.1-.144.176l-.207.242c-.077.087-.159.177-.25.273s-.184.186-.281.273q-.507.465-.993.9a8.063,8.063,0,0,1-1,.772,5.127,5.127,0,0,1-1.073.534,3.454,3.454,0,0,1-1.211.192,1.784,1.784,0,0,1-.608-.11,2.164,2.164,0,0,1-.575-.314,2.093,2.093,0,0,1-.466-.489,1.875,1.875,0,0,1-.277-.629q-.236.246-.5.509t-.543.536c-.187.178-.382.353-.583.523a7.315,7.315,0,0,1-.621.465c-.119.076-.263.157-.429.244a5.48,5.48,0,0,1-.523.241,4.166,4.166,0,0,1-.546.179,2.006,2.006,0,0,1-.494.07.856.856,0,0,1-.576-.208,1.732,1.732,0,0,1-.4-.51,2.548,2.548,0,0,1-.237-.644,2.836,2.836,0,0,1-.077-.613,4.14,4.14,0,0,1,.155-1.1,6.9,6.9,0,0,1,.4-1.1A8.57,8.57,0,0,1,48.8,6.893c.2-.321.4-.605.6-.857a6.65,6.65,0,0,1,.734-.779,7.29,7.29,0,0,1,.882-.693,5.444,5.444,0,0,1,.9-.495,2.042,2.042,0,0,1,.783-.188h.363a3.565,3.565,0,0,1,.379.021,2.85,2.85,0,0,1,.368.066,1.165,1.165,0,0,1,.327.135.753.753,0,0,1,.172.188,2.454,2.454,0,0,1,.183.309,2.6,2.6,0,0,1,.144.344.9.9,0,0,1,.057.269,2.9,2.9,0,0,1-.123.718c-.087.376-.167.718-.241,1.024a4.087,4.087,0,0,0-.11.952,1.887,1.887,0,0,0,.09.566A1.8,1.8,0,0,0,54.558,9a1.38,1.38,0,0,0,.408.388.991.991,0,0,0,.543.152,2.757,2.757,0,0,0,1.02-.208,5.54,5.54,0,0,0,1.056-.572,9.713,9.713,0,0,0,1.065-.841Q59.182,7.441,59.7,6.9c.027-.032.075-.089.143-.167s.139-.158.212-.237.146-.149.217-.212a.3.3,0,0,1,.155-.094c.114,0,.172.111.172.333m-7.265-.676c0-.092-.006-.207-.017-.343a.659.659,0,0,0-.106-.333.252.252,0,0,0-.221-.128c-.087,0-.174,0-.261,0a1.722,1.722,0,0,0-.551.09,2.452,2.452,0,0,0-.518.249,3.594,3.594,0,0,0-.486.368q-.232.207-.454.437a4.538,4.538,0,0,0-.4.465c-.138.186-.275.388-.408.608s-.263.451-.388.694a7.4,7.4,0,0,0-.327.718,5.524,5.524,0,0,0-.221.685,2.512,2.512,0,0,0-.081.6,1.56,1.56,0,0,0,.02.217,1.4,1.4,0,0,0,.066.261.64.64,0,0,0,.123.216.241.241,0,0,0,.192.09,2.533,2.533,0,0,0,.938-.237,4.893,4.893,0,0,0,1.392-.894,5.654,5.654,0,0,0,1.065-1.309,5,5,0,0,0,.636-2.457" transform="translate(5.456 0.444)"/>
        <path id="패스_36285" data-name="패스 36285" d="M65.934,5.45c0,.032,0,.079-.009.143a.753.753,0,0,1-.041.187.86.86,0,0,1-.077.167.137.137,0,0,1-.119.074l-.163,0c-.077,0-.157-.007-.241-.012l-.241-.013-.164,0a3.876,3.876,0,0,0-2.6,1.143,8.765,8.765,0,0,0-1.763,2.727c-.092.234-.183.476-.274.726s-.175.515-.256.791a3.625,3.625,0,0,0-.094.406,2.693,2.693,0,0,1-.092.371c-.012.043-.059.086-.139.126a2.1,2.1,0,0,1-.274.11c-.1.032-.2.059-.29.082a1.208,1.208,0,0,1-.187.032q-.565.032-.637-1.168-.025-.326-.02-.592c0-.176.009-.348.02-.514s.027-.341.045-.523.04-.388.061-.616c.029-.282.06-.608.1-.98s.081-.742.13-1.118.1-.733.155-1.073.111-.622.172-.846a1.4,1.4,0,0,1,.249-.571.634.634,0,0,1,.471-.2.4.4,0,0,1,.174.045A.664.664,0,0,1,60,4.462a.876.876,0,0,1,.13.155.371.371,0,0,1,.061.148,3.767,3.767,0,0,1-.008.444c-.011.162-.03.327-.057.5s-.06.344-.1.518-.077.341-.115.5q-.114.463-.176.795c-.04.221-.075.435-.1.642s-.055.427-.081.664-.062.529-.106.877c.093-.206.172-.383.24-.529s.13-.276.184-.389.1-.21.153-.3.1-.179.149-.274l.181-.314c.065-.115.146-.253.244-.417a6.955,6.955,0,0,1,1.225-1.546,4.627,4.627,0,0,1,1.257-.863,3.212,3.212,0,0,1,1.127-.35,3.684,3.684,0,0,1,.506.023,2.9,2.9,0,0,1,.563.123,1.657,1.657,0,0,1,.461.233.426.426,0,0,1,.193.348" transform="translate(6.667 0.492)"/>
        <path id="패스_36286" data-name="패스 36286" d="M78.481,6.954a1.493,1.493,0,0,1-.152.318q-.15.277-.425.7t-.649.944q-.374.522-.824,1.056t-.951,1.045a9.552,9.552,0,0,1-1.033.909,5.546,5.546,0,0,1-1.07.641,2.568,2.568,0,0,1-1.052.241,2.167,2.167,0,0,1-.633-.09,2.5,2.5,0,0,1-.564-.249,3.388,3.388,0,0,1-.506-.372,6.011,6.011,0,0,1-.46-.448c-.2-.212-.383-.426-.559-.641s-.345-.416-.506-.6-.318-.357-.469-.506a2.176,2.176,0,0,0-.449-.348l-.094.1c-.052.056-.11.117-.176.184s-.129.136-.192.205-.11.12-.143.158a5.359,5.359,0,0,0-.351.461,1.224,1.224,0,0,0-.179.371,1.457,1.457,0,0,0-.053.327c-.008.126-.012.251-.012.376a3.133,3.133,0,0,1-.04.547.87.87,0,0,1-.136.351.5.5,0,0,1-.252.184,1.3,1.3,0,0,1-.4.053c-.2,0-.32-.048-.371-.144a1.025,1.025,0,0,1-.077-.461,4.583,4.583,0,0,1,.028-.49c.019-.173.043-.349.074-.525s.06-.353.09-.527.056-.34.077-.5q.1-.654.179-1.274t.159-1.24q.077-.62.152-1.254t.155-1.311q.13-1.051.2-2.142T66.947.98A1.154,1.154,0,0,1,67,.644,1.058,1.058,0,0,1,67.159.33a.943.943,0,0,1,.253-.236A.6.6,0,0,1,67.748,0a.846.846,0,0,1,.4.08.67.67,0,0,1,.233.2.71.71,0,0,1,.109.242.945.945,0,0,1,.029.211,3.283,3.283,0,0,1-.04.421c-.028.187-.061.395-.1.623s-.086.466-.135.711-.095.473-.138.681-.081.39-.11.539-.048.244-.053.282q-.179.988-.278,1.6t-.138.939q-.124.988-.213,1.681T67.151,9.3q.326-.368.678-.768c.234-.265.469-.537.705-.812s.471-.551.7-.828.454-.549.665-.816q.2-.254.461-.616c.177-.243.368-.479.572-.711a4.982,4.982,0,0,1,.645-.615,1.587,1.587,0,0,1,.681-.335.609.609,0,0,1,.343.032.648.648,0,0,1,.24.184.813.813,0,0,1,.139.254.76.76,0,0,1,.045.241.676.676,0,0,1-.195.4,5.1,5.1,0,0,1-.478.489c-.187.173-.388.345-.6.518s-.4.339-.564.49q-.366.343-.665.637c-.2.2-.381.384-.551.567s-.329.36-.481.534-.3.354-.457.539a4.056,4.056,0,0,1,.489.374c.153.137.308.284.466.446s.319.329.485.506.348.36.544.551a3.657,3.657,0,0,0,.922.71,1.662,1.662,0,0,0,.711.188,1.74,1.74,0,0,0,.783-.217,5.125,5.125,0,0,0,.873-.571,10.649,10.649,0,0,0,.906-.808q.458-.453.882-.923c.283-.312.549-.621.8-.922s.47-.572.661-.809.345-.427.466-.571.191-.216.212-.216a.155.155,0,0,1,.123.057.453.453,0,0,1,.078.139.727.727,0,0,1,.037.171c.006.06.008.113.008.156" transform="translate(7.519 0)"/>
      </g>
    </g>
  </g>
</svg>
