<svg xmlns="http://www.w3.org/2000/svg" xmlns:xlink="http://www.w3.org/1999/xlink" width="320" height="440" viewBox="0 0 320 440">
  <defs>
    <clipPath id="clip-path">
      <rect id="사각형_3246" data-name="사각형 3246" width="154" height="111" transform="translate(-0.256 -0.18)" fill="#767675"/>
    </clipPath>
  </defs>
  <g id="no_img" transform="translate(-60 -705)">
    <rect id="사각형_3944" data-name="사각형 3944" width="320" height="440" transform="translate(60 705)" fill="#f7f7f7"/>
    <g id="그룹_568" data-name="그룹 568" transform="translate(150.256 856.18)" opacity="0.5" clip-path="url(#clip-path)">
      <path id="패스_13879" data-name="패스 13879" d="M61.476,42.576a12.293,12.293,0,0,0-8.967,3.389c-2.466,2.44-3.822,6.279-3.822,10.8s1.357,8.36,3.822,10.8a12.3,12.3,0,0,0,8.967,3.421,12.384,12.384,0,0,0,9-3.421c2.425-2.439,3.78-6.279,3.78-10.8s-1.355-8.362-3.78-10.8a12.388,12.388,0,0,0-9-3.389m5.189,22.032h0a6.461,6.461,0,0,1-5.189,2.376,6.37,6.37,0,0,1-5.151-2.376C55,62.963,54.3,60.223,54.3,56.767s.7-6.158,2.026-7.845a6.342,6.342,0,0,1,5.151-2.333,6.436,6.436,0,0,1,5.189,2.333c1.326,1.689,2.006,4.389,2.006,7.845s-.68,6.2-2.006,7.841" transform="translate(7.215 4.497)" fill="#767675"/>
      <path id="패스_13880" data-name="패스 13880" d="M127.8,45.965a13.636,13.636,0,0,0-17.993,0c-2.444,2.44-3.79,6.279-3.79,10.8s1.346,8.36,3.79,10.8a13.54,13.54,0,0,0,17.993,0c2.429-2.44,3.777-6.28,3.777-10.8s-1.345-8.362-3.777-10.8m-3.817,18.643h0a6.822,6.822,0,0,1-10.348,0c-1.313-1.645-2.014-4.385-2.014-7.841s.7-6.158,2.014-7.845a6.905,6.905,0,0,1,10.348,0c1.324,1.69,2,4.391,2,7.847s-.677,6.2-2,7.841" transform="translate(10.945 4.497)" fill="#767675"/>
      <path id="패스_13881" data-name="패스 13881" d="M37.733,70.3a2.575,2.575,0,0,1-.688-1.9V58.543L46.22,43.138H39.938c.454.454.5,1.18-.053,2.046l-4.967,8.623c-4.179-7.582-4.174-7.794-4.929-9.172-.592-1.044-1.093-1.5-2.208-1.5H22.83a10.671,10.671,0,0,1,1.644,2.323l7.315,13.017V68.4a2.58,2.58,0,0,1-.686,1.9Z" transform="translate(5.533 4.535)" fill="#767675"/>
      <path id="패스_13882" data-name="패스 13882" d="M80.916,70.3a2.581,2.581,0,0,0,.687-1.9V45.037a2.582,2.582,0,0,0-.687-1.9h8.976c4.31,0,8.065,2.083,8.065,6.125a6.008,6.008,0,0,1-2.772,5.2,7.35,7.35,0,0,1,4.978,6.946A8.453,8.453,0,0,1,96.9,68.1a10.7,10.7,0,0,1-7,2.2Zm5.943-16.907a8.739,8.739,0,0,0,3.834-.462,2.9,2.9,0,0,0,1.841-2.814,3.259,3.259,0,0,0-3.5-3.071,6.864,6.864,0,0,0-2.18.276v6.07m5.878,12.333a4.305,4.305,0,0,0,1.913-3.985c0-2.977-2.616-4.347-5.129-4.347a19.064,19.064,0,0,0-2.662.158v8.7c1.729.482,4.5.363,5.878-.528" transform="translate(9.312 4.535)" fill="#767675"/>
      <path id="패스_13883" data-name="패스 13883" d="M.688,68.4A2.578,2.578,0,0,1,0,70.3H6.629a2.578,2.578,0,0,1-.686-1.9V57.791l7.7,11.012a2.6,2.6,0,0,0,2.379,1.5h5.314a12.661,12.661,0,0,1-1.911-2.325L10.738,55.641l8.881-12.5H13.084c.339.443.38,1-.255,2.069l-6.887,9.95V45.037a2.579,2.579,0,0,1,.686-1.9H0a2.579,2.579,0,0,1,.687,1.9Z" transform="translate(4.048 4.535)" fill="#767675"/>
      <path id="패스_13884" data-name="패스 13884" d="M140.795,8.841c-2.47-2.506-6.56-2.073-8.975.488-3.133,3.3-5.575,4.533-8.476,4.405-4.057-.174-6.058-3.316-8.143-7.282C113.036,2.306,109.711,0,105.562,0c-6.52,0-10.439,5.293-10.439,11.195,0,9.084,6.376,14.516,10.786,16.807a26.32,26.32,0,0,0,11.377,2.8,34.4,34.4,0,0,1-1.561,7.067h7.465a33.56,33.56,0,0,1-1.585-7.3c10.931-1.422,16.12-6.4,18.965-11.139a12,12,0,0,0,1.948-6.173,6.079,6.079,0,0,0-1.723-4.411m-35.175,5.685a3.829,3.829,0,1,1,3.551-4.06,3.824,3.824,0,0,1-3.551,4.06" transform="translate(10.236 1.629)" fill="#767675"/>
      <path id="패스_13885" data-name="패스 13885" d="M94.941,86.5H91.748v9.566H85.656v2.507H104.58V96.064H94.941Z" transform="translate(9.62 7.456)" fill="#767675"/>
      <path id="패스_13886" data-name="패스 13886" d="M99.083,94.14h2.078c.786-4.014,1.332-9.026,1.66-12.388.178-1.813.185-2.764-1.443-2.764H87.163v2.506h11.92Z" transform="translate(9.718 6.95)" fill="#767675"/>
      <path id="패스_13887" data-name="패스 13887" d="M68.533,87.222H82.369V78.906H66.551v6.323a1.754,1.754,0,0,0,1.982,1.993M78.808,84.71h-8.7v-3.3h8.7Z" transform="translate(8.377 6.944)" fill="#767675"/>
      <path id="패스_13888" data-name="패스 13888" d="M70.524,92.2H66.965v4.927a1.751,1.751,0,0,0,1.977,1.99H82.392V96.606H70.524Z" transform="translate(8.404 7.84)" fill="#767675"/>
      <path id="패스_13889" data-name="패스 13889" d="M64.883,90.833h8.275v3.9h3.559v-3.9h7.533V88.327H64.883Z" transform="translate(8.269 7.579)" fill="#767675"/>
      <path id="패스_13890" data-name="패스 13890" d="M34.852,87.134h-3.19v8.887H29.485V87.134H26.29v8.887H21.975v2.507H41.691V96.021H34.852Z" transform="translate(5.477 7.499)" fill="#767675"/>
      <path id="패스_13891" data-name="패스 13891" d="M36.517,94.14H38.6c.783-4.014,1.333-9.026,1.66-12.388.177-1.813.185-2.764-1.442-2.764H23.981v2.506H36.517Z" transform="translate(5.608 6.95)" fill="#767675"/>
      <path id="패스_13892" data-name="패스 13892" d="M55.072,91.455H51.518v4.276H43.372v2.507H63.1V95.731H55.072Z" transform="translate(6.869 7.79)" fill="#767675"/>
      <path id="패스_13893" data-name="패스 13893" d="M47.95,90.96H58.171a1.754,1.754,0,0,0,1.984-1.99V78.793H56.589v4.122H49.529V78.793h-3.56V88.97a1.752,1.752,0,0,0,1.981,1.99m8.639-5.543v3.39H49.529v-3.39Z" transform="translate(7.038 6.937)" fill="#767675"/>
    </g>
  </g>
</svg>
