<svg xmlns="http://www.w3.org/2000/svg" width="102.214" height="119.24" viewBox="0 0 102.214 119.24">
  <path id="패스_38153" data-name="패스 38153" d="M95.706,104.1l2.88,13.6a14.839,14.839,0,0,0,11.438,11.438l13.595,2.876a2.718,2.718,0,0,1,0,5.319l-13.595,2.88A14.835,14.835,0,0,0,98.586,151.65l-2.88,13.6a2.719,2.719,0,0,1-5.319,0l-2.876-13.6a14.839,14.839,0,0,0-11.442-11.439l-13.595-2.88a2.719,2.719,0,0,1,0-5.319l13.595-2.876A14.843,14.843,0,0,0,87.511,117.7l2.876-13.6A2.719,2.719,0,0,1,95.706,104.1Z" transform="translate(-60.319 -101.946)" fill="#ffee24"/>
  <path id="패스_38155" data-name="패스 38155" d="M76.948,102.958l1.353,6.39a6.973,6.973,0,0,0,5.375,5.375l6.388,1.352a1.277,1.277,0,0,1,0,2.5l-6.388,1.353A6.971,6.971,0,0,0,78.3,125.3l-1.353,6.39a1.278,1.278,0,0,1-2.5,0L73.1,125.3a6.973,6.973,0,0,0-5.377-5.375l-6.388-1.353a1.278,1.278,0,0,1,0-2.5l6.388-1.352a6.975,6.975,0,0,0,5.377-5.375l1.352-6.39A1.278,1.278,0,0,1,76.948,102.958Z" transform="translate(11.136 -13.465)" fill="#ffee24"/>
</svg>
