<svg xmlns="http://www.w3.org/2000/svg" xmlns:xlink="http://www.w3.org/1999/xlink" width="161" height="184" viewBox="0 0 161 184">
  <defs>
    <clipPath id="clip-path">
      <rect id="사각형_20567" data-name="사각형 20567" width="161" height="184" transform="translate(-13023.5 -1717.356)" fill="#fff" stroke="#707070" stroke-width="1"/>
    </clipPath>
  </defs>
  <g id="마스크_그룹_110099" data-name="마스크 그룹 110099" transform="translate(13023.5 1717.356)" clip-path="url(#clip-path)">
    <g id="그룹_112099" data-name="그룹 112099" transform="translate(-13004.004 -1720.443) rotate(7)">
      <g id="그룹_112087" data-name="그룹 112087" transform="translate(0 0)">
        <path id="패스_37356" data-name="패스 37356" d="M142.957,71.478A71.479,71.479,0,1,1,71.479,0a71.478,71.478,0,0,1,71.478,71.478" transform="translate(0.091 0.092)" fill="#4f4f4f" stroke="#000" stroke-width="1.5"/>
        <circle id="타원_695" data-name="타원 695" cx="71.479" cy="71.479" r="71.479" transform="translate(0 0.183) rotate(-0.073)" fill="none" stroke="#000" stroke-linecap="round" stroke-linejoin="round" stroke-width="3"/>
        <path id="패스_37357" data-name="패스 37357" d="M58.732,58.733A58.8,58.8,0,0,1,0,0" transform="translate(12.837 71.57)" fill="none" stroke="#000" stroke-linecap="round" stroke-linejoin="round" stroke-width="3"/>
        <path id="패스_37358" data-name="패스 37358" d="M0,0A58.8,58.8,0,0,1,58.733,58.733" transform="translate(71.57 12.837)" fill="none" stroke="#000" stroke-linecap="round" stroke-linejoin="round" stroke-width="3"/>
        <path id="패스_37359" data-name="패스 37359" d="M50.728,50.729A50.786,50.786,0,0,1,0,0" transform="translate(23.695 69.677)" fill="none" stroke="#000" stroke-linecap="round" stroke-linejoin="round" stroke-width="3"/>
        <path id="패스_37360" data-name="패스 37360" d="M0,0A50.786,50.786,0,0,1,50.729,50.729" transform="translate(70.423 24.068)" fill="none" stroke="#000" stroke-linecap="round" stroke-linejoin="round" stroke-width="3"/>
        <path id="패스_37363" data-name="패스 37363" d="M34.721,34.722A34.761,34.761,0,0,1,0,0" transform="translate(36.848 71.571)" fill="none" stroke="#000" stroke-linecap="round" stroke-linejoin="round" stroke-width="3"/>
        <path id="패스_37364" data-name="패스 37364" d="M0,0A34.761,34.761,0,0,1,34.722,34.722" transform="translate(71.57 36.848)" fill="none" stroke="#000" stroke-linecap="round" stroke-linejoin="round" stroke-width="3"/>
        <path id="패스_37365" data-name="패스 37365" d="M45.28,22.639A22.64,22.64,0,1,1,22.64,0,22.639,22.639,0,0,1,45.28,22.639" transform="translate(48.93 48.931)" fill="#ff8883" stroke="#000" stroke-width="1.5"/>
        <path id="패스_37366" data-name="패스 37366" d="M45.28,22.639A22.64,22.64,0,1,1,22.64,0,22.639,22.639,0,0,1,45.28,22.639Z" transform="translate(48.93 48.931)" fill="none" stroke="#000" stroke-linecap="round" stroke-linejoin="round" stroke-width="3"/>
        <path id="패스_37367" data-name="패스 37367" d="M42.541,10.862c-2.291-.255-4.217,1.839-4.217,4.458v-4.7c0-2.34-1.466-4.429-3.462-4.651-2.29-.255-4.217,1.839-4.217,4.458V4.671c0-2.339-1.467-4.428-3.463-4.65-2.29-.255-4.217,1.839-4.217,4.458v5.95c0-2.619-1.926-4.712-4.217-4.458-2,.222-3.462,2.311-3.462,4.651V47.813L9.166,37.245C7.65,34.625,4.6,33.7,2.307,35.394A6.369,6.369,0,0,0,.849,43.505L11.129,61.261A15.567,15.567,0,0,0,14.04,64.92,18.957,18.957,0,0,1,19.8,78.84l-3.517,42.7H36.6l3.517-48.9a19.1,19.1,0,0,1,2.961-10.535A17.978,17.978,0,0,0,46,52.136V15.513c0-2.34-1.466-4.429-3.462-4.651" transform="translate(93.86 77.881) rotate(8)" fill="#ffc1ab"/>
        <path id="패스_37368" data-name="패스 37368" d="M42.541,10.7c-2.291-.251-4.217,1.812-4.217,4.393v-4.63c0-2.306-1.466-4.364-3.462-4.583-2.29-.251-4.217,1.812-4.217,4.393V4.6c0-2.3-1.467-4.363-3.463-4.582-2.29-.251-4.217,1.812-4.217,4.393v5.863c0-2.581-1.926-4.643-4.217-4.393-2,.219-3.462,2.277-3.462,4.583v36.65L9.166,36.7C7.65,34.121,4.6,33.213,2.307,34.878A6.214,6.214,0,0,0,.849,42.872l10.281,17.5a15.382,15.382,0,0,0,2.911,3.605A18.547,18.547,0,0,1,19.8,77.692l-3.365,44.145H36.748l3.365-50.252A18.618,18.618,0,0,1,43.074,61.2,17.53,17.53,0,0,0,46,51.377V15.287C46,12.981,44.537,10.923,42.541,10.7Z" transform="translate(93.86 77.881) rotate(8)" fill="none" stroke="#000" stroke-linecap="round" stroke-linejoin="round" stroke-width="3"/>
        <g id="그룹_112101" data-name="그룹 112101" transform="translate(115.357 89.93) rotate(8)">
          <line id="선_780" data-name="선 780" y2="18.642" transform="translate(0 0)" fill="#ffc1ab" stroke="#000" stroke-width="3"/>
          <line id="선_781" data-name="선 781" y2="18.642" transform="translate(0 0)" fill="none" stroke="#000" stroke-linecap="round" stroke-linejoin="round" stroke-width="3"/>
          <line id="선_782" data-name="선 782" y2="18.642" transform="translate(7.68 0)" fill="#ffc1ab" stroke="#000" stroke-width="3"/>
          <line id="선_783" data-name="선 783" y2="18.642" transform="translate(7.68 0)" fill="none" stroke="#000" stroke-linecap="round" stroke-linejoin="round" stroke-width="3"/>
          <line id="선_784" data-name="선 784" y2="14.449" transform="translate(15.358 4.194)" fill="#ffc1ab" stroke="#000" stroke-width="3"/>
          <line id="선_785" data-name="선 785" y2="14.449" transform="translate(15.358 4.194)" fill="none" stroke="#000" stroke-linecap="round" stroke-linejoin="round" stroke-width="3"/>
        </g>
      </g>
    </g>
  </g>
</svg>
