<svg xmlns="http://www.w3.org/2000/svg" xmlns:xlink="http://www.w3.org/1999/xlink" width="335" height="370.75" viewBox="0 0 335 370.75">
  <defs>
    <clipPath id="clip-path">
      <rect id="사각형_3574" data-name="사각형 3574" width="50" height="100" transform="translate(305 317)" fill="none" stroke="#eaeaea" stroke-linecap="round" stroke-width="2" stroke-dasharray="2 6"/>
    </clipPath>
    <clipPath id="clip-path-3">
      <rect id="사각형_3575" data-name="사각형 3575" width="50" height="100" fill="none" stroke="#eaeaea" stroke-linecap="round" stroke-width="2" stroke-dasharray="2 6"/>
    </clipPath>
  </defs>
  <g id="그룹_2212" data-name="그룹 2212" transform="translate(-20 -267.25)">
    <line id="선_168" data-name="선 168" x2="223.5" transform="translate(81.5 288.5)" fill="none" stroke="#000" stroke-linecap="round" stroke-width="2" stroke-dasharray="2 6"/>
    <line id="선_171" data-name="선 171" x2="228.5" transform="translate(76.5 585.5)" fill="none" stroke="#eaeaea" stroke-linecap="round" stroke-width="2" stroke-dasharray="2 6"/>
    <line id="선_169" data-name="선 169" x2="235" transform="translate(70 387.5)" fill="none" stroke="#eaeaea" stroke-linecap="round" stroke-width="2" stroke-dasharray="2 6"/>
    <line id="선_170" data-name="선 170" x2="235" transform="translate(70 486.5)" fill="none" stroke="#eaeaea" stroke-linecap="round" stroke-width="2" stroke-dasharray="2 6"/>
    <g id="마스크_그룹_1238" data-name="마스크 그룹 1238" transform="translate(0 -29)" clip-path="url(#clip-path)">
      <g id="타원_260" data-name="타원 260" transform="translate(255 317)" fill="none" stroke="#eaeaea" stroke-linecap="round" stroke-width="2" stroke-dasharray="2 6">
        <circle cx="50" cy="50" r="50" stroke="none"/>
        <circle cx="50" cy="50" r="49" fill="none"/>
      </g>
    </g>
    <g id="마스크_그룹_1240" data-name="마스크 그룹 1240" transform="translate(0 169)" clip-path="url(#clip-path)">
      <g id="타원_262" data-name="타원 262" transform="translate(255 317)" fill="none" stroke="#eaeaea" stroke-linecap="round" stroke-width="2" stroke-dasharray="2 6">
        <circle cx="50" cy="50" r="50" stroke="none"/>
        <circle cx="50" cy="50" r="49" fill="none"/>
      </g>
    </g>
    <g id="마스크_그룹_1239" data-name="마스크 그룹 1239" transform="translate(20 387)" clip-path="url(#clip-path-3)">
      <g id="타원_261" data-name="타원 261" fill="none" stroke="#eaeaea" stroke-linecap="round" stroke-width="2" stroke-dasharray="2 6">
        <circle cx="50" cy="50" r="50" stroke="none"/>
        <circle cx="50" cy="50" r="49" fill="none"/>
      </g>
    </g>
    <g id="타원_263" data-name="타원 263" transform="translate(76 281)" fill="#fff" stroke="#000" stroke-width="5">
      <circle cx="8" cy="8" r="8" stroke="none"/>
      <circle cx="8" cy="8" r="5.5" fill="none"/>
    </g>
    <g id="타원_310" data-name="타원 310" transform="translate(76 379)" fill="#fff" stroke="#ccc" stroke-width="5">
      <circle cx="8" cy="8" r="8" stroke="none"/>
      <circle cx="8" cy="8" r="5.5" fill="none"/>
    </g>
    <g id="타원_313" data-name="타원 313" transform="translate(76 478)" fill="#fff" stroke="#ccc" stroke-width="5">
      <circle cx="8" cy="8" r="8" stroke="none"/>
      <circle cx="8" cy="8" r="5.5" fill="none"/>
    </g>
    <g id="타원_316" data-name="타원 316" transform="translate(76 577)" fill="#fff" stroke="#da2128" stroke-width="5">
      <circle cx="8" cy="8" r="8" stroke="none"/>
      <circle cx="8" cy="8" r="5.5" fill="none"/>
    </g>
    <g id="타원_306" data-name="타원 306" transform="translate(180 281)" fill="#fff" stroke="#000" stroke-width="5">
      <circle cx="8" cy="8" r="8" stroke="none"/>
      <circle cx="8" cy="8" r="5.5" fill="none"/>
    </g>
    <g id="타원_309" data-name="타원 309" transform="translate(180 379)" fill="#fff" stroke="#ccc" stroke-width="5">
      <circle cx="8" cy="8" r="8" stroke="none"/>
      <circle cx="8" cy="8" r="5.5" fill="none"/>
    </g>
    <g id="타원_312" data-name="타원 312" transform="translate(180 478)" fill="#fff" stroke="#ccc" stroke-width="5">
      <circle cx="8" cy="8" r="8" stroke="none"/>
      <circle cx="8" cy="8" r="5.5" fill="none"/>
    </g>
    <g id="타원_315" data-name="타원 315" transform="translate(180 577)" fill="#fff" stroke="#ccc" stroke-width="5">
      <circle cx="8" cy="8" r="8" stroke="none"/>
      <circle cx="8" cy="8" r="5.5" fill="none"/>
    </g>
    <g id="타원_307" data-name="타원 307" transform="translate(284 281)" fill="#fff" stroke="#ccc" stroke-width="5">
      <circle cx="8" cy="8" r="8" stroke="none"/>
      <circle cx="8" cy="8" r="5.5" fill="none"/>
    </g>
    <g id="타원_308" data-name="타원 308" transform="translate(284 379)" fill="#fff" stroke="#ccc" stroke-width="5">
      <circle cx="8" cy="8" r="8" stroke="none"/>
      <circle cx="8" cy="8" r="5.5" fill="none"/>
    </g>
    <g id="타원_311" data-name="타원 311" transform="translate(284 478)" fill="#fff" stroke="#ccc" stroke-width="5">
      <circle cx="8" cy="8" r="8" stroke="none"/>
      <circle cx="8" cy="8" r="5.5" fill="none"/>
    </g>
    <g id="타원_314" data-name="타원 314" transform="translate(284 577)" fill="#fff" stroke="#ccc" stroke-width="5">
      <circle cx="8" cy="8" r="8" stroke="none"/>
      <circle cx="8" cy="8" r="5.5" fill="none"/>
    </g>
    <text id="subtitle" transform="translate(45 323)" fill="#767676" font-size="13" font-family="Roboto-Regular, Roboto" letter-spacing="-0.01em"><tspan x="22.57" y="14">100M</tspan></text>
    <text id="subtitle-2" data-name="subtitle" transform="translate(45 421)" fill="#767676" font-size="13" font-family="Roboto-Regular, Roboto" letter-spacing="-0.01em"><tspan x="22.57" y="14">600M</tspan></text>
    <text id="subtitle-3" data-name="subtitle" transform="translate(45 520)" fill="#767676" font-size="13" font-family="Roboto-Regular, Roboto" letter-spacing="-0.01em"><tspan x="22.57" y="14">700M</tspan></text>
    <text id="subtitle-4" data-name="subtitle" transform="translate(45 619)" fill="#767676" font-size="13" font-family="Roboto-Regular, Roboto" letter-spacing="-0.01em"><tspan x="17.775" y="14">1,200M</tspan></text>
    <text id="subtitle-5" data-name="subtitle" transform="translate(149 323)" fill="#767676" font-size="13" font-family="Roboto-Regular, Roboto" letter-spacing="-0.01em"><tspan x="22.57" y="14">200M</tspan></text>
    <text id="subtitle-6" data-name="subtitle" transform="translate(149 421)" fill="#767676" font-size="13" font-family="Roboto-Regular, Roboto" letter-spacing="-0.01em"><tspan x="22.57" y="14">500M</tspan></text>
    <text id="subtitle-7" data-name="subtitle" transform="translate(149 520)" fill="#767676" font-size="13" font-family="Roboto-Regular, Roboto" letter-spacing="-0.01em"><tspan x="22.57" y="14">800M</tspan></text>
    <text id="subtitle-8" data-name="subtitle" transform="translate(149 619)" fill="#767676" font-size="13" font-family="Roboto-Regular, Roboto" letter-spacing="-0.01em"><tspan x="17.775" y="14">1,100M</tspan></text>
    <text id="subtitle-9" data-name="subtitle" transform="translate(253 323)" fill="#767676" font-size="13" font-family="Roboto-Regular, Roboto" letter-spacing="-0.01em"><tspan x="22.57" y="14">300M</tspan></text>
    <text id="subtitle-10" data-name="subtitle" transform="translate(253 421)" fill="#767676" font-size="13" font-family="Roboto-Regular, Roboto" letter-spacing="-0.01em"><tspan x="22.57" y="14">400M</tspan></text>
    <text id="subtitle-11" data-name="subtitle" transform="translate(253 520)" fill="#767676" font-size="13" font-family="Roboto-Regular, Roboto" letter-spacing="-0.01em"><tspan x="22.57" y="14">900M</tspan></text>
    <text id="subtitle-12" data-name="subtitle" transform="translate(253 619)" fill="#767676" font-size="13" font-family="Roboto-Regular, Roboto" letter-spacing="-0.01em"><tspan x="17.775" y="14">1,000M</tspan></text>
    <text id="title" transform="translate(65 301)" font-size="14" font-family="Roboto-Bold, Roboto" font-weight="700" letter-spacing="-0.01em"><tspan x="14.984" y="15">1</tspan></text>
    <text id="title-2" data-name="title" transform="translate(65 399)" font-size="14" font-family="Roboto-Bold, Roboto" font-weight="700" letter-spacing="-0.01em"><tspan x="14.984" y="15">6</tspan></text>
    <text id="title-3" data-name="title" transform="translate(65 498)" font-size="14" font-family="Roboto-Bold, Roboto" font-weight="700" letter-spacing="-0.01em"><tspan x="14.984" y="15">7</tspan></text>
    <text id="title-4" data-name="title" transform="translate(65 597)" font-size="14" font-family="Roboto-Bold, Roboto" font-weight="700" letter-spacing="-0.01em"><tspan x="11.038" y="15">12</tspan></text>
    <text id="title-5" data-name="title" transform="translate(169 301)" font-size="14" font-family="Roboto-Bold, Roboto" font-weight="700" letter-spacing="-0.01em"><tspan x="14.984" y="15">2</tspan></text>
    <text id="title-6" data-name="title" transform="translate(169 399)" font-size="14" font-family="Roboto-Bold, Roboto" font-weight="700" letter-spacing="-0.01em"><tspan x="14.984" y="15">5</tspan></text>
    <text id="title-7" data-name="title" transform="translate(169 498)" font-size="14" font-family="Roboto-Bold, Roboto" font-weight="700" letter-spacing="-0.01em"><tspan x="14.984" y="15">8</tspan></text>
    <text id="title-8" data-name="title" transform="translate(169 597)" font-size="14" font-family="Roboto-Bold, Roboto" font-weight="700" letter-spacing="-0.01em"><tspan x="11.038" y="15">11</tspan></text>
    <text id="title-9" data-name="title" transform="translate(273 301)" fill="#da2128" font-size="14" font-family="Roboto-Bold, Roboto" font-weight="700" letter-spacing="-0.01em"><tspan x="14.984" y="15">3</tspan></text>
    <text id="title-10" data-name="title" transform="translate(273 399)" font-size="14" font-family="Roboto-Bold, Roboto" font-weight="700" letter-spacing="-0.01em"><tspan x="14.984" y="15">4</tspan></text>
    <text id="title-11" data-name="title" transform="translate(273 498)" font-size="14" font-family="Roboto-Bold, Roboto" font-weight="700" letter-spacing="-0.01em"><tspan x="14.984" y="15">9</tspan></text>
    <text id="title-12" data-name="title" transform="translate(273 597)" font-size="14" font-family="Roboto-Bold, Roboto" font-weight="700" letter-spacing="-0.01em"><tspan x="11.038" y="15">10</tspan></text>
    <g id="그룹_2205" data-name="그룹 2205" transform="translate(-1 9.208)">
      <g id="그룹_2188" data-name="그룹 2188" transform="translate(272 258.793)">
        <g id="그룹_2189" data-name="그룹 2189" transform="translate(0 0)">
          <path id="패스_36418" data-name="패스 36418" d="M12.7,17.048s-6.548,5.178-8.938,9.234c0,0-4.424,1.468-1.858,6.646a3.872,3.872,0,0,0,3.008,1.553H40.661s1.858-.863,1.858-2.5v-4.4s-1.15-2.158-8.053-3.279c0,0-6.407-7.423-8.532-8.2,0,0-7.88-1.747-13.238.95" transform="translate(-1.099 -6.113)" fill="#ffbabd" stroke="#707070" stroke-width="1.5"/>
          <path id="패스_36419" data-name="패스 36419" d="M12.7,17.048s-6.548,5.178-8.938,9.234c0,0-4.424,1.468-1.858,6.646a3.872,3.872,0,0,0,3.008,1.553H40.661s1.858-.863,1.858-2.5v-4.4s-1.15-2.158-8.053-3.279c0,0-6.407-7.423-8.532-8.2C25.934,16.1,18.054,14.351,12.7,17.048Z" transform="translate(-1.099 -6.113)" fill="none" stroke="#000" stroke-linecap="round" stroke-linejoin="round" stroke-width="1.5"/>
          <path id="패스_36421" data-name="패스 36421" d="M21.025,21.8s-4.045,4.211-4.378,5.486H35.488s-2.051-4.212-4.876-6.262C30.612,21.02,23.352,20.134,21.025,21.8Z" transform="translate(-6.907 -8.635)" fill="#fff" stroke="#000" stroke-linecap="round" stroke-linejoin="round" stroke-width="1.5"/>
          <path id="패스_36422" data-name="패스 36422" d="M45.42,41.853A4.876,4.876,0,1,1,50.3,46.73a4.875,4.875,0,0,1-4.876-4.877" transform="translate(-17.89 -14.73)" fill="#fff" stroke="#707070" stroke-width="1.5"/>
          <path id="패스_36423" data-name="패스 36423" d="M45.42,41.853A4.876,4.876,0,1,1,50.3,46.73,4.875,4.875,0,0,1,45.42,41.853Z" transform="translate(-17.89 -14.73)" fill="none" stroke="#000" stroke-linecap="round" stroke-linejoin="round" stroke-width="1.5"/>
          <path id="패스_36424" data-name="패스 36424" d="M50.98,44.087a1.551,1.551,0,1,1,1.551,1.552,1.552,1.552,0,0,1-1.551-1.552" transform="translate(-20.33 -16.964)" fill="#ccc" stroke="#707070" stroke-width="1.5"/>
          <path id="패스_36425" data-name="패스 36425" d="M50.98,44.087a1.551,1.551,0,1,1,1.551,1.552A1.552,1.552,0,0,1,50.98,44.087Z" transform="translate(-20.33 -16.964)" fill="#eaeaea" stroke="#000" stroke-linecap="round" stroke-linejoin="round" stroke-width="1.5"/>
          <path id="패스_36426" data-name="패스 36426" d="M8.287,41.853a4.876,4.876,0,1,1,4.876,4.877,4.876,4.876,0,0,1-4.876-4.877" transform="translate(-3.989 -14.73)" fill="#fff" stroke="#707070" stroke-width="1.5"/>
          <path id="패스_36427" data-name="패스 36427" d="M8.287,41.853a4.876,4.876,0,1,1,4.876,4.877A4.876,4.876,0,0,1,8.287,41.853Z" transform="translate(-3.989 -14.73)" fill="none" stroke="#000" stroke-linecap="round" stroke-linejoin="round" stroke-width="1.5"/>
          <path id="패스_36428" data-name="패스 36428" d="M13.847,44.087A1.551,1.551,0,1,1,15.4,45.64a1.552,1.552,0,0,1-1.551-1.552" transform="translate(-6.014 -16.964)" fill="#ccc" stroke="#707070" stroke-width="1.5"/>
          <path id="패스_36429" data-name="패스 36429" d="M13.847,44.087A1.551,1.551,0,1,1,15.4,45.64,1.552,1.552,0,0,1,13.847,44.087Z" transform="translate(-6.014 -16.964)" fill="#eaeaea" stroke="#000" stroke-linecap="round" stroke-linejoin="round" stroke-width="1.5"/>
          <path id="패스_36431" data-name="패스 36431" d="M25.451,10.116,17.326,7.875l3.922-4.622Z" transform="translate(-7.314 -1.966)" fill="#fd3a42" stroke="#000" stroke-linecap="round" stroke-linejoin="round" stroke-width="1.5"/>
          <path id="패스_36433" data-name="패스 36433" d="M35.126,10.116,43.25,7.875,39.328,3.253Z" transform="translate(-14.131 -1.966)" fill="#fd3a42" stroke="#000" stroke-linecap="round" stroke-linejoin="round" stroke-width="1.5"/>
          <path id="패스_36435" data-name="패스 36435" d="M31,8.891,34.218,1.1l-6.057.261Z" transform="translate(-11.494 -1.1)" fill="#fd3a42" stroke="#000" stroke-linecap="round" stroke-linejoin="round" stroke-width="1.5"/>
          <rect id="사각형_3610" data-name="사각형 3610" width="5.297" height="19.974" transform="translate(17.143 8.388)" fill="#fd3a42"/>
          <rect id="사각형_3611" data-name="사각형 3611" width="5.297" height="19.974" transform="translate(17.143 8.388)" fill="none" stroke="#000" stroke-linecap="round" stroke-linejoin="round" stroke-width="1.5"/>
        </g>
      </g>
    </g>
    <g id="그룹_2210" data-name="그룹 2210" transform="translate(69.1 557.101)">
      <g id="그룹_2209" data-name="그룹 2209" transform="translate(0.899 1.899)">
        <path id="패스_36439" data-name="패스 36439" d="M44.671,29.986c2.761,0,2.51,3.069,2.51,3.069h.029s-.251-3.069,2.51-3.069v-.111c-2.761,0-2.51-3.069-2.51-3.069h-.029s.251,3.069-2.51,3.069Z" transform="translate(-9.03 -10.847)" fill="none" stroke="#000" stroke-linecap="round" stroke-linejoin="round" stroke-width="0.8"/>
        <path id="패스_36440" data-name="패스 36440" d="M28.585,26.11l-13.6,5.97L1.313,26.11,1.1,16.254,14.107,7.823a1,1,0,0,1,1.411,0l13.007,8.431Z" transform="translate(-1.1 -3.739)" fill="#eaeaea" stroke="#707070" stroke-width="1.5"/>
        <path id="패스_36441" data-name="패스 36441" d="M28.72,26.11,15.053,32.08,1.314,26.11,1.1,16.254,14.171,7.823a1.006,1.006,0,0,1,1.417,0l13.07,8.431Z" transform="translate(-1.1 -3.739)" fill="#fff" stroke="#000" stroke-linecap="round" stroke-linejoin="round" stroke-width="1.5"/>
        <path id="패스_36443" data-name="패스 36443" d="M6.794,24.82a9.6,9.6,0,1,1,9.6,9.6A9.6,9.6,0,0,1,6.794,24.82Z" transform="translate(-2.648 -5.828)" fill="#ffeb00" stroke="#000" stroke-linecap="round" stroke-linejoin="round" stroke-width="1.5"/>
        <path id="패스_36445" data-name="패스 36445" d="M10.068,24.984a6.493,6.493,0,1,1,6.493,6.493A6.494,6.494,0,0,1,10.068,24.984Z" transform="translate(-2.812 -5.992)" fill="#f9ee8a" stroke="#000" stroke-linecap="round" stroke-linejoin="round" stroke-width="1.5"/>
        <path id="패스_36447" data-name="패스 36447" d="M32.048,42.7H35.74V27.238L27.167,32.16Z" transform="translate(-8.185 -9.095)" fill="#fff" stroke="#000" stroke-linecap="round" stroke-linejoin="round" stroke-width="1.5"/>
        <path id="패스_36449" data-name="패스 36449" d="M5.035,42.7H1.343V27.238L9.915,32.16Z" transform="translate(-1.166 -9.095)" fill="#fff" stroke="#000" stroke-linecap="round" stroke-linejoin="round" stroke-width="1.5"/>
        <path id="패스_36451" data-name="패스 36451" d="M28.815,44.449H1.452L9.968,33.681H20.3Z" transform="translate(-1.196 -10.846)" fill="#fff" stroke="#000" stroke-linecap="round" stroke-linejoin="round" stroke-width="1.5"/>
        <line id="선_181" data-name="선 181" y1="2.094" x2="0.148" transform="translate(13.703)" fill="none" stroke="#000" stroke-linecap="round" stroke-linejoin="round" stroke-width="1.2"/>
        <line id="선_182" data-name="선 182" y1="1.75" x2="0.829" transform="translate(15.979 0.642)" fill="none" stroke="#000" stroke-linecap="round" stroke-linejoin="round" stroke-width="1.2"/>
        <line id="선_183" data-name="선 183" x1="0.891" y1="1.679" transform="translate(10.772 0.723)" fill="none" stroke="#000" stroke-linecap="round" stroke-linejoin="round" stroke-width="1.2"/>
        <rect id="사각형_3630" data-name="사각형 3630" width="7.865" height="14.17" transform="translate(23.776 23.208)" fill="#ffeb00" stroke="#000" stroke-linecap="round" stroke-linejoin="round" stroke-width="1.5"/>
        <line id="선_184" data-name="선 184" x1="7.489" transform="translate(23.972 26.243)" fill="none" stroke="#000" stroke-linecap="round" stroke-linejoin="round" stroke-width="1.5"/>
        <line id="선_185" data-name="선 185" x1="7.489" transform="translate(23.972 28.924)" fill="none" stroke="#000" stroke-linecap="round" stroke-linejoin="round" stroke-width="1.5"/>
        <line id="선_186" data-name="선 186" x1="7.489" transform="translate(23.972 31.605)" fill="none" stroke="#000" stroke-linecap="round" stroke-linejoin="round" stroke-width="1.5"/>
        <line id="선_187" data-name="선 187" x1="7.489" transform="translate(23.972 34.286)" fill="none" stroke="#000" stroke-linecap="round" stroke-linejoin="round" stroke-width="1.5"/>
      </g>
    </g>
    <g id="그룹_2211" data-name="그룹 2211" transform="translate(46.917 547.83) rotate(-11)">
      <g id="그룹_2191" data-name="그룹 2191" transform="translate(50.951 27.273)">
        <g id="그룹_2203" data-name="그룹 2203" transform="translate(0 0)">
          <rect id="사각형_3613" data-name="사각형 3613" width="3.208" height="3.208" transform="translate(0 2.416) rotate(-48.88)" fill="none" stroke="#000" stroke-linecap="round" stroke-linejoin="round" stroke-width="1"/>
        </g>
      </g>
      <rect id="사각형_3616" data-name="사각형 3616" width="3.208" height="3.207" transform="translate(46.156 16.656) rotate(-9.06)" fill="#d9f560" stroke="#000" stroke-linecap="round" stroke-linejoin="round" stroke-width="1"/>
      <g id="그룹_2193" data-name="그룹 2193" transform="translate(59.96 23.774)">
        <g id="그룹_2206" data-name="그룹 2206">
          <rect id="사각형_3618" data-name="사각형 3618" width="3.207" height="3.207" transform="translate(0 2.841) rotate(-62.335)" fill="#58cae8" stroke="#000" stroke-linecap="round" stroke-linejoin="round" stroke-width="1"/>
        </g>
      </g>
      <g id="그룹_2195" data-name="그룹 2195" transform="translate(0.867 10.179)">
        <g id="그룹_2202" data-name="그룹 2202">
          <rect id="사각형_3621" data-name="사각형 3621" width="3.208" height="3.207" transform="translate(0 2.841) rotate(-62.34)" fill="none" stroke="#000" stroke-linecap="round" stroke-linejoin="round" stroke-width="1"/>
        </g>
      </g>
      <g id="그룹_2197" data-name="그룹 2197" transform="translate(2.022 24.977)">
        <g id="그룹_2204" data-name="그룹 2204">
          <rect id="사각형_3624" data-name="사각형 3624" width="3.207" height="3.208" transform="translate(0 1.312) rotate(-24.153)" fill="#ffbf74" stroke="#000" stroke-linecap="round" stroke-linejoin="round" stroke-width="1"/>
        </g>
      </g>
      <rect id="사각형_3627" data-name="사각형 3627" width="3.209" height="3.208" transform="translate(8.483 19.821) rotate(-62.34)" fill="#77e183" stroke="#000" stroke-linecap="round" stroke-linejoin="round" stroke-width="1"/>
      <g id="그룹_2199" data-name="그룹 2199" transform="translate(18.465 8.54) rotate(13)">
        <g id="그룹_2201" data-name="그룹 2201" transform="translate(0 0)">
          <path id="패스_36436" data-name="패스 36436" d="M0,4.565c3.964,0,3.6,4.405,3.6,4.405h.042s-.361-4.405,3.6-4.405v-.16C3.284,4.405,3.645,0,3.645,0H3.6S3.964,4.405,0,4.405Z" fill="none" stroke="#707070" stroke-linecap="round" stroke-linejoin="round" stroke-width="1"/>
          <path id="패스_36437" data-name="패스 36437" d="M0,4.565c3.964,0,3.6,4.405,3.6,4.405h.042s-.361-4.405,3.6-4.405v-.16C3.284,4.405,3.645,0,3.645,0H3.6S3.964,4.405,0,4.405Z" fill="none" stroke="#000" stroke-linecap="round" stroke-linejoin="round" stroke-width="1"/>
        </g>
      </g>
    </g>
    <text id="title-13" data-name="title" transform="translate(84 581)" font-size="9" font-family="Roboto-Bold, Roboto" font-weight="700" letter-spacing="-0.01em"><tspan x="-2.903" y="0">P</tspan></text>
  </g>
</svg>
