<svg xmlns="http://www.w3.org/2000/svg" xmlns:xlink="http://www.w3.org/1999/xlink" width="113" height="61" viewBox="0 0 113 61">
<style type="text/css">
.cat {position:relative; animation:cat alternate linear infinite 1s; transform-origin:30% 75%;}
@keyframes cat {
  0% {transform:rotate(-17deg);}
	100% {transform : rotate(17deg) translate(-30% -15%); }
}
</style>
  <defs>
    <clipPath id="clip-path">
      <rect id="사각형_20385" data-name="사각형 20385" width="113" height="61" transform="translate(262 246)" fill="#86ccff"/>
    </clipPath>
  </defs>
  <g id="마스크_그룹_1234" data-name="마스크 그룹 1234" transform="translate(-262 -246)" clip-path="url(#clip-path)">
    <g id="그룹_111955"  data-name="그룹 111955" transform="matrix(0.956, 0.292, -0.292, 0.956, 298.848, 262.145)">
      <g id="그룹_110032" class="cat" data-name="그룹 110032" transform="translate(0.317 -5.061)">
        <path id="패스_37204" data-name="패스 37204" d="M45.979,10.678a7.953,7.953,0,0,0-5.953-2.557,9.145,9.145,0,0,0-1.477.13,9.185,9.185,0,0,0-.369-1.359,8.064,8.064,0,0,0-5.02-5A7.728,7.728,0,0,0,30.728,1.5a8.5,8.5,0,0,0-5.971,2.547A8.506,8.506,0,0,0,18.787,1.5a7.736,7.736,0,0,0-2.43.391,8.238,8.238,0,0,0-5.373,6.363,9.1,9.1,0,0,0-1.494-.133,7.955,7.955,0,0,0-5.954,2.557c-3.123,3.412-2.593,9,1.18,12.451l.032.029a10.124,10.124,0,0,1,3.419,7.472V54.006H41.349V30.628a10.124,10.124,0,0,1,3.419-7.472l.031-.028a9.894,9.894,0,0,0,3.117-5.634,8.065,8.065,0,0,0-1.937-6.816" transform="translate(-1.5 -1.5)" fill="#fff" stroke="#707070" stroke-width="1.6"/>
        <path id="패스_37205" data-name="패스 37205" d="M45.979,10.678a7.953,7.953,0,0,0-5.953-2.557,9.145,9.145,0,0,0-1.477.13,9.185,9.185,0,0,0-.369-1.359,8.064,8.064,0,0,0-5.02-5A7.728,7.728,0,0,0,30.728,1.5a8.5,8.5,0,0,0-5.971,2.547A8.506,8.506,0,0,0,18.787,1.5a7.736,7.736,0,0,0-2.43.391,8.238,8.238,0,0,0-5.373,6.363,9.1,9.1,0,0,0-1.494-.133,7.955,7.955,0,0,0-5.954,2.557c-3.123,3.412-2.593,9,1.18,12.451l.032.029a10.124,10.124,0,0,1,3.419,7.472V54.006H41.349V30.628a10.124,10.124,0,0,1,3.419-7.472l.031-.028a9.894,9.894,0,0,0,3.117-5.634A8.065,8.065,0,0,0,45.979,10.678Z" transform="translate(-1.5 -1.5)" fill="none" stroke="#080d4b" stroke-linecap="round" stroke-linejoin="round" stroke-width="1.6"/>
        <path id="패스_37206" data-name="패스 37206" d="M47.214,38.913a10.4,10.4,0,0,0-12.758,0c-3.7,2.789-5.121,7.156-3.164,9.755,1.386,1.84,4.092,2.3,6.869,1.421a8.841,8.841,0,0,1,5.349,0c2.777.879,5.483.419,6.869-1.421,1.957-2.6.54-6.966-3.164-9.755" transform="translate(-17.578 -21.085)" fill="#f06a86" stroke="#707070" stroke-width="1.6"/>
        <path id="패스_37207" data-name="패스 37207" d="M47.214,38.913a10.4,10.4,0,0,0-12.758,0c-3.7,2.789-5.121,7.156-3.164,9.755,1.386,1.84,4.092,2.3,6.869,1.421a8.841,8.841,0,0,1,5.349,0c2.777.879,5.483.419,6.869-1.421C52.335,46.07,50.918,41.7,47.214,38.913Z" transform="translate(-17.578 -21.085)" fill="none" stroke="#080d4b" stroke-linecap="round" stroke-linejoin="round" stroke-width="1.6"/>
        <path id="패스_37208" data-name="패스 37208" d="M40.407,16.091c.72,2.179-.085,4.4-1.8,4.969s-3.685-.742-4.4-2.92.085-4.4,1.8-4.969,3.685.741,4.4,2.92" transform="translate(-19.54 -7.916)" fill="#f06a86" stroke="#707070" stroke-width="1.6"/>
        <path id="패스_37209" data-name="패스 37209" d="M40.407,16.091c.72,2.179-.085,4.4-1.8,4.969s-3.685-.742-4.4-2.92.085-4.4,1.8-4.969S39.687,13.912,40.407,16.091Z" transform="translate(-19.54 -7.916)" fill="none" stroke="#080d4b" stroke-linecap="round" stroke-linejoin="round" stroke-width="1.6"/>
        <path id="패스_37210" data-name="패스 37210" d="M18.976,29.241c1.693,1.549,2.078,3.883.859,5.214s-3.577,1.154-5.269-.4-2.078-3.883-.859-5.214,3.577-1.154,5.269.4" transform="translate(-7.892 -16.21)" fill="#f06a86" stroke="#707070" stroke-width="1.6"/>
        <path id="패스_37211" data-name="패스 37211" d="M18.976,29.241c1.693,1.549,2.078,3.883.859,5.214s-3.577,1.154-5.269-.4-2.078-3.883-.859-5.214S17.284,27.692,18.976,29.241Z" transform="translate(-7.892 -16.21)" fill="none" stroke="#080d4b" stroke-linecap="round" stroke-linejoin="round" stroke-width="1.6"/>
        <path id="패스_37212" data-name="패스 37212" d="M58.947,16.091c-.72,2.179.085,4.4,1.8,4.969s3.685-.742,4.4-2.92-.085-4.4-1.8-4.969-3.685.741-4.4,2.92" transform="translate(-33.298 -7.916)" fill="#f06a86" stroke="#707070" stroke-width="1.6"/>
        <path id="패스_37213" data-name="패스 37213" d="M58.947,16.091c-.72,2.179.085,4.4,1.8,4.969s3.685-.742,4.4-2.92-.085-4.4-1.8-4.969S59.666,13.912,58.947,16.091Z" transform="translate(-33.298 -7.916)" fill="none" stroke="#080d4b" stroke-linecap="round" stroke-linejoin="round" stroke-width="1.6"/>
        <path id="패스_37214" data-name="패스 37214" d="M79.347,29.241c-1.693,1.549-2.078,3.883-.859,5.214s3.577,1.154,5.269-.4,2.078-3.883.859-5.214-3.577-1.154-5.269.4" transform="translate(-43.916 -16.21)" fill="#f06a86" stroke="#707070" stroke-width="1.6"/>
        <path id="패스_37215" data-name="패스 37215" d="M79.347,29.241c-1.693,1.549-2.078,3.883-.859,5.214s3.577,1.154,5.269-.4,2.078-3.883.859-5.214S81.04,27.692,79.347,29.241Z" transform="translate(-43.916 -16.21)" fill="none" stroke="#080d4b" stroke-linecap="round" stroke-linejoin="round" stroke-width="1.6"/>
      </g>
    </g>
  </g>
</svg>
