<?xml version="1.0" encoding="utf-8"?>
<!-- Generator: Adobe Illustrator 26.0.3, SVG Export Plug-In . SVG Version: 6.00 Build 0)  -->
<svg version="1.1" id="Layer_1" xmlns="http://www.w3.org/2000/svg" xmlns:xlink="http://www.w3.org/1999/xlink" x="0px" y="0px"
	 viewBox="0 0 375 150" style="enable-background:new 0 0 375 150;" xml:space="preserve">
<style type="text/css">
	.st0{fill:#86CCFF;}
	.st1{fill:#FEC9C9;}
	.st2{fill:none;stroke:#080D4B;stroke-width:2;stroke-linecap:round;stroke-linejoin:round;}
	.st3{clip-path:url(#SVGID_00000059303404941022215480000017783898634949159332_);}
	.st4{fill:#F86493;stroke:#707070;stroke-width:1.6;}
	.st5{fill:#F86493;stroke:#080D4B;stroke-width:1.6;stroke-linecap:round;stroke-linejoin:round;}
	.st6{clip-path:url(#SVGID_00000015347676577970861630000010493201577938471063_);}
	.st7{clip-path:url(#SVGID_00000053518039921465804750000001141322174434854831_);}
	.st8{fill:#F86493;stroke:#707070;stroke-width:1.6002;stroke-miterlimit:4.0005;}
	.st9{fill:#F86493;stroke:#080D4B;stroke-width:1.6002;stroke-linecap:round;stroke-linejoin:round;stroke-miterlimit:4.0005;}
	.st10{clip-path:url(#SVGID_00000098935552030246941350000002751777411000298921_);}
	.st11{fill:#F86493;stroke:#707070;stroke-width:1.6;stroke-miterlimit:4;}
	.st12{fill:#F86493;stroke:#080D4B;stroke-width:1.6;stroke-linecap:round;stroke-linejoin:round;stroke-miterlimit:4;}
	.st13{clip-path:url(#SVGID_00000166674584610003965970000004042614880278418602_);}
	.st14{fill:#FFFFFF;stroke:#707070;stroke-width:1.5994;stroke-miterlimit:3.9984;}
	.st15{fill:none;stroke:#080D4B;stroke-width:1.5994;stroke-linecap:round;stroke-linejoin:round;stroke-miterlimit:3.9984;}
	.st16{fill:#F06A86;stroke:#707070;stroke-width:1.5994;stroke-miterlimit:3.9984;}
	.st17{enable-background:new    ;}
	.st18{fill:#1D1D1B;}
	.st19{fill:#FFFFFF;}
	.st20{fill:none;stroke:#000000;}
	.st21{fill:#FFFFFF;stroke:#000000;stroke-width:1.2005;stroke-miterlimit:4.0018;}
	.st22{fill:#FF486E;stroke:#000000;stroke-width:1.2005;stroke-miterlimit:4.0018;}
	.st23{fill:none;stroke:#000000;stroke-width:1.2005;stroke-linecap:round;stroke-linejoin:round;stroke-miterlimit:4.0018;}
	.st24{fill:#FFBB01;stroke:#000000;stroke-width:1.2005;stroke-miterlimit:4.0018;}
	.st25{fill:#F06A86;stroke:#000000;stroke-width:1.2005;stroke-miterlimit:4.0018;}
	.st26{fill:#7582F0;stroke:#000000;stroke-width:1.2005;stroke-miterlimit:4.0018;}
</style>
<rect id="Rectangle_20384" class="st0" width="375" height="150"/>
<g id="Group_110111" transform="translate(-23654.25 -16567.059)">
	<path id="Path_37288" class="st1" d="M23951.61,16639.21c2.66-4.19,4.09-9.03,4.12-13.99c0-18.52-20.25-33.54-45.22-33.54
		c-16.06,0-30.15,6.21-38.17,15.57c-7.34-7.31-19.09-12.05-32.32-12.05c-6.71-0.04-13.37,1.25-19.59,3.77
		c-7.1-6.79-17.33-11.68-29.39-13.52c-3.2-0.47-6.44-0.71-9.67-0.7c-27.29,0-49.41,16.41-49.41,36.64c0,0.59,0.02,1.17,0.06,1.75
		c-10.97,5.75-18.14,15.23-18.14,25.96c0,17.55,19.19,31.78,42.85,31.78c2.07,0,4.13-0.11,6.19-0.34
		c5.21,9.33,17.61,15.9,32.07,15.9c12.51,0,23.47-4.91,29.58-12.28c6.91,2.29,14.14,3.45,21.42,3.43c10.77,0.1,21.39-2.5,30.9-7.57
		c5.9,6.61,16.02,10.97,27.5,10.97c16.16,0,29.6-8.63,32.43-20.01c2.21,0.5,4.47,0.76,6.73,0.75c12.53,0,22.68-7.53,22.68-16.82
		C23966.21,16647.74,23960.14,16641.62,23951.61,16639.21"/>
	<path id="Path_37289" class="st2" d="M23951.61,16639.21c2.66-4.19,4.09-9.03,4.12-13.99c0-18.52-20.25-33.54-45.22-33.54
		c-16.06,0-30.15,6.21-38.17,15.57c-7.34-7.31-19.09-12.05-32.32-12.05c-6.71-0.04-13.37,1.25-19.59,3.77
		c-9.04-8.65-23.17-14.22-39.07-14.22c-27.29,0-49.41,16.41-49.41,36.65c0,0.59,0.02,1.17,0.06,1.75
		c-10.97,5.75-18.14,15.23-18.14,25.96c0,17.55,19.19,31.78,42.85,31.78c2.07,0,4.13-0.11,6.19-0.34
		c5.21,9.33,17.61,15.9,32.07,15.9c12.51,0,23.47-4.91,29.58-12.28c6.91,2.29,14.14,3.45,21.42,3.43c10.77,0.1,21.39-2.5,30.9-7.57
		c5.9,6.61,16.02,10.97,27.5,10.97c16.16,0,29.6-8.63,32.43-20.01c2.21,0.5,4.47,0.76,6.73,0.75c12.53,0,22.68-7.53,22.68-16.82
		C23966.21,16647.74,23960.14,16641.62,23951.61,16639.21z"/>
</g>
<g id="Group_111949" transform="translate(296.943 222.668) rotate(14)">
	<g>
		<defs>
			
				<rect id="SVGID_1_" x="-40.92" y="-156.81" transform="matrix(0.2419 -0.9703 0.9703 0.2419 118.8097 -140.2089)" width="21.19" height="21.35"/>
		</defs>
		<clipPath id="SVGID_00000134231956453101816970000001292192225507866283_">
			<use xlink:href="#SVGID_1_"  style="overflow:visible;"/>
		</clipPath>
		
			<g id="Group_110118" transform="translate(0 0)" style="clip-path:url(#SVGID_00000134231956453101816970000001292192225507866283_);">
			<path id="Path_37298" class="st4" d="M-25.67-155.56c-2.58,0.05-4.65,2.16-4.65,4.75c0-2.59-2.07-4.7-4.66-4.75
				c-2.66-0.01-4.83,2.14-4.84,4.8c0,0.01,0,0.02,0,0.04c0,4.34,2.05,8.42,5.52,11.02l3.98,2.98l3.98-2.98
				c3.47-2.6,5.52-6.68,5.51-11.02c0.01-2.66-2.14-4.83-4.8-4.84C-25.64-155.56-25.66-155.56-25.67-155.56"/>
			<path id="Path_37299" class="st5" d="M-25.67-155.56c-2.58,0.05-4.65,2.16-4.65,4.75c0-2.59-2.07-4.7-4.66-4.75
				c-2.66-0.01-4.83,2.14-4.84,4.8c0,0.01,0,0.02,0,0.04c0,4.34,2.05,8.42,5.52,11.02l3.98,2.98l3.98-2.98
				c3.47-2.6,5.52-6.68,5.51-11.02c0.01-2.66-2.14-4.83-4.8-4.84C-25.64-155.56-25.66-155.56-25.67-155.56z"/>
		</g>
	</g>
</g>
<g id="Group_111950" transform="translate(210.691 172.618) rotate(13)">
	<g>
		<defs>
			
				<rect id="SVGID_00000011753631572922029360000000986157619641804194_" x="-38.13" y="-157.55" transform="matrix(0.225 -0.9744 0.9744 0.225 120.4419 -129.3626)" width="34.08" height="34.33"/>
		</defs>
		<clipPath id="SVGID_00000062900351214871074330000013191828376801557177_">
			<use xlink:href="#SVGID_00000011753631572922029360000000986157619641804194_"  style="overflow:visible;"/>
		</clipPath>
		
			<g id="Group_110120" transform="translate(0 0)" style="clip-path:url(#SVGID_00000062900351214871074330000013191828376801557177_);">
			<path id="Path_37300" class="st4" d="M-13.61-155.53c-4.16,0.08-7.48,3.47-7.49,7.63c0-4.16-3.33-7.55-7.49-7.63
				c-4.28-0.02-7.77,3.44-7.78,7.73c0,0.02,0,0.04,0,0.06c0,6.98,3.29,13.54,8.87,17.72l6.4,4.79l6.39-4.79
				c5.59-4.18,8.87-10.74,8.87-17.72c0.02-4.28-3.44-7.77-7.72-7.79C-13.57-155.53-13.59-155.53-13.61-155.53"/>
			<path id="Path_37301" class="st5" d="M-13.61-155.53c-4.16,0.08-7.48,3.47-7.49,7.63c0-4.16-3.33-7.55-7.49-7.63
				c-4.28-0.02-7.77,3.44-7.78,7.73c0,0.02,0,0.04,0,0.06c0,6.98,3.29,13.54,8.87,17.72l6.4,4.79l6.39-4.79
				c5.59-4.18,8.87-10.74,8.87-17.72c0.02-4.28-3.44-7.77-7.72-7.79C-13.57-155.53-13.59-155.53-13.61-155.53z"/>
		</g>
	</g>
</g>
<g id="Group_111951" transform="matrix(0.966, -0.259, 0.259, 0.966, 84.961, 267.194)">
	<g>
		<defs>
			
				<rect id="SVGID_00000111900463582606072920000005496346414071395214_" x="40.15" y="-156.94" transform="matrix(0.9659 -0.259 0.259 0.9659 39.1993 8.7364)" width="25.22" height="25.04"/>
		</defs>
		<clipPath id="SVGID_00000063612563162543361240000008583509272145323139_">
			<use xlink:href="#SVGID_00000111900463582606072920000005496346414071395214_"  style="overflow:visible;"/>
		</clipPath>
		
			<g id="Group_110122" transform="translate(0 0)" style="clip-path:url(#SVGID_00000063612563162543361240000008583509272145323139_);">
			<path id="Path_37302" class="st8" d="M58.26-155.55c-3.05,0.06-5.5,2.55-5.5,5.61c0-3.06-2.45-5.55-5.5-5.61
				c-3.15-0.01-5.71,2.53-5.72,5.68c0,0.01,0,0.03,0,0.04c0,5.12,2.42,9.95,6.52,13.02l4.7,3.52l4.7-3.52
				c4.1-3.07,6.52-7.9,6.52-13.02c0.01-3.15-2.53-5.71-5.68-5.72C58.29-155.55,58.27-155.55,58.26-155.55"/>
			<path id="Path_37303" class="st9" d="M58.26-155.55c-3.05,0.06-5.5,2.55-5.5,5.61c0-3.06-2.45-5.55-5.5-5.61
				c-3.15-0.01-5.71,2.53-5.72,5.68c0,0.01,0,0.03,0,0.04c0,5.12,2.42,9.95,6.52,13.02l4.7,3.52l4.7-3.52
				c4.1-3.07,6.52-7.9,6.52-13.02c0.01-3.15-2.53-5.71-5.68-5.72C58.29-155.55,58.27-155.55,58.26-155.55z"/>
		</g>
	</g>
</g>
<g id="Group_111952" transform="translate(61.07 212.006) rotate(-17)">
	<g>
		<defs>
			
				<rect id="SVGID_00000055702902039352136670000018155125546143004801_" x="45.58" y="-155.47" transform="matrix(0.9563 -0.2924 0.2924 0.9563 44.3902 10.6939)" width="24.78" height="24.6"/>
		</defs>
		<clipPath id="SVGID_00000124155426909847405300000006940967737839312010_">
			<use xlink:href="#SVGID_00000055702902039352136670000018155125546143004801_"  style="overflow:visible;"/>
		</clipPath>
		
			<g id="Group_110124" transform="translate(0 0)" style="clip-path:url(#SVGID_00000124155426909847405300000006940967737839312010_);">
			<path id="Path_37304" class="st11" d="M63.38-154.1c-3,0.06-5.4,2.51-5.4,5.51c0-3-2.41-5.45-5.41-5.51
				c-3.09-0.01-5.61,2.49-5.62,5.58c0,0.01,0,0.03,0,0.04c0,5.04,2.37,9.78,6.41,12.79l4.62,3.45l4.62-3.45
				c4.03-3.02,6.41-7.76,6.41-12.79c0.01-3.09-2.49-5.61-5.58-5.62C63.4-154.1,63.39-154.1,63.38-154.1"/>
			<path id="Path_37305" class="st12" d="M63.38-154.1c-3,0.06-5.4,2.51-5.4,5.51c0-3-2.41-5.45-5.41-5.51
				c-3.09-0.01-5.61,2.49-5.62,5.58c0,0.01,0,0.03,0,0.04c0,5.04,2.37,9.78,6.41,12.79l4.62,3.45l4.62-3.45
				c4.03-3.02,6.41-7.76,6.41-12.79c0.01-3.09-2.49-5.61-5.58-5.62C63.4-154.1,63.39-154.1,63.38-154.1z"/>
		</g>
	</g>
</g>
<g>
	<defs>
		<rect id="SVGID_00000010290040130972622540000010719153165208823199_" x="262" y="89" width="113" height="61"/>
	</defs>
	<clipPath id="SVGID_00000151530077068915479710000011497658496927812772_">
		<use xlink:href="#SVGID_00000010290040130972622540000010719153165208823199_"  style="overflow:visible;"/>
	</clipPath>
	<g id="Mask_Group_1234" style="clip-path:url(#SVGID_00000151530077068915479710000011497658496927812772_);">
		<g id="Group_111955" transform="matrix(0.956, 0.292, -0.292, 0.956, 298.848, 262.145)">
			<g id="Group_110032" transform="translate(0.317 -5.061)">
				<path id="Path_37204" class="st14" d="M-1.4-141.03c-1.53-1.66-3.7-2.59-5.95-2.56c-0.5,0-0.99,0.05-1.48,0.13
					c-0.09-0.46-0.21-0.92-0.37-1.36c-0.81-2.35-2.66-4.2-5.02-5c-0.78-0.26-1.61-0.39-2.43-0.39c-2.25,0.03-4.4,0.94-5.97,2.55
					c-1.58-1.6-3.72-2.52-5.97-2.55c-0.83,0-1.65,0.13-2.43,0.39c-2.81,0.99-4.86,3.43-5.37,6.36c-0.49-0.09-0.99-0.13-1.49-0.13
					c-2.26-0.03-4.42,0.9-5.95,2.56c-3.12,3.41-2.59,9,1.18,12.45l0.03,0.03c2.14,1.9,3.39,4.61,3.42,7.47v23.38h33.18v-23.38
					c0.03-2.86,1.27-5.58,3.42-7.47l0.03-0.03c1.64-1.48,2.74-3.46,3.12-5.63C0.98-136.67,0.26-139.18-1.4-141.03"/>
				<path id="Path_37205" class="st15" d="M-1.4-141.03c-1.53-1.66-3.7-2.59-5.95-2.56c-0.5,0-0.99,0.05-1.48,0.13
					c-0.09-0.46-0.21-0.92-0.37-1.36c-0.81-2.35-2.66-4.2-5.02-5c-0.78-0.26-1.61-0.39-2.43-0.39c-2.25,0.03-4.4,0.94-5.97,2.55
					c-1.58-1.6-3.72-2.52-5.97-2.55c-0.83,0-1.65,0.13-2.43,0.39c-2.81,0.99-4.86,3.43-5.37,6.36c-0.49-0.09-0.99-0.13-1.49-0.13
					c-2.26-0.03-4.42,0.9-5.95,2.56c-3.12,3.41-2.59,9,1.18,12.45l0.03,0.03c2.14,1.9,3.39,4.61,3.42,7.47v23.38h33.18v-23.38
					c0.03-2.86,1.27-5.58,3.42-7.47l0.03-0.03c1.64-1.48,2.74-3.46,3.12-5.63C0.98-136.67,0.26-139.18-1.4-141.03z"/>
				<path id="Path_37206" class="st16" d="M-16.24-132.38c-3.75-2.91-9-2.91-12.76,0c-3.7,2.79-5.12,7.16-3.16,9.75
					c1.39,1.84,4.09,2.3,6.87,1.42c1.74-0.55,3.61-0.55,5.35,0c2.78,0.88,5.48,0.42,6.87-1.42
					C-11.12-125.23-12.54-129.6-16.24-132.38"/>
				<path id="Path_37207" class="st15" d="M-16.24-132.38c-3.75-2.91-9-2.91-12.76,0c-3.7,2.79-5.12,7.16-3.16,9.75
					c1.39,1.84,4.09,2.3,6.87,1.42c1.74-0.55,3.61-0.55,5.35,0c2.78,0.88,5.48,0.42,6.87-1.42
					C-11.12-125.23-12.54-129.6-16.24-132.38z"/>
				<path id="Path_37208" class="st16" d="M-25.01-142.04c0.72,2.18-0.08,4.4-1.8,4.97s-3.69-0.74-4.4-2.92
					c-0.72-2.18,0.08-4.4,1.8-4.97S-25.73-144.22-25.01-142.04"/>
				<path id="Path_37209" class="st15" d="M-25.01-142.04c0.72,2.18-0.08,4.4-1.8,4.97s-3.69-0.74-4.4-2.92
					c-0.72-2.18,0.08-4.4,1.8-4.97S-25.73-144.22-25.01-142.04z"/>
				<path id="Path_37210" class="st16" d="M-34.8-137.18c1.69,1.55,2.08,3.88,0.86,5.21c-1.22,1.33-3.58,1.15-5.27-0.4
					c-1.69-1.55-2.08-3.88-0.86-5.21C-38.85-138.91-36.49-138.74-34.8-137.18"/>
				<path id="Path_37211" class="st15" d="M-34.8-137.18c1.69,1.55,2.08,3.88,0.86,5.21c-1.22,1.33-3.58,1.15-5.27-0.4
					c-1.69-1.55-2.08-3.88-0.86-5.21C-38.85-138.91-36.49-138.73-34.8-137.18z"/>
				<path id="Path_37212" class="st16" d="M-20.23-142.04c-0.72,2.18,0.08,4.4,1.8,4.97s3.69-0.74,4.4-2.92
					c0.71-2.18-0.08-4.4-1.8-4.97S-19.52-144.22-20.23-142.04"/>
				<path id="Path_37213" class="st15" d="M-20.23-142.04c-0.72,2.18,0.08,4.4,1.8,4.97s3.69-0.74,4.4-2.92
					c0.71-2.18-0.08-4.4-1.8-4.97S-19.51-144.22-20.23-142.04z"/>
				<path id="Path_37214" class="st16" d="M-10.45-137.18c-1.69,1.55-2.08,3.88-0.86,5.21c1.22,1.33,3.58,1.15,5.27-0.4
					s2.08-3.88,0.86-5.21C-6.4-138.91-8.76-138.74-10.45-137.18"/>
				<path id="Path_37215" class="st15" d="M-10.45-137.18c-1.69,1.55-2.08,3.88-0.86,5.21c1.22,1.33,3.58,1.15,5.27-0.4
					s2.08-3.88,0.86-5.21C-6.4-138.91-8.76-138.73-10.45-137.18z"/>
			</g>
		</g>
	</g>
</g>
<g id="Group_110115_00000115515393764814758090000001289424661125875111_" transform="translate(2.5 -24.185)">
	<g transform="matrix(1, 0, 0, 1, -23663.64, -16361.15)">
		<g class="st17">
			<path class="st18" d="M23781.91,16453.79h-17.52v-3.87h6.18v-2.13h5.16v2.13h6.18V16453.79z M23765.29,16459.46
				c0-3.3,3.6-5.04,7.86-5.04c4.2,0,7.86,1.74,7.86,5.04c0,3.33-3.6,5.04-7.86,5.04S23765.29,16462.79,23765.29,16459.46z
				 M23780.08,16467.43l9.51,2.43l-1.47,4.32l-11.16-3.33c-2.88,2.04-6.96,3-11.13,3v-4.5c4.77,0,9.03-1.68,9.96-4.53l4.98,0.96
				C23780.59,16466.35,23780.38,16466.92,23780.08,16467.43z M23770.12,16459.46c0,0.87,1.2,1.44,3.03,1.44s3.03-0.57,3.03-1.44
				c0-0.87-1.2-1.44-3.03-1.44S23770.12,16458.58,23770.12,16459.46z M23791.69,16453.54v4.92h-3v7.65h-5.07v-17.88h5.07v5.31
				H23791.69z"/>
			<path class="st18" d="M23863.33,16452.64h-11.13v3.48h6.69c2.31,0,4.56-0.33,5.91-0.9v4.11c-1.32,0.57-3.57,0.9-5.97,0.9h-11.7
				v-11.7h16.2V16452.64z M23871.07,16469.32h-17.88v1.02h18.15v3.51h-23.16v-7.65h17.88v-1.02h-17.94v-3.51h22.95V16469.32z
				 M23871.07,16460.77h-5.07v-12.54h5.07V16460.77z"/>
			<path class="st18" d="M23907.97,16461.46v3.87h-25.92v-3.87H23907.97z M23883.43,16466.47h23.04v7.68h-5.13v-3.81h-17.91
				V16466.47z M23906.71,16460.32h-23.07v-12.09h22.77v3.36h-17.76v1.2h17.34v3h-17.34v1.2h18.06V16460.32z"/>
			<path class="st18" d="M23910.88,16448.83h14.49v6.93c0,10.41-5.61,16.89-14.49,16.89v-4.8c6.15-0.06,9.33-4.59,9.33-12.09v-2.31
				h-9.33V16448.83z M23937.22,16462.51h-3v11.34h-5.07v-25.62h5.07v9.36h3V16462.51z"/>
		</g>
		<g class="st17">
			<path class="st18" d="M23781.91,16453.79h-17.52v-3.87h6.18v-2.13h5.16v2.13h6.18V16453.79z M23765.29,16459.46
				c0-3.3,3.6-5.04,7.86-5.04c4.2,0,7.86,1.74,7.86,5.04c0,3.33-3.6,5.04-7.86,5.04S23765.29,16462.79,23765.29,16459.46z
				 M23780.08,16467.43l9.51,2.43l-1.47,4.32l-11.16-3.33c-2.88,2.04-6.96,3-11.13,3v-4.5c4.77,0,9.03-1.68,9.96-4.53l4.98,0.96
				C23780.59,16466.35,23780.38,16466.92,23780.08,16467.43z M23770.12,16459.46c0,0.87,1.2,1.44,3.03,1.44s3.03-0.57,3.03-1.44
				c0-0.87-1.2-1.44-3.03-1.44S23770.12,16458.58,23770.12,16459.46z M23791.69,16453.54v4.92h-3v7.65h-5.07v-17.88h5.07v5.31
				H23791.69z"/>
			<path class="st18" d="M23863.33,16452.64h-11.13v3.48h6.69c2.31,0,4.56-0.33,5.91-0.9v4.11c-1.32,0.57-3.57,0.9-5.97,0.9h-11.7
				v-11.7h16.2V16452.64z M23871.07,16469.32h-17.88v1.02h18.15v3.51h-23.16v-7.65h17.88v-1.02h-17.94v-3.51h22.95V16469.32z
				 M23871.07,16460.77h-5.07v-12.54h5.07V16460.77z"/>
			<path class="st18" d="M23907.97,16461.46v3.87h-25.92v-3.87H23907.97z M23883.43,16466.47h23.04v7.68h-5.13v-3.81h-17.91
				V16466.47z M23906.71,16460.32h-23.07v-12.09h22.77v3.36h-17.76v1.2h17.34v3h-17.34v1.2h18.06V16460.32z"/>
			<path class="st18" d="M23910.88,16448.83h14.49v6.93c0,10.41-5.61,16.89-14.49,16.89v-4.8c6.15-0.06,9.33-4.59,9.33-12.09v-2.31
				h-9.33V16448.83z M23937.22,16462.51h-3v11.34h-5.07v-25.62h5.07v9.36h3V16462.51z"/>
		</g>
	</g>
</g>
<g id="Group_110116" transform="translate(0 -16.58)">
	<g id="Group_110115" transform="translate(2.5 -24.185)">
		<g transform="matrix(1, 0, 0, 1, -23663.64, -16361.15)">
			<g class="st17">
				<path class="st19" d="M23778.83,16467.65h-17.52v-3.87h6.18v-2.13h5.16v2.13h6.18V16467.65z M23762.21,16473.32
					c0-3.3,3.6-5.04,7.86-5.04c4.2,0,7.86,1.74,7.86,5.04c0,3.33-3.6,5.04-7.86,5.04S23762.21,16476.65,23762.21,16473.32z
					 M23777,16481.3l9.51,2.43l-1.47,4.32l-11.16-3.33c-2.88,2.04-6.96,3-11.13,3v-4.5c4.77,0,9.03-1.68,9.96-4.53l4.98,0.96
					C23777.51,16480.22,23777.3,16480.79,23777,16481.3z M23767.04,16473.32c0,0.87,1.2,1.44,3.03,1.44s3.03-0.57,3.03-1.44
					c0-0.87-1.2-1.44-3.03-1.44S23767.04,16472.45,23767.04,16473.32z M23788.61,16467.41v4.92h-3v7.65h-5.07v-17.88h5.07v5.31
					H23788.61z"/>
				<path class="st19" d="M23860.25,16466.51h-11.13v3.48h6.69c2.31,0,4.56-0.33,5.91-0.9v4.11c-1.32,0.57-3.57,0.9-5.97,0.9h-11.7
					v-11.7h16.2V16466.51z M23867.99,16483.19h-17.88v1.02h18.15v3.51h-23.16v-7.65h17.88v-1.02h-17.94v-3.51h22.95V16483.19z
					 M23867.99,16474.64h-5.07v-12.54h5.07V16474.64z"/>
				<path class="st19" d="M23904.89,16475.33v3.87h-25.92v-3.87H23904.89z M23880.35,16480.34h23.04v7.68h-5.13v-3.81h-17.91
					V16480.34z M23903.63,16474.19h-23.07v-12.09h22.77v3.36h-17.76v1.2h17.34v3h-17.34v1.2h18.06V16474.19z"/>
				<path class="st19" d="M23907.8,16462.7h14.49v6.93c0,10.41-5.61,16.89-14.49,16.89v-4.8c6.15-0.06,9.33-4.59,9.33-12.09v-2.31
					h-9.33V16462.7z M23934.14,16476.38h-3v11.34h-5.07v-25.62h5.07v9.36h3V16476.38z"/>
			</g>
			<g class="st17">
				<path class="st20" d="M23778.83,16467.65h-17.52v-3.87h6.18v-2.13h5.16v2.13h6.18V16467.65z M23762.21,16473.32
					c0-3.3,3.6-5.04,7.86-5.04c4.2,0,7.86,1.74,7.86,5.04c0,3.33-3.6,5.04-7.86,5.04S23762.21,16476.65,23762.21,16473.32z
					 M23777,16481.3l9.51,2.43l-1.47,4.32l-11.16-3.33c-2.88,2.04-6.96,3-11.13,3v-4.5c4.77,0,9.03-1.68,9.96-4.53l4.98,0.96
					C23777.51,16480.22,23777.3,16480.79,23777,16481.3z M23767.04,16473.32c0,0.87,1.2,1.44,3.03,1.44s3.03-0.57,3.03-1.44
					c0-0.87-1.2-1.44-3.03-1.44S23767.04,16472.45,23767.04,16473.32z M23788.61,16467.41v4.92h-3v7.65h-5.07v-17.88h5.07v5.31
					H23788.61z"/>
				<path class="st20" d="M23860.25,16466.51h-11.13v3.48h6.69c2.31,0,4.56-0.33,5.91-0.9v4.11c-1.32,0.57-3.57,0.9-5.97,0.9h-11.7
					v-11.7h16.2V16466.51z M23867.99,16483.19h-17.88v1.02h18.15v3.51h-23.16v-7.65h17.88v-1.02h-17.94v-3.51h22.95V16483.19z
					 M23867.99,16474.64h-5.07v-12.54h5.07V16474.64z"/>
				<path class="st20" d="M23904.89,16475.33v3.87h-25.92v-3.87H23904.89z M23880.35,16480.34h23.04v7.68h-5.13v-3.81h-17.91
					V16480.34z M23903.63,16474.19h-23.07v-12.09h22.77v3.36h-17.76v1.2h17.34v3h-17.34v1.2h18.06V16474.19z"/>
				<path class="st20" d="M23907.8,16462.7h14.49v6.93c0,10.41-5.61,16.89-14.49,16.89v-4.8c6.15-0.06,9.33-4.59,9.33-12.09v-2.31
					h-9.33V16462.7z M23934.14,16476.38h-3v11.34h-5.07v-25.62h5.07v9.36h3V16476.38z"/>
			</g>
		</g>
		<g id="Group_110114" transform="matrix(0.998, -0.07, 0.07, 0.998, -23529.77, -16300.64)">
			<path id="Path_37290" class="st21" d="M22471.83,18023.85l19.15-4.12l0.34,1.66l-19.15,4.11L22471.83,18023.85z"/>
			<g id="Group_110113" transform="translate(0.27 0.27)">
				<g id="Group_110112" transform="translate(-4.217 -2.57)">
					<path id="Path_37291" class="st22" d="M22478.65,18009.31c-4.35,1.08-7.05,5.41-6.12,9.79c-0.85-4.38-5.08-7.26-9.47-6.44
						c-4.53,1.01-7.39,5.48-6.4,10.01c1.49,7.37,6.35,13.6,13.12,16.85l7.71,3.65l5.61-6.52c4.91-5.74,6.89-13.43,5.36-20.82l0,0
						c-0.85-4.48-5.18-7.42-9.65-6.56C22478.75,18009.29,22478.7,18009.3,22478.65,18009.31"/>
					<path id="Path_37292" class="st23" d="M22478.65,18009.31c-4.35,1.08-7.05,5.41-6.12,9.79c-0.85-4.38-5.08-7.26-9.47-6.44
						c-4.53,1.01-7.39,5.48-6.4,10.01c1.49,7.37,6.35,13.6,13.12,16.85l7.71,3.65l5.61-6.52c4.91-5.74,6.89-13.43,5.36-20.82l0,0
						c-0.85-4.48-5.18-7.42-9.65-6.56C22478.76,18009.29,22478.7,18009.3,22478.65,18009.31z"/>
					<path id="Path_37293" class="st24" d="M22492.48,18024.1l0.93-2.64l-1.89-2.04c-0.27-0.29-0.25-0.74,0.04-1.01
						c0.14-0.13,0.34-0.2,0.53-0.19l8.34,0.76c0.43,0.04,0.78,0.36,0.87,0.79c0.09,0.43-0.11,0.86-0.48,1.07l-7.33,4.13
						c-0.34,0.19-0.77,0.06-0.96-0.28C22492.42,18024.51,22492.41,18024.3,22492.48,18024.1"/>
					<path id="Path_37294" class="st25" d="M22472.16,18022.96c1.05,0.52,1.79,1.49,2.01,2.64c0.25,1.15-0.05,2.34-0.8,3.24"/>
					<path id="Path_37295" class="st21" d="M22452.34,18029.35l0.37,1.79l21.54-4.63c0.02-0.62-0.11-1.23-0.37-1.8
						L22452.34,18029.35z"/>
					<path id="Path_37296" class="st26" d="M22445.39,18029.02l6.45-1.38l2.31,2.26l-6.45,1.38L22445.39,18029.02z"/>
					<path id="Path_37297" class="st26" d="M22446.48,18034.3l6.45-1.38l1.22-3.02l-6.44,1.38L22446.48,18034.3z"/>
				</g>
			</g>
		</g>
	</g>
</g>
</svg>
