<?xml version="1.0" encoding="utf-8"?>
<!-- Generator: Adobe Illustrator 26.3.1, SVG Export Plug-In . SVG Version: 6.00 Build 0)  -->
<svg version="1.1" id="Layer_1" xmlns="http://www.w3.org/2000/svg" xmlns:xlink="http://www.w3.org/1999/xlink" x="0px" y="0px" viewBox="0 0 40 40" style="enable-background:new 0 0 40 40;" xml:space="preserve">
<style type="text/css">
.st0{fill:none;}
.st1{fill:#DA2128;}
.st2{fill:none;stroke:#000000;stroke-width:1.5;}
.st3{enable-background:new    ;}
.st4{fill:#FFFFFF;}
.st5{fill:none;stroke:#000000;stroke-width:1.5;stroke-linecap:round;}
</style>
<g id="icon_19" transform="translate(7029 19530)">
	<rect id="사각형_19613" x="-7029" y="-19530" class="st0" width="40" height="40"/>
	<g id="그룹_109461" transform="translate(-4.895 -34.895)">
		<g id="타원_336" transform="translate(-7022.105 -19493.105)">
			<circle class="st1" cx="18" cy="18" r="18"/>
			<circle class="st2" cx="18" cy="18" r="17.2"/>
		</g>
		<g class="st3">
			<path class="st4" d="M-7008.5-19468.1h-1.2v-12.8l-3.9,1.4v-1.1l4.8-1.8h0.2V-19468.1z"/>
			<path class="st4" d="M-6996.6-19474.7c-0.4,0.6-0.9,1.1-1.6,1.4c-0.6,0.3-1.3,0.5-2,0.5c-0.8,0-1.5-0.2-2.1-0.6
				c-0.6-0.4-1.1-1-1.4-1.7c-0.3-0.7-0.5-1.5-0.5-2.4c0-0.9,0.2-1.8,0.5-2.6c0.4-0.8,0.9-1.4,1.5-1.8c0.6-0.4,1.4-0.6,2.2-0.6
				c1.4,0,2.5,0.5,3.3,1.5c0.8,1,1.2,2.4,1.2,4.3v1.1c0,2.6-0.5,4.5-1.6,5.8s-2.8,1.9-5,1.9h-0.2l0-1h0.4c1.7,0,3-0.5,3.9-1.4
				C-6997.1-19471.4-6996.6-19472.8-6996.6-19474.7z M-7000-19473.8c0.8,0,1.5-0.2,2.1-0.7c0.6-0.5,1.1-1.1,1.3-1.8v-0.7
				c0-1.4-0.3-2.6-0.9-3.4c-0.6-0.8-1.4-1.2-2.4-1.2c-0.9,0-1.7,0.4-2.3,1.1c-0.6,0.7-0.9,1.7-0.9,2.8c0,1.1,0.3,2,0.9,2.7
				C-7001.6-19474.1-7000.9-19473.8-7000-19473.8z"/>
		</g>
	</g>
	<g id="그룹_109460" transform="translate(-7001.355 -19527.525)">
		<g id="타원_337" transform="translate(0.355 -0.474)">
			<circle class="st4" cx="6" cy="6" r="6"/>
			<circle class="st2" cx="6" cy="6" r="5.2"/>
		</g>
		<g id="그룹_109459" transform="translate(4.364 3.535)">
			<line id="선_141" class="st5" x1="0" y1="2" x2="4" y2="2"/>
			<line id="선_142" class="st5" x1="2" y1="0" x2="2" y2="4"/>
		</g>
	</g>
</g>
</svg>
