<svg xmlns="http://www.w3.org/2000/svg" xmlns:xlink="http://www.w3.org/1999/xlink" width="50" height="50" viewBox="0 0 50 50">
  <defs>
    <linearGradient id="linear-gradient" x1="-0.134" y1="1.218" x2="1.31" y2="-0.195" gradientUnits="objectBoundingBox">
      <stop offset="0" stop-color="#ff628c"/>
      <stop offset="1" stop-color="#f42664"/>
    </linearGradient>
    <filter id="빼기_21" x="0" y="0" width="50" height="50" filterUnits="userSpaceOnUse">
      <feOffset dx="2" dy="4" input="SourceAlpha"/>
      <feGaussianBlur stdDeviation="2" result="blur"/>
      <feFlood flood-opacity="0.161"/>
      <feComposite operator="in" in2="blur"/>
      <feComposite in="SourceGraphic"/>
    </filter>
    <clipPath id="clip-path">
      <rect id="사각형_20522" data-name="사각형 20522" width="24.604" height="4.491" fill="#fff"/>
    </clipPath>
  </defs>
  <g id="그룹_112196" data-name="그룹 112196" transform="translate(5.031 3.031)">
    <rect id="사각형_20523" data-name="사각형 20523" width="40" height="40" transform="translate(-2.031 -2.031)" fill="none"/>
    <g id="그룹_112179" data-name="그룹 112179" transform="translate(-1.032 -1.031)">
      <g id="그룹_112180" data-name="그룹 112180" transform="translate(0.001 26.435) rotate(-45)">
        <g transform="matrix(0.71, 0.71, -0.71, 0.71, 17.28, -22.94)" filter="url(#빼기_21)">
          <path id="빼기_21-2" data-name="빼기 21" d="M35.385,16.356H2a2,2,0,0,1-2-2V11.533c.088.009.18.014.275.014a2.749,2.749,0,1,0,0-5.5c-.091,0-.184,0-.275.014V2A2,2,0,0,1,2,0H35.385a2,2,0,0,1,2,2V14.356A2,2,0,0,1,35.385,16.356Z" transform="translate(42 13.57) rotate(135)" fill="url(#linear-gradient)"/>
        </g>
      </g>
      <g id="그룹_112181" data-name="그룹 112181" transform="translate(7.719 27.106) rotate(-45)">
        <g id="그룹_112181-2" data-name="그룹 112181" clip-path="url(#clip-path)">
          <path id="패스_38128" data-name="패스 38128" d="M1.869,0A2.619,2.619,0,0,1,2.6.092a1.85,1.85,0,0,1,.527.239A.322.322,0,0,1,3.284.57.389.389,0,0,1,3.21.833.37.37,0,0,1,3,.986.31.31,0,0,1,2.745.944a1.524,1.524,0,0,0-.4-.168,2.021,2.021,0,0,0-.5-.052.96.96,0,0,0-.784.334A1.782,1.782,0,0,0,.79,2.181V2.31a1.836,1.836,0,0,0,.263,1.112.952.952,0,0,0,.8.34,1.834,1.834,0,0,0,.536-.07,1.732,1.732,0,0,0,.444-.211.333.333,0,0,1,.484.086.39.39,0,0,1,.074.282.363.363,0,0,1-.165.257,1.925,1.925,0,0,1-.616.288,2.886,2.886,0,0,1-.775.1,2.278,2.278,0,0,1-.775-.123,1.422,1.422,0,0,1-.576-.38A1.717,1.717,0,0,1,.126,3.33,3.23,3.23,0,0,1,0,2.371V2.12a3.23,3.23,0,0,1,.126-.959A1.7,1.7,0,0,1,.49.5a1.438,1.438,0,0,1,.588-.38A2.378,2.378,0,0,1,1.869,0" transform="translate(0 0)" fill="#fff"/>
          <path id="패스_38129" data-name="패스 38129" d="M1.875,0a2.4,2.4,0,0,1,.8.123A1.438,1.438,0,0,1,3.259.5a1.7,1.7,0,0,1,.365.659,3.23,3.23,0,0,1,.126.959v.251a3.23,3.23,0,0,1-.126.959,1.7,1.7,0,0,1-.365.659,1.438,1.438,0,0,1-.588.38,2.4,2.4,0,0,1-.8.123,2.4,2.4,0,0,1-.8-.123,1.438,1.438,0,0,1-.588-.38A1.7,1.7,0,0,1,.126,3.33,3.23,3.23,0,0,1,0,2.371V2.12a3.23,3.23,0,0,1,.126-.959A1.7,1.7,0,0,1,.49.5a1.438,1.438,0,0,1,.588-.38A2.4,2.4,0,0,1,1.875,0m0,.717A1.379,1.379,0,0,0,1.4.79a.774.774,0,0,0-.34.242,1.11,1.11,0,0,0-.205.45,3.061,3.061,0,0,0-.067.7V2.31a3.061,3.061,0,0,0,.067.7,1.11,1.11,0,0,0,.205.45A.774.774,0,0,0,1.4,3.7a1.379,1.379,0,0,0,.472.074A1.379,1.379,0,0,0,2.347,3.7a.774.774,0,0,0,.34-.242,1.11,1.11,0,0,0,.205-.45,3.061,3.061,0,0,0,.067-.7V2.181a3.061,3.061,0,0,0-.067-.7,1.11,1.11,0,0,0-.205-.45A.774.774,0,0,0,2.347.79,1.379,1.379,0,0,0,1.875.717" transform="translate(4.031 0)" fill="#fff"/>
          <path id="패스_38130" data-name="패스 38130" d="M.392,0A.476.476,0,0,1,.668.08.289.289,0,0,1,.784.337V2.585a2.328,2.328,0,0,0,.055.548.9.9,0,0,0,.168.361.616.616,0,0,0,.291.2,1.341,1.341,0,0,0,.417.058,1.341,1.341,0,0,0,.417-.058.616.616,0,0,0,.291-.2.9.9,0,0,0,.168-.361,2.328,2.328,0,0,0,.055-.548V.337A.289.289,0,0,1,2.763.08a.517.517,0,0,1,.551,0,.289.289,0,0,1,.116.257V2.573a3.078,3.078,0,0,1-.113.907,1.39,1.39,0,0,1-.331.579,1.222,1.222,0,0,1-.536.309,2.66,2.66,0,0,1-.735.092A2.66,2.66,0,0,1,.98,4.368a1.222,1.222,0,0,1-.536-.309A1.39,1.39,0,0,1,.113,3.48,3.078,3.078,0,0,1,0,2.573V.337A.289.289,0,0,1,.116.08.476.476,0,0,1,.392,0" transform="translate(8.528 0.031)" fill="#fff"/>
          <path id="패스_38131" data-name="패스 38131" d="M1.666,0A2.171,2.171,0,0,1,2.35.095a1.283,1.283,0,0,1,.469.263,1.04,1.04,0,0,1,.273.4,1.4,1.4,0,0,1,.089.5v.086a1.429,1.429,0,0,1-.092.512,1.131,1.131,0,0,1-.282.423,1.393,1.393,0,0,1-.472.288,1.877,1.877,0,0,1-.668.107H.784V4.056a.289.289,0,0,1-.116.257.476.476,0,0,1-.276.08.476.476,0,0,1-.276-.08A.289.289,0,0,1,0,4.056V.509A.549.549,0,0,1,.113.11.583.583,0,0,1,.521,0ZM.784,2.016h.778a1.083,1.083,0,0,0,.607-.147.594.594,0,0,0,.221-.533V1.268a.7.7,0,0,0-.055-.3A.466.466,0,0,0,2.178.781a.629.629,0,0,0-.242-.1A1.6,1.6,0,0,0,1.63.656H.784Z" transform="translate(12.872 0.067)" fill="#fff"/>
          <path id="패스_38132" data-name="패스 38132" d="M1.875,0a2.4,2.4,0,0,1,.8.123A1.438,1.438,0,0,1,3.259.5a1.7,1.7,0,0,1,.365.659,3.23,3.23,0,0,1,.126.959v.251a3.23,3.23,0,0,1-.126.959,1.7,1.7,0,0,1-.365.659,1.438,1.438,0,0,1-.588.38,2.4,2.4,0,0,1-.8.123,2.4,2.4,0,0,1-.8-.123,1.438,1.438,0,0,1-.588-.38A1.7,1.7,0,0,1,.126,3.33,3.23,3.23,0,0,1,0,2.371V2.12a3.23,3.23,0,0,1,.126-.959A1.7,1.7,0,0,1,.49.5a1.438,1.438,0,0,1,.588-.38A2.4,2.4,0,0,1,1.875,0m0,.717A1.379,1.379,0,0,0,1.4.79a.774.774,0,0,0-.34.242,1.11,1.11,0,0,0-.205.45,3.061,3.061,0,0,0-.067.7V2.31a3.061,3.061,0,0,0,.067.7,1.11,1.11,0,0,0,.205.45A.774.774,0,0,0,1.4,3.7a1.379,1.379,0,0,0,.472.074A1.379,1.379,0,0,0,2.347,3.7a.774.774,0,0,0,.34-.242,1.11,1.11,0,0,0,.205-.45,3.061,3.061,0,0,0,.067-.7V2.181a3.061,3.061,0,0,0-.067-.7,1.11,1.11,0,0,0-.205-.45A.774.774,0,0,0,2.347.79,1.379,1.379,0,0,0,1.875.717" transform="translate(16.603 0)" fill="#fff"/>
          <path id="패스_38133" data-name="패스 38133" d="M3.063,0a.43.43,0,0,1,.251.077.274.274,0,0,1,.11.242V3.9a.549.549,0,0,1-.113.4.583.583,0,0,1-.407.11.941.941,0,0,1-.2-.018A.392.392,0,0,1,2.543,4.3a.912.912,0,0,1-.165-.187q-.086-.123-.2-.331L1.017,1.715Q.925,1.55.852,1.385a2.491,2.491,0,0,1-.129-.374v3.1a.274.274,0,0,1-.11.242.43.43,0,0,1-.251.077A.43.43,0,0,1,.11,4.353.274.274,0,0,1,0,4.111V.533a.549.549,0,0,1,.113-.4A.583.583,0,0,1,.521.025a.941.941,0,0,1,.2.018A.4.4,0,0,1,.882.126a.912.912,0,0,1,.165.187q.086.123.2.331L2.408,2.714q.092.165.165.331a2.493,2.493,0,0,1,.129.374V.319a.274.274,0,0,1,.11-.242A.43.43,0,0,1,3.063,0" transform="translate(21.179 0.031)" fill="#fff"/>
        </g>
      </g>
    </g>
  </g>
</svg>
