<?xml version="1.0" encoding="utf-8"?>
<!-- Generator: Adobe Illustrator 26.2.1, SVG Export Plug-In . SVG Version: 6.00 Build 0)  -->
<svg version="1.1" id="Layer_2" xmlns="http://www.w3.org/2000/svg" xmlns:xlink="http://www.w3.org/1999/xlink" x="0px" y="0px" viewBox="0 0 289 79" style="enable-background:new 0 0 289 79;" xml:space="preserve">
<style type="text/css">
.st0{fill:#FFFFFF;stroke:#1D1D1B;stroke-width:1.5;stroke-linecap:round;stroke-linejoin:round;stroke-miterlimit:10;}
.star {position:relative;animation:star both infinite 4s;}
.star.s1 {transform-origin:4% 63%;}
.star.s2 {transform-origin:9.3% 19%;animation-delay:0.5s;}
.star.s3 {transform-origin:96% 81%;animation-delay:0.7s;}
	
@keyframes star {
0% {transform:scale(0.4);opacity:0;}	
20% {transform:scale(1.1);opacity:1;}
40% {transform:scale(0.6);}	
58% {transform:scale(1);}
100% {transform:scale(1);}
}
</style>
<path class="st0 star s1" d="M14.4,33.2c0,0,0.8,15.7-12.7,15.8c0,0,12.7,0,12.7,15c0,0,0.8-15.4,11.9-15.4C26.3,48.6,14.4,47.7,14.4,33.2z"/>
<path class="st0 star s2" d="M26.5,0.6c0,0,0.8,15.7-12.7,15.8c0,0,12.7,0,12.7,15c0,0,0.8-15.4,11.9-15.4C38.4,16,26.5,15.1,26.5,0.6z"/>
<path class="st0 star s3" d="M276.9,47.6c0,0,0.8,15.7-12.7,15.8c0,0,12.7,0,12.7,15c0,0,0.8-15.4,11.9-15.4C288.8,63,276.9,62.1,276.9,47.6z"/>
</svg>
