<svg xmlns="http://www.w3.org/2000/svg" xmlns:xlink="http://www.w3.org/1999/xlink" width="323" height="159.002" viewBox="0 0 323 159.002">
  <defs>
    <filter id="빼기_3" x="0" y="0" width="323" height="159.002" filterUnits="userSpaceOnUse">
      <feOffset dx="3" dy="3" input="SourceAlpha"/>
      <feGaussianBlur result="blur"/>
      <feFlood/>
      <feComposite operator="in" in2="blur"/>
      <feComposite in="SourceGraphic"/>
    </filter>
  </defs>
  <g id="coupon" transform="translate(-20 -128.004)">
    <g transform="matrix(1, 0, 0, 1, 20, 128)" filter="url(#빼기_3)">
      <g id="빼기_3-2" data-name="빼기 3" transform="translate(-9223 -15339)" fill="#fff">
        <path d="M 9459.0126953125 15494.005859375 L 9230.9990234375 15494.0048828125 C 9227.140625 15494.0048828125 9224.0009765625 15490.8642578125 9224.0009765625 15487.0029296875 L 9224.0009765625 15347.0029296875 C 9224.0009765625 15343.1435546875 9227.140625 15340.00390625 9230.9990234375 15340.00390625 L 9459.1337890625 15340.00390625 C 9459.453125 15341.794921875 9460.337890625 15343.4365234375 9461.681640625 15344.6982421875 C 9463.259765625 15346.1845703125 9465.326171875 15347.0029296875 9467.498046875 15347.0029296875 C 9469.671875 15347.0029296875 9471.73828125 15346.1845703125 9473.3193359375 15344.6982421875 C 9474.6630859375 15343.4365234375 9475.5478515625 15341.7958984375 9475.8671875 15340.00390625 L 9535.001953125 15340.00390625 C 9538.861328125 15340.00390625 9542.0009765625 15343.1435546875 9542.0009765625 15347.0029296875 L 9542.0009765625 15487.0029296875 C 9542.0009765625 15490.8642578125 9538.861328125 15494.0048828125 9535.001953125 15494.0048828125 L 9475.984375 15494.0048828125 C 9475.7255859375 15489.548828125 9472.0185546875 15486.0029296875 9467.498046875 15486.0029296875 C 9462.9775390625 15486.0029296875 9459.2705078125 15489.548828125 9459.0126953125 15494.005859375 Z" stroke="none"/>
        <path d="M 9458.1162109375 15493.005859375 C 9458.8359375 15488.4765625 9462.76953125 15485.0029296875 9467.498046875 15485.0029296875 C 9472.2275390625 15485.0029296875 9476.16015625 15488.4755859375 9476.880859375 15493.0048828125 L 9535.001953125 15493.0048828125 C 9538.3095703125 15493.0048828125 9541.0009765625 15490.3125 9541.0009765625 15487.0029296875 L 9541.0009765625 15347.0029296875 C 9541.0009765625 15343.6953125 9538.3095703125 15341.00390625 9535.001953125 15341.00390625 L 9476.6669921875 15341.00390625 C 9476.2099609375 15342.68359375 9475.296875 15344.212890625 9474.00390625 15345.4267578125 C 9472.2373046875 15347.087890625 9469.9267578125 15348.0029296875 9467.498046875 15348.0029296875 C 9465.0703125 15348.0029296875 9462.7607421875 15347.087890625 9460.9970703125 15345.427734375 C 9459.7041015625 15344.212890625 9458.791015625 15342.68359375 9458.3349609375 15341.00390625 L 9230.9990234375 15341.00390625 C 9227.69140625 15341.00390625 9225.0009765625 15343.6953125 9225.0009765625 15347.0029296875 L 9225.0009765625 15487.0029296875 C 9225.0009765625 15490.3125 9227.69140625 15493.0048828125 9230.9990234375 15493.0048828125 L 9458.1162109375 15493.005859375 M 9460.0146484375 15495.005859375 L 9230.9990234375 15495.0048828125 C 9226.5888671875 15495.0048828125 9223.0009765625 15491.4150390625 9223.0009765625 15487.0029296875 L 9223.0009765625 15347.0029296875 C 9223.0009765625 15342.591796875 9226.5888671875 15339.00390625 9230.9990234375 15339.00390625 L 9460.0185546875 15339.00390625 C 9460.1435546875 15340.900390625 9460.9765625 15342.6640625 9462.3662109375 15343.9697265625 C 9463.759765625 15345.28125 9465.58203125 15346.0029296875 9467.498046875 15346.0029296875 C 9469.4150390625 15346.0029296875 9471.2392578125 15345.28125 9472.6337890625 15343.9697265625 C 9474.0234375 15342.6650390625 9474.857421875 15340.9013671875 9474.982421875 15339.00390625 L 9535.001953125 15339.00390625 C 9539.4130859375 15339.00390625 9543.0009765625 15342.591796875 9543.0009765625 15347.0029296875 L 9543.0009765625 15487.0029296875 C 9543.0009765625 15491.4150390625 9539.4130859375 15495.0048828125 9535.001953125 15495.0048828125 L 9474.982421875 15495.0048828125 C 9474.9931640625 15494.845703125 9474.9990234375 15494.681640625 9474.9990234375 15494.5029296875 C 9474.9990234375 15490.3671875 9471.6337890625 15487.0029296875 9467.498046875 15487.0029296875 C 9463.3623046875 15487.0029296875 9459.998046875 15490.3671875 9459.998046875 15494.5029296875 C 9459.998046875 15494.6767578125 9460.00390625 15494.8408203125 9460.0146484375 15495.0048828125 L 9460.0146484375 15495.005859375 Z" stroke="none" fill="#000"/>
      </g>
    </g>
    <path id="빼기_4" data-name="빼기 4" d="M9289,15501h-58.12a9.507,9.507,0,0,0-7.882-7.882v-137.234a9.5,9.5,0,0,0,7.668-6.882H9289a6.006,6.006,0,0,1,6,6v140A6.006,6.006,0,0,1,9289,15501Z" transform="translate(-8957 -15219)" fill="#d4ff1a"/>
    <path id="icon_download_h10" d="M20816.8,19244a.8.8,0,1,1,0-1.607h14.4a.8.8,0,0,1,0,1.607Zm6.629-3.2-4.793-4.8a.8.8,0,0,1,1.133-1.141l3.43,3.434v-9.492a.8.8,0,1,1,1.6,0v9.492l3.428-3.434a.8.8,0,0,1,1.135,1.141l-4.793,4.8a.85.85,0,0,1-.574.236A.839.839,0,0,1,20823.43,19240.8Z" transform="translate(-20521.996 -19029)"/>
    <line id="선_123" data-name="선 123" y2="116" transform="translate(267 148)" fill="none" stroke="#000" stroke-width="2" stroke-dasharray="2"/>
  </g>
</svg>
