<svg xmlns="http://www.w3.org/2000/svg" width="26" height="26" viewBox="0 0 26 26">
    <path data-name="패스 13637" d="M18 21a3.005 3.005 0 0 1 3-3 3 3 0 0 1 3 3 3 3 0 0 1-3 3 3 3 0 0 1-3-3zm2 0a1 1 0 0 0 1 1 1 1 0 0 0 1-1 1 1 0 0 0-1-1 1 1 0 0 0-1 1zM7 21a3.005 3.005 0 0 1 3-3 3 3 0 0 1 3 3 3 3 0 0 1-3 3 3 3 0 0 1-3-3zm2 0a1 1 0 0 0 1 1 1 1 0 0 0 1-1 1 1 0 0 0-1-1 1 1 0 0 0-1 1zm.119-4a2.681 2.681 0 0 1-2.632-2.1.042.042 0 0 0 0-.016L4.503 4.508a.671.671 0 0 0-.672-.5H1a1 1 0 0 1-1-1 1 1 0 0 1 1-1h2.831a2.679 2.679 0 0 1 2.632 2.105.037.037 0 0 1 0 .016l1.983 10.376a.675.675 0 0 0 .673.5H21.63a.675.675 0 0 0 .663-.473l1.681-7.3c0-.009 0-.018.007-.026a.581.581 0 0 0-.108-.5.7.7 0 0 0-.558-.265h-9.7a1 1 0 0 1-1-1 1 1 0 0 1 1-1h9.7a2.679 2.679 0 0 1 2.139 1.039 2.567 2.567 0 0 1 .467 2.214l-1.681 7.3a.132.132 0 0 0-.007.026 2.673 2.673 0 0 1-2.6 1.979z"/>
</svg>
