<svg xmlns="http://www.w3.org/2000/svg" width="26" height="26" viewBox="0 0 26 26">
    <g data-name="그룹 503" transform="translate(-976.394 -678.344)">
        <rect data-name="사각형 894" width="18" height="14" rx="2" transform="translate(980.394 687.344)" style="fill:none"/>
        <path data-name="패스 13635" d="M982.392 701.343a2 2 0 0 1-2-2v-9.559l-.316.293a1 1 0 0 1-1.414-.055.987.987 0 0 1-.268-.679 1 1 0 0 1 .32-.732c.026-.025 2.5-2.313 4.955-4.557 1.444-1.318 2.6-2.364 3.441-3.109.5-.447.9-.789 1.171-1.02.163-.135.286-.233.379-.3.074-.053.131-.092.186-.124a1.022 1.022 0 0 1 1.216.1l10 9a1 1 0 0 1 .078 1.411 1 1 0 0 1-1.414.075l-.333-.3v9.556a2 2 0 0 1-2 2zm0-12v10h14v-11.356l-7.049-6.341c-1.251 1.073-4.269 3.824-6.952 6.292z"/>
    </g>
    <path style="opacity:.3;fill:none" d="M0 0h26v26H0z"/>
</svg>
