
<svg xmlns="http://www.w3.org/2000/svg" width="16" height="17.002" viewBox="0 0 16 17.002">
  <defs>
    <style>
      .cls-1, .cls-2 {
        fill: #fff;
      }

      .cls-2 {
        stroke: #707070;
        opacity: 0;
      }

      .cls-3 {
        stroke: none;
      }

      .cls-4 {
        fill: none;
      }
    </style>
  </defs>
  <g id="icon_review_h16" transform="translate(0 0.502)">
    <path id="선_7" data-name="선 7" class="cls-1" d="M16,.5H0v-1H16Z" transform="translate(0 16)"/>
    <g id="그룹_84" data-name="그룹 84" transform="translate(3.275)">
      <path id="패스_113" data-name="패스 113" class="cls-1" d="M-49.5,1213.611h-1.861a1.825,1.825,0,0,1-1.823-1.823v-1.861a1.807,1.807,0,0,1,.473-1.224.5.5,0,0,1,.061-.074l7.483-7.483a1.807,1.807,0,0,1,1.288-.535,1.811,1.811,0,0,1,1.289.535l1.87,1.87a1.811,1.811,0,0,1,.534,1.291,1.808,1.808,0,0,1-.535,1.287l-7.483,7.483a.5.5,0,0,1-.076.063A1.808,1.808,0,0,1-49.5,1213.611Zm-2.383-4.335a.5.5,0,0,1-.057.067.816.816,0,0,0-.245.584v1.861a.824.824,0,0,0,.823.823H-49.5a.817.817,0,0,0,.584-.245.506.506,0,0,1,.068-.057l7.422-7.422a.815.815,0,0,0,.241-.581.818.818,0,0,0-.241-.583l-1.871-1.87a.818.818,0,0,0-.582-.242.814.814,0,0,0-.581.241Z" transform="translate(51.407 -1201.111)"/>
    </g>
    <g id="사각형_3080" data-name="사각형 3080" class="cls-2" transform="translate(0 -0.502)">
      <rect class="cls-3" width="16" height="17"/>
      <rect class="cls-4" x="0.5" y="0.5" width="15" height="16"/>
    </g>
  </g>
</svg>