<?xml version="1.0" encoding="utf-8"?>
<!-- Generator: Adobe Illustrator 26.3.1, SVG Export Plug-In . SVG Version: 6.00 Build 0)  -->
<svg version="1.1" id="Layer_1" xmlns="http://www.w3.org/2000/svg" xmlns:xlink="http://www.w3.org/1999/xlink" x="0px" y="0px"
	 viewBox="0 0 80 80" style="enable-background:new 0 0 80 80;" xml:space="preserve">
<style type="text/css">
	.st0{fill:#F7CEC3;}
</style>
<g>
	<path class="st0" d="M47.9,65.9c0,4.1,0.1,7.1,0,10c-0.1,1.3-0.3,2.8-2.2,2.8c-1.8,0-2.2-1.3-2.2-2.7c0-12.1,0-24.2,0-36.3
		c7.8,0,15.1-0.4,22.3,0.1c7.3,0.6,12.7,7.4,12.7,14.9s-5.3,14-12.6,15.1C60,70.7,54.1,70.5,47.9,65.9z"/>
	<path class="st0" d="M39,39.3c0,6.7,0.7,12.7-0.4,18.6c-1.2,6.7-6.5,11.2-13.9,12.1c-9.4,1.1-16-2-19.3-8.9C2.6,55.1,4,48,9,43.4
		c2.3-2.1,4.9-3.4,8-3.7c2-0.2,4-0.3,6-0.3C28.1,39.3,33.2,39.3,39,39.3z"/>
	<path class="st0" d="M43.6,34.8c0-5.9-0.4-11.4,0.1-16.8C44.3,11.7,47.8,6.7,54,5.2c7.2-1.8,14.6-2.3,20.5,3.9
		c4.4,4.7,5.4,10.2,3.1,16.1c-2.4,5.9-6.9,9.3-13.3,9.6C57.6,35,50.9,34.8,43.6,34.8z"/>
	<path class="st0" d="M39,34.7c-7.7,0-14.7,0.4-21.6-0.1c-7.6-0.5-13.2-7.2-13.2-15C4,11.6,9.7,5.2,17.6,4.4c2.5-0.2,5-0.2,7.5,0
		c7.5,0.6,12.9,6,13.7,13.4c0.2,1.6,0.1,3.3,0.1,5C39,26.6,39,30.4,39,34.7z"/>
</g>
</svg>
