<svg xmlns="http://www.w3.org/2000/svg" width="60" height="60" viewBox="0 0 60 60">
  <g id="그룹_113122" data-name="그룹 113122" transform="translate(1496 12466)">
    <rect id="사각형_20777" data-name="사각형 20777" width="60" height="60" transform="translate(-1496 -12466)" fill="none"/>
    <g id="그룹_113117" data-name="그룹 113117" transform="translate(-1.357 -1.357)">
      <g id="그룹_113117-2" data-name="그룹 113117" transform="translate(-1489 -12459)">
        <g id="타원_724" data-name="타원 724" transform="translate(0.357 0.357)" fill="#f476ec" stroke="#000" stroke-width="2.5">
          <circle cx="24" cy="24" r="24" stroke="none"/>
          <circle cx="24" cy="24" r="22.75" fill="none"/>
        </g>
        <g id="타원_725" data-name="타원 725" transform="translate(5.357 5.357)" fill="#fff" stroke="#000" stroke-width="2.5">
          <circle cx="19" cy="19" r="19" stroke="none"/>
          <circle cx="19" cy="19" r="17.75" fill="none"/>
        </g>
        <line id="선_274" data-name="선 274" y2="2.662" transform="translate(24.325 7.399)" fill="none" stroke="#000" stroke-linecap="round" stroke-width="2"/>
        <line id="선_278" data-name="선 278" y2="10.061" transform="translate(24.325 14.297)" fill="none" stroke="#000" stroke-linecap="round" stroke-width="2"/>
        <line id="선_275" data-name="선 275" y2="2.662" transform="translate(24.325 38.654)" fill="none" stroke="#000" stroke-linecap="round" stroke-width="2"/>
        <line id="선_276" data-name="선 276" y2="2.662" transform="translate(41.283 24.357) rotate(90)" fill="none" stroke="#000" stroke-linecap="round" stroke-width="2"/>
        <line id="선_277" data-name="선 277" y2="2.662" transform="translate(10.028 24.357) rotate(90)" fill="none" stroke="#000" stroke-linecap="round" stroke-width="2"/>
        <line id="선_279" data-name="선 279" x1="10.028" transform="translate(14.297 24.357)" fill="none" stroke="#000" stroke-linecap="round" stroke-width="2"/>
        <g id="타원_726" data-name="타원 726" transform="translate(23.357 23.357)" fill="#fdef72" stroke="#000" stroke-width="2.5">
          <circle cx="1" cy="1" r="1" stroke="none"/>
          <circle cx="1" cy="1" r="2.25" fill="none"/>
        </g>
      </g>
      <g id="그룹_113118" data-name="그룹 113118" transform="translate(-1456.426 -12426.426)">
        <g id="타원_722" data-name="타원 722" transform="translate(0 0)" fill="#68f48b" stroke="#000" stroke-linecap="round" stroke-linejoin="round" stroke-width="2.5">
          <circle cx="8.071" cy="8.071" r="8.071" stroke="none"/>
          <circle cx="8.071" cy="8.071" r="9.321" fill="none"/>
        </g>
        <path id="패스_38832" data-name="패스 38832" d="M-2189.5-12424.209l2.457,2.456,4.314-4.314" transform="translate(2194.183 12431.979)" fill="none" stroke="#000" stroke-linecap="round" stroke-linejoin="round" stroke-width="2.5"/>
      </g>
    </g>
  </g>
</svg>
