<svg xmlns="http://www.w3.org/2000/svg" width="18" height="18" viewBox="0 0 18 18">
  <g id="Group_115888" data-name="Group 115888" transform="translate(22461 13895)">
    <rect id="Rectangle_21829" data-name="Rectangle 21829" width="18" height="18" transform="translate(-22461 -13895)" fill="none"/>
    <g id="Group_115882" data-name="Group 115882" transform="translate(-22460.031 -13892.762)">
      <path id="Path_52112" data-name="Path 52112" d="M16.563,4.371a3.9,3.9,0,0,1-1.131,2.765L14.024,8.544l-5.505,5.48L1.631,7.137a3.915,3.915,0,0,1,0-5.505,3.884,3.884,0,0,1,5.48,0L8.519,3.039,9.927,1.631a3.915,3.915,0,0,1,5.505,0A3.842,3.842,0,0,1,16.563,4.371Z" transform="translate(-0.5 -0.5)" fill="#f04c91"/>
      <g id="Group_115880" data-name="Group 115880" transform="translate(2.175 3.233)">
        <g id="Group_115881" data-name="Group 115881" transform="translate(0 0)">
          <path id="Path_52113" data-name="Path 52113" d="M9.777,25.265a12.518,12.518,0,0,0-4.216,3.141,10.911,10.911,0,0,1,.272,2.685,14.859,14.859,0,0,1,5.258-4.408Z" transform="translate(-5.12 -23.263)" fill="#fffb40"/>
          <path id="Path_52114" data-name="Path 52114" d="M73.8,25.265a12.518,12.518,0,0,1,4.216,3.141,10.912,10.912,0,0,0-.272,2.685,14.858,14.858,0,0,0-5.258-4.408Z" transform="translate(-66.745 -23.263)" fill="#fffb40"/>
          <path id="Path_52115" data-name="Path 52115" d="M14.276,23.81s1.563,1.023,4.114-.441l-.258-1.7s-2.719,1.48-4.505.578Z" transform="translate(-12.547 -19.954)" fill="#f0c302"/>
          <path id="Path_52116" data-name="Path 52116" d="M17.31.006S19.1-.23,20.946,2.27l-.814,1.447s-2-2.59-3.95-2.567Z" transform="translate(-14.901 0)" fill="#f0c302"/>
          <path id="Path_52117" data-name="Path 52117" d="M2.408.17a5.641,5.641,0,0,0-1.7.285,1.882,1.882,0,0,0-.68,1.157A2.09,2.09,0,0,0,.265,2.985,6.338,6.338,0,0,0,1.729,4.013,3.544,3.544,0,0,1,1.508,1.96a3.239,3.239,0,0,1,.9-1.79" transform="translate(0 -0.157)" fill="#fffb40"/>
          <path id="Path_52118" data-name="Path 52118" d="M78.2,23.81s-1.563,1.023-4.114-.441l.258-1.7s2.72,1.48,4.505.578Z" transform="translate(-68.218 -19.954)" fill="#f0c302"/>
          <path id="Path_52119" data-name="Path 52119" d="M75.169.006S73.384-.23,71.533,2.27l.814,1.447s2-2.59,3.95-2.567Z" transform="translate(-65.865 0)" fill="#f0c302"/>
          <path id="Path_52120" data-name="Path 52120" d="M117.447.17a5.642,5.642,0,0,1,1.7.285,1.883,1.883,0,0,1,.68,1.157,2.089,2.089,0,0,1-.234,1.373,6.335,6.335,0,0,1-1.464,1.028,3.543,3.543,0,0,0,.221-2.053,3.239,3.239,0,0,0-.9-1.79" transform="translate(-108.141 -0.157)" fill="#fffb40"/>
          <path id="Path_52121" data-name="Path 52121" d="M66.863,16.317H65.5a7.05,7.05,0,0,1,0,2.478h1.358a7.022,7.022,0,0,0,0-2.478" transform="translate(-60.315 -15.024)" fill="#fffb40"/>
        </g>
      </g>
    </g>
    <path id="Polygon_32" data-name="Polygon 32" d="M1.5,0l.375,1.125L3,1.5l-1.125.375L1.5,3,1.125,1.875,0,1.5l1.125-.375Z" transform="translate(-22447.5 -13882.25)" fill="#20bfe6"/>
    <path id="Polygon_34" data-name="Polygon 34" d="M1.5,0l.375,1.125L3,1.5l-1.125.375L1.5,3,1.125,1.875,0,1.5l1.125-.375Z" transform="translate(-22461 -13885.25)" fill="#20bfe6"/>
    <path id="Polygon_33" data-name="Polygon 33" d="M.75,0,.938.563,1.5.75.938.938.75,1.5.563.938,0,.75.563.563Z" transform="translate(-22445.25 -13883.75)" fill="#20bfe6"/>
    <path id="Polygon_35" data-name="Polygon 35" d="M.75,0,.938.563,1.5.75.938.938.75,1.5.563.938,0,.75.563.563Z" transform="translate(-22452 -13893.5)" fill="#20bfe6"/>
  </g>
</svg>
