
<svg xmlns="http://www.w3.org/2000/svg" width="51.302" height="60.244" viewBox="0 0 51.302 60.244">
    <g data-name="그룹 2474">
        <path data-name="사각형 3734" transform="translate(0 .233)" style="fill:#fff" d="M0 0h50v60H0z"/>
        <g data-name="그룹 2475" transform="translate(0 2.249)">
            <circle data-name="타원 332" cx="2.809" cy="2.809" r="2.809" transform="translate(2.107 34.697)" style="fill:#b6f478"/>
            <path data-name="사각형 3706" d="m.763 13.171 2.028-2.03 2.563 2.563-2.028 2.029z"/>
            <path data-name="사각형 3707" d="m5.374 17.392 2.028-2.028 2.563 2.564-2.028 2.028z"/>
            <path data-name="사각형 3708" d="m5.373 13.705 2.563-2.563 2.028 2.03-2.562 2.562z"/>
            <path data-name="사각형 3709" d="m.763 17.927 2.563-2.563 2.029 2.028-2.563 2.564z"/>
            <g data-name="그룹 2442">
                <g data-name="그룹 2458">
                    <path data-name="패스 36555" d="M5.025 42.757a4.8 4.8 0 1 1 0-9.594 4.8 4.8 0 1 1 0 9.594m0-6.973a2.178 2.178 0 1 0 0 4.351 2.178 2.178 0 1 0 0-4.351"/>
                    <path data-name="패스 36556" d="M44.311 22.024a4.921 4.921 0 0 1-5.026-4.8 5.031 5.031 0 0 1 10.051 0 4.92 4.92 0 0 1-5.025 4.8m0-6.972a2.178 2.178 0 1 0 2.278 2.176 2.231 2.231 0 0 0-2.278-2.176"/>
                    <path data-name="사각형 3714" d="M24.716 20.713h2.746v37.283h-2.746z"/>
                    <path data-name="패스 36557" d="M17.96 57.996h-2.747c0-5.606-.594-11.22-4.908-14.308l1.648-2.1c5.294 3.789 6.007 10.419 6.007 16.405"/>
                    <path data-name="패스 36558" d="M37.19 57.996h-2.748c0-7.621.5-15.861 4.236-19.2l1.877 1.913c-3.365 3.012-3.365 13.015-3.365 17.287"/>
                    <path data-name="패스 36559" d="M12.067 24.364a20.759 20.759 0 0 0-1.9-2.023l1.917-1.878a23.642 23.642 0 0 1 2.141 2.282z"/>
                    <path data-name="패스 36560" d="M22.154 48.008h-2.743c0-7.774-1.98-15.418-5.431-20.971l2.362-1.337c3.7 5.946 5.816 14.077 5.816 22.307"/>
                    <path data-name="패스 36561" d="m38.718 25.101-2.251-1.5a20.924 20.924 0 0 1 1.779-2.122l2.025 1.772a18.021 18.021 0 0 0-1.549 1.85"/>
                    <path data-name="패스 36562" d="m32.928 43.973-2.742-.163c.458-7 2.01-12.922 4.616-17.6l2.424 1.23c-2.42 4.347-3.866 9.91-4.3 16.533"/>
                </g>
            </g>
            <path data-name="패스 36575" d="m-17194.824-19641.332-2.7 5.227-4.7.893 3.523 4.129-1.387 5.684 5.262-3.74 5.34 2.652-1.125-5.291 3.832-3.434-5.816-.893z" transform="translate(17220.314 19644.461)" style="fill:#ebf849"/>
            <path data-name="패스 36573" d="M9.352 19.566c-.037 0-.075 0-.112-.005a1.087 1.087 0 0 1-.9-.695l-2-5.309L.822 12.15a1.087 1.087 0 0 1-.792-.816 1.061 1.061 0 0 1 .38-1.06l4.444-3.492-.4-5.642a1.059 1.059 0 0 1 .525-.995 1.08 1.08 0 0 1 1.134.04l4.747 3.15 5.268-2.082a1.081 1.081 0 0 1 1.439 1.287l-1.509 5.438 3.659 4.356a1.062 1.062 0 0 1-.772 1.75l-5.679.211-3.007 4.775a1.066 1.066 0 0 1-.907.5m-5.9-8.947 3.952 1.007a1.079 1.079 0 0 1 .747.667l1.434 3.8 2.153-3.42a1.066 1.066 0 0 1 .864-.5l4.068-.152-2.62-3.117a1.064 1.064 0 0 1-.213-.974l1.08-3.9-3.773 1.496a1.081 1.081 0 0 1-1-.106l-3.4-2.257.288 4.042a1.059 1.059 0 0 1-.4.908z" transform="rotate(-42 20.83 -10.093)" style="stroke:#000;fill:#0b0e11;stroke-width:.3px"/>
            <path data-name="패스 36574" d="m0 3.56 3.3-.549L4.707 0l1.567 2.948 3.331.407-2.336 2.369.66 3.26L4.917 7.5 1.992 9.111l.475-3.285z" transform="rotate(-25 92.468 -68.039)" style="fill:#ffd80a;stroke-linecap:round;stroke-linejoin:round;stroke-width:2px;stroke:#000"/>
        </g>
    </g>
</svg>
