<svg xmlns="http://www.w3.org/2000/svg" width="60" height="60" viewBox="0 0 60 60">
  <g id="그룹_113119" data-name="그룹 113119" transform="translate(2497 12478)">
    <rect id="사각형_20772" data-name="사각형 20772" width="60" height="60" transform="translate(-2497 -12478)" fill="none"/>
    <g id="그룹_113082" data-name="그룹 113082" transform="translate(1.673 1.251)">
      <g id="그룹_113081" data-name="그룹 113081" transform="translate(-2496 -12469.794)">
        <g id="패스_38823" data-name="패스 38823" transform="translate(3.097 6.301)" fill="#ebebeb" stroke-linecap="round">
          <path d="M 35.3527946472168 26.5683765411377 L 12.25832462310791 26.5683765411377 L 1.67085599899292 14.00302791595459 L 12.65767860412598 2.24999737739563 L 35.80255508422852 2.24999737739563 L 46.76158142089844 13.97329044342041 L 35.3527946472168 26.5683765411377 Z" stroke="none"/>
          <path d="M 13.20027160644531 3.499998092651367 L 3.341705322265625 14.04608631134033 L 12.83965301513672 25.3183765411377 L 34.79850006103516 25.3183765411377 L 45.06294250488281 13.98662281036377 L 35.25996398925781 3.499998092651367 L 13.20027160644531 3.499998092651367 M 12.11506652832031 0.9999980926513672 L 36.34516906738281 0.9999980926513672 L 48.46023941040039 13.95995712280273 L 35.90710830688477 27.8183765411377 L 11.67699813842773 27.8183765411377 L -3.814697265625e-06 13.95995712280273 L 12.11506652832031 0.9999980926513672 Z" stroke="none" fill="#000"/>
        </g>
        <g id="그룹_113080" data-name="그룹 113080" transform="translate(8.385 0)">
          <g id="타원_719" data-name="타원 719" transform="translate(0 0)" fill="#fdef72" stroke="#000" stroke-width="2.5">
            <circle cx="18.942" cy="18.942" r="18.942" stroke="none"/>
            <circle cx="18.942" cy="18.942" r="17.692" fill="none"/>
          </g>
          <g id="타원_718" data-name="타원 718" transform="translate(3.643 3.643)" fill="#fdef72" stroke="#000" stroke-width="2.5">
            <circle cx="15.3" cy="15.3" r="15.3" stroke="none"/>
            <circle cx="15.3" cy="15.3" r="14.05" fill="none"/>
          </g>
          <path id="패스_42543" data-name="패스 42543" d="M-4.85-3.9h2.181V-7.772h1.459C1.132-7.772,3-8.892,3-11.382,3-13.96,1.147-14.8-1.27-14.8H-4.85Zm2.181-5.6v-3.58h1.238c1.5,0,2.3.427,2.3,1.694S.145-9.5-1.358-9.5Z" transform="translate(20.866 28.291)"/>
        </g>
        <g id="패스_38822" data-name="패스 38822" transform="translate(51.859 19.389) rotate(90)" fill="#fff">
          <path d="M 17.63238525390625 28.95232582092285 L 17.5887508392334 28.87962532043457 L 1.267913222312927 1.687343120574951 C 1.221528768539429 1.502143383026123 1.275820016860962 1.32641065120697 1.327591061592102 1.25000524520874 L 27.09135246276855 1.25000524520874 C 27.1496696472168 1.336071133613586 27.21118545532227 1.548157095909119 27.1284008026123 1.757855296134949 L 27.11920166015625 1.781165242195129 L 27.11093139648438 1.804835200309753 L 17.63238525390625 28.95232582092285 Z" stroke="none"/>
          <path d="M 17.33149528503418 26.02204513549805 L 25.54421615600586 2.50000524520874 L 3.213541507720947 2.50000524520874 L 17.33149528503418 26.02204513549805 M 17.63707733154297 30.38794708251953 C 17.19086647033691 30.38794708251953 16.74465751647949 30.09959983825684 16.51698112487793 29.52290534973145 L 0.1278717070817947 2.216875314712524 C -0.2762683033943176 1.193215250968933 0.3266217112541199 5.256042641121894e-06 1.247971653938293 5.256042641121894e-06 L 27.17097091674805 5.256042641121894e-06 C 28.09232139587402 5.256042641121894e-06 28.69521141052246 1.193215250968933 28.29107093811035 2.216875314712524 L 18.75717163085938 29.52290534973145 C 18.52949714660645 30.09959983825684 18.08328628540039 30.38794708251953 17.63707733154297 30.38794708251953 Z" stroke="none" fill="#000"/>
        </g>
        <g id="패스_38821" data-name="패스 38821" transform="translate(33.183 19.389) rotate(90)" fill="#fff">
          <path d="M 27.09135055541992 29.13793563842773 L 1.327592253684998 29.13793563842773 C 1.275825142860413 29.06153106689453 1.221524238586426 28.88581466674805 1.267907500267029 28.70061492919922 L 17.58874893188477 1.508316159248352 L 17.63238525390625 1.435620069503784 L 27.11093902587891 28.58311653137207 L 27.11920928955078 28.60677528381348 L 27.12841033935547 28.63008689880371 C 27.21119499206543 28.83978462219238 27.1496696472168 29.05187034606934 27.09135055541992 29.13793563842773 Z" stroke="none"/>
          <path d="M 17.33149337768555 4.365898132324219 L 3.213544845581055 27.88793563842773 L 25.54421043395996 27.88793563842773 L 17.33149337768555 4.365898132324219 M 17.6370735168457 1.9073486328125e-06 C 18.08328437805176 1.9073486328125e-06 18.52949523925781 0.2883453369140625 18.75716972351074 0.8650360107421875 L 28.29106903076172 28.17107582092285 C 28.69520950317383 29.19472694396973 28.09231948852539 30.38793563842773 27.17096900939941 30.38793563842773 L 1.247970581054688 30.38793563842773 C 0.3266201019287109 30.38793563842773 -0.2762699127197266 29.19472694396973 0.1278705596923828 28.17107582092285 L 16.5169792175293 0.8650360107421875 C 16.74465560913086 0.2883453369140625 17.19086456298828 1.9073486328125e-06 17.6370735168457 1.9073486328125e-06 Z" stroke="none" fill="#000"/>
        </g>
        <g id="다각형_1" data-name="다각형 1" transform="translate(-1.673 28.983)" fill="#fff">
          <path d="M 51.59306335449219 18.81015586853027 L 6.406934261322021 18.81015586853027 C 5.909104347229004 18.81015586853027 5.740424156188965 18.44194602966309 5.691004276275635 18.28363609313965 C 5.641584396362305 18.12533569335938 5.570844173431396 17.7265453338623 5.980264186859131 17.44334602355957 L 28.57332420349121 1.815055251121521 C 28.69928359985352 1.727925300598145 28.84683418273926 1.681865215301514 28.9999942779541 1.681865215301514 C 29.15315437316895 1.681865215301514 29.30070495605469 1.727925300598145 29.42666435241699 1.815055251121521 L 52.01973342895508 17.44334602355957 C 52.42915344238281 17.7265453338623 52.35841369628906 18.12533569335938 52.30899429321289 18.28363609313965 C 52.25957489013672 18.44194602966309 52.09089279174805 18.81015586853027 51.59306335449219 18.81015586853027 Z" stroke="none"/>
          <path d="M 28.99999618530273 3.039829254150391 L 8.0086669921875 17.56015586853027 L 49.9913215637207 17.56015586853027 L 28.99999618530273 3.039829254150391 M 28.9999942779541 0.4318656921386719 C 29.39773178100586 0.4318656921386719 29.79546928405762 0.5502548217773438 30.13777351379395 0.7870349884033203 L 52.7308349609375 16.41532516479492 C 54.34370422363281 17.5309944152832 53.55420303344727 20.06015586853027 51.59306335449219 20.06015586853027 L 6.406932830810547 20.06015586853027 C 4.445785522460938 20.06015586853027 3.656272888183594 17.5309944152832 5.269153594970703 16.41532516479492 L 27.86221504211426 0.7870349884033203 C 28.20451927185059 0.5502548217773438 28.60225677490234 0.4318656921386719 28.9999942779541 0.4318656921386719 Z" stroke="none" fill="#000"/>
        </g>
      </g>
      <path id="패스_38826" data-name="패스 38826" d="M23.03,7.117l.009,0h-.019C22.788,6.993,20.176,5.538,19.21,1c-1.024,4.526-3.654,5.947-3.888,6.066H15.3l.008,0-.008.005h.018c.232.122,2.844,1.575,3.811,6.113,1.024-4.526,3.653-5.946,3.886-6.064h.019l-.009-.006" transform="translate(-2463.473 -12472.616)" fill="#2dde56" stroke="#000" stroke-linecap="round" stroke-linejoin="round" stroke-width="2.5"/>
      <path id="패스_38828" data-name="패스 38828" d="M22,6.3l.007,0h-.017c-.2-.1-2.463-1.365-3.3-5.3C17.8,4.921,15.522,6.152,15.32,6.255H15.3l.007,0-.007,0h.016c.2.105,2.464,1.365,3.3,5.3.887-3.922,3.165-5.152,3.367-5.254h.017L22,6.3" transform="translate(-2472.759 -12478.751)" fill="#f079e8" stroke="#000" stroke-linecap="round" stroke-linejoin="round" stroke-width="2.5"/>
    </g>
  </g>
</svg>
