
<svg xmlns="http://www.w3.org/2000/svg" width="52.312" height="65" viewBox="0 0 52.312 65">
    <defs>
        <style>
            .cls-2{fill:#ccc;stroke:#ccc}
        </style>
    </defs>
    <g id="icon" transform="translate(16840 19404.582)">
        <g id="그룹_2455" data-name="그룹 2455" transform="translate(-16839.725 -19402.582)">
            <g id="그룹_2446" data-name="그룹 2446">
                <path id="패스_36578" data-name="패스 36578" class="cls-2" d="M0 0v4.441l5.024 2.481h10.144l4.506-2.481V0L13.39 1.52H7.03z" transform="translate(11.628 19.59)"/>
                <path id="패스_36577" data-name="패스 36577" class="cls-2" d="M7.337 0 18.7 4.09 30.457 0l7.036 8.45v12.857l-7.036 10.334-10.14 3.746-13.979-4.4L0 20.86V9.527z" transform="translate(2.56 24.734)"/>
                <g id="그룹_2439" data-name="그룹 2439" transform="translate(0 4.347)">
                    <g id="그룹_2447" data-name="그룹 2447">
                        <path id="패스_36550" data-name="패스 36550" d="M11.888 9.507C6.163 9.507 0 8 0 4.682 0 1.115 6.749.2 8.818 0l.262 2.748c-4.177.4-6 1.5-6.294 1.935.413.641 3.476 2.063 9.1 2.063s8.691-1.424 9.1-2.063c-.281-.425-1.872-1.366-5.347-1.827l.37-2.738c4.937.656 7.768 2.319 7.768 4.564 0 3.316-6.163 4.825-11.888 4.825" transform="translate(9.625 8.008)"/>
                        <path id="패스_36551" data-name="패스 36551" d="M11.888 11.328C6.163 11.328 0 9.819 0 6.5V0h2.761v6.5c.239.547 3.312 2.067 9.127 2.067s8.892-1.52 9.136-2.125L21.015 0h2.761v6.5c0 3.316-6.163 4.825-11.888 4.825" transform="translate(9.625 12.69)"/>
                        <path id="패스_36552" data-name="패스 36552" d="M21.514 39.868A21.516 21.516 0 0 1 10.285 0l1.442 2.354a18.752 18.752 0 1 0 19.573 0L32.742 0a21.516 21.516 0 0 1-11.228 39.868" transform="translate(0 18.015)"/>
                        <path id="패스_36553" data-name="패스 36553" d="M2.76 12.465 0 12.408A12.9 12.9 0 0 1 3.285 3.9c3.675-3.937 9.941-5.012 15.59-2.68l-1.054 2.553C13.23 1.877 8.2 2.686 5.3 5.782a10.149 10.149 0 0 0-2.54 6.683" transform="translate(20.237)"/>
                    </g>
                </g>
                <path id="패스_36576" data-name="패스 36576" d="m1.7 10.028.087-.328.98-3.276L0 5.215l2.767-1.627L2.2.754l2.629 1.619L7.086 0v2.956h4.256L8.751 6.112 9.9 7.907H7.086l-.508 2.811-1.749-1.789z" transform="translate(36.508 3.604)" style="fill:#da2128"/>
                <path id="패스_36571" data-name="패스 36571" d="M4.76 15.574a.762.762 0 0 1-.76-.817l.268-3.657-3.622-.55a.76.76 0 0 1-.315-1.379L3.355 7.1 1.529 3.922a.76.76 0 0 1 .882-1.106l3.5 1.073L7.26.481a.76.76 0 0 1 1.414 0L10.02 3.89l3.5-1.073a.76.76 0 0 1 .882 1.106L12.58 7.1l3.02 2.071a.76.76 0 0 1-.315 1.379l-3.622.553.267 3.655a.76.76 0 0 1-1.274.614l-2.689-2.488-2.691 2.487a.759.759 0 0 1-.516.2m3.207-4.485a.76.76 0 0 1 .516.2l1.793 1.657-.176-2.43a.761.761 0 0 1 .643-.807l2.413-.369-2.015-1.379a.759.759 0 0 1-.23-1.006l1.217-2.117-2.334.715a.762.762 0 0 1-.93-.448l-.9-2.27-.9 2.27a.763.763 0 0 1-.93.448l-2.327-.715 1.217 2.117a.76.76 0 0 1-.23 1.006L2.78 9.337l2.412.369a.761.761 0 0 1 .644.807l-.177 2.434 1.792-1.657a.76.76 0 0 1 .516-.2" transform="rotate(14.98 21.899 137.403)" style="fill:#0b0e11;stroke:#000;stroke-width:.5px"/>
            </g>
        </g>
        <text id="꽝_" data-name="꽝!" transform="rotate(7 149807.915 -147171.454)" style="font-size:15px;font-family:NotoSansCJKkr-Bold,Noto Sans CJK KR;font-weight:700;letter-spacing:-.01em"><tspan x="-9.6" y="0">꽝!</tspan></text>
    </g>
</svg>
