<svg xmlns="http://www.w3.org/2000/svg" width="18" height="18" viewBox="0 0 18 18">
  <g id="Group_113124" data-name="Group 113124" transform="translate(23006 13900)">
    <rect id="Rectangle_21816" data-name="Rectangle 21816" width="18" height="18" transform="translate(-23006 -13900)" fill="none"/>
    <g id="Group_115850" data-name="Group 115850" transform="translate(-23004.582 -13897.751)">
      <path id="Path_52052" data-name="Path 52052" d="M31.477,6.75A6.75,6.75,0,1,1,24.727,0a6.75,6.75,0,0,1,6.75,6.75" transform="translate(-17.162)" fill="#ffc501"/>
      <path id="Path_52053" data-name="Path 52053" d="M22.509,9.018a.7.7,0,0,1,1.335,0" transform="translate(-18.295 -2.883)" fill="none" stroke="#000" stroke-linecap="round" stroke-miterlimit="10" stroke-width="0.8"/>
      <path id="Path_52054" data-name="Path 52054" d="M28.415,12.516a2.265,2.265,0,0,1-4.314,0" transform="translate(-18.693 -3.879)" fill="none" stroke="#000" stroke-linecap="round" stroke-miterlimit="10" stroke-width="0.8"/>
      <path id="Path_52055" data-name="Path 52055" d="M29.661,9.018a.7.7,0,0,1,1.335,0" transform="translate(-20.083 -2.883)" fill="none" stroke="#000" stroke-linecap="round" stroke-miterlimit="10" stroke-width="0.8"/>
      <g id="Group_115847" data-name="Group 115847" transform="translate(10.245 0.691)">
        <g id="Group_115845" data-name="Group 115845">
          <path id="Path_52057" data-name="Path 52057" d="M4.609,1.49A1,1,0,0,1,4.32,2.2l-.36.36-1.408,1.4L.789,2.2a1,1,0,0,1,0-1.408.994.994,0,0,1,1.4,0l.36.36.36-.36a1,1,0,0,1,1.408,0A.983.983,0,0,1,4.609,1.49Z" transform="translate(-0.5 -0.5)" fill="#fd4033"/>
        </g>
      </g>
      <g id="Group_115848" data-name="Group 115848" transform="translate(10.5 10.041)">
        <g id="Group_115845-2" data-name="Group 115845">
          <path id="Path_52057-2" data-name="Path 52057" d="M4.609,1.49A1,1,0,0,1,4.32,2.2l-.36.36-1.408,1.4L.789,2.2a1,1,0,0,1,0-1.408.994.994,0,0,1,1.4,0l.36.36.36-.36a1,1,0,0,1,1.408,0A.983.983,0,0,1,4.609,1.49Z" transform="translate(-0.5 -0.5)" fill="#fd4033"/>
        </g>
      </g>
      <g id="Group_115849" data-name="Group 115849" transform="translate(0 8.482)">
        <g id="Group_115845-3" data-name="Group 115845">
          <path id="Path_52057-3" data-name="Path 52057" d="M4.609,1.49A1,1,0,0,1,4.32,2.2l-.36.36-1.408,1.4L.789,2.2a1,1,0,0,1,0-1.408.994.994,0,0,1,1.4,0l.36.36.36-.36a1,1,0,0,1,1.408,0A.983.983,0,0,1,4.609,1.49Z" transform="translate(-0.5 -0.5)" fill="#fd4033"/>
        </g>
      </g>
    </g>
  </g>
</svg>
