<svg xmlns="http://www.w3.org/2000/svg" width="18" height="18" viewBox="0 0 18 18">
  <g id="Group_115889" data-name="Group 115889" transform="translate(22323 13878)">
    <rect id="Rectangle_21830" data-name="Rectangle 21830" width="18" height="18" transform="translate(-22323 -13878)" fill="none"/>
    <g id="Group_115885" data-name="Group 115885" transform="translate(-22320.842 -13876.447)">
      <g id="Group_115886" data-name="Group 115886">
        <path id="Path_52122" data-name="Path 52122" d="M21.551,75.165h5.722c0-.541-.65-1.008-1.592-1.233H23.143c-.942.225-1.592.692-1.592,1.233" transform="translate(-17.569 -60.272)" fill="#ffae00"/>
        <path id="Path_52123" data-name="Path 52123" d="M31.5,49.447c0,.2.259.38.628.455h.788c.368-.074.627-.25.627-.455,0-.145-.133-.274-.341-.364H31.846c-.208.09-.341.219-.341.364" transform="translate(-25.684 -40.014)" fill="#ffae00"/>
        <path id="Path_52124" data-name="Path 52124" d="M30.169,57.286h2.537a6.449,6.449,0,0,1-.874-3.772h-.788a6.451,6.451,0,0,1-.875,3.772" transform="translate(-24.595 -43.627)" fill="#fac635"/>
        <path id="Path_52125" data-name="Path 52125" d="M55.462,4.3a1.87,1.87,0,0,0-.4-.7,1.732,1.732,0,0,0-.7-.479A2.188,2.188,0,0,0,53.495,3a3.108,3.108,0,0,0-.849.2c-.026.011-.051.025-.076.037,0,0,.011.458,0,.758a2.616,2.616,0,0,1,.98-.323,1.322,1.322,0,0,1,1.091.355,1.353,1.353,0,0,1,.17.2,1.522,1.522,0,0,1,.128.25,2.181,2.181,0,0,1,.144.54,3.154,3.154,0,0,1-.056,1.027,4.425,4.425,0,0,1-.26.775,4.242,4.242,0,0,1-.243.472l-.1.162h0l-.109.155a4.119,4.119,0,0,1-.333.418,3.921,3.921,0,0,1-.614.559,2.967,2.967,0,0,1-.963.459,2.473,2.473,0,0,1-.428.066.331.331,0,0,0-.319-.244.178.178,0,0,0-.029,0s-.145.343-.235.522a.325.325,0,0,0,.265.138.33.33,0,0,0,.281-.157,2.77,2.77,0,0,0,.531-.1,3.924,3.924,0,0,0,1.018-.514,5.5,5.5,0,0,0,.673-.56,4.8,4.8,0,0,0,.377-.421l.121-.153h0l.118-.167a4.64,4.64,0,0,0,.295-.486,4.761,4.761,0,0,0,.342-.822,3.656,3.656,0,0,0,.166-1.169,2.5,2.5,0,0,0-.122-.695" transform="translate(-41.9 -2.444)" fill="#ffae00"/>
        <path id="Path_52126" data-name="Path 52126" d="M23.974,1.558V.8c-.007-.271-.022-.539-.051-.8H16.371c-.028.261-.044.528-.051.8v.758a14.076,14.076,0,0,0,.938,4.88l.236.522a4.01,4.01,0,0,0,1.971,2.108h1.362A4.017,4.017,0,0,0,22.8,6.961l.235-.522a14.076,14.076,0,0,0,.938-4.88" transform="translate(-13.305)" fill="#fac635"/>
        <path id="Path_52127" data-name="Path 52127" d="M3.925,8.876a.331.331,0,0,0-.319.244,2.461,2.461,0,0,1-.429-.066A2.962,2.962,0,0,1,2.216,8.6,3.913,3.913,0,0,1,1.6,8.036a4.326,4.326,0,0,1-.333-.418L1.16,7.464h0s-.033-.056-.1-.163a4.221,4.221,0,0,1-.244-.472,4.427,4.427,0,0,1-.26-.775A3.154,3.154,0,0,1,.5,5.028a2.187,2.187,0,0,1,.143-.54,1.671,1.671,0,0,1,.129-.25,1.346,1.346,0,0,1,.17-.2,1.324,1.324,0,0,1,1.09-.355A2.615,2.615,0,0,1,3.016,4c-.011-.3,0-.758,0-.758-.026-.012-.05-.026-.077-.037A3.086,3.086,0,0,0,2.091,3a2.182,2.182,0,0,0-.872.119,1.724,1.724,0,0,0-.7.479,1.854,1.854,0,0,0-.4.7A2.52,2.52,0,0,0,0,4.989,3.656,3.656,0,0,0,.168,6.157,4.762,4.762,0,0,0,.51,6.98a4.59,4.59,0,0,0,.3.486l.117.167h0l.122.153a4.6,4.6,0,0,0,.378.421,5.411,5.411,0,0,0,.673.56,3.915,3.915,0,0,0,1.018.514,2.776,2.776,0,0,0,.53.1.331.331,0,0,0,.281.157A.328.328,0,0,0,4.191,9.4c-.1-.193-.236-.522-.236-.522a.192.192,0,0,0-.029,0" transform="translate(0 -2.443)" fill="#ffae00"/>
        <path id="Path_52128" data-name="Path 52128" d="M57.749,4.327v.758c.012-.3,0-.758,0-.758" transform="translate(-47.078 -3.528)" fill="#ffe05d"/>
        <path id="Path_52129" data-name="Path 52129" d="M16.3,5.085V4.327s-.01.457,0,.758" transform="translate(-13.286 -3.528)" fill="#ffe05d"/>
        <path id="Path_52130" data-name="Path 52130" d="M51.4,35.368c.09-.179.235-.522.235-.522Z" transform="translate(-41.9 -28.408)" fill="#ffe05d"/>
        <path id="Path_52131" data-name="Path 52131" d="M21.638,35.368l-.236-.522s.137.33.236.522" transform="translate(-17.448 -28.408)" fill="#ffe05d"/>
        <path id="Path_52132" data-name="Path 52132" d="M28.081,9.518l.651,1.32,1.456.212-1.054,1.027.249,1.45-1.3-.685-1.3.685.249-1.45-1.054-1.027,1.456-.212Z" transform="translate(-21.174 -7.759)" fill="#e59d05"/>
      </g>
    </g>
  </g>
</svg>
