<svg xmlns="http://www.w3.org/2000/svg" width="18" height="18" viewBox="0 0 18 18">
  <g id="Group_115851" data-name="Group 115851" transform="translate(22983 13898)">
    <g id="Group_115852" data-name="Group 115852" transform="translate(-22980.357 -13896.522)">
      <g id="Group_115853" data-name="Group 115853">
        <path id="Path_52058" data-name="Path 52058" d="M98.581,5.981a1.009,1.009,0,0,0-.831.671,2.582,2.582,0,0,0-.156,1.18,3.063,3.063,0,0,0,.044.331c.009.047.023.094.035.14a.628.628,0,0,0,.054.144c.032.06.123.025.122-.037a.806.806,0,0,0-.014-.131c0-.023,0,.011,0,0l0-.014,0-.029c0-.022,0-.044-.006-.066-.009-.088-.022-.176-.03-.264a3.36,3.36,0,0,1-.008-.568c0-.011,0-.022,0-.033s0-.037,0-.016q0-.037.009-.075.009-.07.022-.139a2.237,2.237,0,0,1,.069-.27q.01-.032.022-.063l.005-.015s-.007.016,0,0l.013-.032c.017-.041.037-.082.058-.121a1.2,1.2,0,0,1,.066-.109l.009-.012s-.009.013,0,0l.018-.024q.02-.026.043-.051a.89.89,0,0,1,.2-.174,1.3,1.3,0,0,1,.271-.128.048.048,0,0,0-.016-.092" transform="translate(-91.917 -5.633)" fill="#ffcb42"/>
        <path id="Path_52059" data-name="Path 52059" d="M74.672.087a1.036,1.036,0,0,0-.925.055,1.837,1.837,0,0,0-.62.454,2.923,2.923,0,0,0-.5.838,4.816,4.816,0,0,0-.275,1.007,5.023,5.023,0,0,0-.062.581c0,.09-.007.179,0,.269a1.32,1.32,0,0,0,.028.275.062.062,0,0,0,.119,0,1.872,1.872,0,0,0,.021-.236c.006-.079.011-.158.016-.237.012-.172.026-.3.048-.474a4.961,4.961,0,0,1,.226-.975,3.056,3.056,0,0,1,.419-.815,1.752,1.752,0,0,1,.25-.274s.02-.016,0,0l.016-.013.028-.022L73.54.459c.055-.039.111-.075.169-.109a1.66,1.66,0,0,1,.448-.19.961.961,0,0,1,.491-.012.033.033,0,0,0,.024-.061" transform="translate(-68.091 0)" fill="#fc5acb"/>
        <path id="Path_52060" data-name="Path 52060" d="M127.387,5.836c.067,0,.113.011.181.017l.022,0h.012l.054.007.1.018a1.465,1.465,0,0,1,.212.053l.052.018s.015.006,0,0l.015.006.03.012q.056.024.109.053a1.145,1.145,0,0,1,.2.131q.053.043.1.091l.047.049.024.027.009.01.008.01a1.654,1.654,0,0,1,.17.253q.02.037.039.075l.011.022.02.044c.025.057.048.114.069.172a2.77,2.77,0,0,1,.116.453c.012.068.024.166.032.247,0,.047.008.093.014.14,0,.024.006.048.009.072a.514.514,0,0,0,.028.09.063.063,0,0,0,.121,0,.469.469,0,0,0,.021-.079c0-.02,0-.041,0-.061a1.4,1.4,0,0,0-.007-.141c-.008-.081-.018-.162-.03-.242a3.091,3.091,0,0,0-.1-.445,1.9,1.9,0,0,0-.334-.636,1.519,1.519,0,0,0-.9-.539,1.066,1.066,0,0,0-.459.016c-.034.009-.022.057.01.058" transform="translate(-119.96 -5.411)" fill="#ffcb42"/>
        <path id="Path_52061" data-name="Path 52061" d="M44.071,50.092l-10.78-.106,1.1-11.548,8.809.087Z" transform="translate(-31.357 -36.206)" fill="#ffcb42"/>
        <path id="Path_52062" data-name="Path 52062" d="M125.091,6.2a.71.71,0,0,1,.31.159,1.389,1.389,0,0,1,.306.356,2.816,2.816,0,0,1,.381,1.5c0,.06-.007.12-.013.177,0,.036-.006.072-.009.108a.248.248,0,0,0,0,.053c0,.016.007.031.009.047a.063.063,0,0,0,.118.028.4.4,0,0,0,.04-.081c.008-.03.015-.062.02-.093a1.733,1.733,0,0,0,.017-.191,2.633,2.633,0,0,0,0-.348,2.692,2.692,0,0,0-.138-.674,2.737,2.737,0,0,0-.269-.563,1.617,1.617,0,0,0-.338-.4.556.556,0,0,0-.423-.145c-.03,0-.042.052-.006.058" transform="translate(-117.806 -5.786)" fill="#fc5acb"/>
        <path id="Path_52063" data-name="Path 52063" d="M9.856,44.075,0,42.79,2.476,30.819l8.054,1.049Z" transform="translate(0 -29.029)" fill="#fc5acb"/>
        <path id="Path_52064" data-name="Path 52064" d="M170.388,48.889l.773,1.036L170.8,59.995l-1.082,1.1Z" transform="translate(-159.858 -46.05)" fill="#c41b68"/>
        <path id="Path_52065" data-name="Path 52065" d="M51.255,49.954a.4.4,0,0,0-.1-.176l-.081-.062a.4.4,0,0,0-.2-.054.409.409,0,0,0-.4.4l.014.106a.4.4,0,0,0,.1.176l.081.062a.4.4,0,0,0,.2.054.409.409,0,0,0,.4-.4l-.014-.106" transform="translate(-47.541 -46.778)" fill="#fffeff"/>
        <path id="Path_52066" data-name="Path 52066" d="M137.232,69.523a.4.4,0,0,0-.1-.176l-.081-.062a.4.4,0,0,0-.2-.054.409.409,0,0,0-.4.4l.014.106a.4.4,0,0,0,.1.176l.081.062a.4.4,0,0,0,.2.054.409.409,0,0,0,.4-.4l-.014-.106" transform="translate(-128.525 -65.21)" fill="#fffeff"/>
        <path id="Path_52067" data-name="Path 52067" d="M112.127,132.205a.4.4,0,0,0-.1-.176l-.081-.062a.4.4,0,0,0-.2-.054.409.409,0,0,0-.4.4l.014.106a.4.4,0,0,0,.1.176l.081.062a.4.4,0,0,0,.2.054.409.409,0,0,0,.4-.4l-.014-.106" transform="translate(-104.878 -124.252)" fill="#fffeff"/>
        <path id="Path_52068" data-name="Path 52068" d="M84.581,86.126a.4.4,0,0,0-.1-.176l-.081-.062a.4.4,0,0,0-.2-.054.409.409,0,0,0-.4.4l.014.106a.4.4,0,0,0,.1.176l.081.062a.4.4,0,0,0,.2.054.409.409,0,0,0,.4-.4l-.014-.106" transform="translate(-78.932 -80.849)" fill="#fffeff"/>
        <path id="Path_52069" data-name="Path 52069" d="M54.975,209.914a.4.4,0,0,0-.1-.176l-.081-.062a.4.4,0,0,0-.2-.054.409.409,0,0,0-.4.4l.014.106a.4.4,0,0,0,.1.176l.081.062a.4.4,0,0,0,.2.054.409.409,0,0,0,.4-.4l-.014-.106" transform="translate(-51.045 -197.447)" fill="#fffeff"/>
        <path id="Path_52070" data-name="Path 52070" d="M77.718,157.215a.4.4,0,0,0-.1-.176l-.081-.062a.4.4,0,0,0-.2-.054.409.409,0,0,0-.4.4l.014.106a.4.4,0,0,0,.1.176l.081.062a.4.4,0,0,0,.2.054.409.409,0,0,0,.4-.4l-.014-.106" transform="translate(-72.467 -147.81)" fill="#fffeff"/>
        <path id="Path_52071" data-name="Path 52071" d="M30.275,173.43a.4.4,0,0,0-.1-.176l-.081-.062a.4.4,0,0,0-.2-.054.409.409,0,0,0-.4.4l.014.106a.4.4,0,0,0,.1.176l.081.062a.4.4,0,0,0,.2.054.409.409,0,0,0,.4-.4l-.014-.106" transform="translate(-27.779 -163.083)" fill="#fffeff"/>
        <path id="Path_52072" data-name="Path 52072" d="M51.255,113.645a.4.4,0,0,0-.1-.176l-.081-.062a.4.4,0,0,0-.2-.054.409.409,0,0,0-.4.4l.014.106a.4.4,0,0,0,.1.176l.081.062a.4.4,0,0,0,.2.054.409.409,0,0,0,.4-.4l-.014-.106" transform="translate(-47.541 -106.77)" fill="#fffeff"/>
        <path id="Path_52073" data-name="Path 52073" d="M150.956,109.765a.4.4,0,0,0-.1-.176l-.081-.062a.4.4,0,0,0-.2-.054.409.409,0,0,0-.4.4l.014.106a.4.4,0,0,0,.1.176l.081.062a.4.4,0,0,0,.2.054.409.409,0,0,0,.4-.4l-.014-.106" transform="translate(-141.452 -103.115)" fill="#fffeff"/>
        <path id="Path_52074" data-name="Path 52074" d="M149.1,167.415a.4.4,0,0,0-.1-.176l-.081-.062a.4.4,0,0,0-.2-.054.409.409,0,0,0-.4.4l.014.106a.4.4,0,0,0,.1.176l.081.062a.4.4,0,0,0,.2.054.409.409,0,0,0,.4-.4l-.014-.106" transform="translate(-139.705 -157.416)" fill="#fffeff"/>
        <path id="Path_52075" data-name="Path 52075" d="M112.127,189.211a.4.4,0,0,0-.1-.176l-.081-.062a.4.4,0,0,0-.2-.054.409.409,0,0,0-.4.4l.014.106a.4.4,0,0,0,.1.176l.081.062a.4.4,0,0,0,.2.054.409.409,0,0,0,.4-.4l-.014-.106" transform="translate(-104.878 -177.947)" fill="#fffeff"/>
        <path id="Path_52076" data-name="Path 52076" d="M132.6,230.1a.4.4,0,0,0-.1-.176l-.081-.062a.4.4,0,0,0-.2-.054.409.409,0,0,0-.4.4l.014.106a.4.4,0,0,0,.1.176l.081.062a.4.4,0,0,0,.2.054.409.409,0,0,0,.4-.4l-.014-.106" transform="translate(-124.161 -216.465)" fill="#fffeff"/>
      </g>
    </g>
    <rect id="Rectangle_21817" data-name="Rectangle 21817" width="18" height="18" transform="translate(-22983 -13898)" fill="none"/>
  </g>
</svg>
