<?xml version="1.0" encoding="utf-8"?>
<!-- Generator: Adobe Illustrator 26.3.1, SVG Export Plug-In . SVG Version: 6.00 Build 0)  -->
<svg version="1.1" id="Layer_1" xmlns="http://www.w3.org/2000/svg" xmlns:xlink="http://www.w3.org/1999/xlink" x="0px" y="0px" viewBox="0 0 100 100" style="enable-background:new 0 0 100 100;" xml:space="preserve">
<style type="text/css">
.st0 {fill:#fff;transform-origin:center;}
.loading {transform-origin:center;animation:loading both linear infinite 4.5s;}

@keyframes loading {
0% {transform:rotate(0deg);opacity:1;}
100% {transform:rotate(360deg);opacity:1;}
}
</style>

<g class="loading">
	<path id="Path_40603" class="st0 gradient-hair" d="M51.8,10l-1.3,9l2,0.3l0.5-3.6l4,0.6l-0.5,3.6l2,0.3l1.3-9l-2-0.3l-0.5,3.5l-4-0.6l0.5-3.5L51.8,10z"/>
	<path id="Path_40604" class="st0" d="M61.7,16.8c1.3-2.6,4.5-3.6,7-2.2c0.1,0,0.2,0.1,0.3,0.2c2.6,1.3,3.7,4.4,2.4,7c0,0.1-0.1,0.2-0.1,0.3c-1.3,2.6-4.5,3.6-7.1,2.2c-0.1,0-0.2-0.1-0.3-0.2c-2.6-1.3-3.7-4.4-2.4-7C61.6,17,61.6,16.9,61.7,16.8M69.3,20.9c0.9-1.5,0.3-3.5-1.2-4.4c-1.5-0.9-3.5-0.3-4.4,1.2c0,0,0,0.1-0.1,0.1c-0.9,1.5-0.3,3.5,1.2,4.4c1.5,0.9,3.5,0.3,4.4-1.2C69.2,21,69.3,21,69.3,20.9"/>
	<path id="Path_40605" class="st0" d="M80.4,27l-2.3-2.4l-5.9,5.6l-1.6-1.6l5.9-5.6l-2.3-2.4l1.4-1.4l6.1,6.4L80.4,27z"/>
	<path id="Path_40606" class="st0" d="M85.7,36.8l-1.5-2.9L77,37.6l-1-2l7.2-3.7L81.7,29l1.8-0.9l4,7.9L85.7,36.8z"/>
	<path id="Path_40607" class="st0" d="M79.5,46.8l2.8-2.5L82,42.5l-3.1,0.6l-0.4-2.2l10-1.8l0.7,4c0.4,2.5-0.6,4.2-2.7,4.6c-1.3,0.3-2.6-0.2-3.3-1.3L80,49.3L79.5,46.8z M84,42.2l0.3,1.7c0.2,1.2,0.8,1.8,1.8,1.6s1.3-1,1.1-2.1l-0.3-1.7L84,42.2z"/>
	<path id="Path_40608" class="st0" d="M81,56.2l0.5-3.9l-1.8-1L80,49l9.5,5.3l-0.3,2.3l-10.6,2.5l0.3-2.5L81,56.2z M83.1,55.8l3.7-0.8l-3.4-1.7L83.1,55.8z"/>
	<path id="Path_40609" class="st0" d="M83.5,60.7c2.6,1.2,3.7,4.3,2.5,6.9c0,0.1-0.1,0.2-0.1,0.3c-0.9,2.2-3.3,3.4-5.7,2.8l1-2c1.2,0.1,2.3-0.5,2.8-1.7c0.8-1.6,0.1-3.5-1.5-4.3c-1.6-0.7-3.5-0.1-4.3,1.4c-0.6,1.1-0.4,2.5,0.4,3.4l-1,2c-1.9-1.5-2.4-4.2-1.2-6.4c1.2-2.6,4.2-3.8,6.9-2.6C83.3,60.6,83.4,60.6,83.5,60.7"/>
	<path id="Path_40610" class="st0" d="M74,73.6l-0.1-2.1l-1.6-1.6l1.6-1.6l7.1,7.2l-1.6,1.6l-3.3-3.4l0.5,6.2l-2,1.9l-0.4-6l-6.9-1l2-2L74,73.6z"/>
	<path id="Path_40611" class="st0" d="M63.6,84.4l2.1-1.1c0.5,0.7,1.6,0.9,2.3,0.4c0.9-0.5,1.2-1.1,1-1.7c-0.4-0.7-1.2-0.5-3.1,0c-2.3,0.7-3.5,0-4.2-1.3c-0.9-1.7,0.1-3.6,2.1-4.7c2.2-1.2,4.4-0.9,5.6,1l-2,1.1c-0.7-0.8-1.9-1-2.8-0.3c-0.8,0.4-1.2,1.2-0.9,1.7c0.4,0.7,1.1,0.7,2.9,0.1c2.1-0.7,3.6-0.4,4.5,1.2s-0.2,3.4-2.2,4.5C66.8,86.4,64.7,86,63.6,84.4"/>
	<path id="Path_40612" class="st0" d="M40.1,88.8l1.4-10l2.2,0.3l-0.6,4.1l4.4,0.6l0.6-4.1l2.2,0.3l-1.4,10l-2.2-0.3l0.5-4l-4.4-0.6l-0.5,4L40.1,88.8z"/>
	<path id="Path_40613" class="st0" d="M38.6,83.3c-1.3,2.6-4.5,3.6-7,2.3c-0.1,0-0.2-0.1-0.3-0.1c-2.6-1.3-3.7-4.5-2.4-7.1s4.5-3.7,7.1-2.4c0.1,0,0.2,0.1,0.3,0.1c2.6,1.2,3.7,4.4,2.5,7C38.7,83.1,38.6,83.2,38.6,83.3 M30.9,79.2c-0.8,1.6-0.1,3.5,1.4,4.3c1.6,0.8,3.5,0.1,4.3-1.4c0.8-1.6,0.2-3.4-1.4-4.3c-1.5-0.8-3.4-0.3-4.3,1.2C31,79.1,31,79.2,30.9,79.2"/>
	<path id="Path_40614" class="st0" d="M19.7,73.2l2.3,2.4l5.8-5.7l1.6,1.6l-5.8,5.7l2.3,2.4L24.4,81l-6.2-6.3L19.7,73.2z"/>
	<path id="Path_40615" class="st0" d="M14.4,63.5l1.5,2.9l7.2-3.7l1,2l-7.2,3.7l1.5,2.9l-1.8,0.9l-4.1-7.8L14.4,63.5z"/>
	<path id="Path_40616" class="st0" d="M20.4,53.4l-2.8,2.5l0.3,1.8l3.1-0.6l0.4,2.2l-9.9,1.8l-0.7-4c-0.5-2.5,0.6-4.2,2.7-4.6c1.3-0.3,2.6,0.2,3.3,1.3l3.1-3L20.4,53.4z M16,58l-0.3-1.7c-0.2-1.2-0.8-1.8-1.8-1.6s-1.3,1-1.1,2.1l0.3,1.7L16,58z"/>
	<path id="Path_40617" class="st0" d="M18.9,44l-0.5,3.9l1.9,1L20,51.2L10.4,46l0.3-2.3l10.5-2.6l-0.3,2.5L18.9,44z M16.8,44.5l-3.7,0.8l3.4,1.7L16.8,44.5z"/>
	<path id="Path_40618" class="st0" d="M16.4,39.5c-2.6-1.2-3.8-4.3-2.6-6.9c0-0.1,0.1-0.2,0.1-0.3c0.9-2.2,3.3-3.5,5.6-2.9l-1,2.1c-1.2-0.1-2.3,0.6-2.7,1.7c-0.8,1.5-0.2,3.4,1.3,4.2c0.1,0,0.1,0.1,0.2,0.1c1.5,0.8,3.4,0.2,4.2-1.3l0,0c0-0.1,0.1-0.1,0.1-0.2c0.6-1.1,0.4-2.5-0.5-3.4l1-2.1c1.9,1.5,2.5,4.2,1.3,6.4c-1.1,2.6-4.2,3.8-6.8,2.7C16.6,39.6,16.5,39.6,16.4,39.5"/>
	<path id="Path_40619" class="st0" d="M25.8,26.6l0.1,2.1l1.6,1.6l-1.6,1.6l-7.2-7.1l1.6-1.6l3.4,3.4l-0.5-6.2l2-2l0.4,6l6.9,1l-2,2L25.8,26.6z"/>
	<path id="Path_40620" class="st0" d="M36,15.7l-2,1.1c-0.6-0.7-1.6-0.8-2.3-0.3c-1,0.5-1.3,1.2-1,1.7c0.4,0.7,1.2,0.5,3.1-0.1c2.3-0.7,3.5-0.1,4.3,1.3C39,21.1,38,23,36,24.1c-2.2,1.2-4.4,0.9-5.6-1l2-1.1c0.7,0.8,1.9,1,2.8,0.3c0.8-0.4,1.2-1.2,0.9-1.7c-0.4-0.7-1.1-0.7-2.9-0.1c-2.1,0.7-3.6,0.5-4.5-1.2c-0.9-1.6,0.2-3.4,2.2-4.5S35,14.1,36,15.7"/>
</g>
</svg>
