<svg xmlns="http://www.w3.org/2000/svg" width="28" height="28" viewBox="0 0 28 28">
  <g id="icon" transform="translate(-975.894 -679.429)">
    <g id="그룹_112426" data-name="그룹 112426">
      <g id="그룹_639" data-name="그룹 639">
        <path id="패스_14061" data-name="패스 14061" d="M13.915,21.192a.748.748,0,0,1-.486-.179l-2.985-2.537a.75.75,0,0,1,.971-1.143l2.469,2.1,4.6-4.415A.75.75,0,1,1,19.52,16.1l-5.085,4.884A.748.748,0,0,1,13.915,21.192Z" transform="translate(974.894 677.429)"/>
        <g id="사각형_3711" data-name="사각형 3711" transform="translate(977.894 682.429)" fill="none" stroke="#000" stroke-width="1">
          <rect width="24" height="23" rx="3" stroke="none"/>
          <rect x="0.5" y="0.5" width="23" height="22" rx="2.5" fill="none"/>
        </g>
        <g id="사각형_3712" data-name="사각형 3712" transform="translate(977.894 687.429)" fill="#000" stroke="#000" stroke-width="1">
          <rect width="24" height="1" stroke="none"/>
          <rect x="0.5" y="0.5" width="23" fill="none"/>
        </g>
        <g id="사각형_3713" data-name="사각형 3713" transform="translate(981.894 680.429)" fill="#000" stroke="#000" stroke-width="1">
          <rect width="1" height="5" rx="0.5" stroke="none"/>
          <rect x="0.5" y="0.5" height="4" fill="none"/>
        </g>
        <g id="사각형_3714" data-name="사각형 3714" transform="translate(996.894 680.429)" fill="#000" stroke="#000" stroke-width="1">
          <rect width="1" height="5" rx="0.5" stroke="none"/>
          <rect x="0.5" y="0.5" height="4" fill="none"/>
        </g>
      </g>
      <rect id="사각형_3395" data-name="사각형 3395" width="28" height="28" transform="translate(975.894 679.429)" fill="none"/>
    </g>
  </g>
</svg>
