<svg xmlns="http://www.w3.org/2000/svg" xmlns:xlink="http://www.w3.org/1999/xlink" width="36" height="36" viewBox="0 0 36 36">
  <defs>
    <clipPath id="clip-path">
      <ellipse id="Ellipse_715" data-name="Ellipse 715" cx="18" cy="18" rx="18" ry="18" fill="none"/>
    </clipPath>
    <linearGradient id="linear-gradient" y1="1" x2="0.004" y2="1" gradientUnits="objectBoundingBox">
      <stop offset="0" stop-color="#fbc300"/>
      <stop offset="1" stop-color="#ff3657"/>
    </linearGradient>
    <clipPath id="clip-path-2">
      <rect id="Rectangle_20677" data-name="Rectangle 20677" width="36" height="36" fill="none"/>
    </clipPath>
  </defs>
  <g id="Group_112784" data-name="Group 112784" transform="translate(0 0.008)">
    <g id="Group_112781" data-name="Group 112781" transform="translate(0 -0.008)">
      <g id="Group_112780" data-name="Group 112780" clip-path="url(#clip-path)">
        <rect id="Rectangle_20676" data-name="Rectangle 20676" width="36" height="36" transform="translate(0 0)" fill="url(#linear-gradient)"/>
      </g>
    </g>
    <g id="Group_112783" data-name="Group 112783" transform="translate(0 -0.008)">
      <g id="Group_112782" data-name="Group 112782" clip-path="url(#clip-path-2)">
        <path id="Path_38513" data-name="Path 38513" d="M100.44,169.715a13.442,13.442,0,0,1,2.013-.322c.671-.061,1.342-.089,2.013-.091s1.342.024,2.013.085a12.587,12.587,0,0,1,2.013.328.389.389,0,0,1,0,.753,12.613,12.613,0,0,1-2.013.328c-.671.061-1.342.088-2.013.085s-1.342-.031-2.013-.091a13.44,13.44,0,0,1-2.013-.322.388.388,0,0,1,0-.753" transform="translate(-86.676 -146.517)"/>
        <path id="Path_38514" data-name="Path 38514" d="M79.66,133.016a1.2,1.2,0,1,1,1.2,1.2,1.2,1.2,0,0,1-1.2-1.2" transform="translate(-68.945 -114.07)"/>
        <path id="Path_38515" data-name="Path 38515" d="M61.419,118.961a16.808,16.808,0,0,1-7.906-1.831.677.677,0,0,1,.68-1.171,15.944,15.944,0,0,0,7.767,1.64A.677.677,0,0,1,62,118.952c-.2.006-.391.009-.583.009" transform="translate(-46.023 -100.27)"/>
        <path id="Path_38516" data-name="Path 38516" d="M169.349,133.016a1.2,1.2,0,1,0-1.2,1.2,1.2,1.2,0,0,0,1.2-1.2" transform="translate(-144.486 -114.07)"/>
        <path id="Path_38517" data-name="Path 38517" d="M142.07,118.963c-.192,0-.386,0-.583-.009a.677.677,0,1,1,.042-1.354,15.944,15.944,0,0,0,7.767-1.64.677.677,0,0,1,.68,1.172,16.811,16.811,0,0,1-7.906,1.831" transform="translate(-121.888 -100.272)"/>
      </g>
    </g>
  </g>
</svg>
