<svg xmlns="http://www.w3.org/2000/svg" width="18" height="20" viewBox="0 0 18 20">
  <g id="icon_bell_20" transform="translate(-213 -17.564)">
    <path id="빼기_2" data-name="빼기 2" d="M-2832,280.565a3.979,3.979,0,0,1-3.885-3h1.04a3,3,0,0,0,2.844,2.016,3,3,0,0,0,2.845-2.016h1.041A3.981,3.981,0,0,1-2832,280.565Z" transform="translate(3054 -243)" fill="#da2128"/>
    <path id="합치기_83_-_윤곽선" data-name="합치기 83 - 윤곽선" d="M-1954.5,1296a1.5,1.5,0,0,0,1.5-1.5,1.489,1.489,0,0,0-.6-1.2l-.4-.3v-5a7.008,7.008,0,0,0-7-7,7.008,7.008,0,0,0-7,7v5l-.4.3a1.488,1.488,0,0,0-.6,1.2,1.5,1.5,0,0,0,1.5,1.5h13m0,1h-13a2.5,2.5,0,0,1-2.5-2.5,2.5,2.5,0,0,1,1-2V1288a8,8,0,0,1,8-8,8,8,0,0,1,8,8v4.5a2.5,2.5,0,0,1,1,2A2.5,2.5,0,0,1-1954.5,1297Z" transform="translate(2183 -1262.436)" fill="#da2128"/>
  </g>
</svg>
