<svg xmlns="http://www.w3.org/2000/svg" width="32" height="32" viewBox="0 0 32 32">
  <g id="icon_gift" transform="translate(-562 -1081)">
    <g id="Group_109462" data-name="Group 109462" transform="translate(564.249 1083.795)">
      <g id="Group_109463" data-name="Group 109463" transform="translate(0.751 0.751)">
        <path id="Path_36303" data-name="Path 36303" d="M11.887,7.859H4.906a1.36,1.36,0,0,1-1.315-1.7l1.222-4.64A1.36,1.36,0,0,1,6.761.657L12.52,3.691a1.358,1.358,0,0,1,.726,1.2V6.5a1.358,1.358,0,0,1-1.359,1.359" transform="translate(0.937 -0.501)" fill="#fff" stroke="#707070" stroke-width="1.2"/>
        <path id="Path_36304" data-name="Path 36304" d="M11.887,7.859H4.906a1.36,1.36,0,0,1-1.315-1.7l1.222-4.64A1.36,1.36,0,0,1,6.761.657L12.52,3.691a1.358,1.358,0,0,1,.726,1.2V6.5A1.358,1.358,0,0,1,11.887,7.859Z" transform="translate(0.937 -0.501)" fill="none" stroke="#000" stroke-miterlimit="10" stroke-width="1.2"/>
        <path id="Path_36305" data-name="Path 36305" d="M9.684,7.859h6.981a1.36,1.36,0,0,0,1.315-1.7l-1.222-4.64A1.36,1.36,0,0,0,14.81.657L9.051,3.691a1.358,1.358,0,0,0-.726,1.2V6.5A1.358,1.358,0,0,0,9.684,7.859" transform="translate(3.194 -0.501)" fill="#fff" stroke="#707070" stroke-width="1.2"/>
        <path id="Path_36306" data-name="Path 36306" d="M9.684,7.859h6.981a1.36,1.36,0,0,0,1.315-1.7l-1.222-4.64A1.36,1.36,0,0,0,14.81.657L9.051,3.691a1.358,1.358,0,0,0-.726,1.2V6.5A1.358,1.358,0,0,0,9.684,7.859Z" transform="translate(3.194 -0.501)" fill="none" stroke="#000" stroke-miterlimit="10" stroke-width="1.2"/>
        <path id="Path_36307" data-name="Path 36307" d="M10.533,7.218H9.219A1.359,1.359,0,0,1,7.86,5.859V3.219a1.361,1.361,0,0,1,1.359-1.36h1.315a1.36,1.36,0,0,1,1.359,1.36v2.64a1.358,1.358,0,0,1-1.359,1.359" transform="translate(2.974 0.141)" fill="#fff" stroke="#707070" stroke-width="1.2"/>
        <path id="Rectangle_19800" data-name="Rectangle 19800" d="M.923,0H3.109a.923.923,0,0,1,.923.923V4.435a.924.924,0,0,1-.924.924H.923A.923.923,0,0,1,0,4.436V.923A.923.923,0,0,1,.923,0Z" transform="translate(10.834 1.999)" fill="none" stroke="#000" stroke-miterlimit="10" stroke-width="1.2"/>
        <path id="Path_36308" data-name="Path 36308" d="M25.764,8.23H1.237A.735.735,0,0,1,.5,7.494V4.255a.735.735,0,0,1,.736-.736H25.764a.736.736,0,0,1,.736.736V7.494a.736.736,0,0,1-.736.736" transform="translate(-0.5 0.925)" fill="#ff89ff"/>
        <path id="Path_36309" data-name="Path 36309" d="M22.823,22.472H3.107a1.741,1.741,0,0,1-1.472-1.92V6.719H24.3V20.553a1.743,1.743,0,0,1-1.472,1.92" transform="translate(0.035 2.435)" fill="#ff89ff"/>
        <rect id="Rectangle_19802" data-name="Rectangle 19802" width="5.738" height="20.465" transform="translate(9.981 4.443)" fill="#fff"/>
        <path id="Path_36310" data-name="Path 36310" d="M22.823,22.472H3.107a1.741,1.741,0,0,1-1.472-1.92V6.719H24.3V20.553A1.743,1.743,0,0,1,22.823,22.472Z" transform="translate(0.035 2.435)" fill="none" stroke="#000" stroke-miterlimit="10" stroke-width="1.2"/>
        <line id="Line_132" data-name="Line 132" y2="20.429" transform="translate(9.981 4.179)" fill="none" stroke="#000" stroke-width="1.2"/>
        <line id="Line_133" data-name="Line 133" y2="20.429" transform="translate(15.72 4.179)" fill="none" stroke="#000" stroke-width="1.2"/>
        <rect id="Rectangle_19801" data-name="Rectangle 19801" width="25.999" height="4.711" rx="0.5" transform="translate(0 4.443)" fill="none" stroke="#000" stroke-miterlimit="10" stroke-width="1.2"/>
      </g>
    </g>
    <rect id="Rectangle_19803" data-name="Rectangle 19803" width="32" height="32" transform="translate(562 1081)" fill="none"/>
  </g>
</svg>
