<svg xmlns="http://www.w3.org/2000/svg" xmlns:xlink="http://www.w3.org/1999/xlink" width="45.847" height="45.777" viewBox="0 0 45.847 45.777">
  <defs>
    <filter id="합치기_182" x="0" y="-0.001" width="45.847" height="45.777" filterUnits="userSpaceOnUse">
      <feOffset dx="3" dy="6" input="SourceAlpha"/>
      <feGaussianBlur stdDeviation="4" result="blur"/>
      <feFlood flood-opacity="0.161"/>
      <feComposite operator="in" in2="blur"/>
      <feComposite in="SourceGraphic"/>
    </filter>
    <linearGradient id="linear-gradient" x1="0.691" y1="0.047" x2="0.5" y2="0.637" gradientUnits="objectBoundingBox">
      <stop offset="0" stop-color="#ff628c"/>
      <stop offset="1" stop-color="#f42664"/>
    </linearGradient>
    <linearGradient id="linear-gradient-2" x1="0.817" y1="0.04" x2="0.239" y2="1" gradientUnits="objectBoundingBox">
      <stop offset="0" stop-color="#ffc508"/>
      <stop offset="1" stop-color="#feaf11"/>
    </linearGradient>
    <linearGradient id="linear-gradient-3" x1="0.5" y1="0.114" x2="0.5" y2="1" gradientUnits="objectBoundingBox">
      <stop offset="0" stop-color="#ffdeac"/>
      <stop offset="1" stop-color="#ffc561"/>
    </linearGradient>
    <linearGradient id="linear-gradient-4" x1="0.5" y1="0.436" x2="0.5" y2="1" gradientUnits="objectBoundingBox">
      <stop offset="0" stop-color="#1e1e1e"/>
      <stop offset="1" stop-color="#5a5858"/>
    </linearGradient>
    <linearGradient id="linear-gradient-5" x1="0.931" y1="0.051" x2="0.053" y2="0.956" gradientUnits="objectBoundingBox">
      <stop offset="0" stop-color="#ffb300"/>
      <stop offset="1" stop-color="#fea711"/>
    </linearGradient>
  </defs>
  <g id="그룹_112351" data-name="그룹 112351" transform="translate(7470.064 16396.11)">
    <g id="그룹_112351-2" data-name="그룹 112351" transform="translate(-7460.665 -16389.662)">
      <g transform="matrix(1, 0, 0, 1, -9.4, -6.45)" filter="url(#합치기_182)">
        <path id="합치기_182-2" data-name="합치기 182" d="M0,19.369l.016-1.185A12.356,12.356,0,0,1,1.4,19.377a12.363,12.363,0,0,1,1.191,1.384L1.4,20.777H1.386A1.384,1.384,0,0,1,0,19.369Zm1.4.008A12.352,12.352,0,0,0,.016,18.184l.015-1.126a.724.724,0,0,1,.212-.5l1.008-1.01.008.006.137-.138,12.2-12.223-.008-.008L16.348.413a1.4,1.4,0,0,1,1.986,0L20.32,2.4a1.409,1.409,0,0,1,0,1.99L17.558,7.161l-.006-.006L5.355,19.378l-.137.137.005.007-1.008,1.01a.721.721,0,0,1-.5.213l-1.123.015A12.431,12.431,0,0,0,1.4,19.377Z" transform="translate(9.5 6.5)" fill="#fff" stroke="rgba(0,0,0,0)" stroke-miterlimit="10" stroke-width="1"/>
      </g>
      <g id="그룹_112343" data-name="그룹 112343">
        <path id="패스_37331" data-name="패스 37331" d="M25.11,4.414a1.416,1.416,0,0,0,0-2l-2-2a1.409,1.409,0,0,0-2,0L18.342,3.2l3.992,4Z" transform="translate(-4.69 0)" fill="url(#linear-gradient)"/>
        <path id="패스_37333" data-name="패스 37333" d="M15.794-3.851,2.415,9.558,2.269,9.7A18.819,18.819,0,0,1,4.4,11.551,18.742,18.742,0,0,1,6.247,13.69l.145-.146L19.772.135Z" transform="translate(-1.012 5.929)" fill="url(#linear-gradient-2)"/>
        <path id="패스_37334" data-name="패스 37334" d="M2.613,27.865l1.129-.015a.724.724,0,0,0,.505-.214l1.013-1.016a18.789,18.789,0,0,0-1.849-2.146A18.773,18.773,0,0,0,1.27,22.621L.256,23.637a.727.727,0,0,0-.213.506L.028,25.275a12.445,12.445,0,0,1,1.388,1.2,12.456,12.456,0,0,1,1.2,1.391" transform="translate(-0.012 -7.002)" fill="url(#linear-gradient-3)"/>
        <path id="패스_37335" data-name="패스 37335" d="M1.411,30.006,2.6,29.99A12.4,12.4,0,0,0,1.4,28.6,12.4,12.4,0,0,0,.015,27.4L0,28.592a1.391,1.391,0,0,0,1.411,1.414" transform="translate(0 -9.127)" fill="url(#linear-gradient-4)"/>
        <path id="패스_37407" data-name="패스 37407" d="M-.462,10.87a.536.536,0,0,1-.381-.158.54.54,0,0,1,0-.763L9.925-.842a.538.538,0,0,1,.761,0,.54.54,0,0,1,0,.763L-.081,10.712A.536.536,0,0,1-.462,10.87Z" transform="translate(5.206 5.884)" fill="url(#linear-gradient-5)"/>
      </g>
    </g>
    <rect id="사각형_20628" data-name="사각형 20628" width="24" height="24" transform="translate(-7462 -16391.445)" fill="none"/>
  </g>
</svg>
