<svg xmlns="http://www.w3.org/2000/svg" width="14.009" height="13.5" viewBox="0 0 14.009 13.5">
  <g id="ico_clover_no" transform="translate(0.504)">
    <rect id="사각형_3318" data-name="사각형 3318" width="13" height="13" fill="#fff" opacity="0"/>
    <path id="ico_clover" d="M-83.095,2368.442a1.45,1.45,0,0,1-.712-.186l-.824-.462a1.379,1.379,0,0,1-.707-1.337,1.462,1.462,0,0,1-.289.029,1.439,1.439,0,0,1-1.237-.693l-.476-.8a1.368,1.368,0,0,1,.522-1.894l1.169-.656-1.169-.656a1.383,1.383,0,0,1-.665-.841,1.342,1.342,0,0,1,.142-1.052l.476-.8a1.438,1.438,0,0,1,1.237-.693,1.436,1.436,0,0,1,.29.03,1.38,1.38,0,0,1,.707-1.337l.824-.463a1.459,1.459,0,0,1,.712-.186,1.441,1.441,0,0,1,1.237.694l.825,1.391.826-1.39a1.44,1.44,0,0,1,1.237-.694,1.46,1.46,0,0,1,.712.186l.824.462a1.381,1.381,0,0,1,.707,1.337,1.444,1.444,0,0,1,.29-.03,1.44,1.44,0,0,1,1.237.693l.476.8a1.343,1.343,0,0,1,.142,1.052,1.383,1.383,0,0,1-.664.842l-1.17.656,1.17.656a1.368,1.368,0,0,1,.522,1.894l-.475.8a1.44,1.44,0,0,1-1.237.693,1.453,1.453,0,0,1-.29-.029,1.381,1.381,0,0,1-.707,1.338l-.824.462a1.459,1.459,0,0,1-.712.186,1.442,1.442,0,0,1-1.237-.693l-.826-1.389-.825,1.389A1.441,1.441,0,0,1-83.095,2368.442Zm.778-6.408a.47.47,0,0,0-.476.462.47.47,0,0,0,.476.462h.951v.925a.469.469,0,0,0,.475.462.469.469,0,0,0,.476-.462v-.925h.951a.47.47,0,0,0,.476-.462.47.47,0,0,0-.476-.462h-.951v-.924a.469.469,0,0,0-.476-.461.469.469,0,0,0-.475.461v.924Z" transform="translate(87.532 -2355.441)" fill="#f7cec3" stroke="rgba(0,0,0,0)" stroke-width="1"/>
  </g>
</svg>
