<svg xmlns="http://www.w3.org/2000/svg" width="28" height="28" viewBox="0 0 28 28">
  <g id="icon" transform="translate(-975.894 -679.429)">
    <rect id="사각형_3387" data-name="사각형 3387" width="28" height="28" transform="translate(975.894 679.429)" fill="#fff" opacity="0"/>
    <g id="그룹_1908" data-name="그룹 1908" transform="translate(10073.895 18244.43)">
      <g id="사각형_3472" data-name="사각형 3472" transform="translate(-9097 -17564)" fill="#fff" stroke="#707070" stroke-width="1" opacity="0">
        <rect width="24.981" height="24.981" stroke="none"/>
        <rect x="0.5" y="0.5" width="23.981" height="23.981" fill="none"/>
      </g>
      <g id="그룹_1841" data-name="그룹 1841" transform="translate(-9097 -17563)">
        <g id="그룹_1842" data-name="그룹 1842" transform="translate(0 0)">
          <g id="패스_36304" data-name="패스 36304" transform="translate(-1 -0.999)" fill="rgba(0,0,0,0)" stroke-linecap="round" stroke-linejoin="round">
            <path d="M 13.58025169372559 25.66158294677734 C 10.35357189178467 25.66158294677734 7.319961547851562 24.40484237670898 5.038241386413574 22.12286186218262 C 2.756571531295776 19.84093284606934 1.500001430511475 16.8071231842041 1.500001430511475 13.58029270172119 C 1.500001430511475 10.3534631729126 2.756571531295776 7.319652557373047 5.038241386413574 5.037722587585449 C 7.319961547851562 2.755742788314819 10.35357189178467 1.499002695083618 13.58025169372559 1.499002695083618 C 16.80738067626953 1.499002695083618 19.84132194519043 2.755752801895142 22.12318229675293 5.037732601165771 C 24.40492057800293 7.319612503051758 25.66154098510742 10.35342311859131 25.66154098510742 13.58029270172119 C 25.66154098510742 16.80716323852539 24.40492057800293 19.84097290039062 22.12318229675293 22.12285232543945 C 19.84132194519043 24.40483283996582 16.80738067626953 25.66158294677734 13.58025169372559 25.66158294677734 Z" stroke="none"/>
            <path d="M 13.58025169372559 25.16158294677734 C 16.67382049560547 25.16158294677734 19.58220100402832 23.95685195922852 21.76961135864258 21.76930236816406 C 23.95693206787109 19.58186340332031 25.16154098510742 16.67361259460449 25.16154098510742 13.58029270172119 C 25.16154098510742 10.48697280883789 23.95693206787109 7.578722476959229 21.76961135864258 5.391282558441162 C 19.58220100402832 3.20373272895813 16.67382049560547 1.999002695083618 13.58025169372559 1.999002695083618 C 10.48714160919189 1.999002695083618 7.5791015625 3.20373272895813 5.391821384429932 5.391262531280518 C 3.204571485519409 7.578752517700195 2.000001430511475 10.48701286315918 2.000001430511475 13.58029270172119 C 2.000001430511475 16.6735725402832 3.204571485519409 19.58183288574219 5.391821384429932 21.76932334899902 C 7.5791015625 23.95685195922852 10.48714160919189 25.16158294677734 13.58025169372559 25.16158294677734 M 13.58025169372559 26.16158294677734 C 6.632371425628662 26.16158294677734 1.000001430511475 20.52817344665527 1.000001430511475 13.58029270172119 C 1.000001430511475 6.632412910461426 6.632371425628662 0.9990026950836182 13.58025169372559 0.9990026950836182 C 20.52917098999023 0.9990026950836182 26.16154098510742 6.632412910461426 26.16154098510742 13.58029270172119 C 26.16154098510742 20.52817344665527 20.52917098999023 26.16158294677734 13.58025169372559 26.16158294677734 Z" stroke="none" fill="#000"/>
          </g>
          <path id="패스_36306" data-name="패스 36306" d="M15.065,12.98a2.085,2.085,0,1,1-2.086-2.086A2.086,2.086,0,0,1,15.065,12.98Z" transform="translate(-0.399 -0.398)" fill="rgba(0,0,0,0)" stroke="#000" stroke-linecap="round" stroke-linejoin="round" stroke-width="1.3"/>
          <path id="패스_36308" data-name="패스 36308" d="M13.06,4.437a7.424,7.424,0,0,1,7.424,7.423" transform="translate(-0.338 0.583)" fill="rgba(0,0,0,0)" stroke="#000" stroke-linecap="round" stroke-linejoin="round" stroke-width="1.3"/>
          <path id="패스_36310" data-name="패스 36310" d="M11.861,20.482a7.424,7.424,0,0,1-7.424-7.423" transform="translate(0.861 -0.616)" fill="rgba(0,0,0,0)" stroke="#000" stroke-linecap="round" stroke-linejoin="round" stroke-width="1.3"/>
        </g>
      </g>
    </g>
  </g>
</svg>
