<svg id="icon_heart_h18_1px" xmlns="http://www.w3.org/2000/svg" width="18" height="18" viewBox="0 0 18 18">
  <path id="heart" d="M5.143,0A5.4,5.4,0,0,1,8.966,1.637a.049.049,0,0,0,.068,0A5.4,5.4,0,0,1,12.857,0a4.841,4.841,0,0,1,.511.026C18.514.552,19.047,6.7,16.56,8.974L10.244,14.53a1.882,1.882,0,0,1-2.488,0L1.44,8.974C-1.047,6.7-.514.552,4.632.026A4.841,4.841,0,0,1,5.143,0Z" transform="translate(0 2)" fill="#ec1f2d"/>
  <rect id="사각형_992" data-name="사각형 992" width="18" height="18" transform="translate(0)" fill="#da2128" opacity="0"/>
</svg>
