<svg xmlns="http://www.w3.org/2000/svg" width="63.154" height="72.211" viewBox="0 0 63.154 72.211">
  <style>
    #group1-1{animation:ani1 linear both infinite 3s; position:relative;transform-origin:70% 30%;}
    #group2-2{animation:ani2 linear both infinite 3s;position:relative;transform-origin:20% 60%;}

  @keyframes ani1 {
    0% {transform:translate(0,5px) scale(0.3);opacity:0;}	
    10% {transform:translate(0,0)scale(1);opacity:1;}
    95% {transform:translate(0,0);opacity:1;}
    100% {transform:translate(0,0);opacity:0;}
  }
    @keyframes ani2 {
    0% {transform:translate(0,5px) scale(0.3);opacity:0;}
    10% {transform:translate(0,5px) scale(0.3);opacity:0;}
    20% {transform:translate(0,0) scale(1);opacity:1;}
    95% {transform:translate(0,0);opacity:1;}
    100% {transform:translate(0,0);opacity:0;}
  }
  </style>

  <g id="group1" data-name="그룹 115610" transform="translate(4.853 -18.177)">
  <g id="group1-1">
    <path id="p40495" data-name="패스 40495" d="M93.695,113.9c2.229-.82,6.526-2.968,6.526-2.968s-4.665,1.15-6.894,1.969-2.581,1.2-2.48,1.479.619.339,2.847-.481" transform="translate(-60.23 -76.994)" fill="#ffcf4e"/>
    <path id="패스_40496" data-name="패스 40496" d="M94.538,106.608c2.375-.008,7.147-.556,7.147-.556s-4.776-.515-7.151-.507-2.835.248-2.835.542.465.53,2.839.522" transform="translate(-62.013 -73.58)" fill="#ffcf4e"/>
    <path id="패스_40497" data-name="패스 40497" d="M93.645,94.775c2.235.8,6.907,1.922,6.907,1.922S96.24,94.579,94,93.774s-2.75-.737-2.85-.46.256.658,2.49,1.462" transform="translate(-60.674 -65.713)" fill="#ffcf4e"/>
    <path id="패스_40498" data-name="패스 40498" d="M82.66,71.013c.421,2.337,1.79,6.941,1.79,6.941s-.322-4.793-.743-7.129-.737-2.751-1.026-2.7-.442.55-.022,2.887" transform="translate(-41.369 -49.875)" fill="#ffcf4e"/>
    <path id="패스_40499" data-name="패스 40499" d="M73.583,70.642c-.4,2.34-.692,7.135-.692,7.135s1.337-4.614,1.741-6.954.248-2.837-.043-2.887-.6.366-1.007,2.706" transform="translate(-28.309 -49.755)" fill="#ffcf4e"/>
    <path id="패스_40500" data-name="패스 40500" d="M63.6,74.544c-1.181,2.06-3.091,6.467-3.091,6.467s2.835-3.878,4.015-5.939,1.2-2.581.948-2.727-.691.137-1.871,2.2" transform="translate(-14.5 -52.531)" fill="#ffcf4e"/>
    <path id="패스_40501" data-name="패스 40501" d="M55.32,82.244c-1.814,1.533-5.117,5.021-5.117,5.021s3.99-2.675,5.8-4.208,2.012-2.013,1.824-2.237-.7-.107-2.511,1.425" transform="translate(-3.006 -57.862)" fill="#ffcf4e"/>
    <path id="패스_40502" data-name="패스 40502" d="M49.9,92.774c-2.229.82-6.526,2.968-6.526,2.968s4.664-1.149,6.893-1.969,2.58-1.2,2.479-1.479-.619-.339-2.847.481" transform="translate(4.62 -65.069)" fill="#ffcf4e"/>
    <path id="패스_40503" data-name="패스 40503" d="M48.025,104.508c-2.375.008-7.147.556-7.147.556s4.776.515,7.152.508,2.836-.249,2.835-.542-.465-.531-2.84-.522" transform="translate(7.437 -72.923)" fill="#ffcf4e"/>
    <path id="패스_40504" data-name="패스 40504" d="M49.911,112.007c-2.235-.8-6.907-1.922-6.907-1.922s4.311,2.118,6.546,2.923,2.751.737,2.85.46-.255-.657-2.49-1.461" transform="translate(5.106 -76.457)" fill="#ffcf4e"/>
    <path id="패스_40505" data-name="패스 40505" d="M55.34,117.877c-1.825-1.52-5.833-4.168-5.833-4.168s3.328,3.465,5.152,4.985,2.332,1.633,2.52,1.408-.015-.7-1.839-2.225" transform="translate(-2.097 -78.752)" fill="#ffcf4e"/>
    <path id="패스_40506" data-name="패스 40506" d="M63.625,122.371c-1.193-2.053-4.055-5.911-4.055-5.911s1.942,4.394,3.136,6.447,1.633,2.332,1.887,2.185.227-.668-.968-2.721" transform="translate(-13.273 -80.495)" fill="#ffcf4e"/>
    <path id="패스_40507" data-name="패스 40507" d="M73.62,124.95c-.421-2.337-1.789-6.942-1.789-6.942s.322,4.793.742,7.131.736,2.75,1.026,2.7.442-.55.022-2.887" transform="translate(-26.924 -81.475)" fill="#ffcf4e"/>
    <path id="패스_40508" data-name="패스 40508" d="M82.8,125.3c.4-2.34.694-7.135.694-7.135s-1.337,4.615-1.741,6.955-.249,2.836.041,2.887.6-.365,1.007-2.706" transform="translate(-40.091 -81.574)" fill="#ffcf4e"/>
    <path id="패스_40509" data-name="패스 40509" d="M87.417,123.379c1.181-2.06,3.092-6.468,3.092-6.468s-2.834,3.878-4.014,5.94-1.2,2.58-.949,2.726.693-.137,1.872-2.2" transform="translate(-48.533 -80.781)" fill="#ffcf4e"/>
    <path id="패스_40510" data-name="패스 40510" d="M91.219,119.421c1.814-1.533,5.117-5.02,5.117-5.02s-3.99,2.675-5.8,4.208-2.014,2.013-1.824,2.238.7.107,2.511-1.425" transform="translate(-55.547 -79.191)" fill="#ffcf4e"/>
    <path id="패스_40511" data-name="패스 40511" d="M91.127,83.876c1.825,1.52,5.833,4.168,5.833,4.168s-3.328-3.465-5.152-4.986-2.332-1.633-2.52-1.407.015.706,1.84,2.225" transform="translate(-56.383 -58.389)" fill="#ffcf4e"/>
    <path id="패스_40512" data-name="패스 40512" d="M87.292,75.61c1.195,2.053,4.056,5.912,4.056,5.912s-1.942-4.394-3.136-6.447-1.633-2.332-1.888-2.184-.227.668.968,2.72" transform="translate(-49.657 -52.874)" fill="#ffcf4e"/>\
  </g>
  </g>
  <g id="group2" data-name="그룹 115612" transform="translate(9.556 -8.777)">
  <g id="group2-2">
    <path id="패스_40513" data-name="패스 40513" d="M164.656,190.565c0,2.37.461,6.008.461,6.008s.461-3.638.461-6.008-.207-2.575-.461-2.575-.461.2-.461,2.575" transform="translate(-152.923 -140.082)" fill="#d8ff57"/>
    <path id="패스_40514" data-name="패스 40514" d="M150.578,193.254c-.811,2.227-1.621,5.8-1.621,5.8s1.678-3.261,2.488-5.487.687-2.49.447-2.577-.5.035-1.315,2.262" transform="translate(-135.962 -142.409)" fill="#d8ff57"/>
    <path id="패스_40515" data-name="패스 40515" d="M137.951,201.2c-1.524,1.816-3.508,4.9-3.508,4.9s2.692-2.49,4.215-4.306,1.5-2.105,1.3-2.269-.485-.14-2.009,1.675" transform="translate(-120.75 -149.031)" fill="#d8ff57"/>
    <path id="패스_40516" data-name="패스 40516" d="M128.632,213.442c-2.053,1.185-4.972,3.4-4.972,3.4s3.381-1.419,5.433-2.6,2.127-1.466,2-1.687-.408-.3-2.461.887" transform="translate(-109.455 -159.139)" fill="#d8ff57"/>
    <path id="패스_40517" data-name="패스 40517" d="M123.82,228.342c-2.334.412-5.836,1.5-5.836,1.5s3.663-.177,6-.589,2.5-.651,2.455-.9-.282-.419-2.616-.007" transform="translate(-103.515 -171.361)" fill="#d8ff57"/>
    <path id="패스_40518" data-name="패스 40518" d="M124.056,240.327c-2.334-.412-6-.589-6-.589s3.5,1.086,5.836,1.5,2.571.244,2.616-.007-.121-.49-2.456-.9" transform="translate(-103.609 -180.444)" fill="#d8ff57"/>
    <path id="패스_40519" data-name="패스 40519" d="M129.316,245.8c-2.053-1.185-5.433-2.6-5.433-2.6s2.92,2.219,4.972,3.4,2.333,1.108,2.46.888.054-.5-2-1.687" transform="translate(-109.726 -183.141)" fill="#d8ff57"/>
    <path id="패스_40520" data-name="패스 40520" d="M138.994,250.294c-1.524-1.816-4.215-4.306-4.215-4.306s1.985,3.083,3.508,4.9,1.813,1.84,2.008,1.676.222-.454-1.3-2.269" transform="translate(-121.159 -185.318)" fill="#d8ff57"/>
    <path id="패스_40521" data-name="패스 40521" d="M151.856,253.264c-.81-2.227-2.488-5.487-2.488-5.487s.81,3.576,1.621,5.8,1.075,2.348,1.314,2.262.364-.35-.447-2.578" transform="translate(-136.464 -186.714)" fill="#d8ff57"/>
    <path id="패스_40522" data-name="패스 40522" d="M166.017,254.354c0-2.37-.462-6.008-.462-6.008s-.461,3.637-.461,6.008.207,2.574.461,2.575.462-.2.462-2.575" transform="translate(-153.457 -187.158)" fill="#d8ff57"/>
    <path id="패스_40523" data-name="패스 40523" d="M172.322,253.43c.811-2.227,1.621-5.8,1.621-5.8s-1.678,3.26-2.489,5.487-.686,2.49-.447,2.577.5-.034,1.315-2.262" transform="translate(-162.646 -186.597)" fill="#d8ff57"/>
    <path id="패스_40524" data-name="패스 40524" d="M176.1,250.607c1.524-1.816,3.508-4.9,3.508-4.9s-2.691,2.49-4.215,4.305-1.5,2.105-1.3,2.269.485.14,2.009-1.676" transform="translate(-169.013 -185.1)" fill="#d8ff57"/>
    <path id="패스_40525" data-name="패스 40525" d="M178.827,246.222c2.053-1.185,4.972-3.4,4.972-3.4s-3.381,1.419-5.434,2.6-2.126,1.467-2,1.687.408.3,2.461-.888" transform="translate(-173.711 -182.847)" fill="#d8ff57"/>
    <path id="패스_40526" data-name="패스 40526" d="M180.146,240.805c2.334-.411,5.836-1.5,5.836-1.5s-3.662.177-6,.588-2.5.651-2.455.9.281.419,2.616.007" transform="translate(-176.158 -180.108)" fill="#d8ff57"/>
    <path id="패스_40527" data-name="패스 40527" d="M179.91,228.82c2.334.412,6,.589,6,.589s-3.5-1.086-5.836-1.5-2.571-.243-2.616.008.121.49,2.456.9" transform="translate(-176.066 -171.025)" fill="#d8ff57"/>
    <path id="패스_40528" data-name="패스 40528" d="M178.148,213.862c2.052,1.185,5.433,2.6,5.433,2.6s-2.919-2.218-4.971-3.4-2.333-1.108-2.461-.887-.053.5,2,1.687" transform="translate(-173.446 -158.844)" fill="#d8ff57"/>
    <path id="패스_40529" data-name="패스 40529" d="M175.064,201.516c1.523,1.816,4.215,4.305,4.215,4.305s-1.984-3.083-3.507-4.9-1.814-1.839-2.009-1.675-.222.453,1.3,2.269" transform="translate(-168.606 -148.813)" fill="#d8ff57"/>
    <path id="패스_40530" data-name="패스 40530" d="M171.045,193.42c.81,2.227,2.488,5.487,2.488,5.487s-.81-3.575-1.621-5.8-1.075-2.348-1.315-2.262-.364.35.447,2.577" transform="translate(-162.146 -142.293)" fill="#d8ff57"/>
    <path id="패스_40531" data-name="패스 40531" d="M152.953,164.486c-.334,1.9-.478,4.869-.478,4.869s.882-2.844,1.216-4.739.2-2.088-.006-2.124-.4.1-.732,1.994" transform="translate(-138.557 -120.191)" fill="#d8ff57"/>
    <path id="패스_40532" data-name="패스 40532" d="M130.039,173.1c-.962,1.666-2.114,4.412-2.114,4.412s1.8-2.371,2.764-4.038.9-1.894.721-2-.408-.043-1.37,1.623" transform="translate(-110.777 -127.179)" fill="#d8ff57"/>
    <path id="패스_40533" data-name="패스 40533" d="M111.272,189.465c-1.474,1.237-3.5,3.423-3.5,3.423s2.5-1.612,3.978-2.849,1.494-1.472,1.361-1.631-.369-.18-1.843,1.057" transform="translate(-87.994 -140.349)" fill="#d8ff57"/>
    <path id="패스_40534" data-name="패스 40534" d="M99.073,211.557c-1.808.658-4.456,2.02-4.456,2.02s2.9-.658,4.712-1.316,1.908-.873,1.837-1.067-.284-.3-2.093.363" transform="translate(-73.115 -158.067)" fill="#d8ff57"/>
    <path id="패스_40535" data-name="패스 40535" d="M94.924,236.211c-1.924,0-4.878.375-4.878.375s2.954.375,4.878.375,2.091-.168,2.091-.374-.167-.375-2.091-.375" transform="translate(-67.942 -177.693)" fill="#d8ff57"/>
    <path id="패스_40536" data-name="패스 40536" d="M99.288,254.606c-1.809-.658-4.712-1.316-4.712-1.316s2.648,1.363,4.456,2.021,2.022.558,2.093.363-.028-.409-1.837-1.068" transform="translate(-73.064 -191.014)" fill="#d8ff57"/>
    <path id="패스_40537" data-name="패스 40537" d="M111.677,269.668c-1.474-1.237-3.977-2.849-3.977-2.849s2.021,2.186,3.5,3.423,1.709,1.216,1.842,1.057.114-.394-1.361-1.631" transform="translate(-87.901 -201.566)" fill="#d8ff57"/>
    <path id="패스_40538" data-name="패스 40538" d="M130.586,280.906c-.962-1.667-2.764-4.037-2.764-4.037s1.152,2.746,2.115,4.412,1.191,1.727,1.369,1.623.242-.332-.72-2" transform="translate(-110.653 -209.404)" fill="#d8ff57"/>
    <path id="패스_40539" data-name="패스 40539" d="M153.575,286.966c-.334-1.895-1.216-4.739-1.216-4.739s.144,2.974.478,4.87.529,2.03.732,1.994.34-.229.006-2.125" transform="translate(-138.415 -213.583)" fill="#d8ff57"/>
    <path id="패스_40540" data-name="패스 40540" d="M175.353,287.117c.334-1.895.478-4.869.478-4.869s-.882,2.844-1.216,4.739-.2,2.088.005,2.124.4-.1.733-1.994" transform="translate(-165.323 -213.6)" fill="#d8ff57"/>
    <path id="패스_40541" data-name="패스 40541" d="M190.565,281.34c.962-1.666,2.115-4.412,2.115-4.412s-1.8,2.371-2.763,4.038-.9,1.894-.722,2,.408.044,1.37-1.623" transform="translate(-185.4 -209.45)" fill="#d8ff57"/>
    <path id="패스_40542" data-name="패스 40542" d="M202.954,270.333c1.474-1.237,3.5-3.422,3.5-3.422s-2.5,1.612-3.978,2.849-1.494,1.473-1.361,1.63.369.181,1.843-1.057" transform="translate(-201.804 -201.637)" fill="#d8ff57"/>
    <path id="패스_40543" data-name="패스 40543" d="M210.993,255.423c1.808-.658,4.455-2.02,4.455-2.02s-2.9.658-4.712,1.317-1.908.872-1.837,1.066.285.3,2.093-.363" transform="translate(-212.525 -191.102)" fill="#d8ff57"/>
    <path id="패스_40544" data-name="패스 40544" d="M213.706,237.08c1.924,0,4.877-.375,4.877-.375s-2.954-.374-4.878-.374-2.091.168-2.091.374.166.376,2.091.375" transform="translate(-216.261 -177.786)" fill="#d8ff57"/>
    <path id="패스_40545" data-name="패스 40545" d="M210.778,212.373c1.808.658,4.711,1.316,4.711,1.316s-2.647-1.362-4.456-2.02-2.022-.557-2.092-.363.027.41,1.837,1.068" transform="translate(-212.574 -158.154)" fill="#d8ff57"/>
    <path id="패스_40546" data-name="패스 40546" d="M202.55,190.129c1.473,1.237,3.977,2.848,3.977,2.848s-2.022-2.185-3.5-3.422-1.71-1.216-1.842-1.058-.114.394,1.361,1.631" transform="translate(-201.899 -140.419)" fill="#d8ff57"/>
    <path id="패스_40547" data-name="패스 40547" d="M190.02,173.535c.962,1.666,2.763,4.037,2.763,4.037s-1.152-2.745-2.115-4.412-1.191-1.727-1.369-1.624-.242.332.721,2" transform="translate(-185.527 -127.225)" fill="#d8ff57"/>
    <path id="패스_40548" data-name="패스 40548" d="M174.734,164.637c.334,1.895,1.216,4.738,1.216,4.738s-.143-2.974-.478-4.869-.529-2.03-.731-1.994-.341.229-.006,2.124" transform="translate(-165.467 -120.208)" fill="#d8ff57"/>
    <path id="패스_40549" data-name="패스 40549" d="M164.85,140.359c.01,2.521.516,6.388.516,6.388s.476-3.871.467-6.392-.231-2.738-.5-2.737-.49.22-.481,2.74" transform="translate(-153.219 -100.795)" fill="#d8ff57"/>
    <path id="패스_40550" data-name="패스 40550" d="M133.6,145.853c-.853,2.372-1.7,6.179-1.7,6.179s1.771-3.475,2.624-5.847.72-2.651.465-2.743-.536.039-1.389,2.411" transform="translate(-115.322 -105.321)" fill="#d8ff57"/>
    <path id="패스_40551" data-name="패스 40551" d="M105.767,162.353c-1.612,1.937-3.711,5.224-3.711,5.224s2.853-2.659,4.465-4.6,1.584-2.245,1.375-2.419-.517-.147-2.13,1.791" transform="translate(-81.568 -118.637)" fill="#d8ff57"/>
    <path id="패스_40552" data-name="패스 40552" d="M85.072,187.859C82.895,189.128,79.8,191.5,79.8,191.5s3.591-1.523,5.768-2.791,2.256-1.568,2.12-1.8-.435-.315-2.614.954" transform="translate(-56.4 -139.128)" fill="#d8ff57"/>
    <path id="패스_40553" data-name="패스 40553" d="M74.089,219.137c-2.48.447-6.2,1.617-6.2,1.617s3.9-.2,6.376-.65,2.656-.7,2.608-.969-.3-.445-2.783,0" transform="translate(-42.93 -164.163)" fill="#d8ff57"/>
    <path id="패스_40554" data-name="패스 40554" d="M74.11,248.5c-2.484-.428-6.38-.6-6.38-.6s3.73,1.141,6.214,1.569,2.736.249,2.782-.018-.131-.521-2.616-.949" transform="translate(-42.748 -186.807)" fill="#d8ff57"/>
    <path id="패스_40555" data-name="패스 40555" d="M85.131,269.893c-2.187-1.252-5.789-2.748-5.789-2.748s3.115,2.348,5.3,3.6,2.486,1.17,2.621.934.055-.534-2.134-1.786" transform="translate(-55.877 -201.82)" fill="#d8ff57"/>
    <path id="패스_40556" data-name="패스 40556" d="M105.856,287.437c-1.627-1.925-4.5-4.562-4.5-4.562s2.123,3.271,3.751,5.2,1.936,1.95,2.143,1.774.234-.483-1.394-2.408" transform="translate(-80.765 -214.089)" fill="#d8ff57"/>
    <path id="패스_40557" data-name="패스 40557" d="M133.714,299.017c-.871-2.365-2.668-5.826-2.668-5.826s.876,3.8,1.748,6.166,1.153,2.494,1.407,2.4.386-.374-.486-2.74" transform="translate(-114.339 -222.135)" fill="#d8ff57"/>
    <path id="패스_40558" data-name="패스 40558" d="M165,303.232c-.009-2.52-.514-6.387-.514-6.387s-.477,3.871-.467,6.391.231,2.738.5,2.737.491-.22.48-2.741" transform="translate(-152.208 -224.985)" fill="#d8ff57"/>
    <path id="패스_40559" data-name="패스 40559" d="M188.1,299.576c.853-2.371,1.7-6.178,1.7-6.178s-1.772,3.475-2.624,5.847-.72,2.651-.466,2.743.536-.039,1.389-2.411" transform="translate(-181.951 -222.296)" fill="#d8ff57"/>
    <path id="패스_40560" data-name="패스 40560" d="M206.507,288.492c1.612-1.936,3.711-5.224,3.711-5.224s-2.853,2.659-4.465,4.6-1.584,2.245-1.376,2.418.517.147,2.13-1.791" transform="translate(-206.28 -214.395)" fill="#d8ff57"/>
    <path id="패스_40561" data-name="패스 40561" d="M220.155,271.312c2.178-1.268,5.274-3.639,5.274-3.639s-3.591,1.523-5.768,2.792-2.256,1.568-2.119,1.8.435.316,2.614-.954" transform="translate(-224.401 -202.232)" fill="#d8ff57"/>
    <path id="패스_40562" data-name="패스 40562" d="M227.381,250.112c2.48-.447,6.2-1.617,6.2-1.617s-3.894.2-6.375.651-2.656.7-2.608.968.3.446,2.783,0" transform="translate(-234.114 -187.274)" fill="#d8ff57"/>
    <path id="패스_40563" data-name="패스 40563" d="M227.32,220.977c2.484.428,6.379.6,6.379.6s-3.728-1.141-6.213-1.569-2.736-.248-2.781.018.13.522,2.615.949" transform="translate(-234.255 -164.857)" fill="#d8ff57"/>
    <path id="패스_40564" data-name="패스 40564" d="M219.977,189.485c2.187,1.252,5.789,2.747,5.789,2.747s-3.114-2.347-5.3-3.6-2.486-1.17-2.62-.935-.055.535,2.133,1.786" transform="translate(-224.805 -139.746)" fill="#d8ff57"/>
    <path id="패스_40565" data-name="패스 40565" d="M206.237,163.561c1.628,1.924,4.5,4.561,4.5,4.561s-2.123-3.27-3.751-5.195-1.936-1.95-2.143-1.775-.235.484,1.394,2.408" transform="translate(-206.902 -119.097)" fill="#d8ff57"/>
    <path id="패스_40566" data-name="패스 40566" d="M187.764,146.5c.87,2.365,2.668,5.825,2.668,5.825s-.876-3.8-1.748-6.165-1.153-2.494-1.406-2.4-.386.374.486,2.74" transform="translate(-182.712 -105.565)" fill="#d8ff57"/>
  </g>
  </g>
</svg>
