<svg id="icon_heart_h18_1px" xmlns="http://www.w3.org/2000/svg" width="18" height="18" viewBox="0 0 18 18">
  <rect id="사각형_992" data-name="사각형 992" width="18" height="18" transform="translate(0)" opacity="0"/>
  <path id="heart_off" d="M5.143,1.071a3.789,3.789,0,0,0-.4.021A3.811,3.811,0,0,0,1.291,3.787a4.42,4.42,0,0,0,.852,4.385l6.306,5.548a.831.831,0,0,0,1.1,0l6.308-5.549a4.42,4.42,0,0,0,.852-4.385,3.813,3.813,0,0,0-3.451-2.7,3.771,3.771,0,0,0-.4-.02A4.371,4.371,0,0,0,9.78,2.4a1.1,1.1,0,0,1-1.564,0A4.365,4.365,0,0,0,5.143,1.071M5.143,0A5.4,5.4,0,0,1,8.966,1.637a.049.049,0,0,0,.068,0A5.4,5.4,0,0,1,12.857,0a4.841,4.841,0,0,1,.511.026C18.514.552,19.047,6.7,16.56,8.974L10.244,14.53a1.882,1.882,0,0,1-2.488,0L1.44,8.974C-1.047,6.7-.514.552,4.632.026A4.841,4.841,0,0,1,5.143,0Z" transform="translate(0 2)"/>
</svg>
