<svg id="icon_heart_h18_1px" xmlns="http://www.w3.org/2000/svg" width="14" height="14" viewBox="0 0 14 14">
  <rect id="사각형_992" data-name="사각형 992" width="14" height="14" transform="translate(0)" fill="#fff" opacity="0"/>
  <path id="heart_off" d="M4,.833A2.947,2.947,0,0,0,3.685.85,2.964,2.964,0,0,0,1,2.945a3.437,3.437,0,0,0,.663,3.411l4.905,4.315a.646.646,0,0,0,.856,0l4.906-4.316A3.437,3.437,0,0,0,13,2.945a2.966,2.966,0,0,0-2.684-2.1A2.933,2.933,0,0,0,10,.833,3.4,3.4,0,0,0,7.607,1.864a.854.854,0,0,1-1.216,0A3.4,3.4,0,0,0,4,.833M4,0A4.2,4.2,0,0,1,6.974,1.273a.038.038,0,0,0,.053,0A4.2,4.2,0,0,1,10,0a3.765,3.765,0,0,1,.4.02c4,.409,4.417,5.191,2.482,6.959L7.968,11.3a1.464,1.464,0,0,1-1.935,0L1.12,6.98C-.815,5.212-.4.429,3.6.02A3.765,3.765,0,0,1,4,0Z" transform="translate(0 1.556)" fill="#fff"/>
</svg>
