<svg xmlns="http://www.w3.org/2000/svg" xmlns:xlink="http://www.w3.org/1999/xlink" width="32" height="32" viewBox="0 0 32 32">
  <defs>
    <clipPath id="clip-path">
      <rect id="사각형_3412" data-name="사각형 3412" width="14.281" height="11.607" fill="none"/>
    </clipPath>
  </defs>
  <g id="트위터" transform="translate(-1778 -889.001)">
    <circle id="타원_37" data-name="타원 37" cx="16" cy="16" r="16" transform="translate(1778 889.001)" fill="#55c3f1"/>
    <g id="icon_twitter" transform="translate(1787 899.002)">
      <g id="그룹_1781" data-name="그룹 1781" clip-path="url(#clip-path)">
        <path id="패스_36263" data-name="패스 36263" d="M4.491,11.607A8.281,8.281,0,0,0,12.829,3.27c0-.127,0-.253-.009-.378a5.938,5.938,0,0,0,1.461-1.517,5.872,5.872,0,0,1-1.682.461A2.95,2.95,0,0,0,13.888.214a5.9,5.9,0,0,1-1.861.712,2.93,2.93,0,0,0-5.068,2,3.005,3.005,0,0,0,.075.669A8.326,8.326,0,0,1,.994.537,2.932,2.932,0,0,0,1.9,4.448,2.908,2.908,0,0,1,.574,4.081c0,.013,0,.025,0,.037a2.931,2.931,0,0,0,2.35,2.873,2.936,2.936,0,0,1-.771.1A2.9,2.9,0,0,1,1.6,7.041,2.934,2.934,0,0,0,4.338,9.077,5.877,5.877,0,0,1,.7,10.331,5.939,5.939,0,0,1,0,10.29a8.286,8.286,0,0,0,4.491,1.317" fill="#fff"/>
      </g>
    </g>
  </g>
</svg>
