<svg xmlns="http://www.w3.org/2000/svg" width="33.193" height="26.111" viewBox="0 0 33.193 26.111">
  <g id="그룹_112280" data-name="그룹 112280" transform="translate(0.295 0.295)">
    <g id="그룹_112282" data-name="그룹 112282" transform="translate(0.705 0.705)">
      <g id="그룹_112283" data-name="그룹 112283">
        <path id="패스_38141" data-name="패스 38141" d="M17.125,12.986c0,.458-.016.907-.057,1.353v0c-.38,4.777-2.754,8.654-5.864,9.79a5.4,5.4,0,0,1-1.892.343C5,24.476,1.5,19.332,1.5,12.986S5,1.5,9.313,1.5s7.813,5.14,7.813,11.486" transform="translate(-1.5 -1.5)" fill="#fff"/>
        <path id="패스_38142" data-name="패스 38142" d="M17.125,12.986c0,.458-.016.907-.057,1.353v0c-.38,4.777-2.754,8.654-5.864,9.79a5.4,5.4,0,0,1-1.892.343C5,24.476,1.5,19.332,1.5,12.986S5,1.5,9.313,1.5,17.125,6.64,17.125,12.986Z" transform="translate(-1.5 -1.5)" fill="none" stroke="#000" stroke-linecap="round" stroke-linejoin="round" stroke-width="2"/>
        <path id="패스_38143" data-name="패스 38143" d="M26.306,24.978v0c-.38,4.777-2.754,8.654-5.864,9.79C18.517,33.8,17.12,30.821,17.12,27.3c0-4.315,2.1-7.813,4.7-7.813,2.108,0,3.894,2.309,4.487,5.488" transform="translate(-10.738 -12.14)"/>
        <path id="패스_38144" data-name="패스 38144" d="M26.306,24.978v0c-.38,4.777-2.754,8.654-5.864,9.79C18.517,33.8,17.12,30.821,17.12,27.3c0-4.315,2.1-7.813,4.7-7.813C23.927,19.49,25.713,21.8,26.306,24.978Z" transform="translate(-10.738 -12.14)" fill="none" stroke="#000" stroke-linecap="round" stroke-linejoin="round" stroke-width="2"/>
        <path id="패스_38145" data-name="패스 38145" d="M39.6,12.986c0,.458.016.907.057,1.353v0c.38,4.777,2.754,8.654,5.864,9.79a5.4,5.4,0,0,0,1.892.343c4.315,0,7.813-5.144,7.813-11.49S51.728,1.5,47.413,1.5,39.6,6.64,39.6,12.986" transform="translate(-24.032 -1.5)" fill="#fff"/>
        <path id="패스_38146" data-name="패스 38146" d="M39.6,12.986c0,.458.016.907.057,1.353v0c.38,4.777,2.754,8.654,5.864,9.79a5.4,5.4,0,0,0,1.892.343c4.315,0,7.813-5.144,7.813-11.49S51.728,1.5,47.413,1.5,39.6,6.64,39.6,12.986Z" transform="translate(-24.032 -1.5)" fill="none" stroke="#000" stroke-linecap="round" stroke-linejoin="round" stroke-width="2"/>
        <path id="패스_38147" data-name="패스 38147" d="M39.74,24.978v0c.38,4.777,2.754,8.654,5.864,9.79,1.925-.977,3.322-3.951,3.322-7.469,0-4.315-2.1-7.813-4.7-7.813-2.108,0-3.894,2.309-4.487,5.488" transform="translate(-24.115 -12.14)"/>
        <path id="패스_38148" data-name="패스 38148" d="M39.74,24.978v0c.38,4.777,2.754,8.654,5.864,9.79,1.925-.977,3.322-3.951,3.322-7.469,0-4.315-2.1-7.813-4.7-7.813C42.118,19.49,40.332,21.8,39.74,24.978Z" transform="translate(-24.115 -12.14)" fill="none" stroke="#000" stroke-linecap="round" stroke-linejoin="round" stroke-width="2"/>
        <path id="패스_38149" data-name="패스 38149" d="M37.943,49.557c0,1.553-1.659,2.812-3.7,2.812s-3.7-1.259-3.7-2.812,1.659-2.812,3.7-2.812,3.7,1.259,3.7,2.812" transform="translate(-18.671 -28.257)" fill="#f06a86"/>
        <path id="패스_38150" data-name="패스 38150" d="M37.943,49.557c0,1.553-1.659,2.812-3.7,2.812s-3.7-1.259-3.7-2.812,1.659-2.812,3.7-2.812S37.943,48,37.943,49.557Z" transform="translate(-18.671 -28.257)" fill="none" stroke="#000" stroke-linecap="round" stroke-linejoin="round" stroke-width="2"/>
      </g>
    </g>
  </g>
</svg>
