<svg xmlns="http://www.w3.org/2000/svg" width="44" height="44" viewBox="0 0 44 44">
  <g id="icon_shop" transform="translate(-496 -374)">
    <g id="Group_109454" data-name="Group 109454" transform="translate(-0.204 -139.823)">
      <g id="Group_109453" data-name="Group 109453" transform="translate(498 519.819)">
        <g id="Rectangle_19797" data-name="Rectangle 19797" transform="translate(2.433 8.23)" fill="#fff" stroke="#000" stroke-width="1.2">
          <rect width="30.118" height="21.815" rx="1" stroke="none"/>
          <rect x="0.6" y="0.6" width="28.918" height="20.615" rx="0.4" fill="none"/>
        </g>
        <path id="Path_36171" data-name="Path 36171" d="M34.553,7.685a3.732,3.732,0,0,1-2.872,5.7,4.733,4.733,0,0,1-.519.028,4.276,4.276,0,0,1-4.446-4.088,4.275,4.275,0,0,1-4.446,4.088,4.276,4.276,0,0,1-4.446-4.088,4.278,4.278,0,0,1-4.456,4.088A4.276,4.276,0,0,1,8.922,9.327a4.276,4.276,0,0,1-4.446,4.088,4.732,4.732,0,0,1-.519-.028,3.733,3.733,0,0,1-2.876-5.7L2.316,5.759,5.051,1.491A2.239,2.239,0,0,1,6.941.5H28.694a2.242,2.242,0,0,1,1.894.994l2.734,4.276Z" transform="translate(-0.5 -0.499)" fill="#fc3f4b" stroke="#000" stroke-linecap="round" stroke-linejoin="round" stroke-width="1.2"/>
        <path id="Path_36173" data-name="Path 36173" d="M8.365,23.21V15.152a3.855,3.855,0,0,1,3.9-3.783,3.962,3.962,0,0,1,2.749,1.108,3.748,3.748,0,0,1,1.14,2.675V23.21" transform="translate(5.058 5.5)" fill="none" stroke="#000" stroke-linecap="round" stroke-linejoin="round" stroke-width="1.2"/>
        <line id="Line_125" data-name="Line 125" y2="8.698" transform="translate(17.317 0.13)" fill="none" stroke="#000" stroke-linecap="round" stroke-linejoin="round" stroke-width="1.2"/>
        <line id="Line_126" data-name="Line 126" x1="1.707" y1="8.828" transform="translate(24.509)" fill="none" stroke="#000" stroke-linecap="round" stroke-linejoin="round" stroke-width="1.2"/>
        <line id="Line_127" data-name="Line 127" y1="8.828" x2="1.707" transform="translate(8.421)" fill="none" stroke="#000" stroke-linecap="round" stroke-linejoin="round" stroke-width="1.2"/>
      </g>
      <g id="Ellipse_266" data-name="Ellipse 266" transform="translate(522.245 537.346)" fill="#fc3f4b" stroke="#000" stroke-width="1.2">
        <circle cx="8.082" cy="8.082" r="8.082" stroke="none"/>
        <circle cx="8.082" cy="8.082" r="7.482" fill="none"/>
      </g>
      <line id="Line_128" data-name="Line 128" x2="6.213" transform="translate(527.167 545.374)" fill="none" stroke="#fff" stroke-linecap="round" stroke-width="1.2"/>
      <line id="Line_129" data-name="Line 129" y2="6.213" transform="translate(530.273 542.267)" fill="none" stroke="#fff" stroke-linecap="round" stroke-width="1.2"/>
    </g>
    <rect id="Rectangle_19798" data-name="Rectangle 19798" width="44" height="44" transform="translate(496 374)" fill="none"/>
  </g>
</svg>
