<svg xmlns="http://www.w3.org/2000/svg" width="18.002" height="16.158" viewBox="0 0 18.002 16.158">
  <path id="합치기_99" data-name="합치기 99" d="M7991.481-3525.726a7,7,0,0,1-6.664-6.993,7,7,0,0,1,7-7h4a7,7,0,0,1,7,7,7,7,0,0,1-7,7h-.014l-2.157,2.157Zm-5.664-6.993a5.99,5.99,0,0,0,5.712,5.993l.386.018,1.733,1.733,1.744-1.743h.428a6.008,6.008,0,0,0,6-6,6.006,6.006,0,0,0-6-6h-4A6.008,6.008,0,0,0,7985.818-3532.719Zm11,0a1,1,0,0,1,1-1,1,1,0,0,1,1,1,1,1,0,0,1-1,1A1,1,0,0,1,7996.818-3532.719Zm-4,0a1,1,0,0,1,1-1,1,1,0,0,1,1,1,1,1,0,0,1-1,1A1,1,0,0,1,7992.819-3532.719Zm-4,0a1,1,0,0,1,1-1,1,1,0,0,1,1,1,1,1,0,0,1-1,1A1,1,0,0,1,7988.818-3532.719Z" transform="translate(-7984.817 3539.719)" fill="#767675"/>
</svg>
