<svg id="shopping-bag" xmlns="http://www.w3.org/2000/svg" width="18" height="20" viewBox="0 0 18 20">
  <path id="패스_69" data-name="패스 69" d="M2,0H16a9.1,9.1,0,0,1,2,.111V.889A9.1,9.1,0,0,1,16,1H2A9.1,9.1,0,0,1,0,.889V.111A9.1,9.1,0,0,1,2,0Z" transform="translate(0 7.991)"/>
  <path id="패스_70" data-name="패스 70" d="M17.544-.3l3.944,3,4.056-3" transform="translate(-12.546 0.795)" fill="#fff"/>
  <path id="패스_70_-_윤곽선" data-name="패스 70 - 윤곽선" d="M21.786,3.107l-.6,0L17.242.1a.5.5,0,0,1-.1-.7.5.5,0,0,1,.7-.1L21.493,2.08,25.247-.7a.5.5,0,0,1,.7.1.5.5,0,0,1-.1.7Z" transform="translate(-12.546 0.795)"/>
  <path id="패스_71" data-name="패스 71" d="M24.5,17.7h-1V2.7h1Z" transform="translate(-15 0.295)"/>
  <path id="사각형_377" data-name="사각형 377" d="M1.5-.5h14a1.943,1.943,0,0,1,2,1.875V11.688a2.914,2.914,0,0,1-3,2.813H2.5a2.914,2.914,0,0,1-3-2.812V1.375A1.943,1.943,0,0,1,1.5-.5Zm13,14.063a1.943,1.943,0,0,0,2-1.875V1.375a.971.971,0,0,0-1-.937H1.5a.971.971,0,0,0-1,.938V11.688a1.943,1.943,0,0,0,2,1.875Z" transform="translate(0.5 3.5)"/>
  <rect id="사각형_3276" data-name="사각형 3276" width="18" height="20" fill="#fff" opacity="0"/>
</svg>
