<svg xmlns="http://www.w3.org/2000/svg" width="32" height="32" viewBox="0 0 32 32">
  <g id="icon_pen" transform="translate(-495 -1100)">
    <g id="Group_109460" data-name="Group 109460" transform="translate(65 184)">
      <g id="Group_109458" data-name="Group 109458" transform="translate(432.969 917.688)">
        <g id="Group_109459" data-name="Group 109459" transform="translate(0.75 0.75)">
          <g id="pen" transform="translate(1.497 1.124)">
            <path id="Path_36297" data-name="Path 36297" d="M18.038,12.459l-4.479,8.756a.3.3,0,0,1-.249.161l-11.462.549a.3.3,0,0,1-.309-.282.171.171,0,0,1,0-.028l.549-11.466A.3.3,0,0,1,2.248,9.9L11,5.426Z" transform="translate(-0.847 -1.735)" fill="#31ff88"/>
            <path id="Path_36298" data-name="Path 36298" d="M18.038,12.459l-4.479,8.756a.3.3,0,0,1-.249.161l-11.462.549a.3.3,0,0,1-.309-.282.171.171,0,0,1,0-.028l.549-11.466A.3.3,0,0,1,2.248,9.9L11,5.426Z" transform="translate(-0.847 -1.735)" fill="none" stroke="#000" stroke-width="1.2"/>
            <path id="Path_36299" data-name="Path 36299" d="M12.394,14.07a2.624,2.624,0,1,1-3.713,0,2.626,2.626,0,0,1,3.713,0" transform="translate(-2.19 -3.394)" fill="#fff" stroke="#707070" stroke-width="1.2"/>
            <path id="Path_36300" data-name="Path 36300" d="M12.394,14.07a2.624,2.624,0,1,1-3.713,0,2.626,2.626,0,0,1,3.713,0" transform="translate(-2.19 -3.394)" fill="none" stroke="#000" stroke-width="1.2"/>
            <path id="Path_36301" data-name="Path 36301" d="M24.095,7.381a.3.3,0,0,1,0,.418L20.16,11.734,13.2,4.772,17.133.837a.3.3,0,0,1,.418,0Z" transform="translate(-3.303 -0.75)" fill="#fff" stroke="#707070" stroke-width="1.2"/>
            <path id="Path_36302" data-name="Path 36302" d="M24.095,7.381a.3.3,0,0,1,0,.418L20.16,11.734,13.2,4.772,17.133.837a.3.3,0,0,1,.418,0Z" transform="translate(-3.303 -0.75)" fill="none" stroke="#000" stroke-width="1.2"/>
            <line id="Line_130" data-name="Line 130" x1="5.663" y2="5.663" transform="translate(0.83 14.386)" fill="none" stroke="#000" stroke-width="1.2"/>
          </g>
          <line id="Line_131" data-name="Line 131" x2="24.563" transform="translate(0 26)" fill="none" stroke="#000" stroke-linecap="round" stroke-width="1.2"/>
        </g>
      </g>
      <rect id="Rectangle_19799" data-name="Rectangle 19799" width="32" height="32" transform="translate(430 916)" fill="none"/>
    </g>
  </g>
</svg>
