<svg id="icon_heart_h18_1px" xmlns="http://www.w3.org/2000/svg" width="14" height="14" viewBox="0 0 14 14">
  <path id="heart" d="M4,0A4.2,4.2,0,0,1,6.974,1.273a.038.038,0,0,0,.053,0A4.2,4.2,0,0,1,10,0a3.765,3.765,0,0,1,.4.02c4,.409,4.417,5.191,2.482,6.959L7.968,11.3a1.464,1.464,0,0,1-1.935,0L1.12,6.98C-.815,5.212-.4.429,3.6.02A3.765,3.765,0,0,1,4,0Z" transform="translate(0 1.556)" fill="#ec1f2d"/>
  <rect id="사각형_992" data-name="사각형 992" width="14" height="14" transform="translate(0)" fill="#da2128" opacity="0"/>
</svg>
