<svg xmlns="http://www.w3.org/2000/svg" width="15.504" height="15.001" viewBox="0 0 15.504 15.001">
  <path id="패스_13838" data-name="패스 13838" d="M-4541-9846.579a2,2,0,0,1-2-2v-6a2,2,0,0,1,2-2h2.885l2.072-4.858.235-.062a2.942,2.942,0,0,1,.7-.079,2.354,2.354,0,0,1,1.522.5,2.806,2.806,0,0,1,.827,2.394c-.029.723-.044,1.321-.049,1.816H-4529a1.522,1.522,0,0,1,1.5,1.453l0,.052-.007.1-1,7.212a1.5,1.5,0,0,1-1.5,1.47h-7.5v0Zm-1-8v6a1,1,0,0,0,1,1h2.5v-.151c0-.126,0-.258,0-.394v-7.457h-2.5A1,1,0,0,0-4542-9854.581Zm4.5,7h7.5a.506.506,0,0,0,.354-.15.466.466,0,0,0,.141-.312v-.071l.01-.074,1-7.18a.522.522,0,0,0-.5-.5h-4.824l.012-1.01c0-.55.022-1.171.05-1.847a1.9,1.9,0,0,0-.468-1.586,1.34,1.34,0,0,0-.881-.268c-.079,0-.153,0-.218.01l-2.131,5-.042,7.586C-4537.5-9847.864-4537.5-9847.71-4537.5-9847.582Z" transform="translate(4543 9861.58)" fill="#767675"/>
</svg>
