<svg xmlns="http://www.w3.org/2000/svg" width="12.706" height="12.707" viewBox="0 0 12.706 12.707">
  <g id="icon_coupon" transform="translate(19949 19261.707)">
    <rect id="사각형_19793" data-name="사각형 19793" width="12" height="12" transform="translate(-19949 -19261)" fill="none"/>
    <path id="빼기_6" data-name="빼기 6" d="M5.262,9.693H.554A.561.561,0,0,1,0,9.127V2.3a.572.572,0,0,1,.23-.459L2.584.107a.544.544,0,0,1,.649,0L5.587,1.845a.572.572,0,0,1,.23.459V9.127A.561.561,0,0,1,5.262,9.693ZM2.908,1.743a.738.738,0,1,0,.727.738A.733.733,0,0,0,2.908,1.743Z" transform="translate(-19941.113 -19261) rotate(45)" fill="#da2128" stroke="rgba(0,0,0,0)" stroke-miterlimit="10" stroke-width="1"/>
  </g>
</svg>
