<svg xmlns="http://www.w3.org/2000/svg" width="334.999" height="204.002" viewBox="0 0 334.999 204.002">
  <g id="빼기_2" data-name="빼기 2" transform="translate(-11403.001 -17614)" fill="#fff">
    <path d="M 11728.0009765625 17817.501953125 L 11412.9990234375 17817.501953125 C 11410.4619140625 17817.501953125 11408.076171875 17816.513671875 11406.2822265625 17814.71875 C 11404.4892578125 17812.923828125 11403.5009765625 17810.537109375 11403.5009765625 17807.998046875 L 11403.5009765625 17773.087890625 C 11405.69921875 17772.46484375 11407.6806640625 17771.146484375 11409.1142578125 17769.341796875 C 11410.6748046875 17767.376953125 11411.5 17765.009765625 11411.5 17762.498046875 C 11411.5 17759.986328125 11410.6748046875 17757.62109375 11409.1142578125 17755.658203125 C 11407.6796875 17753.853515625 11405.6982421875 17752.53515625 11403.5009765625 17751.912109375 L 11403.5009765625 17624 C 11403.5009765625 17621.462890625 11404.4892578125 17619.078125 11406.2822265625 17617.283203125 C 11408.076171875 17615.48828125 11410.4619140625 17614.5 11412.9990234375 17614.5 L 11728.0009765625 17614.5 C 11730.5380859375 17614.5 11732.923828125 17615.48828125 11734.71875 17617.283203125 C 11736.5126953125 17619.078125 11737.5 17621.462890625 11737.5 17624 L 11737.5 17751.912109375 C 11735.302734375 17752.533203125 11733.3212890625 17753.853515625 11731.88671875 17755.65625 C 11730.3251953125 17757.62109375 11729.5 17759.986328125 11729.5 17762.498046875 C 11729.5 17765.01171875 11730.3251953125 17767.376953125 11731.88671875 17769.341796875 C 11733.3203125 17771.146484375 11735.3017578125 17772.46484375 11737.5 17773.087890625 L 11737.5 17807.998046875 C 11737.5 17810.537109375 11736.5126953125 17812.923828125 11734.71875 17814.71875 C 11732.9248046875 17816.513671875 11730.5390625 17817.501953125 11728.0009765625 17817.501953125 Z" stroke="none"/>
    <path d="M 11728.0009765625 17817.001953125 C 11730.4052734375 17817.001953125 11732.666015625 17816.06640625 11734.365234375 17814.365234375 C 11736.064453125 17812.666015625 11737 17810.404296875 11737 17807.998046875 L 11737 17773.458984375 C 11734.8466796875 17772.771484375 11732.9140625 17771.439453125 11731.4951171875 17769.654296875 C 11729.86328125 17767.599609375 11729 17765.125 11729 17762.498046875 C 11729 17759.873046875 11729.86328125 17757.3984375 11731.49609375 17755.34375 C 11732.916015625 17753.560546875 11734.8486328125 17752.228515625 11737 17751.541015625 L 11737 17624 C 11737 17621.595703125 11736.064453125 17619.3359375 11734.365234375 17617.63671875 C 11732.6650390625 17615.935546875 11730.404296875 17615 11728.0009765625 17615 L 11412.9990234375 17615 C 11410.5947265625 17615 11408.3349609375 17615.935546875 11406.6357421875 17617.63671875 C 11404.9365234375 17619.3359375 11404.0009765625 17621.595703125 11404.0009765625 17624 L 11404.0009765625 17751.541015625 C 11406.1533203125 17752.23046875 11408.0859375 17753.560546875 11409.505859375 17755.345703125 C 11411.1376953125 17757.400390625 11412 17759.873046875 11412 17762.498046875 C 11412 17765.123046875 11411.1376953125 17767.59765625 11409.505859375 17769.654296875 C 11408.0869140625 17771.439453125 11406.154296875 17772.771484375 11404.0009765625 17773.458984375 L 11404.0009765625 17807.998046875 C 11404.0009765625 17810.404296875 11404.9365234375 17812.666015625 11406.6357421875 17814.365234375 C 11408.3349609375 17816.06640625 11410.5947265625 17817.001953125 11412.9990234375 17817.001953125 L 11728.0009765625 17817.001953125 M 11728.0009765625 17818.001953125 L 11412.9990234375 17818.001953125 C 11410.3271484375 17818.001953125 11407.81640625 17816.9609375 11405.9287109375 17815.072265625 C 11404.041015625 17813.18359375 11403.0009765625 17810.671875 11403.0009765625 17807.998046875 L 11403.0009765625 17772.703125 C 11405.244140625 17772.15625 11407.2763671875 17770.8515625 11408.72265625 17769.03125 C 11410.212890625 17767.154296875 11411 17764.896484375 11411 17762.498046875 C 11411 17760.099609375 11410.212890625 17757.84375 11408.72265625 17755.96875 C 11407.275390625 17754.1484375 11405.2431640625 17752.84375 11403.0009765625 17752.296875 L 11403.0009765625 17624 C 11403.0009765625 17621.330078125 11404.041015625 17618.818359375 11405.9287109375 17616.9296875 C 11407.81640625 17615.041015625 11410.3271484375 17614 11412.9990234375 17614 L 11728.0009765625 17614 C 11730.6728515625 17614 11733.18359375 17615.041015625 11735.072265625 17616.9296875 C 11736.9599609375 17618.818359375 11738 17621.330078125 11738 17624 L 11738 17752.296875 C 11735.7578125 17752.84375 11733.7255859375 17754.1484375 11732.2783203125 17755.966796875 C 11730.7880859375 17757.841796875 11730 17760.1015625 11730 17762.498046875 C 11730 17764.896484375 11730.7880859375 17767.15625 11732.2783203125 17769.03125 C 11733.724609375 17770.8515625 11735.7568359375 17772.15625 11738 17772.703125 L 11738 17807.998046875 C 11738 17810.671875 11736.9599609375 17813.18359375 11735.072265625 17815.072265625 C 11733.1845703125 17816.9609375 11730.673828125 17818.001953125 11728.0009765625 17818.001953125 Z" stroke="none" fill="#d5d5d5"/>
  </g>
</svg>
