<svg xmlns="http://www.w3.org/2000/svg" width="13.001" height="13" viewBox="0 0 13.001 13">
  <g id="icon_reviews" transform="translate(0 -3)">
    <path id="패스_47" data-name="패스 47" d="M14.16-37.693a.927.927,0,0,1-.224.5,5.138,5.138,0,0,1-.492.573,3.809,3.809,0,0,0-.492.614,1.174,1.174,0,0,0-.224.621q0,.152.324.3t.7.338a1.786,1.786,0,0,1,.7.745,2.761,2.761,0,0,1,.324,1.4,3.126,3.126,0,0,1-.847,2.278,2.955,2.955,0,0,1-2.216.87,2.914,2.914,0,0,1-2.2-.952,3.264,3.264,0,0,1-.9-2.333A5.128,5.128,0,0,1,9-34.566a8.379,8.379,0,0,1,1-1.863,5.856,5.856,0,0,1,1.463-1.442,2.949,2.949,0,0,1,1.669-.58,1.116,1.116,0,0,1,.741.235A.679.679,0,0,1,14.16-37.693Zm-6.836,0a1.15,1.15,0,0,1-.361.656q-.361.407-.716.856a1.353,1.353,0,0,0-.355.794q0,.152.324.3t.7.338a1.786,1.786,0,0,1,.7.745,2.761,2.761,0,0,1,.324,1.4A3.126,3.126,0,0,1,7.1-30.322a2.955,2.955,0,0,1-2.216.87,2.914,2.914,0,0,1-2.2-.952,3.264,3.264,0,0,1-.9-2.333,5.128,5.128,0,0,1,.386-1.829,8.379,8.379,0,0,1,1-1.863,5.856,5.856,0,0,1,1.463-1.442,2.949,2.949,0,0,1,1.669-.58,1.116,1.116,0,0,1,.741.235A.679.679,0,0,1,7.323-37.693Z" transform="translate(-1.781 43.453)" fill="#595959"/>
    <rect id="사각형_3159" data-name="사각형 3159" width="13" height="13" transform="translate(0 3)" opacity="0"/>
  </g>
</svg>
