<svg id="Group_112778" data-name="Group 112778" xmlns="http://www.w3.org/2000/svg" width="36" height="36" viewBox="0 0 36 36">
  <g id="Group_112779" data-name="Group 112779">
    <path id="Path_38506" data-name="Path 38506" d="M36,18A18,18,0,1,1,18,0,18,18,0,0,1,36,18" transform="translate(0 0.001)" fill="#fbc300"/>
    <path id="Path_38507" data-name="Path 38507" d="M176,173.6a.356.356,0,0,1,.643-.005l1.451,2.976a2.061,2.061,0,1,1-3.482,0Z" transform="translate(-150.85 -150.073)" fill="#1179ff"/>
    <path id="Path_38508" data-name="Path 38508" d="M105.346,164.823a.677.677,0,0,1-.532-1.1,4.842,4.842,0,0,1,7.543-.093.677.677,0,1,1-1.044.863,3.487,3.487,0,0,0-5.433.067.676.676,0,0,1-.533.259" transform="translate(-90.591 -140.102)"/>
    <path id="Path_38509" data-name="Path 38509" d="M72.079,95.013a.527.527,0,0,0-.168-.937A3.163,3.163,0,0,0,68.256,95.7a.527.527,0,0,0,.941.474,2.109,2.109,0,0,1,2.437-1.084.526.526,0,0,0,.445-.08" transform="translate(-59.026 -81.325)"/>
    <path id="Path_38510" data-name="Path 38510" d="M169.186,95.013a.527.527,0,0,1,.168-.937,3.163,3.163,0,0,1,3.655,1.627.527.527,0,0,1-.941.474,2.079,2.079,0,0,0-.656-.765,2.1,2.1,0,0,0-1.78-.319.526.526,0,0,1-.445-.08" transform="translate(-146.238 -81.325)"/>
    <path id="Path_38511" data-name="Path 38511" d="M78.222,117.565a1.635,1.635,0,1,1,1.63,1.756,1.7,1.7,0,0,1-1.63-1.756" transform="translate(-67.701 -100.232)"/>
    <path id="Path_38512" data-name="Path 38512" d="M168.439,117.565a1.635,1.635,0,1,0-1.63,1.756,1.7,1.7,0,0,0,1.63-1.756" transform="translate(-142.96 -100.232)"/>
  </g>
</svg>
