<svg xmlns="http://www.w3.org/2000/svg" width="28" height="28" viewBox="0 0 28 28">
  <g id="icon" transform="translate(-975.894 -679.429)">
    <g id="icon-2" data-name="icon" transform="translate(1005.894 679.429)">
      <path id="패스_14052" data-name="패스 14052" d="M-16,6h-5.6a2.37,2.37,0,0,0-1.8.842l-5,5.878a2.519,2.519,0,0,0-.6,1.632v6.411A1.219,1.219,0,0,0-27.8,22H-16" fill="#fff" stroke="#040405" stroke-linecap="round" stroke-linejoin="round" stroke-width="1"/>
      <path id="패스_14053" data-name="패스 14053" d="M-16.846,22H-5.308A2.266,2.266,0,0,0-3,19.778V4.222A2.266,2.266,0,0,0-5.308,2H-15.692A2.266,2.266,0,0,0-18,4.222V14.949" fill="#fff" stroke="#040405" stroke-linecap="round" stroke-linejoin="round" stroke-width="1"/>
      <circle id="타원_262" data-name="타원 262" cx="3" cy="3" r="3" transform="translate(-25.5 19)" fill="#fff" stroke="#040405" stroke-linecap="round" stroke-linejoin="round" stroke-width="1"/>
      <circle id="타원_263" data-name="타원 263" cx="3" cy="3" r="3" transform="translate(-12.5 19)" fill="#fff" stroke="#040405" stroke-linecap="round" stroke-linejoin="round" stroke-width="1"/>
      <rect id="사각형_3398" data-name="사각형 3398" width="1.5" height="8" rx="0.75" transform="translate(-6.5 6) rotate(90)"/>
    </g>
    <rect id="사각형_3387" data-name="사각형 3387" width="28" height="28" transform="translate(975.894 679.429)" fill="#fff" opacity="0"/>
  </g>
</svg>
