<svg xmlns="http://www.w3.org/2000/svg" width="28" height="28" viewBox="0 0 28 28">
  <g id="icon" transform="translate(-132 -602)">
    <g id="다각형_26" data-name="다각형 26" transform="translate(132 602)" fill="none">
      <path d="M12.64,1.261a2,2,0,0,1,2.72,0l1.912,1.773a2,2,0,0,0,1.445.532l2.592-.11a2,2,0,0,1,2.068,1.738l.351,2.667a2,2,0,0,0,.751,1.315l2.1,1.646a2,2,0,0,1,.464,2.635l-1.433,2.293a2,2,0,0,0-.259,1.483l.574,2.65a2,2,0,0,1-1.341,2.327l-2.5.806A2,2,0,0,0,20.92,24l-1.213,2.355a2,2,0,0,1-2.55.929l-2.386-1a2,2,0,0,0-1.544,0l-2.386,1a2,2,0,0,1-2.55-.929L7.08,24a2,2,0,0,0-1.165-.988l-2.5-.806a2,2,0,0,1-1.341-2.327l.574-2.65a2,2,0,0,0-.259-1.483L.954,13.455a2,2,0,0,1,.464-2.635l2.1-1.646a2,2,0,0,0,.751-1.315l.351-2.667A2,2,0,0,1,6.691,3.455l2.592.11a2,2,0,0,0,1.445-.532Z" stroke="none"/>
      <path d="M 14 1.727325439453125 C 13.74705028533936 1.727325439453125 13.50559997558594 1.822036743164062 13.32011032104492 1.99400520324707 L 11.40784072875977 3.766935348510742 C 10.85137939453125 4.282865524291992 10.12705039978027 4.566995620727539 9.368259429931641 4.566995620727539 C 9.325799942016602 4.566995620727539 9.283229827880859 4.566095352172852 9.240749359130859 4.564285278320312 L 6.648799896240234 4.454076766967773 C 6.130773544311523 4.431953430175781 5.682062149047852 4.812717437744141 5.615009307861328 5.322854995727539 L 5.264469146728516 7.989645004272461 C 5.161369323730469 8.774076461791992 4.761369705200195 9.474485397338867 4.13817024230957 9.961845397949219 L 2.033939361572266 11.60746574401855 C 1.629770278930664 11.92354583740234 1.530040740966797 12.49001598358154 1.801950454711914 12.92512607574463 L 3.23512077331543 15.21849632263184 C 3.651599884033203 15.8849458694458 3.789390563964844 16.67498588562012 3.623119354248047 17.44308471679688 L 3.049379348754883 20.09335708618164 C 2.940090179443359 20.59821701049805 3.228429794311523 21.09836578369141 3.720100402832031 21.25675582885742 L 6.221319198608398 22.06255531311035 C 6.982149124145508 22.30765533447266 7.602680206298828 22.83402633666992 7.968610763549805 23.54469680786133 L 9.181110382080078 25.89954566955566 C 9.353429794311523 26.23422622680664 9.694429397583008 26.44213676452637 10.07102966308594 26.44213676452637 C 10.2031307220459 26.44213676452637 10.33271980285645 26.41593551635742 10.45620918273926 26.36425590515137 L 12.84187030792236 25.36590576171875 C 13.21059989929199 25.21159553527832 13.60023975372314 25.13335609436035 13.99999046325684 25.13335609436035 C 14.39974021911621 25.13335609436035 14.78938961029053 25.21159553527832 15.15810966491699 25.36590576171875 L 17.54378890991211 26.36425590515137 C 17.66728973388672 26.41593551635742 17.79687881469727 26.44214630126953 17.92897033691406 26.44214630126953 C 18.30556106567383 26.44214630126953 18.64654922485352 26.2342357635498 18.81888008117676 25.89954566955566 L 20.03139114379883 23.54470634460449 C 20.39731025695801 22.83402633666992 21.0178394317627 22.30765533447266 21.7786693572998 22.06255531311035 L 24.27989959716797 21.25676536560059 C 24.77156066894531 21.09837532043457 25.05990982055664 20.59821701049805 24.95062065124512 20.09336471557617 L 24.37688064575195 17.44308471679688 C 24.21060943603516 16.67497634887695 24.34840965270996 15.88493633270264 24.76487922668457 15.218505859375 L 26.19804954528809 12.92513561248779 C 26.4699592590332 12.49001598358154 26.37022972106934 11.92354583740234 25.96606063842773 11.60746574401855 L 23.86185073852539 9.961854934692383 C 23.2386302947998 9.474485397338867 22.83863067626953 8.774076461791992 22.73553085327148 7.989656448364258 L 22.38499069213867 5.322854995727539 C 22.31980895996094 4.827005386352539 21.89410972595215 4.453105926513672 21.3946704864502 4.453155517578125 C 21.38018989562988 4.453155517578125 21.36555099487305 4.453466415405273 21.35103988647461 4.454086303710938 L 18.75931930541992 4.564275741577148 C 17.95541000366211 4.598592758178711 17.17979049682617 4.311756134033203 16.59214973449707 3.766946792602539 L 14.67988014221191 1.993995666503906 C 14.49440002441406 1.822036743164062 14.25294971466064 1.727325439453125 14 1.727325439453125 M 14 0.7273235321044922 C 14.48812484741211 0.7273235321044922 14.97624969482422 0.9051113128662109 15.35976982116699 1.260684967041016 L 17.27204132080078 3.033626556396484 C 17.66341018676758 3.396474838256836 18.18354797363281 3.587825775146484 18.71677017211914 3.565185546875 L 21.30855941772461 3.454986572265625 C 22.34391403198242 3.410980224609375 23.24140930175781 4.165084838867188 23.37646102905273 5.192535400390625 L 23.72700119018555 7.859334945678711 C 23.79531097412109 8.379066467285156 24.06493949890137 8.851205825805664 24.47787094116211 9.174125671386719 L 26.58209991455078 10.81974601745605 C 27.38817024230957 11.45013618469238 27.58838081359863 12.58729553222656 27.04607963562012 13.45508575439453 L 25.6129093170166 15.74845600128174 C 25.33682060241699 16.19024658203125 25.24402046203613 16.72233581542969 25.35424041748047 17.23151588439941 L 25.92798042297363 19.88178634643555 C 26.14557075500488 20.88692474365234 25.56541061401367 21.89324569702148 24.5865306854248 22.20859527587891 L 22.0853099822998 23.01438522338867 C 21.58159065246582 23.17665481567383 21.1627197265625 23.5319652557373 20.92045974731445 24.00247573852539 L 19.70795059204102 26.35732650756836 C 19.23038101196289 27.28483581542969 18.12010955810547 27.68947601318359 17.15773963928223 27.28673553466797 L 14.77206993103027 26.28838539123535 C 14.27811050415039 26.0816764831543 13.72188091278076 26.0816764831543 13.22791957855225 26.28838539123535 L 10.84225082397461 27.28673553466797 C 9.879884719848633 27.68946647644043 8.769609451293945 27.28483581542969 8.29203987121582 26.35732650756836 L 7.079540252685547 24.00247573852539 C 6.837270736694336 23.5319652557373 6.418399810791016 23.17665481567383 5.914680480957031 23.01437568664551 L 3.413459777832031 22.20858573913574 C 2.434579849243164 21.89323616027832 1.854429244995117 20.88691520690918 2.072019577026367 19.88177490234375 L 2.645759582519531 17.23150634765625 C 2.755979537963867 16.72233581542969 2.663179397583008 16.19024658203125 2.387090682983398 15.74844551086426 L 0.9539203643798828 13.45507621765137 C 0.4116191864013672 12.5872859954834 0.6118297576904297 11.45013618469238 1.417900085449219 10.81974601745605 L 3.522129058837891 9.174125671386719 C 3.935060501098633 8.851205825805664 4.204690933227539 8.379066467285156 4.273000717163086 7.859334945678711 L 4.623540878295898 5.192535400390625 C 4.758588790893555 4.165084838867188 5.656049728393555 3.410900115966797 6.691440582275391 3.454986572265625 L 9.283229827880859 3.565185546875 C 9.816450119018555 3.587892532348633 10.33659172058105 3.396476745605469 10.72794914245605 3.033626556396484 L 12.64023017883301 1.260684967041016 C 13.02375030517578 0.9051113128662109 13.51187515258789 0.7273235321044922 14 0.7273235321044922 Z" stroke="none" fill="#000"/>
    </g>
    <path id="패스_14310" data-name="패스 14310" d="M1.891-7.677c.248-.51.046-.764-.257-.855-.321-.1-.716.064-.964.582l-3.261,6.5c-.248.51-.037.774.276.865a.864.864,0,0,0,.974-.582ZM2.964-.561a1.534,1.534,0,0,0,1.681-1.62v-.9A1.539,1.539,0,0,0,2.964-4.7a1.546,1.546,0,0,0-1.69,1.62v.9A1.541,1.541,0,0,0,2.964-.561Zm0-1.2a.386.386,0,0,1-.395-.41v-.919a.392.392,0,0,1,.395-.41.385.385,0,0,1,.386.41v.919A.379.379,0,0,1,2.964-1.762ZM-3.665-4.419a1.534,1.534,0,0,0,1.681-1.62v-.9A1.539,1.539,0,0,0-3.665-8.56a1.546,1.546,0,0,0-1.69,1.62v.9A1.541,1.541,0,0,0-3.665-4.419Zm0-1.2a.386.386,0,0,1-.395-.41v-.919a.392.392,0,0,1,.395-.41.385.385,0,0,1,.386.41v.919A.379.379,0,0,1-3.665-5.621Z" transform="translate(146.355 621.561)"/>
  </g>
</svg>
