<svg id="Group_112770" data-name="Group 112770" xmlns="http://www.w3.org/2000/svg" width="36" height="36" viewBox="0 0 36 36">
  <g id="Group_112771" data-name="Group 112771">
    <path id="Path_38489" data-name="Path 38489" d="M36,18A18,18,0,1,1,18,0,18,18,0,0,1,36,18" transform="translate(0 0.001)" fill="#fbc300"/>
    <path id="Path_38490" data-name="Path 38490" d="M70.442,98.964a.677.677,0,0,1-.318-1.276l2.159-1.145-2.174-1.106a.677.677,0,1,1,.614-1.207l3.336,1.7a.677.677,0,0,1,.01,1.2l-3.311,1.756a.674.674,0,0,1-.317.079" transform="translate(-60.358 -81.491)"/>
    <path id="Path_38491" data-name="Path 38491" d="M166.6,98.963a.674.674,0,0,1-.317-.079l-3.311-1.756a.677.677,0,0,1,.01-1.2l3.336-1.7a.677.677,0,0,1,.614,1.207l-2.174,1.106,2.159,1.145a.677.677,0,0,1-.318,1.276" transform="translate(-140.742 -81.49)"/>
    <path id="Path_38492" data-name="Path 38492" d="M85.273,152.11a8.687,8.687,0,0,0,.941-3.655H68.77a8.685,8.685,0,0,0,1,3.76,20.022,20.022,0,0,1,15.507-.1" transform="translate(-59.52 -128.487)"/>
    <path id="Path_38493" data-name="Path 38493" d="M83.906,170.684a8.725,8.725,0,0,0,7.781-4.774,20.023,20.023,0,0,0-15.507.1,8.723,8.723,0,0,0,7.725,4.669" transform="translate(-65.934 -142.287)" fill="#ff3657"/>
  </g>
</svg>
