<?xml version="1.0" encoding="utf-8"?>
<!-- Generator: Adobe Illustrator 26.2.1, SVG Export Plug-In . SVG Version: 6.00 Build 0)  -->
<svg version="1.1" xmlns="http://www.w3.org/2000/svg" xmlns:xlink="http://www.w3.org/1999/xlink" x="0px" y="0px" viewBox="0 0 38 70" style="enable-background:new 0 0 38 70;" xml:space="preserve">
<style type="text/css">
.st0{fill:#9262FF;stroke:#000000;stroke-width:1.2;}
.st1{fill:#FFFFFF;stroke:#000000;stroke-width:1.2;stroke-linecap:round;stroke-linejoin:round;}
.st2{fill:#D8D1CB;}
.st3{fill:none;stroke:#000000;stroke-width:1.2;stroke-linecap:round;stroke-linejoin:round;}
.st4{fill:#FFFFFF;}
.st5{fill:none;stroke:#231815;stroke-width:6;stroke-linecap:round;stroke-linejoin:round;stroke-miterlimit:10;}
.st6{fill:none;stroke:#FC3F4B;stroke-width:3;stroke-linecap:round;stroke-linejoin:round;stroke-miterlimit:10;}

#check {animation:check both infinite linear 2s; stroke-dasharray:50; stroke-dashoffset:50;}	
@keyframes check {
0% {stroke-dashoffset:150;}
20% {stroke-dashoffset:150;}
50% {stroke-dashoffset:100;}
80% {stroke-dashoffset:50;}
100% {stroke-dashoffset:50;}
}
</style>
  <g id="body">
    <path id="Path_37072" class="st0" d="M19,37.1h-3.9c-0.7,0-1.3,0.6-1.3,1.3v0v22.3c0,0.7,0.6,1.3,1.3,1.3h0H19
      c0.7,0,1.3-0.6,1.3-1.3l0,0V38.5C20.4,37.7,19.8,37.1,19,37.1L19,37.1"/>
    <rect id="Rectangle_19814" x="15" y="28.4" class="st1" width="4.3" height="8.7"/>
    <path id="Path_37073" class="st2" d="M17.1,0.6C8,0.6,0.6,8,0.6,17.1S8,33.6,17.1,33.6c9.1,0,16.5-7.4,16.5-16.5
      C33.6,8,26.2,0.6,17.1,0.6C17.1,0.6,17.1,0.6,17.1,0.6 M17.1,29.6c-6.9,0-12.5-5.6-12.5-12.5S10.2,4.6,17.1,4.6
      c6.9,0,12.5,5.6,12.5,12.5C29.6,24,24,29.6,17.1,29.6C17.1,29.6,17.1,29.6,17.1,29.6"/>
    <path id="Path_37074" class="st3" d="M17.1,0.6C8,0.6,0.6,8,0.6,17.1S8,33.6,17.1,33.6c9.1,0,16.5-7.4,16.5-16.5
      C33.6,8,26.2,0.6,17.1,0.6C17.1,0.6,17.1,0.6,17.1,0.6z M17.1,29.6c-6.9,0-12.5-5.6-12.5-12.5S10.2,4.6,17.1,4.6
      c6.9,0,12.5,5.6,12.5,12.5C29.6,24,24,29.6,17.1,29.6C17.1,29.6,17.1,29.6,17.1,29.6L17.1,29.6z"/>
    <path id="Path_37075" class="st4" d="M17.1,4.6c-6.9,0-12.5,5.6-12.5,12.5s5.6,12.5,12.5,12.5c6.9,0,12.5-5.6,12.5-12.5
      C29.6,10.2,24,4.6,17.1,4.6C17.1,4.6,17.1,4.6,17.1,4.6"/>
    <circle id="Ellipse_337" class="st3" cx="17.1" cy="17.1" r="12.5"/>
  </g>
  <g id="check">
    <path class="st5" d="M9.7,14.8c0,0,7.3,4.4,9.1,7.4c0,0,1-13.3,3.3-16.7"/>
    <path class="st6" d="M9.7,14.8c0,0,7.3,4.4,9.1,7.4c0,0,1-13.3,3.3-16.7"/>
  </g>
</svg>
