<svg id="Group_112775" data-name="Group 112775" xmlns="http://www.w3.org/2000/svg" width="36" height="36" viewBox="0 0 36 36">
  <g id="Group_112776" data-name="Group 112776">
    <path id="Path_38500" data-name="Path 38500" d="M36,18A18,18,0,1,1,18,0,18,18,0,0,1,36,18" transform="translate(0 0.001)" fill="#fbc300"/>
    <path id="Path_38501" data-name="Path 38501" d="M115.924,161.206c0,2.537-1.475,4.594-3.294,4.594s-3.294-2.057-3.294-4.594,1.475-4.594,3.294-4.594,3.294,2.057,3.294,4.594" transform="translate(-94.63 -135.547)"/>
    <path id="Path_38502" data-name="Path 38502" d="M80.779,90.459a.455.455,0,0,1-.352-.743,2.731,2.731,0,0,1,3.385-.693.455.455,0,0,1-.424.806,1.822,1.822,0,0,0-2.257.463.454.454,0,0,1-.353.167" transform="translate(-69.52 -76.779)"/>
    <path id="Path_38503" data-name="Path 38503" d="M162.859,90.459a.455.455,0,0,0,.352-.743,2.731,2.731,0,0,0-3.385-.693.455.455,0,0,0,.424.806,1.822,1.822,0,0,1,2.257.463.454.454,0,0,0,.353.167" transform="translate(-138.117 -76.779)"/>
    <path id="Path_38504" data-name="Path 38504" d="M85.727,121.2c-.167,1.258-1,2.184-1.872,2.069s-1.435-1.228-1.269-2.485,1-2.184,1.872-2.069,1.435,1.227,1.269,2.485" transform="translate(-71.452 -102.742)"/>
    <path id="Path_38505" data-name="Path 38505" d="M161.335,121.2c.167,1.258,1,2.184,1.872,2.069s1.435-1.228,1.269-2.485-1-2.184-1.872-2.069-1.435,1.227-1.269,2.485" transform="translate(-139.609 -102.742)"/>
  </g>
</svg>
