<svg xmlns="http://www.w3.org/2000/svg" xmlns:xlink="http://www.w3.org/1999/xlink" width="32" height="32" viewBox="0 0 32 32">
  <defs>
    <linearGradient id="linear-gradient" x1="0.5" x2="0.5" y2="1" gradientUnits="objectBoundingBox">
      <stop offset="0" stop-color="#8027bb"/>
      <stop offset="0.463" stop-color="#d63f66"/>
      <stop offset="1" stop-color="#f09e4b"/>
    </linearGradient>
  </defs>
  <g id="인스타" transform="translate(-1858 -889)">
    <circle id="타원_39" data-name="타원 39" cx="16" cy="16" r="16" transform="translate(1858 889)" fill="url(#linear-gradient)"/>
    <path id="Icon_awesome-instagram" data-name="Icon awesome-instagram" d="M8,6.135a4.1,4.1,0,1,0,4.1,4.1A4.1,4.1,0,0,0,8,6.135ZM8,12.9a2.667,2.667,0,1,1,2.666-2.667A2.672,2.672,0,0,1,8,12.9Zm5.226-6.937a.957.957,0,1,1-.957-.957A.954.954,0,0,1,13.222,5.968Zm2.716.971a4.736,4.736,0,0,0-1.292-3.352,4.765,4.765,0,0,0-3.352-1.292c-1.321-.075-5.279-.075-6.6,0A4.758,4.758,0,0,0,1.343,3.583,4.751,4.751,0,0,0,.051,6.935c-.075,1.321-.075,5.28,0,6.6a4.736,4.736,0,0,0,1.292,3.352,4.771,4.771,0,0,0,3.352,1.292c1.321.075,5.279.075,6.6,0a4.733,4.733,0,0,0,3.352-1.292,4.767,4.767,0,0,0,1.292-3.352c.075-1.321.075-5.277,0-6.6Zm-1.706,8.015a2.7,2.7,0,0,1-1.521,1.521C11.659,16.893,9.16,16.8,8,16.8s-3.666.093-4.715-.321a2.7,2.7,0,0,1-1.521-1.521c-.418-1.053-.321-3.552-.321-4.716s-.093-3.667.321-4.716A2.7,2.7,0,0,1,3.281,4C4.334,3.583,6.833,3.679,8,3.679s3.666-.093,4.715.321a2.7,2.7,0,0,1,1.521,1.521c.418,1.053.321,3.552.321,4.716S14.65,13.9,14.232,14.954Z" transform="translate(1866.005 894.763)" fill="#fff"/>
  </g>
</svg>
