<svg xmlns="http://www.w3.org/2000/svg" xmlns:xlink="http://www.w3.org/1999/xlink" width="36" height="36" viewBox="0 0 36 36">
  <defs>
    <clipPath id="clip-path">
      <rect id="Rectangle_20679" data-name="Rectangle 20679" width="36" height="36" fill="none"/>
    </clipPath>
  </defs>
  <g id="Group_112789" data-name="Group 112789" transform="translate(0 0.008)">
    <g id="Group_112788" data-name="Group 112788" transform="translate(0 -0.008)" clip-path="url(#clip-path)">
      <path id="Path_38527" data-name="Path 38527" d="M36,18A18,18,0,1,1,18,0,18,18,0,0,1,36,18" transform="translate(0 0.013)" fill="#fbc300"/>
      <path id="Path_38528" data-name="Path 38528" d="M111.835,156.818a.677.677,0,0,1,.532,1.1,4.842,4.842,0,0,1-7.543.093.677.677,0,1,1,1.044-.863,3.487,3.487,0,0,0,5.433-.067.676.676,0,0,1,.533-.259" transform="translate(-90.591 -135.712)"/>
      <path id="Path_38529" data-name="Path 38529" d="M72.079,89.957a.527.527,0,0,0-.168-.937,3.163,3.163,0,0,0-3.655,1.627.527.527,0,0,0,.941.474,2.109,2.109,0,0,1,2.437-1.084.526.526,0,0,0,.445-.08" transform="translate(-59.026 -76.937)"/>
      <path id="Path_38530" data-name="Path 38530" d="M169.186,89.957a.527.527,0,0,1,.168-.937,3.163,3.163,0,0,1,3.655,1.627.527.527,0,0,1-.941.474,2.079,2.079,0,0,0-.656-.765,2.1,2.1,0,0,0-1.78-.319.526.526,0,0,1-.445-.08" transform="translate(-146.239 -76.937)"/>
      <path id="Path_38531" data-name="Path 38531" d="M78.222,112.509a1.635,1.635,0,1,1,1.63,1.756,1.7,1.7,0,0,1-1.63-1.756" transform="translate(-67.701 -95.844)"/>
      <path id="Path_38532" data-name="Path 38532" d="M168.439,112.509a1.635,1.635,0,1,0-1.63,1.756,1.7,1.7,0,0,0,1.63-1.756" transform="translate(-142.96 -95.844)"/>
    </g>
  </g>
</svg>
