<svg xmlns="http://www.w3.org/2000/svg" xmlns:xlink="http://www.w3.org/1999/xlink" width="29.165" height="28" viewBox="0 0 29.165 28">
  <defs>
    <clipPath id="clip-path">
      <rect id="사각형_20659" data-name="사각형 20659" width="27.332" height="23.763" transform="translate(-1 0)" fill="none" stroke="#707070" stroke-linecap="round" stroke-linejoin="round" stroke-width="1"/>
    </clipPath>
  </defs>
  <g id="icon" transform="translate(-975.229 -679.429)">
    <rect id="사각형_3388" data-name="사각형 3388" width="28" height="28" transform="translate(976.394 679.429)" fill="#fff" opacity="0"/>
    <g id="그룹_112424" data-name="그룹 112424" transform="translate(977.229 682.357)">
      <g id="그룹_112423" data-name="그룹 112423" transform="translate(-1)" clip-path="url(#clip-path)">
        <path id="패스_38191" data-name="패스 38191" d="M7.388,20.961a2.3,2.3,0,1,1,2.3,2.3,2.306,2.306,0,0,1-2.3-2.3ZM0,.5H3.05A2.887,2.887,0,0,1,5.884,2.767a.049.049,0,0,1,0,.017L8.02,13.957a.727.727,0,0,0,.724.543H22.217a.727.727,0,0,0,.714-.51L24.74,6.133a.205.205,0,0,1,.008-.028.624.624,0,0,0-.116-.541.757.757,0,0,0-.6-.286H13.591m4.956,15.683a2.3,2.3,0,1,1,2.3,2.3,2.306,2.306,0,0,1-2.3-2.3Z" fill="none" stroke="#040405" stroke-linecap="round" stroke-linejoin="round" stroke-miterlimit="10" stroke-width="1"/>
      </g>
    </g>
  </g>
</svg>
