<svg xmlns="http://www.w3.org/2000/svg" width="114" height="32.001" viewBox="0 0 114 32">
    <path id="pathTab" d="M12337.234,10191h-78a29.877,29.877,0,0,1-7.593-7.629,75.032,75.032,0,0,1-6.937-12.144,20.864,20.864,0,0,0-18.871-12.228h30.451v.006h16.677v.01h30.08c.063,0,.282-.017.63-.017a22.214,22.214,0,0,1,8.517,1.807,20.027,20.027,0,0,1,5.651,3.665,21.642,21.642,0,0,1,4.866,6.757,75.013,75.013,0,0,0,6.938,12.143,29.821,29.821,0,0,0,7.591,7.628Zm-112.2-31.984h-1.8V10159h2.277c-.25,0-.411.012-.469.016Z" transform="translate(-12223.234 -10158.999)" />
</svg>
