<svg xmlns="http://www.w3.org/2000/svg" width="25" height="26.063" viewBox="0 0 25 26.063">
    <defs>
        <clipPath id="clip-path">
            <path id="사각형_3398" data-name="사각형 3398" style="fill:none" d="M0 0h13.124v22.585H0z"/>
        </clipPath>
        <style>
            .cls-8{fill:#fcd462}
        </style>
    </defs>
    <g id="그룹_1774" data-name="그룹 1774" transform="translate(21572 18295.001)">
        <g id="그룹_1773" data-name="그룹 1773" transform="rotate(-34 -40693.624 26133.95)">
            <path id="패스_36218" data-name="패스 36218" d="m5.2 21.379 4.359 10.583 4.357-10.582z" transform="translate(-2.281 -9.376)" style="fill:#f96734"/>
            <g id="그룹_1772" data-name="그룹 1772">
                <g id="그룹_1771" data-name="그룹 1771" style="clip-path:url(#clip-path)">
                    <path id="패스_36219" data-name="패스 36219" d="M13.406 17.4H4.235a.718.718 0 0 0 0 1.435h9.172a.718.718 0 1 0 0-1.435" transform="translate(-1.542 -7.629)" style="fill:#f9a634"/>
                    <path id="사각형_3393" data-name="사각형 3393" transform="translate(6.499 2.26)" style="fill:#e56353" d="M0 0h1.344v3.303H0z"/>
                    <path id="사각형_3394" data-name="사각형 3394" transform="rotate(-45 13.07 -8.499)" style="fill:#44c4a1" d="M0 0h3.303v1.344H0z"/>
                    <path id="사각형_3395" data-name="사각형 3395" class="cls-8" transform="translate(9.999 -.001)" d="M0 0h2.218v1.344H0z"/>
                    <path id="사각형_3396" data-name="사각형 3396" class="cls-8" transform="rotate(-45 8.506 -.582)" d="M0 0h1.344v3.303H0z"/>
                    <path id="사각형_3397" data-name="사각형 3397" transform="rotate(-45 4.775 1.978)" style="fill:#7dd5f4" d="M0 0h3.303v1.344H0z"/>
                </g>
            </g>
        </g>
    </g>
</svg>
