<svg xmlns="http://www.w3.org/2000/svg" xmlns:xlink="http://www.w3.org/1999/xlink" width="52.274" height="73.001" viewBox="0 0 52.274 73.001">
  <defs>
    <clipPath id="clip-path">
      <rect id="사각형_19873" data-name="사각형 19873" width="52.274" height="73.001" transform="translate(-1 -1)" fill="none"/>
    </clipPath>
  </defs>
  <g id="그룹_110091" data-name="그룹 110091" transform="translate(1 1)" clip-path="url(#clip-path)">
    <path id="패스_37274" data-name="패스 37274" d="M26.393,70.18S35.6,86.1,58.438,86.1V80.015S42.917,77.008,36.2,55.268" transform="translate(-7.28 -15.186)" fill="#fec211"/>
    <path id="패스_37275" data-name="패스 37275" d="M26.393,70.18S35.6,86.1,58.438,86.1V80.015S42.917,77.008,36.2,55.268" transform="translate(-7.28 -15.186)" fill="none" stroke="#040405" stroke-linecap="round" stroke-linejoin="round" stroke-width="2.5"/>
    <path id="패스_37276" data-name="패스 37276" d="M30.124,37.964c0-.009.005-.02,0-.028-5.708-8.881-2.829-19.53-8.369-19.53-4.8,0-9.173,10.494-4.486,16.775h-.061c-7.517,0-9.581,6.093-9.581,13.611S9.69,62.4,17.207,62.4s17.64-.824,17.64-13.611c0-5.579-1.927-8.879-4.723-10.829" transform="translate(-2.124 -5.058)" fill="#fec211"/>
    <path id="패스_37277" data-name="패스 37277" d="M30.124,37.964c0-.009.005-.02,0-.028-5.708-8.881-2.829-19.53-8.369-19.53-4.8,0-9.173,10.494-4.486,16.775h-.061c-7.517,0-9.581,6.093-9.581,13.611S9.69,62.4,17.207,62.4s17.64-.824,17.64-13.611C34.847,43.214,32.92,39.914,30.124,37.964Z" transform="translate(-2.124 -5.058)" fill="none" stroke="#040405" stroke-linecap="round" stroke-linejoin="round" stroke-width="2.5"/>
    <path id="패스_37278" data-name="패스 37278" d="M20.694,44.4c0,3.821-3.948,4.455-8.819,4.455s-8.82-.634-8.82-4.455S7,39.944,11.876,39.944s8.819.634,8.819,4.455" transform="translate(-0.868 -10.975)" fill="#fec211"/>
    <path id="패스_37279" data-name="패스 37279" d="M20.694,44.4c0,3.821-3.948,4.455-8.819,4.455s-8.82-.634-8.82-4.455S7,39.944,11.876,39.944,20.694,40.578,20.694,44.4Z" transform="translate(-0.868 -10.975)" fill="none" stroke="#040405" stroke-linecap="round" stroke-linejoin="round" stroke-width="2.5"/>
    <path id="패스_37280" data-name="패스 37280" d="M20.208,52.724c.307,4.05-3.826,5.038-8.988,5.43s-9.4.038-9.7-4.012S5.342,49.1,10.5,48.712s9.4-.038,9.7,4.012" transform="translate(-0.441 -13.351)" fill="#fec211"/>
    <path id="패스_37281" data-name="패스 37281" d="M20.208,52.724c.307,4.05-3.826,5.038-8.988,5.43s-9.4.038-9.7-4.012S5.342,49.1,10.5,48.712,19.9,48.674,20.208,52.724Z" transform="translate(-0.441 -13.351)" fill="none" stroke="#040405" stroke-linecap="round" stroke-linejoin="round" stroke-width="2.5"/>
    <g id="그룹_110093" data-name="그룹 110093">
      <g id="그룹_110092" data-name="그룹 110092">
        <line id="선_774" data-name="선 774" y1="6.817" transform="translate(19.113 1.088)" fill="#ffb200"/>
        <line id="선_775" data-name="선 775" y1="6.817" transform="translate(19.113 1.088)" fill="none" stroke="#040405" stroke-linecap="round" stroke-linejoin="round" stroke-width="2.5"/>
        <line id="선_779" data-name="선 779" y1="6.294" x2="2.617" transform="translate(24.719 3.211)" fill="none" stroke="#040405" stroke-linecap="round" stroke-linejoin="round" stroke-width="2.5"/>
      </g>
      <line id="선_777" data-name="선 777" x1="2.617" y1="6.294" transform="translate(10.889 3.211)" fill="none" stroke="#040405" stroke-linecap="round" stroke-linejoin="round" stroke-width="2.5"/>
    </g>
    <line id="선_776" data-name="선 776" x1="2.617" y1="6.294" transform="translate(10.889 3.211)" fill="#ffb200"/>
    <line id="선_778" data-name="선 778" y1="6.294" x2="2.617" transform="translate(24.719 3.211)" fill="#ffb200"/>
    <path id="패스_37282" data-name="패스 37282" d="M20.943,62.235c.631,4.012-3.41,5.329-8.524,6.133s-9.364.791-9.994-3.222,3.411-5.328,8.524-6.133,9.364-.79,9.994,3.222" transform="translate(-0.677 -16.1)" fill="#fec211"/>
    <path id="패스_37283" data-name="패스 37283" d="M20.943,62.235c.631,4.012-3.41,5.329-8.524,6.133s-9.364.791-9.994-3.222,3.411-5.328,8.524-6.133S20.312,58.223,20.943,62.235Z" transform="translate(-0.677 -16.1)" fill="none" stroke="#040405" stroke-linecap="round" stroke-linejoin="round" stroke-width="2.5"/>
    <path id="패스_37284" data-name="패스 37284" d="M22.519,71.441c.556,3.535-3,4.7-7.511,5.4s-8.25.7-8.806-2.839,3-4.7,7.511-5.4,8.25-.7,8.806,2.839" transform="translate(-1.717 -18.749)" fill="#fec211"/>
    <path id="패스_37285" data-name="패스 37285" d="M22.519,71.441c.556,3.535-3,4.7-7.511,5.4s-8.25.7-8.806-2.839,3-4.7,7.511-5.4S21.963,67.906,22.519,71.441Z" transform="translate(-1.717 -18.749)" fill="none" stroke="#040405" stroke-linecap="round" stroke-linejoin="round" stroke-width="2.5"/>
  </g>
</svg>
