<?xml version="1.0" encoding="utf-8"?>
<svg xmlns="http://www.w3.org/2000/svg" width="73.999" height="70.379" viewBox="0 0 73.999 70.379">
<style type="text/css">
    .star1 {position:relative; animation:flicker infinite 2s 1s;}
    .star2 {position:relative; animation:flicker infinite 2s; .5s}
    @keyframes flicker {
        0% {opacity:1;}
        50% {opacity:0;}
        100% {opacity:0.6}
    }
</style>
  <g id="img" transform="translate(12957 2511)">
    <g id="그룹_112023" data-name="그룹 112023">
      <g id="그룹_112016" data-name="그룹 112016" transform="translate(-6)">
        <circle id="타원_687" data-name="타원 687" cx="32" cy="32" r="32" transform="translate(-12949 -2507)" fill="#fff"/>
        <g id="타원_688" data-name="타원 688" transform="translate(-12947 -2505)" stroke="#000" stroke-width="1">
          <circle cx="30" cy="30" r="30" stroke="none"/>
          <circle cx="30" cy="30" r="29.5" fill="none"/>
        </g>
        <ellipse id="타원_690" data-name="타원 690" cx="8" cy="2" rx="8" ry="2" transform="translate(-12903.557 -2498.853) rotate(45)" fill="#fff"/>
      </g>
      <g id="그룹_112017" data-name="그룹 112017" transform="translate(-6 1.75)">
        <g id="그룹_115617" data-name="그룹 115617" transform="translate(-12928.642 -2492.749)">
          <g id="그룹_115619" data-name="그룹 115619" transform="translate(0 -0.001)">
            <path id="패스_40621" data-name="패스 40621" d="M42.682,19.764l3.635-1.819S47.6,11.432,47.6,15.711s4.737,3.418,4.737,3.418l2.956-.467a.508.508,0,0,1,.6.528l-.055,5.529a.754.754,0,0,1-.614.716l-17.458,2.76a.508.508,0,0,1-.6-.528l.047-4.245s.092-1.666-1.489-1.666c-1.663,0,1.261-1.561,1.261-1.561Z" transform="translate(-32.611 -13.201)" fill="#fff"/>
            <path id="패스_40622" data-name="패스 40622" d="M91.678,123.058l-.035,3.582-.783.123.014-1.455-1.55.243-.014,1.455-.783.123.035-3.582.783-.123-.014,1.42,1.55-.243.014-1.42Z" transform="translate(-81.984 -113.964)" fill="#070203"/>
            <path id="패스_40623" data-name="패스 40623" d="M203.082,106.464l-1.141.179-.028,2.874-.783.123.028-2.874-1.141.179.007-.708,3.065-.48Z" transform="translate(-185.235 -97.94)" fill="#070203"/>
            <path id="패스_40624" data-name="패스 40624" d="M251.371,98.9l-1.141.179-.028,2.874-.783.123.028-2.874-1.141.179.007-.708,3.065-.48Z" transform="translate(-229.956 -90.933)" fill="#070203"/>
            <path id="패스_40625" data-name="패스 40625" d="M142.647,118.738l-1.43-1.238a1.188,1.188,0,0,1,.016-1.658,1.163,1.163,0,0,1,1.624-.254l.024.021.025-.029a1.16,1.16,0,0,1,1.624-.244,1.188,1.188,0,0,1-.016,1.647l-1.676,1.927Z" transform="translate(-130.476 -106.595)" fill="#ca121f"/>
            <path id="패스_40626" data-name="패스 40626" d="M14.344,6.785.6,8.949A.506.506,0,0,1,0,8.422L.051,2.888A.755.755,0,0,1,.664,2.17L14.407.007a.506.506,0,0,1,.6.527l-.052,5.534a.755.755,0,0,1-.612.718" transform="translate(0 0.001)" fill="#ca121f"/>
            <path id="패스_40627" data-name="패스 40627" d="M29.22,47.659l-.025,2.693,1.633-.257-.006.663-2.363.372.031-3.356Z" transform="translate(-26.355 -44.137)" fill="#fff"/>
            <path id="패스_40628" data-name="패스 40628" d="M66.188,41.839l-.031,3.356-.73.115.031-3.356Z" transform="translate(-60.591 -38.747)" fill="#fff"/>
            <path id="패스_40629" data-name="패스 40629" d="M83.551,33.959l-1.323,3.559-.786.124-1.26-3.152.826-.13.867,2.33.91-2.61Z" transform="translate(-74.255 -31.45)" fill="#fff"/>
            <path id="패스_40630" data-name="패스 40630" d="M129.835,28.463l2.431-.383-.006.65-1.7.268-.006.684,1.561-.246-.006.65-1.561.246-.007.72,1.737-.274-.006.651-2.467.388Z" transform="translate(-120.211 -26.005)" fill="#fff"/>
            <path id="패스_40631" data-name="패스 40631" d="M169.452,27.576l-.5.078-.163-2.215.867-.136Zm.17.709a.509.509,0,0,1-.429.5.344.344,0,0,1-.421-.365.513.513,0,0,1,.429-.5.346.346,0,0,1,.421.369" transform="translate(-156.298 -23.433)" fill="#fff"/>
          </g>
        </g>
      </g>
      <g id="그룹_112015" data-name="그룹 112015" transform="translate(-43.833 5.686)">
        <g id="다각형_41" data-name="다각형 41" transform="translate(-12911.167 -2514.686)" fill="#d4ff1a" stroke-linecap="round" stroke-linejoin="round">
          <path d="M 13.29596042633057 21.74930953979492 L 11.64430046081543 19.61136054992676 L 9.5 16.83571815490723 L 7.355700016021729 19.61136054992676 L 5.704040050506592 21.74930953979492 L 5.56564998626709 19.05121994018555 L 5.378971099853516 15.41159534454346 L 2.084000110626221 16.33428001403809 L -0.3769200146198273 17.02339935302734 L 0.9627500176429749 14.8471097946167 L 2.872992515563965 11.74392127990723 L -0.3757399916648865 10.42671966552734 L -2.661410093307495 9.5 L -0.3757399916648865 8.573280334472656 L 2.87299370765686 7.256078243255615 L 0.9627500176429749 4.152880191802979 L -0.3769200146198273 1.976580023765564 L 2.084000110626221 2.665709972381592 L 5.378981113433838 3.588402986526489 L 5.565659999847412 -0.05121999979019165 L 5.704050064086914 -2.74931001663208 L 7.355710029602051 -0.6113600134849548 L 9.500012397766113 2.164284944534302 L 11.64430046081543 -0.6113499999046326 L 13.29596042633057 -2.74931001663208 L 13.43435001373291 -0.05121999979019165 L 13.62102890014648 3.588404893875122 L 16.91600036621094 2.665719985961914 L 19.37692070007324 1.976600050926208 L 18.03725051879883 4.152890205383301 L 16.12700843811035 7.256078720092773 L 19.37574005126953 8.573280334472656 L 21.66140937805176 9.5 L 19.37574005126953 10.42671966552734 L 16.12700843811035 11.74392127990723 L 18.03725051879883 14.8471097946167 L 19.37692070007324 17.02339935302734 L 16.91600036621094 16.33428001403809 L 13.62102890014648 15.41159534454346 L 13.43435001373291 19.05121994018555 L 13.29596042633057 21.74930953979492 Z" stroke="none"/>
          <path d="M 6.564350128173828 0 L 6.313610076904297 4.88860034942627 L 1.814340591430664 3.628669738769531 L 4.344300270080566 7.73859977722168 L 0 9.5 L 4.344300270080566 11.26140022277832 L 1.814340591430664 15.37131977081299 L 6.313599586486816 14.11140060424805 L 6.564339637756348 19 L 9.5 15.19999980926514 L 12.43565940856934 19 L 12.68639945983887 14.11140060424805 L 17.18565940856934 15.37131977081299 L 14.65570068359375 11.26140022277832 L 19 9.5 L 14.65570068359375 7.73859977722168 L 17.18565940856934 3.628680229187012 L 12.68639945983887 4.88860034942627 L 12.43565940856934 0 L 9.500009536743164 3.800000190734863 L 6.564350128173828 0 M 6.564136505126953 -2.000112533569336 C 7.17270565032959 -2.000112533569336 7.761556625366211 -1.721719741821289 8.147060394287109 -1.222709655761719 L 9.500007629394531 0.5285835266113281 L 10.85295009613037 -1.222709655761719 C 11.36453056335449 -1.884918212890625 12.23431015014648 -2.15864372253418 13.03293037414551 -1.908729553222656 C 13.83155059814453 -1.658830642700195 14.39017009735107 -0.9381599426269531 14.433030128479 -0.1024494171142578 L 14.55564975738525 2.288225173950195 L 16.6463508605957 1.702770233154297 C 17.43914985656738 1.480756759643555 18.28700065612793 1.767261505126953 18.78263092041016 2.424650192260742 C 19.27827072143555 3.082050323486328 19.32041931152344 3.97599983215332 18.88883018493652 4.677109718322754 L 17.59831619262695 6.773548126220703 L 19.75148010253906 7.646550178527832 C 20.50620079040527 7.952549934387207 21 8.685609817504883 21 9.5 C 21 10.31439018249512 20.50620079040527 11.04745006561279 19.75148010253906 11.35344982147217 L 17.59831619262695 12.2264518737793 L 18.88883018493652 14.32288932800293 C 19.32041931152344 15.02400016784668 19.27827072143555 15.91794967651367 18.78263092041016 16.57534980773926 C 18.28700065612793 17.23274040222168 17.43914985656738 17.51923942565918 16.6463508605957 17.2972297668457 L 14.55564975738525 16.7117748260498 L 14.433030128479 19.10244941711426 C 14.39017009735107 19.93815994262695 13.8315601348877 20.6588306427002 13.03293037414551 20.90872955322266 C 12.23431015014648 21.15863990783691 11.36454010009766 20.88492965698242 10.85295009613037 20.22270965576172 L 9.5 18.47141456604004 L 8.147049903869629 20.22270965576172 C 7.635459899902344 20.88492965698242 6.765686988830566 21.15863990783691 5.967069625854492 20.90872955322266 C 5.168439865112305 20.6588306427002 4.609829902648926 19.93815994262695 4.566969871520996 19.10244941711426 L 4.444350242614746 16.7117748260498 L 2.353649139404297 17.2972297668457 C 1.560853958129883 17.51923942565918 0.7130012512207031 17.23274040222168 0.2173690795898438 16.57534980773926 C -0.2782707214355469 15.91794967651367 -0.3204193115234375 15.02400016784668 0.1111698150634766 14.32288932800293 L 1.401683807373047 12.2264518737793 L -0.7514801025390625 11.35344982147217 C -1.506200790405273 11.04745006561279 -2 10.31439018249512 -2 9.5 C -2 8.685609817504883 -1.506200790405273 7.952549934387207 -0.7514801025390625 7.646550178527832 L 1.40168571472168 6.773547172546387 L 0.1111698150634766 4.67710018157959 C -0.3204193115234375 3.975990295410156 -0.2782707214355469 3.082030296325684 0.2173690795898438 2.424640655517578 C 0.7130088806152344 1.767250061035156 1.560848236083984 1.480745315551758 2.353649139404297 1.702760696411133 L 4.444360733032227 2.28822135925293 L 4.566980361938477 -0.1024494171142578 C 4.609840393066406 -0.9381599426269531 5.168450355529785 -1.658830642700195 5.967080116271973 -1.908729553222656 C 6.163908004760742 -1.97032356262207 6.365092277526855 -2.000112533569336 6.564136505126953 -2.000112533569336 Z" stroke="none" fill="#fff"/>
        </g>
        <path id="다각형_40" class="fire"  data-name="다각형 40" d="M12.436,0l.251,4.889,4.5-1.26-2.53,4.11L19,9.5l-4.344,1.761,2.53,4.11-4.5-1.26L12.436,19,9.5,15.2,6.564,19l-.251-4.889-4.5,1.26,2.53-4.11L0,9.5,4.344,7.739l-2.53-4.11,4.5,1.26L6.564,0,9.5,3.8Z" transform="translate(-12911.167 -2514.686)" fill="#ffde09" stroke="#000" stroke-linecap="round" stroke-linejoin="round" stroke-width="1"/>
      </g>
    </g>
    <path id="빼기_2" class="star1" data-name="빼기 2" d="M34,42.758h0c-.023-3.777-2.266-6.85-5-6.85,2.757,0,5-3.1,5-6.908a8.364,8.364,0,0,0,1.466,4.882A4.407,4.407,0,0,0,39,35.908C36.265,35.908,34.023,38.981,34,42.758Z" transform="translate(-12922 -2488.758)" fill="#fff"/>
    <path id="빼기_3" class="star2" data-name="빼기 3" d="M32,37.758h0c-.014-2.4-1.359-4.361-3-4.361,1.654,0,3-1.973,3-4.4a5.556,5.556,0,0,0,.88,3.108A2.614,2.614,0,0,0,35,33.4C33.359,33.4,32.014,35.353,32,37.758Z" transform="translate(-12928 -2478.379)" fill="#fff"/>
  </g>
</svg>
