<svg xmlns="http://www.w3.org/2000/svg" xmlns:xlink="http://www.w3.org/1999/xlink" width="50" height="50" viewBox="0 0 50 50">
  <defs>
    <linearGradient id="linear-gradient" x1="0.994" y1="1" x2="0.044" y2="0.24" gradientUnits="objectBoundingBox">
      <stop offset="0" stop-color="#f5ae6a"/>
      <stop offset="1" stop-color="#ffd4ac"/>
    </linearGradient>
    <filter id="Union_165" x="6.498" y="9.991" width="41.016" height="38.011" filterUnits="userSpaceOnUse">
      <feOffset dx="2" dy="4" input="SourceAlpha"/>
      <feGaussianBlur stdDeviation="2" result="blur"/>
      <feFlood flood-opacity="0.102"/>
      <feComposite operator="in" in2="blur"/>
      <feComposite in="SourceGraphic"/>
    </filter>
    <linearGradient id="linear-gradient-2" x1="0.994" y1="1" x2="0.044" y2="0.24" gradientUnits="objectBoundingBox">
      <stop offset="0" stop-color="#ffaf24"/>
      <stop offset="1" stop-color="#fbc97d"/>
    </linearGradient>
    <linearGradient id="linear-gradient-3" x1="0.064" y1="0.015" x2="0.886" y2="1" gradientUnits="objectBoundingBox">
      <stop offset="0" stop-color="#ff628c"/>
      <stop offset="1" stop-color="#f42664"/>
    </linearGradient>
    <linearGradient id="linear-gradient-4" x1="0.104" y1="0.106" x2="0.868" y2="0.93" gradientUnits="objectBoundingBox">
      <stop offset="0" stop-color="#fff"/>
      <stop offset="1" stop-color="#ffcfcf"/>
    </linearGradient>
    <linearGradient id="linear-gradient-5" x1="0.461" y1="0.199" x2="0.5" y2="1" gradientUnits="objectBoundingBox">
      <stop offset="0" stop-color="#fff0d9"/>
      <stop offset="1" stop-color="#fff9f1"/>
    </linearGradient>
  </defs>
  <g id="Group_112440" data-name="Group 112440" transform="translate(-298 -336)">
    <rect id="Rectangle_20683" data-name="Rectangle 20683" width="50" height="50" transform="translate(298 336)" fill="#fff" opacity="0"/>
    <g id="icon" transform="translate(17889 19577)">
      <g id="icon-2" data-name="icon" transform="translate(-18554.895 -19908.93)">
        <g id="icon-3" data-name="icon" transform="translate(975.895 679.429)">
          <g transform="matrix(1, 0, 0, 1, -12, -11.5)" filter="url(#Union_165)">
            <path id="Union_165-2" data-name="Union 165" d="M21411.65,2637.966h-.031a7.049,7.049,0,0,1-4.373-1.581l-.246-.2v-.22a2,2,0,0,1-2,2h-4a2,2,0,0,1-2-2V2621.99a2,2,0,0,1,2-2h4a2,2,0,0,1,2,2v.861l3.619-8.809a1.743,1.743,0,0,1,2.484-.85c1.328.748,1.709,4.366,1.01,7.835a.95.95,0,0,0,1.027,1.049l7.605-1c2.635,0,4.693,2.409,4.172,4.442l-2.457,9.8a4.057,4.057,0,0,1-4.1,2.646Z" transform="translate(-21388 -2600.46)" stroke="rgba(0,0,0,0)" stroke-miterlimit="10" stroke-width="1" fill="url(#linear-gradient)"/>
          </g>
          <path id="Path_37326" data-name="Path 37326" d="M22.245,7.611l-7.606,1a.945.945,0,0,1-1.023-1.047c.7-3.471.314-7.09-1.015-7.838a1.745,1.745,0,0,0-2.484.852L6.5,9.389V22.722l.248.2A7.047,7.047,0,0,0,11.121,24.5h8.745a4.054,4.054,0,0,0,4.094-2.644l2.46-9.8c.517-2.036-1.541-4.444-4.175-4.444" transform="translate(0.5 1.5)" fill="url(#linear-gradient-2)"/>
          <rect id="Rectangle_19888" data-name="Rectangle 19888" width="8" height="18" rx="2" transform="translate(-1 8)" fill="url(#linear-gradient-3)"/>
          <circle id="Ellipse_674" data-name="Ellipse 674" cx="2" cy="2" r="2" transform="translate(1 20)" fill="url(#linear-gradient-4)"/>
          <path id="Intersection_9" data-name="Intersection 9" d="M21401.949,2615.825l.7-1.7a1.629,1.629,0,0,1,1.246-1.041c.646.474-.061,2.164-.326,2.789-.062.146-.232.2-.459.2A4.057,4.057,0,0,1,21401.949,2615.825Z" transform="translate(-21392.033 -2612.045)" fill="url(#linear-gradient-5)"/>
        </g>
      </g>
      <rect id="Rectangle_20386" data-name="Rectangle 20386" width="36" height="36" transform="translate(-17584 -19234)" fill="none"/>
    </g>
  </g>
</svg>
