<svg xmlns="http://www.w3.org/2000/svg" xmlns:xlink="http://www.w3.org/1999/xlink" width="50" height="50" viewBox="0 0 50 50">
  <defs>
    <linearGradient id="linear-gradient" x1="0.047" y1="0.056" x2="0.95" y2="0.944" gradientUnits="objectBoundingBox">
      <stop offset="0" stop-color="#ff628c"/>
      <stop offset="1" stop-color="#f42664"/>
    </linearGradient>
    <filter id="Union_150" x="7.535" y="7.5" width="38.927" height="42.928" filterUnits="userSpaceOnUse">
      <feOffset dx="2" dy="4" input="SourceAlpha"/>
      <feGaussianBlur stdDeviation="2" result="blur"/>
      <feFlood flood-opacity="0.161"/>
      <feComposite operator="in" in2="blur"/>
    </filter>
    <filter id="Union_150-2" x="7.535" y="7.5" width="38.927" height="42.928" filterUnits="userSpaceOnUse">
      <feOffset input="SourceAlpha"/>
      <feGaussianBlur stdDeviation="0.5" result="blur-2"/>
      <feFlood flood-color="#fff" flood-opacity="0.161" result="color"/>
      <feComposite operator="out" in="SourceGraphic" in2="blur-2"/>
      <feComposite operator="in" in="color"/>
      <feComposite operator="in" in2="SourceGraphic"/>
    </filter>
    <linearGradient id="linear-gradient-3" x1="0.047" y1="0.056" x2="0.988" y2="1.041" gradientUnits="objectBoundingBox">
      <stop offset="0" stop-color="#fff"/>
      <stop offset="1" stop-color="#ffdbe5"/>
    </linearGradient>
    <linearGradient id="linear-gradient-4" x1="0.097" y1="0.025" x2="0.924" y2="0.878" gradientUnits="objectBoundingBox">
      <stop offset="0" stop-color="#ffde09"/>
      <stop offset="1" stop-color="#feaf11"/>
    </linearGradient>
    <linearGradient id="linear-gradient-5" x1="-0.008" y1="0.492" x2="0.975" y2="0.486" gradientUnits="objectBoundingBox">
      <stop offset="0" stop-color="#5a5858"/>
      <stop offset="1" stop-color="#1e1e1e"/>
    </linearGradient>
    <filter id="Exclusion_1" x="11.535" y="13.5" width="26.927" height="27" filterUnits="userSpaceOnUse">
      <feOffset input="SourceAlpha"/>
      <feGaussianBlur stdDeviation="0.5" result="blur-3"/>
      <feFlood flood-color="#fff" flood-opacity="0.161" result="color-2"/>
      <feComposite operator="out" in="SourceGraphic" in2="blur-3"/>
      <feComposite operator="in" in="color-2"/>
      <feComposite operator="in" in2="SourceGraphic"/>
    </filter>
    <linearGradient id="linear-gradient-8" x1="-0.008" y1="0.508" x2="0.975" y2="0.514" xlink:href="#linear-gradient-5"/>
    <linearGradient id="linear-gradient-9" x1="0.097" y1="0.025" x2="0.924" y2="0.878" xlink:href="#linear-gradient"/>
    <filter id="Ellipse_641" x="19" y="23" width="16" height="16" filterUnits="userSpaceOnUse">
      <feOffset dx="2" dy="4" input="SourceAlpha"/>
      <feGaussianBlur stdDeviation="2" result="blur-4"/>
      <feFlood flood-opacity="0.161"/>
      <feComposite operator="in" in2="blur-4"/>
      <feComposite in="SourceGraphic"/>
    </filter>
  </defs>
  <g id="Group_112437" data-name="Group 112437" transform="translate(-94 -336)">
    <rect id="Rectangle_20680" data-name="Rectangle 20680" width="50" height="50" transform="translate(94 336)" fill="#fff" opacity="0"/>
    <g id="icon" transform="translate(17853 19576)">
      <g id="icon-2" data-name="icon" transform="translate(-18724.395 -19908.43)">
        <g id="오늘만특가_아이콘" transform="translate(976.895 678.429)">
          <g data-type="innerShadowGroup">
            <g transform="matrix(1, 0, 0, 1, -11.5, -10)" filter="url(#Union_150)">
              <path id="Union_150-3" data-name="Union 150" d="M0,16.964a12.907,12.907,0,0,1,1.539-6.132l-.66-.66a2,2,0,0,1,0-2.828L2.3,5.929a2,2,0,0,1,2.829,0l.41.411a12.889,12.889,0,0,1,6.432-2.3V3.5H10.717a1.75,1.75,0,1,1,0-3.5h4.5a1.75,1.75,0,0,1,0,3.5h-1.25v.538a12.89,12.89,0,0,1,6.432,2.3l.411-.411a2,2,0,0,1,2.828,0l1.414,1.414a2,2,0,0,1,0,2.828l-.661.661A12.965,12.965,0,1,1,0,16.964Z" transform="translate(12.03 10)" stroke="rgba(0,0,0,0)" stroke-miterlimit="10" stroke-width="1" fill="url(#linear-gradient)"/>
            </g>
            <path id="Union_150-4" data-name="Union 150" d="M0,16.964a12.907,12.907,0,0,1,1.539-6.132l-.66-.66a2,2,0,0,1,0-2.828L2.3,5.929a2,2,0,0,1,2.829,0l.41.411a12.889,12.889,0,0,1,6.432-2.3V3.5H10.717a1.75,1.75,0,1,1,0-3.5h4.5a1.75,1.75,0,0,1,0,3.5h-1.25v.538a12.89,12.89,0,0,1,6.432,2.3l.411-.411a2,2,0,0,1,2.828,0l1.414,1.414a2,2,0,0,1,0,2.828l-.661.661A12.965,12.965,0,1,1,0,16.964Z" transform="translate(0.533)" fill="url(#linear-gradient)"/>
            <g transform="matrix(1, 0, 0, 1, -11.5, -10)" filter="url(#Union_150-2)">
              <path id="Union_150-5" data-name="Union 150" d="M0,16.964a12.907,12.907,0,0,1,1.539-6.132l-.66-.66a2,2,0,0,1,0-2.828L2.3,5.929a2,2,0,0,1,2.829,0l.41.411a12.889,12.889,0,0,1,6.432-2.3V3.5H10.717a1.75,1.75,0,1,1,0-3.5h4.5a1.75,1.75,0,0,1,0,3.5h-1.25v.538a12.89,12.89,0,0,1,6.432,2.3l.411-.411a2,2,0,0,1,2.828,0l1.414,1.414a2,2,0,0,1,0,2.828l-.661.661A12.965,12.965,0,1,1,0,16.964Z" transform="translate(12.03 10)" fill="#fff"/>
            </g>
            <path id="Union_150-6" data-name="Union 150" d="M0,16.964a12.907,12.907,0,0,1,1.539-6.132l-.66-.66a2,2,0,0,1,0-2.828L2.3,5.929a2,2,0,0,1,2.829,0l.41.411a12.889,12.889,0,0,1,6.432-2.3V3.5H10.717a1.75,1.75,0,1,1,0-3.5h4.5a1.75,1.75,0,0,1,0,3.5h-1.25v.538a12.89,12.89,0,0,1,6.432,2.3l.411-.411a2,2,0,0,1,2.828,0l1.414,1.414a2,2,0,0,1,0,2.828l-.661.661A12.965,12.965,0,1,1,0,16.964Z" transform="translate(0.533)" fill="none" stroke="rgba(0,0,0,0)" stroke-miterlimit="10" stroke-width="1"/>
          </g>
          <rect id="Rectangle_19703" data-name="Rectangle 19703" width="20" height="20" rx="10" transform="translate(3.5 7)" fill="url(#linear-gradient-3)"/>
          <path id="Rectangle_19710" data-name="Rectangle 19710" d="M2,0H4A2,2,0,0,1,6,2V4A0,0,0,0,1,6,4H0A0,0,0,0,1,0,4V2A2,2,0,0,1,2,0Z" transform="translate(0 8.758) rotate(-45)" fill="url(#linear-gradient-4)"/>
          <rect id="Rectangle_19707" data-name="Rectangle 19707" width="1" height="7" rx="0.5" transform="translate(17.969 11.855) rotate(45)" fill="url(#linear-gradient-5)"/>
          <path id="Rectangle_19711" data-name="Rectangle 19711" d="M0,0H6A0,0,0,0,1,6,0V2A2,2,0,0,1,4,4H2A2,2,0,0,1,0,2V0A0,0,0,0,1,0,0Z" transform="translate(24.172 11.586) rotate(-135)" fill="url(#linear-gradient-4)"/>
          <rect id="Rectangle_19708" data-name="Rectangle 19708" width="2" height="4" transform="translate(12.5 2)" fill="#f42664"/>
          <g data-type="innerShadowGroup">
            <path id="Exclusion_1-2" data-name="Exclusion 1" d="M12.964,26A12.964,12.964,0,0,1,0,13.037v-.073A12.964,12.964,0,0,1,22.13,3.8a12.879,12.879,0,0,1,3.8,9.167v.073A12.964,12.964,0,0,1,12.964,26Zm0-23a10,10,0,1,0,10,10A10.011,10.011,0,0,0,12.965,3Z" transform="translate(0.535 4)" fill="url(#linear-gradient)"/>
            <g transform="matrix(1, 0, 0, 1, -11.5, -10)" filter="url(#Exclusion_1)">
              <path id="Exclusion_1-3" data-name="Exclusion 1" d="M12.964,26A12.964,12.964,0,0,1,0,13.037v-.073A12.964,12.964,0,0,1,22.13,3.8a12.879,12.879,0,0,1,3.8,9.167v.073A12.964,12.964,0,0,1,12.964,26Zm0-23a10,10,0,1,0,10,10A10.011,10.011,0,0,0,12.965,3Z" transform="translate(12.04 14)" fill="#fff"/>
            </g>
            <path id="Exclusion_1-4" data-name="Exclusion 1" d="M12.964,26A12.964,12.964,0,0,1,0,13.037v-.073A12.964,12.964,0,0,1,22.13,3.8a12.879,12.879,0,0,1,3.8,9.167v.073A12.964,12.964,0,0,1,12.964,26Zm0-23a10,10,0,1,0,10,10A10.011,10.011,0,0,0,12.965,3Z" transform="translate(0.535 4)" fill="none" stroke="rgba(0,0,0,0)" stroke-miterlimit="10" stroke-width="1"/>
          </g>
          <rect id="Rectangle_19706" data-name="Rectangle 19706" width="1" height="4.829" rx="0.5" transform="translate(13.857 16.685) rotate(135)" fill="url(#linear-gradient-8)"/>
          <g transform="matrix(1, 0, 0, 1, -11.5, -10)" filter="url(#Ellipse_641)">
            <circle id="Ellipse_641-2" data-name="Ellipse 641" cx="2" cy="2" r="2" transform="translate(23 25)" fill="url(#linear-gradient-9)"/>
          </g>
          <rect id="Rectangle_19709" data-name="Rectangle 19709" width="8" height="3.5" rx="1.75" transform="translate(9.5)" fill="url(#linear-gradient-9)"/>
        </g>
      </g>
      <rect id="Rectangle_20383" data-name="Rectangle 20383" width="36" height="36" transform="translate(-17752 -19233)" fill="none"/>
    </g>
  </g>
</svg>
