<svg xmlns="http://www.w3.org/2000/svg" xmlns:xlink="http://www.w3.org/1999/xlink" width="50" height="50" viewBox="0 0 50 50">
  <defs>
    <linearGradient id="linear-gradient" x1="0.099" y1="0.125" x2="0.835" y2="0.89" gradientUnits="objectBoundingBox">
      <stop offset="0" stop-color="#fc0"/>
      <stop offset="1" stop-color="#feaf11"/>
    </linearGradient>
    <filter id="Ellipse_642" x="6" y="8" width="42" height="42" filterUnits="userSpaceOnUse">
      <feOffset dx="2" dy="4" input="SourceAlpha"/>
      <feGaussianBlur stdDeviation="2" result="blur"/>
      <feFlood flood-opacity="0.161"/>
      <feComposite operator="in" in2="blur"/>
      <feComposite in="SourceGraphic"/>
    </filter>
    <linearGradient id="linear-gradient-2" x1="0.13" y1="0.173" x2="0.835" y2="0.89" gradientUnits="objectBoundingBox">
      <stop offset="0" stop-color="#ffee10"/>
      <stop offset="1" stop-color="#feaf11"/>
    </linearGradient>
    <filter id="Ellipse_643">
      <feOffset input="SourceAlpha"/>
      <feGaussianBlur stdDeviation="1" result="blur-2"/>
      <feFlood flood-color="#7e5d00" flood-opacity="0.4" result="color"/>
      <feComposite operator="out" in="SourceGraphic" in2="blur-2"/>
      <feComposite operator="in" in="color"/>
      <feComposite operator="in" in2="SourceGraphic"/>
    </filter>
    <linearGradient id="linear-gradient-3" x1="0.13" y1="0.173" x2="0.835" y2="0.89" gradientUnits="objectBoundingBox">
      <stop offset="0" stop-color="#fffbde"/>
      <stop offset="1" stop-color="#ffed95"/>
    </linearGradient>
    <filter id="Ellipse_668">
      <feOffset input="SourceAlpha"/>
      <feGaussianBlur stdDeviation="1" result="blur-3"/>
      <feFlood flood-color="#7e5d00" flood-opacity="0.4" result="color-2"/>
      <feComposite operator="out" in="SourceGraphic" in2="blur-3"/>
      <feComposite operator="in" in="color-2"/>
      <feComposite operator="in" in2="SourceGraphic"/>
    </filter>
    <linearGradient id="linear-gradient-4" x1="0.267" y1="0.22" x2="0.754" y2="0.918" gradientUnits="objectBoundingBox">
      <stop offset="0" stop-color="#ffbd08"/>
      <stop offset="1" stop-color="#fba700"/>
    </linearGradient>
    <filter id="Polygon_31" x="14.5" y="14.5" width="21" height="20" filterUnits="userSpaceOnUse">
      <feOffset input="SourceAlpha"/>
      <feGaussianBlur stdDeviation="1" result="blur-4"/>
      <feFlood flood-color="#ffdf5e" flood-opacity="0.302"/>
      <feComposite operator="in" in2="blur-4"/>
      <feComposite in="SourceGraphic"/>
    </filter>
  </defs>
  <g id="Group_112439" data-name="Group 112439" transform="translate(-230 -336)">
    <rect id="Rectangle_20682" data-name="Rectangle 20682" width="50" height="50" transform="translate(230 336)" fill="#fff" opacity="0"/>
    <g id="icon" transform="translate(17884 19576)">
      <g id="icon-2" data-name="icon" transform="translate(-18618.895 -19908.43)">
        <g id="Component_117_2" data-name="Component 117 – 2" transform="translate(974.895 678.429)">
          <g transform="matrix(1, 0, 0, 1, -10, -10)" filter="url(#Ellipse_642)">
            <circle id="Ellipse_642-2" data-name="Ellipse 642" cx="15" cy="15" r="15" transform="translate(10 10)" fill="url(#linear-gradient)"/>
          </g>
          <g data-type="innerShadowGroup">
            <circle id="Ellipse_643-2" data-name="Ellipse 643" cx="12" cy="12" r="12" transform="translate(3 3)" fill="url(#linear-gradient-2)"/>
            <g transform="matrix(1, 0, 0, 1, -10, -10)" filter="url(#Ellipse_643)">
              <circle id="Ellipse_643-3" data-name="Ellipse 643" cx="12" cy="12" r="12" transform="translate(13 13)" fill="#fff"/>
            </g>
          </g>
          <g data-type="innerShadowGroup">
            <circle id="Ellipse_668-2" data-name="Ellipse 668" cx="12" cy="12" r="12" transform="translate(3 3)" fill="url(#linear-gradient-3)"/>
            <g transform="matrix(1, 0, 0, 1, -10, -10)" filter="url(#Ellipse_668)">
              <circle id="Ellipse_668-3" data-name="Ellipse 668" cx="12" cy="12" r="12" transform="translate(13 13)" fill="#fff"/>
            </g>
          </g>
          <g transform="matrix(1, 0, 0, 1, -10, -10)" filter="url(#Polygon_31)">
            <path id="Polygon_31-2" data-name="Polygon 31" d="M6.6,1.884a1,1,0,0,1,1.8,0L9.514,4.206a1,1,0,0,0,.78.561l2.562.316a1,1,0,0,1,.555,1.728l-1.858,1.71a1,1,0,0,0-.3.927l.483,2.474a1,1,0,0,1-1.457,1.071l-2.3-1.242a1,1,0,0,0-.951,0l-2.3,1.242A1,1,0,0,1,3.27,11.923l.483-2.474a1,1,0,0,0-.3-.927L1.59,6.811a1,1,0,0,1,.555-1.728l2.562-.316a1,1,0,0,0,.78-.561Z" transform="translate(17.5 17.5)" fill="url(#linear-gradient-4)"/>
          </g>
        </g>
      </g>
      <rect id="Rectangle_20385" data-name="Rectangle 20385" width="36" height="36" transform="translate(-17647 -19233)" fill="none"/>
    </g>
  </g>
</svg>
