<svg xmlns="http://www.w3.org/2000/svg" xmlns:xlink="http://www.w3.org/1999/xlink" width="60" height="60" viewBox="0 0 60 60">
  <defs>
    <linearGradient id="linear-gradient" x1="0.953" y1="0.484" x2="0.001" y2="0.558" gradientUnits="objectBoundingBox">
      <stop offset="0" stop-color="#e380ff"/>
      <stop offset="1" stop-color="#a34cb9"/>
    </linearGradient>
    <filter id="Polygon_32" x="1.268" y="5.27" width="63.465" height="63.465" filterUnits="userSpaceOnUse">
      <feOffset dx="3" dy="6" input="SourceAlpha"/>
      <feGaussianBlur stdDeviation="4" result="blur"/>
      <feFlood flood-opacity="0.161"/>
      <feComposite operator="in" in2="blur"/>
      <feComposite in="SourceGraphic"/>
    </filter>
    <linearGradient id="linear-gradient-2" x1="0.13" y1="0.173" x2="0.835" y2="0.89" gradientUnits="objectBoundingBox">
      <stop offset="0" stop-color="#fff"/>
      <stop offset="1" stop-color="#f7d5ff"/>
    </linearGradient>
    <filter id="Ellipse_644">
      <feOffset input="SourceAlpha"/>
      <feGaussianBlur stdDeviation="1" result="blur-2"/>
      <feFlood flood-color="#73208a" flood-opacity="0.302" result="color"/>
      <feComposite operator="out" in="SourceGraphic" in2="blur-2"/>
      <feComposite operator="in" in="color"/>
      <feComposite operator="in" in2="SourceGraphic"/>
    </filter>
    <linearGradient id="linear-gradient-3" x1="0.938" y1="1" x2="0.14" y2="-0.12" gradientUnits="objectBoundingBox">
      <stop offset="0" stop-color="#9431ac"/>
      <stop offset="1" stop-color="#d850ff"/>
    </linearGradient>
  </defs>
  <g id="Group_112428" data-name="Group 112428" transform="translate(-12 -600)">
    <rect id="Rectangle_20672" data-name="Rectangle 20672" width="60" height="60" transform="translate(12 600)" fill="#fff" opacity="0"/>
    <g id="icon" transform="translate(17666.029 19780.031)">
      <rect id="Rectangle_20390" data-name="Rectangle 20390" width="44" height="44" transform="translate(-17646.029 -19171.031)" fill="none"/>
      <g id="Component_118_2" data-name="Component 118 – 2" transform="translate(-17643.762 -19168.762)">
        <g transform="matrix(1, 0, 0, 1, -10.27, -11.27)" filter="url(#Polygon_32)">
          <path id="Polygon_32-2" data-name="Polygon 32" d="M21.692,2.484A3.275,3.275,0,0,1,26.66,3.815h0a3.275,3.275,0,0,0,3.393,1.959h0A3.275,3.275,0,0,1,33.69,9.412h0A3.275,3.275,0,0,0,35.649,12.8h0a3.275,3.275,0,0,1,1.331,4.968h0a3.275,3.275,0,0,0,0,3.918h0a3.275,3.275,0,0,1-1.331,4.968h0a3.275,3.275,0,0,0-1.959,3.393h0a3.275,3.275,0,0,1-3.637,3.637h0a3.275,3.275,0,0,0-3.393,1.959h0a3.275,3.275,0,0,1-4.968,1.331h0a3.275,3.275,0,0,0-3.918,0h0A3.275,3.275,0,0,1,12.8,35.649h0A3.275,3.275,0,0,0,9.412,33.69h0a3.275,3.275,0,0,1-3.637-3.637h0A3.275,3.275,0,0,0,3.815,26.66h0a3.275,3.275,0,0,1-1.331-4.968h0a3.275,3.275,0,0,0,0-3.918h0A3.275,3.275,0,0,1,3.815,12.8h0A3.275,3.275,0,0,0,5.775,9.412h0A3.275,3.275,0,0,1,9.412,5.775h0A3.275,3.275,0,0,0,12.8,3.815h0a3.275,3.275,0,0,1,4.968-1.331h0a3.275,3.275,0,0,0,3.918,0Z" transform="translate(49.73 50.73) rotate(180)" fill="url(#linear-gradient)"/>
        </g>
        <g data-type="innerShadowGroup">
          <circle id="Ellipse_644-2" data-name="Ellipse 644" cx="13.566" cy="13.566" r="13.566" transform="translate(6.255 6.258)" fill="url(#linear-gradient-2)"/>
          <g transform="matrix(1, 0, 0, 1, -10.27, -11.27)" filter="url(#Ellipse_644)">
            <circle id="Ellipse_644-3" data-name="Ellipse 644" cx="13.566" cy="13.566" r="13.566" transform="translate(16.52 17.53)" fill="#fff"/>
          </g>
        </g>
        <path id="Path_37119" data-name="Path 37119" d="M.432-4.335H1.545L4.526-.673V-4.41H5.86V1.682H4.746L1.765-1.981V1.756H.432Zm6.482,0h4.439v1.181H8.247v1.241H11.1V-.733H8.247V.575h3.172V1.756h-4.5Zm13.25,0L18.443,1.756H17.1L16.026-2.063,14.957,1.756H13.609L11.888-4.335h1.428L14.341-.351l1.025-3.984h1.384L17.769-.366,18.8-4.335Z" transform="translate(10.14 21.151)" fill="url(#linear-gradient-3)"/>
      </g>
    </g>
  </g>
</svg>
