<svg xmlns="http://www.w3.org/2000/svg" xmlns:xlink="http://www.w3.org/1999/xlink" width="60" height="60" viewBox="0 0 60 60">
  <defs>
    <filter id="Union_175" x="2" y="5.998" width="62" height="59" filterUnits="userSpaceOnUse">
      <feOffset dx="3" dy="6" input="SourceAlpha"/>
      <feGaussianBlur stdDeviation="4" result="blur"/>
      <feFlood flood-opacity="0.161"/>
      <feComposite operator="in" in2="blur"/>
      <feComposite in="SourceGraphic"/>
    </filter>
    <linearGradient id="linear-gradient" x1="0.01" y1="0.021" x2="0.972" y2="0.97" gradientUnits="objectBoundingBox">
      <stop offset="0" stop-color="#5a5858"/>
      <stop offset="1" stop-color="#1e1e1e"/>
    </linearGradient>
    <linearGradient id="linear-gradient-2" x1="1" y1="1" x2="0.036" y2="0.037" gradientUnits="objectBoundingBox">
      <stop offset="0" stop-color="#1e1e1e"/>
      <stop offset="1" stop-color="#5a5858"/>
    </linearGradient>
  </defs>
  <g id="Group_112434" data-name="Group 112434" transform="translate(-180 -752)">
    <rect id="Rectangle_20678" data-name="Rectangle 20678" width="60" height="60" transform="translate(180 752)" fill="#fff" opacity="0"/>
    <g id="icon" transform="translate(17778 19848.523)">
      <rect id="Rectangle_20394" data-name="Rectangle 20394" width="44" height="44" transform="translate(-17590 -19087.523)" fill="none"/>
      <g id="Group_111995" data-name="Group 111995" transform="translate(-17586.578 -19085.725)">
        <g transform="matrix(1, 0, 0, 1, -11.42, -10.8)" filter="url(#Union_175)">
          <path id="Union_175-2" data-name="Union 175" d="M2,36a2,2,0,0,1-2-2V14a2,2,0,0,1,2-2H36a2,2,0,0,1,2,2V34a2,2,0,0,1-2,2ZM19.474,6.855a2.929,2.929,0,1,1,0-5.857h.052a2.929,2.929,0,0,1,0,5.857Z" transform="translate(11 11)" fill="#fff"/>
        </g>
        <g id="Polygon_40" data-name="Polygon 40" transform="translate(3.578 2.203)" fill="none">
          <path d="M15.5,0,31,12H0Z" stroke="none"/>
          <path d="M 15.50000095367432 1.264657974243164 L 2.92518424987793 11 L 28.0748176574707 11 L 15.50000095367432 1.264657974243164 M 15.50000095367432 0 L 31 12 L 1.9073486328125e-06 12 L 15.50000095367432 0 Z" stroke="none" fill="#5a5858"/>
        </g>
        <rect id="Rectangle_20397" data-name="Rectangle 20397" width="38" height="24" rx="2" transform="translate(-0.422 12.201)" fill="url(#linear-gradient)"/>
        <rect id="Rectangle_20398" data-name="Rectangle 20398" width="7" height="7" rx="3.5" transform="translate(15.578 0.201)" fill="url(#linear-gradient-2)"/>
        <g id="Group_111994" data-name="Group 111994" transform="translate(6.842 17.105)">
          <path id="Path_37323" data-name="Path 37323" d="M-11.867.42h1.92c1.186,0,2.088-.5,2.088-1.576A1.218,1.218,0,0,0-8.87-2.422v-.036a1.213,1.213,0,0,0,.735-1.157c0-1-.844-1.323-1.95-1.323h-1.782Zm1.077-3.174V-4.114h.64c.647,0,.968.188.968.658,0,.427-.3.7-.982.7Zm0,2.35V-1.966h.749c.742,0,1.135.224,1.135.745,0,.557-.4.817-1.135.817Zm3.7.824h3.266v-.9h-2.19V-4.938H-7.095Zm5.158-2.791c.16-.557.32-1.164.458-1.75h.036c.153.578.3,1.193.466,1.75l.16.586H-2.1ZM-3.8.42h1.091L-2.33-.954H-.584L-.206.42H.922L-.81-4.938H-2.075Zm7.282.1A2.184,2.184,0,0,0,5.2-.267L4.632-.932A1.488,1.488,0,0,1,3.519-.4c-.851,0-1.4-.7-1.4-1.865S2.726-4.114,3.54-4.114a1.422,1.422,0,0,1,1,.448l.56-.68a2.2,2.2,0,0,0-1.579-.687,2.546,2.546,0,0,0-2.5,2.8A2.47,2.47,0,0,0,3.482.521Zm2.4-.1H6.96v-1.5l.706-.9L9.062.42H10.24L8.305-2.827,9.949-4.938H8.764L6.981-2.61H6.96V-4.938H5.883ZM-12.78,8.652H-11.7V6.483H-9.79v-.9H-11.7v-1.4h2.241v-.9H-12.78Zm4.074,0H-7.63V6.628h.749l1.106,2.024h1.2L-5.833,6.462a1.532,1.532,0,0,0,1.026-1.54c0-1.229-.895-1.627-2.022-1.627H-8.706Zm1.077-2.87V4.148h.7c.691,0,1.077.2,1.077.774s-.386.86-1.077.86Zm3.7,2.87H-2.85V3.295H-3.927Zm2.219,0H-.173a2.406,2.406,0,0,0,2.6-2.7A2.392,2.392,0,0,0-.231,3.295H-1.708Zm1.077-.86V4.155H-.3c1,0,1.63.492,1.63,1.8S.707,7.792-.3,7.792Zm5.019-1.93c.16-.557.32-1.164.458-1.75h.036c.153.578.3,1.193.466,1.75l.16.586H4.228ZM2.526,8.652H3.617L4,7.279H5.741l.378,1.374H7.247L5.516,3.295H4.25Zm5.943,0H9.546V6.693l1.622-3.4h-1.12L9.509,4.6c-.153.4-.313.774-.48,1.186H9C8.833,5.377,8.687,5,8.534,4.6L8,3.295H6.854l1.615,3.4Z" transform="translate(12.78 5.032)" fill="#fff"/>
        </g>
        <rect id="Rectangle_20399" data-name="Rectangle 20399" width="3" height="3" rx="1.5" transform="translate(17.578 2.201)" fill="#fff"/>
      </g>
    </g>
  </g>
</svg>
