<svg xmlns="http://www.w3.org/2000/svg" xmlns:xlink="http://www.w3.org/1999/xlink" width="60" height="60" viewBox="0 0 60 60">
<style type="text/css">
.st0{fill:#FFFFFF;fill-opacity:0;}
.st1{fill:none;}
.st2{fill:url(#Path_37364-2_00000156550631265473381520000005851710409863017358_);}
.st3{fill:url(#Path_37366_00000049944621882378087570000014518974725984863671_);}
.st4{fill:#F4F5F7;}
.st5{opacity:0.7;fill:url(#Path_37367_00000132079885417247899760000010650551972132020612_);enable-background:new    ;}
.st6{opacity:0.7;fill:url(#Path_37368_00000173881011865490559030000014530652927972507311_);enable-background:new    ;}
.st7{fill:url(#Path_37369_00000100344519260604640750000018353232928035723429_);}
.st8{fill:url(#Path_37370_00000157284515976080999040000011826376640087701649_);}
.st9{fill:#1C1F22;}
.st10{fill:url(#Path_37373_00000083782829164608819320000017198409136172834983_);}
.st11{fill:url(#Union_168_00000047019329100809781900000011235942178718234768_);}
.st12{fill:url(#Union_167_00000109020428669298886840000000967978542742567810_);}
.st13{clip-path:url(#SVGID_00000060746809110661875440000018397123750921079466_);}
.st14{fill:none;stroke:#8DB1CF;stroke-width:0.5;stroke-linecap:round;stroke-dasharray:1,2;}
</style>
<g id="Group_112435" transform="translate(-179 -600)">
	<g id="Group_112432">
		<rect id="Rectangle_20676" x="179" y="600" class="st0" width="60" height="60"/>
		<g id="icon" transform="translate(17773.906 19781.904)">
			<rect id="Rectangle_20388" x="-17585.9" y="-19172.9" class="st1" width="44" height="44"/>
			<g id="Group_111987" transform="translate(-17581.752 -19168.752)">
				<g id="Group_110142" transform="translate(0 0)">
					<g transform="matrix(1, 0, 0, 1, -13.15, -13.15)" style="fill:url(#linear-gradient)">
						
							<linearGradient id="Path_37364-2_00000043433574137963362720000001223015467542944655_" gradientUnits="userSpaceOnUse" x1="-257.3957" y1="443.9379" x2="-256.8707" y2="443.2859" gradientTransform="matrix(35.69 0 0 -35.692 9206.1543 15862.001)">
							<stop  offset="0" style="stop-color:#81C5FF"/>
							<stop  offset="1" style="stop-color:#3AA5FF"/>
						</linearGradient>
						<path id="Path_37364-2" style="fill:url(#Path_37364-2_00000043433574137963362720000001223015467542944655_);" d="M31,13.1
							c-9.9,0-17.8,8-17.8,17.8s8,17.8,17.8,17.8c0.3,0,0.5,0,0.8,0l7.2-7.2l9.8-9.8c0-0.3,0-0.5,0-0.8C48.8,21.1,40.9,13.2,31,13.1
							C31,13.1,31,13.1,31,13.1"/>
					</g>
					<g id="Mask_Group_110095">
						
							<linearGradient id="Path_37366_00000050663558575898103280000001463991313978051006_" gradientUnits="userSpaceOnUse" x1="-268.522" y1="429.0553" x2="-268.171" y2="428.6103" gradientTransform="matrix(28.7688 0 0 -31.3618 7738.5996 13471.8252)">
							<stop  offset="0" style="stop-color:#FFFFFF"/>
							<stop  offset="1" style="stop-color:#DBEEFF"/>
						</linearGradient>
						<path id="Path_37366" style="fill:url(#Path_37366_00000050663558575898103280000001463991313978051006_);" d="M30.1,11
							c0-0.2-0.1-0.5-0.2-0.7c-0.1-0.2-0.3-0.4-0.6-0.5c0,0,0,0-0.1,0h0h0l0,0c-0.2,0-0.4-0.1-0.7,0c-0.3,0-0.5,0.1-0.7,0.1
							c-0.6,0.1-1.3,0.4-1.9,0.6c-1.2,0.5-2.3,1.4-3.1,2.4l-0.3-0.2c-0.2-0.1-0.3-0.2-0.4-0.2c-0.2-0.1-0.5-0.3-0.7-0.4
							c-0.6-0.3-1.3-0.5-2-0.7l0,0c-0.7-0.2-1.3-0.3-2-0.4c-0.3,0-0.6,0-0.9,0c-0.1,0-0.3,0-0.4,0h-0.3c-0.1-1.3-0.6-2.6-1.5-3.7
							c-0.4-0.5-0.8-1-1.3-1.5c-0.2-0.2-0.4-0.3-0.6-0.5c-0.2-0.1-0.4-0.2-0.6-0.3l0,0h0h0l-0.1,0c-0.3,0-0.5,0-0.8,0.1
							c-0.2,0.1-0.4,0.3-0.6,0.5c-0.4,0.5-0.7,1-1,1.6C8.6,9.1,7.9,11,7.4,13c-0.3,1.2-0.8,2.3-1.3,3.4L1.4,26.5
							c2.7,6.4,8.3,10,15.6,10c0.3,0,0.5,0,0.8,0l10.6-10.6l0-3.5c0.1-1.2,0.3-2.4,0.6-3.6c0.6-1.9,0.9-3.9,1.1-5.9
							C30.2,12.2,30.2,11.6,30.1,11 M14.8,18.6c0,0.1-0.1,0.3-0.1,0.4c0,0.1-0.1,0.2-0.1,0.2c0,0.1-0.1,0.1-0.1,0.1
							c-0.1,0.1-0.2,0.2-0.3,0.3c-0.1,0.1-0.2,0.1-0.4,0.2c-0.2,0.1-0.5,0.1-0.7,0c-0.3-0.1-0.5-0.4-0.6-0.7
							c-0.2-0.6-0.1-1.3,0.3-1.8c0.1-0.1,0.2-0.2,0.3-0.3c0.1-0.1,0.2-0.1,0.3-0.2c0.2-0.1,0.5-0.1,0.7,0c0.3,0.1,0.5,0.3,0.6,0.6
							c0.1,0.1,0.1,0.3,0.1,0.4C14.8,18.2,14.8,18.4,14.8,18.6 M22.4,20.6c0,0.1-0.1,0.3-0.1,0.4c0,0.1-0.1,0.2-0.1,0.2
							c0,0.1-0.1,0.1-0.1,0.1c-0.1,0.1-0.2,0.2-0.3,0.3c-0.1,0.1-0.2,0.1-0.4,0.2c-0.2,0.1-0.5,0.1-0.7,0c-0.3-0.1-0.5-0.4-0.6-0.7
							c-0.2-0.6-0.1-1.3,0.3-1.8c0.1-0.1,0.2-0.2,0.3-0.3c0.1-0.1,0.2-0.1,0.3-0.2c0.2-0.1,0.5-0.1,0.7,0c0.3,0.1,0.5,0.3,0.6,0.6
							c0.1,0.1,0.1,0.3,0.1,0.4C22.4,20.2,22.4,20.4,22.4,20.6"/>
					</g>
					<path id="Path_37365" class="st4" d="M16.7,21.9L16.7,21.9l-0.2,0.9L16.7,21.9z"/>
					
						<linearGradient id="Path_37367_00000054250022787649073660000008293646490648003461_" gradientUnits="userSpaceOnUse" x1="-214.5793" y1="381.331" x2="-214.5793" y2="380.515" gradientTransform="matrix(4.2013 0 0 -6.4066 928.2718 2454.2075)">
						<stop  offset="0" style="stop-color:#9AA5AE"/>
						<stop  offset="1" style="stop-color:#AFB9C1"/>
					</linearGradient>
					
						<path id="Path_37367" style="opacity:0.7;fill:url(#Path_37367_00000054250022787649073660000008293646490648003461_);enable-background:new    ;" d="
						M27.5,17.2c0.1,2.1,1.5-5,1.3-5.8c-0.1-0.7-3.6,0.5-4.2,2.6C25.4,14.3,27.4,15.5,27.5,17.2"/>
					
						<linearGradient id="Path_37368_00000072264257139917626070000011925377925488408253_" gradientUnits="userSpaceOnUse" x1="-218.4485" y1="377.9715" x2="-218.4485" y2="377.1555" gradientTransform="matrix(4.4759 0 0 -6.0691 989.4633 2300.5088)">
						<stop  offset="0" style="stop-color:#9AA5AE"/>
						<stop  offset="1" style="stop-color:#AFB9C1"/>
					</linearGradient>
					
						<path id="Path_37368" style="opacity:0.7;fill:url(#Path_37368_00000072264257139917626070000011925377925488408253_);enable-background:new    ;" d="
						M9.8,12.4c0.9-1.4,3.3-1.4,4.1-1.3c0.6-2.1-1.9-4.9-2.3-4.4C11,7.3,8.6,14.1,9.8,12.4"/>
					
						<linearGradient id="Path_37369_00000040575134738420623530000011671101770924241329_" gradientUnits="userSpaceOnUse" x1="-171.825" y1="313.9988" x2="-171.175" y2="312.9988" gradientTransform="matrix(2.4965 0 0 -3.0297 449.2787 970.2889)">
						<stop  offset="0" style="stop-color:#5A5858"/>
						<stop  offset="1" style="stop-color:#1E1E1E"/>
					</linearGradient>
					<path id="Path_37369" style="fill:url(#Path_37369_00000040575134738420623530000011671101770924241329_);" d="M22.4,20
						c0-0.1-0.1-0.3-0.1-0.4c-0.1-0.3-0.3-0.5-0.6-0.6c-0.2-0.1-0.5-0.1-0.7,0c-0.1,0-0.2,0.1-0.3,0.2c-0.1,0.1-0.2,0.2-0.3,0.3
						c-0.2,0.2-0.3,0.5-0.4,0.8c-0.1,0.3-0.1,0.7,0.1,1c0.1,0.3,0.3,0.5,0.6,0.7c0.2,0.1,0.5,0.1,0.7,0c0.1,0,0.2-0.1,0.4-0.2
						c0.1-0.1,0.2-0.2,0.3-0.3c0,0,0.1-0.1,0.1-0.1c0-0.1,0.1-0.1,0.1-0.2c0.1-0.1,0.1-0.3,0.1-0.4C22.4,20.5,22.4,20.2,22.4,20"/>
					
						<linearGradient id="Path_37370_00000124133855155245310200000006955009247345917337_" gradientUnits="userSpaceOnUse" x1="-171.8317" y1="313.9987" x2="-171.1817" y2="312.9987" gradientTransform="matrix(2.4966 0 0 -3.0297 441.7432 968.2239)">
						<stop  offset="0" style="stop-color:#5A5858"/>
						<stop  offset="1" style="stop-color:#1E1E1E"/>
					</linearGradient>
					<path id="Path_37370" style="fill:url(#Path_37370_00000124133855155245310200000006955009247345917337_);" d="M14.8,18
						c0-0.1-0.1-0.3-0.1-0.4c-0.1-0.3-0.3-0.5-0.6-0.6c-0.2-0.1-0.5-0.1-0.7,0c-0.1,0-0.2,0.1-0.3,0.2c-0.1,0.1-0.2,0.2-0.3,0.3
						c-0.2,0.2-0.3,0.5-0.4,0.8c-0.1,0.3-0.1,0.7,0.1,1c0.1,0.3,0.3,0.5,0.6,0.7c0.2,0.1,0.5,0.1,0.7,0c0.1,0,0.2-0.1,0.4-0.2
						c0.1-0.1,0.2-0.2,0.3-0.3c0,0,0.1-0.1,0.1-0.1c0-0.1,0.1-0.1,0.1-0.2c0.1-0.1,0.1-0.3,0.1-0.4C14.8,18.4,14.8,18.2,14.8,18"/>
					<path id="Path_37371" class="st9" d="M16.7,21.9c0.2,0,0.3,0,0.5-0.1c0.1,0,0.2-0.1,0.2-0.2c0,0,0,0,0-0.1c0,0,0-0.1-0.1-0.1
						c-0.3-0.1-0.6-0.2-1-0.3c0,0-0.1,0-0.1,0c0,0,0,0,0,0c0,0.1,0,0.2,0.1,0.3C16.4,21.7,16.5,21.8,16.7,21.9L16.7,21.9"/>
					
						<linearGradient id="Path_37373_00000129164168504720292250000017118754198478514861_" gradientUnits="userSpaceOnUse" x1="-262.2848" y1="418.7949" x2="-262.0368" y2="418.4329" gradientTransform="matrix(17.038 0 0 -17.04 4492.8252 7158.8408)">
						<stop  offset="0" style="stop-color:#A9D3F9"/>
						<stop  offset="1" style="stop-color:#DBEEFF"/>
					</linearGradient>
					<path id="Path_37373" style="fill:url(#Path_37373_00000129164168504720292250000017118754198478514861_);" d="M25.9,28.4
						l9.8-9.8c-9.2,0.4-16.6,7.8-17,17L25.9,28.4z"/>
					
						<linearGradient id="Union_168_00000059295225832848929630000004748183651708374912_" gradientUnits="userSpaceOnUse" x1="-168.8127" y1="282.2639" x2="-168.4326" y2="281.4639" gradientTransform="matrix(2.4304 0 0 -2.4298 425.828 708.3127)">
						<stop  offset="0" style="stop-color:#5A5858"/>
						<stop  offset="1" style="stop-color:#1E1E1E"/>
					</linearGradient>
					<path id="Union_168" style="fill:url(#Union_168_00000059295225832848929630000004748183651708374912_);" d="M16.9,24.3l-0.7-1
						L15,23.9c0,0,0,0-0.1,0c-0.1,0-0.1,0-0.1-0.1c0-0.1,0-0.2,0.1-0.2c0,0,0,0,0,0l1.2-0.6l0.3-0.9c0-0.1,0.1-0.1,0.2-0.1
						c0.1,0,0.1,0.1,0.1,0.2l-0.3,0.9l0.8,1.1c0.1,0.1,0,0.2,0,0.2c0,0,0,0,0,0c0,0-0.1,0-0.1,0C17,24.4,17,24.4,16.9,24.3z"/>
					
						<linearGradient id="Union_167_00000060738488554221079030000012095483470524087429_" gradientUnits="userSpaceOnUse" x1="-144.656" y1="182.3517" x2="-144.143" y2="181.4326" gradientTransform="matrix(1.9885 0 0 -1.4919 303.8754 292.8534)">
						<stop  offset="0" style="stop-color:#5A5858"/>
						<stop  offset="1" style="stop-color:#1E1E1E"/>
					</linearGradient>
					<path id="Union_167" style="fill:url(#Union_167_00000060738488554221079030000012095483470524087429_);" d="M16.6,22.3
						C16.6,22.3,16.6,22.3,16.6,22.3c-0.3-0.1-0.5-0.2-0.7-0.5c-0.1-0.2-0.2-0.4-0.1-0.6c0-0.1,0.1-0.2,0.2-0.3
						c0.1-0.1,0.2-0.1,0.3-0.1c0,0,0,0,0.1,0c0.2,0,0.4,0,0.6,0.1c0.2,0,0.4,0.1,0.6,0.2c0.1,0.1,0.2,0.1,0.2,0.2
						c0.1,0.1,0.1,0.2,0,0.3c-0.1,0.2-0.2,0.4-0.4,0.5C17.1,22.3,16.8,22.3,16.6,22.3L16.6,22.3z"/>
					<g>
						<defs>
							<path id="SVGID_1_" d="M25.9,28.4l9.8-9.8c-9.2,0.4-16.6,7.8-17,17L25.9,28.4z"/>
						</defs>
						<clipPath id="SVGID_00000145754328959142145260000010435237134866899871_">
							<use xlink:href="#SVGID_1_"  style="overflow:visible;"/>
						</clipPath>
						
							<g id="Mask_Group_110094" transform="translate(18.633 18.634)" style="clip-path:url(#SVGID_00000145754328959142145260000010435237134866899871_);">
							<path id="Path_37376" class="st14" d="M8,10.6l9.8-9.8c-9.2,0.4-16.6,7.8-17,17L8,10.6z"/>
						</g>
					</g>
				</g>
			</g>
		</g>
	</g>
</g>
</svg>
