<svg xmlns="http://www.w3.org/2000/svg" xmlns:xlink="http://www.w3.org/1999/xlink" width="60" height="60" viewBox="0 0 60 60">
  <defs>
    <filter id="Union_172" x="4.002" y="7" width="59" height="59" filterUnits="userSpaceOnUse">
      <feOffset dx="3" dy="6" input="SourceAlpha"/>
      <feGaussianBlur stdDeviation="4" result="blur"/>
      <feFlood flood-opacity="0.161"/>
      <feComposite operator="in" in2="blur"/>
      <feComposite in="SourceGraphic"/>
    </filter>
    <linearGradient id="linear-gradient" x1="0.21" y1="0.081" x2="0.832" y2="0.897" gradientUnits="objectBoundingBox">
      <stop offset="0" stop-color="#4dadff"/>
      <stop offset="1" stop-color="#0970d6"/>
    </linearGradient>
    <linearGradient id="linear-gradient-2" x1="0.21" y1="0.081" x2="0.832" y2="0.897" gradientUnits="objectBoundingBox">
      <stop offset="0" stop-color="#fff"/>
      <stop offset="1" stop-color="#dbeeff"/>
    </linearGradient>
    <linearGradient id="linear-gradient-3" x1="0.269" y1="0.086" x2="0.96" y2="0.818" xlink:href="#linear-gradient"/>
    <linearGradient id="linear-gradient-4" x1="0.21" y1="0.081" x2="0.832" y2="0.897" gradientUnits="objectBoundingBox">
      <stop offset="0" stop-color="#ff628c"/>
      <stop offset="1" stop-color="#f42664"/>
    </linearGradient>
    <linearGradient id="linear-gradient-5" x1="0.21" y1="0.081" x2="0.832" y2="0.897" gradientUnits="objectBoundingBox">
      <stop offset="0" stop-color="#fff"/>
      <stop offset="1" stop-color="#ffcfcf"/>
    </linearGradient>
    <linearGradient id="linear-gradient-6" x1="0.829" y1="0.379" x2="0.142" y2="0.96" gradientUnits="objectBoundingBox">
      <stop offset="0" stop-color="#f42664"/>
      <stop offset="1" stop-color="#ff628c"/>
    </linearGradient>
  </defs>
  <g id="Group_112427" data-name="Group 112427" transform="translate(-11 -524)">
    <rect id="Rectangle_20671" data-name="Rectangle 20671" width="60" height="60" transform="translate(11 524)" fill="#fff" opacity="0"/>
    <g id="icon" transform="translate(17803.318 19702.318)">
      <rect id="Rectangle_20387" data-name="Rectangle 20387" width="44" height="44" transform="translate(-17783.318 -19169.318)" fill="none"/>
      <g id="Group_111983" data-name="Group 111983" transform="translate(-17779.092 -19165.092)">
        <g transform="matrix(1, 0, 0, 1, -13.23, -13.23)" filter="url(#Union_172)">
          <path id="Union_172-2" data-name="Union 172" d="M20.985,32.764A16.641,16.641,0,1,1,32.767,20.99,8.334,8.334,0,0,1,20.985,32.764Z" transform="translate(13 13)" fill="#fff"/>
        </g>
        <circle id="Ellipse_681" data-name="Ellipse 681" cx="17" cy="17" r="17" transform="translate(-0.226 -0.226)" fill="url(#linear-gradient)"/>
        <circle id="Ellipse_682" data-name="Ellipse 682" cx="15" cy="15" r="15" transform="translate(1.774 1.774)" fill="url(#linear-gradient-2)"/>
        <path id="Union_171" data-name="Union 171" d="M.06,14.321c-.326-1.205.715-2.529,2.321-2.96a3.626,3.626,0,0,1,2.094.037V2.256A.745.745,0,0,1,5.1,1.517L14.144.01a.753.753,0,0,1,.876.744V11.663a.75.75,0,0,1-.061.294,3.056,3.056,0,0,1-2.365,2.26c-1.606.431-3.176-.2-3.5-1.4s.721-2.524,2.325-2.955a3.629,3.629,0,0,1,2.094.037V4.648L5.981,5.9v7.26a.758.758,0,0,1-.061.3,3.049,3.049,0,0,1-2.365,2.257,3.931,3.931,0,0,1-1.016.136A2.406,2.406,0,0,1,.06,14.321ZM5.981,2.9V4.381l7.534-1.256V1.641Z" transform="translate(8.178 8.596)" fill="url(#linear-gradient-3)"/>
        <circle id="Ellipse_683" data-name="Ellipse 683" cx="8.5" cy="8.5" r="8.5" transform="translate(18.774 18.773)" fill="url(#linear-gradient-4)"/>
        <circle id="Ellipse_684" data-name="Ellipse 684" cx="7" cy="7" r="7" transform="translate(19.774 19.773)" fill="url(#linear-gradient-5)"/>
        <path id="Polygon_39" data-name="Polygon 39" d="M2.914,1.308a1,1,0,0,1,1.682,0L6.52,4.3a1,1,0,0,1-.841,1.541H1.832A1,1,0,0,1,.99,4.3Z" transform="translate(30.709 23.201) rotate(90)" fill="url(#linear-gradient-6)"/>
      </g>
    </g>
  </g>
</svg>
