<svg id="Group_116413" data-name="Group 116413" xmlns="http://www.w3.org/2000/svg" width="36" height="36" viewBox="0 0 36 36">
  <g id="Group_116422" data-name="Group 116422" transform="translate(0 0)">
    <g id="Ellipse_791" data-name="Ellipse 791" fill="#f46d3e" stroke="#000" stroke-width="1.5">
      <circle cx="18" cy="18" r="18" stroke="none"/>
      <circle cx="18" cy="18" r="17.25" fill="none"/>
    </g>
    <path id="Path_52414" data-name="Path 52414" d="M50.214,28.277c-.572,1.827-1.627,3.122-2.358,2.894s-.86-1.895-.288-3.722,1.628-3.123,2.358-2.894.86,1.895.288,3.722" transform="translate(-33.513 -17.412)"/>
    <path id="Path_52415" data-name="Path 52415" d="M81.505,38.068c-.572,1.827-1.627,3.122-2.358,2.894s-.86-1.895-.288-3.722,1.628-3.123,2.358-2.894.86,1.9.288,3.722" transform="translate(-55.725 -24.362)"/>
    <path id="Path_52416" data-name="Path 52416" d="M32.338,46.028l-.036.116h0a9.312,9.312,0,0,0,6.147,11.564c.219.068.44.129.66.183h0a9.315,9.315,0,0,0,8.419-2.206v0a9.251,9.251,0,0,0,2.557-3.973h0l.037-.116" transform="translate(-22.652 -32.673)" fill="none" stroke="#000" stroke-linecap="round" stroke-linejoin="round" stroke-width="1.5"/>
  </g>
</svg>
