<?xml version="1.0" encoding="utf-8"?>
<!-- Generator: Adobe Illustrator 26.0.3, SVG Export Plug-In . SVG Version: 6.00 Build 0)  -->
<svg version="1.1" xmlns="http://www.w3.org/2000/svg" xmlns:xlink="http://www.w3.org/1999/xlink" x="0px" y="0px"
	 viewBox="0 0 310 150" style="enable-background:new 0 0 310 150;" xml:space="preserve">
<style type="text/css">
	.st0{fill:#FEC9C9;}
	.st1{fill:none;stroke:#080D4B;stroke-width:2;stroke-linecap:round;stroke-linejoin:round;}
	.st2{clip-path:url(#SVGID_00000060013982890534877180000012614749207985647759_);}
	.st3{fill:#F86493;stroke:#707070;stroke-width:1.6;}
	.st4{fill:#F86493;stroke:#080D4B;stroke-width:1.6;stroke-linecap:round;stroke-linejoin:round;}
	.st5{clip-path:url(#SVGID_00000098194462983573816750000002532173072945164214_);}
	.st6{clip-path:url(#SVGID_00000034778929763419352540000007650318568886365346_);}
	.st7{fill:#F86493;stroke:#707070;stroke-width:1.6002;stroke-miterlimit:4.0005;}
	.st8{fill:#F86493;stroke:#080D4B;stroke-width:1.6002;stroke-linecap:round;stroke-linejoin:round;stroke-miterlimit:4.0005;}
	.st9{clip-path:url(#SVGID_00000074426568865774919290000008412816800039829894_);}
	.st10{fill:#F86493;stroke:#707070;stroke-width:1.6;stroke-miterlimit:4;}
	.st11{fill:#F86493;stroke:#080D4B;stroke-width:1.6;stroke-linecap:round;stroke-linejoin:round;stroke-miterlimit:4;}
	.st12{clip-path:url(#SVGID_00000166658402485415824490000003233118708982140329_);}
	.st13{fill:#FFFFFF;stroke:#707070;stroke-width:1.5994;stroke-miterlimit:3.9984;}
	.st14{fill:none;stroke:#080D4B;stroke-width:1.5994;stroke-linecap:round;stroke-linejoin:round;stroke-miterlimit:3.9984;}
	.st15{fill:#F06A86;stroke:#707070;stroke-width:1.5994;stroke-miterlimit:3.9984;}
	.st16{enable-background:new    ;}
	.st17{fill:#1D1D1B;}
	.st18{fill:#FFFFFF;}
	.st19{fill:none;stroke:#000000;}
	.st20{fill:#FFFFFF;stroke:#000000;stroke-width:1.2015;stroke-miterlimit:4.0054;}
	.st21{fill:#FF486E;stroke:#000000;stroke-width:1.2015;stroke-miterlimit:4.0054;}
	.st22{fill:none;stroke:#000000;stroke-width:1.2015;stroke-linecap:round;stroke-linejoin:round;stroke-miterlimit:4.0054;}
	.st23{fill:#FFBB01;stroke:#000000;stroke-width:1.2015;stroke-miterlimit:4.0054;}
	.st24{fill:#F06A86;stroke:#000000;stroke-width:1.2015;stroke-miterlimit:4.0054;}
	.st25{fill:#7582F0;stroke:#000000;stroke-width:1.2015;stroke-miterlimit:4.0054;}


    .heart {position:relative; animation: heart alternate infinite 2s; }
	.h0{animation-delay:1s;  transform-origin:-9% 12%;}
	.h1{animation-delay:.3s}
	.h2{animation-delay:.7s; transform-origin:-5% 12%;}
	.h3{animation-delay:1.2s;}
	@keyframes heart {
		0% {transform:scale(0.8);}
		50% { transform:scale(1.3);}
		100% {transform : scale(1) trnaslate(-1%  5%);}
	}


</style>
<g id="Layer_2">
	<g id="Group_111956" transform="translate(0 -157)">
		<g id="Group_111957">
			<g id="Group_111954" transform="translate(-1.863 -4.999)">
				<g id="Group_110111_00000005986685049756460940000013126744832825038267_" transform="translate(-23654.25 -16567.059)">
					<path id="Path_37288_00000135669692755368267890000008307999375081767311_" class="st0" d="M23920.47,16801.31
						c2.66-4.18,4.09-9.03,4.12-13.99c0-18.52-20.25-33.54-45.22-33.54c-16.06,0-30.15,6.21-38.17,15.57
						c-7.34-7.31-19.08-12.05-32.32-12.05c-6.71-0.04-13.37,1.25-19.59,3.77c-7.1-6.79-17.33-11.68-29.39-13.52
						c-3.2-0.47-6.44-0.71-9.67-0.7c-27.29,0-49.41,16.41-49.41,36.64c0,0.59,0.02,1.17,0.06,1.75
						c-10.97,5.75-18.14,15.23-18.14,25.96c0,17.55,19.18,31.78,42.85,31.78c2.07,0,4.13-0.11,6.19-0.34
						c5.21,9.33,17.61,15.9,32.07,15.9c12.51,0,23.47-4.91,29.58-12.28c6.91,2.29,14.14,3.45,21.42,3.43
						c10.77,0.1,21.39-2.5,30.9-7.57c5.9,6.61,16.02,10.97,27.5,10.97c16.16,0,29.6-8.63,32.43-20.01c2.21,0.5,4.47,0.76,6.73,0.75
						c12.53,0,22.68-7.53,22.68-16.82C23935.07,16809.85,23929,16803.73,23920.47,16801.31"/>
					<path id="Path_37289_00000044865834341170345190000017395842456801546671_" class="st1" d="M23920.47,16801.31
						c2.66-4.18,4.09-9.03,4.12-13.99c0-18.52-20.25-33.54-45.22-33.54c-16.06,0-30.15,6.21-38.17,15.57
						c-7.34-7.31-19.08-12.05-32.32-12.05c-6.71-0.04-13.37,1.25-19.59,3.77c-9.04-8.65-23.17-14.22-39.07-14.22
						c-27.29,0-49.41,16.41-49.41,36.64c0,0.59,0.02,1.17,0.06,1.75c-10.97,5.75-18.14,15.23-18.14,25.96
						c0,17.55,19.18,31.78,42.85,31.78c2.07,0,4.13-0.11,6.19-0.34c5.21,9.33,17.61,15.9,32.07,15.9c12.51,0,23.47-4.91,29.58-12.28
						c6.91,2.29,14.14,3.45,21.42,3.43c10.77,0.1,21.39-2.5,30.9-7.57c5.9,6.61,16.02,10.97,27.5,10.97
						c16.16,0,29.6-8.63,32.43-20.01c2.21,0.5,4.47,0.76,6.73,0.75c12.53,0,22.68-7.53,22.68-16.82
						C23935.07,16809.85,23929.01,16803.73,23920.47,16801.31z"/>
				</g>
				<g id="Group_111949_00000141422191800195585350000010840453838253542056_" transform="translate(296.943 222.668) rotate(14)">
					<g class="heart h2">
						<defs>
							
								<rect id="SVGID_1_" x="-31.92" y="8.01" transform="matrix(0.2419 -0.9703 0.9703 0.2419 -34.2926 -6.5208)" width="21.19" height="21.35"/>
						</defs>

						
							<g id="Group_110118_00000038380063954597786820000011683408895212286642_" transform="translate(0 0)" style="clip-path:url(#SVGID_00000147222228135126046800000012304319465857725625_);">
							<path id="Path_37298_00000007425116367131563420000002110736436097928363_" class="st3" d="M-16.66,9.27
								c-2.58,0.05-4.65,2.16-4.65,4.75c0-2.59-2.07-4.7-4.66-4.75c-2.66-0.01-4.83,2.14-4.84,4.8c0,0.01,0,0.02,0,0.04
								c0,4.34,2.05,8.42,5.52,11.02l3.98,2.98l3.98-2.98c3.47-2.6,5.52-6.68,5.51-11.02c0.01-2.66-2.14-4.83-4.8-4.84
								C-16.64,9.27-16.65,9.27-16.66,9.27"/>
							<path id="Path_37299_00000080894452684387921770000012884038348651933101_" class="st4" d="M-16.66,9.27
								c-2.58,0.05-4.65,2.16-4.65,4.75c0-2.59-2.07-4.7-4.66-4.75c-2.66-0.01-4.83,2.14-4.84,4.8c0,0.01,0,0.02,0,0.04
								c0,4.34,2.05,8.42,5.52,11.02l3.98,2.98l3.98-2.98c3.47-2.6,5.52-6.68,5.51-11.02c0.01-2.66-2.14-4.83-4.8-4.84
								C-16.64,9.27-16.65,9.27-16.66,9.27z"/>
						</g>
					</g>
				</g>
				<g id="Group_111950_00000022539274279429492500000013586708929661104823_" transform="translate(210.691 172.618) rotate(13)">
					<g class="heart h0">
						<defs>
							
								<rect id="SVGID_00000047766662346288771960000013427940057113076626_" x="-32.01" y="7.41" transform="matrix(0.225 -0.9744 0.9744 0.225 -35.5385 4.4576)" width="34.08" height="34.33"/>
						</defs>

						
							<g id="Group_110120_00000111885827395406145930000000101547801166289320_" transform="translate(0 0)" style="clip-path:url(#SVGID_00000057145027587637727240000016086919266712652982_);">
							<path id="Path_37300_00000003094340961128442240000000332904070806936734_" class="st3" d="M-7.48,9.42
								c-4.16,0.08-7.48,3.47-7.49,7.63c0-4.16-3.33-7.55-7.49-7.63c-4.28-0.02-7.77,3.44-7.78,7.73c0,0.02,0,0.04,0,0.06
								c0,6.98,3.29,13.54,8.87,17.72l6.4,4.78l6.39-4.78c5.59-4.18,8.87-10.74,8.87-17.72c0.02-4.28-3.44-7.77-7.72-7.79
								C-7.44,9.42-7.46,9.42-7.48,9.42"/>
							<path id="Path_37301_00000090999442623164300160000013728300644926161081_" class="st4" d="M-7.48,9.42
								c-4.16,0.08-7.48,3.47-7.49,7.63c0-4.16-3.33-7.55-7.49-7.63c-4.28-0.02-7.77,3.44-7.78,7.73c0,0.02,0,0.04,0,0.06
								c0,6.98,3.29,13.54,8.87,17.72l6.4,4.78l6.39-4.78c5.59-4.18,8.87-10.74,8.87-17.72c0.02-4.28-3.44-7.77-7.72-7.79
								C-7.44,9.42-7.46,9.42-7.48,9.42z"/>
						</g>
					</g>
				</g>
				
					<g id="Group_111951_00000171700538508438179000000017422853553770711680_" transform="matrix(0.966, -0.259, 0.259, 0.966, 84.961, 267.194)">
					<g class="heart h3">
						<defs>
							
								<rect id="SVGID_00000143617955455371418110000004839851889963836840_" x="-31.9" y="-8.44" transform="matrix(0.9659 -0.259 0.259 0.9659 -1.7146 -4.8557)" width="25.22" height="25.04"/>
						</defs>

						
							<g id="Group_110122_00000051353902956067611250000009363152240753736378_" transform="translate(0 0)" style="clip-path:url(#SVGID_00000177462838527147158860000013434857403999307948_);">
							<path id="Path_37302_00000111181945186055574450000003153509966318777490_" class="st7" d="M-13.79-7.05
								c-3.05,0.06-5.5,2.55-5.5,5.61c0-3.06-2.45-5.55-5.5-5.61c-3.15-0.01-5.71,2.53-5.72,5.68c0,0.01,0,0.03,0,0.04
								c0,5.12,2.42,9.95,6.52,13.02l4.7,3.52l4.7-3.52c4.1-3.07,6.52-7.9,6.52-13.02c0.01-3.15-2.53-5.71-5.68-5.72
								C-13.76-7.05-13.77-7.05-13.79-7.05"/>
							<path id="Path_37303_00000062174598920077505120000014092429263316381625_" class="st8" d="M-13.79-7.05
								c-3.05,0.06-5.5,2.55-5.5,5.61c0-3.06-2.45-5.55-5.5-5.61c-3.15-0.01-5.71,2.53-5.72,5.68c0,0.01,0,0.03,0,0.04
								c0,5.12,2.42,9.95,6.52,13.02l4.7,3.52l4.7-3.52c4.1-3.07,6.52-7.9,6.52-13.02c0.01-3.15-2.53-5.71-5.68-5.72
								C-13.76-7.05-13.77-7.05-13.79-7.05z"/>
						</g>
					</g>
				</g>
				<g id="Group_111952_00000161597059958568083430000000348886583057308843_" transform="translate(61.07 212.006) rotate(-17)">
					<g class="heart h1">
						<defs>
							
								<rect id="SVGID_00000065042100103595440660000004350909587578295485_" x="-31.59" y="-9.54" transform="matrix(0.9563 -0.2924 0.2924 0.9563 -1.6449 -5.493)" width="24.78" height="24.6"/>
						</defs>

						
							<g id="Group_110124_00000039828604960313389500000007538995291438133383_" transform="translate(0 0)" style="clip-path:url(#SVGID_00000110441683644310974650000005001237025552637883_);">
							<path id="Path_37304_00000160911309974696090440000002203653263390993802_" class="st10" d="M-13.8-8.18
								c-3,0.06-5.4,2.51-5.4,5.51c0-3-2.41-5.45-5.41-5.51c-3.09-0.01-5.61,2.49-5.62,5.58c0,0.01,0,0.03,0,0.04
								c0,5.04,2.37,9.78,6.41,12.79l4.62,3.45l4.62-3.45c4.03-3.02,6.41-7.76,6.41-12.79c0.01-3.09-2.49-5.61-5.58-5.62
								C-13.77-8.18-13.78-8.18-13.8-8.18"/>
							<path id="Path_37305_00000069384793252820543440000017534557983187322557_" class="st11" d="M-13.8-8.18
								c-3,0.06-5.4,2.51-5.4,5.51c0-3-2.41-5.45-5.41-5.51c-3.09-0.01-5.61,2.49-5.62,5.58c0,0.01,0,0.03,0,0.04
								c0,5.04,2.37,9.78,6.41,12.79l4.62,3.45l4.62-3.45c4.03-3.02,6.41-7.76,6.41-12.79c0.01-3.09-2.49-5.61-5.58-5.62
								C-13.77-8.18-13.78-8.18-13.8-8.18z"/>
						</g>
					</g>
				</g>
			</g>
			<g>
				<defs>
					<rect id="SVGID_00000150781386092493577310000000230229219244922045_" x="229" y="246.11" width="113" height="61"/>
				</defs>
				<clipPath id="SVGID_00000090296591151691154750000005513068956030176946_">
					<use xlink:href="#SVGID_00000150781386092493577310000000230229219244922045_"  style="overflow:visible;"/>
				</clipPath>
				
					
			</g>
		</g>
	</g>
</g>
<g id="Layer_3">
	<g>
		<g id="Group_110115_00000115515393764814758090000001289424661125875111_" transform="translate(2.5 -24.185)">
			<g transform="matrix(1, 0, 0, 1, -23663.64, -16361.15)">
				<g class="st16">
					<path class="st17" d="M23734.91,16453.79h-17.52v-3.87h6.18v-2.13h5.16v2.13h6.18V16453.79z M23718.29,16459.46
						c0-3.3,3.6-5.04,7.86-5.04c4.2,0,7.86,1.74,7.86,5.04c0,3.33-3.6,5.04-7.86,5.04S23718.29,16462.79,23718.29,16459.46z
						 M23733.08,16467.43l9.51,2.43l-1.47,4.32l-11.16-3.33c-2.88,2.04-6.96,3-11.13,3v-4.5c4.77,0,9.03-1.68,9.96-4.53l4.98,0.96
						C23733.59,16466.35,23733.38,16466.92,23733.08,16467.43z M23723.12,16459.46c0,0.87,1.2,1.44,3.03,1.44s3.03-0.57,3.03-1.44
						s-1.2-1.44-3.03-1.44S23723.12,16458.58,23723.12,16459.46z M23744.69,16453.54v4.92h-3v7.65h-5.07v-17.88h5.07v5.31H23744.69z
						"/>
					<path class="st17" d="M23816.33,16452.64h-11.13v3.48h6.69c2.31,0,4.56-0.33,5.91-0.9v4.11c-1.32,0.57-3.57,0.9-5.97,0.9h-11.7
						v-11.7h16.2L23816.33,16452.64L23816.33,16452.64z M23824.07,16469.32h-17.88v1.02h18.15v3.51h-23.16v-7.65h17.88v-1.02h-17.94
						v-3.51h22.95V16469.32z M23824.07,16460.77h-5.07v-12.54h5.07V16460.77z"/>
					<path class="st17" d="M23860.97,16461.46v3.87h-25.92v-3.87H23860.97z M23836.43,16466.47h23.04v7.68h-5.13v-3.81h-17.91
						L23836.43,16466.47L23836.43,16466.47z M23859.71,16460.32h-23.07v-12.09h22.77v3.36h-17.76v1.2h17.34v3h-17.34v1.2h18.06
						V16460.32z"/>
					<path class="st17" d="M23863.88,16448.83h14.49v6.93c0,10.41-5.61,16.89-14.49,16.89v-4.8c6.15-0.06,9.33-4.59,9.33-12.09
						v-2.31h-9.33V16448.83z M23890.22,16462.51h-3v11.34h-5.07v-25.62h5.07v9.36h3V16462.51z"/>
				</g>
				<g class="st16">
					<path class="st17" d="M23734.91,16453.79h-17.52v-3.87h6.18v-2.13h5.16v2.13h6.18V16453.79z M23718.29,16459.46
						c0-3.3,3.6-5.04,7.86-5.04c4.2,0,7.86,1.74,7.86,5.04c0,3.33-3.6,5.04-7.86,5.04S23718.29,16462.79,23718.29,16459.46z
						 M23733.08,16467.43l9.51,2.43l-1.47,4.32l-11.16-3.33c-2.88,2.04-6.96,3-11.13,3v-4.5c4.77,0,9.03-1.68,9.96-4.53l4.98,0.96
						C23733.59,16466.35,23733.38,16466.92,23733.08,16467.43z M23723.12,16459.46c0,0.87,1.2,1.44,3.03,1.44s3.03-0.57,3.03-1.44
						s-1.2-1.44-3.03-1.44S23723.12,16458.58,23723.12,16459.46z M23744.69,16453.54v4.92h-3v7.65h-5.07v-17.88h5.07v5.31H23744.69z
						"/>
					<path class="st17" d="M23816.33,16452.64h-11.13v3.48h6.69c2.31,0,4.56-0.33,5.91-0.9v4.11c-1.32,0.57-3.57,0.9-5.97,0.9h-11.7
						v-11.7h16.2L23816.33,16452.64L23816.33,16452.64z M23824.07,16469.32h-17.88v1.02h18.15v3.51h-23.16v-7.65h17.88v-1.02h-17.94
						v-3.51h22.95V16469.32z M23824.07,16460.77h-5.07v-12.54h5.07V16460.77z"/>
					<path class="st17" d="M23860.97,16461.46v3.87h-25.92v-3.87H23860.97z M23836.43,16466.47h23.04v7.68h-5.13v-3.81h-17.91
						L23836.43,16466.47L23836.43,16466.47z M23859.71,16460.32h-23.07v-12.09h22.77v3.36h-17.76v1.2h17.34v3h-17.34v1.2h18.06
						V16460.32z"/>
					<path class="st17" d="M23863.88,16448.83h14.49v6.93c0,10.41-5.61,16.89-14.49,16.89v-4.8c6.15-0.06,9.33-4.59,9.33-12.09
						v-2.31h-9.33V16448.83z M23890.22,16462.51h-3v11.34h-5.07v-25.62h5.07v9.36h3V16462.51z"/>
				</g>
			</g>
		</g>
		<g id="Group_110116" transform="translate(0 -16.58)">
			<g id="Group_110115" transform="translate(2.5 -24.185)">
				<g transform="matrix(1, 0, 0, 1, -23663.64, -16361.15)">
					<g class="st16">
						<path class="st18" d="M23731.83,16467.65h-17.52v-3.87h6.18v-2.13h5.16v2.13h6.18V16467.65z M23715.21,16473.32
							c0-3.3,3.6-5.04,7.86-5.04c4.2,0,7.86,1.74,7.86,5.04c0,3.33-3.6,5.04-7.86,5.04S23715.21,16476.65,23715.21,16473.32z
							 M23730,16481.3l9.51,2.43l-1.47,4.32l-11.16-3.33c-2.88,2.04-6.96,3-11.13,3v-4.5c4.77,0,9.03-1.68,9.96-4.53l4.98,0.96
							C23730.51,16480.22,23730.3,16480.79,23730,16481.3z M23720.04,16473.32c0,0.87,1.2,1.44,3.03,1.44s3.03-0.57,3.03-1.44
							s-1.2-1.44-3.03-1.44S23720.04,16472.45,23720.04,16473.32z M23741.61,16467.41v4.92h-3v7.65h-5.07v-17.88h5.07v5.31H23741.61
							z"/>
						<path class="st18" d="M23813.25,16466.51h-11.13v3.48h6.69c2.31,0,4.56-0.33,5.91-0.9v4.11c-1.32,0.57-3.57,0.9-5.97,0.9
							h-11.7v-11.7h16.2L23813.25,16466.51L23813.25,16466.51z M23820.99,16483.19h-17.88v1.02h18.15v3.51h-23.16v-7.65h17.88v-1.02
							h-17.94v-3.51h22.95V16483.19z M23820.99,16474.64h-5.07v-12.54h5.07V16474.64z"/>
						<path class="st18" d="M23857.89,16475.33v3.87h-25.92v-3.87H23857.89z M23833.35,16480.34h23.04v7.68h-5.13v-3.81h-17.91
							L23833.35,16480.34L23833.35,16480.34z M23856.63,16474.19h-23.07v-12.09h22.77v3.36h-17.76v1.2h17.34v3h-17.34v1.2h18.06
							V16474.19z"/>
						<path class="st18" d="M23860.8,16462.7h14.49v6.93c0,10.41-5.61,16.89-14.49,16.89v-4.8c6.15-0.06,9.33-4.59,9.33-12.09v-2.31
							h-9.33V16462.7z M23887.14,16476.38h-3v11.34h-5.07v-25.62h5.07v9.36h3V16476.38z"/>
					</g>
					<g class="st16">
						<path class="st19" d="M23731.83,16467.65h-17.52v-3.87h6.18v-2.13h5.16v2.13h6.18V16467.65z M23715.21,16473.32
							c0-3.3,3.6-5.04,7.86-5.04c4.2,0,7.86,1.74,7.86,5.04c0,3.33-3.6,5.04-7.86,5.04S23715.21,16476.65,23715.21,16473.32z
							 M23730,16481.3l9.51,2.43l-1.47,4.32l-11.16-3.33c-2.88,2.04-6.96,3-11.13,3v-4.5c4.77,0,9.03-1.68,9.96-4.53l4.98,0.96
							C23730.51,16480.22,23730.3,16480.79,23730,16481.3z M23720.04,16473.32c0,0.87,1.2,1.44,3.03,1.44s3.03-0.57,3.03-1.44
							s-1.2-1.44-3.03-1.44S23720.04,16472.45,23720.04,16473.32z M23741.61,16467.41v4.92h-3v7.65h-5.07v-17.88h5.07v5.31H23741.61
							z"/>
						<path class="st19" d="M23813.25,16466.51h-11.13v3.48h6.69c2.31,0,4.56-0.33,5.91-0.9v4.11c-1.32,0.57-3.57,0.9-5.97,0.9
							h-11.7v-11.7h16.2L23813.25,16466.51L23813.25,16466.51z M23820.99,16483.19h-17.88v1.02h18.15v3.51h-23.16v-7.65h17.88v-1.02
							h-17.94v-3.51h22.95V16483.19z M23820.99,16474.64h-5.07v-12.54h5.07V16474.64z"/>
						<path class="st19" d="M23857.89,16475.33v3.87h-25.92v-3.87H23857.89z M23833.35,16480.34h23.04v7.68h-5.13v-3.81h-17.91
							L23833.35,16480.34L23833.35,16480.34z M23856.63,16474.19h-23.07v-12.09h22.77v3.36h-17.76v1.2h17.34v3h-17.34v1.2h18.06
							V16474.19z"/>
						<path class="st19" d="M23860.8,16462.7h14.49v6.93c0,10.41-5.61,16.89-14.49,16.89v-4.8c6.15-0.06,9.33-4.59,9.33-12.09v-2.31
							h-9.33V16462.7z M23887.14,16476.38h-3v11.34h-5.07v-25.62h5.07v9.36h3V16476.38z"/>
					</g>
				</g>
				<g id="Group_110114" transform="matrix(0.998, -0.07, 0.07, 0.998, -23529.77, -16300.64)">
					<path id="Path_37290" class="st20" d="M22424.97,18020.56l19.15-4.12l0.34,1.66l-19.15,4.11L22424.97,18020.56z"/>
					<g id="Group_110113" transform="translate(0.27 0.27)">
						<g id="Group_110112" transform="translate(-4.217 -2.57)">
							<path id="Path_37291" class="st21" d="M22431.79,18006.02c-4.35,1.08-7.05,5.41-6.12,9.79c-0.85-4.38-5.08-7.26-9.47-6.44
								c-4.53,1.01-7.39,5.48-6.4,10.01c1.49,7.37,6.35,13.6,13.12,16.85l7.71,3.65l5.61-6.52c4.91-5.74,6.89-13.43,5.36-20.82l0,0
								c-0.85-4.48-5.18-7.42-9.65-6.56C22431.89,18006,22431.84,18006.01,22431.79,18006.02"/>
							<path id="Path_37292" class="st22" d="M22431.79,18006.02c-4.35,1.08-7.05,5.41-6.12,9.79c-0.85-4.38-5.08-7.26-9.47-6.44
								c-4.53,1.01-7.39,5.48-6.4,10.01c1.49,7.37,6.35,13.6,13.12,16.85l7.71,3.65l5.61-6.52c4.91-5.74,6.89-13.43,5.36-20.82l0,0
								c-0.85-4.48-5.18-7.42-9.65-6.56C22431.9,18006,22431.84,18006.01,22431.79,18006.02z"/>
							<path id="Path_37293" class="st23" d="M22445.62,18020.81l0.93-2.64l-1.89-2.04c-0.27-0.29-0.25-0.74,0.04-1.01
								c0.14-0.13,0.34-0.2,0.53-0.19l8.34,0.76c0.43,0.04,0.78,0.36,0.87,0.79s-0.11,0.86-0.48,1.07l-7.33,4.13
								c-0.34,0.19-0.77,0.06-0.96-0.28C22445.56,18021.22,22445.55,18021.01,22445.62,18020.81"/>
							<path id="Path_37294" class="st24" d="M22425.3,18019.67c1.05,0.52,1.79,1.49,2.01,2.64c0.25,1.15-0.05,2.34-0.8,3.24"/>
							<path id="Path_37295" class="st20" d="M22405.48,18026.06l0.37,1.79l21.54-4.63c0.02-0.62-0.11-1.23-0.37-1.8
								L22405.48,18026.06z"/>
							<path id="Path_37296" class="st25" d="M22398.53,18025.73l6.45-1.38l2.31,2.26l-6.45,1.38L22398.53,18025.73z"/>
							<path id="Path_37297" class="st25" d="M22399.62,18031.01l6.45-1.38l1.22-3.02l-6.44,1.38L22399.62,18031.01z"/>
						</g>
					</g>
				</g>
			</g>
		</g>
	</g>
</g>
</svg>
