<svg xmlns="http://www.w3.org/2000/svg" width="12" height="17" viewBox="0 0 12 17">
  <g id="icon_pin" transform="translate(0 -1)">
    <path id="패스_13904" data-name="패스 13904" d="M2619,2506a.61.61,0,0,1-.406-.156l0,0c-.47-.425-4.59-4.253-4.59-7.692a5.276,5.276,0,0,1,1.483-3.644,4.865,4.865,0,0,1,7.035,0,5.27,5.27,0,0,1,1.482,3.644c0,1.852-1.2,3.806-2.214,5.12a18.965,18.965,0,0,1-2.379,2.576A.613.613,0,0,1,2619,2506Zm0-9.851a1.959,1.959,0,1,0,1.917,1.959A1.94,1.94,0,0,0,2619,2496.149Z" transform="translate(-2613 -2490)"/>
    <rect id="사각형_3218" data-name="사각형 3218" width="12" height="17" transform="translate(0 1)" fill="#fff" opacity="0"/>
  </g>
</svg>
