<svg xmlns="http://www.w3.org/2000/svg" xmlns:xlink="http://www.w3.org/1999/xlink" width="70" height="70.025" viewBox="0 0 70 70.025">
  <defs>
    <clipPath id="clip-path">
      <rect id="사각형_3443" data-name="사각형 3443" width="66.398" height="67.518" transform="translate(0 -1)" fill="none"/>
    </clipPath>
  </defs>
  <g id="img" transform="translate(1.166 -0.448)">
    <rect id="area" width="70" height="70" transform="translate(-1.166 0.473)" opacity="0"/>
    <line id="선_777" data-name="선 777" y1="11" x2="16" transform="translate(15.334 11.145)" fill="none" stroke="#161615" stroke-linecap="round" stroke-miterlimit="10" stroke-width="3"/>
    <line id="선_778" data-name="선 778" x1="17" y1="11" transform="translate(37.334 11.145)" fill="none" stroke="#161615" stroke-linecap="round" stroke-miterlimit="10" stroke-width="3"/>
    <rect id="사각형_3441" data-name="사각형 3441" width="63.137" height="45.78" transform="translate(2.795 21.556)" fill="#7582f0"/>
    <g id="그룹_1819" data-name="그룹 1819" transform="translate(1.165 1.448)">
      <g id="그룹_1818" data-name="그룹 1818" clip-path="url(#clip-path)">
        <path id="패스_38125" data-name="패스 38125" d="M0,0H63.137V43.854H0Z" transform="translate(1.63 21.033)" fill="none" stroke="#161615" stroke-linecap="round" stroke-linejoin="round" stroke-width="2"/>
        <path id="패스_36303" data-name="패스 36303" d="M20.932,4.809A4.058,4.058,0,1,1,16.873.75a4.059,4.059,0,0,1,4.059,4.059" transform="translate(16.326 3.985)" fill="#7582f0"/>
        <path id="패스_36304" data-name="패스 36304" d="M20.932,4.809A4.058,4.058,0,1,1,16.873.75,4.059,4.059,0,0,1,20.932,4.809Z" transform="translate(16.326 3.985)" fill="none" stroke="#161615" stroke-miterlimit="10" stroke-width="2"/>
        <rect id="사각형_20502" data-name="사각형 20502" width="55.137" height="35.78" transform="translate(5.63 25.107)" fill="#fff" stroke="#161615" stroke-linecap="round" stroke-linejoin="round" stroke-miterlimit="10" stroke-width="2"/>
      </g>
    </g>
    <text id="바로_드림존" data-name="바로
드림존" transform="translate(33.629 40.896)" font-size="13" font-family="GmarketSansBold, Gmarket Sans" font-weight="700"  letter-spacing="-0.025em"><tspan x="-12.344" y="0">바로</tspan><tspan x="-18.434" y="14">드림존</tspan></text>
  </g>
</svg>
