<svg xmlns="http://www.w3.org/2000/svg" xmlns:xlink="http://www.w3.org/1999/xlink" width="57.661" height="55.412" viewBox="0 0 57.661 55.412">
  <defs>
    <linearGradient id="linear-gradient" x1="0.5" x2="1.612" y2="1.343" gradientUnits="objectBoundingBox">
      <stop offset="0" stop-color="#fff"/>
      <stop offset="1" stop-color="#cecece"/>
    </linearGradient>
    <filter id="합치기_179" x="0.339" y="6.588" width="57.321" height="48.824" filterUnits="userSpaceOnUse">
      <feOffset dx="2" dy="4" input="SourceAlpha"/>
      <feGaussianBlur stdDeviation="2" result="blur"/>
      <feFlood flood-opacity="0.161"/>
      <feComposite operator="in" in2="blur"/>
      <feComposite in="SourceGraphic"/>
    </filter>
    <linearGradient id="linear-gradient-2" x1="-0.119" y1="0.137" x2="0.912" y2="1.186" gradientUnits="objectBoundingBox">
      <stop offset="0" stop-color="#ffc802"/>
      <stop offset="1" stop-color="#feb110"/>
    </linearGradient>
    <linearGradient id="linear-gradient-3" x1="0.008" y1="0.696" x2="0.993" y2="0.298" gradientUnits="objectBoundingBox">
      <stop offset="0" stop-color="#81c5ff"/>
      <stop offset="1" stop-color="#3aa5ff"/>
    </linearGradient>
    <filter id="사각형_20619" x="4.339" y="8.588" width="45.321" height="9.914" filterUnits="userSpaceOnUse">
      <feOffset input="SourceAlpha"/>
      <feGaussianBlur stdDeviation="0.5" result="blur-2"/>
      <feFlood flood-color="#fff" flood-opacity="0.161" result="color"/>
      <feComposite operator="out" in="SourceGraphic" in2="blur-2"/>
      <feComposite operator="in" in="color"/>
      <feComposite operator="in" in2="SourceGraphic"/>
    </filter>
    <filter id="패스_38163" x="15.134" y="21.545" width="25.732" height="19.723" filterUnits="userSpaceOnUse">
      <feOffset dx="1" dy="1" input="SourceAlpha"/>
      <feGaussianBlur stdDeviation="1" result="blur-3"/>
      <feFlood flood-opacity="0.161"/>
      <feComposite operator="in" in2="blur-3"/>
      <feComposite in="SourceGraphic"/>
    </filter>
  </defs>
  <g id="그룹_112356" data-name="그룹 112356" transform="translate(7064.891 17342.891)">
    <g id="그룹_112326" data-name="그룹 112326" transform="translate(-7060.551 -17339.26)">
      <g transform="matrix(1, 0, 0, 1, -4.34, -3.63)" filter="url(#합치기_179)">
        <path id="합치기_179-2" data-name="합치기 179" d="M9.415,36.824a8,8,0,0,1-8-8v-19A2,2,0,0,1,0,7.915V2A2,2,0,0,1,2,0H43.321a2,2,0,0,1,2,2V7.915A2,2,0,0,1,43.9,9.828v19a8,8,0,0,1-8,8Z" transform="translate(4.34 8.59)" fill="url(#linear-gradient)"/>
      </g>
      <g id="그룹_112325" data-name="그룹 112325" transform="translate(0 4.958)">
        <path id="사각형_20618" data-name="사각형 20618" d="M2,0H40.49a2,2,0,0,1,2,2V23.867a8,8,0,0,1-8,8H8a8,8,0,0,1-8-8V2A2,2,0,0,1,2,0Z" transform="translate(1.415 4.957)" fill="url(#linear-gradient-2)"/>
        <g data-type="innerShadowGroup">
          <rect id="사각형_20619-2" data-name="사각형 20619" width="45.321" height="9.914" rx="2" transform="translate(45.321 9.914) rotate(180)" fill="url(#linear-gradient-3)"/>
          <g transform="matrix(1, 0, 0, 1, -4.34, -8.59)" filter="url(#사각형_20619)">
            <rect id="사각형_20619-3" data-name="사각형 20619" width="45.321" height="9.914" rx="2" transform="translate(49.66 18.5) rotate(180)" fill="#fff"/>
          </g>
        </g>
        <rect id="사각형_20629" data-name="사각형 20629" width="7" height="3" rx="1.5" transform="translate(9.659 3.244)" fill="#41508b"/>
        <rect id="사각형_20630" data-name="사각형 20630" width="7" height="3" rx="1.5" transform="translate(28.659 3.244)" fill="#41508b"/>
      </g>
      <g transform="matrix(1, 0, 0, 1, -4.34, -3.63)" filter="url(#패스_38163)">
        <path id="패스_38163-2" data-name="패스 38163" d="M-7127.489-16629.879l5.179,5.176,8.9-8.895" transform="translate(7147.45 16659.97)" fill="none" stroke="#d20000" stroke-linecap="round" stroke-linejoin="round" stroke-width="4"/>
      </g>
    </g>
    <rect id="사각형_20624" data-name="사각형 20624" width="54" height="54" transform="translate(-7064.891 -17342.891)" fill="none"/>
  </g>
</svg>
