<?xml version="1.0" encoding="utf-8"?>
<!-- Generator: Adobe Illustrator 26.2.1, SVG Export Plug-In . SVG Version: 6.00 Build 0)  -->
<svg version="1.1" xmlns="http://www.w3.org/2000/svg" xmlns:xlink="http://www.w3.org/1999/xlink" x="0px" y="0px" viewBox="0 0 161 400" style="enable-background:new 0 0 161 400;" xml:space="preserve">
<style type="text/css">
.st0{fill:none;stroke:#000000;stroke-width:6;stroke-linecap:round;stroke-linejoin:round;stroke-miterlimit:10;stroke-dasharray:350;stroke-dashoffset:350;}
.st1{fill:none;stroke:#000000;stroke-width:3.5;stroke-linecap:round;stroke-linejoin:round;stroke-miterlimit:10;stroke-dasharray:350;stroke-dashoffset:350;}
.st2{fill:none;stroke:#000000;stroke-width:3;stroke-linecap:round;stroke-linejoin:round;stroke-miterlimit:10;stroke-dasharray:350;stroke-dashoffset:350;}
.st3{fill:#FEC211;}
.st4{fill:none;stroke:#000000;stroke-width:3;stroke-linecap:round;stroke-linejoin:round;}
.st5{fill:#FFFFFF;}
.st6{fill:#FFC1AB;}
.st7{fill:#7582F0;}
.st8{enable-background:new;}
.st9{fill:#FFFFFF;stroke:#000000;stroke-miterlimit:10;}
	
.right_spring {stroke-width:3;stroke:#000; }
.left_spring {stroke-width:3;stroke:#000; }
.stroke{fill:none;stroke:#000;stroke-width:3.5;stroke-linecap:round;stroke-linejoin:round;stroke-miterlimit:10;animation:brush both infinite linear 3.8s;stroke-dasharray:350;stroke-dashoffset:350;}
.stroke.left{animation-delay: 0.6s}
.stroke.left2{animation-delay: 0.4s}

.stroke.right{animation-delay: 0.8s}
	
@keyframes brush {
0% {stroke-dashoffset:350;}
34% {stroke-dashoffset:0;}
100% {stroke-dashoffset:0;}
}
.box {transform-origin: 50% 50%; transform: translateY(0); animation:box linear both infinite 1.5s;}
@keyframes box {
0% {transform: translateY(0)}
50% {transform: translateY(20px)}
100% {transform: translateY(0)}
}
</style>
<g id="Layer_1">
	<g id="그룹_112006">
		<path id="패스_38036" class="st0 stroke right" d="M127.8,200.2c1.3-4.8,4.7-8.8,9.3-10.8c1.9-0.9,4-1.1,6-0.6c2,0.6,3.4,2.4,3.4,4.6
			c-0.2,2-2.7,3.7-4.4,2.6c-1.9-1.1-1.7-3.9-0.7-5.9c2.5-4.6,7.8-7,12.9-5.8"/>
	</g>
	<g id="그룹_112002">
		<path class="st1 stroke left" d="M33,181c0,0-3.3-13-14.4-13.5c0,0-3.1,0.4-4.1,2.9s0.6,6.1,4.8,6.1c4.1,0.1,7-5.8,5.1-10.2s-5-6.1-8.7-8
			s-10.5-1.8-14.1,0"/>
	</g>
	<g id="그룹_112004">
		<path id="패스_38035" class="st2 stroke left2" d="M36.8,161.1c0,0-1.8-14.3-13-21.3"/>
	</g>
</g>
<g id="Layer_2" class="box">
	<rect id="사각형_20413" x="17.9" y="209.9" class="st3" width="125.6" height="155.5"/>
	<rect id="사각형_20414" x="17.9" y="209.9" class="st4" width="125.6" height="155.5"/>
	<path id="패스_38021" class="st5" d="M116.4,172.9v36.9h-10v-36.9c0-11.2-11.6-20.3-25.8-20.3s-25.8,9.1-25.8,20.3v36.9h-10
		v-36.9c0-15.6,16-28.2,35.8-28.2c9.1-0.1,18,2.8,25.3,8.3C112.4,158.1,116.4,165.1,116.4,172.9"/>
	<path id="패스_38022" class="st4" d="M116.4,172.9v36.9h-10v-36.9c0-11.2-11.6-20.3-25.8-20.3s-25.8,9.1-25.8,20.3v36.9h-10
		v-36.9c0-15.6,16-28.2,35.8-28.2c9.1-0.1,18,2.8,25.3,8.3C112.4,158.1,116.4,165.1,116.4,172.9z"/>
	<path id="패스_38023" class="st6" d="M48.1,85.5c8.4,7.9,14.6,17.8,17.9,28.8c-8.3,2-13.7,6.8-13.1,19.3
		c0.8,18.8,13.6,19,29.3,18.4s28.4-2,27.6-20.8c-0.6-13.5-7.3-17.4-16.9-18.3c-1.3-7.6-3.6-15.1-6.8-22.2
		c-12.3-28.5-40-48.3-69.4-56L8.9,66.4C23.5,69.4,37.4,75.4,48.1,85.5"/>
	<path id="패스_38024" class="st4" d="M48.1,85.5c8.4,7.9,14.6,17.8,17.9,28.8c-8.3,2-13.7,6.8-13.1,19.3
		c0.8,18.8,13.6,19,29.3,18.4s28.4-2,27.6-20.8c-0.6-13.5-7.3-17.4-16.9-18.3c-1.3-7.6-3.6-15.1-6.8-22.2
		c-12.3-28.5-40-48.3-69.4-56L8.9,66.4C23.5,69.4,37.4,75.4,48.1,85.5z"/>
	<path id="패스_38025" class="st6" d="M64.7,139.5c8.6-0.4,10.3,7.6,10.7,17.6s-0.7,18.1-9.2,18.4s-10.3-7.6-10.7-17.6
		S56.1,139.8,64.7,139.5"/>
	<path id="패스_38026" class="st4" d="M64.7,139.5c8.6-0.4,10.3,7.6,10.7,17.6s-0.7,18.1-9.2,18.4s-10.3-7.6-10.7-17.6
		S56.1,139.8,64.7,139.5z"/>
	<path id="패스_38027" class="st6" d="M95,136.5c8.6-0.4,10.3,8,10.8,18.4s-0.6,18.9-9.2,19.3s-10.3-8-10.8-18.4
		S86.4,136.8,95,136.5"/>
	<path id="패스_38028" class="st4" d="M95,136.5c8.6-0.4,10.3,8,10.8,18.4s-0.6,18.9-9.2,19.3s-10.3-8-10.8-18.4
		S86.4,136.8,95,136.5z"/>
	<path id="패스_38029" class="st6" d="M80.5,140.5c8.6-0.4,10.3,8,10.8,18.4c0.4,10.4-0.6,18.9-9.2,19.3s-10.3-8-10.8-18.4
		S71.9,140.8,80.5,140.5"/>
	<path id="패스_38030" class="st4" d="M80.5,140.5c8.6-0.4,10.3,8,10.8,18.4c0.4,10.4-0.6,18.9-9.2,19.3s-10.3-8-10.8-18.4
		S71.9,140.8,80.5,140.5z"/>
	<path id="패스_38031" class="st6" d="M102.3,115.5c0,0,20.3,6.2,17,26.5c-3.2,20.3-30.2,13.5-33.9,8.9c-3.7-4.5,2.7-13,16.9-11.1
		c0,0-8.7,1.3-14.7-9.6"/>
	<path id="패스_38032" class="st4" d="M102.3,115.5c0,0,20.3,6.2,17,26.5c-3.2,20.3-30.2,13.5-33.9,8.9c-3.7-4.5,2.7-13,16.9-11.1
		c0,0-8.7,1.3-14.7-9.6"/>
	<rect id="사각형_20415" x="25.4" y="217.8" class="st7" width="111.1" height="139.8"/>
	<rect id="사각형_20416" x="25.4" y="217.8" class="st4" width="111.1" height="139.8"/>
	<g>
		<g class="st8">
			<path d="M58,256.5h7v33.4H44.1v-33.4h7V267H58V256.5z M58,283.3v-9.8H51v9.8H58z M80.7,275.6h-4.2v15.9h-7.1v-35.9h7.1v13.1h4.2
				V275.6z"/>
			<path d="M118.5,283.8v6.5H82.2v-6.5h14.5v-4H84.2v-14.6h25.3v-2.4H84.1v-6.2h32.4V271H91.2v2.5h25.7v6.2h-13v4H118.5z"/>
		</g>
		<g class="st8">
			<path d="M79.1,332.2H42.8v-6.6h36.3V332.2z M77.2,305.1H52.1v9h25.5v6.6H44.8v-22.2h32.3V305.1z"/>
			<path d="M105.2,310.5H90.4v2.1h9.2c3.2,0,6.4-0.5,8.3-1.3v5.4c-1.8,0.8-5,1.3-8.4,1.3H83.4v-12.4h14.8v-2.1H83.3V298h21.9V310.5z
				 M116.9,333.5H84.8v-13.7h32.1V333.5z M109.8,327.9v-2.6h-18v2.6H109.8z M116.9,318.5h-7.1v-20.9h7.1V318.5z"/>
		</g>
	</g>
	<g>
		<g class="st8">
			<path class="st9" d="M55.2,253.4h7v33.4H41.3v-33.4h7v10.5h6.9V253.4z M55.2,280.2v-9.8h-6.9v9.8H55.2z M78,272.5h-4.2v15.9h-7.1
				v-35.9h7.1v13.1H78V272.5z"/>
			<path class="st9" d="M115.7,280.7v6.5H79.5v-6.5H94v-4H81.5V262h25.3v-2.4H81.4v-6.2h32.4V268H88.5v2.5h25.7v6.2h-13v4H115.7z"/>
		</g>
		<g class="st8">
			<path class="st9" d="M76.4,329.2H40.1v-6.6h36.3V329.2z M74.4,302H49.3v9h25.5v6.6H42.1v-22.2h32.3V302z"/>
			<path class="st9" d="M102.4,307.4H87.6v2.1h9.2c3.2,0,6.4-0.5,8.3-1.3v5.4c-1.8,0.8-5,1.3-8.4,1.3H80.6v-12.4h14.8v-2.1H80.5V295
				h21.9V307.4z M114.2,330.4H82.1v-13.7h32.1V330.4z M107.1,324.9v-2.6h-18v2.6H107.1z M114.2,315.5h-7.1v-20.9h7.1V315.5z"/>
		</g>
	</g>
</g>
</svg>
