<svg xmlns="http://www.w3.org/2000/svg" xmlns:xlink="http://www.w3.org/1999/xlink" width="44" height="43.983" viewBox="0 0 44 43.983">
  <defs>
    <linearGradient id="linear-gradient" x1="-0.134" y1="1.218" x2="1.31" y2="-0.195" gradientUnits="objectBoundingBox">
      <stop offset="0" stop-color="#ff628c"/>
      <stop offset="1" stop-color="#f42664"/>
    </linearGradient>
    <filter id="빼기_21" x="0" y="-0.003" width="43.983" height="43.983" filterUnits="userSpaceOnUse">
      <feOffset dx="2" dy="4" input="SourceAlpha"/>
      <feGaussianBlur stdDeviation="2" result="blur"/>
      <feFlood flood-opacity="0.161"/>
      <feComposite operator="in" in2="blur"/>
      <feComposite in="SourceGraphic"/>
    </filter>
    <clipPath id="clip-path">
      <rect id="사각형_20522" data-name="사각형 20522" width="20.708" height="3.78" fill="#fff"/>
    </clipPath>
    <linearGradient id="linear-gradient-2" x1="0.953" y1="0.484" x2="0.001" y2="0.558" gradientUnits="objectBoundingBox">
      <stop offset="0" stop-color="#fc0"/>
      <stop offset="1" stop-color="#feaf11"/>
    </linearGradient>
    <filter id="다각형_49" x="16" y="15.982" width="28" height="28" filterUnits="userSpaceOnUse">
      <feOffset dx="2" dy="4" input="SourceAlpha"/>
      <feGaussianBlur stdDeviation="2" result="blur-2"/>
      <feFlood flood-opacity="0.161"/>
      <feComposite operator="in" in2="blur-2"/>
      <feComposite in="SourceGraphic"/>
    </filter>
    <linearGradient id="linear-gradient-3" x1="0.13" y1="0.173" x2="0.835" y2="0.89" gradientUnits="objectBoundingBox">
      <stop offset="0" stop-color="#fffbde"/>
      <stop offset="1" stop-color="#ffed95"/>
    </linearGradient>
    <filter id="타원_759" x="13.524" y="14.629" width="28.88" height="28.88" filterUnits="userSpaceOnUse">
      <feOffset dy="3" input="SourceAlpha"/>
      <feGaussianBlur stdDeviation="3" result="blur-3"/>
      <feFlood flood-opacity="0.161"/>
      <feComposite operator="in" in2="blur-3"/>
      <feComposite in="SourceGraphic"/>
    </filter>
    <filter id="타원_759-2" x="13.524" y="14.629" width="28.88" height="28.88" filterUnits="userSpaceOnUse">
      <feOffset input="SourceAlpha"/>
      <feGaussianBlur stdDeviation="1" result="blur-4"/>
      <feFlood flood-color="#73208a" flood-opacity="0.302" result="color"/>
      <feComposite operator="out" in="SourceGraphic" in2="blur-4"/>
      <feComposite operator="in" in="color"/>
      <feComposite operator="in" in2="SourceGraphic"/>
    </filter>
    <linearGradient id="linear-gradient-4" x1="0.137" y1="0.67" x2="0.918" y2="0.292" xlink:href="#linear-gradient-2"/>
    <filter id="다각형_50" x="21" y="19.382" width="14" height="13" filterUnits="userSpaceOnUse">
      <feOffset input="SourceAlpha"/>
      <feGaussianBlur stdDeviation="1" result="blur-5"/>
      <feFlood flood-color="#723900" flood-opacity="0"/>
      <feComposite operator="in" in2="blur-5"/>
      <feComposite in="SourceGraphic"/>
    </filter>
  </defs>
  <g id="그룹_112309" data-name="그룹 112309" transform="translate(7077 18467.982)">
    <g id="그룹_112298" data-name="그룹 112298" transform="translate(-1856 67)">
      <rect id="사각형_20523" data-name="사각형 20523" width="32" height="32" transform="translate(-5217 -18533)" fill="none"/>
      <g id="그룹_112179" data-name="그룹 112179" transform="translate(-359.741 658.276)">
        <g id="그룹_112180" data-name="그룹 112180" transform="translate(-4857.259 -19169.01) rotate(-45)">
          <g transform="matrix(0.71, 0.71, -0.71, 0.71, 14.32, -19.97)" filter="url(#빼기_21)">
            <path id="빼기_21-2" data-name="빼기 21" d="M29.465,13.766H2a2,2,0,0,1-2-2V9.707c.074.007.151.011.231.011a2.313,2.313,0,1,0,0-4.627c-.077,0-.155,0-.231.011V2A2,2,0,0,1,2,0H29.465a2,2,0,0,1,2,2v9.766A2,2,0,0,1,29.465,13.766Z" transform="translate(35.98 11.73) rotate(135)" fill="url(#linear-gradient)"/>
          </g>
        </g>
        <g id="그룹_112181" data-name="그룹 112181" transform="translate(-4850.763 -19168.445) rotate(-45)">
          <g id="그룹_112181-2" data-name="그룹 112181" transform="translate(0 0)" clip-path="url(#clip-path)">
            <path id="패스_38128" data-name="패스 38128" d="M1.573,0a2.2,2.2,0,0,1,.619.077,1.557,1.557,0,0,1,.443.2.271.271,0,0,1,.129.2A.327.327,0,0,1,2.7.7.312.312,0,0,1,2.527.83.261.261,0,0,1,2.31.794,1.283,1.283,0,0,0,1.975.652,1.7,1.7,0,0,0,1.557.608.808.808,0,0,0,.9.89a1.5,1.5,0,0,0-.232.946v.108a1.545,1.545,0,0,0,.222.936.8.8,0,0,0,.676.286,1.544,1.544,0,0,0,.451-.059,1.458,1.458,0,0,0,.374-.178A.28.28,0,0,1,2.795,3a.328.328,0,0,1,.062.237.306.306,0,0,1-.139.217A1.62,1.62,0,0,1,2.2,3.7a2.429,2.429,0,0,1-.652.083,1.917,1.917,0,0,1-.652-.1,1.2,1.2,0,0,1-.485-.32,1.446,1.446,0,0,1-.3-.554A2.719,2.719,0,0,1,0,2V1.784A2.719,2.719,0,0,1,.106.977,1.427,1.427,0,0,1,.413.423,1.21,1.21,0,0,1,.908.1,2,2,0,0,1,1.573,0" transform="translate(0 0)" fill="#fff"/>
            <path id="패스_38129" data-name="패스 38129" d="M9.474,0a2.019,2.019,0,0,1,.67.1,1.21,1.21,0,0,1,.5.32,1.427,1.427,0,0,1,.307.554,2.719,2.719,0,0,1,.106.807V2a2.719,2.719,0,0,1-.106.807,1.427,1.427,0,0,1-.307.554,1.21,1.21,0,0,1-.5.32,2.23,2.23,0,0,1-1.341,0,1.21,1.21,0,0,1-.5-.32A1.427,1.427,0,0,1,8,2.8,2.719,2.719,0,0,1,7.9,2V1.784A2.719,2.719,0,0,1,8,.977,1.427,1.427,0,0,1,8.309.423,1.21,1.21,0,0,1,8.8.1a2.019,2.019,0,0,1,.67-.1m0,.6a1.16,1.16,0,0,0-.4.062.651.651,0,0,0-.286.2.934.934,0,0,0-.173.379,2.576,2.576,0,0,0-.057.588v.108a2.576,2.576,0,0,0,.057.588.934.934,0,0,0,.173.379.651.651,0,0,0,.286.2,1.3,1.3,0,0,0,.794,0,.651.651,0,0,0,.286-.2.934.934,0,0,0,.173-.379,2.576,2.576,0,0,0,.057-.588V1.836a2.576,2.576,0,0,0-.057-.588.934.934,0,0,0-.173-.379.651.651,0,0,0-.286-.2A1.16,1.16,0,0,0,9.474.6" transform="translate(-4.503 0)" fill="#fff"/>
            <path id="패스_38130" data-name="패스 38130" d="M17.034.06a.4.4,0,0,1,.232.067.244.244,0,0,1,.1.217V2.236a1.959,1.959,0,0,0,.046.462.758.758,0,0,0,.142.3.519.519,0,0,0,.245.165,1.279,1.279,0,0,0,.7,0A.519.519,0,0,0,18.743,3a.758.758,0,0,0,.142-.3,1.959,1.959,0,0,0,.046-.462V.344a.244.244,0,0,1,.1-.217.435.435,0,0,1,.464,0,.244.244,0,0,1,.1.217V2.226a2.59,2.59,0,0,1-.1.763,1.17,1.17,0,0,1-.278.487,1.028,1.028,0,0,1-.451.26,2.514,2.514,0,0,1-1.238,0,1.028,1.028,0,0,1-.451-.26,1.17,1.17,0,0,1-.278-.487,2.59,2.59,0,0,1-.1-.763V.344a.244.244,0,0,1,.1-.217A.4.4,0,0,1,17.034.06" transform="translate(-9.526 -0.034)" fill="#fff"/>
            <path id="패스_38131" data-name="패스 38131" d="M26.615.132a1.828,1.828,0,0,1,.575.08,1.08,1.08,0,0,1,.394.222.876.876,0,0,1,.229.338,1.176,1.176,0,0,1,.075.423v.072a1.2,1.2,0,0,1-.077.431.952.952,0,0,1-.237.356,1.172,1.172,0,0,1-.4.242,1.58,1.58,0,0,1-.562.09h-.743v1.16a.244.244,0,0,1-.1.217.435.435,0,0,1-.464,0,.244.244,0,0,1-.1-.217V.56a.462.462,0,0,1,.1-.335A.49.49,0,0,1,25.65.132Zm-.743,1.7h.655a.912.912,0,0,0,.51-.124.5.5,0,0,0,.186-.449V1.2a.593.593,0,0,0-.046-.253.393.393,0,0,0-.131-.157.529.529,0,0,0-.2-.083,1.344,1.344,0,0,0-.258-.023h-.712Z" transform="translate(-14.378 -0.075)" fill="#fff"/>
            <path id="패스_38132" data-name="패스 38132" d="M34.1,0a2.019,2.019,0,0,1,.67.1,1.21,1.21,0,0,1,.5.32,1.427,1.427,0,0,1,.307.554,2.719,2.719,0,0,1,.106.807V2a2.719,2.719,0,0,1-.106.807,1.427,1.427,0,0,1-.307.554,1.21,1.21,0,0,1-.5.32,2.23,2.23,0,0,1-1.341,0,1.21,1.21,0,0,1-.5-.32,1.427,1.427,0,0,1-.307-.554A2.719,2.719,0,0,1,32.519,2V1.784a2.719,2.719,0,0,1,.106-.807,1.427,1.427,0,0,1,.307-.554,1.21,1.21,0,0,1,.5-.32A2.019,2.019,0,0,1,34.1,0m0,.6a1.16,1.16,0,0,0-.4.062.651.651,0,0,0-.286.2.934.934,0,0,0-.173.379,2.576,2.576,0,0,0-.057.588v.108a2.576,2.576,0,0,0,.057.588.934.934,0,0,0,.173.379.651.651,0,0,0,.286.2,1.3,1.3,0,0,0,.794,0,.651.651,0,0,0,.286-.2.934.934,0,0,0,.173-.379,2.576,2.576,0,0,0,.057-.588V1.836a2.576,2.576,0,0,0-.057-.588A.934.934,0,0,0,34.78.869a.651.651,0,0,0-.286-.2A1.16,1.16,0,0,0,34.1.6" transform="translate(-18.545 0)" fill="#fff"/>
            <path id="패스_38133" data-name="패스 38133" d="M44.061.06a.362.362,0,0,1,.211.064.231.231,0,0,1,.093.2V3.34a.462.462,0,0,1-.1.335.49.49,0,0,1-.343.093.792.792,0,0,1-.165-.015.33.33,0,0,1-.139-.07.768.768,0,0,1-.139-.157q-.072-.1-.17-.278L42.339,1.5q-.077-.139-.139-.278a2.1,2.1,0,0,1-.108-.315V3.52a.231.231,0,0,1-.093.2.379.379,0,0,1-.423,0,.231.231,0,0,1-.093-.2V.509a.462.462,0,0,1,.1-.335.49.49,0,0,1,.343-.093A.792.792,0,0,1,42.086.1a.332.332,0,0,1,.139.07.768.768,0,0,1,.139.157q.072.1.17.278l.975,1.743q.077.139.139.278a2.1,2.1,0,0,1,.108.315V.328a.231.231,0,0,1,.093-.2A.362.362,0,0,1,44.061.06" transform="translate(-23.657 -0.034)" fill="#fff"/>
          </g>
        </g>
      </g>
    </g>
    <g id="그룹_112300" data-name="그룹 112300" transform="translate(46 -6)">
      <g transform="matrix(1, 0, 0, 1, -7123, -18461.98)" filter="url(#다각형_49)">
        <path id="다각형_49-2" data-name="다각형 49" d="M8.794,1.007a1.328,1.328,0,0,1,2.014.54h0a1.328,1.328,0,0,0,1.376.794h0a1.328,1.328,0,0,1,1.475,1.475h0a1.328,1.328,0,0,0,.794,1.376h0a1.328,1.328,0,0,1,.54,2.014h0a1.328,1.328,0,0,0,0,1.589h0a1.328,1.328,0,0,1-.54,2.014h0a1.328,1.328,0,0,0-.794,1.376h0a1.328,1.328,0,0,1-1.475,1.475h0a1.328,1.328,0,0,0-1.376.794h0a1.328,1.328,0,0,1-2.014.54h0a1.328,1.328,0,0,0-1.589,0h0a1.328,1.328,0,0,1-2.014-.54h0a1.328,1.328,0,0,0-1.376-.794h0a1.328,1.328,0,0,1-1.475-1.475h0a1.328,1.328,0,0,0-.794-1.376h0a1.328,1.328,0,0,1-.54-2.014h0a1.328,1.328,0,0,0,0-1.589h0a1.328,1.328,0,0,1,.54-2.014h0a1.328,1.328,0,0,0,.794-1.376h0A1.328,1.328,0,0,1,3.816,2.341h0a1.328,1.328,0,0,0,1.376-.794h0a1.328,1.328,0,0,1,2.014-.54h0a1.328,1.328,0,0,0,1.589,0Z" transform="translate(36 33.98) rotate(-180)" fill="url(#linear-gradient-2)"/>
      </g>
      <g data-type="innerShadowGroup">
        <g transform="matrix(1, 0, 0, 1, -7123, -18461.98)" filter="url(#타원_759)">
          <circle id="타원_759-3" data-name="타원 759" cx="5.44" cy="5.44" r="5.44" transform="translate(22.52 31.51) rotate(-90)" fill="url(#linear-gradient-3)"/>
        </g>
        <g transform="matrix(1, 0, 0, 1, -7123, -18461.98)" filter="url(#타원_759-2)">
          <circle id="타원_759-4" data-name="타원 759" cx="5.44" cy="5.44" r="5.44" transform="translate(22.52 31.51) rotate(-90)" fill="#fff"/>
        </g>
      </g>
      <g transform="matrix(1, 0, 0, 1, -7123, -18461.98)" filter="url(#다각형_50)">
        <path id="다각형_50-2" data-name="다각형 50" d="M3.555.872a.5.5,0,0,1,.891,0l.633,1.239a.5.5,0,0,0,.388.269l1.4.162a.5.5,0,0,1,.269.875l-.973.84A.5.5,0,0,0,6,4.738L6.26,5.983a.5.5,0,0,1-.715.548L4.226,5.862a.5.5,0,0,0-.452,0L2.455,6.53a.5.5,0,0,1-.715-.548L2,4.738a.5.5,0,0,0-.163-.48l-.973-.84a.5.5,0,0,1,.269-.875l1.4-.162a.5.5,0,0,0,.388-.269Z" transform="translate(24 22.38)" fill="url(#linear-gradient-4)"/>
      </g>
    </g>
  </g>
</svg>
