<svg xmlns="http://www.w3.org/2000/svg" xmlns:xlink="http://www.w3.org/1999/xlink" width="65.67" height="55.811" viewBox="0 0 65.67 55.811">
  <defs>
    <linearGradient id="linear-gradient" x1="0.657" y1="-0.031" x2="-0.079" y2="3.222" gradientUnits="objectBoundingBox">
      <stop offset="0" stop-color="#01cd5c"/>
      <stop offset="1" stop-color="#60ffa7"/>
    </linearGradient>
    <filter id="빼기_21" x="4.485" y="6.189" width="56.699" height="31.555" filterUnits="userSpaceOnUse">
      <feOffset dx="2" dy="4" input="SourceAlpha"/>
      <feGaussianBlur stdDeviation="2" result="blur"/>
      <feFlood flood-opacity="0.161"/>
      <feComposite operator="in" in2="blur"/>
      <feComposite in="SourceGraphic"/>
    </filter>
    <clipPath id="clip-path">
      <rect id="사각형_20522" data-name="사각형 20522" width="29.418" height="5.369" fill="#fff"/>
    </clipPath>
    <linearGradient id="linear-gradient-2" x1="-0.134" y1="1.218" x2="1.31" y2="-0.195" gradientUnits="objectBoundingBox">
      <stop offset="0" stop-color="#ff628c"/>
      <stop offset="1" stop-color="#f42664"/>
    </linearGradient>
    <filter id="빼기_21-2" x="0" y="15.33" width="65.67" height="40.48" filterUnits="userSpaceOnUse">
      <feOffset dx="2" dy="4" input="SourceAlpha"/>
      <feGaussianBlur stdDeviation="2" result="blur-2"/>
      <feFlood flood-opacity="0.161"/>
      <feComposite operator="in" in2="blur-2"/>
      <feComposite in="SourceGraphic"/>
    </filter>
    <clipPath id="clip-path-2">
      <rect id="사각형_20522-2" data-name="사각형 20522" width="35.322" height="6.447" fill="#fff"/>
    </clipPath>
  </defs>
  <g id="그룹_112321" data-name="그룹 112321" transform="translate(7141.891 17372.18)">
    <g id="그룹_112323" data-name="그룹 112323" transform="translate(-7137.891 -17363.99)">
      <g id="그룹_112321-2" data-name="그룹 112321" transform="translate(4.485 0)">
        <g id="그룹_112180" data-name="그룹 112180" transform="translate(0 0)">
          <g transform="matrix(1, 0, 0, 1, -8.49, -8.19)" filter="url(#빼기_21)">
            <path id="빼기_21-3" data-name="빼기 21" d="M42.7,19.555H2a2,2,0,0,1-2-2V13.788c.106.01.216.016.328.016a3.286,3.286,0,1,0,0-6.573c-.109,0-.22.005-.328.016V2A2,2,0,0,1,2,0H42.7a2,2,0,0,1,2,2V17.555A2,2,0,0,1,42.7,19.555Z" transform="translate(53.18 27.74) rotate(180)" fill="url(#linear-gradient)"/>
          </g>
        </g>
        <g id="그룹_112181" data-name="그룹 112181" transform="translate(5.958 7.094)">
          <g id="그룹_112181-2" data-name="그룹 112181" clip-path="url(#clip-path)">
            <path id="패스_38128" data-name="패스 38128" d="M2.234,0a3.132,3.132,0,0,1,.879.11A2.212,2.212,0,0,1,3.743.4a.385.385,0,0,1,.183.286A.465.465,0,0,1,3.838,1a.443.443,0,0,1-.249.183.371.371,0,0,1-.308-.051,1.822,1.822,0,0,0-.476-.2A2.416,2.416,0,0,0,2.212.864a1.147,1.147,0,0,0-.938.4,2.13,2.13,0,0,0-.33,1.344v.154a2.2,2.2,0,0,0,.315,1.33,1.138,1.138,0,0,0,.96.407,2.193,2.193,0,0,0,.641-.084,2.07,2.07,0,0,0,.531-.253.4.4,0,0,1,.579.1.466.466,0,0,1,.088.337.435.435,0,0,1-.2.308,2.3,2.3,0,0,1-.736.344,3.45,3.45,0,0,1-.927.117,2.723,2.723,0,0,1-.927-.147,1.7,1.7,0,0,1-.689-.454A2.053,2.053,0,0,1,.15,3.981,3.862,3.862,0,0,1,0,2.835v-.3A3.862,3.862,0,0,1,.15,1.388,2.027,2.027,0,0,1,.586.6a1.719,1.719,0,0,1,.7-.454A2.844,2.844,0,0,1,2.234,0" transform="translate(0 0)" fill="#fff"/>
            <path id="패스_38129" data-name="패스 38129" d="M2.242,0a2.868,2.868,0,0,1,.952.147A1.719,1.719,0,0,1,3.9.6a2.027,2.027,0,0,1,.436.787,3.862,3.862,0,0,1,.15,1.146v.3a3.862,3.862,0,0,1-.15,1.146,2.027,2.027,0,0,1-.436.787,1.719,1.719,0,0,1-.7.454,2.868,2.868,0,0,1-.952.147,2.868,2.868,0,0,1-.952-.147,1.719,1.719,0,0,1-.7-.454A2.027,2.027,0,0,1,.15,3.981,3.862,3.862,0,0,1,0,2.835v-.3A3.862,3.862,0,0,1,.15,1.388,2.027,2.027,0,0,1,.586.6a1.719,1.719,0,0,1,.7-.454A2.868,2.868,0,0,1,2.242,0m0,.857a1.648,1.648,0,0,0-.564.088.925.925,0,0,0-.407.289,1.327,1.327,0,0,0-.245.538,3.66,3.66,0,0,0-.081.835v.154a3.66,3.66,0,0,0,.081.835,1.327,1.327,0,0,0,.245.538.925.925,0,0,0,.407.289,1.649,1.649,0,0,0,.564.088,1.649,1.649,0,0,0,.564-.088.925.925,0,0,0,.407-.289A1.327,1.327,0,0,0,3.458,3.6a3.66,3.66,0,0,0,.081-.835V2.608a3.66,3.66,0,0,0-.081-.835,1.327,1.327,0,0,0-.245-.538A.925.925,0,0,0,2.806.945,1.648,1.648,0,0,0,2.242.857" transform="translate(4.82 0)" fill="#fff"/>
            <path id="패스_38130" data-name="패스 38130" d="M.469,0A.569.569,0,0,1,.8.1.346.346,0,0,1,.938.4V3.091A2.783,2.783,0,0,0,1,3.747a1.077,1.077,0,0,0,.2.432.737.737,0,0,0,.348.234,1.6,1.6,0,0,0,.5.07,1.6,1.6,0,0,0,.5-.07A.737.737,0,0,0,2.9,4.179a1.077,1.077,0,0,0,.2-.432,2.783,2.783,0,0,0,.066-.656V.4A.346.346,0,0,1,3.3.1a.618.618,0,0,1,.659,0A.346.346,0,0,1,4.1.4V3.077a3.68,3.68,0,0,1-.136,1.084,1.662,1.662,0,0,1-.4.692,1.461,1.461,0,0,1-.641.37,3.18,3.18,0,0,1-.879.11,3.18,3.18,0,0,1-.879-.11,1.461,1.461,0,0,1-.641-.37,1.662,1.662,0,0,1-.4-.692A3.68,3.68,0,0,1,0,3.077V.4A.346.346,0,0,1,.139.1.569.569,0,0,1,.469,0" transform="translate(10.197 0.037)" fill="#fff"/>
            <path id="패스_38131" data-name="패스 38131" d="M1.992,0a2.6,2.6,0,0,1,.817.114,1.534,1.534,0,0,1,.56.315A1.244,1.244,0,0,1,3.7.908a1.671,1.671,0,0,1,.106.6v.1a1.708,1.708,0,0,1-.11.612,1.353,1.353,0,0,1-.337.505,1.665,1.665,0,0,1-.564.344,2.244,2.244,0,0,1-.8.128H.938V4.849A.346.346,0,0,1,.8,5.157a.569.569,0,0,1-.33.1.569.569,0,0,1-.33-.1A.346.346,0,0,1,0,4.849V.608A.656.656,0,0,1,.136.132.7.7,0,0,1,.623,0ZM.938,2.41h.93a1.3,1.3,0,0,0,.725-.176A.71.71,0,0,0,2.857,1.6V1.516a.842.842,0,0,0-.066-.359A.558.558,0,0,0,2.6.934.752.752,0,0,0,2.315.817,1.909,1.909,0,0,0,1.949.784H.938Z" transform="translate(15.39 0.081)" fill="#fff"/>
            <path id="패스_38132" data-name="패스 38132" d="M2.242,0a2.868,2.868,0,0,1,.952.147A1.719,1.719,0,0,1,3.9.6a2.027,2.027,0,0,1,.436.787,3.862,3.862,0,0,1,.15,1.146v.3a3.862,3.862,0,0,1-.15,1.146,2.027,2.027,0,0,1-.436.787,1.719,1.719,0,0,1-.7.454,2.868,2.868,0,0,1-.952.147,2.868,2.868,0,0,1-.952-.147,1.719,1.719,0,0,1-.7-.454A2.027,2.027,0,0,1,.15,3.981,3.862,3.862,0,0,1,0,2.835v-.3A3.862,3.862,0,0,1,.15,1.388,2.027,2.027,0,0,1,.586.6a1.719,1.719,0,0,1,.7-.454A2.868,2.868,0,0,1,2.242,0m0,.857a1.648,1.648,0,0,0-.564.088.925.925,0,0,0-.407.289,1.327,1.327,0,0,0-.245.538,3.66,3.66,0,0,0-.081.835v.154a3.66,3.66,0,0,0,.081.835,1.327,1.327,0,0,0,.245.538.925.925,0,0,0,.407.289,1.648,1.648,0,0,0,.564.088,1.649,1.649,0,0,0,.564-.088.925.925,0,0,0,.407-.289A1.327,1.327,0,0,0,3.458,3.6a3.66,3.66,0,0,0,.081-.835V2.608a3.66,3.66,0,0,0-.081-.835,1.327,1.327,0,0,0-.245-.538A.925.925,0,0,0,2.806.945,1.649,1.649,0,0,0,2.242.857" transform="translate(19.851 0)" fill="#fff"/>
            <path id="패스_38133" data-name="패스 38133" d="M3.663,0a.514.514,0,0,1,.3.092.328.328,0,0,1,.132.289V4.659a.656.656,0,0,1-.136.476.7.7,0,0,1-.487.132,1.125,1.125,0,0,1-.234-.022.469.469,0,0,1-.2-.1,1.09,1.09,0,0,1-.2-.223q-.1-.147-.242-.4L1.216,2.051q-.11-.2-.2-.4a2.978,2.978,0,0,1-.154-.447V4.915A.328.328,0,0,1,.733,5.2a.514.514,0,0,1-.3.092.514.514,0,0,1-.3-.092A.328.328,0,0,1,0,4.915V.637A.656.656,0,0,1,.136.161.7.7,0,0,1,.623.029,1.125,1.125,0,0,1,.857.051a.472.472,0,0,1,.2.1,1.091,1.091,0,0,1,.2.223q.1.147.242.4L2.879,3.245q.11.2.2.4a2.981,2.981,0,0,1,.154.447V.381A.328.328,0,0,1,3.362.092.514.514,0,0,1,3.663,0" transform="translate(25.323 0.037)" fill="#fff"/>
          </g>
        </g>
      </g>
      <g id="그룹_112322" data-name="그룹 112322" transform="translate(0 9.141)">
        <g id="그룹_112180-2" data-name="그룹 112180" transform="translate(0 0)">
          <g transform="matrix(1, 0, 0, 1, -4, -17.33)" filter="url(#빼기_21-2)">
            <path id="빼기_21-4" data-name="빼기 21" d="M51.67,23.48H2a2,2,0,0,1-2-2V13.555c.128.013.26.02.4.02a3.946,3.946,0,1,0,0-7.892c-.131,0-.264.007-.4.02V-3A2,2,0,0,1,2-5H51.67a2,2,0,0,1,2,2V21.48A2,2,0,0,1,51.67,23.48Z" transform="translate(57.67 40.81) rotate(180)" fill="url(#linear-gradient-2)"/>
          </g>
        </g>
        <g id="그룹_112181-3" data-name="그룹 112181" transform="translate(7.154 11.016)">
          <g id="그룹_112181-4" data-name="그룹 112181" clip-path="url(#clip-path-2)">
            <path id="패스_38128-2" data-name="패스 38128" d="M2.683,0A3.76,3.76,0,0,1,3.738.132a2.656,2.656,0,0,1,.756.343.462.462,0,0,1,.22.343.558.558,0,0,1-.106.378.531.531,0,0,1-.3.22.446.446,0,0,1-.369-.062,2.188,2.188,0,0,0-.572-.242,2.9,2.9,0,0,0-.712-.075,1.378,1.378,0,0,0-1.126.479,2.558,2.558,0,0,0-.4,1.614v.185a2.636,2.636,0,0,0,.378,1.6A1.366,1.366,0,0,0,2.665,5.4a2.633,2.633,0,0,0,.77-.1A2.486,2.486,0,0,0,4.072,5a.478.478,0,0,1,.695.123.56.56,0,0,1,.106.4.522.522,0,0,1-.237.369,2.763,2.763,0,0,1-.884.413,4.142,4.142,0,0,1-1.113.141,3.27,3.27,0,0,1-1.113-.176A2.042,2.042,0,0,1,.7,5.726,2.466,2.466,0,0,1,.18,4.78,4.637,4.637,0,0,1,0,3.4V3.043A4.637,4.637,0,0,1,.18,1.667,2.433,2.433,0,0,1,.7.721,2.064,2.064,0,0,1,1.548.176,3.414,3.414,0,0,1,2.683,0" transform="translate(0 0)" fill="#fff"/>
            <path id="패스_38129-2" data-name="패스 38129" d="M2.691,0A3.443,3.443,0,0,1,3.835.176a2.064,2.064,0,0,1,.844.545,2.433,2.433,0,0,1,.523.946,4.637,4.637,0,0,1,.18,1.376V3.4A4.637,4.637,0,0,1,5.2,4.78a2.433,2.433,0,0,1-.523.946,2.064,2.064,0,0,1-.844.545,3.443,3.443,0,0,1-1.143.176,3.443,3.443,0,0,1-1.143-.176A2.064,2.064,0,0,1,.7,5.726,2.433,2.433,0,0,1,.18,4.78,4.637,4.637,0,0,1,0,3.4V3.043A4.637,4.637,0,0,1,.18,1.667,2.433,2.433,0,0,1,.7.721,2.064,2.064,0,0,1,1.548.176,3.443,3.443,0,0,1,2.691,0m0,1.029a1.979,1.979,0,0,0-.677.106,1.111,1.111,0,0,0-.488.347,1.593,1.593,0,0,0-.295.646,4.394,4.394,0,0,0-.1,1v.185a4.394,4.394,0,0,0,.1,1,1.593,1.593,0,0,0,.295.646,1.111,1.111,0,0,0,.488.347,1.979,1.979,0,0,0,.677.106,1.979,1.979,0,0,0,.677-.106,1.111,1.111,0,0,0,.488-.347,1.593,1.593,0,0,0,.295-.646,4.394,4.394,0,0,0,.1-1V3.131a4.394,4.394,0,0,0-.1-1,1.593,1.593,0,0,0-.295-.646,1.111,1.111,0,0,0-.488-.347,1.979,1.979,0,0,0-.677-.106" transform="translate(5.787 0)" fill="#fff"/>
            <path id="패스_38130-2" data-name="패스 38130" d="M.563,0a.684.684,0,0,1,.4.114.415.415,0,0,1,.167.369V3.712A3.342,3.342,0,0,0,1.2,4.5a1.293,1.293,0,0,0,.242.519.885.885,0,0,0,.418.281,1.925,1.925,0,0,0,.6.084,1.925,1.925,0,0,0,.6-.084.885.885,0,0,0,.418-.281A1.293,1.293,0,0,0,3.72,4.5,3.342,3.342,0,0,0,3.8,3.712V.484A.415.415,0,0,1,3.967.114a.742.742,0,0,1,.792,0,.415.415,0,0,1,.167.369v3.21A4.418,4.418,0,0,1,4.763,5a2,2,0,0,1-.475.831,1.754,1.754,0,0,1-.77.444A3.819,3.819,0,0,1,2.463,6.4a3.819,3.819,0,0,1-1.055-.132,1.754,1.754,0,0,1-.77-.444A2,2,0,0,1,.163,5,4.418,4.418,0,0,1,0,3.694V.484A.415.415,0,0,1,.167.114.684.684,0,0,1,.563,0" transform="translate(12.243 0.044)" fill="#fff"/>
            <path id="패스_38131-2" data-name="패스 38131" d="M2.392,0a3.117,3.117,0,0,1,.981.136,1.842,1.842,0,0,1,.673.378,1.494,1.494,0,0,1,.391.576,2.006,2.006,0,0,1,.128.721v.123a2.051,2.051,0,0,1-.132.734,1.624,1.624,0,0,1-.4.607,2,2,0,0,1-.677.413,2.7,2.7,0,0,1-.959.154H1.126V5.823a.415.415,0,0,1-.167.369.684.684,0,0,1-.4.114.684.684,0,0,1-.4-.114A.415.415,0,0,1,0,5.823V.73A.788.788,0,0,1,.163.158.837.837,0,0,1,.748,0ZM1.126,2.894H2.243a1.555,1.555,0,0,0,.871-.211.852.852,0,0,0,.317-.765v-.1a1.011,1.011,0,0,0-.079-.431.67.67,0,0,0-.224-.268A.9.9,0,0,0,2.779.981a2.292,2.292,0,0,0-.44-.04H1.126Z" transform="translate(18.479 0.097)" fill="#fff"/>
            <path id="패스_38132-2" data-name="패스 38132" d="M2.691,0A3.443,3.443,0,0,1,3.835.176a2.064,2.064,0,0,1,.844.545,2.434,2.434,0,0,1,.523.946,4.637,4.637,0,0,1,.18,1.376V3.4A4.637,4.637,0,0,1,5.2,4.78a2.434,2.434,0,0,1-.523.946,2.064,2.064,0,0,1-.844.545,3.443,3.443,0,0,1-1.143.176,3.443,3.443,0,0,1-1.143-.176A2.064,2.064,0,0,1,.7,5.726,2.433,2.433,0,0,1,.18,4.78,4.637,4.637,0,0,1,0,3.4V3.043A4.637,4.637,0,0,1,.18,1.667,2.433,2.433,0,0,1,.7.721,2.064,2.064,0,0,1,1.548.176,3.443,3.443,0,0,1,2.691,0m0,1.029a1.979,1.979,0,0,0-.677.106,1.111,1.111,0,0,0-.488.347,1.593,1.593,0,0,0-.295.646,4.394,4.394,0,0,0-.1,1v.185a4.394,4.394,0,0,0,.1,1,1.593,1.593,0,0,0,.295.646,1.111,1.111,0,0,0,.488.347,1.979,1.979,0,0,0,.677.106,1.979,1.979,0,0,0,.677-.106,1.111,1.111,0,0,0,.488-.347,1.593,1.593,0,0,0,.295-.646,4.394,4.394,0,0,0,.1-1V3.131a4.394,4.394,0,0,0-.1-1,1.593,1.593,0,0,0-.295-.646,1.111,1.111,0,0,0-.488-.347,1.979,1.979,0,0,0-.677-.106" transform="translate(23.835 0)" fill="#fff"/>
            <path id="패스_38133-2" data-name="패스 38133" d="M4.4,0a.617.617,0,0,1,.361.11.393.393,0,0,1,.158.347V5.594a.788.788,0,0,1-.163.572.837.837,0,0,1-.585.158A1.351,1.351,0,0,1,3.888,6.3a.563.563,0,0,1-.237-.119,1.309,1.309,0,0,1-.237-.268q-.123-.176-.29-.475L1.46,2.463q-.132-.237-.237-.475a3.576,3.576,0,0,1-.185-.537V5.9a.393.393,0,0,1-.158.347.617.617,0,0,1-.361.11.617.617,0,0,1-.361-.11A.393.393,0,0,1,0,5.9V.765A.788.788,0,0,1,.163.193.837.837,0,0,1,.748.035a1.351,1.351,0,0,1,.281.026A.567.567,0,0,1,1.267.18,1.31,1.31,0,0,1,1.5.449q.123.176.29.475L3.457,3.9q.132.237.237.475a3.579,3.579,0,0,1,.185.537V.457A.393.393,0,0,1,4.037.11.617.617,0,0,1,4.4,0" transform="translate(30.405 0.044)" fill="#fff"/>
          </g>
        </g>
      </g>
    </g>
    <rect id="사각형_20616" data-name="사각형 20616" width="54" height="54" transform="translate(-7138.056 -17372.18)" fill="none"/>
  </g>
</svg>
