<svg xmlns="http://www.w3.org/2000/svg" xmlns:xlink="http://www.w3.org/1999/xlink" width="54" height="66" viewBox="0 0 54 66">
  <defs>
    <linearGradient id="linear-gradient" x1="1" y1="1.085" x2="-0.065" y2="-0.14" gradientUnits="objectBoundingBox">
      <stop offset="0" stop-color="#212121"/>
      <stop offset="1" stop-color="#585858"/>
    </linearGradient>
    <filter id="사각형_20642" x="6" y="0" width="45" height="66" filterUnits="userSpaceOnUse">
      <feOffset dx="2" dy="4" input="SourceAlpha"/>
      <feGaussianBlur stdDeviation="2" result="blur"/>
      <feFlood flood-opacity="0.161"/>
      <feComposite operator="in" in2="blur"/>
      <feComposite in="SourceGraphic"/>
    </filter>
    <linearGradient id="linear-gradient-2" x1="-0.191" y1="-0.071" x2="1" y2="1.053" gradientUnits="objectBoundingBox">
      <stop offset="0" stop-color="#67ffc1"/>
      <stop offset="1" stop-color="#00f9f9"/>
    </linearGradient>
    <filter id="사각형_20643" x="12" y="6" width="29" height="45" filterUnits="userSpaceOnUse">
      <feOffset dx="1" dy="1" input="SourceAlpha"/>
      <feGaussianBlur stdDeviation="0.5" result="blur-2"/>
      <feFlood flood-opacity="0.161" result="color"/>
      <feComposite operator="out" in="SourceGraphic" in2="blur-2"/>
      <feComposite operator="in" in="color"/>
      <feComposite operator="in" in2="SourceGraphic"/>
    </filter>
    <filter id="합치기_185" x="16" y="14.32" width="25" height="32.68" filterUnits="userSpaceOnUse">
      <feOffset dx="2" dy="4" input="SourceAlpha"/>
      <feGaussianBlur stdDeviation="2" result="blur-3"/>
      <feFlood flood-opacity="0.161"/>
      <feComposite operator="in" in2="blur-3"/>
      <feComposite in="SourceGraphic"/>
    </filter>
    <linearGradient id="linear-gradient-3" x1="1" y1="1.105" x2="-0.334" y2="0.173" gradientUnits="objectBoundingBox">
      <stop offset="0" stop-color="#da2128"/>
      <stop offset="1" stop-color="#ff757b"/>
    </linearGradient>
    <clipPath id="clip-path">
      <rect id="사각형_20646" data-name="사각형 20646" width="7" height="9" transform="translate(0.104 -0.195)" fill="#fff" stroke="#707070" stroke-width="1"/>
    </clipPath>
    <linearGradient id="linear-gradient-4" x1="0.5" x2="0.5" y2="1" gradientUnits="objectBoundingBox">
      <stop offset="0" stop-color="#fff"/>
      <stop offset="1" stop-color="#ffb4ca"/>
    </linearGradient>
    <linearGradient id="linear-gradient-5" x1="0.5" x2="0.5" y2="1" gradientUnits="objectBoundingBox">
      <stop offset="0" stop-color="#fff"/>
      <stop offset="1" stop-color="#f1f1f1"/>
    </linearGradient>
    <filter id="패스_38188" x="21.966" y="24.867" width="11.068" height="10.264" filterUnits="userSpaceOnUse">
      <feOffset dx="1" dy="1" input="SourceAlpha"/>
      <feGaussianBlur stdDeviation="1" result="blur-4"/>
      <feFlood flood-color="#d42d2d" flood-opacity="0.369"/>
      <feComposite operator="in" in2="blur-4"/>
      <feComposite in="SourceGraphic"/>
    </filter>
  </defs>
  <g id="그룹_112409" data-name="그룹 112409" transform="translate(5563 17340)">
    <g id="그룹_112414" data-name="그룹 112414" transform="translate(79 21)">
      <g transform="matrix(1, 0, 0, 1, -5642, -17361)" filter="url(#사각형_20642)">
        <rect id="사각형_20642-2" data-name="사각형 20642" width="33" height="54" rx="4" transform="translate(10 2)" fill="url(#linear-gradient)"/>
      </g>
      <g data-type="innerShadowGroup">
        <rect id="사각형_20643-2" data-name="사각형 20643" width="29" height="45" rx="2" transform="translate(-5630 -17355)" fill="url(#linear-gradient-2)"/>
        <g transform="matrix(1, 0, 0, 1, -5642, -17361)" filter="url(#사각형_20643)">
          <rect id="사각형_20643-3" data-name="사각형 20643" width="29" height="45" rx="2" transform="translate(12 6)" fill="#fff"/>
        </g>
      </g>
      <g id="그룹_112413" data-name="그룹 112413" transform="translate(-151 -38)">
        <g transform="matrix(1, 0, 0, 1, -5491, -17323)" filter="url(#합치기_185)">
          <path id="합치기_185-2" data-name="합치기 185" d="M1,20.679a1,1,0,0,1-1-1v-14a1,1,0,0,1,1-1H3.63V2.87a2.87,2.87,0,0,1,5.74,0V4.68H12a1,1,0,0,1,1,1v14a1,1,0,0,1-1,1Zm7.67-16V2.87a2.17,2.17,0,0,0-4.34,0V4.68Z" transform="translate(20 16.32)" fill="#fff"/>
        </g>
        <path id="패스_38186" data-name="패스 38186" d="M1,0H12a1,1,0,0,1,1,1V15a1,1,0,0,1-1,1H1a1,1,0,0,1-1-1V1A1,1,0,0,1,1,0Z" transform="translate(-5471 -17302)" fill="url(#linear-gradient-3)"/>
        <g id="그룹_112409-2" data-name="그룹 112409" transform="translate(65.896 -3.805)">
          <g id="마스크_그룹_112039" data-name="마스크 그룹 112039" transform="translate(-5534 -17305)" clip-path="url(#clip-path)">
            <g id="패스_38185" data-name="패스 38185" transform="translate(0.731 2.064)" fill="none">
              <path d="M2.872,0A2.872,2.872,0,0,1,5.745,2.872V8.234A2.872,2.872,0,0,1,0,8.234V2.872A2.872,2.872,0,0,1,2.872,0Z" stroke="none"/>
              <path d="M 2.87236762046814 0.7000036239624023 C 1.674517631530762 0.7000036239624023 0.6999974250793457 1.67452335357666 0.6999974250793457 2.872364044189453 L 0.6999974250793457 8.234123229980469 C 0.6999974250793457 9.431963920593262 1.674517631530762 10.40648365020752 2.87236762046814 10.40648365020752 C 4.070217609405518 10.40648365020752 5.044737815856934 9.431963920593262 5.044737815856934 8.234123229980469 L 5.044737815856934 2.872364044189453 C 5.044737815856934 1.67452335357666 4.070217609405518 0.7000036239624023 2.87236762046814 0.7000036239624023 M 2.87236762046814 3.814697265625e-06 C 4.458727836608887 3.814697265625e-06 5.74473762512207 1.286004066467285 5.74473762512207 2.872364044189453 L 5.74473762512207 8.234123229980469 C 5.74473762512207 9.820484161376953 4.458727836608887 11.10648345947266 2.87236762046814 11.10648345947266 C 1.28599739074707 11.10648345947266 -2.384185791015625e-06 9.820484161376953 -2.384185791015625e-06 8.234123229980469 L -2.384185791015625e-06 2.872364044189453 C -2.384185791015625e-06 1.286004066467285 1.28599739074707 3.814697265625e-06 2.87236762046814 3.814697265625e-06 Z" stroke="none" fill="#292929"/>
            </g>
          </g>
          <circle id="타원_768" data-name="타원 768" cx="0.65" cy="0.65" r="0.65" transform="translate(-5533.577 -17296.992)" fill="#292929"/>
          <circle id="타원_769" data-name="타원 769" cx="0.65" cy="0.65" r="0.65" transform="translate(-5528.546 -17296.992)" fill="#292929"/>
        </g>
        <g id="그룹_112411" data-name="그룹 112411" transform="translate(-5467.121 -17296.219)">
          <g id="그룹_112412" data-name="그룹 112412" transform="translate(0.086 0.086)">
            <path id="패스_38187" data-name="패스 38187" d="M5.568,1.722a1.219,1.219,0,0,1-.356.865l-.448.448-1.73,1.73L.856,2.587A1.223,1.223,0,0,1,2.586.857l.448.448L3.482.857a1.221,1.221,0,0,1,2.086.865" transform="translate(-0.5 -0.5)" fill="url(#linear-gradient-4)"/>
            <g transform="matrix(1, 0, 0, 1, -23.97, -26.87)" filter="url(#패스_38188)">
              <path id="패스_38188-2" data-name="패스 38188" d="M5.568,1.722a1.219,1.219,0,0,1-.356.865l-.448.448-1.73,1.73L.856,2.587A1.223,1.223,0,0,1,2.586.857l.448.448L3.482.857a1.221,1.221,0,0,1,2.086.865Z" transform="translate(23.47 26.37)" fill="url(#linear-gradient-5)"/>
            </g>
          </g>
        </g>
      </g>
    </g>
    <rect id="사각형_20647" data-name="사각형 20647" width="54" height="54" transform="translate(-5563 -17338)" fill="none"/>
  </g>
</svg>
