<svg xmlns="http://www.w3.org/2000/svg" width="113.999" height="32.003" viewBox="0 0 114 32">
    <g id="pathTabLink" transform="translate(15.763 0.004)">
        <g>
            <path d="M12025.234,10191h-78a29.865,29.865,0,0,1-7.592-7.63,75.18,75.18,0,0,1-6.937-12.144,20.878,20.878,0,0,0-18.841-12.226h30.421v.006h16.675v.009h30.082c.063,0,.282-.017.629-.017a22.21,22.21,0,0,1,8.516,1.807,20.071,20.071,0,0,1,5.652,3.664,21.645,21.645,0,0,1,4.868,6.757,74.927,74.927,0,0,0,6.936,12.143,29.858,29.858,0,0,0,7.591,7.629Zm-112.194-31.984h-1.8V10159h2.245c-.234,0-.384.012-.437.015Z" transform="translate(-11926.998 -10159)" fill="#fff"/>
            <path d="M12025.232,10191h-78c-.471-.309-.938-.646-1.393-1h76.418a35.134,35.134,0,0,1-5.429-6.045,76.282,76.282,0,0,1-7.029-12.3,19.443,19.443,0,0,0-10.01-9.93,21.2,21.2,0,0,0-8.122-1.723c-.31,0-.5.009-.555.015l-.072,0h-31.082v-.012h-16.675v0h-23.279a21.968,21.968,0,0,0-6.29-1h-.093l.045,0h.048v0h30.568v0h16.675v.012h30.083l.033,0c.069,0,.281-.016.594-.016a22.2,22.2,0,0,1,8.517,1.808,20.065,20.065,0,0,1,5.653,3.664,21.68,21.68,0,0,1,4.867,6.757,74.773,74.773,0,0,0,6.936,12.141,29.863,29.863,0,0,0,7.588,7.631Zm-112.191-31.984h-1.8V10159h2.389c-.321,0-.525.015-.581.019Z" transform="translate(-11926.998 -10159.001)" fill="#d5d5d5"/>
        </g>
        <g transform="translate(-572.765 -20.001)">
            <path d="M-463,13.622-459.378,10h-3.294V9h5v5h-1V10.706l-3.622,3.622Z" transform="translate(1104 18)" fill="#767675"/>
            <rect width="7" height="7" transform="translate(640 27)" fill="none"/>
        </g>
    </g>
</svg>
