<svg id="tb_btn_찜하기" xmlns="http://www.w3.org/2000/svg" width="40" height="40" viewBox="0 0 40 40">
  <g id="Ellipse_231" data-name="Ellipse 231" fill="none" stroke="#fff" stroke-width="1" opacity="0.6">
    <circle cx="20" cy="20" r="20" stroke="none"/>
    <circle cx="20" cy="20" r="19.5" fill="none"/>
  </g>
  <g id="icon_heart_h18_1px" transform="translate(11 12)">
    <path id="heart" d="M5.143,0A5.4,5.4,0,0,1,8.966,1.637a.049.049,0,0,0,.068,0A5.4,5.4,0,0,1,12.857,0a4.841,4.841,0,0,1,.511.026C18.514.552,19.047,6.7,16.56,8.974L10.244,14.53a1.882,1.882,0,0,1-2.488,0L1.44,8.974C-1.047,6.7-.514.552,4.632.026A4.841,4.841,0,0,1,5.143,0Z" transform="translate(0 2)" fill="#fff"/>
    <rect id="Rectangle_992" data-name="Rectangle 992" width="18" height="18" transform="translate(0)" fill="#fff" opacity="0"/>
  </g>
</svg>
