<?xml version="1.0" encoding="utf-8"?>
<!-- Generator: Adobe Illustrator 26.0.2, SVG Export Plug-In . SVG Version: 6.00 Build 0)  -->
<svg version="1.1" xmlns="http://www.w3.org/2000/svg" xmlns:xlink="http://www.w3.org/1999/xlink" x="0px" y="0px"
	 viewBox="0 0 70 72" style="enable-background:new 0 0 70 72;" xml:space="preserve">
<style type="text/css">
	.st0{fill:#F2F2F2;}

.clap {animation:clap both infinite 2s;}
.c3 {animation-delay:0.4s;}
.c2 {animation-delay:0.6s;}
.c6 {animation-delay:0.6s;}
.c5 {animation-delay:0.8s;}
.c4 {animation-delay:0.2s;}

@keyframes clap {
0% {opacity:0;}
30% {opacity:1;}
60% {opacity:1;}
100% {opacity:0;}
}


#clap_h2 {animation:clap_h2 both infinite 2s;}

@keyframes clap_h2 {
0% {transform:translate(0,0);}
20% {transform:translate(1px,1px) scale(1.03);}
40% {transform:translate(0,0) scale(1);}
60% {transform:translate(1px,1px) scale(1.03);}
80% {transform:translate(0,0) scale(1);}
100% {transform:translate(0,0);}
}

#clap_h1 {animation:clap_h1 both infinite 2s;}
@keyframes clap_h1 {
0% {transform:translate(0,0);}
20% {transform:translate(2px,2px) scale(0.92);}
40% {transform:translate(0,0) scale(1);}
60% {transform:translate(2px,2px) scale(0.92);}
80% {transform:translate(0,0) scale(1);}
100% {transform:translate(0,0);}
}
</style>
<g id="clap">
	<path class="clap c1" d="M33.17,9.83l-0.28-7.5c0,0-0.44-1.33,1.06-1.33c0,0,2.72-0.11,5.22,2.33c0,0,0.33,0.39-0.33,1.17
		c-0.67,0.78-5.17,5.56-5.17,5.56S33.19,10.5,33.17,9.83z"/>
	<path class="clap c2" d="M37.05,12.13l3.64-4.91c0,0,0.41-1.06,1.31-0.35c0,0,1.68,1.22,1.93,3.97c0,0,0,0.41-0.79,0.58
		c-0.79,0.18-5.91,1.08-5.91,1.08S36.72,12.56,37.05,12.13z"/>
	<path class="clap c3" d="M29.33,10.59L24.9,7c0,0-0.99-0.41-0.21-1.29c0,0,1.35-1.67,4.05-1.93c0,0,0.4,0,0.49,0.78s0.49,5.85,0.49,5.85
		S29.73,10.91,29.33,10.59z"/>
	<path class="clap c4" d="M8.62,16.71l-7.21-2.08c0,0-1.41,0-0.94-1.42c0,0,0.75-2.62,3.85-4.23c0,0,0.47-0.19,1,0.68s3.66,6.65,3.66,6.65
		S9.26,16.89,8.62,16.71z"/>
	<path class="clap c5" d="M12.01,13.74l-3.52-5c0,0-0.88-0.72,0.08-1.35c0,0,1.69-1.21,4.38-0.59c0,0,0.39,0.13,0.31,0.93
		c-0.08,0.81-0.82,5.95-0.82,5.95S12.33,14.18,12.01,13.74z"/>
	<path class="clap c6" d="M7.59,20.05l-4.58,3.39c0,0-0.64,0.86-1.31-0.12c0,0-1.28-1.73-0.86-4.4c0,0,0.1-0.38,0.88-0.28s5.78,0.98,5.78,0.98
		S8,19.74,7.59,20.05z"/>
</g>
<g id="clap_h1">
	<g>
		<path d="M20.48,19.46c0,0-0.71-3.11,2.6-3.8c0,0,1.41-0.8,3.36,0.69c0,0,5.7,3.42,11.29,12.34c0,0,0.33-2.91,2.44-4.26
			c0,0,1.57-1.35,2.66-0.28c0,0,0.65,1.28,1.19,2.08c0,0,4.94,6.94,6.68,10.57c0,0,2.55,3.2,2.6,9.45c0,0,0.31,6.03-1.61,10.25
			c-1.92,4.22-0.24,0-0.24,0S46.86,66.6,37.2,66.76c0,0-7.38,0.11-13.19-5.29c0,0-11.56-14.47-13.3-21.73c0,0-0.92-4.7,1.74-4.91
			c0,0,0.92-0.32,1.57,0c0,0-3.4-3.58-3.47-5.18c0,0-1.15-4.57,2.05-5.22c0,0,0.54-0.33,1.85,0.47c0,0-1.79-1.98-0.98-4.49
			c0,0,0.05-2.03,3.15-2.35C16.63,18.06,18.91,17.61,20.48,19.46z"/>
		<path class="st0" d="M42.24,26.29c0,0,1.41,2.88,2.84,4.39c0,0,6.06,7.79,6.6,16.86c0,0,0.87,11-9.44,15.86
			c0,0-9.17,4.38-16.28-2.51c0,0-11.34-13.35-13.57-20.29c0,0-1.19-3.58,0.87-4.43c0,0,1.14-0.59,2.06,0.27
			c0.92,0.85,7.49,11.16,7.49,11.16s0.76,0.75,1.3,0.16c0.54-0.59-0.81-2.56-2.66-5.34c0,0-6.13-8.49-8.85-11.43
			c0,0-1.63-3.26,0.05-4.7c0,0,0.87-0.91,3.04,0.64c0,0,2.88,1.98,11.78,14.36c0,0,1.47,0.85,0.92-1.12c0,0-5.26-8.81-12.64-15.43
			c0,0-1.63-1.33-1.19-3.74c0,0,0.49-1.79,2.93-1.54c0,0,0.49-0.71,5.48,4.42c0,0,5.59,6.25,10.09,13.99c0,0,1.09,0.59,1.3-0.59
			c0,0,0.38-0.59-2.12-4.22S26.07,23.88,22.54,21c0,0-1.85-2.21-0.43-3.35c0,0,1.09-1.09,2.44-0.71c0,0,2.08,0.43,7.25,6.57
			c0,0,8.7,11.64,11.25,17.84c0,0,1.57,1.87,1.68,0.16c0,0-2.17-5.39-4.5-8.49c0,0-1.95-3.52-0.38-5.87
			C39.86,27.14,41.1,24.52,42.24,26.29z"/>
	</g>
</g>
<g id="clap_h2">
	<g>
		<path d="M27.72,16.62c0,0-0.72-3.23,2.67-3.96c0,0,1.44-0.83,3.44,0.72c0,0,5.83,3.56,11.56,12.83c0,0,0.33-3.03,2.5-4.43
			c0,0,1.61-1.4,2.72-0.29c0,0,0.67,1.33,1.22,2.17c0,0,5.06,7.22,6.83,11c0,0,2.61,3.33,2.67,9.83c0,0,0.31,6.28-1.65,10.67
			s0,0,0,0s-4.96,10.5-14.85,10.67c0,0-7.56,0.11-13.5-5.5c0,0-11.83-15.06-13.61-22.61c0,0-0.94-4.89,1.78-5.11
			c0,0,0.94-0.33,1.61,0c0,0-3.48-3.72-3.55-5.39c0,0-1.17-4.75,2.1-5.43c0,0,0.56-0.35,1.89,0.49c0,0-1.83-2.06-1-4.67
			c0,0,0.06-2.11,3.22-2.44C23.78,15.17,26.11,14.69,27.72,16.62z"/>
		<path class="st0" d="M50,23.72c0,0,1.44,3,2.91,4.57c0,0,6.2,8.1,6.76,17.54c0,0,0.89,11.44-9.67,16.5c0,0-9.39,4.56-16.67-2.61
			c0,0-11.61-13.89-13.89-21.11c0,0-1.22-3.72,0.89-4.61c0,0,1.17-0.61,2.11,0.28s7.67,11.61,7.67,11.61s0.78,0.78,1.33,0.17
			s-0.83-2.67-2.72-5.56c0,0-6.28-8.83-9.06-11.89c0,0-1.67-3.39,0.06-4.89c0,0,0.89-0.94,3.11,0.67c0,0,2.94,2.06,12.06,14.94
			c0,0,1.5,0.89,0.94-1.17c0,0-5.39-9.17-12.94-16.06c0,0-1.67-1.39-1.22-3.89c0,0,0.5-1.86,3-1.6c0,0,0.5-0.73,5.61,4.6
			c0,0,5.72,6.5,10.33,14.56c0,0,1.11,0.61,1.33-0.61c0,0,0.39-0.61-2.17-4.39c-2.56-3.78-6.33-9.56-9.94-12.56
			c0,0-1.89-2.29-0.44-3.48c0,0,1.11-1.13,2.5-0.74c0,0,2.13,0.44,7.42,6.83c0,0,8.91,12.11,11.52,18.56c0,0,1.61,1.94,1.72,0.17
			c0,0-2.22-5.61-4.61-8.83c0,0-2-3.67-0.39-6.11C47.56,24.61,48.83,21.89,50,23.72z"/>
	</g>
</g>
</svg>
