<svg xmlns="http://www.w3.org/2000/svg" width="72" height="72" viewBox="0 0 72 72">
  <g id="그룹_116318" data-name="그룹 116318" transform="translate(16619 -6786)">
    <rect id="사각형_22353" data-name="사각형 22353" width="72" height="72" transform="translate(-16619 6786)" fill="none"/>
    <g id="그룹_116265" data-name="그룹 116265" transform="translate(-16618.135 6795.777)">
      <g id="그룹_116266" data-name="그룹 116266">
        <path id="패스_42691" data-name="패스 42691" d="M23.965,14.328H63.413a2.473,2.473,0,0,1,2.465,2.465v31.7a1.233,1.233,0,0,1-2.07.9l-5.927-5.482H23.965A2.473,2.473,0,0,1,21.5,41.448V16.793a2.473,2.473,0,0,1,2.465-2.465" transform="translate(4.387 2.718)" fill="#fff"/>
        <g id="패스_42692" data-name="패스 42692" transform="translate(4.387 2.718)" fill="#fec961" stroke-miterlimit="10">
          <path d="M 64.63737487792969 48.72539520263672 C 64.58238983154297 48.72539520263672 64.53475952148438 48.70502471923828 64.48746490478516 48.66127395629883 L 58.56048202514648 43.17930221557617 L 58.27303314208984 42.91343307495117 L 57.88147354125977 42.91343307495117 L 23.96546363830566 42.91343307495117 C 23.15740394592285 42.91343307495117 22.50000381469727 42.25604248046875 22.50000381469727 41.44799423217773 L 22.50000381469727 16.79346466064453 C 22.50000381469727 15.9854040145874 23.15740394592285 15.32800388336182 23.96546363830566 15.32800388336182 L 63.41272354125977 15.32800388336182 C 64.22077178955078 15.32800388336182 64.87816619873047 15.9854040145874 64.87816619873047 16.79346466064453 L 64.87816619873047 31.53809356689453 L 64.87816619873047 41.44799423217773 L 64.87816619873047 48.49055480957031 C 64.87816619873047 48.68225479125977 64.69984436035156 48.72539520263672 64.63737487792969 48.72539520263672 Z" stroke="none"/>
          <path d="M 23.96546173095703 16.32800674438477 C 23.71315002441406 16.32800674438477 23.49999237060547 16.54115295410156 23.49999237060547 16.79345321655273 L 23.49999237060547 41.44798278808594 C 23.49999237060547 41.70028686523438 23.71315002441406 41.9134407043457 23.96546173095703 41.9134407043457 L 58.66458129882812 41.9134407043457 L 63.87815856933594 46.73557281494141 L 63.87815856933594 16.79345321655273 C 63.87815856933594 16.54115295410156 63.66501617431641 16.32800674438477 63.41271591186523 16.32800674438477 L 23.96546173095703 16.32800674438477 M 23.96546173095703 14.32800674438477 L 63.41271591186523 14.32800674438477 C 64.76871490478516 14.32800674438477 65.87815856933594 15.43745040893555 65.87815856933594 16.79345321655273 L 65.87815856933594 48.49055099487305 C 65.87815856933594 49.56548309326172 64.59735870361328 50.12514114379883 63.80841827392578 49.3953742980957 L 57.8814697265625 43.9134407043457 L 23.96546173095703 43.9134407043457 C 22.60945892333984 43.9134407043457 21.49999237060547 42.80399703979492 21.49999237060547 41.44798278808594 L 21.49999237060547 16.79345321655273 C 21.49999237060547 15.43745040893555 22.60945892333984 14.32800674438477 23.96546173095703 14.32800674438477 Z" stroke="none" fill="#000"/>
        </g>
        <path id="패스_42693" data-name="패스 42693" d="M36.734,21.237a1.4,1.4,0,0,1,.767.2,1.636,1.636,0,0,1,.563.8l3.829,9.875a.949.949,0,0,1-.613,1.345,1.525,1.525,0,0,1-.843.033.89.89,0,0,1-.6-.646l-.987-2.724h-4.29l-1,2.792a.845.845,0,0,1-.572.587,1.408,1.408,0,0,1-.791-.042,1.04,1.04,0,0,1-.6-.46.9.9,0,0,1,0-.8l3.83-9.96a1.533,1.533,0,0,1,.554-.8,1.41,1.41,0,0,1,.757-.2M36.7,23.961c-.091.34-.179.645-.264.911s-.2.593-.333.979l-.9,2.469H38.2l-.885-2.469c-.147-.4-.264-.738-.349-1.022s-.173-.573-.263-.868" transform="translate(6.715 4.326)"/>
        <path id="패스_42694" data-name="패스 42694" d="M45.2,23.64a5.392,5.392,0,0,1,1.515.2,3.664,3.664,0,0,1,1.2.588,2.7,2.7,0,0,1,.783.937,2.759,2.759,0,0,1,.281,1.267V32.17a.692.692,0,0,1-.3.621,1.2,1.2,0,0,1-.673.2,1.19,1.19,0,0,1-.672-.2.688.688,0,0,1-.3-.621v-.443h-.017a1.532,1.532,0,0,1-.392.51,3.172,3.172,0,0,1-.613.409,3.572,3.572,0,0,1-.783.272,3.95,3.95,0,0,1-.885.1,3.549,3.549,0,0,1-2.358-.7,2.44,2.44,0,0,1-.826-1.975v-.272A3.118,3.118,0,0,1,41.34,29a2.066,2.066,0,0,1,.6-.859,2.9,2.9,0,0,1,1.09-.571,5.83,5.83,0,0,1,1.678-.2h2.144v-.238a1.673,1.673,0,0,0-.4-1.251,1.784,1.784,0,0,0-1.268-.383A4.173,4.173,0,0,0,43,26.109a.824.824,0,0,1-.672.111.906.906,0,0,1-.536-.434,1.053,1.053,0,0,1-.145-.673.783.783,0,0,1,.383-.571,5.31,5.31,0,0,1,1.439-.655A5.985,5.985,0,0,1,45.2,23.64m-.443,5.381a1.689,1.689,0,0,0-1.183.324,1.151,1.151,0,0,0-.332.868v.033q0,.987,1.276.987a3.126,3.126,0,0,0,1.584-.34,1.519,1.519,0,0,0,.587-.561,1.8,1.8,0,0,0,.179-.869v-.443Z" transform="translate(8.963 4.885)"/>
        <path id="패스_42695" data-name="패스 42695" d="M42.413.5H2.965A2.473,2.473,0,0,0,.5,2.965v31.7a1.233,1.233,0,0,0,2.07.9L8.5,30.085H42.413a2.473,2.473,0,0,0,2.465-2.465V2.965A2.473,2.473,0,0,0,42.413.5" transform="translate(-0.5 -0.5)" fill="#51dcf9"/>
        <g id="패스_42696" data-name="패스 42696" transform="translate(-0.5 -0.5)" fill="#2ed1a2" stroke-miterlimit="10">
          <path d="M 1.740803122520447 34.89740371704102 C 1.678333044052124 34.89740371704102 1.500003099441528 34.85425567626953 1.500003099441528 34.66255569458008 L 1.500003099441528 27.6199951171875 L 1.500003099441528 17.71010398864746 L 1.500003099441528 2.965454816818237 C 1.500003099441528 2.157404899597168 2.157402992248535 1.500004887580872 2.965453147888184 1.500004887580872 L 42.41271209716797 1.500004887580872 C 43.22076416015625 1.500004887580872 43.8781623840332 2.157404899597168 43.8781623840332 2.965454816818237 L 43.8781623840332 27.6199951171875 C 43.8781623840332 28.42804527282715 43.22076416015625 29.08544540405273 42.41271209716797 29.08544540405273 L 8.496703147888184 29.08544540405273 L 8.105143547058105 29.08544540405273 L 7.81769323348999 29.35131454467773 L 1.890743136405945 34.83324432373047 C 1.843413114547729 34.87702560424805 1.795773148536682 34.89740371704102 1.740803122520447 34.89740371704102 Z" stroke="none"/>
          <path d="M 2.965450286865234 2.499996185302734 C 2.713150024414062 2.499996185302734 2.499992370605469 2.713153839111328 2.499992370605469 2.9654541015625 L 2.499992370605469 32.90757751464844 L 7.713584899902344 28.08544158935547 L 42.41270446777344 28.08544158935547 C 42.66500473022461 28.08544158935547 42.8781623840332 27.8722972869873 42.8781623840332 27.61999702453613 L 42.8781623840332 2.9654541015625 C 42.8781623840332 2.713153839111328 42.66500473022461 2.499996185302734 42.41270446777344 2.499996185302734 L 2.965450286865234 2.499996185302734 M 2.965450286865234 0.4999961853027344 L 42.41270446777344 0.4999961853027344 C 43.76870727539062 0.4999961853027344 44.8781623840332 1.609451293945312 44.8781623840332 2.9654541015625 L 44.8781623840332 27.61999702453613 C 44.8781623840332 28.97598648071289 43.76870727539062 30.08544158935547 42.41270446777344 30.08544158935547 L 8.496692657470703 30.08544158935547 L 2.569747924804688 35.56737518310547 C 1.780815124511719 36.29715347290039 0.4999923706054688 35.73748779296875 0.4999923706054688 34.66255187988281 L 0.4999923706054688 2.9654541015625 C 0.4999923706054688 1.609451293945312 1.609451293945312 0.4999961853027344 2.965450286865234 0.4999961853027344 Z" stroke="none" fill="#000"/>
        </g>
        <path id="패스_42697" data-name="패스 42697" d="M12.559,8.235a1.209,1.209,0,0,1,.7.189.688.688,0,0,1,.277.611v8.916a.684.684,0,0,1-.277.61,1.221,1.221,0,0,1-1.308,0,.684.684,0,0,1-.277-.61V10.417L9.8,11.493a.777.777,0,0,1-.683.08.977.977,0,0,1-.6-1.07.73.73,0,0,1,.392-.523l2.459-1.367a3.9,3.9,0,0,1,.653-.291,1.757,1.757,0,0,1,.539-.088" transform="translate(1.362 1.3)"/>
        <path id="패스_42698" data-name="패스 42698" d="M18.872,8.176a4.819,4.819,0,0,1,1.535.218,3.072,3.072,0,0,1,1.061.582,2.253,2.253,0,0,1,.611.851,2.687,2.687,0,0,1,.2,1.011V11a3.5,3.5,0,0,1-.385,1.593A5.969,5.969,0,0,1,20.763,14.1l-3.068,3.04H22.1a.567.567,0,0,1,.494.226,1.015,1.015,0,0,1,0,1.091.567.567,0,0,1-.494.226H16.559a1.6,1.6,0,0,1-1-.248.917.917,0,0,1-.306-.757.823.823,0,0,1,.123-.435,2.828,2.828,0,0,1,.356-.451l3.375-3.4a8.666,8.666,0,0,0,.655-.72,3.834,3.834,0,0,0,.392-.589,1.98,1.98,0,0,0,.2-.531,2.742,2.742,0,0,0,.051-.53V10.94a.99.99,0,0,0-.371-.793A1.72,1.72,0,0,0,18.9,9.834a2.182,2.182,0,0,0-1.09.248,2.742,2.742,0,0,0-.815.742.753.753,0,0,1-.509.319.814.814,0,0,1-.6-.16.923.923,0,0,1-.377-.509.761.761,0,0,1,.131-.64,3.913,3.913,0,0,1,1.28-1.186,3.779,3.779,0,0,1,1.949-.472" transform="translate(2.933 1.286)"/>
        <path id="패스_42699" data-name="패스 42699" d="M25.947,8.176a4.889,4.889,0,0,1,1.542.218,3.233,3.233,0,0,1,1.084.582,2.258,2.258,0,0,1,.632.843,2.55,2.55,0,0,1,.2,1V10.9a2.679,2.679,0,0,1-.116.778,2.584,2.584,0,0,1-.341.713,2.423,2.423,0,0,1-1.273.938,3.326,3.326,0,0,1,.8.218,2.3,2.3,0,0,1,.7.444,2.069,2.069,0,0,1,.487.7,2.437,2.437,0,0,1,.181.981v.147a2.746,2.746,0,0,1-.974,2.115,3.626,3.626,0,0,1-1.193.662,5,5,0,0,1-1.643.247,6.366,6.366,0,0,1-1.57-.181,4.632,4.632,0,0,1-1.352-.589.791.791,0,0,1-.386-.56.926.926,0,0,1,.138-.647.819.819,0,0,1,.494-.407.805.805,0,0,1,.625.131,3.689,3.689,0,0,0,.946.466,3.426,3.426,0,0,0,.975.129,3.7,3.7,0,0,0,.974-.108,1.717,1.717,0,0,0,.634-.306,1.163,1.163,0,0,0,.349-.466,1.506,1.506,0,0,0,.108-.573v-.117a1.261,1.261,0,0,0-.494-1.1,2.817,2.817,0,0,0-1.614-.357h-.772a.571.571,0,0,1-.509-.233,1.083,1.083,0,0,1,0-1.134.573.573,0,0,1,.509-.232H25.7a2.267,2.267,0,0,0,1.432-.371,1.369,1.369,0,0,0,.457-1.128v-.043a1.087,1.087,0,0,0-.392-.88,1.971,1.971,0,0,0-1.266-.327,2.071,2.071,0,0,0-.894.174,3.191,3.191,0,0,0-.75.509.741.741,0,0,1-.6.211.751.751,0,0,1-.524-.3.779.779,0,0,1-.2-.567.959.959,0,0,1,.226-.552,3.329,3.329,0,0,1,1.149-.807,3.985,3.985,0,0,1,1.6-.3" transform="translate(4.67 1.286)"/>
      </g>
    </g>
  </g>
</svg>
