<svg xmlns="http://www.w3.org/2000/svg" width="26" height="26" viewBox="0 0 26 26">
  <g id="option" transform="translate(12365 16546)">
    <rect id="사각형_20325" data-name="사각형 20325" width="26" height="26" transform="translate(-12365 -16546)" fill="none"/>
    <g id="그룹_111848" data-name="그룹 111848" transform="translate(-12363.309 -16544.9)">
      <g id="그룹_111849" data-name="그룹 111849">
        <path id="패스_37786" data-name="패스 37786" d="M19.938,11.9a8.507,8.507,0,0,0-.123-1.438.667.667,0,0,1,.224-.629l1.44-1.213a.67.67,0,0,0,.149-.847L20.042,5.027a.669.669,0,0,0-.807-.3l-1.779.645a.671.671,0,0,1-.657-.122,8.581,8.581,0,0,0-2.482-1.441.672.672,0,0,1-.434-.508l-.33-1.854A.669.669,0,0,0,12.894.9H9.723a.67.67,0,0,0-.659.552l-.33,1.854a.671.671,0,0,1-.433.508A8.568,8.568,0,0,0,5.819,5.255a.672.672,0,0,1-.657.122L3.383,4.732a.671.671,0,0,0-.808.3L.99,7.773a.67.67,0,0,0,.148.847L2.579,9.833a.669.669,0,0,1,.223.629,8.536,8.536,0,0,0,0,2.876.669.669,0,0,1-.223.629L1.138,15.18a.67.67,0,0,0-.148.847l1.585,2.746a.671.671,0,0,0,.808.3l1.779-.645a.672.672,0,0,1,.657.122A8.59,8.59,0,0,0,8.3,19.986a.671.671,0,0,1,.433.508l.33,1.854a.67.67,0,0,0,.659.552h3.171a.669.669,0,0,0,.659-.552l.33-1.854a.672.672,0,0,1,.434-.508A8.6,8.6,0,0,0,16.8,18.545a.671.671,0,0,1,.657-.122l1.779.645a.669.669,0,0,0,.807-.3l1.586-2.746a.67.67,0,0,0-.149-.847l-1.44-1.213a.667.667,0,0,1-.224-.629A8.507,8.507,0,0,0,19.938,11.9Z" fill="none" stroke="#000" stroke-miterlimit="10" stroke-width="1.8"/>
        <circle id="타원_669" data-name="타원 669" cx="3.268" cy="3.268" r="3.268" transform="translate(8.041 8.632)" fill="none" stroke="#000" stroke-miterlimit="10" stroke-width="1.8"/>
      </g>
    </g>
  </g>
</svg>
