<?xml version="1.0" encoding="utf-8"?>
<!-- Generator: Adobe Illustrator 26.2.1, SVG Export Plug-In . SVG Version: 6.00 Build 0)  -->
<svg version="1.1" xmlns="http://www.w3.org/2000/svg" xmlns:xlink="http://www.w3.org/1999/xlink" x="0px" y="0px"
	 viewBox="0 0 89 84" style="enable-background:new 0 0 89 84;" xml:space="preserve">
<style type="text/css">
	.st0{fill:#F06A86;stroke:#000000;stroke-width:2;stroke-linecap:round;stroke-linejoin:round;}
	.st1{fill:#FFFFFF;}
	.st2{fill:#FFFFFF;stroke:#000000;stroke-width:2.0002;stroke-linejoin:round;stroke-miterlimit:4.0005;}
	.st3{fill:#7582F0;stroke:#000000;stroke-width:1.9993;stroke-linejoin:round;stroke-miterlimit:3.9986;}
	.st4{fill:#16AB72;stroke:#000000;stroke-width:2;stroke-linejoin:round;}
	.st5{fill:#FFFFFF;stroke:#000000;stroke-width:2;stroke-linejoin:round;}
	.st6{fill:#FEC211;stroke:#000000;stroke-width:2;stroke-linejoin:round;}

	.fire{transform-origin: 50% 50%;animation: fire step-start infinite 1.3s;}
	@keyframes fire {
	0% {transform: rotateY( 180deg );}	
	10% {transform: rotateY( 0deg );}	
	20% {transform: rotateY( 180deg );}	
	30% {transform: rotateY( 0deg );}	
	40% {transform: rotateY( 0deg );}	
	50% {transform: rotateY( 180deg );}
	100% {transform: rotateY( 180deg );}
	}

	.obj{position: relative; z-index:-1; opacity: 0; transform-origin: 50% 50%; transform: translate(20px, 20px); animation:obj linear both infinite 1.2s; animation-delay: 0.6s}
	@keyframes obj {
	40% {transform: translate(0px, 10px); opacity: 0}
	80% {transform: translate(0, 0px); opacity:1}
	100% {transform: translate(0, 0px); opacity:1}
	}
</style>
<g id="fire" class="fire">
	<g id="Group_115634" transform="translate(13505.687 123.869)">
		<g  id="Group_115635" transform="translate(0 0)">
			<g>
				<path id="Path_42591" class="st0" d="M-13441.8-90.2c-0.4,1.6-1,3.2-1.8,4.6c-1.4,2.7-5.9,1.6-3.9-4.8s0-12.1-5.5-15.8
					c-5.5-3.8-6.7-7-6.7-7c-0.1,4.6-4.3,13-7.8,14.1c-3.4,1.1-3.7-3.9-3.7-3.9c-11.2,10.8-3.7,24-7.5,25.5c-3.8,1.5-4.6-3.1-4.6-3.1
					c-1.3,16.7,4.3,27,23.5,27C-13430.5-53.6-13441.8-90.2-13441.8-90.2"/>
				<path id="Path_42593" class="st1" d="M-13459.9-60.5c-8.6,0-11.5-6.9-11.5-11.2c1,1.3,4.7,1.5,5.2-3c0-0.2,0-0.3,0-0.6
					c0.2-5.4,2.6-10.4,6.6-13.9c0.6-0.5,1.2-1.1,1.7-1.7c0,0.3-0.1,0.5-0.2,0.8c-1.9,7.4,0,12.2,1.3,14.5c1.2,2,3.6,2.9,5.4,1.3
					C-13451.3-71-13451.6-60.5-13459.9-60.5"/>
			</g>

			<g class="">
				<path id="Path_42594" class="st0" d="M-13470-107.8c0,0,3.2-3.6,1.9-6.7C-13468.1-114.4-13460.7-109.8-13470-107.8"/>
				<path id="Path_42596" class="st0" d="M-13440-97.5c0,1-0.2,2.1-0.5,3c0,0-2.5-1.4-2.5-3s2.5-3,2.5-3
					C-13440.2-99.6-13440-98.5-13440-97.5"/>
			</g>
		</g>
	</g>
</g>
<g id="obj" class="obj">
	<path id="Path_42598" class="st2" d="M11.9,21.1l0.2-2.5c0-0.6,0.6-1,1.1-0.9l7.8,0.7c0.6,0,1,0.6,0.9,1.1L21.7,22
		c0,0.6-0.6,1-1.1,0.9c0,0,0,0,0,0l-7.8-0.7C12.2,22.2,11.8,21.7,11.9,21.1C11.9,21.1,11.9,21.1,11.9,21.1"/>
	<path id="Path_42599" class="st3" d="M28.8,13.1l-2,1.5c-0.5,0.4-1.1,0.3-1.5-0.2c0,0,0,0,0,0l-4.8-6.2c-0.4-0.5-0.3-1.1,0.2-1.5
		c0,0,0,0,0,0l2-1.5c0.5-0.4,1.1-0.3,1.5,0.2c0,0,0,0,0,0l4.8,6.2C29.3,12.1,29.2,12.7,28.8,13.1"/>
	<path id="Path_42601" class="st4" d="M75,38.3l-2.2-0.8c-0.5-0.2-0.7-0.6-0.5-1l3.5-5.1c0.3-0.4,0.9-0.5,1.4-0.3l2.2,0.8
		c0.5,0.2,0.7,0.6,0.5,1l-3.5,5.1C76,38.3,75.5,38.5,75,38.3"/>
	<path id="Path_42603" class="st5" d="M63.4,16.3L61.3,15c-0.5-0.3-0.6-1-0.3-1.4c0,0,0,0,0,0l4.2-6.6c0.3-0.5,1-0.6,1.4-0.3L68.7,8
		c0.5,0.3,0.6,1,0.3,1.4L64.8,16C64.5,16.5,63.8,16.6,63.4,16.3"/>
	<path id="Path_42606" class="st4" d="M16.1,53.7l-2.2,0.7c-0.5,0.2-1,0-1.4-0.3l-3.4-4.5c-0.2-0.3,0-0.7,0.5-0.9l2.2-0.7
		c0.5-0.2,1,0,1.4,0.3l3.4,4.5C16.8,53.2,16.6,53.6,16.1,53.7"/>
	<path id="Path_42608" class="st6" d="M20.8,32.9c0,1.1-0.9,2-2,2s-2-0.9-2-2c0-1.1,0.9-2,2-2c0,0,0,0,0,0
		C19.8,30.9,20.8,31.8,20.8,32.9"/>
	<path id="Path_42610" class="st0" d="M57.1,6.1c0,1.5-1.2,2.8-2.8,2.8c-1.5,0-2.8-1.2-2.8-2.8c0-1.5,1.2-2.8,2.8-2.8
		C55.8,3.3,57.1,4.5,57.1,6.1"/>
	<path id="Path_42611" class="st6" d="M74.6,56.8c0,1.3-1.1,2.4-2.4,2.4s-2.4-1.1-2.4-2.4c0-1.3,1.1-2.4,2.4-2.4
		S74.6,55.5,74.6,56.8L74.6,56.8"/>
</g>
</svg>
