<svg xmlns="http://www.w3.org/2000/svg" xmlns:xlink="http://www.w3.org/1999/xlink" width="56" height="56" viewBox="0 0 56 56">
  <defs>
    <linearGradient id="linear-gradient" x2="1" y2="1" gradientUnits="objectBoundingBox">
      <stop offset="0" stop-color="#95e5da"/>
      <stop offset="1" stop-color="#38b9f7"/>
    </linearGradient>
    <filter id="사각형_20592" x="10.067" y="12.068" width="39.863" height="39.863" filterUnits="userSpaceOnUse">
      <feOffset dx="2" dy="4" input="SourceAlpha"/>
      <feGaussianBlur stdDeviation="2" result="blur"/>
      <feFlood flood-opacity="0.161"/>
      <feComposite operator="in" in2="blur"/>
      <feComposite in="SourceGraphic"/>
    </filter>
    <linearGradient id="linear-gradient-2" x1="1.062" y1="1.041" x2="-0.455" y2="-0.399" gradientUnits="objectBoundingBox">
      <stop offset="0" stop-color="#dbfffb"/>
      <stop offset="1" stop-color="#fff"/>
    </linearGradient>
    <filter id="사각형_20593" x="12.058" y="14.059" width="35.882" height="35.883" filterUnits="userSpaceOnUse">
      <feOffset dx="2" dy="4" input="SourceAlpha"/>
      <feGaussianBlur stdDeviation="2" result="blur-2"/>
      <feFlood flood-opacity="0.161"/>
      <feComposite operator="in" in2="blur-2"/>
      <feComposite in="SourceGraphic"/>
    </filter>
    <linearGradient id="linear-gradient-3" x2="1.337" y2="1" gradientUnits="objectBoundingBox">
      <stop offset="0" stop-color="#58ffea"/>
      <stop offset="1" stop-color="#156ee2"/>
    </linearGradient>
    <filter id="합치기_179" x="19.132" y="19.999" width="16.016" height="17.685" filterUnits="userSpaceOnUse">
      <feOffset dy="1" input="SourceAlpha"/>
      <feGaussianBlur stdDeviation="1" result="blur-3"/>
      <feFlood flood-color="#1e847e" flood-opacity="0.2"/>
      <feComposite operator="in" in2="blur-3"/>
      <feComposite in="SourceGraphic"/>
    </filter>
    <linearGradient id="linear-gradient-4" x1="-0.13" x2="0.79" y2="0.78" gradientUnits="objectBoundingBox">
      <stop offset="0" stop-color="#fff702"/>
      <stop offset="1" stop-color="#feb010"/>
    </linearGradient>
    <filter id="패스_37388" x="30.89" y="12.568" width="11.737" height="11.466" filterUnits="userSpaceOnUse">
      <feOffset dx="1" dy="1" input="SourceAlpha"/>
      <feGaussianBlur stdDeviation="0.5" result="blur-4"/>
      <feFlood flood-opacity="0.149"/>
      <feComposite operator="in" in2="blur-4"/>
      <feComposite in="SourceGraphic"/>
    </filter>
    <filter id="패스_37389" x="35.814" y="35.919" width="6.625" height="6.513" filterUnits="userSpaceOnUse">
      <feOffset dx="1" dy="1" input="SourceAlpha"/>
      <feGaussianBlur stdDeviation="0.5" result="blur-5"/>
      <feFlood flood-opacity="0.149"/>
      <feComposite operator="in" in2="blur-5"/>
      <feComposite in="SourceGraphic"/>
    </filter>
    <linearGradient id="linear-gradient-6" x1="-0.239" y1="-0.221" x2="1" y2="1" xlink:href="#linear-gradient-4"/>
    <filter id="패스_37390" x="11.431" y="25.814" width="9.383" height="9.185" filterUnits="userSpaceOnUse">
      <feOffset dx="1" dy="1" input="SourceAlpha"/>
      <feGaussianBlur stdDeviation="0.5" result="blur-6"/>
      <feFlood flood-opacity="0.149"/>
      <feComposite operator="in" in2="blur-6"/>
      <feComposite in="SourceGraphic"/>
    </filter>
  </defs>
  <g id="_2" data-name="2" transform="translate(-863 -883)">
    <path id="area" d="M28,0A28,28,0,1,1,0,28,28,28,0,0,1,28,0Z" transform="translate(863 883)" fill="#f7f7f7" opacity="0"/>
    <g id="그룹_112604" data-name="그룹 112604" transform="translate(11108.17 12460.608)">
      <g id="그룹_112604-2" data-name="그룹 112604" transform="translate(-10231.103 -11563.54)">
        <g id="그룹_112605" data-name="그룹 112605" transform="translate(0 0)">
          <g transform="matrix(1, 0, 0, 1, -14.07, -14.07)" filter="url(#사각형_20592)">
            <rect id="사각형_20592-2" data-name="사각형 20592" width="27.863" height="27.863" rx="13.931" transform="translate(14.07 14.07)" fill="url(#linear-gradient)"/>
          </g>
          <g transform="matrix(1, 0, 0, 1, -14.07, -14.07)" filter="url(#사각형_20593)">
            <rect id="사각형_20593-2" data-name="사각형 20593" width="23.882" height="23.882" rx="11.941" transform="translate(16.06 16.06)" fill="url(#linear-gradient-2)"/>
          </g>
          <g transform="matrix(1, 0, 0, 1, -14.07, -14.07)" filter="url(#합치기_179)">
            <path id="합치기_179-2" data-name="합치기 179" d="M0,9.737A1.956,1.956,0,0,1,2.932,8.05V1.46L10.016,0V8.52a1.953,1.953,0,1,1-.978-1.687V2.587L3.908,3.645V9.737A1.954,1.954,0,0,1,0,9.737Z" transform="translate(22.13 22)" fill="url(#linear-gradient-3)"/>
          </g>
        </g>
      </g>
      <g transform="matrix(1, 0, 0, 1, -10245.17, -11577.61)" filter="url(#패스_37388)">
        <path id="패스_37388-2" data-name="패스 37388" d="M3.54.529l-.6,1.3a.913.913,0,0,1-.713.521L.8,2.532A.913.913,0,0,0,.284,4.1L1.351,5.112a.912.912,0,0,1,.268.831L1.346,7.383a.914.914,0,0,0,.9,1.083h0a.9.9,0,0,0,.442-.116l1.237-.69a.912.912,0,0,1,.889,0l1.238.689a.913.913,0,0,0,1.342-.967L7.119,5.942a.912.912,0,0,1,.268-.831L8.452,4.1a.912.912,0,0,0-.514-1.567L6.512,2.35A.915.915,0,0,1,5.8,1.828L5.2.529a.913.913,0,0,0-1.657,0" transform="translate(31.39 13.07)" fill="url(#linear-gradient-4)"/>
      </g>
      <g transform="matrix(1, 0, 0, 1, -10245.17, -11577.61)" filter="url(#패스_37389)">
        <path id="패스_37389-2" data-name="패스 37389" d="M1.469.219l-.25.539a.379.379,0,0,1-.3.216l-.592.076a.379.379,0,0,0-.213.65l.443.42a.379.379,0,0,1,.111.345l-.114.6a.379.379,0,0,0,.372.449h0a.374.374,0,0,0,.183-.048l.513-.286a.378.378,0,0,1,.369,0l.514.286a.379.379,0,0,0,.557-.4l-.114-.6a.378.378,0,0,1,.111-.345l.442-.42a.379.379,0,0,0-.213-.65L2.7.975a.38.38,0,0,1-.3-.216L2.157.219a.379.379,0,0,0-.688,0" transform="translate(36.31 36.42)" fill="url(#linear-gradient-4)"/>
      </g>
      <g transform="matrix(1, 0, 0, 1, -10245.17, -11577.61)" filter="url(#패스_37390)">
        <path id="패스_37390-2" data-name="패스 37390" d="M2.586.386l-.44.95a.667.667,0,0,1-.521.381L.583,1.85A.667.667,0,0,0,.207,2.995l.78.74a.667.667,0,0,1,.2.607l-.2,1.052a.668.668,0,0,0,.655.791h0A.658.658,0,0,0,1.963,6.1l.9-.5a.666.666,0,0,1,.65,0l.9.5a.667.667,0,0,0,.98-.706L5.2,4.341a.666.666,0,0,1,.2-.607l.778-.739A.666.666,0,0,0,5.8,1.85L4.757,1.717a.668.668,0,0,1-.521-.381L3.8.386a.667.667,0,0,0-1.21,0" transform="translate(11.93 26.31)" fill="url(#linear-gradient-6)"/>
      </g>
    </g>
  </g>
</svg>
