<?xml version="1.0" encoding="utf-8"?>
<!-- Generator: Adobe Illustrator 26.1.0, SVG Export Plug-In . SVG Version: 6.00 Build 0)  -->
<svg version="1.1" xmlns="http://www.w3.org/2000/svg" xmlns:xlink="http://www.w3.org/1999/xlink" x="0px" y="0px"
	 viewBox="0 0 93.7 111.9" style="enable-background:new 0 0 93.7 111.9;" xml:space="preserve">
<style type="text/css">
.st0{fill:#FFC1AB;stroke:#000000;stroke-width:1.5022;stroke-miterlimit:4.0058;}
.st1{fill:none;stroke:#000000;stroke-width:1.5022;stroke-linecap:round;stroke-linejoin:round;stroke-miterlimit:4.0058;}
.st2{fill:#D1C7A8;stroke:#000000;stroke-width:1.5022;stroke-miterlimit:4.0058;}
.st3{fill:#FFFFFF;stroke:#000000;stroke-width:1.5026;stroke-miterlimit:4.0069;}
.st4{fill:#FFFF4E;stroke:#000000;stroke-width:1.5022;stroke-miterlimit:4.0059;}
.st5{enable-background:new    ;}
.st6{fill:#FFFFFF;}
.st7{fill:none;stroke:#000000;stroke-width:0.995;stroke-miterlimit:3.9802;}
.st8{fill:none;stroke:#000000;stroke-width:5;stroke-miterlimit:10;}
.st9{fill:none;stroke:#ac77ff;stroke-width:3;stroke-miterlimit:10;}


.st8, .st9 {
stroke-linejoin:round;stroke-linecap:round;

stroke-linejoin:round;animation:brush both infinite linear 3s;stroke-dasharray:100;stroke-dashoffset:100;
}

.a1 {animation:fade both infinite 3s;}
.a2 {animation:fade2 both infinite 3s;}

@keyframes fade {
0% {opacity:0;}	
5% {opacity:0;}	
25% {opacity:1;}
90% {opacity:1;}
100% {opacity:0;}
}
@keyframes fade2 {
0% {opacity:0;}	
20% {opacity:0;}
40% {opacity:1;}
90% {opacity:1;}
100% {opacity:0;}
}



@keyframes brush {
0% {stroke-dashoffset:100;}
34% {stroke-dashoffset:0;}
100% {stroke-dashoffset:0;}
}

</style>
<g id="Layer_1">
	<g id="Layer_1_00000031207370222308043610000000810476608347327672_">
		<g id="ν•«νΈν”½μ»¤" transform="matrix(0.998, 0.07, -0.07, 0.998, -88.029, -2138.299)">
			<g id="Group_112023" transform="matrix(0.94, 0.342, -0.342, 0.94, 254.672, 2108.533)">
				<g id="Group_112024">
					<path id="Path_37898" class="st0" d="M96.6,89.1L70.8,83c-0.7-1.5-1.9-2.8-3.4-3.4l0,0c-4.5-4.3-4.3-10.7-7.5-9.9
						c-2.7,0.7-3.8,7.2-0.2,10.2l0,0c-4.3,1-4.6,4.8-3.6,9.1s3.1,7.5,7.3,6.4c2.4-0.6,5.3-1.5,7-3.4l26.3,5"/>
					<path id="Path_37899" class="st1" d="M96.6,89.1L70.8,83c-0.7-1.5-1.9-2.8-3.4-3.4l0,0c-4.5-4.3-4.3-10.7-7.5-9.9
						c-2.7,0.7-3.8,7.2-0.2,10.2l0,0c-4.3,1-4.6,4.8-3.6,9.1s3.1,7.5,7.3,6.4c2.4-0.6,5.3-1.5,7-3.4l26.3,5"/>
					<path id="Path_37900" class="st2" d="M58.6,95.4l-22-90.2l5.7-1.4l22,90.2"/>
					<path id="Path_37901" class="st1" d="M58.6,95.4l-22-90.2l5.7-1.4l22,90.2"/>
					
						<rect id="Rectangle_20388" x="18.7" y="-2.5" transform="matrix(0.2359 0.9718 -0.9718 0.2359 74.4394 -16.7918)" class="st3" width="58.4" height="82.8"/>
					
						<rect id="Rectangle_20390" x="24" y="2.8" transform="matrix(0.2363 0.9717 -0.9717 0.2363 74.3073 -16.7597)" class="st4" width="47.7" height="72.1"/>
					<path id="Path_37902" class="st0" d="M64.3,82c0.6,2.7-1.8,3.7-4.9,4.5s-5.7,0.9-6.4-1.7s1.8-3.7,4.9-4.5S63.6,79.4,64.3,82"/>
					<path id="Path_37903" class="st1" d="M64.3,82c0.6,2.7-1.8,3.7-4.9,4.5s-5.7,0.9-6.4-1.7s1.8-3.7,4.9-4.5S63.6,79.4,64.3,82z"
						/>
					<path id="Path_37904" class="st0" d="M66.5,91.4c0.6,2.7-1.8,3.7-4.9,4.5s-5.7,0.9-6.4-1.7s1.8-3.7,4.9-4.5
						S65.9,88.8,66.5,91.4"/>
					<path id="Path_37905" class="st1" d="M66.5,91.4c0.6,2.7-1.8,3.7-4.9,4.5s-5.7,0.9-6.4-1.7s1.8-3.7,4.9-4.5
						S65.9,88.8,66.5,91.4z"/>
					<path id="Path_37906" class="st0" d="M64.4,87.1c0.6,2.7-1.8,3.7-4.9,4.5s-5.7,0.9-6.4-1.7s1.8-3.7,4.9-4.5
						S63.8,84.5,64.4,87.1"/>
					<path id="Path_37907" class="st1" d="M64.4,87.1c0.6,2.7-1.8,3.7-4.9,4.5s-5.7,0.9-6.4-1.7s1.8-3.7,4.9-4.5
						S63.8,84.5,64.4,87.1z"/>
				</g>
			</g>
		</g>
	</g>
	<g id="Layer_2_00000113337132798661455340000010646427317102845346_">
		<g transform="matrix(1, 0, 0, 1, 0, 0)">
			<g class="st5 a1">
				<path d="M35.1,23.7l-1.3,12.9l-2.9-0.3l0.5-5.2l-5.7-0.6l-0.5,5.2l-2.9-0.3l1.3-12.9l2.9,0.3L26,27.9l5.7,0.6l0.5-5.1L35.1,23.7
					z"/>
				<path d="M45.5,33.1c-0.3,2.8-2.5,4.7-5.4,4.4s-4.7-2.5-4.4-5.4s2.6-4.7,5.4-4.4S45.8,30.3,45.5,33.1z M38.3,32.4
					c-0.1,1.4,0.6,2.5,2,2.7c1.3,0.1,2.3-0.8,2.4-2.2c0.1-1.4-0.6-2.5-2-2.7C39.5,30,38.5,30.9,38.3,32.4z"/>
				<path d="M52.4,31.5l-1.8-0.2l-0.7,6.9l-2.8-0.3l0.7-6.9L46,30.8l0.2-2.4l1.8,0.2l0.3-2.8l2.8,0.3l-0.3,2.8l1.8,0.2L52.4,31.5z"
					/>
				<path d="M59.3,32.2L57.5,32l-0.7,6.9L54,38.6l0.7-6.9l-1.8-0.2l0.2-2.4l1.8,0.2l0.3-2.8l2.8,0.3l-0.3,2.8l1.8,0.2L59.3,32.2z"/>
			</g>
			<g class="st5 a1">
				<path d="M35.1,23.7l-1.3,12.9l-2.9-0.3l0.5-5.2l-5.7-0.6l-0.5,5.2l-2.9-0.3l1.3-12.9l2.9,0.3L26,27.9l5.7,0.6l0.5-5.1L35.1,23.7
					z"/>
				<path d="M45.5,33.1c-0.3,2.8-2.5,4.7-5.4,4.4s-4.7-2.5-4.4-5.4s2.6-4.7,5.4-4.4S45.8,30.3,45.5,33.1z M38.3,32.4
					c-0.1,1.4,0.6,2.5,2,2.7c1.3,0.1,2.3-0.8,2.4-2.2c0.1-1.4-0.6-2.5-2-2.7C39.5,30,38.5,30.9,38.3,32.4z"/>
				<path d="M52.4,31.5l-1.8-0.2l-0.7,6.9l-2.8-0.3l0.7-6.9L46,30.8l0.2-2.4l1.8,0.2l0.3-2.8l2.8,0.3l-0.3,2.8l1.8,0.2L52.4,31.5z"
					/>
				<path d="M59.3,32.2L57.5,32l-0.7,6.9L54,38.6l0.7-6.9l-1.8-0.2l0.2-2.4l1.8,0.2l0.3-2.8l2.8,0.3l-0.3,2.8l1.8,0.2L59.3,32.2z"/>
			</g>
			<g class="st5 a2">
				<path d="M29.9,43.2l5,0.5c3.4,0.3,5.1,2.4,4.8,5.3c-0.3,2.9-2.4,4.6-5.8,4.2L31.8,53l-0.3,3.4l-2.9-0.3L29.9,43.2z M34,50.6
					c1.6,0.2,2.6-0.5,2.8-1.9c0.1-1.4-0.7-2.3-2.3-2.4l-2-0.3l-0.4,4.4L34,50.6z"/>
				<path d="M42.8,57.5L40,57.2l0.9-9.3l2.8,0.3L42.8,57.5z M44.3,45.5c-0.1,1-0.9,1.7-1.9,1.6c-1-0.1-1.7-0.9-1.6-1.9
					c0.1-1,0.9-1.7,1.9-1.6C43.8,43.7,44.4,44.5,44.3,45.5z"/>
				<path d="M48.9,58.3c-2.9-0.3-4.7-2.5-4.4-5.4c0.3-2.8,2.5-4.7,5.4-4.4c2.4,0.2,4.1,2,4.2,4l-2.8-0.3c-0.2-0.7-0.7-1.2-1.6-1.3
					c-1.3-0.1-2.3,0.8-2.4,2.2c-0.1,1.4,0.6,2.5,1.9,2.6c0.9,0.1,1.6-0.3,1.9-0.9l2.8,0.3C53.2,57.3,51.3,58.6,48.9,58.3z"/>
				<path d="M59,55.7l-1.3,1.2L57.5,59l-2.8-0.3L56,45.4l2.8,0.3L58,53.5l3.7-3.5l3.1,0.3l-4,3.6l3.2,5.7l-3.2-0.3L59,55.7z"/>
				<path d="M68.1,58.6c-0.1,1-0.9,1.6-1.8,1.5c-1-0.1-1.6-0.9-1.5-1.8c0.1-1,0.9-1.6,1.8-1.5C67.6,56.8,68.2,57.6,68.1,58.6z
					 M67.7,55.7l-2-0.2l0.1-8.7l3.4,0.3L67.7,55.7z"/>
			</g>
			<g class="st5 a2">
				<path d="M29.9,43.2l5,0.5c3.4,0.3,5.1,2.4,4.8,5.3c-0.3,2.9-2.4,4.6-5.8,4.2L31.8,53l-0.3,3.4l-2.9-0.3L29.9,43.2z M34,50.6
					c1.6,0.2,2.6-0.5,2.8-1.9c0.1-1.4-0.7-2.3-2.3-2.4l-2-0.3l-0.4,4.4L34,50.6z"/>
				<path d="M42.8,57.5L40,57.2l0.9-9.3l2.8,0.3L42.8,57.5z M44.3,45.5c-0.1,1-0.9,1.7-1.9,1.6c-1-0.1-1.7-0.9-1.6-1.9
					c0.1-1,0.9-1.7,1.9-1.6C43.8,43.7,44.4,44.5,44.3,45.5z"/>
				<path d="M48.9,58.3c-2.9-0.3-4.7-2.5-4.4-5.4c0.3-2.8,2.5-4.7,5.4-4.4c2.4,0.2,4.1,2,4.2,4l-2.8-0.3c-0.2-0.7-0.7-1.2-1.6-1.3
					c-1.3-0.1-2.3,0.8-2.4,2.2c-0.1,1.4,0.6,2.5,1.9,2.6c0.9,0.1,1.6-0.3,1.9-0.9l2.8,0.3C53.2,57.3,51.3,58.6,48.9,58.3z"/>
				<path d="M59,55.7l-1.3,1.2L57.5,59l-2.8-0.3L56,45.4l2.8,0.3L58,53.5l3.7-3.5l3.1,0.3l-4,3.6l3.2,5.7l-3.2-0.3L59,55.7z"/>
				<path d="M68.1,58.6c-0.1,1-0.9,1.6-1.8,1.5c-1-0.1-1.6-0.9-1.5-1.8c0.1-1,0.9-1.6,1.8-1.5C67.6,56.8,68.2,57.6,68.1,58.6z
					 M67.7,55.7l-2-0.2l0.1-8.7l3.4,0.3L67.7,55.7z"/>
			</g>
		</g>
		<g transform="matrix(1, 0, 0, 1, 0, 0)">
			<g class="st5 a1">
				<path class="st6" d="M33.7,21.8l-1.3,12.9l-2.9-0.3l0.5-5.2l-5.7-0.6l-0.5,5.2l-2.9-0.3l1.3-12.9l2.9,0.3L24.6,26l5.7,0.6
					l0.5-5.1L33.7,21.8z"/>
				<path class="st6" d="M44,31.2c-0.3,2.8-2.5,4.7-5.4,4.4s-4.7-2.5-4.4-5.4s2.6-4.7,5.4-4.4C42.4,26.1,44.3,28.4,44,31.2z
					 M36.9,30.5c-0.1,1.4,0.6,2.5,2,2.7c1.3,0.1,2.3-0.8,2.4-2.2s-0.6-2.5-2-2.7C38,28.1,37,29,36.9,30.5z"/>
				<path class="st6" d="M51,29.6l-1.8-0.2l-0.7,6.9L45.6,36l0.7-6.9L44.5,29l0.2-2.4l1.8,0.2l0.3-2.8l2.8,0.3L49.4,27l1.8,0.2
					L51,29.6z"/>
				<path class="st6" d="M57.8,30.3L56,30.1L55.3,37l-2.8-0.3l0.7-6.9l-1.8-0.2l0.2-2.4l1.8,0.2l0.3-2.8l2.8,0.3l-0.3,2.8l1.8,0.2
					L57.8,30.3z"/>
			</g>
			<g class="st5 a1">
				<path class="st7" d="M33.7,21.8l-1.3,12.9l-2.9-0.3l0.5-5.2l-5.7-0.6l-0.5,5.2l-2.9-0.3l1.3-12.9l2.9,0.3L24.6,26l5.7,0.6
					l0.5-5.1L33.7,21.8z"/>
				<path class="st7" d="M44,31.2c-0.3,2.8-2.5,4.7-5.4,4.4s-4.7-2.5-4.4-5.4s2.6-4.7,5.4-4.4C42.4,26.1,44.3,28.4,44,31.2z
					 M36.9,30.5c-0.1,1.4,0.6,2.5,2,2.7c1.3,0.1,2.3-0.8,2.4-2.2s-0.6-2.5-2-2.7C38,28.1,37,29,36.9,30.5z"/>
				<path class="st7" d="M51,29.6l-1.8-0.2l-0.7,6.9L45.6,36l0.7-6.9L44.5,29l0.2-2.4l1.8,0.2l0.3-2.8l2.8,0.3L49.4,27l1.8,0.2
					L51,29.6z"/>
				<path class="st7" d="M57.8,30.3L56,30.1L55.3,37l-2.8-0.3l0.7-6.9l-1.8-0.2l0.2-2.4l1.8,0.2l0.3-2.8l2.8,0.3l-0.3,2.8l1.8,0.2
					L57.8,30.3z"/>
			</g>
			<g class="st5 a2">
				<path class="st6" d="M28.4,41.3l5,0.5c3.4,0.3,5.1,2.4,4.8,5.3c-0.3,2.9-2.4,4.6-5.8,4.2l-2-0.3L30,54.5l-2.9-0.3L28.4,41.3z
					 M32.6,48.7c1.6,0.2,2.6-0.5,2.8-1.9c0.1-1.4-0.7-2.3-2.3-2.4l-1.9-0.2l-0.4,4.4L32.6,48.7z"/>
				<path class="st6" d="M41.3,55.6l-2.8-0.3l0.9-9.3l2.8,0.3L41.3,55.6z M42.9,43.6c-0.1,1-0.9,1.7-1.9,1.6c-1-0.1-1.7-0.9-1.6-1.9
					c0.1-1,0.9-1.7,1.9-1.6C42.3,41.8,43,42.6,42.9,43.6z"/>
				<path class="st6" d="M47.5,56.4c-2.9-0.3-4.7-2.5-4.4-5.4c0.3-2.8,2.5-4.7,5.4-4.4c2.4,0.2,4.1,2,4.2,4l-2.8-0.3
					c-0.2-0.7-0.7-1.2-1.6-1.3c-1.3-0.1-2.3,0.8-2.4,2.2c-0.1,1.4,0.6,2.5,1.9,2.6c0.9,0.1,1.6-0.3,1.9-0.9l2.8,0.3
					C51.8,55.4,49.8,56.7,47.5,56.4z"/>
				<path class="st6" d="M57.5,53.8L56.2,55L56,57.1l-2.8-0.3l1.3-13.3l2.8,0.3l-0.8,7.8l3.7-3.5l3.1,0.3l-4,3.6l3.2,5.7l-3.2-0.3
					L57.5,53.8z"/>
				<path class="st6" d="M66.7,56.7c-0.1,1-0.9,1.6-1.8,1.5c-1-0.1-1.6-0.9-1.5-1.8c0.1-1,0.9-1.6,1.8-1.5
					C66.1,54.9,66.8,55.7,66.7,56.7z M66.3,53.8l-2-0.2l0.1-8.7l3.4,0.3L66.3,53.8z"/>
			</g>
			<g class="st5 a2">
				<path class="st7" d="M28.4,41.3l5,0.5c3.4,0.3,5.1,2.4,4.8,5.3c-0.3,2.9-2.4,4.6-5.8,4.2l-2-0.3L30,54.5l-2.9-0.3L28.4,41.3z
					 M32.6,48.7c1.6,0.2,2.6-0.5,2.8-1.9c0.1-1.4-0.7-2.3-2.3-2.4l-1.9-0.2l-0.4,4.4L32.6,48.7z"/>
				<path class="st7" d="M41.3,55.6l-2.8-0.3l0.9-9.3l2.8,0.3L41.3,55.6z M42.9,43.6c-0.1,1-0.9,1.7-1.9,1.6c-1-0.1-1.7-0.9-1.6-1.9
					c0.1-1,0.9-1.7,1.9-1.6C42.3,41.8,43,42.6,42.9,43.6z"/>
				<path class="st7" d="M47.5,56.4c-2.9-0.3-4.7-2.5-4.4-5.4c0.3-2.8,2.5-4.7,5.4-4.4c2.4,0.2,4.1,2,4.2,4l-2.8-0.3
					c-0.2-0.7-0.7-1.2-1.6-1.3c-1.3-0.1-2.3,0.8-2.4,2.2c-0.1,1.4,0.6,2.5,1.9,2.6c0.9,0.1,1.6-0.3,1.9-0.9l2.8,0.3
					C51.8,55.4,49.8,56.7,47.5,56.4z"/>
				<path class="st7" d="M57.5,53.8L56.2,55L56,57.1l-2.8-0.3l1.3-13.3l2.8,0.3l-0.8,7.8l3.7-3.5l3.1,0.3l-4,3.6l3.2,5.7l-3.2-0.3
					L57.5,53.8z"/>
				<path class="st7" d="M66.7,56.7c-0.1,1-0.9,1.6-1.8,1.5c-1-0.1-1.6-0.9-1.5-1.8c0.1-1,0.9-1.6,1.8-1.5
					C66.1,54.9,66.8,55.7,66.7,56.7z M66.3,53.8l-2-0.2l0.1-8.7l3.4,0.3L66.3,53.8z"/>
			</g>
		</g>
	</g>
</g>
<g id="Layer_2">
	<path class="st8" d="M69.2,22.9c0,0,1,8.1-2.5,14.6c0,0,8.2-5.9,18.8-7"/>
</g>
<g id="Layer_3">
	<path class="st9" d="M69.2,22.9c0,0,1,8.1-2.5,14.6c0,0,8.2-5.9,18.8-7"/>
</g>
</svg>
