<svg xmlns="http://www.w3.org/2000/svg" width="84.097" height="92" viewBox="0 0 84.097 92">
  <g id="그룹_111944" data-name="그룹 111944" transform="translate(1 1)">
    <g id="그룹_111945" data-name="그룹 111945" transform="translate(0 0)">
      <path id="패스_37877" data-name="패스 37877" d="M76.821,1H7.273A6.275,6.275,0,0,0,1,7.274V67.056A6.275,6.275,0,0,0,7.273,73.33H76.821A6.275,6.275,0,0,0,83.1,67.056V7.274A6.275,6.275,0,0,0,76.821,1" transform="translate(-0.999 -1)" fill="#fff"/>
      <rect id="사각형_20377" data-name="사각형 20377" width="82.097" height="72.33" rx="6" transform="translate(0 0)" fill="none" stroke="#231815" stroke-miterlimit="10" stroke-width="2"/>
      <line id="선_234" data-name="선 234" x2="82.097" transform="translate(0.001 12.997)" fill="none" stroke="#231815" stroke-miterlimit="10" stroke-width="2"/>
      <path id="패스_37878" data-name="패스 37878" d="M11.409,8.943A1.763,1.763,0,1,1,9.646,7.18a1.763,1.763,0,0,1,1.763,1.763" transform="translate(-2.484 -2.333)" fill="#231815"/>
      <path id="패스_37879" data-name="패스 37879" d="M19.346,8.943A1.763,1.763,0,1,1,17.583,7.18a1.763,1.763,0,0,1,1.763,1.763" transform="translate(-4.196 -2.333)" fill="#231815"/>
      <path id="패스_37880" data-name="패스 37880" d="M27.283,8.943A1.763,1.763,0,1,1,25.52,7.18a1.763,1.763,0,0,1,1.763,1.763" transform="translate(-5.908 -2.333)" fill="#231815"/>
      <path id="패스_37881" data-name="패스 37881" d="M55.472,70.693H41.484a.784.784,0,0,0-.554.23l-9.892,9.892a.785.785,0,0,0-.23.554V95.357a.787.787,0,0,0,.23.554l9.892,9.892a.787.787,0,0,0,.554.23H55.472a.785.785,0,0,0,.554-.23l9.892-9.892a.784.784,0,0,0,.23-.554V81.369a.782.782,0,0,0-.23-.554l-9.892-9.892a.782.782,0,0,0-.554-.23" transform="translate(-7.429 -16.033)" fill="#fff"/>
      <path id="패스_37882" data-name="패스 37882" d="M55.472,70.693H41.484a.784.784,0,0,0-.554.23l-9.892,9.892a.785.785,0,0,0-.23.554V95.357a.787.787,0,0,0,.23.554l9.892,9.892a.787.787,0,0,0,.554.23H55.472a.785.785,0,0,0,.554-.23l9.892-9.892a.784.784,0,0,0,.23-.554V81.369a.782.782,0,0,0-.23-.554l-9.892-9.892A.782.782,0,0,0,55.472,70.693Z" transform="translate(-7.429 -16.033)" fill="none" stroke="#da2128" stroke-miterlimit="10" stroke-width="2"/>
      <path id="패스_37883" data-name="패스 37883" d="M59.465,84.883l-2.551-2.551a.521.521,0,0,0-.736,0l-4.852,4.852a.521.521,0,0,1-.737,0l-4.852-4.852a.521.521,0,0,0-.736,0l-2.551,2.551a.521.521,0,0,0,0,.736L47.3,90.473a.52.52,0,0,1,0,.736l-4.852,4.852a.521.521,0,0,0,0,.736L45,99.35a.52.52,0,0,0,.736,0L50.587,94.5a.521.521,0,0,1,.737,0l4.852,4.852a.52.52,0,0,0,.736,0L59.465,96.8a.521.521,0,0,0,0-.736L54.612,91.21a.52.52,0,0,1,0-.736l4.852-4.853a.521.521,0,0,0,0-.736" transform="translate(-9.907 -18.511)" fill="#fff"/>
      <g id="패스_37884" data-name="패스 37884" transform="translate(-8.719 -17.323)" fill="none" stroke-miterlimit="10">
        <path d="M57.11,84.513l-2.2-2.2a.45.45,0,0,0-.635,0L50.086,86.5a.449.449,0,0,1-.636,0l-4.187-4.187a.45.45,0,0,0-.635,0l-2.2,2.2a.45.45,0,0,0,0,.635l4.187,4.188a.448.448,0,0,1,0,.635l-4.187,4.187a.45.45,0,0,0,0,.635l2.2,2.2a.448.448,0,0,0,.635,0l4.187-4.187a.449.449,0,0,1,.636,0L54.273,97a.448.448,0,0,0,.635,0l2.2-2.2a.45.45,0,0,0,0-.635l-4.187-4.187a.448.448,0,0,1,0-.635l4.187-4.188A.45.45,0,0,0,57.11,84.513Z" stroke="none"/>
        <path d="M 44.94540023803711 82.17974090576172 C 44.83035278320312 82.17974090576172 44.71530532836914 82.22356414794922 44.62767028808594 82.31120300292969 L 42.42621231079102 84.51268768310547 C 42.25093078613281 84.68795776367188 42.25093078613281 84.97285461425781 42.42621231079102 85.14813232421875 L 46.61323165893555 89.33584594726562 C 46.78919982910156 89.51110076904297 46.78919982910156 89.79533386230469 46.61323165893555 89.97128295898438 L 42.42621231079102 94.1583251953125 C 42.25093078613281 94.3336181640625 42.25093078613281 94.61851501464844 42.42621231079102 94.79379272460938 L 44.62767028808594 96.99525451660156 C 44.80294036865234 97.17120361328125 45.08786010742188 97.17120361328125 45.26313018798828 96.99525451660156 L 49.45016098022461 92.80821228027344 C 49.6261100769043 92.63227844238281 49.91035079956055 92.63227844238281 50.08629989624023 92.80821228027344 L 54.27333068847656 96.99525451660156 C 54.4486083984375 97.17120361328125 54.73351669311523 97.17120361328125 54.9088020324707 96.99525451660156 L 57.11024856567383 94.79379272460938 C 57.28553009033203 94.61851501464844 57.28553009033203 94.3336181640625 57.11024856567383 94.1583251953125 L 52.92322158813477 89.97128295898438 C 52.74726867675781 89.79533386230469 52.74726867675781 89.51110076904297 52.92322158813477 89.33584594726562 L 57.11024856567383 85.14813232421875 C 57.28553009033203 84.97285461425781 57.28553009033203 84.68795776367188 57.11024856567383 84.51268768310547 L 54.9088020324707 82.31120300292969 C 54.73351669311523 82.13592529296875 54.4486083984375 82.13592529296875 54.27333068847656 82.31120300292969 L 50.08629989624023 86.49824523925781 C 49.91035079956055 86.6741943359375 49.6261100769043 86.6741943359375 49.45016098022461 86.49824523925781 L 45.26313018798828 82.31120300292969 C 45.17549514770508 82.22356414794922 45.06044769287109 82.17974090576172 44.94540023803711 82.17974090576172 M 44.94540023803711 80.17974090576172 C 45.59973907470703 80.17974090576172 46.21482086181641 80.43446350097656 46.67734146118164 80.89699554443359 L 49.76823425292969 83.98788452148438 L 52.85911178588867 80.89699554443359 C 53.32164001464844 80.43446350097656 53.93672180175781 80.17974090576172 54.59106063842773 80.17974090576172 C 55.24539947509766 80.17974090576172 55.86048889160156 80.43446350097656 56.3230094909668 80.89699554443359 L 58.52447128295898 83.09848785400391 C 58.98696899414062 83.56095123291016 59.2417106628418 84.17604064941406 59.2417106628418 84.83040618896484 C 59.2417106628418 85.4847412109375 58.98699188232422 86.09982299804688 58.52445983886719 86.56234741210938 L 55.43383407592773 89.65348052978516 L 58.52447128295898 92.74411773681641 C 59.47945022583008 93.69915771484375 59.47943878173828 95.25303649902344 58.52445983886719 96.2080078125 L 56.32302093505859 98.40946197509766 C 55.86285018920898 98.87136077880859 55.24681854248047 99.12721252441406 54.59106063842773 99.12721252441406 C 53.93531036376953 99.12721252441406 53.31927871704102 98.87136077880859 52.85646057128906 98.40680694580078 L 49.76822662353516 95.31857299804688 L 46.67734909057617 98.40946197509766 C 46.21718215942383 98.87136077880859 45.60115051269531 99.12721252441406 44.94540023803711 99.12721252441406 C 44.28958892822266 99.12721252441406 43.67354202270508 98.87134552001953 43.21072006225586 98.40672302246094 L 41.01200103759766 96.2080078125 C 40.05702209472656 95.25303649902344 40.05701065063477 93.69915771484375 41.01195907592773 92.74415588378906 L 44.10261917114258 89.65347290039062 L 41.01187896728516 86.56223297119141 C 40.54946899414062 86.09982299804688 40.29475021362305 85.4847412109375 40.29475021362305 84.83040618896484 C 40.29475021362305 84.17604064941406 40.54949188232422 83.56095123291016 41.01203918457031 83.09843444824219 L 43.21345138549805 80.89699554443359 C 43.67589950561523 80.43449401855469 44.29101181030273 80.17974090576172 44.94540023803711 80.17974090576172 Z" stroke="none" fill="#da2128"/>
      </g>
      <circle id="타원_677" data-name="타원 677" cx="2.155" cy="2.155" r="2.155" transform="translate(29.265 28.476)"/>
      <circle id="타원_678" data-name="타원 678" cx="2.155" cy="2.155" r="2.155" transform="translate(48.523 28.476)"/>
      <path id="패스_37885" data-name="패스 37885" d="M43.588,57.527a8.829,8.829,0,0,1,15.294,0" transform="translate(-10.186 -12.241)" fill="none" stroke="#231815" stroke-linecap="round" stroke-miterlimit="10" stroke-width="2"/>
    </g>
  </g>
</svg>
