<svg xmlns="http://www.w3.org/2000/svg" width="12" height="12" viewBox="0 0 12 12">
  <g id="icon" transform="translate(1262.082 4928.082)">
    <rect id="Rectangle_19623" data-name="Rectangle 19623" width="12" height="12" transform="translate(-1262.082 -4928.082)" fill="none"/>
    <g id="Group_109539" data-name="Group 109539" transform="translate(-1262 -4925.168)">
      <g id="Group_109540" data-name="Group 109540" transform="translate(0 0)">
        <g id="Path_36431" data-name="Path 36431" transform="translate(-0.499 -0.499)" fill="none" stroke-miterlimit="10">
          <path d="M12.273,3.4A7.609,7.609,0,0,0,9.721,1.288a7.31,7.31,0,0,0-6.607,0A7.608,7.608,0,0,0,.562,3.4a.3.3,0,0,0,0,.363A7.606,7.606,0,0,0,3.114,5.882a7.24,7.24,0,0,0,3.3.789,7.24,7.24,0,0,0,3.3-.789,7.606,7.606,0,0,0,2.552-2.115A.3.3,0,0,0,12.273,3.4Z" stroke="none"/>
          <path d="M 6.417598724365234 1.498996257781982 C 5.416708946228027 1.498996257781982 4.457328796386719 1.728116035461426 3.566068649291992 2.180016040802002 C 2.87879753112793 2.528438091278076 2.247791290283203 3.008803844451904 1.716614723205566 3.58494234085083 C 2.247616767883301 4.161019802093506 2.878560066223145 4.641373634338379 3.565948486328125 4.989906311035156 C 4.457398414611816 5.441895961761475 5.416828632354736 5.671075820922852 6.417598724365234 5.671075820922852 C 7.41835880279541 5.671075820922852 8.377788543701172 5.441895961761475 9.269228935241699 4.98991584777832 C 9.956649780273438 4.641366958618164 10.58759117126465 4.161013603210449 11.11857032775879 3.584956169128418 C 10.58737659454346 3.008795738220215 9.956446647644043 2.528514862060547 9.269079208374023 2.179996013641357 C 8.377859115600586 1.728116035461426 7.418478488922119 1.498996257781982 6.417598724365234 1.498996257781982 M 6.417598724365234 0.4989962577819824 C 7.576918601989746 0.4989962577819824 8.688419342041016 0.7643861770629883 9.721298217773438 1.2880859375 C 10.7047290802002 1.786725997924805 11.58727836608887 2.518115997314453 12.27349853515625 3.403136014938354 C 12.35640907287598 3.510116100311279 12.35640907287598 3.659626007080078 12.27349853515625 3.766606092453003 C 11.5874490737915 4.651785850524902 10.70488929748535 5.383175849914551 9.721458435058594 5.881815910339355 C 8.688578605651855 6.405516147613525 7.57706880569458 6.671075820922852 6.417598724365234 6.671075820922852 C 5.258118629455566 6.671075820922852 4.146608352661133 6.405516147613525 3.113728523254395 5.881815910339355 C 2.130309104919434 5.383175849914551 1.247758865356445 4.651785850524902 0.5616884231567383 3.766606092453003 C 0.4787683486938477 3.659626007080078 0.4787683486938477 3.510116100311279 0.5616884231567383 3.403136014938354 C 1.247919082641602 2.518115997314453 2.130309104919434 1.786725997924805 3.113888740539551 1.2880859375 C 4.146768569946289 0.7643861770629883 5.258278846740723 0.4989962577819824 6.417598724365234 0.4989962577819824 Z" stroke="none" fill="#fff"/>
        </g>
        <circle id="Ellipse_263" data-name="Ellipse 263" cx="1.6" cy="1.6" r="1.6" transform="translate(4.318 1.486)" fill="#fff"/>
      </g>
    </g>
  </g>
</svg>
