<svg xmlns="http://www.w3.org/2000/svg" xmlns:xlink="http://www.w3.org/1999/xlink" width="105" height="98" viewBox="0 0 105 98">
  <defs>
    <clipPath id="clip-path">
      <rect id="Rectangle_21702" data-name="Rectangle 21702" width="7.498" height="6.515"/>
    </clipPath>
    <clipPath id="clip-path-2">
      <rect id="Rectangle_21703" data-name="Rectangle 21703" width="5.598" height="3.969"/>
    </clipPath>
    <clipPath id="clip-path-3">
      <rect id="Rectangle_21704" data-name="Rectangle 21704" width="7.106" height="5.481"/>
    </clipPath>
    <clipPath id="clip-path-4">
      <rect id="Rectangle_21705" data-name="Rectangle 21705" width="7.406" height="6.733"/>
    </clipPath>
    <clipPath id="clip-path-5">
      <rect id="Rectangle_21706" data-name="Rectangle 21706" width="7.035" height="7.362"/>
    </clipPath>
    <clipPath id="clip-path-6">
      <rect id="Rectangle_21707" data-name="Rectangle 21707" width="6.004" height="7.298"/>
    </clipPath>
    <clipPath id="clip-path-7">
      <rect id="Rectangle_21708" data-name="Rectangle 21708" width="4.357" height="6.555"/>
    </clipPath>
    <clipPath id="clip-path-8">
      <rect id="Rectangle_21709" data-name="Rectangle 21709" width="4.794" height="6.2"/>
    </clipPath>
    <clipPath id="clip-path-9">
      <rect id="Rectangle_21710" data-name="Rectangle 21710" width="6.698" height="7.448"/>
    </clipPath>
    <clipPath id="clip-path-10">
      <rect id="Rectangle_21711" data-name="Rectangle 21711" width="7.53" height="6.584"/>
    </clipPath>
    <clipPath id="clip-path-11">
      <rect id="Rectangle_21712" data-name="Rectangle 21712" width="5.649" height="4.045"/>
    </clipPath>
    <clipPath id="clip-path-12">
      <rect id="Rectangle_21713" data-name="Rectangle 21713" width="7.073" height="5.403"/>
    </clipPath>
    <clipPath id="clip-path-13">
      <rect id="Rectangle_21714" data-name="Rectangle 21714" width="7.407" height="6.678"/>
    </clipPath>
    <clipPath id="clip-path-14">
      <rect id="Rectangle_21715" data-name="Rectangle 21715" width="7.076" height="7.349"/>
    </clipPath>
    <clipPath id="clip-path-15">
      <rect id="Rectangle_21716" data-name="Rectangle 21716" width="6.079" height="7.32"/>
    </clipPath>
    <clipPath id="clip-path-16">
      <rect id="Rectangle_21717" data-name="Rectangle 21717" width="4.461" height="6.612"/>
    </clipPath>
    <clipPath id="clip-path-17">
      <rect id="Rectangle_21718" data-name="Rectangle 21718" width="4.723" height="6.162"/>
    </clipPath>
    <clipPath id="clip-path-18">
      <rect id="Rectangle_21719" data-name="Rectangle 21719" width="6.647" height="7.448"/>
    </clipPath>
  </defs>
  <g id="img" transform="translate(-13415 71)">
    <rect id="Rectangle_21720" data-name="Rectangle 21720" width="105" height="98" transform="translate(13415 -71)" fill="none"/>
    <g id="Group_115595" data-name="Group 115595" transform="translate(13416.373 -66.824)">
      <g id="Group_115550" data-name="Group 115550" transform="translate(12.961 7.953)">
        <g id="Group_115596" data-name="Group 115596" transform="translate(0 0)">
          <path id="Path_42419" data-name="Path 42419" d="M23.1,41.865l54.014.141V81.515H23.1Z" transform="translate(-19.845 -20.344)" fill="#fec211" stroke="#000" stroke-width="2"/>
          <path id="Path_42403" data-name="Path 42403" d="M50.257,23.39V16.225S41.778,9.5,33.149,13.154A9.226,9.226,0,0,0,35.389,19s-2.63.779-2.388,5.411H50.257Z" transform="translate(-22.724 -11.524)" fill="#fc5d00" stroke="#000" stroke-linecap="round" stroke-linejoin="round" stroke-width="2"/>
          <path id="Path_42409" data-name="Path 42409" d="M67.465,23.39V16.225S75.95,9.5,84.573,13.154A9.219,9.219,0,0,1,82.33,19s2.632.779,2.389,5.411H67.465Z" transform="translate(-32.929 -11.524)" fill="#fc5d00" stroke="#000" stroke-linecap="round" stroke-linejoin="round" stroke-width="2"/>
          <path id="Path_42415" data-name="Path 42415" d="M55.268,24.421a1.564,1.564,0,0,0,1.658,1.451h6.045a1.566,1.566,0,0,0,1.658-1.451V18.108a1.567,1.567,0,0,0-1.658-1.451H56.926a1.566,1.566,0,0,0-1.658,1.451Z" transform="translate(-29.319 -12.882)" fill="#fc5d00" stroke="#000" stroke-linecap="round" stroke-linejoin="round" stroke-width="2"/>
          <rect id="Rectangle_21698" data-name="Rectangle 21698" width="87.905" height="3.878" transform="translate(1.504 61.171)" fill="#cecdcd" stroke="#000" stroke-linecap="round" stroke-linejoin="round" stroke-width="2"/>
          <path id="Path_42422" data-name="Path 42422" d="M99.76,55.7h18.234l7.463,15.835h2.824s2.6,0,2.6,3.45V85.612H99.76Z" transform="translate(-42.487 -24.438)" fill="#7582f0" stroke="#000" stroke-linejoin="round" stroke-width="2"/>
          <path id="Path_42427" data-name="Path 42427" d="M105.087,73.015h18.326l-6.377-12.54H105.087Z" transform="translate(-44.064 -25.852)" fill="#e8eeff" stroke="#000" stroke-linecap="round" stroke-linejoin="round" stroke-width="2"/>
          <path id="Path_42431" data-name="Path 42431" d="M128.939,100.282a8.1,8.1,0,1,1-8.107-8.1h0a8.107,8.107,0,0,1,8.1,8.1" transform="translate(-46.327 -35.236)" fill="#323232"/>
          <path id="Path_42432" data-name="Path 42432" d="M128.939,100.282a8.1,8.1,0,1,1-8.107-8.1h0A8.107,8.107,0,0,1,128.939,100.282Z" transform="translate(-46.327 -35.236)" fill="none" stroke="#141a37" stroke-miterlimit="10" stroke-width="1"/>
          <path id="Path_42433" data-name="Path 42433" d="M111.963,100.056a8.646,8.646,0,1,1,0,.006v-.006m1.083,0a7.562,7.562,0,1,0,7.564-7.56,7.562,7.562,0,0,0-7.564,7.56" transform="translate(-46.099 -35.01)"/>
          <path id="Path_42434" data-name="Path 42434" d="M111.963,100.056a8.646,8.646,0,1,1,0,.006Zm1.083,0a7.562,7.562,0,1,0,7.564-7.56A7.562,7.562,0,0,0,113.046,100.056Z" transform="translate(-46.099 -35.01)" fill="none" stroke="#000" stroke-miterlimit="10" stroke-width="1"/>
          <path id="Path_42435" data-name="Path 42435" d="M118.849,101.951a3.8,3.8,0,1,0,0-.008Z" transform="translate(-48.137 -37.003)" fill="#fff"/>
          <path id="Path_42436" data-name="Path 42436" d="M118.849,101.951a3.8,3.8,0,1,0,0-.008Z" transform="translate(-48.137 -37.003)" fill="none" stroke="#141a37" stroke-miterlimit="10" stroke-width="1"/>
          <path id="Path_42437" data-name="Path 42437" d="M118.08,101.724a4.34,4.34,0,1,1,4.34,4.339,4.34,4.34,0,0,1-4.34-4.339m1.083,0a3.257,3.257,0,1,0,3.257-3.257,3.257,3.257,0,0,0-3.257,3.257" transform="translate(-47.91 -36.776)"/>
          <path id="Path_42438" data-name="Path 42438" d="M118.08,101.724a4.34,4.34,0,1,1,4.34,4.339A4.34,4.34,0,0,1,118.08,101.724Zm1.083,0a3.257,3.257,0,1,0,3.257-3.257A3.257,3.257,0,0,0,119.163,101.724Z" transform="translate(-47.91 -36.776)" fill="none" stroke="#000" stroke-miterlimit="10" stroke-width="1"/>
          <path id="Path_42439" data-name="Path 42439" d="M48.217,100.282a8.1,8.1,0,1,1-8.105-8.1,8.1,8.1,0,0,1,8.105,8.1" transform="translate(-22.435 -35.236)" fill="#323232"/>
          <path id="Path_42440" data-name="Path 42440" d="M48.217,100.282a8.1,8.1,0,1,1-8.105-8.1A8.1,8.1,0,0,1,48.217,100.282Z" transform="translate(-22.435 -35.236)" fill="none" stroke="#141a37" stroke-miterlimit="10" stroke-width="1"/>
          <path id="Path_42441" data-name="Path 42441" d="M31.242,100.056a8.645,8.645,0,1,1,8.644,8.649,8.644,8.644,0,0,1-8.644-8.649v0m1.083,0a7.562,7.562,0,1,0,7.564-7.56,7.562,7.562,0,0,0-7.564,7.56" transform="translate(-22.208 -35.01)"/>
          <path id="Path_42442" data-name="Path 42442" d="M31.242,100.056a8.645,8.645,0,1,1,8.644,8.649,8.644,8.644,0,0,1-8.644-8.649Zm1.083,0a7.562,7.562,0,1,0,7.564-7.56A7.562,7.562,0,0,0,32.325,100.056Z" transform="translate(-22.208 -35.01)" fill="none" stroke="#000" stroke-miterlimit="10" stroke-width="1"/>
          <path id="Path_42443" data-name="Path 42443" d="M38.13,101.95a3.8,3.8,0,1,0,3.8-3.8,3.8,3.8,0,0,0-3.8,3.8Z" transform="translate(-24.247 -37.002)" fill="#fff"/>
          <path id="Path_42444" data-name="Path 42444" d="M38.13,101.95a3.8,3.8,0,1,0,3.8-3.8,3.8,3.8,0,0,0-3.8,3.8Z" transform="translate(-24.247 -37.002)" fill="none" stroke="#141a37" stroke-miterlimit="10" stroke-width="1"/>
          <path id="Path_42445" data-name="Path 42445" d="M37.361,101.725a4.339,4.339,0,1,1,4.339,4.339,4.339,4.339,0,0,1-4.339-4.339m1.083,0A3.256,3.256,0,1,0,41.7,98.468a3.256,3.256,0,0,0-3.255,3.257" transform="translate(-24.019 -36.777)"/>
          <path id="Path_42446" data-name="Path 42446" d="M37.361,101.725a4.339,4.339,0,1,1,4.339,4.339A4.339,4.339,0,0,1,37.361,101.725Zm1.083,0A3.256,3.256,0,1,0,41.7,98.468,3.256,3.256,0,0,0,38.444,101.725Z" transform="translate(-24.019 -36.777)" fill="none" stroke="#000" stroke-miterlimit="10" stroke-width="1"/>
          <path id="Path_42447" data-name="Path 42447" d="M106.853,83.372a.733.733,0,0,0,.732.732h3.321a.732.732,0,0,0,.05-1.464h-3.369a.733.733,0,0,0-.732.732" transform="translate(-45.799 -32.413)" fill="#cecdcd" stroke="#000" stroke-width="2"/>
          <rect id="Rectangle_21697" data-name="Rectangle 21697" width="57.523" height="9.885" transform="translate(1.504 11.636)" fill="#fec211" stroke="#000" stroke-linecap="round" stroke-linejoin="round" stroke-width="2"/>
        </g>
      </g>
      <g id="Group_115552" data-name="Group 115552" transform="translate(0.885 65.653)">
        <g id="Group_115597" data-name="Group 115597" transform="translate(0 0)">
          <path id="Path_42453" data-name="Path 42453" d="M13.378,97.257H11.04a2.887,2.887,0,0,0-2.685-4,2.926,2.926,0,0,0-2.934,2.723,2.931,2.931,0,1,0,0,5.319,2.925,2.925,0,0,0,5.843-.218,2.868,2.868,0,0,0-.224-1.062h2.337Z" transform="translate(-2.258 -93.254)" fill="#fff" stroke="#000" stroke-linecap="round" stroke-linejoin="round" stroke-width="2"/>
        </g>
      </g>
      <g id="Group_115554" data-name="Group 115554" transform="translate(33.228 40.246)">
        <g id="Group_115598" data-name="Group 115598" transform="translate(0 0)">
          <path id="Path_42455" data-name="Path 42455" d="M59.974,65.112c0,4.388,2.406,7.946,5.374,7.946s5.374-3.557,5.374-7.946-2.406-7.946-5.374-7.946-5.374,3.557-5.374,7.946" transform="translate(-50.979 -57.166)" fill="#fff"/>
          <ellipse id="Ellipse_738" data-name="Ellipse 738" cx="5.374" cy="7.946" rx="5.374" ry="7.946" transform="translate(8.995 0)" fill="none" stroke="#000" stroke-linecap="round" stroke-width="1.5"/>
          <path id="Path_42456" data-name="Path 42456" d="M63.382,65.712l3.263,1.873c-.431,2.746-1.76,4.642-3.263,4.642-1.869,0-3.407-2.941-3.407-6.516s1.538-6.516,3.407-6.516c1.528,0,2.877,1.965,3.284,4.781Z" transform="translate(-50.979 -57.767)"/>
          <path id="Path_42457" data-name="Path 42457" d="M63.382,65.712l3.263,1.873c-.431,2.746-1.76,4.642-3.263,4.642-1.869,0-3.407-2.941-3.407-6.516s1.538-6.516,3.407-6.516c1.528,0,2.877,1.965,3.284,4.781Z" transform="translate(-50.979 -57.767)" fill="none" stroke="#000" stroke-linecap="round" stroke-linejoin="round" stroke-width="1"/>
          <path id="Path_42458" data-name="Path 42458" d="M47.2,65.112c0,4.388,2.406,7.946,5.374,7.946s5.374-3.557,5.374-7.946-2.406-7.946-5.373-7.946S47.2,60.723,47.2,65.112" transform="translate(-47.197 -57.166)" fill="#fff"/>
          <path id="Path_42459" data-name="Path 42459" d="M47.2,65.112c0,4.388,2.406,7.946,5.374,7.946s5.374-3.557,5.374-7.946-2.406-7.946-5.373-7.946S47.2,60.723,47.2,65.112Z" transform="translate(-47.197 -57.166)" fill="none" stroke="#000" stroke-linecap="round" stroke-linejoin="round" stroke-width="1.5"/>
          <path id="Path_42460" data-name="Path 42460" d="M50.605,65.712l3.262,1.874c-.431,2.746-1.76,4.642-3.263,4.642-1.869,0-3.407-2.941-3.407-6.516S48.735,59.2,50.6,59.2c1.528,0,2.877,1.965,3.284,4.781Z" transform="translate(-47.197 -57.767)"/>
          <path id="Path_42461" data-name="Path 42461" d="M50.605,65.712l3.262,1.874c-.431,2.746-1.76,4.642-3.263,4.642-1.869,0-3.407-2.941-3.407-6.516S48.735,59.2,50.6,59.2c1.528,0,2.877,1.965,3.284,4.781Z" transform="translate(-47.197 -57.767)" fill="none" stroke="#000" stroke-linecap="round" stroke-linejoin="round" stroke-width="1"/>
          <path id="Path_42462" data-name="Path 42462" d="M57.286,77.8a2.825,2.825,0,1,0,2.768-2.259A2.553,2.553,0,0,0,57.286,77.8" transform="translate(-50.183 -62.605)" fill="#d36a83"/>
          <path id="Path_42463" data-name="Path 42463" d="M60.056,75.365a2.305,2.305,0,1,0,2.768,2.259A2.553,2.553,0,0,0,60.056,75.365Z" transform="translate(-50.184 -62.552)" fill="none" stroke="#000" stroke-linecap="round" stroke-width="1.5"/>
        </g>
      </g>
      <g id="Group_115556" data-name="Group 115556" transform="translate(52.845 40.557)">
        <g id="Group_115555" data-name="Group 115555" clip-path="url(#clip-path)">
          <path id="Path_42464" data-name="Path 42464" d="M79.842,61.923l-.565-1.473-1.262.484a.6.6,0,0,1-.23.045.442.442,0,0,1-.186-.042.448.448,0,0,1-.142-.112.551.551,0,0,1-.092-.155.53.53,0,0,1-.007-.365.471.471,0,0,1,.308-.281L80.7,58.86a.465.465,0,0,1,.412,0,.532.532,0,0,1,.239.277.522.522,0,0,1,.035.177.443.443,0,0,1-.032.178.43.43,0,0,1-.109.156.59.59,0,0,1-.2.118l-1.115.428.564,1.473,1.115-.428a.47.47,0,0,1,.413,0,.518.518,0,0,1,.234.272.524.524,0,0,1,0,.36.467.467,0,0,1-.3.279l-3.036,1.163a.477.477,0,0,1-.418,0,.522.522,0,0,1-.236-.272.507.507,0,0,1-.006-.36.485.485,0,0,1,.311-.277Z" transform="translate(-75.732 -57.965)"/>
          <path id="Path_42465" data-name="Path 42465" d="M78.584,62.405a.48.48,0,0,0-.31.276.5.5,0,0,0,0,.359.527.527,0,0,0,.237.272.473.473,0,0,0,.417,0l3.031-1.162a.461.461,0,0,0,.3-.282.518.518,0,0,0-.006-.361.511.511,0,0,0-.234-.271.47.47,0,0,0-.412,0l-1.115.428-.563-1.474,1.115-.428a.58.58,0,0,0,.2-.117.428.428,0,0,0,.141-.334.506.506,0,0,0-.034-.177.53.53,0,0,0-.238-.277.469.469,0,0,0-.413,0l-3.035,1.168a.472.472,0,0,0-.308.282.534.534,0,0,0,.006.365.559.559,0,0,0,.093.155.469.469,0,0,0,.141.111.436.436,0,0,0,.186.044.607.607,0,0,0,.229-.046l1.263-.484.563,1.474Z" transform="translate(-75.733 -57.963)"/>
          <path id="Path_42466" data-name="Path 42466" d="M78.688,63.412a.565.565,0,0,1-.25-.058.619.619,0,0,1-.279-.32.59.59,0,0,1,0-.421.568.568,0,0,1,.364-.329l1.173-.45-.5-1.309-1.18.453a.6.6,0,0,1-.485,0,.521.521,0,0,1-.169-.134.631.631,0,0,1-.108-.179.618.618,0,0,1-.008-.427.557.557,0,0,1,.365-.337l3.029-1.166a.549.549,0,0,1,.484.008.623.623,0,0,1,.321.53.514.514,0,0,1-.17.4.668.668,0,0,1-.227.135l-1.031.4.5,1.309,1.033-.4a.547.547,0,0,1,.482,0,.6.6,0,0,1,.277.32.61.61,0,0,1,.006.421.554.554,0,0,1-.362.337l-3.024,1.16a.548.548,0,0,1-.238.054m.6-3.114.626,1.638-1.347.517a.392.392,0,0,0-.254.225.412.412,0,0,0,.006.293.434.434,0,0,0,.2.227.385.385,0,0,0,.336,0l3.038-1.164a.382.382,0,0,0,.253-.23.439.439,0,0,0-.2-.524.374.374,0,0,0-.331,0l-1.2.463L79.785,60.1l1.2-.46a.5.5,0,0,0,.17-.1.339.339,0,0,0,.112-.265.461.461,0,0,0-.029-.149.446.446,0,0,0-.2-.231.38.38,0,0,0-.332,0l-3.041,1.171a.39.39,0,0,0-.258.232.446.446,0,0,0,.006.3.483.483,0,0,0,.077.129.364.364,0,0,0,.115.09.414.414,0,0,0,.341-.006Z" transform="translate(-75.696 -57.925)"/>
        </g>
      </g>
      <g id="Group_115558" data-name="Group 115558" transform="translate(54.573 46.414)">
        <g id="Group_115557" data-name="Group 115557" clip-path="url(#clip-path-2)">
          <path id="Path_42467" data-name="Path 42467" d="M79.247,68.142a2.736,2.736,0,0,1,.049-.6,1.317,1.317,0,0,1,.192-.478.983.983,0,0,1,.356-.321,1.237,1.237,0,0,1,.539-.13c.237-.011.472-.02.706-.025s.477-.007.723-.006a1.18,1.18,0,0,1,.539.11,1,1,0,0,1,.37.307,1.3,1.3,0,0,1,.212.469,2.663,2.663,0,0,1,.075.592,2.344,2.344,0,0,1-.054.579,1.37,1.37,0,0,1-.2.47,1.044,1.044,0,0,1-.352.329,1.214,1.214,0,0,1-.527.147c-.236.015-.477.024-.724.028s-.482,0-.7,0a1.151,1.151,0,0,1-.536-.111,1.013,1.013,0,0,1-.369-.313,1.415,1.415,0,0,1-.218-.468,2.477,2.477,0,0,1-.079-.58m2.613.623a.515.515,0,0,0,.417-.2.809.809,0,0,0,.125-.491.786.786,0,0,0-.149-.493.531.531,0,0,0-.428-.175q-.714,0-1.424.031a.523.523,0,0,0-.42.194.8.8,0,0,0-.123.5.754.754,0,0,0,.151.477.559.559,0,0,0,.427.191q.35.017.7,0c.233-.01.475-.02.724-.033" transform="translate(-78.028 -66.12)"/>
          <path id="Path_42468" data-name="Path 42468" d="M81.137,68.8c-.234.01-.468.01-.7,0a.557.557,0,0,1-.422-.19.755.755,0,0,1-.151-.477.812.812,0,0,1,.122-.5.527.527,0,0,1,.422-.194q.709-.03,1.424-.031a.531.531,0,0,1,.427.175.782.782,0,0,1,.149.493.8.8,0,0,1-.125.493.514.514,0,0,1-.417.2Zm-1.809-.076a1.425,1.425,0,0,0,.218.469,1.012,1.012,0,0,0,.369.312,1.162,1.162,0,0,0,.536.112h.7c.246,0,.488-.013.724-.028a1.2,1.2,0,0,0,.527-.147,1.056,1.056,0,0,0,.352-.329,1.4,1.4,0,0,0,.2-.47,2.374,2.374,0,0,0,.054-.577,2.711,2.711,0,0,0-.075-.593A1.308,1.308,0,0,0,82.723,67a1,1,0,0,0-.37-.308,1.2,1.2,0,0,0-.539-.108c-.246,0-.488,0-.722.006s-.47.014-.7.025a1.227,1.227,0,0,0-.539.13.976.976,0,0,0-.356.322,1.3,1.3,0,0,0-.191.477,2.687,2.687,0,0,0-.049.6,2.418,2.418,0,0,0,.076.577" transform="translate(-78.03 -66.121)"/>
          <path id="Path_42469" data-name="Path 42469" d="M80.378,69.667a1.266,1.266,0,0,1-.538-.121,1.11,1.11,0,0,1-.4-.34,1.492,1.492,0,0,1-.232-.5,2.483,2.483,0,0,1-.079-.6,2.837,2.837,0,0,1,.05-.618,1.383,1.383,0,0,1,.2-.508,1.054,1.054,0,0,1,.387-.351,1.34,1.34,0,0,1,.58-.142c.231-.011.467-.019.7-.025s.5-.008.766-.007a1.292,1.292,0,0,1,.534.118,1.115,1.115,0,0,1,.4.336,1.393,1.393,0,0,1,.226.5,2.854,2.854,0,0,1,.077.612,2.428,2.428,0,0,1-.056.6,1.444,1.444,0,0,1-.209.5,1.139,1.139,0,0,1-.382.358,1.311,1.311,0,0,1-.566.158c-.244.015-.484.028-.728.028h-.741m-1-1a1.315,1.315,0,0,0,.2.44.945.945,0,0,0,.336.285,1.036,1.036,0,0,0,.495.1h.707c.239,0,.476-.013.718-.028a1.131,1.131,0,0,0,.489-.136.967.967,0,0,0,.321-.3,1.272,1.272,0,0,0,.184-.44,2.254,2.254,0,0,0,.052-.555,2.691,2.691,0,0,0-.072-.575,1.22,1.22,0,0,0-.2-.438.949.949,0,0,0-.337-.28,1.035,1.035,0,0,0-.5-.1c-.249,0-.489,0-.723.006s-.469.014-.7.025a1.171,1.171,0,0,0-.5.121.881.881,0,0,0-.321.292,1.212,1.212,0,0,0-.179.444,2.645,2.645,0,0,0-.047.582,2.341,2.341,0,0,0,.073.557m1.372.194c-.118,0-.236,0-.352-.007h0a.64.64,0,0,1-.481-.22.846.846,0,0,1-.172-.538.886.886,0,0,1,.135-.543.648.648,0,0,1,.5-.236c.465-.019.946-.03,1.422-.031a.611.611,0,0,1,.493.2.885.885,0,0,1,.172.555.864.864,0,0,1-.139.537.609.609,0,0,1-.484.242h-.008l-.725.028c-.118,0-.237.007-.355.007m-.349-.183c.232.009.464.01.7,0l.73-.028a.422.422,0,0,0,.35-.168.7.7,0,0,0,.108-.433.7.7,0,0,0-.133-.448.442.442,0,0,0-.35-.139c-.479,0-.957.012-1.426.031h-.011a.44.44,0,0,0-.346.162.721.721,0,0,0-.1.436.68.68,0,0,0,.132.432.468.468,0,0,0,.35.156Z" transform="translate(-77.993 -66.084)"/>
        </g>
      </g>
      <g id="Group_115560" data-name="Group 115560" transform="translate(53.459 50.147)">
        <g id="Group_115559" data-name="Group 115559" clip-path="url(#clip-path-3)">
          <path id="Path_42470" data-name="Path 42470" d="M82.371,73.729a.437.437,0,0,1,.191-.292.347.347,0,0,1,.261-.025.379.379,0,0,1,.111.051.276.276,0,0,1,.085.094.355.355,0,0,1,.04.146.593.593,0,0,1-.027.211l-.766,2.734a.438.438,0,0,1-.19.292.358.358,0,0,1-.268.024.379.379,0,0,1-.111-.051.247.247,0,0,1-.081-.093.371.371,0,0,1-.039-.145.613.613,0,0,1,.027-.212l.25-.89-3.032-.85a.4.4,0,0,1-.276-.236.454.454,0,0,1-.034-.17.654.654,0,0,1,.1-.346.493.493,0,0,1,.119-.131.392.392,0,0,1,.16-.072.415.415,0,0,1,.2.011l3.032.85Z" transform="translate(-76.697 -71.871)"/>
          <path id="Path_42471" data-name="Path 42471" d="M82.122,74.629l-3.032-.85a.431.431,0,0,0-.2-.012.393.393,0,0,0-.16.07.5.5,0,0,0-.119.13.641.641,0,0,0-.07.17.632.632,0,0,0-.024.178.458.458,0,0,0,.035.17.4.4,0,0,0,.1.141.41.41,0,0,0,.176.094l3.032.85-.251.892a.612.612,0,0,0-.027.211.377.377,0,0,0,.039.146.24.24,0,0,0,.081.093.384.384,0,0,0,.379.027.435.435,0,0,0,.191-.291l.767-2.734a.6.6,0,0,0,.026-.211.352.352,0,0,0-.04-.146.261.261,0,0,0-.085-.094.363.363,0,0,0-.111-.051.344.344,0,0,0-.261.026.433.433,0,0,0-.191.291Z" transform="translate(-76.699 -71.871)"/>
          <path id="Path_42472" data-name="Path 42472" d="M81.875,77.028a.463.463,0,0,1-.259-.079.329.329,0,0,1-.111-.128.45.45,0,0,1-.047-.179.669.669,0,0,1,.031-.242l.226-.8-2.948-.827a.5.5,0,0,1-.21-.112.477.477,0,0,1-.123-.172.551.551,0,0,1-.042-.2.709.709,0,0,1,.027-.2.721.721,0,0,1,.08-.191.589.589,0,0,1,.141-.154.484.484,0,0,1,.2-.087.519.519,0,0,1,.241.013l2.946.827.231-.815a.509.509,0,0,1,.227-.341.435.435,0,0,1,.334-.037.451.451,0,0,1,.136.063.362.362,0,0,1,.113.125.441.441,0,0,1,.051.183.672.672,0,0,1-.03.242l-.766,2.732a.519.519,0,0,1-.227.341.492.492,0,0,1-.218.051m-2.948-3.216a.4.4,0,0,0-.058,0,.325.325,0,0,0-.122.055.434.434,0,0,0-.1.106.582.582,0,0,0-.059.144.553.553,0,0,0-.021.156.382.382,0,0,0,.029.138.306.306,0,0,0,.077.109.323.323,0,0,0,.138.073l3.12.874-.275.977a.543.543,0,0,0-.023.183.277.277,0,0,0,.029.111.154.154,0,0,0,.052.06.29.29,0,0,0,.291.02.343.343,0,0,0,.142-.226l.769-2.744a.521.521,0,0,0,.023-.182.259.259,0,0,0-.03-.11.163.163,0,0,0-.056-.062.308.308,0,0,0-.086-.04.26.26,0,0,0-.2.019.342.342,0,0,0-.145.229l-.281.994-.084-.025-3.032-.85a.394.394,0,0,0-.1-.015" transform="translate(-76.662 -71.834)"/>
        </g>
      </g>
      <g id="Group_115562" data-name="Group 115562" transform="translate(51.488 53.518)">
        <g id="Group_115561" data-name="Group 115561" clip-path="url(#clip-path-4)">
          <path id="Path_42473" data-name="Path 42473" d="M80.015,80.089a.432.432,0,0,1,.27-.22.34.34,0,0,1,.256.054.375.375,0,0,1,.091.082.271.271,0,0,1,.052.115.35.35,0,0,1-.006.151.583.583,0,0,1-.09.194l-1.558,2.373a.441.441,0,0,1-.27.221A.361.361,0,0,1,78.5,83a.386.386,0,0,1-.09-.082.25.25,0,0,1-.05-.114.4.4,0,0,1,.007-.15.623.623,0,0,1,.091-.193l.507-.773-2.632-1.728a.423.423,0,0,1-.139-.142.4.4,0,0,1-.052-.166.46.46,0,0,1,.018-.173.653.653,0,0,1,.2-.3.47.47,0,0,1,.153-.088.393.393,0,0,1,.175-.02.431.431,0,0,1,.185.071L79.5,80.87Z" transform="translate(-74.023 -76.92)"/>
          <path id="Path_42474" data-name="Path 42474" d="M79.5,80.871,76.87,79.142a.425.425,0,0,0-.187-.07.4.4,0,0,0-.174.02.478.478,0,0,0-.153.089.682.682,0,0,0-.121.141.632.632,0,0,0-.077.162.465.465,0,0,0-.018.173.4.4,0,0,0,.052.166.421.421,0,0,0,.141.141l2.632,1.729-.507.774a.6.6,0,0,0-.09.194.385.385,0,0,0-.008.15.25.25,0,0,0,.05.113.347.347,0,0,0,.09.082.352.352,0,0,0,.263.058.433.433,0,0,0,.27-.22l1.558-2.373a.6.6,0,0,0,.091-.194.366.366,0,0,0,0-.151.264.264,0,0,0-.052-.116.4.4,0,0,0-.09-.082.348.348,0,0,0-.258-.054.433.433,0,0,0-.27.22Z" transform="translate(-74.023 -76.921)"/>
          <path id="Path_42475" data-name="Path 42475" d="M78.662,83.121a.428.428,0,0,1-.25-.079.434.434,0,0,1-.109-.1.339.339,0,0,1-.067-.153.473.473,0,0,1,.009-.186.665.665,0,0,1,.1-.223l.457-.7L76.248,80a.515.515,0,0,1-.168-.168.5.5,0,0,1-.065-.2.55.55,0,0,1,.023-.206.735.735,0,0,1,.087-.185.76.76,0,0,1,.137-.159.591.591,0,0,1,.182-.1.461.461,0,0,1,.212-.025.521.521,0,0,1,.227.084l2.557,1.68.465-.7a.517.517,0,0,1,.32-.257.435.435,0,0,1,.33.066.481.481,0,0,1,.111.1.351.351,0,0,1,.07.156.45.45,0,0,1,0,.187.716.716,0,0,1-.1.224l-1.557,2.371a.516.516,0,0,1-.32.256.456.456,0,0,1-.087.008m-2.057-4a.3.3,0,0,0-.1.018.4.4,0,0,0-.126.073.544.544,0,0,0-.1.121.512.512,0,0,0-.066.14.359.359,0,0,0-.015.139.307.307,0,0,0,.041.13.339.339,0,0,0,.11.109L79.05,81.63l-.555.849a.513.513,0,0,0-.079.168.3.3,0,0,0-.006.115.171.171,0,0,0,.032.073.271.271,0,0,0,.068.062.264.264,0,0,0,.2.046.344.344,0,0,0,.208-.174l1.563-2.38a.516.516,0,0,0,.079-.168.281.281,0,0,0,0-.114.167.167,0,0,0-.034-.076.316.316,0,0,0-.07-.064.266.266,0,0,0-.194-.041.345.345,0,0,0-.207.174l-.567.857-2.7-1.776a.346.346,0,0,0-.149-.056h-.031" transform="translate(-73.986 -76.883)"/>
        </g>
      </g>
      <g id="Group_115564" data-name="Group 115564" transform="translate(48.728 56.472)">
        <g id="Group_115563" data-name="Group 115563" clip-path="url(#clip-path-5)">
          <path id="Path_42476" data-name="Path 42476" d="M73.62,84.232,72.775,83.2a.407.407,0,0,1-.088-.18.435.435,0,0,1,0-.176.447.447,0,0,1,.067-.157.6.6,0,0,1,.115-.126.613.613,0,0,1,.149-.089.487.487,0,0,1,.173-.039.421.421,0,0,1,.175.032.4.4,0,0,1,.158.122l2.224,2.72a.3.3,0,0,1,.082.246.358.358,0,0,1-.137.212l-.976.8a3.238,3.238,0,0,1-.517.351,1.474,1.474,0,0,1-.528.177,1.04,1.04,0,0,1-.512-.062,1.155,1.155,0,0,1-.474-.37,1.275,1.275,0,0,1-.218-.373,1.12,1.12,0,0,1-.07-.379,1.284,1.284,0,0,1,.053-.372,1.314,1.314,0,0,1,.154-.336l-1.326-.465A.5.5,0,0,1,71,84.526a.367.367,0,0,1-.018-.343.52.52,0,0,1,.113-.177.454.454,0,0,1,.153-.1.469.469,0,0,1,.169-.03.532.532,0,0,1,.169.029l1.683.609Zm1.144,1.4-.717-.877-.466.382a.92.92,0,0,0-.315.417.483.483,0,0,0,.131.46.491.491,0,0,0,.427.225.92.92,0,0,0,.473-.227Z" transform="translate(-69.728 -80.87)"/>
          <path id="Path_42477" data-name="Path 42477" d="M74.3,86.013a.921.921,0,0,1-.472.227.492.492,0,0,1-.428-.225.483.483,0,0,1-.13-.461.927.927,0,0,1,.314-.417l.467-.382.714.874Zm-1.026-1.5-1.684-.609a.492.492,0,0,0-.169-.028.461.461,0,0,0-.169.028.455.455,0,0,0-.152.1.5.5,0,0,0-.114.177.368.368,0,0,0,.018.342.491.491,0,0,0,.282.211l1.326.465a1.313,1.313,0,0,0-.154.337,1.274,1.274,0,0,0-.053.371,1.129,1.129,0,0,0,.07.379,1.285,1.285,0,0,0,.219.373,1.168,1.168,0,0,0,.473.37,1.044,1.044,0,0,0,.513.061,1.475,1.475,0,0,0,.527-.177,3.324,3.324,0,0,0,.518-.352l.976-.8a.351.351,0,0,0,.135-.211.3.3,0,0,0-.081-.246l-2.229-2.725a.406.406,0,0,0-.159-.125.412.412,0,0,0-.175-.03.487.487,0,0,0-.172.038.572.572,0,0,0-.263.215.468.468,0,0,0-.07.158.432.432,0,0,0,0,.175.392.392,0,0,0,.088.179l.845,1.034Z" transform="translate(-69.729 -80.869)"/>
          <path id="Path_42478" data-name="Path 42478" d="M73.509,87.154a1.131,1.131,0,0,1-.409-.077,1.253,1.253,0,0,1-.512-.4,1.379,1.379,0,0,1-.232-.395,1.232,1.232,0,0,1-.075-.41,1.373,1.373,0,0,1,.056-.4,1.358,1.358,0,0,1,.108-.265l-1.225-.429a.571.571,0,0,1-.327-.248.457.457,0,0,1-.023-.426.551.551,0,0,1,.132-.2.519.519,0,0,1,.182-.118.617.617,0,0,1,.2-.034.667.667,0,0,1,.2.033l1.638.593.239-.2-.789-.967A.483.483,0,0,1,72.565,83a.505.505,0,0,1,0-.211.541.541,0,0,1,.084-.191.685.685,0,0,1,.13-.145.715.715,0,0,1,.172-.1.549.549,0,0,1,.2-.045.474.474,0,0,1,.406.19l2.227,2.722a.381.381,0,0,1,.1.313.443.443,0,0,1-.17.27l-.972.8a3.442,3.442,0,0,1-.532.361,1.564,1.564,0,0,1-.558.187,1.129,1.129,0,0,1-.146.01M71.377,83.93a.374.374,0,0,0-.13.023.361.361,0,0,0-.121.08.394.394,0,0,0-.094.145.286.286,0,0,0,.011.267.4.4,0,0,0,.23.171l1.437.5-.061.093a1.217,1.217,0,0,0-.193.66,1.071,1.071,0,0,0,.064.35,1.2,1.2,0,0,0,.2.347,1.078,1.078,0,0,0,.44.345.954.954,0,0,0,.466.056,1.391,1.391,0,0,0,.5-.167,3.172,3.172,0,0,0,.505-.343l.976-.8a.274.274,0,0,0,.106-.161.212.212,0,0,0-.058-.167L73.423,82.6a.312.312,0,0,0-.125-.1.3.3,0,0,0-.135-.024.381.381,0,0,0-.142.031.5.5,0,0,0-.13.077.493.493,0,0,0-.1.106.368.368,0,0,0-.058.13.338.338,0,0,0,0,.138.313.313,0,0,0,.068.139l.9,1.1-.45.376-1.733-.627a.4.4,0,0,0-.137-.023Zm2.407,2.359a.586.586,0,0,1-.494-.264.56.56,0,0,1-.142-.531,1.007,1.007,0,0,1,.346-.466l.532-.435.824,1.01-.529.439a.993.993,0,0,1-.516.246h-.023M74,84.841l-.4.326a.835.835,0,0,0-.287.379.393.393,0,0,0,.11.367.427.427,0,0,0,.363.2.826.826,0,0,0,.416-.2l0,0,.4-.328Z" transform="translate(-69.692 -80.832)"/>
        </g>
      </g>
      <g id="Group_115566" data-name="Group 115566" transform="translate(45.428 58.747)">
        <g id="Group_115565" data-name="Group 115565" clip-path="url(#clip-path-6)">
          <path id="Path_42479" data-name="Path 42479" d="M68.65,85.508a.487.487,0,0,1,.2.02.352.352,0,0,1,.139.083.4.4,0,0,1,.083.125.431.431,0,0,1,.03.139l.134,3.662a.5.5,0,0,1-.075.263.589.589,0,0,1-.315.237.6.6,0,0,1-.394.044.493.493,0,0,1-.237-.139L65.8,87.169a.366.366,0,0,1-.111-.3.413.413,0,0,1,.174-.25A.479.479,0,0,1,66.2,86.5a.4.4,0,0,1,.275.152l.524.622,1.268-.5-.043-.843a.358.358,0,0,1,.107-.267.529.529,0,0,1,.32-.157m-.271,3.4-.072-1.42-.843.334Z" transform="translate(-64.869 -84.055)"/>
          <path id="Path_42480" data-name="Path 42480" d="M67.463,87.826l.845-.334.07,1.419Zm.865-2.16a.355.355,0,0,0-.106.266l.043.845-1.267.5-.525-.622a.4.4,0,0,0-.274-.151.48.48,0,0,0-.338.12.418.418,0,0,0-.173.251.368.368,0,0,0,.111.295l2.412,2.77a.5.5,0,0,0,.237.141.6.6,0,0,0,.394-.044.589.589,0,0,0,.315-.237.507.507,0,0,0,.075-.263L69.1,85.879a.438.438,0,0,0-.03-.141.4.4,0,0,0-.083-.125.349.349,0,0,0-.141-.085.507.507,0,0,0-.515.141Z" transform="translate(-64.869 -84.055)"/>
          <path id="Path_42481" data-name="Path 42481" d="M68.545,90.142a.692.692,0,0,1-.156-.018.6.6,0,0,1-.28-.165l-2.414-2.773a.445.445,0,0,1-.133-.36.5.5,0,0,1,.212-.316.549.549,0,0,1,.391-.137.49.49,0,0,1,.339.187l.482.57,1.15-.455-.04-.782a.449.449,0,0,1,.132-.333l.2-.2-.015.07a.587.587,0,0,1,.41-.027.441.441,0,0,1,.178.108.484.484,0,0,1,.1.153.525.525,0,0,1,.037.171l.136,3.661a.6.6,0,0,1-.088.312.684.684,0,0,1-.363.275.651.651,0,0,1-.285.064m-2.406-3.595a.388.388,0,0,0-.258.1.339.339,0,0,0-.146.2.279.279,0,0,0,.087.212l2.418,2.776a.413.413,0,0,0,.193.113.5.5,0,0,0,.334-.038.519.519,0,0,0,.28-.206.421.421,0,0,0,.061-.215l-.136-3.657a.333.333,0,0,0-.024-.112.281.281,0,0,0-.064-.094.249.249,0,0,0-.1-.064.424.424,0,0,0-.425.117l-.031.033a.27.27,0,0,0-.051.167l.046.906-1.384.548-.567-.67a.313.313,0,0,0-.215-.122Zm2.3,2.575-1.162-1.378,1.072-.424Zm-.869-1.3.667.791-.051-1.035Z" transform="translate(-64.832 -84.01)"/>
        </g>
      </g>
      <g id="Group_115568" data-name="Group 115568" transform="translate(42.05 60.084)">
        <g id="Group_115567" data-name="Group 115567" clip-path="url(#clip-path-7)">
          <path id="Path_42482" data-name="Path 42482" d="M60.949,90.363a.493.493,0,0,1,.31.07.316.316,0,0,1,.153.228.475.475,0,0,0,.211.325.78.78,0,0,0,.492.09.6.6,0,0,0,.608-.7q-.017-.433-.05-.834t-.075-.8a.667.667,0,0,0-.211-.47.694.694,0,0,0-.495-.115.736.736,0,0,0-.47.165.6.6,0,0,0-.146.413.316.316,0,0,1-.128.246.5.5,0,0,1-.29.118.389.389,0,0,1-.472-.41.889.889,0,0,1,.077-.441,1.094,1.094,0,0,1,.284-.377,1.578,1.578,0,0,1,.467-.275,2.179,2.179,0,0,1,.625-.136,2.618,2.618,0,0,1,.623.024,1.35,1.35,0,0,1,.518.192,1.145,1.145,0,0,1,.371.387,1.476,1.476,0,0,1,.184.606c.058.572.1,1.125.126,1.657a1.418,1.418,0,0,1-.094.617,1.172,1.172,0,0,1-.313.439,1.473,1.473,0,0,1-.479.274,2.245,2.245,0,0,1-.584.121,2.272,2.272,0,0,1-.638-.037,1.715,1.715,0,0,1-.515-.189,1.091,1.091,0,0,1-.348-.313.8.8,0,0,1-.147-.4.385.385,0,0,1,.406-.465" transform="translate(-59.922 -85.966)"/>
          <path id="Path_42483" data-name="Path 42483" d="M60.544,90.828a.8.8,0,0,0,.146.4,1.085,1.085,0,0,0,.348.312,1.709,1.709,0,0,0,.515.19,2.365,2.365,0,0,0,1.222-.084,1.492,1.492,0,0,0,.479-.274,1.185,1.185,0,0,0,.313-.439,1.446,1.446,0,0,0,.094-.618q-.038-.8-.126-1.656a1.476,1.476,0,0,0-.185-.607,1.133,1.133,0,0,0-.37-.387,1.357,1.357,0,0,0-.517-.193,2.6,2.6,0,0,0-.623-.023,2.161,2.161,0,0,0-.625.134,1.619,1.619,0,0,0-.468.276,1.089,1.089,0,0,0-.282.379.9.9,0,0,0-.077.44.391.391,0,0,0,.362.417.384.384,0,0,0,.11-.008.505.505,0,0,0,.29-.118.313.313,0,0,0,.128-.246.591.591,0,0,1,.147-.413.729.729,0,0,1,.47-.165.7.7,0,0,1,.493.114.671.671,0,0,1,.211.47c.027.269.053.538.075.8s.039.546.05.835a.6.6,0,0,1-.478.695.617.617,0,0,1-.13.009.775.775,0,0,1-.493-.09.477.477,0,0,1-.211-.325.318.318,0,0,0-.152-.228.5.5,0,0,0-.311-.07.386.386,0,0,0-.413.356.369.369,0,0,0,.007.108" transform="translate(-59.923 -85.966)"/>
          <path id="Path_42484" data-name="Path 42484" d="M61.968,91.829a2.457,2.457,0,0,1-.47-.046,1.773,1.773,0,0,1-.541-.2,1.188,1.188,0,0,1-.376-.337.89.89,0,0,1-.162-.444.452.452,0,0,1-.008-.127.469.469,0,0,1,.163-.323.462.462,0,0,1,.344-.114.581.581,0,0,1,.351.084.4.4,0,0,1,.194.291.386.386,0,0,0,.172.264.674.674,0,0,0,.432.077.781.781,0,0,0,.127-.009.5.5,0,0,0,.326-.212.5.5,0,0,0,.081-.38c-.011-.277-.027-.549-.051-.844-.022-.266-.047-.534-.075-.8a.592.592,0,0,0-.184-.415.6.6,0,0,0-.42-.091h0a.657.657,0,0,0-.423.146.5.5,0,0,0-.115.341.4.4,0,0,1-.165.32.58.58,0,0,1-.336.134.446.446,0,0,1-.123.008.478.478,0,0,1-.443-.512.968.968,0,0,1,.084-.47,1.2,1.2,0,0,1,.3-.41,1.727,1.727,0,0,1,.495-.291,2.293,2.293,0,0,1,.651-.139,2.687,2.687,0,0,1,.642.024,1.436,1.436,0,0,1,.551.206,1.233,1.233,0,0,1,.4.417,1.565,1.565,0,0,1,.2.643c.058.569.1,1.128.127,1.659a1.53,1.53,0,0,1-.1.653,1.274,1.274,0,0,1-.337.473,1.572,1.572,0,0,1-.508.291,2.463,2.463,0,0,1-.8.134M60.9,90.413a.3.3,0,0,0-.31.277.292.292,0,0,0,.006.082v.011a.713.713,0,0,0,.13.36,1.013,1.013,0,0,0,.32.287,1.613,1.613,0,0,0,.489.18,2.285,2.285,0,0,0,1.177-.081,1.385,1.385,0,0,0,.451-.257,1.106,1.106,0,0,0,.289-.406,1.35,1.35,0,0,0,.088-.579c-.025-.53-.068-1.086-.126-1.653a1.391,1.391,0,0,0-.174-.572,1.052,1.052,0,0,0-.341-.356,1.264,1.264,0,0,0-.484-.18,2.462,2.462,0,0,0-.6-.022,2.07,2.07,0,0,0-.6.129,1.519,1.519,0,0,0-.442.26,1.017,1.017,0,0,0-.258.347.816.816,0,0,0-.07.4.317.317,0,0,0,.073.233.3.3,0,0,0,.208.1.318.318,0,0,0,.085-.006.431.431,0,0,0,.251-.1.228.228,0,0,0,.1-.181.667.667,0,0,1,.169-.469.817.817,0,0,1,.528-.2h.009a.661.661,0,0,1,.791.671c.027.263.052.532.074.8.024.3.041.573.05.84a.67.67,0,0,1-.111.5.681.681,0,0,1-.439.284.893.893,0,0,1-.148.011.836.836,0,0,1-.534-.1.57.57,0,0,1-.255-.389.229.229,0,0,0-.11-.166.415.415,0,0,0-.258-.059H60.9" transform="translate(-59.886 -85.929)"/>
        </g>
      </g>
      <g id="Group_115570" data-name="Group 115570" transform="translate(37.678 59.816)">
        <g id="Group_115569" data-name="Group 115569" clip-path="url(#clip-path-8)">
          <path id="Path_42485" data-name="Path 42485" d="M57.019,90.654a.357.357,0,0,1-.073.152.352.352,0,0,1-.123.093.391.391,0,0,1-.153.034.562.562,0,0,1-.163-.015.469.469,0,0,1-.256-.157.326.326,0,0,1-.061-.3l.243-1.031-1.612.976a.345.345,0,0,1-.146.049.519.519,0,0,1-.158-.007.452.452,0,0,1-.141-.053.374.374,0,0,1-.107-.094.317.317,0,0,1-.056-.266.32.32,0,0,1,.161-.22l1.463-.866L54.829,87.34A.438.438,0,0,1,54.754,87a.307.307,0,0,1,.194-.231.417.417,0,0,1,.3-.013.442.442,0,0,1,.229.188l1.115,1.8.279-1.183a.33.33,0,0,1,.191-.254.494.494,0,0,1,.3-.021.574.574,0,0,1,.153.059.4.4,0,0,1,.121.1.346.346,0,0,1,.07.138.373.373,0,0,1,0,.173Z" transform="translate(-53.721 -85.487)"/>
          <path id="Path_42486" data-name="Path 42486" d="M57.7,87.752a.363.363,0,0,0,0-.174.336.336,0,0,0-.07-.137.417.417,0,0,0-.121-.1.618.618,0,0,0-.153-.058.5.5,0,0,0-.3.02.328.328,0,0,0-.191.255l-.282,1.183-1.111-1.8a.436.436,0,0,0-.229-.188.411.411,0,0,0-.3.012.307.307,0,0,0-.193.231.439.439,0,0,0,.07.339l1.014,1.605-1.464.866a.333.333,0,0,0-.125.455.35.35,0,0,0,.02.032.357.357,0,0,0,.107.093.462.462,0,0,0,.141.054.474.474,0,0,0,.158.007.374.374,0,0,0,.146-.048l1.612-.978-.243,1.031a.321.321,0,0,0,.061.3.467.467,0,0,0,.256.158.636.636,0,0,0,.163.015.406.406,0,0,0,.153-.035.361.361,0,0,0,.123-.093.351.351,0,0,0,.07-.152Z" transform="translate(-53.72 -85.487)"/>
          <path id="Path_42487" data-name="Path 42487" d="M56.608,90.982a.7.7,0,0,1-.161-.018.562.562,0,0,1-.3-.187.41.41,0,0,1-.077-.384l.194-.821-1.433.869a.458.458,0,0,1-.183.061.515.515,0,0,1-.185-.009.522.522,0,0,1-.168-.064.434.434,0,0,1-.132-.115.413.413,0,0,1-.026-.039.422.422,0,0,1,.157-.577l1.386-.819-.966-1.529a.529.529,0,0,1-.082-.4.4.4,0,0,1,.249-.3.508.508,0,0,1,.362-.013.528.528,0,0,1,.276.226l1,1.616.233-.978a.412.412,0,0,1,.241-.315.591.591,0,0,1,.355-.025.663.663,0,0,1,.174.065.509.509,0,0,1,.148.122.432.432,0,0,1,.088.172.464.464,0,0,1,0,.215l-.689,2.9a.449.449,0,0,1-.087.187.455.455,0,0,1-.154.118.488.488,0,0,1-.188.042h-.025M56.527,89.2l-.291,1.236a.239.239,0,0,0,.042.225.385.385,0,0,0,.208.128.743.743,0,0,0,.141.013.316.316,0,0,0,.12-.027.273.273,0,0,0,.092-.069.27.27,0,0,0,.051-.113l.689-2.9a.28.28,0,0,0,0-.132.242.242,0,0,0-.053-.1.327.327,0,0,0-.1-.08.515.515,0,0,0-.13-.049.4.4,0,0,0-.246.015.24.24,0,0,0-.137.186l-.332,1.4-1.222-1.976a.351.351,0,0,0-.184-.151.323.323,0,0,0-.237.009.222.222,0,0,0-.142.166.359.359,0,0,0,.056.273l1.064,1.685-1.543.912a.247.247,0,0,0-.093.337s.008.014.014.021a.247.247,0,0,0,.08.068.338.338,0,0,0,.115.044.43.43,0,0,0,.13.007.284.284,0,0,0,.113-.037Z" transform="translate(-53.684 -85.45)"/>
        </g>
      </g>
      <g id="Group_115572" data-name="Group 115572" transform="translate(32.251 57.568)">
        <g id="Group_115571" data-name="Group 115571" clip-path="url(#clip-path-9)">
          <path id="Path_42488" data-name="Path 42488" d="M50.264,85.393a1.742,1.742,0,0,0-.286-.142.835.835,0,0,0-.266-.057.493.493,0,0,0-.226.046.408.408,0,0,0-.171.16.451.451,0,0,0-.072.253.684.684,0,0,0,.063.26,1.416,1.416,0,0,0,.156.263c.065.088.133.177.207.265.113.139.227.286.343.438a2.569,2.569,0,0,1,.284.465,1.337,1.337,0,0,1,.125.476.8.8,0,0,1-.13.475.921.921,0,0,1-.432.393,1.2,1.2,0,0,1-.541.085,2,2,0,0,1-.584-.137,3.538,3.538,0,0,1-.558-.275c-.086-.053-.18-.115-.281-.189a3.169,3.169,0,0,1-.284-.23,2.514,2.514,0,0,1-.239-.245.7.7,0,0,1-.139-.231.288.288,0,0,1-.011-.161.443.443,0,0,1,.051-.132.351.351,0,0,1,.168-.144.316.316,0,0,1,.182-.011.52.52,0,0,1,.175.082.572.572,0,0,1,.14.132c.1.111.188.211.277.3a1.737,1.737,0,0,0,.318.247,1.406,1.406,0,0,0,.534.211.335.335,0,0,0,.359-.161.363.363,0,0,0,.056-.23.77.77,0,0,0-.076-.249,1.713,1.713,0,0,0-.169-.264c-.07-.091-.144-.183-.224-.275l-.208-.253a4.447,4.447,0,0,1-.264-.372,1.728,1.728,0,0,1-.186-.4,1.162,1.162,0,0,1-.05-.413.916.916,0,0,1,.142-.421,1.194,1.194,0,0,1,.408-.418,1.1,1.1,0,0,1,.518-.151,1.684,1.684,0,0,1,.595.09,3.052,3.052,0,0,1,.641.3,2.929,2.929,0,0,1,.741.613,1.5,1.5,0,0,1,.32.565.292.292,0,0,1,.016.136.385.385,0,0,1-.035.123.356.356,0,0,1-.113.142.349.349,0,0,1-.147.063.385.385,0,0,1-.153,0,.439.439,0,0,1-.143-.058.553.553,0,0,1-.132-.113.458.458,0,0,1-.087-.144c-.03-.068-.059-.13-.09-.188a1.014,1.014,0,0,0-.113-.172,1.435,1.435,0,0,0-.166-.17,1.685,1.685,0,0,0-.243-.175" transform="translate(-46.225 -82.543)"/>
          <path id="Path_42489" data-name="Path 42489" d="M50.508,85.568a1.356,1.356,0,0,1,.165.171,1.059,1.059,0,0,1,.113.171c.03.058.061.121.089.187a.483.483,0,0,0,.087.145.567.567,0,0,0,.132.114.449.449,0,0,0,.141.058.413.413,0,0,0,.153,0,.346.346,0,0,0,.26-.2.36.36,0,0,0,.036-.123.285.285,0,0,0-.016-.135,1.483,1.483,0,0,0-.32-.563,2.919,2.919,0,0,0-.742-.613,3.022,3.022,0,0,0-.64-.3,1.693,1.693,0,0,0-.595-.091,1.1,1.1,0,0,0-.519.152,1.2,1.2,0,0,0-.408.417.913.913,0,0,0-.141.422,1.129,1.129,0,0,0,.05.414,1.693,1.693,0,0,0,.186.4,4.458,4.458,0,0,0,.264.373l.211.253c.08.092.155.184.225.276a1.573,1.573,0,0,1,.168.265.729.729,0,0,1,.076.248.363.363,0,0,1-.056.23.333.333,0,0,1-.358.16,1.386,1.386,0,0,1-.534-.211,1.72,1.72,0,0,1-.318-.247q-.134-.135-.277-.3A.6.6,0,0,0,47.8,87.1a.538.538,0,0,0-.175-.081.314.314,0,0,0-.182.011.349.349,0,0,0-.168.145.481.481,0,0,0-.051.13.289.289,0,0,0,.011.162.7.7,0,0,0,.141.23,2.63,2.63,0,0,0,.239.246,3.273,3.273,0,0,0,.282.231c.1.07.194.135.282.188a3.412,3.412,0,0,0,.557.275,1.994,1.994,0,0,0,.585.136,1.184,1.184,0,0,0,.541-.085.928.928,0,0,0,.432-.392.8.8,0,0,0,.128-.476,1.285,1.285,0,0,0-.125-.476,2.579,2.579,0,0,0-.282-.465c-.115-.152-.23-.3-.343-.437q-.11-.133-.207-.265a1.365,1.365,0,0,1-.156-.264.689.689,0,0,1-.062-.259.452.452,0,0,1,.07-.253.4.4,0,0,1,.17-.16.49.49,0,0,1,.226-.046.807.807,0,0,1,.267.056,1.915,1.915,0,0,1,.529.318Z" transform="translate(-46.226 -82.544)"/>
          <path id="Path_42490" data-name="Path 42490" d="M49.375,88.83c-.032,0-.065,0-.1,0a2.088,2.088,0,0,1-.611-.142,3.52,3.52,0,0,1-.57-.282c-.083-.051-.172-.112-.27-.179l-.018-.013a3.583,3.583,0,0,1-.289-.237,2.614,2.614,0,0,1-.246-.253.755.755,0,0,1-.156-.257.373.373,0,0,1-.015-.211.567.567,0,0,1,.06-.154.445.445,0,0,1,.211-.183.4.4,0,0,1,.234-.016.634.634,0,0,1,.206.094.677.677,0,0,1,.161.151c.1.111.184.208.269.294a1.6,1.6,0,0,0,.3.233,1.289,1.289,0,0,0,.5.2.25.25,0,0,0,.267-.117.278.278,0,0,0,.044-.178.637.637,0,0,0-.066-.215,1.532,1.532,0,0,0-.16-.251c-.069-.09-.143-.182-.222-.272l-.212-.254a4.538,4.538,0,0,1-.271-.382,1.742,1.742,0,0,1-.2-.418,1.218,1.218,0,0,1-.054-.446,1.02,1.02,0,0,1,.154-.464,1.284,1.284,0,0,1,.436-.444,1.188,1.188,0,0,1,.562-.165,1.777,1.777,0,0,1,.627.1,3.071,3.071,0,0,1,.658.311,2.977,2.977,0,0,1,.762.629,1.561,1.561,0,0,1,.338.6.363.363,0,0,1,.02.171.445.445,0,0,1-.044.152.431.431,0,0,1-.324.251.443.443,0,0,1-.185,0,.552.552,0,0,1-.17-.069.635.635,0,0,1-.152-.132.565.565,0,0,1-.1-.17c-.027-.061-.057-.122-.086-.18a.932.932,0,0,0-.1-.154,1.177,1.177,0,0,0-.118-.127l-.036-.03a1.839,1.839,0,0,0-.5-.3.708.708,0,0,0-.237-.05.469.469,0,0,0-.185.039.307.307,0,0,0-.131.123.363.363,0,0,0-.058.207.6.6,0,0,0,.053.225,1.274,1.274,0,0,0,.147.247q.1.131.2.263c.114.14.23.287.345.44a2.674,2.674,0,0,1,.291.479,1.373,1.373,0,0,1,.132.509.886.886,0,0,1-.142.529,1.018,1.018,0,0,1-.471.424,1.263,1.263,0,0,1-.485.1m-1.859-1.766a.218.218,0,0,0-.079.015.261.261,0,0,0-.124.107.451.451,0,0,0-.041.1.2.2,0,0,0,.008.112.6.6,0,0,0,.123.2,2.429,2.429,0,0,0,.234.24,3.233,3.233,0,0,0,.275.226c.108.074.194.134.275.183a3.184,3.184,0,0,0,.543.268,1.863,1.863,0,0,0,.56.131,1.044,1.044,0,0,0,.5-.078.844.844,0,0,0,.389-.354.723.723,0,0,0,.117-.429,1.208,1.208,0,0,0-.116-.443,2.511,2.511,0,0,0-.272-.448c-.115-.153-.229-.3-.341-.436-.074-.089-.144-.179-.21-.268a1.481,1.481,0,0,1-.165-.28.776.776,0,0,1-.07-.292.544.544,0,0,1,.084-.3.493.493,0,0,1,.2-.191.652.652,0,0,1,.268-.056.9.9,0,0,1,.3.063,2.026,2.026,0,0,1,.351.182l-.008-.032.211.18a1.431,1.431,0,0,1,.176.182,1.061,1.061,0,0,1,.122.184c.031.061.063.126.092.194a.408.408,0,0,0,.073.122.475.475,0,0,0,.113.1.359.359,0,0,0,.114.047.307.307,0,0,0,.119,0,.257.257,0,0,0,.193-.153.266.266,0,0,0,.029-.1.2.2,0,0,0-.011-.1,1.415,1.415,0,0,0-.3-.535,2.812,2.812,0,0,0-.721-.6,2.888,2.888,0,0,0-.624-.295,1.539,1.539,0,0,0-.564-.086,1.015,1.015,0,0,0-.477.139,1.108,1.108,0,0,0-.376.386.839.839,0,0,0-.13.384,1.067,1.067,0,0,0,.046.382,1.612,1.612,0,0,0,.176.377c.08.125.167.249.259.366l.209.251c.08.092.157.186.227.279a1.715,1.715,0,0,1,.177.279.821.821,0,0,1,.084.277.45.45,0,0,1-.069.288.417.417,0,0,1-.451.2,1.45,1.45,0,0,1-.565-.224,1.741,1.741,0,0,1-.332-.258c-.089-.089-.181-.19-.282-.307a.5.5,0,0,0-.122-.116.463.463,0,0,0-.149-.069.235.235,0,0,0-.049-.006" transform="translate(-46.189 -82.508)"/>
        </g>
      </g>
      <g id="Group_115574" data-name="Group 115574" transform="translate(25.971 51.077)">
        <g id="Group_115573" data-name="Group 115573" clip-path="url(#clip-path-10)">
          <path id="Path_42491" data-name="Path 42491" d="M40.677,75.628l.59,1.462,1.253-.506a.61.61,0,0,1,.228-.049.438.438,0,0,1,.187.04.45.45,0,0,1,.144.108.543.543,0,0,1,.1.153.534.534,0,0,1,.014.365.476.476,0,0,1-.3.287L39.872,78.7a.465.465,0,0,1-.413,0,.537.537,0,0,1-.281-.448.458.458,0,0,1,.028-.179.426.426,0,0,1,.106-.157.584.584,0,0,1,.194-.121l1.107-.446-.59-1.462-1.107.446a.474.474,0,0,1-.413.009.512.512,0,0,1-.238-.268.519.519,0,0,1-.012-.36.463.463,0,0,1,.3-.284l3.013-1.216a.47.47,0,0,1,.417,0,.526.526,0,0,1,.241.267.511.511,0,0,1,.011.36.479.479,0,0,1-.306.28Z" transform="translate(-37.285 -73.029)"/>
          <path id="Path_42492" data-name="Path 42492" d="M41.929,75.122a.486.486,0,0,0,.307-.282.515.515,0,0,0-.012-.36.522.522,0,0,0-.241-.267.472.472,0,0,0-.418,0l-3.014,1.216a.462.462,0,0,0-.3.282.525.525,0,0,0,.011.359.517.517,0,0,0,.239.268.474.474,0,0,0,.413-.008l1.107-.447.59,1.463-1.107.446a.594.594,0,0,0-.194.121.446.446,0,0,0-.106.158.456.456,0,0,0-.028.179.5.5,0,0,0,.038.175.527.527,0,0,0,.243.273.465.465,0,0,0,.412,0l3.014-1.216a.47.47,0,0,0,.3-.289.532.532,0,0,0-.108-.517.462.462,0,0,0-.141-.109.438.438,0,0,0-.187-.04.6.6,0,0,0-.229.05l-1.254.5-.59-1.459Z" transform="translate(-37.285 -73.028)"/>
          <path id="Path_42493" data-name="Path 42493" d="M39.627,78.8a.562.562,0,0,1-.246-.057.613.613,0,0,1-.286-.32.58.58,0,0,1-.044-.2.516.516,0,0,1,.161-.4.692.692,0,0,1,.223-.139l1.025-.413-.525-1.3-1.026.414a.549.549,0,0,1-.482.006.614.614,0,0,1-.3-.734.558.558,0,0,1,.355-.339L41.494,74.1a.555.555,0,0,1,.489,0,.612.612,0,0,1,.284.313.6.6,0,0,1,.014.42.576.576,0,0,1-.36.337l-1.166.472.524,1.3,1.172-.472a.668.668,0,0,1,.26-.056.492.492,0,0,1,.225.048.545.545,0,0,1,.17.132.622.622,0,0,1,.125.6.561.561,0,0,1-.362.346l-3.007,1.213a.535.535,0,0,1-.237.054m.407-3.066.655,1.627-1.189.479a.5.5,0,0,0-.168.1.36.36,0,0,0-.084.125.35.35,0,0,0-.022.143.426.426,0,0,0,.031.146.443.443,0,0,0,.2.228.383.383,0,0,0,.332,0l3.02-1.219a.383.383,0,0,0,.254-.237.444.444,0,0,0-.092-.429.369.369,0,0,0-.114-.089.344.344,0,0,0-.146-.03.516.516,0,0,0-.194.043l-1.338.538-.656-1.621L41.866,75a.4.4,0,0,0,.251-.231.429.429,0,0,0-.012-.293.434.434,0,0,0-.2-.222.388.388,0,0,0-.337,0l-3.021,1.219a.381.381,0,0,0-.248.231.437.437,0,0,0,.208.518.377.377,0,0,0,.331-.008Z" transform="translate(-37.248 -72.991)"/>
        </g>
      </g>
      <g id="Group_115576" data-name="Group 115576" transform="translate(26.053 47.746)">
        <g id="Group_115575" data-name="Group 115575" clip-path="url(#clip-path-11)">
          <path id="Path_42494" data-name="Path 42494" d="M41.68,69.994a2.719,2.719,0,0,1-.041.6,1.321,1.321,0,0,1-.185.481.973.973,0,0,1-.35.326,1.227,1.227,0,0,1-.537.137c-.235.015-.471.027-.706.036s-.476.014-.722.017a1.179,1.179,0,0,1-.541-.1.992.992,0,0,1-.374-.3,1.322,1.322,0,0,1-.219-.466,2.722,2.722,0,0,1-.083-.591,2.424,2.424,0,0,1,.045-.579,1.391,1.391,0,0,1,.191-.472,1.039,1.039,0,0,1,.348-.334,1.191,1.191,0,0,1,.524-.154q.354-.029.724-.039t.7-.013a1.171,1.171,0,0,1,.537.1,1.007,1.007,0,0,1,.373.308,1.431,1.431,0,0,1,.225.465,2.448,2.448,0,0,1,.088.579m-2.62-.586a.515.515,0,0,0-.415.208.8.8,0,0,0-.118.492.782.782,0,0,0,.156.49.528.528,0,0,0,.43.17q.714-.012,1.424-.052a.52.52,0,0,0,.416-.2.8.8,0,0,0,.115-.5.751.751,0,0,0-.158-.475.555.555,0,0,0-.428-.184q-.351-.012-.7.008l-.723.044" transform="translate(-37.277 -68.032)"/>
          <path id="Path_42495" data-name="Path 42495" d="M39.784,69.364c.233-.014.466-.017.7-.008a.55.55,0,0,1,.427.184.756.756,0,0,1,.158.475.8.8,0,0,1-.115.5.522.522,0,0,1-.416.2q-.71.04-1.424.051a.529.529,0,0,1-.43-.169.789.789,0,0,1-.156-.493.809.809,0,0,1,.117-.493.52.52,0,0,1,.415-.211c.25-.009.491-.024.724-.037m1.809.049a1.427,1.427,0,0,0-.224-.465A1.016,1.016,0,0,0,41,68.642a1.14,1.14,0,0,0-.535-.1c-.225,0-.46.006-.7.013s-.488.02-.724.039a1.192,1.192,0,0,0-.524.156,1.049,1.049,0,0,0-.348.332,1.4,1.4,0,0,0-.19.473,2.39,2.39,0,0,0-.046.579,2.734,2.734,0,0,0,.083.59,1.332,1.332,0,0,0,.22.466.992.992,0,0,0,.374.3,1.171,1.171,0,0,0,.541.1c.246,0,.488-.008.722-.016s.471-.02.7-.035A1.215,1.215,0,0,0,41.1,71.4a.966.966,0,0,0,.352-.326,1.319,1.319,0,0,0,.184-.479,2.732,2.732,0,0,0,.04-.6,2.457,2.457,0,0,0-.087-.577" transform="translate(-37.277 -68.031)"/>
          <path id="Path_42496" data-name="Path 42496" d="M39.042,71.641a1.264,1.264,0,0,1-.514-.111,1.1,1.1,0,0,1-.408-.329,1.415,1.415,0,0,1-.234-.5,2.834,2.834,0,0,1-.086-.61,2.49,2.49,0,0,1,.048-.6,1.471,1.471,0,0,1,.2-.5,1.149,1.149,0,0,1,.377-.361,1.294,1.294,0,0,1,.564-.168c.251-.019.5-.032.727-.039.265-.007.517-.013.764-.014a1.225,1.225,0,0,1,.514.113,1.1,1.1,0,0,1,.409.334,1.521,1.521,0,0,1,.238.494,2.552,2.552,0,0,1,.09.6,2.812,2.812,0,0,1-.042.62,1.37,1.37,0,0,1-.2.511,1.059,1.059,0,0,1-.384.356,1.306,1.306,0,0,1-.577.151c-.231.015-.469.027-.7.036s-.478.016-.725.016h-.063m1.437-3.053c-.251,0-.5.007-.757.014-.228.006-.47.019-.72.039a1.118,1.118,0,0,0-.487.144.955.955,0,0,0-.318.3,1.3,1.3,0,0,0-.177.442,2.322,2.322,0,0,0-.044.558,2.652,2.652,0,0,0,.08.572,1.226,1.226,0,0,0,.206.435.911.911,0,0,0,.34.275,1.062,1.062,0,0,0,.5.093c.25,0,.49-.008.723-.016s.469-.02.7-.036a1.135,1.135,0,0,0,.5-.13.888.888,0,0,0,.319-.3,1.2,1.2,0,0,0,.172-.447,2.683,2.683,0,0,0,.039-.582,2.4,2.4,0,0,0-.084-.557,1.319,1.319,0,0,0-.211-.436.931.931,0,0,0-.341-.279,1.061,1.061,0,0,0-.441-.1M39.033,70.82a.614.614,0,0,1-.45-.2.876.876,0,0,1-.179-.555.887.887,0,0,1,.13-.536.609.609,0,0,1,.489-.253c.212-.008.422-.02.624-.032l.1,0c.234-.013.473-.015.708-.008a.625.625,0,0,1,.49.214.845.845,0,0,1,.181.534.89.89,0,0,1-.128.545.63.63,0,0,1-.492.242c-.466.027-.946.044-1.422.052l-.046,0M40.186,69.4c-.146,0-.291,0-.434.013l-.1,0c-.2.011-.413.024-.63.032a.433.433,0,0,0-.347.175.717.717,0,0,0-.1.434.706.706,0,0,0,.138.446.42.42,0,0,0,.353.134c.478-.008.956-.025,1.426-.052a.422.422,0,0,0,.351-.167.719.719,0,0,0,.1-.436.681.681,0,0,0-.141-.429.458.458,0,0,0-.341-.15H40.45c-.088,0-.176,0-.264,0" transform="translate(-37.24 -67.994)"/>
        </g>
      </g>
      <g id="Group_115578" data-name="Group 115578" transform="translate(25.634 42.587)">
        <g id="Group_115577" data-name="Group 115577" clip-path="url(#clip-path-12)">
          <path id="Path_42497" data-name="Path 42497" d="M38.149,64.258a.437.437,0,0,1-.186.295.355.355,0,0,1-.261.03.406.406,0,0,1-.111-.05.262.262,0,0,1-.087-.093.367.367,0,0,1-.044-.145.606.606,0,0,1,.024-.213l.724-2.744a.438.438,0,0,1,.186-.294.374.374,0,0,1,.378.021.234.234,0,0,1,.084.092.349.349,0,0,1,.041.145.589.589,0,0,1-.024.212l-.236.893,3.045.8a.423.423,0,0,1,.177.09.4.4,0,0,1,.1.141.47.47,0,0,1,.037.17.656.656,0,0,1-.021.178.68.68,0,0,1-.071.17.481.481,0,0,1-.117.132.389.389,0,0,1-.159.074.4.4,0,0,1-.2-.008l-3.044-.8Z" transform="translate(-36.72 -60.642)"/>
          <path id="Path_42498" data-name="Path 42498" d="M38.387,63.357l3.045.8a.415.415,0,0,0,.2.008.392.392,0,0,0,.158-.075.467.467,0,0,0,.117-.132.68.68,0,0,0,.07-.17.635.635,0,0,0,.02-.178.443.443,0,0,0-.037-.17.39.39,0,0,0-.1-.141.421.421,0,0,0-.177-.09l-3.044-.8.235-.893a.612.612,0,0,0,.025-.211.394.394,0,0,0-.04-.141.251.251,0,0,0-.084-.092.366.366,0,0,0-.113-.049.352.352,0,0,0-.267.028.437.437,0,0,0-.185.295l-.724,2.746a.6.6,0,0,0-.023.211.353.353,0,0,0,.043.146.265.265,0,0,0,.086.093.388.388,0,0,0,.112.049.348.348,0,0,0,.261-.03.438.438,0,0,0,.186-.295Z" transform="translate(-36.721 -60.644)"/>
          <path id="Path_42499" data-name="Path 42499" d="M37.757,64.656a.406.406,0,0,1-.116-.016.512.512,0,0,1-.136-.06.351.351,0,0,1-.115-.124.434.434,0,0,1-.054-.183.684.684,0,0,1,.027-.242l.722-2.744a.522.522,0,0,1,.221-.345.45.45,0,0,1,.341-.04.427.427,0,0,1,.136.061.331.331,0,0,1,.114.125.5.5,0,0,1,.049.173.715.715,0,0,1-.027.244l-.212.8,2.958.781a.5.5,0,0,1,.213.108.479.479,0,0,1,.125.172.54.54,0,0,1,.044.2.71.71,0,0,1-.023.2.763.763,0,0,1-.08.194.56.56,0,0,1-.139.157.479.479,0,0,1-.194.091.511.511,0,0,1-.242-.009l-2.958-.781-.215.824a.522.522,0,0,1-.221.346.45.45,0,0,1-.219.058m.766-3.595a.261.261,0,0,0-.125.032.344.344,0,0,0-.14.23l-.725,2.756a.5.5,0,0,0-.021.182.269.269,0,0,0,.032.109.189.189,0,0,0,.058.063.333.333,0,0,0,.087.038.278.278,0,0,0,.2-.023.35.35,0,0,0,.141-.232l.263-1,.085.022,3.044.8a.311.311,0,0,0,.161.007.29.29,0,0,0,.121-.057.425.425,0,0,0,.1-.108.614.614,0,0,0,.06-.148.533.533,0,0,0,.018-.153.351.351,0,0,0-.03-.138.306.306,0,0,0-.079-.108.329.329,0,0,0-.139-.071l-3.132-.827.258-.978a.527.527,0,0,0,.022-.182.323.323,0,0,0-.031-.108.157.157,0,0,0-.053-.057.317.317,0,0,0-.165-.049" transform="translate(-36.684 -60.607)"/>
        </g>
      </g>
      <g id="Group_115580" data-name="Group 115580" transform="translate(27.218 37.934)">
        <g id="Group_115579" data-name="Group 115579" clip-path="url(#clip-path-13)">
          <path id="Path_42500" data-name="Path 42500" d="M40.39,57.7a.434.434,0,0,1-.266.225.353.353,0,0,1-.258-.05.384.384,0,0,1-.091-.082.265.265,0,0,1-.055-.114.368.368,0,0,1,0-.151.61.61,0,0,1,.087-.2l1.519-2.4a.436.436,0,0,1,.265-.225.356.356,0,0,1,.263.054.374.374,0,0,1,.092.081.254.254,0,0,1,.052.113.376.376,0,0,1-.006.149.594.594,0,0,1-.087.2l-.494.78,2.661,1.685a.415.415,0,0,1,.142.139.423.423,0,0,1,.055.165.442.442,0,0,1-.016.173.642.642,0,0,1-.193.3.469.469,0,0,1-.151.091.384.384,0,0,1-.175.023.43.43,0,0,1-.187-.068L40.89,56.911Z" transform="translate(-38.972 -54.125)"/>
          <path id="Path_42501" data-name="Path 42501" d="M40.89,56.912l2.661,1.683a.428.428,0,0,0,.187.07.4.4,0,0,0,.175-.023.486.486,0,0,0,.151-.092.693.693,0,0,0,.12-.141.647.647,0,0,0,.07-.163.436.436,0,0,0,.015-.173.385.385,0,0,0-.051-.167.421.421,0,0,0-.141-.141l-2.661-1.683.493-.781a.6.6,0,0,0,.087-.2.371.371,0,0,0,0-.15.253.253,0,0,0-.052-.113.365.365,0,0,0-.092-.082.356.356,0,0,0-.263-.052.433.433,0,0,0-.265.224l-1.519,2.4a.6.6,0,0,0-.087.2.369.369,0,0,0,0,.152.269.269,0,0,0,.055.114.374.374,0,0,0,.092.082.353.353,0,0,0,.258.05.438.438,0,0,0,.267-.225Z" transform="translate(-38.972 -54.125)"/>
          <path id="Path_42502" data-name="Path 42502" d="M43.739,58.718a.353.353,0,0,1-.047,0,.525.525,0,0,1-.227-.084L40.88,57l-.449.715a.522.522,0,0,1-.316.262.448.448,0,0,1-.443-.161.349.349,0,0,1-.073-.151.449.449,0,0,1,0-.189.7.7,0,0,1,.1-.226l1.518-2.4a.515.515,0,0,1,.314-.261.438.438,0,0,1,.336.063.455.455,0,0,1,.113.1.345.345,0,0,1,.07.153.459.459,0,0,1-.006.186.67.67,0,0,1-.1.225l-.444.7,2.587,1.635a.512.512,0,0,1,.169.17.47.47,0,0,1,.063.206.522.522,0,0,1-.018.2.724.724,0,0,1-.08.184.782.782,0,0,1-.136.161.594.594,0,0,1-.178.108.484.484,0,0,1-.168.031m-2.913-1.965,2.735,1.73a.347.347,0,0,0,.151.057.3.3,0,0,0,.134-.018.4.4,0,0,0,.123-.075.573.573,0,0,0,.1-.123.53.53,0,0,0,.06-.139.356.356,0,0,0,.013-.14.317.317,0,0,0-.04-.132.338.338,0,0,0-.111-.111l-2.736-1.73.539-.855a.488.488,0,0,0,.075-.168.287.287,0,0,0,0-.115.174.174,0,0,0-.034-.073.282.282,0,0,0-.07-.062.273.273,0,0,0-.2-.041.348.348,0,0,0-.2.177l-1.524,2.408a.527.527,0,0,0-.075.169.289.289,0,0,0,0,.113.183.183,0,0,0,.037.076.261.261,0,0,0,.07.063.271.271,0,0,0,.194.038.347.347,0,0,0,.2-.177Z" transform="translate(-38.935 -54.088)"/>
        </g>
      </g>
      <g id="Group_115582" data-name="Group 115582" transform="translate(30.274 34.282)">
        <g id="Group_115581" data-name="Group 115581" clip-path="url(#clip-path-14)">
          <path id="Path_42503" data-name="Path 42503" d="M46.559,53.169l.862,1.019a.4.4,0,0,1,.091.178.459.459,0,0,1,0,.175.445.445,0,0,1-.065.158.583.583,0,0,1-.112.129.642.642,0,0,1-.149.092.484.484,0,0,1-.171.042.434.434,0,0,1-.175-.028.4.4,0,0,1-.16-.12l-2.27-2.685a.3.3,0,0,1-.086-.245.355.355,0,0,1,.132-.215l.964-.815a3.282,3.282,0,0,1,.513-.359,1.509,1.509,0,0,1,.526-.186,1.042,1.042,0,0,1,.513.053,1.174,1.174,0,0,1,.48.362,1.279,1.279,0,0,1,.225.372,1.126,1.126,0,0,1,.076.377,1.307,1.307,0,0,1-.046.372,1.324,1.324,0,0,1-.149.339l1.334.444a.489.489,0,0,1,.283.2.365.365,0,0,1,.023.342.509.509,0,0,1-.111.178.419.419,0,0,1-.151.1.483.483,0,0,1-.168.032.518.518,0,0,1-.169-.027l-1.7-.582Zm-1.168-1.381.731.865.46-.389a.929.929,0,0,0,.308-.422.487.487,0,0,0-.138-.46.494.494,0,0,0-.432-.218.916.916,0,0,0-.47.235Z" transform="translate(-43.392 -49.169)"/>
          <path id="Path_42504" data-name="Path 42504" d="M45.851,51.4a.92.92,0,0,1,.469-.234.492.492,0,0,1,.432.218.483.483,0,0,1,.141.46.927.927,0,0,1-.308.422l-.46.389-.735-.866ZM46.9,52.876l1.7.582a.515.515,0,0,0,.17.027.474.474,0,0,0,.168-.033.42.42,0,0,0,.151-.1.528.528,0,0,0,.111-.178.366.366,0,0,0-.024-.342.48.48,0,0,0-.282-.2l-1.338-.444a1.287,1.287,0,0,0,.149-.339,1.328,1.328,0,0,0,.047-.372,1.128,1.128,0,0,0-.077-.379,1.294,1.294,0,0,0-.225-.37,1.169,1.169,0,0,0-.479-.362,1.044,1.044,0,0,0-.513-.053,1.5,1.5,0,0,0-.525.186,3.361,3.361,0,0,0-.513.358l-.965.817a.36.36,0,0,0-.132.215.3.3,0,0,0,.085.245l2.27,2.684a.392.392,0,0,0,.161.12.436.436,0,0,0,.175.027.448.448,0,0,0,.171-.041.585.585,0,0,0,.148-.092.575.575,0,0,0,.113-.128.447.447,0,0,0,.065-.158.459.459,0,0,0,0-.175.4.4,0,0,0-.092-.179l-.861-1.021Z" transform="translate(-43.391 -49.168)"/>
          <path id="Path_42505" data-name="Path 42505" d="M46.953,55.014a.514.514,0,0,1-.182-.034.5.5,0,0,1-.2-.148L44.3,52.149a.376.376,0,0,1-.1-.312.447.447,0,0,1,.164-.275l.962-.814a3.412,3.412,0,0,1,.527-.368,1.572,1.572,0,0,1,.554-.2,1.142,1.142,0,0,1,.557.057,1.263,1.263,0,0,1,.519.39,1.367,1.367,0,0,1,.238.393,1.223,1.223,0,0,1,.082.408,1.4,1.4,0,0,1-.154.664l1.236.41a.564.564,0,0,1,.327.239.45.45,0,0,1,.03.426.585.585,0,0,1-.127.2.51.51,0,0,1-.182.122.551.551,0,0,1-.2.039h0a.631.631,0,0,1-.2-.031l-1.649-.565-.239.2.8.954a.486.486,0,0,1,.11.216.537.537,0,0,1,0,.212.52.52,0,0,1-.078.189.69.69,0,0,1-.128.147.711.711,0,0,1-.171.106.536.536,0,0,1-.2.049h-.027m-.382-4.666a.952.952,0,0,0-.14.01,1.414,1.414,0,0,0-.493.175,3.288,3.288,0,0,0-.5.35l-.965.817a.283.283,0,0,0-.1.165.208.208,0,0,0,.062.166l2.275,2.69a.316.316,0,0,0,.127.1.385.385,0,0,0,.137.021.368.368,0,0,0,.139-.033.525.525,0,0,0,.129-.08.5.5,0,0,0,.1-.109.348.348,0,0,0,.053-.127.339.339,0,0,0,0-.141.305.305,0,0,0-.07-.137l-.92-1.091.45-.379,1.743.6a.425.425,0,0,0,.137.022h0a.356.356,0,0,0,.135-.027.33.33,0,0,0,.12-.08.423.423,0,0,0,.092-.147.282.282,0,0,0-.015-.266.392.392,0,0,0-.23-.164l-1.45-.482.059-.1a1.2,1.2,0,0,0,.182-.662,1.022,1.022,0,0,0-.071-.348,1.166,1.166,0,0,0-.209-.344A1.085,1.085,0,0,0,46.9,50.4a.95.95,0,0,0-.327-.057m-.493,2.392-.848-1,.526-.445a1,1,0,0,1,.512-.255.574.574,0,0,1,.52.256.56.56,0,0,1,.154.528,1.016,1.016,0,0,1-.34.473Zm-.6-.98.621.731.393-.332a.836.836,0,0,0,.281-.384.4.4,0,0,0-.118-.366.427.427,0,0,0-.368-.194.828.828,0,0,0-.413.211l0,0Z" transform="translate(-43.355 -49.131)"/>
        </g>
      </g>
      <g id="Group_115584" data-name="Group 115584" transform="translate(34.548 31.992)">
        <g id="Group_115583" data-name="Group 115583" clip-path="url(#clip-path-15)">
          <path id="Path_42506" data-name="Path 42506" d="M52.062,51.848a.52.52,0,0,1-.2-.016.336.336,0,0,1-.142-.082.382.382,0,0,1-.084-.123.423.423,0,0,1-.032-.139l-.2-3.657a.509.509,0,0,1,.07-.263.586.586,0,0,1,.31-.242.6.6,0,0,1,.394-.051.5.5,0,0,1,.239.135l2.458,2.729a.36.36,0,0,1,.116.294.416.416,0,0,1-.169.253.478.478,0,0,1-.335.126.4.4,0,0,1-.277-.146l-.536-.612-1.259.523.058.842a.354.354,0,0,1-.1.268.529.529,0,0,1-.317.162m.213-3.406.1,1.417.837-.348Z" transform="translate(-49.764 -45.98)"/>
          <path id="Path_42507" data-name="Path 42507" d="M53.207,49.512l-.838.348-.1-1.417Zm-.829,2.175a.362.362,0,0,0,.1-.268l-.058-.845,1.26-.523.535.613a.4.4,0,0,0,.277.147.477.477,0,0,0,.334-.127A.416.416,0,0,0,55,50.43a.361.361,0,0,0-.116-.294l-2.458-2.726a.51.51,0,0,0-.239-.135.6.6,0,0,0-.394.051.577.577,0,0,0-.31.242.5.5,0,0,0-.071.264l.2,3.661a.462.462,0,0,0,.033.141.394.394,0,0,0,.085.123.336.336,0,0,0,.141.082.508.508,0,0,0,.513-.146Z" transform="translate(-49.764 -45.981)"/>
          <path id="Path_42508" data-name="Path 42508" d="M51.967,51.911a.585.585,0,0,1-.162-.023.437.437,0,0,1-.178-.1.5.5,0,0,1-.1-.151.538.538,0,0,1-.04-.17l-.2-3.663a.6.6,0,0,1,.083-.314.671.671,0,0,1,.358-.28.684.684,0,0,1,.44-.054.606.606,0,0,1,.283.159l2.461,2.73a.441.441,0,0,1,.139.359.5.5,0,0,1-.208.319.548.548,0,0,1-.373.142h-.013a.489.489,0,0,1-.344-.18l-.491-.563-1.143.475.054.781a.453.453,0,0,1-.1.308v.008l-.023.025a.594.594,0,0,1-.439.194m.058-4.6a.512.512,0,0,0-.232.055.507.507,0,0,0-.275.211.4.4,0,0,0-.058.216l.2,3.657a.366.366,0,0,0,.027.112.325.325,0,0,0,.065.094.254.254,0,0,0,.1.06.415.415,0,0,0,.4-.1l.024-.032a.276.276,0,0,0,.078-.2l-.063-.906,1.376-.572.577.66a.314.314,0,0,0,.218.118.428.428,0,0,0,.268-.1.346.346,0,0,0,.144-.208.277.277,0,0,0-.09-.211l-2.464-2.732a.421.421,0,0,0-.194-.108.5.5,0,0,0-.1-.011m.227,2.639-.12-1.8,1.185,1.357Zm.09-1.291.07,1.034.611-.255Z" transform="translate(-49.727 -45.944)"/>
        </g>
      </g>
      <g id="Group_115586" data-name="Group 115586" transform="translate(39.532 31.31)">
        <g id="Group_115585" data-name="Group 115585" clip-path="url(#clip-path-16)">
          <path id="Path_42509" data-name="Path 42509" d="M59.787,46.964a.494.494,0,0,1-.311-.064.32.32,0,0,1-.158-.226.475.475,0,0,0-.216-.322.784.784,0,0,0-.494-.08.6.6,0,0,0-.6.712q.023.433.064.834t.089.8a.669.669,0,0,0,.219.467.7.7,0,0,0,.5.106.726.726,0,0,0,.467-.175.589.589,0,0,0,.14-.414.313.313,0,0,1,.123-.249.508.508,0,0,1,.289-.123.39.39,0,0,1,.478.4.885.885,0,0,1-.068.441,1.1,1.1,0,0,1-.278.383,1.6,1.6,0,0,1-.463.284,2.188,2.188,0,0,1-.622.146,2.613,2.613,0,0,1-.624-.013,1.371,1.371,0,0,1-.52-.184,1.142,1.142,0,0,1-.378-.38,1.476,1.476,0,0,1-.2-.6q-.1-.856-.155-1.654a1.419,1.419,0,0,1,.084-.619,1.164,1.164,0,0,1,.306-.444,1.46,1.46,0,0,1,.475-.282,2.392,2.392,0,0,1,1.22-.106,1.7,1.7,0,0,1,.517.181,1.076,1.076,0,0,1,.354.306.806.806,0,0,1,.153.4.386.386,0,0,1-.4.472" transform="translate(-56.424 -44.797)"/>
          <path id="Path_42510" data-name="Path 42510" d="M60.184,46.491a.809.809,0,0,0-.154-.4,1.088,1.088,0,0,0-.352-.306,1.715,1.715,0,0,0-.517-.181,2.257,2.257,0,0,0-.639-.025,2.176,2.176,0,0,0-.582.132,1.452,1.452,0,0,0-.474.282,1.163,1.163,0,0,0-.307.444,1.45,1.45,0,0,0-.083.62q.052.8.155,1.654a1.467,1.467,0,0,0,.2.6,1.157,1.157,0,0,0,.378.381,1.37,1.37,0,0,0,.52.183,2.569,2.569,0,0,0,.624.013,2.156,2.156,0,0,0,.623-.146,1.59,1.59,0,0,0,.463-.282,1.092,1.092,0,0,0,.282-.384.876.876,0,0,0,.07-.441.391.391,0,0,0-.369-.412.385.385,0,0,0-.11.01.5.5,0,0,0-.288.123.315.315,0,0,0-.124.249.59.59,0,0,1-.143.415.721.721,0,0,1-.467.175.692.692,0,0,1-.493-.106.663.663,0,0,1-.219-.467q-.05-.4-.089-.8c-.027-.268-.049-.545-.064-.834a.6.6,0,0,1,.471-.7.611.611,0,0,1,.118-.011.772.772,0,0,1,.493.081.477.477,0,0,1,.218.322.316.316,0,0,0,.156.225.489.489,0,0,0,.312.064.386.386,0,0,0,.408-.362.392.392,0,0,0-.011-.115" transform="translate(-56.424 -44.797)"/>
          <path id="Path_42511" data-name="Path 42511" d="M58.651,49.953a2.61,2.61,0,0,1-.377-.027,1.438,1.438,0,0,1-.553-.194,1.255,1.255,0,0,1-.408-.41,1.575,1.575,0,0,1-.208-.641c-.068-.565-.12-1.123-.155-1.657a1.528,1.528,0,0,1,.089-.655,1.253,1.253,0,0,1,.33-.479,1.538,1.538,0,0,1,.5-.3,2.287,2.287,0,0,1,.6-.137,2.347,2.347,0,0,1,.662.027,1.777,1.777,0,0,1,.544.19,1.185,1.185,0,0,1,.381.33.892.892,0,0,1,.17.439.454.454,0,0,1,.011.134.483.483,0,0,1-.5.445.581.581,0,0,1-.351-.076.4.4,0,0,1-.2-.288.391.391,0,0,0-.177-.261.7.7,0,0,0-.432-.069.634.634,0,0,0-.115.011.509.509,0,0,0-.4.6c.016.285.038.564.065.842s.056.534.089.8a.588.588,0,0,0,.19.412.6.6,0,0,0,.42.084.646.646,0,0,0,.425-.154.5.5,0,0,0,.113-.344.406.406,0,0,1,.158-.322.577.577,0,0,1,.334-.14.445.445,0,0,1,.123-.011.479.479,0,0,1,.452.5.953.953,0,0,1-.078.472,1.192,1.192,0,0,1-.3.414,1.654,1.654,0,0,1-.489.3,2.205,2.205,0,0,1-.648.152,2.581,2.581,0,0,1-.266.014m.063-4.336a2.325,2.325,0,0,0-.781.138,1.35,1.35,0,0,0-.446.265,1.077,1.077,0,0,0-.284.41,1.362,1.362,0,0,0-.077.58c.034.532.087,1.087.155,1.651a1.381,1.381,0,0,0,.184.57,1.063,1.063,0,0,0,.348.351,1.274,1.274,0,0,0,.485.171,2.467,2.467,0,0,0,.6.012,2.032,2.032,0,0,0,.6-.141,1.461,1.461,0,0,0,.437-.265A1.015,1.015,0,0,0,60.2,49a.79.79,0,0,0,.063-.4.307.307,0,0,0-.286-.332.315.315,0,0,0-.085.008.432.432,0,0,0-.25.1.23.23,0,0,0-.094.183.67.67,0,0,1-.165.472.811.811,0,0,1-.534.206.66.66,0,0,1-.8-.658c-.032-.261-.063-.529-.089-.8s-.05-.563-.065-.838a.682.682,0,0,1,.543-.79,1.151,1.151,0,0,1,.135-.013.845.845,0,0,1,.534.091.568.568,0,0,1,.263.385.228.228,0,0,0,.113.164.412.412,0,0,0,.258.054.3.3,0,0,0,.331-.28.308.308,0,0,0-.007-.088l0-.013a.712.712,0,0,0-.137-.358.99.99,0,0,0-.323-.28,1.628,1.628,0,0,0-.491-.172,2.177,2.177,0,0,0-.394-.036" transform="translate(-56.387 -44.759)"/>
        </g>
      </g>
      <g id="Group_115588" data-name="Group 115588" transform="translate(43.588 31.914)">
        <g id="Group_115587" data-name="Group 115587" clip-path="url(#clip-path-17)">
          <path id="Path_42512" data-name="Path 42512" d="M63.67,46.67a.357.357,0,0,1,.072-.153.366.366,0,0,1,.121-.094.424.424,0,0,1,.152-.037.645.645,0,0,1,.164.013.48.48,0,0,1,.259.153.326.326,0,0,1,.065.3l-.227,1.034,1.6-1a.347.347,0,0,1,.145-.051.567.567,0,0,1,.158,0,.483.483,0,0,1,.142.051.4.4,0,0,1,.109.092.335.335,0,0,1-.1.489l-1.45.888,1.033,1.593a.439.439,0,0,1,.079.339.307.307,0,0,1-.189.233.406.406,0,0,1-.3.017.437.437,0,0,1-.232-.185l-1.144-1.779-.261,1.189a.328.328,0,0,1-.187.257.5.5,0,0,1-.3.025.633.633,0,0,1-.154-.056.417.417,0,0,1-.122-.1.346.346,0,0,1-.07-.137.354.354,0,0,1,0-.174Z" transform="translate(-62.24 -45.643)"/>
          <path id="Path_42513" data-name="Path 42513" d="M63.031,49.583a.36.36,0,0,0,0,.173.338.338,0,0,0,.07.137.413.413,0,0,0,.122.1.631.631,0,0,0,.154.056.49.49,0,0,0,.3-.025.333.333,0,0,0,.187-.257l.26-1.19,1.142,1.78a.434.434,0,0,0,.232.184.411.411,0,0,0,.3-.016.311.311,0,0,0,.19-.234.442.442,0,0,0-.08-.338l-1.031-1.593,1.45-.888a.334.334,0,0,0,.118-.458c-.006-.01-.013-.02-.02-.03a.369.369,0,0,0-.109-.092.458.458,0,0,0-.141-.051.494.494,0,0,0-.158,0,.358.358,0,0,0-.145.051l-1.6,1,.227-1.036a.325.325,0,0,0-.065-.3.477.477,0,0,0-.26-.153.578.578,0,0,0-.163-.013.42.42,0,0,0-.151.037.34.34,0,0,0-.194.248Z" transform="translate(-62.24 -45.643)"/>
          <path id="Path_42514" data-name="Path 42514" d="M65.593,50.613a.5.5,0,0,1-.161-.026.524.524,0,0,1-.278-.221l-1.027-1.6-.215.982a.415.415,0,0,1-.235.318.573.573,0,0,1-.357.031.7.7,0,0,1-.175-.063.508.508,0,0,1-.149-.12.418.418,0,0,1-.089-.172.452.452,0,0,1,0-.215l.639-2.912a.423.423,0,0,1,.244-.308.491.491,0,0,1,.183-.046.726.726,0,0,1,.187.015.558.558,0,0,1,.307.182.413.413,0,0,1,.083.384l-.181.824,1.421-.891a.447.447,0,0,1,.182-.063.56.56,0,0,1,.184,0,.551.551,0,0,1,.168.061.444.444,0,0,1,.134.114.277.277,0,0,1,.027.039.42.42,0,0,1-.149.579l-1.372.841.982,1.517a.53.53,0,0,1,.093.4.4.4,0,0,1-.244.3.493.493,0,0,1-.2.044m-1.547-2.3L65.3,50.272a.341.341,0,0,0,.184.148.317.317,0,0,0,.237-.013.221.221,0,0,0,.14-.169.352.352,0,0,0-.063-.27l-1.083-1.673,1.527-.936a.246.246,0,0,0,.088-.338A.178.178,0,0,0,66.32,47a.267.267,0,0,0-.082-.069.338.338,0,0,0-.114-.042.39.39,0,0,0-.131,0,.265.265,0,0,0-.111.038l-1.776,1.113.272-1.24a.243.243,0,0,0-.046-.226.382.382,0,0,0-.212-.124.484.484,0,0,0-.139-.011.312.312,0,0,0-.12.03.25.25,0,0,0-.144.184l-.64,2.918a.275.275,0,0,0,0,.131.248.248,0,0,0,.052.1.346.346,0,0,0,.1.079.611.611,0,0,0,.132.047.4.4,0,0,0,.246-.02.242.242,0,0,0,.134-.187Z" transform="translate(-62.203 -45.606)"/>
        </g>
      </g>
      <g id="Group_115590" data-name="Group 115590" transform="translate(47.114 32.818)">
        <g id="Group_115589" data-name="Group 115589" clip-path="url(#clip-path-18)">
          <path id="Path_42515" data-name="Path 42515" d="M70.077,51.735a1.754,1.754,0,0,0,.289.137.847.847,0,0,0,.267.054.487.487,0,0,0,.225-.051.409.409,0,0,0,.168-.163.451.451,0,0,0,.068-.254.713.713,0,0,0-.067-.258,1.433,1.433,0,0,0-.16-.261c-.068-.087-.137-.175-.213-.262-.115-.138-.232-.282-.35-.432a2.52,2.52,0,0,1-.291-.46,1.307,1.307,0,0,1-.133-.473A.8.8,0,0,1,70,48.832a.918.918,0,0,1,.425-.4,1.185,1.185,0,0,1,.539-.1,1.986,1.986,0,0,1,.586.126,3.572,3.572,0,0,1,.563.267q.131.078.284.183a3.227,3.227,0,0,1,.289.227,2.636,2.636,0,0,1,.244.241.686.686,0,0,1,.144.228.3.3,0,0,1,.012.162.439.439,0,0,1-.048.131.347.347,0,0,1-.165.148.319.319,0,0,1-.182.014.534.534,0,0,1-.177-.077.591.591,0,0,1-.142-.13c-.1-.11-.191-.208-.283-.3a1.7,1.7,0,0,0-.322-.243,1.41,1.41,0,0,0-.537-.2.336.336,0,0,0-.357.167.35.35,0,0,0-.051.232.7.7,0,0,0,.08.246,1.581,1.581,0,0,0,.172.263c.071.089.148.18.229.272l.213.249a4.2,4.2,0,0,1,.271.368,1.673,1.673,0,0,1,.192.395,1.117,1.117,0,0,1,.057.413.9.9,0,0,1-.134.424,1.2,1.2,0,0,1-.4.425,1.107,1.107,0,0,1-.516.159,1.683,1.683,0,0,1-.6-.08,3.146,3.146,0,0,1-.646-.293,2.9,2.9,0,0,1-.751-.6,1.508,1.508,0,0,1-.33-.561.278.278,0,0,1-.018-.134.371.371,0,0,1,.034-.124.349.349,0,0,1,.111-.144.342.342,0,0,1,.146-.065.464.464,0,0,1,.153,0,.5.5,0,0,1,.144.056.567.567,0,0,1,.133.113.43.43,0,0,1,.088.144c.032.065.063.127.094.185a1.192,1.192,0,0,0,.115.17,1.535,1.535,0,0,0,.17.168,1.685,1.685,0,0,0,.246.171" transform="translate(-67.43 -47.125)"/>
          <path id="Path_42516" data-name="Path 42516" d="M69.832,51.565a1.316,1.316,0,0,1-.169-.168,1.033,1.033,0,0,1-.116-.17c-.032-.058-.062-.12-.094-.186a.408.408,0,0,0-.089-.141.533.533,0,0,0-.133-.112.46.46,0,0,0-.141-.056.432.432,0,0,0-.153,0,.334.334,0,0,0-.145.065.351.351,0,0,0-.111.141.345.345,0,0,0-.034.124.286.286,0,0,0,.018.135,1.48,1.48,0,0,0,.33.563,2.938,2.938,0,0,0,.751.6,3.1,3.1,0,0,0,.646.292,1.686,1.686,0,0,0,.6.08,1.109,1.109,0,0,0,.516-.16,1.191,1.191,0,0,0,.4-.422.9.9,0,0,0,.136-.422,1.114,1.114,0,0,0-.058-.413,1.681,1.681,0,0,0-.192-.395,4.328,4.328,0,0,0-.272-.376l-.211-.25c-.082-.092-.158-.182-.229-.272a1.507,1.507,0,0,1-.173-.262.745.745,0,0,1-.08-.246.357.357,0,0,1,.051-.232.335.335,0,0,1,.356-.166,1.393,1.393,0,0,1,.537.2,1.634,1.634,0,0,1,.322.241q.138.134.282.3a.619.619,0,0,0,.141.13.523.523,0,0,0,.177.077.323.323,0,0,0,.182-.013.348.348,0,0,0,.165-.149.416.416,0,0,0,.048-.132.293.293,0,0,0-.012-.161.7.7,0,0,0-.141-.229,2.451,2.451,0,0,0-.243-.241,3.105,3.105,0,0,0-.289-.227c-.1-.07-.2-.132-.282-.184a3.483,3.483,0,0,0-.563-.265,1.943,1.943,0,0,0-.586-.127,1.189,1.189,0,0,0-.544.094.919.919,0,0,0-.422.4.8.8,0,0,0-.122.477,1.313,1.313,0,0,0,.132.475,2.565,2.565,0,0,0,.292.46q.177.225.352.432.112.131.211.262a1.416,1.416,0,0,1,.161.26.693.693,0,0,1,.07.259.456.456,0,0,1-.07.254.4.4,0,0,1-.168.163.489.489,0,0,1-.225.051.8.8,0,0,1-.267-.053,1.694,1.694,0,0,1-.289-.137,1.9,1.9,0,0,1-.251-.17" transform="translate(-67.431 -47.125)"/>
          <path id="Path_42517" data-name="Path 42517" d="M70.875,52.786a1.775,1.775,0,0,1-.546-.086,3.118,3.118,0,0,1-.664-.3,2.991,2.991,0,0,1-.772-.617,1.566,1.566,0,0,1-.348-.6.359.359,0,0,1-.022-.171.413.413,0,0,1,.042-.152.439.439,0,0,1,.32-.255.485.485,0,0,1,.186,0,.546.546,0,0,1,.17.066.626.626,0,0,1,.154.13.5.5,0,0,1,.1.168c.027.058.057.118.088.175a.943.943,0,0,0,.107.156,1.271,1.271,0,0,0,.157.157,1.815,1.815,0,0,0,.239.161,1.646,1.646,0,0,0,.276.132.716.716,0,0,0,.239.047.374.374,0,0,0,.184-.041.322.322,0,0,0,.13-.127.373.373,0,0,0,.06-.21.606.606,0,0,0-.062-.222,1.287,1.287,0,0,0-.151-.246c-.066-.087-.135-.173-.209-.259q-.175-.208-.354-.434a2.726,2.726,0,0,1-.3-.475,1.407,1.407,0,0,1-.142-.506.888.888,0,0,1,.137-.532,1,1,0,0,1,.459-.432,1.246,1.246,0,0,1,.586-.1,2.014,2.014,0,0,1,.612.132,3.629,3.629,0,0,1,.577.272c.088.052.182.115.287.187a3.3,3.3,0,0,1,.3.233,2.379,2.379,0,0,1,.25.249.769.769,0,0,1,.158.256.377.377,0,0,1,.015.209.478.478,0,0,1-.058.158.445.445,0,0,1-.206.185.427.427,0,0,1-.237.019.623.623,0,0,1-.208-.091.682.682,0,0,1-.16-.149c-.093-.106-.186-.2-.274-.289a1.6,1.6,0,0,0-.3-.228,1.312,1.312,0,0,0-.508-.192.243.243,0,0,0-.265.122.282.282,0,0,0-.042.179.648.648,0,0,0,.071.215,1.371,1.371,0,0,0,.163.248c.072.09.146.179.227.27l.212.252a4.385,4.385,0,0,1,.28.384,1.733,1.733,0,0,1,.2.415,1.214,1.214,0,0,1,.062.446,1.014,1.014,0,0,1-.149.465,1.3,1.3,0,0,1-.427.45,1.206,1.206,0,0,1-.558.173h-.084m-1.9-2.009a.3.3,0,0,0-.061.006.264.264,0,0,0-.191.154.237.237,0,0,0-.027.1.2.2,0,0,0,.012.1,1.425,1.425,0,0,0,.312.536,2.849,2.849,0,0,0,.731.584,2.975,2.975,0,0,0,.629.285,1.59,1.59,0,0,0,.567.076,1.023,1.023,0,0,0,.475-.146,1.123,1.123,0,0,0,.368-.391.815.815,0,0,0,.125-.385,1.045,1.045,0,0,0-.053-.379,1.559,1.559,0,0,0-.182-.374,4.3,4.3,0,0,0-.268-.37l-.211-.249c-.081-.092-.158-.183-.23-.275a1.623,1.623,0,0,1-.182-.275.861.861,0,0,1-.09-.275.458.458,0,0,1,.064-.29.42.42,0,0,1,.448-.206,1.479,1.479,0,0,1,.567.215,1.752,1.752,0,0,1,.336.252c.092.089.189.191.287.3a.573.573,0,0,0,.124.115.441.441,0,0,0,.148.065.239.239,0,0,0,.131-.011.261.261,0,0,0,.12-.11.308.308,0,0,0,.038-.1.2.2,0,0,0-.008-.115.6.6,0,0,0-.122-.2,2.383,2.383,0,0,0-.236-.234,2.969,2.969,0,0,0-.282-.221c-.1-.069-.191-.13-.276-.18a3.346,3.346,0,0,0-.549-.259,1.86,1.86,0,0,0-.56-.121,1.066,1.066,0,0,0-.5.087.829.829,0,0,0-.379.36.712.712,0,0,0-.113.43,1.219,1.219,0,0,0,.124.441,2.477,2.477,0,0,0,.282.445q.177.224.351.43c.075.088.147.177.213.265a1.528,1.528,0,0,1,.17.276.826.826,0,0,1,.079.29.541.541,0,0,1-.084.308.486.486,0,0,1-.2.194.729.729,0,0,1-.268.06.9.9,0,0,1-.3-.058,1.772,1.772,0,0,1-.3-.144,1.922,1.922,0,0,1-.262-.177h0a1.357,1.357,0,0,1-.18-.18,1.135,1.135,0,0,1-.126-.184c-.032-.059-.063-.122-.1-.19a.355.355,0,0,0-.073-.118.46.46,0,0,0-.115-.1.366.366,0,0,0-.114-.046.3.3,0,0,0-.057,0" transform="translate(-67.395 -47.087)"/>
        </g>
      </g>
      <g id="Group_115592" data-name="Group 115592" transform="translate(30.017 37.484)">
        <g id="Group_115599" data-name="Group 115599" transform="translate(0 0)">
          <path id="Path_42518" data-name="Path 42518" d="M43.81,81.032l.642.572a.916.916,0,0,0,.988.149l.784-.352a.168.168,0,0,1,.2.265l-.572.642a.916.916,0,0,0-.151.989l.352.784a.168.168,0,0,1-.265.2l-.642-.572a.915.915,0,0,0-.986-.151l-.784.352a.168.168,0,0,1-.2-.265L43.749,83a.915.915,0,0,0,.151-.986l-.352-.784a.168.168,0,0,1,.265-.2" transform="translate(-42.783 -61.455)"/>
          <path id="Path_42519" data-name="Path 42519" d="M45.747,84.52a.52.52,0,0,1-.344-.128l-.645-.575a.565.565,0,0,0-.606-.093l-.784.352a.52.52,0,0,1-.6-.819l.574-.643a.564.564,0,0,0,.093-.606l-.353-.784a.522.522,0,0,1,.263-.689.524.524,0,0,1,.555.084l-.057.065.057-.064.642.573a.563.563,0,0,0,.608.09l.785-.352a.52.52,0,0,1,.689.263.521.521,0,0,1-.084.554l-.574.645a.563.563,0,0,0-.094.609l.353.784a.523.523,0,0,1-.26.688.514.514,0,0,1-.213.045m-1.364-1.55a1.266,1.266,0,0,1,.842.319,1.266,1.266,0,0,1,.211-1.363,1.266,1.266,0,0,1-1.36-.2,1.266,1.266,0,0,1-.21,1.357,1.268,1.268,0,0,1,.517-.11" transform="translate(-42.636 -61.308)"/>
          <path id="Path_42520" data-name="Path 42520" d="M43.81,81.032l.642.572a.916.916,0,0,0,.988.149l.784-.352a.168.168,0,0,1,.2.265l-.572.642a.916.916,0,0,0-.151.989l.352.784a.168.168,0,0,1-.265.2l-.642-.572a.915.915,0,0,0-.986-.151l-.784.352a.168.168,0,0,1-.2-.265L43.749,83a.915.915,0,0,0,.151-.986l-.352-.784a.168.168,0,0,1,.265-.2" transform="translate(-42.783 -61.455)"/>
          <path id="Path_42521" data-name="Path 42521" d="M45.858,84.369a.258.258,0,0,1-.17-.064l-.642-.572a.827.827,0,0,0-.891-.137l-.784.352a.257.257,0,0,1-.339-.128.26.26,0,0,1,.042-.275l.573-.642a.828.828,0,0,0,.137-.891l-.352-.784a.252.252,0,0,1-.006-.2.257.257,0,0,1,.409-.1h0l.641.572a.83.83,0,0,0,.893.134l.784-.353a.256.256,0,0,1,.3.4l-.573.643a.827.827,0,0,0-.137.894l.352.784a.258.258,0,0,1-.129.339.271.271,0,0,1-.1.022m-1.364-1.023a1,1,0,0,1,.668.255l.642.572a.077.077,0,0,0,.085.013.079.079,0,0,0,.041-.106l-.352-.783a1,1,0,0,1,.166-1.083l.572-.642a.081.081,0,0,0,.012-.086.076.076,0,0,0-.044-.042.072.072,0,0,0-.061,0l-.784.352a1.006,1.006,0,0,1-1.083-.163l-.642-.572h0a.085.085,0,0,0-.084-.011.08.08,0,0,0-.042.044.082.082,0,0,0,0,.062l.352.784a1,1,0,0,1-.166,1.079l-.572.642a.083.083,0,0,0-.013.086.08.08,0,0,0,.106.04l.784-.352a1.006,1.006,0,0,1,.412-.089" transform="translate(-42.746 -61.419)"/>
          <path id="Path_42522" data-name="Path 42522" d="M75.744,53.784l.642.572a.916.916,0,0,0,.989.151l.784-.352a.168.168,0,0,1,.2.265l-.572.642a.915.915,0,0,0-.151.986l.352.784a.168.168,0,0,1-.265.2l-.642-.572a.915.915,0,0,0-.986-.151l-.784.352a.168.168,0,0,1-.2-.265l.572-.642a.915.915,0,0,0,.151-.986l-.352-.784a.168.168,0,0,1,.265-.2" transform="translate(-52.235 -53.391)" fill="#12154b"/>
          <path id="Path_42523" data-name="Path 42523" d="M77.681,57.274a.521.521,0,0,1-.345-.131l-.643-.573a.564.564,0,0,0-.606-.093l-.784.352a.52.52,0,0,1-.6-.818l.574-.643a.564.564,0,0,0,.093-.606l-.353-.785a.521.521,0,0,1,.82-.6v0l.641.571a.565.565,0,0,0,.609.094l.785-.353a.514.514,0,0,1,.4-.011.519.519,0,0,1,.2.829l-.574.644a.563.563,0,0,0-.094.605l.353.785a.521.521,0,0,1-.475.734m-1.364-1.551a1.27,1.27,0,0,1,.843.32,1.265,1.265,0,0,1,.209-1.361,1.267,1.267,0,0,1-1.359-.2,1.267,1.267,0,0,1-.211,1.356,1.258,1.258,0,0,1,.517-.111" transform="translate(-52.087 -53.243)"/>
          <path id="Path_42524" data-name="Path 42524" d="M75.744,53.784l.642.572a.916.916,0,0,0,.989.151l.784-.352a.168.168,0,0,1,.2.265l-.572.642a.915.915,0,0,0-.151.986l.352.784a.168.168,0,0,1-.265.2l-.642-.572a.915.915,0,0,0-.986-.151l-.784.352a.168.168,0,0,1-.2-.265l.572-.642a.915.915,0,0,0,.151-.986l-.352-.784a.168.168,0,0,1,.265-.2" transform="translate(-52.235 -53.391)"/>
          <path id="Path_42525" data-name="Path 42525" d="M77.792,57.12a.256.256,0,0,1-.17-.064l-.642-.572a.828.828,0,0,0-.891-.137L75.3,56.7a.256.256,0,0,1-.338-.13.257.257,0,0,1,.042-.273l.572-.642a.826.826,0,0,0,.137-.891l-.352-.784a.256.256,0,0,1,.4-.3h0l.64.571a.826.826,0,0,0,.894.137l.784-.353a.256.256,0,0,1,.3.4l-.572.643a.824.824,0,0,0-.137.891l.352.784a.257.257,0,0,1-.234.361M76.428,56.1a1,1,0,0,1,.669.254l.642.572a.08.08,0,0,0,.126-.093l-.352-.784a1,1,0,0,1,.165-1.08l.572-.643a.08.08,0,0,0-.093-.125l-.784.352a1.006,1.006,0,0,1-1.084-.166l-.642-.572v0a.084.084,0,0,0-.084-.011.081.081,0,0,0-.04.106l.352.783a1.006,1.006,0,0,1-.166,1.081l-.572.642a.079.079,0,0,0-.013.084.082.082,0,0,0,.045.043.084.084,0,0,0,.061,0l.784-.352a1,1,0,0,1,.411-.088" transform="translate(-52.198 -53.354)"/>
        </g>
      </g>
      <g id="Group_115594" data-name="Group 115594" transform="translate(-2 0)">
        <g id="Group_115600" data-name="Group 115600" transform="translate(10)">
          <path id="Path_42526" data-name="Path 42526" d="M94.187.422l.563,2.653a2.9,2.9,0,0,0,2.232,2.232l2.652.563a.53.53,0,0,1,0,1.038l-2.652.563A2.894,2.894,0,0,0,94.75,9.7l-.563,2.653a.53.53,0,0,1-1.038,0L92.586,9.7A2.894,2.894,0,0,0,90.354,7.47L87.7,6.907a.53.53,0,0,1,0-1.038l2.652-.563a2.894,2.894,0,0,0,2.232-2.232L93.149.422a.53.53,0,0,1,1.038,0" transform="translate(-25.833 0)" fill="#ffee24" stroke="#000" stroke-width="2"/>
          <path id="Path_42527" data-name="Path 42527" d="M111.5,18.539l.531,2.511a2.741,2.741,0,0,0,2.113,2.113l2.51.531a.5.5,0,0,1,0,.982l-2.51.531a2.741,2.741,0,0,0-2.113,2.113l-.531,2.511a.5.5,0,0,1-.982,0l-.531-2.511a2.741,2.741,0,0,0-2.113-2.113l-2.51-.531a.5.5,0,0,1,0-.982l2.51-.531a2.741,2.741,0,0,0,2.113-2.113l.531-2.511a.5.5,0,0,1,.982,0" transform="translate(-32.714 -7.017)" fill="#ffee24" stroke="#000" stroke-width="2"/>
        </g>
      </g>
    </g>
  </g>
</svg>
