<?xml version="1.0" encoding="utf-8"?>
<!-- Generator: Adobe Illustrator 26.3.1, SVG Export Plug-In . SVG Version: 6.00 Build 0)  -->
<svg version="1.1" id="레이어_1" xmlns="http://www.w3.org/2000/svg" xmlns:xlink="http://www.w3.org/1999/xlink" x="0px"
	 y="0px" viewBox="0 0 20 20" style="enable-background:new 0 0 20 20;" xml:space="preserve">
<style type="text/css">
	.st0{fill:none;}
	.st1{fill:#B2C5D1;}
	.st2{fill:#E0EFFF;}
	.st3{fill:#FFF0CA;}
	.st4{fill:none;stroke:#000000;stroke-width:0.8;stroke-linecap:round;stroke-miterlimit:10;}
	.st5{fill:#FFFFFF;}
	.st6{fill:#FF5492;stroke:#000000;stroke-width:0.8;stroke-linecap:round;stroke-linejoin:round;}
	.st7{fill:none;stroke:#000000;stroke-width:0.8;stroke-linecap:round;stroke-linejoin:round;}
	.st8{fill:#FFDB0D;}

	#bg {position:relative;animation:bg both infinite linear 6s;transform-origin:55.2% 50.8%}

@keyframes bg {
0% {transform:rotate(0deg)}
100% {transform:rotate(360deg)}
}

#heart {transform-origin:18% 80%;animation:heart both linear infinite 1.2s;}

@keyframes heart {
0% {transform:scale(1)}
50% {transform:scale(0.6)}
100% {transform:scale(1)}
}

#mus {animation:mus both linear infinite 1.6s;}

@keyframes mus {
0% {transform:translate(0,0);opacity:1}
50% {transform:translate(-8%,10%);opacity:1}
100% {transform:translate(0,0);opacity:1}
}
</style>
<g id="bg">
	<rect id="사각형_21922" class="st0" width="20" height="20"/>
	<path id="패스_52059" class="st1" d="M11,18.4c-4.6,0-8.4-3.7-8.4-8.4c0-4.6,3.7-8.4,8.4-8.4c4.6,0,8.4,3.7,8.4,8.4
		C19.3,14.7,15.6,18.4,11,18.4"/>
	<path id="패스_52060" d="M11,2.1c4.4,0,8,3.6,8,8s-3.6,8-8,8s-8-3.6-8-8C3,5.7,6.6,2.1,11,2.1 M11,1.3c-4.8,0-8.7,3.9-8.7,8.7
		s3.9,8.7,8.7,8.7c4.8,0,8.7-3.9,8.7-8.7c0,0,0,0,0,0C19.7,5.2,15.8,1.3,11,1.3C11,1.3,11,1.3,11,1.3"/>
	<path id="패스_52061" class="st2" d="M11,13.1c-1.7,0-3-1.4-3-3s1.4-3,3-3s3,1.4,3,3C14,11.7,12.7,13.1,11,13.1"/>
	<path id="패스_52062" d="M11,7.4c1.5,0,2.7,1.2,2.7,2.7s-1.2,2.7-2.7,2.7s-2.7-1.2-2.7-2.7l0,0C8.3,8.6,9.5,7.4,11,7.4 M11,6.6
		c-1.9,0-3.4,1.5-3.4,3.4s1.5,3.4,3.4,3.4s3.4-1.5,3.4-3.4S12.9,6.6,11,6.6C11,6.6,11,6.6,11,6.6"/>
	<path id="패스_52063" class="st3" d="M11,11.2c-0.6,0-1.2-0.5-1.2-1.2s0.5-1.2,1.2-1.2s1.2,0.5,1.2,1.2l0,0
		C12.1,10.7,11.6,11.2,11,11.2"/>
	<path id="패스_52064" d="M11,9.3c0.4,0,0.8,0.3,0.8,0.8c0,0.4-0.3,0.8-0.8,0.8s-0.8-0.3-0.8-0.8C10.2,9.6,10.6,9.3,11,9.3
		 M11,8.5c-0.8,0-1.5,0.7-1.5,1.5s0.7,1.5,1.5,1.5s1.5-0.7,1.5-1.5S11.8,8.5,11,8.5L11,8.5"/>
	<path id="패스_52065" class="st4" d="M11,15c2.7,0,5-2.2,5-5"/>
	<path id="패스_52066" class="st4" d="M11,16.5c3.6,0,6.5-2.9,6.5-6.5"/>
</g>
<g id="mus">
	<path id="패스_52071" class="st5" d="M15.5,5.6c0,0.6-0.4,1-1,1s-1-0.4-1-1s0.4-1,1-1S15.5,5.1,15.5,5.6"/>
	<circle id="타원_722" class="st6" cx="14.5" cy="5.6" r="1"/>
	<line id="선_916" class="st7" x1="15.5" y1="5.6" x2="15.5" y2="1.1"/>
	<path id="패스_52072" class="st5" d="M19.1,5.1c0,0.6-0.4,1-1,1s-1-0.4-1-1s0.4-1,1-1S19.1,4.6,19.1,5.1"/>
	<circle id="타원_723" class="st6" cx="18.1" cy="5.1" r="1"/>
	<line id="선_917" class="st7" x1="19.1" y1="5" x2="19.1" y2="0.4"/>
	<path id="패스_52073" class="st6" d="M19.1,2.1l-3.6,0.6V1.1l3.6-0.6V2.1z"/>
</g>
<g id="heart">
	<path id="패스_52067" class="st8" d="M3.6,17.2c-0.2,0-0.4-0.2-0.4-0.4l0,0c0-1.2-1-2.1-2.1-2.1c-0.2,0-0.4-0.2-0.4-0.4
		c0-0.2,0.2-0.4,0.4-0.4c0,0,0,0,0,0c1.2,0,2.1-1,2.1-2.1c0-0.2,0.2-0.4,0.4-0.4s0.4,0.2,0.4,0.4c0,0,0,0,0,0c0,1.2,0.9,2.1,2.1,2.1
		c0.2,0,0.4,0.2,0.4,0.4s-0.2,0.4-0.4,0.4c-1.2,0-2.1,1-2.1,2.1C3.9,17,3.8,17.2,3.6,17.2L3.6,17.2"/>
	<path id="패스_52068" d="M3.5,11.8c0,1.4,1.1,2.5,2.5,2.5c-1.4,0-2.5,1.1-2.5,2.5c0-1.4-1.1-2.5-2.5-2.5
		C2.4,14.3,3.5,13.2,3.5,11.8 M3.5,11c-0.4,0-0.8,0.3-0.8,0.8l0,0c0,1-0.8,1.8-1.7,1.8c-0.4,0-0.8,0.3-0.8,0.8s0.3,0.8,0.8,0.8
		c1,0,1.7,0.8,1.7,1.7c0,0.4,0.3,0.8,0.8,0.8s0.8-0.3,0.8-0.8c0-1,0.8-1.7,1.7-1.7c0.4,0,0.8-0.3,0.8-0.8c0-0.4-0.3-0.8-0.8-0.8
		c-1,0-1.7-0.8-1.7-1.8C4.3,11.3,4,11,3.5,11C3.6,11,3.6,11,3.5,11"/>
	<path id="패스_52069" class="st8" d="M7.6,19.6c-0.2,0-0.4-0.2-0.4-0.4l0,0c0-0.6-0.5-1.1-1.1-1.1c-0.2,0-0.4-0.2-0.4-0.4
		s0.2-0.4,0.4-0.4c0.6,0,1.1-0.5,1.1-1.1c0-0.2,0.2-0.4,0.4-0.4c0.2,0,0.4,0.2,0.4,0.4c0,0,0,0,0,0c0,0.6,0.5,1.1,1.1,1.1
		c0.2,0,0.4,0.2,0.4,0.4s-0.2,0.4-0.4,0.4c-0.6,0-1.1,0.5-1.1,1.1C8,19.4,7.8,19.6,7.6,19.6L7.6,19.6"/>
	<path id="패스_52070" d="M7.6,16.2c0,0.8,0.7,1.5,1.5,1.5c-0.8,0-1.5,0.7-1.5,1.5c0-0.8-0.7-1.5-1.5-1.5
		C6.9,17.7,7.6,17,7.6,16.2 M7.6,15.4c-0.4,0-0.8,0.3-0.8,0.8l0,0c0,0.4-0.3,0.7-0.7,0.8c-0.4,0-0.8,0.3-0.8,0.8
		c0,0.4,0.3,0.8,0.8,0.8c0.4,0,0.7,0.3,0.7,0.7c0,0.4,0.3,0.8,0.8,0.8c0.4,0,0.8-0.3,0.8-0.8c0-0.4,0.3-0.7,0.7-0.7
		c0.4,0,0.8-0.3,0.8-0.8c0-0.4-0.3-0.8-0.8-0.8c-0.4,0-0.7-0.3-0.7-0.8C8.3,15.8,8,15.4,7.6,15.4L7.6,15.4"/>
</g>
</svg>
