<?xml version="1.0" encoding="utf-8"?>
<!-- Generator: Adobe Illustrator 26.3.1, SVG Export Plug-In . SVG Version: 6.00 Build 0)  -->
<svg version="1.1" id="Layer_1" xmlns="http://www.w3.org/2000/svg" xmlns:xlink="http://www.w3.org/1999/xlink" x="0px" y="0px" viewBox="0 0 32 32" style="enable-background:new 0 0 32 32;" xml:space="preserve">
<style type="text/css">
.st0{fill:#C3C9FF;}
.st1{fill:none;stroke:#000000;stroke-width:1.5;}
.st2{enable-background:new;}
</style>
<g id="Group_109729" transform="translate(-130 -534)">
	<g id="Ellipse_281" transform="translate(130 534)">
		<circle class="st0" cx="16" cy="16" r="16"/>
		<circle class="st1" cx="16" cy="16" r="15.2"/>
	</g>
	<g class="st2">
		<path d="M140.9,550.8h1v1.4h-1v1.8h-1.7v-1.8h-3.5l-0.1-1.1l3.6-5.6h1.7V550.8z M137.4,550.8h1.9v-3l-0.1,0.2L137.4,550.8z"/>
		<path d="M148.4,550.5c0,1.2-0.2,2.1-0.7,2.7s-1.2,0.9-2.1,0.9c-0.9,0-1.6-0.3-2.1-0.9s-0.7-1.5-0.8-2.6V549c0-1.2,0.2-2.1,0.7-2.7
			s1.2-0.9,2.1-0.9s1.6,0.3,2.1,0.9s0.7,1.5,0.8,2.6V550.5z M146.7,548.7c0-0.7-0.1-1.2-0.3-1.5c-0.2-0.3-0.5-0.5-0.9-0.5
			c-0.4,0-0.7,0.2-0.9,0.5c-0.2,0.3-0.3,0.8-0.3,1.4v2.1c0,0.7,0.1,1.2,0.3,1.6c0.2,0.3,0.5,0.5,0.9,0.5c0.4,0,0.7-0.2,0.9-0.5
			c0.2-0.3,0.3-0.8,0.3-1.5V548.7z"/>
		<path d="M156,549.4c0,0.7-0.2,1.3-0.5,1.8s-0.8,0.7-1.4,0.7c-0.3,0-0.6-0.1-0.8-0.2s-0.5-0.3-0.9-0.6s-0.6-0.5-0.9-0.5
			c-0.2,0-0.4,0.1-0.6,0.3s-0.2,0.4-0.2,0.8l-1.3,0c0-0.7,0.2-1.3,0.5-1.8s0.8-0.7,1.4-0.7c0.3,0,0.6,0.1,0.8,0.2s0.5,0.3,0.9,0.6
			s0.6,0.5,0.9,0.5c0.2,0,0.4-0.1,0.6-0.3s0.2-0.5,0.2-0.8L156,549.4z"/>
	</g>
</g>
</svg>
