<svg id="그룹_116241" data-name="그룹 116241" xmlns="http://www.w3.org/2000/svg" width="88.959" height="88.959" viewBox="0 0 88.959 88.959">
  <g id="그룹_116243" data-name="그룹 116243" transform="translate(0 0)">
    <path id="패스_42651" data-name="패스 42651" d="M75.932,75.931a44.479,44.479,0,1,1,0-62.9,44.479,44.479,0,0,1,0,62.9" fill="#fff"/>
    <path id="패스_42652" data-name="패스 42652" d="M75.955,75.955a36.77,36.77,0,1,1,0-52,36.77,36.77,0,0,1,0,52" transform="translate(-5.475 -5.475)" fill="#feea9a"/>
    <path id="패스_42653" data-name="패스 42653" d="M75.955,75.955a36.77,36.77,0,1,1,0-52A36.77,36.77,0,0,1,75.955,75.955Z" transform="translate(-5.475 -5.475)" fill="none" stroke="#1c1c1c" stroke-width="2"/>
    <path id="패스_42654" data-name="패스 42654" d="M76,81.009A24.108,24.108,0,0,1,41.9,46.915" transform="translate(-14.468 -19.482)" fill="none" stroke="#1c1c1c" stroke-width="2"/>
    <path id="패스_42655" data-name="패스 42655" d="M68.364,51.283c-3.233,3.233-7.01,4.7-8.437,3.271s.039-5.2,3.272-8.437,7.01-4.7,8.437-3.272-.039,5.2-3.272,8.438" transform="translate(-24.659 -17.566)" fill="#010200"/>
    <path id="패스_42656" data-name="패스 42656" d="M96.927,79.848c-3.233,3.234-7.011,4.7-8.438,3.272s.039-5.2,3.272-8.437,7.01-4.7,8.437-3.272-.038,5.2-3.271,8.437" transform="translate(-36.52 -29.427)" fill="#010200"/>
  </g>
</svg>
