<svg xmlns="http://www.w3.org/2000/svg" width="40" height="40" viewBox="0 0 40 40">
  <g id="alarm" transform="translate(-0.932 -0.659)">
    <circle id="Ellipse_231" data-name="Ellipse 231" cx="20" cy="20" r="20" transform="translate(0.932 0.659)" fill="#da2128"/>
    <g id="icon_alarm" transform="translate(8.49 8.492)">
      <path id="icon" d="M-1272.477-720.707h-2.264a2.262,2.262,0,0,1-2.259-2.26,2.264,2.264,0,0,1,1.291-2.041v-2.972a6.462,6.462,0,0,1,6.455-6.455,6.462,6.462,0,0,1,6.454,6.455v2.972a2.262,2.262,0,0,1,1.291,2.041v.484a1.777,1.777,0,0,1-1.774,1.775h-2.749a3.231,3.231,0,0,1-3.222,3.053A3.231,3.231,0,0,1-1272.477-720.707Zm3.223,1.762a1.938,1.938,0,0,0,1.928-1.762h-3.857A1.939,1.939,0,0,0-1269.254-718.945Zm5.97-3.053a.484.484,0,0,0,.483-.484v-.484a.968.968,0,0,0-.968-.968h-.323v-4.045a5.164,5.164,0,0,0-5.163-5.164,5.164,5.164,0,0,0-5.164,5.164v4.045h-.323a.968.968,0,0,0-.968.968.968.968,0,0,0,.968.969h11.458Z" transform="translate(1281.441 738.602)" fill="#fff"/>
      <rect id="Rectangle_3192" data-name="Rectangle 3192" width="18" height="18" transform="translate(3.441 3.167)" fill="#fff" opacity="0"/>
    </g>
  </g>
</svg>
