<svg xmlns="http://www.w3.org/2000/svg" xmlns:xlink="http://www.w3.org/1999/xlink" width="56" height="56" viewBox="0 0 56 56">
  <defs>
    <linearGradient id="linear-gradient" x1="0.5" x2="0.5" y2="1" gradientUnits="objectBoundingBox">
      <stop offset="0" stop-color="#d850ff"/>
      <stop offset="1" stop-color="#9431ac"/>
    </linearGradient>
    <linearGradient id="linear-gradient-3" x1="0.099" y1="0.125" x2="0.835" y2="0.89" gradientUnits="objectBoundingBox">
      <stop offset="0" stop-color="#ff628c"/>
      <stop offset="1" stop-color="#f42664"/>
    </linearGradient>
    <filter id="Ellipse_661" x="9" y="11" width="42" height="42" filterUnits="userSpaceOnUse">
      <feOffset dx="2" dy="4" input="SourceAlpha"/>
      <feGaussianBlur stdDeviation="2" result="blur"/>
      <feFlood flood-opacity="0.161"/>
      <feComposite operator="in" in2="blur"/>
      <feComposite in="SourceGraphic"/>
    </filter>
    <linearGradient id="linear-gradient-4" x1="0.13" y1="0.173" x2="0.835" y2="0.89" gradientUnits="objectBoundingBox">
      <stop offset="0" stop-color="#fff"/>
      <stop offset="1" stop-color="#ffe9ef"/>
    </linearGradient>
    <filter id="Ellipse_662">
      <feOffset input="SourceAlpha"/>
      <feGaussianBlur stdDeviation="2" result="blur-2"/>
      <feFlood flood-color="#ff628c" flood-opacity="0.102" result="color"/>
      <feComposite operator="out" in="SourceGraphic" in2="blur-2"/>
      <feComposite operator="in" in="color"/>
      <feComposite operator="in" in2="SourceGraphic"/>
    </filter>
    <linearGradient id="linear-gradient-5" x1="0.13" y1="0.173" x2="0.835" y2="0.89" gradientUnits="objectBoundingBox">
      <stop offset="0" stop-color="#ffde09"/>
      <stop offset="1" stop-color="#feaf11"/>
    </linearGradient>
    <filter id="Ellipse_665">
      <feOffset input="SourceAlpha"/>
      <feGaussianBlur stdDeviation="2" result="blur-3"/>
      <feFlood flood-color="#ff628c" flood-opacity="0.102" result="color-2"/>
      <feComposite operator="out" in="SourceGraphic" in2="blur-3"/>
      <feComposite operator="in" in="color-2"/>
      <feComposite operator="in" in2="SourceGraphic"/>
    </filter>
    <linearGradient id="linear-gradient-7" x1="0.5" x2="0.5" y2="1" gradientUnits="objectBoundingBox">
      <stop offset="0" stop-color="#5a5858"/>
      <stop offset="1" stop-color="#1e1e1e"/>
    </linearGradient>
  </defs>
  <g id="Group_110083" data-name="Group 110083" transform="translate(-200 -762)">
    <g transform="matrix(1, 0, 0, 1, 200, 762)" filter="url(#Ellipse_661)">
      <circle id="Ellipse_661-2" data-name="Ellipse 661" cx="15" cy="15" r="15" transform="translate(13 13)" fill="url(#linear-gradient-3)"/>
    </g>
    <g data-type="innerShadowGroup">
      <circle id="Ellipse_662-2" data-name="Ellipse 662" cx="12" cy="12" r="12" transform="translate(216 778)" fill="url(#linear-gradient-4)"/>
      <g transform="matrix(1, 0, 0, 1, 200, 762)" filter="url(#Ellipse_662)">
        <circle id="Ellipse_662-3" data-name="Ellipse 662" cx="12" cy="12" r="12" transform="translate(16 16)" fill="#fff"/>
      </g>
    </g>
    <circle id="Ellipse_663" data-name="Ellipse 663" cx="8" cy="8" r="8" transform="translate(220 782)" fill="url(#linear-gradient-5)"/>
    <g data-type="innerShadowGroup">
      <circle id="Ellipse_665-2" data-name="Ellipse 665" cx="3" cy="3" r="3" transform="translate(225 787)" fill="url(#linear-gradient-4)"/>
      <g transform="matrix(1, 0, 0, 1, 200, 762)" filter="url(#Ellipse_665)">
        <circle id="Ellipse_665-3" data-name="Ellipse 665" cx="3" cy="3" r="3" transform="translate(25 25)" fill="#fff"/>
      </g>
    </g>
    <g id="Group_110067" data-name="Group 110067" transform="translate(22275.633 23844.381)">
      <rect id="Rectangle_19739" data-name="Rectangle 19739" width="2" height="18" rx="1" transform="translate(-22060.717 -23065.801) rotate(-45)" fill="url(#linear-gradient-7)"/>
      <path id="Union_156" data-name="Union 156" d="M2,7H1.988a.9.9,0,0,1-.448-.127,1.01,1.01,0,0,1-.129-.088L.445,6.066A1.159,1.159,0,0,1,0,5.137V1.119A1.063,1.063,0,0,1,1,0h.014a.918.918,0,0,1,.544.19L2,.522,2.446.19A.915.915,0,0,1,2.989,0H3A1.063,1.063,0,0,1,4,1.119V5.137a1.156,1.156,0,0,1-.445.929L2.573,6.8l-.055.04A.908.908,0,0,1,2.012,7Z" transform="translate(-22062.133 -23065.803) rotate(-45)" fill="url(#linear-gradient)"/>
    </g>
  </g>
</svg>
