<svg xmlns="http://www.w3.org/2000/svg" width="20" height="20" viewBox="0 0 20 20">
  <g id="그룹_111973" data-name="그룹 111973" transform="translate(15321.298 14048.298)">
    <rect id="사각형_20381" data-name="사각형 20381" width="20" height="20" transform="translate(-15321.298 -14048.298)" fill="none"/>
    <g id="그룹_111969" data-name="그룹 111969" transform="translate(-15320.023 -14046.306)">
      <g id="그룹_111970" data-name="그룹 111970" transform="translate(0 0)">
        <path id="패스_37899" data-name="패스 37899" d="M13.5,5.177a2.585,2.585,0,1,1-2.585,2.586A2.586,2.586,0,0,1,13.5,5.177" transform="translate(1.366 0.247)" fill="#fff"/>
        <path id="패스_37900" data-name="패스 37900" d="M13.5,5.177a2.585,2.585,0,1,1-2.585,2.586A2.586,2.586,0,0,1,13.5,5.177Z" transform="translate(1.366 0.247)" fill="none" stroke="#000" stroke-miterlimit="10" stroke-width="1"/>
        <path id="패스_37901" data-name="패스 37901" d="M5.675,13.06H1.661A1.161,1.161,0,0,1,.5,11.9V4.276A1.161,1.161,0,0,1,1.661,3.115H5.675Z" transform="translate(-0.5 -0.078)" fill="#fff"/>
        <path id="패스_37902" data-name="패스 37902" d="M5.675,13.06H1.661A1.161,1.161,0,0,1,.5,11.9V4.276A1.161,1.161,0,0,1,1.661,3.115H5.675Z" transform="translate(-0.5 -0.078)" fill="none" stroke="#000" stroke-miterlimit="10" stroke-width="1"/>
        <path id="패스_37903" data-name="패스 37903" d="M12.749,16.455,4.958,13.48V3.535L12.749.559a1.161,1.161,0,0,1,1.527,1.1V15.354a1.161,1.161,0,0,1-1.527,1.1" transform="translate(0.217 -0.499)" fill="#61dec2"/>
        <path id="패스_37904" data-name="패스 37904" d="M12.749,16.455,4.958,13.48V3.535L12.749.559a1.161,1.161,0,0,1,1.527,1.1V15.354A1.161,1.161,0,0,1,12.749,16.455Z" transform="translate(0.217 -0.499)" fill="none" stroke="#000" stroke-miterlimit="10" stroke-width="1"/>
      </g>
    </g>
  </g>
</svg>
