<svg xmlns="http://www.w3.org/2000/svg" width="60" height="60" viewBox="0 0 60 60">
  <g id="그룹_111862" data-name="그룹 111862" transform="translate(13049 18470)">
    <rect id="사각형_20333" data-name="사각형 20333" width="60" height="60" transform="translate(-13049 -18470)" fill="none"/>
    <g id="그룹_111861" data-name="그룹 111861" transform="translate(0 0.702)">
      <g id="사각형_20330" data-name="사각형 20330" transform="translate(-13047 -18459.207)" fill="#fff" stroke="#000" stroke-width="2">
        <rect width="56" height="35" rx="2" stroke="none"/>
        <rect x="1" y="1" width="54" height="33" rx="1" fill="none"/>
      </g>
      <g id="사각형_20331" data-name="사각형 20331" transform="translate(-13049 -18422.207)" fill="#fff" stroke="#000" stroke-width="2">
        <rect width="60" height="9" rx="4.5" stroke="none"/>
        <rect x="1" y="1" width="58" height="7" rx="3.5" fill="none"/>
      </g>
      <g id="그룹_111860" data-name="그룹 111860" transform="translate(-13033.99 -18468.195)">
        <path id="패스_36583" data-name="패스 36583" d="M52.265,59.479h3.258a.566.566,0,0,0,.558-.468l.473-2.68.514-.14a12,12,0,0,0,2.85-1.181l.462-.266,2.233,1.56a.568.568,0,0,0,.726-.064l2.308-2.305a.567.567,0,0,0,.064-.726l-1.355-1.937a.567.567,0,0,1-.028-.606l.821-1.438A.566.566,0,0,0,65.2,49.1l.433-1.594a.566.566,0,0,1,.449-.409l2.331-.414a.567.567,0,0,0,.468-.559V42.86a.566.566,0,0,0-.469-.558l-2.325-.41a.568.568,0,0,1-.449-.41l-.434-1.6a.575.575,0,0,0-.055-.133l-.825-1.439a.568.568,0,0,1,.027-.607l1.356-1.937a.567.567,0,0,0-.064-.726L63.34,32.736a.568.568,0,0,0-.726-.063l-2.231,1.562-.462-.264a11.957,11.957,0,0,0-2.849-1.177l-.518-.138-.473-2.688a.567.567,0,0,0-.558-.469H52.265a.567.567,0,0,0-.558.469l-.472,2.685-.515.14a12,12,0,0,0-2.85,1.181l-.463.267-2.232-1.566a.567.567,0,0,0-.727.063l-2.3,2.306a.567.567,0,0,0-.064.726L43.645,38l-.267.463a11.98,11.98,0,0,0-1.187,2.85l-.139.515-2.681.472a.566.566,0,0,0-.469.558v3.26a.567.567,0,0,0,.468.559l2.331.414a.566.566,0,0,1,.449.409l.434,1.6a.558.558,0,0,0,.055.133l.825,1.441a.567.567,0,0,1-.028.607l-1.355,1.931a.566.566,0,0,0,.063.726l2.3,2.3a.567.567,0,0,0,.726.064l2.231-1.558.461.262a12.14,12.14,0,0,0,2.853,1.183l.514.14.473,2.68A.566.566,0,0,0,52.265,59.479Z" transform="translate(-38.904 -29.5)" fill="#fff" stroke="#da2128" stroke-miterlimit="10" stroke-width="2"/>
        <circle id="타원_275" data-name="타원 275" cx="6.059" cy="6.059" r="6.059" transform="translate(8.932 8.929)" fill="#fff" stroke="#da2128" stroke-miterlimit="10" stroke-width="2"/>
      </g>
      <g id="사각형_20332" data-name="사각형 20332" transform="translate(-13025 -18422.207)" fill="#fff" stroke="#000" stroke-width="2">
        <path d="M0,0H12a0,0,0,0,1,0,0V3a2,2,0,0,1-2,2H2A2,2,0,0,1,0,3V0A0,0,0,0,1,0,0Z" stroke="none"/>
        <path d="M1,1H11a0,0,0,0,1,0,0V3a1,1,0,0,1-1,1H2A1,1,0,0,1,1,3V1A0,0,0,0,1,1,1Z" fill="none"/>
      </g>
    </g>
  </g>
</svg>
