<svg xmlns="http://www.w3.org/2000/svg" width="36.056" height="55.636" viewBox="0 0 36.056 55.636">
  <g id="그룹_111959" data-name="그룹 111959" transform="translate(0.902 1)">
    <g id="그룹_111951" data-name="그룹 111951">
      <g id="그룹_111952" data-name="그룹 111952" transform="translate(0 0)">
        <rect id="사각형_20378" data-name="사각형 20378" width="34.055" height="53.636" rx="3" transform="translate(0.097)" fill="none" stroke="#000" stroke-miterlimit="10" stroke-width="2"/>
        <line id="선_237" data-name="선 237" x2="34.152" transform="translate(0 8.543)" fill="none" stroke="#000" stroke-miterlimit="10" stroke-width="2"/>
        <line id="선_238" data-name="선 238" x2="34.152" transform="translate(0 44.158)" fill="none" stroke="#000" stroke-miterlimit="10" stroke-width="2"/>
        <circle id="타원_680" data-name="타원 680" cx="1.64" cy="1.64" r="1.64" transform="translate(15.485 47.439)"/>
        <g id="그룹_112423" data-name="그룹 112423" transform="translate(-11408.14 17600.553)">
          <g id="사각형_20656" data-name="사각형 20656" transform="translate(11415 -17585)" fill="none" stroke="#da2128" stroke-width="2">
            <rect width="6" height="6" rx="1" stroke="none"/>
            <rect x="1" y="1" width="4" height="4" fill="none"/>
          </g>
          <g id="사각형_20661" data-name="사각형 20661" transform="translate(11415 -17577.734)" fill="none" stroke="#da2128" stroke-width="2">
            <rect width="6" height="6" rx="1" stroke="none"/>
            <rect x="1" y="1" width="4" height="4" fill="none"/>
          </g>
          <g id="사각형_20664" data-name="사각형 20664" transform="translate(11415 -17570.469)" fill="none" stroke="#da2128" stroke-width="2">
            <rect width="6" height="6" rx="1" stroke="none"/>
            <rect x="1" y="1" width="4" height="4" fill="none"/>
          </g>
          <g id="사각형_20657" data-name="사각형 20657" transform="translate(11422.266 -17585)" fill="none" stroke="#da2128" stroke-width="2">
            <rect width="6" height="6" rx="1" stroke="none"/>
            <rect x="1" y="1" width="4" height="4" fill="none"/>
          </g>
          <g id="사각형_20660" data-name="사각형 20660" transform="translate(11422.266 -17577.734)" fill="none" stroke="#da2128" stroke-width="2">
            <rect width="6" height="6" rx="1" stroke="none"/>
            <rect x="1" y="1" width="4" height="4" fill="none"/>
          </g>
          <g id="사각형_20663" data-name="사각형 20663" transform="translate(11422.266 -17570.469)" fill="none" stroke="#da2128" stroke-width="2">
            <rect width="6" height="6" rx="1" stroke="none"/>
            <rect x="1" y="1" width="4" height="4" fill="none"/>
          </g>
          <g id="사각형_20658" data-name="사각형 20658" transform="translate(11429.531 -17585)" fill="none" stroke="#da2128" stroke-width="2">
            <rect width="6" height="6" rx="1" stroke="none"/>
            <rect x="1" y="1" width="4" height="4" fill="none"/>
          </g>
          <g id="사각형_20659" data-name="사각형 20659" transform="translate(11429.531 -17577.734)" fill="none" stroke="#da2128" stroke-width="2">
            <rect width="6" height="6" rx="1" stroke="none"/>
            <rect x="1" y="1" width="4" height="4" fill="none"/>
          </g>
          <g id="사각형_20662" data-name="사각형 20662" transform="translate(11429.531 -17570.469)" fill="none" stroke="#da2128" stroke-width="2">
            <rect width="6" height="6" rx="1" stroke="none"/>
            <rect x="1" y="1" width="4" height="4" fill="none"/>
          </g>
        </g>
      </g>
    </g>
  </g>
</svg>
