<?xml version="1.0" encoding="utf-8"?>
<!-- Generator: Adobe Illustrator 26.0.3, SVG Export Plug-In . SVG Version: 6.00 Build 0)  -->
<svg version="1.1" id="Layer_1" xmlns="http://www.w3.org/2000/svg" xmlns:xlink="http://www.w3.org/1999/xlink" x="0px" y="0px"
	 viewBox="0 0 56 56" style="enable-background:new 0 0 56 56;" xml:space="preserve">
<style type="text/css">
	.st0{filter:url(#Path_37339);}
	.st1{fill:url(#Path_37339-2_00000119096279732607757470000002047781338277881515_);}
	.st2{filter:url(#Path_37340);}
	.st3{fill:url(#Path_37340-2_00000102520018059616045340000006008937843716255415_);}
	.st4{filter:url(#Rectangle_20443);}
	.st5{fill:url(#Rectangle_20443-2_00000046337275088537215990000013370436783966199186_);}
	.st6{filter:url(#Rectangle_20445);}
	.st7{fill:url(#Rectangle_20445-2_00000143595799591309808820000010148387446955423104_);}
</style>
<filter  filterUnits="userSpaceOnUse" height="24.299" id="Rectangle_20445" width="16.168" x="20.589" y="13.411">
	<feOffset  dx="2" dy="4" input="SourceAlpha"></feOffset>
	<feGaussianBlur  result="blur-4" stdDeviation="2"></feGaussianBlur>
	<feFlood  flood-opacity="0.161"></feFlood>
	<feComposite  in2="blur-4" operator="in"></feComposite>
	<feComposite  in="SourceGraphic" operator="over"></feComposite>
</filter>
<filter  filterUnits="userSpaceOnUse" height="24.299" id="Rectangle_20443" width="16.168" x="4.937" y="13.411">
	<feOffset  dx="2" dy="4" input="SourceAlpha"></feOffset>
	<feGaussianBlur  result="blur-3" stdDeviation="2"></feGaussianBlur>
	<feFlood  flood-opacity="0.161"></feFlood>
	<feComposite  in2="blur-3" operator="in"></feComposite>
	<feComposite  in="SourceGraphic" operator="over"></feComposite>
</filter>
<filter  filterUnits="userSpaceOnUse" height="21.451" id="Path_37340" width="41.694" x="0" y="14.835">
	<feOffset  dx="2" dy="4" input="SourceAlpha"></feOffset>
	<feGaussianBlur  result="blur-2" stdDeviation="2"></feGaussianBlur>
	<feFlood  flood-opacity="0.161"></feFlood>
	<feComposite  in2="blur-2" operator="in"></feComposite>
	<feComposite  in="SourceGraphic" operator="over"></feComposite>
</filter>
<filter  filterUnits="userSpaceOnUse" height="33.442" id="Path_37339" width="37.125" x="2.285" y="0">
	<feOffset  dx="2" dy="4" input="SourceAlpha"></feOffset>
	<feGaussianBlur  result="blur" stdDeviation="2"></feGaussianBlur>
	<feFlood  flood-opacity="0.161"></feFlood>
	<feComposite  in2="blur" operator="in"></feComposite>
	<feComposite  in="SourceGraphic" operator="over"></feComposite>
</filter>
<g id="Group_112043" transform="translate(-25.851 -34.439)">
	<g id="Group_112038" transform="translate(29.851 36.439)">
		<g id="Group_112025" transform="translate(2.285 0)">
			<g transform="matrix(1, 0, 0, 1, -6.28, -2)" class="st0">
				
					<linearGradient id="Path_37339-2_00000065076686934826698120000014915785412691302034_" gradientUnits="userSpaceOnUse" x1="-257.8845" y1="429.7825" x2="-257.2095" y2="429.0335" gradientTransform="matrix(25.125 0 0 -21.4435 6496.0327 9234.7705)">
					<stop  offset="0" style="stop-color:#FFDF9A"/>
					<stop  offset="1" style="stop-color:#FFB833"/>
				</linearGradient>
				
					<path id="Path_37339-2_00000023997011869929532310000017180758241001432194_" style="fill:url(#Path_37339-2_00000065076686934826698120000014915785412691302034_);" d="
					M15.4,27.7v8.9H17v-8.9c0-6.1,4.9-11,11-11s11,4.9,11,11v8.9h1.6v-8.9c0-6.9-5.6-12.6-12.6-12.6S15.4,20.8,15.4,27.7"/>
			</g>
		</g>
		<g id="Group_112027" transform="translate(0 14.835)">
			<g id="Group_112039">
				<g transform="matrix(1, 0, 0, 1, -4, -16.83)" class="st2">
					
						<linearGradient id="Path_37340-2_00000126309691152493629420000003194902821218100666_" gradientUnits="userSpaceOnUse" x1="-259.7061" y1="405.9387" x2="-258.5551" y2="404.9387" gradientTransform="matrix(29.6916 0 0 -9.4574 7722.0483 3869.1023)">
						<stop  offset="0" style="stop-color:#FF6565"/>
						<stop  offset="1" style="stop-color:#FF58A5"/>
					</linearGradient>
					
						<path id="Path_37340-2_00000117660137111724992800000017267669631115101102_" style="fill:url(#Path_37340-2_00000126309691152493629420000003194902821218100666_);" d="
						M13.2,34.7c0,2.6,2.1,4.7,4.7,4.7c0.4,0,0.7,0,1.1-0.1v-9.2c-2.5-0.6-5.1,1-5.7,3.5C13.2,34,13.2,34.3,13.2,34.7 M38.1,30
						c-0.4,0-0.7,0-1.1,0.1v9.2c2.5,0.6,5.1-1,5.7-3.5s-1-5.1-3.5-5.7C38.9,30,38.5,30,38.1,30"/>
				</g>
			</g>
		</g>
	</g>
	<g transform="matrix(1, 0, 0, 1, 25.85, 34.44)" class="st4">
		
			<linearGradient id="Rectangle_20443-2_00000169539100853539111160000017748588135951664312_" gradientUnits="userSpaceOnUse" x1="-202.2471" y1="415.8179" x2="-201.2471" y2="414.8839" gradientTransform="matrix(4.168 0 0 -12.299 861.1279 5143.2959)">
			<stop  offset="0" style="stop-color:#FFE09D"/>
			<stop  offset="1" style="stop-color:#FFB324"/>
		</linearGradient>
		
			<path id="Rectangle_20443-2_00000158010671854969322940000016627047616486820745_" style="fill:url(#Rectangle_20443-2_00000169539100853539111160000017748588135951664312_);" d="
			M20.2,28.6L20.2,28.6c1.2,0,2.1,0.9,2.1,2.1v8.1c0,1.2-0.9,2.1-2.1,2.1l0,0c-1.2,0-2.1-0.9-2.1-2.1v-8.1
			C18.1,29.5,19,28.6,20.2,28.6z"/>
	</g>
	<g transform="matrix(1, 0, 0, 1, 25.85, 34.44)" class="st6">
		
			<linearGradient id="Rectangle_20445-2_00000065068837669533089330000017881172156992547498_" gradientUnits="userSpaceOnUse" x1="-202.2499" y1="415.8258" x2="-201.2499" y2="414.8808" gradientTransform="matrix(4.168 0 0 -12.299 876.7779 5143.2959)">
			<stop  offset="0" style="stop-color:#FFE09C"/>
			<stop  offset="1" style="stop-color:#FFB62D"/>
		</linearGradient>
		
			<path id="Rectangle_20445-2_00000136408707675123249060000004414883171769579403_" style="fill:url(#Rectangle_20445-2_00000065068837669533089330000017881172156992547498_);" d="
			M35.8,28.6L35.8,28.6c1.2,0,2.1,0.9,2.1,2.1v8.1c0,1.2-0.9,2.1-2.1,2.1l0,0c-1.2,0-2.1-0.9-2.1-2.1v-8.1
			C33.7,29.5,34.7,28.6,35.8,28.6z"/>
	</g>
</g>
</svg>
