<?xml version="1.0" encoding="utf-8"?>
<!-- Generator: Adobe Illustrator 26.1.0, SVG Export Plug-In . SVG Version: 6.00 Build 0)  -->
<svg version="1.1" id="Layer_1" xmlns="http://www.w3.org/2000/svg" xmlns:xlink="http://www.w3.org/1999/xlink" x="0px" y="0px" viewBox="0 0 69.1 37.4" style="enable-background:new 0 0 69.1 37.4;" xml:space="preserve">
<style type="text/css">
.st0{enable-background:new;}
.st1{fill:#FFED12;}
.st2{fill:none;stroke:#000000;}
.st3{fill:none;}
.st4{fill:none;stroke:#040405;stroke-width:2.5014;stroke-linecap:round;stroke-linejoin:round;stroke-miterlimit:4.0022;}

#line1 {animation:ani1 linear both infinite 3s;}
#line2 {animation:ani2 linear both infinite 3s;}
#line3 {animation:ani3 linear both infinite 3s;}

@keyframes ani1 {
0% {opacity:0;}	
10% {opacity:1;}
95% {opacity:1;}
100% {opacity:0;}
}
@keyframes ani2 {
0% {opacity:0;}
10% {opacity:0;}
20% {opacity:1;}
95% {opacity:1;}
100% {opacity:0;}
}
@keyframes ani3 {
0% {opacity:0;}	
20% {opacity:0;}
30% {opacity:1;}
95% {opacity:1;}
100% {opacity:0;}
}
</style>
<g class="st0">
	<path d="M13.5,13.9h3l8.1,9.8v-10h3.6V30h-3l-8.1-9.8v10h-3.6V13.9z"/>
	<path d="M30.7,13.9h12.1V17h-8.5v3.3h7.8v3.2h-7.8V27H43v3.2H30.7V13.9z"/>
	<path d="M66.4,13.9l-4.7,16.3H58L55.1,20l-2.9,10.2h-3.7l-4.7-16.3h3.9l2.8,10.7l2.8-10.7h3.8l2.8,10.6l2.8-10.6H66.4z"/>
</g>
<g class="st0">
	<path d="M13.5,13.9h3l8.1,9.8v-10h3.6V30h-3l-8.1-9.8v10h-3.6V13.9z"/>
	<path d="M30.7,13.9h12.1V17h-8.5v3.3h7.8v3.2h-7.8V27H43v3.2H30.7V13.9z"/>
	<path d="M66.4,13.9l-4.7,16.3H58L55.1,20l-2.9,10.2h-3.7l-4.7-16.3h3.9l2.8,10.7l2.8-10.7h3.8l2.8,10.6l2.8-10.6H66.4z"/>
</g>
<g class="st0">
	<path class="st1" d="M12.5,12.9h3l8.1,9.8v-10h3.6V29h-3l-8.1-9.8v10h-3.6V12.9z"/>
	<path class="st1" d="M29.7,12.9h12.1V16h-8.5v3.3h7.8v3.2h-7.8V26H42v3.2H29.7V12.9z"/>
	<path class="st1" d="M65.4,12.9l-4.7,16.3H57L54.1,19l-2.9,10.2h-3.7l-4.7-16.3h3.9l2.8,10.7l2.8-10.7h3.8l2.8,10.6l2.8-10.6H65.4z
		"/>
</g>
<g class="st0">
	<path class="st2" d="M12.5,12.9h3l8.1,9.8v-10h3.6V29h-3l-8.1-9.8v10h-3.6V12.9z"/>
	<path class="st2" d="M29.7,12.9h12.1V16h-8.5v3.3h7.8v3.2h-7.8V26H42v3.2H29.7V12.9z"/>
	<path class="st2" d="M65.4,12.9l-4.7,16.3H57L54.1,19l-2.9,10.2h-3.7l-4.7-16.3h3.9l2.8,10.7l2.8-10.7h3.8l2.8,10.6l2.8-10.6H65.4z
		"/>
</g>
<g id="그룹_110093" transform="matrix(0.921, -0.391, 0.391, 0.921, -8.592, 9.868)">
	<line id="line3" class="st4" x1="24.7" y1="9.5" x2="27.3" y2="3.2"/>
	<line id="line2" class="st4" x1="19.1" y1="7.9" x2="19.1" y2="1.1"/>
	<line id="line1" class="st4" x1="13.5" y1="9.5" x2="10.2" y2="3.8"/>
</g>
</svg>
