<svg xmlns="http://www.w3.org/2000/svg" width="60" height="60" viewBox="0 0 60 60">
  <g id="icon_alarm" transform="translate(9927 16030.306)">
    <rect id="사각형_20379" data-name="사각형 20379" width="60" height="60" transform="translate(-9927 -16030.306)" fill="none"/>
    <g id="그룹_111959" data-name="그룹 111959">
      <g id="그룹_111951" data-name="그룹 111951" transform="translate(-9921 -16024.92)">
        <g id="그룹_111952" data-name="그룹 111952" transform="translate(-6 0)">
          <rect id="사각형_20378" data-name="사각형 20378" width="36.336" height="57.227" rx="3" transform="translate(11.884 -4)" fill="none" stroke="#000" stroke-miterlimit="10" stroke-width="2"/>
          <line id="선_237" data-name="선 237" x2="36.439" transform="translate(11.78 5.115)" fill="none" stroke="#000" stroke-miterlimit="10" stroke-width="2"/>
          <line id="선_238" data-name="선 238" x2="36.439" transform="translate(11.78 43.115)" fill="none" stroke="#000" stroke-miterlimit="10" stroke-width="2"/>
          <g id="그룹_111953" data-name="그룹 111953" transform="translate(22.301 14.313)">
            <g id="타원_679" data-name="타원 679" transform="translate(4.334 13.533)" fill="#fff" stroke="#da2128" stroke-width="2">
              <circle cx="3.533" cy="3.533" r="3.533" stroke="none"/>
              <circle cx="3.533" cy="3.533" r="2.533" fill="none"/>
            </g>
            <path id="패스_37887" data-name="패스 37887" d="M58.813,50.786a5.933,5.933,0,0,1,6.009,6.356v2.721s-.251,2.818,1.726,3.695h-15.5c1.977-.877,1.653-3.695,1.653-3.695V57.142c0-6.438,6.089-6.356,6.089-6.356Z" transform="translate(-51.047 -48.421)" fill="#fff" stroke="#da2128" stroke-linecap="round" stroke-linejoin="round" stroke-width="2"/>
            <line id="선_239" data-name="선 239" y1="2.365" transform="translate(7.741)" fill="none" stroke="#da2128" stroke-linecap="round" stroke-miterlimit="10" stroke-width="2"/>
          </g>
          <circle id="타원_680" data-name="타원 680" cx="1.75" cy="1.75" r="1.75" transform="translate(28.302 46.615)"/>
        </g>
      </g>
    </g>
    <g id="그룹_111960" data-name="그룹 111960" transform="translate(-9925.975 -16010.313)">
      <path id="패스_37889" data-name="패스 37889" d="M11.066,55.394a14.269,14.269,0,0,1-1.24-6.113,14.269,14.269,0,0,1,1.24-6.113" transform="translate(-5.175 -39.275)" fill="none" stroke="#000" stroke-linecap="round" stroke-miterlimit="10" stroke-width="2"/>
      <path id="패스_37890" data-name="패스 37890" d="M2.439,53.56A16.559,16.559,0,0,1,1,46.464a16.56,16.56,0,0,1,1.438-7.1h0" transform="translate(-0.997 -36.457)" fill="none" stroke="#000" stroke-linecap="round" stroke-miterlimit="10" stroke-width="2"/>
    </g>
    <g id="그룹_111961" data-name="그룹 111961" transform="translate(-9868.025 -15990.299) rotate(180)">
      <path id="패스_37889-2" data-name="패스 37889" d="M11.066,55.394a14.269,14.269,0,0,1-1.24-6.113,14.269,14.269,0,0,1,1.24-6.113" transform="translate(-5.175 -39.275)" fill="none" stroke="#000" stroke-linecap="round" stroke-miterlimit="10" stroke-width="2"/>
      <path id="패스_37890-2" data-name="패스 37890" d="M2.439,53.56A16.559,16.559,0,0,1,1,46.464a16.56,16.56,0,0,1,1.438-7.1h0" transform="translate(-0.997 -36.457)" fill="none" stroke="#000" stroke-linecap="round" stroke-miterlimit="10" stroke-width="2"/>
    </g>
  </g>
</svg>
