<?xml version="1.0" encoding="utf-8"?>
<!-- Generator: Adobe Illustrator 26.0.3, SVG Export Plug-In . SVG Version: 6.00 Build 0)  -->
<svg version="1.1" xmlns="http://www.w3.org/2000/svg" xmlns:xlink="http://www.w3.org/1999/xlink" x="0px" y="0px"
	 viewBox="0 0 56 56" style="enable-background:new 0 0 56 56;" xml:space="preserve">
<style type="text/css">
	.st0{fill:url(#Path_36216-2_00000176722907055831285100000010182139504048289200_);}
	.st1{fill:url(#Path_36217-2_00000008833113123237646050000001995696771285657485_);}
	.st2{fill:url(#Polygon_33-2_00000041284770697781822790000011985491797670527113_);}
	.st3{fill:url(#SVGID_1_);}
	.st4{fill:#FFFFFF;}
	.st5{fill:url(#SVGID_00000035519901955308486100000017724863813977495967_);}
</style>
<g id="Layer_1">
	<g id="Group_1811" transform="translate(-21569.463 -18971.6)">
		<g id="Group_1665" transform="translate(0 0)">
			<g transform="matrix(1, 0, 0, 1, -6.2, -4.13)">
				
					<linearGradient id="Path_36216-2_00000134933551625359816070000005755533946433275268_" gradientUnits="userSpaceOnUse" x1="42891.6562" y1="-378.4695" x2="42892.3203" y2="-377.5652" gradientTransform="matrix(30.3884 0 0 27.7556 -1281814.125 29492.7793)">
					<stop  offset="0" style="stop-color:#FFBDA5"/>
					<stop  offset="1" style="stop-color:#ED6603"/>
				</linearGradient>
				<path id="Path_36216-2" style="fill:url(#Path_36216-2_00000134933551625359816070000005755533946433275268_);" d="
					M21614.1,18990.3c-5.8-2.2-9.4,4.2-10.4,5.4c-1-1.2-4.6-7.6-10.4-5.4c-6.9,2.6-8.5,17.4,10.4,27.3l0,0l0,0l0,0l0,0
					C21622.6,19007.7,21621,18992.9,21614.1,18990.3z"/>
			</g>
			<g transform="matrix(1, 0, 0, 1, -6.2, -4.13)">
				
					<linearGradient id="Path_36217-2_00000162329990237479932440000010685598262798577058_" gradientUnits="userSpaceOnUse" x1="42958.3906" y1="-331.3096" x2="42958.9766" y2="-330.3096" gradientTransform="matrix(4.9113 1.6911 -1.5447 4.4861 -189882.8906 -52161.2617)">
					<stop  offset="0" style="stop-color:#FFFFFF"/>
					<stop  offset="1" style="stop-color:#FFC4DD"/>
				</linearGradient>
				<path id="Path_36217-2" style="fill:url(#Path_36217-2_00000162329990237479932440000010685598262798577058_);" d="
					M21613.1,19000.4c-0.8-0.7-1.8,0.2-2,0.3c-0.1-0.2-0.3-1.5-1.4-1.4c-1.3,0-2.3,2.3,0.2,5l0,0
					C21613.5,19003.7,21614.1,19001.2,21613.1,19000.4z"/>
			</g>
			<g transform="matrix(1, 0, 0, 1, -6.2, -4.13)">
				
					<linearGradient id="Polygon_33-2_00000141425705693022468290000018297296186091241910_" gradientUnits="userSpaceOnUse" x1="42916.9102" y1="-322.7428" x2="42917.3984" y2="-322.0455" gradientTransform="matrix(6.8252 -0.6894 0.6185 6.1228 -271122.1562 50559.5977)">
					<stop  offset="0" style="stop-color:#FFFFFF"/>
					<stop  offset="1" style="stop-color:#FFDAEA"/>
				</linearGradient>
				<path id="Polygon_33-2" style="fill:url(#Polygon_33-2_00000141425705693022468290000018297296186091241910_);" d="
					M21596,18995.3c0.1-0.2,0.3-0.3,0.5-0.2c0.1,0,0.1,0.1,0.2,0.2l0.9,1.4c0.1,0.1,0.2,0.2,0.3,0.2h1.7c0.2,0,0.4,0.2,0.4,0.4
					c0,0.1,0,0.2-0.1,0.3l-1.1,1.1c-0.1,0.1-0.1,0.3-0.1,0.4l0.5,1.5c0.1,0.2-0.1,0.4-0.3,0.5c-0.1,0-0.2,0-0.3,0l-1.6-0.6
					c-0.1,0-0.2,0-0.4,0l-1.5,0.9c-0.2,0.1-0.4,0.1-0.5-0.1c0-0.1-0.1-0.2-0.1-0.2l0.2-1.5c0-0.1-0.1-0.3-0.2-0.4l-1.3-0.9
					c-0.2-0.1-0.2-0.4-0.1-0.6c0.1-0.1,0.1-0.1,0.2-0.2l1.6-0.4c0.1,0,0.2-0.1,0.3-0.2L21596,18995.3z"/>
			</g>
		</g>
	</g>
</g>
<g id="Layer_2">
	<linearGradient id="SVGID_1_" gradientUnits="userSpaceOnUse" x1="25.3056" y1="27.013" x2="30.4485" y2="27.013">
		<stop  offset="0" style="stop-color:#FFFFFF"/>
		<stop  offset="1" style="stop-color:#FFDAEA"/>
	</linearGradient>
	<circle class="st3" cx="27.9" cy="27" r="2.6"/>
	<path class="st4" d="M23,36.6"/>
</g>
<g id="Layer_3">
	
		<linearGradient id="SVGID_00000038404073071157939590000008455814850405103004_" gradientUnits="userSpaceOnUse" x1="22.9571" y1="33.612" x2="32.7969" y2="33.612">
		<stop  offset="0" style="stop-color:#FFFFFF"/>
		<stop  offset="1" style="stop-color:#FFDAEA"/>
	</linearGradient>
	<path style="fill:url(#SVGID_00000038404073071157939590000008455814850405103004_);" d="M27.9,30.7c0,0-4.9-0.1-4.9,4.6
		c0,0.5,0,0.9,0,1.3h4.9h4.9c0-0.3,0-0.8,0-1.3C32.8,30.5,27.9,30.7,27.9,30.7z"/>
</g>
</svg>
