<?xml version="1.0" encoding="utf-8"?>
<!-- Generator: Adobe Illustrator 26.3.1, SVG Export Plug-In . SVG Version: 6.00 Build 0)  -->
<svg version="1.1" id="Layer_1" xmlns="http://www.w3.org/2000/svg" xmlns:xlink="http://www.w3.org/1999/xlink" x="0px" y="0px" viewBox="0 0 32 32" style="enable-background:new 0 0 32 32;" xml:space="preserve">
<style type="text/css">
.st0{fill:#FFF398;}
.st1{fill:none;stroke:#000000;stroke-width:1.5;}
.st2{enable-background:new;}
</style>
<g id="Group_109726" transform="translate(-130 -130)">
	<g id="Ellipse_277" transform="translate(130 130)">
		<circle class="st0" cx="16" cy="16" r="16"/>
		<circle class="st1" cx="16" cy="16" r="15.2"/>
	</g>
	<g class="st2">
		<path d="M145.9,145.7c0,0.7-0.2,1.2-0.5,1.6c-0.3,0.4-0.8,0.6-1.3,0.6c-0.3,0-0.5-0.1-0.7-0.2c-0.2-0.1-0.5-0.3-0.8-0.6
			c-0.3-0.3-0.6-0.4-0.8-0.4c-0.2,0-0.4,0.1-0.5,0.3c-0.1,0.2-0.2,0.4-0.2,0.7l-1.2,0c0-0.7,0.2-1.2,0.5-1.6
			c0.3-0.4,0.8-0.6,1.3-0.6c0.3,0,0.5,0.1,0.8,0.2s0.5,0.3,0.8,0.6c0.3,0.3,0.6,0.4,0.8,0.4c0.2,0,0.4-0.1,0.5-0.3
			c0.1-0.2,0.2-0.4,0.2-0.7L145.9,145.7z"/>
		<path d="M150.5,146.9c-0.4,0.4-0.9,0.6-1.4,0.6c-0.7,0-1.2-0.2-1.7-0.7c-0.4-0.5-0.6-1.1-0.6-1.9c0-0.5,0.1-1,0.3-1.4
			c0.2-0.4,0.5-0.8,0.9-1s0.9-0.4,1.4-0.4c0.5,0,1,0.1,1.4,0.4s0.7,0.6,0.9,1.1c0.2,0.5,0.3,1,0.3,1.7v0.6c0,1.3-0.3,2.3-1,3.1
			c-0.6,0.7-1.6,1.1-2.8,1.2l-0.4,0v-1.3l0.3,0C149.7,148.7,150.4,148.1,150.5,146.9z M149.5,146.3c0.2,0,0.5-0.1,0.6-0.2
			c0.2-0.1,0.3-0.3,0.4-0.5V145c0-0.5-0.1-0.9-0.3-1.2s-0.5-0.4-0.8-0.4c-0.3,0-0.6,0.1-0.8,0.4c-0.2,0.3-0.3,0.6-0.3,1.1
			c0,0.4,0.1,0.8,0.3,1C148.9,146.1,149.1,146.3,149.5,146.3z"/>
	</g>
</g>
</svg>
