<svg xmlns="http://www.w3.org/2000/svg" xmlns:xlink="http://www.w3.org/1999/xlink" width="56" height="56" viewBox="0 0 56 56">
  <defs>
    <filter id="Rectangle_20438" x="9" y="11" width="42" height="42" filterUnits="userSpaceOnUse">
      <feOffset dx="2" dy="4" input="SourceAlpha"/>
      <feGaussianBlur stdDeviation="2" result="blur"/>
      <feFlood flood-opacity="0.161"/>
      <feComposite operator="in" in2="blur"/>
    </filter>
    <linearGradient id="linear-gradient" x1="0.047" y1="0.056" x2="0.95" y2="0.944" gradientUnits="objectBoundingBox">
      <stop offset="0" stop-color="#ff628c"/>
      <stop offset="1" stop-color="#f42664"/>
    </linearGradient>
    <filter id="Union_150" x="8.502" y="10.5" width="42.999" height="43" filterUnits="userSpaceOnUse">
      <feOffset dx="2" dy="4" input="SourceAlpha"/>
      <feGaussianBlur stdDeviation="2" result="blur-2"/>
      <feFlood flood-opacity="0.161"/>
      <feComposite operator="in" in2="blur-2"/>
    </filter>
    <filter id="Union_150-2" x="8.502" y="10.5" width="42.999" height="43" filterUnits="userSpaceOnUse">
      <feOffset input="SourceAlpha"/>
      <feGaussianBlur stdDeviation="0.5" result="blur-3"/>
      <feFlood flood-color="#fff" flood-opacity="0.161" result="color"/>
      <feComposite operator="out" in="SourceGraphic" in2="blur-3"/>
      <feComposite operator="in" in="color"/>
      <feComposite operator="in" in2="SourceGraphic"/>
    </filter>
    <linearGradient id="linear-gradient-3" x1="0.047" y1="0.056" x2="0.988" y2="1.041" gradientUnits="objectBoundingBox">
      <stop offset="0" stop-color="#fff"/>
      <stop offset="1" stop-color="#ffdbe5"/>
    </linearGradient>
    <linearGradient id="linear-gradient-4" x1="-0.008" y1="0.492" x2="0.975" y2="0.486" gradientUnits="objectBoundingBox">
      <stop offset="0" stop-color="#5a5858"/>
      <stop offset="1" stop-color="#1e1e1e"/>
    </linearGradient>
    <linearGradient id="linear-gradient-5" x1="-0.008" y1="0.508" x2="0.975" y2="0.514" xlink:href="#linear-gradient-4"/>
    <linearGradient id="linear-gradient-6" x1="0.097" y1="0.025" x2="0.924" y2="0.878" gradientUnits="objectBoundingBox">
      <stop offset="0" stop-color="#ffde09"/>
      <stop offset="1" stop-color="#feaf11"/>
    </linearGradient>
    <filter id="Ellipse_641" x="21.765" y="23.762" width="16.475" height="16.475" filterUnits="userSpaceOnUse">
      <feOffset dx="2" dy="4" input="SourceAlpha"/>
      <feGaussianBlur stdDeviation="2" result="blur-4"/>
      <feFlood flood-opacity="0.161"/>
      <feComposite operator="in" in2="blur-4"/>
      <feComposite in="SourceGraphic"/>
    </filter>
  </defs>
  <g id="Group_113209" data-name="Group 113209" transform="translate(-119 -852)">

    <g id="Group_112593" data-name="Group 112593" transform="translate(10566 8077)">
      <g transform="matrix(1, 0, 0, 1, -10447, -7225)" filter="url(#Rectangle_20438)">
        <rect id="Rectangle_20438-2" data-name="Rectangle 20438" width="30" height="30" rx="15" transform="translate(13 13)" fill="#fff" opacity="0"/>
      </g>
      <g id="Group_112592" data-name="Group 112592" transform="translate(-10433.998 -7212)">
        <g data-type="innerShadowGroup">
          <g transform="matrix(1, 0, 0, 1, -13, -13)" filter="url(#Union_150)">
            <path id="Union_150-3" data-name="Union 150" d="M15,0A15,15,0,0,1,30,15h0A15,15,0,0,1,0,15H0A15,15,0,0,1,15,0Z" transform="translate(13 13)" stroke="rgba(0,0,0,0)" stroke-miterlimit="10" stroke-width="1" fill="url(#linear-gradient)"/>
          </g>
          <path id="Union_150-4" data-name="Union 150" d="M15,0A15,15,0,0,1,30,15h0A15,15,0,0,1,0,15H0A15,15,0,0,1,15,0Z" transform="translate(0 0)" fill="url(#linear-gradient)"/>
          <g transform="matrix(1, 0, 0, 1, -13, -13)" filter="url(#Union_150-2)">
            <path id="Union_150-5" data-name="Union 150" d="M15,0A15,15,0,0,1,30,15h0A15,15,0,0,1,0,15H0A15,15,0,0,1,15,0Z" transform="translate(13 13)" fill="#fff"/>
          </g>
          <path id="Union_150-6" data-name="Union 150" d="M15,0A15,15,0,0,1,30,15h0A15,15,0,0,1,0,15H0A15,15,0,0,1,15,0Z" transform="translate(0 0)" fill="none" stroke="rgba(0,0,0,0)" stroke-miterlimit="10" stroke-width="1"/>
        </g>
        <rect id="Rectangle_19703" data-name="Rectangle 19703" width="23.373" height="23.374" rx="11.686" transform="translate(3.314 3.313)" fill="url(#linear-gradient-3)"/>
        <rect id="Rectangle_19707" data-name="Rectangle 19707" width="1.119" height="7.83" rx="0.559" transform="translate(20.117 9.598) rotate(45)" fill="url(#linear-gradient-4)"/>
        <rect id="Rectangle_19706" data-name="Rectangle 19706" width="1.119" height="5.402" rx="0.559" transform="translate(15.324 15.039) rotate(135)" fill="url(#linear-gradient-5)"/>
        <g transform="matrix(1, 0, 0, 1, -13, -13)" filter="url(#Ellipse_641)">
          <circle id="Ellipse_641-2" data-name="Ellipse 641" cx="2.238" cy="2.238" r="2.238" transform="translate(25.76 25.76)" fill="url(#linear-gradient-6)"/>
        </g>
      </g>
    </g>
  </g>
</svg>
