<svg id="Group_111958" data-name="Group 111958" xmlns="http://www.w3.org/2000/svg" width="18" height="18" viewBox="0 0 18 18">
  <g id="txt" transform="translate(0 -2)">
    <path id="Path_37288" data-name="Path 37288" d="M3.272,10.719l8.31-8.275,1.1.3L15.174,5.73,7.16,13.883l-.909.555H3.272l-.348-2.2Z" fill="#ffc508"/>
    <g id="icon_review_h16" transform="translate(0 2)">
      <g id="Group_1892" data-name="Group 1892" transform="translate(1)">
        <path id="선_7" data-name="선 7" d="M14,.5H0v-1H14Z" transform="translate(0 16.5)"/>
        <g id="Group_84" data-name="Group 84" transform="translate(1.5)">
          <path id="패스_113" data-name="패스 113" d="M-49.5,1213.611h-1.861a1.825,1.825,0,0,1-1.823-1.823v-1.861a1.807,1.807,0,0,1,.473-1.224.5.5,0,0,1,.061-.074l7.483-7.483a1.807,1.807,0,0,1,1.288-.535,1.811,1.811,0,0,1,1.289.535l1.87,1.87a1.811,1.811,0,0,1,.534,1.291,1.808,1.808,0,0,1-.535,1.287l-7.483,7.483a.5.5,0,0,1-.076.063A1.808,1.808,0,0,1-49.5,1213.611Zm-2.383-4.335a.5.5,0,0,1-.057.067.816.816,0,0,0-.245.584v1.861a.824.824,0,0,0,.823.823H-49.5a.817.817,0,0,0,.584-.245.506.506,0,0,1,.068-.057l7.422-7.422a.815.815,0,0,0,.241-.581.818.818,0,0,0-.241-.583l-1.871-1.87a.818.818,0,0,0-.582-.242.814.814,0,0,0-.581.241Z" transform="translate(53.182 -1200.611)"/>
        </g>
      </g>
      <rect id="Rectangle_3080" data-name="Rectangle 3080" width="18" height="18" fill="#ffc508" opacity="0"/>
    </g>
  </g>
</svg>
