<svg xmlns="http://www.w3.org/2000/svg" width="70.39" height="74.792" viewBox="0 0 70.39 74.792">
<style type="text/css">
#heart1 {animation:heart1 both linear infinite 2s;}
@keyframes heart1 {
0% {opacity:0 }
30% {opacity:0}
50% {opacity:100}
70% {opacity:0}
100% {opacity:0}
}
#heart2 {animation:heart2 both linear infinite 2s;}
@keyframes heart2 {
0% {opacity:0 }
40% {opacity:0}
60% {opacity:100}
80% {opacity:0}
100% {opacity:0}
}
</style>
  <g id="그룹_110155" data-name="그룹 110155" transform="translate(-259.661 -1150.867)">
    <g id="body">
      <path id="패스_37263" data-name="패스 37263" d="M29.258,124.086c1.324,1.324,4.977,9.77,4.977,9.77s-8.447-3.654-9.77-4.978a3.389,3.389,0,0,1,4.793-4.793" transform="translate(272.169 1047.988)" fill="#fff" stroke="#000" stroke-width="1"/>
      <path id="패스_37264" data-name="패스 37264" d="M29.258,124.086c1.324,1.324,4.977,9.77,4.977,9.77s-8.447-3.654-9.77-4.978a3.389,3.389,0,0,1,4.793-4.793Z" transform="translate(272.169 1047.988)" fill="none" stroke="#000" stroke-linecap="round" stroke-linejoin="round" stroke-width="2"/>
      <path id="패스_37265" data-name="패스 37265" d="M48.353,124.086c-1.324,1.324-4.977,9.77-4.977,9.77s8.447-3.654,9.77-4.978a3.389,3.389,0,0,0-4.793-4.793" transform="translate(263.031 1047.988)" fill="#fff" stroke="#000" stroke-width="1"/>
      <path id="패스_37266" data-name="패스 37266" d="M48.353,124.086c-1.324,1.324-4.977,9.77-4.977,9.77s8.447-3.654,9.77-4.978a3.389,3.389,0,0,0-4.793-4.793Z" transform="translate(263.031 1047.988)" fill="none" stroke="#000" stroke-linecap="round" stroke-linejoin="round" stroke-width="2"/>
      <rect id="사각형_19796" data-name="사각형 19796" width="45.291" height="9.913" transform="translate(283.76 1182.159)" fill="#f06a86" stroke="#000" stroke-width="1"/>
      <rect id="사각형_19797" data-name="사각형 19797" width="45.291" height="9.913" transform="translate(283.76 1182.159)" fill="none" stroke="#000" stroke-linecap="round" stroke-linejoin="round" stroke-width="2"/>
      <rect id="사각형_19798" data-name="사각형 19798" width="41.361" height="32.586" transform="translate(285.724 1192.071)" fill="#f06a86" stroke="#000" stroke-width="1"/>
      <rect id="사각형_19799" data-name="사각형 19799" width="41.361" height="32.586" transform="translate(285.724 1192.071)" fill="none" stroke="#000" stroke-linecap="round" stroke-linejoin="round" stroke-width="2"/>
      <rect id="사각형_19800" data-name="사각형 19800" width="5.465" height="42.499" transform="translate(303.672 1182.159)" fill="#fff" stroke="#000" stroke-width="1"/>
      <rect id="사각형_19801" data-name="사각형 19801" width="5.465" height="42.499" transform="translate(303.672 1182.159)" fill="none" stroke="#000" stroke-linecap="round" stroke-linejoin="round" stroke-width="2"/>
    </g>
    <g id="heart2" data-name="그룹 112033" transform="matrix(0.985, -0.174, 0.174, 0.985, 260.596, 1153.504)">
      <path id="패스_37261" data-name="패스 37261" d="M8.075,1.758A2.406,2.406,0,0,0,4.961,3.205,2.406,2.406,0,0,0,3.456.119,2.459,2.459,0,0,0,.4,1.672l-.048.136A6.122,6.122,0,0,0,1.4,7.748L2.763,9.406l2.105-.427A6.122,6.122,0,0,0,9.421,5.025l.048-.136A2.458,2.458,0,0,0,8.075,1.758" transform="translate(0 0)" fill="#ff6e6e" stroke="#000" stroke-width="1.5"/>
      <path id="패스_37262" data-name="패스 37262" d="M8.075,1.758A2.406,2.406,0,0,0,4.961,3.205,2.406,2.406,0,0,0,3.456.119,2.459,2.459,0,0,0,.4,1.672l-.048.136A6.122,6.122,0,0,0,1.4,7.748L2.763,9.406l2.105-.427A6.122,6.122,0,0,0,9.421,5.025l.048-.136A2.458,2.458,0,0,0,8.075,1.758Z" transform="translate(0 0)" fill="none" stroke="#000" stroke-linecap="round" stroke-linejoin="round" stroke-width="1.5"/>
    </g>
    <g id="heart1" data-name="그룹 112034" transform="matrix(0.875, -0.485, 0.485, 0.875, 269.948, 1166.949)">
      <path id="패스_37261-2" data-name="패스 37261" d="M10.252,2.232A3.055,3.055,0,0,0,6.3,4.069,3.054,3.054,0,0,0,4.388.152,3.121,3.121,0,0,0,.509,2.123L.447,2.3a7.773,7.773,0,0,0,1.326,7.54l1.734,2.105L6.18,11.4A7.772,7.772,0,0,0,11.961,6.38l.061-.173a3.121,3.121,0,0,0-1.77-3.975" transform="translate(0 0)" fill="#ff3958" stroke="#000" stroke-width="1.5"/>
      <path id="패스_37262-2" data-name="패스 37262" d="M10.252,2.232A3.055,3.055,0,0,0,6.3,4.069,3.054,3.054,0,0,0,4.388.152,3.121,3.121,0,0,0,.509,2.123L.447,2.3a7.773,7.773,0,0,0,1.326,7.54l1.734,2.105L6.18,11.4A7.772,7.772,0,0,0,11.961,6.38l.061-.173A3.121,3.121,0,0,0,10.252,2.232Z" transform="translate(0 0)" fill="none" stroke="#000" stroke-linecap="round" stroke-linejoin="round" stroke-width="1.5"/>
    </g>
  </g>
</svg>
