<svg xmlns="http://www.w3.org/2000/svg" width="32" height="32" viewBox="0 0 32 32">
  <g id="Group_116429" data-name="Group 116429" transform="translate(16999.055 8458.879)">
    <rect id="Rectangle_21783" data-name="Rectangle 21783" width="32" height="32" transform="translate(-16999.055 -8458.879)" fill="none"/>
    <g id="Group_115781" data-name="Group 115781" transform="translate(-16995.344 -8455.164)">
      <g id="Group_115782" data-name="Group 115782">
        <path id="Path_51941" data-name="Path 51941" d="M5.852,22.851c-2.9,0-5.352-4.6-5.352-10.034S2.951,2.783,5.852,2.783,11.2,7.379,11.2,12.817,8.752,22.851,5.852,22.851" transform="translate(-0.151 0.94)" fill="#fff" stroke="#000" stroke-width="1.2"/>
        <path id="Path_51943" data-name="Path 51943" d="M4.085,15.472a3.345,3.345,0,1,1,3.345-3.345,3.349,3.349,0,0,1-3.345,3.345" transform="translate(-0.07 2.968)" fill="#82540f"/>
        <path id="Path_51944" data-name="Path 51944" d="M4.253,9.622A2.676,2.676,0,1,1,1.577,12.3,2.678,2.678,0,0,1,4.253,9.622m0-1.338A4.014,4.014,0,1,0,8.266,12.3,4.013,4.013,0,0,0,4.253,8.284" transform="translate(-0.239 2.799)"/>
        <line id="Line_913" data-name="Line 913" y2="4.014" transform="translate(5.701)" fill="none" stroke="#000" stroke-miterlimit="10" stroke-width="1.2"/>
        <line id="Line_914" data-name="Line 914" x2="2.007" y2="3.476" transform="translate(1.474 1.317)" fill="none" stroke="#000" stroke-miterlimit="10" stroke-width="1.2"/>
        <line id="Line_915" data-name="Line 915" x1="2.007" y2="3.476" transform="translate(7.921 1.317)" fill="none" stroke="#000" stroke-miterlimit="10" stroke-width="1.2"/>
        <path id="Path_51951" data-name="Path 51951" d="M2.426,12.155a1.686,1.686,0,1,1,1.686-1.686,1.688,1.688,0,0,1-1.686,1.686" transform="translate(1.589 4.626)"/>
        <path id="Path_51949" data-name="Path 51949" d="M3.239,10.328A1.044,1.044,0,1,0,4.283,9.284a1.045,1.045,0,0,0-1.044,1.044" transform="translate(1.068 4.769)" fill="#fff"/>
      </g>
      <g id="Group_115783" data-name="Group 115783" transform="translate(13.379)">
        <path id="Path_51941-2" data-name="Path 51941" d="M5.852,22.851c-2.9,0-5.352-4.6-5.352-10.034S2.951,2.783,5.852,2.783,11.2,7.379,11.2,12.817,8.752,22.851,5.852,22.851" transform="translate(-0.151 0.94)" fill="#fff" stroke="#000" stroke-width="1.2"/>
        <path id="Path_51943-2" data-name="Path 51943" d="M4.085,15.472a3.345,3.345,0,1,1,3.345-3.345,3.349,3.349,0,0,1-3.345,3.345" transform="translate(-0.07 2.968)" fill="#82540f"/>
        <path id="Path_51944-2" data-name="Path 51944" d="M4.253,9.622A2.676,2.676,0,1,1,1.577,12.3,2.678,2.678,0,0,1,4.253,9.622m0-1.338A4.014,4.014,0,1,0,8.266,12.3,4.013,4.013,0,0,0,4.253,8.284" transform="translate(-0.239 2.799)"/>
        <line id="Line_913-2" data-name="Line 913" y2="4.014" transform="translate(5.701)" fill="none" stroke="#000" stroke-miterlimit="10" stroke-width="1.2"/>
        <line id="Line_914-2" data-name="Line 914" x2="2.007" y2="3.476" transform="translate(1.474 1.317)" fill="none" stroke="#000" stroke-miterlimit="10" stroke-width="1.2"/>
        <line id="Line_915-2" data-name="Line 915" x1="2.007" y2="3.476" transform="translate(7.921 1.317)" fill="none" stroke="#000" stroke-miterlimit="10" stroke-width="1.2"/>
        <path id="Path_51951-2" data-name="Path 51951" d="M2.426,12.155a1.686,1.686,0,1,1,1.686-1.686,1.688,1.688,0,0,1-1.686,1.686" transform="translate(1.589 4.626)"/>
        <path id="Path_51949-2" data-name="Path 51949" d="M3.239,10.328A1.044,1.044,0,1,0,4.283,9.284a1.045,1.045,0,0,0-1.044,1.044" transform="translate(1.068 4.769)" fill="#fff"/>
      </g>
    </g>
  </g>
</svg>
