<svg id="그룹_116321" data-name="그룹 116321" xmlns="http://www.w3.org/2000/svg" width="72" height="72" viewBox="0 0 72 72">
  <rect id="사각형_22348" data-name="사각형 22348" width="72" height="72" transform="translate(0 0)" fill="none"/>
  <g id="그룹_116256" data-name="그룹 116256" transform="translate(5.567 7.543)">
    <g id="그룹_116255" data-name="그룹 116255">
      <path id="패스_42679" data-name="패스 42679" d="M49.8,11.48A10.979,10.979,0,1,1,38.816.5,10.98,10.98,0,0,1,49.8,11.48" transform="translate(-27.838 -0.5)" fill="#d89d7d" stroke="#000" stroke-width="2"/>
      <path id="패스_42681" data-name="패스 42681" d="M49.8,11.48A10.979,10.979,0,1,1,38.816.5,10.98,10.98,0,0,1,49.8,11.48" transform="translate(11.064 -0.5)" fill="#d89d7d" stroke="#000" stroke-width="2"/>
      <path id="패스_42680" data-name="패스 42680" d="M42.953,9.728A5.888,5.888,0,1,1,37.066,3.84a5.888,5.888,0,0,1,5.888,5.888" transform="translate(-26.086 1.252)" stroke="#000" stroke-width="1"/>
      <path id="패스_42682" data-name="패스 42682" d="M42.953,9.728A5.888,5.888,0,1,1,37.066,3.84a5.888,5.888,0,0,1,5.888,5.888" transform="translate(12.815 1.252)" stroke="#000" stroke-width="1"/>
    </g>
    <path id="패스_42669" data-name="패스 42669" d="M28.6,46.453A22.727,22.727,0,1,1,51.323,23.727,22.752,22.752,0,0,1,28.6,46.453" transform="translate(1.836 2.8)" fill="#d89d7d" stroke="#000" stroke-width="2"/>
    <ellipse id="타원_799" data-name="타원 799" cx="11.363" cy="9.091" rx="11.363" ry="9.091" transform="translate(19.059 26.526)" fill="#f6ddc9"/>
    <g id="그룹_116253" data-name="그룹 116253" transform="translate(23.678 29.141)">
      <path id="패스_42673" data-name="패스 42673" d="M24.107,20.413a2.5,2.5,0,0,1-2.128,1.946,2.5,2.5,0,0,1-2.13-1.946c0-.557.954-1.009,2.13-1.009s2.128.452,2.128,1.009" transform="translate(-15.228 -19.404)"/>
      <path id="패스_42674" data-name="패스 42674" d="M16.546,22.436a3.375,3.375,0,0,0,6.75,0" transform="translate(-16.546 -18.193)" fill="none" stroke="#000" stroke-linecap="round" stroke-linejoin="round" stroke-width="2"/>
      <path id="패스_42675" data-name="패스 42675" d="M21.371,22.436a3.374,3.374,0,0,0,6.748,0" transform="translate(-14.618 -18.193)" fill="none" stroke="#000" stroke-linecap="round" stroke-linejoin="round" stroke-width="2"/>
      <line id="선_805" data-name="선 805" y2="4.164" transform="translate(6.753 1.478)" fill="none" stroke="#000" stroke-linecap="round" stroke-linejoin="round" stroke-width="2"/>
    </g>
    <g id="그룹_116254" data-name="그룹 116254" transform="translate(13.544 40.173)">
      <g id="패스_42677" data-name="패스 42677" transform="translate(18.194 0) rotate(90)" fill="#fe696f">
        <path d="M 14.48678684234619 17.19391632080078 L 2.254626512527466 17.19391632080078 C 1.795796513557434 17.19391632080078 1.387866616249084 16.95499610900879 1.163426518440247 16.55480575561523 C 0.9389865398406982 16.15461540222168 0.9478265643119812 15.68195533752441 1.187086582183838 15.29044532775879 L 1.220626592636108 15.23557567596436 L 1.246856570243835 15.17685604095459 L 7.333104133605957 1.551900267601013 C 7.568278312683105 1.200380444526672 7.943402767181396 1.000005602836609 8.370706558227539 1.000005602836609 C 8.798000335693359 1.000005602836609 9.173123359680176 1.200368881225586 9.408297538757324 1.551896691322327 L 15.49454689025879 15.17685604095459 L 15.52077674865723 15.23557567596436 L 15.55431652069092 15.29044532775879 C 15.79357624053955 15.68195533752441 15.8024263381958 16.15461540222168 15.57798671722412 16.55480575561523 C 15.35354614257812 16.95499610900879 14.94561672210693 17.19391632080078 14.48678684234619 17.19391632080078 Z" stroke="none"/>
        <path d="M 8.370706558227539 1.999995231628418 C 8.286151885986328 1.999995231628418 8.232441902160645 2.032600402832031 8.199090003967285 2.065088272094727 L 2.107436180114746 15.70214557647705 L 2.040366172790527 15.8118953704834 C 2.019396781921387 15.84621524810791 1.963686943054199 15.93738555908203 2.035616874694824 16.06564521789551 C 2.107556343078613 16.19391632080078 2.214396476745605 16.19391632080078 2.254616737365723 16.19391632080078 L 14.48678684234619 16.19391632080078 C 14.52700614929199 16.19391632080078 14.63384628295898 16.19391632080078 14.70578670501709 16.06564521789551 C 14.77771663665771 15.93738555908203 14.72200679779053 15.84622573852539 14.70103645324707 15.81190586090088 L 14.63396644592285 15.70214557647705 L 8.542312622070312 2.06508731842041 C 8.50896167755127 2.032599449157715 8.455255508422852 1.999995231628418 8.370706558227539 1.999995231628418 M 8.370705604553223 0 C 9.111671447753906 0 9.852636337280273 0.3590850830078125 10.29151725769043 1.077255249023438 L 16.40759658813477 14.76899528503418 C 17.32428741455078 16.26901626586914 16.24472618103027 18.19391632080078 14.48678684234619 18.19391632080078 L 2.254616737365723 18.19391632080078 C 0.4966773986816406 18.19391632080078 -0.5828742980957031 16.26901626586914 0.3338069915771484 14.76899528503418 L 6.449886322021484 1.077255249023438 C 6.888772010803223 0.3590850830078125 7.629738807678223 0 8.370705604553223 0 Z" stroke="none" fill="#000"/>
      </g>
      <g id="패스_42676" data-name="패스 42676" transform="translate(15.571 16.741) rotate(-90)" fill="#fe696f">
        <path d="M 14.48678684234619 17.19391632080078 L 2.254626512527466 17.19391632080078 C 1.795796513557434 17.19391632080078 1.387866616249084 16.95499610900879 1.163426518440247 16.55480575561523 C 0.9389865398406982 16.15461540222168 0.9478265643119812 15.68195533752441 1.187086582183838 15.29044532775879 L 1.220626592636108 15.23557567596436 L 1.246856570243835 15.17685604095459 L 7.333104133605957 1.551900267601013 C 7.568278312683105 1.200380444526672 7.943402767181396 1.000005602836609 8.370706558227539 1.000005602836609 C 8.798000335693359 1.000005602836609 9.173123359680176 1.200368881225586 9.408297538757324 1.551896691322327 L 15.49454689025879 15.17685604095459 L 15.52077674865723 15.23557567596436 L 15.55431652069092 15.29044532775879 C 15.79357624053955 15.68195533752441 15.8024263381958 16.15461540222168 15.57798671722412 16.55480575561523 C 15.35354614257812 16.95499610900879 14.94561672210693 17.19391632080078 14.48678684234619 17.19391632080078 Z" stroke="none"/>
        <path d="M 8.370706558227539 1.999995231628418 C 8.286151885986328 1.999995231628418 8.232441902160645 2.032600402832031 8.199090003967285 2.065088272094727 L 2.107436180114746 15.70214557647705 L 2.040366172790527 15.8118953704834 C 2.019396781921387 15.84621524810791 1.963686943054199 15.93738555908203 2.035616874694824 16.06564521789551 C 2.107556343078613 16.19391632080078 2.214396476745605 16.19391632080078 2.254616737365723 16.19391632080078 L 14.48678684234619 16.19391632080078 C 14.52700614929199 16.19391632080078 14.63384628295898 16.19391632080078 14.70578670501709 16.06564521789551 C 14.77771663665771 15.93738555908203 14.72200679779053 15.84622573852539 14.70103645324707 15.81190586090088 L 14.63396644592285 15.70214557647705 L 8.542312622070312 2.06508731842041 C 8.50896167755127 2.032599449157715 8.455255508422852 1.999995231628418 8.370706558227539 1.999995231628418 M 8.370705604553223 0 C 9.111671447753906 0 9.852636337280273 0.3590850830078125 10.29151725769043 1.077255249023438 L 16.40759658813477 14.76899528503418 C 17.32428741455078 16.26901626586914 16.24472618103027 18.19391632080078 14.48678684234619 18.19391632080078 L 2.254616737365723 18.19391632080078 C 0.4966773986816406 18.19391632080078 -0.5828742980957031 16.26901626586914 0.3338069915771484 14.76899528503418 L 6.449886322021484 1.077255249023438 C 6.888772010803223 0.3590850830078125 7.629738807678223 0 8.370705604553223 0 Z" stroke="none" fill="#000"/>
      </g>
      <g id="타원_798" data-name="타원 798" transform="translate(11.256 2.743)" fill="#fe696f" stroke="#000" stroke-width="2">
        <circle cx="5.628" cy="5.628" r="5.628" stroke="none"/>
        <circle cx="5.628" cy="5.628" r="4.628" fill="none"/>
      </g>
    </g>
    <path id="패스_52258" data-name="패스 52258" d="M1,3.447a2.447,2.447,0,1,1,4.894,0" transform="translate(36.076 22.033)" fill="none" stroke="#000" stroke-linecap="round" stroke-linejoin="round" stroke-width="2"/>
    <path id="패스_52259" data-name="패스 52259" d="M1,3.447a2.447,2.447,0,1,1,4.894,0" transform="translate(17.891 22.033)" fill="none" stroke="#000" stroke-linecap="round" stroke-linejoin="round" stroke-width="2"/>
  </g>
</svg>
