<svg xmlns="http://www.w3.org/2000/svg" width="60" height="60" viewBox="0 0 60 60">
  <g id="그룹_109432" data-name="그룹 109432" transform="translate(12857 19435)">
    <g id="그룹_109431" data-name="그룹 109431" transform="translate(0.5 -41.483)">
      <g id="그룹_109427" data-name="그룹 109427" transform="translate(-12856.5 -19384.5)">
        <g id="그룹_109428" data-name="그룹 109428" transform="translate(0 0)">
          <rect id="사각형_19659" data-name="사각형 19659" width="58" height="41.967" rx="2" transform="translate(0)" fill="none" stroke="#000" stroke-miterlimit="10" stroke-width="2"/>
          <line id="선_170" data-name="선 170" x1="58" transform="translate(0 8.488)" fill="none" stroke="#000" stroke-miterlimit="10" stroke-width="2"/>
          <g id="그룹_109429" data-name="그룹 109429" transform="translate(17.771 13.337)">
            <path id="패스_36583" data-name="패스 36583" d="M48.912,51.956h2.441a.424.424,0,0,0,.418-.351l.354-2.008.385-.1a8.987,8.987,0,0,0,2.135-.884l.346-.2,1.673,1.168a.425.425,0,0,0,.544-.048L58.937,47.8a.425.425,0,0,0,.048-.544l-1.015-1.451a.425.425,0,0,1-.021-.454l.615-1.077a.42.42,0,0,0,.041-.1l.324-1.194a.424.424,0,0,1,.336-.306l1.746-.31a.425.425,0,0,0,.351-.419V39.508a.424.424,0,0,0-.351-.418l-1.742-.307a.425.425,0,0,1-.336-.307l-.325-1.2a.431.431,0,0,0-.041-.1L57.948,36.1a.426.426,0,0,1,.02-.455L58.985,34.2a.425.425,0,0,0-.048-.544l-1.729-1.729a.425.425,0,0,0-.544-.047l-1.671,1.17-.346-.2a8.958,8.958,0,0,0-2.134-.882l-.388-.1-.354-2.013a.425.425,0,0,0-.418-.351H48.912a.425.425,0,0,0-.418.351l-.354,2.011-.386.1a8.988,8.988,0,0,0-2.135.885l-.347.2L43.6,31.878a.425.425,0,0,0-.545.047l-1.725,1.727a.425.425,0,0,0-.048.544l1.172,1.672-.2.347a8.974,8.974,0,0,0-.889,2.135l-.1.386-2.008.354a.424.424,0,0,0-.351.418V41.95a.425.425,0,0,0,.351.419l1.746.31a.424.424,0,0,1,.336.306l.325,1.195a.419.419,0,0,0,.041.1l.618,1.079a.425.425,0,0,1-.021.455L41.285,47.26a.424.424,0,0,0,.047.544l1.725,1.726a.425.425,0,0,0,.544.048l1.671-1.167.345.2a9.094,9.094,0,0,0,2.137.886l.385.1.354,2.008A.424.424,0,0,0,48.912,51.956Z" transform="translate(-38.904 -29.5)" fill="none" stroke="#da2128" stroke-miterlimit="10" stroke-width="2"/>
            <ellipse id="타원_275" data-name="타원 275" cx="4.313" cy="4.313" rx="4.313" ry="4.313" transform="translate(6.916 7.069)" fill="none" stroke="#da2128" stroke-miterlimit="10" stroke-width="2"/>
          </g>
        </g>
      </g>
      <circle id="타원_276" data-name="타원 276" cx="1.036" cy="1.036" r="1.036" transform="translate(-12852.875 -19380.875)"/>
      <circle id="타원_277" data-name="타원 277" cx="1.036" cy="1.036" r="1.036" transform="translate(-12849.768 -19380.875)"/>
      <circle id="타원_278" data-name="타원 278" cx="1.036" cy="1.036" r="1.036" transform="translate(-12846.661 -19380.875)"/>
    </g>
    <rect id="사각형_19660" data-name="사각형 19660" width="60" height="60" transform="translate(-12857 -19435)" fill="none"/>
  </g>
</svg>
