<svg xmlns="http://www.w3.org/2000/svg" width="32" height="32" viewBox="0 0 32 32">
  <g id="Group_109735" data-name="Group 109735" transform="translate(-32 -231)">
    <rect id="Rectangle_19726" data-name="Rectangle 19726" width="32" height="32" transform="translate(32 231)" fill="#fff" opacity="0.39"/>
    <g id="Group_109720" data-name="Group 109720" transform="translate(38 233)">
      <path id="Path_36924" data-name="Path 36924" d="M51.436,125.1v-3.779l-5.591-.006V125.1Z" transform="translate(-38.381 -101.562)" fill="#fff"/>
      <g id="Group_109719" data-name="Group 109719" transform="translate(0 0)">
        <g id="Group_109721" data-name="Group 109721">
          <path id="Path_36925" data-name="Path 36925" d="M47.251,121.728H41.66a.814.814,0,0,1-.814-.814v-3.785a.814.814,0,0,1,.814-.814h0l5.591.006a.814.814,0,0,1,.813.814v3.779a.814.814,0,0,1-.814.814M42.474,120.1h3.962v-2.152l-3.962,0Z" transform="translate(-34.195 -97.376)"/>
          <path id="Path_36926" data-name="Path 36926" d="M18.7,137.555s6.48.245,6.816,5.71H7.415c.336-5.465,6.816-5.71,6.816-5.71a4.485,4.485,0,0,0,4.474,0" transform="translate(-6.208 -115.158)" fill="#6689ff"/>
          <path id="Path_36927" data-name="Path 36927" d="M21.334,139.893H3.229a.814.814,0,0,1-.813-.864c.3-4.9,5.1-6.379,7.6-6.474a.81.81,0,0,1,.5.151,3.709,3.709,0,0,0,3.645-.07.794.794,0,0,1,.387-.081c2.5.094,7.3,1.569,7.6,6.474a.814.814,0,0,1-.812.864M4.163,138.265H20.4a4.756,4.756,0,0,0-2.933-3.347,9.177,9.177,0,0,0-2.8-.722,5.386,5.386,0,0,1-4.823,0c-1,.09-4.913.66-5.686,4.067" transform="translate(-2.021 -110.971)"/>
          <path id="Path_36928" data-name="Path 36928" d="M7.433,78.393a1.525,1.525,0,0,1-.809.234A1.692,1.692,0,0,1,5,76.871,1.732,1.732,0,0,1,6.3,75.15" transform="translate(-4.186 -62.914)" fill="#fff"/>
          <path id="Path_36929" data-name="Path 36929" d="M2.438,75.253A2.509,2.509,0,0,1,0,72.684a2.556,2.556,0,0,1,1.936-2.516.814.814,0,0,1,.354,1.589.92.92,0,0,0-.663.926.884.884,0,0,0,.81.941.715.715,0,0,0,.381-.112A.814.814,0,1,1,3.676,74.9a2.351,2.351,0,0,1-1.238.356" transform="translate(0 -58.726)"/>
          <path id="Path_36930" data-name="Path 36930" d="M105.695,78.393a1.525,1.525,0,0,0,.809.234,1.692,1.692,0,0,0,1.624-1.755,1.732,1.732,0,0,0-1.3-1.721" transform="translate(-88.485 -62.914)" fill="#fff"/>
          <path id="Path_36931" data-name="Path 36931" d="M102.318,75.253a2.352,2.352,0,0,1-1.238-.356.814.814,0,0,1,.857-1.384.715.715,0,0,0,.381.112.884.884,0,0,0,.81-.941.92.92,0,0,0-.663-.926.814.814,0,0,1,.354-1.589,2.556,2.556,0,0,1,1.936,2.516,2.509,2.509,0,0,1-2.438,2.569" transform="translate(-84.299 -58.726)"/>
          <path id="Path_36932" data-name="Path 36932" d="M31.382,34.753a7.593,7.593,0,1,1-15.182,0l2.887-7.681,9.89-.21Z" transform="translate(-13.562 -22.488)" fill="#fff"/>
          <path id="Path_36933" data-name="Path 36933" d="M19.6,39.149a8.5,8.5,0,0,1-8.4-8.582.817.817,0,0,1,.052-.287L14.139,22.6a.815.815,0,0,1,.745-.528l9.89-.209a.82.82,0,0,1,.8.577l2.4,7.891a.819.819,0,0,1,.035.237,8.5,8.5,0,0,1-8.4,8.582M12.83,30.712a6.776,6.776,0,1,0,13.551-.026L24.192,23.5l-8.723.185Z" transform="translate(-9.376 -18.303)"/>
          <path id="Path_36934" data-name="Path 36934" d="M36.477,83.06a.747.747,0,1,1-.747.747.747.747,0,0,1,.747-.747" transform="translate(-29.912 -69.536)"/>
          <path id="Path_36935" data-name="Path 36935" d="M82.292,83.06a.747.747,0,1,1-.747.747.747.747,0,0,1,.747-.747" transform="translate(-68.268 -69.536)"/>
          <path id="Path_36936" data-name="Path 36936" d="M22.288,15.686a4.07,4.07,0,0,0,.592-2.524c-.429.713-4.065,2.3-4.065,2.3a12.9,12.9,0,0,0,.487-2.389c-.636,1.2-4.869,2.061-4.869,2.061a8.484,8.484,0,0,0,.732-2.591c-3.415,1.956-4.017,4.094-4.017,4.094a8.77,8.77,0,0,1-.824-3.116c0-4.7,2.764-8.52,8.491-8.52,6.208,0,8.491,3.824,8.491,8.52a5.011,5.011,0,0,1-.8,3.044l-.332-2.649a25.921,25.921,0,0,1-3.882,1.772" transform="translate(-8.643 -4.185)"/>
          <path id="Path_36937" data-name="Path 36937" d="M6.962,13.264a.814.814,0,0,1-.7-.392A9.273,9.273,0,0,1,5.327,9.4c0-.021,0-.041,0-.062C5.325,3.663,8.977,0,14.63,0c5.914,0,9.305,3.4,9.305,9.334,0,.006,0,.012,0,.018a5.715,5.715,0,0,1-1,3.559.814.814,0,0,1-1.423-.432L21.324,11l-.238.118a22.73,22.73,0,0,1-2.727,1.154.814.814,0,0,1-.912-1.256,1.789,1.789,0,0,0,.171-.287c-.887.493-1.915.965-2.663,1.29a.814.814,0,0,1-1.087-1.032c.036-.1.07-.2.1-.322a18.743,18.743,0,0,1-3.561,1.079.814.814,0,0,1-.776-1.333,1.037,1.037,0,0,0,.1-.225A6.045,6.045,0,0,0,7.746,12.67a.814.814,0,0,1-.673.586.846.846,0,0,1-.11.007M6.953,9.3a10.69,10.69,0,0,0,.186,1.221,11.449,11.449,0,0,1,3.436-2.873.814.814,0,0,1,1.21.823c-.052.362-.132.841-.245,1.32A6.716,6.716,0,0,0,14.4,8.5a.814.814,0,0,1,1.529.47c-.008.075-.047.418-.119.856a10.617,10.617,0,0,0,2.2-1.292.814.814,0,0,1,1.5.35,5.292,5.292,0,0,1-.027,1.191c1.146-.516,2.077-1.043,2.09-1.05l.408.7.315-.039c.008-.117.014-.239.016-.366,0-3.514-1.337-7.7-7.677-7.7-5.644,0-7.665,3.958-7.677,7.674M18,8.549,18,8.557,18,8.549" transform="translate(-4.458 0.001)"/>
        </g>
      </g>
    </g>
  </g>
</svg>
