<svg xmlns="http://www.w3.org/2000/svg" width="42" height="42" viewBox="0 0 42 42">
<style type="text/css">
#sm {animation:sm both linear infinite 2.7s;  transform-origin:50% 50%;}
@keyframes sm {
0% {transform:scale(1) rotate(20deg)}
50% {transform:scale(0.9) rotate(-10deg)}
100% {transform:scale(1) rotate(20deg)}
}
</style>

<g id="sm">   
  <g id="Group_116417" data-name="Group 116417" transform="translate(0 0)">
    <g id="Group_116422" data-name="Group 116422" transform="translate(0 0)">
      <g id="Ellipse_791" data-name="Ellipse 791" fill="#f46d3e" stroke="#000" stroke-width="2">
        <circle cx="21" cy="21" r="21" stroke="none"/>
        <circle cx="21" cy="21" r="20" fill="none"/>
      </g>
      <path id="Path_52414" data-name="Path 52414" d="M50.715,28.9c-.667,2.131-1.9,3.643-2.751,3.376s-1-2.211-.336-4.342,1.9-3.643,2.751-3.376,1,2.211.336,4.342" transform="translate(-31.23 -16.226)"/>
      <path id="Path_52415" data-name="Path 52415" d="M82.006,38.693c-.667,2.131-1.9,3.643-2.751,3.376s-1-2.211-.336-4.342,1.9-3.643,2.751-3.376,1,2.211.336,4.342" transform="translate(-51.929 -22.702)"/>
      <path id="Path_52416" data-name="Path 52416" d="M32.409,46.028l-.042.136h0a10.864,10.864,0,0,0,7.171,13.491c.255.08.514.15.77.213h0A10.868,10.868,0,0,0,50.136,57.3v0a10.793,10.793,0,0,0,2.983-4.635h0l.043-.136" transform="translate(-21.109 -30.447)" fill="none" stroke="#000" stroke-linecap="round" stroke-linejoin="round" stroke-width="2"/>
    </g>
  </g>
</g>
</svg>
