<?xml version="1.0" encoding="utf-8"?>
<!-- Generator: Adobe Illustrator 26.2.1, SVG Export Plug-In . SVG Version: 6.00 Build 0)  -->
<svg version="1.1" id="Layer_1" xmlns="http://www.w3.org/2000/svg" xmlns:xlink="http://www.w3.org/1999/xlink" x="0px" y="0px" viewBox="0 0 317.1 69.2" style="enable-background:new 0 0 317.1 69.2;" xml:space="preserve">
<style type="text/css">
.st0{fill:#BC554F;}
.st1{enable-background:new;}
	
#a1 path {animation:width both infinite 6s;}
#a2 path {animation:width2 both infinite 6s;}
#a3 path {animation:width both infinite 6s;}
#a4 path {animation:width2 both infinite 6s;}

#b1 path {animation:height both infinite 6s;}
#b2 path {animation:height2 both infinite 6s;}
#b3 path {animation:height both infinite 6s;}
#b4 path {animation:height2 both infinite 6s;}
#b5 path {animation:height both infinite 6s;}
#b6 path {animation:height2 both infinite 6s;}
#b7 path {animation:height both infinite 6s;}

#text {animation:text both infinite 6s;}

@keyframes width {
0% {transform:translateX(-100%);}
20% {transform:translateX(0%);}
100% {transform:translateX(0);}
}
@keyframes width2 {
0% {transform:translateX(100%);}
20% {transform:translateX(0%);}
100% {transform:translateX(0);}
}
@keyframes height {
10% {transform:translateY(100%);}
22% {transform:translateY(0%);}
100% {transform:translateY(0);}
}
@keyframes height2 {
10% {transform:translateY(-100%);}
22% {transform:translateY(0%);}
100% {transform:translateY(0);}
}
@keyframes text {
0% {opacity:0;}
15% {opacity:0;}
35% {opacity:1;}
95% {opacity:1;}
100% {opacity:0;}
}
</style>

<g class="st1" id="text">
	<path d="M32.6,38.6c3.7,0,6.7-0.2,10.1-0.8l0.3,3c-3.9,0.7-7.4,0.9-11.9,0.9h-2.2V31.1h8.2V27h-8.2v-2.9h11.8v10h-8.2v4.5H32.6z
		 M51.9,34.5h-3.7v13.1h-3.7V21.7h3.7v9.7h3.7V34.5z"/>
	<path d="M89.8,32.7c0,5.7-2.9,9.2-6.8,9.2s-6.8-3.6-6.8-9.2c0-5.7,2.9-9.2,6.8-9.2S89.8,27.1,89.8,32.7z M79.8,32.7
		c0,3.8,1.3,5.9,3.2,5.9s3.2-2,3.2-5.9c0-3.8-1.3-5.9-3.2-5.9S79.8,28.9,79.8,32.7z M96.9,21.7v25.9h-3.7V21.7H96.9z"/>
	<path d="M146.5,41.5v3h-23.4v-3H146.5z M128.4,26.9h-3.5V24h19.6v2.9H141v7.7h3.4v2.9h-19.3v-2.9h3.4L128.4,26.9L128.4,26.9z
		 M137.4,26.9h-5.3v7.7h5.3V26.9z"/>
	<path d="M194.1,41.4v3h-23.4v-3H194.1z M191.7,37c-4.5-0.9-7.8-3.4-9.4-6.7c-1.7,3.3-4.9,5.8-9.4,6.7l-1.6-3.1c5.8-1,9-5.1,9-8.8
		v-1.8h3.9v1.8c0,3.8,3.2,7.8,9,8.8L191.7,37z"/>
	<path d="M223,38.7c3.6,0,6.6-0.2,10-0.7l0.3,2.9c-3.9,0.6-7.4,0.7-11.8,0.7h-2.2V23.8h12.1v3H223V31h8.1v2.9H223V38.7z M242.3,34.6
		h-3.8v13h-3.7V21.8h3.7v9.8h3.8V34.6z"/>
	<path d="M273.2,34.3c-3.9,0-6.9-2.5-6.9-5.9s3-5.9,6.9-5.9s6.9,2.5,6.9,5.9S277.1,34.3,273.2,34.3z M273.2,31.3
		c1.9,0,3.3-1.1,3.3-2.9s-1.4-2.9-3.3-2.9s-3.3,1.1-3.3,2.9C269.9,30.2,271.3,31.3,273.2,31.3z M288,44.4v2.9h-17.8v-7.1h13.5v-1.6
		h-13.5v-2.8h17.2v7h-13.5v1.6H288z M287.3,34.6h-3.7V21.7h3.7V34.6z"/>
</g>
	
<g id="a1"><path id="Line_144" class="st0" d="M317.2,4.7H0v-1h317.1v1H317.2z"/></g>
<g id="a2"><path id="Line_145" class="st0" d="M317.2,1H0V0h317.1v1H317.2z"/></g>
<g id="a3"><path id="Line_146" class="st0" d="M317.2,69.2H0v-1h317.1v1H317.2z"/></g>
<g id="a4"><path id="Line_147" class="st0" d="M317.2,65.5H0v-1h317.1v1H317.2z"/></g>
	
	
<g id="b1"><path id="Line_154" class="st0" d="M15.6,65.1h-1V4.2h1V65.1z"/></g>
<g id="b2"><path id="Line_155" class="st0" d="M63.4,65.1h-1V4.2h1V65.1z"/></g>
<g id="b3"><path id="Line_156" class="st0" d="M111.3,65.1h-1V4.2h1V65.1z"/></g>
<g id="b4"><path id="Line_357" class="st0" d="M206.9,65.1h-1V4.2h1V65.1z"/></g>
<g id="b5"><path id="Line_780" class="st0" d="M254.8,65.1h-1V4.2h1V65.1z"/></g>
<g id="b6"><path id="Line_781" class="st0" d="M302.6,65.1h-1V4.2h1V65.1z"/></g>
<g id="b7"><path id="Line_362" class="st0" d="M159.1,65.1h-1V4.2h1V65.1z"/></g>
</svg>
