<svg xmlns="http://www.w3.org/2000/svg" width="129.817" height="175.03" viewBox="0 0 129.817 175.03">
  <g id="Group_112105" data-name="Group 112105" transform="translate(13162.817 1721)">
    <g id="search" transform="translate(-13403 -8244.503)">
      <text id="_" data-name="🎵" transform="translate(330.298 6533.426) rotate(7)" fill="#707070" font-size="22" font-family="SegoeUIEmoji, Segoe UI Emoji"><tspan x="0" y="24">🎵</tspan></text>
      <text id="_2" data-name="🎶" transform="translate(295.423 6523.503)" fill="#707070" font-size="22" font-family="SegoeUIEmoji, Segoe UI Emoji"><tspan x="0" y="24">🎶</tspan></text>
    </g>
    <g id="Group_112099" data-name="Group 112099" transform="translate(-13267.154 -1721.379) rotate(7)">
      <g id="Group_112087" data-name="Group 112087" transform="translate(119.52 17.52)">
        <path id="Path_37356" data-name="Path 37356" d="M94.828,48.164A46.664,46.664,0,1,1,48.164,1.5,46.664,46.664,0,0,1,94.828,48.164" transform="translate(-1.44 -1.44)" fill="#4f4f4f" stroke="#000" stroke-width="1.5"/>
        <circle id="Ellipse_695" data-name="Ellipse 695" cx="46.664" cy="46.664" r="46.664" transform="translate(0 0.119) rotate(-0.073)" fill="none" stroke="#000" stroke-linecap="round" stroke-linejoin="round" stroke-width="1.5"/>
        <path id="Path_37357" data-name="Path 37357" d="M54.712,123.226A38.386,38.386,0,0,1,16.369,84.883" transform="translate(-7.988 -38.159)" fill="none" stroke="#000" stroke-linecap="round" stroke-linejoin="round" stroke-width="1.5"/>
        <path id="Path_37358" data-name="Path 37358" d="M84.883,16.368a38.387,38.387,0,0,1,38.343,38.343" transform="translate(-38.16 -7.988)" fill="none" stroke="#000" stroke-linecap="round" stroke-linejoin="round" stroke-width="1.5"/>
        <path id="Path_37359" data-name="Path 37359" d="M58.823,118A33.155,33.155,0,0,1,25.706,84.884" transform="translate(-10.237 -39.396)" fill="none" stroke="#000" stroke-linecap="round" stroke-linejoin="round" stroke-width="1.5"/>
        <path id="Path_37360" data-name="Path 37360" d="M84.883,25.705A33.155,33.155,0,0,1,118,58.823" transform="translate(-38.908 -9.992)" fill="none" stroke="#000" stroke-linecap="round" stroke-linejoin="round" stroke-width="1.5"/>
        <path id="Path_37363" data-name="Path 37363" d="M67.046,107.552A22.693,22.693,0,0,1,44.379,84.884" transform="translate(-20.323 -38.16)" fill="none" stroke="#000" stroke-linecap="round" stroke-linejoin="round" stroke-width="1.5"/>
        <path id="Path_37364" data-name="Path 37364" d="M84.883,44.378a22.694,22.694,0,0,1,22.668,22.668" transform="translate(-38.16 -20.322)" fill="none" stroke="#000" stroke-linecap="round" stroke-linejoin="round" stroke-width="1.5"/>
        <path id="Path_37365" data-name="Path 37365" d="M88.033,73.253a14.78,14.78,0,1,1-14.78-14.78,14.78,14.78,0,0,1,14.78,14.78" transform="translate(-26.529 -26.529)" fill="#ff8883" stroke="#000" stroke-width="1.5"/>
        <path id="Path_37366" data-name="Path 37366" d="M88.033,73.253a14.78,14.78,0,1,1-14.78-14.78A14.78,14.78,0,0,1,88.033,73.253Z" transform="translate(-26.529 -26.529)" fill="none" stroke="#000" stroke-linecap="round" stroke-linejoin="round" stroke-width="1.5"/>
        <path id="Path_37367" data-name="Path 37367" d="M130.244,91.975a2.691,2.691,0,0,0-2.753,2.91V91.818a2.9,2.9,0,0,0-2.26-3.036,2.691,2.691,0,0,0-2.753,2.91V87.933a2.9,2.9,0,0,0-2.261-3.036,2.691,2.691,0,0,0-2.753,2.91v3.884a2.692,2.692,0,0,0-2.753-2.91,2.9,2.9,0,0,0-2.26,3.036V116.1l-4-6.9a3.049,3.049,0,0,0-4.478-1.208,4.158,4.158,0,0,0-.952,5.3l6.712,11.592a10.163,10.163,0,0,0,1.9,2.389,12.376,12.376,0,0,1,3.759,9.088l-2.3,27.876h13.263l2.3-31.922a12.469,12.469,0,0,1,1.933-6.878,11.736,11.736,0,0,0,1.912-6.51V95.011a2.9,2.9,0,0,0-2.26-3.036" transform="translate(-28.386 -47.475) rotate(8)" fill="#ffc1ab"/>
        <path id="Path_37368" data-name="Path 37368" d="M130.244,91.872a2.67,2.67,0,0,0-2.753,2.868V91.717a2.86,2.86,0,0,0-2.26-2.992,2.671,2.671,0,0,0-2.753,2.868v-3.7a2.86,2.86,0,0,0-2.261-2.991,2.671,2.671,0,0,0-2.753,2.868v3.828a2.671,2.671,0,0,0-2.753-2.868,2.86,2.86,0,0,0-2.26,2.992v23.927l-4-6.8a3.072,3.072,0,0,0-4.478-1.191,4.057,4.057,0,0,0-.952,5.218l6.712,11.423a10.042,10.042,0,0,0,1.9,2.354A12.108,12.108,0,0,1,115.4,135.6l-2.2,28.819h13.263l2.2-32.807a12.155,12.155,0,0,1,1.933-6.778,11.444,11.444,0,0,0,1.912-6.415V94.864A2.86,2.86,0,0,0,130.244,91.872Z" transform="translate(-28.386 -47.475) rotate(8)" fill="none" stroke="#000" stroke-linecap="round" stroke-linejoin="round" stroke-width="1.5"/>
        <g id="Group_112101" data-name="Group 112101" transform="translate(11.762 -3.298) rotate(8)">
          <line id="Line_780" data-name="Line 780" y2="12.17" transform="translate(71.559 52.56)" fill="#ffc1ab" stroke="#000" stroke-width="1.5"/>
          <line id="Line_781" data-name="Line 781" y2="12.17" transform="translate(71.559 52.56)" fill="none" stroke="#000" stroke-linecap="round" stroke-linejoin="round" stroke-width="1.5"/>
          <line id="Line_782" data-name="Line 782" y2="12.17" transform="translate(76.573 52.56)" fill="#ffc1ab" stroke="#000" stroke-width="1.5"/>
          <line id="Line_783" data-name="Line 783" y2="12.17" transform="translate(76.573 52.56)" fill="none" stroke="#000" stroke-linecap="round" stroke-linejoin="round" stroke-width="1.5"/>
          <line id="Line_784" data-name="Line 784" y2="9.433" transform="translate(81.586 55.298)" fill="#ffc1ab" stroke="#000" stroke-width="1.5"/>
          <line id="Line_785" data-name="Line 785" y2="9.433" transform="translate(81.586 55.298)" fill="none" stroke="#000" stroke-linecap="round" stroke-linejoin="round" stroke-width="1.5"/>
        </g>
      </g>
    </g>
  </g>
</svg>
