<?xml version="1.0" encoding="utf-8"?>
<!-- Generator: Adobe Illustrator 26.2.1, SVG Export Plug-In . SVG Version: 6.00 Build 0)  -->
<svg version="1.1" id="Layer_1" xmlns="http://www.w3.org/2000/svg" xmlns:xlink="http://www.w3.org/1999/xlink" x="0px" y="0px"
	 viewBox="0 0 317.1 69.2" style="enable-background:new 0 0 317.1 69.2;" xml:space="preserve">
<style type="text/css">
	.st0{fill:#BC554F;}
	.st1{enable-background:new    ;}
</style>
<g id="Group_112038" transform="translate(-28.932 -386.395)">
	<path id="Line_144" class="st0" d="M346.1,391.1H28.9v-1h317.1V391.1z"/>
	<path id="Line_145" class="st0" d="M346.1,387.4H28.9v-1h317.1V387.4z"/>
	<path id="Line_146" class="st0" d="M346.1,455.6H28.9v-1h317.1V455.6z"/>
	<path id="Line_147" class="st0" d="M346.1,451.9H28.9v-1h317.1V451.9z"/>
	<path id="Line_154" class="st0" d="M44.5,451.5h-1v-60.9h1V451.5z"/>
	<path id="Line_155" class="st0" d="M92.3,451.5h-1v-60.9h1V451.5z"/>
	<path id="Line_156" class="st0" d="M140.2,451.5h-1v-60.9h1V451.5z"/>
	<path id="Line_357" class="st0" d="M235.8,451.5h-1v-60.9h1V451.5z"/>
	<path id="Line_780" class="st0" d="M283.7,451.5h-1v-60.9h1V451.5z"/>
	<path id="Line_781" class="st0" d="M331.5,451.5h-1v-60.9h1V451.5z"/>
	<path id="Line_362" class="st0" d="M188,451.5h-1v-60.9h1V451.5z"/>
	<g class="st1">
		<path d="M61.5,425c3.7,0,6.7-0.2,10.1-0.8l0.3,3c-3.9,0.7-7.4,0.9-11.9,0.9h-2.2v-10.6h8.2v-4.1h-8.2v-2.9h11.8v10h-8.2V425z
			 M80.8,420.9h-3.7V434h-3.7v-25.9h3.7v9.7h3.7V420.9z"/>
		<path d="M118.7,419.1c0,5.7-2.9,9.2-6.8,9.2s-6.8-3.6-6.8-9.2c0-5.7,2.9-9.2,6.8-9.2S118.7,413.5,118.7,419.1z M108.7,419.1
			c0,3.8,1.3,5.9,3.2,5.9s3.2-2,3.2-5.9c0-3.8-1.3-5.9-3.2-5.9S108.7,415.3,108.7,419.1z M125.8,408.1V434h-3.7v-25.9H125.8z"/>
		<path d="M175.4,427.9v3H152v-3H175.4z M157.3,413.3h-3.5v-2.9h19.6v2.9h-3.5v7.7h3.4v2.9H154V421h3.4V413.3z M166.3,413.3H161v7.7
			h5.3V413.3z"/>
		<path d="M223,427.8v3h-23.4v-3H223z M220.6,423.4c-4.5-0.9-7.8-3.4-9.4-6.7c-1.7,3.3-4.9,5.8-9.4,6.7l-1.6-3.1c5.8-1,9-5.1,9-8.8
			v-1.8h3.9v1.8c0,3.8,3.2,7.8,9,8.8L220.6,423.4z"/>
		<path d="M251.9,425.1c3.6,0,6.6-0.2,10-0.7l0.3,2.9c-3.9,0.6-7.4,0.7-11.8,0.7h-2.2v-17.8h12.1v3h-8.4v4.2h8.1v2.9h-8.1V425.1z
			 M271.2,421h-3.8v13h-3.7v-25.8h3.7v9.8h3.8V421z"/>
		<path d="M302.1,420.7c-3.9,0-6.9-2.5-6.9-5.9c0-3.4,3-5.9,6.9-5.9c3.9,0,6.9,2.5,6.9,5.9C309,418.2,306,420.7,302.1,420.7z
			 M302.1,417.7c1.9,0,3.3-1.1,3.3-2.9c0-1.8-1.4-2.9-3.3-2.9c-1.9,0-3.3,1.1-3.3,2.9C298.8,416.6,300.2,417.7,302.1,417.7z
			 M316.9,430.8v2.9h-17.8v-7.1h13.5v-1.6h-13.5v-2.8h17.2v7h-13.5v1.6H316.9z M316.2,421h-3.7v-12.9h3.7V421z"/>
	</g>
</g>
</svg>
