<?xml version="1.0" encoding="utf-8"?>
<!-- Generator: Adobe Illustrator 26.3.1, SVG Export Plug-In . SVG Version: 6.00 Build 0)  -->
<svg version="1.1" xmlns="http://www.w3.org/2000/svg" xmlns:xlink="http://www.w3.org/1999/xlink" x="0px" y="0px"
	 viewBox="0 0 115.8 172" style="enable-background:new 0 0 115.8 172;" xml:space="preserve">
<style type="text/css">
	.st0{fill:none;}
	.st1{fill:#735BC1;stroke:#000000;stroke-width:1.5;stroke-linecap:round;}
	.st2{fill:#B4A0FF;stroke:#000000;stroke-width:1.5;}
	.st3{fill:#886CE4;stroke:#000000;stroke-width:1.5;}
	.st4{fill:#735BC1;stroke:#000000;stroke-width:1.5;}
	.st5{fill:#4F4F4F;stroke:#000000;stroke-width:1.5;}
	.st6{fill:none;stroke:#000000;stroke-width:1.5;stroke-linecap:round;stroke-linejoin:round;stroke-miterlimit:4;}
	.st7{fill:none;stroke:#000000;stroke-width:1.5;stroke-linecap:round;stroke-linejoin:round;}
	.st8{fill:#FF8883;stroke:#000000;stroke-width:1.5;}
	.st9{fill:#FFC1AB;}
	.st10{fill:none;stroke:#000000;stroke-width:1.5;}

  @keyframes cdgroup {
    0% {transform: translateY(-10px)}
    50% {transform: translateY(-10px)}
    100% {transform: translateY(-10px)}
  }

  .cd {transform-origin: 45% 45%; transform: rotate(0); animation:cd linear both infinite 4s;}
  @keyframes cd {
    0% {transform: rotate(0)}
    100% {transform: rotate(360deg)}
  }

  .musuic {transform-origin: 0% 20%; transform: translateY(0px); animation:musuic linear both infinite 1s;}
  @keyframes musuic {
    0% {transform: translateY(10px)}
    50% {transform: translateY(0px)}
    100% {transform: translateY(10px)}
  }

  .emoji {transform-origin: 0% 0%; transform: translateY(0); animation:emoji linear both infinite 1.4s;}
  @keyframes emoji {
    0% {transform: translateY(10px)}
    50% {transform: translateY(0px)}
    100% {transform: translateY(10px)}
  }
</style>
<g id="레이어_2" class="musuic">
	<g id="그룹_115796" transform="translate(7853.66 3197.158)">
		<rect id="사각형_21925" x="-7763.8" y="-3183.2" class="st0" width="26" height="26"/>
		<path id="패스_52081" class="st1" d="M-7744.3-3160.8c-2.4,0-4.4-2-4.4-4.4c0-2.4,2-4.4,4.4-4.4c0.1,0,0.1,0,0.2,0v-5.5
			l-8.7,0.7v10.6c0,2.4-2,4.4-4.4,4.4c-2.4,0-4.4-2-4.4-4.4s2-4.4,4.4-4.4c0.1,0,0.1,0,0.2,0v-11.5l17.1-1.4v15.9
			C-7739.9-3162.8-7741.9-3160.8-7744.3-3160.8"/>
	</g>
</g>
<g id="레이어_3" class="emoji">
	<g id="그룹_115793" transform="translate(5095 3544.271)">
		<rect id="사각형_21924" x="-5036.2" y="-3544.3" class="st0" width="26" height="26"/>
		<g id="그룹_115794" transform="translate(-18195.598 -5261.081)">
			<g id="그룹_115795" transform="translate(0 0)">
				<path id="패스_52074" class="st2" d="M13166.2,1735.1c-1.7,0-3.1-1.2-3.4-2.9c-0.3-1.9,1-3.6,2.9-3.8c0.1,0,0.3,0,0.4,0
					l-0.9-6.2l3-0.4l1.4,9.6c0.3,1.9-1,3.6-2.9,3.8C13166.5,1735.1,13166.4,1735.1,13166.2,1735.1z"/>
				<path id="패스_52076" class="st3" d="M13171.6,1726.7c-1.3,0-2.4-1-2.4-2.4s1-2.4,2.4-2.4v-3.8h2.5v6.3
					C13174,1725.6,13172.9,1726.7,13171.6,1726.7"/>
				<path id="패스_52078" class="st4" d="M13178.2,1741.9c-2,0-3.6-1.6-3.6-3.6c0-2,1.6-3.6,3.6-3.6c0,0,0,0,0,0
					c0.1,0,0.1,0,0.2,0v-2.7h-4.9v6.3c0,2-1.6,3.6-3.6,3.6c-2,0-3.6-1.6-3.6-3.6s1.6-3.6,3.6-3.6c0.1,0,0.1,0,0.2,0v-7.7h11.8v11.3
					C13181.8,1740.3,13180.2,1741.9,13178.2,1741.9"/>
				<path id="패스_52080" d="M13175.7,1736.3l-2.2,0.9v-5.1l5.3,0.8L13175.7,1736.3z"/>
			</g>
		</g>
	</g>
</g>
<g id="레이어_4" class="cd">
	<path id="패스_37356" class="st5" d="M99.2,86.3c-3.1,25.6-26.4,43.8-52,40.6S3.4,100.5,6.5,75s26.4-43.8,52-40.6c0,0,0,0,0,0
		C84.1,37.5,102.3,60.8,99.2,86.3"/>
	<circle id="타원_695" class="st6" cx="52.8" cy="80.6" r="46.7"/>
	<path id="패스_37357" class="st7" d="M48.2,118.7C27.2,116.1,12.2,97,14.8,76"/>
	<path id="패스_37358" class="st7" d="M57.5,42.6c21,2.6,35.9,21.7,33.4,42.7"/>
	<path id="패스_37359" class="st7" d="M50.8,112.5c-18.1-2.2-31-18.8-28.8-36.9"/>
	<path id="패스_37360" class="st7" d="M55.9,49.8C74,52,86.9,68.5,84.7,86.7"/>
	<path id="패스_37363" class="st7" d="M50.1,103.1c-12.4-1.5-21.2-12.8-19.7-25.3"/>
	<path id="패스_37364" class="st7" d="M55.6,58.1C68,59.7,76.8,71,75.3,83.4"/>
	<path id="패스_37365" class="st8" d="M67.5,82.4c-1,8.1-8.4,13.9-16.5,12.9c-8.1-1-13.9-8.4-12.9-16.5c1-8.1,8.4-13.9,16.5-12.9
		l0,0C62.7,67,68.5,74.3,67.5,82.4"/>
	<path id="패스_37366" class="st7" d="M67.5,82.4c-1,8.1-8.4,13.9-16.5,12.9c-8.1-1-13.9-8.4-12.9-16.5c1-8.1,8.4-13.9,16.5-12.9
		l0,0C62.7,67,68.5,74.3,67.5,82.4z"/>
</g>
<g id="레이어_1">
	<g id="그룹_115800" transform="translate(13162.817 1718.001)">
		<g id="그룹_112099" transform="translate(-13267.154 -1721.379) rotate(7)">
			<g id="그룹_112087" transform="translate(119.52 17.52)">
				<path id="패스_37367" class="st9" d="M87.8,61.7c-1.5-0.2-2.9,0.7-3.1,2.2c0,0.1,0,0.2,0,0.3l0.4-3c0.3-1.4-0.5-2.8-1.8-3.3
					c-1.5-0.2-2.9,0.7-3.1,2.2c0,0.1,0,0.2,0,0.3l0.5-3.7c0.3-1.4-0.5-2.8-1.8-3.3c-1.5-0.2-2.9,0.7-3.1,2.2c0,0.1,0,0.2,0,0.3
					l-0.5,3.8c0.3-1.5-0.6-2.9-2-3.2c-0.1,0-0.2,0-0.3,0c-1.4,0.1-2.6,1.3-2.7,2.7l-3.4,24l-3-7.4c-0.5-1.6-2.2-2.5-3.8-2
					c-0.2,0-0.3,0.1-0.4,0.2c-1.7,1.1-2.4,3.2-1.7,5.1l5,12.4c0.4,0.9,0.9,1.8,1.5,2.6c2.1,2.7,3,6.1,2.5,9.5l-6.2,27.3l13.1,1.8
					l6.7-31.3c0.3-2.4,1.3-4.7,2.9-6.5c1.5-1.7,2.5-3.9,2.8-6.2l3.3-23.7C89.9,63.6,89.1,62.2,87.8,61.7"/>
				<path id="패스_37368" class="st7" d="M87.8,61.6c-1.5-0.3-2.8,0.7-3.1,2.2c0,0.1,0,0.2,0,0.3l0.4-3c0.3-1.4-0.5-2.8-1.8-3.3
					c-1.5-0.3-2.8,0.7-3.1,2.2c0,0.1,0,0.2,0,0.3l0.5-3.7c0.3-1.4-0.5-2.8-1.8-3.3c-1.5-0.3-2.8,0.7-3.1,2.2c0,0.1,0,0.2,0,0.3
					l-0.5,3.8c0.3-1.4-0.6-2.9-2-3.2c-0.1,0-0.2,0-0.3,0c-1.4,0.1-2.6,1.2-2.7,2.6l-3.3,23.7l-3-7.3c-0.5-1.6-2.3-2.5-3.9-2
					c-0.1,0-0.3,0.1-0.4,0.2c-1.7,1-2.4,3.2-1.7,5L63,90.9c0.4,0.9,0.9,1.8,1.6,2.6c2.1,2.6,3,6,2.5,9.4l-6.2,28.2l13.1,1.8
					l6.7-32.2c0.3-2.4,1.3-4.6,2.9-6.4c1.5-1.7,2.5-3.8,2.8-6.1l3.3-23.3C89.9,63.5,89.1,62.1,87.8,61.6z"/>
				<g id="그룹_112101" transform="translate(11.762 -3.298) rotate(8)">
					<line id="선_780" class="st10" x1="71.6" y1="52.6" x2="71.6" y2="64.7"/>
					<line id="선_781" class="st7" x1="71.6" y1="52.6" x2="71.6" y2="64.7"/>
					<line id="선_782" class="st10" x1="76.6" y1="52.6" x2="76.6" y2="64.7"/>
					<line id="선_783" class="st7" x1="76.6" y1="52.6" x2="76.6" y2="64.7"/>
					<line id="선_784" class="st10" x1="81.6" y1="55.3" x2="81.6" y2="64.7"/>
					<line id="선_785" class="st7" x1="81.6" y1="55.3" x2="81.6" y2="64.7"/>
				</g>
			</g>
		</g>
	</g>
</g>
</svg>
