<svg id="logo" xmlns="http://www.w3.org/2000/svg" xmlns:xlink="http://www.w3.org/1999/xlink" width="120" height="34" viewBox="0 0 120 34">
  <defs>
    <clipPath id="clip-path">
      <rect id="Rectangle_902" data-name="Rectangle 902" width="120" height="34" fill="none"/>
    </clipPath>
  </defs>
  <path id="Path_13639" data-name="Path 13639" d="M35.559,1.682H57.084V5.4H40.03V9.916H57.084v3.718H40.03v4.912H57.084v3.718H35.559Z" transform="translate(-0.489)" fill="#d53020"/>
  <g id="Group_604" data-name="Group 604">
    <g id="Group_603" data-name="Group 603" clip-path="url(#clip-path)">
      <path id="Path_13640" data-name="Path 13640" d="M15.71,5.85H17.9V2.183H11.407V0H6.988V2.183H.422V5.85H2.608a9.146,9.146,0,1,0,15.711,6.375A9.094,9.094,0,0,0,15.71,5.85M9.159,17.474a5.249,5.249,0,1,1,5.259-5.249,5.26,5.26,0,0,1-5.259,5.249" transform="translate(0 0)" fill="#d53020"/>
      <path id="Path_13641" data-name="Path 13641" d="M85.123,1.681V6.791H83.029V1.681H79.206V21.237h3.822V10.458h2.094V21.237H88.94V1.681Z" transform="translate(-0.896 -0.023)" fill="#d53020"/>
      <path id="Path_13642" data-name="Path 13642" d="M66.9,26.984H84.381v7.337H88.8V23.316H66.9Z" transform="translate(-0.757 -0.321)" fill="#d53020"/>
      <path id="Path_13643" data-name="Path 13643" d="M67.85,16.089V12.571h8.8V1.68H63.829V5.348H72.6V8.866H63.829V19.755H76.654V16.089Z" transform="translate(-0.722 -0.023)" fill="#d53020"/>
      <path id="Path_13644" data-name="Path 13644" d="M26.216,10.439h3.159V6.773H26.216V1.662H21.8V21.233h4.42Z" transform="translate(-0.247 -0.023)" fill="#d53020"/>
      <rect id="Rectangle_900" data-name="Rectangle 900" width="26.718" height="3.667" transform="translate(93.282 28.111)" fill="#d53020"/>
      <rect id="Rectangle_901" data-name="Rectangle 901" width="26.716" height="3.667" transform="translate(32.439 28.111)" fill="#d53020"/>
      <path id="Path_13645" data-name="Path 13645" d="M16.547,27.922l6.366,6.351H28.6L16.547,22.253,4.5,34.273H10.18c2.247-2.244,5.139-5.128,6.367-6.351" transform="translate(-0.051 -0.307)" fill="#d53020"/>
      <path id="Path_13646" data-name="Path 13646" d="M107.222,9.266l7.321,12.69h4.637L107.222,1.231,95.263,21.955H99.9l7.323-12.69" transform="translate(-1.078 -0.017)" fill="#d53020"/>
    </g>
  </g>
</svg>
