<?xml version="1.0" encoding="utf-8"?>
<!-- Generator: Adobe Illustrator 26.2.1, SVG Export Plug-In . SVG Version: 6.00 Build 0)  -->
<svg xmlns="http://www.w3.org/2000/svg" xmlns:xlink="http://www.w3.org/1999/xlink" width="113" height="63" viewBox="0 0 113 63">
<style type="text/css">
.st0{fill:#FC6271;}
.st1{fill:#FFFFFF;}
.st2{fill:#FF6271;}
.st3{fill:#FFDFE2;}
.st4{fill:#D0F4F1;}
.st5{fill:none;stroke:#A9D2FA;stroke-width:1.0005;stroke-linecap:round;stroke-linejoin:round;stroke-miterlimit:4.0021;}

#hottracks1 {transform: translateY(5px); animation:hottracks1 linear both infinite 3s;}
#hottracks2 {transform: translateY(2px) translateX(20px); animation:hottracks2 linear both infinite 3s;}
#hottracks3 {transform: translateY(6px) translateX(38px); animation:hottracks3 linear both infinite 3s;}
#hottracks4 {transform: translateY(4px) translateX(56px); animation:hottracks4 linear both infinite 3s;}
@keyframes hottracks1 {
0% {transform: translateY(5px) }
10% {transform: translateY(-7px)}
30% {transform: translateY(5px)}
100% {transform: translateY(5px)}
}
@keyframes hottracks2 {
0% {transform: translateY(2px) translateX(20px)}
5% {transform: translateY(2px) translateX(20px)}
20% {transform: translateY(-7px) translateX(20px)}
35% {transform: translateY(2px) translateX(20px)}
100% {transform: translateY(2px) translateX(20px)}
}
@keyframes hottracks3 {
0% {transform: translateY(6px) translateX(38px)}
15% {transform: translateY(6px) translateX(38px)}
25% {transform: translateY(0px) translateX(38px)}
40% {transform: translateY(6px) translateX(38px)}
100% {transform: translateY(6px) translateX(38px)}
}
@keyframes hottracks4 {
0% {transform: translateY(4px) translateX(56px)}
20% {transform: translateY(4px) translateX(56px)}
30% {transform: translateY(0px) translateX(56px)}
40% {transform: translateY(7px) translateX(56px)}
55% {transform: translateY(4px) translateX(56px)}
100% {transform: translateY(4px) translateX(56px)}
}

#tube {transform-origin: 10% 17%; transform: rotate(0); animation:tube linear both infinite 4s;}
@keyframes tube {
0% {transform: rotate(0)}
100% {transform: rotate(360deg)}
}

#water1 {animation:water1 both linear infinite 3s;}
#water2 {animation:water2 both linear infinite 3s;}
@keyframes water1 {
0% {opacity:0}
38% {opacity:0}
43% {opacity:1}
90% {opacity:1}
100% {opacity:0}
}
@keyframes water2 {
0% {opacity:0}
45% {opacity:0}
55% {opacity:1}
90% {opacity:1}
100% {opacity:0}
}

#cool1 {animation:cool1 both infinite linear 3s;stroke-dasharray:350;stroke-dashoffset:350;}	
#cool2 {animation:cool2 both infinite linear 3s;stroke-dasharray:50;stroke-dashoffset:50;}	
#cool3 {animation:cool3 both infinite linear 3s;stroke-dasharray:53;stroke-dashoffset:53;}	
@keyframes cool1 {
0% {stroke-dashoffset:350;}
90% {stroke-dashoffset:0; opacity:1}
100% {stroke-dashoffset:0; opacity:0}
}
@keyframes cool2 {
0% {stroke-dashoffset:50;}
10% {stroke-dashoffset:50;}
30% {stroke-dashoffset:0;}
90% {stroke-dashoffset:0; opacity:1 }
100% {stroke-dashoffset:0; opacity:0 }
}
@keyframes cool3 {
0% {stroke-dashoffset:52; opacity:0 }
26% {stroke-dashoffset:52; opacity:0 }
40% {stroke-dashoffset:0; opacity:10 }
90% {stroke-dashoffset:0; opacity:1 }
100% {stroke-dashoffset:0; opacity:0 }
}
</style>
<g id="logo" transform="translate(42.095 32.074)">
	<g id="logo" transform="translate(-26.316 -10.143)">
		<g id="Group_1791" transform="translate(0 0)">
      <g id="hottracks1" transform="translate(0.704 4.927)">
				<path id="Path_36273" class="st0" d="M9.8,16.4l3.8,3.8h3.4L9.8,13l-7.1,7.1H6C7.3,18.8,9,17.1,9.8,16.4"/>
				<path id="Path_39723" class="st0" d="M9.3,3.5h1.3V1.3H6.8V0H4.1v1.3H0.3v2.2h1.3c-2.1,2.1-2.1,5.6,0.1,7.7s5.6,2.1,7.7-0.1
					C11.4,9,11.4,5.6,9.3,3.5 M5.4,10.4c-1.7,0-3.1-1.4-3.1-3.1s1.4-3.1,3.1-3.1s3.1,1.4,3.1,3.1c0,0,0,0,0,0
					C8.5,9,7.1,10.4,5.4,10.4"/>
				<path id="Path_39724" class="st0" d="M15.4,6.2h1.9V4h-1.9V1h-2.6v11.6h2.6L15.4,6.2z"/>
        <path id="Path_39854" class="st1" d="M3.4,2.9C2.5,3.4,1.7,4,1.2,4.9c-0.1,0.2,0,0.4,0.1,0.5c0.2,0.1,0.4,0,0.5-0.1
          C1.9,5.2,2,5.1,2,5l0-0.1l0,0l0,0l0.1-0.1c0.1-0.2,0.3-0.3,0.5-0.5c0,0,0.1-0.1,0.1-0.1l0.1-0.1l0,0c0,0,0,0,0,0L3,4
          c0,0,0.1-0.1,0.1-0.1c0.2-0.1,0.4-0.2,0.6-0.3C3.9,3.5,4,3.2,3.9,3.1C3.8,2.9,3.6,2.8,3.4,2.9"/>
        <path id="Path_39855" class="st1" d="M14.1,9.8v1.5c0,0.2,0.2,0.4,0.4,0.4c0.2,0,0.4-0.2,0.4-0.4V9.8c0-0.2-0.2-0.4-0.4-0.4
          C14.3,9.5,14.1,9.6,14.1,9.8"/>
        <path id="Path_39858" class="st1" d="M8.7,15.8c0.4-0.3,0.7-0.6,1.1-0.9c0.1-0.1,0.1-0.4,0-0.5c-0.1-0.1-0.4-0.1-0.5,0
          c-0.3,0.3-0.7,0.6-1.1,0.9c-0.1,0.1-0.1,0.2-0.1,0.3c0,0.1,0,0.2,0.1,0.3c0.1,0.1,0.2,0.1,0.3,0.1C8.6,15.9,8.6,15.8,8.7,15.8"/>
			</g>
      <g id="hottracks2" transform="translate(19.919 2.329)">
				<rect id="Rectangle_3417" x="0" y="15.8" class="st0" width="15.8" height="2.2"/>
				<path id="Path_39725" class="st0" d="M1.9,0h11.8v2H4.3v2.5h9.3v2H4.3v2.7h9.3v2H1.9V0z"/>
        <path id="Path_39856" class="st1" d="M4.5,0.4H2.6c-0.2,0-0.4,0.2-0.4,0.4c0,0.2,0.2,0.4,0.4,0.4h1.9c0.2,0,0.4-0.2,0.4-0.4
          C4.9,0.5,4.7,0.4,4.5,0.4"/>
        <path id="Path_39857" class="st1" d="M2.3,1v1.1c0,0.2,0.2,0.4,0.4,0.4C2.8,2.4,3,2.3,3,2.1V1c0-0.2-0.2-0.4-0.4-0.4
          C2.4,0.6,2.3,0.8,2.3,1"/>
        <path id="Path_39859" class="st1" d="M0.7,16.9h1.9c0.2,0,0.4-0.2,0.4-0.4c0-0.2-0.2-0.4-0.4-0.4H0.7c-0.2,0-0.4,0.2-0.4,0.4
          C0.3,16.7,0.5,16.9,0.7,16.9"/>
			</g>
			<g id="hottracks3" transform="translate(38.084 5.911)">
				<path id="Path_36269" class="st0" d="M12.5,0v3h-1.2V0H9v11.6h2.3V5.2h1.2v6.4h2.3V0H12.5z"/>
				<path id="Path_36270" class="st0" d="M1.8,14.9h10.4v4.4h2.6v-6.5h-13V14.9z"/>
				<path id="Path_36271" class="st0" d="M2.4,8.6V6.5h5.2V0H0v2.2h5.2v2.1H0v6.5h7.6V8.6H2.4z"/>
        <path id="Path_39860" class="st1" d="M0.5,1h1.5c0.2,0,0.4-0.2,0.4-0.4c0-0.2-0.2-0.4-0.4-0.4H0.5c-0.2,0-0.4,0.2-0.4,0.4
          C0.2,0.8,0.3,1,0.5,1"/>
        <path id="Path_39861" class="st1" d="M5.4,10.1h0.9c0.2,0,0.4-0.2,0.4-0.4c0-0.2-0.2-0.4-0.4-0.4H5.4C5.2,9.4,5,9.6,5,9.8
          C5,10,5.2,10.1,5.4,10.1"/>
        <path id="Path_39864" class="st1" d="M13.8,17.4c0,0.2,0,0.4,0,0.7l0-0.1c0,0,0,0.1,0,0.1c0,0,0-0.1,0-0.1c0,0,0,0,0,0
          c0,0,0,0,0.1-0.1c0,0,0,0,0,0l0.1-0.1c0,0,0,0,0,0l0.1,0c0,0,0,0,0,0l0.1,0c-0.1,0-0.3,0-0.4,0h-0.4c-0.2,0-0.4,0.2-0.4,0.4
          c0,0.2,0.2,0.4,0.4,0.4h0.5c0.2,0,0.4,0,0.6-0.1c0.2-0.1,0.3-0.4,0.3-0.6c0-0.2,0-0.3,0-0.5c0-0.1,0-0.2-0.1-0.3
          c-0.1-0.1-0.4-0.1-0.5,0C13.8,17.2,13.8,17.3,13.8,17.4"/>
			</g>
      <g id="hottracks4" transform="translate(55.956 3.536)">
				<path id="Path_36274" class="st0" d="M7.6,4.8l4.3,7.5h2.7L7.6,0L0.5,12.3h2.7L7.6,4.8"/>
				<rect id="Rectangle_21622" x="0" y="16" class="st0" width="15.8" height="2.2"/>
        <path id="Path_39865" class="st1" d="M6.6,1.9C6.2,2.7,5.8,3.4,5.4,4.2c-0.1,0.2,0,0.4,0.1,0.5s0.4,0,0.5-0.1
          C6.5,3.8,6.9,3,7.3,2.3c0.1-0.2,0-0.4-0.1-0.5C7,1.7,6.7,1.8,6.6,1.9L6.6,1.9"/>
        <path id="Path_39866" class="st1" d="M14.7,16.5c0,0.2,0,0.4,0,0.7l0-0.1c0,0,0,0.1,0,0.1c0,0,0-0.1,0-0.1c0,0,0,0,0,0l0.1-0.1
          c0,0,0,0,0,0l0.1-0.1c0,0,0,0,0,0l0.1,0c0,0,0,0,0,0l0.1,0c-0.1,0-0.3,0-0.4,0H14c-0.2,0-0.4,0.2-0.4,0.4
          c0,0.2,0.2,0.4,0.4,0.4h0.5c0.2,0,0.4,0,0.6-0.1c0.2-0.2,0.3-0.4,0.3-0.6c0-0.2,0-0.3,0-0.5c0-0.1,0-0.2-0.1-0.3
          c-0.1-0.1-0.4-0.1-0.5,0C14.7,16.3,14.6,16.4,14.7,16.5"/>
			</g>
		</g>
	</g>
	<g id="튜브" transform="translate(46.875 -7.457)">
		<g id="tube">
			<path id="Path_39875" class="st2" d="M15.5,1C10-1.5,3.5,0.9,1,6.4s-0.1,12,5.4,14.5c5.5,2.5,12,0.1,14.5-5.4
				C23.4,10,21,3.5,15.5,1C15.5,1,15.5,1,15.5,1 M9.2,14.8c-2.1-1-3-3.4-2.1-5.5s3.4-3,5.5-2.1c2.1,1,3,3.4,2.1,5.5
				C13.8,14.8,11.3,15.7,9.2,14.8C9.2,14.8,9.2,14.8,9.2,14.8"/>
			<path id="Path_39876" class="st3" d="M11.3,21.9l0.8-6.9c-1.4,0.4-2.9,0.1-4-0.9L5,20.1c0.5,0.3,0.9,0.5,1.4,0.8
				C8,21.6,9.6,21.9,11.3,21.9"/>
			<path id="Path_39877" class="st3" d="M20,4.9c-2,1.1-3.8,2.4-5.5,3.9c0.6,1,0.7,2.2,0.4,3.3l6.8,0.1C22.1,9.6,21.5,7,20,4.9"/>
			<path id="Path_39878" class="st3" d="M6.8,10.2c0.2-1.3,1.1-2.5,2.4-3l-3-6C3.9,2.2,2,4.1,1,6.4c-0.2,0.5-0.4,1-0.5,1.5
				C2.7,8.2,4.9,9,6.8,10.2"/>
			<path id="Path_39879" class="st1" d="M8.7,1.4C7.2,1.6,5.9,2.3,4.9,3.3C4.6,3.7,4.3,4.1,4.1,4.5C4,4.8,4.4,5.1,4.6,4.7
				c0.7-1.3,1.8-2.2,3.2-2.6c0.3-0.1,0.7-0.2,1-0.2C8.9,1.9,9,1.7,9,1.6C8.9,1.5,8.8,1.4,8.7,1.4"/>
			<path id="Path_39880" class="st1" d="M3.2,6C2.8,6.5,2.6,7,2.6,7.6c0,0.1,0.1,0.3,0.3,0.3c0.1,0,0.3-0.1,0.3-0.3c0,0,0,0,0,0
				c0-0.1,0-0.1,0-0.2c0,0,0-0.1,0-0.1s0,0,0,0c0,0,0,0,0,0c0-0.1,0-0.2,0.1-0.3c0,0,0-0.1,0-0.1s0,0,0,0l0,0c0,0,0-0.1,0.1-0.1
				s0.1-0.1,0.1-0.2c0,0,0-0.1,0.1-0.1c0,0,0,0,0,0c0.1-0.1,0.1-0.3,0-0.4C3.5,5.9,3.3,5.9,3.2,6"/>
			<path id="Path_39881" class="st1" d="M10.6,20.1c0.7,0.1,1.4,0.1,2.1-0.1c0.8-0.2,1.6-0.5,2.3-0.9c0.4-0.2,0.8-0.4,1.1-0.7
				c0.1-0.1,0.2-0.2,0.1-0.4c-0.1-0.1-0.2-0.2-0.4-0.1c-0.6,0.5-1.3,0.8-2,1.1c-0.7,0.3-1.4,0.5-2.1,0.6c-0.3,0-0.7,0-1-0.1
				c-0.1,0-0.3,0.1-0.3,0.2C10.3,20,10.4,20.1,10.6,20.1"/>
		</g>
	</g>
	<g id="물방울" transform="translate(39.594 -12.489) rotate(-14)">
		<g id="water" transform="translate(0 0)">
      <path id="water1" class="st4" d="M1.8,6.2c0,0.2-0.2,0.4-0.5,0.3c-0.1,0-0.2-0.1-0.3-0.2C0.2,5.1-0.2,3.5,0.1,2
				C1-1.6,4.7,0.3,3.4,2.6C2.7,3.7,2.1,4.9,1.8,6.2"/>
			<path id="water2" class="st4" d="M4,8C3.7,8.2,3.3,8.1,3.1,7.8C3,7.6,3,7.4,3,7.2C3.6,4.6,5.2,2.4,7.5,1c5.5-2.9,7.4,3.9,3,4.8
				C8.2,6.2,6.1,6.9,4,8"/>
		</g>
	</g>
	<g id="cool" transform="matrix(0.995, 0.105, -0.105, 0.995, -38.623, -32.074)">
		<path id="cool1" class="st5" d="M8.8,12.6C3.7,14.4,0,21.8,1,26.7c0.3,1.6,1.1,3.1,2.4,4.1c1.3,1,3,1.2,4.6,0.6
			c0.5-0.2,0.9-0.6,1.3-1c1.1-1.1,1.8-2.4,2.2-3.9"/>
		<path id="cool2" class="st5" d="M12.9,21.4c-1.1,1.2-1.6,2.8-1.4,4.4c0,0.2,0.1,0.3,0.2,0.5c0.2,0.2,0.5,0.3,0.7,0.2
			c1.6-0.2,2.5-2.1,2.4-3.8c0-0.4-0.2-0.8-0.4-1.1c-0.3-0.3-0.8-0.3-1.1,0c0,0,0,0,0,0c2.1-1.2,4.1-2.7,5.6-4.5
			c-0.3,0.7-0.5,1.4-0.7,2.1c-0.3,0.9,0,1.9,0.8,2.6c0.7,0.4,1.5,0.3,2-0.2c0.6-0.5,0.9-1.2,1-1.9c0.2-0.7,0-1.5-0.4-2.1
			c-0.5-0.5-1.3-0.6-1.8-0.1c0,0-0.1,0.1-0.1,0.1"/>
		<path id="cool3" class="st5" d="M22,18c0.7,0.7,1.7,0.9,2.6,0.5c0.7-0.5,1.1-1.3,1.2-2.2c0.2-1,0.4-2,0.5-3.1
			c0.1-1.6,0.9-13.7-2.1-12.4c-1,0.4-1,2.7-1,3.6c0,3,0.1,6.6,2.2,9c1,1.2,2.2,2,3.8,1.7c1.9-0.4,3.6-1.5,4.7-3.1
			c1.4-2.2,2.2-4.8,2.3-7.4"/>
	</g>
</g>
</svg>
