<svg xmlns="http://www.w3.org/2000/svg" width="380" height="96" viewBox="0 0 380 96">
  <g id="그룹_115800" data-name="그룹 115800" transform="translate(-4449 1466)">
    <g id="그룹_115737" data-name="그룹 115737" transform="translate(3610.442 -348.818)">
      <g id="그룹_115711" data-name="그룹 115711" transform="translate(873.629 -1110.38)">
        <g id="그룹_115712" data-name="그룹 115712" transform="translate(0)">
          <path id="패스_41373" data-name="패스 41373" d="M342.164,67.422a2.794,2.794,0,0,1-2.788-2.957l.192-17.517A7.149,7.149,0,0,0,338,42.219a5.106,5.106,0,0,0-3.835-1.452l-10.334,1.627a2.733,2.733,0,0,1-.506.047,2.791,2.791,0,0,1-2.782-2.954l.213-22.844a3.8,3.8,0,0,1,3.1-3.646l56.843-8.95A2.733,2.733,0,0,1,381.2,4a2.79,2.79,0,0,1,2.782,2.955l-.075,8.089c0,5.314,1.806,9.133,5.368,11.39a18.364,18.364,0,0,0,9.6,2.373,23.665,23.665,0,0,0,3.789-.282L414.9,26.591a2.713,2.713,0,0,1,.5-.046,2.8,2.8,0,0,1,2.789,2.958l-.228,22.825a3.794,3.794,0,0,1-3.1,3.636L342.667,67.376a2.729,2.729,0,0,1-.5.046" transform="translate(-109.307 -1.211)"/>
          <path id="패스_41374" data-name="패스 41374" d="M380.9,4.395a2.092,2.092,0,0,1,2.051,1.7,2.114,2.114,0,0,1,.034.518l-.076,8.123v.044c0,12.615,9.956,14.423,15.67,14.423a24.21,24.21,0,0,0,3.913-.293l12.22-1.932a2.1,2.1,0,0,1,2.486,2.183l-.229,22.858a3.116,3.116,0,0,1-2.536,2.959L342.255,66.385a2.053,2.053,0,0,1-.394.038,2.1,2.1,0,0,1-2.093-2.22l.195-17.549s.379-6.886-6.154-6.886h0L323.418,41.4a2.091,2.091,0,0,1-2.482-2.178l.214-22.878a3.122,3.122,0,0,1,2.53-2.968L380.5,4.432a2.14,2.14,0,0,1,.4-.038M380.9,3h0a3.526,3.526,0,0,0-.634.058L323.463,12l-.024,0-.024,0a4.492,4.492,0,0,0-3.659,4.294l-.215,22.879a3.486,3.486,0,0,0,4.114,3.6l10.257-1.615A4.351,4.351,0,0,1,337.2,42.4a6.44,6.44,0,0,1,1.375,4.174l0,.03v.031l-.194,17.522a3.493,3.493,0,0,0,3.486,3.659,3.545,3.545,0,0,0,.63-.057l72.155-11.406.021,0,.02,0a4.484,4.484,0,0,0,3.672-4.283l.229-22.861a3.49,3.49,0,0,0-4.115-3.6l-12.2,1.929a23.146,23.146,0,0,1-3.695.276c-6.512,0-14.275-2.261-14.275-13.029V14.74l.075-8.086A3.485,3.485,0,0,0,380.9,3" transform="translate(-109.004 -0.908)" stroke="#000" stroke-width="2"/>
          <path id="패스_41375" data-name="패스 41375" d="M339.164,64.422a2.794,2.794,0,0,1-2.788-2.957l.192-17.517A7.149,7.149,0,0,0,335,39.219a5.106,5.106,0,0,0-3.835-1.452l-10.334,1.627a2.733,2.733,0,0,1-.506.047,2.791,2.791,0,0,1-2.782-2.954l.213-22.844a3.8,3.8,0,0,1,3.1-3.646l56.843-8.95A2.733,2.733,0,0,1,378.2,1a2.79,2.79,0,0,1,2.782,2.955l-.075,8.089c0,5.314,1.806,9.133,5.368,11.39a18.364,18.364,0,0,0,9.6,2.373,23.665,23.665,0,0,0,3.789-.282L411.9,23.591a2.713,2.713,0,0,1,.5-.046,2.8,2.8,0,0,1,2.789,2.958l-.228,22.825a3.794,3.794,0,0,1-3.1,3.636L339.667,64.376a2.728,2.728,0,0,1-.5.046" transform="translate(-108.399 -0.303)" fill="#ca121f"/>
          <path id="패스_41376" data-name="패스 41376" d="M377.9,1.395a2.092,2.092,0,0,1,2.051,1.7,2.114,2.114,0,0,1,.034.518l-.076,8.123v.044c0,12.615,9.956,14.424,15.67,14.424a24.209,24.209,0,0,0,3.913-.293l12.22-1.932a2.1,2.1,0,0,1,2.486,2.183l-.229,22.858a3.116,3.116,0,0,1-2.536,2.959L339.255,63.385a2.053,2.053,0,0,1-.394.038,2.1,2.1,0,0,1-2.093-2.22l.195-17.549s.379-6.886-6.154-6.886h0L320.418,38.4a2.091,2.091,0,0,1-2.482-2.178l.214-22.878a3.122,3.122,0,0,1,2.53-2.968L377.5,1.432a2.14,2.14,0,0,1,.4-.038M377.9,0h0a3.526,3.526,0,0,0-.634.058L320.463,9l-.024,0-.024,0a4.492,4.492,0,0,0-3.659,4.294l-.215,22.879a3.486,3.486,0,0,0,4.114,3.6l10.257-1.615A4.351,4.351,0,0,1,334.2,39.4a6.44,6.44,0,0,1,1.375,4.174l0,.03v.031l-.194,17.522a3.493,3.493,0,0,0,3.486,3.659,3.545,3.545,0,0,0,.63-.057l72.155-11.406.021,0,.02,0a4.484,4.484,0,0,0,3.672-4.283l.229-22.861a3.49,3.49,0,0,0-4.115-3.6l-12.2,1.929a23.147,23.147,0,0,1-3.695.276c-6.512,0-14.275-2.261-14.275-13.029V11.74l.075-8.086A3.484,3.484,0,0,0,377.9,0" transform="translate(-108.096)" stroke="#000" stroke-width="2"/>
          <path id="패스_41377" data-name="패스 41377" d="M364.852,31.033l15.026-7.518s5.306-26.928,5.306-9.238,19.582,14.131,19.582,14.131l12.22-1.932a2.1,2.1,0,0,1,2.486,2.183l-.229,22.858a3.115,3.115,0,0,1-2.536,2.959L344.533,65.885a2.1,2.1,0,0,1-2.452-1.671,2.072,2.072,0,0,1-.033-.513l.194-17.549s.379-6.886-6.153-6.886c-6.875,0,5.212-6.454,5.212-6.454Z" transform="translate(-113.374 -2.499)" fill="#fff"/>
          <path id="패스_41378" data-name="패스 41378" d="M370.36,55.93l-.144,14.808-3.239.508.059-6.014-6.406,1-.059,6.015-3.239.508.145-14.808,3.238-.508-.057,5.869,6.407-1,.057-5.869Z" transform="translate(-120.445 -16.93)"/>
          <path id="패스_41379" data-name="패스 41379" d="M418.853,51.274l-4.716.739L414.022,63.9l-3.238.508.116-11.883-4.716.739.029-2.925,12.671-1.986Z" transform="translate(-135.233 -14.635)"/>
          <path id="패스_41380" data-name="패스 41380" d="M440.011,47.958,435.3,48.7l-.116,11.883-3.239.507.116-11.883-4.716.741.029-2.925,12.671-1.986Z" transform="translate(-141.637 -13.632)"/>
          <path id="패스_41381" data-name="패스 41381" d="M387.544,67.479l-5.912-5.119c-1.836-1.6-1.806-4.672.067-6.856s4.878-2.654,6.714-1.052l.1.088.1-.12c1.885-2.173,4.89-2.624,6.713-1.008,1.807,1.6,1.777,4.637-.066,6.81l-6.928,7.966Z" transform="translate(-127.39 -15.875)" fill="#ca121f"/>
          <path id="패스_41382" data-name="패스 41382" d="M377.843,30.063l-56.818,8.945a2.091,2.091,0,0,1-2.449-1.66,2.118,2.118,0,0,1-.034-.518l.214-22.879a3.123,3.123,0,0,1,2.53-2.968L378.1,2.038a2.09,2.09,0,0,1,2.482,2.178L380.374,27.1a3.122,3.122,0,0,1-2.531,2.968" transform="translate(-108.702 -0.606)" fill="#ca121f"/>
          <path id="패스_41383" data-name="패스 41383" d="M334.161,22.893l-.1,11.132,6.751-1.063-.026,2.74-9.771,1.538.131-13.874Z" transform="translate(-112.477 -6.93)" fill="#fff"/>
          <path id="패스_41384" data-name="패스 41384" d="M350.36,20.343l-.13,13.873-3.019.475.13-13.873Z" transform="translate(-117.381 -6.158)" fill="#fff"/>
          <path id="패스_41385" data-name="패스 41385" d="M367.607,16.89,362.136,31.6l-3.251.512-5.211-13.032,3.417-.538,3.586,9.634,3.762-10.791Z" transform="translate(-119.338 -5.113)" fill="#fff"/>
          <path id="패스_41386" data-name="패스 41386" d="M375.547,15.9,385.6,14.314,385.573,17l-7.032,1.107-.027,2.828,6.452-1.016-.025,2.689-6.452,1.015-.028,2.978,7.181-1.131-.024,2.691-10.2,1.605Z" transform="translate(-125.919 -4.333)" fill="#fff"/>
          <path id="패스_41387" data-name="패스 41387" d="M395.3,22.493l-2.057.324-.676-9.155,3.583-.564Zm.7,2.932a2.1,2.1,0,0,1-1.775,2.064,1.42,1.42,0,0,1-1.741-1.51,2.12,2.12,0,0,1,1.775-2.079,1.433,1.433,0,0,1,1.743,1.527" transform="translate(-131.086 -3.965)" fill="#fff"/>
          <path id="패스_41388" data-name="패스 41388" d="M19.805,46.191a9.4,9.4,0,1,1-9.4-9.4,9.4,9.4,0,0,1,9.4,9.4" transform="translate(-1 -5.825)"/>
          <ellipse id="타원_788" data-name="타원 788" cx="9.403" cy="9.403" rx="9.403" ry="9.403" transform="translate(0 30.963)" fill="none" stroke="#000" stroke-miterlimit="10" stroke-width="2"/>
          <path id="패스_41389" data-name="패스 41389" d="M19.805,43.8a9.4,9.4,0,1,1-9.4-9.4,9.4,9.4,0,0,1,9.4,9.4" transform="translate(-1 -4.478)" fill="#ca121f"/>
          <ellipse id="타원_789" data-name="타원 789" cx="9.403" cy="9.403" rx="9.403" ry="9.403" transform="translate(0 29.92)" fill="none" stroke="#000" stroke-miterlimit="10" stroke-width="2"/>
          <path id="패스_41390" data-name="패스 41390" d="M83.946,54.887a13.167,13.167,0,0,1-10.47-21.151h-1.46a.7.7,0,0,1-.7-.7v-5a.7.7,0,0,1,.7-.7h8.257V25.061a.7.7,0,0,1,.7-.7h6.023a.7.7,0,0,1,.7.7v2.279h8.152a.7.7,0,0,1,.7.7v5a.7.7,0,0,1-.7.7h-1.45A13.152,13.152,0,0,1,83.946,54.887Zm-.006-19.621a6.453,6.453,0,1,0,.013,0l-.013-.7Z" transform="translate(-33.706 -7.375)"/>
          <path id="패스_41391" data-name="패스 41391" d="M86.69,24.759v2.977h8.849v5H92.557a12.456,12.456,0,1,1-17.864,0h-2.98v-5h8.954V24.759ZM83.625,48.577a7.156,7.156,0,0,0,.027-14.313h-.014a7.156,7.156,0,0,0-.013,14.313M86.69,23.364H80.667a1.4,1.4,0,0,0-1.395,1.395v1.582H71.714a1.394,1.394,0,0,0-1.395,1.395v5a1.4,1.4,0,0,0,1.395,1.395h.135a13.865,13.865,0,1,0,25.66,7.3,13.709,13.709,0,0,0-2.084-7.3h.115a1.4,1.4,0,0,0,1.395-1.395v-5a1.4,1.4,0,0,0-1.395-1.395H88.085V24.759a1.4,1.4,0,0,0-1.395-1.395M83.626,47.183A5.762,5.762,0,1,1,89.4,41.421a5.786,5.786,0,0,1-5.774,5.762" transform="translate(-33.403 -7.072)"/>
          <path id="패스_41392" data-name="패스 41392" d="M105.225,85.065a.7.7,0,0,1-.492-.2l-8.189-8.174-8.182,8.166a.7.7,0,0,1-.492.2H80.12a.7.7,0,0,1-.492-1.191L96.053,67.479a.7.7,0,0,1,.985,0l16.428,16.4a.7.7,0,0,1-.493,1.191Z" transform="translate(-36.32 -20.365)"/>
          <path id="패스_41393" data-name="패스 41393" d="M96.242,67.67l16.428,16.4h-7.748L96.242,75.4l0-.008c-1.674,1.672-5.616,5.6-8.681,8.664H79.817Zm0-1.395a1.393,1.393,0,0,0-.985.407L78.832,83.07a1.395,1.395,0,0,0,.985,2.382h7.749a1.394,1.394,0,0,0,.985-.408l5.1-5.087,2.592-2.587,7.7,7.681a1.4,1.4,0,0,0,.985.408h7.748a1.395,1.395,0,0,0,.985-2.382l-16.428-16.4a1.393,1.393,0,0,0-.985-.407" transform="translate(-36.017 -20.062)"/>
          <path id="패스_41394" data-name="패스 41394" d="M140.339,57.124a.7.7,0,0,1-.7-.7V28.35a.7.7,0,0,1,.7-.7h29.348a.7.7,0,0,1,.7.7v5.075a.7.7,0,0,1-.7.7H147.132v4.761h22.555a.7.7,0,0,1,.7.7v5.074a.7.7,0,0,1-.7.7H147.132v5.3h22.555a.7.7,0,0,1,.7.7v5.074a.7.7,0,0,1-.7.7Z" transform="translate(-54.549 -8.371)"/>
          <path id="패스_41395" data-name="패스 41395" d="M169.384,28.048v5.074H146.132v6.156h23.252v5.074H146.132v6.7h23.252v5.075H140.037V28.048Zm0-1.395H140.037a1.4,1.4,0,0,0-1.395,1.395V56.124a1.4,1.4,0,0,0,1.395,1.395h29.348a1.4,1.4,0,0,0,1.395-1.395V51.049a1.4,1.4,0,0,0-1.395-1.395H147.527V45.747h21.857a1.4,1.4,0,0,0,1.395-1.395V39.278a1.4,1.4,0,0,0-1.395-1.395H147.527V34.516h21.857a1.4,1.4,0,0,0,1.395-1.395V28.048a1.4,1.4,0,0,0-1.395-1.395" transform="translate(-54.246 -8.068)"/>
          <path id="패스_41396" data-name="패스 41396" d="M281.864,56.388a.7.7,0,0,1-.6-.349l-9.376-16.255L262.5,56.04a.7.7,0,0,1-.6.349h-6.321a.7.7,0,0,1-.6-1.046l16.3-28.256a.7.7,0,0,1,1.208,0l16.3,28.256a.7.7,0,0,1-.6,1.046Z" transform="translate(-89.433 -8.094)"/>
          <path id="패스_41397" data-name="패스 41397" d="M271.581,27.132l16.3,28.256h-6.322l-9.98-17.3-9.984,17.3h-6.321Zm0-1.395a1.394,1.394,0,0,0-1.208.7l-16.3,28.256a1.394,1.394,0,0,0,1.208,2.091H261.6a1.394,1.394,0,0,0,1.208-.7l8.776-15.208,8.771,15.207a1.394,1.394,0,0,0,1.208.7h6.322a1.394,1.394,0,0,0,1.208-2.091l-16.3-28.256a1.393,1.393,0,0,0-1.208-.7" transform="translate(-89.13 -7.791)"/>
          <path id="패스_41398" data-name="패스 41398" d="M113.564,55.647a.7.7,0,0,1-.7-.7V28.265a.7.7,0,0,1,.7-.7h6.021a.7.7,0,0,1,.7.7v6.272h3.61a.7.7,0,0,1,.7.7v5a.7.7,0,0,1-.7.7h-3.609l.006,14.019a.7.7,0,0,1-.7.7Z" transform="translate(-46.444 -8.345)"/>
          <path id="패스_41399" data-name="패스 41399" d="M119.283,27.963v6.969h4.307v5h-4.307l.006,14.717h-6.027V27.963Zm0-1.395h-6.021a1.4,1.4,0,0,0-1.395,1.395V54.647a1.4,1.4,0,0,0,1.395,1.395h6.027a1.4,1.4,0,0,0,1.395-1.4l-.006-13.322h2.912a1.4,1.4,0,0,0,1.395-1.395v-5a1.4,1.4,0,0,0-1.395-1.395h-2.913V27.963a1.4,1.4,0,0,0-1.395-1.395" transform="translate(-46.141 -8.042)"/>
          <rect id="사각형_21739" data-name="사각형 21739" width="37.823" height="6.393" rx="1" transform="translate(164.217 55.315)"/>
          <path id="패스_41400" data-name="패스 41400" d="M289.938,84.722H253.51v-5h36.428Zm0-6.393H253.51a1.4,1.4,0,0,0-1.395,1.395v5a1.4,1.4,0,0,0,1.395,1.395h36.428a1.4,1.4,0,0,0,1.395-1.395v-5a1.4,1.4,0,0,0-1.395-1.395" transform="translate(-88.595 -23.711)"/>
          <rect id="사각형_21740" data-name="사각형 21740" width="37.82" height="6.393" rx="1" transform="translate(81.264 55.315)"/>
          <path id="패스_41401" data-name="패스 41401" d="M170.97,84.722H134.545v-5H170.97Zm0-6.393H134.545a1.4,1.4,0,0,0-1.395,1.395v5a1.4,1.4,0,0,0,1.395,1.395H170.97a1.4,1.4,0,0,0,1.395-1.395v-5a1.4,1.4,0,0,0-1.395-1.395" transform="translate(-52.584 -23.711)"/>
          <path id="패스_41402" data-name="패스 41402" d="M232.606,55.663a.7.7,0,0,1-.7-.7v-14h-1.461v14a.7.7,0,0,1-.7.7h-5.212a.7.7,0,0,1-.7-.7V28.3a.7.7,0,0,1,.7-.7h5.212a.7.7,0,0,1,.7.7v6.269h1.461V28.3a.7.7,0,0,1,.7-.7h5.2a.7.7,0,0,1,.7.7V54.966a.7.7,0,0,1-.7.7Z" transform="translate(-80.037 -8.357)"/>
          <path id="패스_41403" data-name="패스 41403" d="M237.508,28V54.663h-5.2v-14.7h-2.855v14.7h-5.212V28h5.212v6.967H232.3V28Zm0-1.395h-5.2A1.4,1.4,0,0,0,230.909,28v5.572h-.066V28a1.4,1.4,0,0,0-1.395-1.395h-5.212A1.4,1.4,0,0,0,222.842,28V54.663a1.4,1.4,0,0,0,1.395,1.395h5.212a1.4,1.4,0,0,0,1.395-1.395v-13.3h.066v13.3a1.4,1.4,0,0,0,1.395,1.395h5.2a1.4,1.4,0,0,0,1.395-1.395V28a1.4,1.4,0,0,0-1.395-1.395" transform="translate(-79.734 -8.054)"/>
          <path id="패스_41404" data-name="패스 41404" d="M194.812,53.652a.7.7,0,0,1-.7-.7V38.1a.7.7,0,0,1,.7-.7h11.255v-3.41H194.812a.7.7,0,0,1-.7-.7v-5a.7.7,0,0,1,.7-.7H212.3a.7.7,0,0,1,.7.7V43.149a.7.7,0,0,1-.7.7H200.991v3.4H212.3a.7.7,0,0,1,.7.7v5.009a.7.7,0,0,1-.7.7Z" transform="translate(-71.038 -8.355)"/>
          <path id="패스_41405" data-name="패스 41405" d="M212,27.995V42.847H199.992v4.8h12v5.009H194.51V37.8h11.952v-4.8H194.51v-5Zm0-1.395H194.51a1.4,1.4,0,0,0-1.395,1.395v5a1.4,1.4,0,0,0,1.395,1.395h10.558V36.4H194.51a1.4,1.4,0,0,0-1.395,1.395V52.652a1.4,1.4,0,0,0,1.395,1.395H212a1.4,1.4,0,0,0,1.395-1.395V47.642A1.4,1.4,0,0,0,212,46.248H201.386V44.242H212a1.4,1.4,0,0,0,1.395-1.395V27.995A1.4,1.4,0,0,0,212,26.6" transform="translate(-70.735 -8.052)"/>
          <path id="패스_41406" data-name="패스 41406" d="M224.582,85.724a.7.7,0,0,1-.7-.7V75.72H200.75a.7.7,0,0,1-.7-.7v-5a.7.7,0,0,1,.7-.7H230.61a.7.7,0,0,1,.7.7v15a.7.7,0,0,1-.7.7Z" transform="translate(-72.836 -20.985)"/>
          <path id="패스_41407" data-name="패스 41407" d="M230.307,69.72v15H224.28v-10H200.448v-5Zm0-1.395H200.448a1.4,1.4,0,0,0-1.395,1.395v5a1.4,1.4,0,0,0,1.395,1.395h22.438v8.609a1.4,1.4,0,0,0,1.395,1.395h6.027a1.4,1.4,0,0,0,1.395-1.395v-15a1.4,1.4,0,0,0-1.395-1.395" transform="translate(-72.533 -20.682)"/>
          <path id="패스_41408" data-name="패스 41408" d="M81.021,51.962A13.167,13.167,0,0,1,70.551,30.811h-1.46a.7.7,0,0,1-.7-.7v-5a.7.7,0,0,1,.7-.7h8.257V22.136a.7.7,0,0,1,.7-.7h6.023a.7.7,0,0,1,.7.7v2.279h8.152a.7.7,0,0,1,.7.7v5a.7.7,0,0,1-.7.7h-1.45A13.152,13.152,0,0,1,81.022,51.962Zm0-19.622a6.453,6.453,0,1,0,.013,0l-.013-.7Z" transform="translate(-32.82 -6.49)" fill="#fff"/>
          <path id="패스_41409" data-name="패스 41409" d="M83.762,21.834V24.81h8.849v5H89.629a12.456,12.456,0,1,1-17.863,0h-2.98v-5H77.74V21.834ZM80.7,45.652a7.156,7.156,0,0,0,.027-14.312h-.015A7.156,7.156,0,0,0,80.7,45.652m3.065-25.213H77.74a1.4,1.4,0,0,0-1.395,1.395v1.582H68.786a1.394,1.394,0,0,0-1.395,1.395v5a1.4,1.4,0,0,0,1.395,1.395h.13a13.874,13.874,0,1,0,23.58,0h.115a1.4,1.4,0,0,0,1.395-1.395v-5a1.4,1.4,0,0,0-1.395-1.395H85.157V21.834a1.4,1.4,0,0,0-1.395-1.395M80.7,44.258A5.761,5.761,0,1,1,86.472,38.5,5.786,5.786,0,0,1,80.7,44.258" transform="translate(-32.515 -6.187)"/>
          <path id="패스_41410" data-name="패스 41410" d="M102.3,82.14a.7.7,0,0,1-.492-.2l-8.189-8.174-8.182,8.166a.7.7,0,0,1-.492.2H77.2a.7.7,0,0,1-.492-1.191L93.128,64.554a.7.7,0,0,1,.985,0l16.428,16.4a.7.7,0,0,1-.493,1.191Z" transform="translate(-35.435 -19.479)" fill="#fff"/>
          <path id="패스_41411" data-name="패스 41411" d="M93.317,64.745l16.428,16.4H102l-8.68-8.664,0-.007-8.681,8.663H76.892Zm0-1.395a1.393,1.393,0,0,0-.985.407L75.907,80.145a1.395,1.395,0,0,0,.985,2.382h7.749a1.394,1.394,0,0,0,.985-.408L91.1,76.66l2.219-2.215,7.7,7.681a1.4,1.4,0,0,0,.985.408h7.748a1.395,1.395,0,0,0,.985-2.382L94.3,63.757a1.393,1.393,0,0,0-.985-.407" transform="translate(-35.132 -19.176)"/>
          <path id="패스_41412" data-name="패스 41412" d="M137.414,54.2a.7.7,0,0,1-.7-.7V25.425a.7.7,0,0,1,.7-.7h29.348a.7.7,0,0,1,.7.7V30.5a.7.7,0,0,1-.7.7H144.207v4.761h22.555a.7.7,0,0,1,.7.7V41.73a.7.7,0,0,1-.7.7H144.207v5.3h22.555a.7.7,0,0,1,.7.7V53.5a.7.7,0,0,1-.7.7Z" transform="translate(-53.663 -7.485)" fill="#fff"/>
          <path id="패스_41413" data-name="패스 41413" d="M166.459,25.123V30.2H143.207v6.156h23.252v5.074H143.207v6.7h23.252V53.2H137.112V25.123Zm0-1.395H137.112a1.4,1.4,0,0,0-1.395,1.395V53.2a1.4,1.4,0,0,0,1.395,1.395h29.347a1.4,1.4,0,0,0,1.395-1.395V48.124a1.4,1.4,0,0,0-1.395-1.395H144.6V42.822h21.857a1.4,1.4,0,0,0,1.395-1.395V36.353a1.4,1.4,0,0,0-1.395-1.395H144.6V31.591h21.857a1.4,1.4,0,0,0,1.395-1.395V25.123a1.4,1.4,0,0,0-1.395-1.395" transform="translate(-53.361 -7.183)"/>
          <path id="패스_41414" data-name="패스 41414" d="M278.939,53.463a.7.7,0,0,1-.6-.349l-9.376-16.255-9.38,16.255a.7.7,0,0,1-.6.349h-6.321a.7.7,0,0,1-.6-1.046l16.3-28.255a.7.7,0,0,1,1.208,0l16.3,28.255a.7.7,0,0,1-.6,1.046Z" transform="translate(-88.547 -7.208)" fill="#fff"/>
          <path id="패스_41415" data-name="패스 41415" d="M268.657,24.207l16.3,28.256h-6.322l-9.979-17.3-9.985,17.3h-6.32Zm0-1.395a1.4,1.4,0,0,0-1.208.7l-16.3,28.256a1.395,1.395,0,0,0,1.208,2.091h6.32a1.394,1.394,0,0,0,1.208-.7l8.777-15.208,8.771,15.207a1.4,1.4,0,0,0,1.208.7h6.322a1.394,1.394,0,0,0,1.208-2.091l-16.3-28.256a1.4,1.4,0,0,0-1.208-.7" transform="translate(-88.245 -6.905)"/>
          <path id="패스_41416" data-name="패스 41416" d="M110.639,52.721a.7.7,0,0,1-.7-.7V25.339a.7.7,0,0,1,.7-.7h6.021a.7.7,0,0,1,.7.7v6.273h3.61a.7.7,0,0,1,.7.7v5a.7.7,0,0,1-.7.7h-3.61l.006,14.02a.7.7,0,0,1-.7.7Z" transform="translate(-45.558 -7.459)" fill="#fff"/>
          <path id="패스_41417" data-name="패스 41417" d="M116.358,25.038v6.969h4.307v5h-4.307l.006,14.717h-6.027V25.038Zm0-1.395h-6.021a1.4,1.4,0,0,0-1.395,1.395V51.722a1.4,1.4,0,0,0,1.395,1.395h6.027a1.4,1.4,0,0,0,1.395-1.4L117.753,38.4h2.912A1.4,1.4,0,0,0,122.059,37v-5a1.4,1.4,0,0,0-1.395-1.395h-2.913V25.038a1.4,1.4,0,0,0-1.395-1.395" transform="translate(-45.256 -7.157)"/>
          <rect id="사각형_21741" data-name="사각형 21741" width="37.823" height="6.393" rx="1" transform="translate(162.177 53.276)" fill="#fff"/>
          <path id="패스_41418" data-name="패스 41418" d="M287.012,81.8H250.584v-5h36.428Zm0-6.393H250.584a1.4,1.4,0,0,0-1.395,1.395v5a1.4,1.4,0,0,0,1.395,1.395h36.428a1.4,1.4,0,0,0,1.395-1.395v-5a1.4,1.4,0,0,0-1.395-1.395" transform="translate(-87.709 -22.825)"/>
          <rect id="사각형_21742" data-name="사각형 21742" width="37.82" height="6.393" rx="1" transform="translate(79.224 53.276)" fill="#fff"/>
          <path id="패스_41419" data-name="패스 41419" d="M168.046,81.8H131.621v-5h36.425Zm0-6.393H131.621a1.4,1.4,0,0,0-1.395,1.395v5a1.4,1.4,0,0,0,1.395,1.395h36.425A1.4,1.4,0,0,0,169.44,81.8v-5a1.4,1.4,0,0,0-1.395-1.395" transform="translate(-51.698 -22.825)"/>
          <path id="패스_41420" data-name="패스 41420" d="M229.681,52.738a.7.7,0,0,1-.7-.7v-14h-1.461v14a.7.7,0,0,1-.7.7h-5.212a.7.7,0,0,1-.7-.7V25.378a.7.7,0,0,1,.7-.7h5.212a.7.7,0,0,1,.7.7v6.269h1.461V25.378a.7.7,0,0,1,.7-.7h5.2a.7.7,0,0,1,.7.7V52.041a.7.7,0,0,1-.7.7Z" transform="translate(-79.151 -7.471)" fill="#fff"/>
          <path id="패스_41421" data-name="패스 41421" d="M234.583,25.075V51.738h-5.2v-14.7h-2.855v14.7h-5.212V25.075h5.212v6.967h2.855V25.075Zm0-1.395h-5.2a1.4,1.4,0,0,0-1.395,1.395v5.572h-.066V25.075a1.4,1.4,0,0,0-1.395-1.395h-5.212a1.4,1.4,0,0,0-1.395,1.395V51.738a1.4,1.4,0,0,0,1.395,1.395h5.212a1.4,1.4,0,0,0,1.395-1.395v-13.3h.066v13.3a1.4,1.4,0,0,0,1.395,1.395h5.2a1.4,1.4,0,0,0,1.395-1.395V25.075a1.4,1.4,0,0,0-1.395-1.395" transform="translate(-78.849 -7.168)"/>
          <path id="패스_41422" data-name="패스 41422" d="M191.887,50.726a.7.7,0,0,1-.7-.7V35.177a.7.7,0,0,1,.7-.7h11.255V31.07H191.887a.7.7,0,0,1-.7-.7v-5a.7.7,0,0,1,.7-.7h17.487a.7.7,0,0,1,.7.7V40.224a.7.7,0,0,1-.7.7H198.066v3.4h11.307a.7.7,0,0,1,.7.7v5.009a.7.7,0,0,1-.7.7Z" transform="translate(-70.153 -7.469)" fill="#fff"/>
          <path id="패스_41423" data-name="패스 41423" d="M209.071,25.07V39.921H197.066v4.8h12v5.009H191.585V34.874h11.952v-4.8H191.585v-5Zm0-1.395H191.585a1.4,1.4,0,0,0-1.395,1.395v5a1.4,1.4,0,0,0,1.395,1.395h10.557V33.48H191.585a1.4,1.4,0,0,0-1.395,1.395V49.726a1.394,1.394,0,0,0,1.395,1.395H209.07a1.394,1.394,0,0,0,1.395-1.395V44.717a1.4,1.4,0,0,0-1.395-1.395H198.461V41.316h10.611a1.4,1.4,0,0,0,1.395-1.395V25.07a1.4,1.4,0,0,0-1.395-1.395" transform="translate(-69.85 -7.167)"/>
          <path id="패스_41424" data-name="패스 41424" d="M221.657,82.8a.7.7,0,0,1-.7-.7V72.795H197.825a.7.7,0,0,1-.7-.7v-5a.7.7,0,0,1,.7-.7h29.859a.7.7,0,0,1,.7.7v15a.7.7,0,0,1-.7.7Z" transform="translate(-71.95 -20.1)" fill="#fff"/>
          <path id="패스_41425" data-name="패스 41425" d="M227.382,66.795v15h-6.027v-10H197.522v-5Zm0-1.395h-29.86a1.4,1.4,0,0,0-1.395,1.395v5a1.4,1.4,0,0,0,1.395,1.395H219.96V81.8a1.4,1.4,0,0,0,1.395,1.395h6.027a1.4,1.4,0,0,0,1.395-1.395v-15a1.4,1.4,0,0,0-1.395-1.395" transform="translate(-71.647 -19.797)"/>
        </g>
      </g>
      <g id="그룹_115721" data-name="그룹 115721" transform="translate(845.558 -1113.852)">
        <path id="패스_41426" data-name="패스 41426" d="M28.161,1H1V28.161H8.456V8.455h19.7Z" transform="translate(-5 -1)" fill="#d4ff1a"/>
        <g id="그룹_115714" data-name="그룹 115714" transform="translate(-4 0)">
          <g id="그룹_115724" data-name="그룹 115724" transform="translate(0 0)">
            <path id="패스_41427" data-name="패스 41427" d="M28.161,1H1V28.161H8.456V8.455h19.7Z" transform="translate(-1 -1)" fill="none" stroke="#000" stroke-miterlimit="10" stroke-width="2"/>
          </g>
        </g>
        <path id="패스_41428" data-name="패스 41428" d="M515.064,28.161V1H487.9V8.456h19.705v19.7Z" transform="translate(-145.064 -1)" fill="#fff"/>
        <g id="그룹_115716" data-name="그룹 115716" transform="translate(342.839 0)">
          <g id="그룹_115723" data-name="그룹 115723" transform="translate(0 0)">
            <path id="패스_41429" data-name="패스 41429" d="M515.064,28.161V1H487.9V8.456h19.705v19.7Z" transform="translate(-487.904 -1)" fill="#d4ff1a" stroke="#000" stroke-miterlimit="10" stroke-width="2"/>
          </g>
        </g>
        <path id="패스_41430" data-name="패스 41430" d="M487.9,144.295h27.161V117.134h-7.456v19.705H487.9Z" transform="translate(-145.064 -54.955)" fill="#d4ff1a"/>
        <g id="그룹_115718" data-name="그룹 115718" transform="translate(342.839 62.179)">
          <g id="그룹_115722" data-name="그룹 115722">
            <path id="패스_41431" data-name="패스 41431" d="M487.9,144.295h27.161V117.134h-7.456v19.705H487.9Z" transform="translate(-487.904 -117.134)" fill="none" stroke="#000" stroke-miterlimit="10" stroke-width="2"/>
          </g>
        </g>
        <path id="패스_41432" data-name="패스 41432" d="M1,117.134v27.161H28.161v-7.456H8.456v-19.7Z" transform="translate(-5 -54.955)" fill="#d4ff1a"/>
        <g id="그룹_115720" data-name="그룹 115720" transform="translate(-4 62.179)">
          <g id="그룹_115725" data-name="그룹 115725">
            <path id="패스_41433" data-name="패스 41433" d="M1,117.134v27.161H28.161v-7.456H8.456v-19.7Z" transform="translate(-1 -117.134)" fill="none" stroke="#000" stroke-miterlimit="10" stroke-width="2"/>
          </g>
        </g>
      </g>
    </g>
    <rect id="사각형_21750" data-name="사각형 21750" width="380" height="96" transform="translate(4449 -1466)" fill="none"/>
  </g>
</svg>
