<svg xmlns="http://www.w3.org/2000/svg" width="23.402" height="25.822" viewBox="0 0 23.402 25.822">
  <g id="Group_112027" data-name="Group 112027" transform="translate(-214.11 -1177.709) rotate(3)">
    <path id="Path_37263" data-name="Path 37263" d="M26.272,123.574a33.074,33.074,0,0,1,2.409,4.729,33.068,33.068,0,0,1-4.729-2.409,1.64,1.64,0,1,1,2.32-2.32" transform="translate(258.909 1042.064)" fill="#fff" stroke="#000" stroke-width="1.2"/>
    <path id="Path_37264" data-name="Path 37264" d="M26.272,123.574a33.074,33.074,0,0,1,2.409,4.729,33.068,33.068,0,0,1-4.729-2.409,1.64,1.64,0,1,1,2.32-2.32Z" transform="translate(258.909 1042.064)" fill="none" stroke="#000" stroke-linecap="round" stroke-linejoin="round" stroke-width="1.2"/>
    <path id="Path_37265" data-name="Path 37265" d="M45.785,123.574a33.074,33.074,0,0,0-2.409,4.729,33.067,33.067,0,0,0,4.728-2.409,1.64,1.64,0,1,0-2.32-2.32" transform="translate(244.215 1042.064)" fill="#fff" stroke="#000" stroke-width="1.2"/>
    <path id="Path_37266" data-name="Path 37266" d="M45.785,123.574a33.074,33.074,0,0,0-2.409,4.729,33.067,33.067,0,0,0,4.728-2.409,1.64,1.64,0,1,0-2.32-2.32Z" transform="translate(244.215 1042.064)" fill="none" stroke="#000" stroke-linecap="round" stroke-linejoin="round" stroke-width="1.2"/>
    <rect id="Rectangle_19796" data-name="Rectangle 19796" width="21.919" height="4.798" transform="translate(276.631 1170.519)" fill="#7582f0" stroke="#000" stroke-width="1.2"/>
    <rect id="Rectangle_19798" data-name="Rectangle 19798" width="20.017" height="13.639" transform="translate(277.581 1175.316)" fill="#7582f0" stroke="#000" stroke-width="1.2"/>
    <rect id="Rectangle_19800" data-name="Rectangle 19800" width="2.645" height="18.436" transform="translate(286.267 1170.519)" fill="#fff" stroke="#000" stroke-width="1.2"/>
    <rect id="Rectangle_19801" data-name="Rectangle 19801" width="2.645" height="18.436" transform="translate(286.267 1170.519)" fill="none" stroke="#000" stroke-linecap="round" stroke-linejoin="round" stroke-width="1.2"/>
  </g>
</svg>
