<svg xmlns="http://www.w3.org/2000/svg" xmlns:xlink="http://www.w3.org/1999/xlink" width="232" height="110" viewBox="0 0 232 110">
  <defs>
    <filter id="패스_52179" x="64.406" y="62.575" width="106.149" height="30.789" filterUnits="userSpaceOnUse">
      <feOffset dx="2" dy="3" input="SourceAlpha"/>
      <feGaussianBlur result="blur"/>
      <feFlood/>
      <feComposite operator="in" in2="blur"/>
      <feComposite in="SourceGraphic"/>
    </filter>
  </defs>
  <g id="그룹_116360" data-name="그룹 116360" transform="translate(14698 -8870)">
    <rect id="사각형_22468" data-name="사각형 22468" width="232" height="110" transform="translate(-14698 8870)" fill="none"/>
    <g id="그룹_116358" data-name="그룹 116358" transform="translate(591 -8.808)">
      <path id="합치기_202" data-name="합치기 202" d="M22.559,91.369a21.809,21.809,0,1,1,0-43.618H82.387a29.662,29.662,0,0,1-.244-30.678l-2.75,2.75A11.754,11.754,0,0,1,96.009,3.208L92.483,6.733a29.663,29.663,0,0,1,30.6.193l-3.718-3.718a11.754,11.754,0,0,1,16.616,16.616l-3.071-3.071a29.662,29.662,0,0,1-.05,31H192a21.809,21.809,0,1,1,0,43.618Z" transform="translate(-15280.133 8887.808)" fill="#7281f4" stroke="#000" stroke-width="16"/>
      <path id="합치기_201" data-name="합치기 201" d="M22.559,91.369a21.809,21.809,0,1,1,0-43.618H82.387a29.662,29.662,0,0,1-.244-30.678l-2.75,2.75A11.754,11.754,0,0,1,96.009,3.208L92.483,6.733a29.663,29.663,0,0,1,30.6.193l-3.718-3.718a11.754,11.754,0,0,1,16.616,16.616l-3.071-3.071a29.662,29.662,0,0,1-.05,31H192a21.809,21.809,0,1,1,0,43.618Z" transform="translate(-15280.133 8887.808)" fill="#7281f4" stroke="#f06a86" stroke-width="13"/>
      <path id="패스_52252" data-name="패스 52252" d="M28.393,20.307c-.034,4.57-.873,8.269-1.874,8.26s-1.785-3.717-1.752-8.287.873-8.269,1.874-8.262,1.785,3.718,1.752,8.288" transform="translate(-15199.03 8891.451)" fill="#7281f4" stroke="#000" stroke-width="16"/>
      <path id="패스_52253" data-name="패스 52253" d="M26.442,29.406h-.011c-1.335-.009-1.87-1.809-2.156-3.161a29.634,29.634,0,0,1-.507-6.052,29.641,29.641,0,0,1,.6-6.039c.3-1.346.864-3.135,2.194-3.135h.009c1.337.011,1.871,1.81,2.157,3.162a29.637,29.637,0,0,1,.507,6.052,29.641,29.641,0,0,1-.6,6.038C28.331,27.617,27.772,29.406,26.442,29.406Z" transform="translate(-15198.948 8891.532)" fill="#7281f4" stroke="#000" stroke-width="16"/>
      <path id="패스_52254" data-name="패스 52254" d="M2.659,14h-.02a1.764,1.764,0,0,1-1.444-.886A5.454,5.454,0,0,1,.51,11.53,16.618,16.618,0,0,1,0,6.961,16.653,16.653,0,0,1,.63,2.417,5.493,5.493,0,0,1,1.353.857,1.778,1.778,0,0,1,2.808,0h.019A1.766,1.766,0,0,1,4.272.887a5.458,5.458,0,0,1,.685,1.579,16.621,16.621,0,0,1,.508,4.569,16.653,16.653,0,0,1-.627,4.544,5.491,5.491,0,0,1-.723,1.559A1.778,1.778,0,0,1,2.659,14Z" transform="translate(-15173.98 8923.082) rotate(-45)" fill="#7281f4" stroke="#000" stroke-width="16"/>
      <path id="패스_52255" data-name="패스 52255" d="M31.142,27.929a3.214,3.214,0,1,1-3.215-3.215A3.216,3.216,0,0,1,31.142,27.929Z" transform="translate(-15200.44 8892.09)" fill="#7281f4" stroke="#000" stroke-width="16"/>
      <line id="선_844" data-name="선 844" y2="2.98" transform="translate(-15172.512 8896.588)" fill="#7281f4" stroke="#000" stroke-width="16"/>
      <line id="선_845" data-name="선 845" y2="2.98" transform="translate(-15172.512 8896.588)" fill="#7281f4" stroke="#000" stroke-width="16"/>
      <line id="선_846" data-name="선 846" x2="1.489" y2="2.581" transform="translate(-15184.229 8899.727)" fill="#7281f4" stroke="#000" stroke-width="16"/>
      <line id="선_847" data-name="선 847" x2="1.489" y2="2.581" transform="translate(-15184.229 8899.727)" fill="#7281f4" stroke="#000" stroke-width="16"/>
      <line id="선_848" data-name="선 848" x2="2.58" y2="1.489" transform="translate(-15192.805 8908.303)" fill="#7281f4" stroke="#000" stroke-width="16"/>
      <line id="선_849" data-name="선 849" x2="2.58" y2="1.489" transform="translate(-15192.805 8908.303)" fill="#7281f4" stroke="#000" stroke-width="16"/>
      <line id="선_850" data-name="선 850" x2="2.98" transform="translate(-15195.944 8920.02)" fill="#7281f4" stroke="#000" stroke-width="16"/>
      <line id="선_851" data-name="선 851" x2="2.98" transform="translate(-15195.944 8920.02)" fill="#7281f4" stroke="#000" stroke-width="16"/>
      <line id="선_852" data-name="선 852" y1="1.489" x2="2.58" transform="translate(-15192.805 8930.246)" fill="#7281f4" stroke="#000" stroke-width="16"/>
      <line id="선_853" data-name="선 853" y1="1.489" x2="2.58" transform="translate(-15192.805 8930.246)" fill="#7281f4" stroke="#000" stroke-width="16"/>
      <line id="선_854" data-name="선 854" y1="2.815" x2="1.625" transform="translate(-15185.301 8938.462)" fill="#7281f4" stroke="#000" stroke-width="16"/>
      <line id="선_855" data-name="선 855" y1="2.815" x2="1.625" transform="translate(-15185.301 8938.462)" fill="#7281f4" stroke="#000" stroke-width="16"/>
      <line id="선_856" data-name="선 856" y1="3.251" transform="translate(-15172.518 8941.451)" fill="#7281f4" stroke="#000" stroke-width="16"/>
      <line id="선_857" data-name="선 857" y1="3.251" transform="translate(-15172.518 8941.451)" fill="#7281f4" stroke="#000" stroke-width="16"/>
      <line id="선_858" data-name="선 858" x1="1.625" y1="2.815" transform="translate(-15161.359 8938.462)" fill="#7281f4" stroke="#000" stroke-width="16"/>
      <line id="선_859" data-name="선 859" x1="1.625" y1="2.815" transform="translate(-15161.359 8938.462)" fill="#7281f4" stroke="#000" stroke-width="16"/>
      <line id="선_860" data-name="선 860" x1="2.58" y1="1.489" transform="translate(-15154.799 8930.246)" fill="#7281f4" stroke="#000" stroke-width="16"/>
      <line id="선_861" data-name="선 861" x1="2.58" y1="1.489" transform="translate(-15154.799 8930.246)" fill="#7281f4" stroke="#000" stroke-width="16"/>
      <line id="선_862" data-name="선 862" x1="2.98" transform="translate(-15152.06 8920.02)" fill="#7281f4" stroke="#000" stroke-width="16"/>
      <line id="선_863" data-name="선 863" x1="2.98" transform="translate(-15152.06 8920.02)" fill="#7281f4" stroke="#000" stroke-width="16"/>
      <line id="선_864" data-name="선 864" x1="2.58" y2="1.489" transform="translate(-15154.799 8908.303)" fill="#7281f4" stroke="#000" stroke-width="16"/>
      <line id="선_865" data-name="선 865" x1="2.58" y2="1.489" transform="translate(-15154.799 8908.303)" fill="#7281f4" stroke="#000" stroke-width="16"/>
      <line id="선_866" data-name="선 866" x1="1.489" y2="2.581" transform="translate(-15162.284 8899.727)" fill="#7281f4" stroke="#000" stroke-width="16"/>
      <line id="선_867" data-name="선 867" x1="1.489" y2="2.581" transform="translate(-15162.284 8899.727)" fill="#7281f4" stroke="#000" stroke-width="16"/>
      <path id="패스_52161" data-name="패스 52161" d="M52.954,29.522A23.432,23.432,0,1,1,29.522,6.09,23.433,23.433,0,0,1,52.954,29.522" transform="translate(-15202.034 8890.498)" fill="#7281f4" stroke="#f06a86" stroke-width="13"/>
      <ellipse id="타원_808" data-name="타원 808" cx="23.432" cy="23.432" rx="23.432" ry="23.432" transform="translate(-15195.944 8896.588)" fill="#7281f4" stroke="#f06a86" stroke-width="13"/>
      <path id="패스_52162" data-name="패스 52162" d="M28.393,20.307c-.034,4.57-.873,8.269-1.874,8.26s-1.785-3.717-1.752-8.287.873-8.269,1.874-8.262,1.785,3.718,1.752,8.288" transform="translate(-15199.03 8891.451)" fill="#7281f4" stroke="#f06a86" stroke-width="13"/>
      <path id="패스_52163" data-name="패스 52163" d="M26.442,29.406h-.011c-1.335-.009-1.87-1.809-2.156-3.161a29.634,29.634,0,0,1-.507-6.052,29.641,29.641,0,0,1,.6-6.039c.3-1.346.864-3.135,2.194-3.135h.009c1.337.011,1.871,1.81,2.157,3.162a29.637,29.637,0,0,1,.507,6.052,29.641,29.641,0,0,1-.6,6.038C28.331,27.617,27.772,29.406,26.442,29.406Z" transform="translate(-15198.948 8891.532)" fill="#7281f4" stroke="#f06a86" stroke-width="13"/>
      <path id="패스_52165" data-name="패스 52165" d="M2.659,14h-.02a1.764,1.764,0,0,1-1.444-.886A5.454,5.454,0,0,1,.51,11.53,16.618,16.618,0,0,1,0,6.961,16.653,16.653,0,0,1,.63,2.417,5.493,5.493,0,0,1,1.353.857,1.778,1.778,0,0,1,2.808,0h.019A1.766,1.766,0,0,1,4.272.887a5.458,5.458,0,0,1,.685,1.579,16.621,16.621,0,0,1,.508,4.569,16.653,16.653,0,0,1-.627,4.544,5.491,5.491,0,0,1-.723,1.559A1.778,1.778,0,0,1,2.659,14Z" transform="translate(-15173.98 8923.082) rotate(-45)" fill="#7281f4" stroke="#f06a86" stroke-width="13"/>
      <path id="패스_52167" data-name="패스 52167" d="M31.142,27.929a3.214,3.214,0,1,1-3.215-3.215A3.216,3.216,0,0,1,31.142,27.929Z" transform="translate(-15200.44 8892.09)" fill="#7281f4" stroke="#f06a86" stroke-width="13"/>
      <line id="선_820" data-name="선 820" y2="2.98" transform="translate(-15172.512 8896.588)" fill="#7281f4" stroke="#f06a86" stroke-width="13"/>
      <line id="선_821" data-name="선 821" y2="2.98" transform="translate(-15172.512 8896.588)" fill="#7281f4" stroke="#f06a86" stroke-width="13"/>
      <line id="선_822" data-name="선 822" x2="1.489" y2="2.581" transform="translate(-15184.229 8899.727)" fill="#7281f4" stroke="#f06a86" stroke-width="13"/>
      <line id="선_823" data-name="선 823" x2="1.489" y2="2.581" transform="translate(-15184.229 8899.727)" fill="#7281f4" stroke="#f06a86" stroke-width="13"/>
      <line id="선_824" data-name="선 824" x2="2.58" y2="1.489" transform="translate(-15192.805 8908.303)" fill="#7281f4" stroke="#f06a86" stroke-width="13"/>
      <line id="선_825" data-name="선 825" x2="2.58" y2="1.489" transform="translate(-15192.805 8908.303)" fill="#7281f4" stroke="#f06a86" stroke-width="13"/>
      <line id="선_826" data-name="선 826" x2="2.98" transform="translate(-15195.944 8920.02)" fill="#7281f4" stroke="#f06a86" stroke-width="13"/>
      <line id="선_827" data-name="선 827" x2="2.98" transform="translate(-15195.944 8920.02)" fill="#7281f4" stroke="#f06a86" stroke-width="13"/>
      <line id="선_828" data-name="선 828" y1="1.489" x2="2.58" transform="translate(-15192.805 8930.246)" fill="#7281f4" stroke="#f06a86" stroke-width="13"/>
      <line id="선_829" data-name="선 829" y1="1.489" x2="2.58" transform="translate(-15192.805 8930.246)" fill="#7281f4" stroke="#f06a86" stroke-width="13"/>
      <line id="선_830" data-name="선 830" y1="2.815" x2="1.625" transform="translate(-15185.301 8938.462)" fill="#7281f4" stroke="#f06a86" stroke-width="13"/>
      <line id="선_831" data-name="선 831" y1="2.815" x2="1.625" transform="translate(-15185.301 8938.462)" fill="#7281f4" stroke="#f06a86" stroke-width="13"/>
      <line id="선_832" data-name="선 832" y1="3.251" transform="translate(-15172.518 8941.451)" fill="#7281f4" stroke="#f06a86" stroke-width="13"/>
      <line id="선_833" data-name="선 833" y1="3.251" transform="translate(-15172.518 8941.451)" fill="#7281f4" stroke="#f06a86" stroke-width="13"/>
      <line id="선_834" data-name="선 834" x1="1.625" y1="2.815" transform="translate(-15161.359 8938.462)" fill="#7281f4" stroke="#f06a86" stroke-width="13"/>
      <line id="선_835" data-name="선 835" x1="1.625" y1="2.815" transform="translate(-15161.359 8938.462)" fill="#7281f4" stroke="#f06a86" stroke-width="13"/>
      <line id="선_836" data-name="선 836" x1="2.58" y1="1.489" transform="translate(-15154.799 8930.246)" fill="#7281f4" stroke="#f06a86" stroke-width="13"/>
      <line id="선_837" data-name="선 837" x1="2.58" y1="1.489" transform="translate(-15154.799 8930.246)" fill="#7281f4" stroke="#f06a86" stroke-width="13"/>
      <line id="선_838" data-name="선 838" x1="2.98" transform="translate(-15152.06 8920.02)" fill="#7281f4" stroke="#f06a86" stroke-width="13"/>
      <line id="선_839" data-name="선 839" x1="2.98" transform="translate(-15152.06 8920.02)" fill="#7281f4" stroke="#f06a86" stroke-width="13"/>
      <line id="선_840" data-name="선 840" x1="2.58" y2="1.489" transform="translate(-15154.799 8908.303)" fill="#7281f4" stroke="#f06a86" stroke-width="13"/>
      <line id="선_841" data-name="선 841" x1="2.58" y2="1.489" transform="translate(-15154.799 8908.303)" fill="#7281f4" stroke="#f06a86" stroke-width="13"/>
      <line id="선_842" data-name="선 842" x1="1.489" y2="2.581" transform="translate(-15162.284 8899.727)" fill="#7281f4" stroke="#f06a86" stroke-width="13"/>
      <line id="선_843" data-name="선 843" x1="1.489" y2="2.581" transform="translate(-15162.284 8899.727)" fill="#7281f4" stroke="#f06a86" stroke-width="13"/>
      <path id="패스_52160" data-name="패스 52160" d="M60.012,30.381A29.631,29.631,0,1,1,30.381.75,29.63,29.63,0,0,1,60.012,30.381" transform="translate(-15202.893 8889.638)" fill="#7281f4" stroke="#000" stroke-width="1.5"/>
      <path id="패스_52161-2" data-name="패스 52161" d="M52.954,29.522A23.432,23.432,0,1,1,29.522,6.09,23.433,23.433,0,0,1,52.954,29.522" transform="translate(-15202.034 8890.497)" fill="#fff7e9"/>
      <ellipse id="타원_808-2" data-name="타원 808" cx="23.432" cy="23.432" rx="23.432" ry="23.432" transform="translate(-15195.944 8896.587)" fill="none" stroke="#000" stroke-linecap="round" stroke-linejoin="round" stroke-width="1.5"/>
      <path id="패스_52162-2" data-name="패스 52162" d="M28.393,20.307c-.034,4.57-.873,8.269-1.874,8.26s-1.785-3.717-1.752-8.287.873-8.269,1.874-8.262,1.785,3.718,1.752,8.288" transform="translate(-15199.03 8891.45)" fill="#fce652"/>
      <g id="패스_52163-2" data-name="패스 52163" transform="translate(-15199.03 8891.45)" fill="#fff" stroke-linecap="round" stroke-linejoin="round">
        <path d="M 26.52310371398926 29.31764602661133 L 26.52006340026855 29.31764602661133 L 26.51372337341309 29.3176155090332 C 25.30008316040039 29.30917549133301 24.79565238952637 27.58586502075195 24.52188301086426 26.29035568237305 C 24.18038368225098 24.6743049621582 24.00149345397949 22.53801536560059 24.01816368103027 20.27501487731934 C 24.03481292724609 18.01501655578613 24.24496269226074 15.88308525085449 24.60990333557129 14.27194595336914 C 25.0739631652832 12.22319602966309 25.71868324279785 11.26898574829102 26.63887405395508 11.26898574829102 L 26.64148330688477 11.26898574829102 L 26.64691352844238 11.26901531219482 C 27.86167335510254 11.27887535095215 28.36592292785645 13.00203609466553 28.63962364196777 14.29731559753418 C 28.98112297058105 15.9135160446167 29.16001319885254 18.04984664916992 29.14334297180176 20.31277656555176 C 29.1267032623291 22.57253646850586 28.91661262512207 24.70418548583984 28.55178260803223 26.31503486633301 C 28.08783340454102 28.36354637145996 27.44321250915527 29.31764602661133 26.52310371398926 29.31764602661133 Z" stroke="none"/>
        <path d="M 26.52310180664062 28.56764984130859 C 27.52226829528809 28.56764984130859 28.3597412109375 24.87237548828125 28.39336395263672 20.3072452545166 C 28.42703247070312 15.73710536956787 27.64347267150879 12.02712535858154 26.64169311523438 12.01899528503418 C 25.6406364440918 12.01245403289795 24.80180549621582 15.71040725708008 24.76814270019531 20.28054618835449 C 24.73447418212891 24.8506965637207 25.51802253723145 28.56067657470703 26.51981353759766 28.56763648986816 C 26.52091217041016 28.5676441192627 26.52200317382812 28.56764984130859 26.52310180664062 28.56764984130859 M 26.52310371398926 30.06764602661133 C 26.51855278015137 30.06764602661133 26.51072311401367 30.0676155090332 26.50617408752441 30.06757545471191 C 25.92472267150879 30.06353569030762 25.09836387634277 29.80436515808105 24.48186302185059 28.59276580810547 C 24.20950317382812 28.05748558044434 23.97608375549316 27.33501625061035 23.78809356689453 26.44541549682617 C 23.43576240539551 24.77815628051758 23.25112342834473 22.58483505249023 23.2681827545166 20.26949501037598 C 23.28521347045898 17.95720481872559 23.50194358825684 15.76839542388916 23.87843322753906 14.10626602172852 C 24.07910346984863 13.22033596038818 24.32252311706543 12.5015754699707 24.6019229888916 11.96996593475342 C 25.23221397399902 10.77071571350098 26.05751419067383 10.51898574829102 26.63887405395508 10.51898574829102 C 26.64397239685059 10.51898574829102 26.65189361572266 10.5190258026123 26.65700340270996 10.51907539367676 C 27.23806381225586 10.52378559112549 28.06375312805176 10.78365612030029 28.67974281311035 11.99475574493408 C 28.95206260681152 12.5301456451416 29.18544387817383 13.25267601013184 29.3734130859375 14.14226531982422 C 29.72574424743652 15.80966567993164 29.9103832244873 18.00302505493164 29.89332389831543 20.31829643249512 C 29.87629318237305 22.63033485412598 29.65963363647461 24.81885528564453 29.28326416015625 26.4806957244873 C 29.08263397216797 27.36651611328125 28.83927345275879 28.08518600463867 28.55993270874023 28.61673545837402 C 27.92972373962402 29.81592559814453 27.10444259643555 30.06764602661133 26.52310371398926 30.06764602661133 Z" stroke="none" fill="#000"/>
      </g>
      <g id="패스_52165-2" data-name="패스 52165" transform="translate(-15172.681 8923.081) rotate(-45)" fill="#fff" stroke-linecap="round" stroke-linejoin="round">
        <path d="M 1.74033784866333 12.90735912322998 L 1.722217798233032 12.90723896026611 C 0.8539278507232666 12.89616966247559 0.1912778317928314 12.108078956604 -0.2464721649885178 10.5648889541626 C -0.5927621722221375 9.344119071960449 -0.7708921432495117 7.738839626312256 -0.7480421662330627 6.044769287109375 C -0.7252521514892578 4.354749202728271 -0.5050421953201294 2.757879495620728 -0.1279821693897247 1.548319339752197 C 0.3474278151988983 0.02325939573347569 1.026137828826904 -0.7500005960464478 1.889297842979431 -0.7500005960464478 L 1.905887842178345 -0.7499005794525146 C 2.775507926940918 -0.7377806305885315 3.437867879867554 0.05064939707517624 3.875467777252197 1.593509435653687 C 4.221757888793945 2.814419507980347 4.399888038635254 4.419739246368408 4.37703800201416 6.113749504089355 C 4.354258060455322 7.803499221801758 4.134137630462646 9.400069236755371 3.757227897644043 10.60934925079346 C 3.281967878341675 12.13419914245605 2.603387832641602 12.90735912322998 1.74033784866333 12.90735912322998 Z" stroke="none"/>
        <path d="M 1.889293193817139 -5.7220458984375e-06 C 0.8906347751617432 -5.7220458984375e-06 0.04704999923706055 2.705780982971191 0.001887798309326172 6.054879188537598 C -0.04338216781616211 9.411969184875488 0.7320377826690674 12.14453983306885 1.732647776603699 12.15730953216553 C 2.734495162963867 12.17123985290527 3.581837892532349 9.460729598999023 3.627107858657837 6.103639602661133 C 3.672377824783325 2.746539115905762 2.896957874298096 0.01397895812988281 1.896337866783142 3.910064697265625e-05 C 1.893953204154968 8.58306884765625e-06 1.891676068305969 -5.7220458984375e-06 1.889293193817139 -5.7220458984375e-06 M 1.889297842979431 -1.500000953674316 L 1.915247797966003 -1.49984073638916 C 2.769337892532349 -1.487940788269043 3.92593789100647 -0.9771509170532227 4.597007751464844 1.388859748840332 C 4.962557792663574 2.677679061889648 5.150767803192139 4.359269618988037 5.126967906951904 6.1238694190979 C 5.103238105773926 7.883889198303223 4.871077537536621 9.556119918823242 4.473258018493652 10.83251953125 C 4.252058029174805 11.54222965240479 3.98096776008606 12.12293910980225 3.667527914047241 12.55849933624268 C 2.979497909545898 13.51459980010986 2.16475772857666 13.65735912322998 1.74033784866333 13.65735912322998 L 1.709307789802551 13.65712928771973 C 0.8608078956604004 13.64630889892578 -0.2965822219848633 13.13649940490723 -0.9680020809173584 10.76955986022949 C -1.333552122116089 9.480869293212891 -1.521772146224976 7.799319267272949 -1.497972249984741 6.03464937210083 C -1.474241971969604 4.274339199066162 -1.241982221603394 2.601789474487305 -0.8440020084381104 1.325109481811523 C -0.6227223873138428 0.6152992248535156 -0.3515622615814209 0.03450965881347656 -0.03804206848144531 -0.4011201858520508 C 0.650087833404541 -1.357240676879883 1.464867830276489 -1.500000953674316 1.889297842979431 -1.500000953674316 Z" stroke="none" fill="#000"/>
      </g>
      <path id="패스_52167-2" data-name="패스 52167" d="M31.142,27.929a3.214,3.214,0,1,1-3.215-3.215A3.216,3.216,0,0,1,31.142,27.929Z" transform="translate(-15200.44 8892.089)" fill="#fce652" stroke="#000" stroke-linecap="round" stroke-linejoin="round" stroke-width="1.5"/>
      <line id="선_820-2" data-name="선 820" y2="2.98" transform="translate(-15172.512 8896.587)" fill="#d2f2e3"/>
      <line id="선_821-2" data-name="선 821" y2="2.98" transform="translate(-15172.512 8896.587)" fill="none" stroke="#000" stroke-linecap="round" stroke-linejoin="round" stroke-width="1.5"/>
      <line id="선_822-2" data-name="선 822" x2="1.489" y2="2.581" transform="translate(-15184.229 8899.726)" fill="#d2f2e3"/>
      <line id="선_824-2" data-name="선 824" x2="2.58" y2="1.489" transform="translate(-15192.805 8908.302)" fill="#d2f2e3"/>
      <line id="선_826-2" data-name="선 826" x2="2.98" transform="translate(-15195.944 8920.02)" fill="#d2f2e3"/>
      <line id="선_827-2" data-name="선 827" x2="2.98" transform="translate(-15195.944 8920.02)" fill="none" stroke="#000" stroke-linecap="round" stroke-linejoin="round" stroke-width="1.5"/>
      <line id="선_828-2" data-name="선 828" y1="1.489" x2="2.58" transform="translate(-15192.805 8930.245)" fill="#d2f2e3"/>
      <line id="선_830-2" data-name="선 830" y1="2.815" x2="1.625" transform="translate(-15185.301 8938.461)" fill="#d2f2e3"/>
      <line id="선_831-2" data-name="선 831" y1="2.815" x2="1.625" transform="translate(-15185.301 8938.461)" fill="none" stroke="#2f1600" stroke-linecap="round" stroke-linejoin="round" stroke-width="1.5"/>
      <line id="선_832-2" data-name="선 832" y1="3.251" transform="translate(-15172.518 8941.45)" fill="#d2f2e3"/>
      <line id="선_833-2" data-name="선 833" y1="3.251" transform="translate(-15172.518 8941.45)" fill="none" stroke="#2f1600" stroke-linecap="round" stroke-linejoin="round" stroke-width="1.5"/>
      <line id="선_834-2" data-name="선 834" x1="1.625" y1="2.815" transform="translate(-15161.359 8938.461)" fill="#d2f2e3"/>
      <line id="선_835-2" data-name="선 835" x1="1.625" y1="2.815" transform="translate(-15161.359 8938.461)" fill="none" stroke="#2f1600" stroke-linecap="round" stroke-linejoin="round" stroke-width="1.5"/>
      <line id="선_836-2" data-name="선 836" x1="2.58" y1="1.489" transform="translate(-15154.799 8930.245)" fill="#d2f2e3"/>
      <line id="선_838-2" data-name="선 838" x1="2.98" transform="translate(-15152.06 8920.02)" fill="#d2f2e3"/>
      <line id="선_839-2" data-name="선 839" x1="2.98" transform="translate(-15152.06 8920.02)" fill="none" stroke="#000" stroke-linecap="round" stroke-linejoin="round" stroke-width="1.5"/>
      <line id="선_840-2" data-name="선 840" x1="2.58" y2="1.489" transform="translate(-15154.799 8908.302)" fill="#d2f2e3"/>
      <line id="선_842-2" data-name="선 842" x1="1.489" y2="2.581" transform="translate(-15162.284 8899.726)" fill="#d2f2e3"/>
      <g id="사각형_22447" data-name="사각형 22447" transform="translate(-15280.133 8934.809)" fill="#fff7e9" stroke="#000" stroke-width="1.5">
        <rect width="214.563" height="45.118" rx="22.559" stroke="none"/>
        <rect x="0.75" y="0.75" width="213.063" height="43.618" rx="21.809" fill="none"/>
      </g>
      <g transform="matrix(1, 0, 0, 1, -15289, 8878.81)" filter="url(#패스_52179)">
        <g id="패스_52179-2" data-name="패스 52179" transform="translate(115.87 85.89)" fill="#fce652" stroke-linecap="round" stroke-linejoin="round">
          <path d="M 43.46298217773438 3.726992845535278 C 41.16375350952148 3.726992845535278 39.14460754394531 3.161632776260376 37.62383651733398 2.092032909393311 C 35.99617004394531 0.9472594857215881 35.08664703369141 -0.6659138202667236 34.99362182617188 -2.573100566864014 L 34.95524978637695 -3.359647274017334 L 35.74272918701172 -3.359647274017334 L 40.57140731811523 -3.359647274017334 L 41.10102081298828 -3.359647274017334 C 39.39265441894531 -3.700457334518433 38.13937759399414 -4.173688888549805 37.2086067199707 -4.822926998138428 C 35.8127555847168 -5.79658031463623 35.10500717163086 -7.214900493621826 35.10500717163086 -9.038514137268066 C 35.10500717163086 -10.81200695037842 36.00252914428711 -12.3870735168457 37.63223648071289 -13.47354030609131 C 39.11863327026367 -14.4644603729248 41.15944671630859 -15.01019382476807 43.37874221801758 -15.01019382476807 C 48.03482055664062 -15.01019382476807 51.43655395507812 -12.52695369720459 51.65111541748047 -8.971393585205078 L 51.69910049438477 -8.176220893859863 L 50.90247344970703 -8.176220893859863 L 46.07382202148438 -8.176220893859863 L 45.85149383544922 -8.176220893859863 C 47.80569839477539 -7.786342144012451 49.19687271118164 -7.22048282623291 50.17840957641602 -6.424006938934326 C 51.35920715332031 -5.465847015380859 51.93320846557617 -4.172246932983398 51.93320846557617 -2.469287157058716 C 51.93320846557617 -0.6276871562004089 51.00104904174805 1.009512782096863 49.30844879150391 2.140726089477539 C 47.77788925170898 3.163646221160889 45.70192718505859 3.726992845535278 43.46298217773438 3.726992845535278 Z M 41.21585083007812 -3.337071180343628 L 41.31223678588867 -2.726607084274292 C 41.41611480712891 -2.068607091903687 42.35604858398438 -1.591020464897156 43.54719543457031 -1.591020464897156 C 44.83274841308594 -1.591020464897156 45.5228385925293 -2.021239042282104 45.57596969604492 -2.189890623092651 C 45.56813430786133 -2.206583023071289 45.46603775024414 -2.371225118637085 44.89258193969727 -2.581140518188477 C 44.31494140625 -2.792593717575073 43.45312881469727 -2.981660604476929 42.25792694091797 -3.159167051315308 C 41.89324951171875 -3.213868379592896 41.54615783691406 -3.273076772689819 41.21585083007812 -3.337071180343628 Z M 44.70201873779297 -8.375802993774414 C 44.95067977905273 -8.33838939666748 45.19168090820312 -8.298776626586914 45.42502593994141 -8.25692081451416 L 45.33402252197266 -8.802927017211914 C 45.23574066162109 -9.392633438110352 44.39707565307617 -9.804487228393555 43.2945556640625 -9.804487228393555 C 42.02790451049805 -9.804487228393555 41.4831428527832 -9.405828475952148 41.43378067016602 -9.286052703857422 C 41.43399429321289 -9.280339241027832 41.43451690673828 -9.277812004089355 41.43452835083008 -9.277780532836914 C 41.43452453613281 -9.277799606323242 41.43452453613281 -9.27780818939209 41.43452835083008 -9.27780818939209 C 41.43524169921875 -9.27780818939209 41.52383804321289 -9.123879432678223 42.13510131835938 -8.921647071838379 C 42.67447280883789 -8.743206977844238 43.49020385742188 -8.569738388061523 44.70201873779297 -8.375802993774414 Z M -17.65327262878418 3.726992845535278 C -23.14687156677246 3.726992845535278 -27.13416481018066 -0.2130738347768784 -27.13416481018066 -5.641607284545898 C -27.13416481018066 -11.07014083862305 -23.14687156677246 -15.01019382476807 -17.65327262878418 -15.01019382476807 C -12.15967178344727 -15.01019382476807 -8.172378540039062 -11.07014083862305 -8.172378540039062 -5.641607284545898 C -8.172378540039062 -0.2130738347768784 -12.15967178344727 3.726992845535278 -17.65327262878418 3.726992845535278 Z M -17.65327262878418 -9.243006706237793 C -19.53871154785156 -9.243006706237793 -20.80549812316895 -7.795713901519775 -20.80549812316895 -5.641607284545898 C -20.80549812316895 -3.487487077713013 -19.53871154785156 -2.040193796157837 -17.65327262878418 -2.040193796157837 C -15.76783180236816 -2.040193796157837 -14.50104522705078 -3.487487077713013 -14.50104522705078 -5.641607284545898 C -14.50104522705078 -7.795713901519775 -15.76783180236816 -9.243006706237793 -17.65327262878418 -9.243006706237793 Z M 33.76958084106445 3.39011287689209 L 33.01958084106445 3.39011287689209 L 28.02248764038086 3.39011287689209 L 27.27248764038086 3.39011287689209 L 27.27248764038086 2.64011287689209 L 27.27248764038086 -13.86716747283936 L 27.27248764038086 -14.61716747283936 L 28.02248764038086 -14.61716747283936 L 33.01958084106445 -14.61716747283936 L 33.76958084106445 -14.61716747283936 L 33.76958084106445 -13.86716747283936 L 33.76958084106445 2.64011287689209 L 33.76958084106445 3.39011287689209 Z M 13.48695468902588 3.333966255187988 L 12.94696807861328 3.333966255187988 L 7.921781539916992 3.333966255187988 L 7.372448444366455 3.333966255187988 L 7.206728458404541 2.810219526290894 L 4.949375152587891 -4.323870658874512 L 2.71392822265625 2.808286190032959 L 2.549168348312378 3.333966255187988 L 1.998261570930481 3.333966255187988 L -2.998845100402832 3.333966255187988 L -3.53883171081543 3.333966255187988 L -3.710111856460571 2.82185959815979 L -9.212538719177246 -13.62927341461182 L -9.542964935302734 -14.61716747283936 L -8.501272201538086 -14.61716747283936 L -3.223431825637817 -14.61716747283936 L -2.6523118019104 -14.61716747283936 L -2.500431776046753 -14.06662082672119 L -0.310801088809967 -6.129206657409668 L 1.835754871368408 -14.06304740905762 L 1.985674858093262 -14.61716747283936 L 2.559728145599365 -14.61716747283936 L 7.66912841796875 -14.61716747283936 L 8.242501258850098 -14.61716747283936 L 8.392874717712402 -14.06386089324951 L 10.56419563293457 -6.074224472045898 L 12.75708866119385 -14.06563377380371 L 12.90843486785889 -14.61716747283936 L 13.48035526275635 -14.61716747283936 L 18.44939422607422 -14.61716747283936 L 19.4910888671875 -14.61716747283936 L 19.1606616973877 -13.62927341461182 L 13.65823459625244 2.82185959815979 L 13.48695468902588 3.333966255187988 Z M -44.10659027099609 3.333966255187988 L -44.85659027099609 3.333966255187988 L -49.96599197387695 3.333966255187988 L -50.71599197387695 3.333966255187988 L -50.71599197387695 2.583966255187988 L -50.71599197387695 -20.2960205078125 L -50.71599197387695 -21.0460205078125 L -49.96599197387695 -21.0460205078125 L -45.69880676269531 -21.0460205078125 L -45.3467903137207 -21.0460205078125 L -45.12187194824219 -20.77523422241211 L -35.02284622192383 -8.616703033447266 L -35.02284622192383 -20.57675361633301 L -35.02284622192383 -21.32675361633301 L -34.27284622192383 -21.32675361633301 L -29.16344451904297 -21.32675361633301 L -28.41344451904297 -21.32675361633301 L -28.41344451904297 -20.57675361633301 L -28.41344451904297 2.303232908248901 L -28.41344451904297 3.053232908248901 L -29.16344451904297 3.053232908248901 L -33.43064498901367 3.053232908248901 L -33.78265762329102 3.053232908248901 L -34.0075798034668 2.782446146011353 L -44.10659027099609 -9.376082420349121 L -44.10659027099609 2.583966255187988 L -44.10659027099609 3.333966255187988 Z M 30.52104759216309 -14.94195365905762 C 29.46532821655273 -14.94195365905762 28.49806213378906 -15.32779407501221 27.79746246337891 -16.02839469909668 C 27.09684753417969 -16.72899436950684 26.71100807189941 -17.69626045227051 26.71100807189941 -18.75197982788086 C 26.71100807189941 -19.80770111083984 27.09684753417969 -20.77495384216309 27.79746246337891 -21.47556686401367 C 28.49806213378906 -22.1761531829834 29.46532821655273 -22.5619945526123 30.52104759216309 -22.5619945526123 C 31.57676887512207 -22.5619945526123 32.54402160644531 -22.1761531829834 33.24462127685547 -21.47555351257324 C 33.94522094726562 -20.77495384216309 34.33106231689453 -19.80770111083984 34.33106231689453 -18.75197982788086 C 34.33106231689453 -17.69626045227051 33.94522094726562 -16.72900772094727 33.24462127685547 -16.02839469909668 C 32.54402160644531 -15.32779407501221 31.57676887512207 -14.94195365905762 30.52104759216309 -14.94195365905762 Z" stroke="none"/>
          <path d="M 43.46297836303711 2.976999521255493 C 47.64595031738281 2.976999521255493 51.18320846557617 0.8995566368103027 51.18320846557617 -2.469286203384399 C 51.18320846557617 -5.304714679718018 49.44264984130859 -6.904914855957031 44.58592224121094 -7.634829044342041 C 41.77857971191406 -8.084000587463379 40.68369293212891 -8.477043151855469 40.68369293212891 -9.291172027587891 C 40.68369293212891 -10.02108573913574 41.77857971191406 -10.55448627471924 43.29455184936523 -10.55448627471924 C 44.75435256958008 -10.55448627471924 45.90538024902344 -9.936857223510742 46.07382202148438 -8.926215171813965 L 50.90248107910156 -8.926215171813965 C 50.70595169067383 -12.18275737762451 47.47750854492188 -14.26020050048828 43.37874984741211 -14.26020050048828 C 39.19579315185547 -14.26020050048828 35.85500717163086 -12.23890018463135 35.85500717163086 -9.038500785827637 C 35.85500717163086 -5.69774341583252 38.43777847290039 -4.490586280822754 42.36810684204102 -3.901029109954834 C 45.20352172851562 -3.479928970336914 46.32648086547852 -2.974614858627319 46.32648086547852 -2.188543319702148 C 46.32648086547852 -1.430557608604431 45.14738082885742 -0.8410148024559021 43.54719543457031 -0.8410148024559021 C 41.97507858276367 -0.8410148024559021 40.73982238769531 -1.542857646942139 40.57140731811523 -2.609643459320068 L 35.74272155761719 -2.609643459320068 C 35.91117858886719 0.8433995246887207 39.16770935058594 2.976999521255493 43.46297836303711 2.976999521255493 M -17.65327835083008 2.976999521255493 C -12.57194900512695 2.976999521255493 -8.922377586364746 -0.6445004940032959 -8.922377586364746 -5.641600608825684 C -8.922377586364746 -10.63870048522949 -12.57194900512695 -14.26020050048828 -17.65327835083008 -14.26020050048828 C -22.73459243774414 -14.26020050048828 -26.38416290283203 -10.63870048522949 -26.38416290283203 -5.641600608825684 C -26.38416290283203 -0.6445004940032959 -22.73459243774414 2.976999521255493 -17.65327835083008 2.976999521255493 M -17.65327835083008 -9.993014335632324 C -15.29509162902832 -9.993014335632324 -13.7510347366333 -8.168229103088379 -13.7510347366333 -5.641600608825684 C -13.7510347366333 -3.114971876144409 -15.29509162902832 -1.290186166763306 -17.65327835083008 -1.290186166763306 C -20.01144981384277 -1.290186166763306 -21.55550575256348 -3.114971876144409 -21.55550575256348 -5.641600608825684 C -21.55550575256348 -8.168229103088379 -20.01144981384277 -9.993014335632324 -17.65327835083008 -9.993014335632324 M 33.01958084106445 2.640113830566406 L 33.01958084106445 -13.86717224121094 L 28.02248001098633 -13.86717224121094 L 28.02248001098633 2.640113830566406 L 33.01958084106445 2.640113830566406 M 12.94696521759033 2.58397102355957 L 18.44939422607422 -13.86717224121094 L 13.48035144805908 -13.86717224121094 L 10.56070804595947 -3.227272033691406 L 7.669122695922852 -13.86717224121094 L 2.559722423553467 -13.86717224121094 L -0.3037774562835693 -3.283414840698242 L -3.223434686660767 -13.86717224121094 L -8.501277923583984 -13.86717224121094 L -2.998848915100098 2.58397102355957 L 1.998251080513 2.58397102355957 L 4.945979595184326 -6.820686340332031 L 7.921793937683105 2.58397102355957 L 12.94696521759033 2.58397102355957 M -44.85659027099609 2.58397102355957 L -44.85659027099609 -11.45284366607666 L -33.43063354492188 2.303228139877319 L -29.16344833374023 2.303228139877319 L -29.16344833374023 -20.57675743103027 L -34.27285003662109 -20.57675743103027 L -34.27285003662109 -6.539957523345947 L -45.69880676269531 -20.29602813720703 L -49.96599197387695 -20.29602813720703 L -49.96599197387695 2.58397102355957 L -44.85659027099609 2.58397102355957 M 30.52103614807129 -15.69195747375488 C 32.28968048095703 -15.69195747375488 33.5810661315918 -16.98334312438965 33.5810661315918 -18.75198554992676 C 33.5810661315918 -20.52061462402344 32.28968048095703 -21.8120002746582 30.52103614807129 -21.8120002746582 C 28.75240898132324 -21.8120002746582 27.46100807189941 -20.52061462402344 27.46100807189941 -18.75198554992676 C 27.46100807189941 -16.98334312438965 28.75240898132324 -15.69195747375488 30.52103614807129 -15.69195747375488 M 43.46297836303711 4.476999282836914 C 41.00849533081055 4.476999282836914 38.84015274047852 3.864428043365479 37.19236373901367 2.705499410629272 C 35.86875534057617 1.774573922157288 34.95218658447266 0.5199432969093323 34.51958084106445 -0.9216646552085876 L 34.51958084106445 2.640113830566406 C 34.51958084106445 3.468542337417603 33.84800720214844 4.140113830566406 33.01958084106445 4.140113830566406 L 28.02248001098633 4.140113830566406 C 27.19405174255371 4.140113830566406 26.52248001098633 3.468542337417603 26.52248001098633 2.640113830566406 L 26.52248001098633 -13.86717224121094 C 26.52248001098633 -14.5137243270874 26.93160057067871 -15.06475448608398 27.50503730773926 -15.27553176879883 C 26.54776382446289 -16.09877014160156 25.96100807189941 -17.32967185974121 25.96100807189941 -18.75198554992676 C 25.96100807189941 -21.35161399841309 27.92139434814453 -23.3120002746582 30.52103614807129 -23.3120002746582 C 33.12067794799805 -23.3120002746582 35.0810661315918 -21.35161399841309 35.0810661315918 -18.75198554992676 C 35.0810661315918 -17.32967185974121 34.49430465698242 -16.0987663269043 33.53703308105469 -15.27552795410156 C 34.11046981811523 -15.06475067138672 34.51958084106445 -14.5137243270874 34.51958084106445 -13.86717224121094 L 34.51958084106445 -10.42246437072754 C 34.87600708007812 -11.88085556030273 35.80290222167969 -13.15536975860596 37.21622085571289 -14.09757232666016 C 38.82446670532227 -15.16972923278809 41.01302337646484 -15.76020050048828 43.37874984741211 -15.76020050048828 C 48.45056533813477 -15.76020050048828 52.16013717651367 -12.98711490631104 52.39974975585938 -9.016571998596191 C 52.42466354370117 -8.603815078735352 52.27807998657227 -8.199071884155273 51.99462127685547 -7.898000717163086 C 51.71116638183594 -7.596914768218994 51.31599426269531 -7.426214694976807 50.90248107910156 -7.426214694976807 L 50.07049179077148 -7.426214694976807 C 50.27631759643555 -7.293457984924316 50.46963119506836 -7.153565883636475 50.65099334716797 -7.006400585174561 C 51.99946594238281 -5.912171840667725 52.68320846557617 -4.385672092437744 52.68320846557617 -2.469286203384399 C 52.68320846557617 1.555670976638794 48.80553817749023 4.476999282836914 43.46297836303711 4.476999282836914 Z M 34.51958084106445 -7.509245872497559 L 34.51958084106445 -3.477949380874634 C 34.56093215942383 -3.536196708679199 34.60665130615234 -3.591779708862305 34.65652084350586 -3.644143342971802 C 34.93963623046875 -3.941400527954102 35.33220672607422 -4.109643459320068 35.74272155761719 -4.109643459320068 L 36.92424392700195 -4.109643459320068 C 36.87529373168945 -4.141923904418945 36.82704162597656 -4.174649238586426 36.77953720092773 -4.207786083221436 C 35.58845138549805 -5.038603782653809 34.83206176757812 -6.145221710205078 34.51958084106445 -7.509245872497559 Z M -17.65327835083008 4.476999282836914 C -20.5060920715332 4.476999282836914 -23.10769081115723 3.458213806152344 -24.97880554199219 1.608299493789673 C -26.34782791137695 0.254800021648407 -27.26745796203613 -1.484641671180725 -27.66344833374023 -3.424563884735107 L -27.66344833374023 2.303228139877319 C -27.66344833374023 3.131656646728516 -28.33502006530762 3.803228139877319 -29.16344833374023 3.803228139877319 L -33.43063354492188 3.803228139877319 C -33.87664794921875 3.803228139877319 -34.29953384399414 3.604742288589478 -34.58450698852539 3.261656761169434 L -43.35659027099609 -7.29933500289917 L -43.35659027099609 2.58397102355957 C -43.35659027099609 3.412399530410767 -44.02816390991211 4.08397102355957 -44.85659027099609 4.08397102355957 L -49.96599197387695 4.08397102355957 C -50.7944221496582 4.08397102355957 -51.46599197387695 3.412399530410767 -51.46599197387695 2.58397102355957 L -51.46599197387695 -20.29602813720703 C -51.46599197387695 -21.12445831298828 -50.7944221496582 -21.79602813720703 -49.96599197387695 -21.79602813720703 L -45.69880676269531 -21.79602813720703 C -45.25279235839844 -21.79602813720703 -44.82990646362305 -21.59754371643066 -44.5449333190918 -21.25445747375488 L -35.77285003662109 -10.69346618652344 L -35.77285003662109 -20.57675743103027 C -35.77285003662109 -21.40518569946289 -35.10127639770508 -22.07675743103027 -34.27285003662109 -22.07675743103027 L -29.16344833374023 -22.07675743103027 C -28.33502006530762 -22.07675743103027 -27.66344833374023 -21.40518569946289 -27.66344833374023 -20.57675743103027 L -27.66344833374023 -7.85863733291626 C -27.26745796203613 -9.798559188842773 -26.34782791137695 -11.53800106048584 -24.97880554199219 -12.89150047302246 C -23.10769081115723 -14.74141502380371 -20.5060920715332 -15.76020050048828 -17.65327835083008 -15.76020050048828 C -14.80044937133789 -15.76020050048828 -12.19886302947998 -14.74141502380371 -10.32773494720459 -12.89150047302246 C -9.990853309631348 -12.55843925476074 -9.681324005126953 -12.20220375061035 -9.39997673034668 -11.82518482208252 L -9.923820495605469 -13.39137172698975 C -10.07684898376465 -13.84890079498291 -10.00047779083252 -14.35210037231445 -9.718591690063477 -14.74361515045166 C -9.436705589294434 -15.13512897491455 -8.983720779418945 -15.36717224121094 -8.501277923583984 -15.36717224121094 L -3.223434686660767 -15.36717224121094 C -2.54863452911377 -15.36717224121094 -1.956891775131226 -14.91657161712646 -1.777448892593384 -14.26607227325439 L -0.3178291320800781 -8.974949836730957 L 1.111779689788818 -14.25891494750977 C 1.288736820220947 -14.91295719146729 1.882165431976318 -15.36717224121094 2.559722423553467 -15.36717224121094 L 7.669122695922852 -15.36717224121094 C 8.346051216125488 -15.36717224121094 8.939093589782715 -14.91378593444824 9.116622924804688 -14.26055717468262 L 10.5676965713501 -8.921175003051758 L 12.03382205963135 -14.26410007476807 C 12.2125940322876 -14.91558647155762 12.80479431152344 -15.36717224121094 13.48035144805908 -15.36717224121094 L 18.44939422607422 -15.36717224121094 C 18.93183708190918 -15.36717224121094 19.38482284545898 -15.13512897491455 19.66670799255371 -14.74361515045166 C 19.94859313964844 -14.35210037231445 20.02496528625488 -13.84890079498291 19.8719367980957 -13.39137172698975 L 14.36950778961182 3.059770822525024 C 14.16487979888916 3.671542406082153 13.59205150604248 4.08397102355957 12.94696521759033 4.08397102355957 L 7.921793937683105 4.08397102355957 C 7.267693996429443 4.08397102355957 6.689008235931396 3.66011381149292 6.491679668426514 3.036485195159912 L 4.952765941619873 -1.827043414115906 L 3.429594039916992 3.032599449157715 C 3.233508348464966 3.658199548721313 2.65385103225708 4.08397102355957 1.998251080513 4.08397102355957 L -2.998848915100098 4.08397102355957 C -3.643934726715088 4.08397102355957 -4.216763019561768 3.671542406082153 -4.42139196395874 3.059770822525024 L -7.425804138183594 -5.922811985015869 C -7.423519611358643 -5.829307556152344 -7.422377586364746 -5.735673427581787 -7.422377586364746 -5.641600608825684 C -7.422377586364746 -2.818729162216187 -8.454192161560059 -0.2440004944801331 -10.32773494720459 1.608299493789673 C -12.19886302947998 3.458213806152344 -14.80044937133789 4.476999282836914 -17.65327835083008 4.476999282836914 Z M -17.65327835083008 -8.493014335632324 C -19.42443466186523 -8.493014335632324 -20.05550575256348 -7.020057678222656 -20.05550575256348 -5.641600608825684 C -20.05550575256348 -4.263143539428711 -19.42443466186523 -2.790186166763306 -17.65327835083008 -2.790186166763306 C -15.88210582733154 -2.790186166763306 -15.2510347366333 -4.263143539428711 -15.2510347366333 -5.641600608825684 C -15.2510347366333 -7.020057678222656 -15.88210582733154 -8.493014335632324 -17.65327835083008 -8.493014335632324 Z" stroke="none" fill="#000"/>
        </g>
      </g>
      <path id="패스_52180" data-name="패스 52180" d="M15.634,27.277c-.832-4.111-2.947-7.36-5.634-8.651,2.693-1.279,4.823-4.518,5.674-8.625.832,4.111,2.947,7.36,5.634,8.651-2.693,1.279-4.823,4.518-5.674,8.625" transform="translate(-15256.434 8938.156)"/>
      <path id="패스_52181" data-name="패스 52181" d="M15.634,27.277c-.832-4.111-2.947-7.36-5.634-8.651,2.693-1.279,4.823-4.518,5.674-8.625.832,4.111,2.947,7.36,5.634,8.651-2.693,1.279-4.823,4.518-5.674,8.625" transform="translate(-15119.913 8938.156)"/>
      <path id="패스_52182" data-name="패스 52182" d="M13.475,20.657c-.513-2.536-1.818-4.54-3.475-5.337,1.661-.789,2.975-2.787,3.5-5.321.513,2.536,1.818,4.54,3.475,5.337-1.661.789-2.975,2.787-3.5,5.321" transform="translate(-15102.588 8941.465)"/>
      <path id="패스_52183" data-name="패스 52183" d="M13.475,20.657c-.513-2.536-1.818-4.54-3.475-5.337,1.661-.789,2.975-2.787,3.5-5.321.513,2.536,1.818,4.54,3.475,5.337-1.661.789-2.975,2.787-3.5,5.321" transform="translate(-15269.424 8941.465)"/>
      <path id="패스_52248" data-name="패스 52248" d="M11.57.359.35,12.376A1.293,1.293,0,0,0,1.3,14.551H4.39L.179,26.114a1.107,1.107,0,0,0,1.849,1.134l11.22-12.017a1.293,1.293,0,0,0-.945-2.175H9.208L13.419,1.493A1.107,1.107,0,0,0,11.57.359Z" transform="matrix(0.966, 0.259, -0.259, 0.966, -15121.061, 8882.699)" fill="#fce652" stroke="#000" stroke-linecap="round" stroke-linejoin="round" stroke-width="1.5"/>
      <path id="패스_52249" data-name="패스 52249" d="M2.028.358l11.22,12.015a1.292,1.292,0,0,1-.945,2.175H9.208l4.211,11.561a1.107,1.107,0,0,1-1.849,1.134L.35,15.228A1.293,1.293,0,0,1,1.3,13.053H4.39L.179,1.492A1.107,1.107,0,0,1,2.028.358Z" transform="matrix(0.966, -0.259, 0.259, 0.966, -15236.971, 8886.224)" fill="#fce652" stroke="#000" stroke-linecap="round" stroke-linejoin="round" stroke-width="1.5"/>
      <g id="그룹_116355" data-name="그룹 116355" transform="translate(-15203.947 8887.808)">
        <path id="패스_52195" data-name="패스 52195" d="M6.326,19.483a11.759,11.759,0,0,0-.234,16.383L22.708,19.251A11.759,11.759,0,0,0,6.326,19.483Z" transform="translate(-2.885 -16.043)" fill="#7281f4" stroke="#000" stroke-linejoin="round" stroke-miterlimit="10" stroke-width="1.5"/>
        <path id="패스_52237" data-name="패스 52237" d="M3.441,3.44a11.759,11.759,0,0,0-.234,16.383L19.823,3.207A11.759,11.759,0,0,0,3.441,3.44Z" transform="translate(62.998 0.001) rotate(90)" fill="#7281f4" stroke="#000" stroke-linejoin="round" stroke-miterlimit="10" stroke-width="1.5"/>
      </g>
    </g>
  </g>
</svg>
