<svg xmlns="http://www.w3.org/2000/svg" xmlns:xlink="http://www.w3.org/1999/xlink" width="242" height="102" viewBox="0 0 242 102">
<style xmlns="http://www.w3.org/2000/svg" type="text/css">
.st1{fill:#fee581;}

.star {position:relative;animation:star both infinite 4s;}
.star.s1 {transform-origin:80% 41%;}
.star.s2 {transform-origin:80% 48%;animation-delay:0.5s;}
.sti{transform-origin:79.4% 85.5%; animation:sti both infinite 2.3s;}

@keyframes star {
0% {opacity:1;}	
20% {opacity:0;}
100% {opacity:1;}
}
@keyframes sti {
0% {transform:rotate(0deg);}
50% {transform:rotate(-9.5deg);}
100% {transform:rotate(0deg);}
}
</style>
  <defs>
    <clipPath id="clip-path">
      <path id="합치기_191" data-name="합치기 191" d="M83.919,58.32a13.046,13.046,0,0,1-6.34,1.65H69a12.994,12.994,0,0,1-6.151-1.55,12.907,12.907,0,0,1-6.16,1.55h-7.4a14.286,14.286,0,0,1-1.461-.079,14.254,14.254,0,0,1-1.46.079h-8.25a13,13,0,0,1-8.74-3.37,13,13,0,0,1-8.74,3.37H13A13,13,0,0,1,.879,42.27L13.719,9.15a13.012,13.012,0,0,1,12.13-8.3h7.68a12.994,12.994,0,0,1,7.88,2.659A12.951,12.951,0,0,1,49.289.851h13.33A28.774,28.774,0,0,1,78.639,5.33,31.388,31.388,0,0,1,96.479,0a31.8,31.8,0,0,1,13.59,2.98A12.892,12.892,0,0,1,117.2.851h7.4a12.93,12.93,0,0,1,7.311,2.25,12.98,12.98,0,0,1,7.32-2.25h7.39a12.9,12.9,0,0,1,2.73.29,12.818,12.818,0,0,1,2.721-.29h7.4a14.268,14.268,0,0,1,1.46.079,14.268,14.268,0,0,1,1.46-.079h8.37a13.007,13.007,0,0,1,9,3.62,13.051,13.051,0,0,1,9.01-3.62h7.761a14.282,14.282,0,0,1,1.46.079,14.268,14.268,0,0,1,1.46-.079h24.63a13,13,0,0,1,13,13v6.42a13.029,13.029,0,0,1-1.44,5.971c.01.249.02.509.02.779V33.44c0,.17,0,.339-.01.509A13.03,13.03,0,0,1,237.3,38.57l-2.86,1.65-1.99,1.15-1.5.86-1.5.87-1,.58-4,2.31-1.7.98-6.93,4-1.73,1-2.6,1.5-2.6,1.5-3.46,2-5.2,3h-.78a12.9,12.9,0,0,1-8-2.759,13,13,0,0,1-8.01,2.759h-7.96a13,13,0,0,1-8.01-2.759,12.9,12.9,0,0,1-8,2.759h-7.4a13.5,13.5,0,0,1-2.721-.28,13.584,13.584,0,0,1-2.73.28h-7.39a12.98,12.98,0,0,1-7.32-2.25,12.93,12.93,0,0,1-7.311,2.25h-7.4a12.98,12.98,0,0,1-7.23-2.19,31.7,31.7,0,0,1-13.49,3A32.367,32.367,0,0,1,83.919,58.32Z" transform="translate(-15547.65 5858.477)" fill="#fff" stroke="rgba(0,0,0,0)" stroke-miterlimit="10" stroke-width="1"/>
    </clipPath>
    <linearGradient id="linear-gradient" x1="0.559" y1="0.455" x2="0.559" y2="0.057" gradientUnits="objectBoundingBox">
      <stop offset="0" stop-color="#343100"/>
      <stop offset="1" stop-color="#fff" stop-opacity="0"/>
    </linearGradient>
    <filter id="패스_52115" x="200.082" y="69.474" width="40.068" height="30.477" filterUnits="userSpaceOnUse">
      <feOffset dx="-1" input="SourceAlpha"/>
      <feGaussianBlur stdDeviation="0.5" result="blur"/>
      <feFlood flood-color="#393500" flood-opacity="0.2"/>
      <feComposite operator="in" in2="blur"/>
      <feComposite in="SourceGraphic"/>
    </filter>
    <clipPath id="clip-path-2">
      <path id="패스_52170" data-name="패스 52170" d="M235.66,73.186l-5.56-3.21a13,13,0,0,0-17.758,4.758l-12.11,20.975,5.2-3,3.462-2,2.6-1.5,2.6-1.5,1.731-1,6.929-4,1.7-.983,4-2.309,1-.576,1.5-.864,1.495-.869,1.991-1.148,2.859-1.652a12.988,12.988,0,0,0-1.64-1.12" transform="translate(-15547.65 5822.742)" fill="rgba(243,30,30,0)"/>
    </clipPath>
    <linearGradient id="linear-gradient-2" x1="0.594" y1="0.379" x2="0.555" y2="0.305" gradientUnits="objectBoundingBox">
      <stop offset="0" stop-color="#001c20"/>
      <stop offset="1" stop-color="#fff" stop-opacity="0"/>
    </linearGradient>
    <clipPath id="clip-path-3">
      <path id="패스_52176" data-name="패스 52176" d="M-15339.942,5921.481l31.063-18.484-2.4-12.729-46.07,1.848,9.741,26.241Z" fill="#fff"/>
    </clipPath>
    <linearGradient id="linear-gradient-3" x1="0.558" y1="0.738" x2="0.45" y2="0.495" gradientUnits="objectBoundingBox">
      <stop offset="0" stop-color="#515700"/>
      <stop offset="1" stop-color="#fff" stop-opacity="0"/>
    </linearGradient>
    <filter id="패스_52174" x="197.082" y="72.474" width="48.523" height="38.34" filterUnits="userSpaceOnUse">
      <feOffset dx="-1" input="SourceAlpha"/>
      <feGaussianBlur stdDeviation="0.5" result="blur-2"/>
      <feFlood flood-opacity="0.251"/>
      <feComposite operator="in" in2="blur-2"/>
      <feComposite in="SourceGraphic"/>
    </filter>
  </defs>
  <g id="title" transform="translate(15550 -5820)">
    <path id="패스_52175" data-name="패스 52175" d="M100.925,12.062a2.311,2.311,0,0,0-2.373,2.4,2.373,2.373,0,1,0,4.746,0,2.311,2.311,0,0,0-2.373-2.4m18.986.637V31.175h3.875V28.206l1.546-1.759,3.113,4.728h4.42l-5.161-7.39,4.9-5.5h-4.311l-4.507,5.257V12.7Zm-39.517.11c-4.006,0-7.185,1.935-7.185,5.169,0,3.365,2.09,4.97,5.944,5.7,3.157.594,4.354,1.165,4.354,2.6,0,1.165-1.2,1.98-2.809,1.98-2.264,0-3.744-1.144-3.962-2.86H72.665c.174,3.827,3.374,6.225,7.751,6.225,3.963,0,7.163-2.089,7.163-5.522,0-2.683-1.393-4.728-5.487-5.586-3.462-.726-4.833-1.188-4.833-2.529,0-1.078,1.023-1.826,2.874-1.826,1.894,0,3.048.946,3.287,2.508h4.093c-.2-3.41-3.157-5.851-7.12-5.851M91,14.459v3.827H88.471v3.365H91v9.523h3.876V21.652H97.4V18.287H94.873V14.459Zm20.684,3.519a6.529,6.529,0,0,0-6.772,6.753,6.529,6.529,0,0,0,6.772,6.752,6.23,6.23,0,0,0,6.357-4.948h-3.919a2.471,2.471,0,0,1-2.438,1.539c-1.807,0-2.983-1.408-2.983-3.343s1.176-3.344,2.983-3.344a2.35,2.35,0,0,1,2.373,1.5h3.919a6.117,6.117,0,0,0-6.292-4.9m27.607,0a6.448,6.448,0,0,0-6.64,6.753,6.435,6.435,0,0,0,6.64,6.752c3.091,0,5.6-1.693,6.248-4.157h-3.9a2.615,2.615,0,0,1-2.351,1.011,2.7,2.7,0,0,1-2.787-2.353h9.339a8.914,8.914,0,0,0,.087-1.254,6.436,6.436,0,0,0-6.64-6.753m2.852,5.477h-5.66a2.679,2.679,0,0,1,2.809-2.376,2.721,2.721,0,0,1,2.852,2.376m13.3-5.477a4.171,4.171,0,0,0-3.571,1.627V18.287H148V31.175h3.876v-6.6a2.975,2.975,0,0,1,3.309-3.145,4.254,4.254,0,0,1,1.981.44l-.043-3.673a4.694,4.694,0,0,0-1.676-.22M98.987,31.22h3.876V18.287H98.987ZM100.925,0a14.185,14.185,0,0,1,10.346,4.375,11.845,11.845,0,0,1,8.64-3.737h3.875A11.906,11.906,0,0,1,133.906,6.3c.315.035.626.082.935.141a19.582,19.582,0,0,1,9.847.256A11.837,11.837,0,0,1,148,6.225h3.876l.28,0a17.414,17.414,0,0,1,3.291-.311,16.335,16.335,0,0,1,5.6.89,12.051,12.051,0,0,1,8.016,11.247l.044,3.673A12.1,12.1,0,0,1,163.79,31.9a11.993,11.993,0,0,1-11.918,11.333H148a11.85,11.85,0,0,1-3.234-.447,20.139,20.139,0,0,1-9.808.262,11.826,11.826,0,0,1-2.089.186h-4.42a11.8,11.8,0,0,1-2.324-.23,11.885,11.885,0,0,1-2.336.23h-3.875a11.835,11.835,0,0,1-3.075-.4,19.631,19.631,0,0,1-10.555-.054,11.816,11.816,0,0,1-3.417.5H98.987a11.912,11.912,0,0,1-2.182-.2,11.853,11.853,0,0,1-1.932.157H91a11.8,11.8,0,0,1-3.789-.62,21.7,21.7,0,0,1-6.792,1.061c-10.935,0-19.21-7.458-19.678-17.733a12.186,12.186,0,0,1,.8-4.914,18.513,18.513,0,0,1-.264-3.053C61.27,8.156,69.491.748,80.394.748a20.123,20.123,0,0,1,8.49,1.838A11.93,11.93,0,0,1,91,2.4h1.931a14.292,14.292,0,0,1,8-2.4" transform="translate(-15547.861 5826.119)" fill="#514e00" opacity="0.5"/>
    <g id="title-2" data-name="title" transform="translate(-4014 1788)">
      <g id="그룹_116254" data-name="그룹 116254" transform="translate(-11533.65 4034.742)">
        <g id="그룹_116255" data-name="그룹 116255">
          <path id="패스_52098" data-name="패스 52098" d="M82.166,40.575c-8.309,0-14.589-5.43-14.933-12.911l-.313-6.8H67.9a14.432,14.432,0,0,1-.077-1.489c0-6.994,6.024-12.071,14.323-12.071a15.373,15.373,0,0,1,7.275,1.778h8.676a9.146,9.146,0,0,1,15.173,4.077,15.107,15.107,0,0,1,2.941-.284,14.449,14.449,0,0,1,2.461.21v-5.9h17.219v6.022h7.241a15,15,0,0,1,6.276,0H160.94a12.587,12.587,0,0,1,2.915-.332,11.437,11.437,0,0,1,3.961.6l4.31,1.5.054,4.562.047,3.959.13,10.851-5.89-3.062V40.1H149.473a15.434,15.434,0,0,1-3.207.332,14.736,14.736,0,0,1-3.138-.332h-23.79a14.661,14.661,0,0,1-3.131.332,15.084,15.084,0,0,1-3.1-.317v.033H95.887V40.1h-8.7v-.228a17.668,17.668,0,0,1-5.021.7M146.29,25.94l-3.274.7a2.961,2.961,0,0,0,.66,1.272l5.573-1.147v-.193Z"/>
          <path id="패스_52099" data-name="패스 52099" d="M104.5,13a2.5,2.5,0,0,0-2.584,2.584,2.584,2.584,0,0,0,5.168,0A2.5,2.5,0,0,0,104.5,13m20.672.687V33.6h4.219V30.4l1.683-1.9,3.39,5.1h4.813l-5.619-7.965,5.334-5.926h-4.694l-4.907,5.666V13.687Zm-43.027.119c-4.362,0-7.823,2.086-7.823,5.571,0,3.627,2.276,5.357,6.472,6.14,3.437.64,4.741,1.256,4.741,2.8,0,1.256-1.3,2.134-3.058,2.134-2.465,0-4.077-1.233-4.314-3.082H73.726c.189,4.125,3.674,6.709,8.439,6.709,4.315,0,7.8-2.252,7.8-5.951,0-2.892-1.517-5.1-5.974-6.021-3.769-.782-5.262-1.28-5.262-2.726,0-1.162,1.114-1.968,3.129-1.968,2.062,0,3.319,1.02,3.579,2.7h4.457c-.213-3.675-3.437-6.306-7.752-6.306m11.545,1.778v4.125h-2.75v3.627h2.75V33.6h4.22V23.336h2.75V19.709h-2.75V15.584Zm22.521,3.793a7.073,7.073,0,0,0-7.373,7.278,7.073,7.073,0,0,0,7.373,7.277,6.77,6.77,0,0,0,6.922-5.333h-4.267a2.692,2.692,0,0,1-2.655,1.659c-1.968,0-3.248-1.517-3.248-3.6s1.28-3.6,3.248-3.6a2.559,2.559,0,0,1,2.584,1.612h4.267a6.646,6.646,0,0,0-6.851-5.286m30.059,0a6.984,6.984,0,0,0-7.23,7.278,6.971,6.971,0,0,0,7.23,7.277c3.366,0,6.092-1.825,6.8-4.48h-4.243a2.859,2.859,0,0,1-2.56,1.09,2.934,2.934,0,0,1-3.034-2.536H153.4a9.512,9.512,0,0,0,.1-1.351,6.971,6.971,0,0,0-7.23-7.278m3.1,5.9h-6.163a2.908,2.908,0,0,1,3.058-2.561,2.954,2.954,0,0,1,3.1,2.561m14.485-5.9a4.559,4.559,0,0,0-3.888,1.754V19.709h-4.22V33.6h4.22V26.489c0-2.11,1.351-3.39,3.6-3.39a4.672,4.672,0,0,1,2.157.474l-.047-3.959a5.16,5.16,0,0,0-1.825-.237m-61.47,14.271h4.22V19.709h-4.22ZM104.5,0a15.521,15.521,0,0,1,11.265,4.715A12.959,12.959,0,0,1,125.168.687h4.219a12.992,12.992,0,0,1,11.019,6.1c.343.038.682.088,1.018.152a21.532,21.532,0,0,1,10.722.276,13.012,13.012,0,0,1,3.6-.505h4.22c.1,0,.2,0,.3,0a19.15,19.15,0,0,1,3.583-.335,17.954,17.954,0,0,1,6.1.959,13,13,0,0,1,8.728,12.122l.048,3.959a13,13,0,0,1-5.783,10.969A13,13,0,0,1,159.968,46.6h-4.22a13.026,13.026,0,0,1-3.521-.482,22.146,22.146,0,0,1-10.679.282,13,13,0,0,1-2.275.2H134.46a12.974,12.974,0,0,1-2.53-.248,13.069,13.069,0,0,1-2.543.248h-4.219a13.01,13.01,0,0,1-3.348-.435,21.586,21.586,0,0,1-11.493-.058,12.988,12.988,0,0,1-3.721.541h-4.22a13.1,13.1,0,0,1-2.376-.217,13.034,13.034,0,0,1-2.1.169h-4.22a12.968,12.968,0,0,1-4.126-.668,23.848,23.848,0,0,1-7.395,1.143c-11.906,0-20.916-8.038-21.426-19.112a13.014,13.014,0,0,1,.866-5.3,19.755,19.755,0,0,1-.287-3.29C61.318,8.79,70.27.806,82.141.806a22.1,22.1,0,0,1,9.244,1.981,13.119,13.119,0,0,1,2.3-.2h2.1A15.675,15.675,0,0,1,104.5,0" fill="#fff"/>
          <path id="패스_52100" data-name="패스 52100" d="M82.165,39.075a14.471,14.471,0,0,1-9.009-2.864,11.418,11.418,0,0,1-4.425-8.616l-.24-5.229h1.2a11.73,11.73,0,0,1-.369-2.989,9.588,9.588,0,0,1,1.27-4.826,10.3,10.3,0,0,1,3.2-3.4,14.794,14.794,0,0,1,8.354-2.341,13.988,13.988,0,0,1,6.936,1.778h9.672a7.617,7.617,0,0,1,13.312,4.45,13.171,13.171,0,0,1,4.146-.657,12.851,12.851,0,0,1,3.961.621V8.687h14.219v6.022h8.922a13.352,13.352,0,0,1,5.918,0h.988l-.19.211c.244.074.486.155.723.243v-.454h10.383a10.979,10.979,0,0,1,2.725-.332,10.07,10.07,0,0,1,3.468.514l3.315,1.153.042,3.51.047,3.959.1,8.347-5.86-3.047V38.6h-14.22v-.416a13.486,13.486,0,0,1-4.482.748A13.129,13.129,0,0,1,143.3,38.6H120.168v-.278a12.905,12.905,0,0,1-3.961.61,13.084,13.084,0,0,1-4.6-.818v.534H97.386V38.6h-8.7v-.926a15.275,15.275,0,0,1-6.521,1.4M144.656,26.7a2.248,2.248,0,0,0,.47.529,2.324,2.324,0,0,0,.446.29l2-.411a2.227,2.227,0,0,0,.4-.5,2.06,2.06,0,0,0-.28-.37l-1.4-.3-1.2.258a3.448,3.448,0,0,0-.435.508"/>
          <path id="패스_52101" data-name="패스 52101" d="M104.5,13a2.5,2.5,0,0,0-2.584,2.584,2.584,2.584,0,0,0,5.168,0A2.5,2.5,0,0,0,104.5,13m20.672.687V33.6h4.219V30.4l1.683-1.9,3.39,5.1h4.813l-5.619-7.965,5.334-5.926h-4.694l-4.907,5.665V13.687Zm-43.027.119c-4.362,0-7.823,2.086-7.823,5.571,0,3.627,2.276,5.357,6.472,6.14,3.437.64,4.741,1.256,4.741,2.8,0,1.256-1.3,2.134-3.058,2.134-2.465,0-4.077-1.233-4.314-3.082H73.726c.189,4.125,3.674,6.709,8.439,6.709,4.314,0,7.8-2.253,7.8-5.951,0-2.892-1.517-5.1-5.974-6.021-3.769-.782-5.262-1.28-5.262-2.726,0-1.162,1.114-1.968,3.129-1.968,2.062,0,3.319,1.02,3.579,2.7h4.457c-.213-3.675-3.437-6.306-7.752-6.306m11.545,1.778v4.125h-2.75v3.627h2.75V33.6h4.22V23.336h2.75V19.709h-2.75V15.584Zm22.521,3.793a7.073,7.073,0,0,0-7.373,7.278,7.073,7.073,0,0,0,7.373,7.277,6.771,6.771,0,0,0,6.922-5.334h-4.267a2.692,2.692,0,0,1-2.655,1.66c-1.968,0-3.248-1.517-3.248-3.6s1.28-3.6,3.248-3.6a2.559,2.559,0,0,1,2.584,1.612h4.267a6.646,6.646,0,0,0-6.851-5.286m30.059,0a6.984,6.984,0,0,0-7.23,7.278,6.97,6.97,0,0,0,7.23,7.277c3.366,0,6.092-1.825,6.8-4.48h-4.243a2.859,2.859,0,0,1-2.56,1.09,2.936,2.936,0,0,1-3.035-2.536H153.4a9.512,9.512,0,0,0,.1-1.351,6.971,6.971,0,0,0-7.23-7.278m3.1,5.9h-6.163a2.908,2.908,0,0,1,3.058-2.561,2.954,2.954,0,0,1,3.1,2.561m14.485-5.9a4.559,4.559,0,0,0-3.888,1.754V19.709h-4.22V33.6h4.22V26.489c0-2.11,1.351-3.39,3.6-3.39a4.672,4.672,0,0,1,2.157.474l-.047-3.959a5.16,5.16,0,0,0-1.825-.237m-61.47,14.271h4.22V19.709h-4.22ZM104.5,3A12.458,12.458,0,0,1,115.5,9.39q.318-.012.64-.013a10,10,0,0,1,9.026-5.69h4.219a10,10,0,0,1,9.177,6.022h.424a10.011,10.011,0,0,1,2.5.316,17.73,17.73,0,0,1,4.781-.648,18.134,18.134,0,0,1,5.941.977,9.975,9.975,0,0,1,3.541-.645h4.22c.17,0,.34,0,.508.012a16.369,16.369,0,0,1,3.38-.344,14.886,14.886,0,0,1,5.11.792,10,10,0,0,1,6.714,9.325l.048,3.959a10,10,0,0,1-5.76,9.177v.97a10,10,0,0,1-10,10h-4.22a9.986,9.986,0,0,1-3.505-.631,18.667,18.667,0,0,1-5.977.963,18.4,18.4,0,0,1-4.7-.6,10,10,0,0,1-2.295.266H134.46a9.988,9.988,0,0,1-2.532-.325,10.038,10.038,0,0,1-2.541.325h-4.219a9.975,9.975,0,0,1-3.3-.558,18.293,18.293,0,0,1-11.567-.1,9.973,9.973,0,0,1-3.692.7h-4.22a10.06,10.06,0,0,1-2.344-.276,10.085,10.085,0,0,1-2.136.228h-4.22a9.971,9.971,0,0,1-4.1-.875,20.427,20.427,0,0,1-7.423,1.35c-10.245,0-18-6.834-18.429-16.25a10.009,10.009,0,0,1,1-4.832,16.64,16.64,0,0,1-.414-3.616c0-8.877,7.663-15.571,17.823-15.571A18.916,18.916,0,0,1,91,5.949a10.013,10.013,0,0,1,2.688-.365h3.082A12.611,12.611,0,0,1,104.5,3"/>
          <path id="패스_52102" data-name="패스 52102" d="M82.165,38.074c-7.036,0-12.15-4.328-12.435-10.525l-.192-4.183h1.539c-.014-.034-.028-.067-.041-.1a10.258,10.258,0,0,1-.717-3.889,8.6,8.6,0,0,1,1.138-4.329,9.277,9.277,0,0,1,2.892-3.073,13.8,13.8,0,0,1,7.793-2.169,12.677,12.677,0,0,1,7.545,2.367v-.589h9.538a6.337,6.337,0,0,1,.591-.681,6.584,6.584,0,0,1,11.264,4.681,7,7,0,0,1-.065.953,11.859,11.859,0,0,1,5.192-1.16,11.577,11.577,0,0,1,4.961,1.079V9.687h12.22v6.022h10.04a12.114,12.114,0,0,1,2.838-.332,11.647,11.647,0,0,1,5.483,1.327v-1h9.5a9.974,9.974,0,0,1,2.607-.332,8.987,8.987,0,0,1,3.14.459l2.652.922.033,2.808.048,3.959.08,6.678-5.841-3.037V37.6H151.749v-.926a12.5,12.5,0,0,1-8.326.926H121.168v-.748a11.622,11.622,0,0,1-4.961,1.08,11.789,11.789,0,0,1-5.6-1.368v1.084H98.387V37.6h-8.7V35.964a13.618,13.618,0,0,1-7.522,2.11m63.936-11.4a.717.717,0,0,0,.166.046.856.856,0,0,0,.281-.1.81.81,0,0,0-.21-.07,1.26,1.26,0,0,0-.237.121m-.633-.555a1.2,1.2,0,0,0,.385.416l.3-.563Z"/>
          <path id="패스_52103" data-name="패스 52103" d="M104.5,13a2.5,2.5,0,0,0-2.584,2.584,2.584,2.584,0,0,0,5.168,0A2.5,2.5,0,0,0,104.5,13m20.672.687V33.6h4.219V30.4l1.683-1.9,3.39,5.1h4.813l-5.619-7.965,5.334-5.926h-4.694l-4.907,5.666V13.687Zm-43.027.119c-4.362,0-7.823,2.086-7.823,5.571,0,3.627,2.276,5.357,6.472,6.14,3.437.64,4.741,1.256,4.741,2.8,0,1.256-1.3,2.134-3.058,2.134-2.465,0-4.077-1.233-4.314-3.082H73.726c.189,4.125,3.674,6.709,8.439,6.709,4.315,0,7.8-2.252,7.8-5.951,0-2.892-1.517-5.1-5.974-6.021-3.769-.782-5.262-1.28-5.262-2.726,0-1.162,1.114-1.968,3.129-1.968,2.062,0,3.319,1.02,3.579,2.7h4.457c-.213-3.675-3.437-6.306-7.752-6.306m11.545,1.778v4.125h-2.75v3.627h2.75V33.6h4.22V23.336h2.75V19.709h-2.75V15.584Zm22.521,3.793a7.073,7.073,0,0,0-7.373,7.278,7.073,7.073,0,0,0,7.373,7.277,6.77,6.77,0,0,0,6.922-5.333h-4.267a2.692,2.692,0,0,1-2.655,1.659c-1.968,0-3.248-1.517-3.248-3.6s1.28-3.6,3.248-3.6a2.559,2.559,0,0,1,2.584,1.612h4.267a6.646,6.646,0,0,0-6.851-5.286m30.059,0a6.984,6.984,0,0,0-7.23,7.278,6.971,6.971,0,0,0,7.23,7.277c3.366,0,6.092-1.825,6.8-4.48h-4.243a2.859,2.859,0,0,1-2.56,1.09,2.934,2.934,0,0,1-3.034-2.536H153.4a9.512,9.512,0,0,0,.1-1.351,6.971,6.971,0,0,0-7.23-7.278m3.1,5.9h-6.163a2.908,2.908,0,0,1,3.058-2.561,2.954,2.954,0,0,1,3.1,2.561m14.485-5.9a4.559,4.559,0,0,0-3.888,1.754V19.709h-4.22V33.6h4.22V26.489c0-2.11,1.351-3.39,3.6-3.39a4.672,4.672,0,0,1,2.157.474l-.047-3.959a5.16,5.16,0,0,0-1.825-.237m-61.47,14.271h4.22V19.709h-4.22ZM104.5,5a10.46,10.46,0,0,1,9.789,6.485,16.81,16.81,0,0,1,3.206-.057,8,8,0,0,1,7.677-5.741h4.219a8,8,0,0,1,7.754,6.022h1.847a8,8,0,0,1,2.463.388,16.113,16.113,0,0,1,4.815-.72,15.887,15.887,0,0,1,5.98,1.137,7.966,7.966,0,0,1,3.5-.805h4.22q.339,0,.671.028a14.179,14.179,0,0,1,3.217-.36,13.016,13.016,0,0,1,4.453.681,8,8,0,0,1,5.371,7.46l.048,3.959a8,8,0,0,1-5.76,7.776V33.6a8,8,0,0,1-8,8h-4.22a7.968,7.968,0,0,1-3.453-.781,16.5,16.5,0,0,1-6.029,1.113,16.125,16.125,0,0,1-4.671-.676,8,8,0,0,1-2.322.344H134.46a8,8,0,0,1-2.533-.411,7.99,7.99,0,0,1-2.54.411h-4.219a7.971,7.971,0,0,1-3.272-.7,15.879,15.879,0,0,1-5.689,1.029,16.177,16.177,0,0,1-6.018-1.129,7.978,7.978,0,0,1-3.583.845h-4.22a8.009,8.009,0,0,1-2.321-.342,8.01,8.01,0,0,1-2.159.294h-4.22a7.961,7.961,0,0,1-4.026-1.085,18.1,18.1,0,0,1-7.5,1.56c-9.139,0-16.049-6.032-16.431-14.342a8,8,0,0,1,1.108-4.444,14.92,14.92,0,0,1-.524-3.912c0-7.864,6.655-13.571,15.823-13.571A16.777,16.777,0,0,1,90.78,8.128a7.989,7.989,0,0,1,2.906-.544H97.5A10.578,10.578,0,0,1,104.5,5" fill="#fff"/>
          <path id="패스_52104" data-name="패스 52104" d="M229.159,69.785v-7.28h1.42V43.085h-46.35l-1.56,4.25-2.9,7.87-2.91-7.87-1.57-4.25h-42.56v13.13H131.1V43.085H110.7v3.42a24.578,24.578,0,0,0-14.22-4.27,24.233,24.233,0,0,0-17.88,7.44c-3.46-4.15-9.06-6.59-15.98-6.59H42.789v12.42l-3.2-8.27-1.61-4.15H21.389l-1.6,4.15L6.939,80.355l-1.68,4.34L4.2,87.425l-.69,1.78h21.7l1.55-4.29.77-2.13h3.71l.76,2.13,1.55,4.29h29.64v-3.54l.28.45,1.9,3.09h24.14l-.09-.14a26.117,26.117,0,0,0,7.06.95,24.972,24.972,0,0,0,14.22-4.39v3.58h20.4V75.755h1.63v13.45h33.24V76.325l3.46,8.77,1.63,4.11h16.8l1.63-4.11,3.46-8.77v12.88h18.54l2.6-1.5,1.73-1,6.93-4,1.7-.98,4-2.31,1-.58,1.5-.87v-8.18ZM100.1,66.365l-.49,2.61a3.824,3.824,0,0,1-2.97,1.26,3.762,3.762,0,0,1-3.99-4.11,4.2,4.2,0,0,1,6.57-3.38Z"/>
          <path id="패스_52105" data-name="패스 52105" d="M29.379,58.325l-4.14,11.54h8.29Zm32.92-2.2h-5.61v9.59H62.3c3.9,0,6.26-1.66,6.26-4.79s-2.36-4.8-6.26-4.8m0,0h-5.61v9.59H62.3c3.9,0,6.26-1.66,6.26-4.79s-2.36-4.8-6.26-4.8m-32.92,2.2-4.14,11.54h8.29Zm0,0-4.14,11.54h8.29Zm32.92-2.2h-5.61v9.59H62.3c3.9,0,6.26-1.66,6.26-4.79s-2.36-4.8-6.26-4.8m0,0h-5.61v9.59H62.3c3.9,0,6.26-1.66,6.26-4.79s-2.36-4.8-6.26-4.8m-32.92,2.2-4.14,11.54h8.29Zm206.27,11.36c.01-.17.01-.34.01-.51v-6.42c0-.27-.01-.53-.02-.78a13.024,13.024,0,0,0,1.44-5.97v-6.42a13,13,0,0,0-13-13h-24.63a14.129,14.129,0,0,0-1.46.08,14.129,14.129,0,0,0-1.46-.08h-7.76a13.05,13.05,0,0,0-9.01,3.62,13.007,13.007,0,0,0-9-3.62h-8.37a14.129,14.129,0,0,0-1.46.08,14.129,14.129,0,0,0-1.46-.08h-7.4a12.807,12.807,0,0,0-2.72.29,12.9,12.9,0,0,0-2.73-.29h-7.39a12.983,12.983,0,0,0-7.32,2.25,12.927,12.927,0,0,0-7.31-2.25h-7.4a12.892,12.892,0,0,0-7.13,2.13,31.8,31.8,0,0,0-13.59-2.98,31.384,31.384,0,0,0-17.84,5.33,28.768,28.768,0,0,0-16.02-4.48H49.289a12.948,12.948,0,0,0-7.88,2.66,13,13,0,0,0-7.88-2.66h-7.68a13.013,13.013,0,0,0-12.13,8.3L.879,78A13,13,0,0,0,13,95.705h7.64a13,13,0,0,0,8.74-3.37,13,13,0,0,0,8.74,3.37h8.25a14.128,14.128,0,0,0,1.46-.08,14.128,14.128,0,0,0,1.46.08h7.4a12.911,12.911,0,0,0,6.16-1.55A12.991,12.991,0,0,0,69,95.705h8.58a13.05,13.05,0,0,0,6.34-1.65,32.37,32.37,0,0,0,12.56,2.46,31.691,31.691,0,0,0,13.49-3,12.979,12.979,0,0,0,7.23,2.19h7.4a12.927,12.927,0,0,0,7.31-2.25,12.983,12.983,0,0,0,7.32,2.25h7.39a13.59,13.59,0,0,0,2.73-.28,13.49,13.49,0,0,0,2.72.28h7.4a12.9,12.9,0,0,0,8-2.76,13,13,0,0,0,8.01,2.76h7.96a13,13,0,0,0,8.01-2.76,12.9,12.9,0,0,0,8,2.76h.78l5.2-3,3.46-2,2.6-1.5,2.6-1.5,1.73-1,6.93-4h-23.3V49.585h24.63v6.42h-17.23v6.75h15.81v6.42h-15.81v7.11h17.6v5.44l4-2.31,1-.58,1.5-.87,1.5-.86,1.99-1.15,2.86-1.65a13.022,13.022,0,0,0-1.65-4.62m-111.05-.43v13.45h-7.4V49.585h7.4v13.13h14.63V49.585h7.39v33.12h-7.39V69.255Zm-28.12,14.26c-10.2,0-17.72-7.35-17.72-17.39s7.52-17.39,17.72-17.39c9.1,0,15.19,5.48,16.54,12.47h-7.48c-.77-3.17-4.15-5.69-8.9-5.69a10.219,10.219,0,0,0-10.49,10.61,10.242,10.242,0,0,0,10.49,10.61c4.75,0,8.65-3.13,9.22-6.14h7.48c-1.02,6.67-7.68,12.92-16.86,12.92m-73.52-7.23-2.32,6.42H13l12.85-33.12h7.68l12.84,33.12h-8.25l-2.32-6.42Zm26.33-26.7h13.33c8.42,0,13.33,4.47,13.33,11.34a10.29,10.29,0,0,1-6.05,9.87l7.68,11.91H69l-6.42-10.44h-5.89v10.44h-7.4Zm110.18,33.12h-7.4V49.585h7.4Zm23.97,0h-7.96l-13.09-33.12h8.37l9.03,24.38,8.98-24.38h7.76ZM68.559,60.925c0-3.13-2.36-4.8-6.26-4.8h-5.61v9.59H62.3c3.9,0,6.26-1.66,6.26-4.79m-43.32,8.94h8.29l-4.15-11.54Zm4.14-11.54-4.14,11.54h8.29Zm32.92-2.2h-5.61v9.59H62.3c3.9,0,6.26-1.66,6.26-4.79s-2.36-4.8-6.26-4.8m0,0h-5.61v9.59H62.3c3.9,0,6.26-1.66,6.26-4.79s-2.36-4.8-6.26-4.8m-32.92,2.2-4.14,11.54h8.29Zm0,0-4.14,11.54h8.29Zm32.92-2.2h-5.61v9.59H62.3c3.9,0,6.26-1.66,6.26-4.79s-2.36-4.8-6.26-4.8m0,0h-5.61v9.59H62.3c3.9,0,6.26-1.66,6.26-4.79s-2.36-4.8-6.26-4.8m-32.92,2.2-4.14,11.54h8.29Zm0,0-4.14,11.54h8.29Zm0,0-4.14,11.54h8.29Zm32.92-2.2h-5.61v9.59H62.3c3.9,0,6.26-1.66,6.26-4.79s-2.36-4.8-6.26-4.8m0,0h-5.61v9.59H62.3c3.9,0,6.26-1.66,6.26-4.79s-2.36-4.8-6.26-4.8" fill="#fff"/>
          <path id="패스_52106" data-name="패스 52106" d="M227.659,71.285V61.005h1.42V44.585h-43.8l-1.21,3.27-4.3,11.68-4.32-11.68-1.21-3.27h-40.01v13.13H129.6V44.585H112.2v5.1c-.46-.44-.93-.85-1.44-1.25a22.617,22.617,0,0,0-14.28-4.7,22.178,22.178,0,0,0-17.99,8.36,14.987,14.987,0,0,0-2.77-3.19c-3.26-2.83-7.79-4.32-13.1-4.32H44.289v18.94l-6.1-15.75-1.24-3.19H22.419l-1.24,3.19L8.339,80.895l-2.26,5.82-.38.99h18.46l1.19-3.3,1.12-3.12h5.82l1.13,3.12,1.19,3.3h27.08v-7.35l3.05,4.97,1.47,2.38h20.54L85.649,86a24.449,24.449,0,0,0,18.88,1.15,22.559,22.559,0,0,0,6.6-3.71c.37-.3.73-.61,1.07-.93v5.2h17.4V74.255h4.63v13.45h30.24V68.445l6.36,16.1,1.25,3.16h14.76l1.25-3.16,6.36-16.1v19.26h19.64l1.73-1,6.93-4,1.7-.98,4-2.31,1-.58v-7.55Zm-126.05-5.09-.65,3.44a3.283,3.283,0,0,1-1.2,1.19,5.773,5.773,0,0,1-3.12.91,5.26,5.26,0,0,1-5.49-5.61,5.26,5.26,0,0,1,5.49-5.61c2.47,0,3.85,1.1,4.04,1.88Z"/>
          <path id="패스_52107" data-name="패스 52107" d="M29.379,58.325l-4.14,11.54h8.29Zm32.92-2.2h-5.61v9.59H62.3c3.9,0,6.26-1.66,6.26-4.79s-2.36-4.8-6.26-4.8m-32.92,2.2-4.14,11.54h8.29Zm32.92-2.2h-5.61v9.59H62.3c3.9,0,6.26-1.66,6.26-4.79s-2.36-4.8-6.26-4.8m-32.92,2.2-4.14,11.54h8.29Zm32.92-2.2h-5.61v9.59H62.3c3.9,0,6.26-1.66,6.26-4.79s-2.36-4.8-6.26-4.8m-32.92,2.2-4.14,11.54h8.29Zm32.92-2.2h-5.61v9.59H62.3c3.9,0,6.26-1.66,6.26-4.79s-2.36-4.8-6.26-4.8m170.28,14.34a11.166,11.166,0,0,0,.08-1.29v-6.42a11.352,11.352,0,0,0-.1-1.44,10.009,10.009,0,0,0,1.52-5.31v-6.42a10,10,0,0,0-10-10h-24.63a10.141,10.141,0,0,0-1.46.11,10.141,10.141,0,0,0-1.46-.11h-7.76a10.025,10.025,0,0,0-9.01,5.64,10,10,0,0,0-9-5.64h-8.37a10.141,10.141,0,0,0-1.46.11,10.141,10.141,0,0,0-1.46-.11h-7.4a9.767,9.767,0,0,0-2.72.38,9.838,9.838,0,0,0-2.73-.38h-7.39a9.977,9.977,0,0,0-7.32,3.18,9.938,9.938,0,0,0-7.31-3.18h-7.4a9.915,9.915,0,0,0-6.74,2.62,28.761,28.761,0,0,0-13.98-3.47,28.145,28.145,0,0,0-17.85,6.1,24.912,24.912,0,0,0-16.01-5.25H49.289a9.987,9.987,0,0,0-7.88,3.85,9.985,9.985,0,0,0-7.88-3.85h-7.68a10.007,10.007,0,0,0-9.33,6.39L3.679,79.1a9.95,9.95,0,0,0,.52,8.33,7.322,7.322,0,0,0,.55.93,7.732,7.732,0,0,0,.66.85,9.961,9.961,0,0,0,7.59,3.5h7.64a10,10,0,0,0,8.74-5.13,10,10,0,0,0,8.74,5.13h8.25a8.889,8.889,0,0,0,1.46-.11,8.889,8.889,0,0,0,1.46.11h7.4a9.964,9.964,0,0,0,6.16-2.12A9.945,9.945,0,0,0,69,92.705h8.58a10.026,10.026,0,0,0,6.1-2.07,29.009,29.009,0,0,0,12.8,2.88,28.534,28.534,0,0,0,13.84-3.55,9.987,9.987,0,0,0,6.88,2.74h7.4a9.938,9.938,0,0,0,7.31-3.18,9.977,9.977,0,0,0,7.32,3.18h7.39a10.223,10.223,0,0,0,2.73-.37,10.149,10.149,0,0,0,2.72.37h7.4a9.957,9.957,0,0,0,8-4.01,9.993,9.993,0,0,0,8.01,4.01h7.96a9.993,9.993,0,0,0,8.01-4.01,9.957,9.957,0,0,0,8,4.01h5.98l3.46-2,2.6-1.5,2.6-1.5,1.73-1,6.93-4h-23.3V49.585h24.63v6.42h-17.23v6.75h15.81v6.42h-15.81v7.11h17.6v5.44l4-2.31,1-.58,1.5-.87,1.5-.86,1.99-1.15a9.965,9.965,0,0,0-1.86-5.49M124.6,69.255v13.45h-7.4V49.585h7.4v13.13h14.63V49.585h7.39v33.12h-7.39V69.255Zm-28.12,14.26c-10.2,0-17.72-7.35-17.72-17.39s7.52-17.39,17.72-17.39c9.1,0,15.19,5.48,16.54,12.47h-7.48c-.77-3.17-4.15-5.69-8.9-5.69a10.219,10.219,0,0,0-10.49,10.61,10.242,10.242,0,0,0,10.49,10.61c4.75,0,8.65-3.13,9.22-6.14h7.48c-1.02,6.67-7.68,12.92-16.86,12.92m-18.9-.81H69l-6.42-10.44h-5.89v10.44h-7.4V49.585h13.33c8.42,0,13.33,4.47,13.33,11.34a10.29,10.29,0,0,1-6.05,9.87Zm19.3-16.5c-.04.09-.08.17-.12.25l-.61-.33.53-.27c.06.12.13.23.2.35m-73.92,10.08-2.32,6.42H13l12.85-33.12h7.68l12.84,33.12h-8.25l-2.32-6.42Zm136.51,6.42h-7.4V49.585h7.4Zm23.97,0h-7.96l-13.09-33.12h8.37l9.03,24.38,8.98-24.38h7.76ZM62.3,56.125h-5.61v9.59H62.3c3.9,0,6.26-1.66,6.26-4.79s-2.36-4.8-6.26-4.8m-37.06,13.74h8.29l-4.15-11.54ZM62.3,56.125h-5.61v9.59H62.3c3.9,0,6.26-1.66,6.26-4.79s-2.36-4.8-6.26-4.8m-32.92,2.2-4.14,11.54h8.29Zm32.92-2.2h-5.61v9.59H62.3c3.9,0,6.26-1.66,6.26-4.79s-2.36-4.8-6.26-4.8m-32.92,2.2-4.14,11.54h8.29Zm0,0-4.14,11.54h8.29Zm32.92-2.2h-5.61v9.59H62.3c3.9,0,6.26-1.66,6.26-4.79s-2.36-4.8-6.26-4.8m0,0h-5.61v9.59H62.3c3.9,0,6.26-1.66,6.26-4.79s-2.36-4.8-6.26-4.8m-32.92,2.2-4.14,11.54h8.29Zm0,0-4.14,11.54h8.29Zm0,0-4.14,11.54h8.29Zm32.92-2.2h-5.61v9.59H62.3c3.9,0,6.26-1.66,6.26-4.79s-2.36-4.8-6.26-4.8m0,0h-5.61v9.59H62.3c3.9,0,6.26-1.66,6.26-4.79s-2.36-4.8-6.26-4.8"/>
          <path id="패스_52108" data-name="패스 52108" d="M226.659,72.285V60.005h1.42V45.585h-42.1l-.97,2.62-5.23,14.21-5.27-14.22-.96-2.61h-38.32v13.13H128.6V45.585H113.2v6.69a18.845,18.845,0,0,0-3.06-3.06,21.681,21.681,0,0,0-13.66-4.48,21.941,21.941,0,0,0-15.49,6.07,19.822,19.822,0,0,0-2.6,3.13,13.715,13.715,0,0,0-3.33-4.28c-3.07-2.66-7.37-4.07-12.44-4.07H45.289v23.29l-8.03-20.74-.99-2.55H23.109l-.99,2.55L9.269,81.265l-2.11,5.44h16.29l.96-2.64,1.36-3.78h7.22l1.37,3.78.95,2.64h25.38v-9.88l4.91,7.98,1.17,1.9h18.15l-2.66-4.12a22.1,22.1,0,0,0,14.22,4.93,22.914,22.914,0,0,0,7.71-1.31,21.313,21.313,0,0,0,6.31-3.55A20.517,20.517,0,0,0,113.2,80v6.7h15.4V73.255h6.63v13.45h28.24V63.195l8.29,20.98,1,2.53h13.4l1-2.53,8.29-20.98v23.51h20.37l6.93-4,1.7-.98,4-2.31v-7.13ZM60.689,60.125H62.3a3.7,3.7,0,0,1,2.21.45.912.912,0,0,1,.05.35.965.965,0,0,1-.05.35,3.739,3.739,0,0,1-2.21.44h-1.61ZM113.2,66.6h-10.65l-.62,3.26a3.412,3.412,0,0,1-1.42,1.67,6.75,6.75,0,0,1-3.87,1.21,6.269,6.269,0,0,1-6.49-6.61,6.2,6.2,0,0,1,6.49-6.61c2.87,0,4.69,1.33,5.01,2.64l.75,3.05h10.8Z" fill="#009f42"/>
          <path id="패스_52109" data-name="패스 52109" d="M29.379,58.325l-4.14,11.54h8.29Zm32.92-2.2h-5.61v9.59H62.3c3.9,0,6.26-1.66,6.26-4.79s-2.36-4.8-6.26-4.8m0,0h-5.61v9.59H62.3c3.9,0,6.26-1.66,6.26-4.79s-2.36-4.8-6.26-4.8m-32.92,2.2-4.14,11.54h8.29Zm0,0-4.14,11.54h8.29Zm32.92-2.2h-5.61v9.59H62.3c3.9,0,6.26-1.66,6.26-4.79s-2.36-4.8-6.26-4.8m0,0h-5.61v9.59H62.3c3.9,0,6.26-1.66,6.26-4.79s-2.36-4.8-6.26-4.8m-32.92,2.2-4.14,11.54h8.29Zm201.57,13.31a6.124,6.124,0,0,0-.5-.64,8.031,8.031,0,0,0,.19-1.21c.01-.2.02-.4.02-.61v-6.42a7.878,7.878,0,0,0-.08-1.09,7.036,7.036,0,0,0-.14-.8,1.428,1.428,0,0,0,.14-.2,7.88,7.88,0,0,0,1.5-4.66v-6.42a7.9,7.9,0,0,0-1.5-4.66,8.033,8.033,0,0,0-1.84-1.84,7.9,7.9,0,0,0-4.66-1.5h-24.63a7.773,7.773,0,0,0-1.46.14,7.936,7.936,0,0,0-1.46-.14h-7.76a8,8,0,0,0-7.51,5.24l-1.49,4.04-1.5-4.06a8.025,8.025,0,0,0-7.51-5.22h-8.37a7.937,7.937,0,0,0-1.46.14,7.773,7.773,0,0,0-1.46-.14h-7.4a7.9,7.9,0,0,0-2.72.48,7.955,7.955,0,0,0-2.73-.48h-7.39a7.9,7.9,0,0,0-4.66,1.5,8.033,8.033,0,0,0-1.84,1.84,7.393,7.393,0,0,0-.82,1.42,7.272,7.272,0,0,0-.81-1.41,7.738,7.738,0,0,0-1.85-1.85,7.894,7.894,0,0,0-4.65-1.5h-7.4a7.872,7.872,0,0,0-4.65,1.5,7.657,7.657,0,0,0-1.73,1.68.746.746,0,0,0-.12-.07,26.308,26.308,0,0,0-14.22-3.96,25.941,25.941,0,0,0-17.82,6.74c-3.75-3.73-9.31-5.89-16.04-5.89H49.289a7.894,7.894,0,0,0-4.65,1.5,7.738,7.738,0,0,0-1.85,1.85,7.959,7.959,0,0,0-1.32,3l-.48-1.24a8.01,8.01,0,0,0-7.46-5.11h-7.68a7.99,7.99,0,0,0-7.46,5.11L5.539,79.815a8.074,8.074,0,0,0,.54,6.9c.1.18.21.34.32.51s.23.32.36.48a7.736,7.736,0,0,0,1.58,1.5,7.992,7.992,0,0,0,4.66,1.5h7.64a8,8,0,0,0,7.53-5.28l.41-1.14h1.6l.41,1.14a8.011,8.011,0,0,0,7.53,5.28h8.25a7.927,7.927,0,0,0,1.46-.13,7.775,7.775,0,0,0,1.46.13h7.4a7.9,7.9,0,0,0,4.66-1.5,8.226,8.226,0,0,0,1.5-1.39c.11.13.22.26.34.38A7.945,7.945,0,0,0,69,90.705h8.58a7.992,7.992,0,0,0,4.66-1.5,7.781,7.781,0,0,0,1.15-1c.65.36,1.32.7,2,1a26.994,26.994,0,0,0,11.09,2.31,26.49,26.49,0,0,0,14.22-4.09c.01-.01.02-.01.03-.02a8,8,0,0,0,6.47,3.3h7.4a7.894,7.894,0,0,0,4.65-1.5,7.7,7.7,0,0,0,1.85-1.84,7.581,7.581,0,0,0,.81-1.41,7.708,7.708,0,0,0,.82,1.42,7.8,7.8,0,0,0,1.84,1.83,7.9,7.9,0,0,0,4.66,1.5h7.39a8.2,8.2,0,0,0,2.73-.47,8.136,8.136,0,0,0,2.72.47h7.4a8.024,8.024,0,0,0,7.9-6.75l.67,1.69a7.992,7.992,0,0,0,7.44,5.06h7.96a7.992,7.992,0,0,0,7.44-5.06l.67-1.69a8,8,0,0,0,7.9,6.75h9.44l2.6-1.5,2.6-1.5,1.73-1,6.93-4h-23.3V49.585h24.63v6.42h-17.23v6.75h15.81v6.42h-15.81v7.11h17.6v5.44l4-2.31,1-.58,1.5-.87,1.5-.86v-.82a7.941,7.941,0,0,0-1.5-4.65M124.6,69.255v13.45h-7.4V49.585h7.4v13.13h14.63V49.585h7.39v33.12h-7.39V69.255Zm-98.75-19.67h7.68l12.84,33.12h-8.25l-2.32-6.42H22.959l-2.32,6.42H13Zm30.84,22.68v10.44h-7.4V49.585h13.33c8.42,0,13.33,4.47,13.33,11.34a10.29,10.29,0,0,1-6.05,9.87l7.68,11.91H69l-6.42-10.44Zm39.79,11.25c-10.2,0-17.72-7.35-17.72-17.39s7.52-17.39,17.72-17.39c9.1,0,15.19,5.48,16.54,12.47h-7.48c-.77-3.17-4.15-5.69-8.9-5.69a10.219,10.219,0,0,0-10.49,10.61,10.242,10.242,0,0,0,10.49,10.61c4.75,0,8.65-3.13,9.22-6.14h7.48c-1.02,6.67-7.68,12.92-16.86,12.92m2.75-17.39a8.049,8.049,0,0,0-1.02,2.13,2.788,2.788,0,0,1-1.57.48,2.613,2.613,0,0,1,0-5.22c.73,0,1.19.15,1.2-.13a7.888,7.888,0,0,0,1.39,2.74m60.24,16.58h-7.4V49.585h7.4Zm23.97,0h-7.96l-13.09-33.12h8.37l9.03,24.38,8.98-24.38h7.76ZM68.559,60.925c0-3.13-2.36-4.8-6.26-4.8h-5.61v9.59H62.3c3.9,0,6.26-1.66,6.26-4.79m-39.18-2.6-4.14,11.54h8.29Zm0,0-4.14,11.54h8.29Zm32.92-2.2h-5.61v9.59H62.3c3.9,0,6.26-1.66,6.26-4.79s-2.36-4.8-6.26-4.8m0,0h-5.61v9.59H62.3c3.9,0,6.26-1.66,6.26-4.79s-2.36-4.8-6.26-4.8m-32.92,2.2-4.14,11.54h8.29Zm0,0-4.14,11.54h8.29Zm32.92-2.2h-5.61v9.59H62.3c3.9,0,6.26-1.66,6.26-4.79s-2.36-4.8-6.26-4.8m0,0h-5.61v9.59H62.3c3.9,0,6.26-1.66,6.26-4.79s-2.36-4.8-6.26-4.8m-32.92,2.2-4.14,11.54h8.29Zm0,0-4.14,11.54h8.29Zm0,0-4.14,11.54h8.29Zm32.92-2.2h-5.61v9.59H62.3c3.9,0,6.26-1.66,6.26-4.79s-2.36-4.8-6.26-4.8m0,0h-5.61v9.59H62.3c3.9,0,6.26-1.66,6.26-4.79s-2.36-4.8-6.26-4.8" fill="#fff"/>
          
          
          <path id="패스_52110" data-name="패스 52110" d="M97.1,60.423a5.5,5.5,0,1,1-5.5,5.5,5.5,5.5,0,0,1,5.5-5.5" fill="#fff"/>
          <g>
            <path class="star s1" id="패스_52111" data-name="패스 52111" d="M195.725,2.194h0a3.936,3.936,0,0,1,1.441,5.377L190.277,19.5a3.936,3.936,0,1,1-6.817-3.936l6.888-11.931a3.936,3.936,0,0,1,5.377-1.441" fill="#f38ab3" stroke="#000" stroke-width="2"/>
          </g>
          <g>
            <path class="star s2" id="패스_52113" data-name="패스 52113" d="M211.029,17.5h0a3.936,3.936,0,0,1-1.441,5.377l-11.931,6.888a3.936,3.936,0,1,1-3.936-6.817l11.931-6.889a3.936,3.936,0,0,1,5.377,1.441" fill="#a3d7ef" stroke="#000" stroke-width="2"/>
          </g>

          <g class="sti">
            <g id="마스크_그룹_112054" data-name="마스크 그룹 112054" transform="translate(15547.65 -5822.742)" clip-path="url(#clip-path)">
              <rect id="사각형_22445" data-name="사각형 22445" width="64.09" height="11" transform="translate(-15361.401 5916.505) rotate(-30)" opacity="0.5" fill="url(#linear-gradient)"/>
            </g>
            <g transform="matrix(1, 0, 0, 1, -2.35, -2.74)" filter="url(#패스_52115)">
                <path id="패스_52115-2" data-name="패스 52115" d="M235.66,73.186l-5.56-3.21a13,13,0,0,0-17.758,4.758l-12.11,20.975,5.2-3,3.462-2,2.6-1.5,2.6-1.5,1.731-1,6.929-4,1.7-.983,4-2.309,1-.576,1.5-.864,1.495-.869,1.991-1.148,2.859-1.652a12.988,12.988,0,0,0-1.64-1.12" transform="translate(2.35 2.74)" fill="#fff"/>
            </g>
          </g>
        </g>
      </g>
      <rect id="사각형_22348" data-name="사각형 22348" width="242" height="102" transform="translate(-11536 4032)" fill="none"/>
    </g>
    <g id="shadow" clip-path="url(#clip-path-2)">
      <path class="sti" id="패스_52169" data-name="패스 52169" d="M31.966,3.166,0,24.381,7.132,10.175C12.017.444,22.835-2.888,31.3,2.728Z" transform="translate(-15345.337 5883.745) rotate(5)" opacity="0.07" fill="url(#linear-gradient-2)"/>
    </g>
    <g id="shadow-2" data-name="shadow" clip-path="url(#clip-path-3)">
      <g transform="matrix(1, 0, 0, 1, -15550, 5820)" filter="url(#패스_52174)">
        <g class="sti">
          <path  class="st1" id="패스_52174-2" data-name="패스 52174" d="M235.66,73.186l-12.91-.947S201.367,62.179,197.777,68.4l2.455,27.312,5.2-3,3.462-2,2.6-1.5,2.6-1.5,1.731-1,6.929-4,1.7-.983,4-2.309,1-.576,1.5-.864,1.495-.869,1.991-1.148,2.859-1.652a12.988,12.988,0,0,0-1.64-1.12" transform="translate(439.88 172.68) rotate(180)" fill="url(#linear-gradient-3)"/>
        </g>
      </g>
    </g>
  </g>
</svg>
