<?xml version="1.0" encoding="utf-8"?>
<!-- Generator: Adobe Illustrator 26.0.3, SVG Export Plug-In . SVG Version: 6.00 Build 0)  -->
<svg version="1.1" id="Layer_1" xmlns="http://www.w3.org/2000/svg" xmlns:xlink="http://www.w3.org/1999/xlink" x="0px" y="0px" viewBox="0 0 33.4 60" style="enable-background:new 0 0 33.4 60;" xml:space="preserve">
<style type="text/css">
.st0{fill:#FFFFFF;}
.st1{fill:none;stroke:#000;stroke-width:2;stroke-linecap:round;stroke-linejoin:round;}
.st2{fill:#F06A86;}

#mot {animation:mot both infinite 3s;}
@keyframes mot {
0% {transform:translateY(-100%);}
16% {transform:translateY(3%);}
26% {transform:translateY(-15%);}
36% {transform:translateY(0%);}
100% {transform:translateY(0%);}
}
</style>
<g id="mot">
	<g transform="translate(-275.631 -1164.157)">
		<path id="Path_37263" class="st0" d="M288.9,1175.8c0.9,0.9,3.4,6.8,3.4,6.8s-5.8-2.5-6.8-3.4c-0.9-0.9-0.9-2.4,0-3.3
			C286.5,1174.9,287.9,1174.9,288.9,1175.8L288.9,1175.8"/>
		<path id="Path_37264" class="st1" d="M288.9,1175.8c0.9,0.9,3.4,6.8,3.4,6.8s-5.8-2.5-6.8-3.4c-0.9-0.9-0.9-2.4,0-3.3
			C286.5,1174.9,287.9,1174.9,288.9,1175.8L288.9,1175.8L288.9,1175.8z"/>
		<path id="Path_37265" class="st0" d="M295.8,1175.8c-0.9,0.9-3.4,6.8-3.4,6.8s5.8-2.5,6.8-3.4c0.9-0.9,0.9-2.4,0-3.3
			C298.2,1174.9,296.7,1174.9,295.8,1175.8L295.8,1175.8"/>
		<path id="Path_37266" class="st1" d="M295.8,1175.8c-0.9,0.9-3.4,6.8-3.4,6.8s5.8-2.5,6.8-3.4c0.9-0.9,0.9-2.4,0-3.3
			C298.2,1174.9,296.7,1174.9,295.8,1175.8L295.8,1175.8L295.8,1175.8z"/>
		<rect id="Rectangle_19796" x="276.6" y="1182.8" class="st2" width="31.4" height="6.9"/>
		<rect id="Rectangle_19797" x="276.6" y="1182.8" class="st1" width="31.4" height="6.9"/>
		<rect id="Rectangle_19798" x="278" y="1189.7" class="st2" width="28.6" height="22.6"/>
		<rect id="Rectangle_19799" x="278" y="1189.7" class="st1" width="28.6" height="22.6"/>
		<rect id="Rectangle_19800" x="290.4" y="1182.8" class="st0" width="3.8" height="29.4"/>
		<rect id="Rectangle_19801" x="290.4" y="1182.8" class="st1" width="3.8" height="29.4"/>
	</g>
</g>
</svg>
