<?xml version="1.0" encoding="utf-8"?>
<!-- Generator: Adobe Illustrator 26.3.1, SVG Export Plug-In . SVG Version: 6.00 Build 0)  -->
<svg version="1.1" xmlns="http://www.w3.org/2000/svg" xmlns:xlink="http://www.w3.org/1999/xlink" x="0px" y="0px"
	 viewBox="0 0 232 110" style="enable-background:new 0 0 232 110;" xml:space="preserve">
<style type="text/css">
	.st0{fill:none;}
	.st1{fill:#7281F4;stroke:#000000;stroke-width:16;}
	.st2{fill:#7281F4;stroke:#F06A86;stroke-width:13;}
	.st3{fill:none;stroke:#000000;stroke-width:16;}
	.st4{fill:none;stroke:#F06A86;stroke-width:13;}
	.st5{fill:#7281F4;stroke:#000000;stroke-width:1.5;}
	.st6{fill:#FFF7E9;}
	.st7{fill:none;stroke:#000000;stroke-width:1.5;stroke-linecap:round;stroke-linejoin:round;}
	.st8{fill:#FCE652;}
	.st9{fill:#FFFFFF;}
	.st10{fill:#FCE652;stroke:#000000;stroke-width:1.5;stroke-linecap:round;stroke-linejoin:round;}
	.st11{fill:none;stroke:#2F1600;stroke-width:1.5;stroke-linecap:round;stroke-linejoin:round;}
	.st12{fill:none;stroke:#000000;stroke-width:1.5;}
	.st13{filter:url(#패스_52179);}
	.st14{fill:#7281F4;stroke:#000000;stroke-width:1.5;stroke-linejoin:round;stroke-miterlimit:10;}
	.st15{fill:#FCE652;stroke:#000000;stroke-width:1.5002;stroke-linecap:round;stroke-linejoin:round;stroke-miterlimit:4.0005;}

  .star {position:relative;animation:star linear infinite 2.5s;}
  .star.s1 {transform-origin:20% -10%;}
  .star.s2 {transform-origin:80% -10%; animation-delay:0.2s;}
  .rot {transform-origin:94% 85%;animation-delay:0.7s;}

  @keyframes star {
  0% {transform:scale(0.4);opacity:0;}	
  20% {transform:scale(1.0);opacity:1;}
  40% {transform:scale(0.6);}	
  58% {transform:scale(1);}
  100% {transform:scale(1);}
  }

    .rot {position:relative;animation:rotate both linear infinite 1s;transform-origin:50% 50%;}
    
  @keyframes rotate {
  0% {transform:rotate(0deg);}
  20% {transform:rotate(-3deg);}
  50% {transform:rotate(0deg);}
  70% {transform:rotate(3deg);}
  100% {transform:rotate(0deg);}
  }
</style>
<filter  filterUnits="userSpaceOnUse" height="30.789" id="패스_52179" width="106.149" x="64.406" y="62.575">
	<feOffset  dx="2" dy="3" input="SourceAlpha"></feOffset>
	<feGaussianBlur  result="blur"></feGaussianBlur>
	<feFlood></feFlood>
	<feComposite  in2="blur" operator="in"></feComposite>
	<feComposite  in="SourceGraphic" operator="over"></feComposite>
</filter>
<g id="레이어_1">
	<g id="그룹_116360" transform="translate(14698 -8870)">
		<rect id="사각형_22468" x="-14698" y="8870" class="st0" width="232" height="110"/>
		<g id="그룹_116358" transform="translate(591 -8.808)">
			<path id="합치기_202" class="st1" d="M-15257.6,8979.2c-12,0-21.8-9.8-21.8-21.8c0-12,9.8-21.8,21.8-21.8h59.8
				c-5.8-9.4-5.9-21.2-0.2-30.7l-2.8,2.8c-4.5-4.7-4.2-12.2,0.5-16.6c4.5-4.3,11.6-4.3,16.1,0l-3.5,3.5c9.4-5.6,21.2-5.5,30.6,0.2
				l-3.7-3.7c4.7-4.5,12.2-4.2,16.6,0.5c4.3,4.5,4.3,11.6,0,16.1l-3.1-3.1c5.8,9.5,5.8,21.5,0,31h59.1c12,0,21.8,9.8,21.8,21.8
				c0,12-9.8,21.8-21.8,21.8L-15257.6,8979.2z"/>
			<path id="합치기_201" class="st2" d="M-15257.6,8979.2c-12,0-21.8-9.8-21.8-21.8c0-12,9.8-21.8,21.8-21.8h59.8
				c-5.8-9.4-5.9-21.2-0.2-30.7l-2.8,2.8c-4.5-4.7-4.2-12.2,0.5-16.6c4.5-4.3,11.6-4.3,16.1,0l-3.5,3.5c9.4-5.6,21.2-5.5,30.6,0.2
				l-3.7-3.7c4.7-4.5,12.2-4.2,16.6,0.5c4.3,4.5,4.3,11.6,0,16.1l-3.1-3.1c5.8,9.5,5.8,21.5,0,31h59.1c12,0,21.8,9.8,21.8,21.8
				c0,12-9.8,21.8-21.8,21.8L-15257.6,8979.2z"/>
			<path id="패스_52252" class="st1" d="M-15170.6,8911.8c0,4.6-0.9,8.3-1.9,8.3c-1,0-1.8-3.7-1.8-8.3c0-4.6,0.9-8.3,1.9-8.3
				C-15171.4,8903.5-15170.6,8907.2-15170.6,8911.8"/>
			<path id="패스_52253" class="st1" d="M-15172.5,8920.9L-15172.5,8920.9c-1.3,0-1.9-1.8-2.2-3.2c-0.4-2-0.5-4-0.5-6.1
				c0-2,0.2-4.1,0.6-6c0.3-1.3,0.9-3.1,2.2-3.1h0c1.3,0,1.9,1.8,2.2,3.2c0.4,2,0.5,4,0.5,6.1c0,2-0.2,4.1-0.6,6
				C-15170.6,8919.1-15171.2,8920.9-15172.5,8920.9z"/>
			<path id="패스_52254" class="st1" d="M-15162.2,8931.1L-15162.2,8931.1c-0.5,0.4-1.1,0.6-1.7,0.4c-0.6-0.1-1.1-0.3-1.6-0.6
				c-1.3-0.8-2.5-1.8-3.6-2.9c-1.1-1.1-2-2.3-2.8-3.7c-0.3-0.5-0.5-1-0.6-1.6c-0.1-0.6,0-1.2,0.4-1.6l0,0c0.4-0.4,1.1-0.6,1.6-0.4
				c0.6,0.1,1.1,0.3,1.6,0.6c1.3,0.8,2.5,1.8,3.6,2.9c1.1,1.1,2,2.3,2.8,3.7c0.3,0.5,0.5,1,0.6,1.6
				C-15161.6,8930-15161.8,8930.7-15162.2,8931.1z"/>
			<path id="패스_52255" class="st1" d="M-15169.3,8920c0,1.8-1.4,3.2-3.2,3.2c-1.8,0-3.2-1.4-3.2-3.2c0-1.8,1.4-3.2,3.2-3.2
				C-15170.7,8916.8-15169.3,8918.2-15169.3,8920z"/>
			<line id="선_844" class="st3" x1="-15172.5" y1="8896.6" x2="-15172.5" y2="8899.6"/>
			<line id="선_845" class="st3" x1="-15172.5" y1="8896.6" x2="-15172.5" y2="8899.6"/>
			<line id="선_846" class="st3" x1="-15184.2" y1="8899.7" x2="-15182.7" y2="8902.3"/>
			<line id="선_847" class="st3" x1="-15184.2" y1="8899.7" x2="-15182.7" y2="8902.3"/>
			<line id="선_848" class="st3" x1="-15192.8" y1="8908.3" x2="-15190.2" y2="8909.8"/>
			<line id="선_849" class="st3" x1="-15192.8" y1="8908.3" x2="-15190.2" y2="8909.8"/>
			<line id="선_850" class="st3" x1="-15195.9" y1="8920" x2="-15193" y2="8920"/>
			<line id="선_851" class="st3" x1="-15195.9" y1="8920" x2="-15193" y2="8920"/>
			<line id="선_852" class="st3" x1="-15192.8" y1="8931.7" x2="-15190.2" y2="8930.2"/>
			<line id="선_853" class="st3" x1="-15192.8" y1="8931.7" x2="-15190.2" y2="8930.2"/>
			<line id="선_854" class="st3" x1="-15185.3" y1="8941.3" x2="-15183.7" y2="8938.5"/>
			<line id="선_855" class="st3" x1="-15185.3" y1="8941.3" x2="-15183.7" y2="8938.5"/>
			<line id="선_856" class="st3" x1="-15172.5" y1="8944.7" x2="-15172.5" y2="8941.5"/>
			<line id="선_857" class="st3" x1="-15172.5" y1="8944.7" x2="-15172.5" y2="8941.5"/>
			<line id="선_858" class="st3" x1="-15159.7" y1="8941.3" x2="-15161.4" y2="8938.5"/>
			<line id="선_859" class="st3" x1="-15159.7" y1="8941.3" x2="-15161.4" y2="8938.5"/>
			<line id="선_860" class="st3" x1="-15152.2" y1="8931.7" x2="-15154.8" y2="8930.2"/>
			<line id="선_861" class="st3" x1="-15152.2" y1="8931.7" x2="-15154.8" y2="8930.2"/>
			<line id="선_862" class="st3" x1="-15149.1" y1="8920" x2="-15152.1" y2="8920"/>
			<line id="선_863" class="st3" x1="-15149.1" y1="8920" x2="-15152.1" y2="8920"/>
			<line id="선_864" class="st3" x1="-15152.2" y1="8908.3" x2="-15154.8" y2="8909.8"/>
			<line id="선_865" class="st3" x1="-15152.2" y1="8908.3" x2="-15154.8" y2="8909.8"/>
			<line id="선_866" class="st3" x1="-15160.8" y1="8899.7" x2="-15162.3" y2="8902.3"/>
			<line id="선_867" class="st3" x1="-15160.8" y1="8899.7" x2="-15162.3" y2="8902.3"/>
			<path id="패스_52161" class="st2" d="M-15149.1,8920c0,12.9-10.5,23.4-23.4,23.4c-12.9,0-23.4-10.5-23.4-23.4
				c0-12.9,10.5-23.4,23.4-23.4l0,0C-15159.6,8896.6-15149.1,8907.1-15149.1,8920"/>
			<ellipse id="타원_808" class="st2" cx="-15172.5" cy="8920" rx="23.4" ry="23.4"/>
			<path id="패스_52162" class="st2" d="M-15170.6,8911.8c0,4.6-0.9,8.3-1.9,8.3c-1,0-1.8-3.7-1.8-8.3c0-4.6,0.9-8.3,1.9-8.3
				C-15171.4,8903.5-15170.6,8907.2-15170.6,8911.8"/>
			<path id="패스_52163" class="st2" d="M-15172.5,8920.9L-15172.5,8920.9c-1.3,0-1.9-1.8-2.2-3.2c-0.4-2-0.5-4-0.5-6.1
				c0-2,0.2-4.1,0.6-6c0.3-1.3,0.9-3.1,2.2-3.1h0c1.3,0,1.9,1.8,2.2,3.2c0.4,2,0.5,4,0.5,6.1c0,2-0.2,4.1-0.6,6
				C-15170.6,8919.1-15171.2,8920.9-15172.5,8920.9z"/>
			<path id="패스_52165" class="st2" d="M-15162.2,8931.1L-15162.2,8931.1c-0.5,0.4-1.1,0.6-1.7,0.4c-0.6-0.1-1.1-0.3-1.6-0.6
				c-1.3-0.8-2.5-1.8-3.6-2.9c-1.1-1.1-2-2.3-2.8-3.7c-0.3-0.5-0.5-1-0.6-1.6c-0.1-0.6,0-1.2,0.4-1.6l0,0c0.4-0.4,1.1-0.6,1.6-0.4
				c0.6,0.1,1.1,0.3,1.6,0.6c1.3,0.8,2.5,1.8,3.6,2.9c1.1,1.1,2,2.3,2.8,3.7c0.3,0.5,0.5,1,0.6,1.6
				C-15161.6,8930-15161.8,8930.7-15162.2,8931.1z"/>
			<path id="패스_52167" class="st2" d="M-15169.3,8920c0,1.8-1.4,3.2-3.2,3.2c-1.8,0-3.2-1.4-3.2-3.2c0-1.8,1.4-3.2,3.2-3.2
				C-15170.7,8916.8-15169.3,8918.2-15169.3,8920z"/>
			<line id="선_820" class="st4" x1="-15172.5" y1="8896.6" x2="-15172.5" y2="8899.6"/>
			<line id="선_821" class="st4" x1="-15172.5" y1="8896.6" x2="-15172.5" y2="8899.6"/>
			<line id="선_822" class="st4" x1="-15184.2" y1="8899.7" x2="-15182.7" y2="8902.3"/>
			<line id="선_823" class="st4" x1="-15184.2" y1="8899.7" x2="-15182.7" y2="8902.3"/>
			<line id="선_824" class="st4" x1="-15192.8" y1="8908.3" x2="-15190.2" y2="8909.8"/>
			<line id="선_825" class="st4" x1="-15192.8" y1="8908.3" x2="-15190.2" y2="8909.8"/>
			<line id="선_826" class="st4" x1="-15195.9" y1="8920" x2="-15193" y2="8920"/>
			<line id="선_827" class="st4" x1="-15195.9" y1="8920" x2="-15193" y2="8920"/>
			<line id="선_828" class="st4" x1="-15192.8" y1="8931.7" x2="-15190.2" y2="8930.2"/>
			<line id="선_829" class="st4" x1="-15192.8" y1="8931.7" x2="-15190.2" y2="8930.2"/>
			<line id="선_830" class="st4" x1="-15185.3" y1="8941.3" x2="-15183.7" y2="8938.5"/>
			<line id="선_831" class="st4" x1="-15185.3" y1="8941.3" x2="-15183.7" y2="8938.5"/>
			<line id="선_832" class="st4" x1="-15172.5" y1="8944.7" x2="-15172.5" y2="8941.5"/>
			<line id="선_833" class="st4" x1="-15172.5" y1="8944.7" x2="-15172.5" y2="8941.5"/>
			<line id="선_834" class="st4" x1="-15159.7" y1="8941.3" x2="-15161.4" y2="8938.5"/>
			<line id="선_835" class="st4" x1="-15159.7" y1="8941.3" x2="-15161.4" y2="8938.5"/>
			<line id="선_836" class="st4" x1="-15152.2" y1="8931.7" x2="-15154.8" y2="8930.2"/>
			<line id="선_837" class="st4" x1="-15152.2" y1="8931.7" x2="-15154.8" y2="8930.2"/>
			<line id="선_838" class="st4" x1="-15149.1" y1="8920" x2="-15152.1" y2="8920"/>
			<line id="선_839" class="st4" x1="-15149.1" y1="8920" x2="-15152.1" y2="8920"/>
			<line id="선_840" class="st4" x1="-15152.2" y1="8908.3" x2="-15154.8" y2="8909.8"/>
			<line id="선_841" class="st4" x1="-15152.2" y1="8908.3" x2="-15154.8" y2="8909.8"/>
			<line id="선_842" class="st4" x1="-15160.8" y1="8899.7" x2="-15162.3" y2="8902.3"/>
			<line id="선_843" class="st4" x1="-15160.8" y1="8899.7" x2="-15162.3" y2="8902.3"/>
			<path id="패스_52160" class="st5" d="M-15142.9,8920c0,16.4-13.3,29.6-29.6,29.6c-16.4,0-29.6-13.3-29.6-29.6
				c0-16.4,13.3-29.6,29.6-29.6c0,0,0,0,0,0C-15156.1,8890.4-15142.9,8903.7-15142.9,8920C-15142.9,8920-15142.9,8920-15142.9,8920"
				/>
			<path id="패스_52161-2" class="st6" d="M-15149.1,8920c0,12.9-10.5,23.4-23.4,23.4c-12.9,0-23.4-10.5-23.4-23.4
				c0-12.9,10.5-23.4,23.4-23.4l0,0C-15159.6,8896.6-15149.1,8907.1-15149.1,8920"/>
			<ellipse id="타원_808-2" class="st7" cx="-15172.5" cy="8920" rx="23.4" ry="23.4"/>
			<path id="패스_52162-2" class="st8" d="M-15170.6,8911.8c0,4.6-0.9,8.3-1.9,8.3c-1,0-1.8-3.7-1.8-8.3c0-4.6,0.9-8.3,1.9-8.3
				C-15171.4,8903.5-15170.6,8907.2-15170.6,8911.8"/>
			<g id="패스_52163-2" transform="translate(-15199.03 8891.45)">
				<path class="st9" d="M26.5,29.3L26.5,29.3L26.5,29.3c-1.2,0-1.7-1.7-2-3c-0.3-1.6-0.5-3.8-0.5-6c0-2.3,0.2-4.4,0.6-6
					c0.5-2,1.1-3,2-3h0l0,0c1.2,0,1.7,1.7,2,3c0.3,1.6,0.5,3.8,0.5,6c0,2.3-0.2,4.4-0.6,6C28.1,28.4,27.4,29.3,26.5,29.3z"/>
				<path d="M26.5,28.6c1,0,1.8-3.7,1.9-8.3c0-4.6-0.7-8.3-1.8-8.3c-1,0-1.8,3.7-1.9,8.3C24.7,24.9,25.5,28.6,26.5,28.6
					C26.5,28.6,26.5,28.6,26.5,28.6 M26.5,30.1C26.5,30.1,26.5,30.1,26.5,30.1c-0.6,0-1.4-0.3-2-1.5c-0.3-0.5-0.5-1.3-0.7-2.1
					c-0.4-1.7-0.5-3.9-0.5-6.2c0-2.3,0.2-4.5,0.6-6.2c0.2-0.9,0.4-1.6,0.7-2.1c0.6-1.2,1.5-1.5,2-1.5c0,0,0,0,0,0
					c0.6,0,1.4,0.3,2,1.5c0.3,0.5,0.5,1.3,0.7,2.1c0.4,1.7,0.5,3.9,0.5,6.2c0,2.3-0.2,4.5-0.6,6.2c-0.2,0.9-0.4,1.6-0.7,2.1
					C27.9,29.8,27.1,30.1,26.5,30.1z"/>
			</g>
			<g id="패스_52165-2" transform="translate(-15172.681 8923.081) rotate(-45)">
				<path class="st9" d="M1.7,12.9L1.7,12.9c-0.9,0-1.5-0.8-2-2.3C-0.6,9.3-0.8,7.7-0.7,6c0-1.7,0.2-3.3,0.6-4.5
					C0.3,0,1-0.8,1.9-0.8l0,0c0.9,0,1.5,0.8,2,2.3c0.3,1.2,0.5,2.8,0.5,4.5c0,1.7-0.2,3.3-0.6,4.5C3.3,12.1,2.6,12.9,1.7,12.9z"/>
				<path d="M1.9,0C0.9,0,0,2.7,0,6.1c0,3.4,0.7,6.1,1.7,6.1c1,0,1.8-2.7,1.9-6.1C3.7,2.7,2.9,0,1.9,0C1.9,0,1.9,0,1.9,0 M1.9-1.5
					L1.9-1.5c0.9,0,2,0.5,2.7,2.9c0.4,1.3,0.6,3,0.5,4.7c0,1.8-0.3,3.4-0.7,4.7c-0.2,0.7-0.5,1.3-0.8,1.7c-0.7,1-1.5,1.1-1.9,1.1
					l0,0c-0.8,0-2-0.5-2.7-2.9c-0.4-1.3-0.6-3-0.5-4.7c0-1.8,0.3-3.4,0.7-4.7C-0.6,0.6-0.4,0,0-0.4C0.7-1.4,1.5-1.5,1.9-1.5z"/>
			</g>
			<path id="패스_52167-2" class="st10" d="M-15169.3,8920c0,1.8-1.4,3.2-3.2,3.2c-1.8,0-3.2-1.4-3.2-3.2c0-1.8,1.4-3.2,3.2-3.2
				C-15170.7,8916.8-15169.3,8918.2-15169.3,8920z"/>
			<line id="선_820-2" class="st0" x1="-15172.5" y1="8896.6" x2="-15172.5" y2="8899.6"/>
			<line id="선_821-2" class="st7" x1="-15172.5" y1="8896.6" x2="-15172.5" y2="8899.6"/>
			<line id="선_822-2" class="st0" x1="-15184.2" y1="8899.7" x2="-15182.7" y2="8902.3"/>
			<line id="선_824-2" class="st0" x1="-15192.8" y1="8908.3" x2="-15190.2" y2="8909.8"/>
			<line id="선_826-2" class="st0" x1="-15195.9" y1="8920" x2="-15193" y2="8920"/>
			<line id="선_827-2" class="st7" x1="-15195.9" y1="8920" x2="-15193" y2="8920"/>
			<line id="선_828-2" class="st0" x1="-15192.8" y1="8931.7" x2="-15190.2" y2="8930.2"/>
			<line id="선_830-2" class="st0" x1="-15185.3" y1="8941.3" x2="-15183.7" y2="8938.5"/>
			<line id="선_831-2" class="st11" x1="-15185.3" y1="8941.3" x2="-15183.7" y2="8938.5"/>
			<line id="선_832-2" class="st0" x1="-15172.5" y1="8944.7" x2="-15172.5" y2="8941.5"/>
			<line id="선_833-2" class="st11" x1="-15172.5" y1="8944.7" x2="-15172.5" y2="8941.5"/>
			<line id="선_834-2" class="st0" x1="-15159.7" y1="8941.3" x2="-15161.4" y2="8938.5"/>
			<line id="선_835-2" class="st11" x1="-15159.7" y1="8941.3" x2="-15161.4" y2="8938.5"/>
			<line id="선_836-2" class="st0" x1="-15152.2" y1="8931.7" x2="-15154.8" y2="8930.2"/>
			<line id="선_838-2" class="st0" x1="-15149.1" y1="8920" x2="-15152.1" y2="8920"/>
			<line id="선_839-2" class="st7" x1="-15149.1" y1="8920" x2="-15152.1" y2="8920"/>
			<line id="선_840-2" class="st0" x1="-15152.2" y1="8908.3" x2="-15154.8" y2="8909.8"/>
			<line id="선_842-2" class="st0" x1="-15160.8" y1="8899.7" x2="-15162.3" y2="8902.3"/>
			<g id="사각형_22447" transform="translate(-15280.133 8934.809)">
				<path class="st6" d="M22.6,0H192c12.5,0,22.6,10.1,22.6,22.6l0,0c0,12.5-10.1,22.6-22.6,22.6H22.6C10.1,45.1,0,35,0,22.6l0,0
					C0,10.1,10.1,0,22.6,0z"/>
				<path class="st12" d="M22.6,0.8H192c12,0,21.8,9.8,21.8,21.8l0,0c0,12-9.8,21.8-21.8,21.8H22.6c-12,0-21.8-9.8-21.8-21.8l0,0
					C0.7,10.5,10.5,0.8,22.6,0.8z"/>
			</g>
			<g transform="matrix(1, 0, 0, 1, -15289, 8878.81)" class="st13">
				<g id="패스_52179-2_00000129886919045241922310000013009698302690973609_" transform="translate(115.87 85.89)">
					<path class="st8" d="M43.5,3.7c-2.3,0-4.3-0.6-5.8-1.6C36,0.9,35.1-0.7,35-2.6l0-0.8h0.8h4.8h0.5c-1.7-0.3-3-0.8-3.9-1.5
						c-1.4-1-2.1-2.4-2.1-4.2c0-1.8,0.9-3.3,2.5-4.4c1.5-1,3.5-1.5,5.7-1.5c4.7,0,8.1,2.5,8.3,6l0,0.8h-0.8h-4.8h-0.2
						c2,0.4,3.3,1,4.3,1.8c1.2,1,1.8,2.3,1.8,4c0,1.8-0.9,3.5-2.6,4.6C47.8,3.2,45.7,3.7,43.5,3.7z M41.2-3.3l0.1,0.6
						c0.1,0.7,1,1.1,2.2,1.1c1.3,0,2-0.4,2-0.6c0,0-0.1-0.2-0.7-0.4c-0.6-0.2-1.4-0.4-2.6-0.6C41.9-3.2,41.5-3.3,41.2-3.3z
						 M44.7-8.4c0.2,0,0.5,0.1,0.7,0.1l-0.1-0.5c-0.1-0.6-0.9-1-2-1c-1.3,0-1.8,0.4-1.9,0.5c0,0,0,0,0,0c0,0,0,0,0,0
						c0,0,0.1,0.2,0.7,0.4C42.7-8.7,43.5-8.6,44.7-8.4z M-17.7,3.7c-5.5,0-9.5-3.9-9.5-9.4s4-9.4,9.5-9.4s9.5,3.9,9.5,9.4
						S-12.2,3.7-17.7,3.7z M-17.7-9.2c-1.9,0-3.2,1.4-3.2,3.6c0,2.2,1.3,3.6,3.2,3.6c1.9,0,3.2-1.4,3.2-3.6
						C-14.5-7.8-15.8-9.2-17.7-9.2z M33.8,3.4H33h-5h-0.8V2.6v-16.5v-0.8H28h5h0.8v0.8V2.6V3.4z M13.5,3.3h-0.5h-5H7.4L7.2,2.8
						L4.9-4.3L2.7,2.8L2.5,3.3H2h-5h-0.5l-0.2-0.5l-5.5-16.5l-0.3-1h1h5.3h0.6l0.2,0.6l2.2,7.9l2.1-7.9L2-14.6h0.6h5.1h0.6l0.2,0.6
						l2.2,8l2.2-8l0.2-0.6h0.6h5h1l-0.3,1L13.7,2.8L13.5,3.3z M-44.1,3.3h-0.8H-50h-0.8V2.6v-22.9V-21h0.8h4.3h0.4l0.2,0.3L-35-8.6
						v-12v-0.8h0.8h5.1h0.8v0.8V2.3v0.8h-0.8h-4.3h-0.4L-34,2.8L-44.1-9.4v12V3.3z M30.5-14.9c-1.1,0-2-0.4-2.7-1.1
						c-0.7-0.7-1.1-1.7-1.1-2.7c0-1.1,0.4-2,1.1-2.7c0.7-0.7,1.7-1.1,2.7-1.1c1.1,0,2,0.4,2.7,1.1s1.1,1.7,1.1,2.7
						c0,1.1-0.4,2-1.1,2.7C32.5-15.3,31.6-14.9,30.5-14.9z"/>
					<path d="M43.5,3c4.2,0,7.7-2.1,7.7-5.4c0-2.8-1.7-4.4-6.6-5.2c-2.8-0.4-3.9-0.8-3.9-1.7c0-0.7,1.1-1.3,2.6-1.3
						c1.5,0,2.6,0.6,2.8,1.6h4.8c-0.2-3.3-3.4-5.3-7.5-5.3c-4.2,0-7.5,2-7.5,5.2c0,3.3,2.6,4.5,6.5,5.1c2.8,0.4,4,0.9,4,1.7
						c0,0.8-1.2,1.3-2.8,1.3c-1.6,0-2.8-0.7-3-1.8h-4.8C35.9,0.8,39.2,3,43.5,3 M-17.7,3c5.1,0,8.7-3.6,8.7-8.6s-3.6-8.6-8.7-8.6
						c-5.1,0-8.7,3.6-8.7,8.6S-22.7,3-17.7,3 M-17.7-10c2.4,0,3.9,1.8,3.9,4.4s-1.5,4.4-3.9,4.4c-2.4,0-3.9-1.8-3.9-4.4
						S-20-10-17.7-10 M33,2.6v-16.5h-5V2.6H33 M12.9,2.6l5.5-16.5h-5L10.6-3.2L7.7-13.9H2.6L-0.3-3.3l-2.9-10.6h-5.3L-3,2.6h5
						l2.9-9.4l3,9.4H12.9 M-44.9,2.6v-14l11.4,13.8h4.3v-22.9h-5.1v14l-11.4-13.8H-50V2.6H-44.9 M30.5-15.7c1.8,0,3.1-1.3,3.1-3.1
						c0-1.8-1.3-3.1-3.1-3.1c-1.8,0-3.1,1.3-3.1,3.1C27.5-17,28.8-15.7,30.5-15.7 M43.5,4.5c-2.5,0-4.6-0.6-6.3-1.8
						c-1.3-0.9-2.2-2.2-2.7-3.6v3.6c0,0.8-0.7,1.5-1.5,1.5h-5c-0.8,0-1.5-0.7-1.5-1.5v-16.5c0-0.6,0.4-1.2,1-1.4
						c-1-0.8-1.5-2.1-1.5-3.5c0-2.6,2-4.6,4.6-4.6s4.6,2,4.6,4.6c0,1.4-0.6,2.7-1.5,3.5c0.6,0.2,1,0.8,1,1.4v3.4
						c0.4-1.5,1.3-2.7,2.7-3.7c1.6-1.1,3.8-1.7,6.2-1.7c5.1,0,8.8,2.8,9,6.7c0,0.4-0.1,0.8-0.4,1.1c-0.3,0.3-0.7,0.5-1.1,0.5h-0.8
						c0.2,0.1,0.4,0.3,0.6,0.4c1.3,1.1,2,2.6,2,4.5C52.7,1.6,48.8,4.5,43.5,4.5z M34.5-7.5v4c0-0.1,0.1-0.1,0.1-0.2
						c0.3-0.3,0.7-0.5,1.1-0.5h1.2c0,0-0.1-0.1-0.1-0.1C35.6-5,34.8-6.1,34.5-7.5z M-17.7,4.5c-2.9,0-5.5-1-7.3-2.9
						c-1.4-1.4-2.3-3.1-2.7-5v5.7c0,0.8-0.7,1.5-1.5,1.5h-4.3c-0.4,0-0.9-0.2-1.2-0.5l-8.8-10.6v9.9c0,0.8-0.7,1.5-1.5,1.5H-50
						c-0.8,0-1.5-0.7-1.5-1.5v-22.9c0-0.8,0.7-1.5,1.5-1.5h4.3c0.4,0,0.9,0.2,1.2,0.5l8.8,10.6v-9.9c0-0.8,0.7-1.5,1.5-1.5h5.1
						c0.8,0,1.5,0.7,1.5,1.5v12.7c0.4-1.9,1.3-3.7,2.7-5c1.9-1.8,4.5-2.9,7.3-2.9c2.9,0,5.5,1,7.3,2.9c0.3,0.3,0.6,0.7,0.9,1.1
						l-0.5-1.6c-0.2-0.5-0.1-1,0.2-1.4c0.3-0.4,0.7-0.6,1.2-0.6h5.3c0.7,0,1.3,0.5,1.4,1.1L-0.3-9l1.4-5.3c0.2-0.7,0.8-1.1,1.4-1.1
						h5.1c0.7,0,1.3,0.5,1.4,1.1l1.5,5.3l1.5-5.3c0.2-0.7,0.8-1.1,1.4-1.1h5c0.5,0,0.9,0.2,1.2,0.6c0.3,0.4,0.4,0.9,0.2,1.4
						L14.4,3.1c-0.2,0.6-0.8,1-1.4,1h-5c-0.7,0-1.2-0.4-1.4-1L5-1.8L3.4,3C3.2,3.7,2.7,4.1,2,4.1h-5c-0.6,0-1.2-0.4-1.4-1l-3-9
						c0,0.1,0,0.2,0,0.3c0,2.8-1,5.4-2.9,7.2C-12.2,3.5-14.8,4.5-17.7,4.5z M-17.7-8.5c-1.8,0-2.4,1.5-2.4,2.9s0.6,2.9,2.4,2.9
						c1.8,0,2.4-1.5,2.4-2.9S-15.9-8.5-17.7-8.5z"/>
				</g>
			</g>
			<path id="패스_52180" d="M-15240.8,8965.4c-0.8-4.1-2.9-7.4-5.6-8.7c2.7-1.3,4.8-4.5,5.7-8.6c0.8,4.1,2.9,7.4,5.6,8.7
				C-15237.8,8958.1-15239.9,8961.3-15240.8,8965.4"/>
			<path id="패스_52181" d="M-15104.3,8965.4c-0.8-4.1-2.9-7.4-5.6-8.7c2.7-1.3,4.8-4.5,5.7-8.6c0.8,4.1,2.9,7.4,5.6,8.7
				C-15101.3,8958.1-15103.4,8961.3-15104.3,8965.4"/>
			<path id="패스_52182" d="M-15089.1,8962.1c-0.5-2.5-1.8-4.5-3.5-5.3c1.7-0.8,3-2.8,3.5-5.3c0.5,2.5,1.8,4.5,3.5,5.3
				C-15087.3,8957.6-15088.6,8959.6-15089.1,8962.1"/>
			<path id="패스_52183" d="M-15255.9,8962.1c-0.5-2.5-1.8-4.5-3.5-5.3c1.7-0.8,3-2.8,3.5-5.3c0.5,2.5,1.8,4.5,3.5,5.3
				C-15254.1,8957.6-15255.4,8959.6-15255.9,8962.1"/>
		</g>
	</g>
</g>
<g id="레이어_4" class="rot">
	<g id="그룹_116355" transform="translate(-15203.947 8887.808)">
		<path id="패스_52195" class="st14" d="M15292.4-8875.4c-4.5,4.5-4.6,11.8-0.2,16.4l16.6-16.6
			C15304.2-8880,15296.9-8879.9,15292.4-8875.4z"/>
		<path id="패스_52237" class="st14" d="M15348.6-8875.4c-4.5-4.5-11.8-4.6-16.4-0.2l16.6,16.6
			C15353.2-8863.6,15353.1-8870.9,15348.6-8875.4z"/>
	</g>
</g>
<g id="레이어_2" class="star s1">
	<g>
		<path id="패스_52249" class="st15" d="M54.1,7.2l14,8.7c0.6,0.4,0.8,1.2,0.4,1.8c-0.2,0.3-0.4,0.5-0.8,0.6l-3,0.8l7.1,10.1
			c0.4,0.5,0.2,1.2-0.3,1.5c-0.4,0.3-0.8,0.3-1.2,0l-14-8.7c-0.6-0.4-0.8-1.2-0.4-1.8c0.2-0.3,0.4-0.5,0.8-0.6l3-0.8L52.6,8.8
			c-0.4-0.5-0.2-1.2,0.3-1.5C53.2,7,53.7,7,54.1,7.2z"/>
	</g>
</g>
<g id="레이어_3" class="star s2">
	<path id="패스_52248" class="st15" d="M179,7.2l-14,8.7c-0.6,0.4-0.8,1.2-0.4,1.8c0.2,0.3,0.4,0.5,0.8,0.6l3,0.8l-7.1,10.1
		c-0.4,0.5-0.2,1.2,0.3,1.5c0.4,0.3,0.8,0.3,1.2,0l14-8.7c0.6-0.4,0.8-1.2,0.4-1.8c-0.2-0.3-0.4-0.5-0.8-0.6l-3-0.8l7.1-10.1
		c0.4-0.5,0.2-1.2-0.3-1.5C179.9,7,179.4,7,179,7.2z"/>
</g>
</svg>
