<svg xmlns="http://www.w3.org/2000/svg" width="38" height="38" viewBox="0 0 38 38">
  <g id="Group_115787" data-name="Group 115787" transform="translate(16999.055 8458.879)">
    <rect id="Rectangle_21783" data-name="Rectangle 21783" width="38" height="38" transform="translate(-16999.055 -8458.879)" fill="none"/>
    <g id="Group_115781" data-name="Group 115781" transform="translate(-16994.648 -8454.468)">
      <g id="Group_115782" data-name="Group 115782">
        <path id="Path_51941" data-name="Path 51941" d="M6.855,26.614C3.411,26.614.5,21.157.5,14.7S3.411,2.783,6.855,2.783,13.21,8.24,13.21,14.7,10.3,26.614,6.855,26.614" transform="translate(-0.085 1.639)" fill="#fff" stroke="#000" stroke-width="1.8"/>
        <path id="Path_51943" data-name="Path 51943" d="M4.712,16.727a3.972,3.972,0,1,1,3.972-3.972,3.977,3.977,0,0,1-3.972,3.972" transform="translate(0.056 5.171)" fill="#82540f"/>
        <path id="Path_51944" data-name="Path 51944" d="M5.005,9.873A3.178,3.178,0,1,1,1.828,13.05,3.181,3.181,0,0,1,5.005,9.873m0-1.589A4.766,4.766,0,1,0,9.772,13.05,4.766,4.766,0,0,0,5.005,8.284" transform="translate(-0.239 4.877)"/>
        <line id="Line_913" data-name="Line 913" y2="4.766" transform="translate(6.77)" fill="none" stroke="#000" stroke-miterlimit="10" stroke-width="1.8"/>
        <line id="Line_914" data-name="Line 914" x2="2.383" y2="4.128" transform="translate(1.75 1.564)" fill="none" stroke="#000" stroke-miterlimit="10" stroke-width="1.8"/>
        <line id="Line_915" data-name="Line 915" x1="2.383" y2="4.128" transform="translate(9.406 1.564)" fill="none" stroke="#000" stroke-miterlimit="10" stroke-width="1.8"/>
        <path id="Path_51951" data-name="Path 51951" d="M2.742,12.787a2,2,0,1,1,2-2,2,2,0,0,1-2,2" transform="translate(2.026 7.141)"/>
        <path id="Path_51949" data-name="Path 51949" d="M3.239,10.524a1.24,1.24,0,1,0,1.24-1.24,1.241,1.241,0,0,0-1.24,1.24" transform="translate(1.876 7.403)" fill="#fff"/>
      </g>
      <g id="Group_115783" data-name="Group 115783" transform="translate(15.888)">
        <path id="Path_51941-2" data-name="Path 51941" d="M6.855,26.614C3.411,26.614.5,21.157.5,14.7S3.411,2.783,6.855,2.783,13.21,8.24,13.21,14.7,10.3,26.614,6.855,26.614" transform="translate(-0.085 1.639)" fill="#fff" stroke="#000" stroke-width="1.8"/>
        <path id="Path_51943-2" data-name="Path 51943" d="M4.712,16.727a3.972,3.972,0,1,1,3.972-3.972,3.977,3.977,0,0,1-3.972,3.972" transform="translate(0.056 5.171)" fill="#82540f"/>
        <path id="Path_51944-2" data-name="Path 51944" d="M5.005,9.873A3.178,3.178,0,1,1,1.828,13.05,3.181,3.181,0,0,1,5.005,9.873m0-1.589A4.766,4.766,0,1,0,9.772,13.05,4.766,4.766,0,0,0,5.005,8.284" transform="translate(-0.239 4.877)"/>
        <line id="Line_913-2" data-name="Line 913" y2="4.766" transform="translate(6.77)" fill="none" stroke="#000" stroke-miterlimit="10" stroke-width="1.8"/>
        <line id="Line_914-2" data-name="Line 914" x2="2.383" y2="4.128" transform="translate(1.75 1.564)" fill="none" stroke="#000" stroke-miterlimit="10" stroke-width="1.8"/>
        <line id="Line_915-2" data-name="Line 915" x1="2.383" y2="4.128" transform="translate(9.406 1.564)" fill="none" stroke="#000" stroke-miterlimit="10" stroke-width="1.8"/>
        <path id="Path_51951-2" data-name="Path 51951" d="M2.742,12.787a2,2,0,1,1,2-2,2,2,0,0,1-2,2" transform="translate(2.026 7.141)"/>
        <path id="Path_51949-2" data-name="Path 51949" d="M3.239,10.524a1.24,1.24,0,1,0,1.24-1.24,1.241,1.241,0,0,0-1.24,1.24" transform="translate(1.876 7.403)" fill="#fff"/>
      </g>
    </g>
  </g>
</svg>
