<?xml version="1.0" encoding="utf-8"?>
<!-- Generator: Adobe Illustrator 26.2.1, SVG Export Plug-In . SVG Version: 6.00 Build 0)  -->
<svg version="1.1" id="Layer_3" xmlns="http://www.w3.org/2000/svg" xmlns:xlink="http://www.w3.org/1999/xlink" x="0px" y="0px"  viewBox="0 0 100 62" style="enable-background:new 0 0 100 62;" xml:space="preserve">
<style type="text/css">
.st0{fill:#fff;}
.st1 {fill:none;stroke:#C4B2FF;stroke-width:3.5;stroke-linecap:round;stroke-linejoin:round;stroke-miterlimit:5;animation:brush both infinite linear 3s;stroke-dasharray:500;stroke-dashoffset:500;}	
@keyframes brush {
0% {stroke-dashoffset:500;}
30% {stroke-dashoffset:0;}
100% {stroke-dashoffset:0;}
}
</style>
<g id="Layer_1" mask="url(#mask)">
	<path class="st0" d="M59.2,47.5c-14,5.8-30.4,8.4-44.8,2.8C6,47.5,0.9,39.1,0.5,30.5c-0.1-2.1,0.1-5.1,0.4-7.2c0,0,0.8-3.5,0.8-3.5
		C3.5,13.9,8.4,9.4,13.6,6.4C22,1.6,31.8,0.8,41.2,0.1C55.3-0.5,70-0.3,83.1,5.4c5.3,2.4,10.3,6.3,12.9,11.7c2.3,5.9,1.8,13-2,18.1
		c0,0-0.5,0.8-0.5,0.8c-0.7,0.7-1.2,1.5-1.9,2.1C87.1,42,82.2,45.3,77,48.3c-9.3,5.2-19.5,8.9-30.1,10.1
		c-10.5,1.4-21.8,1.8-31.7-2.5c-6.9-3-10.7-10-13.2-16.7c-6-17,4.2-27.5,19.6-33c15.5-5.9,33-7.2,48.8-1.8
		c10.9,3.7,23.3,9.5,28.3,20.5c2.4,5.3,0.9,11.3-3.2,14.9c-5,4.1-11.1,6.6-16.6,9.9C73,53,67.1,56.4,61.3,60.2
		c5.6-3.9,11.4-7.6,17.2-11.1c2.9-1.8,5.9-3.5,8.8-5.2c2.8-1.7,5.9-3.4,8.1-5.9c8.4-10.2-4.2-21.5-12.9-26.2
		C72.4,6.2,61,2.9,49.4,2.9C39.1,3,28.6,5.2,19.1,9.4C2.5,16-2.2,29,6.7,44.7C12.2,55.9,25,57.5,36.3,57.3
		c9.2-0.3,18.5-1.7,27.2-4.9c8.7-3.2,16.8-7.9,24.1-13.5c1.6-1.2,3.1-2.5,4.3-4c2.9-3.7,4.1-8.6,3.3-13.3c-0.2-1.2-0.5-2.4-1-3.5
		c-0.5-0.8-0.9-1.8-1.5-2.5C82.7,1.5,57,1.4,41.3,2.1c-9.1,0.6-18.7,1.4-26.7,6c-4.8,2.8-9.3,6.9-11,12.2C1,30.2,2.8,41.5,11.8,47.4
		C26.4,55.1,44.2,53.1,59.2,47.5L59.2,47.5z"/>
</g>
<mask id="mask">
	<path class="st1" d="M59.2,47.5c0,0-26.6,11.8-47.7,0.7c0,0-14.3-7.6-8.8-28.5c0,0,4.2-14.8,28.3-17.6c0,0,53.2-7.7,64.1,15.5
	c0,0,4.8,10.8-3.9,19.5c0,0-19,17.7-44.8,20.3c0,0-28.2,4.8-37.8-7.9c0,0-22.2-28,10.5-41.2c0,0,23.7-11.2,47.7-3.9
	c0,0,15.5,3.7,25,12.8c0,0,13.1,11.1,4.2,21.2c0,0-1.1,1.7-7,5.2c0,0-17.1,9.4-27.7,16.7"/>
</mask>
</svg>