<?xml version="1.0" encoding="utf-8"?>
<!-- Generator: Adobe Illustrator 26.2.1, SVG Export Plug-In . SVG Version: 6.00 Build 0)  -->
<svg version="1.1" xmlns="http://www.w3.org/2000/svg" xmlns:xlink="http://www.w3.org/1999/xlink" x="0px" y="0px" viewBox="0 0 232 103" style="enable-background:new 0 0 232 103;" xml:space="preserve">
<style type="text/css">
.st0{fill:#7582F0;}
.st1{fill:none;stroke:#080D4B;stroke-width:2;stroke-linecap:round;stroke-linejoin:round;}
.st2{fill:none;stroke:#000000;stroke-width:2.0008;stroke-miterlimit:4.0016;}
.st3{enable-background:new    ;}
.st4{fill:#FFFFFF;}
.st5{fill:none;stroke:#000000;}
.st6{fill:none;stroke:#000000;stroke-width:2;stroke-linecap:round;stroke-miterlimit:4;}
.st7{fill:none;stroke:#000000;stroke-width:2;stroke-linecap:round;stroke-linejoin:round;}
.st8{stroke:#000000;stroke-width:1.2;}
.st9{fill:none;stroke:#000000;stroke-width:1.2;stroke-linecap:round;stroke-linejoin:round;}
.st10{fill:#FF9F00;stroke:#000000;stroke-width:1.2;}
.st11{fill:#FEC211;}
.st12{fill:#707070;}
.st13{fill:none;}
.st14{fill:#080D4B;}
.st15{fill:#F15E22;}
	

.bump {transform-origin:74% 81%;animation:bump both linear infinite 2s;}
@keyframes bump {
0% {transform:scale(1.05) rotate(-30deg);}
50% {transform:scale(0.98) rotate(0deg);}
100% {transform:scale(1.05) rotate(-30deg);}
}

.bump_a {transform-origin:84% 64.5%;animation:bump_a both linear infinite 1.0s;}
@keyframes bump_a {
0% {transform:scale(0.6) translate(-4px, 2px) rotate(0);}
50% {transform:scale(0.9) translate(-4px, 2px) rotate(0deg);}
100% {transform:scale(0.6) translate(-4px,2px) rotate(0deg);}
}

.star {position:relative;animation:star both infinite 4s;}
.star.s1 {transform-origin:5% 42%;}
.star.s2 {transform-origin:94% 37%;animation-delay:0.5s;}
@keyframes star {
0% {transform:scale(0.6);opacity:1;}	
20% {transform:scale(1.1);opacity:1;}
40% {transform:scale(0.8);}	
58% {transform:scale(1);}
100% {transform:scale(1);}
}
</style>
<g id="bg">
	<g id="Group_110109" transform="translate(0.419 11.355)">
		<path id="Path_37140" class="st0" d="M212.4,31.2c2.1-3.8,3.1-8.2,2.9-12.6c-0.8-16.3-19-28.7-40.6-27.6
			c-13.9,0.7-25.8,6.9-32.3,15.5c-6.7-6.1-17.1-9.8-28.5-9.2C108-2.4,102.3-1,97.1,1.5C90.6-4.1,81.6-8,71-9.1
			c-2.8-0.3-5.6-0.3-8.4-0.2C39-8,20.7,7.5,21.6,25.4c0,0.5,0.1,1,0.1,1.6c-9.2,5.6-15,14.3-14.5,23.8C8.1,66.3,25.3,78,45.8,77
			c1.8-0.1,3.6-0.3,5.3-0.6c4.9,8,16,13.3,28.5,12.6c10.8-0.6,20.1-5.4,25-12.2c6.1,1.7,12.4,2.4,18.7,2.1
			c9.3-0.4,18.4-3.2,26.4-8.1c5.4,5.6,14.4,9,24.3,8.5c14-0.7,25.2-9,27.1-19.2c1.9,0.3,3.9,0.5,5.9,0.4
			c10.8-0.6,19.3-7.7,18.8-15.9C225.4,38.1,219.9,33,212.4,31.2"/>
		<path id="Path_37141" class="st1" d="M212.4,31.2c2.1-3.8,3.1-8.2,2.9-12.6c-0.8-16.3-19-28.7-40.6-27.6
			c-13.9,0.7-25.8,6.9-32.3,15.5c-6.7-6.1-17.1-9.8-28.5-9.2C108-2.4,102.3-1,97.1,1.5C88.9-5.7,76.4-10,62.6-9.3
			C39-8,20.7,7.5,21.6,25.4c0,0.5,0.1,1,0.1,1.6c-9.2,5.6-15,14.3-14.5,23.8C8.1,66.3,25.3,78,45.8,77c1.8-0.1,3.6-0.3,5.3-0.6
			c4.9,8,16,13.3,28.5,12.6c10.8-0.6,20.1-5.4,25-12.2c6.1,1.7,12.4,2.4,18.7,2.1c9.3-0.4,18.4-3.2,26.4-8.1
			c5.4,5.6,14.4,9,24.3,8.5c14-0.7,25.2-9,27.1-19.2c1.9,0.3,3.9,0.5,5.9,0.4c10.8-0.6,19.3-7.7,18.8-15.9
			C225.4,38.1,219.9,33,212.4,31.2z"/>
	</g>
	<ellipse transform="matrix(0.9975 -6.997181e-02 6.997181e-02 0.9975 -5.6322 8.0012)" cx="111.4" cy="84.4" rx="60.1" ry="17.7"/>
	
		<ellipse transform="matrix(0.9975 -6.997181e-02 6.997181e-02 0.9975 -5.6322 8.0012)" class="st2" cx="111.4" cy="84.4" rx="59.1" ry="16.7"/>
	<g class="st3">
		<path d="M68.9,52v4.7H43V52h10.4v-3.6c-5.7-0.7-9.4-3.8-9.4-8.1c0-4.9,4.8-8.2,12-8.2c7.1,0,12,3.4,12,8.2c0,4.3-3.7,7.4-9.4,8.1
			V52H68.9z M56,44c3.9,0,6.6-1.5,6.6-3.7c0-2.2-2.7-3.7-6.6-3.7c-3.9,0-6.6,1.5-6.6,3.7C49.4,42.5,52.1,44,56,44z"/>
		<path d="M97.8,45.6H71.9v-3.7h25.9V45.6z M96.3,53.5H78.3v1h18.2v3.2H73.4v-6.9h17.9v-0.9h-18v-3.2h22.9V53.5z M78.5,37h18.1v3.8
			H73.4v-8.9h5V37z"/>
		<path d="M116.9,46.9h-15.6V32.3h15.6V46.9z M107.3,53.1h17.8v4.6h-23v-9h5.2V53.1z M111.9,36.6h-5.6v6h5.6V36.6z M127.8,37.1V42
			h-3V51h-5.1V32h5.1v5.1H127.8z"/>
		<path d="M163.9,45.2v3.9H138v-3.9H163.9z M139.4,50.2h23v7.7h-5.1v-3.8h-17.9V50.2z M162.6,44.1h-23.1V32h22.8v3.4h-17.8v1.2h17.3
			v3h-17.3v1.2h18.1V44.1z"/>
		<path d="M167.6,32.6H182v6.9c0,10.4-5.6,16.9-14.5,16.9v-4.8c6.2-0.1,9.3-4.6,9.3-12.1v-2.3h-9.3V32.6z M193.9,46.3h-3v11.3h-5.1
			V32h5.1v9.4h3V46.3z"/>
	</g>
	<g>
		<g class="st3">
			<path class="st4" d="M66.9,49.5v4.7H40.9v-4.7h10.4v-3.6c-5.7-0.7-9.4-3.8-9.4-8.1c0-4.9,4.8-8.2,12-8.2c7.1,0,12,3.4,12,8.2
				c0,4.3-3.7,7.4-9.4,8.1v3.6H66.9z M53.9,41.5c3.9,0,6.6-1.5,6.6-3.7c0-2.2-2.7-3.7-6.6-3.7c-3.9,0-6.6,1.5-6.6,3.7
				C47.3,40,50,41.5,53.9,41.5z"/>
			<path class="st4" d="M95.7,43.1H69.8v-3.7h25.9V43.1z M94.2,50.9H76.3v1h18.2v3.2H71.3v-6.9h17.9v-0.9h-18v-3.2h22.9V50.9z
				 M76.4,34.5h18.1v3.8H71.4v-8.9h5V34.5z"/>
			<path class="st4" d="M114.9,44.4H99.2V29.8h15.6V44.4z M105.3,50.6h17.8v4.6h-23v-9h5.2V50.6z M109.9,34.1h-5.6v6h5.6V34.1z
				 M125.7,34.6v4.9h-3v8.9h-5.1v-19h5.1v5.1H125.7z"/>
			<path class="st4" d="M161.8,42.7v3.9h-25.9v-3.9H161.8z M137.3,47.7h23v7.7h-5.1v-3.8h-17.9V47.7z M160.6,41.6h-23.1V29.5h22.8
				v3.4h-17.8v1.2h17.3v3h-17.3v1.2h18.1V41.6z"/>
			<path class="st4" d="M165.5,30.1H180V37c0,10.4-5.6,16.9-14.5,16.9v-4.8c6.2-0.1,9.3-4.6,9.3-12.1v-2.3h-9.3V30.1z M191.8,43.8
				h-3v11.3h-5.1V29.5h5.1v9.4h3V43.8z"/>
		</g>
		<g class="st3">
			<path class="st5" d="M66.9,49.5v4.7H40.9v-4.7h10.4v-3.6c-5.7-0.7-9.4-3.8-9.4-8.1c0-4.9,4.8-8.2,12-8.2c7.1,0,12,3.4,12,8.2
				c0,4.3-3.7,7.4-9.4,8.1v3.6H66.9z M53.9,41.5c3.9,0,6.6-1.5,6.6-3.7c0-2.2-2.7-3.7-6.6-3.7c-3.9,0-6.6,1.5-6.6,3.7
				C47.3,40,50,41.5,53.9,41.5z"/>
			<path class="st5" d="M95.7,43.1H69.8v-3.7h25.9V43.1z M94.2,50.9H76.3v1h18.2v3.2H71.3v-6.9h17.9v-0.9h-18v-3.2h22.9V50.9z
				 M76.4,34.5h18.1v3.8H71.4v-8.9h5V34.5z"/>
			<path class="st5" d="M114.9,44.4H99.2V29.8h15.6V44.4z M105.3,50.6h17.8v4.6h-23v-9h5.2V50.6z M109.9,34.1h-5.6v6h5.6V34.1z
				 M125.7,34.6v4.9h-3v8.9h-5.1v-19h5.1v5.1H125.7z"/>
			<path class="st5" d="M161.8,42.7v3.9h-25.9v-3.9H161.8z M137.3,47.7h23v7.7h-5.1v-3.8h-17.9V47.7z M160.6,41.6h-23.1V29.5h22.8
				v3.4h-17.8v1.2h17.3v3h-17.3v1.2h18.1V41.6z"/>
			<path class="st5" d="M165.5,30.1H180V37c0,10.4-5.6,16.9-14.5,16.9v-4.8c6.2-0.1,9.3-4.6,9.3-12.1v-2.3h-9.3V30.1z M191.8,43.8
				h-3v11.3h-5.1V29.5h5.1v9.4h3V43.8z"/>
		</g>
	</g>
	<g id="Group_109980" transform="matrix(-0.891, -0.454, 0.454, -0.891, 43.917, 27.997)">
		<path id="Path_37094" class="st6" d="M-146,23.5c0,0-3-1.4-2.5,1.5c0.5,2.8-1.3,1.2-2.1,3.8"/>
	</g>
</g>
<g id="bump">
	<g class="bump">
		<path id="Path_37084" class="st4" d="M155,76.4c-3.1,8.5,1.3,18,9.9,21.1c8.5,3.1,18-1.3,21.1-9.9c3.1-8.5-1.3-18-9.9-21.1
			C167.5,63.4,158.1,67.8,155,76.4L155,76.4"/>
		<path id="Path_37085" class="st7" d="M155,76.4c-3.1,8.5,1.3,18,9.9,21.1c8.5,3.1,18-1.3,21.1-9.9c3.1-8.5-1.3-18-9.9-21.1
			C167.5,63.4,158.1,67.8,155,76.4L155,76.4z"/>
		<path id="Path_37086" class="st8" d="M173.5,80.3c-0.4,1.2-0.4,2.4,0.1,2.5c0.5,0.2,1.2-0.7,1.7-1.9c0.4-1.2,0.4-2.4-0.1-2.5
			C174.7,78.2,173.9,79,173.5,80.3"/>
		<path id="Path_37088" class="st8" d="M167.5,78.1c-0.4,1.2-0.4,2.4,0.1,2.5c0.5,0.2,1.2-0.7,1.7-1.9s0.4-2.4-0.1-2.5
			C168.7,76,167.9,76.9,167.5,78.1"/>
		<path id="Path_37090" class="st9" d="M178.5,86.8c-4,4-10.4,4-14.4,0c-1.7-1.7-2.8-3.9-3-6.3"/>
		<path id="Path_37091" class="st9" d="M178.1,85c-0.3,1.2,0.4,2.3,1.6,2.6c0.2,0,0.4,0.1,0.5,0.1"/>
		<path id="Path_37092" class="st9" d="M162.6,79.4c-0.5,1.1-1.8,1.5-2.9,1c-0.2-0.1-0.3-0.2-0.5-0.3"/>
		<path id="Path_37093" class="st10" d="M167.3,83.2c-0.3,1.4,0.7,2.8,2.1,3c1,0.2,2-0.2,2.6-1.1c0.3-1.4-0.7-2.8-2.1-3
			C168.9,82,167.9,82.4,167.3,83.2"/>
	</g>
</g>
<g id="star">
	<g class="star s1">
		<path id="Path_37144" class="st11" d="M12.2,31.9l3.6,5.3l6.3-1.1c0.9-0.2,1.8,0.4,1.9,1.3c0.1,0.5,0,0.9-0.3,1.3l-4,5.1l3,5.7
			c0.4,0.8,0.1,1.8-0.7,2.2c-0.4,0.2-0.9,0.3-1.3,0.1l-6.1-2.2l-4.4,4.6c-0.6,0.7-1.7,0.7-2.3,0c-0.3-0.3-0.5-0.8-0.5-1.2l0.2-6.4
			l-5.8-2.8C1,43.4,0.6,42.4,1,41.6c0.2-0.4,0.6-0.7,1-0.9L8.4,39l0.9-6.4c0.1-0.9,1-1.5,1.9-1.4C11.6,31.3,12,31.5,12.2,31.9"/>
		<path id="Path_37145" class="st1" d="M12.2,31.9l3.6,5.3l6.3-1.1c0.9-0.2,1.8,0.4,1.9,1.3c0.1,0.5,0,0.9-0.3,1.3l-4,5.1l3,5.7
			c0.4,0.8,0.1,1.8-0.7,2.2c-0.4,0.2-0.9,0.3-1.3,0.1l-6.1-2.2l-4.4,4.6c-0.6,0.7-1.7,0.7-2.3,0c-0.3-0.3-0.5-0.8-0.5-1.2l0.2-6.4
			l-5.8-2.8C1,43.4,0.6,42.4,1,41.6c0.2-0.4,0.6-0.7,1-0.9L8.4,39l0.9-6.4c0.1-0.9,0.9-1.5,1.9-1.4C11.6,31.3,12,31.5,12.2,31.9z"/>
	</g>
	<g class="star s2">
		<g id="Path_37142" transform="translate(-1.051 -8.829)">
			<path class="st11" d="M223.5,36.4l0.4,6.3l6,2.1c0.3,0.1,0.6,0.3,0.8,0.6c0.5,0.7,0.3,1.7-0.4,2.2c-0.1,0.1-0.2,0.1-0.3,0.2
				l-5.9,2.4l-0.2,6.3c0,0.3-0.1,0.7-0.3,0.9s-0.5,0.4-0.8,0.5s-0.6,0.1-0.9,0c-0.3-0.1-0.6-0.3-0.8-0.5l-4.1-4.8l-6.1,1.8
				c-0.3,0.1-0.7,0.1-1,0s-0.6-0.3-0.8-0.6c-0.2-0.2-0.3-0.5-0.3-0.9c0-0.3,0.1-0.7,0.2-1l3.4-5.4l-3.6-5.2c-0.2-0.3-0.3-0.6-0.3-1
				c0-0.3,0.1-0.6,0.3-0.9c0.2-0.3,0.4-0.5,0.7-0.6s0.7-0.1,1-0.1l6.2,1.5l3.9-5c0.2-0.3,0.5-0.5,0.8-0.6c0.6-0.2,1.3,0,1.7,0.5
				C223.4,35.7,223.5,36,223.5,36.4"/>
			<path class="st12" d="M222.3,59.1c-0.2,0-0.4,0-0.6-0.1c-0.2,0-0.4-0.1-0.5-0.2c-0.2-0.1-0.3-0.2-0.5-0.3s-0.3-0.2-0.4-0.4
				l-3.7-4.3l-5.5,1.6c-0.1,0-0.1,0-0.2,0s-0.1,0-0.2,0c-0.1,0-0.1,0-0.2,0c-0.1,0-0.1,0-0.2,0c-0.2,0-0.5,0-0.7-0.1
				s-0.4-0.2-0.6-0.3c-0.2-0.1-0.4-0.3-0.5-0.4c-0.2-0.2-0.3-0.4-0.4-0.6c-0.1-0.2-0.2-0.4-0.3-0.6c-0.1-0.2-0.1-0.4-0.1-0.7
				c0-0.2,0-0.5,0.1-0.7s0.2-0.4,0.3-0.6l3-4.8l-3.2-4.7c-0.1-0.2-0.2-0.4-0.3-0.6c-0.1-0.2-0.1-0.5-0.1-0.7s0-0.5,0.1-0.7
				s0.1-0.5,0.2-0.7c0.1-0.2,0.3-0.4,0.4-0.6c0.2-0.2,0.3-0.3,0.5-0.4c0.2-0.1,0.4-0.2,0.6-0.3c0.2-0.1,0.5-0.1,0.7-0.1
				c0.1,0,0.1,0,0.2,0c0.1,0,0.1,0,0.2,0c0.1,0,0.1,0,0.2,0s0.1,0,0.2,0l5.6,1.4l3.5-4.5c0.1-0.2,0.3-0.3,0.4-0.4
				c0.2-0.1,0.3-0.2,0.5-0.3s0.4-0.2,0.6-0.2c0.2,0,0.4-0.1,0.6-0.1c0.4,0,0.7,0.1,1,0.2c0.3,0.1,0.6,0.3,0.8,0.5s0.4,0.5,0.6,0.8
				c0.1,0.3,0.2,0.6,0.3,1l0.4,5.7l5.4,1.9c0.3,0.1,0.5,0.2,0.7,0.4s0.4,0.3,0.5,0.6c0.2,0.2,0.3,0.4,0.4,0.7
				c0.1,0.2,0.1,0.5,0.1,0.8s0,0.5-0.1,0.8s-0.2,0.5-0.3,0.7s-0.3,0.4-0.5,0.6c-0.2,0.2-0.4,0.3-0.7,0.4l-5.3,2.1l-0.2,5.7
				c0,0.4-0.1,0.7-0.2,1c-0.1,0.3-0.3,0.6-0.6,0.8c-0.2,0.2-0.5,0.4-0.8,0.5C223,59,222.6,59.1,222.3,59.1z M217.3,51.6l0.4,0.5
				l4.1,4.8l0.1,0.1l0.1,0.1h0.1h0.1c0.1,0,0.1,0,0.2,0c0.1,0,0.1-0.1,0.2-0.1s0.1-0.1,0.2-0.2c0-0.1,0.1-0.2,0.1-0.3l0.2-6.3v-0.6
				l0.6-0.2l5.9-2.4c0.1,0,0.2-0.1,0.2-0.1c0.1-0.1,0.1-0.1,0.1-0.2c0-0.1,0-0.1,0.1-0.2c0-0.1,0-0.1,0-0.1v-0.1c0,0,0-0.1-0.1-0.2
				c0-0.1-0.1-0.1-0.1-0.2c-0.1-0.1-0.1-0.1-0.2-0.1l-6-2.1l-0.6-0.2v-0.6l-0.4-6.3c0-0.1,0-0.2-0.1-0.3c0-0.1-0.1-0.1-0.2-0.2
				c-0.1,0-0.1-0.1-0.2-0.1s-0.1,0-0.2,0h-0.1h-0.1c0,0-0.1,0-0.1,0.1l-0.1,0.1l-3.9,5l-0.4,0.5l-0.6-0.2l-6.2-1.5l0,0l0,0l0,0l0,0
				c-0.1,0-0.1,0-0.2,0c-0.1,0-0.1,0-0.2,0.1l-0.1,0.1l-0.1,0.1v0.1c0,0,0,0.1,0,0.2c0,0.1,0,0.1,0,0.2c0,0.1,0,0.1,0.1,0.2l3.6,5.2
				l0.4,0.5l-0.3,0.5l-3.4,5.4c0,0.1-0.1,0.1-0.1,0.2c0,0.1,0,0.1,0,0.2c0,0.1,0,0.1,0,0.1v0.1l0.1,0.1l0.1,0.1c0,0,0.1,0.1,0.2,0.1
				c0.1,0,0.1,0,0.2,0l0,0l0,0l0,0l0,0l6.1-1.8L217.3,51.6z"/>
		</g>
		<g id="Path_37143" transform="translate(-1.051 -9.022)">
			<path class="st13" d="M223.5,36.4l0.4,6.3l6,2.1c0.3,0.1,0.6,0.3,0.8,0.6c0.5,0.7,0.3,1.7-0.4,2.2c-0.1,0.1-0.2,0.1-0.3,0.2
				l-5.9,2.4l-0.2,6.3c0,0.3-0.1,0.7-0.3,0.9s-0.5,0.4-0.8,0.5s-0.6,0.1-0.9,0c-0.3-0.1-0.6-0.3-0.8-0.5l-4.1-4.8l-6.1,1.8
				c-0.3,0.1-0.7,0.1-1,0s-0.6-0.3-0.8-0.6c-0.2-0.2-0.3-0.5-0.3-0.9c0-0.3,0.1-0.7,0.2-1l3.4-5.4l-3.6-5.2c-0.2-0.3-0.3-0.6-0.3-1
				c0-0.3,0.1-0.6,0.3-0.9c0.2-0.3,0.4-0.5,0.7-0.6s0.7-0.1,1-0.1l6.2,1.5l3.9-5c0.2-0.3,0.5-0.5,0.8-0.6c0.6-0.2,1.3,0,1.7,0.5
				C223.4,35.7,223.5,36,223.5,36.4z"/>
			<path class="st14" d="M222.3,59.1c-0.2,0-0.4,0-0.6-0.1c-0.2,0-0.4-0.1-0.5-0.2c-0.2-0.1-0.3-0.2-0.5-0.3s-0.3-0.2-0.4-0.4
				l-3.7-4.3l-5.5,1.6c-0.1,0-0.1,0-0.2,0s-0.1,0-0.2,0c-0.1,0-0.1,0-0.2,0c-0.1,0-0.1,0-0.2,0c-0.2,0-0.5,0-0.7-0.1
				s-0.4-0.2-0.6-0.3c-0.2-0.1-0.4-0.3-0.5-0.4c-0.2-0.2-0.3-0.4-0.4-0.6c-0.1-0.2-0.2-0.4-0.3-0.6c-0.1-0.2-0.1-0.4-0.1-0.7
				c0-0.2,0-0.5,0.1-0.7s0.2-0.4,0.3-0.6l3-4.8l-3.2-4.7c-0.1-0.2-0.2-0.4-0.3-0.6c-0.1-0.2-0.1-0.5-0.1-0.7s0-0.5,0.1-0.7
				s0.1-0.5,0.2-0.7c0.1-0.2,0.3-0.4,0.4-0.6c0.2-0.2,0.3-0.3,0.5-0.4c0.2-0.1,0.4-0.2,0.6-0.3c0.2-0.1,0.5-0.1,0.7-0.1
				c0.1,0,0.1,0,0.2,0c0.1,0,0.1,0,0.2,0c0.1,0,0.1,0,0.2,0c0.1,0,0.1,0,0.2,0l5.6,1.4l3.5-4.5c0.1-0.2,0.3-0.3,0.4-0.4
				c0.2-0.1,0.3-0.2,0.5-0.3s0.4-0.2,0.6-0.2c0.2,0,0.4-0.1,0.6-0.1c0.4,0,0.7,0.1,1,0.2c0.3,0.1,0.6,0.3,0.8,0.5s0.4,0.5,0.6,0.8
				c0.1,0.3,0.2,0.6,0.3,1l0.4,5.7l5.4,1.9c0.3,0.1,0.5,0.2,0.7,0.4s0.4,0.3,0.5,0.6c0.2,0.2,0.3,0.4,0.4,0.7
				c0.1,0.2,0.1,0.5,0.1,0.8s0,0.5-0.1,0.8s-0.2,0.5-0.3,0.7s-0.3,0.4-0.5,0.6c-0.2,0.2-0.4,0.3-0.7,0.4l-5.3,2.1l-0.2,5.7
				c0,0.4-0.1,0.7-0.2,1c-0.1,0.3-0.3,0.6-0.6,0.8c-0.2,0.2-0.5,0.4-0.8,0.5C223,59,222.6,59.1,222.3,59.1z M216.9,51.7
				c0.1,0,0.1,0,0.2,0c0.1,0,0.1,0,0.2,0.1c0.1,0,0.1,0.1,0.2,0.1s0.1,0.1,0.2,0.2l4.1,4.8l0.1,0.1l0.1,0.1h0.1h0.1
				c0.1,0,0.1,0,0.2,0s0.1-0.1,0.2-0.1c0.1,0,0.1-0.1,0.2-0.2c0-0.1,0.1-0.2,0.1-0.3l0.2-6.3c0-0.1,0-0.2,0.1-0.3s0.1-0.2,0.1-0.3
				c0.1-0.1,0.1-0.1,0.2-0.2c0.1-0.1,0.2-0.1,0.3-0.1l5.9-2.4c0.1,0,0.2-0.1,0.2-0.1c0.1-0.1,0.1-0.1,0.1-0.2c0-0.1,0-0.1,0.1-0.2
				c0-0.1,0-0.1,0-0.1v-0.1c0,0,0-0.1-0.1-0.2c0-0.1-0.1-0.1-0.1-0.2c-0.1-0.1-0.1-0.1-0.2-0.1l-6-2.1c-0.1,0-0.2-0.1-0.3-0.1
				c-0.1-0.1-0.1-0.1-0.2-0.2c-0.1-0.1-0.1-0.2-0.1-0.2c0-0.1-0.1-0.2-0.1-0.3l-0.4-6.3c0-0.1,0-0.2-0.1-0.3s-0.1-0.1-0.2-0.2
				c-0.1,0-0.1-0.1-0.2-0.1s-0.1,0-0.2,0h-0.1h-0.1c0,0-0.1,0-0.1,0.1s-0.1,0.1-0.1,0.1l-3.9,5c0,0.1-0.1,0.1-0.2,0.2
				c-0.1,0-0.1,0.1-0.2,0.1c-0.1,0-0.1,0.1-0.2,0.1c-0.1,0-0.1,0-0.2,0c0,0,0,0-0.1,0s0,0-0.1,0s0,0-0.1,0c0,0,0,0-0.1,0l-6.2-1.5
				l0,0l0,0l0,0l0,0c-0.1,0-0.1,0-0.2,0c-0.1,0-0.1,0-0.2,0.1l-0.1,0.1l-0.1,0.1v0.1c0,0,0,0.1,0,0.2c0,0.1,0,0.1,0,0.2
				c0,0.1,0,0.1,0.1,0.2l3.6,5.2c0.1,0.1,0.1,0.2,0.1,0.3s0,0.2,0,0.3s0,0.2,0,0.3s-0.1,0.2-0.1,0.3l-3.4,5.4c0,0.1-0.1,0.1-0.1,0.2
				c0,0.1,0,0.1,0,0.2c0,0.1,0,0.1,0,0.1v0.1l0.1,0.1l0.1,0.1c0,0,0.1,0.1,0.2,0.1c0.1,0,0.1,0,0.2,0l0,0l0,0l0,0l0,0l6.1-1.8
				c0,0,0,0,0.1,0c0,0,0,0,0.1,0C216.8,51.7,216.9,51.7,216.9,51.7L216.9,51.7z"/>
		</g>
	</g>
</g>
<g id="bump2">
	<g id="Layer_4">
	<g class="bump_a">
			<path d="M192.5,59l1.1-5.9c0,0,0.7-1.3,1.5,0.1s0,0.1,0,0.1l2.2,5.9l3.6-2.6c0,0,1.4-0.9,1.4,0.7l-0.9,5h5.4c0,0,1.3-0.2,1.5,0.6
				c0,0,0,0.7-0.4,0.9l-4.6,3.2l4.3,3.2c0,0,0.9,0.6,0.6,1.1c0,0-0.1,0.5-0.8,0.6l-4.9-0.2l2.6,6c0,0,0.2,0.6-0.2,0.9
				c0,0-0.6,0.2-1.1-0.1l-4.9-3.8l-1.3,5.3c0,0-0.1,0.5-0.4,0.6c0,0-0.5,0.3-1-0.8l-2.2-5.2l-4,3.4c0,0-0.7,0.7-1.2,0.3
				c0,0-0.5,0-0.3-0.8l1.4-5.8l-6-0.1c0,0-0.7,0.1-0.8-0.7c0,0-0.3-0.4,0.5-1l4.3-3.2l-4.4-3.4c0,0-0.5-0.2-0.5-0.9
				c0,0,0-0.5,0.8-0.5l5,0.1l-2.5-5.9c0,0-0.2-0.8,0.3-1c0,0,0.2-0.4,0.9,0.1L192.5,59z"/>
			<path class="st15" d="M194.6,56.5l-0.8,4.2c0,0,0.1,1-1.4,0s-3.4-2.5-3.4-2.5l1.7,4.1c0,0,0.5,1-0.5,1.2h-3.8l3.2,2.4
				c0,0,0.9,0.6,0.1,1.3c-0.7,0.7-3.5,2.6-3.5,2.6h4.5c0,0,1-0.1,0.9,1l-1.1,4.5l3.4-2.8c0,0,0.6-0.6,1.2,0.3c0.6,0.9,0,0.1,0,0.1
				l1.7,3.8l0.9-3.7c0,0,0.1-0.6,1-0.5l3.8,2.8l-1.7-4.2c0,0-0.4-1,0.6-1.2l3.8,0.1l-3.3-2.5c0,0-0.8-0.5,0-1.4l3.4-2.5l-4.5,0
				c0,0-0.9,0.1-0.9-1c0,0,0-0.1,0-0.1c0.1-1.2,0.7-3.8,0.7-3.8l-2.8,2.1c0,0-1,0.8-1.4-0.2s-1.7-4.5-1.7-4.5L194.6,56.5z"/>
		</g>
	</g>
</g>
</svg>
