<svg xmlns="http://www.w3.org/2000/svg" xmlns:xlink="http://www.w3.org/1999/xlink" width="249" height="81.512" viewBox="0 0 249 81.512">
<style>
.s1 {position:relative;animation:rotate2 both linear infinite 6s;transform-origin:4.4% 13.8%;}
.s2 {position:relative;animation:rotate both linear infinite 4.5s;transform-origin:4.7% 14%;}
  
@keyframes rotate {
0% {rotate(0deg);}
100% {transform:rotate(360deg);}
}
@keyframes rotate2 {
0% {rotate(0deg);}
100% {transform:rotate(-360deg);}
}
</style>
  <defs>
    <filter id="패스_42536" x="30.646" y="24.259" width="190.22" height="30.892" filterUnits="userSpaceOnUse">
      <feOffset dx="2" dy="3" input="SourceAlpha"/>
      <feGaussianBlur result="blur"/>
      <feFlood/>
      <feComposite operator="in" in2="blur"/>
      <feComposite in="SourceGraphic"/>
    </filter>
  </defs>
  <g id="그룹_116240" data-name="그룹 116240" transform="translate(-64 -562.241)">
    <g id="title" transform="translate(0 6)">
      <g id="사각형_21855" data-name="사각형 21855" transform="translate(64 566)" fill="#fff" stroke="#000" stroke-width="2">
        <rect width="249" height="64" rx="6" stroke="none"/>
        <rect x="1" y="1" width="247" height="62" rx="5" fill="none"/>
      </g>
      <g id="그룹_115756" data-name="그룹 115756" transform="translate(16190 -4769)">
        <g id="사각형_21813" data-name="사각형 21813" transform="translate(-16120 5341)" fill="#52ba83" stroke="#000" stroke-width="2">
          <rect width="237" height="52" rx="4" stroke="none"/>
          <rect x="1" y="1" width="235" height="50" rx="3" fill="none"/>
        </g>
        <g transform="matrix(1, 0, 0, 1, -16126, 5325.24)" filter="url(#패스_42536)">
          <g id="패스_42536-2" data-name="패스 42536" transform="translate(124 47.57)" fill="#f9e606" stroke-linejoin="round">
            <path d="M -5.333995819091797 3.829999923706055 C -11.50671005249023 3.829999923706055 -15.81361484527588 0.3580236434936523 -16.05121040344238 -4.809547901153564 L -16.08728218078613 -5.594000339508057 L -15.30199527740479 -5.594000339508057 L -10.06599521636963 -5.594000339508057 L -9.40601921081543 -5.594000339508057 L -9.322091102600098 -4.939381122589111 C -9.085995674133301 -3.097928762435913 -7.418376445770264 -1.954000234603882 -4.969995498657227 -1.954000234603882 C -3.311638593673706 -1.954000234603882 -2.107995748519897 -2.698381185531616 -2.107995748519897 -3.724000215530396 C -2.107995748519897 -4.833809852600098 -2.854281425476074 -5.5009765625 -7.095281600952148 -6.290667057037354 C -9.824471473693848 -6.799499988555908 -11.80171012878418 -7.632214546203613 -13.14013862609863 -8.836452484130859 C -14.62849521636963 -10.17557144165039 -15.35199546813965 -11.95616722106934 -15.35199546813965 -14.27999973297119 C -15.35199546813965 -15.41342830657959 -15.07663822174072 -16.4689769744873 -14.53359127044678 -17.41726303100586 C -14.02082920074463 -18.31266593933105 -13.28116226196289 -19.09214210510254 -12.33511447906494 -19.73409461975098 C -10.55242443084717 -20.94378662109375 -8.075995445251465 -21.61000061035156 -5.361995697021484 -21.61000061035156 C -2.726781368255615 -21.61000061035156 -0.2876623272895813 -20.80564308166504 1.506051898002625 -19.34509468078613 C 3.013395309448242 -18.11772918701172 4.011561393737793 -16.47629547119141 4.388476371765137 -14.63800048828125 L 5.026004314422607 -14.63800048828125 L 7.524004459381104 -14.63800048828125 L 7.524004459381104 -18.76000022888184 L 7.524004459381104 -19.51000022888184 L 8.274003982543945 -19.51000022888184 L 13.2580041885376 -19.51000022888184 L 14.0080041885376 -19.51000022888184 L 14.0080041885376 -18.76000022888184 L 14.0080041885376 -14.63800048828125 L 16.50600433349609 -14.63800048828125 L 17.25600433349609 -14.63800048828125 L 17.25600433349609 -13.88800048828125 L 17.25600433349609 -9.604000091552734 L 17.25600433349609 -8.854000091552734 L 16.50600433349609 -8.854000091552734 L 14.0080041885376 -8.854000091552734 L 14.0080041885376 2.519999742507935 L 14.0080041885376 3.269999742507935 L 13.2580041885376 3.269999742507935 L 8.274003982543945 3.269999742507935 L 7.524004459381104 3.269999742507935 L 7.524004459381104 2.519999742507935 L 7.524004459381104 -8.854000091552734 L 5.026004314422607 -8.854000091552734 L 4.276004314422607 -8.854000091552734 L 4.276004314422607 -9.604000091552734 L 4.276004314422607 -12.66199970245361 L 3.794004440307617 -12.66199970245361 L -1.469995617866516 -12.66199970245361 L -2.112757682800293 -12.66199970245361 L -2.211162328720093 -13.29716682434082 C -2.538567066192627 -15.41040515899658 -4.28801965713501 -15.85400009155273 -5.697995662689209 -15.85400009155273 C -7.122186183929443 -15.85400009155273 -8.64399528503418 -15.44050025939941 -8.64399528503418 -14.27999973297119 C -8.64399528503418 -13.23173809051514 -7.488805294036865 -12.72069072723389 -3.025590896606445 -11.79435729980469 C -0.3288528025150299 -11.23492908477783 1.60240912437439 -10.28178596496582 2.878528118133545 -8.880475997924805 C 4.039385318756104 -7.605738162994385 4.628004550933838 -5.94621467590332 4.628004550933838 -3.948000192642212 C 4.628004550933838 -2.760738372802734 4.354623317718506 -1.65157163143158 3.815456628799438 -0.651262104511261 C 3.30445671081543 0.2967855334281921 2.567123413085938 1.125095009803772 1.623980522155762 1.810666441917419 C -0.16747185587883 3.112856864929199 -2.638519525527954 3.829999923706055 -5.333995819091797 3.829999923706055 Z M 70.37800598144531 3.661999940872192 C 67.75605010986328 3.661999940872192 65.38291168212891 2.72421407699585 63.69571685791016 1.02138078212738 C 62.01412200927734 -0.6758573055267334 61.08800506591797 -3.057190656661987 61.08800506591797 -5.684000015258789 C 61.08800506591797 -8.300119400024414 62.01390838623047 -10.67752361297607 63.69512176513672 -12.37826251983643 C 65.38550567626953 -14.08826160430908 67.75885772705078 -15.02999973297119 70.37800598144531 -15.02999973297119 C 72.99995422363281 -15.02999973297119 75.37310028076172 -14.09221458435059 77.06028747558594 -12.38938140869141 C 78.74188232421875 -10.69214344024658 79.66800689697266 -8.310810089111328 79.66800689697266 -5.684000015258789 C 79.66800689697266 -5.101738452911377 79.62890625 -4.545000076293945 79.54845428466797 -3.981928825378418 L 79.45648193359375 -3.338000059127808 L 78.80600738525391 -3.338000059127808 L 67.82921600341797 -3.338000059127808 C 68.30665588378906 -2.365838527679443 69.18622589111328 -1.842000126838684 70.37800598144531 -1.842000126838684 C 71.67310333251953 -1.842000126838684 72.51069641113281 -2.304476261138916 72.74088287353516 -2.734166860580444 L 72.95295715332031 -3.130000114440918 L 73.40200805664062 -3.130000114440918 L 78.41400146484375 -3.130000114440918 L 79.39133453369141 -3.130000114440918 L 79.13845825195312 -2.185952663421631 C 78.20155334472656 1.311880826950073 74.68097686767578 3.661999940872192 70.37800598144531 3.661999940872192 Z M 67.79300689697266 -8.058000564575195 L 73.01203155517578 -8.058000564575195 C 72.52736663818359 -9.070197105407715 71.64479064941406 -9.581999778747559 70.37800598144531 -9.581999778747559 C 69.11949157714844 -9.581999778747559 68.26676940917969 -9.081538200378418 67.79300689697266 -8.058000564575195 Z M 34.87400436401367 3.661999940872192 C 29.3936710357666 3.661999940872192 25.4160041809082 -0.2685716152191162 25.4160041809082 -5.684000015258789 C 25.4160041809082 -11.0994291305542 29.3936710357666 -15.02999973297119 34.87400436401367 -15.02999973297119 C 37.10898208618164 -15.02999973297119 39.1486701965332 -14.34800052642822 40.77257537841797 -13.05771446228027 C 42.34305191040039 -11.80988121032715 43.38469314575195 -10.07059574127197 43.70564651489258 -8.160262107849121 L 43.85250473022461 -7.28600025177002 L 42.96600341796875 -7.28600025177002 L 37.92600250244141 -7.28600025177002 L 37.39388656616211 -7.28600025177002 L 37.21809768676758 -7.788238048553467 C 36.91090774536133 -8.665976524353027 36.03459930419922 -9.190000534057617 34.87400436401367 -9.190000534057617 C 33.02817153930664 -9.190000534057617 31.78800392150879 -7.781047821044922 31.78800392150879 -5.684000015258789 C 31.78800392150879 -3.586952447891235 33.02817153930664 -2.178000211715698 34.87400436401367 -2.178000211715698 C 36.04648208618164 -2.178000211715698 36.95681381225586 -2.730143070220947 37.30914688110352 -3.65500020980835 L 37.49314880371094 -4.138000011444092 L 38.01000595092773 -4.138000011444092 L 43.05000305175781 -4.138000011444092 L 43.98348236083984 -4.138000011444092 L 43.78238677978516 -3.226452589035034 C 43.3309326171875 -1.179785847663879 42.25117111206055 0.5525474548339844 40.65983581542969 1.783261775970459 C 39.07064819335938 3.012356996536255 37.06993103027344 3.661999940872192 34.87400436401367 3.661999940872192 Z M -59.79399490356445 3.661999940872192 C -62.41594696044922 3.661999940872192 -64.78909301757812 2.72421407699585 -66.47628021240234 1.02138078212738 C -68.15787506103516 -0.6758573055267334 -69.08399200439453 -3.057190656661987 -69.08399200439453 -5.684000015258789 C -69.08399200439453 -8.300119400024414 -68.15808868408203 -10.67752361297607 -66.47687530517578 -12.37826251983643 C -64.7864990234375 -14.08826160430908 -62.41313934326172 -15.02999973297119 -59.79399490356445 -15.02999973297119 C -57.17204284667969 -15.02999973297119 -54.79890060424805 -14.09221458435059 -53.11170959472656 -12.38938140869141 C -51.43011474609375 -10.69214344024658 -50.50399398803711 -8.310810089111328 -50.50399398803711 -5.684000015258789 C -50.50399398803711 -5.101738452911377 -50.5430908203125 -4.545000076293945 -50.62354278564453 -3.981928825378418 L -50.71551895141602 -3.338000059127808 L -51.36599731445312 -3.338000059127808 L -62.3427848815918 -3.338000059127808 C -61.8653450012207 -2.365838527679443 -60.98577880859375 -1.842000126838684 -59.79399490356445 -1.842000126838684 C -58.4989013671875 -1.842000126838684 -57.66130447387695 -2.304476261138916 -57.43111419677734 -2.734166860580444 L -57.21904373168945 -3.130000114440918 L -56.76999664306641 -3.130000114440918 L -51.75799560546875 -3.130000114440918 L -50.78066253662109 -3.130000114440918 L -51.03354263305664 -2.185952663421631 C -51.9704475402832 1.311880826950073 -55.49102020263672 3.661999940872192 -59.79399490356445 3.661999940872192 Z M -62.37899398803711 -8.058000564575195 L -57.15996932983398 -8.058000564575195 C -57.64463424682617 -9.070197105407715 -58.52720642089844 -9.581999778747559 -59.79399490356445 -9.581999778747559 C -61.05250549316406 -9.581999778747559 -61.90523147583008 -9.081538200378418 -62.37899398803711 -8.058000564575195 Z M 24.28400421142578 3.325999736785889 L 23.53400421142578 3.325999736785889 L 18.55000495910645 3.325999736785889 L 17.80000495910645 3.325999736785889 L 17.80000495910645 2.575999736785889 L 17.80000495910645 -13.88800048828125 L 17.80000495910645 -14.63800048828125 L 18.55000495910645 -14.63800048828125 L 23.53400421142578 -14.63800048828125 L 24.28400421142578 -14.63800048828125 L 24.28400421142578 -13.88800048828125 L 24.28400421142578 2.575999736785889 L 24.28400421142578 3.325999736785889 Z M 87.31200408935547 3.269999742507935 L 86.56200408935547 3.269999742507935 L 81.5780029296875 3.269999742507935 L 80.8280029296875 3.269999742507935 L 80.8280029296875 2.519999742507935 L 80.8280029296875 -13.88800048828125 L 80.8280029296875 -14.63800048828125 L 81.5780029296875 -14.63800048828125 L 86.56200408935547 -14.63800048828125 L 87.31200408935547 -14.63800048828125 L 87.31200408935547 -13.95429134368896 C 88.35466003417969 -14.66256618499756 89.65471649169922 -15.02999973297119 91.15400695800781 -15.02999973297119 C 92.08988189697266 -15.02999973297119 92.78302764892578 -14.97738075256348 93.55638885498047 -14.70838069915771 L 94.05364990234375 -14.53540515899658 L 94.05995941162109 -14.00897598266602 L 94.11595916748047 -9.332976341247559 L 94.13095855712891 -8.080881118774414 L 93.01998138427734 -8.658595085144043 C 92.42188262939453 -8.969594955444336 91.66045379638672 -9.133999824523926 90.81800079345703 -9.133999824523926 C 88.58988189697266 -9.133999824523926 87.31200408935547 -7.947952747344971 87.31200408935547 -5.880000114440918 L 87.31200408935547 2.519999742507935 L 87.31200408935547 3.269999742507935 Z M 63.56481552124023 3.269999742507935 L 62.11800384521484 3.269999742507935 L 56.43400573730469 3.269999742507935 L 56.03210067749023 3.269999742507935 L 55.80952835083008 2.935356855392456 L 52.34470367431641 -2.273994445800781 L 51.1920051574707 -0.9751782417297363 L 51.1920051574707 2.519999742507935 L 51.1920051574707 3.269999742507935 L 50.4420051574707 3.269999742507935 L 45.45800399780273 3.269999742507935 L 44.70800399780273 3.269999742507935 L 44.70800399780273 2.519999742507935 L 44.70800399780273 -21 L 44.70800399780273 -21.75 L 45.45800399780273 -21.75 L 50.4420051574707 -21.75 L 51.1920051574707 -21.75 L 51.1920051574707 -21 L 51.1920051574707 -9.207535743713379 L 55.67107391357422 -14.37902355194092 L 55.8953857421875 -14.63800048828125 L 56.23800277709961 -14.63800048828125 L 61.78200531005859 -14.63800048828125 L 63.46602630615234 -14.63800048828125 L 62.33948135375977 -13.38628578186035 L 56.43988037109375 -6.831176280975342 L 62.73088455200195 2.087714195251465 L 63.56481552124023 3.269999742507935 Z M -28.87401962280273 3.269999742507935 L -29.41399574279785 3.269999742507935 L -34.42599487304688 3.269999742507935 L -34.9753303527832 3.269999742507935 L -35.14104461669922 2.746261835098267 L -37.39060211181641 -4.363196849822998 L -39.61832809448242 2.744309425354004 L -39.7830924987793 3.269999742507935 L -40.3339958190918 3.269999742507935 L -45.31799697875977 3.269999742507935 L -45.85797119140625 3.269999742507935 L -46.02925872802734 2.757904529571533 L -51.51725769042969 -13.65009498596191 L -51.84768676757812 -14.63800048828125 L -50.80599594116211 -14.63800048828125 L -45.54199600219727 -14.63800048828125 L -44.97087478637695 -14.63800048828125 L -44.81899642944336 -14.08745288848877 L -42.63702011108398 -6.177791118621826 L -40.49797058105469 -14.08388137817383 L -40.34804153442383 -14.63800048828125 L -39.77399444580078 -14.63800048828125 L -34.67799377441406 -14.63800048828125 L -34.1046142578125 -14.63800048828125 L -33.95425796508789 -14.08469104766846 L -31.79050636291504 -6.122925758361816 L -29.60525703430176 -14.08647632598877 L -29.45392417907715 -14.63800048828125 L -28.88199615478516 -14.63800048828125 L -23.92599487304688 -14.63800048828125 L -22.88430595397949 -14.63800048828125 L -23.2147331237793 -13.65009498596191 L -28.70273399353027 2.757904529571533 L -28.87401962280273 3.269999742507935 Z M -86.00799560546875 3.269999742507935 L -86.75799560546875 3.269999742507935 L -91.85399627685547 3.269999742507935 L -92.60399627685547 3.269999742507935 L -92.60399627685547 2.519999742507935 L -92.60399627685547 -20.29999923706055 L -92.60399627685547 -21.04999923706055 L -91.85399627685547 -21.04999923706055 L -87.59799194335938 -21.04999923706055 L -87.2459716796875 -21.04999923706055 L -87.02106475830078 -20.77921485900879 L -76.95199584960938 -8.656744956970215 L -76.95199584960938 -20.57999992370605 L -76.95199584960938 -21.32999992370605 L -76.20199584960938 -21.32999992370605 L -71.10599517822266 -21.32999992370605 L -70.35599517822266 -21.32999992370605 L -70.35599517822266 -20.57999992370605 L -70.35599517822266 2.239999771118164 L -70.35599517822266 2.989999771118164 L -71.10599517822266 2.989999771118164 L -75.36199188232422 2.989999771118164 L -75.71401977539062 2.989999771118164 L -75.93892669677734 2.719214200973511 L -86.00799560546875 -9.403255462646484 L -86.00799560546875 2.519999742507935 L -86.00799560546875 3.269999742507935 Z M 21.0420036315918 -14.95800018310547 C 19.98852729797363 -14.95800018310547 19.02331352233887 -15.34302425384521 18.32417106628418 -16.04216766357422 C 17.62502861022949 -16.74131011962891 17.24000358581543 -17.70652389526367 17.24000358581543 -18.76000022888184 C 17.24000358581543 -19.8134765625 17.62502861022949 -20.77869033813477 18.32417106628418 -21.47783279418945 C 19.02331352233887 -22.17697715759277 19.98852729797363 -22.5620002746582 21.0420036315918 -22.5620002746582 C 22.09547996520996 -22.5620002746582 23.06069564819336 -22.17697715759277 23.75983810424805 -21.47783279418945 C 24.45898056030273 -20.77869033813477 24.84400367736816 -19.8134765625 24.84400367736816 -18.76000022888184 C 24.84400367736816 -17.70652389526367 24.45898056030273 -16.74131011962891 23.75983810424805 -16.04216766357422 C 23.06069564819336 -15.34302425384521 22.09547996520996 -14.95800018310547 21.0420036315918 -14.95800018310547 Z" stroke="none"/>
            <path d="M -5.333995819091797 3.079999923706055 C -0.2379956692457199 3.079999923706055 3.878004312515259 0.4199998378753662 3.878004312515259 -3.948000192642212 C 3.878004312515259 -7.36400032043457 2.086004257202148 -9.968000411987305 -3.177995681762695 -11.0600004196167 C -7.629995822906494 -11.98400020599365 -9.39399528503418 -12.57200050354004 -9.39399528503418 -14.27999973297119 C -9.39399528503418 -15.65200042724609 -8.077995300292969 -16.60400009155273 -5.697995662689209 -16.60400009155273 C -3.261995553970337 -16.60400009155273 -1.777995705604553 -15.40000057220459 -1.469995617866516 -13.41199970245361 L 3.794004440307617 -13.41199970245361 C 3.542004346847534 -17.75200080871582 -0.2659956812858582 -20.86000061035156 -5.361995697021484 -20.86000061035156 C -10.51399612426758 -20.86000061035156 -14.60199546813965 -18.39599990844727 -14.60199546813965 -14.27999973297119 C -14.60199546813965 -9.996000289916992 -11.91399574279785 -7.952000141143799 -6.957995891571045 -7.028000354766846 C -2.897995710372925 -6.272000312805176 -1.357995629310608 -5.544000148773193 -1.357995629310608 -3.724000215530396 C -1.357995629310608 -2.240000247955322 -2.897995710372925 -1.204000234603882 -4.969995498657227 -1.204000234603882 C -7.881995677947998 -1.204000234603882 -9.785995483398438 -2.660000085830688 -10.06599521636963 -4.844000339508057 L -15.30199527740479 -4.844000339508057 C -15.07799530029297 0.02799982391297817 -10.96199607849121 3.079999923706055 -5.333995819091797 3.079999923706055 M 70.37800598144531 2.911999940872192 C 74.35400390625 2.911999940872192 77.57400512695312 0.7559998035430908 78.41400146484375 -2.380000114440918 L 73.40200805664062 -2.380000114440918 C 72.98200225830078 -1.596000194549561 71.80600738525391 -1.092000126838684 70.37800598144531 -1.092000126838684 C 68.50200653076172 -1.092000126838684 67.18600463867188 -2.184000253677368 66.79400634765625 -4.088000297546387 L 78.80600738525391 -4.088000297546387 C 78.89000701904297 -4.676000118255615 78.91800689697266 -5.208000183105469 78.91800689697266 -5.684000015258789 C 78.91800689697266 -10.69600009918213 75.39000701904297 -14.27999973297119 70.37800598144531 -14.27999973297119 C 65.36600494384766 -14.27999973297119 61.83800506591797 -10.66800022125244 61.83800506591797 -5.684000015258789 C 61.83800506591797 -0.6720001697540283 65.36600494384766 2.911999940872192 70.37800598144531 2.911999940872192 M 74.04600524902344 -7.308000087738037 L 66.76600646972656 -7.308000087738037 C 67.18600463867188 -9.268000602722168 68.41800689697266 -10.33199977874756 70.37800598144531 -10.33199977874756 C 72.33800506591797 -10.33199977874756 73.62600708007812 -9.268000602722168 74.04600524902344 -7.308000087738037 M 34.87400436401367 2.911999940872192 C 39.01800537109375 2.911999940872192 42.21000289916992 0.4199998378753662 43.05000305175781 -3.388000249862671 L 38.01000595092773 -3.388000249862671 C 37.56200408935547 -2.212000131607056 36.41400527954102 -1.428000211715698 34.87400436401367 -1.428000211715698 C 32.55000305175781 -1.428000211715698 31.03800392150879 -3.220000267028809 31.03800392150879 -5.684000015258789 C 31.03800392150879 -8.14799976348877 32.55000305175781 -9.940000534057617 34.87400436401367 -9.940000534057617 C 36.4420051574707 -9.940000534057617 37.53400421142578 -9.156000137329102 37.92600250244141 -8.03600025177002 L 42.96600341796875 -8.03600025177002 C 42.37800598144531 -11.53600025177002 39.15800476074219 -14.27999973297119 34.87400436401367 -14.27999973297119 C 29.80600357055664 -14.27999973297119 26.1660041809082 -10.66800022125244 26.1660041809082 -5.684000015258789 C 26.1660041809082 -0.7000001668930054 29.80600357055664 2.911999940872192 34.87400436401367 2.911999940872192 M -59.79399490356445 2.911999940872192 C -55.81799697875977 2.911999940872192 -52.59799575805664 0.7559998035430908 -51.75799560546875 -2.380000114440918 L -56.76999664306641 -2.380000114440918 C -57.18999481201172 -1.596000194549561 -58.36599731445312 -1.092000126838684 -59.79399490356445 -1.092000126838684 C -61.66999435424805 -1.092000126838684 -62.98599624633789 -2.184000253677368 -63.37799453735352 -4.088000297546387 L -51.36599731445312 -4.088000297546387 C -51.2819938659668 -4.676000118255615 -51.25399398803711 -5.208000183105469 -51.25399398803711 -5.684000015258789 C -51.25399398803711 -10.69600009918213 -54.7819938659668 -14.27999973297119 -59.79399490356445 -14.27999973297119 C -64.80599212646484 -14.27999973297119 -68.33399200439453 -10.66800022125244 -68.33399200439453 -5.684000015258789 C -68.33399200439453 -0.6720001697540283 -64.80599212646484 2.911999940872192 -59.79399490356445 2.911999940872192 M -56.12599563598633 -7.308000087738037 L -63.4059944152832 -7.308000087738037 C -62.98599624633789 -9.268000602722168 -61.75399398803711 -10.33199977874756 -59.79399490356445 -10.33199977874756 C -57.8339958190918 -10.33199977874756 -56.54599380493164 -9.268000602722168 -56.12599563598633 -7.308000087738037 M 23.53400421142578 2.575999736785889 L 23.53400421142578 -13.88800048828125 L 18.55000495910645 -13.88800048828125 L 18.55000495910645 2.575999736785889 L 23.53400421142578 2.575999736785889 M 86.56200408935547 2.519999742507935 L 86.56200408935547 -5.880000114440918 C 86.56200408935547 -8.371999740600586 88.15800476074219 -9.883999824523926 90.81800079345703 -9.883999824523926 C 91.79800415039062 -9.883999824523926 92.66600799560547 -9.687999725341797 93.36600494384766 -9.324000358581543 L 93.31000518798828 -14 C 92.66600799560547 -14.22399997711182 92.0780029296875 -14.27999973297119 91.15400695800781 -14.27999973297119 C 89.05400085449219 -14.27999973297119 87.54200744628906 -13.52400016784668 86.56200408935547 -12.20800018310547 L 86.56200408935547 -13.88800048828125 L 81.5780029296875 -13.88800048828125 L 81.5780029296875 2.519999742507935 L 86.56200408935547 2.519999742507935 M 62.11800384521484 2.519999742507935 L 55.48200607299805 -6.888000011444092 L 61.78200531005859 -13.88800048828125 L 56.23800277709961 -13.88800048828125 L 50.4420051574707 -7.196000099182129 L 50.4420051574707 -21 L 45.45800399780273 -21 L 45.45800399780273 2.519999742507935 L 50.4420051574707 2.519999742507935 L 50.4420051574707 -1.260000228881836 L 52.43000411987305 -3.500000238418579 L 56.43400573730469 2.519999742507935 L 62.11800384521484 2.519999742507935 M 13.2580041885376 2.519999742507935 L 13.2580041885376 -9.604000091552734 L 16.50600433349609 -9.604000091552734 L 16.50600433349609 -13.88800048828125 L 13.2580041885376 -13.88800048828125 L 13.2580041885376 -18.76000022888184 L 8.274003982543945 -18.76000022888184 L 8.274003982543945 -13.88800048828125 L 5.026004314422607 -13.88800048828125 L 5.026004314422607 -9.604000091552734 L 8.274003982543945 -9.604000091552734 L 8.274003982543945 2.519999742507935 L 13.2580041885376 2.519999742507935 M -29.41399574279785 2.519999742507935 L -23.92599487304688 -13.88800048828125 L -28.88199615478516 -13.88800048828125 L -31.79399490356445 -3.276000261306763 L -34.67799377441406 -13.88800048828125 L -39.77399444580078 -13.88800048828125 L -42.62999725341797 -3.332000255584717 L -45.54199600219727 -13.88800048828125 L -50.80599594116211 -13.88800048828125 L -45.31799697875977 2.519999742507935 L -40.3339958190918 2.519999742507935 L -37.39399719238281 -6.860000133514404 L -34.42599487304688 2.519999742507935 L -29.41399574279785 2.519999742507935 M -86.75799560546875 2.519999742507935 L -86.75799560546875 -11.48000049591064 L -75.36199188232422 2.239999771118164 L -71.10599517822266 2.239999771118164 L -71.10599517822266 -20.57999992370605 L -76.20199584960938 -20.57999992370605 L -76.20199584960938 -6.580000400543213 L -87.59799194335938 -20.29999923706055 L -91.85399627685547 -20.29999923706055 L -91.85399627685547 2.519999742507935 L -86.75799560546875 2.519999742507935 M 21.0420036315918 -15.70800018310547 C 22.80600357055664 -15.70800018310547 24.09400367736816 -16.99600028991699 24.09400367736816 -18.76000022888184 C 24.09400367736816 -20.52400016784668 22.80600357055664 -21.8120002746582 21.0420036315918 -21.8120002746582 C 19.27800369262695 -21.8120002746582 17.99000358581543 -20.52400016784668 17.99000358581543 -18.76000022888184 C 17.99000358581543 -16.99600028991699 19.27800369262695 -15.70800018310547 21.0420036315918 -15.70800018310547 M -5.333995819091797 4.579999923706055 C -8.465305328369141 4.579999923706055 -11.20832920074463 3.732166528701782 -13.2665433883667 2.128142595291138 C -14.32890033721924 1.300214052200317 -15.17190074920654 0.2954760193824768 -15.77211475372314 -0.858190655708313 C -16.38949584960938 -2.044857263565063 -16.73547172546387 -3.362714529037476 -16.80042457580566 -4.775119304656982 C -16.81923294067383 -5.184452533721924 -16.66975784301758 -5.583690643310547 -16.38673400878906 -5.880023956298828 C -16.10371017456055 -6.176357269287109 -15.71178150177002 -6.344000339508057 -15.30199527740479 -6.344000339508057 L -10.24126243591309 -6.344000339508057 C -11.63597297668457 -6.844821453094482 -12.76046276092529 -7.48595666885376 -13.6417818069458 -8.278904914855957 C -15.27425765991211 -9.747690200805664 -16.10199546813965 -11.76676177978516 -16.10199546813965 -14.27999973297119 C -16.10199546813965 -19.03738021850586 -11.68554306030273 -22.36000061035156 -5.361995697021484 -22.36000061035156 C -2.554781436920166 -22.36000061035156 0.05250433459877968 -21.49583435058594 1.979623436927795 -19.92666625976562 C 3.45841908454895 -18.72254753112793 4.487946510314941 -17.15169334411621 4.979078769683838 -15.38727855682373 C 4.994637489318848 -15.38775539398193 5.010329723358154 -15.38800048828125 5.026004314422607 -15.38800048828125 L 6.774004459381104 -15.38800048828125 L 6.774004459381104 -18.76000022888184 C 6.774004459381104 -19.58842849731445 7.445575714111328 -20.26000022888184 8.274003982543945 -20.26000022888184 L 13.2580041885376 -20.26000022888184 C 14.08643245697021 -20.26000022888184 14.7580041885376 -19.58842849731445 14.7580041885376 -18.76000022888184 L 14.7580041885376 -15.38800048828125 L 16.50600433349609 -15.38800048828125 C 16.90090370178223 -15.38800048828125 17.26014137268066 -15.23541641235352 17.52800369262695 -14.98596858978271 C 17.6708869934082 -15.11902904510498 17.83982086181641 -15.22453880310059 18.02625274658203 -15.29402351379395 C 17.07368850708008 -16.11579513549805 16.49000358581543 -17.34272193908691 16.49000358581543 -18.76000022888184 C 16.49000358581543 -21.35507202148438 18.44693374633789 -23.3120002746582 21.0420036315918 -23.3120002746582 C 23.63707542419434 -23.3120002746582 25.59400367736816 -21.35507202148438 25.59400367736816 -18.76000022888184 C 25.59400367736816 -17.34272193908691 25.01032066345215 -16.11579513549805 24.0577564239502 -15.29402351379395 C 24.62787818908691 -15.08153247833252 25.03400421142578 -14.53217601776123 25.03400421142578 -13.88800048828125 L 25.03400421142578 -8.521842002868652 C 25.48674392700195 -10.2055835723877 26.34782600402832 -11.71440410614014 27.56490898132324 -12.91769027709961 C 29.43186187744141 -14.76347637176514 32.02762222290039 -15.77999973297119 34.87400436401367 -15.77999973297119 C 37.28017044067383 -15.77999973297119 39.48119354248047 -15.04169082641602 41.2391471862793 -13.64490509033203 C 42.46620559692383 -12.66995239257812 43.39805221557617 -11.4186429977417 43.95800399780273 -10.01919174194336 L 43.95800399780273 -21 C 43.95800399780273 -21.82842826843262 44.62957763671875 -22.5 45.45800399780273 -22.5 L 50.4420051574707 -22.5 C 51.27043151855469 -22.5 51.9420051574707 -21.82842826843262 51.9420051574707 -21 L 51.9420051574707 -11.21904754638672 L 55.10414886474609 -14.87002372741699 C 55.38907623291016 -15.19900035858154 55.80281448364258 -15.38800048828125 56.23800277709961 -15.38800048828125 L 61.78200531005859 -15.38800048828125 C 62.37436294555664 -15.38800048828125 62.9112663269043 -15.03938102722168 63.15226745605469 -14.49826240539551 C 63.39324188232422 -13.95714282989502 63.29322052001953 -13.32485771179199 62.89695739746094 -12.88454818725586 L 57.39777755737305 -6.774350166320801 L 61.1854362487793 -1.404504776000977 C 60.63691711425781 -2.684300899505615 60.33800506591797 -4.127231121063232 60.33800506591797 -5.684000015258789 C 60.33800506591797 -11.53402423858643 64.56043243408203 -15.77999973297119 70.37800598144531 -15.77999973297119 C 75.22550964355469 -15.77999973297119 78.96552276611328 -12.83185386657715 80.0780029296875 -8.464262008666992 L 80.0780029296875 -13.88800048828125 C 80.0780029296875 -14.71642875671387 80.74957275390625 -15.38800048828125 81.5780029296875 -15.38800048828125 L 86.56200408935547 -15.38800048828125 C 86.95634460449219 -15.38800048828125 87.315185546875 -15.23579406738281 87.58292388916016 -14.98696994781494 C 88.60970306396484 -15.51039028167725 89.81145477294922 -15.77999973297119 91.15400695800781 -15.77999973297119 C 92.14453125 -15.77999973297119 92.93312072753906 -15.71923828125 93.80278778076172 -15.41673851013184 C 94.39959716796875 -15.20916652679443 94.80233764648438 -14.64980983734131 94.80988311767578 -14.01795291900635 L 94.86588287353516 -9.341952323913574 C 94.87221527099609 -8.814690589904785 94.6011962890625 -8.322833061218262 94.15212249755859 -8.046500205993652 C 93.70303344726562 -7.770147323608398 93.14182281494141 -7.749900817871094 92.67398071289062 -7.993166923522949 C 92.18228912353516 -8.248857498168945 91.54050445556641 -8.383999824523926 90.81800079345703 -8.383999824523926 C 88.98926544189453 -8.383999824523926 88.06200408935547 -7.541523933410645 88.06200408935547 -5.880000114440918 L 88.06200408935547 2.519999742507935 C 88.06200408935547 3.34842848777771 87.39043426513672 4.019999980926514 86.56200408935547 4.019999980926514 L 81.5780029296875 4.019999980926514 C 80.74957275390625 4.019999980926514 80.0780029296875 3.34842848777771 80.0780029296875 2.519999742507935 L 80.0780029296875 -3.29265022277832 C 80.00042724609375 -3.168712615966797 79.90544128417969 -3.057352304458618 79.79664611816406 -2.961672306060791 C 79.92437744140625 -2.658002853393555 79.95000457763672 -2.316997528076172 79.86293029785156 -1.991904973983765 C 79.35319519042969 -0.08892874419689178 78.15564727783203 1.531071305274963 76.39974212646484 2.692928314208984 C 74.70012664794922 3.817547559738159 72.61783599853516 4.411999702453613 70.37800598144531 4.411999702453613 C 67.61054229736328 4.411999702453613 65.20414733886719 3.451231718063354 63.44147109985352 1.813927412033081 C 63.67208099365234 2.246028900146484 63.67874145507812 2.768525362014771 63.4497184753418 3.210333108901978 C 63.19186019897461 3.707737922668457 62.67829132080078 4.019999980926514 62.11800384521484 4.019999980926514 L 56.43400573730469 4.019999980926514 C 55.93190765380859 4.019999980926514 55.46310043334961 3.76878547668457 55.18502807617188 3.350714206695557 L 52.25938034057617 -1.047988772392273 L 51.9420051574707 -0.6903831362724304 L 51.9420051574707 2.519999742507935 C 51.9420051574707 3.34842848777771 51.27043151855469 4.019999980926514 50.4420051574707 4.019999980926514 L 45.45800399780273 4.019999980926514 C 44.62957763671875 4.019999980926514 43.95800399780273 3.34842848777771 43.95800399780273 2.519999742507935 L 43.95800399780273 -1.314085841178894 C 43.3369026184082 0.1493610739707947 42.37432861328125 1.405425429344177 41.11867141723633 2.376547336578369 C 39.39690780639648 3.708142757415771 37.23755264282227 4.411999702453613 34.87400436401367 4.411999702453613 C 32.02762222290039 4.411999702453613 29.43186187744141 3.395476102828979 27.56490898132324 1.549690246582031 C 26.34782600402832 0.3464036881923676 25.48674392700195 -1.162417531013489 25.03400421142578 -2.846158981323242 L 25.03400421142578 2.575999736785889 C 25.03400421142578 3.404428482055664 24.3624324798584 4.075999736785889 23.53400421142578 4.075999736785889 L 18.55000495910645 4.075999736785889 C 17.72157669067383 4.075999736785889 17.05000495910645 3.404428482055664 17.05000495910645 2.575999736785889 L 17.05000495910645 -8.205691337585449 C 16.88134384155273 -8.140026092529297 16.69789123535156 -8.104000091552734 16.50600433349609 -8.104000091552734 L 14.7580041885376 -8.104000091552734 L 14.7580041885376 2.519999742507935 C 14.7580041885376 3.34842848777771 14.08643245697021 4.019999980926514 13.2580041885376 4.019999980926514 L 8.274003982543945 4.019999980926514 C 7.445575714111328 4.019999980926514 6.774004459381104 3.34842848777771 6.774004459381104 2.519999742507935 L 6.774004459381104 -8.104000091552734 L 5.026004314422607 -8.104000091552734 C 4.735113620758057 -8.104000091552734 4.46354866027832 -8.186812400817871 4.233622074127197 -8.330132484436035 C 4.995280742645264 -7.102529048919678 5.378004550933838 -5.640540599822998 5.378004550933838 -3.948000192642212 C 5.378004550933838 -1.396214485168457 4.201408863067627 0.8643569946289062 2.064956665039062 2.417333126068115 C 0.1463376730680466 3.811952114105225 -2.481328964233398 4.579999923706055 -5.333995819091797 4.579999923706055 Z M -9.08366870880127 -5.977599620819092 C -8.813408851623535 -5.743381977081299 -8.626666069030762 -5.413044452667236 -8.57816219329834 -5.034738063812256 C -8.391067504882812 -3.575309753417969 -7.042210102081299 -2.704000234603882 -4.969995498657227 -2.704000234603882 C -3.805424213409424 -2.704000234603882 -2.857995748519897 -3.161571502685547 -2.857995748519897 -3.724000215530396 C -2.857995748519897 -4.013952732086182 -2.881924152374268 -4.191500186920166 -3.373067140579224 -4.468881130218506 C -4.229710102081299 -4.952619075775146 -5.88563871383667 -5.302547931671143 -7.232590675354004 -5.553357124328613 C -7.889575958251953 -5.675841808319092 -8.506268501281738 -5.817093849182129 -9.08366870880127 -5.977599620819092 Z M 34.87400436401367 -8.440000534057617 C 33.15167236328125 -8.440000534057617 32.53800582885742 -7.01633358001709 32.53800582885742 -5.684000015258789 C 32.53800582885742 -4.351666927337646 33.15167236328125 -2.928000211715698 34.87400436401367 -2.928000211715698 C 35.73550415039062 -2.928000211715698 36.36762237548828 -3.29028582572937 36.6082649230957 -3.922000169754028 C 36.82983779907227 -4.503619194030762 37.38759994506836 -4.888000011444092 38.01000595092773 -4.888000011444092 L 43.05000305175781 -4.888000011444092 C 43.38127899169922 -4.888000011444092 43.69953918457031 -4.77850866317749 43.95800399780273 -4.581967830657959 L 43.95800399780273 -6.91085958480835 C 43.68588638305664 -6.670937061309814 43.33371353149414 -6.53600025177002 42.96600341796875 -6.53600025177002 L 37.92600250244141 -6.53600025177002 C 37.28860092163086 -6.53600025177002 36.72079086303711 -6.938833713531494 36.51021957397461 -7.540476322174072 C 36.31014633178711 -8.112142562866211 35.71376800537109 -8.440000534057617 34.87400436401367 -8.440000534057617 Z M 69.96163177490234 -8.808000564575195 L 70.79764556884766 -8.808000564575195 C 70.66555786132812 -8.824075698852539 70.52577972412109 -8.831999778747559 70.37800598144531 -8.831999778747559 C 70.23092651367188 -8.831999778747559 70.09226989746094 -8.824109077453613 69.96163177490234 -8.808000564575195 Z M -0.6266573667526245 -11.91199970245361 C 1.178621530532837 -11.27485179901123 2.58040189743042 -10.37830066680908 3.573653697967529 -9.227482795715332 C 3.542545080184937 -9.347809791564941 3.526004314422607 -9.47395133972168 3.526004314422607 -9.604000091552734 L 3.526004314422607 -11.91199970245361 L -0.6266573667526245 -11.91199970245361 Z M -5.697995662689209 -15.10400009155273 C -6.970448017120361 -15.10400009155273 -7.893995761871338 -14.75745296478271 -7.893995761871338 -14.27999973297119 C -7.893995761871338 -14.1458568572998 -7.869733810424805 -14.11388111114502 -7.853686332702637 -14.09271430969238 C -7.816781520843506 -14.04404735565186 -7.689876556396484 -13.91128635406494 -7.309495449066162 -13.72976207733154 C -6.446710109710693 -13.31804752349854 -4.9120192527771 -12.9518575668335 -2.873162269592285 -12.52869033813477 C -2.796637535095215 -12.51281642913818 -2.720993757247925 -12.49667549133301 -2.6455237865448 -12.48011684417725 C -2.802615165710449 -12.678053855896 -2.911290645599365 -12.91762924194336 -2.95230507850647 -13.18235778808594 C -3.025948047637939 -13.65764331817627 -3.250043392181396 -15.10400009155273 -5.697995662689209 -15.10400009155273 Z M -59.79399490356445 4.411999702453613 C -64.81974792480469 4.411999702453613 -68.65507507324219 1.242976427078247 -69.60599517822266 -3.391311407089233 L -69.60599517822266 2.239999771118164 C -69.60599517822266 3.06842827796936 -70.27756500244141 3.739999771118164 -71.10599517822266 3.739999771118164 L -75.36199188232422 3.739999771118164 C -75.80802154541016 3.739999771118164 -76.23090362548828 3.541523694992065 -76.51587677001953 3.198428392410278 L -85.25799560546875 -7.326481342315674 L -85.25799560546875 2.519999742507935 C -85.25799560546875 3.34842848777771 -85.9295654296875 4.019999980926514 -86.75799560546875 4.019999980926514 L -91.85399627685547 4.019999980926514 C -92.68242645263672 4.019999980926514 -93.35399627685547 3.34842848777771 -93.35399627685547 2.519999742507935 L -93.35399627685547 -20.29999923706055 C -93.35399627685547 -21.1284294128418 -92.68242645263672 -21.79999923706055 -91.85399627685547 -21.79999923706055 L -87.59799194335938 -21.79999923706055 C -87.15196990966797 -21.79999923706055 -86.72908782958984 -21.60152435302734 -86.44411468505859 -21.2584285736084 L -77.70199584960938 -10.73351860046387 L -77.70199584960938 -20.57999992370605 C -77.70199584960938 -21.40842819213867 -77.03042602539062 -22.07999992370605 -76.20199584960938 -22.07999992370605 L -71.10599517822266 -22.07999992370605 C -70.27756500244141 -22.07999992370605 -69.60599517822266 -21.40842819213867 -69.60599517822266 -20.57999992370605 L -69.60599517822266 -7.97668981552124 C -68.65507507324219 -12.61097717285156 -64.81974792480469 -15.77999973297119 -59.79399490356445 -15.77999973297119 C -56.38100051879883 -15.77999973297119 -53.51699829101562 -14.31857681274414 -51.73254776000977 -11.92926406860352 L -52.22854232788086 -13.41219043731689 C -52.38156890869141 -13.86971473693848 -52.3051872253418 -14.37292861938477 -52.0233039855957 -14.76445293426514 C -51.74142456054688 -15.15595245361328 -51.28842544555664 -15.38800048828125 -50.80599594116211 -15.38800048828125 L -45.54199600219727 -15.38800048828125 C -44.8671875 -15.38800048828125 -44.27544784545898 -14.93740463256836 -44.09599685668945 -14.28690528869629 L -42.6440315246582 -9.023538589477539 L -41.221923828125 -14.27976226806641 C -41.04497146606445 -14.9337854385376 -40.45154190063477 -15.38800048828125 -39.77399444580078 -15.38800048828125 L -34.67799377441406 -15.38800048828125 C -34.00106811523438 -15.38800048828125 -33.40802001953125 -14.93461894989014 -33.23049545288086 -14.28138065338135 L -31.78700065612793 -8.969882965087891 L -30.32851982116699 -14.28492832183838 C -30.14975738525391 -14.93640518188477 -29.55754280090332 -15.38800048828125 -28.88199615478516 -15.38800048828125 L -23.92599487304688 -15.38800048828125 C -23.44356727600098 -15.38800048828125 -22.99056625366211 -15.15595245361328 -22.70868682861328 -14.76445293426514 C -22.42680549621582 -14.37292861938477 -22.35042381286621 -13.86971473693848 -22.50344848632812 -13.41219043731689 L -27.99144744873047 2.995809316635132 C -28.19606781005859 3.607571363449097 -28.76892471313477 4.019999980926514 -29.41399574279785 4.019999980926514 L -34.42599487304688 4.019999980926514 C -35.0800895690918 4.019999980926514 -35.65878295898438 3.596142768859863 -35.85611343383789 2.97252368927002 L -37.38722229003906 -1.866355299949646 L -38.90266418457031 2.968618869781494 C -39.09873199462891 3.594214200973511 -39.67840194702148 4.019999980926514 -40.3339958190918 4.019999980926514 L -45.31799697875977 4.019999980926514 C -45.96306610107422 4.019999980926514 -46.53592300415039 3.607571363449097 -46.74054336547852 2.995809316635132 L -49.7589111328125 -6.02849292755127 C -49.75564956665039 -5.914430618286133 -49.75399398803711 -5.79932975769043 -49.75399398803711 -5.684000015258789 C -49.75399398803711 -5.065881252288818 -49.79556655883789 -4.474428653717041 -49.88106536865234 -3.875857353210449 C -49.93333053588867 -3.510034322738647 -50.11481475830078 -3.190801620483398 -50.37535095214844 -2.961672306060791 C -50.24762344360352 -2.658002853393555 -50.22199249267578 -2.316997528076172 -50.30906677246094 -1.991904973983765 C -50.81880569458008 -0.08892874419689178 -52.01635360717773 1.531071305274963 -53.77225875854492 2.692928314208984 C -55.47187805175781 3.817547559738159 -57.55416107177734 4.411999702453613 -59.79399490356445 4.411999702453613 Z M -60.21036529541016 -8.808000564575195 L -59.37435913085938 -8.808000564575195 C -59.50644302368164 -8.824075698852539 -59.64622116088867 -8.831999778747559 -59.79399490356445 -8.831999778747559 C -59.94107818603516 -8.831999778747559 -60.07973098754883 -8.824109077453613 -60.21036529541016 -8.808000564575195 Z" stroke="none" fill="#000"/>
          </g>
        </g>
      </g>
    </g>
    <g id="그룹_116239" data-name="그룹 116239">
      <g id="그룹_116236" data-name="그룹 116236" transform="translate(157.34 617.52)">
        <g id="그룹_116235" data-name="그룹 116235" transform="translate(1.226 1.226)">
        <g class="s1">
            <path id="패스_42645" data-name="패스 42645" d="M6.19,7.091a4.1,4.1,0,0,0,.407,6.42,4.111,4.111,0,1,0,2.925,7.623,4.111,4.111,0,1,0,8.018,1.482,4.111,4.111,0,0,0,5.916-5.7,4.166,4.166,0,0,0-.46-.429,4.11,4.11,0,1,0-3.149-7.541,4.111,4.111,0,1,0-7.984-1.7A4.109,4.109,0,0,0,6.19,7.091" transform="translate(-3.5 -3.5)" fill="#fff"/>
            <path id="패스_42646" data-name="패스 42646" d="M6.19,7.091a4.1,4.1,0,0,0,.407,6.42,4.111,4.111,0,1,0,2.925,7.623,4.111,4.111,0,1,0,8.018,1.482,4.111,4.111,0,0,0,5.916-5.7,4.166,4.166,0,0,0-.46-.429,4.11,4.11,0,1,0-3.149-7.541,4.111,4.111,0,1,0-7.984-1.7A4.109,4.109,0,0,0,6.19,7.091Z" transform="translate(-3.5 -3.5)" fill="none" stroke="#fff" stroke-linecap="round" stroke-linejoin="round" stroke-width="4"/>
            <path id="패스_42647" data-name="패스 42647" d="M6.19,7.091a4.1,4.1,0,0,0,.407,6.42,4.111,4.111,0,1,0,2.925,7.623,4.111,4.111,0,1,0,8.018,1.482,4.111,4.111,0,0,0,5.916-5.7,4.166,4.166,0,0,0-.46-.429,4.11,4.11,0,1,0-3.149-7.541,4.111,4.111,0,1,0-7.984-1.7A4.109,4.109,0,0,0,6.19,7.091" transform="translate(-3.5 -3.5)" fill="#fff"/>
            <path id="패스_42648" data-name="패스 42648" d="M6.19,7.091a4.1,4.1,0,0,0,.407,6.42,4.111,4.111,0,1,0,2.925,7.623,4.111,4.111,0,1,0,8.018,1.482,4.111,4.111,0,0,0,5.916-5.7,4.166,4.166,0,0,0-.46-.429,4.11,4.11,0,1,0-3.149-7.541,4.111,4.111,0,1,0-7.984-1.7A4.109,4.109,0,0,0,6.19,7.091Z" transform="translate(-3.5 -3.5)" fill="none" stroke="#000" stroke-linecap="round" stroke-linejoin="round" stroke-width="1.5"/>
            <path id="패스_42649" data-name="패스 42649" d="M31.328,35.468a6.085,6.085,0,1,0,8.216-2.557,6.084,6.084,0,0,0-8.216,2.557" transform="translate(-25.572 -26.86)" fill="#fff"/>
            <path id="패스_42650" data-name="패스 42650" d="M31.153,34.654a4.564,4.564,0,1,0,6.163-1.918A4.563,4.563,0,0,0,31.153,34.654Z" transform="translate(-24.05 -25.339)" fill="#f9e606" stroke="#1d1d1d" stroke-linecap="round" stroke-linejoin="round" stroke-width="1.5"/>
          </g>
        </g>
      </g>
      <g id="그룹_116238" data-name="그룹 116238" transform="translate(278.34 567.519)">
        <g id="그룹_116235-2" data-name="그룹 116235" transform="translate(1.226 1.226)">
         <g class="s2">
            <path id="패스_42645-2" data-name="패스 42645" d="M6.19,7.091a4.1,4.1,0,0,0,.407,6.42,4.111,4.111,0,1,0,2.925,7.623,4.111,4.111,0,1,0,8.018,1.482,4.111,4.111,0,0,0,5.916-5.7,4.166,4.166,0,0,0-.46-.429,4.11,4.11,0,1,0-3.149-7.541,4.111,4.111,0,1,0-7.984-1.7A4.109,4.109,0,0,0,6.19,7.091" transform="translate(-3.5 -3.5)" fill="#fff"/>
            <path id="패스_42646-2" data-name="패스 42646" d="M6.19,7.091a4.1,4.1,0,0,0,.407,6.42,4.111,4.111,0,1,0,2.925,7.623,4.111,4.111,0,1,0,8.018,1.482,4.111,4.111,0,0,0,5.916-5.7,4.166,4.166,0,0,0-.46-.429,4.11,4.11,0,1,0-3.149-7.541,4.111,4.111,0,1,0-7.984-1.7A4.109,4.109,0,0,0,6.19,7.091Z" transform="translate(-3.5 -3.5)" fill="none" stroke="#fff" stroke-linecap="round" stroke-linejoin="round" stroke-width="4"/>
            <path id="패스_42647-2" data-name="패스 42647" d="M6.19,7.091a4.1,4.1,0,0,0,.407,6.42,4.111,4.111,0,1,0,2.925,7.623,4.111,4.111,0,1,0,8.018,1.482,4.111,4.111,0,0,0,5.916-5.7,4.166,4.166,0,0,0-.46-.429,4.11,4.11,0,1,0-3.149-7.541,4.111,4.111,0,1,0-7.984-1.7A4.109,4.109,0,0,0,6.19,7.091" transform="translate(-3.5 -3.5)" fill="#fff"/>
            <path id="패스_42648-2" data-name="패스 42648" d="M6.19,7.091a4.1,4.1,0,0,0,.407,6.42,4.111,4.111,0,1,0,2.925,7.623,4.111,4.111,0,1,0,8.018,1.482,4.111,4.111,0,0,0,5.916-5.7,4.166,4.166,0,0,0-.46-.429,4.11,4.11,0,1,0-3.149-7.541,4.111,4.111,0,1,0-7.984-1.7A4.109,4.109,0,0,0,6.19,7.091Z" transform="translate(-3.5 -3.5)" fill="none" stroke="#000" stroke-linecap="round" stroke-linejoin="round" stroke-width="1.5"/>
            <path id="패스_42649-2" data-name="패스 42649" d="M31.328,35.468a6.085,6.085,0,1,0,8.216-2.557,6.084,6.084,0,0,0-8.216,2.557" transform="translate(-25.572 -26.86)" fill="#fff"/>
            <path id="패스_42650-2" data-name="패스 42650" d="M31.153,34.654a4.564,4.564,0,1,0,6.163-1.918A4.563,4.563,0,0,0,31.153,34.654Z" transform="translate(-24.05 -25.339)" fill="#f9e606" stroke="#1d1d1d" stroke-linecap="round" stroke-linejoin="round" stroke-width="1.5"/>
          </g>
        </g>
      </g>
      <g id="그룹_116237" data-name="그룹 116237" transform="translate(70.34 563.016)" >
        <g id="그룹_116235-3" data-name="그룹 116235" transform="translate(1.226 1.226)">
          <g class="s1">
            <path id="패스_42645-3" data-name="패스 42645" d="M6.19,7.091a4.1,4.1,0,0,0,.407,6.42,4.111,4.111,0,1,0,2.925,7.623,4.111,4.111,0,1,0,8.018,1.482,4.111,4.111,0,0,0,5.916-5.7,4.166,4.166,0,0,0-.46-.429,4.11,4.11,0,1,0-3.149-7.541,4.111,4.111,0,1,0-7.984-1.7A4.109,4.109,0,0,0,6.19,7.091" transform="translate(-3.5 -3.5)" fill="#fff"/>
            <path id="패스_42646-3" data-name="패스 42646" d="M6.19,7.091a4.1,4.1,0,0,0,.407,6.42,4.111,4.111,0,1,0,2.925,7.623,4.111,4.111,0,1,0,8.018,1.482,4.111,4.111,0,0,0,5.916-5.7,4.166,4.166,0,0,0-.46-.429,4.11,4.11,0,1,0-3.149-7.541,4.111,4.111,0,1,0-7.984-1.7A4.109,4.109,0,0,0,6.19,7.091Z" transform="translate(-3.5 -3.5)" fill="none" stroke="#fff" stroke-linecap="round" stroke-linejoin="round" stroke-width="4"/>
            <path id="패스_42647-3" data-name="패스 42647" d="M6.19,7.091a4.1,4.1,0,0,0,.407,6.42,4.111,4.111,0,1,0,2.925,7.623,4.111,4.111,0,1,0,8.018,1.482,4.111,4.111,0,0,0,5.916-5.7,4.166,4.166,0,0,0-.46-.429,4.11,4.11,0,1,0-3.149-7.541,4.111,4.111,0,1,0-7.984-1.7A4.109,4.109,0,0,0,6.19,7.091" transform="translate(-3.5 -3.5)" fill="#fff"/>
            <path id="패스_42648-3" data-name="패스 42648" d="M6.19,7.091a4.1,4.1,0,0,0,.407,6.42,4.111,4.111,0,1,0,2.925,7.623,4.111,4.111,0,1,0,8.018,1.482,4.111,4.111,0,0,0,5.916-5.7,4.166,4.166,0,0,0-.46-.429,4.11,4.11,0,1,0-3.149-7.541,4.111,4.111,0,1,0-7.984-1.7A4.109,4.109,0,0,0,6.19,7.091Z" transform="translate(-3.5 -3.5)" fill="none" stroke="#000" stroke-linecap="round" stroke-linejoin="round" stroke-width="1.5"/>
            <path id="패스_42649-3" data-name="패스 42649" d="M31.328,35.468a6.085,6.085,0,1,0,8.216-2.557,6.084,6.084,0,0,0-8.216,2.557" transform="translate(-25.572 -26.86)" fill="#fff"/>
            <path id="패스_42650-3" data-name="패스 42650" d="M31.153,34.654a4.564,4.564,0,1,0,6.163-1.918A4.563,4.563,0,0,0,31.153,34.654Z" transform="translate(-24.05 -25.339)" fill="#f9e606" stroke="#1d1d1d" stroke-linecap="round" stroke-linejoin="round" stroke-width="1.5"/>
          </g>
        </g>
      </g>
    </g>
  </g>
</svg>
