<?xml version="1.0" encoding="utf-8"?>
<!-- Generator: Adobe Illustrator 26.3.1, SVG Export Plug-In . SVG Version: 6.00 Build 0)  -->
<svg version="1.1" xmlns="http://www.w3.org/2000/svg" xmlns:xlink="http://www.w3.org/1999/xlink" x="0px" y="0px"
	 viewBox="0 0 225 78" style="enable-background:new 0 0 225 78;" xml:space="preserve">
<style type="text/css">
.st0{fill:#FFDF5B;}
.st1{fill:#FFFFFF;}
.st2{fill:none;stroke:#000000;stroke-width:2;}
.st3{fill:#30395A;stroke:#000000;stroke-width:3;}
.st4{fill:#F38AB3;}

.s1 {position:relative;animation:rotate both linear infinite 4s;transform-origin:93.6% 23.3%;}

@keyframes rotate {
0% {rotate(0deg);}
100% {transform:rotate(360deg);}
}

</style>
<g id="레이어_1">
	<g id="합치기_160" transform="translate(-15976 6497)">
		<path class="st0" d="M16196-6429h-209v-56v-11h50.7l2.4,11.2l0.2,0.8h0.8h154.9V-6429z"/>
		<path d="M16195-6430v-53h-155.5l-2.6-12h-48.9v65H16195 M16197-6428h-211v-69h52.6l2.6,12h155.9V-6428z"/>
	</g>
	<g id="사각형_22106" transform="translate(-15981 6518)">
		<rect x="15986" y="-6502" class="st1" width="211" height="57"/>
		<rect x="15987" y="-6501" class="st2" width="209" height="55"/>
	</g>
	<g id="사각형_22101" transform="translate(-15986 6523)">
		<rect x="15986" y="-6502" class="st0" width="211" height="57"/>
		<rect x="15987" y="-6501" class="st2" width="209" height="55"/>
	</g>
	<path id="패스_42584" d="M29.9,38c-5.2,0-9.2,2.5-9.2,6.6c0,4.3,2.7,6.3,7.6,7.3c4.1,0.8,5.6,1.5,5.6,3.3c0,1.5-1.5,2.5-3.6,2.5
		c-2.9,0-4.8-1.5-5.1-3.6H20c0.2,4.9,4.3,7.9,10,7.9c5.1,0,9.2-2.7,9.2-7c0-3.4-1.8-6-7.1-7.1c-4.5-0.9-6.2-1.5-6.2-3.2
		c0-1.4,1.3-2.3,3.7-2.3c2.4,0,3.9,1.2,4.2,3.2h5.3C38.8,41.1,35,38,29.9,38z M51.8,44.9h-3.2v-4.9h-5v4.9h-3.2v4.3h3.2v12.1h5V49.2
		h3.2L51.8,44.9z M56.3,37c-1.6-0.1-3,1.2-3.1,2.9c0,0.1,0,0.1,0,0.2c-0.1,1.6,1.2,3,2.9,3.1c0.1,0,0.1,0,0.2,0
		c1.6,0.1,3-1.2,3.1-2.9c0-0.1,0-0.1,0-0.2c0.1-1.6-1.2-3-2.9-3.1C56.5,37,56.4,37,56.3,37z M58.8,44.9h-5v16.5h5V44.9z M78.4,55.4
		h-5c-0.5,1.3-1.8,2-3.1,2c-2.3,0-3.8-1.8-3.8-4.3s1.5-4.3,3.8-4.3c1.3-0.1,2.6,0.7,3.1,1.9h5c-0.6-3.5-3.8-6.2-8.1-6.2
		c-4.6-0.2-8.5,3.4-8.7,8c0,0.2,0,0.4,0,0.6c-0.1,4.6,3.5,8.5,8.1,8.6c0.2,0,0.4,0,0.6,0C74.1,61.9,77.5,59.2,78.4,55.4z M91.7,61.3
		h5.7l-6.6-9.4l6.3-7h-5.5l-5.8,6.7V37.8h-5v23.5h5v-3.8l2-2.2L91.7,61.3z M105.7,61.7c4,0,7.2-2.2,8-5.3h-5c-0.7,0.9-1.9,1.4-3,1.3
		c-1.8,0.1-3.3-1.2-3.6-3h12c0.1-0.5,0.1-1.1,0.1-1.6c0.2-4.5-3.3-8.4-7.9-8.6c-0.2,0-0.5,0-0.7,0c-4.6-0.2-8.4,3.4-8.5,7.9
		c0,0.2,0,0.4,0,0.7c-0.2,4.5,3.3,8.4,7.8,8.6C105.2,61.7,105.4,61.7,105.7,61.7z M102.1,51.5c0.2-1.8,1.8-3.1,3.6-3
		c1.8-0.1,3.4,1.2,3.7,3H102.1z M116.9,61.3h5v-8.4c0-2.5,1.6-4,4.3-4c0.9,0,1.8,0.2,2.5,0.6l-0.1-4.7c-0.7-0.2-1.4-0.3-2.2-0.3
		c-1.8-0.1-3.5,0.7-4.6,2.1v-1.7h-5V61.3z M138.5,61.3h5.1v-8.7h10.4v-4.4h-10.4V43h11.6v-4.5h-16.7V61.3z M160.1,37
		c-1.6-0.1-3,1.2-3.1,2.9c0,0.1,0,0.1,0,0.2c-0.1,1.6,1.2,3,2.9,3.1c0.1,0,0.1,0,0.2,0c1.6,0.1,3-1.2,3.1-2.9c0-0.1,0-0.1,0-0.2
		c0.1-1.6-1.2-3-2.9-3.1C160.2,37,160.1,37,160.1,37z M162.6,44.9h-5v16.5h5L162.6,44.9z M171,37.8h-5v23.5h5V37.8z M182.2,61.7
		c4,0,7.2-2.2,8-5.3h-5c-0.7,0.9-1.9,1.4-3,1.3c-1.8,0.1-3.3-1.2-3.6-3h12c0.1-0.5,0.1-1.1,0.1-1.6c0.2-4.5-3.3-8.4-7.9-8.6
		c-0.2,0-0.5,0-0.7,0c-4.6-0.2-8.4,3.4-8.5,7.9c0,0.2,0,0.4,0,0.7c-0.2,4.5,3.3,8.4,7.8,8.6C181.7,61.7,182,61.7,182.2,61.7z
		 M178.6,51.5c0.2-1.8,1.8-3.1,3.6-3c1.8-0.1,3.4,1.2,3.7,3H178.6z"/>
</g>
<g id="레이어_2" class="s1">
	<g>
		<path id="패스_42658" class="st3" d="M221.6,19.9c-0.6-0.4-1.2-0.6-1.9-0.7c-2,0-4-0.4-5.9-1.1l-0.4-0.1l0,0
			c2-0.8,4.1-1.2,6.2-1.3c1.9-0.1,3.4-1.6,3.4-3.6c0-0.7-0.3-1.4-0.7-2c-1.1-1.5-3.3-1.9-4.8-0.7c-0.3,0.3-0.6,0.6-0.9,0.9
			c-1,1.7-2.4,3.2-3.9,4.5l-0.3,0.2l0,0c0.3-2.1,1-4.1,2-6c0.9-1.7,0.3-3.8-1.4-4.7c-0.6-0.3-1.3-0.5-2.1-0.4
			c-1.9,0.2-3.3,1.9-3.1,3.8c0,0.4,0.2,0.8,0.4,1.2c1,1.8,1.6,3.7,2,5.6l0.1,0.4l0,0c-1.7-1.3-3.1-2.9-4.2-4.7
			c-1-1.6-3.1-2.1-4.8-1.1c-0.6,0.4-1.1,0.9-1.4,1.6c-0.8,1.8,0,3.8,1.8,4.6c0.4,0.2,0.8,0.3,1.2,0.3c2,0,4,0.4,5.9,1.1l0.4,0.1l0,0
			c-2,0.8-4.1,1.2-6.2,1.3c-1.9,0-3.4,1.6-3.4,3.6c0,0.7,0.3,1.4,0.7,2c1.1,1.5,3.3,1.9,4.8,0.7c0.3-0.3,0.6-0.6,0.9-0.9
			c1-1.7,2.4-3.2,3.9-4.5l0.3-0.2l0,0c-0.3,2.1-1,4.1-2,6c-0.9,1.7-0.3,3.8,1.4,4.7c0.6,0.3,1.3,0.5,2.1,0.4
			c1.9-0.2,3.3-1.9,3.1-3.8c0-0.4-0.2-0.8-0.4-1.2c-1-1.8-1.6-3.7-2-5.6l-0.1-0.4l0,0c1.7,1.3,3.1,2.9,4.2,4.7
			c0.3,0.5,0.7,0.9,1.2,1.2c1.7,1,3.8,0.4,4.7-1.3C223.4,22.9,223,21,221.6,19.9"/>
	</g>
	<path id="패스_42659" class="st4" d="M221.6,19.9c-0.6-0.4-1.2-0.6-1.9-0.7c-2,0-4-0.4-5.9-1.1l-0.4-0.1l0,0
		c2-0.8,4.1-1.2,6.2-1.3c1.9-0.1,3.4-1.6,3.4-3.6c0-0.7-0.3-1.4-0.7-2c-1.1-1.5-3.3-1.9-4.8-0.7c-0.3,0.3-0.6,0.6-0.9,0.9
		c-1,1.7-2.4,3.2-3.9,4.5l-0.3,0.2l0,0c0.3-2.1,1-4.1,2-6c0.9-1.7,0.3-3.8-1.4-4.7c-0.6-0.3-1.3-0.5-2.1-0.4
		c-1.9,0.2-3.3,1.9-3.1,3.8c0,0.4,0.2,0.8,0.4,1.2c1,1.8,1.6,3.7,2,5.6l0.1,0.4l0,0c-1.7-1.3-3.1-2.9-4.2-4.7
		c-1-1.6-3.1-2.1-4.8-1.1c-0.6,0.4-1.1,0.9-1.4,1.6c-0.8,1.8,0,3.8,1.8,4.6c0.4,0.2,0.8,0.3,1.2,0.3c2,0,4,0.4,5.9,1.1l0.4,0.1l0,0
		c-2,0.8-4.1,1.2-6.2,1.3c-1.9,0-3.4,1.6-3.4,3.6c0,0.7,0.3,1.4,0.7,2c1.1,1.5,3.3,1.9,4.8,0.7c0.3-0.3,0.6-0.6,0.9-0.9
		c1-1.7,2.4-3.2,3.9-4.5l0.3-0.2l0,0c-0.3,2.1-1,4.1-2,6c-0.9,1.7-0.3,3.8,1.4,4.7c0.6,0.3,1.3,0.5,2.1,0.4c1.9-0.2,3.3-1.9,3.1-3.8
		c0-0.4-0.2-0.8-0.4-1.2c-1-1.8-1.6-3.7-2-5.6l-0.1-0.4l0,0c1.7,1.3,3.1,2.9,4.2,4.7c0.3,0.5,0.7,0.9,1.2,1.2c1.7,1,3.8,0.4,4.7-1.3
		C223.4,22.9,223,21,221.6,19.9"/>
</g>
</svg>
