<?xml version="1.0" encoding="utf-8"?>
<!-- Generator: Adobe Illustrator 26.0.3, SVG Export Plug-In . SVG Version: 6.00 Build 0)  -->
<svg version="1.1" xmlns="http://www.w3.org/2000/svg" xmlns:xlink="http://www.w3.org/1999/xlink" x="0px" y="0px" viewBox="0 0 35 37" style="enable-background:new 0 0 35 27;" xml:space="preserve">
<style type="text/css">
.s1 {animation:fade both infinite 3s;}
.s2 {animation:fade2 both infinite 3s;}
.s3 {animation:fade3 both infinite 3s;}

@keyframes fade{
0% {opacity:0;}
40% {opacity:1;}
90% {opacity:1;}
100% {opacity:0;}
}
@keyframes fade2{
0% {opacity:0;}
10% {opacity:0;}
50% {opacity:1;}
90% {opacity:1;}
100% {opacity:0;}
}
@keyframes fade3{
0% {opacity:0;}
20% {opacity:0;}
60% {opacity:1;}
90% {opacity:1;}
100% {opacity:0;}
}

.b1 {position:relative;animation:fade_s both infinite 3s;}
@keyframes fade_s {
0% {opacity:0.1;}	
25% {opacity:1;}
50% {opacity:0.1;}
75% {opacity:1;}
100% {opacity:0.1;}
}
</style>

    <g id="Group_110154" data-name="Group 110154" transform="translate(-245.887 -711.662)">
        <path id="Path_37261" class="b1" data-name="Path 37261" d="M156.041,68.933a5.817,5.817,0,0,0-7.528,3.5,5.816,5.816,0,0,0-3.64-7.461,5.944,5.944,0,0,0-7.387,3.755l-.117.33A14.8,14.8,0,0,0,139.9,83.416l3.3,4.009,5.09-1.033a14.8,14.8,0,0,0,11.008-9.559l.117-.33a5.943,5.943,0,0,0-3.371-7.57" transform="translate(110.49 650)" fill="#f06a86"/>
        <path id="Path_37262" class="b" data-name="Path 37262" d="M156.041,68.933a5.817,5.817,0,0,0-7.528,3.5,5.816,5.816,0,0,0-3.64-7.461,5.944,5.944,0,0,0-7.387,3.755l-.117.33A14.8,14.8,0,0,0,139.9,83.416l3.3,4.009,5.09-1.033a14.8,14.8,0,0,0,11.008-9.559l.117-.33A5.943,5.943,0,0,0,156.041,68.933Z" transform="translate(110.49 650)" fill="none" stroke="#000" stroke-linecap="round" stroke-linejoin="round" stroke-width="2"/>
        
        <path class="s1" id="Path_37333" data-name="Path 37333" d="M-21365.65-24027.869l-1.75,3.342" transform="translate(21638.596 24740.883)" fill="none" stroke="#000" stroke-linecap="round" stroke-width="2"/>
        <path class="s2" id="Path_37334" data-name="Path 37334" d="M1.75,0,0,3.34" transform="translate(276.168 717.541) rotate(48)" fill="none" stroke="#000" stroke-linecap="round" stroke-width="2"/>
        <path class="s3" id="Path_37335" data-name="Path 37335" d="M1.75,0,0,3.342" transform="translate(277.863 722.832) rotate(72)" fill="none" stroke="#000" stroke-linecap="round" stroke-width="2"/>
    </g>
</svg>
