<?xml version="1.0" encoding="utf-8"?>
<!-- Generator: Adobe Illustrator 26.0.2, SVG Export Plug-In . SVG Version: 6.00 Build 0)  -->
<svg version="1.1" xmlns="http://www.w3.org/2000/svg" xmlns:xlink="http://www.w3.org/1999/xlink" x="0px" y="0px" viewBox="0 0 270 160" style="enable-background:new 0 0 270 160;" xml:space="preserve">
<style type="text/css">
.st0{fill:#7582f0;}
.st1{fill:none;stroke:#19154A;stroke-width:2;stroke-linecap:round;stroke-linejoin:round;}
.st2{enable-background:new;}
.st3{fill:#FFFFFF;}
.st4{fill:none;stroke:#000000;}
.st5{fill:none;stroke:#000000;stroke-width:2;}
.st6{fill:none;stroke:#000000;stroke-width:2;stroke-linecap:round;stroke-miterlimit:4;}
.st7{fill:none;stroke:#000000;stroke-width:2;stroke-linecap:round;stroke-linejoin:round;}
.st8{stroke:#000000;stroke-width:1.2;}
.st9{fill:none;stroke:#000000;stroke-width:1.2;stroke-linecap:round;stroke-linejoin:round;}
.st10{fill:#F99F1B;stroke:#000000;stroke-width:1.2;}
.st11{fill:#FDC215;}
.st12{fill:#707071;}
.st13{fill:none;}
.st14{fill:#19154A;}
.st15{fill:#F15E22;}


.bump {transform-origin:77% 78%;animation:bump both linear infinite 2s;}
@keyframes bump {
0% {transform:scale(1.05) rotate(-30deg);}
50% {transform:scale(0.98) rotate(0deg);}
100% {transform:scale(1.05) rotate(-30deg);}
}

.bump_a {transform-origin:91% 63.5%;animation:bump_a both linear infinite 1.0s;}
@keyframes bump_a {
0% {transform:scale(0.6) translate(-4px, 2px) rotate(0);}
50% {transform:scale(1.0) translate(-4px, 2px) rotate(0deg);}
100% {transform:scale(0.6) translate(-4px,2px) rotate(0deg);}
}

.star {position:relative;animation:star both infinite 4s;}
.star.s1 {transform-origin:8% 58%;}
.star.s2 {transform-origin:65% 14%;animation-delay:0.5s;}

@keyframes star {
0% {transform:scale(0.6);opacity:1;}	
20% {transform:scale(1.1);opacity:1;}
40% {transform:scale(0.8);}	
58% {transform:scale(1);}
100% {transform:scale(1);}
}
</style>
<g id="bg">
	<path id="Path_36362" class="st0" d="M252.38,74.08c2.73-5.76,4.15-12.06,4.14-18.43c0-24.4-20.33-44.19-45.41-44.19
		c-15.42-0.07-29.84,7.64-38.33,20.51c-12.38-15.88-34.42-20.5-52.13-10.91C111.1,9.19,96.66,2.3,81.42,2.33
		c-27.4,0-49.62,21.62-49.62,48.28c0,0.77,0.02,1.54,0.06,2.31c-11.35,7.69-18.17,20.49-18.22,34.2c0,23.12,19.27,41.87,43.03,41.87
		c2.08,0,4.16-0.15,6.22-0.44c7.93,17.81,28.79,25.82,46.6,17.89c6.27-2.79,11.59-7.35,15.31-13.12
		c17.24,7.59,37.22,5.52,52.54-5.45c6.25,9.09,16.59,14.5,27.62,14.45c16.23,0,29.73-11.37,32.56-26.36c2.19,0.66,4.47,1,6.76,0.99
		c12.58,0,22.77-9.92,22.77-22.16C266.98,85.5,261.13,77.23,252.38,74.08"/>
	<path id="Path_36363" class="st1" d="M252.38,74.08c2.73-5.76,4.15-12.06,4.14-18.43c0-24.4-20.33-44.19-45.41-44.19
		c-15.42-0.07-29.84,7.64-38.33,20.51c-12.38-15.88-34.42-20.5-52.13-10.91c-9.54-11.9-23.98-18.8-39.23-18.74
		c-27.4,0-49.62,21.62-49.62,48.28c0,0.77,0.02,1.54,0.06,2.31c-11.35,7.69-18.17,20.49-18.22,34.2c0,23.12,19.27,41.87,43.03,41.87
		c2.08,0,4.16-0.15,6.22-0.44c7.93,17.81,28.79,25.82,46.6,17.89c6.27-2.79,11.59-7.35,15.31-13.12
		c17.24,7.59,37.22,5.52,52.54-5.45c6.25,9.09,16.59,14.5,27.62,14.45c16.23,0,29.73-11.37,32.56-26.36c2.19,0.66,4.47,1,6.76,0.99
		c12.58,0,22.77-9.92,22.77-22.16C266.98,85.5,261.13,77.23,252.38,74.08z"/>
	<g>
		<g transform="matrix(1, 0, 0, 1, 0, 0)">
			<g class="st2">
				<path d="M85.28,71.81v5.69h-31.1v-5.69h12.45v-4.32c-6.84-0.86-11.27-4.61-11.27-9.72c0-5.83,5.8-9.9,14.36-9.9
					s14.36,4.07,14.36,9.9c0,5.11-4.43,8.85-11.27,9.72v4.32H85.28z M69.73,62.2c4.68,0,7.92-1.8,7.92-4.43
					c0-2.66-3.24-4.43-7.92-4.43c-4.68,0-7.92,1.76-7.92,4.43C61.81,60.4,65.05,62.2,69.73,62.2z"/>
				<path d="M119.01,64.11h-31.1v-4.43h31.1V64.11z M117.21,73.57H95.69v1.15h21.85v3.85H89.75v-8.24h21.53v-1.12h-21.6V65.4h27.54
					V73.57z M95.83,53.85h21.67v4.54H89.78V47.66h6.05V53.85z"/>
				<path d="M141.08,65.69h-18.75V48.2h18.75V65.69z M129.56,73.11h21.38v5.47h-27.57V67.81h6.19V73.11z M135.07,53.34h-6.73v7.2
					h6.73V53.34z M154.11,53.96v5.9h-3.6v10.73h-6.08V47.84h6.08v6.12H154.11z"/>
				<path d="M195.65,63.71v4.64h-31.1v-4.64H195.65z M166.21,69.72h27.64v9.21h-6.16v-4.57h-21.49V69.72z M194.14,62.34h-27.68
					V47.84h27.32v4.03h-21.31v1.44h20.81v3.6h-20.81v1.44h21.67V62.34z"/>
				<path d="M199.15,48.56h17.39v8.31c0,12.49-6.73,20.27-17.39,20.27v-5.76c7.38-0.07,11.2-5.51,11.2-14.51V54.1h-11.2V48.56z
					 M230.75,64.97h-3.6v13.61h-6.08V47.84h6.08v11.23h3.6V64.97z"/>
			</g>
			<g class="st2">
				<path d="M85.28,71.81v5.69h-31.1v-5.69h12.45v-4.32c-6.84-0.86-11.27-4.61-11.27-9.72c0-5.83,5.8-9.9,14.36-9.9
					s14.36,4.07,14.36,9.9c0,5.11-4.43,8.85-11.27,9.72v4.32H85.28z M69.73,62.2c4.68,0,7.92-1.8,7.92-4.43
					c0-2.66-3.24-4.43-7.92-4.43c-4.68,0-7.92,1.76-7.92,4.43C61.81,60.4,65.05,62.2,69.73,62.2z"/>
				<path d="M119.01,64.11h-31.1v-4.43h31.1V64.11z M117.21,73.57H95.69v1.15h21.85v3.85H89.75v-8.24h21.53v-1.12h-21.6V65.4h27.54
					V73.57z M95.83,53.85h21.67v4.54H89.78V47.66h6.05V53.85z"/>
				<path d="M141.08,65.69h-18.75V48.2h18.75V65.69z M129.56,73.11h21.38v5.47h-27.57V67.81h6.19V73.11z M135.07,53.34h-6.73v7.2
					h6.73V53.34z M154.11,53.96v5.9h-3.6v10.73h-6.08V47.84h6.08v6.12H154.11z"/>
				<path d="M195.65,63.71v4.64h-31.1v-4.64H195.65z M166.21,69.72h27.64v9.21h-6.16v-4.57h-21.49V69.72z M194.14,62.34h-27.68
					V47.84h27.32v4.03h-21.31v1.44h20.81v3.6h-20.81v1.44h21.67V62.34z"/>
				<path d="M199.15,48.56h17.39v8.31c0,12.49-6.73,20.27-17.39,20.27v-5.76c7.38-0.07,11.2-5.51,11.2-14.51V54.1h-11.2V48.56z
					 M230.75,64.97h-3.6v13.61h-6.08V47.84h6.08v11.23h3.6V64.97z"/>
			</g>
		</g>
		<g transform="matrix(1, 0, 0, 1, 0, 0)">
			<g class="st2">
				<path class="st3" d="M83.04,69.41v5.69h-31.1v-5.69H64.4v-4.32c-6.84-0.86-11.27-4.61-11.27-9.72c0-5.83,5.8-9.9,14.36-9.9
					s14.36,4.07,14.36,9.9c0,5.11-4.43,8.85-11.27,9.72v4.32H83.04z M67.49,59.8c4.68,0,7.92-1.8,7.92-4.43
					c0-2.66-3.24-4.43-7.92-4.43c-4.68,0-7.92,1.76-7.92,4.43C59.57,58,62.81,59.8,67.49,59.8z"/>
				<path class="st3" d="M116.77,61.7h-31.1v-4.43h31.1V61.7z M114.97,71.17H93.45v1.15h21.85v3.85H87.51v-8.24h21.53v-1.12h-21.6
					V63h27.54V71.17z M93.59,51.44h21.67v4.54H87.54V45.25h6.05V51.44z"/>
				<path class="st3" d="M138.84,63.29h-18.75V45.79h18.75V63.29z M127.32,70.7h21.38v5.47h-27.57V65.41h6.19V70.7z M132.83,50.94
					h-6.73v7.2h6.73V50.94z M151.87,51.55v5.9h-3.6v10.73h-6.08V45.43h6.08v6.12H151.87z"/>
				<path class="st3" d="M193.42,61.31v4.64h-31.1v-4.64H193.42z M163.97,67.32h27.64v9.21h-6.16v-4.57h-21.49V67.32z M191.9,59.94
					h-27.68V45.43h27.32v4.03h-21.31v1.44h20.81v3.6h-20.81v1.44h21.67V59.94z"/>
				<path class="st3" d="M196.91,46.15h17.39v8.31c0,12.49-6.73,20.27-17.39,20.27v-5.76c7.38-0.07,11.2-5.51,11.2-14.51V51.7h-11.2
					V46.15z M228.52,62.57h-3.6v13.61h-6.08V45.43h6.08v11.23h3.6V62.57z"/>
			</g>
			<g class="st2">
				<path class="st4" d="M83.04,69.41v5.69h-31.1v-5.69H64.4v-4.32c-6.84-0.86-11.27-4.61-11.27-9.72c0-5.83,5.8-9.9,14.36-9.9
					s14.36,4.07,14.36,9.9c0,5.11-4.43,8.85-11.27,9.72v4.32H83.04z M67.49,59.8c4.68,0,7.92-1.8,7.92-4.43
					c0-2.66-3.24-4.43-7.92-4.43c-4.68,0-7.92,1.76-7.92,4.43C59.57,58,62.81,59.8,67.49,59.8z"/>
				<path class="st4" d="M116.77,61.7h-31.1v-4.43h31.1V61.7z M114.97,71.17H93.45v1.15h21.85v3.85H87.51v-8.24h21.53v-1.12h-21.6
					V63h27.54V71.17z M93.59,51.44h21.67v4.54H87.54V45.25h6.05V51.44z"/>
				<path class="st4" d="M138.84,63.29h-18.75V45.79h18.75V63.29z M127.32,70.7h21.38v5.47h-27.57V65.41h6.19V70.7z M132.83,50.94
					h-6.73v7.2h6.73V50.94z M151.87,51.55v5.9h-3.6v10.73h-6.08V45.43h6.08v6.12H151.87z"/>
				<path class="st4" d="M193.42,61.31v4.64h-31.1v-4.64H193.42z M163.97,67.32h27.64v9.21h-6.16v-4.57h-21.49V67.32z M191.9,59.94
					h-27.68V45.43h27.32v4.03h-21.31v1.44h20.81v3.6h-20.81v1.44h21.67V59.94z"/>
				<path class="st4" d="M196.91,46.15h17.39v8.31c0,12.49-6.73,20.27-17.39,20.27v-5.76c7.38-0.07,11.2-5.51,11.2-14.51V51.7h-11.2
					V46.15z M228.52,62.57h-3.6v13.61h-6.08V45.43h6.08v11.23h3.6V62.57z"/>
			</g>
		</g>
	</g>
	<g id="Ellipse_631" transform="translate(103.656 143.871) rotate(-7)">
		<ellipse transform="matrix(-1 2.855981e-06 -2.855981e-06 -1 48.709 -40.8444)" cx="24.35" cy="-20.42" rx="79.24" ry="30.61"/>
		
			<ellipse transform="matrix(-1 2.855981e-06 -2.855981e-06 -1 48.709 -40.8444)" class="st5" cx="24.35" cy="-20.42" rx="78.24" ry="29.61"/>
	</g>
	<path id="Path_37094" class="st6" d="M231.16,109.07c0,0,2.38,2.67,3.28-0.23c0.89-2.9,1.98-0.53,3.99-2.54"/>
</g>
<g id="bump">
	<g class="bump">
		<path id="Path_37084_00000005971141105523294480000011321332103943482786_" class="st3" d="M182.36,113.34
			c-5.07,14.01,2.18,29.47,16.18,34.53s29.47-2.18,34.53-16.18c5.07-14.01-2.18-29.47-16.18-34.53c0,0,0,0,0,0
			C202.88,92.09,187.43,99.34,182.36,113.34"/>
		<path id="Path_37085_00000026848293181642988790000002855631758536594353_" class="st7" d="M182.36,113.34
			c-5.07,14.01,2.18,29.47,16.18,34.53s29.47-2.18,34.53-16.18c5.07-14.01-2.18-29.47-16.18-34.53c0,0,0,0,0,0
			C202.88,92.09,187.43,99.34,182.36,113.34z"/>
		<path id="Path_37086_00000026120902036658130970000016598888039378107787_" class="st8" d="M212.69,119.68
			c-0.73,2-0.68,3.86,0.1,4.14s2-1.11,2.73-3.12c0.73-2,0.68-3.86-0.1-4.14C214.64,116.28,213.42,117.68,212.69,119.68"/>
		<path id="Path_37088_00000044151127791501779660000009679822471302494604_" class="st8" d="M202.88,116.13
			c-0.72,2-0.68,3.86,0.1,4.14s2-1.11,2.73-3.12c0.73-2,0.68-3.86-0.1-4.14C204.82,112.73,203.61,114.13,202.88,116.13"/>
		<path id="Path_37090_00000091708174166926013570000001568622732550500751_" class="st9" d="M220.96,130.46
			c-6.5,6.55-17.07,6.59-23.62,0.09c-2.8-2.78-4.53-6.46-4.87-10.39"/>
		<path id="Path_37091_00000008835428131413361470000001865329277805532293_" class="st9" d="M220.29,127.4
			c-0.35,1.06-0.09,2.22,0.68,3.03c0.62,0.93,1.7,1.44,2.81,1.32"/>
		<path id="Path_37092_00000025427374033712388190000004727568208012284304_" class="st9" d="M194.93,118.23
			c-0.86,1.75-2.97,2.46-4.72,1.6c-0.27-0.13-0.52-0.3-0.74-0.49"/>
		<path id="Path_37093_00000116234048029265409450000015901465202053607064_" class="st10" d="M202.57,124.54
			c-0.73,1.72,0.41,3.84,2.52,4.73c2.12,0.89,4.42,0.22,5.15-1.5c0.72-1.72-0.41-3.84-2.52-4.73
			C205.6,122.15,203.29,122.82,202.57,124.54"/>
	</g>
</g>
<g id="star">
	<g class="star s1">
		<path id="Path_36382" class="st11" d="M16.59,79.5l4.52,6.68l7.93-1.43c1.12-0.2,2.2,0.54,2.4,1.66c0.1,0.58-0.04,1.17-0.4,1.64
			l-4.95,6.36l3.82,7.1c0.54,1,0.16,2.26-0.84,2.8c-0.52,0.28-1.13,0.32-1.68,0.12l-7.58-2.74l-5.57,5.82
			c-0.79,0.82-2.1,0.85-2.92,0.06c-0.43-0.41-0.66-0.98-0.64-1.56l0.27-8.06l-7.26-3.5c-1.03-0.5-1.46-1.73-0.96-2.76
			C2.97,91.16,3.43,90.76,4,90.6l7.75-2.24l1.09-7.99c0.15-1.13,1.19-1.92,2.32-1.77C15.74,78.69,16.26,79.01,16.59,79.5"/>
		<path id="Path_36383" class="st1" d="M16.59,79.5l4.52,6.68l7.93-1.43c1.12-0.2,2.2,0.54,2.4,1.66c0.1,0.58-0.04,1.17-0.4,1.64
			l-4.95,6.36l3.82,7.1c0.54,1,0.16,2.26-0.84,2.8c-0.52,0.28-1.13,0.32-1.68,0.12l-7.58-2.74l-5.57,5.82
			c-0.79,0.82-2.1,0.85-2.92,0.06c-0.43-0.41-0.66-0.98-0.64-1.56l0.27-8.06l-7.26-3.5c-1.03-0.5-1.46-1.73-0.96-2.76
			C2.97,91.16,3.43,90.76,4,90.6l7.75-2.24l1.09-7.99c0.16-1.13,1.2-1.92,2.33-1.76C15.74,78.69,16.26,79.01,16.59,79.5z"/>
	</g>
	<g class="star s2">
		<g id="Path_36380" transform="translate(219.45 51.884)">
			<path class="st11" d="M-40.76-41.05l0.56,7.91l7.51,2.68c0.41,0.14,0.76,0.41,1,0.76c0.63,0.92,0.4,2.17-0.52,2.8
				c-0.13,0.09-0.27,0.16-0.41,0.22l-7.4,2.96l-0.26,7.87c-0.01,0.43-0.15,0.84-0.42,1.17c-0.25,0.31-0.58,0.54-0.95,0.67
				c-0.38,0.13-0.78,0.15-1.17,0.06c-0.42-0.1-0.79-0.34-1.06-0.66l-5.12-6.03l-7.65,2.19c-0.41,0.12-0.85,0.11-1.26-0.03
				c-0.37-0.13-0.7-0.37-0.94-0.69c-0.24-0.31-0.39-0.69-0.42-1.08c-0.03-0.42,0.08-0.85,0.31-1.21l4.21-6.7l-4.5-6.54
				c-0.25-0.35-0.37-0.77-0.36-1.2c0.01-0.4,0.14-0.78,0.37-1.1c0.23-0.33,0.54-0.58,0.91-0.73c0.4-0.16,0.84-0.19,1.26-0.08
				l7.76,1.91l4.9-6.27c0.26-0.34,0.63-0.59,1.04-0.71c0.78-0.22,1.62,0.03,2.16,0.65C-40.95-41.88-40.79-41.47-40.76-41.05"/>
			<path class="st12" d="M-42.34-12.9c-0.22,0-0.44-0.02-0.66-0.07c-0.21-0.05-0.42-0.12-0.61-0.21c-0.2-0.09-0.38-0.2-0.55-0.34
				c-0.17-0.13-0.34-0.29-0.48-0.46l-4.71-5.53l-7.02,2.01c-0.07,0.02-0.14,0.04-0.22,0.05c-0.07,0.02-0.14,0.03-0.22,0.04
				c-0.07,0.01-0.14,0.02-0.22,0.02s-0.14,0.01-0.22,0.01c-0.27,0-0.54-0.04-0.8-0.11c-0.26-0.07-0.5-0.18-0.73-0.31
				c-0.23-0.13-0.44-0.3-0.63-0.49c-0.19-0.19-0.35-0.41-0.49-0.65c-0.14-0.24-0.24-0.49-0.3-0.75c-0.06-0.26-0.09-0.52-0.09-0.78
				c0.01-0.26,0.05-0.52,0.13-0.78c0.08-0.25,0.19-0.5,0.34-0.74l3.86-6.15l-4.13-6.01c-0.16-0.24-0.29-0.48-0.38-0.74
				c-0.09-0.26-0.14-0.52-0.16-0.79c-0.02-0.27,0.01-0.54,0.06-0.8c0.06-0.26,0.15-0.52,0.29-0.78c0.13-0.25,0.3-0.48,0.48-0.67
				c0.19-0.2,0.4-0.37,0.63-0.51c0.23-0.14,0.48-0.25,0.74-0.32c0.26-0.07,0.54-0.11,0.81-0.11c0.06,0,0.13,0,0.19,0.01
				c0.06,0,0.13,0.01,0.19,0.02c0.06,0.01,0.13,0.02,0.19,0.03c0.06,0.01,0.13,0.03,0.19,0.04l7.13,1.76l4.5-5.76
				c0.15-0.19,0.31-0.35,0.49-0.5c0.18-0.15,0.37-0.27,0.58-0.37c0.2-0.1,0.42-0.18,0.64-0.23s0.45-0.08,0.69-0.08
				c0.41,0,0.8,0.08,1.15,0.21c0.35,0.14,0.68,0.34,0.95,0.59c0.27,0.25,0.5,0.55,0.66,0.89c0.16,0.34,0.27,0.72,0.3,1.12l0.51,7.26
				l6.89,2.46c0.3,0.11,0.57,0.26,0.82,0.44c0.24,0.18,0.45,0.4,0.63,0.64c0.17,0.24,0.31,0.51,0.41,0.8
				c0.1,0.29,0.15,0.59,0.15,0.91c0.01,0.31-0.04,0.62-0.12,0.91c-0.09,0.29-0.21,0.56-0.38,0.81c-0.17,0.25-0.37,0.47-0.61,0.66
				c-0.24,0.19-0.5,0.35-0.8,0.47l-6.79,2.72l-0.24,7.23c-0.01,0.41-0.11,0.79-0.27,1.14c-0.16,0.35-0.38,0.66-0.66,0.92
				c-0.27,0.26-0.6,0.47-0.96,0.62C-41.53-12.98-41.93-12.9-42.34-12.9z M-48.66-21.76l0.42,0.49l5.12,6.03
				c0.07,0.08,0.13,0.14,0.2,0.19c0.07,0.05,0.14,0.09,0.21,0.11c0.07,0.03,0.13,0.04,0.2,0.06c0.06,0.01,0.12,0.01,0.17,0.01
				c0.12,0,0.25-0.02,0.37-0.06c0.12-0.04,0.24-0.11,0.34-0.19c0.1-0.08,0.18-0.19,0.25-0.31c0.06-0.12,0.1-0.27,0.1-0.43l0.26-7.87
				l0.02-0.64l0.6-0.24l7.4-2.96c0.15-0.06,0.27-0.14,0.36-0.23c0.09-0.09,0.15-0.19,0.2-0.29c0.04-0.1,0.07-0.19,0.08-0.27
				c0.01-0.08,0.01-0.15,0.01-0.19c0-0.04,0-0.11-0.02-0.19c-0.02-0.08-0.04-0.17-0.09-0.27c-0.05-0.09-0.11-0.19-0.21-0.28
				c-0.09-0.09-0.21-0.16-0.37-0.22l-7.51-2.68l-0.61-0.22l-0.05-0.64l-0.56-7.91c-0.01-0.16-0.05-0.3-0.12-0.42
				c-0.06-0.12-0.15-0.22-0.25-0.3c-0.1-0.08-0.21-0.14-0.33-0.18c-0.12-0.04-0.24-0.06-0.37-0.06c-0.06,0-0.12,0-0.18,0.02
				s-0.14,0.03-0.21,0.06c-0.07,0.03-0.14,0.07-0.21,0.12c-0.07,0.05-0.14,0.12-0.21,0.2l-4.9,6.26l-0.4,0.51l-0.63-0.16l-7.76-1.91
				c-0.02-0.01-0.05-0.01-0.07-0.02c-0.02,0-0.05-0.01-0.07-0.01c-0.02,0-0.05-0.01-0.07-0.01c-0.02,0-0.04,0-0.07,0
				c-0.11,0-0.22,0.02-0.31,0.05s-0.18,0.08-0.26,0.13c-0.08,0.05-0.14,0.12-0.2,0.18c-0.06,0.07-0.1,0.13-0.14,0.2
				c-0.02,0.04-0.05,0.1-0.07,0.17s-0.04,0.15-0.05,0.25c-0.01,0.09,0,0.2,0.03,0.3s0.08,0.22,0.16,0.34l4.5,6.55l0.37,0.53
				l-0.34,0.55l-4.21,6.7c-0.07,0.11-0.11,0.22-0.14,0.32c-0.02,0.1-0.03,0.2-0.02,0.29c0.01,0.09,0.03,0.17,0.05,0.24
				c0.02,0.07,0.05,0.13,0.08,0.18c0.04,0.07,0.08,0.13,0.14,0.2c0.06,0.06,0.12,0.12,0.2,0.17c0.08,0.05,0.16,0.09,0.25,0.13
				c0.09,0.03,0.19,0.05,0.3,0.05c0.03,0,0.05,0,0.08,0c0.03,0,0.05,0,0.08-0.01c0.03,0,0.05-0.01,0.08-0.01s0.05-0.01,0.08-0.02
				l7.65-2.2L-48.66-21.76z"/>
		</g>
		<g id="Path_36381" transform="translate(219.45 51.884)">
			<path class="st13" d="M-40.76-41.05l0.56,7.91l7.51,2.68c0.41,0.14,0.76,0.41,1,0.76c0.63,0.92,0.4,2.17-0.52,2.8
				c-0.13,0.09-0.27,0.16-0.41,0.22l-7.4,2.96l-0.26,7.87c-0.01,0.43-0.15,0.84-0.42,1.17c-0.25,0.31-0.58,0.54-0.95,0.67
				c-0.38,0.13-0.78,0.15-1.17,0.06c-0.42-0.1-0.79-0.34-1.06-0.66l-5.12-6.03l-7.65,2.19c-0.41,0.12-0.85,0.11-1.26-0.03
				c-0.37-0.13-0.7-0.37-0.94-0.69c-0.24-0.31-0.39-0.69-0.42-1.08c-0.03-0.42,0.08-0.85,0.31-1.21l4.21-6.7l-4.5-6.54
				c-0.25-0.35-0.37-0.77-0.36-1.2c0.01-0.4,0.14-0.78,0.37-1.1c0.23-0.33,0.54-0.58,0.91-0.73c0.4-0.16,0.84-0.19,1.26-0.08
				l7.76,1.91l4.9-6.27c0.26-0.34,0.63-0.59,1.04-0.71c0.78-0.22,1.62,0.03,2.16,0.65C-40.95-41.88-40.78-41.47-40.76-41.05z"/>
			<path class="st14" d="M-42.34-12.9c-0.22,0-0.44-0.02-0.66-0.07c-0.21-0.05-0.42-0.12-0.61-0.21c-0.2-0.09-0.38-0.2-0.55-0.34
				c-0.17-0.13-0.34-0.29-0.48-0.46l-4.71-5.53l-7.02,2.01c-0.07,0.02-0.14,0.04-0.22,0.05c-0.07,0.02-0.14,0.03-0.22,0.04
				c-0.07,0.01-0.14,0.02-0.22,0.02s-0.14,0.01-0.22,0.01c-0.27,0-0.54-0.04-0.8-0.11c-0.26-0.07-0.5-0.18-0.73-0.31
				c-0.23-0.13-0.44-0.3-0.63-0.49c-0.19-0.19-0.35-0.41-0.49-0.65c-0.14-0.24-0.24-0.49-0.3-0.75c-0.06-0.26-0.09-0.52-0.09-0.78
				c0.01-0.26,0.05-0.52,0.13-0.78c0.08-0.25,0.19-0.5,0.34-0.74l3.86-6.15l-4.13-6.01c-0.16-0.24-0.29-0.48-0.38-0.74
				c-0.09-0.26-0.14-0.52-0.16-0.79c-0.02-0.27,0.01-0.54,0.06-0.8c0.06-0.26,0.15-0.52,0.29-0.78c0.13-0.25,0.3-0.48,0.48-0.67
				c0.19-0.2,0.4-0.37,0.63-0.51c0.23-0.14,0.48-0.25,0.74-0.32c0.26-0.07,0.54-0.11,0.81-0.11c0.06,0,0.13,0,0.19,0.01
				c0.06,0,0.13,0.01,0.19,0.02c0.06,0.01,0.13,0.02,0.19,0.03c0.06,0.01,0.13,0.03,0.19,0.04l7.13,1.76l4.5-5.76
				c0.15-0.19,0.31-0.35,0.49-0.5c0.18-0.15,0.37-0.27,0.58-0.37c0.2-0.1,0.42-0.18,0.64-0.23s0.45-0.08,0.69-0.08
				c0.41,0,0.8,0.08,1.15,0.21c0.35,0.14,0.68,0.34,0.95,0.59c0.27,0.25,0.5,0.55,0.66,0.89c0.16,0.34,0.27,0.72,0.3,1.12l0.51,7.26
				l6.89,2.46c0.3,0.11,0.57,0.26,0.82,0.44c0.24,0.18,0.45,0.4,0.63,0.64c0.17,0.24,0.31,0.51,0.41,0.8
				c0.1,0.29,0.15,0.59,0.15,0.91c0.01,0.31-0.04,0.62-0.12,0.91c-0.09,0.29-0.21,0.56-0.38,0.81c-0.17,0.25-0.37,0.47-0.61,0.66
				c-0.24,0.19-0.5,0.35-0.8,0.47l-6.79,2.72l-0.24,7.23c-0.01,0.41-0.11,0.79-0.27,1.14c-0.16,0.35-0.38,0.66-0.66,0.92
				c-0.27,0.26-0.6,0.47-0.96,0.62C-41.53-12.98-41.93-12.9-42.34-12.9z M-49.01-21.62c0.07,0,0.14,0.01,0.21,0.02
				c0.07,0.02,0.14,0.04,0.2,0.07c0.07,0.03,0.13,0.07,0.19,0.11c0.06,0.04,0.11,0.09,0.16,0.15l5.12,6.03
				c0.07,0.08,0.13,0.14,0.2,0.19c0.07,0.05,0.14,0.09,0.21,0.11c0.07,0.03,0.13,0.04,0.2,0.06c0.06,0.01,0.12,0.01,0.17,0.01
				c0.12,0,0.25-0.02,0.37-0.06c0.12-0.04,0.24-0.11,0.34-0.19c0.1-0.08,0.18-0.19,0.25-0.31c0.06-0.12,0.1-0.27,0.1-0.43l0.26-7.87
				c0-0.1,0.02-0.19,0.05-0.28c0.03-0.09,0.07-0.17,0.13-0.25c0.05-0.08,0.12-0.15,0.19-0.21c0.07-0.06,0.16-0.11,0.25-0.15
				l7.4-2.96c0.15-0.06,0.27-0.14,0.36-0.23c0.09-0.09,0.15-0.19,0.2-0.29c0.04-0.1,0.07-0.19,0.08-0.27
				c0.01-0.08,0.01-0.15,0.01-0.19c0-0.04,0-0.11-0.02-0.19c-0.02-0.08-0.04-0.17-0.09-0.27c-0.05-0.09-0.11-0.19-0.21-0.28
				c-0.09-0.09-0.21-0.16-0.37-0.22l-7.51-2.68c-0.09-0.03-0.18-0.08-0.26-0.14c-0.08-0.06-0.15-0.12-0.2-0.2
				c-0.06-0.08-0.1-0.16-0.14-0.25s-0.06-0.18-0.06-0.28l-0.56-7.91c-0.01-0.16-0.05-0.3-0.12-0.42c-0.06-0.12-0.15-0.22-0.25-0.3
				c-0.1-0.08-0.21-0.14-0.33-0.18c-0.12-0.04-0.24-0.06-0.37-0.06c-0.06,0-0.12,0-0.18,0.02s-0.14,0.03-0.21,0.06
				c-0.07,0.03-0.14,0.07-0.21,0.12c-0.07,0.05-0.14,0.12-0.21,0.2l-4.9,6.26c-0.05,0.06-0.1,0.12-0.16,0.16
				c-0.06,0.05-0.12,0.09-0.19,0.12s-0.14,0.06-0.21,0.07c-0.07,0.02-0.15,0.03-0.23,0.03c-0.02,0-0.04,0-0.06,0
				c-0.02,0-0.04,0-0.06-0.01s-0.04-0.01-0.06-0.01c-0.02,0-0.04-0.01-0.06-0.01l-7.76-1.91c-0.02-0.01-0.05-0.01-0.07-0.02
				c-0.02,0-0.05-0.01-0.07-0.01c-0.02,0-0.05-0.01-0.07-0.01c-0.02,0-0.04,0-0.07,0c-0.11,0-0.22,0.02-0.31,0.05
				s-0.18,0.08-0.26,0.13c-0.08,0.05-0.14,0.12-0.2,0.18c-0.06,0.07-0.1,0.13-0.14,0.2c-0.02,0.04-0.05,0.1-0.07,0.17
				s-0.04,0.15-0.05,0.25c-0.01,0.09,0,0.2,0.03,0.3s0.08,0.22,0.16,0.34l4.5,6.55c0.06,0.08,0.1,0.17,0.13,0.26
				c0.03,0.09,0.04,0.18,0.05,0.28c0,0.09-0.01,0.19-0.03,0.28c-0.03,0.09-0.06,0.18-0.12,0.26l-4.21,6.7
				c-0.07,0.11-0.11,0.22-0.14,0.32c-0.02,0.1-0.03,0.2-0.02,0.29c0.01,0.09,0.03,0.17,0.05,0.24c0.02,0.07,0.05,0.13,0.08,0.18
				c0.04,0.07,0.08,0.13,0.14,0.2c0.06,0.06,0.12,0.12,0.2,0.17c0.08,0.05,0.16,0.09,0.25,0.13c0.09,0.03,0.19,0.05,0.3,0.05
				c0.03,0,0.05,0,0.08,0c0.03,0,0.05,0,0.08-0.01c0.03,0,0.05-0.01,0.08-0.01s0.05-0.01,0.08-0.02l7.65-2.2
				c0.02-0.01,0.05-0.01,0.07-0.02c0.02,0,0.05-0.01,0.07-0.01c0.02,0,0.05-0.01,0.07-0.01C-49.06-21.62-49.03-21.62-49.01-21.62z"
				/>
		</g>
	</g>
</g>
<g id="Layer_4">
	<g class="bump_a">
		<path d="M243.03,93.88l1.12-5.93c0,0,0.69-1.29,1.54,0.08s0,0.08,0,0.08l2.24,5.95l3.61-2.61c0,0,1.36-0.92,1.42,0.68l-0.95,4.97
			h5.42c0,0,1.32-0.22,1.47,0.64c0,0,0.03,0.66-0.44,0.92l-4.56,3.19l4.29,3.17c0,0,0.85,0.56,0.58,1.12c0,0-0.14,0.53-0.78,0.56
			l-4.95-0.17l2.55,6.03c0,0,0.22,0.61-0.19,0.88c0,0-0.56,0.24-1.15-0.1l-4.93-3.83l-1.27,5.27c0,0-0.06,0.47-0.43,0.58
			c0,0-0.49,0.27-0.97-0.83l-2.17-5.2l-4.03,3.39c0,0-0.71,0.71-1.25,0.31c0,0-0.49-0.03-0.32-0.85l1.44-5.83l-6-0.05
			c0,0-0.68,0.05-0.81-0.66c0,0-0.29-0.37,0.53-0.97l4.32-3.15l-4.42-3.37c0,0-0.51-0.2-0.47-0.88c0,0-0.04-0.49,0.83-0.54
			l5.03,0.08l-2.49-5.88c0,0-0.2-0.75,0.29-1.02c0,0,0.19-0.36,0.9,0.08L243.03,93.88z"/>
		<path class="st15" d="M245.12,91.45l-0.81,4.18c0,0,0.05,0.97-1.37,0c-1.42-0.97-3.41-2.47-3.41-2.47l1.73,4.05
			c0,0,0.46,1-0.53,1.22h-3.81l3.17,2.36c0,0,0.88,0.64,0.15,1.34c-0.73,0.69-3.49,2.59-3.49,2.59h4.51c0,0,1.03-0.05,0.86,1.02
			l-1.08,4.47l3.36-2.76c0,0,0.59-0.63,1.17,0.31c0.58,0.93,0,0.08,0,0.08l1.66,3.81l0.88-3.73c0,0,0.1-0.63,1.03-0.47l3.78,2.85
			l-1.73-4.15c0,0-0.42-0.98,0.64-1.15l3.78,0.12l-3.33-2.51c0,0-0.76-0.53,0.02-1.36l3.42-2.51l-4.53-0.02c0,0-0.95,0.06-0.86-1
			c0-0.03,0.01-0.06,0.01-0.08c0.15-1.15,0.69-3.81,0.69-3.81l-2.81,2.1c0,0-1.01,0.75-1.36-0.22s-1.67-4.53-1.67-4.53L245.12,91.45
			z"/>
	</g>
</g>
</svg>
