<svg xmlns="http://www.w3.org/2000/svg" width="32" height="25" viewBox="0 0 32 25">
<style type="text/css">
#smile {animation:smile both linear infinite 2.7s;transform-origin:50% 50%;}
@keyframes smile {
0% {transform:scale(1) rotate(10deg);}
50% {transform:scale(0.9) rotate(-15deg);}
100% {transform:scale(1) rotate(10deg);}
}
</style>

<g id="smile">
  <g id="Group_112642" data-name="Group 112642" transform="translate(10286 8491)">
    <rect id="Rectangle_21765" data-name="Rectangle 21765" width="32" height="19" transform="translate(-10286 -8491)" fill="none"/>
    <g id="Group_112643" data-name="Group 112643" transform="translate(-10284.951 -8489.92)">
      <g id="Group_112644" data-name="Group 112644" transform="translate(0.5 0)">
        <path id="Path_51941" data-name="Path 51941" d="M13.658,9.1A6.579,6.579,0,1,1,7.079,2.523,6.578,6.578,0,0,1,13.658,9.1" transform="translate(-0.5 1.159)" fill="#fff"/>
        <circle id="Ellipse_718" data-name="Ellipse 718" cx="6.579" cy="6.579" r="6.579" transform="translate(0 3.681)" fill="none" stroke="#000" stroke-miterlimit="10" stroke-width="1.5"/>
        <path id="Path_51942" data-name="Path 51942" d="M6.863,7.958A2.946,2.946,0,1,1,3.916,5.012,2.947,2.947,0,0,1,6.863,7.958" transform="translate(-0.284 2.302)"/>
        <circle id="Ellipse_719" data-name="Ellipse 719" cx="2.946" cy="2.946" r="2.946" transform="translate(0.686 7.314)" fill="none" stroke="#000" stroke-miterlimit="10" stroke-width="1"/>
        <line id="Line_791" data-name="Line 791" y1="3.726" transform="translate(6.579)" fill="none" stroke="#000" stroke-miterlimit="10" stroke-width="1.5"/>
        <line id="Line_792" data-name="Line 792" x1="1.274" y1="3.501" transform="translate(2.906 0.742)" fill="none" stroke="#000" stroke-miterlimit="10" stroke-width="1.5"/>
        <path id="Path_51943" data-name="Path 51943" d="M24.446,9.1a6.579,6.579,0,1,1-6.579-6.579A6.578,6.578,0,0,1,24.446,9.1" transform="translate(4.456 1.159)" fill="#fff"/>
        <circle id="Ellipse_720" data-name="Ellipse 720" cx="6.579" cy="6.579" r="6.579" transform="translate(15.743 3.681)" fill="none" stroke="#000" stroke-miterlimit="10" stroke-width="1.5"/>
        <path id="Path_51944" data-name="Path 51944" d="M17.65,7.958A2.946,2.946,0,1,1,14.7,5.012,2.947,2.947,0,0,1,17.65,7.958" transform="translate(4.671 2.302)"/>
        <circle id="Ellipse_721" data-name="Ellipse 721" cx="2.946" cy="2.946" r="2.946" transform="translate(16.429 7.314)" fill="none" stroke="#000" stroke-miterlimit="10" stroke-width="1"/>
        <line id="Line_793" data-name="Line 793" y1="3.726" transform="translate(22.322)" fill="none" stroke="#000" stroke-miterlimit="10" stroke-width="1.5"/>
        <line id="Line_794" data-name="Line 794" x1="1.274" y1="3.501" transform="translate(18.649 0.742)" fill="none" stroke="#000" stroke-miterlimit="10" stroke-width="1.5"/>
      </g>
    </g>
  </g>
</g> 
</svg>
