<svg xmlns="http://www.w3.org/2000/svg" width="40" height="40" viewBox="0 0 40 40">
<style type="text/css">
#smile {animation:smile both linear infinite 2.7s;transform-origin:50% 50%;}
@keyframes smile {
0% {transform:scale(1) rotate(15deg);}
50% {transform:scale(0.9) rotate(-5deg);}
100% {transform:scale(1) rotate(15deg);}
}
</style>

<g id="smile"> 
  <g id="Group_116407" data-name="Group 116407" transform="translate(19035 1161)">
    <rect id="Rectangle_22573" data-name="Rectangle 22573" width="40" height="40" transform="translate(-19035 -1161)" fill="none"/>
    <rect id="Rectangle_22572" data-name="Rectangle 22572" width="40" height="40" transform="translate(-19035 -1161)" fill="none"/>
    <g id="Group_116368" data-name="Group 116368" transform="translate(-8749 7338.125)">
      <rect id="Rectangle_21765" data-name="Rectangle 21765" width="40" height="23" transform="translate(-10286 -8490.625)" fill="none"/>
      <g id="Group_112643" data-name="Group 112643" transform="translate(-10284.064 -8489.649)">
        <g id="Group_112644" data-name="Group 112644">
          <path id="Path_51941" data-name="Path 51941" d="M16.947,10.747A8.224,8.224,0,1,1,8.724,2.523a8.223,8.223,0,0,1,8.224,8.224" transform="translate(-0.5 2.079)" fill="#fff"/>
          <circle id="Ellipse_718" data-name="Ellipse 718" cx="8.224" cy="8.224" r="8.224" transform="translate(0.001 4.602)" fill="none" stroke="#000" stroke-miterlimit="10" stroke-width="2"/>
          <path id="Path_51942" data-name="Path 51942" d="M8.336,8.7A3.683,3.683,0,1,1,4.653,5.012,3.683,3.683,0,0,1,8.336,8.7" transform="translate(-0.113 4.131)"/>
          <circle id="Ellipse_719" data-name="Ellipse 719" cx="3.683" cy="3.683" r="3.683" transform="translate(0.858 9.142)" fill="none" stroke="#000" stroke-miterlimit="10" stroke-width="1"/>
          <line id="Line_791" data-name="Line 791" y1="4.657" transform="translate(8.224)" fill="none" stroke="#000" stroke-miterlimit="10" stroke-width="2"/>
          <line id="Line_792" data-name="Line 792" x1="1.593" y1="4.376" transform="translate(3.633 0.928)" fill="none" stroke="#000" stroke-miterlimit="10" stroke-width="2"/>
          <path id="Path_51943" data-name="Path 51943" d="M27.735,10.747a8.224,8.224,0,1,1-8.224-8.224,8.223,8.223,0,0,1,8.224,8.224" transform="translate(8.392 2.079)" fill="#fff"/>
          <circle id="Ellipse_720" data-name="Ellipse 720" cx="8.224" cy="8.224" r="8.224" transform="translate(19.679 4.602)" fill="none" stroke="#000" stroke-miterlimit="10" stroke-width="2"/>
          <path id="Path_51944" data-name="Path 51944" d="M19.123,8.7A3.683,3.683,0,1,1,15.44,5.012,3.683,3.683,0,0,1,19.123,8.7" transform="translate(8.778 4.131)"/>
          <circle id="Ellipse_721" data-name="Ellipse 721" cx="3.683" cy="3.683" r="3.683" transform="translate(20.536 9.142)" fill="none" stroke="#000" stroke-miterlimit="10" stroke-width="1"/>
          <line id="Line_793" data-name="Line 793" y1="4.657" transform="translate(27.902)" fill="none" stroke="#000" stroke-miterlimit="10" stroke-width="2"/>
          <line id="Line_794" data-name="Line 794" x1="1.593" y1="4.376" transform="translate(23.311 0.928)" fill="none" stroke="#000" stroke-miterlimit="10" stroke-width="2"/>
        </g>
      </g>
    </g>
  </g>
</g>
</svg>
