<svg xmlns="http://www.w3.org/2000/svg" xmlns:xlink="http://www.w3.org/1999/xlink" width="286" height="79" viewBox="0 0 286 79">
  <defs>
    <clipPath id="clip-path">
      <rect id="사각형_22431" data-name="사각형 22431" width="276" height="54" transform="translate(-15342 7595)" fill="#fe4847" stroke="#000" stroke-width="1"/>
    </clipPath>
    <clipPath id="clip-path-2">
      <rect id="사각형_22430" data-name="사각형 22430" width="375" height="822" transform="translate(0 702)" fill="#fff"/>
    </clipPath>
  </defs>
  <g id="그룹_116366" data-name="그룹 116366" transform="translate(15347 -7581)">
    <rect id="사각형_22432" data-name="사각형 22432" width="286" height="79" transform="translate(-15347 7581)" fill="none"/>
    <g id="그룹_116364" data-name="그룹 116364" transform="translate(0 0.257)">
      <path id="합치기_192" data-name="합치기 192" d="M-.5,9.375h277v55H-.5Z" transform="translate(-15342 7585.411)" fill="#fe4847" stroke="#fff" stroke-width="7"/>
      <g id="그룹_116297" data-name="그룹 116297" transform="translate(0 0.286)">
        <g id="사각형_22362" data-name="사각형 22362" transform="translate(-15342 7595)" fill="#fe4847" stroke="#000" stroke-width="1.5">
          <rect width="276" height="54" stroke="none"/>
          <rect x="-0.75" y="-0.75" width="277.5" height="55.5" fill="none"/>
        </g>
        <g id="마스크_그룹_112052" data-name="마스크 그룹 112052" opacity="0.5" clip-path="url(#clip-path)">
          <g id="마스크_그룹_112051" data-name="마스크 그룹 112051" transform="translate(-15391 6509)" opacity="0.7" clip-path="url(#clip-path-2)">
            <g id="line" transform="translate(15747 -4729)">
              <g id="line_horizontal">
                <rect id="사각형_22363" data-name="사각형 22363" width="375" height="1" transform="translate(-15747 5281)" fill="#fff"/>
                <rect id="사각형_22364" data-name="사각형 22364" width="375" height="1" transform="translate(-15747 5533)" fill="#fff"/>
                <rect id="사각형_22365" data-name="사각형 22365" width="375" height="1" transform="translate(-15747 5911)" fill="#fff"/>
                <rect id="사각형_22366" data-name="사각형 22366" width="375" height="1" transform="translate(-15747 6289)" fill="#fff"/>
                <rect id="사각형_22367" data-name="사각형 22367" width="375" height="1" transform="translate(-15747 5407)" fill="#fff"/>
                <rect id="사각형_22368" data-name="사각형 22368" width="375" height="1" transform="translate(-15747 5785)" fill="#fff"/>
                <rect id="사각형_22369" data-name="사각형 22369" width="375" height="1" transform="translate(-15747 6163)" fill="#fff"/>
                <rect id="사각형_22370" data-name="사각형 22370" width="375" height="1" transform="translate(-15747 5659)" fill="#fff"/>
                <rect id="사각형_22371" data-name="사각형 22371" width="375" height="1" transform="translate(-15747 6037)" fill="#fff"/>
                <rect id="사각형_22372" data-name="사각형 22372" width="375" height="1" transform="translate(-15747 5344)" fill="#fff"/>
                <rect id="사각형_22373" data-name="사각형 22373" width="375" height="1" transform="translate(-15747 5722)" fill="#fff"/>
                <rect id="사각형_22374" data-name="사각형 22374" width="375" height="1" transform="translate(-15747 6100)" fill="#fff"/>
                <rect id="사각형_22375" data-name="사각형 22375" width="375" height="1" transform="translate(-15747 5596)" fill="#fff"/>
                <rect id="사각형_22376" data-name="사각형 22376" width="375" height="1" transform="translate(-15747 5974)" fill="#fff"/>
                <rect id="사각형_22377" data-name="사각형 22377" width="375" height="1" transform="translate(-15747 5470)" fill="#fff"/>
                <rect id="사각형_22378" data-name="사각형 22378" width="375" height="1" transform="translate(-15747 5848)" fill="#fff"/>
                <rect id="사각형_22379" data-name="사각형 22379" width="375" height="1" transform="translate(-15747 6226)" fill="#fff"/>
                <rect id="사각형_22380" data-name="사각형 22380" width="375" height="1" transform="translate(-15747 5302)" fill="#fff"/>
                <rect id="사각형_22381" data-name="사각형 22381" width="375" height="1" transform="translate(-15747 5554)" fill="#fff"/>
                <rect id="사각형_22382" data-name="사각형 22382" width="375" height="1" transform="translate(-15747 5932)" fill="#fff"/>
                <rect id="사각형_22383" data-name="사각형 22383" width="375" height="1" transform="translate(-15747 6310)" fill="#fff"/>
                <rect id="사각형_22384" data-name="사각형 22384" width="375" height="1" transform="translate(-15747 5428)" fill="#fff"/>
                <rect id="사각형_22385" data-name="사각형 22385" width="375" height="1" transform="translate(-15747 5806)" fill="#fff"/>
                <rect id="사각형_22386" data-name="사각형 22386" width="375" height="1" transform="translate(-15747 6184)" fill="#fff"/>
                <rect id="사각형_22387" data-name="사각형 22387" width="375" height="1" transform="translate(-15747 5680)" fill="#fff"/>
                <rect id="사각형_22388" data-name="사각형 22388" width="375" height="1" transform="translate(-15747 6058)" fill="#fff"/>
                <rect id="사각형_22389" data-name="사각형 22389" width="375" height="1" transform="translate(-15747 5365)" fill="#fff"/>
                <rect id="사각형_22390" data-name="사각형 22390" width="375" height="1" transform="translate(-15747 5743)" fill="#fff"/>
                <rect id="사각형_22391" data-name="사각형 22391" width="375" height="1" transform="translate(-15747 6121)" fill="#fff"/>
                <rect id="사각형_22392" data-name="사각형 22392" width="375" height="1" transform="translate(-15747 5617)" fill="#fff"/>
                <rect id="사각형_22393" data-name="사각형 22393" width="375" height="1" transform="translate(-15747 5995)" fill="#fff"/>
                <rect id="사각형_22394" data-name="사각형 22394" width="375" height="1" transform="translate(-15747 5491)" fill="#fff"/>
                <rect id="사각형_22395" data-name="사각형 22395" width="375" height="1" transform="translate(-15747 5869)" fill="#fff"/>
                <rect id="사각형_22396" data-name="사각형 22396" width="375" height="1" transform="translate(-15747 6247)" fill="#fff"/>
                <rect id="사각형_22397" data-name="사각형 22397" width="375" height="1" transform="translate(-15747 5323)" fill="#fff"/>
                <rect id="사각형_22398" data-name="사각형 22398" width="375" height="1" transform="translate(-15747 5575)" fill="#fff"/>
                <rect id="사각형_22399" data-name="사각형 22399" width="375" height="1" transform="translate(-15747 5953)" fill="#fff"/>
                <rect id="사각형_22400" data-name="사각형 22400" width="375" height="1" transform="translate(-15747 5449)" fill="#fff"/>
                <rect id="사각형_22401" data-name="사각형 22401" width="375" height="1" transform="translate(-15747 5827)" fill="#fff"/>
                <rect id="사각형_22402" data-name="사각형 22402" width="375" height="1" transform="translate(-15747 6205)" fill="#fff"/>
                <rect id="사각형_22403" data-name="사각형 22403" width="375" height="1" transform="translate(-15747 5701)" fill="#fff"/>
                <rect id="사각형_22404" data-name="사각형 22404" width="375" height="1" transform="translate(-15747 6079)" fill="#fff"/>
                <rect id="사각형_22405" data-name="사각형 22405" width="375" height="1" transform="translate(-15747 5386)" fill="#fff"/>
                <rect id="사각형_22406" data-name="사각형 22406" width="375" height="1" transform="translate(-15747 5764)" fill="#fff"/>
                <rect id="사각형_22407" data-name="사각형 22407" width="375" height="1" transform="translate(-15747 6142)" fill="#fff"/>
                <rect id="사각형_22408" data-name="사각형 22408" width="375" height="1" transform="translate(-15747 5638)" fill="#fff"/>
                <rect id="사각형_22409" data-name="사각형 22409" width="375" height="1" transform="translate(-15747 6016)" fill="#fff"/>
                <rect id="사각형_22410" data-name="사각형 22410" width="375" height="1" transform="translate(-15747 5512)" fill="#fff"/>
                <rect id="사각형_22411" data-name="사각형 22411" width="375" height="1" transform="translate(-15747 5890)" fill="#fff"/>
                <rect id="사각형_22412" data-name="사각형 22412" width="375" height="1" transform="translate(-15747 6268)" fill="#fff"/>
              </g>
              <g id="line_vertical">
                <rect id="사각형_22413" data-name="사각형 22413" width="1" height="1067" transform="translate(-15727 5261)" fill="#fff"/>
                <rect id="사각형_22414" data-name="사각형 22414" width="1" height="1067" transform="translate(-15601 5261)" fill="#fff"/>
                <rect id="사각형_22415" data-name="사각형 22415" width="1" height="1067" transform="translate(-15475 5261)" fill="#fff"/>
                <rect id="사각형_22416" data-name="사각형 22416" width="1" height="1067" transform="translate(-15685 5261)" fill="#fff"/>
                <rect id="사각형_22417" data-name="사각형 22417" width="1" height="1067" transform="translate(-15559 5261)" fill="#fff"/>
                <rect id="사각형_22418" data-name="사각형 22418" width="1" height="1067" transform="translate(-15433 5261)" fill="#fff"/>
                <rect id="사각형_22419" data-name="사각형 22419" width="1" height="1067" transform="translate(-15643 5261)" fill="#fff"/>
                <rect id="사각형_22420" data-name="사각형 22420" width="1" height="1067" transform="translate(-15517 5261)" fill="#fff"/>
                <rect id="사각형_22421" data-name="사각형 22421" width="1" height="1067" transform="translate(-15391 5261)" fill="#fff"/>
                <rect id="사각형_22422" data-name="사각형 22422" width="1" height="1067" transform="translate(-15706 5261)" fill="#fff"/>
                <rect id="사각형_22423" data-name="사각형 22423" width="1" height="1067" transform="translate(-15580 5261)" fill="#fff"/>
                <rect id="사각형_22424" data-name="사각형 22424" width="1" height="1067" transform="translate(-15454 5261)" fill="#fff"/>
                <rect id="사각형_22425" data-name="사각형 22425" width="1" height="1067" transform="translate(-15664 5261)" fill="#fff"/>
                <rect id="사각형_22426" data-name="사각형 22426" width="1" height="1067" transform="translate(-15538 5261)" fill="#fff"/>
                <rect id="사각형_22427" data-name="사각형 22427" width="1" height="1067" transform="translate(-15412 5261)" fill="#fff"/>
                <rect id="사각형_22428" data-name="사각형 22428" width="1" height="1067" transform="translate(-15622 5261)" fill="#fff"/>
                <rect id="사각형_22429" data-name="사각형 22429" width="1" height="1067" transform="translate(-15496 5261)" fill="#fff"/>
              </g>
            </g>
          </g>
        </g>
        <g id="그룹_116296" data-name="그룹 116296" transform="translate(131.052 35.17)">
          <g id="패스_52156" data-name="패스 52156" transform="translate(-15414.055 7596.742)">
            <path d="M 14.32200050354004 3.411999702453613 C 12.08016014099121 3.411999702453613 10.11565017700195 2.86372971534729 8.640860557556152 1.82647979259491 C 7.082320213317871 0.7303197383880615 6.211520195007324 -0.8126602172851562 6.1225905418396 -2.635640144348145 L 6.097020626068115 -3.160000324249268 L 6.622000217437744 -3.160000324249268 L 11.43800067901611 -3.160000324249268 L 11.86525058746338 -3.160000324249268 L 11.93187999725342 -2.737980127334595 C 12.056640625 -1.947840213775635 13.07402992248535 -1.396000266075134 14.4060001373291 -1.396000266075134 C 15.81365013122559 -1.396000266075134 16.67799949645996 -1.887570261955261 16.67799949645996 -2.240000247955322 C 16.67799949645996 -2.497860193252563 16.22051048278809 -2.998380184173584 13.15655040740967 -3.453420162200928 C 9.733040809631348 -3.966950178146362 6.234000205993652 -5.035970211029053 6.234000205993652 -9.072000503540039 C 6.234000205993652 -10.75524997711182 7.089940547943115 -12.25289058685303 8.644150733947754 -13.28903007507324 C 10.086350440979 -14.25049018859863 12.07296085357666 -14.78000068664551 14.23800086975098 -14.78000068664551 C 18.7443904876709 -14.78000068664551 22.03538131713867 -12.39910984039307 22.24109077453613 -8.990119934082031 L 22.27308082580566 -8.460000038146973 L 21.74200057983398 -8.460000038146973 L 16.92600059509277 -8.460000038146973 L 16.50243949890137 -8.460000038146973 L 16.43280029296875 -8.877799987792969 C 16.31256103515625 -9.599269866943359 15.39678001403809 -10.08400058746338 14.1540002822876 -10.08400058746338 C 12.79925060272217 -10.08400058746338 12.05000019073486 -9.634620666503906 12.05000019073486 -9.324000358581543 C 12.05000019073486 -8.789609909057617 13.90496063232422 -8.424290657043457 15.52100086212158 -8.165719985961914 C 20.42683982849121 -7.428450107574463 22.52200126647949 -5.739790439605713 22.52200126647949 -2.520000219345093 C 22.52200126647949 -0.768720269203186 21.63142967224121 0.7909497618675232 20.01432991027832 1.871709704399109 C 18.52812004089355 2.86497974395752 16.50654983520508 3.411999702453613 14.32200050354004 3.411999702453613 Z M -3.821999549865723 3.411999702453613 C -6.376739501953125 3.411999702453613 -8.686820030212402 2.500499725341797 -10.32667922973633 0.8454197645187378 C -11.96160984039307 -0.8046802282333374 -12.86199951171875 -3.123540163040161 -12.86199951171875 -5.684000015258789 C -12.86199951171875 -8.23390007019043 -11.96175003051758 -10.5488805770874 -10.32708930969238 -12.20250988006592 C -8.684029579162598 -13.86463069915771 -6.373809814453125 -14.78000068664551 -3.821999549865723 -14.78000068664551 C -1.26725959777832 -14.78000068664551 1.042820453643799 -13.86850070953369 2.682680368423462 -12.21341991424561 C 4.317610263824463 -10.56332015991211 5.218000411987305 -8.244460105895996 5.218000411987305 -5.684000015258789 C 5.218000411987305 -5.113700389862061 5.179720401763916 -4.568510055541992 5.100970268249512 -4.017290115356445 L 5.039650440216064 -3.588000297546387 L 4.606000423431396 -3.588000297546387 L -6.748993873596191 -3.588000297546387 C -6.283717155456543 -2.294997215270996 -5.2631516456604 -1.592000246047974 -3.821999549865723 -1.592000246047974 C -2.605029582977295 -1.592000246047974 -1.566889643669128 -2.003560304641724 -1.238739609718323 -2.616110324859619 L -1.09736955165863 -2.880000352859497 L -0.7979996204376221 -2.880000352859497 L 4.214000225067139 -2.880000352859497 L 4.865550518035889 -2.880000352859497 L 4.696970462799072 -2.250630140304565 C 3.789740324020386 1.136359810829163 0.3662303984165192 3.411999702453613 -3.821999549865723 3.411999702453613 Z M -6.776439666748047 -7.808000087738037 L -0.8144123554229736 -7.808000087738037 C -1.294802188873291 -9.13535213470459 -2.323907136917114 -9.831999778747559 -3.821999549865723 -9.831999778747559 C -5.311548233032227 -9.831999778747559 -6.302936553955078 -9.151787757873535 -6.776439666748047 -7.808000087738037 Z M 31.81800079345703 3.019999742507935 L 31.31800079345703 3.019999742507935 L 26.33399963378906 3.019999742507935 L 25.83399963378906 3.019999742507935 L 25.83399963378906 2.519999742507935 L 25.83399963378906 -9.104000091552734 L 23.08600044250488 -9.104000091552734 L 22.58600044250488 -9.104000091552734 L 22.58600044250488 -9.604000091552734 L 22.58600044250488 -13.88800048828125 L 22.58600044250488 -14.38800048828125 L 23.08600044250488 -14.38800048828125 L 25.83399963378906 -14.38800048828125 L 25.83399963378906 -18.76000022888184 L 25.83399963378906 -19.26000022888184 L 26.33399963378906 -19.26000022888184 L 31.31800079345703 -19.26000022888184 L 31.81800079345703 -19.26000022888184 L 31.81800079345703 -18.76000022888184 L 31.81800079345703 -14.38800048828125 L 34.56600189208984 -14.38800048828125 L 35.06600189208984 -14.38800048828125 L 35.06600189208984 -13.88800048828125 L 35.06600189208984 -9.604000091552734 L 35.06600189208984 -9.104000091552734 L 34.56600189208984 -9.104000091552734 L 31.81800079345703 -9.104000091552734 L 31.81800079345703 2.519999742507935 L 31.81800079345703 3.019999742507935 Z M -22.24600028991699 3.019999742507935 L -32.99800109863281 3.019999742507935 L -33.49800109863281 3.019999742507935 L -33.49800109863281 2.519999742507935 L -33.49800109863281 -20.30000114440918 L -33.49800109863281 -20.80000114440918 L -32.99800109863281 -20.80000114440918 L -23.08600044250488 -20.80000114440918 C -20.50110054016113 -20.80000114440918 -18.36001014709473 -20.12179946899414 -16.89418029785156 -18.83872985839844 C -15.43386936187744 -17.56048965454102 -14.66199970245361 -15.71300029754639 -14.66199970245361 -13.49600028991699 C -14.66199970245361 -12.59611034393311 -14.95318984985352 -11.64201068878174 -15.48191928863525 -10.80945014953613 C -15.81716537475586 -10.28156757354736 -16.23128509521484 -9.833508491516113 -16.69280624389648 -9.492051124572754 C -14.85214424133301 -8.484801292419434 -13.59799957275391 -6.484506130218506 -13.59799957275391 -4.396000385284424 C -13.59799957275391 0.1783597618341446 -16.91172027587891 3.019999742507935 -22.24600028991699 3.019999742507935 Z M -27.40200042724609 -2.320000171661377 L -22.46999931335449 -2.320000171661377 C -21.43325042724609 -2.320000171661377 -19.69400024414062 -2.589700222015381 -19.69400024414062 -4.396000385284424 C -19.69400024414062 -6.202300071716309 -21.43325042724609 -6.472000122070312 -22.46999931335449 -6.472000122070312 L -27.40200042724609 -6.472000122070312 L -27.40200042724609 -2.320000171661377 Z M -27.40200042724609 -11.5600004196167 L -23.30999946594238 -11.5600004196167 C -21.61661911010742 -11.5600004196167 -20.75799942016602 -12.21135997772217 -20.75799942016602 -13.49600028991699 C -20.75799942016602 -15.11925983428955 -22.14579010009766 -15.46000003814697 -23.30999946594238 -15.46000003814697 L -27.40200042724609 -15.46000003814697 L -27.40200042724609 -11.5600004196167 Z" stroke="none"/>
            <path d="M 14.32200050354004 2.911999702453613 C 18.49399948120117 2.911999702453613 22.02200126647949 0.8399997353553772 22.02200126647949 -2.520000219345093 C 22.02200126647949 -5.348000049591064 20.28600120544434 -6.944000244140625 15.44200038909912 -7.672000408172607 C 12.64200019836426 -8.119999885559082 11.55000019073486 -8.51200008392334 11.55000019073486 -9.324000358581543 C 11.55000019073486 -10.05200004577637 12.64200019836426 -10.58400058746338 14.1540002822876 -10.58400058746338 C 15.61000061035156 -10.58400058746338 16.75800132751465 -9.968000411987305 16.92600059509277 -8.960000038146973 L 21.74200057983398 -8.960000038146973 C 21.54599952697754 -12.20800018310547 18.32600021362305 -14.28000068664551 14.23800086975098 -14.28000068664551 C 10.06599998474121 -14.28000068664551 6.734000205993652 -12.26399993896484 6.734000205993652 -9.072000503540039 C 6.734000205993652 -5.740000247955322 9.310000419616699 -4.53600025177002 13.23000049591064 -3.948000192642212 C 16.0580005645752 -3.528000354766846 17.17799949645996 -3.02400016784668 17.17799949645996 -2.240000247955322 C 17.17799949645996 -1.484000205993652 16.00200080871582 -0.8960002660751343 14.4060001373291 -0.8960002660751343 C 12.83800029754639 -0.8960002660751343 11.60599994659424 -1.596000194549561 11.43800067901611 -2.660000324249268 L 6.622000217437744 -2.660000324249268 C 6.790000438690186 0.7839997410774231 10.03800010681152 2.911999702453613 14.32200050354004 2.911999702453613 M -3.821999549865723 2.911999702453613 C 0.1540004014968872 2.911999702453613 3.374000310897827 0.755999743938446 4.214000225067139 -2.380000352859497 L -0.7979996204376221 -2.380000352859497 C -1.217999577522278 -1.596000194549561 -2.393999576568604 -1.092000246047974 -3.821999549865723 -1.092000246047974 C -5.697999477386475 -1.092000246047974 -7.013999462127686 -2.184000253677368 -7.405999660491943 -4.088000297546387 L 4.606000423431396 -4.088000297546387 C 4.690000534057617 -4.676000118255615 4.718000411987305 -5.208000183105469 4.718000411987305 -5.684000015258789 C 4.718000411987305 -10.69600009918213 1.190000414848328 -14.28000068664551 -3.821999549865723 -14.28000068664551 C -8.833999633789062 -14.28000068664551 -12.36199951171875 -10.66800022125244 -12.36199951171875 -5.684000015258789 C -12.36199951171875 -0.6720002293586731 -8.833999633789062 2.911999702453613 -3.821999549865723 2.911999702453613 M -0.1539995968341827 -7.308000087738037 L -7.433999538421631 -7.308000087738037 C -7.013999462127686 -9.268000602722168 -5.781999588012695 -10.33199977874756 -3.821999549865723 -10.33199977874756 C -1.86199963092804 -10.33199977874756 -0.5739995837211609 -9.268000602722168 -0.1539995968341827 -7.308000087738037 M 31.31800079345703 2.519999742507935 L 31.31800079345703 -9.604000091552734 L 34.56600189208984 -9.604000091552734 L 34.56600189208984 -13.88800048828125 L 31.31800079345703 -13.88800048828125 L 31.31800079345703 -18.76000022888184 L 26.33399963378906 -18.76000022888184 L 26.33399963378906 -13.88800048828125 L 23.08600044250488 -13.88800048828125 L 23.08600044250488 -9.604000091552734 L 26.33399963378906 -9.604000091552734 L 26.33399963378906 2.519999742507935 L 31.31800079345703 2.519999742507935 M -22.24600028991699 2.519999742507935 C -17.12199974060059 2.519999742507935 -14.09799957275391 -0.1680002510547638 -14.09799957275391 -4.396000385284424 C -14.09799957275391 -6.6080002784729 -15.63799953460693 -8.736000061035156 -17.82200050354004 -9.435999870300293 C -16.25399971008301 -10.02400016784668 -15.16199970245361 -11.8720006942749 -15.16199970245361 -13.49600028991699 C -15.16199970245361 -17.66800117492676 -18.01799964904785 -20.30000114440918 -23.08600044250488 -20.30000114440918 L -32.99800109863281 -20.30000114440918 L -32.99800109863281 2.519999742507935 L -22.24600028991699 2.519999742507935 M -27.90200042724609 -6.972000122070312 L -22.46999931335449 -6.972000122070312 C -20.45400047302246 -6.972000122070312 -19.19400024414062 -6.076000213623047 -19.19400024414062 -4.396000385284424 C -19.19400024414062 -2.716000318527222 -20.45400047302246 -1.820000290870667 -22.46999931335449 -1.820000290870667 L -27.90200042724609 -1.820000290870667 L -27.90200042724609 -6.972000122070312 M -27.90200042724609 -15.96000003814697 L -23.30999946594238 -15.96000003814697 C -21.37800025939941 -15.96000003814697 -20.25799942016602 -15.09200000762939 -20.25799942016602 -13.49600028991699 C -20.25799942016602 -11.90000057220459 -21.37800025939941 -11.0600004196167 -23.30999946594238 -11.0600004196167 L -27.90200042724609 -11.0600004196167 L -27.90200042724609 -15.96000003814697 M 14.32200050354004 3.911999702453613 C 11.97665023803711 3.911999702453613 9.912670135498047 3.332259654998779 8.35321044921875 2.23544979095459 C 6.688060283660889 1.06430971622467 5.718520164489746 -0.6569602489471436 5.623190402984619 -2.611280202865601 L 5.572030544281006 -3.660000324249268 L 10.00142192840576 -3.660000324249268 C 9.182872772216797 -3.936091661453247 8.505032539367676 -4.266618728637695 7.939900398254395 -4.660820007324219 C 6.476170539855957 -5.68181037902832 5.734000205993652 -7.165950298309326 5.734000205993652 -9.072000503540039 C 5.734000205993652 -10.92781066894531 6.669010162353516 -12.57319068908691 8.366800308227539 -13.70505046844482 C 9.890230178833008 -14.72067070007324 11.9753303527832 -15.28000068664551 14.23800086975098 -15.28000068664551 C 17.91617202758789 -15.28000068664551 20.83315467834473 -13.75821304321289 22.08600044250488 -11.37929058074951 L 22.08600044250488 -14.88800048828125 L 25.33399963378906 -14.88800048828125 L 25.33399963378906 -19.76000022888184 L 32.31800079345703 -19.76000022888184 L 32.31800079345703 -14.88800048828125 L 35.56600189208984 -14.88800048828125 L 35.56600189208984 -8.604000091552734 L 32.31800079345703 -8.604000091552734 L 32.31800079345703 3.519999742507935 L 25.33399963378906 3.519999742507935 L 25.33399963378906 -8.604000091552734 L 22.76529884338379 -8.604000091552734 L 22.80416107177734 -7.960000038146973 L 18.67762184143066 -7.960000038146973 C 19.70900344848633 -7.615693092346191 20.52873229980469 -7.187350273132324 21.1786003112793 -6.66001033782959 C 22.41901969909668 -5.653480052947998 23.02200126647949 -4.299270153045654 23.02200126647949 -2.520000219345093 C 23.02200126647949 -0.596400260925293 22.05252075195312 1.110909700393677 20.29216003417969 2.287409782409668 C 18.7246208190918 3.335039854049683 16.60437965393066 3.911999702453613 14.32200050354004 3.911999702453613 Z M 12.3852014541626 -3.072834253311157 L 12.42576026916504 -2.815960168838501 C 12.50857067108154 -2.291500329971313 13.35988998413086 -1.896000266075134 14.4060001373291 -1.896000266075134 C 15.24991416931152 -1.896000266075134 15.78939533233643 -2.084410429000854 16.04430770874023 -2.231379508972168 C 15.74825096130371 -2.393601179122925 14.99102210998535 -2.675492286682129 13.08310031890869 -2.958850145339966 C 12.84314250946045 -2.994843721389771 12.61048221588135 -3.032830238342285 12.3852014541626 -3.072834253311157 Z M 15.59578418731689 -8.660113334655762 C 15.723219871521 -8.640937805175781 15.84858894348145 -8.621196746826172 15.97206687927246 -8.600854873657227 L 15.93961048126221 -8.795599937438965 C 15.86470031738281 -9.245059967041016 15.09705066680908 -9.584000587463379 14.1540002822876 -9.584000587463379 C 13.45622634887695 -9.584000587463379 12.98040390014648 -9.452446937561035 12.72407817840576 -9.330891609191895 C 12.84073925018311 -9.27696418762207 13.01354694366455 -9.209951400756836 13.26611995697021 -9.135700225830078 C 13.78911685943604 -8.98195743560791 14.5295352935791 -8.830801010131836 15.59578418731689 -8.660113334655762 Z M -3.821999549865723 3.911999702453613 C -6.51116943359375 3.911999702453613 -8.947380065917969 2.947909832000732 -10.68186950683594 1.197329759597778 C -11.92556953430176 -0.05791233852505684 -12.76714992523193 -1.675235271453857 -13.14133548736572 -3.48715615272522 C -13.33502292633057 -1.497055768966675 -14.1746768951416 0.1817273795604706 -15.59860992431641 1.405819773674011 C -17.20754051208496 2.78892970085144 -19.50617027282715 3.519999742507935 -22.24600028991699 3.519999742507935 L -33.99800109863281 3.519999742507935 L -33.99800109863281 -21.30000114440918 L -23.08600044250488 -21.30000114440918 C -20.37817001342773 -21.30000114440918 -18.12318992614746 -20.57900047302246 -16.56485939025879 -19.2149600982666 C -14.99288940429688 -17.83897972106934 -14.16199970245361 -15.86140060424805 -14.16199970245361 -13.49600028991699 C -14.16199970245361 -12.0320405960083 -14.82712459564209 -10.56479930877686 -15.85083484649658 -9.557104110717773 C -15.27413558959961 -9.153263092041016 -14.75861644744873 -8.651752471923828 -14.33500003814697 -8.074910163879395 C -13.8938455581665 -7.474193096160889 -13.56227397918701 -6.805994510650635 -13.35403251647949 -6.111217021942139 C -13.15383148193359 -11.44964027404785 -9.207132339477539 -15.28000068664551 -3.821999549865723 -15.28000068664551 C -1.132829546928406 -15.28000068664551 1.303380370140076 -14.31591033935547 3.037870407104492 -12.56533050537109 C 4.766180515289307 -10.82098007202148 5.718000411987305 -8.377140045166016 5.718000411987305 -5.684000015258789 C 5.718000411987305 -5.089790344238281 5.678080558776855 -4.521470069885254 5.595950603485107 -3.946580171585083 L 5.515013217926025 -3.380000352859497 L 5.517110347747803 -3.380000352859497 L 5.512616634368896 -3.363223314285278 L 5.473300457000732 -3.088000297546387 L 5.438896656036377 -3.088000297546387 L 5.17995023727417 -2.121260166168213 C 4.213340282440186 1.487419724464417 0.5957304239273071 3.911999702453613 -3.821999549865723 3.911999702453613 Z M -5.937581062316895 -3.088000297546387 C -5.478920459747314 -2.432234764099121 -4.763986110687256 -2.092000246047974 -3.821999549865723 -2.092000246047974 C -2.68278956413269 -2.092000246047974 -1.881859660148621 -2.474440336227417 -1.679479598999023 -2.852220296859741 L -1.553168535232544 -3.088000297546387 L -5.937581062316895 -3.088000297546387 Z M -26.90200042724609 -2.820000171661377 L -22.46999931335449 -2.820000171661377 C -20.95975875854492 -2.820000171661377 -20.19400024414062 -3.350240230560303 -20.19400024414062 -4.396000385284424 C -20.19400024414062 -5.441760063171387 -20.95975875854492 -5.972000122070312 -22.46999931335449 -5.972000122070312 L -26.90200042724609 -5.972000122070312 L -26.90200042724609 -2.820000171661377 Z M -5.986227989196777 -8.308000564575195 L -1.615777969360352 -8.308000564575195 C -2.081165313720703 -8.99501895904541 -2.811326503753662 -9.331999778747559 -3.821999549865723 -9.331999778747559 C -4.825248718261719 -9.331999778747559 -5.533627986907959 -9.00171947479248 -5.986227989196777 -8.308000564575195 Z M -26.90200042724609 -12.0600004196167 L -23.30999946594238 -12.0600004196167 C -21.25799942016602 -12.0600004196167 -21.25799942016602 -13.1032600402832 -21.25799942016602 -13.49600028991699 C -21.25799942016602 -13.89640045166016 -21.25799942016602 -14.96000003814697 -23.30999946594238 -14.96000003814697 L -26.90200042724609 -14.96000003814697 L -26.90200042724609 -12.0600004196167 Z" stroke="none" fill="#000"/>
          </g>
          <g id="패스_52153" data-name="패스 52153" transform="translate(-15416.055 7594.742)" fill="#fff">
            <path d="M 14.32200050354004 3.661999702453613 C 12.02840042114258 3.661999702453613 10.01416015625 3.097999811172485 8.497040748596191 2.030959844589233 C 6.873130321502686 0.88882976770401 5.965710163116455 -0.7206502556800842 5.872890472412109 -2.623460292816162 L 5.83452033996582 -3.410000324249268 L 6.622000217437744 -3.410000324249268 L 11.43800067901611 -3.410000324249268 L 11.94641304016113 -3.410000324249268 C 10.25213718414307 -3.749682426452637 9.00795841217041 -4.220625877380371 8.082920074462891 -4.865860462188721 C 6.69018030166626 -5.837340354919434 5.984000205993652 -7.252490043640137 5.984000205993652 -9.072000503540039 C 5.984000205993652 -10.84152984619141 6.879480361938477 -12.41304016113281 8.505470275878906 -13.49703979492188 C 9.988290786743164 -14.48558044433594 12.02414035797119 -15.03000068664551 14.23800086975098 -15.03000068664551 C 18.42425727844238 -15.03000068664551 21.59405326843262 -13.01787853240967 22.33600044250488 -10.02367973327637 L 22.33600044250488 -13.88800048828125 L 22.33600044250488 -14.63800048828125 L 23.08600044250488 -14.63800048828125 L 25.58399963378906 -14.63800048828125 L 25.58399963378906 -18.76000022888184 L 25.58399963378906 -19.51000022888184 L 26.33399963378906 -19.51000022888184 L 31.31800079345703 -19.51000022888184 L 32.06800079345703 -19.51000022888184 L 32.06800079345703 -18.76000022888184 L 32.06800079345703 -14.63800048828125 L 34.56600189208984 -14.63800048828125 L 35.31600189208984 -14.63800048828125 L 35.31600189208984 -13.88800048828125 L 35.31600189208984 -9.604000091552734 L 35.31600189208984 -8.854000091552734 L 34.56600189208984 -8.854000091552734 L 32.06800079345703 -8.854000091552734 L 32.06800079345703 2.519999742507935 L 32.06800079345703 3.269999742507935 L 31.31800079345703 3.269999742507935 L 26.33399963378906 3.269999742507935 L 25.58399963378906 3.269999742507935 L 25.58399963378906 2.519999742507935 L 25.58399963378906 -8.854000091552734 L 23.08600044250488 -8.854000091552734 L 22.4997615814209 -8.854000091552734 L 22.53861999511719 -8.210000038146973 L 21.74200057983398 -8.210000038146973 L 16.92600059509277 -8.210000038146973 L 16.72414779663086 -8.210000038146973 C 18.66329574584961 -7.821209907531738 20.04512786865234 -7.257819652557373 21.02108001708984 -6.465890407562256 C 22.19927024841309 -5.50984001159668 22.77200126647949 -4.219130039215088 22.77200126647949 -2.520000219345093 C 22.77200126647949 -0.6825602650642395 21.84197044372559 0.9509297609329224 20.15324020385742 2.079559803009033 C 18.62636947631836 3.100009679794312 16.55545997619629 3.661999702453613 14.32200050354004 3.661999702453613 Z M 12.08312320709229 -3.38306450843811 L 12.17882061004639 -2.776970148086548 C 12.28229999542236 -2.121640205383301 13.21896076202393 -1.646000266075134 14.4060001373291 -1.646000266075134 C 15.00566005706787 -1.646000266075134 15.55918025970459 -1.741250276565552 15.96459007263184 -1.914200186729431 C 16.30311584472656 -2.058627128601074 16.41209602355957 -2.202850341796875 16.42729568481445 -2.241645812988281 C 16.41808700561523 -2.25977611541748 16.31221771240234 -2.423423051834106 15.74351024627686 -2.631070137023926 C 15.16746997833252 -2.84138035774231 14.30926036834717 -3.029490232467651 13.1198205947876 -3.206140279769897 C 12.75703907012939 -3.260557413101196 12.41180419921875 -3.319427013397217 12.08312320709229 -3.38306450843811 Z M 15.55712032318115 -8.413119316101074 C 15.80455780029297 -8.375899314880371 16.04426765441895 -8.336519241333008 16.27650260925293 -8.294889450073242 L 16.18620109558105 -8.836700439453125 C 16.08834075927734 -9.423900604248047 15.25267028808594 -9.834000587463379 14.1540002822876 -9.834000587463379 C 12.89489936828613 -9.834000587463379 12.35054683685303 -9.437938690185547 12.30010795593262 -9.318495750427246 C 12.30031299591064 -9.31360912322998 12.30073928833008 -9.311304092407227 12.30078601837158 -9.311070442199707 C 12.30078411102295 -9.311083793640137 12.30078601837158 -9.311090469360352 12.30079174041748 -9.311090469360352 C 12.30164241790771 -9.311090469360352 12.3917818069458 -9.15751838684082 13.0014705657959 -8.956240653991699 C 13.53922748565674 -8.778713226318359 14.35132694244385 -8.606125831604004 15.55712032318115 -8.413119316101074 Z M -3.821999549865723 3.661999702453613 C -6.443959712982178 3.661999702453613 -8.817099571228027 2.724209785461426 -10.50426959991455 1.021369814872742 C -12.18588924407959 -0.6758502721786499 -13.11199951171875 -3.057200193405151 -13.11199951171875 -5.684000015258789 C -13.11199951171875 -8.300129890441895 -12.18610954284668 -10.67753028869629 -10.50487995147705 -12.37826061248779 C -8.814489364624023 -14.08826065063477 -6.441129684448242 -15.03000068664551 -3.821999549865723 -15.03000068664551 C -1.200039625167847 -15.03000068664551 1.173100352287292 -14.092209815979 2.860270500183105 -12.38936996459961 C 4.541890621185303 -10.6921501159668 5.468000411987305 -8.310800552368164 5.468000411987305 -5.684000015258789 C 5.468000411987305 -5.10174036026001 5.428900241851807 -4.544990062713623 5.34846019744873 -3.981930255889893 L 5.256470203399658 -3.338000297546387 L 4.606000423431396 -3.338000297546387 L -6.370791912078857 -3.338000297546387 C -5.893351078033447 -2.365838289260864 -5.013789176940918 -1.842000246047974 -3.821999549865723 -1.842000246047974 C -2.526919603347778 -1.842000246047974 -1.689299583435059 -2.304470300674438 -1.459109544754028 -2.734170198440552 L -1.24705958366394 -3.130000352859497 L -0.7979996204376221 -3.130000352859497 L 4.214000225067139 -3.130000352859497 L 5.191330432891846 -3.130000352859497 L 4.938460350036621 -2.18595027923584 C 4.001540184020996 1.31188976764679 0.480980396270752 3.661999702453613 -3.821999549865723 3.661999702453613 Z M -6.407005310058594 -8.058000564575195 L -1.187978386878967 -8.058000564575195 C -1.672647476196289 -9.070199012756348 -2.555198907852173 -9.581999778747559 -3.821999549865723 -9.581999778747559 C -5.080513000488281 -9.581999778747559 -5.933239936828613 -9.081543922424316 -6.407005310058594 -8.058000564575195 Z M -22.24600028991699 3.269999742507935 L -32.99800109863281 3.269999742507935 L -33.74800109863281 3.269999742507935 L -33.74800109863281 2.519999742507935 L -33.74800109863281 -20.30000114440918 L -33.74800109863281 -21.05000114440918 L -32.99800109863281 -21.05000114440918 L -23.08600044250488 -21.05000114440918 C -20.43963050842285 -21.05000114440918 -18.24160003662109 -20.35040092468262 -16.72951889038086 -19.02684020996094 C -15.21337985992432 -17.69972991943359 -14.41199970245361 -15.78719997406006 -14.41199970245361 -13.49600028991699 C -14.41199970245361 -12.54925060272217 -14.71702003479004 -11.54755020141602 -15.2708797454834 -10.67543029785156 C -15.5508975982666 -10.23450946807861 -15.88409805297852 -9.846148490905762 -16.25372314453125 -9.524575233459473 C -15.59416961669922 -9.110649108886719 -15.00660419464111 -8.567079544067383 -14.53649997711182 -7.92693042755127 C -13.77007961273193 -6.883300304412842 -13.34799957275391 -5.629330158233643 -13.34799957275391 -4.396000385284424 C -13.34799957275391 -2.081810235977173 -14.1826000213623 -0.1411302387714386 -15.76159000396729 1.216239809989929 C -17.32452964782715 2.55981969833374 -19.56679916381836 3.269999742507935 -22.24600028991699 3.269999742507935 Z M -27.15200042724609 -2.570000171661377 L -22.46999931335449 -2.570000171661377 C -21.31764984130859 -2.570000171661377 -19.94400024414062 -2.88679027557373 -19.94400024414062 -4.396000385284424 C -19.94400024414062 -5.905210018157959 -21.31764984130859 -6.222000122070312 -22.46999931335449 -6.222000122070312 L -27.15200042724609 -6.222000122070312 L -27.15200042724609 -2.570000171661377 Z M -27.15200042724609 -11.8100004196167 L -23.30999946594238 -11.8100004196167 C -21.00799942016602 -11.8100004196167 -21.00799942016602 -13.07900047302246 -21.00799942016602 -13.49600028991699 C -21.00799942016602 -14.05419063568115 -21.17794036865234 -14.46125984191895 -21.52754020690918 -14.74046039581299 C -21.91214942932129 -15.04763984680176 -22.52851867675781 -15.21000003814697 -23.30999946594238 -15.21000003814697 L -27.15200042724609 -15.21000003814697 L -27.15200042724609 -11.8100004196167 Z" stroke="none"/>
            <path d="M 14.32200050354004 2.911999702453613 C 18.49399948120117 2.911999702453613 22.02200126647949 0.8399997353553772 22.02200126647949 -2.520000219345093 C 22.02200126647949 -5.348000049591064 20.28600120544434 -6.944000244140625 15.44200038909912 -7.672000408172607 C 12.64200019836426 -8.119999885559082 11.55000019073486 -8.51200008392334 11.55000019073486 -9.324000358581543 C 11.55000019073486 -10.05200004577637 12.64200019836426 -10.58400058746338 14.1540002822876 -10.58400058746338 C 15.61000061035156 -10.58400058746338 16.75800132751465 -9.968000411987305 16.92600059509277 -8.960000038146973 L 21.74200057983398 -8.960000038146973 C 21.54599952697754 -12.20800018310547 18.32600021362305 -14.28000068664551 14.23800086975098 -14.28000068664551 C 10.06599998474121 -14.28000068664551 6.734000205993652 -12.26399993896484 6.734000205993652 -9.072000503540039 C 6.734000205993652 -5.740000247955322 9.310000419616699 -4.53600025177002 13.23000049591064 -3.948000192642212 C 16.0580005645752 -3.528000354766846 17.17799949645996 -3.02400016784668 17.17799949645996 -2.240000247955322 C 17.17799949645996 -1.484000205993652 16.00200080871582 -0.8960002660751343 14.4060001373291 -0.8960002660751343 C 12.83800029754639 -0.8960002660751343 11.60599994659424 -1.596000194549561 11.43800067901611 -2.660000324249268 L 6.622000217437744 -2.660000324249268 C 6.790000438690186 0.7839997410774231 10.03800010681152 2.911999702453613 14.32200050354004 2.911999702453613 M -3.821999549865723 2.911999702453613 C 0.1540004014968872 2.911999702453613 3.374000310897827 0.755999743938446 4.214000225067139 -2.380000352859497 L -0.7979996204376221 -2.380000352859497 C -1.217999577522278 -1.596000194549561 -2.393999576568604 -1.092000246047974 -3.821999549865723 -1.092000246047974 C -5.697999477386475 -1.092000246047974 -7.013999462127686 -2.184000253677368 -7.405999660491943 -4.088000297546387 L 4.606000423431396 -4.088000297546387 C 4.690000534057617 -4.676000118255615 4.718000411987305 -5.208000183105469 4.718000411987305 -5.684000015258789 C 4.718000411987305 -10.69600009918213 1.190000414848328 -14.28000068664551 -3.821999549865723 -14.28000068664551 C -8.833999633789062 -14.28000068664551 -12.36199951171875 -10.66800022125244 -12.36199951171875 -5.684000015258789 C -12.36199951171875 -0.6720002293586731 -8.833999633789062 2.911999702453613 -3.821999549865723 2.911999702453613 M -0.1539995968341827 -7.308000087738037 L -7.433999538421631 -7.308000087738037 C -7.013999462127686 -9.268000602722168 -5.781999588012695 -10.33199977874756 -3.821999549865723 -10.33199977874756 C -1.86199963092804 -10.33199977874756 -0.5739995837211609 -9.268000602722168 -0.1539995968341827 -7.308000087738037 M 31.31800079345703 2.519999742507935 L 31.31800079345703 -9.604000091552734 L 34.56600189208984 -9.604000091552734 L 34.56600189208984 -13.88800048828125 L 31.31800079345703 -13.88800048828125 L 31.31800079345703 -18.76000022888184 L 26.33399963378906 -18.76000022888184 L 26.33399963378906 -13.88800048828125 L 23.08600044250488 -13.88800048828125 L 23.08600044250488 -9.604000091552734 L 26.33399963378906 -9.604000091552734 L 26.33399963378906 2.519999742507935 L 31.31800079345703 2.519999742507935 M -22.24600028991699 2.519999742507935 C -17.12199974060059 2.519999742507935 -14.09799957275391 -0.1680002510547638 -14.09799957275391 -4.396000385284424 C -14.09799957275391 -6.6080002784729 -15.63799953460693 -8.736000061035156 -17.82200050354004 -9.435999870300293 C -16.25399971008301 -10.02400016784668 -15.16199970245361 -11.8720006942749 -15.16199970245361 -13.49600028991699 C -15.16199970245361 -17.66800117492676 -18.01799964904785 -20.30000114440918 -23.08600044250488 -20.30000114440918 L -32.99800109863281 -20.30000114440918 L -32.99800109863281 2.519999742507935 L -22.24600028991699 2.519999742507935 M -27.90200042724609 -6.972000122070312 L -22.46999931335449 -6.972000122070312 C -20.45400047302246 -6.972000122070312 -19.19400024414062 -6.076000213623047 -19.19400024414062 -4.396000385284424 C -19.19400024414062 -2.716000318527222 -20.45400047302246 -1.820000290870667 -22.46999931335449 -1.820000290870667 L -27.90200042724609 -1.820000290870667 L -27.90200042724609 -6.972000122070312 M -27.90200042724609 -15.96000003814697 L -23.30999946594238 -15.96000003814697 C -21.37800025939941 -15.96000003814697 -20.25799942016602 -15.09200000762939 -20.25799942016602 -13.49600028991699 C -20.25799942016602 -11.90000057220459 -21.37800025939941 -11.0600004196167 -23.30999946594238 -11.0600004196167 L -27.90200042724609 -11.0600004196167 L -27.90200042724609 -15.96000003814697 M 14.32200050354004 4.411999702453613 C 11.87314033508301 4.411999702453613 9.709700584411621 3.800779819488525 8.065570831298828 2.644429683685303 C 6.708221912384033 1.689769744873047 5.779763698577881 0.3938239514827728 5.36359167098999 -1.095035433769226 C 4.752901554107666 0.4211369454860687 3.672822952270508 1.718214273452759 2.199740409851074 2.692939758300781 C 0.5001304149627686 3.817559719085693 -1.582159638404846 4.411999702453613 -3.821999549865723 4.411999702453613 C -8.129785537719727 4.411999702453613 -11.56287574768066 2.084049224853516 -13.05469703674316 -1.499508380889893 C -13.49186134338379 -0.2152491509914398 -14.23811626434326 0.89561927318573 -15.27266979217529 1.784979701042175 C -16.97356033325195 3.247139692306519 -19.3848991394043 4.019999980926514 -22.24600028991699 4.019999980926514 L -34.49800109863281 4.019999980926514 L -34.49800109863281 -21.80000114440918 L -23.08600044250488 -21.80000114440918 C -20.25522994995117 -21.80000114440918 -17.8863697052002 -21.03619956970215 -16.23554039001465 -19.5911808013916 C -14.55190944671631 -18.11746978759766 -13.66199970245361 -16.00979042053223 -13.66199970245361 -13.49600028991699 C -13.66199970245361 -12.09608554840088 -14.22169399261475 -10.69240760803223 -15.11538314819336 -9.624455451965332 C -14.67409992218018 -9.259148597717285 -14.27497386932373 -8.837900161743164 -13.9319896697998 -8.37086009979248 C -13.82944774627686 -8.231229782104492 -13.73242568969727 -8.088230133056641 -13.64101409912109 -7.942212581634521 C -12.70204925537109 -12.59521389007568 -8.860177040100098 -15.78000068664551 -3.821999549865723 -15.78000068664551 C 0.4005676805973053 -15.78000068664551 3.782902479171753 -13.54278945922852 5.320091247558594 -10.0792236328125 C 5.600656986236572 -11.69057464599609 6.559508323669434 -13.10111904144287 8.089450836181641 -14.12108039855957 C 9.694110870361328 -15.19085025787354 11.87771034240723 -15.78000068664551 14.23800086975098 -15.78000068664551 C 17.37808609008789 -15.78000068664551 19.99493598937988 -14.71449756622314 21.58600044250488 -12.95926475524902 L 21.58600044250488 -15.38800048828125 L 24.83399963378906 -15.38800048828125 L 24.83399963378906 -20.26000022888184 L 32.81800079345703 -20.26000022888184 L 32.81800079345703 -15.38800048828125 L 36.06600189208984 -15.38800048828125 L 36.06600189208984 -8.104000091552734 L 32.81800079345703 -8.104000091552734 L 32.81800079345703 4.019999980926514 L 24.83399963378906 4.019999980926514 L 24.83399963378906 -8.104000091552734 L 23.29638862609863 -8.104000091552734 L 23.33525085449219 -7.460000038146973 L 20.92551803588867 -7.460000038146973 C 21.12674522399902 -7.329668045043945 21.31593894958496 -7.1924729347229 21.49365043640137 -7.048270225524902 C 22.83955955505371 -5.956130027770996 23.52200126647949 -4.432600021362305 23.52200126647949 -2.520000219345093 C 23.52200126647949 1.496669769287109 19.65283966064453 4.411999702453613 14.32200050354004 4.411999702453613 Z M -26.40200042724609 -3.320000171661377 L -22.46999931335449 -3.320000171661377 C -20.69400024414062 -3.320000171661377 -20.69400024414062 -4.074020385742188 -20.69400024414062 -4.396000385284424 C -20.69400024414062 -4.71798038482666 -20.69400024414062 -5.472000122070312 -22.46999931335449 -5.472000122070312 L -26.40200042724609 -5.472000122070312 L -26.40200042724609 -3.320000171661377 Z M 6.128267765045166 -4.160000324249268 L 7.787346839904785 -4.160000324249268 C 7.742225170135498 -4.18988037109375 7.697737693786621 -4.220117092132568 7.653850555419922 -4.250730037689209 C 7.070333480834961 -4.657749176025391 6.59135627746582 -5.131067752838135 6.217991352081299 -5.668538093566895 C 6.217411994934082 -5.153895854949951 6.187961578369141 -4.657544136047363 6.128267765045166 -4.160000324249268 Z M -4.238376140594482 -8.808000564575195 L -3.402345895767212 -8.808000564575195 C -3.534430980682373 -8.824075698852539 -3.674222946166992 -8.831999778747559 -3.821999549865723 -8.831999778747559 C -3.969080924987793 -8.831999778747559 -4.10774040222168 -8.824109077453613 -4.238376140594482 -8.808000564575195 Z M -26.40200042724609 -12.5600004196167 L -23.30999946594238 -12.5600004196167 C -22.7106990814209 -12.5600004196167 -22.22807884216309 -12.66907024383545 -21.98587989807129 -12.85925006866455 C -21.91769027709961 -12.91279983520508 -21.75799942016602 -13.03818988800049 -21.75799942016602 -13.49600028991699 C -21.75799942016602 -13.96468067169189 -21.92448997497559 -14.0976505279541 -21.99557876586914 -14.1544303894043 C -22.23872947692871 -14.34862041473389 -22.71781921386719 -14.46000003814697 -23.30999946594238 -14.46000003814697 L -26.40200042724609 -14.46000003814697 L -26.40200042724609 -12.5600004196167 Z" stroke="none" fill="#000"/>
          </g>
          <path id="패스_52398" data-name="패스 52398" d="M-54.068,2.52h10.752c5.124,0,8.148-2.688,8.148-6.916a5.428,5.428,0,0,0-3.724-5.04,4.531,4.531,0,0,0,2.66-4.06c0-4.172-2.856-6.8-7.924-6.8h-9.912Zm5.1-13.58v-4.9h4.592c1.932,0,3.052.868,3.052,2.464s-1.12,2.436-3.052,2.436Zm0,9.24V-6.972h5.432c2.016,0,3.276.9,3.276,2.576S-41.524-1.82-43.54-1.82Zm16.38,4.34h4.984v-8.4c0-2.492,1.6-4,4.256-4a5.52,5.52,0,0,1,2.548.56L-20.86-14a6.106,6.106,0,0,0-2.156-.28,5.384,5.384,0,0,0-4.592,2.072v-1.68h-4.984Zm20.44.392A5.532,5.532,0,0,0-7.448.84V2.52h4.984V-13.888H-7.448v1.68a5.532,5.532,0,0,0-4.7-2.072c-4.7,0-7.98,3.612-7.98,8.6S-16.856,2.912-12.152,2.912Zm.784-4.256c-2.38,0-3.892-1.82-3.892-4.34s1.512-4.34,3.892-4.34c2.436,0,4,1.82,4,4.34S-8.932-1.344-11.368-1.344ZM1.008,2.52H5.992V-5.908C5.992-8.456,7.168-10,9.128-10,11-10,12.012-8.624,12.012-6.132V2.52H17V-6.972c0-4.536-2.6-7.308-6.412-7.308a5.384,5.384,0,0,0-4.592,2.072v-1.68H1.008Zm26.208.392A5.532,5.532,0,0,0,31.92.84V2.52H36.9V-21H31.92v8.792a5.532,5.532,0,0,0-4.7-2.072c-4.7,0-7.98,3.612-7.98,8.6S22.512,2.912,27.216,2.912ZM28-1.344c-2.38,0-3.892-1.82-3.892-4.34s1.512-4.34,3.892-4.34c2.436,0,4,1.82,4,4.34S30.436-1.344,28-1.344ZM47.236-14.28c-4.172,0-7.5,2.016-7.5,5.208,0,3.332,2.576,4.536,6.5,5.124,2.828.42,3.948.924,3.948,1.708C50.176-1.484,49-.9,47.4-.9c-1.568,0-2.8-.7-2.968-1.764H39.62c.168,3.444,3.416,5.572,7.7,5.572,4.172,0,7.7-2.072,7.7-5.432,0-2.828-1.736-4.424-6.58-5.152-2.8-.448-3.892-.84-3.892-1.652,0-.728,1.092-1.26,2.6-1.26,1.456,0,2.6.616,2.772,1.624H54.74C54.544-12.208,51.324-14.28,47.236-14.28Z" transform="translate(-15273.544 7595.048)"/>
          <g id="그룹_116295" data-name="그룹 116295" transform="translate(-15391.421 7577.016) rotate(-19)">
            <g id="그룹_116208" data-name="그룹 116208" transform="translate(12.989 2.001)">
              <path id="패스_42587" data-name="패스 42587" d="M46.647,20.277V11.848H36.179c1.749-4.173,2.024-9.5-1.162-9.825C31.8,1.692,31.615,5.1,29.69,9.264c-.265.573-.529,1.091-.791,1.568a7.741,7.741,0,0,1-6.791,4.024h-3.7V30.564H24.5A7.721,7.721,0,0,1,29.1,32.136,11.158,11.158,0,0,0,35.8,34.352H46.647V25.992a11.261,11.261,0,0,0,0-5.715Z" transform="translate(-18.411 -2.001)" fill="#ffdf5b" stroke="#000" stroke-linecap="round" stroke-linejoin="round" stroke-width="1.5"/>
              <path id="패스_42589" data-name="패스 42589" d="M109.686,41.427c0,2.909-2.734,3.141-6.107,3.141s-6.106-.231-6.106-3.141,2.734-3.141,6.106-3.141S109.686,38.517,109.686,41.427Z" transform="translate(-76.017 -28.439)" fill="#ffdf5b" stroke="#000" stroke-linecap="round" stroke-linejoin="round" stroke-width="1.5"/>
              <path id="패스_42591" data-name="패스 42591" d="M109.686,101.208c0,2.909-2.734,3.141-6.107,3.141s-6.106-.231-6.106-3.141,2.734-3.141,6.106-3.141S109.686,98.3,109.686,101.208Z" transform="translate(-76.017 -71.997)" fill="#ffdf5b" stroke="#000" stroke-linecap="round" stroke-linejoin="round" stroke-width="1.5"/>
              <path id="패스_42593" data-name="패스 42593" d="M112.412,82.118c0,2.72-3.344,2.936-7.47,2.936s-7.469-.216-7.469-2.936,3.344-2.936,7.469-2.936S112.412,79.4,112.412,82.118Z" transform="translate(-76.017 -58.237)" fill="#ffdf5b" stroke="#000" stroke-linecap="round" stroke-linejoin="round" stroke-width="1.5"/>
              <path id="패스_42595" data-name="패스 42595" d="M112.412,60.751c0,2.72-3.344,2.936-7.47,2.936s-7.469-.216-7.469-2.936,3.344-2.936,7.469-2.936S112.412,58.031,112.412,60.751Z" transform="translate(-76.017 -42.668)" fill="#ffdf5b" stroke="#000" stroke-linecap="round" stroke-linejoin="round" stroke-width="1.5"/>
              <path id="패스_42598" data-name="패스 42598" d="M73.205,38.287a8.319,8.319,0,0,1-3.977,9.747" transform="translate(-55.437 -28.44)" fill="#ffdf5b" stroke="#000" stroke-linecap="round" stroke-linejoin="round" stroke-width="1.5"/>
            </g>
          </g>
        </g>
        <path id="패스_52157" data-name="패스 52157" d="M6.176.384l.586,2.722a5.285,5.285,0,0,0,3.69,3.962l.6.174a.487.487,0,0,1,0,.935l-.6.174a5.285,5.285,0,0,0-3.69,3.962l-.586,2.722a.487.487,0,0,1-.952,0l-.586-2.722A5.285,5.285,0,0,0,.949,8.351l-.6-.174a.487.487,0,0,1,0-.935l.6-.174a5.285,5.285,0,0,0,3.69-3.962L5.225.384a.487.487,0,0,1,.952,0" transform="translate(-15335.779 7599.85)" fill="#ffdf5b" stroke="#000" stroke-width="1.5"/>
        <path id="패스_52159" data-name="패스 52159" d="M7.406.461l.7,3.263a6.337,6.337,0,0,0,4.424,4.75l.717.209a.584.584,0,0,1,0,1.121l-.717.208a6.337,6.337,0,0,0-4.424,4.751l-.7,3.263a.584.584,0,0,1-1.141,0l-.7-3.263a6.337,6.337,0,0,0-4.424-4.751L.421,9.8a.584.584,0,0,1,0-1.121l.717-.209a6.336,6.336,0,0,0,4.424-4.75l.7-3.263a.584.584,0,0,1,1.141,0" transform="translate(-15084.492 7639.713)" fill="#ffdf5b" stroke="#000" stroke-width="1.5"/>
        <path id="패스_52158" data-name="패스 52158" d="M8.793.547l.834,3.875a7.524,7.524,0,0,0,5.253,5.641l.851.248a.693.693,0,0,1,0,1.331l-.851.247A7.525,7.525,0,0,0,9.628,17.53L8.793,21.4a.693.693,0,0,1-1.355,0L6.6,17.53a7.524,7.524,0,0,0-5.253-5.641L.5,11.641a.693.693,0,0,1,0-1.331l.851-.248A7.524,7.524,0,0,0,6.6,4.422L7.439.547a.693.693,0,0,1,1.355,0" transform="translate(-15325.379 7581.714)" fill="#ffdf5b" stroke="#000" stroke-width="1.5"/>
      </g>
    </g>
  </g>
</svg>
