<?xml version="1.0" encoding="utf-8"?>
<!-- Generator: Adobe Illustrator 26.3.1, SVG Export Plug-In . SVG Version: 6.00 Build 0)  -->
<svg version="1.1" xmlns="http://www.w3.org/2000/svg" xmlns:xlink="http://www.w3.org/1999/xlink" x="0px" y="0px" viewBox="0 0 286 79" style="enable-background:new 0 0 286 79;" xml:space="preserve">
<style type="text/css">
.st0{fill:none;}
.st1{fill:#FE4847;stroke:#FFFFFF;stroke-width:7;}
.st2{fill:#FE4847;}
.st3{fill:none;stroke:#000000;stroke-width:1.5;}
.st4{opacity:0.5;clip-path:url(#SVGID_00000168097093796453831800000016369044259335693491_);}
.st5{opacity:0.7;clip-path:url(#SVGID_00000108995043811252057600000005011265859012350870_);}
.st6{fill:#FFFFFF;}
.st7{fill:#FFDF5B;stroke:#000000;stroke-width:1.5;}
.st8{fill:#FFDF5B;stroke:#000000;stroke-width:1.5;stroke-linecap:round;stroke-linejoin:round;}

.star {position:relative;animation:star both infinite 4s;}
.star.s1 {transform-origin:10% 17%;}
.star.s2 {transform-origin:6% 40%;animation-delay:0.5s;}
.star.s3 {transform-origin:94% 85%;animation-delay:0.7s;}

@keyframes star {
0% {transform:scale(0.4);opacity:0;}	
20% {transform:scale(1.1);opacity:1;}
40% {transform:scale(0.6);}	
58% {transform:scale(1);}
100% {transform:scale(1);}
}

.rot {position:relative;animation:rotate both linear infinite 3s;transform-origin:37% 50%;}

@keyframes rotate {
0% {transform:rotate(0deg);}
20% {transform:rotate(-13deg);}
50% {transform:rotate(0deg);}
70% {transform:rotate(10deg);}
100% {transform:rotate(0deg);}
}
</style>
<g id="레이어_1">
	<g id="그룹_116366" transform="translate(15347 -7581)">
		<rect id="사각형_22432" x="-15347" y="7581" class="st0" width="286" height="79"/>
		<path id="합치기_192" class="st1" d="M-15342.5,7595h277v55h-277V7595z"/>
		<rect x="-15342" y="7595.5" class="st2" width="276" height="54"/>
		<rect x="-15342.8" y="7594.8" class="st3" width="277.5" height="55.5"/>
		<g>
			<defs>
				<rect id="SVGID_1_" x="-15342" y="7595.5" width="276" height="54"/>
			</defs>
			<clipPath id="SVGID_00000094587144466015365940000008186572299249549185_">
				<use xlink:href="#SVGID_1_"  style="overflow:visible;"/>
			</clipPath>
			
				<g id="마스크_그룹_112052" style="opacity:0.5;clip-path:url(#SVGID_00000094587144466015365940000008186572299249549185_);">
				<g>
					<defs>
						<rect id="SVGID_00000081625756372291584280000000760515304074972557_" x="-15391" y="7211.5" width="375" height="822"/>
					</defs>
					<clipPath id="SVGID_00000011019804623119140570000005921806538434165683_">
						<use xlink:href="#SVGID_00000081625756372291584280000000760515304074972557_"  style="overflow:visible;"/>
					</clipPath>
					
						<g id="마스크_그룹_112051" transform="translate(-15391 6509)" style="opacity:0.7;clip-path:url(#SVGID_00000011019804623119140570000005921806538434165683_);">
						<g id="line" transform="translate(15747 -4729)">
							<g id="line_horizontal">
								<rect id="사각형_22363" x="-15747" y="5281.5" class="st6" width="375" height="1"/>
								<rect id="사각형_22364" x="-15747" y="5533.5" class="st6" width="375" height="1"/>
								<rect id="사각형_22365" x="-15747" y="5911.5" class="st6" width="375" height="1"/>
								<rect id="사각형_22366" x="-15747" y="6289.5" class="st6" width="375" height="1"/>
								<rect id="사각형_22367" x="-15747" y="5407.5" class="st6" width="375" height="1"/>
								<rect id="사각형_22368" x="-15747" y="5785.5" class="st6" width="375" height="1"/>
								<rect id="사각형_22369" x="-15747" y="6163.5" class="st6" width="375" height="1"/>
								<rect id="사각형_22370" x="-15747" y="5659.5" class="st6" width="375" height="1"/>
								<rect id="사각형_22371" x="-15747" y="6037.5" class="st6" width="375" height="1"/>
								<rect id="사각형_22372" x="-15747" y="5344.5" class="st6" width="375" height="1"/>
								<rect id="사각형_22373" x="-15747" y="5722.5" class="st6" width="375" height="1"/>
								<rect id="사각형_22374" x="-15747" y="6100.5" class="st6" width="375" height="1"/>
								<rect id="사각형_22375" x="-15747" y="5596.5" class="st6" width="375" height="1"/>
								<rect id="사각형_22376" x="-15747" y="5974.5" class="st6" width="375" height="1"/>
								<rect id="사각형_22377" x="-15747" y="5470.5" class="st6" width="375" height="1"/>
								<rect id="사각형_22378" x="-15747" y="5848.5" class="st6" width="375" height="1"/>
								<rect id="사각형_22379" x="-15747" y="6226.5" class="st6" width="375" height="1"/>
								<rect id="사각형_22380" x="-15747" y="5302.5" class="st6" width="375" height="1"/>
								<rect id="사각형_22381" x="-15747" y="5554.5" class="st6" width="375" height="1"/>
								<rect id="사각형_22382" x="-15747" y="5932.5" class="st6" width="375" height="1"/>
								<rect id="사각형_22383" x="-15747" y="6310.5" class="st6" width="375" height="1"/>
								<rect id="사각형_22384" x="-15747" y="5428.5" class="st6" width="375" height="1"/>
								<rect id="사각형_22385" x="-15747" y="5806.5" class="st6" width="375" height="1"/>
								<rect id="사각형_22386" x="-15747" y="6184.5" class="st6" width="375" height="1"/>
								<rect id="사각형_22387" x="-15747" y="5680.5" class="st6" width="375" height="1"/>
								<rect id="사각형_22388" x="-15747" y="6058.5" class="st6" width="375" height="1"/>
								<rect id="사각형_22389" x="-15747" y="5365.5" class="st6" width="375" height="1"/>
								<rect id="사각형_22390" x="-15747" y="5743.5" class="st6" width="375" height="1"/>
								<rect id="사각형_22391" x="-15747" y="6121.5" class="st6" width="375" height="1"/>
								<rect id="사각형_22392" x="-15747" y="5617.5" class="st6" width="375" height="1"/>
								<rect id="사각형_22393" x="-15747" y="5995.5" class="st6" width="375" height="1"/>
								<rect id="사각형_22394" x="-15747" y="5491.5" class="st6" width="375" height="1"/>
								<rect id="사각형_22395" x="-15747" y="5869.5" class="st6" width="375" height="1"/>
								<rect id="사각형_22396" x="-15747" y="6247.5" class="st6" width="375" height="1"/>
								<rect id="사각형_22397" x="-15747" y="5323.5" class="st6" width="375" height="1"/>
								<rect id="사각형_22398" x="-15747" y="5575.5" class="st6" width="375" height="1"/>
								<rect id="사각형_22399" x="-15747" y="5953.5" class="st6" width="375" height="1"/>
								<rect id="사각형_22400" x="-15747" y="5449.5" class="st6" width="375" height="1"/>
								<rect id="사각형_22401" x="-15747" y="5827.5" class="st6" width="375" height="1"/>
								<rect id="사각형_22402" x="-15747" y="6205.5" class="st6" width="375" height="1"/>
								<rect id="사각형_22403" x="-15747" y="5701.5" class="st6" width="375" height="1"/>
								<rect id="사각형_22404" x="-15747" y="6079.5" class="st6" width="375" height="1"/>
								<rect id="사각형_22405" x="-15747" y="5386.5" class="st6" width="375" height="1"/>
								<rect id="사각형_22406" x="-15747" y="5764.5" class="st6" width="375" height="1"/>
								<rect id="사각형_22407" x="-15747" y="6142.5" class="st6" width="375" height="1"/>
								<rect id="사각형_22408" x="-15747" y="5638.5" class="st6" width="375" height="1"/>
								<rect id="사각형_22409" x="-15747" y="6016.5" class="st6" width="375" height="1"/>
								<rect id="사각형_22410" x="-15747" y="5512.5" class="st6" width="375" height="1"/>
								<rect id="사각형_22411" x="-15747" y="5890.5" class="st6" width="375" height="1"/>
								<rect id="사각형_22412" x="-15747" y="6268.5" class="st6" width="375" height="1"/>
							</g>
							<g id="line_vertical">
								<rect id="사각형_22413" x="-15727" y="5261.5" class="st6" width="1" height="1067"/>
								<rect id="사각형_22414" x="-15601" y="5261.5" class="st6" width="1" height="1067"/>
								<rect id="사각형_22415" x="-15475" y="5261.5" class="st6" width="1" height="1067"/>
								<rect id="사각형_22416" x="-15685" y="5261.5" class="st6" width="1" height="1067"/>
								<rect id="사각형_22417" x="-15559" y="5261.5" class="st6" width="1" height="1067"/>
								<rect id="사각형_22418" x="-15433" y="5261.5" class="st6" width="1" height="1067"/>
								<rect id="사각형_22419" x="-15643" y="5261.5" class="st6" width="1" height="1067"/>
								<rect id="사각형_22420" x="-15517" y="5261.5" class="st6" width="1" height="1067"/>
								<rect id="사각형_22421" x="-15391" y="5261.5" class="st6" width="1" height="1067"/>
								<rect id="사각형_22422" x="-15706" y="5261.5" class="st6" width="1" height="1067"/>
								<rect id="사각형_22423" x="-15580" y="5261.5" class="st6" width="1" height="1067"/>
								<rect id="사각형_22424" x="-15454" y="5261.5" class="st6" width="1" height="1067"/>
								<rect id="사각형_22425" x="-15664" y="5261.5" class="st6" width="1" height="1067"/>
								<rect id="사각형_22426" x="-15538" y="5261.5" class="st6" width="1" height="1067"/>
								<rect id="사각형_22427" x="-15412" y="5261.5" class="st6" width="1" height="1067"/>
								<rect id="사각형_22428" x="-15622" y="5261.5" class="st6" width="1" height="1067"/>
								<rect id="사각형_22429" x="-15496" y="5261.5" class="st6" width="1" height="1067"/>
							</g>
						</g>
					</g>
				</g>
			</g>
		</g>
		<g id="그룹_116296" transform="translate(131.052 35.17)">
			<g id="패스_52156" transform="translate(-15414.055 7596.742)">
				<path d="M14.3,4c-2.2,0-4.2-0.5-5.7-1.6C7.1,1.3,6.2-0.3,6.1-2.1l0-0.5h0.5h4.8h0.4l0.1,0.4c0.1,0.8,1.1,1.3,2.5,1.3
					c1.4,0,2.3-0.5,2.3-0.8c0-0.3-0.5-0.8-3.5-1.2C9.7-3.4,6.2-4.5,6.2-8.5c0-1.7,0.9-3.2,2.4-4.2c1.4-1,3.4-1.5,5.6-1.5
					c4.5,0,7.8,2.4,8,5.8l0,0.5h-0.5h-4.8h-0.4l-0.1-0.4c-0.1-0.7-1-1.2-2.3-1.2c-1.4,0-2.1,0.4-2.1,0.8c0,0.5,1.9,0.9,3.5,1.2
					c4.9,0.7,7,2.4,7,5.6c0,1.8-0.9,3.3-2.5,4.4C18.5,3.4,16.5,4,14.3,4z M-3.8,4C-6.4,4-8.7,3-10.3,1.4c-1.6-1.7-2.5-4-2.5-6.5
					c0-2.5,0.9-4.9,2.5-6.5c1.6-1.7,4-2.6,6.5-2.6c2.6,0,4.9,0.9,6.5,2.6c1.6,1.7,2.5,4,2.5,6.5c0,0.6,0,1.1-0.1,1.7L5-3H4.6H-6.7
					c0.5,1.3,1.5,2,2.9,2c1.2,0,2.3-0.4,2.6-1l0.1-0.3h0.3h5h0.7L4.7-1.7C3.8,1.7,0.4,4-3.8,4z M-6.8-7.3h6c-0.5-1.3-1.5-2-3-2
					C-5.3-9.3-6.3-8.6-6.8-7.3z M31.8,3.6h-0.5h-5h-0.5V3.1V-8.6h-2.7h-0.5v-0.5v-4.3v-0.5h0.5h2.7v-4.4v-0.5h0.5h5h0.5v0.5v4.4h2.7
					h0.5v0.5v4.3v0.5h-0.5h-2.7V3.1V3.6z M-22.2,3.6H-33h-0.5V3.1v-22.8v-0.5h0.5h9.9c2.6,0,4.7,0.7,6.2,2c1.5,1.3,2.2,3.1,2.2,5.3
					c0,0.9-0.3,1.9-0.8,2.7c-0.3,0.5-0.7,1-1.2,1.3c1.8,1,3.1,3,3.1,5.1C-13.6,0.7-16.9,3.6-22.2,3.6z M-27.4-1.8h4.9
					c1,0,2.8-0.3,2.8-2.1s-1.7-2.1-2.8-2.1h-4.9V-1.8z M-27.4-11h4.1c1.7,0,2.6-0.7,2.6-1.9c0-1.6-1.4-2-2.6-2h-4.1V-11z"/>
				<path d="M14.3,3.5C18.5,3.5,22,1.4,22-2c0-2.8-1.7-4.4-6.6-5.2c-2.8-0.4-3.9-0.8-3.9-1.7c0-0.7,1.1-1.3,2.6-1.3
					c1.5,0,2.6,0.6,2.8,1.6h4.8c-0.2-3.2-3.4-5.3-7.5-5.3c-4.2,0-7.5,2-7.5,5.2c0,3.3,2.6,4.5,6.5,5.1c2.8,0.4,3.9,0.9,3.9,1.7
					c0,0.8-1.2,1.3-2.8,1.3c-1.6,0-2.8-0.7-3-1.8H6.6C6.8,1.3,10,3.5,14.3,3.5 M-3.8,3.5c4,0,7.2-2.2,8-5.3h-5
					c-0.4,0.8-1.6,1.3-3,1.3c-1.9,0-3.2-1.1-3.6-3h12c0.1-0.6,0.1-1.1,0.1-1.6c0-5-3.5-8.6-8.5-8.6s-8.5,3.6-8.5,8.6
					C-12.4-0.1-8.8,3.5-3.8,3.5 M-0.2-6.8h-7.3c0.4-2,1.7-3,3.6-3S-0.6-8.7-0.2-6.8 M31.3,3.1V-9.1h3.2v-4.3h-3.2v-4.9h-5v4.9h-3.2
					v4.3h3.2V3.1H31.3 M-22.2,3.1c5.1,0,8.1-2.7,8.1-6.9c0-2.2-1.5-4.3-3.7-5c1.6-0.6,2.7-2.4,2.7-4.1c0-4.2-2.9-6.8-7.9-6.8H-33
					V3.1H-22.2 M-27.9-6.4h5.4c2,0,3.3,0.9,3.3,2.6s-1.3,2.6-3.3,2.6h-5.4V-6.4 M-27.9-15.4h4.6c1.9,0,3.1,0.9,3.1,2.5
					s-1.1,2.4-3.1,2.4h-4.6V-15.4 M14.3,4.5c-2.3,0-4.4-0.6-6-1.7C6.7,1.6,5.7-0.1,5.6-2.1l-0.1-1H10c-0.8-0.3-1.5-0.6-2.1-1
					c-1.5-1-2.2-2.5-2.2-4.4c0-1.9,0.9-3.5,2.6-4.6c1.5-1,3.6-1.6,5.9-1.6c3.7,0,6.6,1.5,7.8,3.9v-3.5h3.2v-4.9h7v4.9h3.2v6.3h-3.2
					V4.1h-7V-8.1h-2.6l0,0.6h-4.1c1,0.3,1.9,0.8,2.5,1.3C22.4-5.1,23-3.8,23-2c0,1.9-1,3.6-2.7,4.8C18.7,3.9,16.6,4.5,14.3,4.5z
					 M12.4-2.5l0,0.3c0.1,0.5,0.9,0.9,2,0.9c0.8,0,1.4-0.2,1.6-0.3c-0.3-0.2-1.1-0.4-3-0.7C12.8-2.5,12.6-2.5,12.4-2.5z M15.6-8.1
					c0.1,0,0.3,0,0.4,0.1l0-0.2C15.9-8.7,15.1-9,14.2-9c-0.7,0-1.2,0.1-1.4,0.3c0.1,0.1,0.3,0.1,0.5,0.2C13.8-8.4,14.5-8.3,15.6-8.1
					z M-3.8,4.5c-2.7,0-5.1-1-6.9-2.7c-1.2-1.3-2.1-2.9-2.5-4.7c-0.2,2-1,3.7-2.5,4.9c-1.6,1.4-3.9,2.1-6.6,2.1H-34v-24.8h10.9
					c2.7,0,5,0.7,6.5,2.1c1.6,1.4,2.4,3.4,2.4,5.7c0,1.5-0.7,2.9-1.7,3.9c0.6,0.4,1.1,0.9,1.5,1.5c0.4,0.6,0.8,1.3,1,2
					c0.2-5.3,4.1-9.2,9.5-9.2c2.7,0,5.1,1,6.9,2.7c1.7,1.7,2.7,4.2,2.7,6.9c0,0.6,0,1.2-0.1,1.7L5.5-2.8h0l0,0l0,0.3h0l-0.3,1
					C4.2,2,0.6,4.5-3.8,4.5z M-5.9-2.5c0.5,0.7,1.2,1,2.1,1c1.1,0,1.9-0.4,2.1-0.8l0.1-0.2H-5.9z M-26.9-2.3h4.4
					c1.5,0,2.3-0.5,2.3-1.6s-0.8-1.6-2.3-1.6h-4.4V-2.3z M-6-7.8h4.4c-0.5-0.7-1.2-1-2.2-1C-4.8-8.8-5.5-8.5-6-7.8z M-26.9-11.5h3.6
					c2.1,0,2.1-1,2.1-1.4c0-0.4,0-1.5-2.1-1.5h-3.6V-11.5z"/>
			</g>
			<g id="패스_52153" transform="translate(-15416.055 7594.742)">
				<path class="st6" d="M14.3,4.2C12,4.2,10,3.6,8.5,2.6C6.9,1.4,6-0.2,5.9-2.1l0-0.8h0.8h4.8h0.5C10.3-3.2,9-3.7,8.1-4.3
					C6.7-5.3,6-6.7,6-8.5c0-1.8,0.9-3.3,2.5-4.4c1.5-1,3.5-1.5,5.7-1.5c4.2,0,7.4,2,8.1,5v-3.9v-0.8h0.8h2.5v-4.1V-19h0.8h5h0.8v0.8
					v4.1h2.5h0.8v0.8v4.3v0.8h-0.8h-2.5V3.1v0.8h-0.8h-5h-0.8V3.1V-8.3h-2.5h-0.6l0,0.6h-0.8h-4.8h-0.2c1.9,0.4,3.3,1,4.3,1.7
					c1.2,1,1.8,2.2,1.8,3.9c0,1.8-0.9,3.5-2.6,4.6C18.6,3.6,16.6,4.2,14.3,4.2z M12.1-2.8l0.1,0.6c0.1,0.7,1,1.1,2.2,1.1
					c0.6,0,1.2-0.1,1.6-0.3c0.3-0.1,0.4-0.3,0.5-0.3c0,0-0.1-0.2-0.7-0.4c-0.6-0.2-1.4-0.4-2.6-0.6C12.8-2.7,12.4-2.8,12.1-2.8z
					 M15.6-7.9c0.2,0,0.5,0.1,0.7,0.1l-0.1-0.5c-0.1-0.6-0.9-1-2-1c-1.3,0-1.8,0.4-1.9,0.5c0,0,0,0,0,0c0,0,0,0,0,0
					c0,0,0.1,0.2,0.7,0.4C13.5-8.2,14.4-8.1,15.6-7.9z M-3.8,4.2c-2.6,0-5-0.9-6.7-2.6c-1.7-1.7-2.6-4.1-2.6-6.7
					c0-2.6,0.9-5,2.6-6.7c1.7-1.7,4.1-2.7,6.7-2.7c2.6,0,5,0.9,6.7,2.6c1.7,1.7,2.6,4.1,2.6,6.7c0,0.6,0,1.1-0.1,1.7L5.3-2.8H4.6
					h-11c0.5,1,1.4,1.5,2.5,1.5c1.3,0,2.1-0.5,2.4-0.9l0.2-0.4h0.4h5h1L4.9-1.6C4,1.9,0.5,4.2-3.8,4.2z M-6.4-7.5h5.2
					C-1.7-8.5-2.6-9-3.8-9C-5.1-9-5.9-8.5-6.4-7.5z M-22.2,3.8H-33h-0.8V3.1v-22.8v-0.8h0.8h9.9c2.6,0,4.8,0.7,6.4,2
					c1.5,1.3,2.3,3.2,2.3,5.5c0,0.9-0.3,1.9-0.9,2.8c-0.3,0.4-0.6,0.8-1,1.2c0.7,0.4,1.2,1,1.7,1.6c0.8,1,1.2,2.3,1.2,3.5
					c0,2.3-0.8,4.3-2.4,5.6C-17.3,3.1-19.6,3.8-22.2,3.8z M-27.2-2h4.7c1.2,0,2.5-0.3,2.5-1.8s-1.4-1.8-2.5-1.8h-4.7V-2z
					 M-27.2-11.3h3.8c2.3,0,2.3-1.3,2.3-1.7c0-0.6-0.2-1-0.5-1.2c-0.4-0.3-1-0.5-1.8-0.5h-3.8V-11.3z"/>
				<path d="M14.3,3.5C18.5,3.5,22,1.4,22-2c0-2.8-1.7-4.4-6.6-5.2c-2.8-0.4-3.9-0.8-3.9-1.7c0-0.7,1.1-1.3,2.6-1.3
					c1.5,0,2.6,0.6,2.8,1.6h4.8c-0.2-3.2-3.4-5.3-7.5-5.3c-4.2,0-7.5,2-7.5,5.2c0,3.3,2.6,4.5,6.5,5.1c2.8,0.4,3.9,0.9,3.9,1.7
					c0,0.8-1.2,1.3-2.8,1.3c-1.6,0-2.8-0.7-3-1.8H6.6C6.8,1.3,10,3.5,14.3,3.5 M-3.8,3.5c4,0,7.2-2.2,8-5.3h-5
					c-0.4,0.8-1.6,1.3-3,1.3c-1.9,0-3.2-1.1-3.6-3h12c0.1-0.6,0.1-1.1,0.1-1.6c0-5-3.5-8.6-8.5-8.6s-8.5,3.6-8.5,8.6
					C-12.4-0.1-8.8,3.5-3.8,3.5 M-0.2-6.8h-7.3c0.4-2,1.7-3,3.6-3S-0.6-8.7-0.2-6.8 M31.3,3.1V-9.1h3.2v-4.3h-3.2v-4.9h-5v4.9h-3.2
					v4.3h3.2V3.1H31.3 M-22.2,3.1c5.1,0,8.1-2.7,8.1-6.9c0-2.2-1.5-4.3-3.7-5c1.6-0.6,2.7-2.4,2.7-4.1c0-4.2-2.9-6.8-7.9-6.8H-33
					V3.1H-22.2 M-27.9-6.4h5.4c2,0,3.3,0.9,3.3,2.6s-1.3,2.6-3.3,2.6h-5.4V-6.4 M-27.9-15.4h4.6c1.9,0,3.1,0.9,3.1,2.5
					s-1.1,2.4-3.1,2.4h-4.6V-15.4 M14.3,5c-2.4,0-4.6-0.6-6.3-1.8c-1.4-1-2.3-2.3-2.7-3.7C4.8,1,3.7,2.3,2.2,3.2
					C0.5,4.4-1.6,5-3.8,5c-4.3,0-7.7-2.3-9.2-5.9c-0.4,1.3-1.2,2.4-2.2,3.3c-1.7,1.5-4.1,2.2-7,2.2h-12.3v-25.8h11.4
					c2.8,0,5.2,0.8,6.9,2.2c1.7,1.5,2.6,3.6,2.6,6.1c0,1.4-0.6,2.8-1.5,3.9c0.4,0.4,0.8,0.8,1.2,1.3c0.1,0.1,0.2,0.3,0.3,0.4
					c0.9-4.7,4.8-7.8,9.8-7.8c4.2,0,7.6,2.2,9.1,5.7c0.3-1.6,1.2-3,2.8-4c1.6-1.1,3.8-1.7,6.1-1.7c3.1,0,5.8,1.1,7.3,2.8v-2.4h3.2
					v-4.9h8v4.9h3.2v7.3h-3.2V4.6h-8V-7.6h-1.5l0,0.6h-2.4c0.2,0.1,0.4,0.3,0.6,0.4c1.3,1.1,2,2.6,2,4.5C23.5,2,19.7,5,14.3,5z
					 M-26.4-2.8h3.9c1.8,0,1.8-0.8,1.8-1.1s0-1.1-1.8-1.1h-3.9V-2.8z M6.1-3.6h1.7c0,0-0.1-0.1-0.1-0.1C7.1-4.1,6.6-4.6,6.2-5.1
					C6.2-4.6,6.2-4.1,6.1-3.6z M-4.2-8.3h0.8c-0.1,0-0.3,0-0.4,0C-4-8.3-4.1-8.3-4.2-8.3z M-26.4-12h3.1c0.6,0,1.1-0.1,1.3-0.3
					c0.1-0.1,0.2-0.2,0.2-0.6c0-0.5-0.2-0.6-0.2-0.7c-0.2-0.2-0.7-0.3-1.3-0.3h-3.1V-12z"/>
			</g>
			<path id="패스_52398" d="M-15327.6,7598.1h10.8c5.1,0,8.1-2.7,8.1-6.9c0-2.3-1.5-4.3-3.7-5c1.6-0.7,2.6-2.3,2.7-4.1
				c0-4.2-2.9-6.8-7.9-6.8h-9.9V7598.1z M-15322.5,7584.5v-4.9h4.6c1.9,0,3.1,0.9,3.1,2.5c0,1.6-1.1,2.4-3.1,2.4H-15322.5z
				 M-15322.5,7593.8v-5.2h5.4c2,0,3.3,0.9,3.3,2.6c0,1.7-1.3,2.6-3.3,2.6H-15322.5z M-15306.1,7598.1h5v-8.4c0-2.5,1.6-4,4.3-4
				c0.9,0,1.8,0.2,2.5,0.6l-0.1-4.7c-0.7-0.2-1.4-0.3-2.2-0.3c-1.8-0.1-3.5,0.7-4.6,2.1v-1.7h-5L-15306.1,7598.1z M-15285.7,7598.5
				c1.8,0.1,3.6-0.7,4.7-2.1v1.7h5v-16.4h-5v1.7c-1.1-1.4-2.9-2.2-4.7-2.1c-4.7,0-8,3.6-8,8.6
				C-15293.7,7594.9-15290.4,7598.5-15285.7,7598.5L-15285.7,7598.5z M-15284.9,7594.2c-2.4,0-3.9-1.8-3.9-4.3s1.5-4.3,3.9-4.3
				c2.4,0,4,1.8,4,4.3S-15282.5,7594.2-15284.9,7594.2L-15284.9,7594.2z M-15272.5,7598.1h5v-8.4c0-2.5,1.2-4.1,3.1-4.1
				c1.9,0,2.9,1.4,2.9,3.9v8.7h5v-9.5c0-4.5-2.6-7.3-6.4-7.3c-1.8-0.1-3.5,0.7-4.6,2.1v-1.7h-5V7598.1z M-15246.3,7598.5
				c1.8,0.1,3.6-0.7,4.7-2.1v1.7h5v-23.5h-5v8.8c-1.1-1.4-2.9-2.2-4.7-2.1c-4.7,0-8,3.6-8,8.6
				C-15254.3,7594.9-15251,7598.5-15246.3,7598.5z M-15245.5,7594.2c-2.4,0-3.9-1.8-3.9-4.3s1.5-4.3,3.9-4.3c2.4,0,4,1.8,4,4.3
				S-15243.1,7594.2-15245.5,7594.2z M-15226.3,7581.3c-4.2,0-7.5,2-7.5,5.2c0,3.3,2.6,4.5,6.5,5.1c2.8,0.4,3.9,0.9,3.9,1.7
				c0,0.8-1.2,1.3-2.8,1.3c-1.6,0-2.8-0.7-3-1.8h-4.8c0.2,3.4,3.4,5.6,7.7,5.6c4.2,0,7.7-2.1,7.7-5.4c0-2.8-1.7-4.4-6.6-5.2
				c-2.8-0.4-3.9-0.8-3.9-1.7c0-0.7,1.1-1.3,2.6-1.3c1.5,0,2.6,0.6,2.8,1.6h4.8C-15219,7583.4-15222.2,7581.3-15226.3,7581.3z"/>
		</g>
	</g>
</g>
<g id="레이어_2" class="star s1">
	<path id="패스_52158" class="st7" d="M30.4,1.8l0.8,3.9c0.6,2.7,2.6,4.9,5.3,5.6l0.9,0.2c0.4,0.1,0.6,0.5,0.5,0.9
		c-0.1,0.2-0.2,0.4-0.5,0.5l-0.9,0.2c-2.7,0.8-4.7,2.9-5.3,5.6l-0.8,3.9c-0.1,0.4-0.4,0.6-0.8,0.5c-0.3-0.1-0.5-0.3-0.5-0.5
		l-0.8-3.9c-0.6-2.7-2.6-4.9-5.3-5.6l-0.8-0.2c-0.4-0.1-0.6-0.5-0.5-0.9c0.1-0.2,0.2-0.4,0.5-0.5l0.9-0.2c2.7-0.8,4.7-2.9,5.2-5.6
		l0.8-3.9c0.1-0.4,0.4-0.6,0.8-0.5C30.1,1.3,30.4,1.5,30.4,1.8"/>
</g>
<g id="레이어_3" class="star s2 ">
	<path id="패스_52157" class="st7" d="M17.4,19.8l0.6,2.7c0.4,1.9,1.8,3.4,3.7,4l0.6,0.2c0.3,0.1,0.4,0.3,0.3,0.6
		c0,0.2-0.2,0.3-0.3,0.3l-0.6,0.2c-1.9,0.5-3.3,2.1-3.7,4l-0.6,2.7c-0.1,0.3-0.3,0.4-0.6,0.4c-0.2,0-0.3-0.2-0.4-0.4l-0.6-2.7
		c-0.4-1.9-1.8-3.4-3.7-4l-0.6-0.2c-0.3-0.1-0.4-0.3-0.3-0.6c0-0.2,0.2-0.3,0.3-0.3l0.6-0.2c1.9-0.5,3.3-2.1,3.7-4l0.6-2.7
		c0.1-0.3,0.3-0.4,0.6-0.4C17.2,19.4,17.4,19.6,17.4,19.8"/>
</g>
<g id="레이어_4" class="star s3">
	<path id="패스_52159" class="st7" d="M269.9,59.7l0.7,3.3c0.5,2.3,2.2,4.1,4.4,4.8l0.7,0.2c0.3,0.1,0.5,0.4,0.4,0.7
		c-0.1,0.2-0.2,0.3-0.4,0.4l-0.7,0.2c-2.2,0.7-3.9,2.5-4.4,4.8l-0.7,3.3c-0.1,0.3-0.4,0.5-0.7,0.4c-0.2,0-0.4-0.2-0.4-0.4l-0.7-3.3
		c-0.5-2.3-2.2-4.1-4.4-4.8l-0.7-0.2c-0.3-0.1-0.5-0.4-0.4-0.7c0.1-0.2,0.2-0.3,0.4-0.4l0.7-0.2c2.2-0.7,3.9-2.5,4.4-4.8l0.7-3.3
		c0.1-0.3,0.4-0.5,0.7-0.4C269.7,59.3,269.9,59.5,269.9,59.7"/>
</g>
<g id="레이어_5" class="rot">
	<g id="그룹_116208" transform="translate(12.989 2.001)">
		<path id="패스_42587" class="st8" d="M119.2,35.5l-2.7-8l-9.9,3.4c0.3-4.5-1.2-9.6-4.3-8.9c-3.1,0.7-2.2,4-2.7,8.6
			c-0.1,0.6-0.1,1.2-0.2,1.7c-0.5,2.8-2.4,5.1-5.1,6l-3.5,1.2l5.1,14.9l5.8-2c1.6-0.5,3.3-0.5,4.9,0c2.3,0.7,4.8,0.7,7.1-0.1
			l10.3-3.5l-2.7-7.9C120.9,39,120.3,37.1,119.2,35.5z"/>
		<path id="패스_42589" class="st8" d="M122.6,28.7c0.9,2.8-1.6,3.9-4.8,5c-3.2,1.1-5.8,1.8-6.8-1s1.6-3.9,4.8-5
			C119,26.6,121.7,26,122.6,28.7z"/>
		<path id="패스_42591" class="st8" d="M127.9,44c0.9,2.8-1.6,3.9-4.8,5c-3.2,1.1-5.8,1.8-6.8-1c-0.9-2.8,1.6-3.9,4.8-5
			C124.3,42,127,41.3,127.9,44z"/>
		<path id="패스_42593" class="st8" d="M128.8,38.1c0.9,2.6-2.2,3.9-6.1,5.2c-3.9,1.3-7.1,2.2-8-0.3s2.2-3.9,6.1-5.2
			C124.6,36.4,127.9,35.6,128.8,38.1z"/>
		<path id="패스_42595" class="st8" d="M126.9,32.6c0.9,2.6-2.2,3.9-6.1,5.2c-3.9,1.3-7.1,2.2-8-0.3c-0.9-2.6,2.2-3.9,6.1-5.2
			C122.8,31,126,30.1,126.9,32.6z"/>
		<path id="패스_42598" class="st8" d="M106.6,30.9c2.3,3.2,2.1,7.6-0.6,10.5"/>
	</g>
</g>
</svg>
