<svg xmlns="http://www.w3.org/2000/svg" width="224.62" height="78" viewBox="0 0 224.62 78">
  <g id="title" transform="translate(15986 -6502)">
    <g id="합치기_160" data-name="합치기 160" transform="translate(-15976 6497)" fill="#ffdf5b">
      <path d="M 209.9996032714844 72.99979400634766 L 0.9999960660934448 72.99979400634766 L 0.9999960660934448 17.00009918212891 L 0.9999960660934448 6.000404834747314 L 51.74614715576172 6.000404834747314 L 54.16074752807617 17.21065521240234 L 54.33077239990234 18.00009918212891 L 55.13832855224609 18.00009918212891 L 209.9996032714844 18.00009918212891 L 209.9996032714844 72.99979400634766 Z" stroke="none"/>
      <path d="M 208.9996032714844 71.99979400634766 L 208.9996032714844 19.00009918212891 L 53.52324676513672 19.00009918212891 L 50.9385986328125 7.000404834747314 L 1.999996066093445 7.000404834747314 L 1.999996066093445 71.99979400634766 L 208.9996032714844 71.99979400634766 M 210.9996032714844 73.99979400634766 L -3.919813480024459e-06 73.99979400634766 L -3.919813480024459e-06 5.000404834747314 L 52.55369186401367 5.000404834747314 L 55.13832855224609 17.00009918212891 L 210.9996032714844 17.00009918212891 L 210.9996032714844 73.99979400634766 Z" stroke="none" fill="#000"/>
    </g>
    <g id="사각형_22106" data-name="사각형 22106" transform="translate(-15981 6518)" fill="#fff" stroke="#000" stroke-width="2">
      <rect width="211" height="57" stroke="none"/>
      <rect x="1" y="1" width="209" height="55" fill="none"/>
    </g>
    <g id="사각형_22101" data-name="사각형 22101" transform="translate(-15986 6523)" fill="#ffdf5b" stroke="#000" stroke-width="2">
      <rect width="211" height="57" stroke="none"/>
      <rect x="1" y="1" width="209" height="55" fill="none"/>
    </g>
    <path id="패스_42584" data-name="패스 42584" d="M-75.488-20.86c-5.152,0-9.24,2.464-9.24,6.58,0,4.284,2.688,6.328,7.644,7.252,4.06.756,5.6,1.484,5.6,3.3,0,1.484-1.54,2.52-3.612,2.52-2.912,0-4.816-1.456-5.1-3.64h-5.236C-85.2.028-81.088,3.08-75.46,3.08c5.1,0,9.212-2.66,9.212-7.028,0-3.416-1.792-6.02-7.056-7.112-4.452-.924-6.216-1.512-6.216-3.22,0-1.372,1.316-2.324,3.7-2.324,2.436,0,3.92,1.2,4.228,3.192h5.264C-66.584-17.752-70.392-20.86-75.488-20.86Zm21.868,6.972h-3.248V-18.76h-4.984v4.872H-65.1V-9.6h3.248V2.52h4.984V-9.6h3.248Zm4.536-7.924a2.957,2.957,0,0,0-3.052,3.052,2.957,2.957,0,0,0,3.052,3.052,2.957,2.957,0,0,0,3.052-3.052A2.957,2.957,0,0,0-49.084-21.812Zm2.492,7.924h-4.984V2.576h4.984Zm19.516,10.5h-5.04a3.179,3.179,0,0,1-3.136,1.96c-2.324,0-3.836-1.792-3.836-4.256s1.512-4.256,3.836-4.256a3.022,3.022,0,0,1,3.052,1.9h5.04c-.588-3.5-3.808-6.244-8.092-6.244a8.354,8.354,0,0,0-8.708,8.6,8.354,8.354,0,0,0,8.708,8.6A8,8,0,0,0-27.076-3.388ZM-13.692,2.52h5.684l-6.636-9.408,6.3-7h-5.544l-5.8,6.692V-21h-4.984V2.52h4.984V-1.26L-17.7-3.5ZM.252,2.912c3.976,0,7.2-2.156,8.036-5.292H3.276A3.379,3.379,0,0,1,.252-1.092a3.467,3.467,0,0,1-3.584-3H8.68a11.214,11.214,0,0,0,.112-1.6,8.234,8.234,0,0,0-8.54-8.6,8.249,8.249,0,0,0-8.54,8.6A8.234,8.234,0,0,0,.252,2.912ZM-3.36-7.308A3.436,3.436,0,0,1,.252-10.332,3.49,3.49,0,0,1,3.92-7.308ZM11.452,2.52h4.984v-8.4c0-2.492,1.6-4,4.256-4a5.52,5.52,0,0,1,2.548.56L23.184-14a6.106,6.106,0,0,0-2.156-.28,5.384,5.384,0,0,0-4.592,2.072v-1.68H11.452Zm21.588,0h5.1V-6.216H48.5V-10.64H38.136v-5.18H49.784V-20.3H33.04ZM54.656-21.812A2.957,2.957,0,0,0,51.6-18.76a2.957,2.957,0,0,0,3.052,3.052,2.957,2.957,0,0,0,3.052-3.052A2.957,2.957,0,0,0,54.656-21.812Zm2.492,7.924H52.164V2.576h4.984ZM65.6-21H60.62V2.52H65.6ZM76.776,2.912c3.976,0,7.2-2.156,8.036-5.292H79.8a3.379,3.379,0,0,1-3.024,1.288,3.467,3.467,0,0,1-3.584-3H85.2a11.214,11.214,0,0,0,.112-1.6,8.234,8.234,0,0,0-8.54-8.6,8.249,8.249,0,0,0-8.54,8.6A8.234,8.234,0,0,0,76.776,2.912ZM73.164-7.308a3.436,3.436,0,0,1,3.612-3.024,3.49,3.49,0,0,1,3.668,3.024Z" transform="translate(-15880.572 6560.812)"/>
    <g id="flower" transform="translate(-16061.295 4665.926)">
      <g id="그룹_116250" data-name="그룹 116250" transform="translate(274.959 1841.139)">
        <g id="그룹_116251" data-name="그룹 116251" transform="translate(0 0)">
          <path id="패스_42658" data-name="패스 42658" d="M21.9,14.857a3.455,3.455,0,0,0-1.89-.653,17.692,17.692,0,0,1-5.856-1.126l-.361-.143h0a17.946,17.946,0,0,1,6.167-1.267,3.468,3.468,0,0,0,2.695-5.532,3.467,3.467,0,0,0-5.717.211,17.667,17.667,0,0,1-3.9,4.509l-.3.241h0a17.939,17.939,0,0,1,1.986-5.974,3.468,3.468,0,0,0-3.444-5.1A3.467,3.467,0,0,0,8.6,5.079a17.677,17.677,0,0,1,1.952,5.635l.057.384h0a17.955,17.955,0,0,1-4.18-4.707,3.468,3.468,0,0,0-6.139.432,3.468,3.468,0,0,0,3.041,4.846,17.659,17.659,0,0,1,5.856,1.126l.361.143h0A17.96,17.96,0,0,1,3.376,14.2,3.468,3.468,0,0,0,.682,19.736,3.467,3.467,0,0,0,6.4,19.524a17.7,17.7,0,0,1,3.9-4.509l.3-.241v0A17.956,17.956,0,0,1,8.619,20.75a3.468,3.468,0,0,0,3.444,5.1,3.468,3.468,0,0,0,2.676-5.057,17.662,17.662,0,0,1-1.953-5.635l-.057-.384h0a17.956,17.956,0,0,1,4.181,4.707,3.433,3.433,0,0,0,1.221,1.191A3.469,3.469,0,0,0,21.9,14.857" transform="translate(0 0)" fill="#30395a" stroke="#000" stroke-width="3"/>
        </g>
      </g>
      <path id="패스_42659" data-name="패스 42659" d="M21.9,14.857a3.455,3.455,0,0,0-1.89-.653,17.692,17.692,0,0,1-5.856-1.126l-.361-.143h0a17.946,17.946,0,0,1,6.167-1.267,3.468,3.468,0,0,0,2.695-5.532,3.467,3.467,0,0,0-5.717.211,17.667,17.667,0,0,1-3.9,4.509l-.3.241h0a17.939,17.939,0,0,1,1.986-5.974,3.468,3.468,0,0,0-3.444-5.1A3.467,3.467,0,0,0,8.6,5.079a17.677,17.677,0,0,1,1.952,5.635l.057.384h0a17.955,17.955,0,0,1-4.18-4.707,3.468,3.468,0,0,0-6.139.432,3.468,3.468,0,0,0,3.041,4.846,17.659,17.659,0,0,1,5.856,1.126l.361.143h0A17.96,17.96,0,0,1,3.376,14.2,3.468,3.468,0,0,0,.682,19.736,3.467,3.467,0,0,0,6.4,19.524a17.7,17.7,0,0,1,3.9-4.509l.3-.241v0A17.956,17.956,0,0,1,8.619,20.75a3.468,3.468,0,0,0,3.444,5.1,3.468,3.468,0,0,0,2.676-5.057,17.662,17.662,0,0,1-1.953-5.635l-.057-.384h0a17.956,17.956,0,0,1,4.181,4.707,3.433,3.433,0,0,0,1.221,1.191A3.469,3.469,0,0,0,21.9,14.857" transform="translate(274.959 1841.139)" fill="#f38ab3"/>
    </g>
  </g>
</svg>
