<?xml version="1.0" encoding="utf-8"?>
<!-- Generator: Adobe Illustrator 26.1.0, SVG Export Plug-In . SVG Version: 6.00 Build 0)  -->
<svg version="1.1" xmlns="http://www.w3.org/2000/svg" xmlns:xlink="http://www.w3.org/1999/xlink" x="0px" y="0px" viewBox="0 0 280 150" style="enable-background:new 0 0 280 150;" xml:space="preserve">
<style type="text/css">
.st0{fill:#7582F0;}
.st1{fill:none;stroke:#080D4B;stroke-width:2;stroke-linecap:round;stroke-linejoin:round;}
.st2{fill:none;stroke:#000000;stroke-width:2.0027;stroke-miterlimit:4.0054;}
.st3{enable-background:new    ;}
.st4{fill:#1D1D1B;}
.st5{fill:#FFFFFF;}
.st6{fill:none;stroke:#000000;}
.st7{fill:#F15E22;}
.st8{fill:#FEC211;}
.st9{fill:#707070;}
.st10{fill:none;}
.st11{fill:#080D4B;}
.st12{fill:none;stroke:#000000;stroke-width:2;stroke-linecap:round;stroke-miterlimit:4;}
.st13{fill:none;stroke:#000000;stroke-width:2;stroke-linecap:round;stroke-linejoin:round;}
.st14{stroke:#000000;stroke-width:1.2;}
.st15{fill:none;stroke:#000000;stroke-width:1.2;stroke-linecap:round;stroke-linejoin:round;}
.st16{fill:#FF9F00;stroke:#000000;stroke-width:1.2;}

.bump {transform-origin:77% 78%;animation:bump both linear infinite 2s;}
@keyframes bump {
0% {transform:scale(1.05) rotate(-30deg);}
50% {transform:scale(0.98) rotate(0deg);}
100% {transform:scale(1.05) rotate(-30deg);}
}

.bump_a {transform-origin:91% 63.5%;animation:bump_a both linear infinite 1.0s;}
@keyframes bump_a {
0% {transform:scale(0.6) translate(-4px, 2px) rotate(0);}
50% {transform:scale(1.0) translate(-4px, 2px) rotate(0deg);}
100% {transform:scale(0.6) translate(-4px,2px) rotate(0deg);}
}

.star {position:relative;animation:star both infinite 4s;}
.star.s1 {transform-origin:8% 58%;}
.star.s2 {transform-origin:65% 14%;animation-delay:0.5s;}
@keyframes star {
0% {transform:scale(0.6);opacity:1;}	
20% {transform:scale(1.1);opacity:1;}
40% {transform:scale(0.8);}	
58% {transform:scale(1);}
100% {transform:scale(1);}
}
</style>
<g id="Layer_1">
	<g id="Group_110016" transform="translate(-23967.77 -16414.264) rotate(-3)">
		<g id="Group_110109" transform="translate(0.419 11.355)">
			<path id="Path_37140" class="st0" d="M23311.5,17704.1c2.3-3.7,3.6-8,3.6-12.4c0-16.4-17.5-29.7-39.2-29.7
				c-13.9,0-26.1,5.5-33.1,13.8c-6.4-6.5-16.5-10.7-28-10.7c-5.8,0-11.6,1.1-17,3.3c-6.2-6-15-10.3-25.5-12
				c-2.8-0.4-5.6-0.6-8.4-0.6c-23.6,0-42.8,14.6-42.8,32.5c0,0.5,0,1,0.1,1.6c-9.5,5.1-15.7,13.5-15.7,23
				c0,15.6,16.6,28.2,37.1,28.2c1.8,0,3.6-0.1,5.4-0.3c4.5,8.3,15.2,14.1,27.8,14.1c10.8,0,20.3-4.4,25.6-10.9c6,2,12.2,3.1,18.6,3
				c9.3,0.1,18.6-2.2,26.8-6.7c5.1,5.9,13.9,9.7,23.8,9.7c14,0,25.6-7.7,28.1-17.7c1.9,0.4,3.9,0.7,5.8,0.7
				c10.8,0,19.6-6.7,19.6-14.9C23324.1,17711.7,23318.9,17706.2,23311.5,17704.1"/>
			<path id="Path_37141" class="st1" d="M23311.5,17704.1c2.3-3.7,3.6-8,3.6-12.4c0-16.4-17.5-29.7-39.2-29.7
				c-13.9,0-26.1,5.5-33.1,13.8c-6.4-6.5-16.5-10.7-28-10.7c-5.8,0-11.6,1.1-17,3.3c-7.8-7.7-20.1-12.6-33.8-12.6
				c-23.6,0-42.8,14.6-42.8,32.5c0,0.5,0,1,0.1,1.6c-9.5,5.1-15.7,13.5-15.7,23c0,15.6,16.6,28.2,37.1,28.2c1.8,0,3.6-0.1,5.4-0.3
				c4.5,8.3,15.2,14.1,27.8,14.1c10.8,0,20.3-4.4,25.6-10.9c6,2,12.2,3.1,18.6,3c9.3,0.1,18.6-2.2,26.8-6.7
				c5.1,5.9,13.9,9.7,23.8,9.7c14,0,25.6-7.7,28.1-17.7c1.9,0.4,3.9,0.7,5.8,0.7c10.8,0,19.6-6.7,19.6-14.9
				C23324.1,17711.7,23318.9,17706.2,23311.5,17704.1z"/>
		</g>
	</g>
	<g id="Ellipse_629" transform="matrix(0.998, -0.07, 0.07, 0.998, -23921.244, -16337.132)">
		
			<ellipse transform="matrix(-1 7.601034e-06 -7.601034e-06 -1 45679.9414 36141.3945)" cx="22839.9" cy="18070.8" rx="60.1" ry="17.7"/>
		
			<ellipse transform="matrix(-1 7.601034e-06 -7.601034e-06 -1 45679.9414 36141.3945)" class="st2" cx="22839.9" cy="18070.8" rx="59.1" ry="16.7"/>
	</g>
	<g transform="matrix(1, 0, 0, 1, -24045, -16422.39)">
		<g class="st3">
			<path class="st4" d="M24140.4,16488.2v4.7h-25.9v-4.7h10.4v-3.6c-5.7-0.7-9.4-3.8-9.4-8.1c0-4.9,4.8-8.2,12-8.2s12,3.4,12,8.2
				c0,4.3-3.7,7.4-9.4,8.1v3.6H24140.4z M24127.5,16480.2c3.9,0,6.6-1.5,6.6-3.7c0-2.2-2.7-3.7-6.6-3.7s-6.6,1.5-6.6,3.7
				C24120.9,16478.7,24123.6,16480.2,24127.5,16480.2z"/>
			<path class="st4" d="M24168.5,16481.7h-25.9v-3.7h25.9V16481.7z M24167,16489.6h-17.9v1h18.2v3.2h-23.2v-6.9h17.9v-0.9h-18v-3.2
				h22.9V16489.6z M24149.2,16473.2h18.1v3.8h-23.1v-8.9h5V16473.2z"/>
			<path class="st4" d="M24186.9,16483.1h-15.6v-14.6h15.6V16483.1z M24177.3,16489.2h17.8v4.6h-23v-9h5.2V16489.2z
				 M24181.9,16472.8h-5.6v6h5.6V16472.8z M24197.8,16473.3v4.9h-3v8.9h-5.1v-19h5.1v5.1L24197.8,16473.3L24197.8,16473.3z"/>
			<path class="st4" d="M24232.4,16481.4v3.9h-25.9v-3.9H24232.4z M24207.8,16486.4h23v7.7h-5.1v-3.8h-17.9L24207.8,16486.4
				L24207.8,16486.4z M24231.1,16480.3h-23.1v-12.1h22.8v3.4h-17.8v1.2h17.3v3h-17.3v1.2h18.1V16480.3z"/>
			<path class="st4" d="M24235.3,16468.8h14.5v6.9c0,10.4-5.6,16.9-14.5,16.9v-4.8c6.2-0.1,9.3-4.6,9.3-12.1v-2.3h-9.3V16468.8z
				 M24261.6,16482.5h-3v11.3h-5.1v-25.6h5.1v9.4h3V16482.5z"/>
		</g>
		<g class="st3">
			<path class="st4" d="M24140.4,16488.2v4.7h-25.9v-4.7h10.4v-3.6c-5.7-0.7-9.4-3.8-9.4-8.1c0-4.9,4.8-8.2,12-8.2s12,3.4,12,8.2
				c0,4.3-3.7,7.4-9.4,8.1v3.6H24140.4z M24127.5,16480.2c3.9,0,6.6-1.5,6.6-3.7c0-2.2-2.7-3.7-6.6-3.7s-6.6,1.5-6.6,3.7
				C24120.9,16478.7,24123.6,16480.2,24127.5,16480.2z"/>
			<path class="st4" d="M24168.5,16481.7h-25.9v-3.7h25.9V16481.7z M24167,16489.6h-17.9v1h18.2v3.2h-23.2v-6.9h17.9v-0.9h-18v-3.2
				h22.9V16489.6z M24149.2,16473.2h18.1v3.8h-23.1v-8.9h5V16473.2z"/>
			<path class="st4" d="M24186.9,16483.1h-15.6v-14.6h15.6V16483.1z M24177.3,16489.2h17.8v4.6h-23v-9h5.2V16489.2z
				 M24181.9,16472.8h-5.6v6h5.6V16472.8z M24197.8,16473.3v4.9h-3v8.9h-5.1v-19h5.1v5.1L24197.8,16473.3L24197.8,16473.3z"/>
			<path class="st4" d="M24232.4,16481.4v3.9h-25.9v-3.9H24232.4z M24207.8,16486.4h23v7.7h-5.1v-3.8h-17.9L24207.8,16486.4
				L24207.8,16486.4z M24231.1,16480.3h-23.1v-12.1h22.8v3.4h-17.8v1.2h17.3v3h-17.3v1.2h18.1V16480.3z"/>
			<path class="st4" d="M24235.3,16468.8h14.5v6.9c0,10.4-5.6,16.9-14.5,16.9v-4.8c6.2-0.1,9.3-4.6,9.3-12.1v-2.3h-9.3V16468.8z
				 M24261.6,16482.5h-3v11.3h-5.1v-25.6h5.1v9.4h3V16482.5z"/>
		</g>
	</g>
	<g transform="matrix(1, 0, 0, 1, -24045, -16422.39)">
		<g class="st3">
			<path class="st5" d="M24138.4,16486.2v4.7h-25.9v-4.7h10.4v-3.6c-5.7-0.7-9.4-3.8-9.4-8.1c0-4.9,4.8-8.2,12-8.2s12,3.4,12,8.2
				c0,4.3-3.7,7.4-9.4,8.1v3.6H24138.4z M24125.5,16478.2c3.9,0,6.6-1.5,6.6-3.7c0-2.2-2.7-3.7-6.6-3.7s-6.6,1.5-6.6,3.7
				C24118.9,16476.7,24121.6,16478.2,24125.5,16478.2z"/>
			<path class="st5" d="M24166.5,16479.7h-25.9v-3.7h25.9V16479.7z M24165,16487.6h-17.9v1h18.2v3.2h-23.2v-6.9h17.9v-0.9h-18v-3.2
				h22.9V16487.6z M24147.2,16471.2h18.1v3.8h-23.1v-8.9h5V16471.2z"/>
			<path class="st5" d="M24184.9,16481.1h-15.6v-14.6h15.6V16481.1z M24175.3,16487.2h17.8v4.6h-23v-9h5.2V16487.2z
				 M24179.9,16470.8h-5.6v6h5.6V16470.8z M24195.8,16471.3v4.9h-3v8.9h-5.1v-19h5.1v5.1L24195.8,16471.3L24195.8,16471.3z"/>
			<path class="st5" d="M24230.4,16479.4v3.9h-25.9v-3.9H24230.4z M24205.8,16484.4h23v7.7h-5.1v-3.8h-17.9L24205.8,16484.4
				L24205.8,16484.4z M24229.1,16478.3h-23.1v-12.1h22.8v3.4h-17.8v1.2h17.3v3h-17.3v1.2h18.1V16478.3z"/>
			<path class="st5" d="M24233.3,16466.8h14.5v6.9c0,10.4-5.6,16.9-14.5,16.9v-4.8c6.2-0.1,9.3-4.6,9.3-12.1v-2.3h-9.3V16466.8z
				 M24259.6,16480.5h-3v11.3h-5.1v-25.6h5.1v9.4h3V16480.5z"/>
		</g>
		<g class="st3">
			<path class="st6" d="M24138.4,16486.2v4.7h-25.9v-4.7h10.4v-3.6c-5.7-0.7-9.4-3.8-9.4-8.1c0-4.9,4.8-8.2,12-8.2s12,3.4,12,8.2
				c0,4.3-3.7,7.4-9.4,8.1v3.6H24138.4z M24125.5,16478.2c3.9,0,6.6-1.5,6.6-3.7c0-2.2-2.7-3.7-6.6-3.7s-6.6,1.5-6.6,3.7
				C24118.9,16476.7,24121.6,16478.2,24125.5,16478.2z"/>
			<path class="st6" d="M24166.5,16479.7h-25.9v-3.7h25.9V16479.7z M24165,16487.6h-17.9v1h18.2v3.2h-23.2v-6.9h17.9v-0.9h-18v-3.2
				h22.9V16487.6z M24147.2,16471.2h18.1v3.8h-23.1v-8.9h5V16471.2z"/>
			<path class="st6" d="M24184.9,16481.1h-15.6v-14.6h15.6V16481.1z M24175.3,16487.2h17.8v4.6h-23v-9h5.2V16487.2z
				 M24179.9,16470.8h-5.6v6h5.6V16470.8z M24195.8,16471.3v4.9h-3v8.9h-5.1v-19h5.1v5.1L24195.8,16471.3L24195.8,16471.3z"/>
			<path class="st6" d="M24230.4,16479.4v3.9h-25.9v-3.9H24230.4z M24205.8,16484.4h23v7.7h-5.1v-3.8h-17.9L24205.8,16484.4
				L24205.8,16484.4z M24229.1,16478.3h-23.1v-12.1h22.8v3.4h-17.8v1.2h17.3v3h-17.3v1.2h18.1V16478.3z"/>
			<path class="st6" d="M24233.3,16466.8h14.5v6.9c0,10.4-5.6,16.9-14.5,16.9v-4.8c6.2-0.1,9.3-4.6,9.3-12.1v-2.3h-9.3V16466.8z
				 M24259.6,16480.5h-3v11.3h-5.1v-25.6h5.1v9.4h3V16480.5z"/>
		</g>
	</g>
</g>
<g id="bump_x5F_a">
	<g id="Layer_4">
		<g>
			<path d="M218.1,76.5l0.8-4.4c0,0,0.5-1,1.2,0.1c0.6,1,0,0.1,0,0.1l1.7,4.5l2.7-2c0,0,1-0.7,1.1,0.5l-0.7,3.7h4.1
				c0,0,1-0.2,1.1,0.5c0,0,0,0.5-0.3,0.7l-3.4,2.4l3.2,2.4c0,0,0.6,0.4,0.4,0.8c0,0-0.1,0.4-0.6,0.4l-3.7-0.1l1.9,4.5
				c0,0,0.2,0.5-0.1,0.7c0,0-0.4,0.2-0.9-0.1l-3.7-2.9l-1,4c0,0,0,0.4-0.3,0.4c0,0-0.4,0.2-0.7-0.6l-1.6-3.9l-3,2.5
				c0,0-0.5,0.5-0.9,0.2c0,0-0.4,0-0.2-0.6l1.1-4.4l-4.5,0c0,0-0.5,0-0.6-0.5c0,0-0.2-0.3,0.4-0.7l3.2-2.4l-3.3-2.5
				c0,0-0.4-0.2-0.4-0.7c0,0,0-0.4,0.6-0.4l3.8,0.1l-1.9-4.4c0,0-0.2-0.6,0.2-0.8c0,0,0.1-0.3,0.7,0.1L218.1,76.5z"/>
			<path class="st7" d="M219.7,74.7l-0.6,3.1c0,0,0,0.7-1,0c-1.1-0.7-2.6-1.9-2.6-1.9l1.3,3c0,0,0.3,0.8-0.4,0.9h-2.9l2.4,1.8
				c0,0,0.7,0.5,0.1,1c-0.5,0.5-2.6,1.9-2.6,1.9h3.4c0,0,0.8,0,0.6,0.8l-0.8,3.4l2.5-2.1c0,0,0.4-0.5,0.9,0.2c0.4,0.7,0,0.1,0,0.1
				l1.2,2.9l0.7-2.8c0,0,0.1-0.5,0.8-0.4l2.8,2.1l-1.3-3.1c0,0-0.3-0.7,0.5-0.9l2.8,0.1L225,83c0,0-0.6-0.4,0-1l2.6-1.9l-3.4,0
				c0,0-0.7,0-0.6-0.8c0,0,0,0,0-0.1c0.1-0.9,0.5-2.9,0.5-2.9L222,78c0,0-0.8,0.6-1-0.2c-0.3-0.7-1.3-3.4-1.3-3.4L219.7,74.7z"/>
		</g>
	</g>
</g>
<g id="star">
	<g id="Group_110107" transform="translate(-23764.043 -16374.236)">
		<g id="Path_37142" transform="translate(-1.053 -8.83)">
			<path class="st8" d="M24014.1,16424.9l0.4,6.3l6,2.1c0.3,0.1,0.6,0.3,0.8,0.6c0.5,0.7,0.3,1.7-0.4,2.2c-0.1,0.1-0.2,0.1-0.3,0.2
				l-5.9,2.4l-0.2,6.3c0,0.3-0.1,0.7-0.3,0.9c-0.2,0.2-0.5,0.4-0.8,0.5c-0.3,0.1-0.6,0.1-0.9,0c-0.3-0.1-0.6-0.3-0.8-0.5l-4.1-4.8
				l-6.1,1.8c-0.3,0.1-0.7,0.1-1,0c-0.3-0.1-0.6-0.3-0.8-0.6s-0.3-0.6-0.3-0.9c0-0.3,0.1-0.7,0.2-1l3.3-5.4l-3.6-5.2
				c-0.2-0.3-0.3-0.6-0.3-1c0-0.3,0.1-0.6,0.3-0.9c0.2-0.3,0.4-0.5,0.7-0.6c0.3-0.1,0.7-0.2,1-0.1l6.2,1.5l3.9-5
				c0.2-0.3,0.5-0.5,0.8-0.6c0.6-0.2,1.3,0,1.7,0.5C24014,16424.3,24014.1,16424.6,24014.1,16424.9"/>
			<path class="st9" d="M24012.9,16447.6c-0.2,0-0.4,0-0.6-0.1c-0.2,0-0.4-0.1-0.5-0.2s-0.3-0.2-0.5-0.3s-0.3-0.2-0.4-0.4l-3.7-4.3
				l-5.5,1.6c-0.1,0-0.1,0-0.2,0.1c-0.1,0-0.1,0-0.2,0c-0.1,0-0.1,0-0.2,0c-0.1,0-0.1,0-0.2,0c-0.2,0-0.5,0-0.7-0.1
				c-0.2-0.1-0.4-0.2-0.6-0.3c-0.2-0.1-0.4-0.3-0.5-0.4c-0.2-0.2-0.3-0.4-0.4-0.6c-0.1-0.2-0.2-0.4-0.3-0.7
				c-0.1-0.2-0.1-0.4-0.1-0.7s0-0.4,0.1-0.7s0.2-0.4,0.3-0.6l3-4.8l-3.2-4.7c-0.1-0.2-0.2-0.4-0.3-0.6s-0.1-0.4-0.1-0.7
				s0-0.5,0.1-0.7s0.1-0.4,0.2-0.7s0.3-0.4,0.4-0.6s0.3-0.3,0.6-0.4c0.2-0.1,0.4-0.2,0.6-0.3c0.2-0.1,0.5-0.1,0.7-0.1
				c0.1,0,0.1,0,0.2,0s0.1,0,0.2,0s0.1,0,0.2,0s0.1,0,0.2,0l5.6,1.4l3.5-4.5c0.1-0.2,0.3-0.3,0.4-0.4c0.2-0.1,0.3-0.2,0.5-0.3
				s0.4-0.2,0.6-0.2s0.4-0.1,0.6-0.1c0.3,0,0.7,0.1,1,0.2c0.3,0.1,0.6,0.3,0.8,0.5s0.4,0.5,0.6,0.8s0.2,0.6,0.3,1l0.4,5.7l5.4,1.9
				c0.3,0.1,0.5,0.2,0.7,0.4c0.2,0.2,0.4,0.3,0.5,0.6c0.2,0.2,0.3,0.4,0.3,0.7s0.1,0.5,0.1,0.8c0,0.3,0,0.5-0.1,0.8
				c-0.1,0.2-0.2,0.5-0.3,0.7c-0.1,0.2-0.3,0.4-0.5,0.6c-0.2,0.2-0.4,0.3-0.7,0.4l-5.3,2.1l-0.2,5.7c0,0.3-0.1,0.7-0.2,1
				s-0.3,0.6-0.6,0.8s-0.5,0.4-0.8,0.5C24013.6,16447.5,24013.2,16447.6,24012.9,16447.6z M24007.9,16440.1l0.4,0.5l4.1,4.8
				c0,0,0.1,0.1,0.1,0.1s0.1,0.1,0.1,0.1s0.1,0,0.1,0s0.1,0,0.1,0c0.1,0,0.1,0,0.2,0c0.1,0,0.1-0.1,0.2-0.1s0.1-0.1,0.2-0.2
				c0-0.1,0.1-0.2,0.1-0.3l0.2-6.3l0-0.6l0.6-0.2l5.9-2.4c0.1,0,0.2-0.1,0.2-0.1s0.1-0.1,0.1-0.2s0-0.1,0.1-0.2c0-0.1,0-0.1,0-0.1
				c0,0,0-0.1,0-0.1s0-0.1-0.1-0.2c0-0.1-0.1-0.1-0.1-0.2s-0.1-0.1-0.2-0.1l-6-2.1l-0.6-0.2l0-0.6l-0.4-6.3c0-0.1,0-0.2-0.1-0.3
				c0-0.1-0.1-0.1-0.2-0.2c-0.1-0.1-0.1-0.1-0.2-0.1c-0.1,0-0.1,0-0.2,0c-0.1,0-0.1,0-0.1,0s-0.1,0-0.1,0.1c0,0-0.1,0-0.1,0.1
				c0,0-0.1,0.1-0.1,0.1l-3.9,5l-0.4,0.5l-0.6-0.2l-6.2-1.5c0,0,0,0,0,0s0,0,0,0s0,0,0,0s0,0,0,0c-0.1,0-0.1,0-0.2,0
				s-0.1,0.1-0.2,0.1c-0.1,0-0.1,0.1-0.1,0.1s-0.1,0.1-0.1,0.1c0,0,0,0.1-0.1,0.1c0,0,0,0.1,0,0.2c0,0.1,0,0.1,0,0.2
				s0.1,0.1,0.1,0.2l3.6,5.2l0.4,0.5l-0.3,0.6l-3.4,5.3c0,0.1-0.1,0.1-0.1,0.2s0,0.1,0,0.2c0,0.1,0,0.1,0,0.2c0,0,0,0.1,0.1,0.1
				c0,0,0.1,0.1,0.1,0.1s0.1,0.1,0.1,0.1s0.1,0.1,0.2,0.1c0.1,0,0.1,0,0.2,0c0,0,0,0,0.1,0c0,0,0,0,0.1,0c0,0,0,0,0.1,0
				c0,0,0,0,0.1,0l6.1-1.8L24007.9,16440.1z"/>
		</g>
		<g id="Path_37143" transform="translate(-1.053 -9.023)">
			<path class="st10" d="M24014.1,16424.9l0.4,6.3l6,2.1c0.3,0.1,0.6,0.3,0.8,0.6c0.5,0.7,0.3,1.7-0.4,2.2c-0.1,0.1-0.2,0.1-0.3,0.2
				l-5.9,2.4l-0.2,6.3c0,0.3-0.1,0.7-0.3,0.9c-0.2,0.2-0.5,0.4-0.8,0.5c-0.3,0.1-0.6,0.1-0.9,0c-0.3-0.1-0.6-0.3-0.8-0.5l-4.1-4.8
				l-6.1,1.8c-0.3,0.1-0.7,0.1-1,0c-0.3-0.1-0.6-0.3-0.8-0.6s-0.3-0.6-0.3-0.9c0-0.3,0.1-0.7,0.2-1l3.3-5.4l-3.6-5.2
				c-0.2-0.3-0.3-0.6-0.3-1c0-0.3,0.1-0.6,0.3-0.9c0.2-0.3,0.4-0.5,0.7-0.6c0.3-0.1,0.7-0.2,1-0.1l6.2,1.5l3.9-5
				c0.2-0.3,0.5-0.5,0.8-0.6c0.6-0.2,1.3,0,1.7,0.5C24014,16424.2,24014.1,16424.6,24014.1,16424.9z"/>
			<path class="st11" d="M24012.9,16447.6c-0.2,0-0.4,0-0.6-0.1c-0.2,0-0.4-0.1-0.5-0.2s-0.3-0.2-0.5-0.3s-0.3-0.2-0.4-0.4l-3.7-4.3
				l-5.5,1.6c-0.1,0-0.1,0-0.2,0.1c-0.1,0-0.1,0-0.2,0s-0.1,0-0.2,0c-0.1,0-0.1,0-0.2,0c-0.2,0-0.5,0-0.7-0.1
				c-0.2-0.1-0.4-0.2-0.6-0.3s-0.4-0.3-0.5-0.4c-0.2-0.2-0.3-0.3-0.4-0.6s-0.2-0.4-0.3-0.7c-0.1-0.2-0.1-0.4-0.1-0.7
				c0-0.2,0-0.4,0.1-0.7s0.2-0.4,0.3-0.6l3-4.8l-3.2-4.7c-0.1-0.2-0.2-0.4-0.3-0.6s-0.1-0.4-0.1-0.7s0-0.5,0.1-0.7s0.1-0.5,0.2-0.7
				c0.1-0.2,0.3-0.4,0.4-0.6s0.3-0.3,0.6-0.4c0.2-0.1,0.4-0.2,0.6-0.3s0.5-0.1,0.7-0.1c0.1,0,0.1,0,0.2,0s0.1,0,0.2,0s0.1,0,0.2,0
				s0.1,0,0.2,0l5.6,1.4l3.5-4.5c0.1-0.2,0.3-0.3,0.4-0.4s0.3-0.2,0.5-0.3s0.4-0.2,0.6-0.2s0.4-0.1,0.6-0.1c0.3,0,0.7,0.1,1,0.2
				c0.3,0.1,0.6,0.3,0.8,0.5s0.4,0.5,0.6,0.8s0.2,0.6,0.3,1l0.4,5.7l5.4,1.9c0.3,0.1,0.5,0.2,0.7,0.4c0.2,0.2,0.4,0.3,0.5,0.6
				c0.2,0.2,0.3,0.4,0.3,0.7s0.1,0.5,0.1,0.8s0,0.5-0.1,0.8c-0.1,0.2-0.2,0.5-0.3,0.7c-0.1,0.2-0.3,0.4-0.5,0.6
				c-0.2,0.2-0.4,0.3-0.7,0.4l-5.3,2.1l-0.2,5.7c0,0.3-0.1,0.7-0.2,1s-0.3,0.6-0.6,0.8s-0.5,0.4-0.8,0.5
				C24013.6,16447.5,24013.2,16447.6,24012.9,16447.6z M24007.5,16440.2c0.1,0,0.2,0,0.2,0s0.1,0,0.2,0.1c0.1,0,0.1,0.1,0.2,0.1
				c0.1,0,0.1,0.1,0.2,0.2l4.1,4.8c0,0,0.1,0.1,0.1,0.1s0.1,0.1,0.1,0.1s0.1,0,0.1,0s0.1,0,0.1,0c0.1,0,0.1,0,0.2,0
				c0.1,0,0.1-0.1,0.2-0.1c0.1-0.1,0.1-0.1,0.2-0.2c0-0.1,0.1-0.2,0.1-0.3l0.2-6.3c0-0.1,0-0.2,0.1-0.3c0-0.1,0.1-0.2,0.1-0.2
				c0.1-0.1,0.1-0.2,0.2-0.2c0.1-0.1,0.2-0.1,0.2-0.2l5.9-2.4c0.1,0,0.2-0.1,0.2-0.1c0.1-0.1,0.1-0.1,0.1-0.2s0-0.1,0.1-0.2
				c0-0.1,0-0.1,0-0.1c0,0,0-0.1,0-0.1s0-0.1-0.1-0.2c0-0.1-0.1-0.1-0.1-0.2c-0.1-0.1-0.1-0.1-0.2-0.1l-6-2.1
				c-0.1,0-0.2-0.1-0.3-0.1c-0.1-0.1-0.1-0.1-0.2-0.2c-0.1-0.1-0.1-0.2-0.1-0.2c0-0.1-0.1-0.2-0.1-0.3l-0.4-6.3c0-0.1,0-0.2-0.1-0.3
				c0-0.1-0.1-0.1-0.2-0.2c-0.1-0.1-0.1-0.1-0.2-0.1c-0.1,0-0.1,0-0.2,0c-0.1,0-0.1,0-0.1,0s-0.1,0-0.1,0.1c0,0-0.1,0-0.1,0.1
				c0,0-0.1,0.1-0.1,0.1l-3.9,5c-0.1,0.1-0.1,0.1-0.2,0.2c-0.1,0.1-0.1,0.1-0.2,0.1s-0.1,0.1-0.2,0.1c-0.1,0-0.2,0-0.2,0
				c0,0,0,0-0.1,0c0,0,0,0-0.1,0c0,0,0,0-0.1,0s0,0-0.1,0l-6.2-1.5c0,0,0,0,0,0s0,0,0,0c0,0,0,0,0,0s0,0,0,0c-0.1,0-0.1,0-0.2,0
				s-0.1,0.1-0.2,0.1c-0.1,0-0.1,0.1-0.1,0.1s-0.1,0.1-0.1,0.1c0,0,0,0.1-0.1,0.1c0,0,0,0.1,0,0.2s0,0.1,0,0.2s0.1,0.1,0.1,0.2
				l3.6,5.2c0.1,0.1,0.1,0.2,0.1,0.3c0,0.1,0,0.2,0.1,0.3s0,0.2,0,0.3s-0.1,0.2-0.1,0.3l-3.4,5.3c0,0.1-0.1,0.1-0.1,0.2s0,0.1,0,0.2
				c0,0.1,0,0.1,0,0.2c0,0,0,0.1,0.1,0.1c0,0,0.1,0.1,0.1,0.1s0.1,0.1,0.1,0.1s0.1,0.1,0.2,0.1c0.1,0,0.1,0,0.2,0c0,0,0,0,0.1,0
				c0,0,0,0,0.1,0c0,0,0,0,0.1,0c0,0,0,0,0.1,0l6.1-1.8c0,0,0,0,0.1,0C24007.4,16440.3,24007.4,16440.3,24007.5,16440.2
				C24007.5,16440.3,24007.5,16440.2,24007.5,16440.2C24007.5,16440.2,24007.5,16440.2,24007.5,16440.2z"/>
		</g>
	</g>
	<g id="Group_110108" transform="translate(-23970.445 -16376.895)">
		<path id="Path_37144" class="st8" d="M24009.2,16423.1l3.6,5.3l6.3-1.1c0.9-0.2,1.8,0.4,1.9,1.3c0.1,0.5,0,0.9-0.3,1.3l-3.9,5.1
			l3,5.7c0.4,0.8,0.1,1.8-0.7,2.2c-0.4,0.2-0.9,0.3-1.3,0.1l-6.1-2.2l-4.4,4.7c-0.6,0.7-1.7,0.7-2.3,0.1c-0.3-0.3-0.5-0.8-0.5-1.2
			l0.2-6.4l-5.8-2.8c-0.8-0.4-1.2-1.4-0.8-2.2c0.2-0.4,0.6-0.7,1-0.9l6.2-1.8l0.9-6.4c0.1-0.9,1-1.5,1.9-1.4
			C24008.6,16422.5,24009,16422.7,24009.2,16423.1"/>
		<path id="Path_37145" class="st1" d="M24009.2,16423.1l3.6,5.3l6.3-1.1c0.9-0.2,1.8,0.4,1.9,1.3c0.1,0.5,0,0.9-0.3,1.3l-3.9,5.1
			l3,5.7c0.4,0.8,0.1,1.8-0.7,2.2c-0.4,0.2-0.9,0.3-1.3,0.1l-6.1-2.2l-4.4,4.7c-0.6,0.7-1.7,0.7-2.3,0.1c-0.3-0.3-0.5-0.8-0.5-1.2
			l0.2-6.4l-5.8-2.8c-0.8-0.4-1.2-1.4-0.8-2.2c0.2-0.4,0.6-0.7,1-0.9l6.2-1.8l0.9-6.4c0.1-0.9,0.9-1.5,1.8-1.4
			C24008.6,16422.5,24009,16422.7,24009.2,16423.1z"/>
	</g>
</g>
<g id="Layer_4_00000158722960038547707990000000592137692276495793_">
	<path id="Path_37094" class="st12" d="M211.3,88.1c0,0,1.5,1.6,2-0.1c0.5-1.8,1.2-0.3,2.4-1.6"/>
</g>
<g id="bump">
	<g>
		<path id="Path_37084" class="st5" d="M181.5,90.7c-3.1,8.6,1.3,18,9.9,21.1s18-1.3,21.1-9.9c3.1-8.6-1.3-18-9.9-21.1
			C194,77.7,184.6,82.1,181.5,90.7L181.5,90.7"/>
		<path id="Path_37085" class="st13" d="M181.5,90.7c-3.1,8.6,1.3,18,9.9,21.1s18-1.3,21.1-9.9c3.1-8.6-1.3-18-9.9-21.1
			C194,77.7,184.6,82.1,181.5,90.7L181.5,90.7z"/>
		<path id="Path_37086" class="st14" d="M200,94.5c-0.4,1.2-0.4,2.4,0.1,2.5s1.2-0.7,1.7-1.9c0.4-1.2,0.4-2.3-0.1-2.5
			C201.2,92.4,200.5,93.3,200,94.5"/>
		<path id="Path_37088" class="st14" d="M194,92.4c-0.4,1.2-0.4,2.4,0.1,2.5c0.5,0.2,1.2-0.7,1.7-1.9c0.4-1.2,0.4-2.4-0.1-2.5
			C195.2,90.3,194.5,91.1,194,92.4"/>
		<path id="Path_37090" class="st15" d="M205.1,101.1c-4,4-10.4,4-14.4,0.1c-1.7-1.7-2.8-3.9-3-6.3"/>
		<path id="Path_37091" class="st15" d="M204.7,99.2c-0.3,1.2,0.4,2.3,1.6,2.6c0.2,0,0.4,0.1,0.5,0.1"/>
		<path id="Path_37092" class="st15" d="M189.2,93.6c-0.5,1.1-1.8,1.5-2.9,1c-0.2-0.1-0.3-0.2-0.4-0.3"/>
		<path id="Path_37093" class="st16" d="M193.8,97.5c-0.3,1.4,0.7,2.8,2.1,3c1,0.2,2-0.2,2.6-1.1c0.3-1.4-0.7-2.8-2.1-3
			C195.4,96.2,194.4,96.7,193.8,97.5"/>
	</g>
</g>
</svg>
