<?xml version="1.0" encoding="utf-8"?>
<!-- Generator: Adobe Illustrator 26.0.2, SVG Export Plug-In . SVG Version: 6.00 Build 0)  -->
<svg version="1.1" id="Layer_1" xmlns="http://www.w3.org/2000/svg" xmlns:xlink="http://www.w3.org/1999/xlink" x="0px" y="0px" viewBox="0 0 72 32" style="enable-background:new 0 0 72 32;" xml:space="preserve">
<style type="text/css">
.st0{fill:#FFFFFF;}
.st1{clip-path:url(#SVGID_00000124127831435172727780000010848840570279883185_);}
</style>
<g id="logo" transform="translate(0 0)">
	<path id="Path_13639" class="st0" d="M21,5.1h12.9v2.2H23.6V10h10.2v2.2H23.6v2.9h10.2v2.2H21V5.1z"/>
	<g id="Group_604" transform="translate(0 0)">
		<g>
			<defs>
				<rect id="SVGID_1_" y="4" width="72" height="32"/>
			</defs>
			<clipPath id="SVGID_00000026859234524574382980000008984201295798144402_">
				<use xlink:href="#SVGID_1_"  style="overflow:visible;"/>
			</clipPath>
			<g id="Group_603" style="clip-path:url(#SVGID_00000026859234524574382980000008984201295798144402_);">
				<path id="Path_13640" class="st0" d="M9.4,7.6h1.3V5.4H6.8V4.1H4.2v1.3H0.3v2.2h1.3c-2.1,2.2-2,5.6,0.1,7.7s5.6,2,7.7-0.1
					c1-1,1.5-2.4,1.5-3.8C10.9,10,10.4,8.6,9.4,7.6 M5.5,14.6c-1.7,0-3.1-1.4-3.1-3.1s1.4-3.1,3.1-3.1c1.7,0,3.1,1.4,3.1,3.1
					C8.6,13.2,7.2,14.6,5.5,14.6"/>
				<path id="Path_13641" class="st0" d="M50.3,5.1v3.1h-1.3V5.1h-2.3v11.7h2.3v-6.4h1.3v6.4h2.3V5.1H50.3z"/>
				<path id="Path_13642" class="st0" d="M39.5,20.1H50v4.4h2.6v-6.6H39.5V20.1z"/>
				<path id="Path_13643" class="st0" d="M40.1,13.7v-2.1h5.3V5.1h-7.7v2.2H43v2.1h-5.2v6.5h7.7v-2.2H40.1z"/>
				<path id="Path_13644" class="st0" d="M15.5,10.3h1.9V8.2h-1.9V5.1h-2.6v11.7h2.6L15.5,10.3z"/>
				<rect id="Rectangle_900" x="55.8" y="20.9" class="st0" width="16" height="2.2"/>
				<rect id="Rectangle_901" x="19.4" y="20.9" class="st0" width="16" height="2.2"/>
				<path id="Path_13645" class="st0" d="M9.9,20.6l3.8,3.8h3.4l-7.2-7.2l-7.2,7.2h3.4C7.4,23.1,9.1,21.4,9.9,20.6"/>
				<path id="Path_13646" class="st0" d="M63.4,9.6l4.4,7.6h2.8L63.4,4.8l-7.1,12.4h2.8L63.4,9.6"/>
			</g>
		</g>
	</g>
</g>
</svg>
