<?xml version="1.0" encoding="utf-8"?>
<!-- Generator: Adobe Illustrator 26.0.2, SVG Export Plug-In . SVG Version: 6.00 Build 0)  -->
<svg version="1.1" xmlns="http://www.w3.org/2000/svg" xmlns:xlink="http://www.w3.org/1999/xlink" x="0px" y="0px" viewBox="0 0 244 304" style="enable-background:new 0 0 244 304;" xml:space="preserve">
<style type="text/css">
	.st0{fill:#000;}
</style>
<g id="Layer_1">
	<path class="st0" d="M0,0v304h244V0H0z M242,237.49c-0.01,35.62-28.89,64.5-64.52,64.49c-22.78,0-43.87-12.02-55.48-31.61 c-18.16,30.65-57.73,40.77-88.38,22.6C14.02,281.36,2,260.27,2,237.49V66.5C2,30.88,30.89,2,66.51,2.01 c22.78,0,43.87,12.02,55.49,31.62c18.17-30.65,57.74-40.76,88.38-22.6C229.98,22.64,242,43.73,242,66.5V237.49z"/>
</g>
<g id="Layer_2">
</g>
</svg>
